<svg version="1.1" xmlns="http://www.w3.org/2000/svg" viewBox="0 0 604.0278015136719 339.072702453069" width="604.0278015136719" height="339.072702453069" filter="invert(93%) hue-rotate(180deg)" class="excalidraw-svg">
  <!-- svg-source:excalidraw -->
  
  <defs>
    <style class="style-fonts">
      @font-face {
        font-family: "Virgil";
        src: url("https://excalidraw.com/Virgil.woff2");
      }
      @font-face {
        font-family: "Cascadia";
        src: url("https://excalidraw.com/Cascadia.woff2");
      }
      @font-face {
        font-family: "Assistant";
        src: url("https://excalidraw.com/Assistant-Regular.woff2");
      }
    </style>
    
  </defs>
  <rect x="0" y="0" width="604.0278015136719" height="339.072702453069" fill="#ffffff"/><g stroke-linecap="round"><g transform="translate(105.83334350585938 16.572702453068985) rotate(0 23.263885498046875 156.25)"><path d="M0 0 C7.75 26.04, 46.18 104.17, 46.53 156.25 C46.87 208.33, 9.49 286.46, 2.08 312.5 M0 0 C7.75 26.04, 46.18 104.17, 46.53 156.25 C46.87 208.33, 9.49 286.46, 2.08 312.5" stroke="#1e1e1e" stroke-width="2" fill="none"/></g></g><mask/><g stroke-linecap="round"><g transform="translate(415.6515694650827 10.32273297064711) rotate(179.07142310237484 23.263885498046875 156.25)"><path d="M0 0 C7.75 26.04, 46.18 104.17, 46.53 156.25 C46.87 208.33, 9.49 286.46, 2.08 312.5 M0 0 C7.75 26.04, 46.18 104.17, 46.53 156.25 C46.87 208.33, 9.49 286.46, 2.08 312.5" stroke="#1e1e1e" stroke-width="2" fill="none"/></g></g><mask/><g stroke-linecap="round"><g transform="translate(105.83334350585938 197.12824444525648) rotate(0 185.41665649414062 -20.833328247070312)"><path d="M0 0 C31.25 -6.94, 125.69 -41.55, 187.5 -41.67 C249.31 -41.78, 340.28 -7.52, 370.83 -0.69 M0 0 C31.25 -6.94, 125.69 -41.55, 187.5 -41.67 C249.31 -41.78, 340.28 -7.52, 370.83 -0.69" stroke="#6741d9" stroke-width="2" fill="none"/></g></g><mask/><g transform="translate(245.41665649414062 117.26716046088148) rotate(0 0.6944580078125 9.374984741210938)" stroke="none"><path fill="#6741d9" d="M 0.64,-0.10 Q 0.64,-0.10 1.05,1.05 1.45,2.22 1.74,3.50 2.04,4.78 1.98,6.67 1.93,8.56 1.90,10.09 1.87,11.63 1.85,12.88 1.84,14.12 1.59,16.51 1.35,18.89 1.33,18.99 1.31,19.10 1.26,19.19 1.21,19.29 1.14,19.36 1.06,19.43 0.96,19.48 0.86,19.52 0.76,19.53 0.65,19.54 0.55,19.52 0.45,19.50 0.36,19.44 0.26,19.39 0.20,19.30 0.13,19.22 0.09,19.12 0.05,19.03 0.04,18.92 0.04,18.81 0.07,18.71 0.10,18.61 0.16,18.52 0.22,18.43 0.30,18.37 0.39,18.31 0.49,18.27 0.59,18.24 0.69,18.24 0.80,18.24 0.90,18.27 1.00,18.31 1.08,18.37 1.17,18.44 1.23,18.52 1.29,18.61 1.32,18.71 1.34,18.82 1.34,18.92 1.33,19.03 1.29,19.13 1.25,19.23 1.18,19.31 1.11,19.39 1.02,19.44 0.93,19.50 0.83,19.52 0.72,19.54 0.62,19.53 0.51,19.52 0.42,19.47 0.32,19.43 0.24,19.36 0.17,19.28 0.12,19.19 0.07,19.09 0.05,18.99 0.03,18.88 0.03,18.88 0.03,18.88 -0.18,16.49 -0.41,14.10 -0.40,12.84 -0.38,11.58 -0.34,10.02 -0.30,8.46 -0.20,6.85 -0.10,5.23 -0.37,3.90 -0.65,2.57 -0.65,1.33 -0.64,0.10 -0.65,0.02 -0.65,-0.05 -0.63,-0.12 -0.62,-0.20 -0.59,-0.27 -0.55,-0.34 -0.50,-0.41 -0.45,-0.47 -0.39,-0.51 -0.33,-0.56 -0.25,-0.59 -0.18,-0.62 -0.10,-0.64 -0.02,-0.65 0.04,-0.64 0.12,-0.64 0.20,-0.61 0.27,-0.59 0.34,-0.55 0.41,-0.51 0.46,-0.45 0.52,-0.39 0.56,-0.32 0.60,-0.25 0.62,-0.18 0.64,-0.10 0.64,-0.10 L 0.64,-0.10 Z"/></g><g transform="translate(256.5278015136719 117.96158795111586) rotate(0 7.986083984375 6.59722900390625)" stroke="none"><path fill="#6741d9" d="M 0.54,0.36 Q 0.54,0.36 0.31,1.06 0.09,1.76 -0.05,2.87 -0.20,3.97 -0.22,5.22 -0.25,6.46 -0.25,7.18 -0.26,7.91 0.17,8.81 0.60,9.72 1.27,10.35 1.94,10.98 3.09,11.34 4.24,11.71 5.60,11.54 6.96,11.37 7.60,11.17 8.25,10.96 8.83,10.86 9.40,10.76 10.15,10.42 10.90,10.08 11.36,9.63 11.82,9.18 12.49,8.54 13.15,7.90 13.96,6.64 14.76,5.37 15.23,3.72 15.69,2.06 15.63,1.97 15.58,1.88 15.55,1.78 15.53,1.68 15.54,1.57 15.55,1.46 15.59,1.37 15.64,1.27 15.71,1.19 15.78,1.12 15.88,1.06 15.97,1.01 16.07,1.00 16.18,0.98 16.28,0.99 16.39,1.01 16.48,1.06 16.58,1.11 16.65,1.18 16.72,1.26 16.77,1.36 16.82,1.45 16.83,1.56 16.84,1.66 16.82,1.77 16.80,1.87 16.74,1.96 16.69,2.06 16.61,2.12 16.53,2.19 16.43,2.23 16.33,2.27 16.23,2.28 16.12,2.29 16.02,2.26 15.91,2.23 15.83,2.17 15.74,2.12 15.67,2.03 15.61,1.95 15.57,1.85 15.54,1.75 15.54,1.64 15.54,1.53 15.57,1.43 15.60,1.33 15.66,1.25 15.73,1.16 15.82,1.10 15.90,1.04 16.01,1.01 16.11,0.98 16.21,0.99 16.32,0.99 16.42,1.03 16.52,1.07 16.60,1.14 16.68,1.20 16.68,1.20 16.68,1.20 17.10,3.34 17.52,5.48 17.23,6.14 16.94,6.80 16.40,7.62 15.85,8.44 15.42,9.10 14.98,9.76 14.24,10.45 13.51,11.15 13.10,11.50 12.69,11.85 11.87,12.18 11.06,12.52 9.98,12.90 8.89,13.27 7.98,13.50 7.07,13.73 6.22,13.75 5.38,13.78 4.44,13.83 3.51,13.87 2.88,13.61 2.24,13.35 1.44,13.10 0.64,12.84 -0.02,12.31 -0.69,11.78 -1.07,11.22 -1.44,10.67 -1.74,10.01 -2.04,9.36 -2.26,8.65 -2.49,7.95 -2.49,7.19 -2.48,6.42 -2.42,5.08 -2.36,3.74 -2.26,2.99 -2.17,2.23 -1.93,1.43 -1.68,0.62 -1.11,0.13 -0.54,-0.36 -0.49,-0.42 -0.44,-0.48 -0.37,-0.53 -0.31,-0.57 -0.24,-0.60 -0.16,-0.63 -0.08,-0.64 -0.01,-0.65 0.06,-0.64 0.14,-0.64 0.22,-0.61 0.29,-0.58 0.36,-0.54 0.42,-0.49 0.48,-0.44 0.53,-0.38 0.57,-0.31 0.61,-0.24 0.63,-0.16 0.65,-0.08 0.65,-0.01 0.65,0.06 0.63,0.14 0.61,0.22 0.58,0.29 0.54,0.36 0.54,0.36 L 0.54,0.36 Z"/></g><g transform="translate(264.8611145019531 116.57270245306898) rotate(0 -2.430572509765625 11.805557250976562)" stroke="none"><path fill="#6741d9" d="M 0.65,0 Q 0.65,0 0.86,1.40 1.07,2.80 0.68,4.35 0.30,5.89 -0.02,7.64 -0.35,9.40 -0.90,11.40 -1.46,13.41 -1.88,15.22 -2.31,17.02 -2.51,18.52 -2.72,20.03 -3.38,21.56 -4.05,23.10 -4.09,23.20 -4.13,23.29 -4.20,23.37 -4.28,23.45 -4.37,23.50 -4.46,23.55 -4.57,23.57 -4.67,23.59 -4.78,23.58 -4.88,23.56 -4.98,23.51 -5.07,23.46 -5.14,23.39 -5.22,23.31 -5.26,23.22 -5.31,23.12 -5.32,23.01 -5.34,22.91 -5.32,22.81 -5.30,22.70 -5.24,22.61 -5.19,22.52 -5.11,22.45 -5.03,22.38 -4.93,22.34 -4.83,22.30 -4.73,22.29 -4.62,22.28 -4.52,22.31 -4.42,22.33 -4.33,22.39 -4.24,22.45 -4.17,22.53 -4.11,22.62 -4.07,22.72 -4.03,22.82 -4.03,22.92 -4.03,23.03 -4.06,23.13 -4.10,23.23 -4.16,23.32 -4.22,23.40 -4.31,23.46 -4.40,23.53 -4.50,23.56 -4.60,23.59 -4.71,23.58 -4.81,23.58 -4.91,23.54 -5.01,23.50 -5.09,23.43 -5.17,23.37 -5.23,23.28 -5.29,23.19 -5.31,23.08 -5.34,22.98 -5.33,22.87 -5.32,22.77 -5.32,22.77 -5.32,22.77 -5.19,21.26 -5.06,19.75 -4.89,18.10 -4.73,16.45 -4.28,14.59 -3.83,12.73 -3.27,10.82 -2.71,8.91 -2.30,7.09 -1.89,5.26 -1.48,4.02 -1.07,2.78 -0.86,1.39 -0.65,0 -0.64,-0.07 -0.63,-0.15 -0.60,-0.23 -0.58,-0.30 -0.53,-0.37 -0.49,-0.43 -0.43,-0.48 -0.37,-0.54 -0.30,-0.57 -0.23,-0.61 -0.15,-0.63 -0.07,-0.65 0.00,-0.65 0.07,-0.65 0.15,-0.63 0.23,-0.61 0.30,-0.57 0.37,-0.54 0.43,-0.48 0.49,-0.43 0.53,-0.37 0.58,-0.30 0.60,-0.23 0.63,-0.15 0.64,-0.07 0.65,0.00 0.65,0.00 L 0.65,0 Z"/></g><g transform="translate(275.2778015136719 117.26716046088148) rotate(0 4.513885498046875 -0.6944580078125)" stroke="none"><path fill="#6741d9" d="M -0.15,-0.63 Q -0.15,-0.63 0.59,-1.00 1.35,-1.38 2.36,-1.50 3.37,-1.62 4.40,-1.66 5.42,-1.70 7.00,-1.84 8.57,-1.97 8.68,-1.97 8.78,-1.97 8.88,-1.94 8.98,-1.91 9.07,-1.84 9.15,-1.78 9.21,-1.69 9.27,-1.60 9.30,-1.50 9.33,-1.40 9.32,-1.29 9.32,-1.19 9.28,-1.09 9.24,-0.99 9.17,-0.91 9.10,-0.83 9.01,-0.77 8.92,-0.72 8.82,-0.69 8.71,-0.67 8.61,-0.68 8.50,-0.69 8.41,-0.74 8.31,-0.78 8.23,-0.86 8.16,-0.93 8.11,-1.02 8.06,-1.12 8.04,-1.22 8.02,-1.33 8.04,-1.43 8.05,-1.53 8.10,-1.63 8.15,-1.72 8.23,-1.80 8.31,-1.87 8.40,-1.91 8.50,-1.96 8.61,-1.97 8.71,-1.98 8.82,-1.96 8.92,-1.94 9.01,-1.88 9.10,-1.83 9.17,-1.75 9.24,-1.67 9.28,-1.57 9.32,-1.47 9.32,-1.36 9.33,-1.26 9.30,-1.15 9.27,-1.05 9.21,-0.96 9.16,-0.88 9.07,-0.81 8.99,-0.75 8.89,-0.71 8.78,-0.68 8.79,-0.68 8.79,-0.68 7.15,-0.13 5.51,0.42 4.54,0.45 3.56,0.48 2.70,0.53 1.84,0.58 0.99,0.60 0.15,0.63 0.08,0.64 0.00,0.65 -0.07,0.64 -0.15,0.63 -0.22,0.61 -0.30,0.58 -0.36,0.53 -0.43,0.49 -0.48,0.43 -0.53,0.37 -0.57,0.30 -0.61,0.23 -0.63,0.15 -0.65,0.08 -0.65,0.00 -0.65,-0.07 -0.63,-0.15 -0.61,-0.23 -0.57,-0.30 -0.54,-0.37 -0.48,-0.43 -0.43,-0.49 -0.37,-0.53 -0.30,-0.58 -0.23,-0.60 -0.15,-0.63 -0.15,-0.63 L -0.15,-0.63 Z"/></g><g transform="translate(279.4444274902344 113.10047344916273) rotate(0 -0.34722900390625 4.1666717529296875)" stroke="none"><path fill="#6741d9" d="M 0.65,0.09 Q 0.65,0.09 0.68,1.52 0.71,2.95 0.64,3.91 0.57,4.87 0.27,6.40 -0.02,7.93 -0.04,8.03 -0.06,8.14 -0.11,8.23 -0.17,8.32 -0.25,8.39 -0.32,8.46 -0.42,8.51 -0.52,8.55 -0.62,8.56 -0.73,8.57 -0.83,8.54 -0.94,8.52 -1.03,8.46 -1.12,8.40 -1.18,8.32 -1.25,8.24 -1.29,8.14 -1.32,8.04 -1.33,7.93 -1.33,7.83 -1.30,7.72 -1.27,7.62 -1.21,7.54 -1.15,7.45 -1.06,7.39 -0.97,7.32 -0.87,7.29 -0.77,7.26 -0.66,7.26 -0.56,7.27 -0.46,7.30 -0.36,7.34 -0.28,7.40 -0.19,7.47 -0.14,7.56 -0.08,7.65 -0.05,7.75 -0.03,7.86 -0.03,7.96 -0.04,8.07 -0.08,8.17 -0.13,8.26 -0.20,8.34 -0.27,8.42 -0.36,8.47 -0.45,8.53 -0.56,8.55 -0.66,8.57 -0.76,8.55 -0.87,8.54 -0.97,8.49 -1.06,8.45 -1.14,8.37 -1.21,8.30 -1.26,8.20 -1.31,8.11 -1.32,8.00 -1.34,7.90 -1.34,7.90 -1.34,7.90 -1.52,6.29 -1.71,4.68 -1.61,3.65 -1.51,2.63 -1.08,1.27 -0.65,-0.09 -0.62,-0.16 -0.60,-0.24 -0.57,-0.31 -0.53,-0.38 -0.47,-0.44 -0.42,-0.50 -0.35,-0.54 -0.29,-0.58 -0.21,-0.61 -0.14,-0.64 -0.06,-0.64 0.01,-0.65 0.09,-0.64 0.17,-0.63 0.24,-0.60 0.31,-0.57 0.38,-0.52 0.44,-0.48 0.49,-0.42 0.54,-0.36 0.58,-0.29 0.61,-0.21 0.63,-0.14 0.65,-0.06 0.65,0.01 0.65,0.09 0.65,0.09 L 0.65,0.09 Z"/></g><g transform="translate(290.5555725097656 114.48935894720961) rotate(0 2.777740478515625 11.458343505859375)" stroke="none"><path fill="#6741d9" d="M 0.65,0 Q 0.65,0 0.97,0.74 1.29,1.48 1.81,2.11 2.33,2.74 2.94,3.47 3.55,4.20 4.26,5.17 4.97,6.14 5.62,6.89 6.27,7.64 6.83,8.45 7.38,9.26 7.69,10.17 8.00,11.08 7.93,12.44 7.87,13.81 7.38,15.09 6.89,16.37 5.80,17.79 4.72,19.22 3.59,20.21 2.46,21.20 0.91,22.12 -0.64,23.03 -0.72,23.10 -0.80,23.18 -0.90,23.22 -0.99,23.26 -1.10,23.27 -1.21,23.28 -1.31,23.26 -1.41,23.23 -1.50,23.18 -1.59,23.12 -1.66,23.04 -1.73,22.96 -1.77,22.86 -1.80,22.76 -1.81,22.65 -1.81,22.55 -1.78,22.45 -1.75,22.34 -1.69,22.26 -1.63,22.17 -1.55,22.11 -1.46,22.04 -1.36,22.01 -1.26,21.98 -1.15,21.98 -1.05,21.98 -0.95,22.02 -0.85,22.05 -0.76,22.12 -0.68,22.18 -0.62,22.27 -0.56,22.36 -0.53,22.46 -0.51,22.57 -0.52,22.67 -0.52,22.78 -0.56,22.88 -0.60,22.97 -0.67,23.05 -0.74,23.13 -0.84,23.19 -0.93,23.24 -1.03,23.26 -1.13,23.28 -1.24,23.27 -1.35,23.26 -1.44,23.21 -1.54,23.17 -1.61,23.09 -1.69,23.02 -1.74,22.92 -1.79,22.83 -1.80,22.72 -1.82,22.62 -1.80,22.51 -1.78,22.41 -1.73,22.32 -1.68,22.22 -1.68,22.22 -1.68,22.22 -0.57,20.66 0.54,19.09 1.45,18.22 2.36,17.35 3.25,16.27 4.14,15.19 4.55,14.33 4.95,13.48 5.00,12.12 5.05,10.77 4.62,10.10 4.19,9.43 3.46,8.59 2.74,7.74 2.10,6.84 1.45,5.93 0.75,5.06 0.05,4.20 -0.61,2.95 -1.29,1.70 -0.97,0.85 -0.65,0 -0.64,-0.07 -0.63,-0.15 -0.60,-0.23 -0.58,-0.30 -0.53,-0.37 -0.49,-0.43 -0.43,-0.48 -0.37,-0.54 -0.30,-0.57 -0.23,-0.61 -0.15,-0.63 -0.07,-0.65 0.00,-0.65 0.07,-0.65 0.15,-0.63 0.23,-0.61 0.30,-0.57 0.37,-0.54 0.43,-0.48 0.49,-0.43 0.53,-0.37 0.58,-0.30 0.60,-0.23 0.63,-0.15 0.64,-0.07 0.65,0.00 0.65,0.00 L 0.65,0 Z"/></g><g transform="translate(298.8888854980469 139.4893589472096) rotate(0 3.47222900390625 -3.8194427490234375)" stroke="none"><path fill="#6741d9" d="M -0.64,-0.12 Q -0.64,-0.12 -0.65,-1.17 -0.66,-2.21 -0.15,-3.37 0.35,-4.52 0.97,-5.60 1.59,-6.68 2.06,-7.37 2.54,-8.05 3.77,-8.82 5.01,-9.60 5.51,-9.23 6.01,-8.86 6.30,-7.86 6.60,-6.86 6.85,-6.01 7.10,-5.16 7.24,-4.07 7.38,-2.99 7.15,-0.90 6.92,1.17 6.90,1.28 6.87,1.38 6.81,1.47 6.75,1.56 6.67,1.62 6.59,1.69 6.49,1.72 6.39,1.76 6.28,1.76 6.17,1.76 6.07,1.73 5.97,1.70 5.89,1.63 5.80,1.57 5.74,1.48 5.68,1.40 5.65,1.30 5.62,1.19 5.62,1.09 5.63,0.98 5.66,0.88 5.70,0.78 5.77,0.70 5.84,0.62 5.93,0.56 6.02,0.51 6.12,0.48 6.22,0.46 6.33,0.47 6.44,0.48 6.53,0.52 6.63,0.56 6.71,0.64 6.79,0.71 6.84,0.80 6.89,0.89 6.91,1.00 6.93,1.10 6.91,1.21 6.90,1.31 6.85,1.41 6.80,1.50 6.72,1.58 6.65,1.65 6.55,1.70 6.46,1.74 6.35,1.76 6.24,1.77 6.14,1.75 6.04,1.73 5.94,1.67 5.85,1.62 5.78,1.54 5.71,1.46 5.67,1.36 5.63,1.26 5.62,1.16 5.62,1.05 5.62,1.05 5.62,1.05 5.20,-0.82 4.79,-2.69 4.71,-3.58 4.62,-4.47 4.36,-5.43 4.10,-6.40 4.50,-7.10 4.89,-7.80 4.66,-7.26 4.43,-6.72 3.99,-6.12 3.56,-5.53 2.97,-4.54 2.38,-3.56 1.92,-2.66 1.46,-1.77 1.05,-0.82 0.64,0.12 0.61,0.20 0.59,0.27 0.55,0.34 0.51,0.41 0.45,0.46 0.39,0.52 0.32,0.56 0.25,0.60 0.18,0.62 0.10,0.64 0.02,0.65 -0.05,0.65 -0.12,0.63 -0.20,0.62 -0.27,0.59 -0.34,0.55 -0.41,0.50 -0.47,0.45 -0.51,0.39 -0.56,0.33 -0.59,0.25 -0.63,0.18 -0.64,0.10 -0.65,0.02 -0.64,-0.04 -0.64,-0.12 -0.64,-0.12 L -0.64,-0.12 Z"/></g><g transform="translate(299.5833435058594 138.79493145697523) rotate(0 2.77777099609375 -0.6944427490234375)" stroke="none"><path fill="#6741d9" d="M -0.24,-0.60 Q -0.24,-0.60 0.66,-1.24 1.56,-1.87 3.34,-1.93 5.12,-1.99 5.23,-1.99 5.33,-1.98 5.43,-1.95 5.53,-1.91 5.61,-1.84 5.70,-1.77 5.75,-1.68 5.81,-1.60 5.83,-1.49 5.86,-1.39 5.85,-1.28 5.84,-1.18 5.80,-1.08 5.76,-0.98 5.69,-0.90 5.61,-0.82 5.52,-0.77 5.43,-0.72 5.32,-0.70 5.22,-0.68 5.11,-0.70 5.01,-0.71 4.91,-0.76 4.82,-0.81 4.74,-0.88 4.67,-0.96 4.62,-1.05 4.58,-1.15 4.56,-1.25 4.55,-1.36 4.57,-1.46 4.59,-1.57 4.64,-1.66 4.70,-1.75 4.77,-1.82 4.85,-1.89 4.95,-1.94 5.05,-1.98 5.16,-1.98 5.26,-1.99 5.36,-1.97 5.47,-1.94 5.56,-1.88 5.65,-1.83 5.71,-1.74 5.78,-1.66 5.81,-1.56 5.85,-1.46 5.85,-1.35 5.86,-1.25 5.82,-1.15 5.79,-1.04 5.73,-0.96 5.67,-0.87 5.58,-0.81 5.49,-0.75 5.39,-0.72 5.29,-0.69 5.29,-0.69 5.29,-0.69 3.86,-0.20 2.42,0.28 1.33,0.44 0.24,0.60 0.16,0.63 0.09,0.65 0.01,0.65 -0.06,0.65 -0.14,0.63 -0.22,0.61 -0.29,0.58 -0.36,0.54 -0.42,0.49 -0.48,0.44 -0.52,0.37 -0.57,0.31 -0.60,0.24 -0.63,0.16 -0.64,0.09 -0.65,0.01 -0.64,-0.06 -0.64,-0.14 -0.61,-0.22 -0.58,-0.29 -0.54,-0.36 -0.49,-0.42 -0.44,-0.48 -0.38,-0.53 -0.31,-0.57 -0.24,-0.60 -0.24,-0.60 L -0.24,-0.60 Z"/></g><g transform="translate(312.0833435058594 131.15604595892836) rotate(0 0 5.90277099609375)" stroke="none"><path fill="#6741d9" d="M 0.65,0 Q 0.65,0 0.93,0.99 1.21,1.99 1.23,3.21 1.25,4.44 1.26,5.76 1.27,7.07 0.96,9.22 0.65,11.37 0.63,11.47 0.62,11.58 0.57,11.67 0.52,11.76 0.44,11.84 0.36,11.91 0.27,11.95 0.17,12.00 0.07,12.01 -0.03,12.02 -0.13,12.00 -0.24,11.98 -0.33,11.92 -0.42,11.87 -0.49,11.79 -0.56,11.70 -0.60,11.61 -0.64,11.51 -0.64,11.40 -0.65,11.29 -0.62,11.19 -0.59,11.09 -0.53,11.00 -0.47,10.91 -0.39,10.85 -0.30,10.79 -0.20,10.75 -0.10,10.72 0.00,10.72 0.10,10.72 0.20,10.75 0.30,10.79 0.39,10.85 0.47,10.91 0.53,11.00 0.59,11.09 0.62,11.19 0.65,11.29 0.64,11.40 0.64,11.51 0.60,11.61 0.56,11.70 0.49,11.79 0.42,11.87 0.33,11.92 0.24,11.98 0.13,12.00 0.03,12.02 -0.07,12.01 -0.17,12.00 -0.27,11.95 -0.36,11.91 -0.44,11.84 -0.52,11.76 -0.57,11.67 -0.62,11.58 -0.63,11.47 -0.65,11.37 -0.65,11.37 -0.65,11.37 -0.96,9.22 -1.27,7.07 -1.26,5.76 -1.25,4.44 -1.23,3.21 -1.21,1.99 -0.93,0.99 -0.65,0 -0.64,-0.07 -0.63,-0.15 -0.60,-0.23 -0.58,-0.30 -0.53,-0.37 -0.49,-0.43 -0.43,-0.48 -0.37,-0.54 -0.30,-0.57 -0.23,-0.61 -0.15,-0.63 -0.07,-0.65 0.00,-0.65 0.07,-0.65 0.15,-0.63 0.23,-0.61 0.30,-0.57 0.37,-0.54 0.43,-0.48 0.49,-0.43 0.53,-0.37 0.58,-0.30 0.60,-0.23 0.63,-0.15 0.64,-0.07 0.65,0.00 0.65,0.00 L 0.65,0 Z"/></g><g transform="translate(308.6111145019531 131.15604595892836) rotate(0 5.20831298828125 4.513885498046875)" stroke="none"><path fill="#6741d9" d="M -0.46,-0.46 Q -0.46,-0.46 -0.02,-1.25 0.41,-2.04 1.24,-2.42 2.08,-2.80 2.89,-2.95 3.70,-3.10 4.61,-2.94 5.52,-2.78 6.41,-2.24 7.29,-1.70 7.84,-1.26 8.39,-0.82 8.75,-0.29 9.11,0.23 9.25,0.83 9.40,1.43 9.16,2.16 8.92,2.89 8.43,3.28 7.94,3.67 7.53,3.20 7.13,2.74 7.65,3.45 8.18,4.16 9.17,4.74 10.17,5.31 10.68,5.96 11.19,6.61 11.22,7.55 11.25,8.49 10.67,9.43 10.10,10.37 8.83,11.01 7.57,11.65 5.03,11.64 2.48,11.63 2.37,11.63 2.27,11.62 2.17,11.59 2.07,11.55 1.99,11.48 1.90,11.41 1.85,11.32 1.79,11.23 1.77,11.13 1.74,11.03 1.75,10.92 1.76,10.81 1.81,10.72 1.85,10.62 1.92,10.54 1.99,10.46 2.09,10.41 2.18,10.36 2.29,10.34 2.39,10.32 2.49,10.34 2.60,10.36 2.69,10.40 2.79,10.45 2.86,10.53 2.94,10.60 2.98,10.70 3.03,10.80 3.04,10.90 3.06,11.01 3.03,11.11 3.01,11.22 2.96,11.31 2.91,11.40 2.83,11.47 2.75,11.54 2.65,11.58 2.55,11.62 2.44,11.63 2.34,11.63 2.23,11.61 2.13,11.58 2.04,11.52 1.95,11.46 1.89,11.38 1.82,11.30 1.79,11.20 1.75,11.10 1.75,10.99 1.75,10.88 1.78,10.78 1.81,10.68 1.88,10.60 1.94,10.51 2.03,10.45 2.12,10.39 2.22,10.36 2.32,10.33 2.32,10.33 2.32,10.33 4.38,9.75 6.44,9.17 7.14,8.88 7.85,8.58 8.33,8.05 8.81,7.51 8.16,7.12 7.50,6.74 6.84,6.23 6.17,5.72 5.80,5.22 5.43,4.71 5.19,4.12 4.96,3.53 5.88,2.28 6.81,1.04 6.37,0.68 5.93,0.32 4.97,-0.20 4.01,-0.74 3.00,-0.54 1.98,-0.35 1.22,0.05 0.46,0.46 0.40,0.51 0.33,0.56 0.26,0.59 0.19,0.62 0.11,0.64 0.03,0.65 -0.03,0.65 -0.11,0.64 -0.19,0.62 -0.26,0.59 -0.33,0.55 -0.40,0.51 -0.46,0.46 -0.51,0.40 -0.55,0.33 -0.59,0.26 -0.62,0.19 -0.64,0.11 -0.65,0.03 -0.65,-0.03 -0.64,-0.11 -0.62,-0.19 -0.59,-0.26 -0.56,-0.33 -0.51,-0.40 -0.46,-0.46 -0.46,-0.46 L -0.46,-0.46 Z"/></g><g transform="translate(103.75003051757812 195.04493145697523) rotate(0 0.694427490234375 3.819427490234375)" stroke="none"><path fill="#6741d9" d="M -0.20,0.62 Q -0.20,0.62 -0.87,0.63 -1.54,0.64 -2.09,1.05 -2.65,1.45 -2.95,1.97 -3.25,2.50 -3.32,3.14 -3.39,3.79 -3.26,4.34 -3.12,4.88 -2.72,5.63 -2.33,6.38 -1.85,6.82 -1.37,7.25 -0.87,7.61 -0.37,7.96 0.38,7.86 1.15,7.76 1.98,7.41 2.81,7.05 3.27,6.60 3.73,6.14 4.07,5.47 4.41,4.79 4.54,4.02 4.67,3.25 4.54,2.68 4.42,2.11 4.05,1.61 3.67,1.11 3.20,0.76 2.73,0.41 2.05,0.17 1.36,-0.05 0.58,0.76 -0.18,1.59 -0.77,2.35 -1.36,3.11 -1.79,3.80 -2.23,4.49 -2.36,5.03 -2.48,5.57 -2.55,6.14 -2.62,6.71 -2.08,7.05 -1.54,7.39 -0.98,7.08 -0.42,6.77 0.43,6.30 1.29,5.83 1.70,5.18 2.10,4.54 2.49,3.73 2.87,2.92 2.63,1.89 2.39,0.85 1.74,0.59 1.09,0.32 -0.83,0.67 -2.76,1.03 -2.86,1.07 -2.96,1.11 -3.07,1.11 -3.17,1.12 -3.27,1.09 -3.38,1.07 -3.47,1.01 -3.55,0.95 -3.62,0.87 -3.68,0.78 -3.72,0.68 -3.75,0.58 -3.76,0.47 -3.76,0.37 -3.72,0.27 -3.69,0.17 -3.63,0.08 -3.56,0.00 -3.48,-0.05 -3.39,-0.12 -3.29,-0.14 -3.18,-0.17 -3.08,-0.17 -2.97,-0.16 -2.87,-0.13 -2.77,-0.09 -2.69,-0.02 -2.61,0.04 -2.56,0.13 -2.50,0.22 -2.48,0.32 -2.45,0.43 -2.46,0.53 -2.47,0.64 -2.52,0.73 -2.56,0.83 -2.63,0.91 -2.70,0.99 -2.80,1.04 -2.89,1.09 -3.00,1.11 -3.10,1.12 -3.21,1.11 -3.31,1.09 -3.41,1.04 -3.50,0.99 -3.57,0.92 -3.65,0.84 -3.69,0.75 -3.74,0.65 -3.75,0.54 -3.76,0.44 -3.74,0.33 -3.72,0.23 -3.67,0.14 -3.61,0.05 -3.53,-0.01 -3.45,-0.08 -3.45,-0.08 -3.45,-0.08 -1.54,-1.36 0.37,-2.64 1.22,-2.55 2.08,-2.45 2.94,-2.06 3.81,-1.68 4.47,-0.87 5.14,-0.05 5.38,0.90 5.61,1.86 5.54,2.95 5.48,4.05 4.94,5.14 4.40,6.23 3.57,7.24 2.74,8.25 1.64,8.85 0.54,9.45 -0.70,9.80 -1.95,10.14 -3.04,9.75 -4.13,9.36 -4.60,8.70 -5.06,8.04 -5.25,7.26 -5.45,6.47 -5.34,5.63 -5.24,4.79 -4.95,3.89 -4.66,2.98 -4.14,2.16 -3.61,1.33 -2.86,0.41 -2.12,-0.51 -1.44,-1.12 -0.76,-1.73 0.10,-2.26 0.97,-2.78 2.19,-2.69 3.41,-2.60 3.98,-2.13 4.55,-1.67 5.26,-0.99 5.97,-0.31 6.50,0.67 7.02,1.65 7.12,2.70 7.23,3.74 6.95,4.88 6.67,6.02 6.06,7.03 5.45,8.03 4.61,8.72 3.77,9.41 2.50,9.86 1.22,10.30 -0.16,10.22 -1.55,10.14 -2.35,9.59 -3.15,9.05 -3.86,8.30 -4.57,7.54 -5.09,6.45 -5.60,5.35 -5.74,4.38 -5.87,3.40 -5.64,2.34 -5.41,1.28 -5.00,0.60 -4.59,-0.06 -4.00,-0.68 -3.41,-1.30 -2.70,-1.50 -2.00,-1.70 -1.42,-1.57 -0.85,-1.44 -0.32,-1.03 0.20,-0.62 0.27,-0.58 0.35,-0.55 0.41,-0.50 0.47,-0.45 0.52,-0.39 0.56,-0.32 0.59,-0.25 0.63,-0.18 0.64,-0.10 0.65,-0.02 0.64,0.05 0.64,0.13 0.61,0.20 0.59,0.28 0.55,0.34 0.50,0.41 0.45,0.46 0.39,0.52 0.32,0.56 0.25,0.60 0.18,0.62 0.10,0.64 0.02,0.65 -0.05,0.65 -0.13,0.63 -0.20,0.62 -0.20,0.62 L -0.20,0.62 Z"/></g><g transform="translate(484.3055725097656 194.35047344916273) rotate(0 -0.000030517578125 4.513885498046875)" stroke="none"><path fill="#6741d9" d="M -0.20,0.62 Q -0.20,0.62 -0.84,0.69 -1.47,0.76 -1.99,1.24 -2.51,1.73 -2.83,2.20 -3.16,2.68 -3.47,3.38 -3.78,4.08 -3.69,4.77 -3.60,5.47 -3.41,6.12 -3.22,6.78 -2.81,7.33 -2.41,7.88 -1.32,8.13 -0.24,8.38 0.50,7.86 1.24,7.34 1.94,6.59 2.63,5.85 3.07,5.02 3.52,4.20 3.68,3.53 3.84,2.87 3.91,2.26 3.98,1.65 3.37,1.32 2.77,1.00 1.66,0.71 0.54,0.41 0.45,0.46 0.35,0.51 0.24,0.52 0.14,0.53 0.03,0.51 -0.06,0.49 -0.15,0.44 -0.24,0.39 -0.31,0.31 -0.39,0.23 -0.43,0.13 -0.47,0.04 -0.48,-0.06 -0.49,-0.17 -0.46,-0.27 -0.43,-0.37 -0.38,-0.46 -0.32,-0.55 -0.24,-0.62 -0.15,-0.68 -0.05,-0.72 0.04,-0.76 0.14,-0.76 0.25,-0.76 0.35,-0.73 0.45,-0.70 0.54,-0.64 0.62,-0.57 0.69,-0.49 0.75,-0.40 0.78,-0.30 0.81,-0.20 0.81,-0.09 0.80,0.00 0.77,0.10 0.73,0.20 0.66,0.29 0.60,0.37 0.51,0.43 0.42,0.48 0.31,0.51 0.21,0.53 0.10,0.52 0.00,0.52 -0.09,0.47 -0.19,0.43 -0.27,0.36 -0.34,0.29 -0.40,0.20 -0.45,0.10 -0.47,0.00 -0.49,-0.10 -0.47,-0.20 -0.46,-0.31 -0.41,-0.40 -0.36,-0.50 -0.29,-0.57 -0.21,-0.65 -0.21,-0.65 -0.21,-0.65 1.63,-1.25 3.49,-1.86 4.52,-1.45 5.56,-1.04 6.02,-0.35 6.48,0.32 6.65,1.12 6.83,1.93 6.69,2.80 6.56,3.67 6.25,4.62 5.93,5.58 5.26,6.67 4.59,7.76 3.59,8.72 2.59,9.67 1.24,10.33 -0.10,11.00 -1.52,10.86 -2.95,10.73 -3.77,10.04 -4.59,9.36 -5.16,8.42 -5.74,7.49 -5.98,6.53 -6.21,5.57 -6.19,4.35 -6.17,3.12 -5.69,2.12 -5.22,1.12 -4.64,0.42 -4.06,-0.28 -3.25,-0.82 -2.44,-1.36 -1.68,-1.46 -0.91,-1.56 -0.35,-1.09 0.20,-0.62 0.27,-0.58 0.35,-0.55 0.41,-0.50 0.47,-0.45 0.52,-0.39 0.56,-0.32 0.59,-0.25 0.63,-0.18 0.64,-0.10 0.65,-0.02 0.64,0.05 0.64,0.13 0.61,0.20 0.59,0.28 0.55,0.34 0.50,0.41 0.45,0.46 0.39,0.52 0.32,0.56 0.25,0.60 0.18,0.62 0.10,0.64 0.02,0.65 -0.05,0.65 -0.13,0.63 -0.20,0.62 -0.20,0.62 L -0.20,0.62 Z"/></g><g transform="translate(72.50003051757812 49.21158795111586) rotate(0 6.249969482421875 -10.416671752929688)" stroke="none"><path fill="#1e1e1e" d="M -0.60,-0.25 Q -0.60,-0.25 -0.28,-1.77 0.02,-3.29 0.85,-5.47 1.68,-7.65 2.62,-10.18 3.57,-12.71 4.57,-15.20 5.58,-17.69 6.30,-19.24 7.01,-20.79 7.39,-20.92 7.76,-21.05 7.85,-21.20 7.93,-21.34 8.05,-21.46 8.16,-21.58 8.30,-21.67 8.44,-21.76 8.60,-21.81 8.76,-21.86 8.93,-21.87 9.09,-21.88 9.25,-21.86 9.42,-21.83 9.57,-21.76 9.72,-21.70 9.86,-21.60 9.99,-21.50 10.09,-21.37 10.20,-21.24 10.27,-21.09 10.34,-20.94 10.37,-20.77 10.40,-20.61 10.39,-20.44 10.39,-20.28 10.34,-20.12 10.29,-19.96 10.92,-18.53 11.54,-17.11 11.83,-14.78 12.11,-12.44 12.59,-10.39 13.06,-8.33 13.42,-6.61 13.78,-4.89 13.76,-3.20 13.73,-1.50 13.73,-1.39 13.73,-1.29 13.69,-1.18 13.66,-1.08 13.59,-1.00 13.53,-0.92 13.44,-0.86 13.35,-0.80 13.25,-0.77 13.15,-0.74 13.04,-0.75 12.93,-0.76 12.83,-0.80 12.74,-0.84 12.66,-0.90 12.58,-0.97 12.52,-1.07 12.47,-1.16 12.44,-1.26 12.42,-1.36 12.43,-1.47 12.45,-1.58 12.49,-1.67 12.54,-1.77 12.61,-1.84 12.68,-1.92 12.78,-1.97 12.87,-2.02 12.98,-2.04 13.08,-2.05 13.19,-2.03 13.29,-2.02 13.39,-1.97 13.48,-1.92 13.55,-1.84 13.62,-1.76 13.67,-1.66 13.71,-1.57 13.72,-1.46 13.73,-1.36 13.71,-1.25 13.69,-1.15 13.63,-1.06 13.58,-0.97 13.49,-0.90 13.41,-0.83 13.31,-0.79 13.22,-0.75 13.11,-0.75 13.00,-0.74 12.90,-0.77 12.80,-0.80 12.71,-0.86 12.62,-0.92 12.56,-1.01 12.50,-1.09 12.46,-1.19 12.43,-1.29 12.43,-1.29 12.43,-1.29 11.90,-2.80 11.37,-4.31 10.90,-6.00 10.43,-7.70 9.89,-9.91 9.35,-12.13 9.13,-14.21 8.90,-16.29 8.33,-18.67 7.76,-21.05 7.85,-21.20 7.93,-21.34 8.05,-21.46 8.16,-21.58 8.30,-21.67 8.44,-21.76 8.60,-21.81 8.76,-21.86 8.93,-21.87 9.09,-21.88 9.25,-21.86 9.42,-21.83 9.57,-21.76 9.72,-21.70 9.86,-21.60 9.99,-21.50 10.09,-21.37 10.20,-21.24 10.27,-21.09 10.34,-20.94 10.37,-20.77 10.40,-20.61 10.39,-20.44 10.39,-20.28 10.34,-20.12 10.29,-19.96 9.73,-19.66 9.18,-19.35 8.64,-18.01 8.10,-16.66 7.09,-14.21 6.08,-11.75 5.10,-9.22 4.12,-6.70 3.24,-4.49 2.36,-2.29 1.48,-1.01 0.60,0.25 0.56,0.32 0.52,0.39 0.46,0.45 0.41,0.50 0.34,0.55 0.28,0.59 0.20,0.61 0.12,0.64 0.05,0.64 -0.02,0.65 -0.10,0.64 -0.18,0.63 -0.25,0.59 -0.32,0.56 -0.39,0.52 -0.45,0.47 -0.50,0.41 -0.55,0.34 -0.58,0.27 -0.62,0.20 -0.63,0.12 -0.65,0.05 -0.65,-0.02 -0.64,-0.10 -0.62,-0.18 -0.60,-0.25 -0.60,-0.25 L -0.60,-0.25 Z"/></g><g transform="translate(77.36111450195312 38.794931456975235) rotate(0 5.5555419921875 0.3472137451171875)" stroke="none"><path fill="#1e1e1e" d="M -0.15,-0.63 Q -0.15,-0.63 0.57,-1.09 1.31,-1.55 3.17,-1.62 5.04,-1.68 7.63,-0.63 10.22,0.41 10.31,0.45 10.41,0.50 10.48,0.58 10.55,0.66 10.60,0.75 10.65,0.85 10.66,0.95 10.67,1.06 10.65,1.16 10.63,1.27 10.57,1.36 10.52,1.45 10.44,1.52 10.36,1.59 10.26,1.63 10.16,1.67 10.06,1.68 9.95,1.68 9.85,1.66 9.75,1.63 9.66,1.57 9.57,1.51 9.50,1.43 9.44,1.34 9.40,1.24 9.37,1.14 9.37,1.04 9.37,0.93 9.40,0.83 9.43,0.73 9.49,0.64 9.56,0.56 9.65,0.50 9.73,0.44 9.83,0.41 9.94,0.38 10.04,0.38 10.15,0.39 10.25,0.43 10.35,0.46 10.43,0.53 10.51,0.60 10.57,0.69 10.62,0.78 10.65,0.88 10.67,0.99 10.66,1.09 10.65,1.20 10.61,1.30 10.56,1.39 10.49,1.47 10.42,1.55 10.33,1.60 10.23,1.65 10.13,1.67 10.02,1.69 9.92,1.67 9.81,1.65 9.81,1.65 9.81,1.65 7.45,1.10 5.09,0.54 3.49,0.65 1.88,0.75 1.02,0.69 0.15,0.63 0.08,0.64 0.00,0.65 -0.07,0.64 -0.15,0.63 -0.22,0.61 -0.30,0.58 -0.36,0.53 -0.43,0.49 -0.48,0.43 -0.53,0.37 -0.57,0.30 -0.61,0.23 -0.63,0.15 -0.65,0.08 -0.65,0.00 -0.65,-0.07 -0.63,-0.15 -0.61,-0.23 -0.57,-0.30 -0.54,-0.37 -0.48,-0.43 -0.43,-0.49 -0.37,-0.53 -0.30,-0.58 -0.23,-0.60 -0.15,-0.63 -0.15,-0.63 L -0.15,-0.63 Z"/></g><g transform="translate(475.2777404785156 17.96158795111586) rotate(0 0.000030517578125 10.416671752929688)" stroke="none"><path fill="#1e1e1e" d="M 0.64,-0.10 Q 0.64,-0.10 1.04,1.05 1.45,2.22 1.36,4.64 1.28,7.06 1.05,9.86 0.82,12.66 0.71,14.81 0.60,16.97 0.29,18.84 -0.00,20.71 -0.03,20.82 -0.05,20.92 -0.10,21.01 -0.15,21.11 -0.23,21.18 -0.31,21.25 -0.41,21.29 -0.51,21.33 -0.61,21.34 -0.72,21.34 -0.82,21.32 -0.92,21.29 -1.01,21.23 -1.10,21.18 -1.17,21.09 -1.24,21.01 -1.27,20.91 -1.31,20.81 -1.31,20.70 -1.31,20.60 -1.28,20.50 -1.25,20.39 -1.18,20.31 -1.12,20.22 -1.04,20.16 -0.95,20.10 -0.85,20.07 -0.75,20.04 -0.64,20.04 -0.53,20.05 -0.43,20.08 -0.33,20.12 -0.25,20.19 -0.17,20.26 -0.11,20.35 -0.06,20.43 -0.03,20.54 -0.01,20.64 -0.02,20.75 -0.03,20.85 -0.07,20.95 -0.11,21.05 -0.18,21.13 -0.25,21.20 -0.35,21.26 -0.44,21.31 -0.54,21.33 -0.65,21.35 -0.75,21.33 -0.86,21.32 -0.95,21.27 -1.05,21.22 -1.12,21.15 -1.20,21.07 -1.24,20.97 -1.29,20.88 -1.30,20.77 -1.32,20.67 -1.32,20.67 -1.32,20.67 -1.50,18.76 -1.68,16.86 -1.58,14.66 -1.47,12.45 -1.21,9.70 -0.95,6.95 -0.80,4.75 -0.65,2.56 -0.64,1.33 -0.64,0.10 -0.65,0.02 -0.65,-0.05 -0.63,-0.12 -0.62,-0.20 -0.59,-0.27 -0.55,-0.34 -0.50,-0.41 -0.45,-0.47 -0.39,-0.51 -0.33,-0.56 -0.25,-0.59 -0.18,-0.62 -0.10,-0.64 -0.02,-0.65 0.04,-0.64 0.12,-0.64 0.20,-0.61 0.27,-0.59 0.34,-0.55 0.41,-0.51 0.46,-0.45 0.52,-0.39 0.56,-0.32 0.60,-0.25 0.62,-0.18 0.64,-0.10 0.64,-0.10 L 0.64,-0.10 Z"/></g><g transform="translate(473.1944274902344 17.96158795111586) rotate(0 7.29168701171875 7.6389007568359375)" stroke="none"><path fill="#1e1e1e" d="M -0.62,0.20 Q -0.62,0.20 -0.97,-0.30 -1.32,-0.82 -1.65,-1.09 -1.98,-1.36 -2.00,-1.49 -2.03,-1.62 -2.02,-1.75 -2.02,-1.87 -1.98,-2.00 -1.95,-2.12 -1.88,-2.23 -1.82,-2.34 -1.73,-2.44 -1.64,-2.53 -1.53,-2.60 -1.42,-2.67 -1.30,-2.71 -1.18,-2.75 -1.05,-2.76 -0.92,-2.77 -0.79,-2.75 -0.67,-2.73 -0.55,-2.68 -0.43,-2.63 -0.33,-2.55 -0.22,-2.47 -0.14,-2.37 -0.06,-2.27 -0.01,-2.16 0.04,-2.04 -0.26,-2.67 -0.57,-3.30 0.84,-3.52 2.26,-3.74 3.61,-3.81 4.96,-3.87 6.41,-3.70 7.87,-3.52 9.39,-3.01 10.91,-2.50 11.75,-1.67 12.59,-0.85 12.76,0.35 12.92,1.56 12.28,2.82 11.63,4.08 10.89,4.82 10.14,5.56 9.67,6.02 9.19,6.48 8.64,6.79 8.08,7.10 8.04,6.53 8.00,5.96 8.73,6.21 9.47,6.46 10.70,7.07 11.93,7.68 13.11,8.37 14.29,9.06 15.19,10.21 16.09,11.35 16.09,12.70 16.09,14.05 15.28,15.40 14.47,16.74 12.29,17.54 10.10,18.34 6.79,18.16 3.48,17.97 3.37,17.96 3.27,17.94 3.17,17.90 3.08,17.85 3.00,17.77 2.92,17.70 2.88,17.60 2.83,17.51 2.81,17.40 2.80,17.30 2.82,17.19 2.84,17.09 2.89,17.00 2.94,16.90 3.02,16.83 3.10,16.76 3.20,16.72 3.30,16.68 3.40,16.67 3.51,16.66 3.61,16.68 3.71,16.71 3.80,16.77 3.89,16.82 3.96,16.91 4.03,16.99 4.06,17.09 4.10,17.19 4.10,17.29 4.11,17.40 4.08,17.50 4.05,17.60 3.98,17.69 3.92,17.78 3.84,17.84 3.75,17.90 3.65,17.93 3.55,17.96 3.44,17.96 3.33,17.96 3.23,17.92 3.14,17.89 3.05,17.82 2.97,17.75 2.91,17.66 2.85,17.58 2.83,17.47 2.80,17.37 2.81,17.26 2.82,17.16 2.86,17.06 2.90,16.96 2.97,16.88 3.04,16.80 3.14,16.75 3.23,16.70 3.33,16.68 3.44,16.66 3.44,16.66 3.44,16.66 6.37,16.28 9.31,15.90 10.87,15.44 12.43,14.98 12.91,14.30 13.40,13.62 13.62,13.02 13.84,12.43 13.39,11.82 12.94,11.21 11.88,10.58 10.81,9.95 9.58,9.34 8.35,8.73 6.97,7.51 5.59,6.29 6.53,5.47 7.48,4.65 7.95,4.20 8.42,3.74 8.97,3.26 9.51,2.78 10.02,2.12 10.53,1.46 10.28,0.58 10.02,-0.28 8.79,-0.72 7.56,-1.15 6.30,-1.33 5.05,-1.51 3.78,-1.46 2.51,-1.42 1.53,-1.38 0.55,-1.34 -0.71,-1.35 -1.98,-1.36 -2.00,-1.49 -2.03,-1.62 -2.02,-1.75 -2.02,-1.87 -1.98,-2.00 -1.95,-2.12 -1.88,-2.23 -1.82,-2.34 -1.73,-2.44 -1.64,-2.53 -1.53,-2.60 -1.42,-2.67 -1.30,-2.71 -1.18,-2.75 -1.05,-2.76 -0.92,-2.77 -0.79,-2.75 -0.67,-2.73 -0.55,-2.68 -0.43,-2.63 -0.33,-2.55 -0.22,-2.47 -0.14,-2.37 -0.06,-2.27 -0.01,-2.16 0.04,-2.04 0.28,-1.81 0.52,-1.57 0.57,-0.89 0.62,-0.20 0.63,-0.13 0.65,-0.05 0.65,0.02 0.64,0.10 0.62,0.18 0.60,0.25 0.56,0.32 0.52,0.39 0.46,0.45 0.41,0.50 0.34,0.55 0.28,0.59 0.20,0.61 0.13,0.64 0.05,0.64 -0.02,0.65 -0.10,0.64 -0.18,0.63 -0.25,0.59 -0.32,0.56 -0.39,0.52 -0.45,0.47 -0.50,0.41 -0.55,0.35 -0.58,0.27 -0.62,0.20 -0.62,0.20 L -0.62,0.20 Z"/></g><g transform="translate(14.166656494140625 141.57270245306898) rotate(0 -0.3472137451171875 10.416671752929688)" stroke="none"><path fill="#1e1e1e" d="M 0.65,0.09 Q 0.65,0.09 0.64,1.51 0.63,2.94 0.56,4.88 0.49,6.82 0.46,8.85 0.44,10.88 0.42,12.54 0.40,14.21 0.36,15.51 0.33,16.82 0.14,18.63 -0.03,20.45 -0.05,20.55 -0.07,20.66 -0.12,20.75 -0.17,20.85 -0.24,20.92 -0.32,20.99 -0.42,21.04 -0.51,21.08 -0.62,21.09 -0.73,21.10 -0.83,21.08 -0.93,21.06 -1.02,21.00 -1.11,20.95 -1.18,20.87 -1.25,20.79 -1.29,20.69 -1.33,20.59 -1.34,20.48 -1.34,20.38 -1.31,20.27 -1.28,20.17 -1.22,20.08 -1.16,20.00 -1.08,19.93 -1.00,19.87 -0.89,19.83 -0.79,19.80 -0.69,19.80 -0.58,19.80 -0.48,19.83 -0.38,19.87 -0.30,19.93 -0.21,20.00 -0.15,20.09 -0.09,20.17 -0.06,20.28 -0.04,20.38 -0.04,20.48 -0.05,20.59 -0.09,20.69 -0.13,20.79 -0.20,20.87 -0.26,20.95 -0.36,21.00 -0.45,21.06 -0.55,21.08 -0.65,21.10 -0.76,21.09 -0.87,21.08 -0.96,21.04 -1.06,20.99 -1.14,20.92 -1.21,20.84 -1.26,20.75 -1.31,20.66 -1.33,20.55 -1.35,20.45 -1.35,20.45 -1.35,20.45 -1.52,18.63 -1.70,16.81 -1.72,15.50 -1.74,14.19 -1.73,12.51 -1.72,10.84 -1.67,8.79 -1.63,6.73 -1.53,4.69 -1.43,2.64 -1.04,1.27 -0.65,-0.09 -0.62,-0.16 -0.60,-0.24 -0.57,-0.31 -0.53,-0.38 -0.47,-0.44 -0.42,-0.50 -0.35,-0.54 -0.29,-0.58 -0.21,-0.61 -0.14,-0.64 -0.06,-0.64 0.01,-0.65 0.09,-0.64 0.17,-0.63 0.24,-0.60 0.31,-0.57 0.38,-0.52 0.44,-0.48 0.49,-0.42 0.54,-0.36 0.58,-0.29 0.61,-0.21 0.63,-0.14 0.65,-0.06 0.65,0.01 0.65,0.09 0.65,0.09 L 0.65,0.09 Z"/></g><g transform="translate(10 140.1838169550221) rotate(0 6.25 2.77777099609375)" stroke="none"><path fill="#1e1e1e" d="M -0.36,-0.54 Q -0.36,-0.54 0.13,-1.11 0.63,-1.68 1.43,-1.93 2.23,-2.18 3.41,-2.27 4.58,-2.37 5.66,-2.41 6.74,-2.45 7.72,-2.25 8.71,-2.06 9.54,-1.77 10.37,-1.48 11.56,-0.77 12.74,-0.06 13.04,0.54 13.34,1.15 13.25,2.04 13.16,2.93 12.61,3.77 12.07,4.61 11.41,5.31 10.75,6.01 9.12,6.71 7.50,7.41 7.40,7.44 7.29,7.46 7.19,7.46 7.08,7.45 6.98,7.41 6.89,7.36 6.81,7.29 6.73,7.22 6.68,7.13 6.62,7.04 6.60,6.93 6.58,6.83 6.60,6.72 6.61,6.62 6.66,6.52 6.70,6.43 6.78,6.35 6.85,6.28 6.95,6.23 7.04,6.18 7.15,6.17 7.26,6.15 7.36,6.17 7.46,6.19 7.56,6.25 7.65,6.30 7.72,6.38 7.79,6.46 7.83,6.55 7.88,6.65 7.88,6.76 7.89,6.86 7.87,6.97 7.84,7.07 7.79,7.16 7.73,7.25 7.65,7.31 7.56,7.38 7.46,7.42 7.36,7.45 7.26,7.46 7.15,7.46 7.05,7.43 6.95,7.40 6.86,7.34 6.78,7.28 6.71,7.19 6.65,7.10 6.62,7.00 6.59,6.90 6.59,6.79 6.59,6.69 6.63,6.59 6.67,6.49 6.73,6.40 6.80,6.32 6.89,6.26 6.98,6.21 6.98,6.21 6.98,6.21 8.01,5.35 9.05,4.50 9.57,3.85 10.09,3.21 10.45,2.78 10.81,2.34 10.74,1.61 10.67,0.89 10.13,0.77 9.59,0.65 8.91,0.39 8.22,0.12 7.51,-0.05 6.79,-0.23 5.76,-0.21 4.73,-0.19 3.24,-0.05 1.76,0.08 1.06,0.31 0.36,0.54 0.29,0.58 0.22,0.61 0.14,0.63 0.06,0.65 -0.01,0.65 -0.08,0.65 -0.16,0.63 -0.24,0.61 -0.31,0.57 -0.38,0.53 -0.44,0.48 -0.49,0.42 -0.54,0.36 -0.58,0.29 -0.61,0.22 -0.64,0.14 -0.64,0.06 -0.65,-0.01 -0.64,-0.08 -0.63,-0.16 -0.60,-0.24 -0.57,-0.31 -0.53,-0.37 -0.48,-0.44 -0.42,-0.49 -0.36,-0.54 -0.36,-0.54 L -0.36,-0.54 Z"/></g><g transform="translate(24.583343505859375 142.96158795111586) rotate(0 12.5 5.9027862548828125)" stroke="none"><path fill="#1e1e1e" d="M -0.36,-0.54 Q -0.36,-0.54 0.12,-1.10 0.62,-1.66 1.55,-2.08 2.49,-2.49 3.12,-2.67 3.75,-2.86 4.47,-2.94 5.19,-3.03 5.66,-3.09 6.13,-3.15 6.26,-3.15 6.40,-3.14 6.53,-3.11 6.66,-3.07 6.78,-3.01 6.89,-2.95 6.99,-2.85 7.09,-2.76 7.17,-2.65 7.24,-2.54 7.29,-2.41 7.33,-2.29 7.35,-2.15 7.36,-2.02 7.34,-1.88 7.32,-1.75 7.27,-1.63 7.22,-1.50 7.15,-1.39 7.07,-1.28 6.96,-1.19 6.86,-1.11 6.74,-1.05 6.62,-0.98 6.49,-0.95 6.36,-0.92 6.29,-0.30 6.23,0.32 5.68,0.86 5.13,1.40 4.76,1.96 4.39,2.51 3.98,3.01 3.57,3.51 4.22,3.85 4.87,4.18 5.64,3.86 6.42,3.53 7.44,3.20 8.47,2.86 8.93,2.42 9.38,1.98 9.77,1.45 10.15,0.91 10.57,0.42 10.99,-0.06 11.39,0.34 11.79,0.75 11.40,1.48 11.01,2.22 10.96,2.75 10.91,3.28 11.79,3.31 12.68,3.34 13.24,2.77 13.80,2.19 13.76,1.60 13.72,1.00 13.36,0.59 13.00,0.17 12.16,-0.04 11.32,-0.26 11.20,-0.31 11.08,-0.36 10.97,-0.44 10.86,-0.52 10.78,-0.63 10.70,-0.73 10.64,-0.85 10.58,-0.97 10.56,-1.10 10.53,-1.23 10.54,-1.36 10.54,-1.50 10.58,-1.62 10.62,-1.75 10.68,-1.87 10.75,-1.98 10.84,-2.08 10.94,-2.17 11.05,-2.24 11.16,-2.32 11.29,-2.36 11.41,-2.40 11.55,-2.41 11.68,-2.42 11.81,-2.40 11.94,-2.38 13.04,-2.12 14.14,-1.86 15.08,-2.22 16.01,-2.58 16.86,-2.94 17.70,-3.29 18.36,-3.78 19.02,-4.27 19.49,-4.66 19.96,-5.04 20.21,-5.66 20.45,-6.28 20.57,-6.36 20.69,-6.43 20.82,-6.48 20.95,-6.52 21.09,-6.53 21.23,-6.55 21.37,-6.52 21.51,-6.50 21.64,-6.45 21.77,-6.39 21.88,-6.31 22.00,-6.23 22.08,-6.12 22.17,-6.01 22.23,-5.88 22.30,-5.76 22.32,-5.62 22.35,-5.48 22.35,-5.34 22.34,-5.20 22.30,-5.06 22.27,-4.93 22.20,-4.81 22.13,-4.68 22.03,-4.58 21.93,-4.48 21.66,-3.20 21.40,-1.92 21.57,-0.45 21.75,1.01 21.83,2.72 21.90,4.42 21.73,6.02 21.56,7.62 21.50,9.03 21.43,10.44 20.96,11.81 20.50,13.19 20.10,14.14 19.70,15.10 18.82,16.06 17.95,17.02 17.42,17.56 16.88,18.10 16.32,18.43 15.75,18.75 14.68,18.63 13.61,18.50 13.35,17.85 13.09,17.21 13.43,16.35 13.78,15.49 14.54,14.41 15.31,13.33 16.50,12.21 17.68,11.08 18.75,10.05 19.82,9.03 21.15,8.01 22.48,7.00 23.61,5.98 24.73,4.95 24.82,4.89 24.90,4.82 25.00,4.78 25.10,4.74 25.20,4.74 25.31,4.73 25.41,4.76 25.51,4.79 25.60,4.85 25.69,4.91 25.75,5.00 25.81,5.08 25.85,5.19 25.88,5.29 25.88,5.39 25.88,5.50 25.84,5.60 25.81,5.70 25.74,5.78 25.67,5.87 25.59,5.93 25.50,5.98 25.39,6.01 25.29,6.04 25.19,6.03 25.08,6.02 24.98,5.98 24.88,5.94 24.80,5.87 24.72,5.80 24.67,5.71 24.62,5.62 24.59,5.52 24.57,5.41 24.59,5.31 24.60,5.20 24.64,5.11 24.69,5.01 24.76,4.93 24.84,4.86 24.93,4.81 25.03,4.76 25.13,4.74 25.24,4.73 25.34,4.75 25.45,4.77 25.54,4.82 25.63,4.87 25.71,4.95 25.78,5.02 25.82,5.12 25.86,5.22 25.87,5.32 25.88,5.43 25.86,5.53 25.84,5.64 25.78,5.73 25.72,5.82 25.72,5.82 25.72,5.82 24.76,7.19 23.80,8.57 22.62,9.64 21.45,10.71 20.37,11.76 19.29,12.81 18.26,13.76 17.22,14.71 16.21,15.57 15.21,16.42 15.72,15.89 16.24,15.36 16.88,14.75 17.53,14.13 17.89,13.26 18.26,12.39 18.65,11.34 19.05,10.29 19.13,8.83 19.20,7.36 19.36,5.94 19.53,4.53 19.46,2.90 19.39,1.28 19.21,-0.39 19.03,-2.06 19.10,-3.02 19.16,-3.98 19.81,-5.13 20.45,-6.28 20.57,-6.36 20.69,-6.43 20.82,-6.48 20.95,-6.52 21.09,-6.53 21.23,-6.55 21.37,-6.52 21.51,-6.50 21.64,-6.45 21.77,-6.39 21.88,-6.31 22.00,-6.23 22.08,-6.12 22.17,-6.01 22.23,-5.88 22.30,-5.76 22.32,-5.62 22.35,-5.48 22.35,-5.34 22.34,-5.20 22.30,-5.06 22.27,-4.93 22.20,-4.81 22.13,-4.68 22.03,-4.58 21.93,-4.48 21.73,-3.93 21.52,-3.38 20.94,-2.90 20.35,-2.41 19.47,-1.80 18.58,-1.18 17.67,-0.81 16.75,-0.43 15.43,-0.02 14.10,0.37 13.24,0.33 12.37,0.28 11.85,0.01 11.32,-0.26 11.20,-0.31 11.08,-0.36 10.97,-0.44 10.86,-0.52 10.78,-0.63 10.70,-0.73 10.64,-0.85 10.58,-0.97 10.56,-1.10 10.53,-1.23 10.54,-1.36 10.54,-1.50 10.58,-1.62 10.62,-1.75 10.68,-1.87 10.75,-1.98 10.84,-2.08 10.94,-2.17 11.05,-2.24 11.16,-2.32 11.29,-2.36 11.41,-2.40 11.55,-2.41 11.68,-2.42 11.81,-2.40 11.94,-2.38 12.30,-2.33 12.65,-2.29 13.16,-2.12 13.66,-1.94 14.19,-1.57 14.72,-1.19 15.27,-0.41 15.82,0.36 15.95,1.08 16.09,1.81 15.83,2.65 15.57,3.48 15.02,4.14 14.47,4.80 13.87,5.13 13.26,5.46 12.43,5.64 11.59,5.82 10.85,5.64 10.10,5.47 9.64,5.05 9.18,4.63 8.94,3.90 8.70,3.16 8.77,2.42 8.84,1.68 9.39,0.53 9.94,-0.60 10.98,-1.24 12.01,-1.88 12.67,-0.87 13.34,0.13 13.08,0.79 12.81,1.44 12.43,1.89 12.05,2.33 11.49,3.06 10.92,3.78 10.09,4.43 9.26,5.08 8.20,5.43 7.14,5.78 5.81,6.13 4.48,6.47 3.64,6.22 2.80,5.97 2.16,5.38 1.53,4.79 1.37,4.06 1.22,3.34 1.48,2.68 1.73,2.03 2.09,1.60 2.46,1.16 2.97,0.44 3.49,-0.26 4.35,-0.90 5.22,-1.54 5.67,-2.34 6.13,-3.15 6.26,-3.15 6.40,-3.14 6.53,-3.11 6.66,-3.07 6.78,-3.01 6.89,-2.95 6.99,-2.85 7.09,-2.76 7.17,-2.65 7.24,-2.54 7.29,-2.41 7.33,-2.29 7.35,-2.15 7.36,-2.02 7.34,-1.88 7.32,-1.75 7.27,-1.63 7.22,-1.50 7.15,-1.39 7.07,-1.28 6.96,-1.19 6.86,-1.11 6.74,-1.05 6.62,-0.99 6.49,-0.95 6.36,-0.92 5.89,-0.93 5.41,-0.93 4.36,-0.75 3.31,-0.57 2.54,-0.25 1.77,0.06 1.06,0.30 0.36,0.54 0.29,0.58 0.22,0.61 0.14,0.63 0.06,0.65 -0.01,0.65 -0.08,0.65 -0.16,0.63 -0.24,0.61 -0.31,0.57 -0.38,0.53 -0.44,0.48 -0.49,0.42 -0.54,0.36 -0.58,0.29 -0.61,0.22 -0.64,0.14 -0.64,0.06 -0.65,-0.01 -0.64,-0.08 -0.63,-0.16 -0.60,-0.24 -0.57,-0.31 -0.53,-0.37 -0.48,-0.44 -0.42,-0.49 -0.36,-0.54 -0.36,-0.54 L -0.36,-0.54 Z"/></g><g transform="translate(45.416656494140625 132.54493145697523) rotate(0 0.34722900390625 -1.0416717529296875)" stroke="none"><path fill="#1e1e1e" d="M -0.65,0 Q -0.65,0 -0.37,-0.39 -0.08,-0.78 -0.07,-0.86 -0.06,-0.94 -0.04,-1.01 -0.01,-1.09 0.03,-1.15 0.07,-1.22 0.13,-1.27 0.19,-1.32 0.26,-1.36 0.33,-1.39 0.41,-1.41 0.48,-1.43 0.56,-1.43 0.64,-1.43 0.72,-1.41 0.80,-1.39 0.87,-1.36 0.94,-1.32 1.00,-1.27 1.06,-1.22 1.10,-1.15 1.15,-1.09 1.17,-1.01 1.20,-0.94 1.21,-0.86 1.22,-0.78 1.16,-0.97 1.10,-1.16 1.15,-1.07 1.19,-0.97 1.21,-0.87 1.22,-0.76 1.20,-0.66 1.18,-0.55 1.13,-0.46 1.07,-0.37 0.99,-0.30 0.92,-0.23 0.82,-0.18 0.72,-0.14 0.61,-0.13 0.51,-0.13 0.40,-0.15 0.30,-0.18 0.21,-0.24 0.12,-0.29 0.06,-0.38 -0.00,-0.46 -0.04,-0.56 -0.07,-0.66 -0.07,-0.77 -0.08,-0.87 -0.04,-0.97 -0.01,-1.07 0.04,-1.16 0.10,-1.25 0.19,-1.31 0.27,-1.37 0.38,-1.40 0.48,-1.43 0.58,-1.43 0.69,-1.42 0.79,-1.39 0.89,-1.35 0.97,-1.28 1.05,-1.22 1.11,-1.13 1.17,-1.04 1.19,-0.93 1.22,-0.83 1.21,-0.72 1.20,-0.62 1.16,-0.52 1.12,-0.42 1.04,-0.35 0.97,-0.27 0.88,-0.21 0.79,-0.16 0.68,-0.14 0.58,-0.12 0.47,-0.14 0.37,-0.15 0.27,-0.20 0.18,-0.25 0.04,-0.51 -0.08,-0.78 -0.07,-0.86 -0.06,-0.94 -0.04,-1.01 -0.01,-1.09 0.03,-1.15 0.07,-1.22 0.13,-1.27 0.19,-1.32 0.26,-1.36 0.33,-1.39 0.41,-1.41 0.48,-1.43 0.56,-1.43 0.64,-1.43 0.72,-1.41 0.80,-1.39 0.87,-1.36 0.94,-1.32 1.00,-1.27 1.06,-1.22 1.10,-1.15 1.15,-1.09 1.17,-1.01 1.20,-0.94 1.21,-0.86 1.22,-0.78 0.94,-0.39 0.65,0 0.64,0.07 0.63,0.15 0.60,0.23 0.58,0.30 0.53,0.37 0.49,0.43 0.43,0.48 0.37,0.54 0.30,0.57 0.23,0.61 0.15,0.63 0.07,0.65 -0.00,0.65 -0.07,0.65 -0.15,0.63 -0.23,0.61 -0.30,0.57 -0.37,0.54 -0.43,0.48 -0.49,0.43 -0.53,0.37 -0.58,0.30 -0.60,0.23 -0.63,0.15 -0.64,0.07 -0.65,-0.00 -0.65,-0.00 L -0.65,0 Z"/></g><g transform="translate(55.833343505859375 148.51716046088148) rotate(0 -0.6944580078125 0)" stroke="none"><path fill="#1e1e1e" d="M -0.79,0.65 Q -0.79,0.65 -0.90,0.63 -1.00,0.62 -1.10,0.57 -1.19,0.52 -1.26,0.44 -1.34,0.36 -1.38,0.27 -1.43,0.17 -1.44,0.07 -1.45,-0.03 -1.43,-0.13 -1.40,-0.24 -1.35,-0.33 -1.29,-0.42 -1.21,-0.49 -1.13,-0.56 -1.03,-0.60 -0.93,-0.64 -0.83,-0.64 -0.72,-0.65 -0.62,-0.62 -0.52,-0.59 -0.43,-0.53 -0.34,-0.47 -0.28,-0.39 -0.21,-0.30 -0.18,-0.20 -0.15,-0.10 -0.15,0.00 -0.15,0.10 -0.18,0.20 -0.21,0.30 -0.28,0.39 -0.34,0.47 -0.43,0.53 -0.52,0.59 -0.62,0.62 -0.72,0.65 -0.83,0.64 -0.93,0.64 -1.03,0.60 -1.13,0.56 -1.21,0.49 -1.29,0.42 -1.35,0.33 -1.40,0.24 -1.43,0.13 -1.45,0.03 -1.44,-0.07 -1.43,-0.17 -1.38,-0.27 -1.34,-0.36 -1.26,-0.44 -1.19,-0.52 -1.10,-0.57 -1.00,-0.62 -0.90,-0.63 -0.79,-0.65 -0.79,-0.65 -0.79,-0.65 -0.70,-0.74 -0.61,-0.82 -0.51,-0.89 -0.40,-0.95 -0.28,-0.98 -0.16,-1.02 -0.03,-1.02 0.08,-1.03 0.20,-1.00 0.33,-0.97 0.44,-0.92 0.55,-0.87 0.65,-0.79 0.74,-0.71 0.82,-0.61 0.89,-0.51 0.94,-0.39 0.99,-0.28 1.01,-0.16 1.03,-0.03 1.02,0.08 1.01,0.21 0.97,0.32 0.93,0.44 0.86,0.55 0.79,0.65 -0.00,0.65 L -0.79,0.65 Z"/></g><g transform="translate(65.55557250976562 143.65604595892836) rotate(0 20.83331298828125 -2.4305572509765625)" stroke="none"><path fill="#1e1e1e" d="M -0.58,-0.29 Q -0.58,-0.29 -0.35,-1.17 -0.11,-2.05 0.01,-2.56 0.14,-3.08 0.56,-3.55 0.97,-4.02 1.53,-4.23 2.08,-4.44 2.90,-4.29 3.72,-4.14 4.32,-3.78 4.92,-3.43 5.49,-2.48 6.07,-1.53 6.10,-0.36 6.13,0.80 6.12,1.57 6.11,2.34 6.10,3.29 6.10,4.24 6.08,4.39 6.06,4.54 6.00,4.68 5.95,4.81 5.86,4.94 5.77,5.06 5.66,5.15 5.55,5.25 5.42,5.32 5.28,5.39 5.14,5.42 4.99,5.45 4.84,5.45 4.70,5.45 4.55,5.41 4.41,5.38 4.28,5.30 4.15,5.23 4.04,5.13 3.93,5.03 3.84,4.91 3.76,4.79 3.71,4.65 3.66,4.51 3.64,4.36 3.63,4.21 3.85,3.14 4.07,2.06 4.61,1.05 5.14,0.03 5.58,-0.59 6.02,-1.22 7.27,-1.95 8.52,-2.68 8.99,-2.34 9.45,-1.99 9.72,-1.47 9.99,-0.95 10.06,-0.62 10.13,-0.28 10.17,-0.13 10.21,0.01 10.21,0.16 10.22,0.32 10.18,0.47 10.15,0.62 10.08,0.76 10.01,0.89 9.91,1.01 9.81,1.13 9.68,1.22 9.56,1.31 9.41,1.37 9.27,1.43 9.12,1.45 8.96,1.47 8.81,1.45 8.65,1.44 8.51,1.38 8.36,1.33 8.23,1.25 8.10,1.16 8.00,1.05 7.89,0.93 7.82,0.80 7.75,0.66 8.07,-0.26 8.39,-1.19 9.30,-2.19 10.21,-3.19 10.62,-3.54 11.03,-3.89 12.36,-3.86 13.69,-3.83 14.10,-3.24 14.51,-2.66 14.72,-2.14 14.93,-1.62 15.22,-1.00 15.51,-0.38 16.25,-1.08 16.99,-1.78 17.56,-2.46 18.13,-3.15 18.58,-3.82 19.02,-4.49 19.45,-5.03 19.88,-5.57 19.82,-6.44 19.76,-7.30 19.82,-7.45 19.88,-7.59 19.98,-7.72 20.07,-7.85 20.19,-7.95 20.31,-8.05 20.45,-8.11 20.59,-8.18 20.75,-8.21 20.90,-8.25 21.06,-8.24 21.21,-8.24 21.36,-8.19 21.52,-8.15 21.65,-8.07 21.79,-8.00 21.90,-7.89 22.02,-7.78 22.10,-7.65 22.19,-7.52 22.24,-7.37 22.29,-7.22 22.30,-7.06 22.31,-6.91 22.29,-6.75 22.27,-6.60 21.21,-5.97 20.16,-5.34 19.64,-4.37 19.11,-3.39 18.98,-2.88 18.85,-2.36 19.43,-1.57 20.00,-0.78 20.81,-0.43 21.62,-0.08 22.18,-0.00 22.73,0.06 24.01,-0.15 25.29,-0.37 26.25,0.07 27.21,0.51 26.90,1.52 26.59,2.53 25.90,2.32 25.20,2.12 24.72,1.42 24.23,0.72 24.07,-0.11 23.90,-0.96 24.07,-1.70 24.24,-2.45 24.32,-2.99 24.40,-3.54 25.39,-4.17 26.38,-4.81 27.07,-4.47 27.77,-4.13 28.18,-3.38 28.59,-2.62 29.10,-1.98 29.61,-1.34 30.25,-0.67 30.89,-0.00 31.34,-0.43 31.79,-0.86 32.38,-1.46 32.96,-2.06 33.31,-2.77 33.65,-3.48 34.01,-4.39 34.37,-5.29 34.37,-6.20 34.37,-7.10 34.06,-7.81 33.75,-8.52 33.69,-8.66 33.64,-8.81 33.62,-8.96 33.60,-9.11 33.61,-9.27 33.63,-9.42 33.69,-9.57 33.74,-9.71 33.83,-9.84 33.91,-9.97 34.03,-10.07 34.14,-10.17 34.28,-10.24 34.42,-10.32 34.57,-10.35 34.72,-10.39 34.87,-10.39 35.03,-10.39 35.18,-10.36 35.33,-10.32 35.46,-10.25 35.60,-10.18 35.72,-10.08 35.83,-9.98 35.92,-9.85 36.01,-9.72 35.87,-9.07 35.73,-8.42 36.03,-7.97 36.34,-7.52 36.73,-7.05 37.12,-6.58 37.74,-5.69 38.36,-4.80 39.17,-3.89 39.98,-2.98 40.59,-2.11 41.20,-1.24 41.68,-0.46 42.17,0.31 42.41,1.36 42.65,2.41 42.23,3.29 41.80,4.18 39.92,4.77 38.03,5.37 37.93,5.38 37.82,5.40 37.72,5.39 37.61,5.37 37.52,5.32 37.42,5.27 37.35,5.19 37.28,5.12 37.23,5.02 37.18,4.92 37.17,4.82 37.16,4.71 37.18,4.61 37.21,4.51 37.26,4.41 37.31,4.32 37.39,4.25 37.47,4.18 37.57,4.15 37.67,4.11 37.78,4.10 37.88,4.09 37.99,4.12 38.09,4.15 38.18,4.21 38.27,4.27 38.33,4.35 38.40,4.43 38.43,4.54 38.46,4.64 38.46,4.74 38.47,4.85 38.43,4.95 38.40,5.05 38.33,5.13 38.27,5.22 38.18,5.28 38.10,5.34 37.99,5.37 37.89,5.40 37.79,5.39 37.68,5.39 37.58,5.35 37.48,5.31 37.40,5.24 37.32,5.17 37.26,5.08 37.21,4.99 37.18,4.89 37.16,4.78 37.17,4.68 37.18,4.57 37.23,4.48 37.27,4.38 37.34,4.30 37.42,4.23 37.51,4.17 37.60,4.12 37.60,4.12 37.60,4.12 38.73,2.88 39.86,1.64 39.46,0.94 39.07,0.23 38.55,-0.52 38.04,-1.27 37.14,-2.30 36.24,-3.33 35.65,-4.18 35.06,-5.04 34.49,-5.85 33.92,-6.67 33.69,-7.47 33.46,-8.27 33.65,-8.99 33.84,-9.71 33.80,-9.11 33.75,-8.52 33.69,-8.66 33.64,-8.81 33.62,-8.96 33.60,-9.11 33.61,-9.27 33.63,-9.42 33.69,-9.57 33.74,-9.71 33.83,-9.84 33.91,-9.97 34.03,-10.07 34.14,-10.17 34.28,-10.24 34.42,-10.32 34.57,-10.35 34.72,-10.39 34.87,-10.39 35.03,-10.39 35.18,-10.36 35.33,-10.32 35.46,-10.25 35.60,-10.18 35.72,-10.08 35.83,-9.98 35.92,-9.85 36.01,-9.72 36.11,-9.31 36.22,-8.90 36.53,-8.26 36.83,-7.61 36.95,-6.69 37.07,-5.77 36.88,-5.06 36.69,-4.36 36.27,-3.34 35.85,-2.33 35.30,-1.34 34.75,-0.34 34.17,0.23 33.59,0.82 32.90,1.43 32.22,2.03 31.31,2.16 30.41,2.30 29.80,2.02 29.20,1.73 28.48,0.98 27.76,0.22 27.40,-0.20 27.04,-0.62 26.69,-1.16 26.33,-1.70 26.03,-2.23 25.72,-2.76 26.26,-2.88 26.79,-3.01 26.62,-2.15 26.45,-1.28 26.30,-0.62 26.15,0.03 25.79,1.00 25.44,1.97 24.86,2.04 24.27,2.10 23.39,2.29 22.51,2.48 21.73,2.41 20.95,2.34 20.11,2.07 19.28,1.81 18.58,1.25 17.88,0.68 17.49,0.08 17.09,-0.51 16.73,-1.56 16.36,-2.60 16.58,-3.57 16.79,-4.53 17.30,-5.50 17.82,-6.47 18.79,-6.89 19.76,-7.30 19.82,-7.45 19.88,-7.59 19.98,-7.72 20.07,-7.85 20.19,-7.95 20.31,-8.05 20.45,-8.11 20.59,-8.18 20.75,-8.21 20.90,-8.25 21.06,-8.24 21.21,-8.24 21.36,-8.19 21.52,-8.15 21.65,-8.07 21.79,-8.00 21.90,-7.89 22.02,-7.78 22.10,-7.65 22.19,-7.52 22.24,-7.37 22.29,-7.22 22.30,-7.06 22.31,-6.91 22.29,-6.75 22.27,-6.60 22.39,-6.19 22.52,-5.77 22.23,-4.90 21.95,-4.02 21.56,-3.53 21.17,-3.04 20.62,-2.24 20.08,-1.44 19.25,-0.54 18.43,0.36 17.52,0.90 16.60,1.45 15.54,1.53 14.48,1.62 13.82,0.92 13.16,0.21 12.81,-0.45 12.47,-1.12 12.02,-1.88 11.56,-2.64 12.14,-2.28 12.71,-1.93 12.28,-1.53 11.84,-1.13 10.99,-0.71 10.13,-0.28 10.17,-0.13 10.21,0.01 10.21,0.16 10.22,0.32 10.18,0.47 10.15,0.62 10.08,0.76 10.01,0.89 9.91,1.01 9.81,1.13 9.68,1.22 9.56,1.31 9.41,1.37 9.27,1.43 9.12,1.45 8.96,1.47 8.81,1.45 8.65,1.44 8.51,1.38 8.36,1.33 8.23,1.25 8.10,1.16 8.00,1.05 7.89,0.93 7.82,0.80 7.75,0.66 7.54,-0.12 7.33,-0.92 7.89,-0.90 8.44,-0.88 8.24,-0.36 8.04,0.16 7.68,0.68 7.31,1.21 6.87,1.98 6.44,2.75 6.27,3.50 6.10,4.24 6.08,4.39 6.06,4.54 6.00,4.68 5.95,4.81 5.86,4.94 5.77,5.06 5.66,5.15 5.55,5.25 5.42,5.32 5.28,5.39 5.14,5.42 4.99,5.45 4.84,5.45 4.70,5.45 4.55,5.41 4.41,5.38 4.28,5.30 4.15,5.23 4.04,5.13 3.93,5.03 3.84,4.91 3.76,4.79 3.71,4.65 3.66,4.51 3.64,4.36 3.63,4.21 3.63,3.78 3.63,3.36 3.64,2.82 3.65,2.29 3.67,1.49 3.69,0.69 3.61,-0.41 3.54,-1.52 2.83,-1.89 2.13,-2.26 1.92,-1.70 1.71,-1.14 1.15,-0.42 0.58,0.29 0.54,0.35 0.49,0.42 0.44,0.47 0.38,0.53 0.31,0.57 0.24,0.60 0.16,0.62 0.09,0.65 0.01,0.65 -0.06,0.65 -0.14,0.63 -0.22,0.61 -0.29,0.58 -0.36,0.54 -0.42,0.49 -0.48,0.44 -0.52,0.38 -0.57,0.31 -0.60,0.24 -0.63,0.16 -0.64,0.09 -0.65,0.01 -0.64,-0.06 -0.64,-0.14 -0.61,-0.21 -0.58,-0.29 -0.58,-0.29 L -0.58,-0.29 Z"/></g><g transform="translate(14.166656494140625 174.90604595892836) rotate(0 0.6944580078125 5.2083282470703125)" stroke="none"><path fill="#1e1e1e" d="M 0.64,-0.12 Q 0.64,-0.12 1.04,0.83 1.44,1.78 1.54,2.87 1.65,3.95 1.69,5.01 1.74,6.07 1.86,8.04 1.97,10.01 1.98,10.11 1.98,10.22 1.95,10.32 1.92,10.42 1.86,10.51 1.80,10.60 1.71,10.66 1.63,10.72 1.52,10.76 1.42,10.79 1.32,10.79 1.21,10.78 1.11,10.75 1.01,10.71 0.93,10.65 0.84,10.58 0.79,10.49 0.73,10.40 0.70,10.30 0.67,10.20 0.68,10.09 0.69,9.98 0.73,9.89 0.77,9.79 0.84,9.71 0.91,9.63 1.01,9.58 1.10,9.52 1.20,9.50 1.31,9.48 1.41,9.49 1.52,9.51 1.61,9.55 1.71,9.60 1.78,9.68 1.86,9.75 1.91,9.84 1.95,9.94 1.97,10.04 1.99,10.15 1.97,10.25 1.95,10.36 1.90,10.45 1.84,10.54 1.77,10.62 1.69,10.69 1.59,10.73 1.49,10.77 1.39,10.78 1.28,10.79 1.18,10.77 1.07,10.74 0.98,10.69 0.89,10.63 0.83,10.55 0.76,10.47 0.72,10.37 0.69,10.27 0.69,10.27 0.69,10.27 0.11,8.21 -0.46,6.14 -0.48,5.14 -0.51,4.13 -0.57,3.16 -0.64,2.20 -0.64,1.16 -0.64,0.12 -0.64,0.04 -0.65,-0.02 -0.64,-0.10 -0.62,-0.18 -0.59,-0.25 -0.56,-0.33 -0.51,-0.39 -0.47,-0.45 -0.41,-0.50 -0.34,-0.55 -0.27,-0.59 -0.20,-0.62 -0.12,-0.63 -0.05,-0.65 0.02,-0.65 0.10,-0.64 0.18,-0.62 0.25,-0.60 0.32,-0.56 0.39,-0.52 0.45,-0.46 0.51,-0.41 0.55,-0.34 0.59,-0.27 0.61,-0.20 0.64,-0.12 0.64,-0.12 L 0.64,-0.12 Z"/></g><g transform="translate(21.805572509765625 179.07270245306898) rotate(0 3.819427490234375 0.6944427490234375)" stroke="none"><path fill="#1e1e1e" d="M 0.63,0.15 Q 0.63,0.15 0.60,0.99 0.56,1.83 0.46,2.89 0.36,3.95 1.23,3.97 2.10,4.00 2.65,3.61 3.21,3.21 4.10,2.62 4.99,2.03 5.46,1.47 5.93,0.90 6.30,0.34 6.68,-0.21 6.42,-0.91 6.15,-1.60 5.94,-2.12 5.72,-2.64 4.57,-2.20 3.42,-1.76 3.33,-1.71 3.24,-1.66 3.13,-1.63 3.03,-1.61 2.92,-1.62 2.82,-1.64 2.72,-1.68 2.63,-1.73 2.55,-1.80 2.47,-1.87 2.42,-1.97 2.38,-2.06 2.36,-2.17 2.34,-2.27 2.36,-2.38 2.38,-2.48 2.43,-2.58 2.48,-2.67 2.56,-2.74 2.64,-2.81 2.73,-2.86 2.83,-2.90 2.94,-2.91 3.04,-2.92 3.14,-2.90 3.25,-2.88 3.34,-2.82 3.43,-2.76 3.50,-2.68 3.57,-2.60 3.60,-2.50 3.64,-2.40 3.65,-2.30 3.65,-2.19 3.62,-2.09 3.59,-1.99 3.53,-1.90 3.47,-1.81 3.39,-1.75 3.30,-1.68 3.20,-1.65 3.10,-1.62 2.99,-1.62 2.89,-1.62 2.79,-1.66 2.69,-1.69 2.60,-1.76 2.52,-1.82 2.46,-1.91 2.40,-2.00 2.37,-2.10 2.35,-2.20 2.35,-2.31 2.36,-2.41 2.40,-2.51 2.44,-2.61 2.51,-2.69 2.58,-2.77 2.58,-2.77 2.58,-2.77 4.28,-3.81 5.98,-4.84 6.80,-4.36 7.62,-3.89 7.97,-3.19 8.33,-2.50 8.56,-1.80 8.80,-1.11 8.73,-0.14 8.65,0.82 8.13,1.61 7.60,2.40 6.90,3.13 6.19,3.87 5.25,4.46 4.32,5.05 3.39,5.55 2.46,6.05 1.41,6.14 0.36,6.22 -0.34,5.81 -1.05,5.41 -1.34,4.66 -1.64,3.91 -1.60,3.21 -1.56,2.51 -1.46,1.93 -1.36,1.35 -1.00,0.59 -0.63,-0.15 -0.60,-0.23 -0.58,-0.30 -0.53,-0.37 -0.49,-0.43 -0.43,-0.48 -0.37,-0.54 -0.30,-0.57 -0.23,-0.61 -0.15,-0.63 -0.07,-0.65 0.00,-0.65 0.08,-0.65 0.15,-0.63 0.23,-0.61 0.30,-0.57 0.37,-0.53 0.43,-0.48 0.49,-0.43 0.53,-0.36 0.58,-0.30 0.61,-0.22 0.63,-0.15 0.64,-0.07 0.65,0.00 0.64,0.08 0.63,0.15 0.63,0.15 L 0.63,0.15 Z"/></g><g transform="translate(32.916656494140625 174.90604595892836) rotate(0 3.125 4.513885498046875)" stroke="none"><path fill="#1e1e1e" d="M 0.39,-0.52 Q 0.39,-0.52 1.31,-0.09 2.24,0.33 2.81,0.80 3.38,1.26 3.94,1.60 4.51,1.94 5.54,2.62 6.58,3.29 6.71,4.10 6.84,4.91 6.58,5.56 6.32,6.21 4.93,7.62 3.55,9.02 3.48,9.10 3.41,9.18 3.32,9.23 3.22,9.29 3.12,9.31 3.02,9.33 2.91,9.32 2.80,9.31 2.71,9.26 2.61,9.22 2.54,9.14 2.46,9.07 2.41,8.98 2.36,8.88 2.34,8.78 2.33,8.67 2.35,8.57 2.36,8.46 2.41,8.37 2.46,8.28 2.54,8.20 2.62,8.13 2.72,8.09 2.81,8.04 2.92,8.03 3.02,8.02 3.13,8.04 3.23,8.07 3.32,8.12 3.41,8.18 3.48,8.26 3.55,8.34 3.59,8.44 3.63,8.54 3.63,8.64 3.64,8.75 3.61,8.85 3.58,8.96 3.52,9.04 3.46,9.13 3.37,9.19 3.29,9.26 3.19,9.29 3.09,9.32 2.98,9.32 2.87,9.32 2.77,9.29 2.67,9.25 2.59,9.19 2.50,9.12 2.45,9.04 2.39,8.95 2.36,8.85 2.33,8.74 2.34,8.64 2.34,8.53 2.38,8.43 2.42,8.33 2.42,8.33 2.42,8.33 3.45,6.31 4.47,4.29 3.91,4.06 3.34,3.83 2.65,3.39 1.97,2.94 1.45,2.50 0.94,2.06 0.27,1.29 -0.39,0.52 -0.45,0.47 -0.50,0.41 -0.55,0.34 -0.59,0.28 -0.61,0.20 -0.64,0.13 -0.64,0.05 -0.65,-0.02 -0.64,-0.10 -0.63,-0.18 -0.59,-0.25 -0.56,-0.32 -0.52,-0.39 -0.47,-0.45 -0.41,-0.50 -0.35,-0.55 -0.27,-0.58 -0.20,-0.62 -0.13,-0.63 -0.05,-0.65 0.02,-0.65 0.10,-0.64 0.18,-0.62 0.25,-0.60 0.32,-0.56 0.39,-0.52 0.39,-0.52 L 0.39,-0.52 Z"/></g><g transform="translate(42.638885498046875 181.85047344916273) rotate(0 -1.736114501953125 4.1666717529296875)" stroke="none"><path fill="#1e1e1e" d="M 0.63,0.18 Q 0.63,0.18 0.45,1.64 0.27,3.10 -0.35,4.21 -0.97,5.32 -1.84,6.81 -2.70,8.30 -2.77,8.38 -2.83,8.47 -2.92,8.53 -3.01,8.58 -3.11,8.61 -3.22,8.64 -3.32,8.63 -3.43,8.62 -3.53,8.58 -3.62,8.54 -3.70,8.47 -3.78,8.40 -3.84,8.31 -3.89,8.22 -3.91,8.11 -3.93,8.01 -3.92,7.90 -3.91,7.80 -3.86,7.70 -3.81,7.61 -3.74,7.53 -3.67,7.45 -3.57,7.41 -3.48,7.36 -3.37,7.34 -3.27,7.33 -3.16,7.35 -3.06,7.36 -2.96,7.42 -2.87,7.47 -2.80,7.55 -2.73,7.62 -2.68,7.72 -2.64,7.82 -2.63,7.92 -2.62,8.03 -2.65,8.13 -2.67,8.24 -2.73,8.33 -2.78,8.42 -2.87,8.48 -2.95,8.55 -3.05,8.59 -3.15,8.63 -3.25,8.63 -3.36,8.64 -3.46,8.61 -3.56,8.57 -3.65,8.51 -3.74,8.45 -3.80,8.37 -3.86,8.28 -3.89,8.18 -3.93,8.08 -3.93,7.97 -3.92,7.87 -3.89,7.77 -3.85,7.67 -3.85,7.67 -3.85,7.67 -3.37,5.95 -2.89,4.23 -2.38,3.36 -1.86,2.48 -1.24,1.15 -0.63,-0.18 -0.60,-0.25 -0.56,-0.32 -0.52,-0.38 -0.47,-0.45 -0.41,-0.50 -0.35,-0.55 -0.28,-0.58 -0.21,-0.62 -0.13,-0.63 -0.05,-0.65 0.02,-0.65 0.10,-0.64 0.17,-0.62 0.25,-0.60 0.32,-0.56 0.39,-0.52 0.44,-0.47 0.50,-0.41 0.54,-0.35 0.59,-0.28 0.61,-0.20 0.64,-0.13 0.64,-0.05 0.65,0.02 0.64,0.10 0.63,0.18 0.63,0.18 L 0.63,0.18 Z"/></g><g transform="translate(50.972198486328125 174.21158795111586) rotate(0 0.6944580078125 5.90277099609375)" stroke="none"><path fill="#1e1e1e" d="M 0.65,-0.08 Q 0.65,-0.08 1.00,1.49 1.34,3.07 1.45,4.78 1.56,6.49 1.76,8.87 1.97,11.24 1.97,11.34 1.97,11.45 1.93,11.55 1.89,11.65 1.82,11.73 1.76,11.82 1.67,11.87 1.58,11.93 1.47,11.95 1.37,11.98 1.27,11.97 1.16,11.96 1.06,11.92 0.97,11.88 0.89,11.81 0.81,11.73 0.76,11.64 0.70,11.55 0.68,11.44 0.66,11.34 0.68,11.23 0.69,11.13 0.74,11.03 0.79,10.94 0.86,10.86 0.94,10.79 1.04,10.74 1.13,10.70 1.24,10.68 1.34,10.67 1.45,10.69 1.55,10.71 1.64,10.76 1.73,10.81 1.81,10.89 1.88,10.97 1.92,11.07 1.96,11.17 1.97,11.27 1.98,11.38 1.95,11.48 1.92,11.59 1.87,11.68 1.81,11.77 1.72,11.83 1.64,11.90 1.54,11.93 1.44,11.97 1.34,11.97 1.23,11.98 1.13,11.94 1.03,11.91 0.94,11.85 0.85,11.79 0.79,11.70 0.73,11.61 0.70,11.51 0.67,11.41 0.67,11.41 0.67,11.41 0.12,9.00 -0.42,6.59 -0.48,4.95 -0.54,3.31 -0.60,1.69 -0.65,0.08 -0.65,0.00 -0.65,-0.07 -0.63,-0.15 -0.61,-0.23 -0.57,-0.30 -0.54,-0.37 -0.48,-0.43 -0.43,-0.48 -0.37,-0.53 -0.30,-0.58 -0.23,-0.60 -0.15,-0.63 -0.08,-0.64 -0.00,-0.65 0.07,-0.64 0.15,-0.63 0.22,-0.61 0.30,-0.58 0.36,-0.53 0.43,-0.49 0.48,-0.43 0.53,-0.37 0.57,-0.30 0.61,-0.23 0.63,-0.15 0.65,-0.08 0.65,-0.08 L 0.65,-0.08 Z"/></g><g transform="translate(58.611114501953125 179.07270245306898) rotate(0 2.77777099609375 -1.3889007568359375)" stroke="none"><path fill="#1e1e1e" d="M -0.39,-0.52 Q -0.39,-0.52 0.26,-1.28 0.93,-2.04 1.34,-2.76 1.75,-3.48 2.41,-4.29 3.07,-5.10 3.25,-5.70 3.43,-6.30 3.72,-6.59 4.00,-6.89 4.07,-7.01 4.13,-7.13 4.22,-7.24 4.31,-7.34 4.43,-7.42 4.54,-7.50 4.67,-7.56 4.80,-7.61 4.94,-7.62 5.08,-7.64 5.22,-7.63 5.35,-7.61 5.49,-7.56 5.62,-7.51 5.73,-7.44 5.85,-7.36 5.94,-7.25 6.03,-7.15 6.10,-7.03 6.17,-6.90 6.20,-6.77 6.23,-6.63 6.24,-6.50 6.24,-6.36 6.20,-6.22 6.17,-6.08 6.21,-5.01 6.26,-3.94 6.20,-3.01 6.15,-2.07 6.11,-0.88 6.08,0.30 6.06,1.94 6.05,3.59 6.07,3.69 6.08,3.79 6.07,3.90 6.05,4.00 6.00,4.10 5.95,4.19 5.87,4.26 5.79,4.34 5.70,4.38 5.60,4.43 5.49,4.44 5.39,4.45 5.29,4.42 5.18,4.40 5.09,4.34 5.00,4.29 4.93,4.21 4.86,4.13 4.82,4.03 4.79,3.93 4.78,3.82 4.78,3.72 4.80,3.61 4.83,3.51 4.89,3.42 4.95,3.34 5.04,3.27 5.12,3.21 5.22,3.18 5.33,3.14 5.43,3.14 5.54,3.14 5.64,3.18 5.74,3.21 5.82,3.28 5.91,3.34 5.97,3.43 6.03,3.52 6.05,3.62 6.08,3.72 6.07,3.83 6.07,3.94 6.03,4.03 5.99,4.13 5.92,4.21 5.85,4.29 5.76,4.35 5.67,4.40 5.56,4.43 5.46,4.45 5.35,4.44 5.25,4.42 5.15,4.38 5.06,4.33 4.98,4.26 4.90,4.19 4.85,4.09 4.80,4.00 4.80,4.00 4.80,4.00 4.26,2.13 3.71,0.25 3.73,-0.98 3.74,-2.22 3.81,-3.27 3.88,-4.31 4.07,-4.93 4.26,-5.55 4.13,-6.22 4.00,-6.89 4.07,-7.01 4.13,-7.13 4.22,-7.24 4.31,-7.34 4.43,-7.42 4.54,-7.50 4.67,-7.56 4.80,-7.61 4.94,-7.62 5.08,-7.64 5.22,-7.63 5.35,-7.61 5.49,-7.56 5.62,-7.51 5.73,-7.44 5.85,-7.36 5.94,-7.25 6.03,-7.15 6.10,-7.03 6.17,-6.90 6.20,-6.77 6.23,-6.63 6.24,-6.50 6.24,-6.36 6.20,-6.22 6.17,-6.08 5.83,-5.76 5.49,-5.44 5.14,-4.59 4.78,-3.74 4.19,-3.03 3.59,-2.32 2.93,-1.33 2.26,-0.35 1.32,0.08 0.39,0.52 0.32,0.56 0.25,0.60 0.18,0.62 0.10,0.64 0.02,0.65 -0.05,0.65 -0.13,0.63 -0.20,0.62 -0.28,0.58 -0.35,0.55 -0.41,0.50 -0.47,0.45 -0.52,0.39 -0.56,0.32 -0.59,0.25 -0.63,0.18 -0.64,0.10 -0.65,0.02 -0.64,-0.05 -0.64,-0.13 -0.61,-0.20 -0.59,-0.28 -0.55,-0.34 -0.50,-0.41 -0.45,-0.47 -0.39,-0.52 -0.39,-0.52 L -0.39,-0.52 Z"/></g><g transform="translate(69.02780151367188 167.96158795111586) rotate(0 3.125 7.986114501953125)" stroke="none"><path fill="#1e1e1e" d="M 0.56,-0.33 Q 0.56,-0.33 1.29,0.57 2.03,1.49 2.67,2.24 3.31,3.00 4.02,3.96 4.73,4.91 5.41,5.67 6.09,6.43 6.51,7.31 6.92,8.19 7.10,9.25 7.29,10.30 7.13,11.29 6.98,12.28 5.26,14.20 3.54,16.13 3.45,16.19 3.37,16.25 3.27,16.28 3.16,16.32 3.06,16.31 2.95,16.31 2.85,16.27 2.75,16.24 2.67,16.17 2.59,16.10 2.53,16.01 2.47,15.92 2.45,15.82 2.42,15.72 2.43,15.61 2.44,15.51 2.48,15.41 2.52,15.31 2.59,15.23 2.66,15.15 2.76,15.10 2.85,15.05 2.95,15.03 3.06,15.01 3.16,15.02 3.27,15.04 3.36,15.08 3.46,15.13 3.53,15.21 3.61,15.28 3.66,15.38 3.70,15.47 3.72,15.58 3.73,15.68 3.71,15.79 3.69,15.89 3.64,15.98 3.59,16.08 3.51,16.15 3.43,16.22 3.33,16.26 3.23,16.30 3.13,16.31 3.02,16.32 2.92,16.29 2.82,16.27 2.73,16.21 2.64,16.15 2.57,16.07 2.50,15.99 2.47,15.89 2.43,15.79 2.43,15.68 2.42,15.58 2.46,15.47 2.49,15.37 2.55,15.29 2.61,15.20 2.61,15.20 2.61,15.20 3.58,13.49 4.55,11.77 4.70,11.19 4.84,10.60 4.77,9.82 4.71,9.05 4.54,8.45 4.37,7.85 3.68,7.01 2.98,6.16 2.34,5.22 1.70,4.28 1.03,3.39 0.35,2.50 -0.10,1.41 -0.56,0.33 -0.59,0.26 -0.62,0.19 -0.64,0.11 -0.65,0.03 -0.65,-0.04 -0.64,-0.12 -0.62,-0.19 -0.59,-0.27 -0.55,-0.33 -0.51,-0.40 -0.45,-0.46 -0.40,-0.51 -0.33,-0.55 -0.26,-0.59 -0.19,-0.62 -0.11,-0.64 -0.03,-0.65 0.04,-0.65 0.11,-0.64 0.19,-0.62 0.26,-0.59 0.34,-0.56 0.40,-0.51 0.46,-0.46 0.51,-0.40 0.56,-0.33 0.56,-0.33 L 0.56,-0.33 Z"/></g><g transform="translate(497.4999694824219 126.98935894720961) rotate(0 0 7.9861297607421875)" stroke="none"><path fill="#1e1e1e" d="M 0.65,0 Q 0.65,0 0.88,1.59 1.11,3.19 1.12,5.27 1.13,7.34 1.14,9.02 1.14,10.70 0.90,13.38 0.65,16.06 0.63,16.16 0.62,16.27 0.57,16.36 0.52,16.46 0.44,16.53 0.36,16.60 0.27,16.65 0.17,16.69 0.07,16.70 -0.03,16.72 -0.13,16.69 -0.24,16.67 -0.33,16.62 -0.42,16.56 -0.49,16.48 -0.56,16.40 -0.60,16.30 -0.64,16.20 -0.64,16.10 -0.65,15.99 -0.62,15.89 -0.59,15.78 -0.53,15.70 -0.47,15.61 -0.39,15.54 -0.30,15.48 -0.20,15.45 -0.10,15.41 0.00,15.41 0.10,15.41 0.20,15.45 0.30,15.48 0.39,15.54 0.47,15.61 0.53,15.70 0.59,15.78 0.62,15.89 0.65,15.99 0.64,16.10 0.64,16.20 0.60,16.30 0.56,16.40 0.49,16.48 0.42,16.56 0.33,16.62 0.24,16.67 0.13,16.69 0.03,16.72 -0.07,16.70 -0.17,16.69 -0.27,16.65 -0.36,16.60 -0.44,16.53 -0.52,16.46 -0.57,16.36 -0.62,16.27 -0.63,16.16 -0.65,16.06 -0.65,16.06 -0.65,16.06 -0.90,13.38 -1.14,10.70 -1.14,9.02 -1.13,7.34 -1.12,5.27 -1.11,3.19 -0.88,1.59 -0.65,0 -0.64,-0.07 -0.63,-0.15 -0.60,-0.23 -0.58,-0.30 -0.53,-0.37 -0.49,-0.43 -0.43,-0.48 -0.37,-0.54 -0.30,-0.57 -0.23,-0.61 -0.15,-0.63 -0.07,-0.65 0.00,-0.65 0.07,-0.65 0.15,-0.63 0.23,-0.61 0.30,-0.57 0.37,-0.54 0.43,-0.48 0.49,-0.43 0.53,-0.37 0.58,-0.30 0.60,-0.23 0.63,-0.15 0.64,-0.07 0.65,0.00 0.65,0.00 L 0.65,0 Z"/></g><g transform="translate(494.0277404785156 126.29493145697523) rotate(0 4.861114501953125 1.388885498046875)" stroke="none"><path fill="#1e1e1e" d="M -0.62,-0.20 Q -0.62,-0.20 -0.55,-0.87 -0.47,-1.54 0.13,-2.20 0.74,-2.86 1.75,-3.16 2.76,-3.47 4.06,-3.37 5.36,-3.27 6.53,-3.02 7.69,-2.76 8.58,-2.12 9.48,-1.49 9.93,-0.24 10.39,1.00 10.33,2.04 10.27,3.09 9.74,4.09 9.22,5.08 6.88,5.62 4.54,6.17 4.43,6.16 4.33,6.16 4.23,6.12 4.13,6.08 4.05,6.01 3.96,5.95 3.91,5.86 3.85,5.77 3.83,5.66 3.80,5.56 3.81,5.45 3.83,5.35 3.87,5.25 3.91,5.15 3.98,5.07 4.06,5.00 4.15,4.95 4.24,4.89 4.35,4.88 4.45,4.86 4.56,4.87 4.66,4.89 4.76,4.94 4.85,4.99 4.92,5.06 5.00,5.14 5.04,5.23 5.09,5.33 5.10,5.44 5.12,5.54 5.09,5.65 5.07,5.75 5.02,5.84 4.97,5.93 4.89,6.00 4.81,6.07 4.71,6.11 4.61,6.15 4.50,6.16 4.40,6.17 4.29,6.14 4.19,6.11 4.10,6.06 4.01,6.00 3.95,5.91 3.88,5.83 3.85,5.73 3.81,5.63 3.81,5.52 3.81,5.42 3.84,5.31 3.88,5.21 3.94,5.13 4.00,5.04 4.09,4.98 4.18,4.92 4.28,4.89 4.38,4.86 4.38,4.86 4.38,4.86 5.86,4.33 7.33,3.79 7.67,3.29 8.01,2.78 8.11,2.17 8.22,1.55 8.11,0.77 8.00,-0.00 7.58,-0.37 7.15,-0.75 6.15,-0.99 5.15,-1.23 4.17,-1.37 3.19,-1.51 2.23,-1.17 1.27,-0.84 0.94,-0.32 0.62,0.20 0.58,0.27 0.55,0.35 0.50,0.41 0.45,0.47 0.39,0.52 0.32,0.56 0.25,0.59 0.18,0.63 0.10,0.64 0.02,0.65 -0.05,0.64 -0.13,0.64 -0.20,0.61 -0.28,0.59 -0.34,0.55 -0.41,0.50 -0.46,0.45 -0.52,0.39 -0.56,0.32 -0.60,0.25 -0.62,0.18 -0.64,0.10 -0.65,0.02 -0.65,-0.05 -0.63,-0.13 -0.62,-0.20 -0.62,-0.20 L -0.62,-0.20 Z"/></g><g transform="translate(509.3055114746094 124.90604595892836) rotate(0 10.763916015625 9.722213745117188)" stroke="none"><path fill="#1e1e1e" d="M 0,-0.65 Q 0,-0.65 0.79,-0.86 1.59,-1.06 2.33,-1.07 3.07,-1.08 3.73,-1.07 4.40,-1.06 4.77,-1.28 5.14,-1.50 5.26,-1.57 5.38,-1.63 5.52,-1.66 5.65,-1.68 5.78,-1.68 5.92,-1.68 6.05,-1.64 6.18,-1.61 6.30,-1.54 6.42,-1.48 6.52,-1.38 6.62,-1.29 6.69,-1.18 6.77,-1.07 6.81,-0.94 6.86,-0.81 6.87,-0.67 6.89,-0.54 6.87,-0.41 6.85,-0.27 6.80,-0.14 6.75,-0.02 6.67,0.08 6.59,0.19 6.48,0.28 6.38,0.37 5.91,1.04 5.45,1.71 4.83,2.62 4.21,3.52 4.82,3.90 5.44,4.28 6.02,3.95 6.61,3.62 7.35,3.27 8.09,2.92 8.79,2.59 9.49,2.25 10.07,1.92 10.64,1.59 11.34,2.31 12.04,3.02 11.88,3.92 11.73,4.83 11.70,5.41 11.67,5.99 12.30,5.61 12.93,5.22 13.27,4.75 13.61,4.28 13.80,3.68 13.99,3.08 13.31,2.69 12.62,2.30 11.82,2.16 11.02,2.01 10.57,2.19 10.12,2.36 9.98,2.32 9.83,2.28 9.70,2.21 9.57,2.13 9.46,2.03 9.35,1.93 9.27,1.80 9.19,1.68 9.14,1.54 9.09,1.40 9.08,1.25 9.07,1.10 9.09,0.95 9.11,0.80 9.17,0.66 9.22,0.52 9.31,0.40 9.40,0.28 9.52,0.19 9.63,0.09 9.77,0.03 9.90,-0.03 10.05,-0.06 10.19,-0.09 10.34,-0.09 10.49,-0.08 11.16,0.01 11.84,0.10 12.78,0.12 13.72,0.14 14.80,-0.28 15.88,-0.72 16.45,-0.86 17.02,-1.01 17.75,-0.59 18.48,-0.17 18.56,1.22 18.64,2.62 18.62,4.26 18.59,5.89 18.78,7.73 18.97,9.56 19.05,11.00 19.13,12.43 19.16,13.64 19.20,14.86 19.21,15.78 19.22,16.70 19.00,17.66 18.77,18.63 18.17,19.39 17.57,20.15 17.00,20.65 16.44,21.15 15.54,21.25 14.65,21.35 13.79,20.76 12.93,20.16 12.82,19.40 12.71,18.65 13.20,17.77 13.70,16.89 14.76,15.93 15.83,14.96 16.88,14.18 17.94,13.39 19.66,11.86 21.39,10.34 21.47,10.27 21.56,10.21 21.66,10.17 21.76,10.14 21.87,10.14 21.97,10.13 22.07,10.17 22.17,10.20 22.26,10.26 22.34,10.33 22.40,10.42 22.46,10.50 22.49,10.61 22.52,10.71 22.52,10.81 22.51,10.92 22.47,11.02 22.44,11.12 22.37,11.20 22.30,11.28 22.21,11.34 22.12,11.39 22.01,11.42 21.91,11.44 21.81,11.43 21.70,11.42 21.60,11.37 21.51,11.33 21.43,11.26 21.35,11.19 21.30,11.09 21.25,11.00 21.23,10.89 21.21,10.79 21.23,10.68 21.25,10.58 21.30,10.48 21.34,10.39 21.42,10.32 21.50,10.24 21.59,10.20 21.69,10.15 21.80,10.14 21.90,10.13 22.00,10.15 22.11,10.17 22.20,10.23 22.29,10.28 22.36,10.36 22.43,10.44 22.47,10.54 22.51,10.64 22.52,10.74 22.52,10.85 22.50,10.95 22.47,11.05 22.41,11.14 22.35,11.23 22.35,11.23 22.35,11.23 20.85,13.24 19.34,15.24 18.37,15.99 17.40,16.73 16.53,17.48 15.65,18.22 15.48,18.73 15.30,19.25 15.91,18.59 16.51,17.93 16.67,17.32 16.83,16.72 16.82,15.82 16.80,14.93 16.77,13.75 16.73,12.57 16.65,11.19 16.57,9.80 16.37,7.83 16.18,5.87 16.19,4.19 16.21,2.51 16.26,1.36 16.30,0.21 16.60,-0.71 16.90,-1.65 17.45,-1.93 18.00,-2.21 18.72,-1.80 19.43,-1.38 19.14,-0.35 18.85,0.67 17.84,1.11 16.84,1.55 16.11,1.86 15.38,2.16 14.56,2.39 13.74,2.61 12.71,2.59 11.68,2.57 10.90,2.47 10.12,2.36 9.98,2.32 9.83,2.28 9.70,2.21 9.57,2.13 9.46,2.03 9.35,1.93 9.27,1.80 9.19,1.68 9.14,1.54 9.09,1.40 9.08,1.25 9.07,1.10 9.09,0.95 9.11,0.80 9.17,0.66 9.22,0.53 9.31,0.40 9.40,0.28 9.52,0.19 9.63,0.09 9.77,0.03 9.90,-0.03 10.05,-0.06 10.19,-0.09 10.34,-0.09 10.49,-0.08 10.84,-0.25 11.19,-0.41 11.78,-0.34 12.36,-0.26 13.19,-0.01 14.01,0.23 14.70,0.74 15.39,1.25 15.85,2.04 16.30,2.82 16.21,3.72 16.13,4.62 15.85,5.20 15.57,5.79 14.98,6.50 14.40,7.21 13.56,7.75 12.73,8.30 11.86,8.35 10.99,8.41 10.37,7.94 9.75,7.47 9.49,6.73 9.23,5.98 9.25,5.27 9.28,4.57 9.53,3.47 9.79,2.37 10.18,3.35 10.58,4.33 9.84,4.70 9.09,5.06 8.31,5.42 7.53,5.78 6.42,6.18 5.30,6.58 4.52,6.47 3.74,6.35 3.06,5.93 2.39,5.50 2.12,4.65 1.85,3.81 2.40,2.59 2.95,1.38 3.63,0.46 4.30,-0.44 4.72,-0.97 5.14,-1.50 5.26,-1.57 5.38,-1.63 5.52,-1.66 5.65,-1.68 5.78,-1.68 5.92,-1.68 6.05,-1.64 6.18,-1.61 6.30,-1.54 6.42,-1.48 6.52,-1.38 6.62,-1.29 6.69,-1.18 6.77,-1.07 6.81,-0.94 6.86,-0.81 6.87,-0.67 6.89,-0.54 6.87,-0.41 6.85,-0.27 6.80,-0.14 6.75,-0.02 6.67,0.08 6.59,0.19 6.48,0.28 6.38,0.37 6.04,0.45 5.69,0.53 5.14,0.80 4.60,1.06 3.83,1.07 3.07,1.08 2.33,1.07 1.59,1.06 0.79,0.86 0,0.65 -0.07,0.64 -0.15,0.63 -0.23,0.60 -0.30,0.58 -0.37,0.53 -0.43,0.49 -0.48,0.43 -0.54,0.37 -0.57,0.30 -0.61,0.23 -0.63,0.15 -0.65,0.07 -0.65,-0.00 -0.65,-0.07 -0.63,-0.15 -0.61,-0.23 -0.57,-0.30 -0.54,-0.37 -0.48,-0.43 -0.43,-0.49 -0.37,-0.53 -0.30,-0.58 -0.23,-0.60 -0.15,-0.63 -0.07,-0.64 0.00,-0.65 0.00,-0.65 L 0,-0.65 Z"/></g><g transform="translate(527.3611145019531 115.18381695502211) rotate(0 0.00005000000000165983 0.00005000000000165983)" stroke="none"><path fill="#1e1e1e" d="M 1.06,-1.06 Q 1.06,-1.06 1.20,-0.86 1.34,-0.66 1.41,-0.43 1.48,-0.20 1.48,0.04 1.47,0.28 1.39,0.51 1.30,0.73 1.15,0.92 1.00,1.11 0.79,1.24 0.59,1.38 0.35,1.43 0.12,1.49 -0.12,1.47 -0.36,1.45 -0.58,1.36 -0.80,1.26 -0.99,1.10 -1.17,0.94 -1.29,0.72 -1.41,0.51 -1.45,0.27 -1.50,0.04 -1.46,-0.20 -1.43,-0.44 -1.32,-0.65 -1.22,-0.87 -1.04,-1.04 -0.87,-1.22 -0.65,-1.32 -0.44,-1.43 -0.19,-1.46 0.04,-1.50 0.27,-1.45 0.51,-1.41 0.73,-1.29 0.94,-1.17 1.10,-0.98 1.26,-0.80 1.36,-0.58 1.45,-0.36 1.47,-0.11 1.49,0.12 1.43,0.35 1.38,0.59 1.24,0.79 1.11,1.00 0.92,1.15 0.73,1.30 0.51,1.39 0.28,1.47 0.03,1.48 -0.20,1.48 -0.43,1.41 -0.66,1.34 -0.86,1.20 -1.06,1.06 -1.06,1.06 -1.06,1.06 -1.17,0.91 -1.28,0.77 -1.36,0.61 -1.43,0.44 -1.46,0.26 -1.49,0.09 -1.48,-0.09 -1.47,-0.27 -1.42,-0.44 -1.37,-0.61 -1.27,-0.77 -1.18,-0.92 -1.05,-1.05 -0.92,-1.18 -0.77,-1.27 -0.61,-1.37 -0.44,-1.42 -0.27,-1.47 -0.09,-1.48 0.09,-1.49 0.26,-1.46 0.44,-1.43 0.61,-1.36 0.77,-1.28 0.91,-1.17 1.06,-1.06 1.06,-1.06 L 1.06,-1.06 Z"/></g><g transform="translate(547.4999694824219 131.15604595892836) rotate(0 20.83331298828125 -3.47222900390625)" stroke="none"><path fill="#1e1e1e" d="M -0.64,-0.12 Q -0.64,-0.12 -0.57,-1.17 -0.49,-2.22 0.04,-3.03 0.59,-3.84 1.01,-4.34 1.44,-4.84 2.17,-5.15 2.89,-5.46 3.72,-5.15 4.54,-4.84 5.05,-4.47 5.56,-4.10 6.07,-3.45 6.59,-2.80 6.85,-2.01 7.10,-1.21 7.19,-0.64 7.28,-0.07 7.13,0.27 6.97,0.62 6.98,0.76 6.98,0.91 6.95,1.05 6.92,1.19 6.86,1.31 6.79,1.44 6.70,1.55 6.61,1.66 6.50,1.74 6.38,1.83 6.25,1.88 6.12,1.94 5.98,1.96 5.83,1.98 5.69,1.97 5.55,1.95 5.41,1.91 5.28,1.86 5.16,1.78 5.04,1.70 4.94,1.60 4.85,1.49 4.78,1.37 4.71,1.25 4.67,1.11 4.63,0.97 5.13,0.33 5.63,-0.30 6.25,-1.22 6.87,-2.15 7.27,-2.57 7.67,-2.99 8.19,-3.27 8.71,-3.56 9.46,-3.58 10.21,-3.60 10.82,-2.82 11.43,-2.04 11.68,-1.51 11.93,-0.98 11.93,-0.85 11.92,-0.71 11.89,-0.58 11.85,-0.44 11.78,-0.32 11.71,-0.20 11.62,-0.11 11.52,-0.01 11.40,0.06 11.29,0.13 11.16,0.18 11.03,0.22 10.89,0.23 10.75,0.24 10.62,0.22 10.48,0.20 10.35,0.15 10.23,0.10 10.12,0.01 10.01,-0.06 9.92,-0.17 9.83,-0.27 9.77,-0.40 9.71,-0.52 9.68,-0.66 9.66,-0.79 9.84,-1.30 10.03,-1.80 10.81,-2.41 11.59,-3.01 12.22,-3.56 12.85,-4.11 13.35,-4.56 13.85,-5.01 14.74,-5.30 15.64,-5.59 16.26,-5.39 16.88,-5.19 17.19,-4.73 17.51,-4.27 17.75,-3.72 17.98,-3.18 18.28,-2.54 18.58,-1.90 19.25,-2.46 19.92,-3.03 20.54,-3.58 21.16,-4.14 21.56,-4.71 21.96,-5.28 22.39,-5.78 22.82,-6.29 23.12,-6.75 23.43,-7.21 23.21,-6.67 22.99,-6.14 22.72,-5.49 22.44,-4.84 22.33,-4.05 22.22,-3.26 22.16,-2.53 22.10,-1.80 22.40,-1.24 22.69,-0.68 23.78,-1.32 24.86,-1.96 25.54,-2.31 26.22,-2.65 27.45,-3.19 28.68,-3.73 29.24,-3.79 29.81,-3.86 30.52,-3.60 31.24,-3.35 31.65,-2.66 32.06,-1.98 31.89,-1.27 31.72,-0.56 31.14,-0.19 30.55,0.18 29.67,0.03 28.80,-0.12 28.34,-0.56 27.89,-0.99 27.70,-1.50 27.52,-2.00 27.76,-3.13 27.99,-4.26 28.95,-4.52 29.90,-4.77 30.41,-4.39 30.92,-4.02 31.17,-3.51 31.41,-3.00 31.66,-2.50 31.91,-1.99 32.32,-1.65 32.72,-1.30 33.61,-1.23 34.49,-1.16 35.09,-1.86 35.68,-2.56 36.55,-3.48 37.41,-4.40 37.69,-4.87 37.97,-5.34 38.10,-6.18 38.24,-7.01 38.80,-7.06 39.36,-7.10 39.84,-6.33 40.31,-5.56 40.93,-4.58 41.54,-3.61 42.11,-2.70 42.67,-1.79 40.96,0.10 39.24,1.99 39.14,1.99 39.03,1.99 38.93,1.96 38.83,1.92 38.74,1.86 38.66,1.79 38.60,1.71 38.54,1.62 38.51,1.51 38.48,1.41 38.49,1.31 38.50,1.20 38.54,1.10 38.58,1.00 38.64,0.92 38.71,0.84 38.80,0.79 38.90,0.73 39.00,0.71 39.10,0.69 39.21,0.70 39.31,0.71 39.41,0.76 39.51,0.80 39.58,0.87 39.66,0.95 39.71,1.04 39.76,1.14 39.78,1.24 39.79,1.35 39.78,1.45 39.76,1.55 39.71,1.65 39.66,1.74 39.58,1.81 39.50,1.89 39.41,1.93 39.31,1.98 39.21,1.99 39.10,2.00 39.00,1.98 38.89,1.95 38.80,1.90 38.71,1.84 38.64,1.76 38.57,1.68 38.53,1.58 38.50,1.48 38.49,1.38 38.48,1.27 38.51,1.17 38.54,1.07 38.60,0.98 38.66,0.89 38.75,0.83 38.83,0.76 38.93,0.73 39.03,0.69 39.03,0.69 39.03,0.69 39.67,0.13 40.31,-0.42 40.31,-0.99 40.31,-1.56 39.86,-1.92 39.40,-2.28 39.09,-2.83 38.77,-3.38 38.40,-3.91 38.03,-4.44 37.75,-5.02 37.46,-5.60 37.24,-6.28 37.01,-6.96 37.48,-7.97 37.94,-8.97 39.08,-8.66 40.22,-8.34 40.47,-7.60 40.73,-6.86 40.66,-6.28 40.59,-5.69 40.36,-4.87 40.13,-4.05 39.68,-3.36 39.24,-2.68 38.41,-1.81 37.59,-0.95 36.82,-0.12 36.05,0.70 34.92,1.00 33.79,1.30 32.68,1.03 31.57,0.76 31.07,0.42 30.56,0.08 30.19,-0.46 29.82,-1.00 29.75,-1.81 29.69,-2.63 29.81,-2.07 29.94,-1.50 29.18,-1.38 28.41,-1.26 27.86,-0.88 27.31,-0.49 26.63,-0.15 25.95,0.18 25.30,0.51 24.64,0.85 23.69,1.19 22.75,1.53 21.84,1.17 20.94,0.80 20.54,0.18 20.14,-0.42 19.95,-1.18 19.75,-1.93 19.83,-2.79 19.90,-3.66 20.11,-4.74 20.32,-5.82 20.79,-6.75 21.26,-7.68 21.92,-8.28 22.57,-8.88 23.41,-8.95 24.25,-9.02 24.84,-8.49 25.42,-7.97 25.44,-7.12 25.47,-6.28 25.03,-5.54 24.59,-4.79 24.21,-4.35 23.82,-3.90 23.26,-3.16 22.70,-2.43 21.99,-1.80 21.28,-1.17 20.48,-0.62 19.67,-0.08 18.83,0.02 17.99,0.14 17.40,-0.18 16.82,-0.50 16.45,-1.23 16.08,-1.96 15.67,-2.66 15.27,-3.36 14.80,-2.91 14.33,-2.45 13.13,-1.72 11.93,-0.98 11.93,-0.85 11.92,-0.71 11.89,-0.58 11.85,-0.44 11.78,-0.32 11.71,-0.21 11.62,-0.11 11.52,-0.01 11.41,0.06 11.29,0.13 11.16,0.18 11.03,0.22 10.89,0.23 10.75,0.24 10.62,0.22 10.48,0.20 10.35,0.15 10.23,0.10 10.12,0.01 10.01,-0.06 9.92,-0.17 9.83,-0.27 9.77,-0.40 9.71,-0.52 9.68,-0.66 9.66,-0.79 9.66,-1.14 9.67,-1.49 9.15,-1.07 8.63,-0.65 8.27,-0.22 7.90,0.21 7.19,0.99 6.49,1.78 6.73,1.20 6.97,0.62 6.98,0.76 6.98,0.91 6.95,1.05 6.92,1.19 6.86,1.31 6.79,1.44 6.70,1.55 6.61,1.66 6.50,1.74 6.38,1.83 6.25,1.88 6.12,1.94 5.98,1.96 5.83,1.98 5.69,1.97 5.55,1.95 5.41,1.91 5.28,1.86 5.16,1.78 5.04,1.70 4.94,1.60 4.85,1.49 4.78,1.37 4.71,1.25 4.67,1.11 4.63,0.97 4.77,0.16 4.90,-0.64 4.57,-1.53 4.25,-2.43 3.58,-2.96 2.91,-3.50 2.52,-3.07 2.14,-2.64 1.71,-2.20 1.29,-1.77 0.97,-0.82 0.64,0.12 0.61,0.20 0.59,0.27 0.55,0.34 0.51,0.41 0.45,0.46 0.39,0.52 0.32,0.56 0.25,0.60 0.18,0.62 0.10,0.64 0.02,0.65 -0.05,0.65 -0.12,0.63 -0.20,0.62 -0.27,0.59 -0.34,0.55 -0.41,0.50 -0.47,0.45 -0.51,0.39 -0.56,0.33 -0.59,0.25 -0.63,0.18 -0.64,0.10 -0.65,0.02 -0.64,-0.04 -0.64,-0.12 -0.64,-0.12 L -0.64,-0.12 Z"/></g><g transform="translate(594.0278015136719 133.2393589472096) rotate(0 -0.6944580078125 -0.3472137451171875)" stroke="none"><path fill="#1e1e1e" d="M -0.65,-0.56 Q -0.65,-0.56 -0.63,-0.67 -0.62,-0.77 -0.57,-0.87 -0.52,-0.96 -0.44,-1.03 -0.36,-1.11 -0.27,-1.15 -0.17,-1.20 -0.07,-1.21 0.03,-1.22 0.13,-1.20 0.24,-1.17 0.33,-1.12 0.42,-1.06 0.49,-0.98 0.56,-0.90 0.60,-0.80 0.64,-0.71 0.64,-0.60 0.65,-0.49 0.62,-0.39 0.59,-0.29 0.53,-0.20 0.47,-0.11 0.39,-0.05 0.30,0.01 0.20,0.04 0.10,0.07 -0.00,0.07 -0.10,0.07 -0.20,0.04 -0.30,0.01 -0.39,-0.05 -0.47,-0.11 -0.53,-0.20 -0.59,-0.29 -0.62,-0.39 -0.65,-0.49 -0.64,-0.60 -0.64,-0.71 -0.60,-0.80 -0.56,-0.90 -0.49,-0.98 -0.42,-1.06 -0.33,-1.12 -0.24,-1.17 -0.13,-1.20 -0.03,-1.22 0.07,-1.21 0.17,-1.20 0.27,-1.15 0.36,-1.11 0.44,-1.03 0.52,-0.96 0.57,-0.87 0.62,-0.77 0.63,-0.67 0.65,-0.56 0.65,-0.56 0.65,-0.56 0.71,-0.48 0.77,-0.39 0.80,-0.29 0.84,-0.19 0.85,-0.09 0.86,0.00 0.85,0.11 0.84,0.21 0.80,0.31 0.76,0.41 0.70,0.49 0.64,0.58 0.56,0.65 0.48,0.72 0.39,0.76 0.29,0.81 0.19,0.83 0.09,0.86 -0.00,0.86 -0.11,0.86 -0.21,0.83 -0.31,0.80 -0.40,0.75 -0.50,0.70 -0.57,0.63 -0.65,0.56 -0.65,-0.00 L -0.65,-0.56 Z"/></g><g transform="translate(526.6666564941406 165.1838169550221) rotate(0 0.694427490234375 3.4722137451171875)" stroke="none"><path fill="#1e1e1e" d="M 0.64,-0.12 Q 0.64,-0.12 1.07,0.82 1.50,1.77 1.75,2.52 2.01,3.28 2.01,4.91 2.01,6.55 2.00,6.66 1.99,6.76 1.95,6.86 1.91,6.96 1.84,7.04 1.77,7.12 1.68,7.17 1.59,7.23 1.48,7.25 1.38,7.27 1.28,7.26 1.17,7.24 1.07,7.20 0.98,7.15 0.90,7.08 0.83,7.01 0.78,6.91 0.73,6.82 0.71,6.71 0.69,6.61 0.71,6.50 0.73,6.40 0.78,6.30 0.83,6.21 0.91,6.14 0.99,6.07 1.09,6.02 1.18,5.98 1.29,5.97 1.39,5.96 1.50,5.98 1.60,6.01 1.69,6.06 1.78,6.12 1.85,6.20 1.92,6.28 1.96,6.38 1.99,6.48 2.00,6.59 2.00,6.69 1.97,6.79 1.94,6.90 1.88,6.98 1.82,7.07 1.74,7.13 1.65,7.20 1.55,7.23 1.45,7.26 1.35,7.26 1.24,7.26 1.14,7.23 1.04,7.19 0.95,7.13 0.87,7.06 0.81,6.97 0.75,6.88 0.73,6.78 0.70,6.68 0.70,6.68 0.70,6.68 0.31,5.34 -0.07,4.00 -0.39,3.11 -0.70,2.21 -0.67,1.17 -0.64,0.12 -0.64,0.04 -0.65,-0.02 -0.64,-0.10 -0.62,-0.18 -0.59,-0.25 -0.56,-0.33 -0.51,-0.39 -0.47,-0.45 -0.41,-0.50 -0.34,-0.55 -0.27,-0.59 -0.20,-0.62 -0.12,-0.63 -0.05,-0.65 0.02,-0.65 0.10,-0.64 0.18,-0.62 0.25,-0.60 0.32,-0.56 0.39,-0.52 0.45,-0.46 0.51,-0.41 0.55,-0.34 0.59,-0.27 0.61,-0.20 0.64,-0.12 0.64,-0.12 L 0.64,-0.12 Z"/></g><g transform="translate(537.0833435058594 163.79493145697523) rotate(0 2.77777099609375 4.5138702392578125)" stroke="none"><path fill="#1e1e1e" d="M 0.52,0.39 Q 0.52,0.39 0.14,1.33 -0.24,2.27 -0.39,3.02 -0.55,3.78 -0.63,4.87 -0.72,5.96 -0.57,6.72 -0.42,7.47 0.73,7.44 1.89,7.40 2.71,6.99 3.53,6.57 4.16,5.72 4.78,4.87 5.28,4.13 5.78,3.40 5.23,2.85 4.68,2.31 2.63,2.44 0.58,2.57 0.47,2.59 0.37,2.61 0.26,2.59 0.16,2.57 0.06,2.53 -0.02,2.48 -0.09,2.40 -0.17,2.33 -0.21,2.23 -0.26,2.14 -0.27,2.03 -0.29,1.92 -0.27,1.82 -0.25,1.72 -0.19,1.62 -0.14,1.53 -0.06,1.46 0.01,1.39 0.11,1.35 0.21,1.31 0.31,1.30 0.42,1.29 0.52,1.32 0.62,1.35 0.71,1.41 0.80,1.46 0.87,1.55 0.93,1.63 0.97,1.73 1.00,1.83 1.01,1.94 1.01,2.04 0.98,2.14 0.94,2.25 0.88,2.33 0.82,2.42 0.73,2.48 0.64,2.54 0.54,2.57 0.44,2.60 0.33,2.60 0.23,2.59 0.13,2.55 0.03,2.52 -0.04,2.45 -0.12,2.38 -0.18,2.29 -0.24,2.20 -0.26,2.10 -0.29,2.00 -0.28,1.89 -0.27,1.78 -0.22,1.69 -0.18,1.59 -0.11,1.51 -0.04,1.43 0.05,1.38 0.14,1.33 0.14,1.33 0.14,1.33 1.93,0.77 3.73,0.20 4.69,0.20 5.65,0.20 6.59,0.81 7.54,1.42 7.82,2.16 8.11,2.91 7.99,3.75 7.88,4.59 7.28,5.50 6.68,6.41 5.67,7.56 4.67,8.71 3.52,9.25 2.38,9.78 1.32,9.97 0.26,10.16 -0.69,9.94 -1.65,9.72 -2.23,8.81 -2.80,7.89 -2.96,6.83 -3.12,5.77 -2.99,4.46 -2.85,3.16 -2.50,2.04 -2.15,0.91 -1.33,0.26 -0.52,-0.39 -0.47,-0.45 -0.41,-0.50 -0.34,-0.55 -0.28,-0.59 -0.20,-0.61 -0.13,-0.64 -0.05,-0.64 0.02,-0.65 0.10,-0.64 0.18,-0.63 0.25,-0.59 0.32,-0.56 0.39,-0.52 0.45,-0.47 0.50,-0.41 0.55,-0.35 0.58,-0.27 0.62,-0.20 0.63,-0.13 0.65,-0.05 0.65,0.02 0.64,0.10 0.62,0.18 0.60,0.25 0.56,0.32 0.52,0.39 0.52,0.39 L 0.52,0.39 Z"/></g><g transform="translate(546.1110534667969 163.10047344916273) rotate(0 2.77777099609375 4.513885498046875)" stroke="none"><path fill="#1e1e1e" d="M 0.54,-0.36 Q 0.54,-0.36 1.08,0.12 1.63,0.62 2.10,0.95 2.58,1.29 3.17,1.64 3.77,1.98 4.30,2.36 4.83,2.73 5.62,3.50 6.41,4.27 6.30,4.97 6.20,5.67 5.58,6.25 4.95,6.82 3.52,7.98 2.09,9.13 2.02,9.21 1.95,9.29 1.86,9.34 1.77,9.40 1.66,9.42 1.56,9.44 1.45,9.43 1.35,9.41 1.25,9.37 1.16,9.32 1.08,9.24 1.00,9.17 0.96,9.07 0.91,8.98 0.89,8.87 0.88,8.77 0.90,8.66 0.92,8.56 0.97,8.47 1.02,8.37 1.10,8.30 1.18,8.23 1.27,8.19 1.37,8.15 1.48,8.14 1.58,8.13 1.69,8.15 1.79,8.18 1.88,8.23 1.97,8.29 2.04,8.37 2.10,8.46 2.14,8.56 2.18,8.65 2.18,8.76 2.19,8.87 2.16,8.97 2.13,9.07 2.06,9.16 2.00,9.24 1.92,9.31 1.83,9.37 1.73,9.40 1.63,9.43 1.52,9.43 1.42,9.43 1.32,9.39 1.22,9.36 1.13,9.29 1.05,9.22 0.99,9.14 0.93,9.05 0.91,8.94 0.88,8.84 0.89,8.73 0.90,8.63 0.94,8.53 0.98,8.43 0.98,8.43 0.98,8.43 2.23,6.47 3.49,4.51 3.07,4.15 2.66,3.79 1.97,3.35 1.28,2.91 0.62,2.34 -0.03,1.77 -0.29,1.06 -0.54,0.36 -0.58,0.29 -0.61,0.22 -0.63,0.14 -0.65,0.06 -0.65,-0.01 -0.65,-0.08 -0.63,-0.16 -0.61,-0.24 -0.57,-0.31 -0.53,-0.38 -0.48,-0.44 -0.42,-0.49 -0.36,-0.54 -0.29,-0.58 -0.22,-0.61 -0.14,-0.64 -0.06,-0.64 0.01,-0.65 0.08,-0.64 0.16,-0.63 0.24,-0.60 0.31,-0.57 0.37,-0.53 0.44,-0.48 0.49,-0.42 0.54,-0.36 0.54,-0.36 L 0.54,-0.36 Z"/></g><g transform="translate(556.5278015136719 172.12824444525648) rotate(0 -0.34722900390625 1.736114501953125)" stroke="none"><path fill="#1e1e1e" d="M 0.63,0.15 Q 0.63,0.15 0.32,1.69 0.00,3.23 -0.02,3.33 -0.05,3.43 -0.12,3.52 -0.18,3.60 -0.27,3.66 -0.36,3.72 -0.46,3.75 -0.56,3.78 -0.67,3.78 -0.77,3.77 -0.87,3.73 -0.97,3.69 -1.05,3.63 -1.13,3.56 -1.19,3.47 -1.24,3.38 -1.27,3.27 -1.29,3.17 -1.28,3.06 -1.27,2.96 -1.23,2.86 -1.18,2.76 -1.11,2.69 -1.04,2.61 -0.94,2.56 -0.85,2.51 -0.74,2.49 -0.64,2.47 -0.54,2.49 -0.43,2.50 -0.34,2.55 -0.24,2.60 -0.17,2.68 -0.09,2.76 -0.05,2.85 -0.00,2.95 0.00,3.05 0.01,3.16 -0.00,3.26 -0.02,3.37 -0.08,3.46 -0.13,3.55 -0.21,3.62 -0.29,3.69 -0.39,3.73 -0.49,3.77 -0.60,3.78 -0.70,3.78 -0.81,3.75 -0.91,3.73 -1.00,3.67 -1.08,3.61 -1.15,3.52 -1.21,3.44 -1.25,3.34 -1.28,3.24 -1.28,3.13 -1.28,3.03 -1.28,3.03 -1.28,3.03 -0.96,1.43 -0.63,-0.15 -0.60,-0.23 -0.58,-0.30 -0.53,-0.37 -0.49,-0.43 -0.43,-0.48 -0.37,-0.54 -0.30,-0.57 -0.23,-0.61 -0.15,-0.63 -0.07,-0.65 0.00,-0.65 0.08,-0.65 0.15,-0.63 0.23,-0.61 0.30,-0.57 0.37,-0.53 0.43,-0.48 0.49,-0.43 0.53,-0.36 0.58,-0.30 0.61,-0.22 0.63,-0.15 0.64,-0.07 0.65,0.00 0.64,0.08 0.63,0.15 0.63,0.15 L 0.63,0.15 Z"/></g><g transform="translate(564.8610534667969 161.71158795111586) rotate(0 -0.34722900390625 4.513885498046875)" stroke="none"><path fill="#1e1e1e" d="M 0.65,0 Q 0.65,0 0.87,1.39 1.08,2.79 1.07,3.79 1.06,4.78 0.54,6.71 0.01,8.63 -0.01,8.73 -0.04,8.83 -0.10,8.92 -0.16,9.01 -0.25,9.07 -0.33,9.13 -0.43,9.17 -0.53,9.20 -0.64,9.20 -0.75,9.20 -0.85,9.17 -0.95,9.13 -1.03,9.07 -1.11,9.00 -1.17,8.91 -1.23,8.83 -1.26,8.72 -1.29,8.62 -1.28,8.51 -1.28,8.41 -1.24,8.31 -1.20,8.21 -1.13,8.13 -1.06,8.05 -0.97,8.00 -0.88,7.94 -0.77,7.92 -0.67,7.90 -0.56,7.91 -0.46,7.92 -0.36,7.97 -0.27,8.01 -0.19,8.08 -0.11,8.16 -0.06,8.25 -0.01,8.35 -0.00,8.45 0.01,8.56 -0.00,8.66 -0.01,8.77 -0.07,8.86 -0.12,8.95 -0.19,9.03 -0.27,9.10 -0.37,9.14 -0.46,9.19 -0.57,9.20 -0.67,9.21 -0.78,9.18 -0.88,9.16 -0.97,9.11 -1.06,9.05 -1.13,8.97 -1.20,8.89 -1.24,8.79 -1.28,8.69 -1.28,8.58 -1.29,8.48 -1.29,8.48 -1.29,8.48 -1.18,6.62 -1.06,4.77 -1.07,3.78 -1.08,2.79 -0.87,1.39 -0.65,0 -0.64,-0.07 -0.63,-0.15 -0.60,-0.23 -0.58,-0.30 -0.53,-0.37 -0.49,-0.43 -0.43,-0.48 -0.37,-0.54 -0.30,-0.57 -0.23,-0.61 -0.15,-0.63 -0.07,-0.65 0.00,-0.65 0.07,-0.65 0.15,-0.63 0.23,-0.61 0.30,-0.57 0.37,-0.54 0.43,-0.48 0.49,-0.43 0.53,-0.37 0.58,-0.30 0.60,-0.23 0.63,-0.15 0.64,-0.07 0.65,0.00 0.65,0.00 L 0.65,0 Z"/></g><g transform="translate(569.0278015136719 166.57270245306898) rotate(0 2.77777099609375 -1.388885498046875)" stroke="none"><path fill="#1e1e1e" d="M -0.20,-0.62 Q -0.20,-0.62 0.33,-0.98 0.87,-1.35 1.65,-2.22 2.44,-3.10 2.89,-3.62 3.35,-4.15 3.77,-4.91 4.19,-5.68 4.31,-6.05 4.42,-6.42 4.52,-6.53 4.62,-6.63 4.74,-6.71 4.86,-6.78 5.00,-6.83 5.13,-6.88 5.28,-6.89 5.42,-6.90 5.56,-6.88 5.70,-6.85 5.83,-6.80 5.97,-6.74 6.08,-6.66 6.19,-6.57 6.29,-6.46 6.38,-6.35 6.44,-6.22 6.50,-6.09 6.53,-5.95 6.56,-5.81 6.55,-5.67 6.55,-5.53 6.51,-5.39 6.47,-5.25 6.40,-5.13 6.32,-5.00 6.00,-4.33 5.67,-3.66 5.62,-3.04 5.58,-2.41 5.54,-1.71 5.50,-1.02 5.16,1.07 4.82,3.16 4.80,3.26 4.78,3.37 4.73,3.46 4.68,3.56 4.61,3.63 4.53,3.70 4.43,3.74 4.33,3.79 4.23,3.80 4.12,3.81 4.02,3.79 3.92,3.76 3.83,3.71 3.74,3.65 3.67,3.57 3.60,3.49 3.56,3.39 3.52,3.29 3.52,3.18 3.51,3.08 3.54,2.98 3.57,2.87 3.63,2.79 3.69,2.70 3.78,2.64 3.86,2.57 3.96,2.54 4.06,2.51 4.17,2.51 4.27,2.51 4.38,2.54 4.48,2.58 4.56,2.64 4.64,2.71 4.70,2.79 4.76,2.88 4.79,2.99 4.82,3.09 4.81,3.19 4.80,3.30 4.76,3.40 4.72,3.50 4.65,3.58 4.59,3.66 4.49,3.71 4.40,3.77 4.30,3.79 4.19,3.81 4.09,3.80 3.98,3.79 3.89,3.74 3.79,3.69 3.71,3.62 3.64,3.55 3.59,3.45 3.54,3.36 3.52,3.25 3.51,3.15 3.51,3.15 3.51,3.15 3.24,0.98 2.97,-1.18 3.02,-1.97 3.08,-2.76 3.25,-3.76 3.43,-4.77 3.93,-5.60 4.42,-6.42 4.52,-6.53 4.62,-6.63 4.74,-6.71 4.86,-6.78 5.00,-6.83 5.13,-6.88 5.28,-6.89 5.42,-6.90 5.56,-6.88 5.70,-6.85 5.83,-6.80 5.97,-6.74 6.08,-6.66 6.19,-6.57 6.28,-6.46 6.38,-6.35 6.44,-6.22 6.50,-6.09 6.53,-5.95 6.56,-5.81 6.55,-5.67 6.55,-5.53 6.51,-5.39 6.47,-5.25 6.40,-5.13 6.32,-5.00 5.96,-4.38 5.60,-3.76 5.32,-3.22 5.03,-2.68 4.58,-2.19 4.13,-1.71 3.40,-0.89 2.68,-0.08 2.10,0.23 1.52,0.55 0.86,0.58 0.20,0.62 0.13,0.63 0.05,0.65 -0.02,0.65 -0.10,0.64 -0.18,0.62 -0.25,0.60 -0.32,0.56 -0.39,0.52 -0.45,0.46 -0.50,0.41 -0.55,0.34 -0.59,0.28 -0.61,0.20 -0.64,0.13 -0.64,0.05 -0.65,-0.02 -0.64,-0.10 -0.63,-0.18 -0.59,-0.25 -0.56,-0.32 -0.52,-0.39 -0.47,-0.45 -0.41,-0.50 -0.35,-0.55 -0.27,-0.58 -0.20,-0.62 -0.20,-0.62 L -0.20,-0.62 Z"/></g><g transform="translate(579.4444274902344 157.54493145697523) rotate(0 3.125 6.5972137451171875)" stroke="none"><path fill="#1e1e1e" d="M 0.51,-0.41 Q 0.51,-0.41 1.48,0.44 2.46,1.30 3.19,2.09 3.92,2.87 4.50,3.67 5.07,4.47 5.52,5.22 5.97,5.97 6.38,6.73 6.79,7.49 6.78,8.73 6.77,9.96 5.17,11.62 3.56,13.29 3.48,13.35 3.40,13.42 3.30,13.46 3.20,13.50 3.09,13.50 2.98,13.51 2.88,13.48 2.78,13.45 2.69,13.39 2.61,13.33 2.54,13.24 2.48,13.16 2.45,13.06 2.41,12.95 2.41,12.85 2.42,12.74 2.45,12.64 2.49,12.54 2.55,12.46 2.62,12.37 2.70,12.32 2.79,12.26 2.90,12.23 3.00,12.20 3.10,12.21 3.21,12.22 3.31,12.26 3.41,12.30 3.49,12.37 3.57,12.44 3.62,12.53 3.68,12.62 3.70,12.72 3.72,12.83 3.71,12.93 3.69,13.04 3.65,13.13 3.60,13.23 3.53,13.31 3.45,13.38 3.36,13.43 3.27,13.48 3.16,13.50 3.06,13.51 2.95,13.49 2.85,13.48 2.75,13.42 2.66,13.37 2.59,13.30 2.52,13.22 2.47,13.12 2.43,13.02 2.42,12.92 2.41,12.81 2.43,12.71 2.46,12.61 2.51,12.52 2.57,12.42 2.57,12.42 2.57,12.43 3.51,11.01 4.44,9.59 4.52,9.03 4.59,8.47 4.24,7.83 3.89,7.18 3.51,6.49 3.12,5.80 2.67,5.10 2.22,4.40 1.47,3.54 0.73,2.69 0.10,1.55 -0.51,0.41 -0.55,0.34 -0.59,0.27 -0.62,0.20 -0.64,0.12 -0.65,0.04 -0.65,-0.03 -0.64,-0.11 -0.62,-0.18 -0.59,-0.26 -0.56,-0.33 -0.51,-0.39 -0.46,-0.45 -0.40,-0.50 -0.34,-0.55 -0.27,-0.59 -0.20,-0.62 -0.12,-0.63 -0.04,-0.65 0.03,-0.65 0.11,-0.64 0.18,-0.62 0.26,-0.60 0.33,-0.56 0.39,-0.52 0.45,-0.46 0.51,-0.41 0.51,-0.41 L 0.51,-0.41 Z"/></g></svg>