<svg version="1.1" xmlns="http://www.w3.org/2000/svg" viewBox="0 0 816.7481079101562 260.6773681640625" width="816.7481079101562" height="260.6773681640625" filter="invert(93%) hue-rotate(180deg)" class="excalidraw-svg">
  <!-- svg-source:excalidraw -->
  
  <defs>
    <style class="style-fonts">
      @font-face {
        font-family: "Virgil";
        src: url("https://excalidraw.com/Virgil.woff2");
      }
      @font-face {
        font-family: "Cascadia";
        src: url("https://excalidraw.com/Cascadia.woff2");
      }
      @font-face {
        font-family: "Assistant";
        src: url("https://excalidraw.com/Assistant-Regular.woff2");
      }
    </style>
    
  </defs>
  <rect x="0" y="0" width="816.7481079101562" height="260.6773681640625" fill="#f8f9fa"/><g stroke-linecap="round" transform="translate(193.5433349609375 20.967483520507812) rotate(0 117.55709838867188 114.85494232177734)"><path d="M32 0 C73.27 -1.98, 118.3 -0.82, 203.11 0 M32 0 C83.78 0.63, 136.71 0.26, 203.11 0 M203.11 0 C224.25 0.22, 233.61 11.87, 235.11 32 M203.11 0 C223.93 1.53, 233.18 10.64, 235.11 32 M235.11 32 C235.06 88.91, 235.43 149.14, 235.11 197.71 M235.11 32 C235.14 88.67, 235.52 147.52, 235.11 197.71 M235.11 197.71 C235.88 220.03, 224.14 231.57, 203.11 229.71 M235.11 197.71 C235.87 221.13, 223.56 227.8, 203.11 229.71 M203.11 229.71 C162.02 229.29, 122.8 227.15, 32 229.71 M203.11 229.71 C166.75 229.07, 128.82 228.19, 32 229.71 M32 229.71 C10.37 230.34, 1.72 219.25, 0 197.71 M32 229.71 C9.08 227.88, 1.29 217.81, 0 197.71 M0 197.71 C-1.32 160.82, 1.89 123.3, 0 32 M0 197.71 C-0.62 160.44, 0.93 122.5, 0 32 M0 32 C0.45 10.26, 11.39 1.95, 32 0 M0 32 C0.21 11.61, 12.56 0.13, 32 0" stroke="#1e1e1e" stroke-width="2" fill="none"/></g><g stroke-linecap="round"><g transform="translate(96.74017333984375 53.128875732421875) rotate(0 47.940948486328125 0.296417236328125)"><path d="M0.54 -0.33 C16.54 -0.28, 79.3 -0.56, 95.33 -0.33 M-0.63 -1.55 C15.22 -1.31, 77.93 0.64, 94.09 0.72" stroke="#1e1e1e" stroke-width="2" fill="none"/></g><g transform="translate(96.74017333984375 53.128875732421875) rotate(0 47.940948486328125 0.296417236328125)"><path d="M70.43 8.81 C75.71 5.8, 80.5 6.08, 94.09 0.72 M70.43 8.81 C78.02 5, 86 3.5, 94.09 0.72" stroke="#1e1e1e" stroke-width="2" fill="none"/></g><g transform="translate(96.74017333984375 53.128875732421875) rotate(0 47.940948486328125 0.296417236328125)"><path d="M70.77 -8.29 C75.87 -7.12, 80.57 -2.66, 94.09 0.72 M70.77 -8.29 C78.16 -6.33, 86.02 -2.08, 94.09 0.72" stroke="#1e1e1e" stroke-width="2" fill="none"/></g></g><mask/><g stroke-linecap="round"><g transform="translate(434.55908203125 52.90655517578125) rotate(0 50.846466064453125 0.1482086181640625)"><path d="M0.89 0.97 C17.81 1.35, 83.75 1.56, 100.51 1.31" stroke="#1e1e1e" stroke-width="2.5" fill="none" stroke-dasharray="1.5 8"/></g></g><mask/><g stroke-linecap="round"><g transform="translate(429.527587890625 194.44635009765625) rotate(0 49.216522216796875 1.5932464599609375)"><path d="M-0.2 -0.21 C16.12 0.27, 81.07 1.68, 97.64 2.41" stroke="#1e1e1e" stroke-width="2.5" fill="none" stroke-dasharray="1.5 8"/></g></g><mask/><g transform="translate(10.49609375 37.048187255859375) rotate(0 0.60235595703125 12.153152465820312)" stroke="none"><path fill="#1e1e1e" d="M 0.65,0.06 Q 0.65,0.06 0.79,1.28 0.93,2.50 0.91,3.60 0.89,4.71 0.85,5.89 0.81,7.07 0.82,8.58 0.82,10.09 0.87,11.52 0.91,12.94 0.93,14.18 0.95,15.42 0.96,16.46 0.97,17.50 0.97,18.33 0.96,19.15 1.03,19.77 1.09,20.39 1.41,21.96 1.72,23.52 1.80,23.60 1.87,23.67 1.92,23.76 1.97,23.86 1.99,23.96 2.01,24.07 1.99,24.17 1.97,24.28 1.93,24.37 1.88,24.47 1.80,24.54 1.72,24.61 1.63,24.66 1.53,24.70 1.42,24.71 1.32,24.72 1.21,24.70 1.11,24.68 1.02,24.63 0.93,24.57 0.86,24.49 0.79,24.41 0.75,24.31 0.71,24.21 0.71,24.11 0.70,24.00 0.73,23.90 0.76,23.79 0.82,23.71 0.87,23.62 0.96,23.55 1.04,23.49 1.14,23.46 1.24,23.42 1.35,23.42 1.46,23.42 1.56,23.45 1.66,23.49 1.74,23.55 1.83,23.62 1.89,23.70 1.95,23.79 1.98,23.89 2.00,24.00 2.00,24.10 1.99,24.21 1.95,24.31 1.92,24.41 1.85,24.49 1.78,24.57 1.69,24.62 1.60,24.68 1.49,24.70 1.39,24.72 1.28,24.71 1.18,24.70 1.08,24.66 0.98,24.61 0.98,24.61 0.98,24.61 -0.17,22.65 -1.34,20.68 -1.44,19.92 -1.54,19.16 -1.55,18.34 -1.56,17.52 -1.56,16.49 -1.57,15.46 -1.58,14.24 -1.59,13.01 -1.63,11.55 -1.67,10.09 -1.65,8.52 -1.64,6.95 -1.57,5.80 -1.51,4.64 -1.46,3.45 -1.42,2.26 -1.03,1.09 -0.65,-0.06 -0.63,-0.14 -0.61,-0.22 -0.58,-0.29 -0.54,-0.36 -0.49,-0.42 -0.44,-0.48 -0.38,-0.52 -0.31,-0.57 -0.24,-0.60 -0.16,-0.63 -0.09,-0.64 -0.01,-0.65 0.06,-0.64 0.14,-0.64 0.21,-0.61 0.29,-0.58 0.36,-0.54 0.42,-0.49 0.47,-0.44 0.53,-0.38 0.57,-0.31 0.60,-0.24 0.62,-0.16 0.65,-0.09 0.65,-0.01 0.65,0.06 0.65,0.06 L 0.65,0.06 Z"/></g><g transform="translate(25.94488525390625 39.419525146484375) rotate(0 7.19293212890625 5.0413360595703125)" stroke="none"><path fill="#1e1e1e" d="M 0.60,0.25 Q 0.60,0.25 0.41,1.20 0.22,2.14 0.04,2.69 -0.13,3.24 -0.26,4.05 -0.39,4.85 -0.46,5.41 -0.53,5.98 -0.57,6.81 -0.61,7.65 -0.60,8.38 -0.60,9.10 -0.52,9.69 -0.43,10.28 -0.29,10.83 -0.14,11.37 0.18,11.85 0.52,12.33 1.38,12.80 2.25,13.27 2.86,13.31 3.47,13.36 4.17,13.27 4.86,13.17 5.66,12.94 6.46,12.71 7.24,12.30 8.02,11.89 8.77,11.32 9.52,10.74 10.33,9.78 11.15,8.83 11.77,7.89 12.39,6.94 12.90,6.03 13.41,5.11 13.81,4.20 14.21,3.28 14.45,2.53 14.68,1.78 14.83,1.08 14.97,0.38 15.07,-0.27 15.16,-0.93 14.87,-2.39 14.57,-3.85 14.59,-3.95 14.61,-4.06 14.66,-4.15 14.72,-4.24 14.80,-4.31 14.87,-4.38 14.97,-4.42 15.07,-4.47 15.18,-4.47 15.28,-4.48 15.38,-4.46 15.49,-4.43 15.58,-4.37 15.67,-4.32 15.73,-4.23 15.80,-4.15 15.84,-4.05 15.87,-3.95 15.87,-3.84 15.88,-3.74 15.84,-3.64 15.81,-3.53 15.75,-3.45 15.69,-3.36 15.60,-3.30 15.52,-3.24 15.41,-3.21 15.31,-3.18 15.21,-3.18 15.10,-3.18 15.00,-3.22 14.90,-3.26 14.82,-3.33 14.74,-3.39 14.68,-3.48 14.62,-3.57 14.60,-3.67 14.57,-3.78 14.58,-3.88 14.59,-3.99 14.63,-4.09 14.67,-4.18 14.75,-4.26 14.82,-4.34 14.91,-4.39 15.00,-4.45 15.11,-4.47 15.21,-4.49 15.32,-4.47 15.42,-4.46 15.52,-4.41 15.61,-4.36 15.69,-4.29 15.76,-4.21 15.81,-4.11 15.85,-4.02 15.87,-3.91 15.88,-3.81 15.88,-3.81 15.88,-3.81 16.51,-2.31 17.13,-0.81 17.13,-0.04 17.12,0.72 17.02,1.57 16.93,2.42 16.70,3.32 16.47,4.22 16.05,5.27 15.62,6.33 15.08,7.34 14.53,8.35 13.80,9.44 13.08,10.53 12.07,11.65 11.06,12.78 10.12,13.47 9.17,14.17 8.16,14.66 7.15,15.15 6.14,15.41 5.13,15.68 4.15,15.76 3.18,15.84 2.25,15.70 1.32,15.55 0.49,15.17 -0.32,14.78 -0.93,14.20 -1.54,13.61 -1.99,12.79 -2.44,11.98 -2.60,11.27 -2.77,10.57 -2.84,9.83 -2.92,9.09 -2.91,8.30 -2.89,7.50 -2.81,6.57 -2.73,5.63 -2.62,5.04 -2.52,4.44 -2.32,3.51 -2.12,2.58 -1.90,1.96 -1.69,1.34 -1.14,0.54 -0.60,-0.25 -0.56,-0.32 -0.52,-0.39 -0.47,-0.44 -0.41,-0.50 -0.35,-0.54 -0.28,-0.59 -0.20,-0.61 -0.13,-0.64 -0.05,-0.64 0.02,-0.65 0.10,-0.64 0.17,-0.63 0.25,-0.60 0.32,-0.57 0.38,-0.52 0.45,-0.47 0.50,-0.41 0.55,-0.35 0.58,-0.28 0.62,-0.21 0.63,-0.13 0.65,-0.05 0.65,0.02 0.64,0.10 0.62,0.17 0.60,0.25 0.60,0.25 L 0.60,0.25 Z"/></g><g transform="translate(34.51971435546875 41.568572998046875) rotate(0 -0.42913818359375 11.597366333007812)" stroke="none"><path fill="#1e1e1e" d="M 0.65,0.04 Q 0.65,0.04 0.62,0.94 0.59,1.83 0.57,2.88 0.54,3.92 0.53,4.99 0.51,6.07 0.47,7.64 0.44,9.21 0.40,10.56 0.37,11.90 0.36,13.00 0.36,14.09 0.33,15.18 0.31,16.28 0.31,17.21 0.31,18.14 0.29,18.93 0.26,19.72 0.08,21.31 -0.09,22.89 -0.09,23.00 -0.09,23.10 -0.12,23.20 -0.15,23.31 -0.21,23.39 -0.27,23.48 -0.36,23.54 -0.45,23.60 -0.55,23.63 -0.65,23.66 -0.76,23.66 -0.86,23.66 -0.96,23.62 -1.06,23.59 -1.14,23.52 -1.23,23.45 -1.28,23.36 -1.34,23.27 -1.37,23.17 -1.39,23.07 -1.38,22.96 -1.37,22.86 -1.33,22.76 -1.29,22.66 -1.22,22.58 -1.15,22.50 -1.06,22.45 -0.96,22.40 -0.86,22.38 -0.75,22.36 -0.65,22.37 -0.54,22.39 -0.45,22.43 -0.35,22.48 -0.28,22.56 -0.20,22.63 -0.16,22.73 -0.11,22.82 -0.10,22.93 -0.08,23.03 -0.10,23.14 -0.12,23.24 -0.17,23.33 -0.23,23.43 -0.30,23.50 -0.38,23.57 -0.48,23.61 -0.58,23.65 -0.69,23.66 -0.79,23.67 -0.89,23.64 -1.00,23.62 -1.09,23.56 -1.18,23.50 -1.24,23.42 -1.31,23.34 -1.35,23.24 -1.38,23.14 -1.38,23.14 -1.38,23.14 -1.54,21.43 -1.69,19.73 -1.72,18.95 -1.75,18.16 -1.77,17.19 -1.78,16.22 -1.74,15.13 -1.71,14.05 -1.67,12.93 -1.62,11.82 -1.55,10.47 -1.47,9.11 -1.34,7.55 -1.22,5.99 -1.13,4.90 -1.05,3.81 -0.95,2.78 -0.84,1.74 -0.74,0.84 -0.65,-0.04 -0.64,-0.12 -0.62,-0.20 -0.59,-0.27 -0.55,-0.34 -0.50,-0.40 -0.46,-0.46 -0.39,-0.51 -0.33,-0.56 -0.26,-0.59 -0.19,-0.62 -0.11,-0.64 -0.03,-0.65 0.04,-0.65 0.12,-0.64 0.19,-0.62 0.27,-0.59 0.34,-0.55 0.40,-0.51 0.46,-0.45 0.52,-0.40 0.56,-0.33 0.60,-0.26 0.62,-0.18 0.64,-0.11 0.65,-0.03 0.65,0.04 0.65,0.04 L 0.65,0.04 Z"/></g><g transform="translate(47.91339111328125 37.418701171875) rotate(0 5.56298828125 11.37506103515625)" stroke="none"><path fill="#1e1e1e" d="M 0.51,-0.40 Q 0.51,-0.40 0.89,-0.12 1.28,0.16 1.91,0.90 2.54,1.64 3.31,2.29 4.08,2.94 4.55,3.32 5.02,3.69 5.52,4.06 6.02,4.43 6.64,4.85 7.26,5.27 7.76,5.59 8.26,5.91 9.04,6.45 9.81,6.99 10.47,7.56 11.13,8.12 11.50,8.61 11.86,9.10 12.07,9.71 12.28,10.32 12.30,10.98 12.31,11.64 11.86,12.98 11.41,14.32 10.92,15.09 10.43,15.86 9.71,16.69 8.99,17.52 8.31,18.20 7.62,18.88 6.89,19.52 6.17,20.17 5.48,20.71 4.80,21.25 3.14,22.06 1.48,22.86 1.41,22.94 1.33,23.02 1.24,23.08 1.15,23.13 1.05,23.15 0.94,23.17 0.84,23.16 0.73,23.14 0.64,23.10 0.54,23.05 0.46,22.98 0.39,22.90 0.34,22.81 0.29,22.71 0.28,22.61 0.26,22.50 0.28,22.40 0.30,22.29 0.35,22.20 0.40,22.11 0.48,22.04 0.56,21.97 0.66,21.92 0.75,21.88 0.86,21.87 0.97,21.86 1.07,21.88 1.17,21.91 1.26,21.97 1.35,22.02 1.42,22.10 1.49,22.19 1.52,22.29 1.56,22.38 1.57,22.49 1.57,22.60 1.54,22.70 1.51,22.80 1.45,22.89 1.39,22.97 1.30,23.04 1.22,23.10 1.11,23.13 1.01,23.16 0.91,23.16 0.80,23.16 0.70,23.13 0.60,23.09 0.52,23.02 0.43,22.96 0.38,22.87 0.32,22.78 0.29,22.68 0.26,22.57 0.27,22.47 0.28,22.36 0.32,22.26 0.36,22.17 0.36,22.17 0.36,22.17 1.76,20.80 3.17,19.43 3.75,18.83 4.34,18.23 4.98,17.59 5.62,16.94 6.23,16.29 6.83,15.65 7.43,14.96 8.03,14.28 8.44,13.68 8.84,13.09 9.19,12.32 9.55,11.55 9.45,10.75 9.35,9.96 8.85,9.47 8.35,8.97 7.65,8.44 6.94,7.90 6.42,7.54 5.90,7.18 5.27,6.71 4.63,6.24 4.10,5.82 3.57,5.40 3.15,5.02 2.72,4.64 2.25,4.23 1.78,3.83 1.39,3.39 0.99,2.95 0.42,2.11 -0.14,1.28 -0.32,0.84 -0.51,0.40 -0.55,0.33 -0.59,0.27 -0.62,0.19 -0.64,0.11 -0.65,0.04 -0.65,-0.03 -0.64,-0.11 -0.62,-0.19 -0.59,-0.26 -0.56,-0.33 -0.51,-0.40 -0.46,-0.46 -0.40,-0.51 -0.34,-0.56 -0.26,-0.59 -0.19,-0.62 -0.11,-0.64 -0.04,-0.65 0.03,-0.65 0.11,-0.64 0.19,-0.62 0.26,-0.59 0.33,-0.55 0.40,-0.51 0.45,-0.46 0.51,-0.40 0.51,-0.40 L 0.51,-0.40 Z"/></g><g transform="translate(257.6063232421875 152.94778442382812) rotate(0 6.980316162109375 -21.60150146484375)" stroke="none"><path fill="#1e1e1e" d="M -0.61,-0.23 Q -0.61,-0.23 -0.10,-2.08 0.39,-3.92 1.04,-6.26 1.70,-8.59 2.32,-11.00 2.95,-13.40 3.31,-15.01 3.68,-16.61 4.24,-19.50 4.81,-22.40 5.30,-25.38 5.80,-28.37 6.07,-30.17 6.35,-31.97 6.62,-34.09 6.88,-36.21 7.06,-37.63 7.24,-39.04 7.35,-39.95 7.46,-40.85 7.53,-41.42 7.60,-41.99 7.64,-42.38 7.68,-42.78 7.72,-42.93 7.75,-43.09 7.83,-43.23 7.90,-43.37 8.01,-43.49 8.11,-43.61 8.25,-43.70 8.38,-43.79 8.53,-43.85 8.68,-43.90 8.83,-43.92 8.99,-43.94 9.15,-43.92 9.31,-43.90 9.46,-43.85 9.61,-43.79 9.74,-43.70 9.87,-43.61 9.98,-43.49 10.08,-43.37 10.16,-43.23 10.23,-43.08 10.27,-42.93 10.31,-42.77 10.31,-42.62 10.31,-42.46 10.66,-41.21 11.01,-39.96 11.19,-38.43 11.37,-36.90 11.61,-35.17 11.85,-33.44 12.07,-31.51 12.30,-29.59 12.60,-27.00 12.91,-24.42 13.20,-22.30 13.49,-20.17 13.73,-18.32 13.97,-16.47 14.18,-15.06 14.39,-13.65 14.57,-12.45 14.75,-11.25 14.83,-10.28 14.92,-9.30 14.60,-7.27 14.27,-5.24 14.22,-5.15 14.16,-5.06 14.08,-4.99 14.00,-4.92 13.91,-4.88 13.81,-4.84 13.70,-4.83 13.60,-4.82 13.49,-4.85 13.39,-4.88 13.30,-4.94 13.21,-4.99 13.15,-5.08 13.08,-5.16 13.05,-5.26 13.01,-5.36 13.01,-5.47 13.01,-5.57 13.04,-5.68 13.07,-5.78 13.14,-5.86 13.20,-5.95 13.29,-6.01 13.37,-6.07 13.48,-6.10 13.58,-6.13 13.68,-6.12 13.79,-6.12 13.89,-6.08 13.99,-6.04 14.07,-5.98 14.15,-5.91 14.21,-5.82 14.26,-5.73 14.29,-5.62 14.31,-5.52 14.30,-5.42 14.29,-5.31 14.25,-5.21 14.21,-5.12 14.13,-5.04 14.06,-4.96 13.97,-4.91 13.88,-4.86 13.77,-4.84 13.67,-4.82 13.56,-4.84 13.46,-4.85 13.36,-4.90 13.27,-4.95 13.19,-5.03 13.12,-5.10 13.07,-5.20 13.03,-5.29 13.01,-5.40 13.00,-5.50 13.02,-5.61 13.04,-5.71 13.04,-5.71 13.04,-5.71 12.72,-7.37 12.40,-9.02 12.27,-9.92 12.15,-10.82 11.93,-12.02 11.72,-13.23 11.48,-14.67 11.23,-16.11 10.98,-17.95 10.73,-19.80 10.44,-21.95 10.15,-24.10 9.86,-26.69 9.56,-29.27 9.35,-31.17 9.13,-33.07 8.89,-34.83 8.65,-36.59 8.49,-38.06 8.32,-39.53 8.20,-40.43 8.07,-41.34 7.88,-42.06 7.68,-42.78 7.72,-42.93 7.75,-43.09 7.83,-43.23 7.90,-43.37 8.01,-43.49 8.11,-43.61 8.25,-43.70 8.38,-43.79 8.53,-43.85 8.68,-43.90 8.83,-43.92 8.99,-43.94 9.15,-43.92 9.31,-43.90 9.46,-43.85 9.61,-43.79 9.74,-43.70 9.87,-43.61 9.98,-43.49 10.08,-43.37 10.16,-43.23 10.23,-43.08 10.27,-42.93 10.31,-42.77 10.31,-42.62 10.31,-42.46 10.25,-42.06 10.19,-41.67 10.11,-41.09 10.04,-40.51 9.92,-39.61 9.79,-38.72 9.61,-37.30 9.42,-35.88 9.13,-33.73 8.83,-31.59 8.55,-29.77 8.26,-27.95 7.73,-24.93 7.19,-21.91 6.58,-19.00 5.97,-16.08 5.59,-14.44 5.20,-12.80 4.53,-10.38 3.87,-7.95 3.12,-5.55 2.37,-3.14 1.49,-1.45 0.61,0.23 0.57,0.30 0.53,0.37 0.48,0.43 0.43,0.49 0.36,0.54 0.29,0.58 0.22,0.61 0.15,0.63 0.07,0.64 -0.00,0.65 -0.08,0.64 -0.16,0.63 -0.23,0.60 -0.31,0.57 -0.37,0.53 -0.44,0.48 -0.49,0.42 -0.54,0.36 -0.58,0.29 -0.61,0.22 -0.63,0.14 -0.65,0.07 -0.65,-0.00 -0.65,-0.08 -0.63,-0.16 -0.61,-0.23 -0.61,-0.23 L -0.61,-0.23 Z"/></g><g transform="translate(262.28350830078125 137.38580322265625) rotate(0 4.6417236328125 -0.6669464111328125)" stroke="none"><path fill="#1e1e1e" d="M -0.17,-0.63 Q -0.17,-0.63 0.82,-1.22 1.82,-1.82 2.66,-1.98 3.51,-2.13 4.37,-2.21 5.23,-2.29 6.98,-1.99 8.73,-1.70 8.83,-1.67 8.93,-1.64 9.02,-1.57 9.10,-1.51 9.16,-1.43 9.23,-1.34 9.26,-1.24 9.29,-1.13 9.28,-1.03 9.28,-0.92 9.24,-0.82 9.20,-0.72 9.14,-0.64 9.07,-0.56 8.98,-0.50 8.89,-0.45 8.79,-0.42 8.68,-0.40 8.58,-0.41 8.47,-0.42 8.37,-0.46 8.28,-0.50 8.20,-0.57 8.12,-0.64 8.07,-0.74 8.02,-0.83 8.00,-0.93 7.98,-1.04 7.99,-1.14 8.01,-1.25 8.06,-1.34 8.10,-1.44 8.18,-1.51 8.26,-1.59 8.35,-1.63 8.45,-1.68 8.55,-1.69 8.66,-1.71 8.76,-1.69 8.87,-1.67 8.96,-1.61 9.05,-1.56 9.12,-1.48 9.19,-1.40 9.23,-1.30 9.27,-1.20 9.28,-1.10 9.29,-0.99 9.26,-0.89 9.24,-0.79 9.18,-0.70 9.12,-0.61 9.04,-0.54 8.95,-0.48 8.85,-0.44 8.75,-0.41 8.65,-0.40 8.54,-0.40 8.54,-0.40 8.54,-0.40 7.04,-0.22 5.54,-0.03 4.78,0.11 4.02,0.26 3.26,0.45 2.49,0.63 1.33,0.63 0.17,0.63 0.09,0.64 0.01,0.65 -0.06,0.64 -0.13,0.64 -0.21,0.61 -0.28,0.58 -0.35,0.54 -0.42,0.50 -0.47,0.44 -0.52,0.38 -0.56,0.31 -0.60,0.24 -0.62,0.17 -0.64,0.09 -0.65,0.01 -0.65,-0.06 -0.63,-0.13 -0.62,-0.21 -0.58,-0.28 -0.55,-0.35 -0.49,-0.41 -0.44,-0.47 -0.38,-0.52 -0.32,-0.57 -0.24,-0.60 -0.17,-0.63 -0.17,-0.63 L -0.17,-0.63 Z"/></g><g transform="translate(319.75592041015625 148.64971923828125) rotate(0 -13.03936767578125 -23.009490966796875)" stroke="none"><path fill="#1e1e1e" d="M -0.40,0.51 Q -0.40,0.51 -1.27,0.05 -2.13,-0.39 -2.71,-0.81 -3.30,-1.24 -3.85,-1.64 -4.41,-2.04 -5.03,-2.61 -5.65,-3.17 -6.32,-3.83 -6.99,-4.48 -8.03,-5.59 -9.07,-6.70 -10.09,-7.86 -11.10,-9.02 -12.13,-10.21 -13.16,-11.39 -14.16,-12.61 -15.16,-13.83 -16.39,-15.44 -17.62,-17.05 -18.41,-18.10 -19.19,-19.14 -20.00,-20.20 -20.80,-21.25 -21.70,-22.61 -22.60,-23.96 -23.35,-25.21 -24.11,-26.45 -24.73,-27.48 -25.35,-28.52 -25.84,-29.46 -26.33,-30.40 -26.75,-31.33 -27.17,-32.26 -27.56,-33.25 -27.95,-34.24 -28.17,-34.79 -28.39,-35.35 -28.58,-36.23 -28.77,-37.12 -28.84,-37.83 -28.92,-38.55 -28.89,-39.23 -28.86,-39.91 -28.73,-40.58 -28.59,-41.25 -28.20,-42.07 -27.80,-42.89 -27.48,-43.35 -27.16,-43.81 -26.42,-44.42 -25.68,-45.03 -25.17,-45.33 -24.66,-45.64 -23.53,-46.04 -22.40,-46.44 -21.30,-46.67 -20.20,-46.90 -19.15,-47.04 -18.10,-47.18 -17.07,-47.24 -16.04,-47.30 -15.11,-47.36 -14.17,-47.43 -13.09,-47.39 -12.00,-47.35 -11.16,-47.25 -10.32,-47.14 -9.62,-46.98 -8.92,-46.81 -8.37,-46.62 -7.82,-46.43 -7.32,-46.16 -6.83,-45.88 -6.15,-45.29 -5.46,-44.69 -5.12,-43.88 -4.78,-43.06 -4.65,-41.79 -4.53,-40.52 -4.62,-39.85 -4.72,-39.18 -4.89,-38.51 -5.06,-37.85 -5.28,-37.17 -5.50,-36.50 -5.82,-35.78 -6.14,-35.06 -6.52,-34.32 -6.91,-33.57 -7.31,-32.81 -7.71,-32.04 -8.23,-31.20 -8.75,-30.35 -9.49,-29.28 -10.23,-28.22 -10.80,-27.31 -11.38,-26.39 -11.99,-25.49 -12.60,-24.59 -13.19,-23.77 -13.79,-22.95 -14.33,-22.16 -14.88,-21.37 -15.42,-20.59 -15.97,-19.81 -16.60,-18.95 -17.22,-18.09 -17.73,-17.30 -18.24,-16.51 -18.65,-15.83 -19.07,-15.14 -19.45,-14.47 -19.82,-13.81 -20.16,-13.16 -20.49,-12.51 -20.79,-11.88 -21.10,-11.24 -21.42,-10.46 -21.74,-9.67 -21.97,-9.02 -22.21,-8.37 -22.38,-7.81 -22.56,-7.26 -22.75,-6.21 -22.93,-5.16 -22.94,-4.42 -22.94,-3.68 -22.67,-2.93 -22.41,-2.17 -22.01,-1.78 -21.61,-1.40 -20.61,-1.66 -19.61,-1.92 -18.95,-2.24 -18.28,-2.56 -17.57,-3.02 -16.85,-3.48 -16.14,-4.07 -15.43,-4.66 -14.70,-5.38 -13.97,-6.10 -13.12,-7.13 -12.26,-8.15 -11.44,-9.36 -10.61,-10.57 -9.74,-11.89 -8.87,-13.20 -8.10,-14.44 -7.33,-15.67 -6.25,-17.23 -5.16,-18.79 -4.00,-20.41 -2.85,-22.04 -2.08,-23.03 -1.31,-24.03 -0.11,-25.24 1.07,-26.44 1.17,-26.47 1.28,-26.49 1.38,-26.48 1.49,-26.47 1.59,-26.43 1.68,-26.39 1.76,-26.31 1.84,-26.24 1.89,-26.15 1.94,-26.06 1.96,-25.95 1.98,-25.85 1.97,-25.74 1.95,-25.64 1.91,-25.54 1.86,-25.45 1.78,-25.37 1.71,-25.30 1.61,-25.25 1.52,-25.21 1.41,-25.19 1.30,-25.18 1.20,-25.20 1.10,-25.22 1.00,-25.27 0.91,-25.33 0.84,-25.41 0.77,-25.49 0.73,-25.58 0.69,-25.68 0.68,-25.79 0.67,-25.89 0.70,-26.00 0.73,-26.10 0.78,-26.19 0.84,-26.28 0.92,-26.34 1.01,-26.41 1.11,-26.45 1.21,-26.48 1.31,-26.48 1.42,-26.49 1.52,-26.45 1.62,-26.42 1.71,-26.36 1.79,-26.30 1.86,-26.21 1.92,-26.12 1.95,-26.02 1.98,-25.92 1.97,-25.81 1.97,-25.71 1.93,-25.61 1.90,-25.51 1.83,-25.43 1.76,-25.34 1.67,-25.29 1.58,-25.23 1.58,-25.23 1.58,-25.23 1.21,-23.85 0.85,-22.47 0.15,-21.44 -0.53,-20.41 -1.66,-18.77 -2.80,-17.14 -3.84,-15.64 -4.89,-14.14 -5.69,-12.88 -6.48,-11.62 -7.37,-10.29 -8.26,-8.95 -9.18,-7.63 -10.09,-6.32 -11.05,-5.20 -12.00,-4.09 -12.83,-3.29 -13.67,-2.49 -14.52,-1.81 -15.38,-1.13 -16.24,-0.60 -17.10,-0.07 -17.94,0.31 -18.78,0.70 -19.67,0.97 -20.56,1.23 -21.78,1.10 -23.01,0.97 -23.52,0.61 -24.04,0.25 -24.51,-0.45 -24.98,-1.16 -25.17,-1.66 -25.36,-2.16 -25.55,-3.27 -25.74,-4.38 -25.71,-4.98 -25.68,-5.59 -25.58,-6.21 -25.49,-6.83 -25.35,-7.46 -25.21,-8.10 -25.02,-8.71 -24.82,-9.32 -24.57,-10.01 -24.32,-10.71 -23.96,-11.58 -23.61,-12.45 -23.29,-13.12 -22.98,-13.78 -22.62,-14.48 -22.26,-15.18 -21.86,-15.88 -21.47,-16.59 -21.03,-17.31 -20.59,-18.04 -20.04,-18.88 -19.50,-19.72 -18.89,-20.58 -18.28,-21.43 -17.75,-22.20 -17.21,-22.96 -16.65,-23.79 -16.09,-24.62 -15.53,-25.40 -14.96,-26.19 -14.38,-27.06 -13.79,-27.93 -13.18,-28.88 -12.57,-29.84 -11.87,-30.85 -11.17,-31.86 -10.70,-32.61 -10.23,-33.36 -9.83,-34.13 -9.42,-34.89 -9.07,-35.56 -8.72,-36.22 -8.45,-36.81 -8.18,-37.39 -7.98,-37.99 -7.78,-38.58 -7.54,-39.60 -7.31,-40.61 -7.35,-41.41 -7.39,-42.21 -7.79,-42.88 -8.19,-43.54 -8.86,-43.86 -9.54,-44.18 -10.10,-44.31 -10.67,-44.44 -11.39,-44.54 -12.10,-44.63 -13.04,-44.67 -13.98,-44.70 -14.93,-44.63 -15.89,-44.56 -16.81,-44.51 -17.74,-44.46 -18.69,-44.33 -19.64,-44.20 -20.58,-44.02 -21.51,-43.83 -22.75,-43.33 -24.00,-42.83 -24.67,-42.21 -25.34,-41.60 -25.61,-41.13 -25.88,-40.66 -26.02,-39.74 -26.15,-38.82 -26.10,-38.25 -26.04,-37.67 -25.92,-37.02 -25.80,-36.36 -25.58,-35.81 -25.36,-35.25 -25.00,-34.33 -24.64,-33.40 -24.25,-32.54 -23.87,-31.67 -23.43,-30.80 -22.98,-29.93 -22.37,-28.90 -21.75,-27.87 -21.03,-26.67 -20.32,-25.46 -19.48,-24.17 -18.64,-22.88 -17.84,-21.81 -17.04,-20.75 -16.27,-19.71 -15.49,-18.67 -14.30,-17.08 -13.11,-15.49 -12.15,-14.28 -11.18,-13.08 -10.18,-11.88 -9.18,-10.68 -8.20,-9.53 -7.22,-8.38 -6.24,-7.27 -5.27,-6.17 -4.65,-5.51 -4.03,-4.85 -3.53,-4.33 -3.04,-3.81 -2.50,-3.36 -1.97,-2.92 -1.42,-2.45 -0.87,-1.99 -0.23,-1.25 0.40,-0.51 0.46,-0.45 0.51,-0.40 0.55,-0.33 0.60,-0.26 0.62,-0.19 0.64,-0.11 0.65,-0.03 0.65,0.04 0.64,0.12 0.62,0.19 0.59,0.27 0.56,0.34 0.51,0.40 0.46,0.46 0.39,0.51 0.33,0.56 0.26,0.59 0.19,0.62 0.11,0.64 0.03,0.65 -0.04,0.65 -0.12,0.64 -0.19,0.62 -0.27,0.59 -0.34,0.55 -0.40,0.51 -0.40,0.51 L -0.40,0.51 Z"/></g><g transform="translate(339.45672607421875 111.37509155273438) rotate(0 0.035400390625 14.042831420898438)" stroke="none"><path fill="#1e1e1e" d="M -0.65,0 Q -0.65,0 -0.71,-0.68 -0.78,-1.36 -0.83,-1.80 -0.89,-2.24 -0.87,-2.34 -0.86,-2.45 -0.82,-2.55 -0.78,-2.65 -0.72,-2.74 -0.66,-2.83 -0.58,-2.90 -0.50,-2.97 -0.41,-3.02 -0.31,-3.07 -0.21,-3.09 -0.10,-3.12 0.00,-3.12 0.10,-3.12 0.21,-3.09 0.31,-3.07 0.41,-3.02 0.50,-2.97 0.58,-2.90 0.66,-2.83 0.72,-2.74 0.78,-2.65 0.82,-2.55 0.86,-2.45 0.87,-2.34 0.89,-2.24 1.14,-1.31 1.40,-0.39 1.46,0.60 1.53,1.60 1.59,3.03 1.65,4.46 1.68,6.14 1.71,7.82 1.71,9.65 1.71,11.47 1.64,13.38 1.56,15.28 1.43,17.60 1.30,19.93 1.22,21.56 1.15,23.20 1.07,24.50 0.99,25.80 0.99,26.69 0.99,27.58 0.75,29.11 0.51,30.64 0.52,30.75 0.54,30.85 0.52,30.96 0.50,31.06 0.45,31.15 0.40,31.25 0.32,31.32 0.24,31.39 0.15,31.43 0.05,31.48 -0.05,31.49 -0.15,31.50 -0.26,31.47 -0.36,31.45 -0.45,31.39 -0.54,31.33 -0.61,31.25 -0.68,31.17 -0.71,31.07 -0.75,30.97 -0.76,30.87 -0.76,30.76 -0.73,30.66 -0.70,30.56 -0.64,30.47 -0.58,30.38 -0.49,30.32 -0.41,30.26 -0.30,30.22 -0.20,30.19 -0.10,30.19 0.00,30.19 0.10,30.23 0.20,30.26 0.28,30.33 0.37,30.40 0.42,30.49 0.48,30.57 0.51,30.68 0.54,30.78 0.53,30.89 0.52,30.99 0.48,31.09 0.44,31.19 0.37,31.27 0.30,31.35 0.21,31.40 0.12,31.45 0.01,31.48 -0.08,31.50 -0.19,31.48 -0.29,31.47 -0.39,31.42 -0.48,31.38 -0.56,31.30 -0.64,31.23 -0.68,31.13 -0.73,31.04 -0.73,31.04 -0.73,31.04 -1.16,29.32 -1.58,27.60 -1.60,26.62 -1.62,25.65 -1.55,24.36 -1.48,23.07 -1.39,21.42 -1.31,19.77 -1.16,17.47 -1.02,15.16 -0.92,13.31 -0.82,11.45 -0.80,9.65 -0.77,7.84 -0.78,6.19 -0.78,4.53 -0.80,3.13 -0.83,1.72 -0.86,0.77 -0.89,-0.17 -0.89,-1.20 -0.89,-2.24 -0.87,-2.34 -0.86,-2.45 -0.82,-2.55 -0.78,-2.65 -0.72,-2.74 -0.66,-2.83 -0.58,-2.90 -0.50,-2.97 -0.41,-3.02 -0.31,-3.07 -0.21,-3.09 -0.10,-3.12 -0.00,-3.12 0.10,-3.12 0.21,-3.09 0.31,-3.07 0.41,-3.02 0.50,-2.97 0.58,-2.90 0.66,-2.83 0.72,-2.74 0.78,-2.65 0.82,-2.55 0.86,-2.45 0.87,-2.34 0.89,-2.24 0.83,-1.80 0.78,-1.36 0.71,-0.68 0.65,0 0.64,0.07 0.63,0.15 0.60,0.23 0.58,0.30 0.53,0.37 0.49,0.43 0.43,0.48 0.37,0.54 0.30,0.57 0.23,0.61 0.15,0.63 0.07,0.65 -0.00,0.65 -0.07,0.65 -0.15,0.63 -0.23,0.61 -0.30,0.57 -0.37,0.54 -0.43,0.48 -0.49,0.43 -0.53,0.37 -0.58,0.30 -0.60,0.23 -0.63,0.15 -0.64,0.07 -0.65,-0.00 -0.65,-0.00 L -0.65,0 Z"/></g><g transform="translate(335.55908203125 116.1177978515625) rotate(0 12.18896484375 12.634811401367188)" stroke="none"><path fill="#1e1e1e" d="M -0.58,0.30 Q -0.58,0.30 -1.02,-0.17 -1.46,-0.64 -1.83,-1.30 -2.21,-1.96 -2.43,-2.61 -2.66,-3.26 -2.61,-3.86 -2.57,-4.47 -2.24,-5.22 -1.90,-5.98 -1.47,-6.59 -1.03,-7.20 -0.49,-7.73 0.03,-8.27 0.67,-8.74 1.30,-9.21 2.42,-9.71 3.53,-10.22 4.60,-10.58 5.66,-10.93 6.83,-11.17 8.00,-11.40 9.31,-11.46 10.62,-11.52 11.82,-11.47 13.02,-11.43 14.20,-11.28 15.39,-11.13 16.47,-10.87 17.56,-10.60 18.47,-10.26 19.39,-9.91 20.15,-9.47 20.92,-9.02 21.61,-8.40 22.30,-7.78 22.92,-6.76 23.54,-5.73 23.86,-4.69 24.19,-3.64 24.29,-2.54 24.39,-1.44 24.26,-0.27 24.12,0.89 23.78,2.09 23.43,3.29 22.86,4.60 22.29,5.90 21.51,7.21 20.73,8.52 19.92,9.59 19.11,10.65 18.08,11.71 17.05,12.78 16.17,13.51 15.30,14.24 14.48,14.75 13.67,15.27 13.00,15.62 12.34,15.97 11.79,16.20 11.25,16.42 10.37,16.60 9.50,16.78 8.60,15.91 7.71,15.03 8.22,14.02 8.73,13.00 9.59,12.58 10.46,12.16 11.08,11.95 11.71,11.74 12.65,11.61 13.59,11.49 14.89,11.48 16.19,11.48 17.36,11.59 18.54,11.70 19.52,11.86 20.50,12.01 21.39,12.27 22.28,12.52 23.05,12.87 23.82,13.21 24.47,13.67 25.13,14.13 25.79,15.05 26.45,15.96 26.74,17.11 27.02,18.25 26.90,19.59 26.78,20.93 26.37,22.35 25.95,23.77 25.28,25.13 24.60,26.49 23.47,28.09 22.35,29.69 21.24,30.89 20.13,32.09 19.01,33.07 17.89,34.04 16.72,34.76 15.54,35.48 14.34,35.93 13.13,36.37 11.92,36.60 10.71,36.82 9.53,36.82 8.36,36.83 5.93,36.03 3.50,35.24 3.40,35.19 3.30,35.15 3.22,35.08 3.15,35.00 3.10,34.91 3.05,34.82 3.03,34.71 3.01,34.61 3.02,34.50 3.04,34.40 3.09,34.30 3.14,34.21 3.21,34.14 3.29,34.06 3.39,34.02 3.48,33.97 3.59,33.96 3.69,33.94 3.80,33.97 3.90,33.99 3.99,34.04 4.08,34.09 4.15,34.17 4.22,34.25 4.26,34.35 4.30,34.45 4.31,34.56 4.32,34.66 4.29,34.77 4.26,34.87 4.21,34.96 4.15,35.05 4.06,35.11 3.98,35.18 3.88,35.21 3.78,35.25 3.67,35.25 3.57,35.25 3.47,35.22 3.36,35.18 3.28,35.12 3.19,35.06 3.13,34.97 3.07,34.88 3.04,34.78 3.01,34.68 3.02,34.57 3.02,34.47 3.06,34.37 3.10,34.27 3.17,34.19 3.23,34.10 3.32,34.05 3.41,33.99 3.52,33.97 3.62,33.94 3.73,33.96 3.83,33.97 3.83,33.97 3.83,33.97 6.02,33.98 8.21,33.99 9.13,33.88 10.06,33.76 11.01,33.52 11.97,33.28 12.89,32.93 13.81,32.58 14.75,32.02 15.70,31.46 16.70,30.63 17.70,29.80 18.70,28.77 19.69,27.73 20.74,26.37 21.79,25.01 22.40,23.92 23.01,22.82 23.42,21.68 23.82,20.53 23.99,19.65 24.17,18.76 24.10,18.09 24.03,17.41 23.35,16.53 22.67,15.64 22.10,15.36 21.53,15.08 20.80,14.87 20.08,14.65 19.18,14.50 18.28,14.35 17.24,14.25 16.19,14.15 15.05,14.15 13.91,14.14 13.22,14.22 12.54,14.29 12.03,14.46 11.52,14.62 10.83,14.99 10.15,15.36 9.86,14.66 9.58,13.97 10.30,13.71 11.02,13.45 11.60,13.15 12.17,12.86 12.83,12.45 13.49,12.05 14.26,11.42 15.02,10.79 15.94,9.86 16.87,8.93 17.58,8.00 18.30,7.07 19.00,5.90 19.71,4.74 20.22,3.62 20.73,2.50 21.03,1.51 21.33,0.52 21.46,-0.35 21.59,-1.24 21.54,-2.05 21.50,-2.86 21.29,-3.62 21.08,-4.37 20.73,-5.08 20.38,-5.78 19.94,-6.21 19.50,-6.65 18.94,-6.99 18.39,-7.33 17.63,-7.63 16.88,-7.93 15.95,-8.17 15.03,-8.41 13.97,-8.56 12.91,-8.70 11.82,-8.75 10.72,-8.80 9.61,-8.77 8.49,-8.74 7.49,-8.56 6.49,-8.38 5.54,-8.08 4.58,-7.77 3.70,-7.42 2.82,-7.07 2.32,-6.73 1.83,-6.39 1.42,-6.02 1.01,-5.64 0.43,-4.86 -0.15,-4.07 -0.14,-3.43 -0.12,-2.80 0.09,-2.18 0.32,-1.56 0.45,-0.93 0.58,-0.30 0.61,-0.22 0.63,-0.15 0.64,-0.07 0.65,0.00 0.64,0.08 0.63,0.16 0.60,0.23 0.57,0.30 0.53,0.37 0.48,0.43 0.42,0.49 0.36,0.54 0.29,0.57 0.22,0.61 0.15,0.63 0.07,0.65 -0.00,0.65 -0.08,0.65 -0.16,0.63 -0.23,0.61 -0.30,0.57 -0.37,0.53 -0.43,0.48 -0.49,0.43 -0.53,0.36 -0.58,0.30 -0.58,0.30 L -0.58,0.30 Z"/></g><g transform="translate(569.2755737304688 51.72088623046875) rotate(0 2.9764404296875 2.2972564697265625)" stroke="none"><path fill="#1e1e1e" d="M -0.65,-0.05 Q -0.65,-0.05 -0.72,-0.96 -0.78,-1.87 -0.69,-2.44 -0.60,-3.02 -0.36,-3.78 -0.11,-4.54 0.41,-5.27 0.94,-6.01 1.54,-6.50 2.13,-7.00 2.96,-7.34 3.78,-7.68 4.36,-7.87 4.94,-8.05 5.56,-8.14 6.18,-8.23 6.99,-7.96 7.80,-7.69 8.14,-6.88 8.47,-6.08 8.46,-5.31 8.45,-4.54 8.32,-3.52 8.19,-2.49 8.06,-1.59 7.94,-0.69 7.90,-0.02 7.86,0.64 7.95,1.52 8.04,2.39 8.22,2.97 8.39,3.54 8.59,4.10 8.78,4.66 9.10,5.49 9.43,6.33 9.61,7.08 9.78,7.83 9.72,8.37 9.65,8.91 9.28,9.62 8.91,10.34 8.29,10.99 7.66,11.64 6.82,12.08 5.98,12.51 5.20,12.72 4.42,12.92 3.48,12.95 2.53,12.98 1.81,12.91 1.09,12.83 0.53,12.73 -0.01,12.63 -0.82,12.40 -1.64,12.17 -2.42,11.70 -3.19,11.23 -3.46,10.51 -3.73,9.80 -3.55,9.16 -3.37,8.52 -2.97,8.08 -2.58,7.64 -1.65,7.14 -0.73,6.65 -0.08,6.44 0.56,6.23 1.97,6.11 3.39,5.99 5.06,6.19 6.74,6.39 6.85,6.40 6.95,6.42 7.05,6.47 7.14,6.52 7.21,6.59 7.29,6.67 7.33,6.77 7.38,6.86 7.39,6.97 7.40,7.07 7.38,7.18 7.36,7.28 7.31,7.37 7.25,7.46 7.17,7.53 7.09,7.60 6.99,7.64 6.89,7.68 6.79,7.69 6.68,7.70 6.58,7.67 6.48,7.64 6.39,7.58 6.30,7.52 6.24,7.44 6.17,7.36 6.14,7.25 6.10,7.15 6.10,7.05 6.10,6.94 6.13,6.84 6.17,6.74 6.23,6.65 6.29,6.57 6.38,6.51 6.47,6.45 6.57,6.42 6.67,6.39 6.78,6.40 6.88,6.40 6.98,6.44 7.08,6.48 7.16,6.55 7.24,6.61 7.30,6.70 7.36,6.79 7.38,6.90 7.40,7.00 7.39,7.11 7.38,7.21 7.34,7.31 7.29,7.41 7.22,7.48 7.15,7.56 7.06,7.61 6.96,7.66 6.86,7.68 6.75,7.70 6.75,7.70 6.75,7.70 5.17,7.94 3.59,8.17 2.49,8.38 1.38,8.59 0.86,8.80 0.33,9.00 -0.48,9.23 -1.29,9.45 -0.75,9.64 -0.20,9.83 0.58,10.02 1.37,10.20 2.34,10.31 3.31,10.41 3.87,10.35 4.42,10.29 4.99,10.11 5.55,9.94 6.20,9.45 6.84,8.96 7.09,8.35 7.33,7.74 7.13,7.14 6.94,6.54 6.72,6.02 6.50,5.51 6.31,4.97 6.13,4.44 5.88,3.58 5.63,2.72 5.54,1.69 5.44,0.66 5.49,-0.16 5.53,-0.99 5.67,-1.91 5.80,-2.83 5.95,-3.82 6.10,-4.81 6.21,-5.44 6.33,-6.07 5.68,-5.98 5.02,-5.90 4.37,-5.67 3.71,-5.45 3.09,-5.04 2.48,-4.63 1.99,-3.95 1.50,-3.27 1.31,-2.49 1.11,-1.70 0.88,-0.82 0.65,0.05 0.63,0.13 0.62,0.21 0.58,0.28 0.55,0.35 0.50,0.41 0.44,0.47 0.38,0.52 0.32,0.57 0.24,0.60 0.17,0.63 0.09,0.64 0.01,0.65 -0.05,0.64 -0.13,0.64 -0.21,0.61 -0.28,0.59 -0.35,0.54 -0.42,0.50 -0.47,0.44 -0.52,0.38 -0.56,0.32 -0.60,0.25 -0.62,0.17 -0.64,0.09 -0.65,0.01 -0.65,-0.05 -0.65,-0.05 L -0.65,-0.05 Z"/></g><g transform="translate(590.0393676757812 63.281219482421875) rotate(0 -2.97637939453125 5.2614288330078125)" stroke="none"><path fill="#1e1e1e" d="M 0.58,0.30 Q 0.58,0.30 0.32,1.01 0.07,1.72 -0.46,2.76 -1.00,3.81 -1.28,4.38 -1.57,4.95 -1.89,5.54 -2.22,6.14 -2.53,6.71 -2.85,7.28 -3.96,8.78 -5.06,10.27 -5.13,10.35 -5.19,10.44 -5.28,10.50 -5.37,10.56 -5.47,10.58 -5.58,10.61 -5.68,10.60 -5.79,10.59 -5.89,10.55 -5.99,10.51 -6.07,10.44 -6.15,10.37 -6.20,10.28 -6.25,10.19 -6.27,10.09 -6.30,9.98 -6.28,9.88 -6.27,9.77 -6.22,9.68 -6.18,9.58 -6.10,9.50 -6.03,9.43 -5.94,9.38 -5.84,9.33 -5.74,9.31 -5.63,9.30 -5.53,9.32 -5.42,9.34 -5.33,9.39 -5.23,9.44 -5.16,9.52 -5.09,9.59 -5.05,9.69 -5.00,9.79 -4.99,9.89 -4.98,10.00 -5.01,10.10 -5.03,10.21 -5.09,10.30 -5.15,10.39 -5.23,10.46 -5.31,10.52 -5.41,10.56 -5.51,10.60 -5.61,10.60 -5.72,10.61 -5.82,10.58 -5.92,10.55 -6.01,10.49 -6.10,10.43 -6.16,10.34 -6.22,10.25 -6.26,10.15 -6.29,10.05 -6.29,9.95 -6.29,9.84 -6.25,9.74 -6.22,9.64 -6.22,9.64 -6.22,9.64 -5.51,7.89 -4.81,6.15 -4.47,5.58 -4.13,5.02 -3.78,4.45 -3.42,3.89 -3.06,3.32 -2.69,2.76 -2.07,1.84 -1.46,0.91 -1.02,0.30 -0.58,-0.30 -0.53,-0.37 -0.49,-0.43 -0.43,-0.48 -0.37,-0.54 -0.30,-0.57 -0.23,-0.61 -0.15,-0.63 -0.07,-0.65 -0.00,-0.65 0.07,-0.65 0.15,-0.63 0.23,-0.61 0.30,-0.57 0.37,-0.54 0.43,-0.48 0.49,-0.43 0.53,-0.37 0.58,-0.30 0.60,-0.23 0.63,-0.15 0.64,-0.07 0.65,-0.00 0.64,0.07 0.63,0.15 0.60,0.23 0.58,0.30 0.58,0.30 L 0.58,0.30 Z"/></g><g transform="translate(617.9606323242188 51.2021484375) rotate(0 6.87408447265625 4.5204010009765625)" stroke="none"><path fill="#1e1e1e" d="M 0.02,0.65 Q 0.02,0.65 -0.60,0.83 -1.23,1.01 -1.85,1.08 -2.48,1.16 -3.34,1.33 -4.21,1.50 -5.00,1.91 -5.78,2.33 -6.57,3.19 -7.35,4.04 -7.67,4.62 -8.00,5.20 -8.22,5.77 -8.44,6.34 -8.50,7.43 -8.57,8.52 -8.30,9.24 -8.04,9.96 -7.48,10.44 -6.92,10.92 -6.11,10.87 -5.31,10.82 -4.77,10.65 -4.24,10.48 -3.66,10.17 -3.09,9.86 -2.56,9.49 -2.02,9.12 -1.43,8.51 -0.83,7.90 -0.41,7.36 0.01,6.82 0.35,5.99 0.69,5.16 0.33,4.47 -0.02,3.78 -0.74,3.27 -1.46,2.75 -2.00,2.52 -2.54,2.29 -3.05,2.10 -3.55,1.91 -4.17,1.70 -4.79,1.49 -5.33,1.40 -5.86,1.30 -6.01,1.25 -6.15,1.20 -6.28,1.12 -6.41,1.04 -6.51,0.93 -6.62,0.82 -6.69,0.69 -6.77,0.56 -6.81,0.41 -6.85,0.27 -6.86,0.12 -6.87,-0.02 -6.84,-0.17 -6.81,-0.32 -6.74,-0.46 -6.68,-0.59 -6.58,-0.71 -6.48,-0.83 -6.36,-0.92 -6.24,-1.01 -6.10,-1.07 -5.96,-1.13 -5.82,-1.15 -5.67,-1.18 -5.52,-1.17 -5.36,-1.15 -4.70,-0.89 -4.03,-0.62 -3.45,-0.58 -2.88,-0.53 -2.27,-0.55 -1.67,-0.57 -1.01,-0.68 -0.35,-0.79 0.32,-0.93 1.00,-1.08 1.68,-1.27 2.36,-1.46 2.99,-1.68 3.62,-1.89 4.17,-2.13 4.72,-2.36 5.24,-2.58 5.76,-2.79 6.59,-3.12 7.41,-3.45 8.04,-3.74 8.67,-4.02 8.81,-4.07 8.95,-4.13 9.11,-4.16 9.26,-4.18 9.41,-4.16 9.57,-4.15 9.71,-4.10 9.86,-4.05 9.99,-3.96 10.12,-3.88 10.22,-3.77 10.33,-3.65 10.40,-3.52 10.48,-3.38 10.52,-3.24 10.56,-3.09 10.56,-2.93 10.57,-2.78 10.54,-2.63 10.50,-2.48 10.44,-2.34 10.37,-2.20 10.27,-2.08 10.17,-1.96 10.04,-1.87 9.92,-1.78 9.35,-1.35 8.79,-0.91 8.38,-0.10 7.98,0.70 7.76,1.63 7.54,2.57 7.52,3.69 7.50,4.82 7.73,5.49 7.96,6.16 8.66,6.40 9.36,6.65 10.05,6.21 10.73,5.77 11.12,5.38 11.50,5.00 11.94,4.52 12.38,4.04 12.73,3.52 13.08,3.01 13.41,2.45 13.74,1.90 14.01,1.36 14.28,0.81 14.51,0.27 14.74,-0.26 15.01,-1.14 15.27,-2.03 15.40,-2.68 15.54,-3.33 15.60,-3.47 15.66,-3.62 15.76,-3.75 15.85,-3.87 15.97,-3.97 16.09,-4.07 16.24,-4.14 16.38,-4.21 16.53,-4.24 16.69,-4.28 16.85,-4.27 17.00,-4.27 17.16,-4.22 17.31,-4.18 17.45,-4.10 17.58,-4.02 17.70,-3.91 17.81,-3.80 17.90,-3.67 17.98,-3.54 18.03,-3.39 18.08,-3.24 18.10,-3.08 18.11,-2.92 18.09,-2.77 18.06,-2.61 17.45,-2.09 16.84,-1.57 16.67,-0.45 16.51,0.65 16.43,1.39 16.35,2.13 16.31,2.96 16.28,3.79 16.26,4.54 16.25,5.28 16.30,5.87 16.35,6.46 16.63,7.25 16.91,8.03 17.61,7.42 18.31,6.81 19.02,6.07 19.73,5.34 21.24,3.74 22.75,2.13 22.83,2.06 22.90,1.98 22.99,1.93 23.09,1.88 23.19,1.86 23.30,1.84 23.40,1.86 23.51,1.88 23.60,1.92 23.69,1.97 23.77,2.05 23.84,2.13 23.89,2.22 23.93,2.32 23.94,2.42 23.96,2.53 23.93,2.63 23.91,2.74 23.86,2.83 23.80,2.92 23.72,2.99 23.64,3.06 23.54,3.10 23.45,3.14 23.34,3.15 23.23,3.15 23.13,3.12 23.03,3.10 22.94,3.04 22.85,2.98 22.79,2.89 22.72,2.81 22.69,2.71 22.65,2.61 22.65,2.50 22.65,2.40 22.68,2.30 22.72,2.20 22.78,2.11 22.85,2.03 22.93,1.97 23.02,1.90 23.12,1.88 23.22,1.85 23.33,1.85 23.44,1.86 23.54,1.90 23.63,1.93 23.72,2.00 23.80,2.07 23.85,2.16 23.91,2.25 23.93,2.36 23.96,2.46 23.94,2.56 23.93,2.67 23.89,2.77 23.85,2.86 23.85,2.86 23.85,2.86 22.69,4.90 21.53,6.94 20.73,7.90 19.93,8.86 19.13,9.46 18.33,10.07 17.42,10.29 16.50,10.51 15.97,10.32 15.44,10.14 14.99,9.70 14.54,9.26 14.29,8.72 14.04,8.17 13.85,7.43 13.67,6.69 13.61,5.95 13.55,5.22 13.57,4.45 13.59,3.67 13.64,2.75 13.68,1.82 13.79,0.93 13.89,0.03 14.08,-0.73 14.27,-1.50 14.90,-2.41 15.54,-3.33 15.60,-3.47 15.66,-3.62 15.76,-3.75 15.85,-3.87 15.97,-3.97 16.09,-4.07 16.24,-4.14 16.38,-4.21 16.53,-4.24 16.69,-4.28 16.85,-4.27 17.00,-4.27 17.16,-4.22 17.31,-4.18 17.45,-4.10 17.58,-4.02 17.70,-3.91 17.81,-3.80 17.90,-3.67 17.98,-3.54 18.03,-3.39 18.08,-3.24 18.10,-3.08 18.11,-2.92 18.09,-2.77 18.06,-2.61 17.92,-1.99 17.78,-1.37 17.63,-0.82 17.48,-0.27 17.30,0.24 17.12,0.76 16.85,1.36 16.59,1.96 16.28,2.60 15.96,3.24 15.58,3.86 15.20,4.48 14.75,5.13 14.29,5.77 13.79,6.32 13.29,6.87 12.72,7.40 12.15,7.93 11.55,8.31 10.94,8.69 10.21,8.96 9.47,9.22 8.69,9.19 7.92,9.17 7.40,8.94 6.89,8.72 6.23,7.96 5.56,7.20 5.36,6.69 5.15,6.17 5.02,5.54 4.89,4.90 4.87,4.11 4.85,3.31 4.90,2.70 4.96,2.10 5.08,1.45 5.21,0.80 5.58,-0.21 5.94,-1.22 6.42,-1.98 6.90,-2.74 7.79,-3.38 8.67,-4.02 8.81,-4.07 8.95,-4.13 9.11,-4.16 9.26,-4.18 9.41,-4.16 9.57,-4.15 9.71,-4.10 9.86,-4.05 9.99,-3.96 10.12,-3.88 10.22,-3.77 10.33,-3.65 10.40,-3.52 10.48,-3.38 10.52,-3.24 10.56,-3.09 10.56,-2.93 10.57,-2.78 10.54,-2.63 10.50,-2.48 10.44,-2.34 10.37,-2.20 10.27,-2.08 10.17,-1.96 10.04,-1.87 9.92,-1.78 9.69,-1.69 9.46,-1.59 8.88,-1.32 8.30,-1.05 7.52,-0.74 6.73,-0.42 6.22,-0.22 5.71,-0.01 5.08,0.24 4.45,0.50 3.74,0.75 3.03,0.99 2.28,1.19 1.53,1.39 0.78,1.55 0.02,1.71 -0.79,1.83 -1.61,1.95 -2.36,1.96 -3.12,1.97 -3.91,1.88 -4.71,1.79 -5.29,1.54 -5.86,1.30 -6.01,1.25 -6.15,1.20 -6.28,1.12 -6.41,1.04 -6.51,0.93 -6.62,0.82 -6.69,0.69 -6.77,0.56 -6.81,0.41 -6.85,0.27 -6.86,0.12 -6.87,-0.02 -6.84,-0.17 -6.81,-0.32 -6.74,-0.46 -6.68,-0.59 -6.58,-0.71 -6.48,-0.83 -6.36,-0.92 -6.24,-1.01 -6.10,-1.07 -5.96,-1.13 -5.82,-1.15 -5.67,-1.18 -5.52,-1.17 -5.36,-1.15 -4.74,-1.03 -4.11,-0.91 -3.38,-0.67 -2.66,-0.43 -2.10,-0.21 -1.54,-0.00 -0.37,0.60 0.78,1.22 1.39,1.76 2.01,2.30 2.37,2.84 2.74,3.39 2.93,3.98 3.12,4.57 3.11,5.22 3.11,5.87 2.91,6.46 2.72,7.06 2.35,7.73 1.98,8.40 1.46,9.04 0.95,9.68 0.18,10.44 -0.58,11.20 -1.24,11.65 -1.91,12.10 -2.70,12.51 -3.50,12.92 -4.27,13.14 -5.04,13.36 -5.85,13.41 -6.65,13.47 -7.43,13.29 -8.21,13.10 -8.85,12.66 -9.50,12.22 -9.91,11.66 -10.32,11.10 -10.65,10.37 -10.98,9.63 -11.04,9.06 -11.10,8.50 -11.08,7.68 -11.06,6.87 -10.91,6.13 -10.76,5.40 -10.46,4.68 -10.15,3.96 -9.72,3.24 -9.28,2.51 -8.66,1.77 -8.03,1.03 -7.48,0.65 -6.94,0.26 -6.37,-0.02 -5.80,-0.31 -4.72,-0.59 -3.64,-0.87 -3.11,-0.91 -2.58,-0.95 -1.94,-0.94 -1.29,-0.93 -0.65,-0.79 -0.02,-0.65 0.05,-0.64 0.13,-0.64 0.21,-0.61 0.28,-0.59 0.35,-0.54 0.41,-0.50 0.47,-0.44 0.52,-0.39 0.56,-0.32 0.60,-0.25 0.62,-0.17 0.64,-0.10 0.65,-0.02 0.65,0.05 0.63,0.13 0.62,0.21 0.58,0.28 0.55,0.35 0.50,0.41 0.45,0.47 0.38,0.52 0.32,0.57 0.25,0.60 0.17,0.63 0.10,0.64 0.02,0.65 0.02,0.65 L 0.02,0.65 Z"/></g><g transform="translate(644.0393676757812 64.98562622070312) rotate(0 0.531494140625 -27.492813110351562)" stroke="none"><path fill="#1e1e1e" d="M -0.64,0.10 Q -0.64,0.10 -0.88,-0.72 -1.12,-1.56 -1.25,-2.94 -1.39,-4.33 -1.50,-6.38 -1.60,-8.44 -1.63,-11.18 -1.66,-13.91 -1.56,-17.07 -1.47,-20.23 -1.32,-23.64 -1.18,-27.05 -0.92,-31.27 -0.66,-35.50 -0.43,-38.74 -0.20,-41.98 -0.01,-44.44 0.16,-46.90 0.31,-48.68 0.45,-50.46 0.49,-52.48 0.53,-54.50 0.54,-54.60 0.54,-54.71 0.57,-54.81 0.61,-54.91 0.68,-54.99 0.74,-55.08 0.83,-55.13 0.92,-55.19 1.02,-55.22 1.13,-55.24 1.23,-55.24 1.34,-55.23 1.44,-55.19 1.53,-55.15 1.61,-55.08 1.69,-55.01 1.75,-54.91 1.80,-54.82 1.82,-54.72 1.84,-54.61 1.83,-54.51 1.81,-54.40 1.77,-54.31 1.72,-54.21 1.65,-54.14 1.57,-54.06 1.48,-54.01 1.38,-53.96 1.28,-53.95 1.17,-53.93 1.07,-53.95 0.96,-53.97 0.87,-54.02 0.78,-54.08 0.71,-54.15 0.63,-54.23 0.59,-54.33 0.55,-54.43 0.54,-54.53 0.53,-54.64 0.55,-54.74 0.58,-54.85 0.64,-54.94 0.69,-55.03 0.78,-55.09 0.86,-55.16 0.96,-55.20 1.06,-55.23 1.16,-55.24 1.27,-55.24 1.37,-55.21 1.47,-55.18 1.56,-55.12 1.65,-55.06 1.71,-54.97 1.77,-54.89 1.80,-54.79 1.83,-54.68 1.83,-54.68 1.83,-54.68 2.26,-52.52 2.69,-50.35 2.66,-48.55 2.63,-46.74 2.51,-44.27 2.38,-41.80 2.17,-38.56 1.96,-35.32 1.66,-31.12 1.36,-26.92 1.15,-23.52 0.94,-20.13 0.78,-17.02 0.61,-13.90 0.55,-11.20 0.49,-8.49 0.49,-6.47 0.49,-4.44 0.52,-3.14 0.55,-1.84 0.59,-0.97 0.64,-0.10 0.65,-0.02 0.65,0.04 0.63,0.12 0.62,0.20 0.59,0.27 0.55,0.34 0.50,0.40 0.45,0.47 0.39,0.51 0.33,0.56 0.25,0.59 0.18,0.62 0.10,0.64 0.02,0.65 -0.04,0.64 -0.12,0.64 -0.20,0.61 -0.27,0.59 -0.34,0.55 -0.41,0.51 -0.46,0.45 -0.52,0.39 -0.56,0.32 -0.60,0.26 -0.62,0.18 -0.64,0.10 -0.64,0.10 L -0.64,0.10 Z"/></g><g transform="translate(640.0000610351562 47.6451416015625) rotate(0 6.41339111328125 -2.037872314453125)" stroke="none"><path fill="#1e1e1e" d="M -0.19,-0.62 Q -0.19,-0.62 0.49,-0.99 1.18,-1.35 1.71,-1.60 2.25,-1.85 3.55,-2.37 4.86,-2.89 5.78,-3.22 6.70,-3.55 7.42,-3.78 8.15,-4.01 10.02,-4.30 11.89,-4.60 12.00,-4.60 12.10,-4.59 12.20,-4.56 12.30,-4.52 12.39,-4.46 12.47,-4.39 12.53,-4.30 12.59,-4.21 12.61,-4.11 12.64,-4.01 12.63,-3.90 12.62,-3.80 12.58,-3.70 12.54,-3.60 12.47,-3.52 12.40,-3.44 12.31,-3.39 12.22,-3.33 12.11,-3.31 12.01,-3.29 11.90,-3.30 11.80,-3.32 11.70,-3.36 11.61,-3.41 11.53,-3.48 11.46,-3.56 11.41,-3.65 11.36,-3.75 11.34,-3.85 11.33,-3.96 11.35,-4.06 11.37,-4.17 11.42,-4.26 11.47,-4.35 11.55,-4.43 11.63,-4.50 11.72,-4.54 11.82,-4.58 11.93,-4.59 12.03,-4.60 12.13,-4.58 12.24,-4.55 12.33,-4.50 12.42,-4.44 12.49,-4.36 12.55,-4.28 12.59,-4.18 12.63,-4.08 12.63,-3.97 12.64,-3.87 12.61,-3.76 12.58,-3.66 12.51,-3.58 12.45,-3.49 12.37,-3.43 12.28,-3.36 12.18,-3.33 12.08,-3.30 12.08,-3.30 12.08,-3.30 10.47,-2.62 8.85,-1.94 8.14,-1.68 7.43,-1.42 6.51,-1.11 5.58,-0.80 4.28,-0.39 2.98,0.00 2.36,0.21 1.75,0.42 0.97,0.52 0.19,0.62 0.12,0.64 0.04,0.65 -0.03,0.65 -0.11,0.64 -0.18,0.62 -0.26,0.60 -0.33,0.56 -0.40,0.51 -0.45,0.46 -0.51,0.40 -0.55,0.34 -0.59,0.27 -0.62,0.19 -0.64,0.12 -0.65,0.04 -0.65,-0.03 -0.64,-0.11 -0.62,-0.19 -0.59,-0.26 -0.56,-0.33 -0.51,-0.39 -0.46,-0.46 -0.40,-0.51 -0.34,-0.55 -0.27,-0.59 -0.19,-0.62 -0.19,-0.62 L -0.19,-0.62 Z"/></g><g transform="translate(658.8504028320312 50.312896728515625) rotate(0 17.92913818359375 4.00164794921875)" stroke="none"><path fill="#1e1e1e" d="M 0,0.65 Q 0,0.65 -0.83,0.82 -1.67,0.99 -2.29,1.06 -2.92,1.12 -3.72,1.33 -4.52,1.53 -5.14,1.93 -5.76,2.32 -6.27,3.08 -6.78,3.84 -6.94,4.66 -7.10,5.47 -7.07,6.17 -7.05,6.87 -6.91,7.43 -6.77,7.98 -6.30,8.79 -5.82,9.60 -5.12,9.90 -4.41,10.20 -3.62,9.97 -2.83,9.74 -2.02,8.97 -1.21,8.19 -0.80,7.59 -0.38,6.99 0.07,6.22 0.53,5.45 0.79,4.97 1.04,4.50 1.28,3.78 1.52,3.06 1.45,3.81 1.39,4.55 0.91,5.23 0.44,5.90 0.14,6.43 -0.15,6.96 0.20,6.46 0.56,5.95 0.68,5.87 0.81,5.79 0.95,5.74 1.09,5.69 1.24,5.67 1.39,5.66 1.54,5.68 1.69,5.70 1.83,5.76 1.97,5.82 2.09,5.90 2.21,5.99 2.31,6.11 2.41,6.22 2.47,6.36 2.54,6.49 2.57,6.64 2.61,6.79 2.60,6.94 2.60,7.09 2.56,7.23 2.52,7.38 2.45,7.51 2.37,7.64 2.27,7.75 2.17,7.86 2.09,7.32 2.00,6.78 2.42,6.35 2.83,5.91 2.81,5.09 2.79,4.28 2.43,3.80 2.07,3.32 1.42,3.08 0.77,2.84 0.55,2.77 0.34,2.70 0.20,2.64 0.07,2.59 -0.04,2.50 -0.16,2.41 -0.26,2.30 -0.35,2.19 -0.42,2.05 -0.49,1.92 -0.52,1.78 -0.55,1.63 -0.55,1.48 -0.55,1.34 -0.51,1.19 -0.47,1.05 -0.40,0.92 -0.33,0.79 -0.22,0.68 -0.12,0.57 -0.00,0.49 0.11,0.41 0.25,0.36 0.39,0.31 0.54,0.29 0.69,0.28 0.83,0.30 0.98,0.32 1.74,-0.06 2.50,-0.46 3.74,-0.81 4.99,-1.16 5.64,-1.29 6.28,-1.42 7.25,-1.61 8.22,-1.81 9.04,-1.78 9.87,-1.74 10.47,-1.45 11.08,-1.15 11.48,-0.78 11.88,-0.41 12.17,0.05 12.46,0.52 12.72,1.33 12.98,2.14 13.06,2.87 13.14,3.59 13.18,4.28 13.22,4.97 13.21,5.14 13.21,5.30 13.16,5.46 13.12,5.63 13.04,5.77 12.95,5.92 12.84,6.04 12.72,6.16 12.58,6.25 12.44,6.34 12.29,6.39 12.13,6.45 11.96,6.46 11.80,6.48 11.63,6.45 11.47,6.43 11.31,6.37 11.16,6.30 11.02,6.20 10.89,6.10 10.78,5.98 10.68,5.85 10.60,5.70 10.53,5.55 10.49,5.38 10.46,5.22 11.01,4.47 11.55,3.71 11.98,3.20 12.41,2.68 12.82,2.30 13.23,1.92 13.90,1.74 14.57,1.57 15.26,2.00 15.95,2.44 16.22,1.62 16.50,0.80 17.26,0.20 18.02,-0.40 18.87,-0.68 19.71,-0.95 20.59,-0.68 21.48,-0.41 21.81,0.03 22.13,0.47 22.31,1.00 22.48,1.54 22.62,2.26 22.76,2.98 23.56,3.26 24.36,3.53 24.98,3.33 25.60,3.12 26.38,2.59 27.15,2.07 27.71,1.38 28.27,0.69 28.54,0.10 28.82,-0.48 28.89,-1.20 28.95,-1.91 28.81,-1.34 28.67,-0.77 28.58,-0.12 28.49,0.53 28.49,1.11 28.50,1.68 28.84,2.45 29.17,3.22 30.43,3.55 31.68,3.88 32.95,3.73 34.22,3.58 35.76,3.22 37.31,2.86 39.85,1.85 42.39,0.83 42.49,0.80 42.60,0.77 42.70,0.77 42.81,0.78 42.91,0.81 43.01,0.85 43.09,0.92 43.17,0.98 43.23,1.07 43.29,1.16 43.31,1.26 43.34,1.37 43.33,1.47 43.32,1.58 43.28,1.68 43.24,1.77 43.17,1.85 43.10,1.93 43.01,1.98 42.91,2.04 42.81,2.06 42.70,2.08 42.60,2.06 42.49,2.05 42.40,2.00 42.30,1.96 42.23,1.88 42.15,1.81 42.11,1.71 42.06,1.62 42.04,1.51 42.03,1.40 42.05,1.30 42.07,1.20 42.12,1.10 42.17,1.01 42.25,0.94 42.33,0.87 42.43,0.83 42.53,0.78 42.63,0.78 42.74,0.77 42.84,0.79 42.94,0.82 43.03,0.87 43.12,0.93 43.19,1.01 43.26,1.10 43.29,1.20 43.33,1.30 43.33,1.40 43.34,1.51 43.30,1.61 43.27,1.71 43.21,1.80 43.15,1.88 43.06,1.95 42.98,2.01 42.98,2.01 42.98,2.01 40.43,3.27 37.88,4.53 36.22,5.28 34.55,6.02 32.88,6.25 31.21,6.49 29.67,6.13 28.13,5.77 27.47,5.18 26.81,4.59 26.46,3.90 26.11,3.20 25.96,2.43 25.80,1.66 25.83,0.88 25.86,0.11 26.01,-0.69 26.16,-1.49 26.92,-2.90 27.69,-4.31 28.35,-4.51 29.02,-4.71 29.64,-4.50 30.26,-4.28 30.75,-3.55 31.25,-2.82 31.32,-1.87 31.40,-0.93 31.14,0.12 30.88,1.18 30.62,1.68 30.36,2.17 30.00,2.67 29.65,3.16 29.22,3.60 28.80,4.04 28.24,4.48 27.68,4.92 27.11,5.21 26.55,5.50 25.87,5.74 25.19,5.99 24.26,6.03 23.34,6.07 22.61,5.95 21.89,5.82 21.43,5.51 20.97,5.19 20.68,4.54 20.39,3.89 20.31,3.35 20.23,2.80 19.81,2.21 19.39,1.62 18.93,1.95 18.48,2.29 18.00,2.93 17.51,3.58 16.85,4.22 16.18,4.85 15.27,4.59 14.37,4.33 13.79,4.65 13.22,4.97 13.21,5.14 13.21,5.30 13.16,5.46 13.12,5.63 13.04,5.77 12.95,5.92 12.84,6.04 12.72,6.16 12.58,6.25 12.44,6.34 12.29,6.39 12.13,6.45 11.96,6.46 11.80,6.48 11.63,6.45 11.47,6.43 11.31,6.37 11.16,6.30 11.02,6.20 10.89,6.10 10.78,5.98 10.68,5.85 10.60,5.70 10.53,5.55 10.49,5.38 10.46,5.22 10.44,4.54 10.42,3.86 10.37,3.23 10.33,2.61 10.16,2.00 10.00,1.40 9.59,1.04 9.18,0.69 8.50,0.75 7.83,0.81 7.30,0.93 6.78,1.04 6.21,1.16 5.63,1.27 4.45,1.60 3.27,1.92 2.48,2.17 1.69,2.42 1.02,2.56 0.34,2.70 0.21,2.64 0.07,2.59 -0.04,2.50 -0.16,2.41 -0.26,2.30 -0.35,2.19 -0.42,2.05 -0.49,1.92 -0.52,1.78 -0.55,1.63 -0.55,1.48 -0.55,1.34 -0.51,1.19 -0.47,1.05 -0.40,0.92 -0.33,0.79 -0.22,0.68 -0.12,0.57 -0.00,0.49 0.11,0.41 0.25,0.36 0.39,0.31 0.54,0.29 0.69,0.28 0.83,0.30 0.98,0.32 1.19,0.40 1.40,0.47 2.00,0.65 2.60,0.84 3.10,1.13 3.59,1.42 4.09,1.96 4.59,2.50 4.90,3.27 5.22,4.04 5.26,4.81 5.31,5.58 5.10,6.48 4.88,7.38 4.50,7.88 4.12,8.38 3.52,8.80 2.92,9.22 2.38,9.34 1.84,9.46 0.98,9.07 0.13,8.67 -0.15,7.97 -0.43,7.26 0.06,6.61 0.56,5.95 0.68,5.87 0.81,5.79 0.95,5.74 1.09,5.69 1.24,5.67 1.39,5.66 1.54,5.68 1.69,5.70 1.83,5.76 1.97,5.82 2.09,5.90 2.21,5.99 2.31,6.11 2.41,6.22 2.47,6.36 2.54,6.49 2.57,6.64 2.61,6.79 2.60,6.94 2.60,7.09 2.56,7.23 2.52,7.38 2.45,7.51 2.37,7.64 2.27,7.75 2.17,7.86 1.84,8.19 1.51,8.52 0.73,8.95 -0.04,9.38 -1.03,9.27 -2.02,9.16 -2.38,8.72 -2.75,8.28 -2.85,7.71 -2.94,7.15 -2.69,6.47 -2.45,5.79 -2.10,5.17 -1.75,4.56 -1.18,3.75 -0.62,2.95 -0.03,2.26 0.55,1.56 1.33,1.22 2.11,0.88 2.92,1.28 3.73,1.67 3.89,2.27 4.05,2.86 3.86,3.76 3.67,4.67 3.47,5.18 3.26,5.70 2.98,6.22 2.70,6.74 2.19,7.60 1.68,8.46 1.15,9.19 0.63,9.93 0.00,10.57 -0.62,11.22 -1.32,11.69 -2.02,12.15 -2.76,12.37 -3.50,12.60 -4.29,12.62 -5.09,12.64 -5.94,12.34 -6.79,12.04 -7.34,11.55 -7.90,11.07 -8.29,10.48 -8.68,9.90 -8.96,9.22 -9.25,8.53 -9.41,7.73 -9.57,6.93 -9.57,6.03 -9.57,5.14 -9.48,4.57 -9.39,3.99 -9.12,3.27 -8.85,2.54 -8.48,1.97 -8.10,1.40 -7.63,0.91 -7.16,0.42 -6.67,0.09 -6.18,-0.23 -5.65,-0.43 -5.13,-0.63 -4.09,-0.79 -3.05,-0.95 -2.36,-0.97 -1.67,-0.99 -0.83,-0.82 0,-0.65 0.07,-0.64 0.15,-0.63 0.23,-0.60 0.30,-0.58 0.37,-0.53 0.43,-0.49 0.48,-0.43 0.54,-0.37 0.57,-0.30 0.61,-0.23 0.63,-0.15 0.65,-0.07 0.65,0.00 0.65,0.07 0.63,0.15 0.61,0.23 0.57,0.30 0.54,0.37 0.48,0.43 0.43,0.49 0.37,0.53 0.30,0.58 0.23,0.60 0.15,0.63 0.07,0.64 -0.00,0.65 -0.00,0.65 L 0,0.65 Z"/></g><g transform="translate(741.7638549804688 48.460296630859375) rotate(0 9.07080078125 -7.188148498535156)" stroke="none"><path fill="#1e1e1e" d="M -0.27,0.59 Q -0.27,0.59 -0.82,0.45 -1.36,0.31 -2.23,0.37 -3.09,0.44 -4.00,0.83 -4.91,1.22 -5.57,1.72 -6.22,2.23 -6.70,2.74 -7.17,3.25 -7.44,3.76 -7.70,4.27 -7.87,4.88 -8.05,5.50 -8.07,6.04 -8.10,6.59 -7.76,7.45 -7.41,8.32 -6.86,8.61 -6.31,8.90 -5.45,8.58 -4.58,8.25 -4.04,7.89 -3.50,7.52 -2.87,6.98 -2.25,6.45 -1.35,5.33 -0.46,4.21 0.00,3.54 0.48,2.87 0.79,2.25 1.10,1.62 1.26,1.04 1.41,0.47 1.37,-0.44 1.32,-1.35 0.89,-2.15 0.46,-2.95 -0.24,-3.62 -0.94,-4.29 -1.49,-4.64 -2.04,-5.00 -2.27,-5.11 -2.49,-5.22 -2.61,-5.31 -2.73,-5.40 -2.82,-5.51 -2.91,-5.63 -2.97,-5.76 -3.03,-5.90 -3.06,-6.05 -3.09,-6.19 -3.08,-6.34 -3.07,-6.49 -3.03,-6.63 -2.99,-6.77 -2.91,-6.90 -2.83,-7.03 -2.73,-7.13 -2.63,-7.24 -2.50,-7.31 -2.37,-7.39 -2.23,-7.44 -2.09,-7.48 -1.94,-7.49 -1.79,-7.50 -1.65,-7.47 -1.50,-7.45 -1.37,-7.39 -1.23,-7.33 -0.20,-7.29 0.81,-7.24 1.44,-7.32 2.06,-7.40 2.84,-7.58 3.63,-7.75 4.55,-8.14 5.48,-8.53 6.59,-9.19 7.69,-9.84 9.13,-11.13 10.57,-12.41 11.79,-13.70 13.02,-14.98 14.02,-16.28 15.02,-17.58 15.82,-18.80 16.62,-20.01 17.23,-21.10 17.84,-22.19 18.24,-23.17 18.63,-24.15 18.91,-25.40 19.19,-26.66 19.25,-27.72 19.31,-28.79 19.25,-29.83 19.18,-30.86 19.01,-31.74 18.83,-32.62 18.59,-33.33 18.36,-34.05 18.04,-34.66 17.73,-35.27 17.04,-35.94 16.34,-36.61 15.66,-36.12 14.98,-35.62 14.58,-34.78 14.19,-33.94 13.81,-32.59 13.44,-31.24 13.11,-29.26 12.78,-27.28 12.54,-24.76 12.30,-22.25 12.18,-19.37 12.06,-16.48 12.03,-13.51 11.99,-10.55 12.02,-7.65 12.05,-4.75 12.20,-1.54 12.35,1.67 12.52,4.18 12.69,6.70 12.87,8.85 13.04,11.00 13.18,12.71 13.32,14.42 13.46,15.79 13.60,17.16 13.70,18.20 13.80,19.24 13.92,20.15 14.04,21.05 14.13,21.65 14.22,22.25 14.30,22.63 14.38,23.02 14.38,23.17 14.38,23.32 14.35,23.47 14.32,23.62 14.25,23.76 14.19,23.90 14.09,24.01 13.99,24.13 13.87,24.22 13.75,24.31 13.61,24.37 13.47,24.43 13.32,24.45 13.17,24.47 13.02,24.46 12.86,24.45 12.72,24.40 12.58,24.35 12.45,24.26 12.32,24.18 12.22,24.07 12.11,23.96 12.04,23.83 11.96,23.70 11.92,23.55 11.88,23.40 11.45,22.85 11.03,22.29 10.72,21.71 10.42,21.14 10.11,20.61 9.80,20.09 9.48,19.60 9.15,19.12 8.55,18.42 7.95,17.73 7.42,17.29 6.89,16.85 6.65,16.65 6.42,16.45 6.32,16.34 6.21,16.22 6.14,16.08 6.07,15.95 6.04,15.80 6.00,15.65 6.00,15.49 6.01,15.34 6.04,15.19 6.08,15.04 6.15,14.91 6.23,14.77 6.33,14.66 6.43,14.54 6.56,14.46 6.69,14.37 6.83,14.32 6.97,14.27 7.13,14.25 7.28,14.23 7.43,14.25 7.58,14.27 7.73,14.33 7.87,14.38 8.00,14.47 8.12,14.56 7.54,14.30 6.95,14.04 8.02,13.53 9.09,13.03 9.95,12.78 10.80,12.54 11.76,12.30 12.72,12.05 14.39,11.63 16.06,11.22 17.50,10.91 18.95,10.60 20.32,10.40 21.69,10.20 24.35,10.07 27.00,9.94 27.10,9.97 27.21,10.00 27.30,10.05 27.39,10.11 27.45,10.20 27.52,10.28 27.55,10.38 27.59,10.48 27.59,10.59 27.59,10.69 27.56,10.79 27.53,10.89 27.47,10.98 27.40,11.07 27.32,11.13 27.23,11.19 27.13,11.22 27.03,11.25 26.92,11.25 26.81,11.24 26.71,11.20 26.62,11.17 26.53,11.10 26.45,11.03 26.39,10.94 26.34,10.85 26.31,10.75 26.29,10.65 26.30,10.54 26.31,10.43 26.35,10.34 26.39,10.24 26.46,10.16 26.54,10.08 26.63,10.03 26.72,9.98 26.83,9.96 26.93,9.94 27.04,9.96 27.14,9.97 27.24,10.02 27.33,10.07 27.40,10.14 27.48,10.22 27.53,10.31 27.57,10.41 27.59,10.52 27.60,10.62 27.58,10.73 27.56,10.83 27.50,10.92 27.45,11.01 27.37,11.08 27.29,11.15 27.19,11.20 27.10,11.24 26.99,11.24 26.88,11.25 26.88,11.25 26.88,11.25 24.50,11.74 22.11,12.23 20.80,12.57 19.50,12.92 18.10,13.29 16.71,13.65 15.04,14.12 13.37,14.59 12.44,14.84 11.50,15.08 10.77,15.28 10.03,15.48 9.35,15.74 8.67,16.01 7.54,16.23 6.42,16.45 6.32,16.34 6.21,16.22 6.14,16.08 6.07,15.95 6.04,15.80 6.00,15.65 6.00,15.49 6.01,15.34 6.04,15.19 6.08,15.04 6.15,14.91 6.23,14.77 6.33,14.66 6.43,14.54 6.56,14.46 6.69,14.37 6.83,14.32 6.97,14.27 7.13,14.25 7.28,14.23 7.43,14.25 7.58,14.27 7.73,14.33 7.87,14.38 8.00,14.47 8.12,14.56 8.60,15.05 9.08,15.55 9.71,16.21 10.34,16.87 10.73,17.34 11.12,17.80 11.48,18.34 11.84,18.88 12.18,19.45 12.53,20.02 13.04,20.93 13.56,21.83 13.97,22.43 14.38,23.02 14.38,23.17 14.38,23.32 14.35,23.47 14.32,23.62 14.25,23.76 14.19,23.89 14.09,24.01 13.99,24.13 13.87,24.22 13.75,24.31 13.61,24.37 13.47,24.43 13.32,24.45 13.17,24.47 13.02,24.46 12.86,24.45 12.72,24.40 12.58,24.35 12.45,24.26 12.32,24.18 12.22,24.07 12.11,23.96 12.04,23.83 11.96,23.70 11.92,23.55 11.88,23.40 11.80,23.02 11.71,22.63 11.62,22.01 11.52,21.39 11.39,20.44 11.26,19.48 11.16,18.45 11.07,17.41 10.93,16.02 10.79,14.62 10.66,12.91 10.53,11.20 10.36,9.03 10.19,6.86 10.02,4.33 9.86,1.79 9.70,-1.47 9.55,-4.73 9.52,-7.65 9.50,-10.58 9.53,-13.58 9.56,-16.59 9.69,-19.54 9.82,-22.49 10.07,-25.09 10.32,-27.68 10.67,-29.80 11.02,-31.92 11.48,-33.50 11.94,-35.07 12.55,-36.21 13.15,-37.35 13.89,-38.02 14.64,-38.69 15.54,-38.89 16.44,-39.09 17.19,-38.84 17.94,-38.59 18.45,-38.14 18.96,-37.70 19.49,-37.08 20.02,-36.46 20.43,-35.67 20.83,-34.88 21.12,-34.01 21.42,-33.14 21.63,-32.09 21.84,-31.04 21.92,-29.84 22.00,-28.63 21.92,-27.35 21.85,-26.06 21.51,-24.59 21.17,-23.11 20.70,-21.98 20.23,-20.84 19.56,-19.67 18.90,-18.50 18.03,-17.21 17.17,-15.91 16.07,-14.51 14.97,-13.11 13.66,-11.75 12.35,-10.39 10.69,-8.96 9.04,-7.53 7.75,-6.80 6.47,-6.08 5.33,-5.63 4.18,-5.19 3.26,-5.00 2.33,-4.82 1.52,-4.74 0.71,-4.67 0.08,-4.70 -0.55,-4.73 -1.52,-4.97 -2.49,-5.22 -2.61,-5.31 -2.73,-5.40 -2.82,-5.51 -2.91,-5.63 -2.97,-5.76 -3.03,-5.90 -3.06,-6.05 -3.09,-6.19 -3.08,-6.34 -3.07,-6.49 -3.03,-6.63 -2.99,-6.77 -2.91,-6.90 -2.83,-7.03 -2.73,-7.13 -2.63,-7.24 -2.50,-7.31 -2.37,-7.39 -2.23,-7.44 -2.09,-7.48 -1.94,-7.49 -1.79,-7.50 -1.65,-7.47 -1.50,-7.45 -1.37,-7.39 -1.23,-7.33 -1.01,-7.21 -0.79,-7.09 -0.09,-6.60 0.59,-6.10 1.11,-5.64 1.63,-5.18 2.03,-4.70 2.43,-4.22 2.79,-3.63 3.16,-3.05 3.39,-2.41 3.63,-1.77 3.73,-1.07 3.84,-0.37 3.76,0.36 3.68,1.10 3.46,1.89 3.24,2.68 2.85,3.46 2.45,4.24 1.94,4.99 1.43,5.73 0.40,7.03 -0.62,8.33 -1.37,8.97 -2.12,9.61 -2.89,10.10 -3.66,10.60 -4.50,10.90 -5.33,11.20 -6.20,11.24 -7.06,11.28 -7.79,10.97 -8.52,10.65 -9.06,10.10 -9.59,9.55 -10.00,8.72 -10.41,7.88 -10.49,7.13 -10.56,6.38 -10.47,5.57 -10.38,4.77 -10.08,3.92 -9.79,3.07 -9.33,2.33 -8.86,1.59 -8.21,0.97 -7.55,0.35 -6.70,-0.20 -5.85,-0.76 -5.21,-1.02 -4.56,-1.29 -3.93,-1.39 -3.29,-1.49 -2.65,-1.52 -2.02,-1.56 -1.34,-1.40 -0.67,-1.24 -0.19,-0.92 0.27,-0.59 0.34,-0.55 0.40,-0.51 0.46,-0.45 0.52,-0.40 0.56,-0.33 0.60,-0.26 0.62,-0.18 0.64,-0.11 0.65,-0.03 0.65,0.04 0.64,0.12 0.62,0.20 0.59,0.27 0.55,0.34 0.50,0.40 0.46,0.46 0.39,0.51 0.33,0.56 0.26,0.59 0.19,0.62 0.11,0.64 0.03,0.65 -0.04,0.65 -0.12,0.64 -0.19,0.62 -0.27,0.59 -0.27,0.59 L -0.27,0.59 Z"/></g><g transform="translate(787.2598266601562 62.688385009765625) rotate(0 7.901611328125 -17.451637268066406)" stroke="none"><path fill="#1e1e1e" d="M -0.64,-0.11 Q -0.64,-0.11 -0.55,-1.15 -0.46,-2.19 -0.13,-3.59 0.19,-4.98 0.65,-6.62 1.12,-8.25 1.91,-10.89 2.70,-13.54 3.41,-15.84 4.11,-18.14 4.84,-20.50 5.58,-22.85 6.25,-24.96 6.92,-27.07 7.57,-28.94 8.23,-30.81 8.81,-32.42 9.38,-34.02 9.77,-35.04 10.17,-36.05 10.78,-36.93 11.39,-37.80 12.42,-37.59 13.46,-37.37 13.80,-36.52 14.14,-35.66 14.30,-34.10 14.47,-32.53 14.66,-30.46 14.85,-28.38 15.09,-25.76 15.34,-23.13 15.57,-19.70 15.81,-16.26 16.00,-13.60 16.20,-10.94 16.41,-8.78 16.62,-6.62 16.75,-5.01 16.88,-3.40 16.92,-2.18 16.96,-0.97 16.53,0.75 16.11,2.48 16.09,2.58 16.07,2.69 16.02,2.78 15.97,2.87 15.89,2.94 15.81,3.02 15.71,3.06 15.61,3.10 15.51,3.11 15.40,3.12 15.30,3.09 15.19,3.07 15.10,3.01 15.02,2.95 14.95,2.87 14.88,2.79 14.84,2.69 14.81,2.59 14.80,2.48 14.80,2.38 14.83,2.27 14.86,2.17 14.92,2.09 14.99,2.00 15.07,1.94 15.16,1.88 15.26,1.84 15.36,1.81 15.47,1.82 15.57,1.82 15.67,1.85 15.77,1.89 15.86,1.96 15.94,2.02 16.00,2.11 16.05,2.20 16.08,2.30 16.11,2.41 16.10,2.51 16.09,2.62 16.05,2.72 16.01,2.82 15.94,2.89 15.87,2.97 15.77,3.03 15.68,3.08 15.58,3.10 15.47,3.12 15.37,3.11 15.26,3.09 15.17,3.04 15.07,3.00 15.00,2.92 14.92,2.85 14.87,2.75 14.82,2.66 14.81,2.55 14.80,2.45 14.80,2.45 14.80,2.45 14.59,0.83 14.38,-0.78 14.25,-1.95 14.11,-3.12 13.92,-4.72 13.74,-6.32 13.50,-8.52 13.25,-10.72 13.06,-13.39 12.86,-16.07 12.64,-19.47 12.43,-22.87 12.20,-25.50 11.96,-28.13 11.79,-30.19 11.62,-32.26 11.50,-33.63 11.39,-35.00 11.37,-35.63 11.35,-36.26 11.98,-35.68 12.62,-35.09 12.23,-34.11 11.83,-33.13 11.24,-31.54 10.64,-29.95 9.98,-28.12 9.32,-26.28 8.61,-24.19 7.90,-22.09 7.12,-19.76 6.34,-17.43 5.58,-15.14 4.82,-12.84 3.90,-10.27 2.98,-7.70 2.48,-6.10 1.99,-4.50 1.59,-3.19 1.20,-1.89 0.92,-0.88 0.64,0.11 0.62,0.19 0.59,0.26 0.55,0.33 0.51,0.40 0.46,0.45 0.40,0.51 0.33,0.55 0.27,0.59 0.19,0.62 0.12,0.64 0.04,0.65 -0.03,0.65 -0.11,0.64 -0.19,0.62 -0.26,0.59 -0.33,0.56 -0.40,0.51 -0.46,0.46 -0.51,0.40 -0.56,0.34 -0.59,0.26 -0.62,0.19 -0.64,0.11 -0.65,0.04 -0.65,-0.03 -0.64,-0.11 -0.64,-0.11 L -0.64,-0.11 Z"/></g><g transform="translate(790.0236206054688 49.053131103515625) rotate(0 6.12994384765625 -0.9633636474609375)" stroke="none"><path fill="#1e1e1e" d="M -0.62,-0.20 Q -0.62,-0.20 -0.51,-1.00 -0.40,-1.80 0.52,-2.38 1.44,-2.97 2.58,-3.08 3.71,-3.20 4.82,-3.16 5.93,-3.11 7.07,-2.94 8.20,-2.76 10.59,-1.57 12.97,-0.39 13.03,-0.30 13.08,-0.20 13.10,-0.10 13.12,-0.00 13.11,0.10 13.10,0.21 13.05,0.30 13.00,0.40 12.93,0.47 12.86,0.55 12.76,0.60 12.67,0.65 12.56,0.66 12.46,0.68 12.35,0.66 12.25,0.64 12.15,0.59 12.06,0.54 11.99,0.46 11.92,0.38 11.87,0.28 11.83,0.18 11.82,0.08 11.81,-0.02 11.84,-0.12 11.86,-0.22 11.92,-0.31 11.97,-0.40 12.06,-0.47 12.14,-0.54 12.24,-0.58 12.34,-0.61 12.44,-0.62 12.55,-0.62 12.65,-0.59 12.75,-0.56 12.84,-0.50 12.93,-0.44 12.99,-0.35 13.05,-0.27 13.08,-0.17 13.12,-0.07 13.11,0.03 13.11,0.14 13.08,0.24 13.04,0.34 12.98,0.42 12.91,0.50 12.82,0.56 12.73,0.62 12.63,0.65 12.53,0.67 12.42,0.67 12.31,0.66 12.22,0.62 12.12,0.58 12.04,0.51 11.96,0.44 11.96,0.44 11.96,0.44 9.92,0.05 7.87,-0.33 6.85,-0.45 5.82,-0.57 4.83,-0.61 3.83,-0.66 3.07,-0.69 2.32,-0.72 1.77,-0.69 1.21,-0.66 0.92,-0.23 0.62,0.20 0.58,0.27 0.55,0.34 0.50,0.41 0.45,0.47 0.39,0.51 0.33,0.56 0.25,0.59 0.18,0.63 0.10,0.64 0.02,0.65 -0.05,0.64 -0.12,0.64 -0.20,0.61 -0.27,0.59 -0.34,0.55 -0.41,0.51 -0.46,0.45 -0.52,0.39 -0.56,0.32 -0.60,0.25 -0.62,0.18 -0.64,0.10 -0.65,0.02 -0.65,-0.05 -0.63,-0.12 -0.62,-0.20 -0.62,-0.20 L -0.62,-0.20 Z"/></g><g transform="translate(555.6693725585938 168.13922119140625) rotate(0 1.31097412109375 19.97119140625)" stroke="none"><path fill="#1e1e1e" d="M 0.58,0.30 Q 0.58,0.30 0.39,0.99 0.21,1.68 0.00,2.36 -0.20,3.04 -0.37,3.91 -0.54,4.79 -0.71,5.96 -0.87,7.14 -1.05,8.56 -1.23,9.98 -1.44,11.57 -1.65,13.16 -1.87,14.80 -2.09,16.44 -2.35,18.64 -2.61,20.83 -2.82,22.77 -3.03,24.70 -3.26,26.49 -3.49,28.29 -3.65,29.80 -3.80,31.30 -3.92,32.53 -4.05,33.75 -4.09,34.67 -4.14,35.58 -4.14,36.24 -4.14,36.91 -4.08,37.48 -4.01,38.05 -3.03,37.50 -2.05,36.95 -1.48,36.56 -0.91,36.17 0.19,34.98 1.31,33.78 2.01,32.98 2.72,32.18 3.34,31.34 3.96,30.50 4.47,29.65 4.98,28.80 5.47,27.81 5.97,26.81 6.22,26.10 6.47,25.38 6.59,24.86 6.71,24.33 6.43,23.79 6.16,23.24 5.37,23.23 4.58,23.21 4.03,23.34 3.49,23.47 2.90,23.69 2.31,23.90 1.70,24.16 1.10,24.41 -0.33,25.26 -1.76,26.11 -1.82,26.20 -1.88,26.28 -1.97,26.35 -2.05,26.41 -2.15,26.44 -2.26,26.48 -2.36,26.47 -2.47,26.47 -2.57,26.44 -2.67,26.40 -2.75,26.34 -2.84,26.27 -2.90,26.18 -2.95,26.10 -2.98,25.99 -3.01,25.89 -3.00,25.78 -2.99,25.68 -2.95,25.58 -2.91,25.48 -2.84,25.40 -2.77,25.32 -2.68,25.27 -2.59,25.21 -2.49,25.19 -2.38,25.17 -2.28,25.18 -2.17,25.20 -2.08,25.24 -1.98,25.29 -1.90,25.36 -1.83,25.44 -1.78,25.53 -1.73,25.62 -1.71,25.73 -1.70,25.83 -1.72,25.94 -1.73,26.04 -1.79,26.14 -1.84,26.23 -1.91,26.30 -1.99,26.37 -2.09,26.42 -2.19,26.46 -2.29,26.47 -2.40,26.48 -2.50,26.46 -2.60,26.43 -2.70,26.38 -2.79,26.32 -2.85,26.24 -2.92,26.16 -2.96,26.06 -3.00,25.96 -3.00,25.85 -3.01,25.75 -2.98,25.65 -2.95,25.54 -2.95,25.54 -2.95,25.54 -1.44,23.79 0.06,22.04 0.73,21.74 1.40,21.43 2.17,21.15 2.95,20.86 3.79,20.70 4.63,20.54 5.43,20.59 6.23,20.63 7.09,20.98 7.95,21.33 8.39,21.82 8.82,22.32 9.03,22.90 9.25,23.49 9.28,24.19 9.31,24.89 9.15,25.59 8.99,26.28 8.68,27.14 8.37,28.00 7.84,29.09 7.30,30.19 6.72,31.16 6.15,32.12 5.46,33.05 4.78,33.98 4.04,34.82 3.30,35.67 1.98,37.05 0.66,38.44 0.01,38.89 -0.63,39.34 -1.64,39.93 -2.66,40.53 -3.41,40.74 -4.16,40.95 -4.89,40.73 -5.62,40.50 -6.20,39.41 -6.78,38.31 -6.84,37.60 -6.90,36.90 -6.89,36.16 -6.88,35.42 -6.82,34.44 -6.75,33.47 -6.62,32.24 -6.48,31.02 -6.31,29.48 -6.14,27.94 -5.90,26.17 -5.65,24.40 -5.41,22.45 -5.18,20.50 -4.87,18.29 -4.56,16.07 -4.30,14.44 -4.04,12.82 -3.79,11.23 -3.55,9.65 -3.32,8.22 -3.09,6.78 -2.87,5.55 -2.65,4.31 -2.39,3.33 -2.13,2.35 -1.82,1.56 -1.51,0.78 -1.04,0.23 -0.58,-0.30 -0.53,-0.37 -0.49,-0.43 -0.43,-0.48 -0.37,-0.54 -0.30,-0.57 -0.23,-0.61 -0.15,-0.63 -0.07,-0.65 0.00,-0.65 0.08,-0.65 0.15,-0.63 0.23,-0.61 0.30,-0.57 0.37,-0.53 0.43,-0.48 0.49,-0.43 0.53,-0.36 0.58,-0.30 0.61,-0.22 0.63,-0.15 0.64,-0.07 0.65,0.00 0.64,0.08 0.63,0.15 0.60,0.23 0.58,0.30 0.58,0.30 L 0.58,0.30 Z"/></g><g transform="translate(578.7716674804688 200.7452392578125) rotate(0 -4.535400390625 8.04034423828125)" stroke="none"><path fill="#1e1e1e" d="M 0.59,0.27 Q 0.59,0.27 0.16,1.36 -0.26,2.45 -0.93,3.92 -1.60,5.39 -2.38,6.87 -3.15,8.34 -3.64,9.23 -4.14,10.13 -4.69,11.03 -5.24,11.93 -6.66,13.86 -8.08,15.79 -8.15,15.87 -8.22,15.94 -8.32,15.99 -8.41,16.04 -8.52,16.06 -8.62,16.08 -8.73,16.06 -8.83,16.04 -8.92,15.99 -9.02,15.94 -9.09,15.87 -9.16,15.79 -9.21,15.69 -9.25,15.59 -9.26,15.49 -9.28,15.38 -9.25,15.28 -9.23,15.18 -9.17,15.09 -9.12,14.99 -9.04,14.93 -8.96,14.86 -8.86,14.82 -8.76,14.78 -8.65,14.77 -8.55,14.77 -8.44,14.80 -8.34,14.83 -8.25,14.88 -8.17,14.94 -8.10,15.03 -8.04,15.11 -8.01,15.21 -7.97,15.32 -7.97,15.42 -7.97,15.53 -8.01,15.63 -8.04,15.73 -8.10,15.81 -8.17,15.90 -8.26,15.96 -8.35,16.02 -8.45,16.05 -8.55,16.07 -8.66,16.07 -8.76,16.06 -8.86,16.02 -8.96,15.98 -9.04,15.91 -9.12,15.84 -9.18,15.75 -9.23,15.66 -9.25,15.56 -9.28,15.45 -9.26,15.35 -9.25,15.24 -9.21,15.15 -9.16,15.05 -9.16,15.05 -9.16,15.05 -8.03,12.99 -6.91,10.92 -6.38,10.04 -5.85,9.17 -5.35,8.28 -4.84,7.40 -4.03,6.00 -3.21,4.59 -2.45,3.19 -1.69,1.80 -1.14,0.76 -0.59,-0.27 -0.55,-0.34 -0.51,-0.40 -0.45,-0.46 -0.40,-0.51 -0.33,-0.56 -0.26,-0.60 -0.18,-0.62 -0.11,-0.64 -0.03,-0.65 0.04,-0.65 0.12,-0.64 0.20,-0.62 0.27,-0.59 0.34,-0.55 0.40,-0.51 0.46,-0.46 0.51,-0.39 0.56,-0.33 0.59,-0.26 0.62,-0.19 0.64,-0.11 0.65,-0.03 0.65,0.04 0.64,0.12 0.62,0.19 0.59,0.27 0.59,0.27 L 0.59,0.27 Z"/></g><g transform="translate(613.3543090820312 191.92678833007812) rotate(0 9.70867919921875 2.4454498291015625)" stroke="none"><path fill="#1e1e1e" d="M -0.20,0.62 Q -0.20,0.62 -0.75,0.56 -1.30,0.51 -2.02,0.38 -2.74,0.25 -3.91,0.23 -5.08,0.20 -6.12,0.42 -7.15,0.64 -7.90,0.93 -8.64,1.22 -8.95,1.76 -9.25,2.31 -9.24,3.31 -9.23,4.31 -8.94,5.10 -8.64,5.89 -7.95,6.85 -7.26,7.81 -6.78,8.11 -6.30,8.41 -5.27,8.60 -4.25,8.79 -3.24,8.47 -2.23,8.15 -1.68,7.71 -1.13,7.26 -0.69,6.79 -0.25,6.31 0.03,5.83 0.31,5.34 0.57,4.57 0.83,3.79 0.60,3.29 0.37,2.78 -0.36,2.15 -1.10,1.52 -1.77,1.23 -2.45,0.94 -3.18,0.79 -3.92,0.63 -4.07,0.59 -4.21,0.55 -4.35,0.47 -4.48,0.40 -4.59,0.29 -4.70,0.18 -4.78,0.06 -4.86,-0.06 -4.91,-0.21 -4.95,-0.35 -4.97,-0.50 -4.98,-0.65 -4.95,-0.80 -4.93,-0.95 -4.87,-1.09 -4.81,-1.23 -4.72,-1.36 -4.63,-1.48 -4.51,-1.57 -4.39,-1.67 -4.25,-1.73 -4.11,-1.80 -3.97,-1.83 -3.82,-1.86 -3.66,-1.85 -3.51,-1.85 -2.76,-1.68 -2.01,-1.52 -0.89,-1.52 0.22,-1.52 0.92,-1.62 1.62,-1.71 2.32,-1.86 3.03,-2.00 3.70,-2.19 4.37,-2.39 4.94,-2.66 5.50,-2.93 6.11,-3.24 6.71,-3.55 7.24,-3.85 7.77,-4.14 8.26,-4.48 8.76,-4.82 9.40,-5.19 10.04,-5.57 10.33,-5.83 10.62,-6.09 10.76,-6.18 10.89,-6.26 11.04,-6.31 11.19,-6.36 11.35,-6.37 11.51,-6.38 11.67,-6.35 11.82,-6.32 11.97,-6.26 12.12,-6.20 12.24,-6.10 12.37,-6.00 12.47,-5.88 12.57,-5.75 12.63,-5.61 12.70,-5.47 12.73,-5.31 12.76,-5.15 12.75,-5.00 12.74,-4.84 12.70,-4.68 12.65,-4.53 12.57,-4.40 12.49,-4.26 12.38,-4.15 12.27,-4.03 12.01,-3.51 11.75,-2.98 11.59,-2.13 11.43,-1.27 11.39,-0.71 11.35,-0.14 11.31,0.45 11.27,1.05 11.27,1.99 11.26,2.93 11.37,3.97 11.49,5.01 11.72,5.90 11.95,6.80 12.37,7.29 12.80,7.79 13.29,7.57 13.79,7.35 14.51,6.59 15.22,5.84 15.62,5.25 16.02,4.66 16.40,3.98 16.79,3.30 17.17,2.63 17.55,1.96 17.96,1.10 18.36,0.24 18.68,-0.44 19.00,-1.14 19.28,-1.77 19.55,-2.40 19.74,-2.90 19.93,-3.39 20.18,-4.02 20.42,-4.64 20.55,-5.08 20.67,-5.51 20.75,-5.66 20.83,-5.81 20.94,-5.94 21.05,-6.06 21.19,-6.16 21.33,-6.26 21.48,-6.32 21.64,-6.38 21.81,-6.40 21.98,-6.42 22.15,-6.40 22.31,-6.39 22.47,-6.33 22.63,-6.27 22.77,-6.17 22.91,-6.08 23.02,-5.95 23.14,-5.83 23.22,-5.68 23.30,-5.53 23.34,-5.37 23.38,-5.20 23.38,-5.03 23.38,-4.86 23.34,-4.70 23.30,-4.53 23.15,-3.74 22.99,-2.95 22.89,-2.36 22.79,-1.77 22.64,-0.88 22.50,0.01 22.42,0.78 22.35,1.54 22.31,2.17 22.28,2.80 22.31,3.39 22.34,3.99 22.50,4.81 22.66,5.64 22.90,6.11 23.14,6.59 23.87,5.98 24.60,5.38 24.98,4.97 25.35,4.56 25.82,3.96 26.29,3.37 26.71,2.83 27.12,2.29 28.29,1.16 29.45,0.02 29.51,-0.06 29.57,-0.15 29.65,-0.22 29.73,-0.29 29.83,-0.32 29.93,-0.36 30.03,-0.37 30.14,-0.37 30.24,-0.34 30.34,-0.31 30.43,-0.25 30.52,-0.19 30.58,-0.11 30.64,-0.02 30.68,0.07 30.71,0.17 30.71,0.28 30.71,0.38 30.67,0.48 30.64,0.58 30.57,0.67 30.51,0.75 30.42,0.81 30.33,0.87 30.23,0.90 30.13,0.92 30.02,0.92 29.91,0.91 29.81,0.87 29.72,0.83 29.64,0.76 29.56,0.69 29.50,0.60 29.45,0.51 29.43,0.40 29.41,0.30 29.42,0.19 29.43,0.09 29.48,-0.00 29.52,-0.09 29.60,-0.17 29.67,-0.25 29.76,-0.30 29.86,-0.34 29.96,-0.36 30.07,-0.38 30.17,-0.36 30.28,-0.34 30.37,-0.29 30.46,-0.24 30.54,-0.16 30.61,-0.08 30.65,0.00 30.70,0.10 30.71,0.21 30.72,0.31 30.69,0.42 30.67,0.52 30.67,0.52 30.67,0.52 30.06,2.29 29.45,4.07 29.03,4.63 28.60,5.19 28.05,5.88 27.50,6.57 27.02,7.08 26.53,7.60 26.00,8.05 25.46,8.51 24.85,8.84 24.24,9.17 23.62,9.27 23.00,9.37 22.39,9.21 21.77,9.05 21.22,8.60 20.66,8.15 20.23,7.25 19.80,6.35 19.67,5.82 19.54,5.29 19.47,4.70 19.39,4.11 19.36,3.37 19.34,2.64 19.38,1.94 19.42,1.24 19.51,0.39 19.60,-0.46 19.76,-1.37 19.91,-2.29 20.03,-2.94 20.16,-3.60 20.41,-4.56 20.67,-5.51 20.75,-5.66 20.83,-5.81 20.94,-5.94 21.05,-6.06 21.19,-6.16 21.33,-6.26 21.48,-6.32 21.64,-6.38 21.81,-6.40 21.98,-6.42 22.15,-6.40 22.31,-6.39 22.47,-6.33 22.63,-6.27 22.77,-6.17 22.91,-6.08 23.02,-5.95 23.14,-5.83 23.22,-5.68 23.30,-5.53 23.34,-5.37 23.38,-5.20 23.38,-5.03 23.38,-4.86 23.34,-4.70 23.30,-4.53 23.09,-4.06 22.88,-3.59 22.65,-3.02 22.41,-2.45 22.20,-1.89 21.99,-1.33 21.70,-0.68 21.42,-0.03 21.09,0.67 20.76,1.38 20.32,2.33 19.87,3.27 19.49,3.95 19.11,4.62 18.67,5.39 18.23,6.16 17.74,6.88 17.25,7.60 16.70,8.22 16.15,8.83 15.59,9.28 15.03,9.72 14.41,10.01 13.78,10.29 13.16,10.33 12.54,10.37 11.88,10.17 11.23,9.97 10.54,9.27 9.85,8.57 9.45,7.59 9.04,6.60 8.91,6.00 8.78,5.41 8.66,4.21 8.53,3.00 8.52,2.47 8.51,1.93 8.52,1.40 8.54,0.86 8.58,0.25 8.62,-0.35 8.68,-1.03 8.73,-1.70 8.95,-2.80 9.17,-3.90 9.39,-4.41 9.61,-4.91 10.12,-5.50 10.62,-6.09 10.76,-6.18 10.89,-6.26 11.04,-6.31 11.19,-6.36 11.35,-6.37 11.51,-6.38 11.67,-6.35 11.82,-6.32 11.97,-6.26 12.12,-6.20 12.24,-6.10 12.37,-6.00 12.47,-5.88 12.57,-5.75 12.63,-5.61 12.70,-5.47 12.73,-5.31 12.76,-5.15 12.75,-5.00 12.74,-4.84 12.70,-4.68 12.65,-4.53 12.57,-4.40 12.49,-4.26 12.38,-4.15 12.27,-4.03 11.83,-3.72 11.40,-3.40 10.79,-3.05 10.19,-2.69 9.60,-2.30 9.02,-1.91 8.45,-1.59 7.88,-1.27 7.23,-0.94 6.58,-0.61 5.84,-0.27 5.09,0.05 4.31,0.28 3.53,0.51 2.74,0.66 1.94,0.82 1.13,0.91 0.31,1.01 -1.05,1.00 -2.42,0.99 -3.17,0.81 -3.92,0.63 -4.07,0.59 -4.21,0.55 -4.35,0.47 -4.48,0.40 -4.59,0.29 -4.70,0.18 -4.78,0.06 -4.86,-0.06 -4.91,-0.21 -4.95,-0.35 -4.97,-0.50 -4.98,-0.65 -4.95,-0.80 -4.93,-0.95 -4.87,-1.09 -4.81,-1.23 -4.72,-1.36 -4.63,-1.48 -4.51,-1.57 -4.39,-1.67 -4.25,-1.73 -4.11,-1.80 -3.97,-1.83 -3.82,-1.86 -3.66,-1.85 -3.51,-1.85 -2.88,-1.73 -2.24,-1.61 -1.44,-1.31 -0.64,-1.01 -0.13,-0.73 0.38,-0.46 0.94,-0.02 1.51,0.41 2.05,1.05 2.60,1.69 2.85,2.28 3.10,2.87 3.03,4.07 2.97,5.28 2.70,5.95 2.44,6.63 2.00,7.33 1.56,8.02 0.97,8.63 0.38,9.24 -0.42,9.84 -1.24,10.44 -2.04,10.76 -2.85,11.09 -3.67,11.19 -4.50,11.29 -5.30,11.19 -6.09,11.09 -6.89,10.80 -7.69,10.52 -8.43,9.99 -9.17,9.47 -9.77,8.72 -10.38,7.98 -10.70,7.34 -11.01,6.70 -11.36,5.59 -11.71,4.47 -11.74,3.60 -11.77,2.72 -11.61,1.97 -11.46,1.23 -11.10,0.60 -10.73,-0.01 -9.80,-0.62 -8.86,-1.24 -8.29,-1.43 -7.72,-1.62 -6.89,-1.79 -6.06,-1.96 -5.51,-1.98 -4.95,-1.99 -4.15,-1.91 -3.35,-1.82 -2.83,-1.73 -2.30,-1.64 -1.51,-1.41 -0.73,-1.19 -0.26,-0.90 0.20,-0.62 0.27,-0.58 0.35,-0.55 0.41,-0.50 0.47,-0.45 0.52,-0.39 0.56,-0.32 0.59,-0.25 0.63,-0.18 0.64,-0.10 0.65,-0.02 0.64,0.05 0.64,0.13 0.61,0.20 0.59,0.28 0.55,0.34 0.50,0.41 0.45,0.47 0.39,0.52 0.32,0.56 0.25,0.60 0.18,0.62 0.10,0.64 0.02,0.65 -0.05,0.65 -0.13,0.63 -0.20,0.62 -0.20,0.62 L -0.20,0.62 Z"/></g><g transform="translate(649.4960327148438 160.13592529296875) rotate(0 -2.5157470703125 20.60107421875)" stroke="none"><path fill="#1e1e1e" d="M 0.64,0.10 Q 0.64,0.10 0.53,2.27 0.42,4.44 0.18,5.94 -0.05,7.45 -0.25,8.71 -0.45,9.96 -0.95,13.83 -1.45,17.70 -1.80,19.96 -2.14,22.21 -2.48,25.11 -2.83,28.00 -3.05,30.18 -3.26,32.36 -3.42,33.90 -3.57,35.45 -3.92,37.96 -4.26,40.48 -4.27,40.59 -4.29,40.69 -4.33,40.79 -4.38,40.88 -4.45,40.96 -4.52,41.04 -4.62,41.09 -4.71,41.13 -4.82,41.15 -4.92,41.17 -5.03,41.15 -5.13,41.13 -5.22,41.08 -5.32,41.03 -5.39,40.95 -5.46,40.88 -5.51,40.78 -5.55,40.68 -5.56,40.58 -5.57,40.47 -5.55,40.37 -5.53,40.26 -5.47,40.17 -5.41,40.08 -5.33,40.01 -5.25,39.95 -5.15,39.91 -5.05,39.87 -4.95,39.86 -4.84,39.86 -4.74,39.89 -4.64,39.92 -4.55,39.98 -4.46,40.04 -4.40,40.12 -4.34,40.21 -4.30,40.31 -4.27,40.41 -4.27,40.52 -4.27,40.62 -4.30,40.72 -4.34,40.82 -4.40,40.91 -4.47,40.99 -4.56,41.05 -4.65,41.11 -4.75,41.14 -4.85,41.16 -4.96,41.16 -5.06,41.15 -5.16,41.11 -5.26,41.07 -5.34,41.00 -5.42,40.93 -5.47,40.84 -5.53,40.75 -5.55,40.65 -5.57,40.54 -5.57,40.54 -5.57,40.54 -5.76,37.89 -5.96,35.25 -5.85,33.69 -5.74,32.12 -5.54,29.91 -5.33,27.70 -4.97,24.76 -4.61,21.83 -4.25,19.59 -3.90,17.36 -3.33,13.47 -2.76,9.58 -2.54,8.33 -2.32,7.07 -2.06,5.57 -1.81,4.07 -1.22,1.98 -0.64,-0.10 -0.62,-0.18 -0.60,-0.25 -0.56,-0.32 -0.52,-0.39 -0.47,-0.45 -0.41,-0.50 -0.34,-0.55 -0.28,-0.59 -0.20,-0.61 -0.13,-0.64 -0.05,-0.64 0.02,-0.65 0.10,-0.64 0.18,-0.63 0.25,-0.59 0.32,-0.56 0.39,-0.52 0.45,-0.47 0.50,-0.41 0.55,-0.35 0.58,-0.27 0.62,-0.20 0.63,-0.13 0.65,-0.05 0.65,0.02 0.64,0.10 0.64,0.10 L 0.64,0.10 Z"/></g><g transform="translate(639.6456909179688 182.88601684570312) rotate(0 5.59844970703125 -1.0374603271484375)" stroke="none"><path fill="#1e1e1e" d="M -0.15,-0.63 Q -0.15,-0.63 0.80,-1.21 1.76,-1.78 2.66,-2.02 3.56,-2.26 4.40,-2.44 5.24,-2.61 5.98,-2.74 6.72,-2.87 8.64,-2.70 10.56,-2.53 10.66,-2.51 10.77,-2.49 10.86,-2.43 10.95,-2.38 11.02,-2.30 11.09,-2.22 11.13,-2.12 11.17,-2.02 11.18,-1.92 11.18,-1.81 11.16,-1.71 11.13,-1.61 11.07,-1.52 11.01,-1.43 10.93,-1.36 10.84,-1.30 10.74,-1.26 10.64,-1.23 10.54,-1.23 10.43,-1.23 10.33,-1.26 10.23,-1.29 10.14,-1.36 10.06,-1.42 10.00,-1.51 9.94,-1.59 9.91,-1.70 9.88,-1.80 9.88,-1.90 9.89,-2.01 9.92,-2.11 9.96,-2.21 10.03,-2.29 10.10,-2.37 10.19,-2.43 10.28,-2.48 10.38,-2.51 10.49,-2.53 10.59,-2.52 10.70,-2.51 10.79,-2.47 10.89,-2.42 10.97,-2.35 11.05,-2.28 11.10,-2.19 11.15,-2.09 11.17,-1.99 11.19,-1.88 11.17,-1.78 11.15,-1.67 11.11,-1.58 11.06,-1.48 10.98,-1.41 10.90,-1.34 10.81,-1.29 10.71,-1.25 10.61,-1.23 10.50,-1.22 10.50,-1.22 10.50,-1.22 8.88,-0.85 7.26,-0.49 6.53,-0.29 5.81,-0.09 5.02,0.10 4.23,0.29 3.31,0.52 2.39,0.76 1.27,0.70 0.15,0.63 0.07,0.64 -0.00,0.65 -0.07,0.64 -0.15,0.63 -0.23,0.60 -0.30,0.58 -0.37,0.53 -0.43,0.49 -0.48,0.43 -0.54,0.37 -0.57,0.30 -0.61,0.23 -0.63,0.15 -0.65,0.07 -0.65,-0.00 -0.65,-0.07 -0.63,-0.15 -0.61,-0.23 -0.57,-0.30 -0.54,-0.37 -0.48,-0.43 -0.43,-0.49 -0.37,-0.53 -0.30,-0.58 -0.23,-0.60 -0.15,-0.63 -0.15,-0.63 L -0.15,-0.63 Z"/></g><g transform="translate(661.7559204101562 190.88931274414062) rotate(0 21.43701171875 4.5944976806640625)" stroke="none"><path fill="#1e1e1e" d="M -0.52,0.39 Q -0.52,0.39 -0.98,0.10 -1.43,-0.19 -2.07,0.09 -2.70,0.37 -3.68,1.17 -4.66,1.96 -5.23,2.55 -5.79,3.15 -6.27,3.78 -6.75,4.41 -7.13,5.04 -7.51,5.67 -7.82,6.47 -8.13,7.27 -8.32,7.94 -8.51,8.61 -8.55,9.15 -8.60,9.69 -8.38,10.28 -8.17,10.88 -7.45,11.16 -6.74,11.45 -6.17,11.40 -5.61,11.34 -4.87,11.16 -4.14,10.98 -3.39,10.65 -2.64,10.33 -1.82,9.89 -1.01,9.45 -0.19,8.96 0.62,8.48 1.46,7.86 2.29,7.25 2.93,6.81 3.57,6.37 4.24,5.83 4.90,5.28 5.61,4.89 6.31,4.49 6.97,4.54 7.62,4.58 8.03,4.95 8.44,5.32 8.61,5.85 8.78,6.38 8.88,7.13 8.99,7.88 9.14,8.39 9.30,8.90 10.04,8.91 10.78,8.91 11.23,8.53 11.68,8.15 12.13,7.49 12.59,6.84 12.61,6.29 12.63,5.75 12.35,5.27 12.07,4.79 11.35,4.27 10.63,3.76 9.92,3.39 9.21,3.02 8.50,2.69 7.79,2.36 7.35,2.10 6.91,1.85 6.78,1.75 6.66,1.65 6.56,1.53 6.45,1.40 6.39,1.25 6.32,1.11 6.29,0.95 6.25,0.79 6.26,0.63 6.27,0.47 6.31,0.32 6.36,0.16 6.44,0.02 6.52,-0.11 6.63,-0.22 6.75,-0.34 6.88,-0.42 7.02,-0.51 7.17,-0.56 7.32,-0.61 7.49,-0.62 7.65,-0.63 7.80,-0.61 7.96,-0.58 8.11,-0.52 8.26,-0.45 9.06,-1.07 9.86,-1.68 10.46,-1.79 11.06,-1.90 12.11,-2.12 13.17,-2.34 13.82,-2.39 14.48,-2.45 15.13,-2.45 15.78,-2.45 16.59,-2.38 17.41,-2.32 18.07,-2.20 18.73,-2.08 19.30,-1.91 19.87,-1.73 20.41,-1.43 20.96,-1.13 21.38,-0.74 21.80,-0.34 22.12,0.15 22.44,0.65 22.66,1.36 22.88,2.08 22.95,2.66 23.02,3.25 23.03,3.95 23.04,4.66 23.00,5.23 22.96,5.80 22.93,5.98 22.89,6.15 22.82,6.31 22.74,6.46 22.63,6.60 22.52,6.74 22.38,6.84 22.24,6.95 22.08,7.02 21.92,7.09 21.74,7.11 21.57,7.14 21.40,7.13 21.22,7.11 21.05,7.06 20.89,7.00 20.74,6.91 20.59,6.82 20.47,6.69 20.35,6.56 20.26,6.41 20.17,6.26 20.12,6.09 20.07,5.92 20.07,5.75 20.06,5.57 20.31,5.06 20.56,4.54 21.07,3.80 21.57,3.05 22.22,2.58 22.87,2.10 23.47,2.05 24.07,1.99 24.68,2.27 25.28,2.55 25.83,3.12 26.38,3.68 25.74,3.73 25.10,3.78 25.84,2.94 26.59,2.10 27.05,1.58 27.52,1.06 27.99,0.57 28.45,0.08 28.90,-0.33 29.35,-0.75 30.40,-1.31 31.45,-1.87 32.16,-1.63 32.87,-1.39 33.21,-0.84 33.54,-0.28 33.68,0.66 33.82,1.61 33.85,2.39 33.88,3.17 33.95,3.86 34.02,4.55 34.54,4.43 35.07,4.30 35.57,4.08 36.07,3.87 36.80,3.47 37.53,3.08 38.16,2.62 38.79,2.17 39.36,1.70 39.93,1.24 40.44,0.77 40.95,0.29 41.29,-0.11 41.63,-0.52 42.11,-1.26 42.60,-2.01 42.21,-1.59 41.83,-1.17 41.62,-0.25 41.42,0.65 41.68,1.73 41.94,2.80 42.60,3.48 43.26,4.16 43.77,4.40 44.28,4.63 45.00,4.89 45.72,5.15 46.49,5.21 47.25,5.26 49.41,5.21 51.56,5.15 51.67,5.15 51.78,5.15 51.88,5.18 51.98,5.21 52.06,5.27 52.15,5.34 52.21,5.42 52.27,5.51 52.30,5.61 52.33,5.71 52.33,5.82 52.33,5.93 52.29,6.02 52.25,6.12 52.18,6.21 52.12,6.29 52.03,6.35 51.94,6.40 51.83,6.43 51.73,6.45 51.63,6.44 51.52,6.43 51.42,6.39 51.33,6.35 51.25,6.28 51.17,6.21 51.12,6.11 51.06,6.02 51.05,5.92 51.03,5.81 51.04,5.71 51.06,5.60 51.10,5.51 51.15,5.41 51.23,5.34 51.30,5.26 51.40,5.22 51.49,5.17 51.60,5.15 51.70,5.14 51.81,5.16 51.91,5.18 52.00,5.24 52.10,5.29 52.17,5.37 52.24,5.45 52.28,5.55 52.32,5.64 52.33,5.75 52.34,5.86 52.31,5.96 52.28,6.06 52.23,6.15 52.17,6.24 52.08,6.31 52.00,6.37 51.90,6.41 51.80,6.44 51.80,6.44 51.80,6.44 49.50,7.00 47.20,7.55 46.09,7.56 44.99,7.56 44.08,7.31 43.18,7.05 42.36,6.68 41.54,6.31 40.89,5.75 40.23,5.19 39.77,4.46 39.31,3.72 39.01,2.72 38.70,1.71 38.70,0.94 38.70,0.17 38.85,-0.56 39.01,-1.31 39.30,-2.00 39.59,-2.69 40.02,-3.26 40.44,-3.84 40.97,-4.27 41.50,-4.71 42.21,-4.90 42.92,-5.10 43.53,-4.92 44.15,-4.74 44.53,-4.34 44.92,-3.94 45.09,-3.43 45.27,-2.92 45.26,-2.33 45.24,-1.74 44.81,-0.77 44.37,0.18 44.02,0.68 43.66,1.17 43.21,1.70 42.76,2.23 42.19,2.77 41.61,3.31 40.97,3.82 40.34,4.34 39.56,4.88 38.79,5.42 37.95,5.87 37.11,6.31 36.50,6.57 35.89,6.83 35.24,7.02 34.58,7.21 33.90,7.17 33.21,7.14 32.65,6.79 32.08,6.44 31.74,5.68 31.41,4.92 31.35,4.38 31.28,3.85 31.28,3.27 31.28,2.69 31.17,1.86 31.06,1.04 30.68,1.42 30.29,1.79 29.85,2.28 29.41,2.76 28.99,3.23 28.56,3.70 28.19,4.16 27.82,4.62 26.99,5.33 26.15,6.03 24.96,5.30 23.78,4.58 23.37,5.19 22.96,5.80 22.93,5.98 22.89,6.15 22.82,6.31 22.74,6.46 22.63,6.60 22.52,6.74 22.38,6.84 22.24,6.95 22.08,7.02 21.92,7.09 21.74,7.11 21.57,7.14 21.40,7.13 21.22,7.11 21.05,7.06 20.89,7.00 20.74,6.91 20.59,6.82 20.47,6.69 20.35,6.56 20.26,6.41 20.17,6.26 20.12,6.09 20.07,5.92 20.07,5.75 20.06,5.57 20.13,4.80 20.20,4.02 20.19,3.40 20.18,2.79 20.02,2.17 19.85,1.55 19.45,1.19 19.05,0.83 18.11,0.59 17.18,0.35 16.48,0.29 15.77,0.22 14.73,0.26 13.69,0.29 13.15,0.40 12.61,0.50 11.58,0.71 10.55,0.91 9.78,1.15 9.01,1.40 7.96,1.62 6.91,1.85 6.78,1.75 6.66,1.65 6.56,1.53 6.45,1.40 6.39,1.25 6.32,1.11 6.29,0.95 6.25,0.79 6.26,0.63 6.27,0.47 6.31,0.32 6.36,0.16 6.44,0.02 6.52,-0.11 6.63,-0.22 6.75,-0.34 6.88,-0.42 7.02,-0.51 7.17,-0.56 7.32,-0.61 7.49,-0.62 7.65,-0.63 7.80,-0.61 7.96,-0.58 8.11,-0.52 8.26,-0.45 8.90,-0.07 9.54,0.30 10.29,0.66 11.04,1.02 11.58,1.33 12.12,1.63 12.63,2.00 13.14,2.37 13.66,2.85 14.18,3.33 14.57,3.99 14.96,4.64 15.06,5.17 15.16,5.70 15.14,6.28 15.13,6.87 14.67,7.90 14.22,8.92 13.72,9.54 13.21,10.15 12.39,10.73 11.56,11.31 10.51,11.55 9.46,11.78 8.73,11.53 7.99,11.27 7.43,10.53 6.86,9.80 6.64,9.02 6.42,8.25 6.72,7.60 7.03,6.96 6.53,7.36 6.02,7.77 5.55,8.15 5.07,8.53 4.47,8.95 3.86,9.36 2.93,10.07 1.99,10.77 1.13,11.29 0.26,11.81 -0.66,12.31 -1.58,12.82 -2.55,13.22 -3.52,13.62 -4.52,13.84 -5.52,14.06 -6.54,14.05 -7.56,14.05 -8.53,13.66 -9.49,13.27 -10.04,12.70 -10.59,12.12 -10.88,11.47 -11.16,10.82 -11.23,10.11 -11.30,9.41 -11.21,8.64 -11.11,7.86 -10.87,7.05 -10.62,6.24 -10.20,5.26 -9.77,4.28 -9.30,3.53 -8.82,2.78 -8.23,2.05 -7.64,1.33 -6.95,0.65 -6.26,-0.02 -5.59,-0.54 -4.92,-1.05 -4.25,-1.47 -3.57,-1.89 -2.80,-2.10 -2.03,-2.32 -1.44,-2.24 -0.85,-2.16 -0.35,-1.84 0.13,-1.51 0.32,-0.95 0.52,-0.39 0.56,-0.33 0.60,-0.26 0.62,-0.18 0.64,-0.11 0.65,-0.03 0.65,0.04 0.63,0.12 0.62,0.20 0.59,0.27 0.55,0.34 0.50,0.40 0.45,0.46 0.39,0.51 0.33,0.56 0.26,0.59 0.18,0.62 0.11,0.64 0.03,0.65 -0.04,0.65 -0.12,0.64 -0.20,0.62 -0.27,0.59 -0.34,0.55 -0.41,0.51 -0.46,0.45 -0.52,0.39 -0.52,0.39 L -0.52,0.39 Z"/></g><g transform="translate(739.2835083007812 192.14910888671875) rotate(0 8.43304443359375 -2.593658447265625)" stroke="none"><path fill="#1e1e1e" d="M -0.12,0.64 Q -0.12,0.64 -0.80,0.67 -1.48,0.70 -2.27,0.94 -3.07,1.18 -3.63,1.74 -4.20,2.30 -4.45,2.83 -4.69,3.37 -4.89,3.99 -5.09,4.62 -5.23,5.26 -5.37,5.90 -5.34,6.54 -5.30,7.18 -5.04,7.83 -4.78,8.48 -4.30,8.13 -3.82,7.77 -3.54,7.30 -3.25,6.83 -3.01,6.32 -2.77,5.80 -2.61,5.27 -2.46,4.73 -2.39,4.20 -2.33,3.67 -2.47,2.77 -2.62,1.88 -3.06,1.01 -3.51,0.13 -3.92,-0.29 -4.34,-0.73 -4.72,-0.91 -5.11,-1.08 -5.21,-1.18 -5.32,-1.28 -5.40,-1.40 -5.48,-1.52 -5.53,-1.66 -5.58,-1.80 -5.59,-1.94 -5.61,-2.09 -5.58,-2.23 -5.56,-2.37 -5.51,-2.51 -5.45,-2.64 -5.37,-2.76 -5.28,-2.88 -5.17,-2.97 -5.06,-3.07 -4.93,-3.13 -4.80,-3.20 -4.66,-3.23 -4.52,-3.26 -4.38,-3.26 -4.23,-3.25 -4.09,-3.21 -3.95,-3.18 -3.82,-3.11 -3.70,-3.04 -3.16,-2.72 -2.63,-2.41 -1.87,-2.52 -1.10,-2.63 -0.44,-2.88 0.22,-3.13 1.30,-3.83 2.39,-4.53 3.50,-5.40 4.61,-6.26 5.68,-7.21 6.75,-8.16 7.76,-9.25 8.77,-10.35 9.66,-11.44 10.56,-12.53 11.30,-13.61 12.05,-14.68 12.63,-15.72 13.21,-16.75 13.69,-18.10 14.17,-19.44 14.46,-20.64 14.74,-21.84 14.77,-23.02 14.80,-24.19 14.70,-25.29 14.61,-26.38 14.46,-27.42 14.32,-28.46 14.13,-29.26 13.94,-30.05 13.70,-30.72 13.47,-31.38 13.44,-30.80 13.41,-30.23 13.05,-28.77 12.69,-27.31 12.43,-25.64 12.18,-23.98 11.97,-22.08 11.76,-20.18 11.63,-17.97 11.51,-15.76 11.39,-13.36 11.28,-10.96 11.17,-8.22 11.06,-5.48 11.05,-2.00 11.05,1.48 10.99,4.20 10.92,6.92 10.88,9.26 10.83,11.60 10.79,13.68 10.75,15.77 10.77,17.59 10.79,19.41 10.80,20.86 10.81,22.31 10.81,23.39 10.81,24.47 10.80,25.38 10.78,26.29 10.79,26.85 10.80,27.40 10.78,27.56 10.76,27.72 10.70,27.87 10.64,28.03 10.55,28.16 10.46,28.29 10.34,28.40 10.22,28.51 10.08,28.58 9.94,28.66 9.78,28.69 9.62,28.73 9.46,28.73 9.30,28.73 9.14,28.70 8.99,28.66 8.85,28.58 8.70,28.51 8.58,28.40 8.46,28.29 8.37,28.16 8.28,28.03 8.22,27.88 8.16,27.73 8.14,27.57 8.12,27.41 8.03,26.75 7.93,26.09 7.80,25.50 7.68,24.91 7.53,24.27 7.38,23.63 7.18,22.90 6.98,22.18 6.74,21.52 6.50,20.87 6.12,20.22 5.74,19.56 5.40,19.06 5.06,18.55 4.48,17.87 3.90,17.18 3.41,16.86 2.93,16.54 2.39,16.34 1.85,16.13 1.70,16.03 1.56,15.94 1.44,15.81 1.32,15.68 1.24,15.52 1.15,15.37 1.11,15.20 1.07,15.03 1.06,14.85 1.06,14.68 1.10,14.51 1.14,14.34 1.22,14.18 1.30,14.02 1.42,13.89 1.53,13.76 1.67,13.66 1.82,13.56 1.98,13.49 2.14,13.43 2.32,13.40 2.49,13.38 2.66,13.40 2.84,13.42 3.00,13.48 3.17,13.54 4.07,12.97 4.97,12.40 5.96,12.10 6.95,11.80 8.17,11.40 9.38,11.00 10.78,10.58 12.19,10.16 13.52,9.78 14.85,9.40 15.72,9.14 16.59,8.88 17.68,8.61 18.76,8.35 20.61,8.09 22.45,7.83 22.56,7.83 22.66,7.82 22.76,7.85 22.87,7.87 22.96,7.93 23.05,7.99 23.11,8.07 23.18,8.16 23.21,8.26 23.25,8.36 23.25,8.46 23.25,8.57 23.22,8.67 23.19,8.77 23.12,8.86 23.06,8.94 22.97,9.00 22.89,9.06 22.78,9.09 22.68,9.12 22.58,9.12 22.47,9.12 22.37,9.08 22.27,9.04 22.19,8.97 22.11,8.91 22.05,8.81 21.99,8.72 21.97,8.62 21.95,8.52 21.96,8.41 21.97,8.31 22.01,8.21 22.05,8.11 22.12,8.03 22.20,7.96 22.29,7.90 22.38,7.85 22.49,7.83 22.59,7.82 22.70,7.83 22.80,7.85 22.90,7.90 22.99,7.94 23.06,8.02 23.14,8.10 23.18,8.19 23.23,8.29 23.24,8.39 23.26,8.50 23.24,8.60 23.21,8.71 23.16,8.80 23.11,8.89 23.03,8.96 22.95,9.03 22.85,9.07 22.75,9.11 22.75,9.11 22.75,9.11 21.11,9.80 19.48,10.48 18.44,10.92 17.41,11.36 16.54,11.68 15.68,11.99 14.37,12.45 13.06,12.91 11.71,13.37 10.36,13.82 9.10,14.27 7.85,14.72 6.88,15.03 5.91,15.33 4.96,15.63 4.02,15.93 2.93,16.03 1.85,16.13 1.70,16.03 1.56,15.94 1.44,15.81 1.32,15.68 1.24,15.52 1.15,15.37 1.11,15.20 1.07,15.03 1.06,14.85 1.06,14.68 1.10,14.51 1.14,14.34 1.22,14.18 1.30,14.02 1.42,13.89 1.53,13.76 1.67,13.66 1.82,13.56 1.98,13.49 2.14,13.43 2.32,13.40 2.49,13.38 2.66,13.40 2.84,13.42 3.00,13.48 3.17,13.54 3.80,13.90 4.44,14.25 5.13,14.82 5.82,15.38 6.18,15.80 6.55,16.21 6.87,16.69 7.19,17.16 7.57,17.75 7.94,18.35 8.38,19.19 8.83,20.03 9.09,20.77 9.36,21.51 9.57,22.29 9.79,23.06 9.95,23.72 10.11,24.39 10.24,24.97 10.37,25.55 10.58,26.48 10.80,27.40 10.78,27.56 10.76,27.72 10.70,27.87 10.64,28.03 10.55,28.16 10.46,28.29 10.34,28.40 10.22,28.50 10.08,28.58 9.94,28.66 9.78,28.69 9.62,28.73 9.46,28.73 9.30,28.73 9.14,28.70 8.99,28.66 8.85,28.58 8.70,28.51 8.58,28.40 8.46,28.29 8.37,28.16 8.28,28.03 8.22,27.88 8.16,27.73 8.14,27.57 8.12,27.41 8.09,26.85 8.05,26.30 8.03,25.39 8.02,24.49 8.01,23.40 8.00,22.32 7.99,20.88 7.98,19.44 7.95,17.58 7.92,15.71 7.97,13.63 8.01,11.55 8.06,9.20 8.11,6.85 8.17,4.16 8.23,1.47 8.24,-2.06 8.25,-5.59 8.37,-8.35 8.48,-11.10 8.60,-13.51 8.72,-15.92 8.86,-18.21 9.00,-20.49 9.22,-22.44 9.44,-24.40 9.72,-26.19 10.01,-27.98 10.44,-29.64 10.87,-31.30 11.25,-32.16 11.63,-33.01 12.20,-33.59 12.77,-34.17 13.45,-34.22 14.13,-34.27 14.81,-33.81 15.48,-33.35 15.76,-32.80 16.03,-32.26 16.30,-31.47 16.56,-30.68 16.78,-29.75 16.99,-28.82 17.14,-27.72 17.29,-26.61 17.40,-25.35 17.50,-24.10 17.43,-22.66 17.37,-21.22 17.04,-19.87 16.72,-18.52 16.15,-16.97 15.57,-15.43 14.92,-14.28 14.27,-13.13 13.46,-11.97 12.65,-10.82 11.70,-9.66 10.76,-8.50 9.64,-7.32 8.53,-6.14 7.39,-5.13 6.24,-4.13 5.02,-3.20 3.79,-2.27 2.45,-1.47 1.10,-0.67 0.27,-0.39 -0.56,-0.11 -1.27,0.02 -1.99,0.15 -2.57,0.12 -3.16,0.10 -3.70,-0.04 -4.24,-0.18 -4.67,-0.63 -5.11,-1.08 -5.21,-1.18 -5.32,-1.28 -5.40,-1.40 -5.48,-1.52 -5.53,-1.66 -5.58,-1.80 -5.59,-1.94 -5.61,-2.09 -5.58,-2.23 -5.56,-2.37 -5.51,-2.51 -5.46,-2.64 -5.37,-2.76 -5.28,-2.88 -5.17,-2.97 -5.06,-3.07 -4.93,-3.13 -4.80,-3.20 -4.66,-3.23 -4.52,-3.26 -4.38,-3.26 -4.23,-3.25 -4.09,-3.21 -3.95,-3.18 -3.82,-3.11 -3.70,-3.04 -3.20,-2.70 -2.70,-2.36 -2.14,-1.73 -1.58,-1.10 -1.19,-0.45 -0.80,0.18 -0.61,0.70 -0.43,1.21 -0.23,1.91 -0.04,2.61 -0.03,3.28 -0.02,3.95 -0.10,4.67 -0.19,5.39 -0.40,6.09 -0.61,6.80 -0.93,7.49 -1.24,8.19 -1.80,8.96 -2.36,9.74 -2.87,10.09 -3.39,10.44 -4.11,10.63 -4.82,10.83 -5.91,10.22 -6.99,9.61 -7.24,9.08 -7.48,8.56 -7.62,7.89 -7.76,7.23 -7.75,6.29 -7.74,5.36 -7.55,4.59 -7.36,3.83 -7.08,3.06 -6.79,2.28 -6.37,1.53 -5.95,0.79 -4.88,-0.04 -3.81,-0.87 -3.09,-1.07 -2.38,-1.26 -1.75,-1.24 -1.11,-1.21 -0.49,-0.93 0.12,-0.64 0.20,-0.61 0.27,-0.59 0.34,-0.55 0.41,-0.51 0.46,-0.45 0.52,-0.39 0.56,-0.33 0.60,-0.26 0.62,-0.18 0.64,-0.11 0.65,-0.03 0.65,0.04 0.63,0.12 0.62,0.20 0.59,0.27 0.55,0.34 0.50,0.40 0.45,0.47 0.39,0.51 0.33,0.56 0.26,0.59 0.18,0.62 0.10,0.64 0.03,0.65 -0.04,0.65 -0.12,0.64 -0.12,0.64 L -0.12,0.64 Z"/></g><g transform="translate(789.6693725585938 163.0260009765625) rotate(0 0.85028076171875 16.52532958984375)" stroke="none"><path fill="#1e1e1e" d="M 0.65,-0.08 Q 0.65,-0.08 1.05,0.84 1.45,1.76 1.65,3.19 1.85,4.62 2.08,6.42 2.30,8.23 2.51,10.63 2.73,13.04 2.86,15.30 3.00,17.57 3.09,20.20 3.18,22.84 3.17,24.80 3.17,26.77 3.16,27.87 3.15,28.98 3.06,30.06 2.97,31.14 2.93,31.68 2.89,32.22 2.82,32.65 2.76,33.07 2.73,33.23 2.70,33.38 2.64,33.52 2.58,33.67 2.48,33.79 2.39,33.92 2.27,34.02 2.14,34.11 2.00,34.18 1.86,34.25 1.71,34.28 1.55,34.31 1.40,34.30 1.24,34.29 1.09,34.25 0.94,34.20 0.80,34.12 0.67,34.04 0.56,33.93 0.45,33.82 0.36,33.69 0.28,33.56 0.23,33.41 0.18,33.26 0.17,33.10 0.16,32.95 0.18,31.71 0.20,30.46 0.03,28.89 -0.12,27.32 -0.12,27.22 -0.12,27.11 -0.08,27.01 -0.05,26.91 0.01,26.83 0.07,26.74 0.16,26.68 0.25,26.63 0.35,26.60 0.46,26.57 0.56,26.58 0.67,26.59 0.77,26.63 0.86,26.67 0.94,26.74 1.02,26.81 1.08,26.90 1.13,27.00 1.15,27.10 1.17,27.20 1.16,27.31 1.15,27.41 1.10,27.51 1.05,27.61 0.98,27.68 0.90,27.76 0.81,27.81 0.71,27.85 0.61,27.87 0.50,27.88 0.40,27.86 0.29,27.85 0.20,27.79 0.11,27.74 0.04,27.66 -0.02,27.59 -0.07,27.49 -0.11,27.39 -0.12,27.29 -0.13,27.18 -0.10,27.08 -0.08,26.97 -0.02,26.88 0.02,26.79 0.11,26.73 0.19,26.66 0.29,26.62 0.39,26.58 0.49,26.58 0.60,26.58 0.70,26.61 0.80,26.64 0.89,26.70 0.98,26.76 1.04,26.84 1.10,26.93 1.13,27.03 1.17,27.13 1.17,27.13 1.17,27.13 1.47,28.66 1.77,30.19 2.03,30.99 2.29,31.78 2.52,32.43 2.76,33.07 2.73,33.23 2.70,33.38 2.64,33.52 2.58,33.67 2.48,33.79 2.39,33.92 2.27,34.02 2.14,34.11 2.00,34.18 1.86,34.25 1.71,34.28 1.55,34.31 1.40,34.30 1.24,34.29 1.09,34.25 0.94,34.20 0.81,34.12 0.67,34.04 0.56,33.93 0.45,33.82 0.36,33.69 0.28,33.56 0.23,33.41 0.18,33.26 0.17,33.10 0.16,32.95 0.16,32.52 0.16,32.09 0.17,31.53 0.18,30.97 0.22,29.97 0.25,28.96 0.25,27.86 0.26,26.76 0.27,24.84 0.28,22.92 0.23,20.32 0.18,17.72 0.08,15.48 -0.01,13.25 -0.17,10.88 -0.33,8.52 -0.50,6.72 -0.67,4.93 -0.81,3.50 -0.96,2.07 -0.80,1.07 -0.65,0.08 -0.65,0.00 -0.65,-0.07 -0.63,-0.15 -0.61,-0.22 -0.57,-0.29 -0.54,-0.36 -0.49,-0.42 -0.43,-0.48 -0.37,-0.53 -0.30,-0.57 -0.23,-0.60 -0.16,-0.63 -0.08,-0.64 -0.00,-0.65 0.07,-0.64 0.15,-0.63 0.22,-0.61 0.30,-0.58 0.36,-0.53 0.43,-0.49 0.48,-0.43 0.53,-0.37 0.57,-0.30 0.61,-0.23 0.63,-0.15 0.65,-0.08 0.65,-0.08 L 0.65,-0.08 Z"/></g><g transform="translate(785.3464965820312 164.58218383789062) rotate(0 9.17718505859375 19.711837768554688)" stroke="none"><path fill="#1e1e1e" d="M -0.64,0.12 Q -0.64,0.12 -0.88,-0.46 -1.12,-1.06 -1.35,-1.85 -1.59,-2.64 -1.53,-3.50 -1.47,-4.36 -1.14,-4.91 -0.82,-5.47 -0.39,-5.90 0.03,-6.33 0.56,-6.71 1.08,-7.08 1.87,-7.37 2.65,-7.65 3.58,-7.75 4.50,-7.85 5.60,-7.63 6.70,-7.42 7.75,-7.00 8.79,-6.59 10.03,-5.76 11.27,-4.94 12.22,-4.03 13.17,-3.13 13.95,-2.18 14.72,-1.23 15.35,-0.17 15.98,0.88 16.40,2.01 16.82,3.13 17.06,4.35 17.31,5.57 17.38,6.83 17.45,8.09 17.19,9.82 16.93,11.54 16.48,13.02 16.02,14.50 15.44,15.74 14.85,16.98 14.16,18.03 13.47,19.08 12.74,19.94 12.01,20.81 11.13,21.62 10.26,22.43 9.62,22.94 8.99,23.44 8.46,23.79 7.92,24.14 7.34,24.49 6.76,24.85 6.59,24.93 6.42,25.01 6.23,25.05 6.04,25.08 5.85,25.07 5.67,25.06 5.48,25.01 5.30,24.96 5.14,24.86 4.97,24.76 4.84,24.63 4.70,24.50 4.60,24.34 4.50,24.17 4.44,23.99 4.38,23.81 4.37,23.62 4.36,23.43 4.39,23.25 4.42,23.06 4.50,22.89 4.57,22.71 4.69,22.56 4.80,22.41 4.95,22.29 5.10,22.17 5.60,21.99 6.11,21.81 6.78,21.72 7.46,21.63 8.34,21.65 9.22,21.66 10.24,21.78 11.26,21.90 12.35,22.16 13.43,22.42 14.52,22.80 15.61,23.19 16.88,23.92 18.16,24.64 19.11,25.46 20.07,26.28 20.79,27.27 21.50,28.26 21.96,29.59 22.42,30.91 22.59,32.33 22.76,33.76 22.71,35.11 22.66,36.46 22.07,38.32 21.49,40.17 20.62,41.58 19.75,43.00 18.60,44.11 17.46,45.22 15.90,45.98 14.34,46.73 12.58,46.95 10.83,47.16 9.04,46.95 7.26,46.73 5.05,45.73 2.84,44.73 0.50,43.63 -1.82,42.53 -1.91,42.47 -2.00,42.41 -2.07,42.33 -2.13,42.24 -2.17,42.14 -2.20,42.04 -2.21,41.94 -2.21,41.83 -2.18,41.73 -2.14,41.63 -2.08,41.54 -2.02,41.46 -1.93,41.40 -1.84,41.34 -1.74,41.31 -1.64,41.28 -1.53,41.28 -1.43,41.28 -1.33,41.32 -1.23,41.36 -1.15,41.43 -1.07,41.49 -1.01,41.58 -0.95,41.67 -0.93,41.78 -0.90,41.88 -0.91,41.99 -0.92,42.09 -0.97,42.19 -1.01,42.29 -1.08,42.36 -1.15,42.44 -1.25,42.49 -1.34,42.55 -1.44,42.56 -1.55,42.58 -1.65,42.57 -1.76,42.55 -1.85,42.50 -1.95,42.46 -2.02,42.38 -2.10,42.30 -2.14,42.21 -2.19,42.11 -2.20,42.01 -2.21,41.90 -2.19,41.80 -2.17,41.69 -2.12,41.60 -2.07,41.51 -1.99,41.44 -1.91,41.37 -1.81,41.33 -1.71,41.29 -1.60,41.28 -1.50,41.27 -1.40,41.30 -1.29,41.33 -1.29,41.33 -1.29,41.33 1.08,42.10 3.46,42.87 5.52,43.28 7.57,43.69 9.02,43.80 10.46,43.90 11.71,43.76 12.95,43.62 14.04,43.15 15.13,42.67 16.00,41.89 16.87,41.12 17.58,40.08 18.28,39.05 18.81,37.65 19.35,36.25 19.43,35.16 19.51,34.08 19.43,32.96 19.35,31.85 19.11,30.93 18.87,30.01 18.43,29.31 17.99,28.62 17.29,27.97 16.58,27.33 15.57,26.73 14.56,26.14 13.62,25.80 12.69,25.47 11.79,25.25 10.88,25.03 10.02,24.92 9.15,24.81 7.96,24.83 6.76,24.85 6.59,24.93 6.42,25.01 6.23,25.05 6.04,25.08 5.86,25.07 5.67,25.06 5.48,25.01 5.30,24.96 5.14,24.86 4.97,24.76 4.84,24.63 4.70,24.50 4.60,24.34 4.50,24.17 4.44,23.99 4.38,23.81 4.37,23.62 4.36,23.43 4.39,23.25 4.42,23.06 4.50,22.89 4.57,22.71 4.69,22.56 4.80,22.41 4.95,22.29 5.10,22.17 5.33,22.04 5.56,21.91 6.31,21.44 7.06,20.97 7.62,20.55 8.17,20.13 8.93,19.46 9.69,18.80 10.32,18.08 10.95,17.37 11.55,16.52 12.14,15.66 12.67,14.63 13.19,13.59 13.61,12.32 14.03,11.05 14.30,9.63 14.57,8.20 14.53,7.15 14.50,6.11 14.32,5.10 14.13,4.09 13.82,3.20 13.52,2.30 13.01,1.42 12.51,0.53 11.86,-0.29 11.21,-1.11 10.44,-1.87 9.68,-2.64 8.70,-3.34 7.72,-4.03 6.90,-4.39 6.08,-4.75 5.38,-4.95 4.68,-5.15 3.60,-5.02 2.52,-4.89 1.86,-4.45 1.20,-4.00 0.89,-3.44 0.57,-2.89 0.60,-2.15 0.63,-1.40 0.64,-0.76 0.64,-0.12 0.65,-0.04 0.65,0.03 0.64,0.10 0.62,0.18 0.59,0.25 0.56,0.33 0.51,0.39 0.47,0.45 0.40,0.50 0.34,0.55 0.27,0.59 0.20,0.62 0.12,0.63 0.04,0.65 -0.03,0.65 -0.10,0.64 -0.18,0.62 -0.26,0.60 -0.32,0.56 -0.39,0.52 -0.45,0.46 -0.51,0.41 -0.55,0.34 -0.59,0.27 -0.61,0.20 -0.64,0.12 -0.64,0.12 L -0.64,0.12 Z"/></g></svg>