<svg version="1.1" xmlns="http://www.w3.org/2000/svg" viewBox="0 0 873.7953186035156 485.0804443359375" width="873.7953186035156" height="485.0804443359375" filter="invert(93%) hue-rotate(180deg)" class="excalidraw-svg">
  <!-- svg-source:excalidraw -->
  
  <defs>
    <style class="style-fonts">
      @font-face {
        font-family: "Virgil";
        src: url("https://excalidraw.com/Virgil.woff2");
      }
      @font-face {
        font-family: "Cascadia";
        src: url("https://excalidraw.com/Cascadia.woff2");
      }
      @font-face {
        font-family: "Assistant";
        src: url("https://excalidraw.com/Assistant-Regular.woff2");
      }
    </style>
    
  </defs>
  <rect x="0" y="0" width="873.7953186035156" height="485.0804443359375" fill="#ffffff"/><g stroke-linecap="round" transform="translate(179.29922485351562 48.830810546875) rotate(0 73.94882202148438 75.88310241699219)"><path d="M32 0 C53.49 1.47, 72.23 -0.14, 115.9 0 M32 0 C53.66 0.45, 73.74 0.41, 115.9 0 M115.9 0 C137.64 -1.81, 146.66 11.59, 147.9 32 M115.9 0 C136.38 -0.99, 146.81 10.81, 147.9 32 M147.9 32 C147.52 52.38, 148.69 75.99, 147.9 119.77 M147.9 32 C148.21 59.98, 147.49 90.08, 147.9 119.77 M147.9 119.77 C147.55 142.74, 138.48 150.04, 115.9 151.77 M147.9 119.77 C145.63 138.94, 135.37 149.94, 115.9 151.77 M115.9 151.77 C99.16 153.14, 79.9 151.58, 32 151.77 M115.9 151.77 C93.06 152.79, 70.53 152.56, 32 151.77 M32 151.77 C11.01 151.49, 1.87 141.81, 0 119.77 M32 151.77 C10.2 149.91, 1.4 142.04, 0 119.77 M0 119.77 C-1.16 91.87, 0.21 64.04, 0 32 M0 119.77 C1.05 89.76, 0.83 59.25, 0 32 M0 32 C0.05 11.54, 10.24 1.18, 32 0 M0 32 C-1.13 12.59, 10.02 0.25, 32 0" stroke="#1e1e1e" stroke-width="2" fill="none"/></g><g stroke-linecap="round" transform="translate(531.1299438476562 256.0802764892578) rotate(0 73.94882202148438 75.88310241699219)"><path d="M32 0 C49.38 -1.03, 64.1 1.44, 115.9 0 M32 0 C63.05 0.91, 93.3 1.04, 115.9 0 M115.9 0 C137.48 -1.6, 147.09 12.55, 147.9 32 M115.9 0 C138.21 0.84, 149.96 11.31, 147.9 32 M147.9 32 C146.63 48.74, 147.39 66.61, 147.9 119.77 M147.9 32 C147.19 61.87, 147.07 92.89, 147.9 119.77 M147.9 119.77 C147.99 141.74, 136.93 153.51, 115.9 151.77 M147.9 119.77 C148.11 142.02, 135.55 152.2, 115.9 151.77 M115.9 151.77 C100.47 152.9, 80.1 151.04, 32 151.77 M115.9 151.77 C89.22 150.27, 62.36 151.77, 32 151.77 M32 151.77 C9.38 150.98, 1.58 139.81, 0 119.77 M32 151.77 C11.51 150.98, -1.74 139.48, 0 119.77 M0 119.77 C0.06 94.15, 0.63 62.81, 0 32 M0 119.77 C1.46 96.25, 0.29 73.61, 0 32 M0 32 C-1.39 12.47, 9.01 -1.94, 32 0 M0 32 C-0.82 10.49, 10.71 -0.27, 32 0" stroke="#1e1e1e" stroke-width="2" fill="none"/></g><g stroke-linecap="round" transform="translate(527.3740234375 43.17610168457031) rotate(0 73.94882202148438 75.88310241699219)"><path d="M32 0 C55.69 0.39, 75.11 0.29, 115.9 0 M32 0 C58.95 -1.07, 85.25 0.67, 115.9 0 M115.9 0 C138.08 0.73, 149.69 11.23, 147.9 32 M115.9 0 C135.01 -0.53, 149.8 9.44, 147.9 32 M147.9 32 C148.75 53.56, 148.55 73.42, 147.9 119.77 M147.9 32 C147.18 51.7, 146.98 71.63, 147.9 119.77 M147.9 119.77 C148.08 141.9, 135.77 152.14, 115.9 151.77 M147.9 119.77 C145.64 143.11, 135.72 153.49, 115.9 151.77 M115.9 151.77 C83.94 153.66, 49.44 151.12, 32 151.77 M115.9 151.77 C95.72 152.07, 77.62 151.82, 32 151.77 M32 151.77 C11.4 151.08, -1.51 139.69, 0 119.77 M32 151.77 C11 152.93, -1.01 141.68, 0 119.77 M0 119.77 C-1.15 82.96, 0.54 51.16, 0 32 M0 119.77 C-0.23 95.9, -0.37 69.27, 0 32 M0 32 C-0.72 10.52, 10.7 -0.23, 32 0 M0 32 C1.32 10.13, 10.11 -1.7, 32 0" stroke="#1e1e1e" stroke-width="2" fill="none"/></g><g stroke-linecap="round" transform="translate(121.68502807617188 10) rotate(0 307.0275573730469 232.54022216796875)"><path d="M32 0 C189.29 2.43, 346.8 1.83, 582.06 0 M582.06 0 C602.55 1.5, 615.74 10.03, 614.06 32 M614.06 32 C612.97 128.8, 611.89 227.47, 614.06 433.08 M614.06 433.08 C615.36 454.87, 601.96 463.25, 582.06 465.08 M582.06 465.08 C410.96 467.1, 239.07 466.32, 32 465.08 M32 465.08 C11.1 466.63, -1.76 454.84, 0 433.08 M0 433.08 C2.13 337.35, 1.42 241, 0 32 M0 32 C0.85 10.02, 11.02 -0.54, 32 0" stroke="#1971c2" stroke-width="4.5" fill="none" stroke-dasharray="8 12"/></g><g stroke-linecap="round"><g transform="translate(85.11813354492188 122.19436645507812) rotate(0 47.19683837890625 -0.259368896484375)"><path d="M0 0 C15.73 -0.09, 78.66 -0.43, 94.39 -0.52 M0 0 C15.73 -0.09, 78.66 -0.43, 94.39 -0.52" stroke="#1e1e1e" stroke-width="4" fill="none"/></g><g transform="translate(85.11813354492188 122.19436645507812) rotate(0 47.19683837890625 -0.259368896484375)"><path d="M70.95 8.16 C78.96 5.19, 86.98 2.23, 94.39 -0.52 M70.95 8.16 C76.24 6.2, 81.53 4.24, 94.39 -0.52" stroke="#1e1e1e" stroke-width="4" fill="none"/></g><g transform="translate(85.11813354492188 122.19436645507812) rotate(0 47.19683837890625 -0.259368896484375)"><path d="M70.85 -8.94 C78.9 -6.06, 86.95 -3.18, 94.39 -0.52 M70.85 -8.94 C76.17 -7.04, 81.48 -5.14, 94.39 -0.52" stroke="#1e1e1e" stroke-width="4" fill="none"/></g></g><mask/><g stroke-linecap="round"><g transform="translate(675.3622131347656 117.00704956054688) rotate(0 54.779541015625 0.4816741943359375)"><path d="M0 0 C18.26 0.16, 91.3 0.8, 109.56 0.96 M0 0 C18.26 0.16, 91.3 0.8, 109.56 0.96" stroke="#1e1e1e" stroke-width="4" fill="none"/></g><g transform="translate(675.3622131347656 117.00704956054688) rotate(0 54.779541015625 0.4816741943359375)"><path d="M85.99 9.31 C93.17 6.76, 100.35 4.22, 109.56 0.96 M85.99 9.31 C94.49 6.3, 102.98 3.29, 109.56 0.96" stroke="#1e1e1e" stroke-width="4" fill="none"/></g><g transform="translate(675.3622131347656 117.00704956054688) rotate(0 54.779541015625 0.4816741943359375)"><path d="M86.14 -7.79 C93.28 -5.13, 100.41 -2.46, 109.56 0.96 M86.14 -7.79 C94.58 -4.64, 103.03 -1.48, 109.56 0.96" stroke="#1e1e1e" stroke-width="4" fill="none"/></g></g><mask/><g stroke-linecap="round"><g transform="translate(679.0472717285156 338.57977294921875) rotate(0 48.472412109375 0.59283447265625)"><path d="M0 0 C16.16 0.2, 80.79 0.99, 96.94 1.19 M0 0 C16.16 0.2, 80.79 0.99, 96.94 1.19" stroke="#1e1e1e" stroke-width="4" fill="none"/></g><g transform="translate(679.0472717285156 338.57977294921875) rotate(0 48.472412109375 0.59283447265625)"><path d="M73.35 9.45 C81.29 6.67, 89.23 3.89, 96.94 1.19 M73.35 9.45 C80.02 7.11, 86.7 4.77, 96.94 1.19" stroke="#1e1e1e" stroke-width="4" fill="none"/></g><g transform="translate(679.0472717285156 338.57977294921875) rotate(0 48.472412109375 0.59283447265625)"><path d="M73.56 -7.65 C81.43 -4.68, 89.29 -1.71, 96.94 1.19 M73.56 -7.65 C80.17 -5.15, 86.79 -2.65, 96.94 1.19" stroke="#1e1e1e" stroke-width="4" fill="none"/></g></g><mask/><g transform="translate(10 106.92880249023438) rotate(0 0.7086639404296875 13.264724731445312)" stroke="none"><path fill="#1e1e1e" d="M 0.65,-0.02 Q 0.65,-0.02 0.90,1.07 1.15,2.17 1.22,3.24 1.28,4.31 1.33,5.42 1.39,6.54 1.44,7.82 1.49,9.11 1.54,10.31 1.58,11.52 1.61,12.93 1.65,14.35 1.70,15.57 1.76,16.79 1.79,18.12 1.83,19.45 1.86,20.36 1.89,21.27 1.93,21.99 1.96,22.72 1.96,24.43 1.96,26.14 1.99,26.24 2.01,26.34 2.00,26.45 1.99,26.55 1.95,26.65 1.90,26.75 1.83,26.83 1.76,26.91 1.67,26.96 1.57,27.01 1.47,27.03 1.36,27.04 1.26,27.03 1.15,27.01 1.06,26.96 0.97,26.92 0.89,26.84 0.82,26.76 0.77,26.67 0.73,26.57 0.71,26.47 0.70,26.36 0.72,26.26 0.74,26.15 0.80,26.06 0.85,25.97 0.93,25.90 1.01,25.83 1.11,25.79 1.21,25.75 1.31,25.74 1.42,25.73 1.52,25.76 1.62,25.79 1.71,25.85 1.80,25.91 1.87,25.99 1.93,26.07 1.97,26.17 2.00,26.27 2.00,26.38 2.01,26.49 1.97,26.59 1.94,26.69 1.88,26.77 1.81,26.86 1.73,26.92 1.64,26.98 1.54,27.01 1.44,27.04 1.33,27.04 1.22,27.03 1.12,26.99 1.03,26.96 0.94,26.89 0.86,26.82 0.81,26.73 0.75,26.64 0.75,26.64 0.75,26.64 0.05,24.74 -0.64,22.83 -0.67,22.09 -0.70,21.35 -0.73,20.42 -0.75,19.49 -0.76,18.19 -0.76,16.89 -0.80,15.63 -0.84,14.38 -0.84,12.98 -0.83,11.59 -0.86,10.38 -0.89,9.17 -0.91,7.89 -0.93,6.61 -0.95,5.50 -0.96,4.39 -0.98,3.32 -0.99,2.25 -0.82,1.13 -0.65,0.02 -0.64,-0.05 -0.64,-0.13 -0.61,-0.20 -0.59,-0.28 -0.54,-0.35 -0.50,-0.41 -0.44,-0.47 -0.39,-0.52 -0.32,-0.56 -0.25,-0.60 -0.17,-0.62 -0.10,-0.64 -0.02,-0.65 0.05,-0.65 0.13,-0.63 0.21,-0.62 0.28,-0.58 0.35,-0.55 0.41,-0.50 0.47,-0.45 0.52,-0.38 0.56,-0.32 0.60,-0.25 0.63,-0.18 0.64,-0.10 0.65,-0.02 0.65,-0.02 L 0.65,-0.02 Z"/></g><g transform="translate(20.91339111328125 114.78390502929688) rotate(0 6.55511474609375 5.9283599853515625)" stroke="none"><path fill="#1e1e1e" d="M 0.62,0.19 Q 0.62,0.19 0.57,0.90 0.53,1.61 0.42,2.27 0.31,2.94 0.25,3.56 0.19,4.19 0.15,4.81 0.12,5.44 0.11,6.04 0.10,6.65 0.22,7.28 0.34,7.91 0.65,8.66 0.96,9.40 1.65,9.77 2.34,10.15 3.45,10.24 4.56,10.34 5.14,10.18 5.71,10.02 6.23,9.77 6.74,9.52 7.30,9.13 7.85,8.74 8.45,8.24 9.04,7.74 9.64,7.21 10.23,6.68 10.65,6.17 11.07,5.67 11.47,5.17 11.86,4.66 12.42,3.02 12.98,1.38 12.95,1.28 12.92,1.18 12.92,1.07 12.92,0.97 12.96,0.87 12.99,0.77 13.06,0.68 13.13,0.60 13.22,0.54 13.30,0.48 13.41,0.46 13.51,0.43 13.62,0.44 13.72,0.45 13.82,0.49 13.92,0.53 14.00,0.60 14.08,0.67 14.13,0.76 14.18,0.85 14.20,0.96 14.22,1.06 14.21,1.17 14.20,1.27 14.15,1.37 14.10,1.46 14.03,1.54 13.95,1.62 13.86,1.66 13.76,1.71 13.66,1.73 13.55,1.74 13.45,1.72 13.35,1.70 13.25,1.65 13.16,1.60 13.09,1.52 13.02,1.44 12.97,1.34 12.93,1.25 12.92,1.14 12.91,1.04 12.94,0.93 12.96,0.83 13.02,0.74 13.08,0.65 13.16,0.58 13.24,0.52 13.34,0.48 13.44,0.44 13.55,0.44 13.65,0.43 13.75,0.46 13.86,0.49 13.94,0.56 14.03,0.62 14.09,0.70 14.15,0.79 14.15,0.79 14.15,0.79 14.39,2.95 14.63,5.10 14.31,5.69 13.98,6.27 13.55,6.84 13.13,7.42 12.57,8.06 12.01,8.70 11.37,9.26 10.73,9.81 10.03,10.37 9.33,10.93 8.57,11.42 7.82,11.91 7.06,12.23 6.30,12.55 5.43,12.72 4.55,12.90 3.58,12.85 2.62,12.80 1.93,12.58 1.24,12.36 0.60,12.01 -0.04,11.65 -0.79,10.65 -1.55,9.64 -1.75,8.95 -1.95,8.27 -2.05,7.42 -2.15,6.58 -2.12,5.91 -2.08,5.25 -2.00,4.58 -1.93,3.92 -1.82,3.22 -1.71,2.52 -1.53,1.77 -1.34,1.03 -0.98,0.41 -0.62,-0.19 -0.59,-0.26 -0.56,-0.33 -0.51,-0.40 -0.46,-0.46 -0.40,-0.51 -0.34,-0.56 -0.26,-0.59 -0.19,-0.62 -0.11,-0.64 -0.04,-0.65 0.03,-0.65 0.11,-0.64 0.19,-0.62 0.26,-0.59 0.33,-0.55 0.40,-0.51 0.45,-0.46 0.51,-0.40 0.55,-0.33 0.59,-0.27 0.62,-0.19 0.64,-0.12 0.65,-0.04 0.65,0.03 0.64,0.11 0.62,0.19 0.62,0.19 L 0.62,0.19 Z"/></g><g transform="translate(27.92913818359375 116.41421508789062) rotate(0 0.7795257568359375 9.633590698242188)" stroke="none"><path fill="#1e1e1e" d="M 0.65,-0.03 Q 0.65,-0.03 0.80,1.26 0.96,2.55 1.02,3.73 1.09,4.91 1.13,6.01 1.18,7.11 1.26,8.20 1.33,9.29 1.45,10.53 1.56,11.77 1.63,12.69 1.70,13.61 1.75,14.35 1.81,15.09 1.97,16.99 2.13,18.88 2.14,18.99 2.15,19.09 2.13,19.20 2.11,19.30 2.05,19.39 2.00,19.48 1.91,19.55 1.83,19.62 1.73,19.66 1.63,19.70 1.53,19.70 1.42,19.71 1.32,19.68 1.22,19.65 1.13,19.59 1.04,19.53 0.98,19.44 0.92,19.36 0.88,19.26 0.85,19.15 0.85,19.05 0.85,18.94 0.89,18.84 0.92,18.74 0.99,18.66 1.05,18.57 1.14,18.51 1.23,18.46 1.33,18.43 1.43,18.40 1.54,18.41 1.64,18.41 1.74,18.45 1.84,18.49 1.92,18.56 2.00,18.63 2.06,18.72 2.11,18.82 2.13,18.92 2.15,19.02 2.14,19.13 2.13,19.23 2.08,19.33 2.04,19.43 1.96,19.50 1.89,19.58 1.80,19.63 1.70,19.68 1.60,19.69 1.49,19.71 1.39,19.69 1.28,19.67 1.19,19.62 1.10,19.57 1.02,19.50 0.95,19.42 0.91,19.32 0.86,19.22 0.86,19.22 0.86,19.22 0.21,17.25 -0.44,15.28 -0.51,14.52 -0.58,13.75 -0.62,12.83 -0.66,11.92 -0.71,10.65 -0.76,9.37 -0.77,8.25 -0.79,7.13 -0.76,6.04 -0.74,4.95 -0.73,3.79 -0.71,2.63 -0.68,1.33 -0.65,0.03 -0.65,-0.04 -0.64,-0.12 -0.61,-0.20 -0.59,-0.27 -0.55,-0.34 -0.51,-0.41 -0.45,-0.46 -0.39,-0.52 -0.32,-0.56 -0.26,-0.60 -0.18,-0.62 -0.10,-0.64 -0.03,-0.65 0.04,-0.65 0.12,-0.63 0.20,-0.62 0.27,-0.59 0.34,-0.55 0.40,-0.50 0.47,-0.45 0.51,-0.39 0.56,-0.33 0.59,-0.25 0.62,-0.18 0.64,-0.10 0.65,-0.03 0.65,-0.03 L 0.65,-0.03 Z"/></g><g transform="translate(44.582672119140625 109.22604370117188) rotate(0 5.988189697265625 13.449996948242188)" stroke="none"><path fill="#1e1e1e" d="M 0.51,-0.40 Q 0.51,-0.40 1.47,0.21 2.43,0.84 2.89,1.33 3.34,1.82 3.93,2.38 4.52,2.93 5.44,3.73 6.35,4.53 7.18,5.33 8.01,6.12 8.72,6.79 9.42,7.45 10.14,8.15 10.86,8.84 11.38,9.44 11.89,10.04 12.26,10.61 12.64,11.19 12.88,11.85 13.13,12.51 13.18,13.33 13.24,14.14 13.05,14.96 12.87,15.77 12.39,16.64 11.92,17.52 11.29,18.33 10.67,19.14 9.91,19.93 9.15,20.72 8.36,21.56 7.56,22.41 6.63,23.28 5.69,24.15 4.63,25.32 3.56,26.49 3.49,26.56 3.41,26.63 3.31,26.68 3.21,26.72 3.11,26.73 3.00,26.74 2.90,26.71 2.79,26.69 2.70,26.63 2.61,26.57 2.55,26.49 2.48,26.41 2.44,26.31 2.41,26.21 2.40,26.10 2.40,26.00 2.43,25.89 2.46,25.79 2.52,25.71 2.58,25.62 2.67,25.56 2.76,25.49 2.86,25.46 2.96,25.43 3.06,25.43 3.17,25.44 3.27,25.47 3.37,25.51 3.45,25.57 3.54,25.64 3.59,25.73 3.65,25.82 3.68,25.92 3.70,26.02 3.70,26.13 3.69,26.24 3.65,26.33 3.61,26.43 3.54,26.51 3.46,26.59 3.37,26.64 3.28,26.70 3.18,26.72 3.07,26.74 2.97,26.72 2.86,26.71 2.77,26.66 2.67,26.62 2.59,26.54 2.52,26.47 2.47,26.37 2.42,26.28 2.41,26.17 2.39,26.07 2.41,25.96 2.43,25.86 2.48,25.77 2.54,25.67 2.54,25.67 2.54,25.67 3.44,24.36 4.35,23.04 5.04,21.95 5.73,20.86 6.45,19.91 7.18,18.95 7.79,18.21 8.39,17.46 8.88,16.78 9.36,16.09 9.67,15.55 9.98,15.00 10.15,14.20 10.32,13.40 10.00,12.65 9.69,11.90 9.27,11.39 8.86,10.89 8.16,10.21 7.46,9.52 6.75,8.85 6.04,8.17 5.26,7.41 4.48,6.65 3.53,5.80 2.58,4.96 1.94,4.33 1.29,3.71 0.77,3.13 0.25,2.56 -0.13,1.48 -0.51,0.40 -0.55,0.33 -0.59,0.27 -0.62,0.19 -0.64,0.12 -0.65,0.04 -0.65,-0.03 -0.64,-0.11 -0.62,-0.19 -0.59,-0.26 -0.56,-0.33 -0.51,-0.40 -0.46,-0.46 -0.40,-0.51 -0.34,-0.56 -0.26,-0.59 -0.19,-0.62 -0.11,-0.64 -0.04,-0.65 0.03,-0.65 0.11,-0.64 0.19,-0.62 0.26,-0.59 0.33,-0.55 0.40,-0.51 0.45,-0.46 0.51,-0.40 0.51,-0.40 L 0.51,-0.40 Z"/></g><g transform="translate(806.3937072753906 105.59494018554688) rotate(0 0.35430908203125 9.855911254882812)" stroke="none"><path fill="#1e1e1e" d="M -0.65,-0.04 Q -0.65,-0.04 -0.70,-0.63 -0.76,-1.21 -0.72,-1.54 -0.68,-1.87 -0.66,-1.99 -0.64,-2.10 -0.59,-2.21 -0.54,-2.31 -0.47,-2.41 -0.39,-2.50 -0.30,-2.57 -0.21,-2.64 -0.10,-2.69 0.00,-2.73 0.11,-2.75 0.23,-2.77 0.34,-2.76 0.46,-2.76 0.57,-2.72 0.68,-2.68 0.78,-2.62 0.88,-2.56 0.96,-2.48 1.04,-2.39 1.10,-2.29 1.16,-2.19 1.19,-2.08 1.23,-1.97 1.23,-1.85 1.24,-1.74 1.45,-0.56 1.65,0.60 1.71,1.65 1.77,2.70 1.85,3.95 1.92,5.20 1.94,6.63 1.96,8.06 1.95,9.38 1.94,10.69 1.88,11.99 1.82,13.30 1.73,14.67 1.65,16.04 1.58,17.03 1.51,18.01 1.25,19.87 0.99,21.73 0.98,21.84 0.97,21.94 0.92,22.04 0.88,22.13 0.80,22.21 0.73,22.29 0.64,22.33 0.54,22.38 0.44,22.40 0.33,22.42 0.23,22.40 0.12,22.38 0.03,22.33 -0.05,22.28 -0.13,22.20 -0.20,22.12 -0.24,22.03 -0.29,21.93 -0.30,21.82 -0.31,21.72 -0.28,21.61 -0.26,21.51 -0.20,21.42 -0.15,21.33 -0.07,21.26 0.01,21.19 0.10,21.15 0.20,21.12 0.31,21.11 0.42,21.11 0.52,21.14 0.62,21.17 0.71,21.23 0.80,21.29 0.86,21.37 0.92,21.46 0.95,21.56 0.99,21.66 0.99,21.77 0.99,21.87 0.95,21.97 0.92,22.07 0.85,22.16 0.79,22.24 0.70,22.30 0.61,22.36 0.51,22.39 0.40,22.41 0.30,22.41 0.19,22.40 0.09,22.36 -0.00,22.32 -0.08,22.25 -0.16,22.18 -0.21,22.09 -0.26,22.00 -0.29,21.89 -0.31,21.79 -0.31,21.79 -0.31,21.79 -0.69,19.84 -1.08,17.88 -1.05,16.89 -1.02,15.90 -0.96,14.53 -0.90,13.15 -0.83,11.90 -0.76,10.65 -0.73,9.36 -0.70,8.07 -0.69,6.70 -0.68,5.32 -0.72,4.06 -0.76,2.80 -0.79,1.76 -0.81,0.73 -0.74,-0.57 -0.68,-1.87 -0.66,-1.99 -0.64,-2.10 -0.59,-2.21 -0.54,-2.31 -0.47,-2.41 -0.39,-2.50 -0.30,-2.57 -0.21,-2.64 -0.10,-2.69 0.00,-2.73 0.11,-2.75 0.23,-2.77 0.34,-2.76 0.46,-2.76 0.57,-2.72 0.68,-2.68 0.78,-2.62 0.88,-2.56 0.96,-2.48 1.04,-2.39 1.10,-2.29 1.16,-2.19 1.19,-2.08 1.23,-1.97 1.23,-1.85 1.24,-1.74 1.08,-1.41 0.92,-1.08 0.79,-0.51 0.65,0.04 0.63,0.12 0.62,0.20 0.59,0.27 0.55,0.34 0.50,0.40 0.45,0.46 0.39,0.51 0.33,0.56 0.26,0.59 0.18,0.62 0.11,0.64 0.03,0.65 -0.04,0.65 -0.12,0.64 -0.20,0.62 -0.27,0.59 -0.34,0.55 -0.41,0.51 -0.46,0.45 -0.52,0.39 -0.56,0.33 -0.60,0.26 -0.62,0.18 -0.64,0.11 -0.65,0.03 -0.65,-0.04 -0.65,-0.04 L -0.65,-0.04 Z"/></g><g transform="translate(823.4724426269531 112.04202270507812) rotate(0 7.0511474609375 3.334716796875)" stroke="none"><path fill="#1e1e1e" d="M 0.60,0.26 Q 0.60,0.26 0.60,1.04 0.61,1.82 0.49,2.35 0.36,2.88 0.44,3.90 0.52,4.92 0.84,6.00 1.16,7.08 1.65,7.74 2.15,8.39 2.76,8.49 3.36,8.59 4.47,8.01 5.57,7.44 6.27,6.89 6.98,6.34 7.79,5.59 8.60,4.85 9.56,3.86 10.51,2.88 11.30,2.04 12.09,1.20 12.59,0.57 13.10,-0.05 13.68,-1.52 14.26,-2.98 14.27,-3.09 14.28,-3.19 14.32,-3.29 14.36,-3.39 14.44,-3.47 14.51,-3.54 14.60,-3.59 14.69,-3.65 14.80,-3.66 14.90,-3.68 15.01,-3.67 15.11,-3.65 15.21,-3.60 15.30,-3.56 15.38,-3.48 15.45,-3.40 15.50,-3.31 15.54,-3.21 15.56,-3.11 15.57,-3.00 15.55,-2.90 15.53,-2.79 15.47,-2.70 15.42,-2.61 15.34,-2.54 15.26,-2.47 15.16,-2.43 15.06,-2.39 14.96,-2.38 14.85,-2.37 14.75,-2.40 14.65,-2.43 14.56,-2.49 14.47,-2.54 14.40,-2.63 14.34,-2.71 14.30,-2.81 14.27,-2.91 14.27,-3.02 14.26,-3.12 14.30,-3.22 14.33,-3.33 14.39,-3.41 14.45,-3.50 14.54,-3.56 14.63,-3.62 14.73,-3.65 14.83,-3.68 14.94,-3.67 15.04,-3.67 15.14,-3.63 15.24,-3.59 15.33,-3.53 15.41,-3.46 15.46,-3.37 15.52,-3.28 15.54,-3.18 15.57,-3.07 15.57,-3.07 15.57,-3.07 15.35,-0.83 15.13,1.41 14.60,2.20 14.08,2.99 13.30,3.88 12.53,4.77 11.53,5.86 10.53,6.95 9.62,7.78 8.71,8.60 7.85,9.25 6.99,9.89 6.05,10.40 5.11,10.92 4.12,11.14 3.13,11.37 2.29,11.23 1.45,11.08 0.81,10.69 0.16,10.31 -0.29,9.77 -0.76,9.23 -1.09,8.61 -1.41,7.98 -1.66,7.22 -1.91,6.46 -2.03,5.84 -2.14,5.22 -2.20,4.49 -2.27,3.75 -2.21,3.00 -2.15,2.24 -1.95,1.52 -1.75,0.81 -1.17,0.27 -0.60,-0.26 -0.56,-0.32 -0.52,-0.39 -0.46,-0.45 -0.41,-0.51 -0.34,-0.55 -0.27,-0.59 -0.20,-0.61 -0.12,-0.64 -0.04,-0.65 0.02,-0.65 0.10,-0.64 0.18,-0.62 0.25,-0.59 0.33,-0.56 0.39,-0.51 0.45,-0.47 0.50,-0.40 0.55,-0.34 0.59,-0.27 0.62,-0.20 0.63,-0.12 0.65,-0.04 0.65,0.02 0.64,0.10 0.62,0.18 0.60,0.26 0.60,0.26 L 0.60,0.26 Z"/></g><g transform="translate(832.9685363769531 109.59658813476562) rotate(0 -1.594482421875 11.597366333007812)" stroke="none"><path fill="#1e1e1e" d="M 0.61,0.23 Q 0.61,0.23 0.35,1.09 0.10,1.95 -0.13,2.89 -0.37,3.84 -0.58,4.96 -0.79,6.09 -1.01,7.58 -1.23,9.07 -1.38,10.29 -1.52,11.52 -1.61,12.63 -1.70,13.73 -1.70,14.76 -1.70,15.78 -1.69,16.71 -1.68,17.63 -1.65,18.38 -1.63,19.14 -1.65,20.96 -1.68,22.79 -1.68,22.89 -1.67,23.00 -1.70,23.10 -1.72,23.20 -1.78,23.29 -1.84,23.38 -1.92,23.45 -2.01,23.51 -2.11,23.55 -2.21,23.58 -2.31,23.59 -2.42,23.59 -2.52,23.55 -2.62,23.52 -2.71,23.46 -2.79,23.40 -2.85,23.31 -2.91,23.22 -2.94,23.12 -2.97,23.02 -2.97,22.91 -2.97,22.81 -2.93,22.71 -2.89,22.61 -2.82,22.53 -2.75,22.44 -2.66,22.39 -2.57,22.33 -2.47,22.31 -2.37,22.28 -2.26,22.29 -2.16,22.30 -2.06,22.35 -1.96,22.39 -1.88,22.46 -1.81,22.53 -1.75,22.63 -1.70,22.72 -1.68,22.82 -1.67,22.93 -1.68,23.03 -1.70,23.14 -1.75,23.23 -1.79,23.33 -1.87,23.40 -1.95,23.48 -2.04,23.52 -2.14,23.57 -2.24,23.58 -2.35,23.59 -2.45,23.57 -2.56,23.55 -2.65,23.50 -2.74,23.44 -2.81,23.36 -2.88,23.28 -2.92,23.19 -2.96,23.09 -2.96,23.09 -2.96,23.09 -3.63,21.19 -4.31,19.29 -4.37,18.47 -4.43,17.65 -4.43,16.68 -4.43,15.71 -4.37,14.58 -4.32,13.45 -4.16,12.30 -4.01,11.15 -3.77,9.88 -3.54,8.60 -3.17,7.11 -2.79,5.62 -2.46,4.45 -2.13,3.28 -1.77,2.32 -1.40,1.36 -1.00,0.56 -0.61,-0.23 -0.57,-0.30 -0.53,-0.37 -0.48,-0.43 -0.42,-0.49 -0.36,-0.54 -0.29,-0.58 -0.22,-0.61 -0.14,-0.63 -0.07,-0.64 0.00,-0.65 0.08,-0.64 0.16,-0.63 0.23,-0.60 0.31,-0.57 0.37,-0.53 0.44,-0.48 0.49,-0.42 0.54,-0.36 0.58,-0.29 0.61,-0.22 0.63,-0.14 0.65,-0.07 0.65,0.00 0.65,0.08 0.63,0.16 0.61,0.23 0.61,0.23 L 0.61,0.23 Z"/></g><g transform="translate(852.8110656738281 107.66986083984375) rotate(0 2.51568603515625 9.374237060546875)" stroke="none"><path fill="#1e1e1e" d="M 0.38,-0.53 Q 0.38,-0.53 1.15,-0.42 1.93,-0.30 2.51,0.12 3.10,0.55 3.67,1.06 4.24,1.57 4.97,2.27 5.71,2.96 6.17,3.44 6.64,3.92 7.12,4.41 7.60,4.90 8.17,5.65 8.75,6.39 9.12,7.09 9.49,7.79 9.67,8.57 9.86,9.34 9.78,10.22 9.70,11.10 9.07,12.21 8.44,13.32 7.87,13.96 7.30,14.60 6.21,15.34 5.13,16.08 4.15,16.61 3.17,17.14 2.29,17.52 1.42,17.91 -0.43,18.41 -2.29,18.92 -2.40,18.95 -2.50,18.97 -2.61,18.96 -2.71,18.96 -2.81,18.91 -2.91,18.87 -2.99,18.80 -3.07,18.73 -3.12,18.64 -3.17,18.55 -3.19,18.44 -3.21,18.34 -3.20,18.23 -3.18,18.13 -3.14,18.03 -3.09,17.94 -3.01,17.86 -2.94,17.79 -2.84,17.74 -2.75,17.69 -2.64,17.68 -2.54,17.66 -2.43,17.68 -2.33,17.70 -2.24,17.75 -2.14,17.81 -2.07,17.88 -2.00,17.96 -1.96,18.06 -1.92,18.16 -1.91,18.26 -1.90,18.37 -1.93,18.47 -1.95,18.58 -2.01,18.67 -2.06,18.76 -2.15,18.82 -2.23,18.89 -2.33,18.93 -2.43,18.96 -2.54,18.97 -2.64,18.97 -2.74,18.94 -2.85,18.91 -2.93,18.85 -3.02,18.78 -3.08,18.70 -3.14,18.61 -3.17,18.51 -3.20,18.41 -3.20,18.30 -3.20,18.20 -3.16,18.10 -3.13,18.00 -3.06,17.91 -2.99,17.83 -2.90,17.77 -2.81,17.72 -2.81,17.72 -2.81,17.72 -1.27,16.69 0.27,15.67 1.02,15.22 1.77,14.76 2.61,14.23 3.46,13.69 4.25,13.11 5.04,12.54 5.44,12.10 5.84,11.66 6.34,10.76 6.83,9.86 6.58,9.03 6.32,8.19 5.88,7.57 5.45,6.96 4.98,6.46 4.51,5.95 4.09,5.50 3.67,5.05 2.98,4.36 2.30,3.67 1.83,3.22 1.37,2.77 0.86,2.34 0.35,1.92 -0.01,1.22 -0.38,0.53 -0.43,0.48 -0.49,0.42 -0.54,0.36 -0.58,0.29 -0.61,0.22 -0.63,0.14 -0.64,0.07 -0.65,-0.00 -0.64,-0.08 -0.63,-0.16 -0.60,-0.23 -0.57,-0.31 -0.53,-0.37 -0.48,-0.44 -0.42,-0.49 -0.36,-0.54 -0.29,-0.58 -0.22,-0.61 -0.14,-0.63 -0.07,-0.65 0.00,-0.65 0.08,-0.65 0.16,-0.63 0.24,-0.61 0.31,-0.57 0.38,-0.53 0.38,-0.53 L 0.38,-0.53 Z"/></g><g transform="translate(804.4094543457031 325.537353515625) rotate(0 0.74407958984375 9.226043701171875)" stroke="none"><path fill="#1e1e1e" d="M 0.65,-0.07 Q 0.65,-0.07 1.09,0.63 1.54,1.34 1.62,2.26 1.70,3.18 1.75,4.49 1.80,5.79 1.80,6.99 1.80,8.19 1.80,9.29 1.80,10.38 1.81,11.30 1.82,12.22 1.85,12.97 1.87,13.72 1.83,15.75 1.78,17.78 1.83,17.87 1.89,17.96 1.91,18.06 1.93,18.17 1.92,18.27 1.90,18.38 1.86,18.47 1.81,18.57 1.74,18.65 1.67,18.72 1.57,18.77 1.48,18.82 1.37,18.84 1.27,18.85 1.16,18.83 1.06,18.82 0.96,18.76 0.87,18.71 0.80,18.64 0.73,18.56 0.68,18.46 0.64,18.36 0.63,18.26 0.62,18.15 0.64,18.05 0.67,17.95 0.72,17.85 0.78,17.76 0.86,17.70 0.94,17.63 1.04,17.59 1.14,17.55 1.25,17.55 1.35,17.54 1.46,17.57 1.56,17.60 1.64,17.66 1.73,17.72 1.79,17.81 1.86,17.89 1.89,18.00 1.92,18.10 1.92,18.20 1.92,18.31 1.89,18.41 1.85,18.51 1.79,18.59 1.72,18.68 1.63,18.74 1.54,18.79 1.44,18.82 1.34,18.85 1.23,18.84 1.13,18.83 1.03,18.79 0.93,18.75 0.85,18.68 0.77,18.61 0.77,18.61 0.77,18.61 -0.12,16.26 -1.02,13.90 -1.10,13.09 -1.17,12.28 -1.19,11.32 -1.22,10.37 -1.21,9.27 -1.21,8.17 -1.19,7.01 -1.16,5.85 -1.16,4.60 -1.16,3.36 -1.19,2.50 -1.21,1.64 -0.93,0.85 -0.65,0.07 -0.65,-0.00 -0.65,-0.08 -0.63,-0.16 -0.61,-0.24 -0.57,-0.30 -0.53,-0.37 -0.48,-0.43 -0.42,-0.49 -0.36,-0.54 -0.29,-0.58 -0.22,-0.61 -0.14,-0.63 -0.07,-0.64 0.00,-0.65 0.08,-0.64 0.16,-0.63 0.23,-0.60 0.31,-0.57 0.37,-0.53 0.44,-0.48 0.49,-0.42 0.54,-0.36 0.58,-0.29 0.61,-0.22 0.63,-0.14 0.65,-0.07 0.65,-0.07 L 0.65,-0.07 Z"/></g><g transform="translate(823.5433654785156 327.24176025390625) rotate(0 8.85821533203125 6.224822998046875)" stroke="none"><path fill="#1e1e1e" d="M 0.65,0.06 Q 0.65,0.06 0.89,0.92 1.13,1.78 1.12,2.55 1.11,3.32 1.15,3.90 1.19,4.48 1.34,5.48 1.50,6.48 1.67,7.38 1.84,8.29 2.11,9.16 2.38,10.03 2.67,10.62 2.96,11.21 3.55,11.67 4.14,12.14 5.16,12.00 6.19,11.86 6.90,11.53 7.61,11.20 8.71,10.28 9.81,9.37 10.80,8.45 11.78,7.52 12.58,6.64 13.37,5.77 14.07,4.94 14.76,4.11 15.30,3.36 15.83,2.61 16.37,0.92 16.90,-0.76 16.89,-0.87 16.87,-0.97 16.89,-1.08 16.90,-1.18 16.95,-1.27 17.01,-1.37 17.08,-1.44 17.16,-1.51 17.26,-1.56 17.35,-1.60 17.46,-1.61 17.56,-1.62 17.67,-1.60 17.77,-1.58 17.86,-1.52 17.95,-1.47 18.02,-1.38 18.09,-1.30 18.13,-1.20 18.17,-1.11 18.17,-1.00 18.18,-0.89 18.15,-0.79 18.12,-0.69 18.06,-0.60 18.00,-0.51 17.92,-0.45 17.83,-0.39 17.73,-0.35 17.63,-0.32 17.52,-0.32 17.42,-0.32 17.32,-0.35 17.22,-0.39 17.13,-0.45 17.05,-0.52 16.99,-0.61 16.93,-0.70 16.90,-0.80 16.87,-0.90 16.88,-1.01 16.89,-1.11 16.93,-1.21 16.97,-1.31 17.03,-1.39 17.10,-1.47 17.19,-1.52 17.29,-1.58 17.39,-1.60 17.49,-1.62 17.60,-1.61 17.71,-1.60 17.80,-1.55 17.90,-1.51 17.97,-1.44 18.05,-1.36 18.10,-1.27 18.15,-1.17 18.15,-1.17 18.15,-1.17 18.14,1.46 18.13,4.11 17.59,5.01 17.04,5.91 16.34,6.85 15.64,7.79 14.79,8.77 13.93,9.76 12.86,10.80 11.78,11.85 10.34,12.97 8.89,14.08 7.82,14.52 6.76,14.95 5.67,15.10 4.59,15.24 3.64,15.05 2.69,14.86 1.94,14.37 1.19,13.87 0.69,13.18 0.20,12.48 -0.14,11.67 -0.49,10.85 -0.76,9.82 -1.03,8.78 -1.18,7.81 -1.33,6.83 -1.44,5.71 -1.55,4.59 -1.56,3.90 -1.57,3.20 -1.52,2.36 -1.46,1.53 -1.05,0.73 -0.65,-0.06 -0.63,-0.14 -0.61,-0.21 -0.58,-0.28 -0.54,-0.36 -0.49,-0.42 -0.44,-0.48 -0.38,-0.52 -0.31,-0.57 -0.24,-0.60 -0.17,-0.63 -0.09,-0.64 -0.01,-0.65 0.06,-0.64 0.14,-0.64 0.21,-0.61 0.29,-0.58 0.35,-0.54 0.42,-0.50 0.47,-0.44 0.53,-0.38 0.57,-0.31 0.60,-0.24 0.62,-0.17 0.64,-0.09 0.65,-0.01 0.65,0.06 0.65,0.06 L 0.65,0.06 Z"/></g><g transform="translate(834.6693420410156 326.79718017578125) rotate(0 -1.13385009765625 11.967864990234375)" stroke="none"><path fill="#1e1e1e" d="M 0.60,0.26 Q 0.60,0.26 0.30,1.41 0.00,2.57 -0.16,3.55 -0.33,4.53 -0.44,5.70 -0.55,6.88 -0.62,8.28 -0.69,9.68 -0.71,11.16 -0.73,12.63 -0.73,13.94 -0.73,15.26 -0.77,16.70 -0.81,18.15 -0.83,18.99 -0.85,19.83 -1.20,21.75 -1.54,23.68 -1.56,23.78 -1.57,23.89 -1.62,23.98 -1.67,24.08 -1.74,24.15 -1.82,24.23 -1.91,24.27 -2.01,24.32 -2.11,24.33 -2.22,24.34 -2.32,24.32 -2.43,24.30 -2.52,24.25 -2.61,24.20 -2.68,24.12 -2.75,24.04 -2.79,23.94 -2.83,23.84 -2.84,23.74 -2.85,23.63 -2.82,23.53 -2.80,23.42 -2.74,23.33 -2.68,23.25 -2.60,23.18 -2.51,23.11 -2.41,23.08 -2.31,23.04 -2.21,23.04 -2.10,23.04 -2.00,23.07 -1.90,23.10 -1.81,23.17 -1.73,23.23 -1.67,23.32 -1.61,23.40 -1.58,23.50 -1.54,23.61 -1.55,23.71 -1.55,23.82 -1.59,23.92 -1.63,24.02 -1.69,24.10 -1.76,24.18 -1.85,24.24 -1.94,24.29 -2.05,24.32 -2.15,24.34 -2.25,24.33 -2.36,24.32 -2.46,24.28 -2.55,24.24 -2.63,24.17 -2.71,24.10 -2.76,24.00 -2.81,23.91 -2.83,23.80 -2.85,23.70 -2.85,23.70 -2.85,23.70 -3.23,21.73 -3.61,19.76 -3.59,18.91 -3.57,18.06 -3.52,16.64 -3.46,15.21 -3.42,13.88 -3.38,12.55 -3.30,11.02 -3.22,9.49 -3.07,8.02 -2.93,6.56 -2.71,5.30 -2.50,4.04 -2.18,2.90 -1.87,1.77 -1.24,0.75 -0.60,-0.26 -0.56,-0.32 -0.52,-0.39 -0.46,-0.45 -0.41,-0.51 -0.34,-0.55 -0.27,-0.59 -0.20,-0.61 -0.12,-0.64 -0.04,-0.64 0.02,-0.65 0.10,-0.64 0.18,-0.62 0.25,-0.59 0.33,-0.56 0.39,-0.51 0.45,-0.47 0.50,-0.41 0.55,-0.34 0.59,-0.27 0.62,-0.20 0.63,-0.12 0.65,-0.04 0.65,0.02 0.64,0.10 0.62,0.18 0.60,0.26 0.60,0.26 L 0.60,0.26 Z"/></g><g transform="translate(852.0315246582031 323.61065673828125) rotate(0 5.6693115234375 10.612396240234375)" stroke="none"><path fill="#1e1e1e" d="M 0.13,-0.64 Q 0.13,-0.64 0.80,-0.72 1.48,-0.81 2.16,-0.55 2.83,-0.29 3.47,0.05 4.10,0.41 4.90,0.94 5.69,1.47 6.43,2.02 7.16,2.57 7.86,3.15 8.56,3.74 9.16,4.33 9.76,4.92 10.34,5.63 10.91,6.34 11.39,7.05 11.87,7.76 12.24,8.55 12.60,9.35 12.71,10.76 12.82,12.18 12.62,13.27 12.42,14.36 11.98,15.35 11.54,16.35 10.90,17.15 10.25,17.95 9.30,18.63 8.35,19.31 7.09,19.78 5.84,20.26 3.12,20.96 0.40,21.67 0.30,21.66 0.19,21.64 0.10,21.60 0.00,21.55 -0.06,21.47 -0.14,21.40 -0.19,21.31 -0.23,21.21 -0.25,21.11 -0.26,21.00 -0.24,20.90 -0.22,20.79 -0.17,20.70 -0.12,20.61 -0.04,20.53 0.03,20.46 0.12,20.42 0.22,20.38 0.33,20.37 0.43,20.36 0.54,20.38 0.64,20.41 0.73,20.47 0.82,20.52 0.89,20.60 0.95,20.69 0.99,20.79 1.03,20.89 1.03,20.99 1.03,21.10 1.00,21.20 0.97,21.30 0.91,21.39 0.85,21.48 0.76,21.54 0.68,21.60 0.58,21.63 0.48,21.66 0.37,21.66 0.26,21.66 0.16,21.62 0.06,21.59 -0.01,21.52 -0.09,21.46 -0.15,21.37 -0.21,21.28 -0.24,21.17 -0.26,21.07 -0.25,20.96 -0.25,20.86 -0.20,20.76 -0.16,20.66 -0.09,20.58 -0.02,20.50 0.06,20.45 0.15,20.40 0.26,20.38 0.36,20.36 0.36,20.36 0.36,20.36 2.63,19.26 4.90,18.16 5.82,17.65 6.75,17.15 7.39,16.64 8.03,16.12 8.45,15.61 8.87,15.10 9.20,14.42 9.54,13.74 9.72,12.98 9.91,12.23 9.97,11.31 10.02,10.40 9.78,9.81 9.55,9.23 9.18,8.61 8.80,7.98 8.35,7.36 7.89,6.74 7.39,6.21 6.89,5.68 6.26,5.12 5.63,4.56 4.95,4.02 4.27,3.48 3.58,2.96 2.88,2.43 1.96,1.88 1.04,1.32 0.45,0.98 -0.13,0.64 -0.20,0.61 -0.28,0.59 -0.34,0.55 -0.41,0.50 -0.46,0.45 -0.52,0.39 -0.56,0.32 -0.60,0.25 -0.62,0.18 -0.64,0.10 -0.65,0.02 -0.65,-0.05 -0.63,-0.12 -0.62,-0.20 -0.58,-0.27 -0.55,-0.35 -0.50,-0.41 -0.45,-0.47 -0.39,-0.52 -0.32,-0.56 -0.25,-0.59 -0.18,-0.63 -0.10,-0.64 -0.02,-0.65 0.05,-0.64 0.13,-0.64 0.13,-0.64 L 0.13,-0.64 Z"/></g><g stroke-linecap="round"><g transform="translate(330.5275573730469 121.74972534179688) rotate(0 98.43307495117188 -1.14862060546875)"><path d="M0 0 C32.81 -0.38, 164.06 -1.91, 196.87 -2.3" stroke="#1e1e1e" stroke-width="2.5" fill="none" stroke-dasharray="1.5 8"/></g></g><mask/><g stroke-linecap="round"><g transform="translate(425.7007751464844 120.48995971679688) rotate(0 0.956695556640625 106.08073425292969)"><path d="M0 0 C0.32 35.36, 1.59 176.8, 1.91 212.16" stroke="#1e1e1e" stroke-width="2.5" fill="none" stroke-dasharray="1.5 8"/></g></g><mask/><g stroke-linecap="round"><g transform="translate(429.3858337402344 330.65057373046875) rotate(0 50.669281005859375 -0.5557861328125)"><path d="M0 0 C16.89 -0.19, 84.45 -0.93, 101.34 -1.11" stroke="#1e1e1e" stroke-width="2.5" fill="none" stroke-dasharray="1.5 8"/></g></g><mask/><g transform="translate(263.3464660644531 106.33596801757812) rotate(0 -6.41339111328125 20.156463623046875)" stroke="none"><path fill="#1e1e1e" d="M -1.14,0.63 Q -1.14,0.63 -2.28,-0.06 -3.42,-0.77 -4.20,-1.61 -4.99,-2.46 -6.32,-2.75 -7.66,-3.04 -9.01,-2.84 -10.36,-2.64 -11.54,-2.05 -12.72,-1.46 -14.14,-0.13 -15.55,1.18 -16.71,2.82 -17.87,4.46 -18.48,5.80 -19.08,7.13 -19.21,8.21 -19.34,9.28 -18.73,10.72 -18.12,12.16 -17.31,12.91 -16.49,13.67 -15.16,14.50 -13.83,15.33 -12.71,15.79 -11.59,16.25 -10.91,16.41 -10.23,16.58 -9.88,16.72 -9.54,16.87 -9.24,17.09 -8.94,17.31 -8.70,17.60 -8.47,17.89 -8.31,18.23 -8.15,18.56 -8.07,18.93 -7.99,19.30 -8.01,19.67 -8.02,20.04 -8.12,20.40 -8.23,20.76 -8.41,21.08 -8.60,21.41 -8.86,21.68 -9.11,21.95 -9.43,22.15 -9.74,22.35 -10.10,22.47 -10.45,22.59 -10.82,22.62 -11.20,22.65 -11.57,22.59 -11.93,22.53 -13.21,23.00 -14.49,23.47 -15.75,24.29 -17.00,25.12 -18.12,26.42 -19.23,27.71 -20.26,29.40 -21.29,31.09 -21.98,32.86 -22.67,34.63 -22.91,35.73 -23.15,36.82 -23.06,38.17 -22.96,39.51 -21.78,40.54 -20.59,41.57 -19.51,41.93 -18.43,42.29 -17.18,42.55 -15.93,42.82 -14.59,42.84 -13.25,42.85 -9.96,42.17 -6.67,41.50 -3.53,40.65 -0.40,39.81 2.86,38.94 6.13,38.08 8.19,37.22 10.25,36.37 10.45,36.31 10.66,36.26 10.87,36.27 11.08,36.28 11.28,36.36 11.48,36.43 11.64,36.57 11.80,36.71 11.91,36.89 12.02,37.07 12.07,37.28 12.12,37.49 12.09,37.70 12.07,37.91 11.98,38.10 11.89,38.29 11.75,38.45 11.60,38.60 11.41,38.70 11.23,38.80 11.02,38.84 10.81,38.87 10.60,38.84 10.39,38.81 10.20,38.71 10.01,38.61 9.87,38.45 9.72,38.30 9.63,38.11 9.54,37.92 9.52,37.70 9.49,37.49 9.54,37.29 9.58,37.08 9.69,36.90 9.80,36.71 9.96,36.57 10.12,36.44 10.32,36.36 10.52,36.28 10.73,36.27 10.94,36.25 11.15,36.31 11.35,36.37 11.53,36.49 11.70,36.60 11.83,36.77 11.96,36.94 12.03,37.14 12.10,37.34 12.10,37.56 12.10,37.77 12.03,37.97 11.97,38.17 11.84,38.34 11.71,38.51 11.53,38.63 11.36,38.75 11.36,38.75 11.36,38.75 9.35,39.79 7.33,40.84 4.28,42.73 1.23,44.63 -2.06,45.97 -5.37,47.31 -9.36,48.26 -13.35,49.21 -15.35,49.15 -17.34,49.09 -19.05,48.67 -20.75,48.26 -22.50,47.52 -24.24,46.77 -25.34,45.94 -26.44,45.10 -27.31,44.02 -28.18,42.93 -28.67,41.72 -29.16,40.50 -29.31,39.25 -29.45,38.00 -29.35,36.71 -29.25,35.41 -28.89,33.95 -28.53,32.48 -28.12,31.39 -27.72,30.30 -27.19,29.11 -26.67,27.92 -26.08,26.93 -25.49,25.93 -24.82,24.90 -24.14,23.86 -23.35,22.87 -22.55,21.88 -21.62,20.98 -20.70,20.09 -19.69,19.38 -18.68,18.66 -17.62,18.12 -16.56,17.58 -15.27,17.20 -13.98,16.82 -12.11,16.70 -10.23,16.58 -9.88,16.72 -9.54,16.87 -9.24,17.09 -8.94,17.31 -8.71,17.60 -8.47,17.89 -8.31,18.23 -8.15,18.56 -8.07,18.93 -7.99,19.30 -8.01,19.67 -8.02,20.04 -8.12,20.40 -8.23,20.76 -8.41,21.08 -8.60,21.41 -8.86,21.68 -9.11,21.95 -9.43,22.15 -9.74,22.35 -10.10,22.47 -10.45,22.59 -10.82,22.62 -11.20,22.65 -11.56,22.59 -11.93,22.53 -12.33,22.43 -12.73,22.32 -14.21,21.80 -15.70,21.29 -17.12,20.49 -18.55,19.69 -20.29,18.33 -22.03,16.98 -23.26,15.20 -24.48,13.42 -24.84,12.37 -25.19,11.32 -25.34,10.20 -25.48,9.07 -25.39,7.78 -25.29,6.49 -24.62,4.74 -23.95,2.99 -23.45,2.04 -22.96,1.09 -22.26,0.07 -21.57,-0.94 -20.73,-1.99 -19.90,-3.04 -18.76,-4.16 -17.62,-5.29 -16.66,-5.98 -15.71,-6.67 -14.67,-7.23 -13.63,-7.78 -12.52,-8.13 -11.42,-8.48 -10.31,-8.65 -9.20,-8.82 -7.99,-8.80 -6.78,-8.79 -5.46,-8.52 -4.13,-8.26 -2.52,-7.21 -0.92,-6.17 0.10,-4.74 1.13,-3.31 1.14,-1.97 1.14,-0.63 1.20,-0.49 1.26,-0.34 1.28,-0.19 1.31,-0.03 1.29,0.12 1.28,0.28 1.23,0.43 1.17,0.58 1.09,0.71 1.00,0.84 0.88,0.95 0.77,1.06 0.63,1.13 0.49,1.21 0.34,1.25 0.19,1.29 0.03,1.30 -0.12,1.30 -0.27,1.27 -0.43,1.23 -0.57,1.16 -0.71,1.09 -0.83,0.99 -0.96,0.89 -1.05,0.76 -1.14,0.63 -1.14,0.63 L -1.14,0.63 Z"/></g><g transform="translate(586.1417541503906 133.23593139648438) rotate(0 13.18109130859375 -11.708511352539062)" stroke="none"><path fill="#1e1e1e" d="M -1.08,-0.73 Q -1.08,-0.73 -1.00,-1.72 -0.91,-2.71 -0.33,-5.07 0.23,-7.42 0.39,-8.90 0.54,-10.38 0.61,-11.91 0.68,-13.44 0.59,-14.93 0.51,-16.41 0.34,-17.93 0.17,-19.44 -0.05,-20.82 -0.27,-22.19 -0.60,-23.50 -0.92,-24.80 -1.43,-26.30 -1.93,-27.79 -2.36,-28.88 -2.79,-29.96 -3.47,-31.27 -4.16,-32.59 -4.73,-33.53 -5.30,-34.47 -5.77,-35.17 -6.25,-35.87 -6.40,-36.15 -6.55,-36.43 -6.62,-36.73 -6.70,-37.03 -6.70,-37.35 -6.70,-37.66 -6.63,-37.96 -6.56,-38.27 -6.42,-38.55 -6.27,-38.83 -6.07,-39.06 -5.86,-39.30 -5.60,-39.48 -5.35,-39.66 -5.06,-39.77 -4.76,-39.88 -4.45,-39.92 -4.14,-39.96 -3.83,-39.93 -3.52,-39.89 -3.23,-39.78 -2.93,-39.67 -2.67,-39.50 -2.41,-39.32 -2.20,-39.09 -2.00,-38.86 -0.78,-38.01 0.44,-37.16 1.49,-36.38 2.54,-35.60 4.25,-34.34 5.96,-33.09 7.57,-31.94 9.17,-30.80 10.73,-29.64 12.29,-28.47 13.80,-27.22 15.31,-25.97 16.85,-24.65 18.39,-23.34 20.31,-21.56 22.24,-19.78 23.43,-18.63 24.62,-17.49 26.18,-15.78 27.74,-14.07 28.92,-12.51 30.10,-10.94 30.93,-9.55 31.76,-8.15 32.24,-6.64 32.72,-5.12 32.67,-3.35 32.61,-1.57 31.62,0.65 30.63,2.89 29.33,4.64 28.04,6.38 26.45,7.86 24.86,9.34 23.11,10.55 21.36,11.76 19.52,12.69 17.68,13.63 15.86,14.27 14.04,14.92 11.76,15.34 9.47,15.76 7.62,15.88 5.77,16.00 3.38,15.66 0.98,15.31 0.77,15.28 0.56,15.25 0.38,15.15 0.19,15.05 0.04,14.89 -0.09,14.74 -0.18,14.54 -0.27,14.35 -0.29,14.14 -0.32,13.93 -0.27,13.72 -0.23,13.51 -0.12,13.33 -0.01,13.15 0.14,13.01 0.31,12.88 0.50,12.80 0.70,12.72 0.91,12.71 1.13,12.70 1.33,12.75 1.54,12.81 1.71,12.93 1.89,13.05 2.02,13.22 2.14,13.39 2.21,13.59 2.28,13.79 2.28,14.00 2.28,14.21 2.21,14.42 2.14,14.62 2.01,14.79 1.89,14.95 1.71,15.07 1.53,15.19 1.33,15.25 1.12,15.31 0.91,15.30 0.70,15.28 0.50,15.20 0.31,15.13 0.14,14.99 -0.01,14.85 -0.12,14.67 -0.23,14.49 -0.27,14.28 -0.32,14.07 -0.29,13.86 -0.27,13.65 -0.18,13.46 -0.09,13.26 0.04,13.11 0.19,12.96 0.38,12.86 0.56,12.76 0.77,12.72 0.98,12.69 0.98,12.69 0.98,12.69 3.02,12.15 5.05,11.61 6.70,11.16 8.34,10.71 10.24,10.19 12.15,9.66 13.68,9.10 15.20,8.54 16.73,7.83 18.25,7.12 19.72,6.18 21.18,5.23 22.46,4.14 23.73,3.05 24.77,1.76 25.81,0.48 26.57,-0.81 27.32,-2.11 27.23,-3.81 27.15,-5.51 26.51,-6.64 25.87,-7.76 24.84,-9.14 23.81,-10.51 22.39,-12.10 20.96,-13.69 19.81,-14.80 18.66,-15.91 16.81,-17.62 14.95,-19.34 13.46,-20.63 11.96,-21.93 10.54,-23.10 9.13,-24.28 7.64,-25.41 6.14,-26.55 4.50,-27.72 2.86,-28.89 1.15,-30.16 -0.55,-31.43 -2.43,-32.89 -4.32,-34.35 -5.28,-35.11 -6.25,-35.87 -6.40,-36.15 -6.55,-36.42 -6.62,-36.73 -6.70,-37.03 -6.70,-37.35 -6.70,-37.66 -6.63,-37.96 -6.56,-38.27 -6.42,-38.55 -6.27,-38.82 -6.07,-39.06 -5.86,-39.30 -5.60,-39.48 -5.35,-39.66 -5.06,-39.77 -4.76,-39.88 -4.45,-39.92 -4.14,-39.96 -3.83,-39.93 -3.52,-39.89 -3.23,-39.78 -2.93,-39.68 -2.67,-39.50 -2.41,-39.32 -2.20,-39.09 -2.00,-38.86 -1.48,-38.09 -0.96,-37.33 -0.32,-36.24 0.30,-35.14 1.15,-33.49 1.99,-31.85 2.47,-30.64 2.94,-29.42 3.50,-27.73 4.07,-26.03 4.43,-24.53 4.80,-23.02 5.04,-21.50 5.29,-19.99 5.46,-18.31 5.63,-16.62 5.67,-14.90 5.72,-13.17 5.61,-11.46 5.50,-9.75 5.24,-8.01 4.99,-6.26 4.52,-4.55 4.05,-2.83 3.46,-1.50 2.87,-0.18 1.97,0.27 1.08,0.73 0.98,0.85 0.88,0.97 0.75,1.06 0.62,1.15 0.47,1.21 0.32,1.27 0.17,1.29 0.01,1.31 -0.14,1.29 -0.30,1.27 -0.44,1.22 -0.59,1.16 -0.72,1.08 -0.86,0.99 -0.96,0.87 -1.07,0.75 -1.14,0.61 -1.22,0.47 -1.26,0.32 -1.30,0.17 -1.30,0.01 -1.30,-0.14 -1.26,-0.29 -1.23,-0.45 -1.16,-0.59 -1.08,-0.73 -1.08,-0.73 L -1.08,-0.73 Z"/></g><g transform="translate(591.2440490722656 360.5888671875) rotate(0 10.48828125 -22.972442626953125)" stroke="none"><path fill="#1e1e1e" d="M -1.28,-0.28 Q -1.28,-0.28 -1.18,-1.33 -1.08,-2.38 -0.77,-5.04 -0.47,-7.71 -0.31,-10.03 -0.16,-12.34 -0.05,-14.45 0.06,-16.56 0.09,-18.64 0.12,-20.71 0.00,-22.77 -0.11,-24.83 -0.33,-27.07 -0.55,-29.32 -0.88,-31.27 -1.20,-33.21 -1.59,-34.93 -1.99,-36.66 -2.47,-38.03 -2.95,-39.40 -3.52,-40.60 -4.09,-41.79 -4.92,-43.08 -5.75,-44.36 -6.54,-45.17 -7.34,-45.97 -7.53,-46.21 -7.72,-46.45 -7.85,-46.73 -7.98,-47.01 -8.04,-47.31 -8.10,-47.61 -8.09,-47.92 -8.07,-48.23 -7.98,-48.52 -7.90,-48.82 -7.74,-49.08 -7.58,-49.35 -7.37,-49.57 -7.15,-49.78 -6.89,-49.95 -6.63,-50.11 -6.34,-50.20 -6.05,-50.30 -5.74,-50.32 -5.44,-50.34 -5.13,-50.29 -4.83,-50.24 -4.55,-50.12 -4.27,-49.99 -4.02,-49.81 -3.78,-49.62 -2.82,-48.38 -1.87,-47.15 -1.06,-46.42 -0.26,-45.70 0.77,-44.87 1.81,-44.05 3.03,-43.16 4.25,-42.27 6.06,-41.09 7.87,-39.92 9.56,-38.83 11.26,-37.75 12.88,-36.74 14.51,-35.73 16.08,-34.74 17.64,-33.74 19.16,-32.74 20.69,-31.73 22.07,-30.61 23.45,-29.49 24.82,-27.96 26.19,-26.43 27.09,-25.01 27.98,-23.59 28.51,-21.93 29.03,-20.27 29.05,-18.40 29.06,-16.53 28.56,-14.66 28.06,-12.78 27.02,-10.92 25.97,-9.07 23.92,-7.06 21.88,-5.06 19.50,-3.63 17.12,-2.20 14.63,-1.23 12.14,-0.27 9.27,0.37 6.40,1.02 4.58,1.64 2.76,2.27 2.55,2.31 2.35,2.36 2.14,2.33 1.92,2.31 1.73,2.21 1.54,2.12 1.39,1.98 1.23,1.83 1.14,1.64 1.04,1.45 1.01,1.24 0.97,1.03 1.01,0.82 1.05,0.61 1.15,0.43 1.25,0.24 1.41,0.09 1.56,-0.04 1.75,-0.13 1.95,-0.21 2.16,-0.24 2.37,-0.26 2.58,-0.21 2.79,-0.16 2.97,-0.05 3.15,0.05 3.28,0.21 3.42,0.38 3.50,0.58 3.57,0.77 3.58,0.99 3.59,1.20 3.53,1.40 3.47,1.61 3.35,1.78 3.23,1.96 3.06,2.08 2.89,2.21 2.69,2.28 2.49,2.34 2.28,2.34 2.06,2.34 1.86,2.27 1.66,2.20 1.49,2.07 1.33,1.94 1.21,1.76 1.09,1.58 1.04,1.38 0.98,1.17 0.99,0.96 1.01,0.75 1.09,0.55 1.17,0.36 1.31,0.20 1.45,0.03 1.63,-0.06 1.81,-0.17 1.81,-0.17 1.81,-0.17 3.57,-0.93 5.34,-1.70 7.73,-3.11 10.12,-4.53 12.15,-5.71 14.18,-6.89 16.01,-8.10 17.85,-9.32 19.38,-10.74 20.91,-12.15 21.68,-13.33 22.44,-14.50 22.85,-15.65 23.25,-16.80 23.20,-18.79 23.14,-20.78 22.58,-21.81 22.01,-22.84 21.00,-24.07 19.99,-25.30 18.84,-26.26 17.68,-27.22 16.22,-28.21 14.75,-29.19 13.21,-30.17 11.66,-31.15 10.00,-32.18 8.34,-33.21 6.63,-34.32 4.91,-35.43 3.00,-36.71 1.09,-37.98 -0.20,-38.95 -1.51,-39.92 -2.66,-40.86 -3.81,-41.80 -4.71,-42.63 -5.60,-43.46 -6.47,-44.72 -7.34,-45.97 -7.53,-46.21 -7.72,-46.45 -7.85,-46.73 -7.98,-47.01 -8.04,-47.31 -8.10,-47.61 -8.09,-47.92 -8.07,-48.23 -7.98,-48.52 -7.90,-48.82 -7.74,-49.08 -7.58,-49.35 -7.37,-49.56 -7.15,-49.78 -6.89,-49.95 -6.63,-50.11 -6.34,-50.20 -6.05,-50.30 -5.74,-50.32 -5.44,-50.34 -5.13,-50.29 -4.83,-50.24 -4.55,-50.12 -4.27,-49.99 -4.02,-49.81 -3.78,-49.62 -3.08,-48.76 -2.39,-47.90 -1.68,-46.73 -0.96,-45.56 -0.45,-44.62 0.05,-43.68 0.67,-42.25 1.29,-40.82 1.80,-39.22 2.31,-37.61 2.71,-35.75 3.11,-33.88 3.41,-31.79 3.71,-29.70 3.89,-27.36 4.08,-25.02 4.14,-22.80 4.21,-20.59 4.11,-18.43 4.01,-16.27 3.82,-14.13 3.63,-11.99 3.34,-9.61 3.06,-7.24 2.51,-4.47 1.97,-1.71 1.62,-0.71 1.28,0.28 1.23,0.43 1.17,0.57 1.09,0.71 1.00,0.84 0.88,0.95 0.77,1.06 0.63,1.13 0.49,1.21 0.34,1.25 0.19,1.29 0.03,1.30 -0.12,1.30 -0.27,1.27 -0.43,1.23 -0.57,1.16 -0.71,1.09 -0.83,0.99 -0.96,0.89 -1.05,0.76 -1.14,0.64 -1.20,0.49 -1.26,0.34 -1.28,0.19 -1.31,0.03 -1.29,-0.12 -1.28,-0.28 -1.28,-0.28 L -1.28,-0.28 Z"/></g></svg>