<svg version="1.1" xmlns="http://www.w3.org/2000/svg" viewBox="0 0 754.1023559570312 253.35537719726562" width="754.1023559570312" height="253.35537719726562" filter="invert(93%) hue-rotate(180deg)" class="excalidraw-svg">
  <!-- svg-source:excalidraw -->
  
  <defs>
    <style class="style-fonts">
      @font-face {
        font-family: "Virgil";
        src: url("https://excalidraw.com/Virgil.woff2");
      }
      @font-face {
        font-family: "Cascadia";
        src: url("https://excalidraw.com/Cascadia.woff2");
      }
      @font-face {
        font-family: "Assistant";
        src: url("https://excalidraw.com/Assistant-Regular.woff2");
      }
    </style>
    
  </defs>
  <rect x="0" y="0" width="754.1023559570312" height="253.35537719726562" fill="#ffffff"/><g stroke-linecap="round" transform="translate(232.51971435546875 10) rotate(0 139.18109130859375 116.67768859863281)"><path d="M32 0 C96.08 -1.45, 156.5 -2.9, 246.36 0 M32 0 C110.55 0.78, 189.79 0.74, 246.36 0 M246.36 0 C267.45 -0.97, 278.22 11.27, 278.36 32 M246.36 0 C265.56 -0.16, 278.5 11.21, 278.36 32 M278.36 32 C278.69 87.61, 277.72 145.12, 278.36 201.36 M278.36 32 C277.22 73.44, 276.17 116.63, 278.36 201.36 M278.36 201.36 C280.3 222.4, 266.14 233.11, 246.36 233.36 M278.36 201.36 C277.92 223.57, 269.28 234.91, 246.36 233.36 M246.36 233.36 C182.67 230.34, 118.27 231.92, 32 233.36 M246.36 233.36 C191.28 234.12, 135.95 233.77, 32 233.36 M32 233.36 C9.9 235.29, 0.19 221.48, 0 201.36 M32 233.36 C10.1 231.57, 0.54 223.3, 0 201.36 M0 201.36 C0.22 154.35, -0.8 109.17, 0 32 M0 201.36 C0.65 140.88, 0.83 80.2, 0 32 M0 32 C-0.04 11.23, 9.05 0.16, 32 0 M0 32 C0.49 10.28, 10.24 -0.3, 32 0" stroke="#1e1e1e" stroke-width="2" fill="none"/></g><g stroke-linecap="round"><g transform="translate(93.4803466796875 55.352020263671875) rotate(0 68.13778686523438 1.0004119873046875)"><path d="M0.84 0.6 C23.38 1.3, 113.57 2.95, 136.18 3.05 M-0.17 -0.14 C22.11 0.35, 112.5 1.1, 135.18 1.47" stroke="#1e1e1e" stroke-width="2" fill="none"/></g></g><mask/><g stroke-linecap="round"><g transform="translate(511.73236083984375 46.311248779296875) rotate(0 67.9251708984375 0.6669464111328125)"><path d="M-0.24 0.48 C22.37 0.55, 113.74 1.29, 136.3 1.32 M-1.82 -0.32 C20.61 -0.13, 112.35 2.53, 135.59 2.85" stroke="#1e1e1e" stroke-width="2" fill="none"/></g></g><mask/><g stroke-linecap="round"><g transform="translate(510.03155517578125 185.62789916992188) rotate(0 66.25982666015625 2.1490325927734375)"><path d="M0.94 0.28 C23.07 0.74, 111.46 2.61, 133.32 3.46 M-0.02 -0.62 C21.97 -0.09, 110.94 3.86, 132.79 4.55" stroke="#1e1e1e" stroke-width="2" fill="none"/></g></g><mask/><g transform="translate(10.3543701171875 43.1988525390625) rotate(0 0.035400390625 13.19061279296875)" stroke="none"><path fill="#1e1e1e" d="M 0.65,-0.02 Q 0.65,-0.02 1.03,1.07 1.41,2.16 1.52,3.52 1.63,4.89 1.69,6.51 1.74,8.13 1.77,9.75 1.80,11.38 1.80,12.99 1.79,14.61 1.78,15.98 1.76,17.35 1.71,18.56 1.66,19.78 1.62,20.61 1.58,21.45 1.53,22.28 1.48,23.12 1.02,25.33 0.56,27.53 0.55,27.64 0.55,27.75 0.50,27.84 0.46,27.94 0.39,28.02 0.32,28.10 0.23,28.16 0.14,28.21 0.04,28.23 -0.06,28.25 -0.16,28.24 -0.27,28.22 -0.37,28.18 -0.46,28.13 -0.54,28.06 -0.61,27.98 -0.66,27.89 -0.71,27.79 -0.72,27.69 -0.74,27.58 -0.72,27.48 -0.70,27.37 -0.65,27.28 -0.60,27.19 -0.52,27.12 -0.44,27.05 -0.35,27.00 -0.25,26.96 -0.14,26.95 -0.04,26.94 0.06,26.96 0.16,26.99 0.25,27.05 0.34,27.10 0.41,27.18 0.48,27.27 0.51,27.37 0.55,27.46 0.55,27.57 0.56,27.68 0.53,27.78 0.50,27.88 0.44,27.97 0.38,28.05 0.29,28.12 0.20,28.18 0.10,28.21 0.00,28.24 -0.09,28.24 -0.20,28.24 -0.30,28.21 -0.40,28.17 -0.48,28.10 -0.57,28.04 -0.63,27.95 -0.68,27.86 -0.71,27.76 -0.74,27.65 -0.74,27.65 -0.74,27.66 -1.05,25.32 -1.37,22.99 -1.34,22.14 -1.31,21.30 -1.27,20.48 -1.22,19.65 -1.17,18.47 -1.12,17.29 -1.08,15.94 -1.05,14.59 -1.03,13.00 -1.00,11.41 -1.01,9.81 -1.02,8.20 -1.04,6.64 -1.07,5.08 -1.16,3.67 -1.24,2.26 -0.95,1.14 -0.65,0.02 -0.64,-0.05 -0.64,-0.13 -0.61,-0.20 -0.59,-0.28 -0.54,-0.35 -0.50,-0.41 -0.44,-0.47 -0.39,-0.52 -0.32,-0.56 -0.25,-0.60 -0.17,-0.62 -0.10,-0.64 -0.02,-0.65 0.05,-0.65 0.13,-0.63 0.21,-0.62 0.28,-0.58 0.35,-0.55 0.41,-0.50 0.47,-0.45 0.52,-0.38 0.56,-0.32 0.60,-0.25 0.63,-0.18 0.64,-0.10 0.65,-0.02 0.65,-0.02 L 0.65,-0.02 Z"/></g><g transform="translate(26.93701171875 46.978179931640625) rotate(0 3.61419677734375 9.781814575195312)" stroke="none"><path fill="#1e1e1e" d="M 0.32,0.57 Q 0.32,0.57 -0.16,1.03 -0.65,1.50 -1.15,1.89 -1.65,2.28 -2.10,3.04 -2.55,3.80 -2.86,4.84 -3.17,5.89 -3.18,6.98 -3.20,8.06 -3.11,9.11 -3.03,10.17 -2.76,11.14 -2.48,12.10 -2.12,13.02 -1.75,13.94 -1.31,14.71 -0.87,15.47 -0.36,16.01 0.14,16.55 0.68,16.97 1.22,17.39 1.82,17.64 2.41,17.89 3.00,17.94 3.59,17.99 4.20,17.82 4.82,17.66 5.42,17.33 6.03,17.00 6.72,16.20 7.41,15.40 7.99,14.52 8.56,13.64 8.99,12.73 9.41,11.81 9.68,10.97 9.95,10.14 10.15,9.26 10.35,8.38 10.50,7.54 10.65,6.70 10.48,5.18 10.31,3.67 10.34,3.57 10.36,3.46 10.42,3.38 10.48,3.29 10.56,3.22 10.65,3.16 10.75,3.12 10.85,3.08 10.95,3.08 11.06,3.08 11.16,3.11 11.26,3.14 11.35,3.21 11.43,3.27 11.49,3.36 11.55,3.44 11.58,3.55 11.61,3.65 11.61,3.75 11.61,3.86 11.57,3.96 11.53,4.06 11.46,4.14 11.40,4.22 11.31,4.28 11.22,4.34 11.11,4.36 11.01,4.38 10.90,4.38 10.80,4.37 10.70,4.32 10.60,4.28 10.53,4.21 10.45,4.14 10.40,4.04 10.34,3.95 10.33,3.85 10.31,3.74 10.32,3.64 10.34,3.53 10.39,3.44 10.43,3.34 10.51,3.27 10.59,3.19 10.68,3.15 10.78,3.10 10.88,3.09 10.99,3.07 11.09,3.09 11.20,3.12 11.29,3.17 11.38,3.22 11.45,3.30 11.52,3.38 11.56,3.48 11.60,3.58 11.61,3.68 11.62,3.79 11.62,3.79 11.62,3.79 12.10,5.34 12.58,6.89 12.54,7.84 12.51,8.78 12.35,9.79 12.19,10.80 11.92,11.80 11.64,12.80 11.16,13.91 10.68,15.01 10.00,16.07 9.31,17.14 8.28,18.21 7.25,19.28 6.31,19.73 5.36,20.18 4.34,20.36 3.31,20.54 2.34,20.38 1.37,20.23 0.51,19.81 -0.35,19.39 -1.04,18.82 -1.74,18.25 -2.40,17.47 -3.06,16.70 -3.56,15.77 -4.05,14.84 -4.45,13.78 -4.85,12.72 -5.14,11.54 -5.43,10.35 -5.50,9.16 -5.58,7.97 -5.51,6.66 -5.43,5.36 -5.24,4.62 -5.04,3.88 -4.79,3.31 -4.53,2.73 -4.22,2.21 -3.91,1.68 -3.46,1.18 -3.00,0.69 -2.31,0.23 -1.62,-0.22 -0.97,-0.39 -0.32,-0.57 -0.24,-0.60 -0.17,-0.63 -0.09,-0.64 -0.01,-0.65 0.06,-0.64 0.13,-0.64 0.21,-0.61 0.28,-0.58 0.35,-0.54 0.42,-0.50 0.47,-0.44 0.53,-0.38 0.56,-0.31 0.60,-0.24 0.62,-0.17 0.64,-0.09 0.65,-0.01 0.65,0.06 0.63,0.13 0.62,0.21 0.58,0.28 0.55,0.35 0.49,0.41 0.44,0.47 0.38,0.52 0.32,0.57 0.32,0.57 L 0.32,0.57 Z"/></g><g transform="translate(31.1181640625 49.49774169921875) rotate(0 -0.70867919921875 15.561965942382812)" stroke="none"><path fill="#1e1e1e" d="M 0.65,0.04 Q 0.65,0.04 0.62,0.90 0.59,1.75 0.58,2.79 0.58,3.82 0.51,5.55 0.45,7.27 0.43,8.46 0.41,9.65 0.40,11.52 0.39,13.39 0.33,15.18 0.28,16.98 0.23,18.08 0.18,19.18 0.15,19.99 0.11,20.80 0.06,22.30 0.02,23.79 -0.04,24.93 -0.11,26.07 -0.41,28.20 -0.70,30.34 -0.73,30.44 -0.75,30.55 -0.81,30.64 -0.86,30.73 -0.95,30.80 -1.03,30.86 -1.13,30.90 -1.22,30.94 -1.33,30.95 -1.44,30.95 -1.54,30.92 -1.64,30.89 -1.73,30.83 -1.82,30.77 -1.88,30.69 -1.94,30.60 -1.98,30.50 -2.01,30.40 -2.01,30.29 -2.01,30.19 -1.97,30.09 -1.94,29.98 -1.87,29.90 -1.81,29.82 -1.72,29.76 -1.63,29.70 -1.53,29.67 -1.42,29.64 -1.32,29.65 -1.21,29.66 -1.11,29.70 -1.02,29.74 -0.94,29.81 -0.86,29.88 -0.80,29.97 -0.75,30.06 -0.73,30.17 -0.70,30.27 -0.72,30.37 -0.73,30.48 -0.77,30.58 -0.82,30.67 -0.89,30.75 -0.97,30.82 -1.06,30.87 -1.16,30.92 -1.26,30.94 -1.37,30.95 -1.47,30.94 -1.58,30.92 -1.67,30.87 -1.76,30.82 -1.83,30.74 -1.91,30.66 -1.95,30.56 -1.99,30.47 -2.00,30.36 -2.02,30.26 -2.02,30.26 -2.02,30.26 -2.10,28.13 -2.18,26.00 -2.18,24.87 -2.17,23.74 -2.14,22.21 -2.10,20.68 -2.05,19.87 -2.00,19.07 -1.94,17.97 -1.88,16.87 -1.76,15.10 -1.65,13.33 -1.55,11.43 -1.46,9.53 -1.33,8.36 -1.20,7.19 -1.10,5.47 -1.01,3.75 -0.92,2.70 -0.83,1.65 -0.74,0.80 -0.65,-0.04 -0.63,-0.12 -0.62,-0.20 -0.59,-0.27 -0.55,-0.34 -0.50,-0.40 -0.45,-0.46 -0.39,-0.51 -0.33,-0.56 -0.26,-0.59 -0.18,-0.62 -0.11,-0.64 -0.03,-0.65 0.04,-0.65 0.12,-0.64 0.20,-0.62 0.27,-0.59 0.34,-0.55 0.41,-0.51 0.46,-0.45 0.52,-0.39 0.56,-0.33 0.60,-0.26 0.62,-0.18 0.64,-0.11 0.65,-0.03 0.65,0.04 0.65,0.04 L 0.65,0.04 Z"/></g><g transform="translate(43.37799072265625 44.088104248046875) rotate(0 6.4842529296875 16.5623779296875)" stroke="none"><path fill="#1e1e1e" d="M 0.56,-0.33 Q 0.56,-0.33 1.39,0.49 2.22,1.32 2.78,2.03 3.34,2.73 3.98,3.35 4.62,3.97 5.55,4.77 6.47,5.58 7.07,6.10 7.67,6.62 8.08,6.96 8.50,7.30 9.16,7.85 9.82,8.39 10.51,8.95 11.21,9.51 11.75,9.99 12.29,10.46 12.72,10.91 13.15,11.36 13.52,12.00 13.89,12.63 14.10,13.60 14.32,14.57 14.33,15.47 14.34,16.37 14.14,17.36 13.94,18.34 13.48,19.36 13.03,20.38 12.43,21.45 11.82,22.52 11.02,23.63 10.22,24.75 9.36,25.80 8.49,26.85 7.67,27.72 6.84,28.60 6.13,29.39 5.43,30.18 3.73,31.59 2.03,33.01 1.95,33.08 1.87,33.14 1.77,33.18 1.67,33.22 1.56,33.22 1.46,33.23 1.35,33.20 1.25,33.17 1.17,33.10 1.08,33.04 1.02,32.96 0.95,32.87 0.92,32.77 0.89,32.67 0.89,32.56 0.89,32.46 0.93,32.36 0.97,32.26 1.03,32.17 1.10,32.09 1.19,32.03 1.28,31.97 1.38,31.95 1.48,31.92 1.59,31.93 1.69,31.94 1.79,31.98 1.89,32.02 1.97,32.09 2.05,32.16 2.10,32.25 2.16,32.35 2.18,32.45 2.20,32.55 2.18,32.66 2.17,32.76 2.12,32.86 2.08,32.96 2.00,33.03 1.93,33.11 1.83,33.15 1.74,33.20 1.63,33.22 1.53,33.23 1.42,33.21 1.32,33.19 1.22,33.14 1.13,33.09 1.06,33.01 0.99,32.93 0.95,32.84 0.90,32.74 0.89,32.63 0.89,32.53 0.91,32.42 0.94,32.32 0.99,32.23 1.05,32.14 1.05,32.14 1.05,32.14 2.10,30.20 3.15,28.26 3.84,27.38 4.53,26.50 5.27,25.66 6.00,24.82 6.80,23.83 7.59,22.84 8.30,21.87 9.01,20.89 9.57,19.95 10.13,19.01 10.48,18.31 10.84,17.62 11.02,16.97 11.19,16.32 11.22,15.69 11.25,15.06 11.21,14.52 11.18,13.97 10.75,13.30 10.31,12.63 9.85,12.19 9.38,11.74 8.67,11.15 7.96,10.56 7.33,9.99 6.70,9.43 6.27,9.06 5.84,8.70 5.24,8.16 4.63,7.61 3.67,6.72 2.72,5.83 2.00,5.06 1.28,4.29 0.67,3.44 0.05,2.59 -0.25,1.46 -0.56,0.33 -0.59,0.25 -0.63,0.18 -0.64,0.10 -0.65,0.02 -0.64,-0.05 -0.64,-0.12 -0.61,-0.20 -0.59,-0.27 -0.55,-0.34 -0.51,-0.41 -0.45,-0.46 -0.39,-0.52 -0.32,-0.56 -0.25,-0.60 -0.18,-0.62 -0.10,-0.64 -0.02,-0.65 0.05,-0.65 0.12,-0.63 0.20,-0.62 0.27,-0.58 0.34,-0.55 0.41,-0.50 0.47,-0.45 0.51,-0.39 0.56,-0.33 0.56,-0.33 L 0.56,-0.33 Z"/></g><g transform="translate(682.8031616210938 35.78839111328125) rotate(0 -0.283447265625 15.228500366210938)" stroke="none"><path fill="#1e1e1e" d="M 0.65,-0.02 Q 0.65,-0.02 0.88,1.03 1.11,2.09 1.20,3.19 1.28,4.30 1.36,5.56 1.43,6.83 1.54,8.30 1.65,9.76 1.63,11.82 1.62,13.87 1.55,15.55 1.48,17.24 1.44,18.64 1.40,20.04 1.32,21.30 1.25,22.56 1.16,23.64 1.08,24.73 0.90,25.89 0.73,27.06 0.14,28.73 -0.44,30.40 -0.48,30.50 -0.52,30.60 -0.59,30.68 -0.66,30.76 -0.75,30.81 -0.84,30.87 -0.95,30.89 -1.05,30.91 -1.16,30.90 -1.26,30.89 -1.36,30.85 -1.46,30.80 -1.53,30.73 -1.61,30.65 -1.66,30.56 -1.71,30.47 -1.73,30.36 -1.74,30.26 -1.72,30.15 -1.71,30.05 -1.66,29.95 -1.61,29.86 -1.53,29.79 -1.45,29.71 -1.36,29.67 -1.26,29.62 -1.15,29.61 -1.05,29.60 -0.94,29.63 -0.84,29.65 -0.75,29.70 -0.66,29.76 -0.59,29.84 -0.52,29.92 -0.48,30.02 -0.44,30.12 -0.44,30.22 -0.43,30.33 -0.46,30.43 -0.49,30.54 -0.55,30.62 -0.61,30.71 -0.69,30.77 -0.78,30.84 -0.88,30.87 -0.98,30.91 -1.09,30.91 -1.19,30.91 -1.29,30.87 -1.39,30.84 -1.48,30.77 -1.56,30.71 -1.62,30.62 -1.68,30.53 -1.71,30.43 -1.74,30.33 -1.73,30.22 -1.73,30.11 -1.73,30.11 -1.73,30.11 -1.74,28.44 -1.75,26.77 -1.65,25.65 -1.56,24.54 -1.49,23.46 -1.42,22.38 -1.33,21.16 -1.24,19.94 -1.17,18.53 -1.10,17.11 -1.01,15.46 -0.91,13.81 -0.83,11.85 -0.75,9.89 -0.80,8.40 -0.86,6.92 -0.87,5.66 -0.89,4.41 -0.92,3.29 -0.95,2.17 -0.80,1.09 -0.65,0.02 -0.64,-0.05 -0.64,-0.13 -0.61,-0.20 -0.59,-0.28 -0.55,-0.34 -0.50,-0.41 -0.45,-0.47 -0.39,-0.52 -0.32,-0.56 -0.25,-0.60 -0.18,-0.62 -0.10,-0.64 -0.02,-0.65 0.05,-0.65 0.13,-0.63 0.20,-0.62 0.28,-0.58 0.35,-0.55 0.41,-0.50 0.47,-0.45 0.52,-0.39 0.56,-0.32 0.60,-0.25 0.63,-0.18 0.64,-0.10 0.65,-0.02 0.65,-0.02 L 0.65,-0.02 Z"/></g><g transform="translate(700.8031616210938 41.9390869140625) rotate(0 9.17718505859375 4.409210205078125)" stroke="none"><path fill="#1e1e1e" d="M 0.53,0.38 Q 0.53,0.38 0.52,0.92 0.51,1.45 0.36,2.61 0.20,3.76 0.19,4.81 0.17,5.86 0.27,6.67 0.36,7.49 0.50,8.20 0.63,8.91 0.89,9.38 1.14,9.86 1.49,10.27 1.84,10.69 2.81,11.05 3.79,11.40 4.50,11.40 5.21,11.40 6.23,10.96 7.26,10.52 8.40,9.87 9.53,9.22 10.54,8.42 11.55,7.63 12.48,6.76 13.41,5.89 14.16,5.02 14.92,4.14 15.57,3.25 16.22,2.36 16.81,1.36 17.41,0.36 18.06,-1.48 18.72,-3.33 18.73,-3.44 18.74,-3.54 18.79,-3.64 18.84,-3.73 18.91,-3.81 18.99,-3.89 19.08,-3.93 19.17,-3.98 19.28,-4.00 19.38,-4.01 19.49,-3.99 19.59,-3.97 19.69,-3.92 19.78,-3.87 19.85,-3.79 19.92,-3.72 19.97,-3.62 20.01,-3.52 20.02,-3.42 20.03,-3.31 20.00,-3.21 19.98,-3.10 19.92,-3.01 19.87,-2.92 19.78,-2.86 19.70,-2.79 19.60,-2.75 19.50,-2.71 19.40,-2.71 19.29,-2.70 19.19,-2.73 19.09,-2.77 19.00,-2.83 18.91,-2.89 18.85,-2.97 18.79,-3.06 18.76,-3.16 18.72,-3.26 18.73,-3.37 18.73,-3.47 18.76,-3.57 18.80,-3.67 18.86,-3.76 18.93,-3.84 19.02,-3.90 19.11,-3.96 19.21,-3.98 19.31,-4.01 19.42,-4.00 19.53,-3.99 19.62,-3.95 19.72,-3.91 19.80,-3.84 19.88,-3.77 19.93,-3.68 19.99,-3.59 20.01,-3.48 20.03,-3.38 20.03,-3.38 20.03,-3.38 19.78,-0.93 19.53,1.51 18.95,2.68 18.37,3.86 17.68,4.88 17.00,5.90 16.15,6.91 15.31,7.92 14.29,8.88 13.27,9.84 12.09,10.75 10.91,11.65 9.58,12.39 8.25,13.13 6.74,13.65 5.23,14.18 4.18,14.14 3.13,14.10 2.14,13.81 1.15,13.51 0.42,12.96 -0.29,12.42 -0.81,11.73 -1.33,11.05 -1.69,10.23 -2.04,9.42 -2.18,8.59 -2.33,7.76 -2.41,6.78 -2.50,5.79 -2.46,4.60 -2.41,3.40 -2.27,2.48 -2.13,1.56 -1.85,0.77 -1.57,-0.00 -1.05,-0.19 -0.53,-0.38 -0.47,-0.44 -0.42,-0.50 -0.35,-0.54 -0.28,-0.58 -0.21,-0.61 -0.13,-0.64 -0.06,-0.64 0.01,-0.65 0.09,-0.64 0.17,-0.63 0.24,-0.60 0.32,-0.57 0.38,-0.52 0.44,-0.47 0.49,-0.41 0.55,-0.35 0.58,-0.28 0.62,-0.21 0.63,-0.13 0.65,-0.06 0.65,0.01 0.64,0.09 0.62,0.17 0.60,0.24 0.56,0.31 0.53,0.38 0.53,0.38 L 0.53,0.38 Z"/></g><g transform="translate(711.7874145507812 37.715118408203125) rotate(0 -0.9566650390625 16.303009033203125)" stroke="none"><path fill="#1e1e1e" d="M 0.63,0.16 Q 0.63,0.16 0.44,1.18 0.26,2.21 0.13,3.22 0.00,4.23 -0.08,5.44 -0.17,6.65 -0.25,8.15 -0.33,9.64 -0.37,11.24 -0.40,12.84 -0.45,14.98 -0.49,17.12 -0.51,18.80 -0.53,20.49 -0.55,21.98 -0.57,23.47 -0.54,24.73 -0.52,26.00 -0.49,27.13 -0.45,28.26 -0.50,30.15 -0.55,32.04 -0.55,32.14 -0.55,32.25 -0.59,32.35 -0.62,32.45 -0.69,32.54 -0.75,32.62 -0.84,32.68 -0.93,32.74 -1.03,32.77 -1.13,32.79 -1.24,32.79 -1.35,32.78 -1.44,32.74 -1.54,32.70 -1.62,32.63 -1.70,32.56 -1.76,32.47 -1.81,32.38 -1.84,32.28 -1.86,32.17 -1.85,32.07 -1.83,31.96 -1.79,31.87 -1.74,31.77 -1.67,31.69 -1.60,31.62 -1.50,31.57 -1.41,31.52 -1.30,31.50 -1.20,31.48 -1.09,31.50 -0.99,31.52 -0.90,31.57 -0.80,31.62 -0.73,31.70 -0.66,31.77 -0.61,31.87 -0.57,31.97 -0.56,32.07 -0.55,32.18 -0.57,32.28 -0.59,32.39 -0.65,32.48 -0.70,32.57 -0.78,32.64 -0.87,32.71 -0.97,32.74 -1.06,32.78 -1.17,32.79 -1.28,32.79 -1.38,32.76 -1.48,32.74 -1.57,32.68 -1.66,32.62 -1.72,32.53 -1.78,32.45 -1.82,32.35 -1.85,32.24 -1.85,32.24 -1.85,32.24 -2.40,30.31 -2.95,28.37 -3.02,27.21 -3.09,26.05 -3.12,24.73 -3.14,23.40 -3.09,21.92 -3.04,20.43 -2.97,18.72 -2.91,17.02 -2.78,14.88 -2.64,12.74 -2.53,11.11 -2.43,9.47 -2.27,7.96 -2.11,6.44 -1.93,5.19 -1.76,3.94 -1.54,2.86 -1.32,1.79 -0.97,0.81 -0.63,-0.16 -0.60,-0.24 -0.57,-0.31 -0.53,-0.37 -0.48,-0.44 -0.42,-0.49 -0.36,-0.54 -0.29,-0.58 -0.22,-0.61 -0.14,-0.63 -0.06,-0.65 0.01,-0.65 0.09,-0.65 0.16,-0.63 0.24,-0.60 0.31,-0.57 0.38,-0.53 0.44,-0.48 0.49,-0.42 0.54,-0.36 0.58,-0.29 0.61,-0.22 0.64,-0.14 0.64,-0.06 0.65,0.01 0.64,0.08 0.63,0.16 0.63,0.16 L 0.63,0.16 Z"/></g><g transform="translate(730.2835083007812 39.419525146484375) rotate(0 6.909423828125 11.75262451171875)" stroke="none"><path fill="#1e1e1e" d="M 0.37,-0.53 Q 0.37,-0.53 1.31,-0.13 2.25,0.26 3.08,0.80 3.90,1.34 4.74,1.90 5.58,2.46 6.41,3.00 7.25,3.54 8.28,4.21 9.30,4.88 10.09,5.45 10.88,6.03 11.50,6.50 12.13,6.97 12.68,7.49 13.23,8.02 13.66,8.57 14.10,9.13 14.43,9.76 14.77,10.40 14.91,11.16 15.05,11.93 14.96,12.72 14.87,13.51 14.64,14.25 14.41,14.99 13.85,15.88 13.28,16.77 12.73,17.42 12.17,18.07 11.48,18.68 10.80,19.28 10.06,19.83 9.32,20.39 7.50,21.82 5.68,23.26 5.58,23.28 5.48,23.30 5.37,23.30 5.27,23.29 5.17,23.24 5.07,23.20 4.99,23.13 4.91,23.06 4.86,22.96 4.81,22.87 4.79,22.77 4.77,22.66 4.79,22.56 4.80,22.45 4.85,22.36 4.90,22.26 4.98,22.19 5.05,22.11 5.15,22.07 5.24,22.02 5.35,22.01 5.46,21.99 5.56,22.01 5.66,22.04 5.76,22.09 5.85,22.14 5.92,22.22 5.99,22.30 6.03,22.40 6.07,22.50 6.08,22.60 6.08,22.71 6.06,22.81 6.03,22.92 5.97,23.00 5.92,23.09 5.83,23.16 5.75,23.22 5.65,23.26 5.55,23.30 5.44,23.30 5.34,23.30 5.23,23.27 5.13,23.24 5.05,23.17 4.96,23.11 4.90,23.02 4.84,22.94 4.81,22.83 4.78,22.73 4.78,22.63 4.79,22.52 4.82,22.42 4.86,22.32 4.93,22.24 5.00,22.16 5.09,22.10 5.18,22.04 5.18,22.04 5.18,22.04 6.48,20.38 7.78,18.71 8.37,18.05 8.95,17.38 9.45,16.84 9.95,16.29 10.37,15.72 10.79,15.15 11.35,14.09 11.91,13.03 12.02,12.32 12.12,11.60 11.70,10.79 11.27,9.97 10.86,9.54 10.45,9.10 9.86,8.62 9.28,8.14 8.56,7.58 7.84,7.01 6.85,6.30 5.86,5.60 5.03,5.00 4.19,4.40 3.40,3.81 2.61,3.21 1.80,2.62 1.00,2.03 0.31,1.28 -0.37,0.53 -0.43,0.48 -0.49,0.43 -0.54,0.36 -0.58,0.29 -0.61,0.22 -0.63,0.15 -0.64,0.07 -0.65,-0.00 -0.64,-0.08 -0.63,-0.16 -0.60,-0.23 -0.57,-0.31 -0.53,-0.37 -0.48,-0.44 -0.42,-0.49 -0.36,-0.54 -0.29,-0.58 -0.22,-0.61 -0.14,-0.63 -0.07,-0.65 0.00,-0.65 0.08,-0.65 0.16,-0.63 0.23,-0.61 0.30,-0.57 0.37,-0.53 0.37,-0.53 L 0.37,-0.53 Z"/></g><g transform="translate(678.1260375976562 179.92184448242188) rotate(0 -0.17718505859375 9.596542358398438)" stroke="none"><path fill="#1e1e1e" d="M 0.65,0.07 Q 0.65,0.07 0.79,0.99 0.94,1.92 0.94,2.75 0.93,3.59 0.91,4.53 0.89,5.47 0.91,6.45 0.93,7.43 0.95,8.79 0.97,10.14 1.01,11.25 1.05,12.35 1.07,13.30 1.09,14.25 1.12,15.04 1.15,15.83 0.93,17.39 0.71,18.95 0.70,19.06 0.69,19.16 0.64,19.26 0.59,19.35 0.52,19.43 0.45,19.50 0.35,19.55 0.26,19.60 0.15,19.62 0.05,19.63 -0.05,19.61 -0.15,19.59 -0.25,19.54 -0.34,19.49 -0.41,19.41 -0.48,19.33 -0.52,19.23 -0.57,19.14 -0.58,19.03 -0.59,18.93 -0.56,18.82 -0.54,18.72 -0.48,18.63 -0.42,18.54 -0.34,18.47 -0.26,18.40 -0.16,18.37 -0.06,18.33 0.04,18.33 0.14,18.32 0.24,18.35 0.35,18.38 0.43,18.45 0.52,18.51 0.58,18.59 0.64,18.68 0.68,18.78 0.71,18.88 0.71,18.99 0.70,19.09 0.67,19.19 0.63,19.29 0.57,19.38 0.50,19.46 0.41,19.52 0.32,19.58 0.22,19.60 0.12,19.63 0.01,19.62 -0.09,19.61 -0.18,19.57 -0.28,19.53 -0.36,19.46 -0.44,19.39 -0.49,19.30 -0.55,19.20 -0.57,19.10 -0.59,19.00 -0.59,19.00 -0.59,19.00 -1.02,17.50 -1.46,16.01 -1.54,15.18 -1.63,14.35 -1.68,13.40 -1.73,12.45 -1.77,11.29 -1.80,10.13 -1.77,8.76 -1.73,7.39 -1.68,6.38 -1.62,5.36 -1.57,4.41 -1.51,3.46 -1.43,2.56 -1.35,1.65 -1.00,0.79 -0.65,-0.07 -0.63,-0.15 -0.61,-0.22 -0.57,-0.29 -0.54,-0.36 -0.49,-0.42 -0.43,-0.48 -0.37,-0.53 -0.30,-0.57 -0.23,-0.60 -0.16,-0.63 -0.08,-0.64 -0.00,-0.65 0.07,-0.64 0.15,-0.63 0.22,-0.61 0.30,-0.58 0.36,-0.53 0.43,-0.49 0.48,-0.43 0.53,-0.37 0.57,-0.30 0.61,-0.23 0.63,-0.16 0.65,-0.08 0.65,-0.00 0.65,0.07 0.65,0.07 L 0.65,0.07 Z"/></g><g transform="translate(695.9133911132812 178.43972778320312) rotate(0 10.594482421875 5.66900634765625)" stroke="none"><path fill="#1e1e1e" d="M 0.65,0.06 Q 0.65,0.06 0.79,0.89 0.93,1.72 0.80,2.71 0.68,3.69 0.62,4.37 0.57,5.05 0.53,5.69 0.49,6.33 0.51,6.98 0.53,7.63 0.60,8.27 0.67,8.91 0.86,9.67 1.06,10.43 1.52,11.45 1.98,12.47 2.64,13.07 3.31,13.67 4.03,13.76 4.76,13.85 5.27,13.67 5.79,13.49 6.72,12.97 7.65,12.45 8.57,11.86 9.48,11.26 10.41,10.54 11.34,9.82 12.26,8.98 13.19,8.14 14.03,7.34 14.88,6.54 15.70,5.63 16.52,4.72 17.38,3.62 18.24,2.51 18.86,1.59 19.47,0.67 19.83,-0.03 20.19,-0.74 20.66,-2.16 21.13,-3.58 21.12,-3.69 21.11,-3.79 21.13,-3.90 21.15,-4.00 21.20,-4.09 21.26,-4.18 21.34,-4.25 21.42,-4.32 21.52,-4.36 21.62,-4.40 21.72,-4.41 21.83,-4.42 21.93,-4.39 22.03,-4.36 22.12,-4.30 22.21,-4.24 22.27,-4.16 22.34,-4.07 22.37,-3.97 22.41,-3.87 22.41,-3.77 22.41,-3.66 22.38,-3.56 22.34,-3.46 22.28,-3.37 22.22,-3.29 22.13,-3.23 22.04,-3.17 21.94,-3.14 21.84,-3.11 21.73,-3.11 21.62,-3.12 21.53,-3.16 21.43,-3.20 21.34,-3.26 21.26,-3.33 21.21,-3.42 21.15,-3.51 21.13,-3.62 21.11,-3.72 21.12,-3.83 21.13,-3.93 21.17,-4.03 21.21,-4.13 21.29,-4.20 21.36,-4.28 21.45,-4.33 21.55,-4.38 21.65,-4.40 21.76,-4.42 21.86,-4.40 21.97,-4.39 22.06,-4.34 22.15,-4.29 22.23,-4.21 22.30,-4.13 22.35,-4.04 22.39,-3.94 22.39,-3.94 22.39,-3.94 22.45,-1.82 22.52,0.30 22.15,1.20 21.79,2.10 21.17,3.16 20.55,4.22 19.67,5.47 18.79,6.72 17.90,7.74 17.01,8.77 16.14,9.60 15.26,10.44 14.25,11.36 13.23,12.27 12.20,13.06 11.16,13.85 10.13,14.52 9.10,15.18 7.85,15.81 6.60,16.44 5.63,16.66 4.66,16.88 3.82,16.81 2.98,16.73 2.25,16.41 1.52,16.08 0.91,15.59 0.31,15.10 -0.15,14.48 -0.61,13.87 -1.01,13.07 -1.42,12.26 -1.58,11.65 -1.75,11.05 -1.93,10.10 -2.12,9.15 -2.16,8.38 -2.21,7.61 -2.18,6.84 -2.15,6.08 -2.06,5.38 -1.97,4.69 -1.82,3.96 -1.68,3.22 -1.46,2.36 -1.25,1.50 -0.95,0.72 -0.65,-0.06 -0.63,-0.14 -0.61,-0.22 -0.58,-0.29 -0.54,-0.36 -0.49,-0.42 -0.44,-0.48 -0.38,-0.52 -0.31,-0.57 -0.24,-0.60 -0.17,-0.63 -0.09,-0.64 -0.01,-0.65 0.06,-0.64 0.14,-0.64 0.21,-0.61 0.29,-0.58 0.35,-0.54 0.42,-0.50 0.47,-0.44 0.53,-0.38 0.57,-0.31 0.60,-0.24 0.62,-0.16 0.65,-0.09 0.65,-0.01 0.65,0.06 0.65,0.06 L 0.65,0.06 Z"/></g><g transform="translate(709.5906372070312 175.77197265625) rotate(0 -1.275634765625 16.747634887695312)" stroke="none"><path fill="#1e1e1e" d="M 0.62,0.20 Q 0.62,0.20 0.49,0.77 0.37,1.35 0.29,1.94 0.21,2.53 0.14,3.29 0.07,4.04 0.04,5.05 0.01,6.07 -0.01,7.40 -0.04,8.74 -0.06,10.30 -0.08,11.86 -0.16,14.06 -0.23,16.26 -0.33,18.19 -0.42,20.12 -0.49,21.75 -0.56,23.38 -0.64,24.73 -0.72,26.09 -0.79,27.29 -0.86,28.49 -1.36,30.87 -1.87,33.25 -1.89,33.35 -1.92,33.46 -1.98,33.55 -2.03,33.64 -2.12,33.70 -2.20,33.77 -2.30,33.81 -2.40,33.84 -2.50,33.85 -2.61,33.85 -2.71,33.82 -2.81,33.79 -2.90,33.73 -2.99,33.67 -3.05,33.58 -3.11,33.49 -3.14,33.39 -3.17,33.29 -3.17,33.18 -3.17,33.08 -3.13,32.98 -3.10,32.88 -3.03,32.80 -2.96,32.71 -2.88,32.66 -2.79,32.60 -2.68,32.57 -2.58,32.55 -2.47,32.55 -2.37,32.56 -2.27,32.60 -2.17,32.64 -2.09,32.72 -2.01,32.79 -1.96,32.88 -1.91,32.97 -1.89,33.07 -1.87,33.18 -1.88,33.28 -1.90,33.39 -1.94,33.48 -1.99,33.58 -2.06,33.66 -2.14,33.73 -2.23,33.78 -2.33,33.83 -2.43,33.84 -2.54,33.86 -2.64,33.84 -2.75,33.82 -2.84,33.76 -2.93,33.71 -3.00,33.63 -3.08,33.56 -3.12,33.46 -3.16,33.36 -3.17,33.25 -3.18,33.15 -3.18,33.15 -3.18,33.15 -3.34,30.76 -3.51,28.38 -3.47,27.15 -3.43,25.93 -3.36,24.58 -3.28,23.23 -3.17,21.60 -3.06,19.97 -2.93,18.04 -2.79,16.11 -2.62,13.95 -2.46,11.79 -2.37,10.20 -2.29,8.62 -2.18,7.27 -2.07,5.93 -1.95,4.83 -1.84,3.74 -1.67,2.94 -1.49,2.15 -1.30,1.50 -1.10,0.86 -0.86,0.32 -0.62,-0.20 -0.58,-0.27 -0.55,-0.34 -0.50,-0.41 -0.45,-0.47 -0.39,-0.52 -0.32,-0.56 -0.25,-0.59 -0.18,-0.63 -0.10,-0.64 -0.02,-0.65 0.05,-0.64 0.12,-0.64 0.20,-0.61 0.28,-0.59 0.34,-0.55 0.41,-0.50 0.46,-0.45 0.52,-0.39 0.56,-0.32 0.60,-0.25 0.62,-0.18 0.64,-0.10 0.65,-0.02 0.65,0.05 0.63,0.12 0.62,0.20 0.62,0.20 L 0.62,0.20 Z"/></g><g transform="translate(727.2362670898438 175.47555541992188) rotate(0 5.846435546875 12.449569702148438)" stroke="none"><path fill="#1e1e1e" d="M 0.21,-0.62 Q 0.21,-0.62 1.00,-0.72 1.80,-0.83 2.57,-0.48 3.34,-0.13 4.17,0.38 4.99,0.90 5.80,1.41 6.62,1.93 7.45,2.53 8.28,3.13 9.31,3.91 10.34,4.70 11.12,5.44 11.90,6.18 12.48,6.81 13.06,7.44 13.51,8.21 13.97,8.98 14.23,9.77 14.49,10.56 14.53,11.46 14.57,12.36 14.30,13.39 14.04,14.42 12.99,15.77 11.95,17.12 10.76,18.21 9.57,19.30 8.17,20.30 6.77,21.30 5.24,22.11 3.71,22.91 1.86,24.12 0.02,25.34 -0.07,25.39 -0.16,25.43 -0.26,25.45 -0.37,25.47 -0.47,25.45 -0.58,25.43 -0.67,25.38 -0.77,25.33 -0.84,25.26 -0.91,25.18 -0.96,25.08 -1.00,24.99 -1.01,24.88 -1.02,24.77 -1.00,24.67 -0.98,24.57 -0.92,24.48 -0.87,24.39 -0.79,24.32 -0.71,24.25 -0.61,24.21 -0.51,24.17 -0.40,24.16 -0.30,24.16 -0.19,24.19 -0.09,24.22 -0.00,24.28 0.07,24.34 0.14,24.42 0.20,24.51 0.24,24.61 0.27,24.71 0.27,24.81 0.27,24.92 0.24,25.02 0.20,25.12 0.14,25.21 0.07,25.29 -0.01,25.35 -0.09,25.41 -0.20,25.44 -0.30,25.47 -0.40,25.46 -0.51,25.45 -0.61,25.41 -0.71,25.37 -0.79,25.30 -0.87,25.24 -0.92,25.14 -0.98,25.05 -1.00,24.95 -1.02,24.85 -1.01,24.74 -1.00,24.63 -0.96,24.54 -0.91,24.44 -0.84,24.37 -0.76,24.29 -0.76,24.29 -0.76,24.29 0.94,22.83 2.65,21.38 3.89,20.27 5.14,19.17 6.33,18.17 7.53,17.17 8.53,16.17 9.52,15.17 10.26,14.31 10.99,13.45 11.18,12.89 11.37,12.32 11.29,11.39 11.22,10.47 10.98,9.97 10.75,9.47 10.27,8.91 9.79,8.36 9.14,7.71 8.50,7.06 7.51,6.28 6.53,5.50 5.78,4.93 5.03,4.37 4.23,3.83 3.43,3.30 2.77,2.85 2.11,2.40 1.50,2.09 0.88,1.77 0.33,1.19 -0.21,0.62 -0.28,0.58 -0.35,0.55 -0.41,0.49 -0.47,0.44 -0.52,0.38 -0.57,0.32 -0.60,0.24 -0.63,0.17 -0.64,0.09 -0.65,0.01 -0.64,-0.06 -0.64,-0.13 -0.61,-0.21 -0.58,-0.28 -0.54,-0.35 -0.50,-0.42 -0.44,-0.47 -0.38,-0.53 -0.31,-0.56 -0.24,-0.60 -0.17,-0.62 -0.09,-0.64 -0.01,-0.65 0.06,-0.65 0.13,-0.63 0.21,-0.62 0.21,-0.62 L 0.21,-0.62 Z"/></g></svg>