<svg version="1.1" xmlns="http://www.w3.org/2000/svg" viewBox="0 0 673.3573652198818 416.556362641016" width="673.3573652198818" height="416.556362641016" filter="invert(93%) hue-rotate(180deg)" class="excalidraw-svg">
  <!-- svg-source:excalidraw -->
  
  <defs>
    <style class="style-fonts">
      
    </style>
    
  </defs>
  <rect x="0" y="0" width="673.3573652198818" height="416.556362641016" fill="transparent"></rect><g stroke-linecap="round"><g transform="translate(11.690678208163035 266.60133648232556) rotate(0 54.166656494140625 -51.66667175292969)"><path d="M-0.28 0.19 C17.98 -17.36, 91.09 -87.04, 109.04 -104.47 M1.78 -0.76 C19.98 -18.28, 90.45 -86.39, 108.47 -103.53" stroke="#6741d9" stroke-width="2" fill="none"></path></g></g><mask></mask><g stroke-linecap="round"><g transform="translate(10.857365219881785 267.4346494706068) rotate(0 1.25 69.16665649414062)"><path d="M0.39 -0.79 C1.06 22.05, 2.88 114.1, 3.35 137.23 M-0.86 1.4 C-0.22 24.34, 2.23 115.23, 2.85 138.19" stroke="#6741d9" stroke-width="2" fill="none"></path></g></g><mask></mask><g stroke-linecap="round"><g transform="translate(12.523991196444285 407.4346494706068) rotate(0 54.166656494140625 -47.08331298828125)"><path d="M-1.01 -0.88 C17.1 -16.23, 90.18 -77.7, 108.55 -93.17" stroke="#6741d9" stroke-width="2.5" fill="none" stroke-dasharray="8 10"></path></g></g><mask></mask><g stroke-linecap="round"><g transform="translate(119.19067820816304 314.10133648232556) rotate(0 1.25 -75.41667175292969)"><path d="M-0.45 -1.05 C0.15 -26.35, 3 -126.58, 3.65 -151.54" stroke="#6741d9" stroke-width="2.5" fill="none" stroke-dasharray="8 10"></path></g></g><mask></mask><g stroke-linecap="round"><g transform="translate(12.523991196444285 264.9346494706068) rotate(0 180 -66.66665649414062)"><path d="M0.18 0.59 C30.63 -8.73, 122.16 -33.77, 182.3 -56.12 C242.45 -78.47, 331.53 -120.64, 361.05 -133.52 M-1.18 -0.15 C29.2 -9.35, 121.36 -33.14, 181.69 -55.17 C242.03 -77.2, 331.23 -119.45, 360.84 -132.3" stroke="#6741d9" stroke-width="2" fill="none"></path></g></g><mask></mask><g stroke-linecap="round"><g transform="translate(122.52399119644429 163.2679929764662) rotate(0 190.41668701171875 -75.83332824707031)"><path d="M0.07 0.72 C12.47 -1.45, 43.74 -5.8, 74.5 -13.42 C105.26 -21.03, 133.57 -22.05, 184.63 -44.97 C235.68 -67.9, 348.25 -133.39, 380.83 -150.98 M-1.35 0.05 C10.9 -1.95, 42.89 -4.54, 73.72 -12.36 C104.56 -20.18, 132.44 -23.4, 183.67 -46.86 C234.89 -70.33, 348.03 -135.45, 381.07 -153.18" stroke="#6741d9" stroke-width="2" fill="none"></path></g></g><mask></mask><g stroke-linecap="round"><g transform="translate(122.52399119644429 311.60133648232556) rotate(0 187.91668701171875 -24.583343505859375)"><path d="M0.22 -0.32 C26.24 -6.11, 110.35 -26.57, 154.94 -34.65 C199.52 -42.74, 230.9 -46.97, 267.74 -48.84 C304.57 -50.71, 358.05 -46.2, 375.93 -45.86" stroke="#6741d9" stroke-width="2.5" fill="none" stroke-dasharray="8 10"></path></g></g><mask></mask><g stroke-linecap="round"><g transform="translate(15.023991196444285 404.10133648232556) rotate(0 186.66668701171875 -18.75)"><path d="M-0.09 1 C31.68 -5.07, 138.62 -30.53, 191.35 -36.88 C244.09 -43.23, 286.11 -39.7, 316.3 -37.08 C346.49 -34.46, 363.17 -23.74, 372.5 -21.15 M-1.59 0.47 C29.93 -5.37, 136.88 -28.84, 190.24 -35.46 C243.6 -42.07, 288.23 -41.21, 318.57 -39.2 C348.91 -37.2, 363.09 -26.45, 372.3 -23.44" stroke="#6741d9" stroke-width="2" fill="none"></path></g></g><mask></mask><g stroke-linecap="round"><g transform="translate(375.8573652198818 130.7679929764662) rotate(0 4.1666259765625 124.99998474121094)"><path d="M1 -0.18 C2.45 41.53, 6.99 207.7, 8.29 249.6 M0.06 -1.32 C1.39 40.61, 5.94 209.12, 7.33 250.92" stroke="#6741d9" stroke-width="2" fill="none"></path></g></g><mask></mask><g stroke-linecap="round"><g transform="translate(385.0239911964443 381.60133648232556) rotate(0 57.08331298828125 -57.083343505859375)"><path d="M-0.77 0.64 C18.07 -18.43, 94.83 -94.42, 113.93 -113.38 M1.02 -0.07 C19.61 -18.96, 94.22 -95.95, 112.86 -115.1" stroke="#6741d9" stroke-width="2" fill="none"></path></g></g><mask></mask><g stroke-linecap="round"><g transform="translate(498.3573652198818 264.9346494706068) rotate(0 2.9166259765625 -126.66665649414062)"><path d="M0.78 0.65 C1.9 -41.32, 5.89 -209.88, 6.9 -252.26 M-0.27 -0.05 C0.77 -42.29, 5.36 -211.76, 6.52 -253.82" stroke="#6741d9" stroke-width="2" fill="none"></path></g></g><mask></mask><g stroke-linecap="round"><g transform="translate(503.3573652198818 11.601336482325564) rotate(0 -64.16668701171875 60)"><path d="M-0.84 -0.36 C-22.55 19.84, -108.33 100.89, -129.4 120.82 M0.92 -1.6 C-20.5 18.3, -105.85 98.84, -127.25 119.13" stroke="#6741d9" stroke-width="2" fill="none"></path></g></g><mask></mask><g stroke-opacity="0.7" fill-opacity="0.7" transform="translate(215.85736521988179 269.10133648232556) rotate(0 12.916656494140625 -16.25)" stroke="none"><path fill="#6741d9" d="M -0.64,-0.10 Q -0.64,-0.10 -0.49,-1.55 -0.33,-3.01 -0.00,-4.83 0.31,-6.65 0.93,-9.35 1.54,-12.06 2.28,-14.66 3.02,-17.27 4.06,-20.08 5.09,-22.89 6.53,-25.12 7.97,-27.36 9.31,-29.03 10.66,-30.71 12.09,-31.53 13.52,-32.34 14.98,-32.45 16.45,-32.57 17.92,-32.06 19.39,-31.56 20.84,-29.79 22.28,-28.02 23.36,-25.54 24.44,-23.07 25.12,-21.06 25.81,-19.06 26.10,-16.93 26.39,-14.80 26.42,-11.91 26.45,-9.02 26.44,-8.91 26.43,-8.81 26.38,-8.71 26.34,-8.62 26.26,-8.54 26.19,-8.46 26.10,-8.41 26.00,-8.36 25.90,-8.35 25.79,-8.33 25.69,-8.35 25.58,-8.37 25.49,-8.42 25.40,-8.47 25.32,-8.54 25.25,-8.62 25.21,-8.72 25.16,-8.82 25.15,-8.92 25.14,-9.03 25.16,-9.13 25.19,-9.23 25.24,-9.33 25.30,-9.42 25.38,-9.48 25.46,-9.55 25.56,-9.59 25.66,-9.63 25.76,-9.64 25.87,-9.64 25.97,-9.61 26.07,-9.58 26.16,-9.52 26.25,-9.46 26.31,-9.38 26.38,-9.29 26.41,-9.19 26.44,-9.09 26.44,-8.98 26.44,-8.88 26.41,-8.78 26.37,-8.68 26.31,-8.59 26.24,-8.51 26.16,-8.45 26.07,-8.39 25.97,-8.36 25.86,-8.33 25.76,-8.34 25.65,-8.35 25.55,-8.39 25.45,-8.43 25.37,-8.50 25.29,-8.57 25.24,-8.66 25.18,-8.75 25.16,-8.85 25.14,-8.96 25.14,-8.96 25.14,-8.96 24.78,-11.74 24.43,-14.53 24.15,-16.47 23.87,-18.41 23.22,-20.34 22.56,-22.27 21.62,-24.53 20.67,-26.80 19.62,-28.29 18.56,-29.78 17.52,-30.19 16.48,-30.60 15.42,-30.60 14.36,-30.60 13.24,-30.04 12.11,-29.47 10.83,-27.89 9.55,-26.32 8.19,-24.27 6.83,-22.23 5.80,-19.50 4.77,-16.76 4.02,-14.21 3.27,-11.66 2.64,-8.99 2.00,-6.33 1.64,-4.53 1.29,-2.73 0.97,-1.31 0.64,0.10 0.62,0.18 0.60,0.25 0.56,0.32 0.52,0.39 0.46,0.45 0.41,0.51 0.34,0.55 0.27,0.59 0.20,0.61 0.12,0.64 0.04,0.64 -0.02,0.65 -0.10,0.64 -0.18,0.62 -0.25,0.59 -0.33,0.56 -0.39,0.51 -0.45,0.47 -0.50,0.41 -0.55,0.34 -0.59,0.27 -0.62,0.20 -0.63,0.12 -0.65,0.05 -0.65,-0.02 -0.64,-0.10 -0.64,-0.10 L -0.64,-0.10 Z"></path></g><g stroke-opacity="0.7" fill-opacity="0.7" transform="translate(225.85736521988179 256.60133648232556) rotate(0 7.08331298828125 -2.083343505859375)" stroke="none"><path fill="#6741d9" d="M -0.29,-0.58 Q -0.29,-0.58 0.60,-1.18 1.50,-1.78 3.13,-2.49 4.75,-3.19 6.25,-3.50 7.74,-3.80 10.61,-4.26 13.49,-4.71 13.59,-4.71 13.70,-4.71 13.80,-4.68 13.90,-4.65 13.98,-4.58 14.07,-4.52 14.13,-4.43 14.19,-4.34 14.22,-4.24 14.25,-4.14 14.24,-4.03 14.24,-3.93 14.20,-3.83 14.16,-3.73 14.09,-3.65 14.02,-3.57 13.93,-3.51 13.84,-3.46 13.74,-3.43 13.64,-3.41 13.53,-3.42 13.43,-3.43 13.33,-3.47 13.23,-3.52 13.15,-3.59 13.08,-3.66 13.03,-3.76 12.98,-3.85 12.96,-3.96 12.94,-4.06 12.96,-4.17 12.97,-4.27 13.02,-4.36 13.07,-4.46 13.15,-4.53 13.22,-4.61 13.32,-4.65 13.42,-4.70 13.52,-4.71 13.63,-4.72 13.73,-4.70 13.84,-4.68 13.93,-4.62 14.02,-4.57 14.09,-4.49 14.16,-4.41 14.20,-4.31 14.24,-4.21 14.24,-4.10 14.25,-4.00 14.22,-3.90 14.19,-3.79 14.14,-3.70 14.08,-3.62 13.99,-3.55 13.91,-3.49 13.81,-3.45 13.71,-3.42 13.71,-3.42 13.71,-3.42 10.91,-2.71 8.11,-2.00 6.80,-1.72 5.49,-1.44 3.91,-0.78 2.33,-0.13 1.31,0.22 0.29,0.58 0.21,0.61 0.14,0.64 0.06,0.64 -0.01,0.65 -0.09,0.64 -0.16,0.63 -0.24,0.60 -0.31,0.57 -0.38,0.52 -0.44,0.48 -0.49,0.42 -0.54,0.36 -0.58,0.29 -0.61,0.22 -0.63,0.14 -0.65,0.06 -0.65,-0.01 -0.65,-0.09 -0.62,-0.16 -0.60,-0.24 -0.57,-0.31 -0.53,-0.38 -0.47,-0.44 -0.42,-0.50 -0.35,-0.54 -0.29,-0.58 -0.29,-0.58 L -0.29,-0.58 Z"></path></g><g stroke-opacity="0.7" fill-opacity="0.7" transform="translate(251.69067820816304 250.76796245888806) rotate(0 -4.583343505859375 5.833343505859375)" stroke="none"><path fill="#6741d9" d="M 0,0.65 Q 0,0.65 -0.71,0.76 -1.43,0.86 -2.21,0.88 -2.99,0.91 -3.65,1.14 -4.31,1.37 -5.17,2.33 -6.04,3.28 -6.63,4.57 -7.23,5.86 -7.48,6.84 -7.74,7.81 -7.62,8.79 -7.51,9.76 -7.19,10.23 -6.88,10.70 -5.02,10.19 -3.16,9.68 -3.07,9.63 -2.98,9.58 -2.87,9.56 -2.77,9.54 -2.66,9.56 -2.56,9.58 -2.46,9.63 -2.37,9.68 -2.30,9.76 -2.22,9.83 -2.18,9.93 -2.13,10.03 -2.12,10.13 -2.11,10.24 -2.13,10.34 -2.16,10.44 -2.21,10.54 -2.27,10.63 -2.35,10.70 -2.43,10.76 -2.53,10.80 -2.63,10.84 -2.73,10.85 -2.84,10.85 -2.94,10.83 -3.04,10.80 -3.13,10.74 -3.22,10.68 -3.28,10.59 -3.35,10.51 -3.38,10.41 -3.41,10.31 -3.41,10.20 -3.41,10.09 -3.38,9.99 -3.35,9.89 -3.28,9.81 -3.22,9.72 -3.13,9.66 -3.04,9.60 -2.94,9.58 -2.84,9.55 -2.73,9.55 -2.62,9.56 -2.53,9.60 -2.43,9.64 -2.35,9.71 -2.27,9.78 -2.21,9.87 -2.16,9.96 -2.13,10.06 -2.11,10.17 -2.12,10.27 -2.13,10.38 -2.18,10.47 -2.22,10.57 -2.30,10.65 -2.37,10.72 -2.37,10.72 -2.37,10.72 -4.24,11.58 -6.12,12.44 -7.06,12.28 -8.01,12.11 -8.75,11.10 -9.49,10.09 -9.60,8.70 -9.72,7.32 -9.38,6.15 -9.05,4.97 -8.26,3.44 -7.47,1.90 -6.21,0.74 -4.95,-0.41 -3.98,-0.66 -3.01,-0.91 -2.22,-0.88 -1.43,-0.86 -0.71,-0.76 0,-0.65 0.07,-0.64 0.15,-0.63 0.23,-0.60 0.30,-0.58 0.37,-0.53 0.43,-0.49 0.48,-0.43 0.54,-0.37 0.57,-0.30 0.61,-0.23 0.63,-0.15 0.65,-0.07 0.65,0.00 0.65,0.07 0.63,0.15 0.61,0.23 0.57,0.30 0.54,0.37 0.48,0.43 0.43,0.49 0.37,0.53 0.30,0.58 0.23,0.60 0.15,0.63 0.07,0.64 -0.00,0.65 -0.00,0.65 L 0,0.65 Z"></path></g><g stroke-opacity="0.7" fill-opacity="0.7" transform="translate(254.19067820816304 228.2679929764662) rotate(0 -1.25 17.499984741210938)" stroke="none"><path fill="#6741d9" d="M 0.65,0 Q 0.65,0 0.81,1.67 0.97,3.35 0.99,5.26 1.00,7.17 0.78,10.18 0.56,13.19 0.22,16.62 -0.10,20.05 -0.50,22.72 -0.90,25.39 -1.10,27.68 -1.30,29.96 -1.55,32.03 -1.80,34.10 -1.82,34.21 -1.84,34.31 -1.89,34.40 -1.95,34.49 -2.03,34.56 -2.11,34.63 -2.21,34.67 -2.31,34.71 -2.41,34.72 -2.52,34.73 -2.62,34.70 -2.72,34.67 -2.81,34.61 -2.90,34.55 -2.96,34.47 -3.03,34.38 -3.06,34.28 -3.10,34.18 -3.10,34.08 -3.10,33.97 -3.07,33.87 -3.03,33.77 -2.97,33.68 -2.91,33.60 -2.82,33.54 -2.73,33.48 -2.63,33.45 -2.53,33.42 -2.42,33.43 -2.31,33.43 -2.22,33.47 -2.12,33.51 -2.04,33.58 -1.95,33.64 -1.90,33.74 -1.84,33.83 -1.82,33.93 -1.80,34.03 -1.81,34.14 -1.82,34.24 -1.86,34.34 -1.91,34.44 -1.98,34.52 -2.05,34.59 -2.14,34.64 -2.24,34.69 -2.34,34.71 -2.45,34.73 -2.55,34.71 -2.66,34.70 -2.75,34.65 -2.85,34.60 -2.92,34.52 -2.99,34.45 -3.04,34.35 -3.08,34.25 -3.10,34.15 -3.11,34.04 -3.11,34.04 -3.11,34.04 -3.16,31.93 -3.21,29.83 -3.08,27.46 -2.96,25.09 -2.58,22.47 -2.21,19.84 -1.86,16.43 -1.52,13.02 -1.26,10.10 -1.00,7.17 -0.99,5.26 -0.97,3.35 -0.81,1.67 -0.65,0 -0.64,-0.07 -0.63,-0.15 -0.60,-0.23 -0.58,-0.30 -0.53,-0.37 -0.49,-0.43 -0.43,-0.48 -0.37,-0.54 -0.30,-0.57 -0.23,-0.61 -0.15,-0.63 -0.07,-0.65 0.00,-0.65 0.07,-0.65 0.15,-0.63 0.23,-0.61 0.30,-0.57 0.37,-0.54 0.43,-0.48 0.49,-0.43 0.53,-0.37 0.58,-0.30 0.60,-0.23 0.63,-0.15 0.64,-0.07 0.65,0.00 0.65,0.00 L 0.65,0 Z"></path></g><g stroke-opacity="0.7" fill-opacity="0.7" transform="translate(279.19067820816304 238.26796245888806) rotate(0 -13.75 7.91668701171875)" stroke="none"><path fill="#6741d9" d="M -0.65,0 Q -0.65,0 -0.78,-0.94 -0.91,-1.89 -1.14,-2.38 -1.36,-2.86 -1.88,-3.49 -2.41,-4.11 -3.05,-4.57 -3.68,-5.02 -4.32,-5.17 -4.96,-5.32 -5.91,-5.39 -6.87,-5.46 -7.77,-5.50 -8.67,-5.53 -9.64,-5.32 -10.62,-5.11 -11.41,-4.59 -12.19,-4.08 -13.01,-3.40 -13.83,-2.72 -14.66,-1.95 -15.49,-1.19 -16.02,-0.45 -16.54,0.27 -16.97,1.45 -17.39,2.62 -17.57,3.79 -17.75,4.96 -17.84,6.16 -17.92,7.37 -17.73,8.24 -17.54,9.10 -17.26,9.64 -16.98,10.18 -16.65,10.63 -16.32,11.07 -15.95,11.49 -15.59,11.91 -15.04,12.25 -14.50,12.59 -13.95,13.05 -13.40,13.50 -12.61,14.15 -11.82,14.79 -11.68,15.42 -11.55,16.04 -11.78,16.72 -12.02,17.41 -12.42,18.31 -12.81,19.20 -13.76,19.99 -14.72,20.78 -15.90,21.36 -17.08,21.94 -18.66,22.19 -20.23,22.43 -21.85,22.45 -23.46,22.48 -25.40,22.72 -27.33,22.96 -27.44,22.97 -27.54,22.97 -27.64,22.94 -27.75,22.91 -27.83,22.85 -27.92,22.79 -27.98,22.70 -28.05,22.62 -28.08,22.52 -28.11,22.41 -28.11,22.31 -28.11,22.20 -28.07,22.10 -28.04,22.00 -27.97,21.92 -27.90,21.84 -27.81,21.78 -27.73,21.72 -27.62,21.69 -27.52,21.67 -27.41,21.67 -27.31,21.68 -27.21,21.72 -27.11,21.76 -27.03,21.83 -26.95,21.90 -26.90,22.00 -26.85,22.09 -26.83,22.19 -26.80,22.30 -26.82,22.40 -26.83,22.51 -26.88,22.60 -26.92,22.70 -27.00,22.77 -27.07,22.85 -27.17,22.90 -27.26,22.95 -27.37,22.96 -27.47,22.98 -27.58,22.96 -27.68,22.94 -27.77,22.89 -27.87,22.84 -27.94,22.76 -28.01,22.68 -28.05,22.58 -28.10,22.48 -28.11,22.38 -28.12,22.27 -28.09,22.17 -28.07,22.07 -28.01,21.98 -27.95,21.89 -27.87,21.82 -27.79,21.75 -27.69,21.71 -27.59,21.68 -27.59,21.68 -27.59,21.68 -25.59,21.12 -23.58,20.57 -22.08,20.41 -20.57,20.25 -19.32,20.05 -18.06,19.85 -17.10,19.40 -16.14,18.94 -15.22,18.20 -14.30,17.46 -13.99,16.57 -13.69,15.67 -14.24,15.45 -14.78,15.23 -15.26,14.84 -15.74,14.44 -16.50,13.91 -17.25,13.38 -17.69,12.87 -18.12,12.37 -18.55,11.76 -18.98,11.16 -19.34,10.36 -19.71,9.55 -19.93,8.39 -20.14,7.23 -20.04,5.92 -19.95,4.60 -19.71,3.22 -19.47,1.84 -18.90,0.41 -18.33,-1.01 -17.65,-1.90 -16.98,-2.80 -16.10,-3.60 -15.21,-4.41 -14.26,-5.17 -13.32,-5.94 -12.20,-6.57 -11.08,-7.21 -9.83,-7.43 -8.58,-7.66 -7.63,-7.61 -6.67,-7.56 -5.52,-7.43 -4.37,-7.30 -3.43,-6.97 -2.49,-6.65 -1.68,-5.98 -0.87,-5.32 -0.23,-4.43 0.40,-3.55 0.66,-2.74 0.91,-1.93 0.78,-0.96 0.65,0 0.64,0.07 0.63,0.15 0.60,0.23 0.58,0.30 0.53,0.37 0.49,0.43 0.43,0.48 0.37,0.54 0.30,0.57 0.23,0.61 0.15,0.63 0.07,0.65 -0.00,0.65 -0.07,0.65 -0.15,0.63 -0.23,0.61 -0.30,0.57 -0.37,0.54 -0.43,0.48 -0.49,0.43 -0.53,0.37 -0.58,0.30 -0.60,0.23 -0.63,0.15 -0.64,0.07 -0.65,-0.00 -0.65,-0.00 L -0.65,0 Z"></path></g><g transform="translate(543.3573652198818 140.7679929764662) rotate(0 11.6666259765625 0.4166717529296875)" stroke="none"><path fill="#6741d9" d="M -0.20,0.62 Q -0.20,0.62 -0.97,0.50 -1.73,0.39 -2.43,-0.05 -3.14,-0.50 -3.53,-1.58 -3.92,-2.66 -3.80,-4.15 -3.68,-5.65 -3.12,-7.28 -2.56,-8.92 -1.31,-10.65 -0.05,-12.39 1.22,-13.62 2.51,-14.85 4.38,-15.68 6.25,-16.51 8.59,-16.62 10.93,-16.73 12.95,-16.27 14.96,-15.81 16.83,-14.85 18.70,-13.90 20.52,-12.24 22.33,-10.58 23.60,-8.87 24.87,-7.17 25.68,-5.17 26.50,-3.16 26.84,-1.30 27.19,0.56 26.85,2.91 26.51,5.27 25.36,7.77 24.21,10.28 22.46,12.14 20.70,14.00 18.96,15.28 17.21,16.55 15.15,17.15 13.08,17.74 10.99,17.97 8.91,18.21 6.99,18.06 5.07,17.91 3.64,17.32 2.22,16.72 1.24,15.51 0.26,14.30 0.35,12.87 0.44,11.44 1.33,10.26 2.21,9.08 4.07,7.64 5.92,6.20 8.47,5.09 11.01,3.99 13.30,3.32 15.60,2.65 18.05,2.34 20.50,2.03 20.61,2.03 20.71,2.03 20.81,2.06 20.92,2.10 21.00,2.16 21.09,2.22 21.15,2.31 21.21,2.40 21.24,2.50 21.27,2.60 21.26,2.71 21.26,2.81 21.22,2.91 21.18,3.01 21.11,3.09 21.05,3.17 20.95,3.23 20.86,3.29 20.76,3.31 20.66,3.33 20.55,3.32 20.45,3.31 20.35,3.27 20.25,3.23 20.17,3.15 20.10,3.08 20.05,2.99 19.99,2.90 19.98,2.79 19.96,2.69 19.97,2.58 19.99,2.48 20.04,2.38 20.09,2.29 20.16,2.21 20.24,2.14 20.34,2.09 20.43,2.05 20.54,2.04 20.64,2.02 20.75,2.04 20.85,2.07 20.94,2.12 21.03,2.17 21.10,2.25 21.17,2.33 21.21,2.43 21.25,2.53 21.26,2.64 21.27,2.74 21.24,2.85 21.21,2.95 21.15,3.04 21.10,3.13 21.01,3.19 20.93,3.26 20.83,3.29 20.73,3.33 20.73,3.33 20.73,3.33 18.43,3.85 16.13,4.38 13.96,5.09 11.80,5.80 9.48,6.81 7.16,7.83 5.48,9.12 3.80,10.40 3.12,11.14 2.43,11.87 2.22,12.68 2.01,13.49 2.57,14.18 3.13,14.87 4.20,15.36 5.28,15.84 6.98,15.99 8.69,16.13 10.62,15.93 12.54,15.73 14.29,15.29 16.04,14.85 17.63,13.71 19.22,12.56 20.80,10.97 22.38,9.38 23.44,7.15 24.50,4.93 24.84,2.91 25.19,0.89 24.90,-0.76 24.60,-2.42 23.92,-4.20 23.23,-5.98 22.09,-7.54 20.95,-9.10 19.35,-10.60 17.76,-12.11 16.12,-12.98 14.47,-13.84 12.73,-14.28 10.98,-14.71 8.99,-14.68 6.99,-14.64 5.43,-14.01 3.86,-13.37 2.70,-12.28 1.54,-11.19 0.42,-9.71 -0.69,-8.24 -1.21,-6.83 -1.73,-5.43 -1.89,-4.27 -2.05,-3.11 -1.59,-2.23 -1.13,-1.35 -0.46,-0.98 0.20,-0.62 0.27,-0.58 0.35,-0.55 0.41,-0.50 0.47,-0.45 0.52,-0.39 0.56,-0.32 0.59,-0.25 0.63,-0.18 0.64,-0.10 0.65,-0.02 0.64,0.05 0.64,0.13 0.61,0.20 0.59,0.28 0.55,0.34 0.50,0.41 0.45,0.46 0.39,0.52 0.32,0.56 0.25,0.60 0.18,0.62 0.10,0.64 0.02,0.65 -0.05,0.65 -0.13,0.63 -0.20,0.62 -0.20,0.62 L -0.20,0.62 Z"></path></g><g transform="translate(577.5239911964443 155.7679929764662) rotate(0 10.41668701171875 -17.083328247070312)" stroke="none"><path fill="#6741d9" d="M -0.46,0.46 Q -0.46,0.46 -1.01,0.04 -1.57,-0.36 -2.11,-1.41 -2.65,-2.46 -2.65,-4.71 -2.66,-6.96 -2.15,-9.37 -1.65,-11.77 -0.72,-14.72 0.21,-17.67 1.57,-20.86 2.94,-24.06 4.51,-26.44 6.08,-28.81 7.75,-30.58 9.41,-32.35 10.96,-33.17 12.50,-33.99 14.11,-34.07 15.72,-34.15 17.50,-32.64 19.28,-31.14 20.50,-28.98 21.72,-26.82 22.49,-23.92 23.25,-21.03 23.57,-17.85 23.89,-14.67 23.77,-11.85 23.66,-9.03 23.59,-7.14 23.52,-5.26 22.58,-3.11 21.63,-0.96 21.57,-0.87 21.51,-0.79 21.42,-0.73 21.33,-0.67 21.23,-0.64 21.13,-0.61 21.02,-0.61 20.92,-0.61 20.82,-0.65 20.72,-0.69 20.64,-0.76 20.55,-0.83 20.50,-0.92 20.44,-1.01 20.42,-1.11 20.39,-1.21 20.40,-1.32 20.41,-1.42 20.46,-1.52 20.50,-1.62 20.57,-1.70 20.64,-1.77 20.74,-1.83 20.83,-1.88 20.93,-1.90 21.04,-1.91 21.14,-1.90 21.25,-1.88 21.34,-1.83 21.44,-1.79 21.51,-1.71 21.59,-1.63 21.63,-1.54 21.68,-1.44 21.69,-1.34 21.70,-1.23 21.68,-1.13 21.66,-1.02 21.61,-0.93 21.55,-0.84 21.47,-0.77 21.39,-0.70 21.30,-0.66 21.20,-0.62 21.09,-0.61 20.99,-0.60 20.88,-0.63 20.78,-0.66 20.69,-0.72 20.60,-0.77 20.54,-0.86 20.47,-0.94 20.44,-1.04 20.40,-1.14 20.40,-1.25 20.40,-1.35 20.43,-1.46 20.46,-1.56 20.46,-1.56 20.46,-1.56 21.04,-3.44 21.61,-5.32 21.64,-7.21 21.66,-9.11 21.76,-11.79 21.87,-14.48 21.58,-17.50 21.29,-20.52 20.62,-23.19 19.95,-25.86 18.92,-27.77 17.89,-29.69 16.64,-31.00 15.38,-32.31 14.36,-32.26 13.34,-32.20 12.08,-31.58 10.82,-30.96 9.26,-29.34 7.71,-27.72 6.21,-25.50 4.72,-23.29 3.37,-20.18 2.03,-17.08 1.10,-14.23 0.17,-11.37 -0.32,-9.14 -0.82,-6.91 -0.92,-5.02 -1.03,-3.14 -0.69,-2.34 -0.34,-1.54 0.05,-1.00 0.46,-0.46 0.51,-0.40 0.56,-0.33 0.59,-0.26 0.62,-0.19 0.64,-0.11 0.65,-0.03 0.65,0.03 0.64,0.11 0.62,0.19 0.59,0.26 0.55,0.33 0.51,0.40 0.46,0.46 0.40,0.51 0.33,0.55 0.26,0.59 0.19,0.62 0.11,0.64 0.03,0.65 -0.03,0.65 -0.11,0.64 -0.19,0.62 -0.26,0.59 -0.33,0.56 -0.40,0.51 -0.46,0.46 -0.46,0.46 L -0.46,0.46 Z"></path></g><g transform="translate(588.3573652198818 140.7679929764662) rotate(0 7.5 -0.4166717529296875)" stroke="none"><path fill="#6741d9" d="M 0,-0.65 Q 0,-0.65 1.43,-0.81 2.87,-0.97 4.11,-1.20 5.36,-1.44 7.42,-1.50 9.49,-1.57 11.79,-1.17 14.09,-0.77 14.19,-0.74 14.29,-0.71 14.38,-0.65 14.47,-0.59 14.53,-0.50 14.59,-0.42 14.63,-0.32 14.66,-0.21 14.66,-0.11 14.65,-0.00 14.62,0.09 14.58,0.19 14.52,0.27 14.45,0.36 14.36,0.41 14.27,0.47 14.17,0.50 14.07,0.53 13.96,0.52 13.86,0.51 13.76,0.47 13.66,0.43 13.58,0.36 13.50,0.29 13.45,0.20 13.39,0.10 13.37,0.00 13.35,-0.09 13.37,-0.20 13.38,-0.30 13.43,-0.40 13.47,-0.50 13.55,-0.57 13.62,-0.65 13.71,-0.70 13.81,-0.74 13.91,-0.76 14.02,-0.77 14.12,-0.76 14.23,-0.74 14.32,-0.69 14.41,-0.63 14.49,-0.56 14.56,-0.48 14.60,-0.38 14.64,-0.28 14.65,-0.18 14.66,-0.07 14.64,0.02 14.61,0.12 14.56,0.21 14.50,0.30 14.42,0.37 14.34,0.44 14.24,0.48 14.14,0.52 14.03,0.52 13.93,0.52 13.93,0.52 13.93,0.52 11.75,0.36 9.58,0.21 7.64,0.34 5.70,0.48 4.29,0.72 2.87,0.97 1.43,0.81 0,0.65 -0.07,0.64 -0.15,0.63 -0.23,0.60 -0.30,0.58 -0.37,0.53 -0.43,0.49 -0.48,0.43 -0.54,0.37 -0.57,0.30 -0.61,0.23 -0.63,0.15 -0.65,0.07 -0.65,-0.00 -0.65,-0.07 -0.63,-0.15 -0.61,-0.23 -0.57,-0.30 -0.54,-0.37 -0.48,-0.43 -0.43,-0.49 -0.37,-0.53 -0.30,-0.58 -0.23,-0.60 -0.15,-0.63 -0.07,-0.64 0.00,-0.65 0.00,-0.65 L 0,-0.65 Z"></path></g><g transform="translate(626.6906171730068 146.60133648232556) rotate(0 -5.833251953125 -9.583343505859375)" stroke="none"><path fill="#6741d9" d="M 0.46,0.46 Q 0.46,0.46 -0.17,1.26 -0.80,2.06 -1.58,2.85 -2.36,3.64 -3.40,4.71 -4.45,5.77 -5.36,6.70 -6.28,7.64 -7.15,8.51 -8.02,9.39 -8.93,10.06 -9.84,10.73 -10.82,11.07 -11.79,11.40 -12.73,11.53 -13.67,11.66 -14.60,11.32 -15.54,10.97 -15.98,9.97 -16.42,8.98 -16.54,7.80 -16.66,6.63 -16.20,5.04 -15.75,3.45 -14.80,1.79 -13.85,0.14 -13.23,-0.99 -12.60,-2.12 -11.77,-2.96 -10.93,-3.79 -10.19,-4.19 -9.44,-4.58 -8.70,-4.50 -7.95,-4.42 -7.08,-3.80 -6.22,-3.18 -5.57,-2.11 -4.92,-1.03 -4.49,-0.44 -4.05,0.14 -3.55,1.22 -3.06,2.30 -2.85,3.02 -2.64,3.74 -2.24,4.59 -1.83,5.45 -1.78,5.56 -1.73,5.67 -1.71,5.79 -1.68,5.91 -1.69,6.04 -1.70,6.16 -1.73,6.27 -1.77,6.39 -1.83,6.50 -1.89,6.60 -1.98,6.69 -2.07,6.77 -2.17,6.84 -2.27,6.90 -2.39,6.94 -2.51,6.98 -2.63,6.98 -2.75,6.99 -2.87,6.97 -2.99,6.95 -3.10,6.90 -3.21,6.85 -3.31,6.78 -3.41,6.70 -3.48,6.60 -3.56,6.51 -3.62,5.85 -3.68,5.19 -3.67,3.74 -3.67,2.28 -3.42,0.35 -3.17,-1.56 -2.83,-4.27 -2.48,-6.97 -1.85,-9.62 -1.21,-12.27 -0.71,-15.02 -0.21,-17.76 0.51,-20.19 1.24,-22.62 1.82,-24.35 2.40,-26.07 2.89,-27.71 3.37,-29.35 3.41,-29.45 3.45,-29.55 3.51,-29.64 3.58,-29.72 3.67,-29.78 3.76,-29.83 3.86,-29.86 3.96,-29.89 4.07,-29.88 4.17,-29.87 4.27,-29.83 4.37,-29.79 4.45,-29.72 4.53,-29.65 4.58,-29.55 4.63,-29.46 4.65,-29.36 4.68,-29.25 4.66,-29.15 4.65,-29.04 4.60,-28.95 4.55,-28.85 4.48,-28.78 4.40,-28.70 4.31,-28.65 4.21,-28.61 4.11,-28.59 4.00,-28.58 3.90,-28.60 3.80,-28.61 3.70,-28.67 3.61,-28.72 3.54,-28.80 3.47,-28.88 3.42,-28.97 3.38,-29.07 3.37,-29.18 3.36,-29.28 3.39,-29.39 3.41,-29.49 3.47,-29.58 3.53,-29.67 3.61,-29.74 3.69,-29.80 3.79,-29.84 3.89,-29.88 4.00,-29.88 4.10,-29.88 4.21,-29.85 4.31,-29.82 4.39,-29.76 4.48,-29.70 4.54,-29.61 4.61,-29.53 4.64,-29.43 4.67,-29.32 4.67,-29.22 4.66,-29.11 4.66,-29.11 4.66,-29.11 4.51,-27.29 4.35,-25.47 3.86,-23.74 3.37,-22.00 2.71,-19.68 2.05,-17.35 1.54,-14.54 1.03,-11.73 0.41,-9.20 -0.19,-6.68 -0.55,-3.97 -0.90,-1.26 -1.14,0.52 -1.39,2.32 -1.61,3.88 -1.83,5.45 -1.78,5.56 -1.73,5.67 -1.71,5.79 -1.68,5.91 -1.69,6.04 -1.70,6.16 -1.73,6.27 -1.77,6.39 -1.83,6.50 -1.89,6.60 -1.98,6.69 -2.07,6.77 -2.17,6.84 -2.27,6.90 -2.39,6.94 -2.51,6.98 -2.63,6.98 -2.75,6.99 -2.87,6.97 -2.99,6.95 -3.10,6.90 -3.21,6.85 -3.31,6.78 -3.41,6.70 -3.48,6.60 -3.56,6.51 -3.69,6.04 -3.83,5.58 -4.20,4.94 -4.56,4.30 -4.73,3.70 -4.89,3.10 -5.27,2.19 -5.65,1.29 -6.14,0.60 -6.63,-0.07 -7.04,-0.88 -7.45,-1.69 -7.95,-2.13 -8.45,-2.56 -9.02,-2.47 -9.59,-2.39 -10.24,-1.77 -10.90,-1.16 -11.52,-0.01 -12.14,1.12 -13.00,2.58 -13.86,4.04 -14.27,5.27 -14.68,6.49 -14.58,7.43 -14.49,8.38 -14.17,9.02 -13.85,9.67 -13.11,9.58 -12.38,9.48 -11.67,9.30 -10.97,9.12 -10.18,8.57 -9.39,8.02 -8.51,7.15 -7.64,6.28 -6.70,5.36 -5.77,4.45 -4.71,3.40 -3.64,2.36 -2.85,1.58 -2.06,0.80 -1.26,0.17 -0.46,-0.46 -0.40,-0.51 -0.33,-0.56 -0.26,-0.59 -0.19,-0.62 -0.11,-0.64 -0.03,-0.65 0.03,-0.65 0.11,-0.64 0.19,-0.62 0.26,-0.59 0.33,-0.55 0.40,-0.51 0.46,-0.46 0.51,-0.40 0.55,-0.33 0.59,-0.26 0.62,-0.19 0.64,-0.11 0.65,-0.03 0.65,0.03 0.64,0.11 0.62,0.19 0.59,0.26 0.56,0.33 0.51,0.40 0.46,0.46 0.46,0.46 L 0.46,0.46 Z"></path></g><g transform="translate(660.0239911964443 134.10133648232556) rotate(0 -12.08331298828125 5.8333282470703125)" stroke="none"><path fill="#6741d9" d="M -0.52,-0.39 Q -0.52,-0.39 0.14,-1.38 0.80,-2.38 1.06,-2.96 1.32,-3.55 1.67,-4.31 2.03,-5.07 2.13,-5.99 2.23,-6.91 2.04,-7.67 1.85,-8.44 1.36,-9.12 0.88,-9.81 -0.14,-10.25 -1.18,-10.70 -2.49,-10.90 -3.81,-11.11 -5.20,-10.73 -6.58,-10.36 -7.87,-9.76 -9.15,-9.15 -9.81,-8.58 -10.46,-8.01 -10.44,-6.76 -10.43,-5.51 -10.00,-3.82 -9.58,-2.13 -8.69,-0.00 -7.81,2.13 -6.93,4.27 -6.05,6.41 -5.62,8.39 -5.20,10.36 -5.50,12.57 -5.81,14.77 -6.72,16.53 -7.64,18.29 -9.30,20.06 -10.96,21.82 -13.00,22.87 -15.05,23.92 -17.30,24.07 -19.55,24.22 -22.95,22.34 -26.35,20.46 -26.44,20.40 -26.53,20.34 -26.59,20.25 -26.65,20.16 -26.68,20.06 -26.71,19.96 -26.71,19.86 -26.71,19.75 -26.67,19.65 -26.63,19.55 -26.57,19.47 -26.50,19.38 -26.41,19.33 -26.32,19.27 -26.22,19.24 -26.11,19.22 -26.01,19.23 -25.90,19.24 -25.80,19.28 -25.71,19.32 -25.63,19.39 -25.55,19.46 -25.50,19.55 -25.44,19.65 -25.42,19.75 -25.40,19.85 -25.42,19.96 -25.43,20.07 -25.48,20.16 -25.53,20.26 -25.60,20.33 -25.68,20.41 -25.77,20.45 -25.87,20.50 -25.97,20.51 -26.08,20.53 -26.18,20.51 -26.29,20.49 -26.38,20.44 -26.47,20.38 -26.54,20.31 -26.61,20.23 -26.66,20.13 -26.70,20.03 -26.71,19.93 -26.72,19.82 -26.69,19.72 -26.66,19.61 -26.61,19.52 -26.55,19.43 -26.47,19.37 -26.38,19.30 -26.28,19.26 -26.18,19.23 -26.08,19.22 -25.97,19.22 -25.87,19.25 -25.77,19.28 -25.77,19.28 -25.77,19.28 -22.66,20.63 -19.56,21.98 -17.83,21.82 -16.10,21.66 -14.42,20.85 -12.75,20.03 -11.29,18.55 -9.82,17.07 -9.02,15.70 -8.23,14.33 -7.88,12.55 -7.54,10.77 -7.85,9.01 -8.16,7.25 -9.00,5.11 -9.85,2.96 -10.77,0.66 -11.68,-1.64 -12.12,-3.64 -12.56,-5.64 -12.32,-7.42 -12.07,-9.20 -11.07,-10.12 -10.06,-11.05 -8.56,-11.72 -7.06,-12.39 -5.29,-12.75 -3.52,-13.12 -1.90,-12.80 -0.29,-12.49 1.06,-11.72 2.41,-10.94 3.03,-9.89 3.65,-8.83 3.81,-7.75 3.96,-6.68 3.75,-5.52 3.54,-4.36 3.15,-3.61 2.77,-2.86 2.41,-2.15 2.06,-1.44 1.29,-0.52 0.52,0.39 0.47,0.45 0.41,0.50 0.34,0.55 0.28,0.59 0.20,0.61 0.13,0.64 0.05,0.64 -0.02,0.65 -0.10,0.64 -0.18,0.63 -0.25,0.59 -0.32,0.56 -0.39,0.52 -0.45,0.47 -0.50,0.41 -0.55,0.35 -0.58,0.27 -0.62,0.20 -0.63,0.13 -0.65,0.05 -0.65,-0.02 -0.64,-0.10 -0.62,-0.18 -0.60,-0.25 -0.56,-0.32 -0.52,-0.39 -0.52,-0.39 L -0.52,-0.39 Z"></path></g></svg>