<svg version="1.1" xmlns="http://www.w3.org/2000/svg" viewBox="0 0 556.8894195035723 591.4126219388332" width="556.8894195035723" height="591.4126219388332" filter="invert(93%) hue-rotate(180deg)" class="excalidraw-svg"><!-- svg-source:excalidraw --><metadata></metadata><defs><style class="style-fonts">
      </style></defs><rect x="0" y="0" width="556.8894195035723" height="591.4126219388332" fill="transparent"></rect><g stroke-linecap="round" transform="translate(88.10922264949534 57.21475916301256) rotate(0 200 40)"><path d="M400 40 C400 41.05, 399.79 42.1, 399.38 43.14 C398.97 44.18, 398.36 45.22, 397.54 46.26 C396.72 47.29, 395.7 48.32, 394.47 49.34 C393.25 50.36, 391.83 51.37, 390.21 52.36 C388.59 53.36, 386.78 54.34, 384.78 55.31 C382.77 56.27, 380.58 57.23, 378.2 58.16 C375.83 59.09, 373.26 60.01, 370.53 60.9 C367.8 61.79, 364.88 62.67, 361.8 63.51 C358.73 64.36, 355.48 65.18, 352.08 65.98 C348.68 66.77, 345.12 67.54, 341.42 68.28 C337.72 69.02, 333.87 69.74, 329.89 70.42 C325.91 71.1, 321.79 71.75, 317.56 72.36 C313.33 72.98, 308.96 73.56, 304.5 74.11 C300.04 74.65, 295.46 75.17, 290.8 75.64 C286.14 76.12, 281.37 76.55, 276.54 76.96 C271.7 77.36, 266.78 77.72, 261.8 78.04 C256.83 78.37, 251.78 78.65, 246.69 78.89 C241.6 79.14, 236.45 79.34, 231.29 79.51 C226.12 79.67, 220.91 79.79, 215.69 79.88 C210.48 79.96, 205.23 80, 200 80 C194.77 80, 189.52 79.96, 184.31 79.88 C179.09 79.79, 173.88 79.67, 168.71 79.51 C163.55 79.34, 158.4 79.14, 153.31 78.89 C148.22 78.65, 143.17 78.37, 138.2 78.04 C133.22 77.72, 128.3 77.36, 123.46 76.96 C118.63 76.55, 113.86 76.12, 109.2 75.64 C104.54 75.17, 99.96 74.65, 95.5 74.11 C91.04 73.56, 86.67 72.98, 82.44 72.36 C78.21 71.75, 74.09 71.1, 70.11 70.42 C66.13 69.74, 62.28 69.02, 58.58 68.28 C54.88 67.54, 51.32 66.77, 47.92 65.98 C44.52 65.18, 41.27 64.36, 38.2 63.51 C35.12 62.67, 32.2 61.79, 29.47 60.9 C26.74 60.01, 24.17 59.09, 21.8 58.16 C19.42 57.23, 17.23 56.27, 15.22 55.31 C13.22 54.34, 11.41 53.36, 9.79 52.36 C8.17 51.37, 6.75 50.36, 5.53 49.34 C4.3 48.32, 3.28 47.29, 2.46 46.26 C1.64 45.22, 1.03 44.18, 0.62 43.14 C0.21 42.1, 0 41.05, 0 40 C0 38.95, 0.21 37.9, 0.62 36.86 C1.03 35.82, 1.64 34.78, 2.46 33.74 C3.28 32.71, 4.3 31.68, 5.53 30.66 C6.75 29.64, 8.17 28.63, 9.79 27.64 C11.41 26.64, 13.22 25.66, 15.22 24.69 C17.23 23.73, 19.42 22.77, 21.8 21.84 C24.17 20.91, 26.74 19.99, 29.47 19.1 C32.2 18.21, 35.12 17.33, 38.2 16.49 C41.27 15.64, 44.52 14.82, 47.92 14.02 C51.32 13.23, 54.88 12.46, 58.58 11.72 C62.28 10.98, 66.13 10.26, 70.11 9.58 C74.09 8.9, 78.21 8.25, 82.44 7.64 C86.67 7.02, 91.04 6.44, 95.5 5.89 C99.96 5.35, 104.54 4.83, 109.2 4.36 C113.86 3.88, 118.63 3.45, 123.46 3.04 C128.3 2.64, 133.22 2.28, 138.2 1.96 C143.17 1.63, 148.22 1.35, 153.31 1.11 C158.4 0.86, 163.55 0.66, 168.71 0.49 C173.88 0.33, 179.09 0.21, 184.31 0.12 C189.52 0.04, 194.77 0, 200 0 C205.23 0, 210.48 0.04, 215.69 0.12 C220.91 0.21, 226.12 0.33, 231.29 0.49 C236.45 0.66, 241.6 0.86, 246.69 1.11 C251.78 1.35, 256.83 1.63, 261.8 1.96 C266.78 2.28, 271.7 2.64, 276.54 3.04 C281.37 3.45, 286.14 3.88, 290.8 4.36 C295.46 4.83, 300.04 5.35, 304.5 5.89 C308.96 6.44, 313.33 7.02, 317.56 7.64 C321.79 8.25, 325.91 8.9, 329.89 9.58 C333.87 10.26, 337.72 10.98, 341.42 11.72 C345.12 12.46, 348.68 13.23, 352.08 14.02 C355.48 14.82, 358.73 15.64, 361.8 16.49 C364.88 17.33, 367.8 18.21, 370.53 19.1 C373.26 19.99, 375.83 20.91, 378.2 21.84 C380.58 22.77, 382.77 23.73, 384.78 24.69 C386.78 25.66, 388.59 26.64, 390.21 27.64 C391.83 28.63, 393.25 29.64, 394.47 30.66 C395.7 31.68, 396.72 32.71, 397.54 33.74 C398.36 34.78, 398.97 35.82, 399.38 36.86 C399.79 37.9, 400 38.95, 400 40" stroke="#6741d9" stroke-width="2" fill="none"></path></g><g stroke-linecap="round" transform="translate(88.10922264949534 457.21475916301256) rotate(0 200 40)"><path d="M400 40 C400 41.05, 399.79 42.1, 399.38 43.14 C398.97 44.18, 398.36 45.22, 397.54 46.26 C396.72 47.29, 395.7 48.32, 394.47 49.34 C393.25 50.36, 391.83 51.37, 390.21 52.36 C388.59 53.36, 386.78 54.34, 384.78 55.31 C382.77 56.27, 380.58 57.23, 378.2 58.16 C375.83 59.09, 373.26 60.01, 370.53 60.9 C367.8 61.79, 364.88 62.67, 361.8 63.51 C358.73 64.36, 355.48 65.18, 352.08 65.98 C348.68 66.77, 345.12 67.54, 341.42 68.28 C337.72 69.02, 333.87 69.74, 329.89 70.42 C325.91 71.1, 321.79 71.75, 317.56 72.36 C313.33 72.98, 308.96 73.56, 304.5 74.11 C300.04 74.65, 295.46 75.17, 290.8 75.64 C286.14 76.12, 281.37 76.55, 276.54 76.96 C271.7 77.36, 266.78 77.72, 261.8 78.04 C256.83 78.37, 251.78 78.65, 246.69 78.89 C241.6 79.14, 236.45 79.34, 231.29 79.51 C226.12 79.67, 220.91 79.79, 215.69 79.88 C210.48 79.96, 205.23 80, 200 80 C194.77 80, 189.52 79.96, 184.31 79.88 C179.09 79.79, 173.88 79.67, 168.71 79.51 C163.55 79.34, 158.4 79.14, 153.31 78.89 C148.22 78.65, 143.17 78.37, 138.2 78.04 C133.22 77.72, 128.3 77.36, 123.46 76.96 C118.63 76.55, 113.86 76.12, 109.2 75.64 C104.54 75.17, 99.96 74.65, 95.5 74.11 C91.04 73.56, 86.67 72.98, 82.44 72.36 C78.21 71.75, 74.09 71.1, 70.11 70.42 C66.13 69.74, 62.28 69.02, 58.58 68.28 C54.88 67.54, 51.32 66.77, 47.92 65.98 C44.52 65.18, 41.27 64.36, 38.2 63.51 C35.12 62.67, 32.2 61.79, 29.47 60.9 C26.74 60.01, 24.17 59.09, 21.8 58.16 C19.42 57.23, 17.23 56.27, 15.22 55.31 C13.22 54.34, 11.41 53.36, 9.79 52.36 C8.17 51.37, 6.75 50.36, 5.53 49.34 C4.3 48.32, 3.28 47.29, 2.46 46.26 C1.64 45.22, 1.03 44.18, 0.62 43.14 C0.21 42.1, 0 41.05, 0 40 C0 38.95, 0.21 37.9, 0.62 36.86 C1.03 35.82, 1.64 34.78, 2.46 33.74 C3.28 32.71, 4.3 31.68, 5.53 30.66 C6.75 29.64, 8.17 28.63, 9.79 27.64 C11.41 26.64, 13.22 25.66, 15.22 24.69 C17.23 23.73, 19.42 22.77, 21.8 21.84 C24.17 20.91, 26.74 19.99, 29.47 19.1 C32.2 18.21, 35.12 17.33, 38.2 16.49 C41.27 15.64, 44.52 14.82, 47.92 14.02 C51.32 13.23, 54.88 12.46, 58.58 11.72 C62.28 10.98, 66.13 10.26, 70.11 9.58 C74.09 8.9, 78.21 8.25, 82.44 7.64 C86.67 7.02, 91.04 6.44, 95.5 5.89 C99.96 5.35, 104.54 4.83, 109.2 4.36 C113.86 3.88, 118.63 3.45, 123.46 3.04 C128.3 2.64, 133.22 2.28, 138.2 1.96 C143.17 1.63, 148.22 1.35, 153.31 1.11 C158.4 0.86, 163.55 0.66, 168.71 0.49 C173.88 0.33, 179.09 0.21, 184.31 0.12 C189.52 0.04, 194.77 0, 200 0 C205.23 0, 210.48 0.04, 215.69 0.12 C220.91 0.21, 226.12 0.33, 231.29 0.49 C236.45 0.66, 241.6 0.86, 246.69 1.11 C251.78 1.35, 256.83 1.63, 261.8 1.96 C266.78 2.28, 271.7 2.64, 276.54 3.04 C281.37 3.45, 286.14 3.88, 290.8 4.36 C295.46 4.83, 300.04 5.35, 304.5 5.89 C308.96 6.44, 313.33 7.02, 317.56 7.64 C321.79 8.25, 325.91 8.9, 329.89 9.58 C333.87 10.26, 337.72 10.98, 341.42 11.72 C345.12 12.46, 348.68 13.23, 352.08 14.02 C355.48 14.82, 358.73 15.64, 361.8 16.49 C364.88 17.33, 367.8 18.21, 370.53 19.1 C373.26 19.99, 375.83 20.91, 378.2 21.84 C380.58 22.77, 382.77 23.73, 384.78 24.69 C386.78 25.66, 388.59 26.64, 390.21 27.64 C391.83 28.63, 393.25 29.64, 394.47 30.66 C395.7 31.68, 396.72 32.71, 397.54 33.74 C398.36 34.78, 398.97 35.82, 399.38 36.86 C399.79 37.9, 400 38.95, 400 40" stroke="#6741d9" stroke-width="2" fill="none"></path></g><g stroke-linecap="round"><g transform="translate(88.10922264949534 97.21475916301256) rotate(0 0 200)"><path d="M0 0 C0 66.67, 0 333.33, 0 400 M0 0 C0 66.67, 0 333.33, 0 400" stroke="#6741d9" stroke-width="2" fill="none"></path></g></g><mask></mask><g stroke-linecap="round"><g transform="translate(488.10922264949534 97.21475916301256) rotate(0 0 200)"><path d="M0 0 C0 66.67, 0 333.33, 0 400 M0 0 C0 66.67, 0 333.33, 0 400" stroke="#6741d9" stroke-width="2" fill="none"></path></g></g><mask></mask><g transform="translate(286.1105734901889 99.86145039187) rotate(0 1.3870832725039577 -0.8669270453149807)" stroke="none"><path fill="#6741d9" d="M -0.64,-0.12 Q -0.64,-0.12 -0.65,-0.66 -0.67,-1.19 -0.26,-1.80 0.13,-2.40 0.72,-2.66 1.30,-2.91 1.95,-2.79 2.60,-2.66 3.07,-1.95 3.53,-1.23 3.45,-0.67 3.38,-0.10 2.70,0.67 2.02,1.45 1.15,1.16 0.28,0.87 0.05,0.36 -0.17,-0.15 -0.07,-0.72 0.01,-1.29 0.42,-1.90 0.83,-2.51 1.35,-2.71 1.86,-2.92 2.63,-2.64 3.40,-2.37 3.84,-1.60 4.28,-0.83 4.21,-0.28 4.15,0.27 3.78,0.87 3.41,1.48 2.72,1.75 2.04,2.02 1.31,1.68 0.59,1.34 0.32,0.55 0.05,-0.24 0.37,-0.97 0.70,-1.70 1.23,-2.11 1.77,-2.52 2.47,-2.52 3.17,-2.52 3.59,-1.90 4.01,-1.29 3.84,-0.73 3.68,-0.17 3.32,0.21 2.96,0.61 2.07,0.68 1.18,0.74 0.80,0.27 0.41,-0.19 0.54,-0.95 0.67,-1.71 1.02,-2.12 1.37,-2.53 2.20,-2.48 3.02,-2.43 3.50,-1.90 3.99,-1.36 3.72,-0.39 3.45,0.57 2.94,0.93 2.42,1.29 1.69,1.35 0.95,1.41 0.35,1.03 -0.23,0.65 -0.47,0.01 -0.70,-0.61 -0.34,-1.43 0.02,-2.25 0.54,-2.61 1.06,-2.96 1.72,-3.06 2.39,-3.15 2.92,-2.93 3.45,-2.71 3.77,-2.02 4.08,-1.33 3.77,-0.63 3.46,0.06 2.94,0.48 2.41,0.89 1.84,0.97 1.28,1.05 0.55,0.53 -0.18,0.01 -0.27,-0.66 -0.37,-1.33 -0.02,-2.05 0.31,-2.78 0.85,-3.20 1.39,-3.62 1.96,-3.70 2.53,-3.78 3.08,-3.57 3.63,-3.37 4.05,-2.77 4.46,-2.17 4.36,-1.36 4.25,-0.55 3.71,-0.01 3.17,0.53 2.42,0.80 1.67,1.06 1.14,0.83 0.60,0.59 0.34,0.11 0.08,-0.36 0.28,-1.19 0.48,-2.03 1.10,-2.48 1.72,-2.93 2.39,-2.89 3.06,-2.84 3.69,-2.28 4.33,-1.72 4.44,-1.15 4.55,-0.58 2.79,-0.27 1.03,0.03 0.99,0.10 0.94,0.16 0.88,0.21 0.82,0.27 0.75,0.30 0.68,0.34 0.60,0.36 0.52,0.37 0.45,0.37 0.37,0.37 0.29,0.35 0.21,0.33 0.14,0.29 0.07,0.25 0.02,0.20 -0.03,0.15 -0.08,0.08 -0.12,0.01 -0.15,-0.05 -0.17,-0.12 -0.18,-0.20 -0.19,-0.28 -0.18,-0.36 -0.17,-0.44 -0.14,-0.51 -0.11,-0.59 -0.07,-0.22 -0.04,0.14 -0.09,0.05 -0.15,-0.03 -0.17,-0.14 -0.19,-0.24 -0.18,-0.35 -0.16,-0.45 -0.12,-0.55 -0.07,-0.65 -0.00,-0.72 0.07,-0.80 0.16,-0.85 0.25,-0.90 0.36,-0.91 0.46,-0.93 0.57,-0.91 0.67,-0.89 0.77,-0.84 0.86,-0.79 0.93,-0.71 1.00,-0.63 1.05,-0.54 1.09,-0.44 1.10,-0.33 1.11,-0.23 1.09,-0.12 1.06,-0.02 1.01,0.06 0.95,0.15 0.87,0.22 0.79,0.29 0.69,0.32 0.59,0.36 0.48,0.37 0.38,0.37 0.28,0.34 0.17,0.31 0.09,0.25 0.00,0.19 -0.05,0.11 -0.12,0.02 -0.15,-0.07 -0.18,-0.17 -0.18,-0.28 -0.18,-0.38 -0.14,-0.48 -0.11,-0.58 -0.04,-0.67 0.01,-0.75 0.10,-0.81 0.19,-0.87 0.29,-0.90 0.39,-0.92 0.50,-0.92 0.61,-0.91 0.70,-0.87 0.80,-0.83 0.92,-0.39 1.03,0.03 0.99,0.10 0.94,0.16 0.88,0.21 0.82,0.27 0.75,0.30 0.68,0.34 0.60,0.36 0.53,0.37 0.45,0.37 0.37,0.37 0.29,0.35 0.21,0.33 0.14,0.29 0.07,0.25 0.02,0.20 -0.03,0.15 -0.08,0.08 -0.12,0.01 -0.15,-0.05 -0.17,-0.12 -0.18,-0.20 -0.19,-0.28 -0.18,-0.36 -0.17,-0.44 -0.14,-0.51 -0.11,-0.59 0.95,-0.54 2.03,-0.49 2.15,-1.13 2.26,-1.77 1.85,-1.30 1.44,-0.83 2.00,-0.80 2.57,-0.78 2.22,-0.35 1.87,0.07 2.03,-0.52 2.19,-1.12 1.63,-0.96 1.06,-0.79 0.85,-0.33 0.64,0.12 0.61,0.20 0.59,0.27 0.55,0.34 0.51,0.41 0.45,0.46 0.39,0.52 0.32,0.56 0.25,0.60 0.18,0.62 0.10,0.64 0.02,0.65 -0.05,0.65 -0.12,0.63 -0.20,0.62 -0.27,0.59 -0.34,0.55 -0.41,0.50 -0.47,0.45 -0.51,0.39 -0.56,0.33 -0.59,0.25 -0.63,0.18 -0.64,0.10 -0.65,0.02 -0.64,-0.04 -0.64,-0.12 -0.64,-0.12 L -0.64,-0.12 Z"></path></g><g stroke-linecap="round"><g transform="translate(289.89139283571075 97.61143321450231) rotate(0 32.95120275766678 -17.832415610031433)"><path d="M0 0 C10.98 -5.94, 54.92 -29.72, 65.9 -35.66 M0 0 C10.98 -5.94, 54.92 -29.72, 65.9 -35.66" stroke="#6741d9" stroke-width="2" fill="none"></path></g><g transform="translate(289.89139283571075 97.61143321450231) rotate(0 32.95120275766678 -17.832415610031433)"><path d="M49.31 -16.96 C53.64 -21.84, 57.97 -26.72, 65.9 -35.66 M49.31 -16.96 C53.53 -21.71, 57.74 -26.46, 65.9 -35.66" stroke="#6741d9" stroke-width="2" fill="none"></path></g><g transform="translate(289.89139283571075 97.61143321450231) rotate(0 32.95120275766678 -17.832415610031433)"><path d="M41.17 -32 C47.63 -32.96, 54.08 -33.91, 65.9 -35.66 M41.17 -32 C47.45 -32.93, 53.73 -33.86, 65.9 -35.66" stroke="#6741d9" stroke-width="2" fill="none"></path></g></g><mask></mask><g transform="translate(324.0055792201187 95.2854659610199) rotate(0 6.5902405515333555 7.365562969360809)" stroke="none"><path fill="#6741d9" d="M 0.62,-0.20 Q 0.62,-0.20 0.96,0.39 1.30,0.99 2.42,1.42 3.54,1.85 4.31,1.93 5.08,2.01 6.07,2.04 7.05,2.07 7.92,2.09 8.79,2.10 9.31,1.96 9.82,1.83 10.13,1.74 10.43,1.65 10.54,1.57 10.65,1.50 10.77,1.46 10.89,1.41 11.02,1.40 11.15,1.38 11.28,1.40 11.40,1.42 11.53,1.46 11.65,1.51 11.75,1.59 11.86,1.66 11.94,1.76 12.03,1.86 12.09,1.97 12.15,2.09 12.18,2.21 12.21,2.34 12.21,2.47 12.20,2.60 12.17,2.73 12.14,2.85 12.08,2.97 12.02,3.08 11.93,3.18 11.84,3.27 11.18,3.33 10.52,3.40 9.80,3.63 9.07,3.86 8.24,4.35 7.40,4.84 6.69,5.64 5.97,6.44 5.48,7.38 4.98,8.31 4.54,9.37 4.10,10.43 3.94,11.23 3.77,12.02 3.98,12.61 4.18,13.21 5.14,13.24 6.10,13.28 7.38,13.17 8.65,13.07 10.87,12.26 13.08,11.45 13.18,11.40 13.27,11.35 13.37,11.34 13.48,11.32 13.58,11.34 13.69,11.36 13.78,11.41 13.88,11.46 13.95,11.54 14.02,11.62 14.06,11.72 14.11,11.81 14.12,11.92 14.13,12.02 14.10,12.13 14.08,12.23 14.02,12.32 13.97,12.41 13.88,12.48 13.80,12.55 13.70,12.58 13.60,12.62 13.50,12.63 13.39,12.63 13.29,12.60 13.19,12.57 13.10,12.51 13.01,12.45 12.95,12.37 12.89,12.28 12.85,12.18 12.82,12.08 12.82,11.97 12.82,11.87 12.86,11.77 12.90,11.66 12.96,11.58 13.03,11.50 13.11,11.44 13.20,11.38 13.31,11.35 13.41,11.33 13.51,11.33 13.62,11.34 13.72,11.38 13.82,11.42 13.90,11.49 13.98,11.56 14.03,11.65 14.08,11.74 14.11,11.85 14.13,11.95 14.11,12.06 14.10,12.16 14.06,12.26 14.01,12.36 13.94,12.43 13.86,12.51 13.86,12.51 13.86,12.51 11.36,13.87 8.86,15.23 7.30,15.40 5.74,15.57 4.24,15.19 2.73,14.82 2.24,14.07 1.74,13.32 1.60,12.47 1.46,11.61 1.70,10.57 1.93,9.52 2.43,8.35 2.94,7.18 3.61,6.02 4.27,4.86 5.26,3.86 6.24,2.86 7.29,2.28 8.35,1.70 9.39,1.67 10.43,1.65 10.54,1.57 10.65,1.50 10.77,1.46 10.89,1.41 11.02,1.40 11.15,1.38 11.28,1.40 11.40,1.42 11.53,1.46 11.65,1.51 11.75,1.59 11.86,1.66 11.94,1.76 12.03,1.86 12.09,1.97 12.15,2.09 12.18,2.21 12.21,2.34 12.21,2.47 12.20,2.60 12.17,2.73 12.14,2.85 12.08,2.97 12.02,3.08 11.93,3.18 11.84,3.27 11.48,3.37 11.13,3.46 10.63,3.75 10.13,4.03 9.44,4.04 8.76,4.05 7.87,4.03 6.98,4.01 5.92,3.96 4.87,3.92 3.98,3.81 3.10,3.71 2.01,3.39 0.93,3.07 0.26,2.37 -0.41,1.67 -0.51,0.94 -0.62,0.20 -0.63,0.13 -0.65,0.05 -0.65,-0.02 -0.64,-0.10 -0.62,-0.18 -0.60,-0.25 -0.56,-0.32 -0.52,-0.39 -0.46,-0.45 -0.41,-0.50 -0.34,-0.55 -0.28,-0.59 -0.20,-0.61 -0.13,-0.64 -0.05,-0.64 0.02,-0.65 0.10,-0.64 0.18,-0.63 0.25,-0.59 0.32,-0.56 0.39,-0.52 0.45,-0.47 0.50,-0.41 0.55,-0.35 0.58,-0.27 0.62,-0.20 0.62,-0.20 L 0.62,-0.20 Z"></path></g><g transform="translate(361.2210552758364 23.180481103066768) rotate(0 9.3038690139295 3.4889508802235127)" stroke="none"><path fill="#6741d9" d="M 0.15,-0.63 Q 0.15,-0.63 1.08,-0.57 2.02,-0.50 2.99,-0.43 3.96,-0.35 5.42,-0.53 6.88,-0.72 7.91,-1.01 8.95,-1.30 9.81,-1.64 10.68,-1.98 11.31,-2.13 11.93,-2.29 12.29,-2.58 12.65,-2.88 12.75,-2.97 12.85,-3.05 12.96,-3.11 13.08,-3.17 13.21,-3.20 13.34,-3.23 13.47,-3.23 13.60,-3.23 13.73,-3.19 13.86,-3.16 13.98,-3.10 14.09,-3.04 14.19,-2.95 14.29,-2.86 14.36,-2.75 14.43,-2.64 14.48,-2.51 14.53,-2.39 14.54,-2.26 14.55,-2.13 14.54,-2.00 14.52,-1.86 14.47,-1.74 14.42,-1.62 14.35,-1.51 14.27,-1.40 13.50,-1.28 12.73,-1.15 11.66,-0.31 10.59,0.53 9.57,1.50 8.54,2.47 7.65,3.33 6.77,4.19 6.25,4.88 5.73,5.57 5.86,6.56 5.99,7.56 6.53,7.65 7.08,7.74 8.13,7.84 9.18,7.94 10.69,7.80 12.20,7.65 13.69,7.22 15.18,6.80 16.81,6.33 18.43,5.86 18.54,5.84 18.64,5.82 18.75,5.83 18.85,5.84 18.95,5.89 19.05,5.93 19.12,6.01 19.20,6.08 19.25,6.17 19.30,6.27 19.31,6.37 19.33,6.48 19.31,6.58 19.30,6.69 19.25,6.78 19.20,6.87 19.12,6.95 19.04,7.02 18.95,7.06 18.85,7.11 18.74,7.12 18.64,7.13 18.53,7.11 18.43,7.08 18.34,7.03 18.25,6.97 18.18,6.89 18.11,6.81 18.07,6.71 18.03,6.61 18.03,6.51 18.02,6.40 18.05,6.30 18.08,6.20 18.14,6.11 18.20,6.02 18.28,5.96 18.37,5.89 18.47,5.86 18.57,5.83 18.68,5.83 18.78,5.83 18.88,5.86 18.98,5.90 19.07,5.96 19.15,6.03 19.21,6.11 19.27,6.20 19.30,6.30 19.33,6.41 19.32,6.51 19.32,6.62 19.28,6.72 19.24,6.82 19.17,6.90 19.10,6.98 19.01,7.03 18.92,7.09 18.92,7.09 18.92,7.09 17.35,7.88 15.79,8.67 14.11,9.27 12.43,9.87 10.68,10.06 8.93,10.24 7.55,10.06 6.18,9.88 5.21,9.30 4.24,8.73 3.89,7.64 3.54,6.54 3.67,5.48 3.80,4.42 4.48,3.48 5.17,2.54 6.08,1.67 6.98,0.80 8.07,-0.20 9.15,-1.21 10.23,-2.05 11.31,-2.89 11.98,-2.88 12.65,-2.88 12.75,-2.97 12.85,-3.05 12.96,-3.11 13.08,-3.17 13.21,-3.20 13.34,-3.23 13.47,-3.23 13.60,-3.23 13.73,-3.19 13.86,-3.16 13.98,-3.10 14.09,-3.04 14.19,-2.95 14.29,-2.86 14.36,-2.75 14.43,-2.64 14.48,-2.51 14.53,-2.39 14.54,-2.26 14.55,-2.13 14.54,-2.00 14.52,-1.86 14.47,-1.74 14.42,-1.62 14.35,-1.51 14.27,-1.40 13.90,-1.27 13.53,-1.14 13.07,-0.75 12.61,-0.36 12.01,-0.22 11.41,-0.08 10.44,0.27 9.47,0.63 8.29,0.95 7.11,1.26 5.45,1.44 3.79,1.62 2.66,1.51 1.54,1.40 0.69,1.01 -0.15,0.63 -0.23,0.60 -0.30,0.58 -0.37,0.53 -0.43,0.49 -0.48,0.43 -0.54,0.37 -0.57,0.30 -0.61,0.23 -0.63,0.15 -0.65,0.07 -0.65,-0.00 -0.65,-0.08 -0.63,-0.15 -0.61,-0.23 -0.57,-0.30 -0.53,-0.37 -0.48,-0.43 -0.43,-0.49 -0.36,-0.53 -0.30,-0.58 -0.22,-0.61 -0.15,-0.63 -0.07,-0.64 0.00,-0.65 0.08,-0.64 0.15,-0.63 0.15,-0.63 L 0.15,-0.63 Z"></path></g><g transform="translate(399.9871761672091 19.303869013929443) rotate(0 -4.6519345069647215 5.81491813370593)" stroke="none"><path fill="#6741d9" d="M 0,0.65 Q 0,0.65 -0.89,0.77 -1.78,0.88 -2.60,0.91 -3.43,0.94 -4.22,0.95 -5.01,0.97 -5.65,1.18 -6.30,1.40 -6.92,1.88 -7.55,2.36 -8.00,2.95 -8.44,3.54 -8.90,4.04 -9.35,4.54 -9.43,5.20 -9.50,5.87 -9.36,6.48 -9.21,7.09 -8.78,7.69 -8.34,8.29 -7.79,8.73 -7.23,9.17 -6.57,9.58 -5.92,9.98 -5.12,10.11 -4.32,10.23 -3.53,10.33 -2.73,10.43 -0.82,9.97 1.08,9.52 1.18,9.51 1.29,9.50 1.39,9.52 1.50,9.55 1.59,9.60 1.68,9.65 1.75,9.74 1.82,9.82 1.86,9.92 1.90,10.01 1.90,10.12 1.91,10.23 1.88,10.33 1.85,10.43 1.79,10.52 1.73,10.61 1.65,10.67 1.56,10.74 1.46,10.77 1.36,10.80 1.25,10.80 1.15,10.80 1.05,10.77 0.95,10.73 0.86,10.67 0.78,10.61 0.72,10.52 0.66,10.43 0.63,10.33 0.60,10.23 0.61,10.12 0.61,10.01 0.65,9.91 0.69,9.82 0.76,9.74 0.83,9.65 0.92,9.60 1.01,9.54 1.12,9.52 1.22,9.50 1.32,9.51 1.43,9.52 1.53,9.57 1.62,9.61 1.70,9.68 1.78,9.76 1.83,9.85 1.88,9.95 1.89,10.05 1.91,10.16 1.89,10.26 1.88,10.37 1.83,10.46 1.78,10.55 1.70,10.63 1.62,10.70 1.53,10.74 1.43,10.79 1.43,10.79 1.43,10.79 -0.73,11.68 -2.90,12.58 -3.83,12.51 -4.76,12.44 -5.92,12.17 -7.07,11.90 -7.87,11.39 -8.67,10.87 -9.43,10.19 -10.20,9.50 -10.77,8.51 -11.35,7.52 -11.48,6.49 -11.62,5.46 -11.31,4.35 -11.00,3.24 -10.53,2.73 -10.07,2.21 -9.41,1.44 -8.74,0.68 -7.81,0.08 -6.88,-0.51 -5.96,-0.74 -5.03,-0.97 -4.23,-0.95 -3.43,-0.94 -2.60,-0.91 -1.78,-0.88 -0.89,-0.77 0,-0.65 0.07,-0.64 0.15,-0.63 0.23,-0.60 0.30,-0.58 0.37,-0.53 0.43,-0.49 0.48,-0.43 0.54,-0.37 0.57,-0.30 0.61,-0.23 0.63,-0.15 0.65,-0.07 0.65,0.00 0.65,0.07 0.63,0.15 0.61,0.23 0.57,0.30 0.54,0.37 0.48,0.43 0.43,0.49 0.37,0.53 0.30,0.58 0.23,0.60 0.15,0.63 0.07,0.64 -0.00,0.65 -0.00,0.65 L 0,0.65 Z"></path></g><g transform="translate(390.68330715327966 25.506448356549072) rotate(0 5.427256924792175 0.3876612089137552)" stroke="none"><path fill="#6741d9" d="M 0,-0.65 Q 0,-0.65 2.00,-0.91 4.01,-1.17 5.08,-1.16 6.16,-1.15 8.24,-0.90 10.33,-0.65 10.43,-0.63 10.54,-0.62 10.63,-0.57 10.73,-0.52 10.80,-0.44 10.87,-0.36 10.92,-0.27 10.96,-0.17 10.97,-0.07 10.98,0.03 10.96,0.13 10.94,0.24 10.88,0.33 10.83,0.42 10.75,0.49 10.67,0.56 10.57,0.60 10.47,0.64 10.36,0.64 10.26,0.65 10.15,0.62 10.05,0.59 9.96,0.53 9.88,0.47 9.81,0.39 9.75,0.30 9.71,0.20 9.68,0.10 9.68,-0.00 9.68,-0.10 9.71,-0.20 9.75,-0.30 9.81,-0.39 9.88,-0.47 9.96,-0.53 10.05,-0.59 10.16,-0.62 10.26,-0.65 10.36,-0.64 10.47,-0.64 10.57,-0.60 10.67,-0.56 10.75,-0.49 10.83,-0.42 10.88,-0.33 10.94,-0.24 10.96,-0.13 10.98,-0.03 10.97,0.07 10.96,0.17 10.92,0.27 10.87,0.36 10.80,0.44 10.73,0.52 10.63,0.57 10.54,0.62 10.43,0.63 10.33,0.65 10.33,0.65 10.33,0.65 8.24,0.90 6.16,1.15 5.08,1.16 4.01,1.17 2.00,0.91 0,0.65 -0.07,0.64 -0.15,0.63 -0.23,0.60 -0.30,0.58 -0.37,0.53 -0.43,0.49 -0.48,0.43 -0.54,0.37 -0.57,0.30 -0.61,0.23 -0.63,0.15 -0.65,0.07 -0.65,-0.00 -0.65,-0.07 -0.63,-0.15 -0.61,-0.23 -0.57,-0.30 -0.54,-0.37 -0.48,-0.43 -0.43,-0.49 -0.37,-0.53 -0.30,-0.58 -0.23,-0.60 -0.15,-0.63 -0.07,-0.64 0.00,-0.65 0.00,-0.65 L 0,-0.65 Z"></path></g><g transform="translate(413.94297968810326 10.77532241782751) rotate(0 6.590240551533384 -0.3876612089137552)" stroke="none"><path fill="#6741d9" d="M -0.09,-0.65 Q -0.09,-0.65 1.43,-1.07 2.96,-1.50 4.56,-1.62 6.16,-1.73 7.50,-1.76 8.85,-1.79 10.80,-1.60 12.76,-1.42 12.86,-1.41 12.97,-1.39 13.06,-1.34 13.16,-1.29 13.23,-1.22 13.30,-1.14 13.35,-1.04 13.40,-0.95 13.41,-0.84 13.42,-0.74 13.40,-0.63 13.38,-0.53 13.32,-0.44 13.27,-0.35 13.19,-0.28 13.11,-0.21 13.01,-0.17 12.91,-0.13 12.81,-0.12 12.70,-0.11 12.60,-0.14 12.50,-0.17 12.41,-0.23 12.32,-0.28 12.25,-0.37 12.19,-0.45 12.15,-0.55 12.12,-0.65 12.12,-0.76 12.12,-0.86 12.15,-0.97 12.18,-1.07 12.25,-1.15 12.31,-1.24 12.40,-1.30 12.48,-1.36 12.59,-1.39 12.69,-1.42 12.79,-1.41 12.90,-1.41 13.00,-1.37 13.10,-1.33 13.18,-1.26 13.26,-1.20 13.32,-1.11 13.37,-1.02 13.40,-0.91 13.42,-0.81 13.41,-0.70 13.40,-0.60 13.36,-0.50 13.31,-0.40 13.24,-0.33 13.17,-0.25 13.08,-0.20 12.98,-0.15 12.88,-0.13 12.77,-0.11 12.77,-0.11 12.77,-0.11 10.84,0.12 8.92,0.35 7.60,0.41 6.29,0.46 4.78,0.53 3.27,0.61 1.68,0.63 0.09,0.65 0.01,0.65 -0.06,0.65 -0.14,0.63 -0.21,0.61 -0.29,0.58 -0.36,0.54 -0.42,0.49 -0.48,0.44 -0.52,0.38 -0.57,0.31 -0.60,0.24 -0.63,0.17 -0.64,0.09 -0.65,0.01 -0.64,-0.06 -0.64,-0.14 -0.61,-0.21 -0.58,-0.29 -0.54,-0.35 -0.50,-0.42 -0.44,-0.47 -0.38,-0.53 -0.31,-0.57 -0.24,-0.60 -0.16,-0.62 -0.09,-0.65 -0.09,-0.65 L -0.09,-0.65 Z"></path></g><g transform="translate(417.0442693594131 11.550644835654907) rotate(0 2.3259672534824176 10.466852640670652)" stroke="none"><path fill="#6741d9" d="M 0.64,0.12 Q 0.64,0.12 0.54,1.26 0.44,2.40 0.36,3.07 0.28,3.74 0.11,6.04 -0.06,8.35 -0.16,9.54 -0.25,10.73 -0.28,11.66 -0.31,12.60 -0.31,13.66 -0.31,14.72 -0.55,15.73 -0.78,16.74 -0.57,17.64 -0.36,18.53 -0.21,19.06 -0.05,19.60 0.93,19.59 1.93,19.58 2.49,19.62 3.05,19.66 4.69,19.66 6.32,19.66 6.43,19.65 6.53,19.64 6.64,19.66 6.74,19.68 6.83,19.73 6.92,19.78 6.99,19.86 7.06,19.94 7.11,20.04 7.15,20.14 7.16,20.24 7.16,20.35 7.14,20.45 7.11,20.56 7.05,20.65 6.99,20.73 6.91,20.80 6.83,20.87 6.73,20.90 6.63,20.94 6.52,20.94 6.42,20.94 6.31,20.91 6.21,20.88 6.13,20.82 6.04,20.75 5.98,20.67 5.92,20.58 5.89,20.48 5.86,20.38 5.86,20.27 5.86,20.16 5.90,20.06 5.94,19.96 6.01,19.88 6.07,19.80 6.16,19.74 6.25,19.69 6.36,19.66 6.46,19.64 6.57,19.65 6.67,19.66 6.77,19.70 6.87,19.74 6.95,19.81 7.02,19.88 7.08,19.98 7.13,20.07 7.15,20.17 7.17,20.28 7.15,20.38 7.14,20.49 7.09,20.58 7.04,20.68 6.96,20.75 6.89,20.83 6.79,20.87 6.70,20.92 6.70,20.92 6.70,20.92 4.85,21.54 3.00,22.16 2.41,22.17 1.83,22.19 0.91,22.15 -0.01,22.12 -0.54,21.98 -1.08,21.84 -1.63,21.45 -2.18,21.06 -2.51,20.36 -2.85,19.65 -2.90,18.80 -2.96,17.96 -3.07,17.10 -3.18,16.24 -2.95,15.45 -2.72,14.66 -2.68,13.57 -2.64,12.48 -2.58,11.50 -2.51,10.52 -2.38,9.31 -2.25,8.10 -1.90,5.79 -1.55,3.49 -1.44,2.77 -1.33,2.05 -0.99,0.96 -0.64,-0.12 -0.61,-0.20 -0.59,-0.27 -0.55,-0.34 -0.51,-0.41 -0.45,-0.46 -0.39,-0.52 -0.32,-0.56 -0.25,-0.60 -0.18,-0.62 -0.10,-0.64 -0.02,-0.65 0.05,-0.65 0.12,-0.63 0.20,-0.62 0.27,-0.59 0.34,-0.55 0.41,-0.50 0.47,-0.45 0.51,-0.39 0.56,-0.33 0.59,-0.25 0.63,-0.18 0.64,-0.10 0.65,-0.02 0.64,0.04 0.64,0.12 0.64,0.12 L 0.64,0.12 Z"></path></g><g transform="translate(437.9779746407544 18.528546596102046) rotate(0 -1.5506448356549072 3.876612089137268)" stroke="none"><path fill="#6741d9" d="M 0,0.65 Q 0,0.65 -0.88,0.81 -1.77,0.98 -2.45,1.20 -3.14,1.43 -3.78,1.92 -4.41,2.40 -4.86,2.98 -5.30,3.56 -5.68,4.41 -6.06,5.27 -6.22,5.82 -6.39,6.37 -6.19,7.07 -5.99,7.77 -4.59,7.90 -3.20,8.03 -2.26,7.65 -1.31,7.27 -0.42,6.90 0.46,6.52 1.14,5.80 1.81,5.07 2.33,4.35 2.85,3.62 3.01,3.02 3.17,2.41 2.68,1.62 2.19,0.82 1.64,0.45 1.09,0.07 -0.64,0.58 -2.37,1.09 -2.47,1.13 -2.57,1.17 -2.67,1.18 -2.78,1.19 -2.88,1.16 -2.98,1.14 -3.07,1.08 -3.16,1.02 -3.23,0.94 -3.29,0.85 -3.33,0.75 -3.37,0.65 -3.37,0.55 -3.37,0.44 -3.34,0.34 -3.31,0.24 -3.24,0.15 -3.18,0.07 -3.10,0.00 -3.01,-0.05 -2.91,-0.08 -2.81,-0.11 -2.70,-0.10 -2.59,-0.10 -2.49,-0.06 -2.39,-0.03 -2.31,0.03 -2.23,0.10 -2.17,0.19 -2.12,0.28 -2.09,0.38 -2.07,0.48 -2.08,0.59 -2.08,0.70 -2.13,0.79 -2.17,0.89 -2.24,0.97 -2.31,1.05 -2.41,1.10 -2.50,1.15 -2.60,1.17 -2.71,1.19 -2.81,1.17 -2.92,1.16 -3.01,1.11 -3.11,1.06 -3.18,0.99 -3.26,0.91 -3.30,0.82 -3.35,0.72 -3.36,0.62 -3.38,0.51 -3.36,0.41 -3.34,0.30 -3.28,0.21 -3.23,0.12 -3.15,0.05 -3.07,-0.01 -3.07,-0.01 -3.07,-0.01 -1.07,-1.15 0.91,-2.30 1.65,-2.06 2.40,-1.82 3.16,-1.28 3.92,-0.74 4.54,0.06 5.15,0.87 5.27,1.94 5.39,3.00 5.06,3.97 4.72,4.94 4.08,5.82 3.43,6.70 2.42,7.64 1.40,8.59 0.42,9.01 -0.56,9.43 -1.93,9.86 -3.31,10.29 -4.62,10.16 -5.94,10.04 -6.78,9.66 -7.62,9.27 -8.15,8.43 -8.68,7.58 -8.61,6.64 -8.53,5.71 -8.30,5.01 -8.07,4.30 -7.53,3.24 -6.99,2.18 -6.31,1.41 -5.63,0.65 -4.67,0.05 -3.72,-0.54 -2.75,-0.76 -1.79,-0.98 -0.89,-0.81 0,-0.65 0.07,-0.64 0.15,-0.63 0.23,-0.60 0.30,-0.58 0.37,-0.53 0.43,-0.49 0.48,-0.43 0.54,-0.37 0.57,-0.30 0.61,-0.23 0.63,-0.15 0.65,-0.07 0.65,0.00 0.65,0.07 0.63,0.15 0.61,0.23 0.57,0.30 0.54,0.37 0.48,0.43 0.43,0.49 0.37,0.53 0.30,0.58 0.23,0.60 0.15,0.63 0.07,0.64 -0.00,0.65 -0.00,0.65 L 0,0.65 Z"></path></g><g transform="translate(448.0571660725112 23.955803520894165) rotate(0 -3.1012896713098144 3.876612089137268)" stroke="none"><path fill="#6741d9" d="M 0.54,0.36 Q 0.54,0.36 0.20,1.10 -0.13,1.85 -1.05,2.69 -1.97,3.54 -2.53,4.08 -3.09,4.61 -4.26,6.14 -5.42,7.66 -5.48,7.74 -5.55,7.83 -5.63,7.89 -5.72,7.96 -5.82,7.99 -5.92,8.02 -6.03,8.02 -6.13,8.01 -6.23,7.98 -6.33,7.94 -6.42,7.88 -6.50,7.81 -6.56,7.72 -6.61,7.63 -6.64,7.53 -6.67,7.43 -6.66,7.32 -6.65,7.21 -6.61,7.12 -6.57,7.02 -6.50,6.94 -6.43,6.86 -6.33,6.81 -6.24,6.75 -6.14,6.73 -6.03,6.71 -5.93,6.73 -5.82,6.74 -5.73,6.79 -5.63,6.83 -5.56,6.91 -5.48,6.98 -5.43,7.08 -5.39,7.17 -5.37,7.28 -5.36,7.38 -5.37,7.49 -5.39,7.59 -5.45,7.69 -5.50,7.78 -5.58,7.85 -5.66,7.92 -5.75,7.96 -5.85,8.01 -5.96,8.01 -6.06,8.02 -6.17,8.00 -6.27,7.97 -6.36,7.92 -6.45,7.86 -6.52,7.78 -6.58,7.69 -6.62,7.60 -6.66,7.50 -6.66,7.39 -6.66,7.28 -6.63,7.18 -6.60,7.08 -6.60,7.08 -6.60,7.08 -5.53,5.09 -4.47,3.10 -3.85,2.57 -3.24,2.04 -2.44,1.43 -1.64,0.82 -1.09,0.23 -0.54,-0.36 -0.49,-0.42 -0.44,-0.48 -0.37,-0.53 -0.31,-0.57 -0.24,-0.60 -0.16,-0.63 -0.08,-0.64 -0.01,-0.65 0.06,-0.64 0.14,-0.64 0.22,-0.61 0.29,-0.58 0.36,-0.54 0.42,-0.49 0.48,-0.44 0.53,-0.38 0.57,-0.31 0.61,-0.24 0.63,-0.16 0.65,-0.08 0.65,-0.01 0.65,0.06 0.63,0.14 0.61,0.22 0.58,0.29 0.54,0.36 0.54,0.36 L 0.54,0.36 Z"></path></g><g transform="translate(455.03506783295836 16.20257934261963) rotate(0 6.590240551533327 -0.3876612089136984)" stroke="none"><path fill="#6741d9" d="M 0,-0.65 Q 0,-0.65 1.78,-0.88 3.56,-1.11 4.77,-1.12 5.97,-1.13 7.15,-1.13 8.33,-1.12 10.56,-1.23 12.79,-1.34 12.89,-1.35 13.00,-1.37 13.10,-1.34 13.21,-1.32 13.30,-1.27 13.39,-1.21 13.46,-1.13 13.53,-1.05 13.57,-0.95 13.61,-0.85 13.61,-0.75 13.62,-0.64 13.59,-0.54 13.56,-0.44 13.50,-0.35 13.44,-0.26 13.36,-0.20 13.27,-0.13 13.17,-0.10 13.07,-0.06 12.97,-0.06 12.86,-0.06 12.76,-0.10 12.66,-0.13 12.57,-0.19 12.49,-0.26 12.43,-0.35 12.37,-0.43 12.34,-0.53 12.31,-0.64 12.32,-0.74 12.32,-0.85 12.36,-0.95 12.40,-1.05 12.47,-1.13 12.54,-1.21 12.63,-1.26 12.72,-1.32 12.82,-1.34 12.93,-1.37 13.03,-1.36 13.14,-1.34 13.23,-1.30 13.33,-1.26 13.41,-1.18 13.49,-1.11 13.54,-1.02 13.59,-0.92 13.60,-0.82 13.62,-0.71 13.60,-0.61 13.59,-0.50 13.54,-0.41 13.49,-0.32 13.41,-0.24 13.34,-0.17 13.24,-0.12 13.14,-0.08 13.14,-0.08 13.14,-0.08 10.74,0.52 8.33,1.12 7.15,1.13 5.97,1.13 4.77,1.12 3.56,1.11 1.78,0.88 0,0.65 -0.07,0.64 -0.15,0.63 -0.23,0.60 -0.30,0.58 -0.37,0.53 -0.43,0.49 -0.48,0.43 -0.54,0.37 -0.57,0.30 -0.61,0.23 -0.63,0.15 -0.65,0.07 -0.65,-0.00 -0.65,-0.07 -0.63,-0.15 -0.61,-0.23 -0.57,-0.30 -0.54,-0.37 -0.48,-0.43 -0.43,-0.49 -0.37,-0.53 -0.30,-0.58 -0.23,-0.60 -0.15,-0.63 -0.07,-0.64 0.00,-0.65 0.00,-0.65 L 0,-0.65 Z"></path></g><g transform="translate(461.237647175578 14.651934506964722) rotate(0 -0.7753224178274536 4.6519345069647215)" stroke="none"><path fill="#6741d9" d="M 0.63,0.15 Q 0.63,0.15 0.55,1.08 0.48,2.01 0.17,2.90 -0.12,3.78 -0.49,6.30 -0.85,8.81 -0.88,8.92 -0.90,9.02 -0.96,9.11 -1.01,9.20 -1.10,9.27 -1.18,9.33 -1.28,9.37 -1.38,9.41 -1.48,9.42 -1.59,9.42 -1.69,9.39 -1.79,9.36 -1.88,9.30 -1.97,9.24 -2.03,9.15 -2.09,9.07 -2.13,8.97 -2.16,8.87 -2.16,8.76 -2.16,8.65 -2.12,8.55 -2.09,8.45 -2.02,8.37 -1.95,8.28 -1.87,8.23 -1.78,8.17 -1.67,8.14 -1.57,8.11 -1.47,8.12 -1.36,8.13 -1.26,8.17 -1.16,8.21 -1.08,8.28 -1.00,8.35 -0.95,8.44 -0.90,8.53 -0.87,8.64 -0.85,8.74 -0.87,8.85 -0.88,8.95 -0.93,9.05 -0.97,9.14 -1.05,9.22 -1.12,9.30 -1.21,9.34 -1.31,9.39 -1.41,9.41 -1.52,9.42 -1.62,9.41 -1.73,9.39 -1.82,9.34 -1.91,9.28 -1.99,9.21 -2.06,9.13 -2.10,9.03 -2.14,8.93 -2.15,8.83 -2.16,8.72 -2.16,8.72 -2.16,8.72 -2.10,5.90 -2.03,3.07 -1.70,2.31 -1.37,1.55 -1.00,0.69 -0.63,-0.15 -0.60,-0.23 -0.58,-0.30 -0.53,-0.37 -0.49,-0.43 -0.43,-0.48 -0.37,-0.54 -0.30,-0.57 -0.23,-0.61 -0.15,-0.63 -0.07,-0.65 0.00,-0.65 0.08,-0.65 0.15,-0.63 0.23,-0.61 0.30,-0.57 0.37,-0.53 0.43,-0.48 0.49,-0.43 0.53,-0.36 0.58,-0.30 0.61,-0.22 0.63,-0.15 0.64,-0.07 0.65,0.00 0.64,0.08 0.63,0.15 0.63,0.15 L 0.63,0.15 Z"></path></g><g transform="translate(464.3389368468878 16.97790176044714) rotate(0 -0.3876612089137552 3.4889508802235127)" stroke="none"><path fill="#6741d9" d="M 0.63,0.15 Q 0.63,0.15 0.60,1.09 0.58,2.03 0.50,2.79 0.43,3.55 0.39,4.10 0.36,4.65 0.34,5.90 0.32,7.15 0.38,7.23 0.44,7.32 0.48,7.42 0.51,7.52 0.50,7.63 0.50,7.73 0.47,7.83 0.43,7.93 0.36,8.02 0.30,8.10 0.21,8.16 0.12,8.21 0.01,8.24 -0.08,8.26 -0.18,8.26 -0.29,8.25 -0.39,8.21 -0.49,8.16 -0.57,8.09 -0.64,8.02 -0.70,7.93 -0.75,7.84 -0.77,7.73 -0.79,7.63 -0.78,7.52 -0.76,7.42 -0.71,7.32 -0.67,7.23 -0.59,7.15 -0.52,7.08 -0.42,7.03 -0.33,6.98 -0.22,6.97 -0.12,6.95 -0.01,6.97 0.08,6.99 0.18,7.05 0.27,7.10 0.34,7.18 0.41,7.26 0.45,7.35 0.49,7.45 0.50,7.56 0.51,7.66 0.49,7.77 0.46,7.87 0.40,7.96 0.35,8.05 0.26,8.12 0.18,8.18 0.08,8.22 -0.01,8.26 -0.11,8.26 -0.22,8.26 -0.32,8.23 -0.42,8.20 -0.51,8.14 -0.60,8.08 -0.60,8.08 -0.60,8.08 -1.19,6.29 -1.79,4.50 -1.74,3.90 -1.70,3.30 -1.58,2.41 -1.47,1.52 -1.05,0.68 -0.63,-0.15 -0.60,-0.23 -0.58,-0.30 -0.53,-0.37 -0.49,-0.43 -0.43,-0.48 -0.37,-0.54 -0.30,-0.57 -0.23,-0.61 -0.15,-0.63 -0.07,-0.65 0.00,-0.65 0.08,-0.65 0.15,-0.63 0.23,-0.61 0.30,-0.57 0.37,-0.53 0.43,-0.48 0.49,-0.43 0.53,-0.36 0.58,-0.30 0.61,-0.22 0.63,-0.15 0.64,-0.07 0.65,0.00 0.64,0.08 0.63,0.15 0.63,0.15 L 0.63,0.15 Z"></path></g><g transform="translate(462.0129695934054 33.25967253482361) rotate(0 10.85451384958435 -11.242175058498049)" stroke="none"><path fill="#6741d9" d="M -0.46,-0.46 Q -0.46,-0.46 0.35,-1.42 1.17,-2.39 1.98,-3.23 2.78,-4.07 3.79,-5.11 4.79,-6.14 9.21,-10.61 13.63,-15.09 15.79,-17.15 17.96,-19.21 19.29,-20.70 20.63,-22.19 20.71,-22.26 20.79,-22.33 20.88,-22.37 20.98,-22.41 21.09,-22.42 21.19,-22.43 21.30,-22.40 21.40,-22.38 21.49,-22.32 21.58,-22.26 21.64,-22.18 21.71,-22.10 21.75,-22.00 21.78,-21.90 21.79,-21.79 21.79,-21.69 21.76,-21.59 21.73,-21.48 21.67,-21.40 21.61,-21.31 21.52,-21.25 21.43,-21.19 21.33,-21.16 21.23,-21.12 21.12,-21.13 21.02,-21.13 20.92,-21.17 20.82,-21.20 20.73,-21.27 20.65,-21.34 20.59,-21.43 20.54,-21.51 20.51,-21.62 20.49,-21.72 20.49,-21.83 20.50,-21.93 20.54,-22.03 20.59,-22.13 20.66,-22.21 20.73,-22.29 20.82,-22.34 20.91,-22.39 21.02,-22.41 21.12,-22.43 21.23,-22.42 21.33,-22.40 21.43,-22.36 21.52,-22.31 21.60,-22.23 21.67,-22.16 21.72,-22.06 21.77,-21.97 21.78,-21.86 21.80,-21.76 21.78,-21.65 21.76,-21.55 21.70,-21.46 21.65,-21.36 21.65,-21.36 21.65,-21.36 20.43,-19.66 19.21,-17.96 17.15,-15.79 15.09,-13.63 10.61,-9.21 6.14,-4.79 5.11,-3.79 4.07,-2.78 3.23,-1.98 2.39,-1.17 1.42,-0.35 0.46,0.46 0.40,0.51 0.33,0.56 0.26,0.59 0.19,0.62 0.11,0.64 0.03,0.65 -0.03,0.65 -0.11,0.64 -0.19,0.62 -0.26,0.59 -0.33,0.55 -0.40,0.51 -0.46,0.46 -0.51,0.40 -0.55,0.33 -0.59,0.26 -0.62,0.19 -0.64,0.11 -0.65,0.03 -0.65,-0.03 -0.64,-0.11 -0.62,-0.19 -0.59,-0.26 -0.56,-0.33 -0.51,-0.40 -0.46,-0.46 -0.46,-0.46 L -0.46,-0.46 Z"></path></g><g transform="translate(472.86748344298974 28.607738027858886) rotate(0 8.52854659610199 3.101289671309871)" stroke="none"><path fill="#6741d9" d="M -0.29,-0.58 Q -0.29,-0.58 0.55,-1.11 1.40,-1.64 2.25,-2.07 3.11,-2.50 3.89,-2.49 4.67,-2.49 5.30,-2.21 5.92,-1.93 6.72,-1.29 7.53,-0.65 7.42,0.19 7.31,1.03 6.48,1.93 5.65,2.83 5.20,3.51 4.74,4.19 3.98,4.84 3.22,5.49 2.75,5.93 2.28,6.38 3.17,6.68 4.06,6.98 5.33,7.06 6.61,7.15 8.49,7.24 10.37,7.34 13.11,7.60 15.85,7.86 15.95,7.87 16.06,7.89 16.15,7.94 16.24,7.99 16.32,8.07 16.39,8.15 16.43,8.25 16.48,8.34 16.49,8.45 16.50,8.55 16.47,8.66 16.45,8.76 16.39,8.85 16.34,8.94 16.26,9.01 16.17,9.08 16.08,9.12 15.98,9.16 15.87,9.16 15.76,9.17 15.66,9.14 15.56,9.11 15.47,9.05 15.39,8.99 15.32,8.90 15.26,8.82 15.23,8.71 15.19,8.61 15.19,8.51 15.19,8.40 15.23,8.30 15.26,8.20 15.33,8.12 15.39,8.03 15.48,7.97 15.57,7.91 15.67,7.89 15.78,7.86 15.88,7.87 15.99,7.87 16.09,7.91 16.18,7.95 16.27,8.02 16.35,8.09 16.40,8.18 16.45,8.28 16.48,8.38 16.50,8.48 16.48,8.59 16.47,8.69 16.43,8.79 16.38,8.89 16.31,8.96 16.23,9.04 16.14,9.09 16.05,9.14 15.94,9.15 15.84,9.17 15.84,9.17 15.84,9.17 13.08,9.38 10.32,9.59 8.38,9.61 6.44,9.62 5.00,9.52 3.57,9.41 2.21,9.03 0.86,8.64 0.28,7.33 -0.30,6.03 0.23,5.36 0.77,4.68 1.31,4.23 1.86,3.77 2.44,3.35 3.03,2.93 3.64,2.13 4.25,1.34 4.67,0.50 5.10,-0.33 4.42,-0.63 3.75,-0.92 2.95,-0.53 2.15,-0.13 1.22,0.22 0.29,0.58 0.21,0.61 0.14,0.64 0.06,0.64 -0.01,0.65 -0.09,0.64 -0.16,0.63 -0.24,0.60 -0.31,0.57 -0.38,0.52 -0.44,0.48 -0.49,0.42 -0.54,0.36 -0.58,0.29 -0.61,0.22 -0.63,0.14 -0.65,0.06 -0.65,-0.01 -0.65,-0.09 -0.62,-0.16 -0.60,-0.24 -0.57,-0.31 -0.53,-0.38 -0.47,-0.44 -0.42,-0.50 -0.35,-0.54 -0.29,-0.58 -0.29,-0.58 L -0.29,-0.58 Z"></path></g><g transform="translate(493.02586630650353 16.97790176044714) rotate(0 6.590240551533384 10.079191431756897)" stroke="none"><path fill="#6741d9" d="M -0.15,-0.63 Q -0.15,-0.63 0.66,-1.13 1.48,-1.63 2.38,-1.74 3.28,-1.86 4.37,-2.31 5.46,-2.76 6.53,-3.00 7.60,-3.24 8.38,-3.53 9.15,-3.82 9.82,-3.97 10.48,-4.13 11.02,-4.20 11.55,-4.26 12.43,-4.03 13.31,-3.80 13.70,-3.18 14.09,-2.57 13.97,-1.42 13.86,-0.27 13.57,1.01 13.28,2.30 12.93,3.73 12.59,5.16 12.22,6.66 11.85,8.16 11.47,9.90 11.10,11.63 10.95,12.98 10.80,14.33 10.73,15.35 10.66,16.36 10.63,17.23 10.61,18.10 10.60,18.92 10.59,19.73 10.59,20.42 10.58,21.11 10.19,21.72 9.80,22.34 9.22,22.60 8.63,22.87 7.43,22.91 6.22,22.95 5.21,23.08 4.19,23.21 2.54,23.45 0.89,23.68 0.79,23.69 0.68,23.71 0.58,23.68 0.47,23.66 0.38,23.61 0.29,23.55 0.22,23.47 0.15,23.39 0.11,23.29 0.07,23.20 0.06,23.09 0.06,22.98 0.08,22.88 0.11,22.78 0.17,22.69 0.23,22.60 0.31,22.54 0.40,22.47 0.50,22.44 0.60,22.40 0.71,22.40 0.81,22.40 0.91,22.43 1.01,22.47 1.10,22.53 1.18,22.59 1.24,22.68 1.30,22.77 1.33,22.87 1.36,22.97 1.36,23.08 1.35,23.19 1.31,23.29 1.28,23.38 1.21,23.47 1.14,23.55 1.05,23.60 0.96,23.66 0.85,23.68 0.75,23.71 0.65,23.69 0.54,23.68 0.44,23.64 0.35,23.60 0.27,23.52 0.19,23.45 0.14,23.36 0.09,23.26 0.07,23.16 0.05,23.06 0.07,22.95 0.09,22.85 0.14,22.75 0.18,22.66 0.26,22.58 0.34,22.51 0.43,22.46 0.53,22.42 0.53,22.42 0.53,22.42 2.12,21.73 3.72,21.03 4.91,20.68 6.11,20.33 7.08,20.01 8.05,19.69 8.06,18.86 8.08,18.02 8.11,17.11 8.14,16.20 8.21,15.12 8.28,14.04 8.45,12.57 8.62,11.10 9.01,9.33 9.39,7.56 9.76,6.06 10.13,4.57 10.47,3.15 10.81,1.74 11.09,0.52 11.37,-0.70 11.61,-1.23 11.85,-1.76 10.93,-1.61 10.00,-1.46 9.06,-1.12 8.12,-0.79 7.24,-0.62 6.36,-0.44 4.97,0.07 3.58,0.58 2.83,0.66 2.07,0.74 1.11,0.68 0.15,0.63 0.08,0.64 0.00,0.65 -0.07,0.64 -0.15,0.63 -0.22,0.61 -0.30,0.58 -0.36,0.53 -0.43,0.49 -0.48,0.43 -0.53,0.37 -0.57,0.30 -0.61,0.23 -0.63,0.15 -0.65,0.08 -0.65,0.00 -0.65,-0.07 -0.63,-0.15 -0.61,-0.23 -0.57,-0.30 -0.54,-0.37 -0.48,-0.43 -0.43,-0.49 -0.37,-0.53 -0.30,-0.58 -0.23,-0.60 -0.15,-0.63 -0.15,-0.63 L -0.15,-0.63 Z"></path></g><g transform="translate(48.76612089137271 245.6980150195459) rotate(0 -1.1629836267411804 46.13168386073349)" stroke="none"><path fill="#6741d9" d="M 0.65,0 Q 0.65,0 0.81,0.22 0.96,0.44 0.97,1.12 0.99,1.79 0.99,2.37 1.00,2.95 1.31,3.76 1.63,4.57 1.71,5.46 1.78,6.34 1.81,7.14 1.83,7.94 1.56,8.98 1.28,10.01 1.26,10.65 1.23,11.29 1.20,12.27 1.17,13.26 1.16,14.35 1.14,15.44 1.14,16.57 1.13,17.70 1.13,18.85 1.13,20.00 1.13,20.94 1.14,21.87 1.14,23.16 1.14,24.45 1.14,25.67 1.14,26.88 1.15,28.07 1.15,29.26 1.15,30.43 1.15,31.60 1.15,32.99 1.16,34.38 1.16,35.42 1.16,36.45 1.16,37.56 1.17,38.67 1.17,39.81 1.17,40.96 0.94,42.22 0.70,43.48 0.62,44.58 0.53,45.67 0.50,46.59 0.46,47.50 0.44,48.34 0.43,49.17 0.42,50.19 0.41,51.21 0.41,52.31 0.41,53.41 0.41,54.10 0.41,54.80 0.41,55.54 0.41,56.28 0.41,57.04 0.41,57.80 0.41,58.56 0.41,59.33 0.41,60.11 0.41,60.88 0.41,61.88 0.41,62.87 0.41,63.52 0.41,64.17 0.41,64.88 0.41,65.59 0.61,66.18 0.81,66.78 0.92,67.64 1.04,68.50 1.08,69.09 1.12,69.68 0.90,70.56 0.67,71.44 0.61,72.07 0.55,72.71 0.51,73.86 0.47,75.01 0.47,75.95 0.47,76.89 0.47,77.52 0.48,78.15 0.48,79.07 0.49,79.99 0.48,80.83 0.47,81.68 0.18,82.34 -0.10,83.00 -0.16,83.53 -0.21,84.06 -0.49,85.22 -0.77,86.38 -0.87,87.13 -0.97,87.89 -1.25,88.68 -1.53,89.47 -1.98,91.52 -2.44,93.57 -2.46,93.67 -2.47,93.78 -2.52,93.87 -2.57,93.97 -2.65,94.04 -2.73,94.11 -2.83,94.15 -2.92,94.20 -3.03,94.21 -3.14,94.22 -3.24,94.20 -3.34,94.17 -3.43,94.12 -3.52,94.06 -3.59,93.98 -3.66,93.90 -3.70,93.80 -3.74,93.70 -3.74,93.59 -3.75,93.49 -3.72,93.38 -3.69,93.28 -3.63,93.20 -3.57,93.11 -3.48,93.04 -3.40,92.98 -3.30,92.95 -3.19,92.91 -3.09,92.92 -2.98,92.92 -2.88,92.95 -2.78,92.99 -2.70,93.05 -2.61,93.12 -2.55,93.20 -2.50,93.29 -2.47,93.40 -2.44,93.50 -2.45,93.60 -2.45,93.71 -2.49,93.81 -2.53,93.91 -2.60,93.99 -2.67,94.07 -2.76,94.12 -2.86,94.18 -2.96,94.20 -3.06,94.22 -3.17,94.21 -3.28,94.19 -3.37,94.15 -3.47,94.10 -3.54,94.03 -3.62,93.96 -3.67,93.86 -3.72,93.77 -3.73,93.66 -3.75,93.56 -3.75,93.56 -3.75,93.56 -3.98,91.64 -4.22,89.72 -4.09,89.13 -3.96,88.54 -3.70,87.59 -3.44,86.64 -3.12,85.63 -2.80,84.63 -2.72,83.74 -2.65,82.85 -2.34,82.18 -2.02,81.51 -2.03,80.75 -2.04,79.99 -2.03,79.06 -2.02,78.14 -2.02,77.51 -2.01,76.87 -1.99,75.91 -1.97,74.95 -1.95,74.25 -1.93,73.55 -1.89,72.99 -1.84,72.42 -1.73,71.59 -1.62,70.75 -1.47,69.77 -1.32,68.79 -1.39,68.12 -1.47,67.45 -1.71,66.53 -1.96,65.62 -1.96,64.89 -1.96,64.17 -1.96,63.52 -1.96,62.87 -1.96,61.88 -1.96,60.88 -1.96,60.11 -1.96,59.33 -1.96,58.56 -1.96,57.80 -1.96,57.03 -1.96,56.27 -1.95,55.53 -1.95,54.79 -1.95,54.10 -1.95,53.41 -1.95,52.30 -1.94,51.19 -1.93,50.15 -1.93,49.12 -1.91,48.26 -1.89,47.40 -1.85,46.44 -1.81,45.48 -1.70,44.26 -1.60,43.04 -1.38,41.99 -1.17,40.95 -1.17,39.81 -1.17,38.67 -1.16,37.56 -1.16,36.45 -1.16,35.42 -1.16,34.38 -1.15,32.99 -1.15,31.60 -1.15,30.43 -1.15,29.25 -1.15,28.07 -1.14,26.88 -1.14,25.67 -1.14,24.45 -1.14,23.16 -1.13,21.87 -1.13,20.93 -1.12,20.00 -1.12,18.84 -1.11,17.69 -1.10,16.55 -1.09,15.40 -1.07,14.29 -1.05,13.17 -1.00,12.11 -0.95,11.04 -0.62,9.85 -0.29,8.66 -0.28,7.92 -0.27,7.19 -0.29,6.45 -0.31,5.70 -0.39,5.04 -0.47,4.37 -0.73,3.70 -1.00,3.03 -0.99,2.41 -0.99,1.79 -0.97,1.12 -0.96,0.44 -0.81,0.22 -0.65,0 -0.64,-0.07 -0.63,-0.15 -0.60,-0.23 -0.58,-0.30 -0.53,-0.37 -0.49,-0.43 -0.43,-0.48 -0.37,-0.54 -0.30,-0.57 -0.23,-0.61 -0.15,-0.63 -0.07,-0.65 0.00,-0.65 0.07,-0.65 0.15,-0.63 0.23,-0.61 0.30,-0.57 0.37,-0.54 0.43,-0.48 0.49,-0.43 0.53,-0.37 0.58,-0.30 0.60,-0.23 0.63,-0.15 0.64,-0.07 0.65,0.00 0.65,0.00 L 0.65,0 Z"></path></g><g transform="translate(41.01289671309817 256.55252886913024) rotate(0 8.916207805015716 -8.916207805015716)" stroke="none"><path fill="#6741d9" d="M -0.54,-0.36 Q -0.54,-0.36 0.14,-1.83 0.83,-3.30 1.39,-4.47 1.95,-5.65 2.65,-7.07 3.35,-8.49 4.57,-10.48 5.78,-12.46 6.49,-13.72 7.21,-14.98 7.48,-15.68 7.75,-16.37 8.36,-17.14 8.97,-17.91 9.70,-18.06 10.42,-18.22 11.35,-17.69 12.27,-17.15 13.13,-15.92 13.99,-14.70 14.73,-13.57 15.46,-12.44 16.72,-10.51 17.97,-8.57 18.03,-8.48 18.09,-8.39 18.11,-8.29 18.14,-8.19 18.13,-8.08 18.12,-7.97 18.08,-7.88 18.04,-7.78 17.96,-7.70 17.89,-7.62 17.80,-7.57 17.71,-7.52 17.60,-7.50 17.50,-7.48 17.39,-7.49 17.29,-7.51 17.19,-7.56 17.10,-7.60 17.02,-7.68 16.95,-7.76 16.90,-7.85 16.86,-7.95 16.84,-8.05 16.83,-8.16 16.85,-8.26 16.87,-8.37 16.92,-8.46 16.97,-8.55 17.05,-8.62 17.13,-8.69 17.23,-8.73 17.33,-8.77 17.43,-8.78 17.54,-8.79 17.64,-8.76 17.75,-8.74 17.84,-8.68 17.93,-8.62 17.99,-8.54 18.06,-8.46 18.09,-8.36 18.13,-8.26 18.13,-8.15 18.13,-8.04 18.10,-7.94 18.07,-7.84 18.01,-7.75 17.95,-7.67 17.86,-7.61 17.77,-7.55 17.67,-7.51 17.57,-7.48 17.46,-7.49 17.36,-7.49 17.26,-7.53 17.16,-7.57 17.08,-7.63 16.99,-7.70 16.99,-7.70 16.99,-7.70 15.17,-9.37 13.34,-11.04 12.59,-12.17 11.83,-13.29 10.88,-14.39 9.93,-15.48 9.58,-14.65 9.24,-13.82 8.49,-12.54 7.75,-11.25 6.58,-9.36 5.42,-7.47 4.71,-6.06 4.01,-4.64 3.37,-3.34 2.73,-2.04 1.64,-0.83 0.54,0.36 0.49,0.42 0.44,0.48 0.37,0.53 0.31,0.57 0.24,0.60 0.16,0.63 0.08,0.64 0.01,0.65 -0.06,0.64 -0.14,0.64 -0.22,0.61 -0.29,0.58 -0.36,0.54 -0.42,0.49 -0.48,0.44 -0.53,0.38 -0.57,0.31 -0.61,0.24 -0.63,0.16 -0.65,0.08 -0.65,0.01 -0.65,-0.06 -0.63,-0.14 -0.61,-0.22 -0.58,-0.29 -0.54,-0.36 -0.54,-0.36 L -0.54,-0.36 Z"></path></g><g transform="translate(10.77532241782751 289.1160704178833) rotate(0 9.303869013929386 -0.3876612089137268)" stroke="none"><path fill="#6741d9" d="M -0.46,-0.46 Q -0.46,-0.46 -0.08,-1.03 0.29,-1.59 1.34,-1.90 2.39,-2.21 3.26,-2.31 4.13,-2.41 5.49,-2.23 6.85,-2.06 8.10,-1.75 9.34,-1.45 10.54,-1.10 11.74,-0.75 12.82,-0.62 13.91,-0.50 14.60,-0.44 15.29,-0.38 17.01,-0.87 18.73,-1.36 18.81,-1.34 18.88,-1.32 18.95,-1.29 19.03,-1.25 19.09,-1.20 19.15,-1.15 19.19,-1.09 19.24,-1.03 19.27,-0.95 19.30,-0.88 19.31,-0.80 19.33,-0.72 19.32,-0.64 19.31,-0.57 19.29,-0.49 19.26,-0.42 19.22,-0.35 19.18,-0.28 19.12,-0.23 19.06,-0.17 18.99,-0.13 18.92,-0.10 18.85,-0.07 18.77,-0.05 18.69,-0.05 18.61,-0.05 18.35,-0.23 18.08,-0.41 18.05,-0.52 18.02,-0.62 18.02,-0.72 18.03,-0.83 18.06,-0.93 18.10,-1.03 18.17,-1.11 18.24,-1.19 18.33,-1.25 18.42,-1.31 18.52,-1.33 18.62,-1.36 18.73,-1.35 18.83,-1.34 18.93,-1.29 19.03,-1.25 19.11,-1.18 19.19,-1.11 19.24,-1.02 19.29,-0.92 19.31,-0.82 19.33,-0.71 19.31,-0.61 19.30,-0.50 19.25,-0.41 19.20,-0.31 19.12,-0.24 19.05,-0.16 18.95,-0.12 18.86,-0.07 18.75,-0.06 18.65,-0.05 18.54,-0.07 18.44,-0.09 18.35,-0.14 18.25,-0.19 18.18,-0.27 18.11,-0.35 18.07,-0.45 18.03,-0.55 18.02,-0.65 18.02,-0.76 18.04,-0.86 18.07,-0.97 18.13,-1.06 18.19,-1.14 18.27,-1.21 18.35,-1.28 18.45,-1.31 18.55,-1.35 18.66,-1.35 18.77,-1.35 18.87,-1.32 18.97,-1.29 19.05,-1.22 19.14,-1.16 18.93,-1.26 18.73,-1.36 18.81,-1.34 18.88,-1.32 18.95,-1.29 19.03,-1.25 19.09,-1.20 19.15,-1.15 19.19,-1.09 19.24,-1.03 19.27,-0.95 19.30,-0.88 19.31,-0.80 19.33,-0.72 19.32,-0.64 19.31,-0.57 19.29,-0.49 19.26,-0.42 19.22,-0.35 19.18,-0.28 19.12,-0.23 19.06,-0.17 18.99,-0.13 18.92,-0.10 18.85,-0.07 18.77,-0.05 18.69,-0.05 18.61,-0.05 16.87,0.84 15.13,1.74 14.38,1.68 13.64,1.61 12.39,1.43 11.14,1.26 9.98,0.91 8.83,0.55 7.69,0.25 6.54,-0.04 5.43,-0.24 4.31,-0.44 3.56,-0.38 2.81,-0.32 2.15,-0.25 1.48,-0.18 0.97,0.13 0.46,0.46 0.40,0.51 0.33,0.56 0.26,0.59 0.19,0.62 0.11,0.64 0.03,0.65 -0.03,0.65 -0.11,0.64 -0.19,0.62 -0.26,0.59 -0.33,0.55 -0.40,0.51 -0.46,0.46 -0.51,0.40 -0.55,0.33 -0.59,0.26 -0.62,0.19 -0.64,0.11 -0.65,0.03 -0.65,-0.03 -0.64,-0.11 -0.62,-0.19 -0.59,-0.26 -0.56,-0.33 -0.51,-0.40 -0.46,-0.46 -0.46,-0.46 L -0.46,-0.46 Z"></path></g><g transform="translate(20.079191431756954 290.6667152535382) rotate(0 -1.550644835654964 6.977901760447082)" stroke="none"><path fill="#6741d9" d="M 0,0.65 Q 0,0.65 -0.41,0.94 -0.82,1.22 -1.43,2.30 -2.04,3.37 -2.43,4.29 -2.83,5.22 -3.22,6.28 -3.62,7.34 -3.77,8.15 -3.91,8.96 -3.98,9.71 -4.05,10.46 -3.71,11.33 -3.38,12.21 -2.83,12.26 -2.29,12.32 -1.62,12.42 -0.96,12.52 0.52,12.90 2.00,13.28 2.10,13.30 2.21,13.32 2.30,13.38 2.39,13.43 2.46,13.51 2.53,13.59 2.57,13.69 2.61,13.79 2.62,13.89 2.63,14.00 2.60,14.10 2.57,14.20 2.51,14.29 2.46,14.38 2.37,14.45 2.29,14.51 2.19,14.55 2.09,14.58 1.98,14.58 1.88,14.59 1.77,14.55 1.67,14.52 1.59,14.46 1.50,14.39 1.44,14.31 1.38,14.22 1.35,14.12 1.32,14.02 1.33,13.91 1.33,13.80 1.37,13.70 1.41,13.61 1.47,13.52 1.54,13.44 1.63,13.39 1.72,13.33 1.83,13.31 1.93,13.28 2.03,13.29 2.14,13.30 2.24,13.34 2.33,13.39 2.41,13.46 2.49,13.53 2.54,13.63 2.59,13.72 2.61,13.82 2.63,13.93 2.61,14.03 2.60,14.14 2.55,14.23 2.50,14.33 2.42,14.40 2.35,14.48 2.25,14.52 2.16,14.57 2.05,14.58 1.95,14.59 1.95,14.59 1.95,14.59 0.29,14.80 -1.35,15.01 -2.26,14.86 -3.16,14.72 -4.21,14.18 -5.27,13.65 -5.70,12.80 -6.14,11.95 -6.36,11.14 -6.58,10.32 -6.50,9.40 -6.42,8.49 -6.21,7.47 -6.01,6.46 -5.58,5.32 -5.15,4.19 -4.66,3.10 -4.17,2.00 -3.67,1.23 -3.17,0.47 -2.78,-0.05 -2.39,-0.57 -1.67,-0.90 -0.96,-1.22 -0.48,-0.94 0,-0.65 0.07,-0.64 0.15,-0.63 0.23,-0.60 0.30,-0.58 0.37,-0.53 0.43,-0.49 0.48,-0.43 0.54,-0.37 0.57,-0.30 0.61,-0.23 0.63,-0.15 0.65,-0.07 0.65,0.00 0.65,0.07 0.63,0.15 0.61,0.23 0.57,0.30 0.54,0.37 0.48,0.43 0.43,0.49 0.37,0.53 0.30,0.58 0.23,0.60 0.15,0.63 0.07,0.64 -0.00,0.65 -0.00,0.65 L 0,0.65 Z"></path></g><g transform="translate(437.9779746407544 536.4439217048409) rotate(0 4.6519345069647215 8.916207805015745)" stroke="none"><path fill="#6741d9" d="M 0.56,-0.33 Q 0.56,-0.33 1.38,0.69 2.19,1.71 2.76,3.40 3.33,5.09 3.97,6.36 4.61,7.63 5.32,8.83 6.04,10.03 6.58,11.02 7.12,12.00 7.58,12.87 8.03,13.73 8.92,15.53 9.80,17.32 9.83,17.42 9.85,17.52 9.84,17.63 9.83,17.74 9.78,17.83 9.74,17.93 9.66,18.01 9.59,18.08 9.50,18.13 9.40,18.18 9.30,18.20 9.19,18.22 9.09,18.20 8.98,18.18 8.89,18.13 8.80,18.08 8.72,18.01 8.65,17.93 8.60,17.83 8.56,17.74 8.55,17.63 8.54,17.53 8.56,17.42 8.58,17.32 8.64,17.23 8.69,17.14 8.77,17.07 8.85,17.00 8.95,16.96 9.05,16.92 9.16,16.91 9.26,16.91 9.37,16.94 9.47,16.96 9.56,17.02 9.64,17.08 9.71,17.17 9.77,17.25 9.81,17.35 9.84,17.45 9.84,17.56 9.84,17.67 9.81,17.77 9.77,17.87 9.71,17.95 9.64,18.04 9.56,18.10 9.47,18.16 9.37,18.19 9.26,18.21 9.16,18.21 9.05,18.20 8.95,18.16 8.85,18.12 8.77,18.06 8.69,17.99 8.64,17.90 8.58,17.80 8.58,17.80 8.58,17.80 7.36,16.27 6.14,14.73 5.69,13.88 5.25,13.02 4.73,12.06 4.21,11.10 3.47,9.83 2.73,8.55 2.05,7.13 1.37,5.72 0.92,4.22 0.47,2.73 -0.04,1.53 -0.56,0.33 -0.59,0.26 -0.62,0.19 -0.64,0.11 -0.65,0.03 -0.65,-0.04 -0.64,-0.12 -0.62,-0.19 -0.59,-0.27 -0.55,-0.33 -0.51,-0.40 -0.45,-0.46 -0.40,-0.51 -0.33,-0.55 -0.26,-0.59 -0.19,-0.62 -0.11,-0.64 -0.03,-0.65 0.04,-0.65 0.11,-0.64 0.19,-0.62 0.26,-0.59 0.34,-0.56 0.40,-0.51 0.46,-0.46 0.51,-0.40 0.56,-0.33 0.56,-0.33 L 0.56,-0.33 Z"></path></g><g transform="translate(435.65200738727196 544.972468300943) rotate(0 5.427256924792175 -5.427256924792175)" stroke="none"><path fill="#6741d9" d="M -0.65,0 Q -0.65,0 -0.88,-0.66 -1.11,-1.33 -1.12,-2.07 -1.12,-2.80 -0.89,-3.90 -0.66,-5.00 -0.34,-6.12 -0.02,-7.24 0.09,-7.89 0.21,-8.53 0.54,-9.20 0.87,-9.87 1.50,-10.56 2.12,-11.25 3.09,-10.94 4.06,-10.63 4.59,-10.34 5.13,-10.05 5.81,-9.70 6.50,-9.35 7.07,-8.92 7.65,-8.50 9.13,-8.07 10.62,-7.65 10.72,-7.62 10.82,-7.60 10.91,-7.54 11.01,-7.49 11.07,-7.40 11.14,-7.32 11.18,-7.22 11.22,-7.12 11.22,-7.02 11.23,-6.91 11.20,-6.81 11.17,-6.71 11.11,-6.62 11.05,-6.53 10.96,-6.47 10.88,-6.41 10.77,-6.37 10.67,-6.34 10.57,-6.34 10.46,-6.34 10.36,-6.38 10.26,-6.41 10.18,-6.48 10.09,-6.55 10.03,-6.63 9.98,-6.72 9.95,-6.83 9.92,-6.93 9.93,-7.03 9.93,-7.14 9.98,-7.24 10.02,-7.34 10.09,-7.42 10.16,-7.50 10.25,-7.55 10.34,-7.60 10.44,-7.63 10.55,-7.65 10.65,-7.63 10.76,-7.62 10.85,-7.58 10.95,-7.53 11.03,-7.46 11.10,-7.38 11.15,-7.29 11.20,-7.19 11.22,-7.09 11.23,-6.98 11.21,-6.88 11.19,-6.77 11.14,-6.68 11.09,-6.59 11.01,-6.52 10.94,-6.44 10.84,-6.40 10.74,-6.36 10.64,-6.35 10.53,-6.34 10.53,-6.34 10.53,-6.34 8.42,-6.45 6.32,-6.55 5.85,-6.89 5.39,-7.22 4.68,-7.58 3.97,-7.95 3.07,-8.55 2.17,-9.14 2.32,-8.59 2.48,-8.05 2.33,-7.32 2.18,-6.60 1.87,-5.55 1.56,-4.50 1.34,-3.64 1.12,-2.79 1.12,-2.06 1.11,-1.33 0.88,-0.66 0.65,0 0.64,0.07 0.63,0.15 0.60,0.23 0.58,0.30 0.53,0.37 0.49,0.43 0.43,0.48 0.37,0.54 0.30,0.57 0.23,0.61 0.15,0.63 0.07,0.65 -0.00,0.65 -0.07,0.65 -0.15,0.63 -0.23,0.61 -0.30,0.57 -0.37,0.54 -0.43,0.48 -0.49,0.43 -0.53,0.37 -0.58,0.30 -0.60,0.23 -0.63,0.15 -0.64,0.07 -0.65,-0.00 -0.65,-0.00 L -0.65,0 Z"></path></g><g transform="translate(465.8895816825427 558.1529494040096) rotate(0 -8.916207805015745 6.202579342619629)" stroke="none"><path fill="#6741d9" d="M -0.62,0.20 Q -0.62,0.20 -0.98,-0.41 -1.34,-1.03 -1.97,-1.40 -2.60,-1.78 -3.18,-1.83 -3.77,-1.87 -4.90,-1.89 -6.02,-1.90 -6.84,-1.69 -7.65,-1.48 -8.55,-1.37 -9.45,-1.26 -10.37,-0.92 -11.30,-0.59 -11.08,0.22 -10.86,1.03 -10.05,1.95 -9.24,2.86 -8.78,3.34 -8.32,3.82 -7.78,4.17 -7.24,4.51 -6.29,5.00 -5.35,5.49 -4.89,5.88 -4.43,6.28 -4.00,6.68 -3.57,7.09 -3.27,7.65 -2.97,8.22 -2.50,9.05 -2.04,9.88 -1.96,10.45 -1.88,11.02 -2.12,11.73 -2.37,12.45 -2.67,13.08 -2.97,13.71 -3.70,14.41 -4.43,15.11 -5.21,15.61 -5.99,16.10 -6.94,16.37 -7.90,16.64 -9.14,16.49 -10.38,16.33 -11.53,15.99 -12.68,15.65 -15.08,14.45 -17.49,13.24 -17.58,13.19 -17.67,13.13 -17.74,13.05 -17.81,12.97 -17.85,12.87 -17.89,12.77 -17.89,12.67 -17.90,12.56 -17.87,12.46 -17.84,12.36 -17.78,12.27 -17.72,12.18 -17.64,12.12 -17.55,12.05 -17.45,12.02 -17.35,11.98 -17.25,11.98 -17.14,11.98 -17.04,12.02 -16.94,12.05 -16.85,12.12 -16.77,12.18 -16.71,12.27 -16.65,12.36 -16.62,12.46 -16.59,12.56 -16.60,12.67 -16.60,12.77 -16.64,12.87 -16.68,12.97 -16.75,13.05 -16.82,13.13 -16.91,13.19 -17.00,13.24 -17.11,13.26 -17.21,13.29 -17.32,13.28 -17.42,13.26 -17.52,13.22 -17.61,13.18 -17.69,13.10 -17.77,13.03 -17.82,12.94 -17.87,12.84 -17.88,12.74 -17.90,12.63 -17.88,12.53 -17.87,12.42 -17.82,12.33 -17.77,12.23 -17.69,12.16 -17.61,12.09 -17.52,12.04 -17.42,12.00 -17.32,11.99 -17.21,11.98 -17.11,12.00 -17.00,12.02 -17.00,12.02 -17.00,12.02 -14.51,12.56 -12.01,13.09 -10.99,13.32 -9.96,13.55 -8.72,13.59 -7.47,13.63 -6.44,13.01 -5.41,12.38 -4.99,11.32 -4.56,10.26 -4.92,9.76 -5.27,9.25 -5.67,8.72 -6.07,8.18 -6.72,7.64 -7.38,7.10 -8.00,6.86 -8.62,6.61 -9.37,6.09 -10.12,5.57 -10.60,5.07 -11.08,4.57 -11.71,3.88 -12.34,3.20 -12.72,2.66 -13.11,2.13 -13.41,1.41 -13.70,0.69 -13.64,-0.29 -13.58,-1.28 -12.42,-2.16 -11.25,-3.04 -10.49,-3.34 -9.74,-3.64 -8.94,-3.71 -8.14,-3.77 -7.05,-3.97 -5.97,-4.18 -4.72,-4.11 -3.48,-4.05 -2.68,-3.91 -1.87,-3.77 -1.10,-3.37 -0.33,-2.97 0.06,-2.30 0.45,-1.64 0.53,-0.92 0.62,-0.20 0.63,-0.13 0.65,-0.05 0.65,0.02 0.64,0.10 0.62,0.18 0.60,0.25 0.56,0.32 0.52,0.39 0.46,0.45 0.41,0.50 0.34,0.55 0.28,0.59 0.20,0.61 0.13,0.64 0.05,0.64 -0.02,0.65 -0.10,0.64 -0.18,0.63 -0.25,0.59 -0.32,0.56 -0.39,0.52 -0.45,0.47 -0.50,0.41 -0.55,0.35 -0.58,0.27 -0.62,0.20 -0.62,0.20 L -0.62,0.20 Z"></path></g><g transform="translate(475.19345069647215 576.7606874318685) rotate(0 -3.4889508802235696 1.1629836267412088)" stroke="none"><path fill="#6741d9" d="M -0.20,0.62 Q -0.20,0.62 -1.59,0.36 -2.97,0.10 -3.81,0.18 -4.65,0.27 -5.32,0.57 -5.99,0.87 -6.20,1.49 -6.42,2.10 -5.58,2.36 -4.74,2.62 -4.07,2.66 -3.39,2.71 -1.66,1.62 0.07,0.53 0.16,0.47 0.25,0.41 0.35,0.38 0.45,0.35 0.56,0.36 0.66,0.36 0.76,0.40 0.86,0.44 0.94,0.51 1.02,0.58 1.08,0.67 1.13,0.77 1.15,0.87 1.18,0.97 1.16,1.08 1.15,1.18 1.11,1.28 1.06,1.38 0.99,1.45 0.91,1.53 0.82,1.58 0.73,1.63 0.62,1.65 0.52,1.66 0.41,1.64 0.31,1.63 0.21,1.58 0.12,1.53 0.05,1.45 -0.02,1.37 -0.06,1.27 -0.10,1.18 -0.11,1.07 -0.13,0.97 -0.10,0.86 -0.08,0.76 -0.02,0.67 0.02,0.58 0.10,0.51 0.18,0.44 0.28,0.40 0.38,0.36 0.49,0.36 0.59,0.35 0.70,0.38 0.80,0.41 0.89,0.47 0.97,0.53 1.04,0.62 1.10,0.70 1.13,0.80 1.17,0.90 1.17,1.01 1.17,1.11 1.13,1.22 1.10,1.32 1.03,1.40 0.97,1.48 0.97,1.48 0.97,1.48 -0.48,2.95 -1.93,4.41 -2.67,4.67 -3.41,4.94 -4.20,4.93 -4.98,4.92 -5.77,4.82 -6.55,4.73 -7.32,4.36 -8.09,3.98 -8.43,3.21 -8.77,2.43 -8.68,1.85 -8.58,1.27 -8.33,0.69 -8.07,0.12 -7.09,-0.59 -6.10,-1.32 -4.98,-1.59 -3.87,-1.87 -3.12,-1.87 -2.37,-1.88 -1.08,-1.25 0.20,-0.62 0.27,-0.58 0.35,-0.55 0.41,-0.50 0.47,-0.45 0.52,-0.39 0.56,-0.32 0.59,-0.25 0.63,-0.18 0.64,-0.10 0.65,-0.02 0.64,0.05 0.64,0.13 0.61,0.20 0.59,0.28 0.55,0.34 0.50,0.41 0.45,0.46 0.39,0.52 0.32,0.56 0.25,0.60 0.18,0.62 0.10,0.64 0.02,0.65 -0.05,0.65 -0.13,0.63 -0.20,0.62 -0.20,0.62 L -0.20,0.62 Z"></path></g><g transform="translate(477.51941794995446 568.2321408357666) rotate(0 -1.162983626741152 6.590240551533327)" stroke="none"><path fill="#6741d9" d="M 0.58,0.29 Q 0.58,0.29 0.38,1.29 0.18,2.30 0.06,3.40 -0.05,4.50 -0.36,5.58 -0.68,6.66 -0.79,7.24 -0.90,7.82 -0.94,8.46 -0.98,9.11 -1.32,11.00 -1.66,12.90 -1.68,13.00 -1.70,13.11 -1.75,13.20 -1.80,13.29 -1.88,13.37 -1.95,13.44 -2.05,13.48 -2.15,13.53 -2.25,13.54 -2.36,13.55 -2.46,13.52 -2.57,13.50 -2.66,13.44 -2.75,13.39 -2.82,13.31 -2.88,13.22 -2.92,13.12 -2.96,13.03 -2.97,12.92 -2.97,12.81 -2.94,12.71 -2.91,12.61 -2.85,12.52 -2.79,12.43 -2.71,12.37 -2.62,12.31 -2.52,12.27 -2.42,12.24 -2.31,12.24 -2.21,12.24 -2.11,12.28 -2.01,12.31 -1.92,12.38 -1.84,12.44 -1.78,12.53 -1.72,12.62 -1.69,12.72 -1.66,12.83 -1.67,12.93 -1.68,13.04 -1.72,13.14 -1.76,13.23 -1.83,13.31 -1.90,13.40 -1.99,13.45 -2.08,13.50 -2.19,13.52 -2.29,13.55 -2.39,13.53 -2.50,13.52 -2.60,13.48 -2.69,13.43 -2.77,13.36 -2.84,13.28 -2.89,13.19 -2.94,13.09 -2.96,12.99 -2.97,12.88 -2.97,12.88 -2.97,12.88 -3.24,10.90 -3.50,8.92 -3.43,8.12 -3.36,7.33 -3.21,6.63 -3.06,5.92 -2.77,5.03 -2.48,4.14 -2.22,2.70 -1.96,1.26 -1.27,0.48 -0.58,-0.29 -0.54,-0.35 -0.49,-0.42 -0.44,-0.47 -0.38,-0.53 -0.31,-0.57 -0.24,-0.60 -0.16,-0.62 -0.09,-0.65 -0.01,-0.65 0.06,-0.65 0.14,-0.63 0.22,-0.61 0.29,-0.58 0.36,-0.54 0.42,-0.49 0.48,-0.44 0.52,-0.38 0.57,-0.31 0.60,-0.24 0.63,-0.16 0.64,-0.09 0.65,-0.01 0.64,0.06 0.64,0.14 0.61,0.21 0.58,0.29 0.58,0.29 L 0.58,0.29 Z"></path></g><g transform="translate(480.6207076212643 576.7606874318685) rotate(0 2.713628462396116 0)" stroke="none"><path fill="#6741d9" d="M 0,-0.65 Q 0,-0.65 2.55,-0.65 5.10,-0.65 5.20,-0.63 5.31,-0.62 5.40,-0.57 5.49,-0.52 5.57,-0.44 5.64,-0.36 5.68,-0.27 5.73,-0.17 5.74,-0.07 5.75,0.03 5.73,0.13 5.71,0.24 5.65,0.33 5.60,0.42 5.52,0.49 5.43,0.56 5.34,0.60 5.24,0.64 5.13,0.64 5.03,0.65 4.92,0.62 4.82,0.59 4.73,0.53 4.64,0.47 4.58,0.39 4.52,0.30 4.48,0.20 4.45,0.10 4.45,-0.00 4.45,-0.10 4.48,-0.20 4.52,-0.30 4.58,-0.39 4.64,-0.47 4.73,-0.53 4.82,-0.59 4.92,-0.62 5.03,-0.65 5.13,-0.64 5.24,-0.64 5.34,-0.60 5.43,-0.56 5.52,-0.49 5.60,-0.42 5.65,-0.33 5.71,-0.24 5.73,-0.13 5.75,-0.03 5.74,0.07 5.73,0.17 5.68,0.27 5.64,0.36 5.57,0.44 5.49,0.52 5.40,0.57 5.31,0.62 5.20,0.63 5.10,0.65 5.10,0.65 5.10,0.65 2.55,0.65 0,0.65 -0.07,0.64 -0.15,0.63 -0.23,0.60 -0.30,0.58 -0.37,0.53 -0.43,0.49 -0.48,0.43 -0.54,0.37 -0.57,0.30 -0.61,0.23 -0.63,0.15 -0.65,0.07 -0.65,-0.00 -0.65,-0.07 -0.63,-0.15 -0.61,-0.23 -0.57,-0.30 -0.54,-0.37 -0.48,-0.43 -0.43,-0.49 -0.37,-0.53 -0.30,-0.58 -0.23,-0.60 -0.15,-0.63 -0.07,-0.64 0.00,-0.65 0.00,-0.65 L 0,-0.65 Z"></path></g><g transform="translate(490.6998990530212 572.1087529249038) rotate(0 2.713628462396059 0.7753224178275104)" stroke="none"><path fill="#6741d9" d="M 0.29,-0.58 Q 0.29,-0.58 0.74,-0.52 1.19,-0.45 1.81,-0.99 2.42,-1.52 2.85,-1.96 3.28,-2.40 3.69,-2.82 4.11,-3.24 4.59,-3.49 5.08,-3.74 5.29,-4.10 5.50,-4.45 5.63,-4.49 5.76,-4.53 5.89,-4.54 6.03,-4.55 6.16,-4.52 6.29,-4.49 6.41,-4.44 6.54,-4.38 6.64,-4.30 6.75,-4.21 6.83,-4.11 6.91,-4.00 6.96,-3.88 7.02,-3.75 7.04,-3.62 7.06,-3.49 7.05,-3.36 7.04,-3.22 7.00,-3.09 6.96,-2.97 6.89,-2.85 6.82,-2.74 6.72,-2.64 6.63,-2.55 6.51,-2.48 6.40,-2.41 6.33,-1.29 6.26,-0.17 5.91,0.70 5.55,1.58 5.44,2.25 5.34,2.92 5.46,3.83 5.58,4.75 5.66,4.82 5.74,4.89 5.79,4.98 5.85,5.07 5.87,5.18 5.89,5.28 5.87,5.39 5.86,5.49 5.81,5.59 5.76,5.68 5.69,5.76 5.61,5.83 5.52,5.88 5.42,5.93 5.32,5.94 5.21,5.96 5.11,5.94 5.00,5.92 4.91,5.86 4.82,5.81 4.75,5.73 4.68,5.65 4.63,5.55 4.59,5.46 4.58,5.35 4.58,5.24 4.60,5.14 4.63,5.04 4.68,4.95 4.74,4.86 4.82,4.79 4.91,4.73 5.01,4.69 5.11,4.65 5.21,4.65 5.32,4.65 5.42,4.68 5.52,4.71 5.61,4.77 5.69,4.84 5.76,4.92 5.82,5.01 5.85,5.11 5.88,5.21 5.88,5.32 5.87,5.42 5.84,5.52 5.80,5.62 5.73,5.71 5.67,5.79 5.58,5.85 5.49,5.90 5.39,5.93 5.28,5.95 5.18,5.94 5.07,5.94 4.97,5.89 4.88,5.85 4.88,5.85 4.88,5.85 3.86,4.16 2.84,2.46 3.03,1.54 3.21,0.62 3.55,-0.15 3.88,-0.93 4.17,-1.80 4.46,-2.68 4.98,-3.57 5.50,-4.45 5.63,-4.49 5.76,-4.53 5.89,-4.54 6.03,-4.55 6.16,-4.52 6.29,-4.49 6.41,-4.44 6.54,-4.38 6.64,-4.30 6.74,-4.21 6.83,-4.11 6.91,-4.00 6.96,-3.88 7.02,-3.75 7.04,-3.62 7.06,-3.49 7.05,-3.36 7.04,-3.22 7.00,-3.09 6.96,-2.97 6.89,-2.85 6.82,-2.74 6.72,-2.64 6.63,-2.55 6.51,-2.48 6.40,-2.41 5.97,-2.08 5.54,-1.74 5.14,-1.35 4.74,-0.95 4.30,-0.52 3.87,-0.09 3.16,0.51 2.44,1.12 1.51,1.23 0.58,1.34 0.14,0.96 -0.29,0.58 -0.35,0.54 -0.42,0.49 -0.47,0.44 -0.53,0.38 -0.57,0.31 -0.60,0.24 -0.62,0.16 -0.65,0.09 -0.65,0.01 -0.65,-0.06 -0.63,-0.14 -0.61,-0.22 -0.58,-0.29 -0.54,-0.36 -0.49,-0.42 -0.44,-0.48 -0.38,-0.52 -0.31,-0.57 -0.24,-0.60 -0.16,-0.63 -0.09,-0.64 -0.01,-0.65 0.06,-0.64 0.14,-0.64 0.21,-0.61 0.29,-0.58 0.29,-0.58 L 0.29,-0.58 Z"></path></g><g transform="translate(235.618823587789 269.73300997219695) rotate(0 3.1012896713098144 16.281770774376525)" stroke="none"><path fill="#6741d9" d="M 0.65,0 Q 0.65,0 0.84,1.33 1.03,2.67 0.82,5.29 0.61,7.91 0.30,10.37 -0.00,12.82 -0.58,15.68 -1.15,18.54 -1.61,21.06 -2.07,23.59 -2.26,25.30 -2.45,27.01 -2.53,28.17 -2.61,29.33 -2.64,30.05 -2.67,30.76 -2.76,31.57 -2.85,32.37 -2.22,31.89 -1.60,31.40 -0.19,30.56 1.20,29.71 2.26,29.12 3.31,28.53 4.13,27.88 4.94,27.24 5.73,26.53 6.52,25.82 6.97,24.97 7.43,24.11 7.91,23.42 8.39,22.73 8.19,22.21 8.00,21.69 6.67,21.34 5.34,21.00 4.46,20.93 3.58,20.87 3.00,20.83 2.41,20.79 1.95,21.83 1.48,22.87 1.41,22.89 1.33,22.90 1.25,22.89 1.17,22.89 1.10,22.86 1.02,22.84 0.95,22.80 0.89,22.75 0.83,22.70 0.78,22.64 0.74,22.57 0.70,22.50 0.67,22.43 0.65,22.35 0.65,22.27 0.65,22.19 0.66,22.12 0.68,22.04 0.71,21.97 0.74,21.90 0.79,21.83 0.84,21.77 0.91,21.72 0.97,21.68 1.04,21.65 1.11,21.61 1.50,21.78 1.88,21.94 1.91,22.04 1.95,22.14 1.95,22.25 1.95,22.35 1.91,22.45 1.88,22.55 1.81,22.64 1.75,22.72 1.66,22.78 1.57,22.84 1.47,22.87 1.37,22.90 1.26,22.89 1.16,22.89 1.06,22.85 0.96,22.81 0.88,22.74 0.80,22.67 0.74,22.58 0.69,22.48 0.67,22.38 0.64,22.28 0.66,22.17 0.67,22.07 0.71,21.97 0.76,21.87 0.83,21.80 0.90,21.72 1.00,21.67 1.09,21.62 1.20,21.60 1.30,21.59 1.41,21.61 1.51,21.62 1.61,21.67 1.70,21.72 1.77,21.80 1.84,21.88 1.89,21.97 1.93,22.07 1.94,22.18 1.96,22.28 1.93,22.39 1.91,22.49 1.85,22.58 1.80,22.67 1.72,22.74 1.64,22.81 1.54,22.85 1.44,22.89 1.33,22.89 1.23,22.90 1.12,22.87 1.02,22.84 0.93,22.78 0.85,22.72 1.17,22.80 1.48,22.87 1.41,22.89 1.33,22.90 1.25,22.89 1.17,22.89 1.10,22.86 1.02,22.84 0.95,22.80 0.89,22.75 0.83,22.70 0.78,22.64 0.74,22.57 0.70,22.50 0.67,22.43 0.65,22.35 0.65,22.27 0.65,22.19 0.66,22.12 0.68,22.04 0.71,21.97 0.74,21.90 0.79,21.83 0.84,21.77 0.91,21.72 0.97,21.68 1.04,21.65 1.11,21.61 0.86,20.13 0.61,18.65 1.56,18.36 2.51,18.06 3.16,18.10 3.82,18.13 4.80,18.22 5.79,18.32 7.19,18.63 8.60,18.94 9.36,19.56 10.12,20.18 10.52,21.07 10.93,21.95 10.66,23.04 10.38,24.12 9.93,24.71 9.47,25.30 8.78,26.42 8.10,27.53 7.24,28.30 6.37,29.07 5.41,29.81 4.45,30.56 3.42,31.13 2.40,31.70 1.00,32.54 -0.39,33.38 -1.36,33.85 -2.33,34.32 -3.21,34.14 -4.09,33.97 -4.48,33.47 -4.87,32.97 -4.93,32.35 -5.00,31.74 -4.98,31.19 -4.96,30.65 -4.92,29.91 -4.88,29.17 -4.79,27.96 -4.70,26.75 -4.49,24.96 -4.28,23.18 -3.80,20.64 -3.32,18.09 -2.74,15.32 -2.15,12.54 -1.83,10.13 -1.50,7.73 -1.27,5.20 -1.03,2.67 -0.84,1.33 -0.65,0 -0.64,-0.07 -0.63,-0.15 -0.60,-0.23 -0.58,-0.30 -0.53,-0.37 -0.49,-0.43 -0.43,-0.48 -0.37,-0.54 -0.30,-0.57 -0.23,-0.61 -0.15,-0.63 -0.07,-0.65 0.00,-0.65 0.07,-0.65 0.15,-0.63 0.23,-0.61 0.30,-0.57 0.37,-0.54 0.43,-0.48 0.49,-0.43 0.53,-0.37 0.58,-0.30 0.60,-0.23 0.63,-0.15 0.64,-0.07 0.65,0.00 0.65,0.00 L 0.65,0 Z"></path></g><g transform="translate(247.2486598552008 289.89139283571075) rotate(0 18.607738027858886 -8.52854659610199)" stroke="none"><path fill="#6741d9" d="M 0.46,0.46 Q 0.46,0.46 0.38,0.82 0.30,1.18 -0.24,2.45 -0.79,3.71 -0.90,4.64 -1.02,5.58 -1.08,6.21 -1.14,6.84 -0.96,7.38 -0.78,7.93 -0.19,8.18 0.38,8.43 1.31,7.59 2.25,6.74 3.11,5.73 3.98,4.72 5.02,3.39 6.07,2.06 6.71,1.08 7.36,0.10 7.82,-0.92 8.28,-1.95 8.45,-2.58 8.63,-3.20 9.28,-4.10 9.92,-4.99 9.36,-4.54 8.80,-4.09 8.84,-4.24 8.89,-4.38 8.96,-4.51 9.04,-4.63 9.14,-4.74 9.25,-4.85 9.38,-4.92 9.50,-5.00 9.65,-5.05 9.79,-5.09 9.94,-5.10 10.09,-5.11 10.23,-5.08 10.38,-5.06 10.51,-5.00 10.65,-4.94 10.77,-4.85 10.89,-4.75 10.98,-4.64 11.07,-4.52 11.13,-4.39 11.20,-4.25 11.22,-4.10 11.25,-3.96 11.24,-3.81 11.23,-3.66 11.01,-2.92 10.79,-2.17 10.48,-1.21 10.17,-0.24 9.82,0.82 9.46,1.90 9.34,3.12 9.22,4.34 9.15,5.10 9.09,5.85 9.32,6.66 9.54,7.46 10.47,7.30 11.41,7.15 12.29,6.40 13.18,5.66 14.66,4.02 16.13,2.39 18.32,-0.30 20.51,-3.00 21.65,-4.57 22.79,-6.15 23.89,-8.51 24.99,-10.87 25.67,-13.16 26.35,-15.46 26.87,-17.55 27.39,-19.64 27.37,-20.84 27.36,-22.04 27.36,-23.05 27.37,-24.06 27.18,-24.76 27.00,-25.46 26.88,-24.69 26.77,-23.92 26.13,-22.10 25.49,-20.28 24.76,-17.29 24.04,-14.29 23.50,-11.47 22.97,-8.64 22.52,-5.67 22.07,-2.69 22.11,-0.40 22.15,1.87 22.14,3.29 22.14,4.70 22.71,5.47 23.28,6.24 24.56,6.20 25.85,6.16 27.52,5.06 29.20,3.95 31.11,2.61 33.02,1.27 35.55,-0.39 38.08,-2.05 38.17,-2.10 38.26,-2.15 38.37,-2.16 38.47,-2.18 38.58,-2.16 38.68,-2.14 38.78,-2.09 38.87,-2.04 38.94,-1.97 39.02,-1.89 39.06,-1.79 39.10,-1.69 39.11,-1.59 39.12,-1.48 39.10,-1.38 39.08,-1.28 39.02,-1.19 38.97,-1.09 38.88,-1.03 38.80,-0.96 38.70,-0.92 38.60,-0.88 38.50,-0.88 38.39,-0.87 38.29,-0.90 38.19,-0.93 38.10,-0.99 38.01,-1.05 37.95,-1.14 37.89,-1.22 37.85,-1.32 37.82,-1.42 37.82,-1.53 37.82,-1.64 37.86,-1.74 37.89,-1.84 37.96,-1.92 38.02,-2.00 38.11,-2.06 38.20,-2.12 38.30,-2.15 38.40,-2.18 38.51,-2.17 38.62,-2.16 38.71,-2.12 38.81,-2.08 38.89,-2.01 38.97,-1.94 39.03,-1.85 39.08,-1.76 39.10,-1.66 39.12,-1.55 39.11,-1.45 39.10,-1.34 39.05,-1.25 39.01,-1.15 38.94,-1.07 38.86,-1.00 38.86,-1.00 38.86,-1.00 36.55,0.94 34.23,2.89 32.34,4.37 30.45,5.85 28.43,7.19 26.41,8.53 24.86,8.75 23.32,8.96 22.28,8.31 21.24,7.66 20.46,6.29 19.68,4.92 19.65,3.42 19.62,1.91 19.59,-0.57 19.57,-3.06 20.02,-6.09 20.48,-9.11 21.02,-12.00 21.57,-14.89 22.33,-18.02 23.09,-21.14 23.85,-23.22 24.61,-25.30 25.50,-26.42 26.39,-27.54 27.19,-27.59 27.98,-27.64 28.73,-26.92 29.48,-26.21 29.74,-25.14 30.00,-24.08 30.00,-23.06 30.00,-22.03 29.98,-20.53 29.96,-19.02 29.43,-16.86 28.89,-14.70 28.13,-12.22 27.38,-9.75 26.15,-7.18 24.92,-4.61 23.73,-2.98 22.54,-1.34 20.29,1.39 18.03,4.14 16.40,5.89 14.77,7.63 13.60,8.54 12.43,9.44 11.23,9.82 10.04,10.19 9.30,9.91 8.56,9.64 7.80,8.48 7.05,7.33 6.82,6.53 6.60,5.74 6.66,4.90 6.73,4.07 6.90,2.59 7.08,1.12 7.44,0.05 7.80,-1.02 8.11,-1.96 8.42,-2.90 8.61,-3.50 8.80,-4.09 8.84,-4.24 8.89,-4.38 8.96,-4.51 9.04,-4.63 9.14,-4.74 9.25,-4.85 9.38,-4.92 9.50,-5.00 9.65,-5.05 9.79,-5.09 9.94,-5.10 10.09,-5.11 10.23,-5.08 10.38,-5.06 10.51,-5.00 10.65,-4.94 10.77,-4.85 10.89,-4.76 10.98,-4.64 11.07,-4.52 11.13,-4.39 11.20,-4.25 11.22,-4.10 11.25,-3.96 11.24,-3.81 11.23,-3.66 11.06,-3.08 10.88,-2.50 10.62,-1.74 10.36,-0.99 9.80,0.18 9.24,1.35 8.54,2.40 7.83,3.46 6.74,4.82 5.66,6.19 4.66,7.32 3.66,8.45 2.31,9.49 0.95,10.54 0.03,10.63 -0.87,10.71 -1.50,10.29 -2.14,9.88 -2.51,9.19 -2.89,8.51 -3.10,7.59 -3.31,6.68 -3.24,5.97 -3.17,5.26 -2.99,4.09 -2.80,2.93 -2.40,1.95 -2.00,0.98 -1.59,0.34 -1.19,-0.29 -0.82,-0.37 -0.46,-0.46 -0.40,-0.51 -0.33,-0.56 -0.26,-0.59 -0.19,-0.62 -0.11,-0.64 -0.03,-0.65 0.03,-0.65 0.11,-0.64 0.19,-0.62 0.26,-0.59 0.33,-0.55 0.40,-0.51 0.46,-0.46 0.51,-0.40 0.55,-0.33 0.59,-0.26 0.62,-0.19 0.64,-0.11 0.65,-0.03 0.65,0.03 0.64,0.11 0.62,0.19 0.59,0.26 0.56,0.33 0.51,0.40 0.46,0.46 0.46,0.46 L 0.46,0.46 Z"></path></g><g transform="translate(292.2173600891931 266.63172030088714) rotate(0 -3.1012896713098144 15.506448356549072)" stroke="none"><path fill="#6741d9" d="M 0.64,0.12 Q 0.64,0.12 0.62,1.28 0.61,2.44 0.08,4.51 -0.43,6.58 -1.08,9.66 -1.73,12.73 -2.46,15.42 -3.19,18.10 -3.72,20.96 -4.25,23.82 -4.49,25.47 -4.73,27.12 -5.11,28.73 -5.48,30.33 -5.51,30.44 -5.53,30.54 -5.59,30.63 -5.65,30.72 -5.73,30.78 -5.81,30.85 -5.91,30.89 -6.01,30.92 -6.12,30.93 -6.23,30.93 -6.33,30.90 -6.43,30.87 -6.52,30.80 -6.60,30.74 -6.66,30.66 -6.73,30.57 -6.76,30.47 -6.79,30.37 -6.78,30.26 -6.78,30.15 -6.74,30.05 -6.71,29.95 -6.64,29.87 -6.57,29.79 -6.48,29.73 -6.40,29.67 -6.29,29.65 -6.19,29.62 -6.08,29.63 -5.98,29.64 -5.88,29.68 -5.78,29.73 -5.70,29.80 -5.62,29.87 -5.57,29.96 -5.52,30.05 -5.50,30.16 -5.48,30.26 -5.50,30.37 -5.51,30.47 -5.56,30.57 -5.60,30.66 -5.68,30.74 -5.75,30.81 -5.85,30.86 -5.95,30.91 -6.05,30.92 -6.16,30.93 -6.26,30.91 -6.36,30.89 -6.46,30.84 -6.55,30.79 -6.62,30.71 -6.69,30.63 -6.73,30.53 -6.77,30.44 -6.78,30.33 -6.79,30.22 -6.79,30.22 -6.79,30.22 -6.89,28.52 -6.99,26.82 -6.78,25.10 -6.57,23.39 -6.03,20.43 -5.49,17.47 -4.76,14.85 -4.02,12.23 -3.32,9.12 -2.61,6.00 -2.06,4.01 -1.50,2.01 -1.07,0.94 -0.64,-0.12 -0.61,-0.20 -0.59,-0.27 -0.55,-0.34 -0.51,-0.41 -0.45,-0.46 -0.39,-0.52 -0.32,-0.56 -0.25,-0.60 -0.18,-0.62 -0.10,-0.64 -0.02,-0.65 0.05,-0.65 0.12,-0.63 0.20,-0.62 0.27,-0.59 0.34,-0.55 0.41,-0.50 0.47,-0.45 0.51,-0.39 0.56,-0.33 0.59,-0.25 0.63,-0.18 0.64,-0.10 0.65,-0.02 0.64,0.04 0.64,0.12 0.64,0.12 L 0.64,0.12 Z"></path></g><g transform="translate(285.239458328746 287.5654255822284) rotate(0 10.85451384958435 0)" stroke="none"><path fill="#6741d9" d="M -0.41,-0.51 Q -0.41,-0.51 0.59,-1.53 1.60,-2.55 3.88,-4.10 6.15,-5.65 7.37,-6.31 8.60,-6.97 9.28,-7.44 9.97,-7.91 10.89,-8.19 11.82,-8.48 12.84,-8.34 13.85,-8.20 14.44,-7.77 15.02,-7.33 15.29,-6.43 15.55,-5.53 15.12,-4.54 14.70,-3.55 13.76,-2.67 12.82,-1.78 11.70,-1.16 10.58,-0.53 9.43,-0.04 8.28,0.44 7.39,0.85 6.50,1.27 5.81,1.48 5.12,1.70 4.56,1.80 4.00,1.90 3.58,1.94 3.15,1.97 3.00,1.98 2.84,1.98 2.69,1.95 2.54,1.92 2.41,1.85 2.27,1.79 2.15,1.69 2.03,1.59 1.94,1.47 1.85,1.35 1.79,1.21 1.74,1.07 1.71,0.92 1.69,0.76 1.70,0.61 1.72,0.46 1.76,0.32 1.81,0.17 1.90,0.04 1.98,-0.07 2.09,-0.18 2.20,-0.28 2.33,-0.36 2.47,-0.44 2.61,-0.48 2.76,-0.52 3.55,0.22 4.33,0.96 4.91,1.56 5.48,2.15 6.34,2.75 7.19,3.35 8.52,3.76 9.84,4.16 11.74,4.62 13.63,5.08 15.36,5.56 17.08,6.05 18.99,6.52 20.90,6.99 21.00,7.02 21.11,7.05 21.19,7.11 21.28,7.17 21.34,7.25 21.41,7.34 21.44,7.44 21.47,7.54 21.47,7.65 21.47,7.76 21.43,7.86 21.40,7.96 21.33,8.04 21.27,8.12 21.18,8.18 21.09,8.24 20.99,8.27 20.88,8.29 20.78,8.29 20.67,8.28 20.57,8.24 20.48,8.20 20.40,8.13 20.32,8.06 20.26,7.97 20.21,7.87 20.19,7.77 20.17,7.67 20.18,7.56 20.19,7.45 20.24,7.36 20.28,7.26 20.36,7.19 20.43,7.11 20.53,7.06 20.62,7.01 20.73,7.00 20.83,6.98 20.94,7.00 21.04,7.02 21.13,7.07 21.23,7.12 21.30,7.20 21.37,7.28 21.41,7.38 21.46,7.47 21.47,7.58 21.48,7.68 21.45,7.79 21.43,7.89 21.37,7.98 21.32,8.07 21.23,8.14 21.15,8.21 21.05,8.24 20.95,8.28 20.85,8.29 20.74,8.29 20.74,8.29 20.74,8.29 18.65,8.27 16.56,8.24 14.82,7.92 13.08,7.59 11.03,7.18 8.98,6.77 7.31,6.19 5.64,5.61 4.69,4.92 3.74,4.24 3.04,3.56 2.33,2.88 2.03,2.16 1.74,1.43 2.44,1.70 3.15,1.97 3.00,1.98 2.84,1.98 2.69,1.95 2.54,1.92 2.41,1.85 2.27,1.79 2.15,1.69 2.03,1.59 1.94,1.47 1.85,1.35 1.79,1.21 1.74,1.07 1.71,0.92 1.69,0.77 1.70,0.61 1.72,0.46 1.76,0.32 1.81,0.17 1.90,0.04 1.98,-0.07 2.09,-0.18 2.20,-0.28 2.33,-0.36 2.47,-0.44 2.61,-0.48 2.76,-0.52 3.60,-0.59 4.43,-0.67 4.97,-0.81 5.50,-0.94 6.44,-1.35 7.38,-1.77 8.44,-2.18 9.50,-2.59 10.42,-3.04 11.34,-3.49 12.07,-4.08 12.80,-4.67 13.07,-5.40 13.33,-6.14 12.82,-6.27 12.30,-6.40 11.72,-6.26 11.14,-6.13 10.37,-5.61 9.61,-5.10 8.47,-4.49 7.32,-3.88 5.08,-2.44 2.84,-1.00 1.62,-0.24 0.41,0.51 0.34,0.55 0.27,0.59 0.20,0.62 0.12,0.64 0.04,0.65 -0.03,0.65 -0.11,0.64 -0.18,0.62 -0.26,0.59 -0.33,0.56 -0.39,0.51 -0.45,0.46 -0.50,0.40 -0.55,0.34 -0.59,0.27 -0.62,0.20 -0.63,0.12 -0.65,0.04 -0.65,-0.03 -0.64,-0.11 -0.62,-0.18 -0.60,-0.26 -0.56,-0.33 -0.52,-0.39 -0.46,-0.45 -0.41,-0.51 -0.41,-0.51 L -0.41,-0.51 Z"></path></g><g transform="translate(527.4989643041711 221.70064858768035) rotate(90.38452965958454 1.1629836267411804 18.220076818945188)" stroke="none"><path fill="#6741d9" d="M 0.64,0.10 Q 0.64,0.10 0.59,1.47 0.54,2.83 0.23,4.32 -0.07,5.81 -0.19,7.47 -0.30,9.14 -0.57,11.25 -0.84,13.36 -1.41,15.43 -1.98,17.50 -2.20,18.96 -2.42,20.41 -2.75,21.77 -3.07,23.13 -3.20,24.08 -3.32,25.03 -3.37,25.86 -3.42,26.69 -3.43,27.49 -3.45,28.29 -3.45,28.85 -3.45,29.41 -3.45,30.29 -3.44,31.17 -3.46,31.88 -3.49,32.60 -3.81,33.15 -4.13,33.69 -4.12,34.43 -4.12,35.16 -2.75,34.71 -1.39,34.27 -0.58,33.72 0.21,33.16 1.27,32.45 2.34,31.74 3.18,31.03 4.03,30.33 4.61,29.80 5.20,29.27 5.65,28.84 6.11,28.41 6.03,27.65 5.95,26.90 5.42,26.22 4.89,25.55 4.11,25.18 3.33,24.82 1.94,25.06 0.54,25.31 0.47,25.29 0.39,25.27 0.32,25.23 0.25,25.20 0.19,25.15 0.13,25.09 0.08,25.03 0.04,24.97 0.01,24.89 -0.01,24.82 -0.02,24.74 -0.03,24.66 -0.02,24.58 -0.01,24.50 0.01,24.43 0.03,24.35 0.08,24.29 0.12,24.22 0.18,24.17 0.24,24.12 0.31,24.08 0.38,24.04 0.46,24.02 0.53,24.00 0.61,24.00 0.69,24.00 0.95,24.18 1.20,24.36 1.23,24.46 1.27,24.56 1.26,24.67 1.26,24.77 1.23,24.87 1.19,24.97 1.13,25.06 1.06,25.14 0.97,25.20 0.88,25.26 0.78,25.28 0.68,25.31 0.57,25.30 0.47,25.29 0.37,25.25 0.27,25.21 0.19,25.14 0.11,25.07 0.06,24.98 0.00,24.89 -0.01,24.78 -0.03,24.68 -0.02,24.57 -0.00,24.47 0.03,24.37 0.08,24.28 0.15,24.20 0.23,24.13 0.32,24.08 0.42,24.03 0.52,24.01 0.63,24.00 0.73,24.02 0.84,24.04 0.93,24.09 1.02,24.14 1.09,24.22 1.17,24.30 1.21,24.39 1.25,24.49 1.26,24.60 1.27,24.70 1.25,24.81 1.22,24.91 1.17,25.00 1.11,25.09 1.03,25.16 0.95,25.22 0.85,25.26 0.75,25.30 0.64,25.30 0.53,25.31 0.43,25.28 0.33,25.25 0.24,25.19 0.16,25.12 0.35,25.22 0.54,25.31 0.47,25.29 0.39,25.27 0.32,25.23 0.25,25.20 0.19,25.15 0.13,25.09 0.08,25.03 0.04,24.97 0.01,24.89 -0.01,24.82 -0.02,24.74 -0.03,24.66 -0.02,24.58 -0.01,24.50 0.01,24.43 0.03,24.35 0.08,24.29 0.12,24.22 0.18,24.17 0.24,24.12 0.31,24.08 0.38,24.04 0.46,24.02 0.53,24.00 0.61,24.00 0.69,24.00 1.68,22.99 2.66,21.97 3.46,22.09 4.26,22.20 4.89,22.45 5.52,22.71 6.26,23.24 6.99,23.78 7.40,24.29 7.80,24.80 8.18,25.44 8.55,26.09 8.74,27.00 8.94,27.92 8.80,28.51 8.65,29.10 8.31,29.70 7.97,30.30 7.46,30.77 6.96,31.24 6.33,31.79 5.71,32.35 4.75,33.14 3.80,33.93 2.73,34.64 1.66,35.35 0.58,36.04 -0.49,36.73 -1.91,37.18 -3.34,37.63 -4.16,37.52 -4.97,37.42 -5.55,37.05 -6.14,36.68 -6.41,35.86 -6.67,35.04 -6.58,34.16 -6.49,33.28 -6.14,32.75 -5.80,32.23 -5.83,31.69 -5.85,31.16 -5.83,30.26 -5.81,29.37 -5.79,28.79 -5.78,28.21 -5.74,27.38 -5.70,26.54 -5.64,25.63 -5.57,24.72 -5.41,23.66 -5.26,22.59 -4.94,21.33 -4.62,20.06 -4.35,18.48 -4.09,16.90 -3.53,14.98 -2.97,13.06 -2.68,11.02 -2.39,8.98 -2.24,7.18 -2.08,5.37 -1.75,3.94 -1.43,2.51 -1.03,1.20 -0.64,-0.10 -0.62,-0.18 -0.60,-0.25 -0.56,-0.32 -0.52,-0.39 -0.46,-0.45 -0.41,-0.51 -0.34,-0.55 -0.27,-0.59 -0.20,-0.61 -0.12,-0.64 -0.04,-0.64 0.02,-0.65 0.10,-0.64 0.18,-0.62 0.25,-0.59 0.33,-0.56 0.39,-0.51 0.45,-0.47 0.50,-0.41 0.55,-0.34 0.59,-0.27 0.62,-0.20 0.63,-0.12 0.65,-0.05 0.65,0.02 0.64,0.10 0.64,0.10 L 0.64,0.10 Z"></path></g><g transform="translate(502.49633107177175 266.60626210290843) rotate(90.38452965958454 16.669431983290252 1.9383060445686056)" stroke="none"><path fill="#6741d9" d="M 0.18,0.63 Q 0.18,0.63 -1.30,1.31 -2.80,2.00 -3.58,2.38 -4.37,2.75 -4.80,3.24 -5.22,3.73 -5.35,4.25 -5.49,4.77 -5.56,5.39 -5.64,6.01 -5.49,6.53 -5.35,7.05 -4.56,7.44 -3.77,7.83 -2.65,7.44 -1.54,7.05 -0.70,6.35 0.12,5.65 0.95,4.91 1.77,4.17 2.01,3.57 2.25,2.96 2.62,2.23 3.00,1.50 2.74,0.76 2.48,0.03 1.63,-0.06 0.78,-0.16 0.14,-0.20 -0.50,-0.24 -1.33,0.03 -2.17,0.31 -1.50,0.28 -0.82,0.24 -0.07,0.04 0.68,-0.15 1.43,-0.44 2.19,-0.73 2.95,-1.07 3.72,-1.41 4.49,-1.78 5.26,-2.14 5.73,-2.48 6.20,-2.81 6.94,-3.22 7.67,-3.64 8.24,-3.81 8.81,-3.99 9.27,-4.35 9.73,-4.71 9.66,-5.10 9.59,-5.49 9.68,-5.62 9.76,-5.76 9.88,-5.86 9.99,-5.97 10.13,-6.05 10.26,-6.13 10.42,-6.17 10.57,-6.21 10.73,-6.22 10.88,-6.22 11.04,-6.19 11.19,-6.15 11.33,-6.09 11.47,-6.02 11.60,-5.92 11.72,-5.82 11.81,-5.69 11.90,-5.56 11.96,-5.42 12.02,-5.27 12.05,-5.12 12.07,-4.96 12.06,-4.80 12.04,-4.65 11.99,-4.50 11.94,-4.35 11.47,-3.96 11.01,-3.56 10.64,-2.70 10.28,-1.84 9.94,-0.97 9.61,-0.10 9.24,0.94 8.86,1.98 8.73,2.77 8.60,3.56 8.53,4.50 8.47,5.44 8.68,6.06 8.90,6.68 9.89,6.34 10.88,6.01 11.73,5.51 12.59,5.01 13.36,4.39 14.13,3.78 14.84,2.91 15.55,2.05 16.28,0.84 17.00,-0.35 17.27,-1.22 17.54,-2.08 17.96,-2.84 18.37,-3.61 18.31,-4.49 18.25,-5.37 18.29,-5.53 18.34,-5.70 18.42,-5.85 18.51,-6.00 18.63,-6.13 18.75,-6.25 18.89,-6.35 19.04,-6.44 19.20,-6.50 19.36,-6.55 19.54,-6.57 19.71,-6.58 19.88,-6.56 20.05,-6.53 20.21,-6.47 20.37,-6.40 20.51,-6.30 20.65,-6.19 20.76,-6.06 20.87,-5.93 20.95,-5.77 21.02,-5.62 21.06,-5.45 21.10,-5.28 21.09,-5.11 21.09,-4.93 20.62,-4.22 20.16,-3.51 19.91,-2.86 19.67,-2.20 19.28,-1.39 18.90,-0.57 18.79,0.04 18.69,0.67 18.37,1.56 18.05,2.44 17.96,3.05 17.87,3.66 18.10,4.48 18.34,5.30 18.47,5.83 18.60,6.37 19.05,5.96 19.50,5.56 20.06,5.02 20.62,4.49 21.32,3.81 22.02,3.12 22.76,2.39 23.50,1.65 24.26,0.90 25.03,0.14 25.58,-0.40 26.14,-0.95 26.76,-1.30 27.38,-1.65 27.89,-1.94 28.41,-2.24 29.29,-2.15 30.17,-2.06 30.66,-1.55 31.14,-1.05 31.31,0.00 31.48,1.07 31.28,2.06 31.07,3.05 30.74,3.91 30.41,4.77 30.19,5.75 29.98,6.73 29.80,6.79 29.62,6.85 29.58,7.01 29.54,7.17 29.47,7.31 29.39,7.46 29.28,7.58 29.17,7.70 29.04,7.80 28.90,7.89 28.75,7.95 28.60,8.00 28.43,8.02 28.27,8.04 28.11,8.03 27.95,8.01 27.79,7.95 27.64,7.89 27.51,7.80 27.37,7.70 27.26,7.58 27.15,7.46 27.08,7.31 27.00,7.17 26.96,7.01 26.92,6.85 26.92,6.69 26.92,6.52 27.66,5.08 28.39,3.65 29.07,2.62 29.75,1.59 30.49,0.49 31.23,-0.60 32.04,-1.56 32.84,-2.52 33.75,-3.23 34.65,-3.93 34.93,-3.96 35.20,-3.99 35.32,-4.06 35.45,-4.14 35.59,-4.18 35.73,-4.23 35.87,-4.24 36.02,-4.25 36.16,-4.22 36.30,-4.20 36.44,-4.14 36.57,-4.08 36.68,-3.99 36.80,-3.90 36.89,-3.79 36.98,-3.68 37.04,-3.54 37.10,-3.41 37.13,-3.27 37.16,-3.13 37.15,-2.98 37.14,-2.83 37.10,-2.70 37.06,-2.56 36.98,-2.43 36.91,-2.31 36.81,-2.20 36.71,-2.10 36.60,-1.49 36.50,-0.88 36.15,0.14 35.81,1.18 35.43,2.11 35.04,3.04 34.92,3.74 34.81,4.44 37.17,3.96 39.53,3.47 39.63,3.45 39.74,3.43 39.84,3.44 39.95,3.45 40.04,3.50 40.14,3.54 40.22,3.62 40.29,3.69 40.34,3.78 40.39,3.88 40.41,3.98 40.42,4.09 40.41,4.19 40.39,4.30 40.34,4.39 40.29,4.49 40.21,4.56 40.13,4.63 40.04,4.67 39.94,4.72 39.83,4.73 39.73,4.74 39.62,4.72 39.52,4.69 39.43,4.64 39.34,4.58 39.27,4.50 39.20,4.42 39.16,4.32 39.13,4.22 39.12,4.12 39.12,4.01 39.14,3.91 39.17,3.81 39.23,3.72 39.29,3.63 39.38,3.57 39.46,3.50 39.56,3.47 39.67,3.44 39.77,3.44 39.88,3.44 39.98,3.47 40.08,3.51 40.16,3.57 40.25,3.64 40.31,3.72 40.37,3.81 40.39,3.92 40.42,4.02 40.41,4.12 40.41,4.23 40.37,4.33 40.33,4.43 40.26,4.51 40.19,4.59 40.10,4.64 40.01,4.70 40.01,4.70 40.01,4.70 37.75,5.68 35.49,6.66 34.48,6.73 33.46,6.80 32.87,6.14 32.28,5.48 32.31,4.72 32.33,3.97 32.53,3.02 32.73,2.08 33.09,1.23 33.45,0.38 33.82,-0.65 34.18,-1.70 34.69,-2.84 35.20,-3.99 35.32,-4.06 35.45,-4.14 35.59,-4.18 35.73,-4.23 35.87,-4.24 36.02,-4.25 36.16,-4.22 36.30,-4.20 36.44,-4.14 36.57,-4.08 36.68,-3.99 36.80,-3.90 36.89,-3.79 36.98,-3.68 37.04,-3.54 37.10,-3.41 37.13,-3.27 37.16,-3.13 37.15,-2.98 37.14,-2.83 37.10,-2.70 37.06,-2.56 36.98,-2.43 36.91,-2.31 36.81,-2.20 36.71,-2.10 36.33,-2.05 35.95,-2.00 35.32,-1.49 34.70,-0.97 33.99,-0.11 33.29,0.75 32.58,1.85 31.87,2.96 31.24,3.97 30.60,4.98 30.11,5.91 29.62,6.85 29.58,7.01 29.54,7.17 29.47,7.31 29.39,7.46 29.28,7.58 29.17,7.70 29.04,7.79 28.90,7.89 28.75,7.95 28.60,8.00 28.44,8.02 28.27,8.04 28.11,8.03 27.95,8.01 27.79,7.95 27.64,7.89 27.51,7.80 27.37,7.70 27.26,7.58 27.15,7.46 27.08,7.31 27.00,7.17 26.96,7.01 26.92,6.85 26.92,6.69 26.92,6.52 27.23,5.80 27.54,5.07 27.70,4.42 27.86,3.78 28.13,3.08 28.41,2.39 28.59,1.83 28.77,1.27 29.02,0.68 29.28,0.09 28.67,0.55 28.05,1.01 27.52,1.56 26.98,2.10 26.22,2.86 25.46,3.62 24.71,4.37 23.96,5.11 23.25,5.81 22.53,6.51 21.88,7.12 21.23,7.74 20.73,8.11 20.24,8.49 19.50,8.74 18.77,8.98 18.13,8.86 17.49,8.74 16.92,8.34 16.35,7.95 15.99,7.24 15.62,6.52 15.53,5.77 15.44,5.02 15.25,4.18 15.05,3.34 15.21,2.40 15.36,1.45 15.63,0.78 15.89,0.10 16.09,-0.83 16.30,-1.77 16.67,-2.55 17.03,-3.33 17.64,-4.35 18.25,-5.36 18.29,-5.53 18.34,-5.70 18.42,-5.85 18.51,-6.00 18.63,-6.13 18.75,-6.25 18.89,-6.35 19.04,-6.44 19.20,-6.50 19.36,-6.55 19.54,-6.57 19.71,-6.58 19.88,-6.56 20.05,-6.53 20.21,-6.47 20.37,-6.40 20.51,-6.30 20.65,-6.19 20.76,-6.06 20.87,-5.93 20.95,-5.77 21.02,-5.62 21.06,-5.45 21.10,-5.28 21.09,-5.11 21.09,-4.93 21.19,-5.02 21.29,-5.10 21.29,-4.30 21.29,-3.49 21.07,-2.85 20.85,-2.22 20.54,-1.69 20.22,-1.16 19.82,-0.03 19.42,1.09 18.56,2.48 17.70,3.87 16.79,4.92 15.88,5.98 14.93,6.72 13.98,7.46 12.88,8.06 11.79,8.67 10.90,8.95 10.01,9.23 9.00,9.17 7.98,9.11 7.08,7.99 6.17,6.86 5.93,6.13 5.68,5.40 5.75,4.23 5.83,3.07 6.02,2.06 6.21,1.04 6.60,-0.04 6.99,-1.13 7.40,-2.15 7.81,-3.18 8.19,-3.87 8.57,-4.56 9.08,-5.03 9.59,-5.49 9.68,-5.62 9.76,-5.76 9.88,-5.86 9.99,-5.97 10.13,-6.05 10.26,-6.13 10.42,-6.17 10.57,-6.21 10.73,-6.22 10.88,-6.22 11.04,-6.19 11.19,-6.15 11.33,-6.09 11.47,-6.02 11.60,-5.92 11.72,-5.82 11.81,-5.69 11.90,-5.56 11.96,-5.42 12.02,-5.27 12.05,-5.12 12.07,-4.96 12.06,-4.80 12.04,-4.65 11.99,-4.50 11.94,-4.35 11.88,-4.02 11.82,-3.69 11.26,-3.15 10.69,-2.61 9.80,-2.01 8.91,-1.41 8.28,-1.06 7.65,-0.70 7.00,-0.27 6.36,0.15 5.56,0.53 4.75,0.91 3.92,1.28 3.08,1.65 2.16,1.98 1.25,2.32 0.16,2.55 -0.92,2.77 -1.60,2.73 -2.29,2.69 -2.81,2.56 -3.33,2.43 -3.84,2.03 -4.35,1.63 -4.55,0.85 -4.74,0.07 -4.36,-0.65 -3.98,-1.38 -2.97,-1.81 -1.96,-2.23 -1.19,-2.46 -0.42,-2.69 0.39,-2.63 1.22,-2.57 2.06,-2.38 2.91,-2.20 3.68,-1.66 4.45,-1.12 4.80,-0.22 5.15,0.67 5.16,1.51 5.17,2.34 4.79,3.16 4.40,3.98 3.90,4.93 3.41,5.88 2.50,6.70 1.60,7.51 0.45,8.39 -0.69,9.26 -1.56,9.57 -2.42,9.88 -3.41,9.98 -4.40,10.08 -5.31,9.71 -6.22,9.34 -6.90,8.54 -7.57,7.74 -7.78,6.73 -7.98,5.73 -7.84,4.85 -7.71,3.98 -7.33,3.08 -6.95,2.18 -6.18,1.42 -5.40,0.67 -4.42,0.22 -3.44,-0.22 -1.81,-0.42 -0.18,-0.63 -0.10,-0.64 -0.02,-0.65 0.05,-0.64 0.13,-0.64 0.20,-0.61 0.28,-0.59 0.35,-0.54 0.41,-0.50 0.47,-0.44 0.52,-0.39 0.56,-0.32 0.60,-0.25 0.62,-0.17 0.64,-0.10 0.65,-0.02 0.65,0.05 0.63,0.13 0.62,0.21 0.58,0.28 0.55,0.35 0.50,0.41 0.45,0.47 0.38,0.52 0.32,0.56 0.25,0.60 0.18,0.63 0.18,0.63 L 0.18,0.63 Z"></path></g><g transform="translate(523.6278087861908 289.46722933020465) rotate(90.38452965958454 -6.2025793426196 7.3655629693608375)" stroke="none"><path fill="#6741d9" d="M 0,0.65 Q 0,0.65 -0.88,0.80 -1.77,0.96 -2.46,1.20 -3.15,1.45 -4.12,1.79 -5.09,2.13 -5.97,3.07 -6.85,4.00 -7.70,5.07 -8.54,6.13 -9.07,7.17 -9.59,8.22 -10.02,9.51 -10.44,10.80 -10.62,11.72 -10.79,12.65 -10.02,12.75 -9.24,12.85 -8.16,12.28 -7.08,11.70 -5.13,9.77 -3.18,7.83 -3.11,7.75 -3.03,7.68 -2.94,7.63 -2.84,7.58 -2.74,7.57 -2.63,7.55 -2.53,7.57 -2.42,7.59 -2.33,7.64 -2.24,7.69 -2.17,7.77 -2.09,7.85 -2.05,7.94 -2.01,8.04 -2.00,8.15 -1.99,8.25 -2.01,8.36 -2.04,8.46 -2.09,8.55 -2.15,8.64 -2.23,8.71 -2.31,8.78 -2.41,8.81 -2.51,8.85 -2.62,8.85 -2.73,8.86 -2.83,8.83 -2.93,8.80 -3.02,8.74 -3.10,8.68 -3.17,8.59 -3.23,8.51 -3.26,8.40 -3.29,8.30 -3.29,8.20 -3.29,8.09 -3.25,7.99 -3.22,7.89 -3.15,7.81 -3.09,7.72 -3.00,7.66 -2.91,7.61 -2.81,7.58 -2.70,7.55 -2.60,7.56 -2.49,7.57 -2.39,7.61 -2.30,7.65 -2.22,7.72 -2.14,7.79 -2.08,7.88 -2.03,7.97 -2.01,8.08 -1.99,8.18 -2.00,8.29 -2.01,8.39 -2.06,8.49 -2.11,8.58 -2.11,8.58 -2.11,8.58 -4.03,11.12 -5.96,13.66 -7.41,14.51 -8.87,15.35 -10.09,15.43 -11.31,15.50 -12.11,14.91 -12.91,14.33 -13.15,13.27 -13.40,12.21 -13.16,11.07 -12.93,9.93 -12.39,8.47 -11.85,7.01 -11.15,5.78 -10.46,4.55 -9.47,3.40 -8.49,2.25 -7.17,1.14 -5.84,0.02 -4.77,-0.26 -3.70,-0.56 -2.74,-0.76 -1.79,-0.96 -0.89,-0.80 0,-0.65 0.07,-0.64 0.15,-0.63 0.23,-0.60 0.30,-0.58 0.37,-0.53 0.43,-0.49 0.48,-0.43 0.54,-0.37 0.57,-0.30 0.61,-0.23 0.63,-0.15 0.65,-0.07 0.65,0.00 0.65,0.07 0.63,0.15 0.61,0.23 0.57,0.30 0.54,0.37 0.48,0.43 0.43,0.49 0.37,0.53 0.30,0.58 0.23,0.60 0.15,0.63 0.07,0.64 -0.00,0.65 -0.00,0.65 L 0,0.65 Z"></path></g><g transform="translate(526.2891850983536 286.8184686215697) rotate(90.38452965958454 0.7753224178274536 17.83241561003149)" stroke="none"><path fill="#6741d9" d="M 0.65,0.07 Q 0.65,0.07 0.63,2.10 0.61,4.12 0.30,6.33 -0.00,8.54 -0.57,11.51 -1.15,14.48 -1.60,17.06 -2.06,19.63 -2.48,22.07 -2.89,24.50 -3.06,26.60 -3.22,28.70 -3.07,30.18 -2.92,31.66 -2.66,32.67 -2.40,33.68 -1.98,34.14 -1.57,34.61 -0.91,34.77 -0.25,34.93 0.58,34.85 1.43,34.77 3.44,33.92 5.44,33.08 5.54,33.03 5.63,32.98 5.74,32.96 5.84,32.95 5.95,32.96 6.05,32.98 6.15,33.03 6.24,33.08 6.31,33.16 6.38,33.24 6.43,33.33 6.47,33.43 6.48,33.54 6.50,33.64 6.47,33.75 6.45,33.85 6.39,33.94 6.34,34.03 6.26,34.10 6.18,34.17 6.08,34.21 5.98,34.25 5.87,34.25 5.77,34.26 5.66,34.23 5.56,34.20 5.47,34.14 5.39,34.08 5.32,33.99 5.26,33.91 5.22,33.81 5.19,33.71 5.19,33.60 5.19,33.50 5.23,33.39 5.26,33.29 5.33,33.21 5.39,33.13 5.48,33.07 5.57,33.01 5.67,32.98 5.77,32.95 5.88,32.96 5.98,32.96 6.08,33.00 6.18,33.04 6.26,33.11 6.34,33.18 6.40,33.27 6.45,33.36 6.47,33.47 6.50,33.57 6.48,33.68 6.47,33.78 6.43,33.88 6.38,33.97 6.31,34.05 6.24,34.13 6.24,34.13 6.24,34.13 3.94,35.48 1.64,36.84 0.38,36.95 -0.87,37.06 -2.04,36.63 -3.20,36.20 -3.92,35.27 -4.63,34.34 -4.94,33.11 -5.25,31.88 -5.40,30.20 -5.54,28.51 -5.35,26.31 -5.15,24.11 -4.72,21.67 -4.29,19.23 -3.81,16.64 -3.33,14.05 -2.74,11.14 -2.15,8.23 -1.82,6.06 -1.50,3.89 -1.07,1.91 -0.65,-0.07 -0.63,-0.14 -0.61,-0.22 -0.58,-0.29 -0.54,-0.36 -0.49,-0.42 -0.44,-0.48 -0.37,-0.53 -0.31,-0.57 -0.23,-0.60 -0.16,-0.63 -0.08,-0.64 -0.00,-0.65 0.07,-0.64 0.15,-0.63 0.22,-0.61 0.29,-0.58 0.36,-0.54 0.43,-0.49 0.48,-0.43 0.53,-0.37 0.57,-0.30 0.61,-0.23 0.63,-0.16 0.65,-0.08 0.65,-0.00 0.65,0.07 0.65,0.07 L 0.65,0.07 Z"></path></g><g transform="translate(502.4600033835824 331.3182439881588) rotate(90.38452965958454 12.405158685239257 0.3876612089137552)" stroke="none"><path fill="#6741d9" d="M 0.33,0.56 Q 0.33,0.56 -0.70,1.35 -1.74,2.14 -2.49,2.49 -3.24,2.83 -4.10,3.01 -4.96,3.20 -5.99,2.99 -7.03,2.78 -7.83,1.88 -8.63,0.98 -9.14,-0.09 -9.66,-1.17 -9.90,-2.41 -10.14,-3.65 -10.00,-4.54 -9.85,-5.43 -9.51,-6.09 -9.17,-6.76 -8.56,-7.44 -7.95,-8.11 -6.80,-7.78 -5.64,-7.44 -5.19,-6.67 -4.73,-5.91 -4.39,-4.98 -4.05,-4.04 -3.70,-3.25 -3.35,-2.46 -3.02,-1.96 -2.69,-1.47 -2.47,-0.88 -2.25,-0.29 -1.56,0.01 -0.86,0.31 -0.01,-0.25 0.84,-0.83 1.66,-1.65 2.49,-2.48 3.11,-3.09 3.73,-3.71 4.16,-4.50 4.58,-5.28 5.02,-6.29 5.47,-7.30 5.64,-8.32 5.81,-9.34 5.91,-10.41 6.00,-11.49 5.62,-12.24 5.24,-13.00 4.88,-13.54 4.52,-14.09 3.90,-14.11 3.28,-14.13 2.96,-13.51 2.64,-12.89 3.08,-12.16 3.52,-11.42 4.28,-11.09 5.05,-10.76 5.60,-10.69 6.15,-10.61 6.83,-10.57 7.51,-10.52 8.45,-10.50 9.40,-10.48 10.52,-10.96 11.65,-11.45 12.38,-11.80 13.12,-12.15 13.56,-12.46 14.00,-12.78 14.24,-13.19 14.48,-13.59 14.61,-13.66 14.74,-13.73 14.88,-13.76 15.02,-13.80 15.16,-13.80 15.30,-13.80 15.44,-13.76 15.58,-13.73 15.71,-13.66 15.84,-13.59 15.95,-13.50 16.05,-13.40 16.14,-13.28 16.22,-13.17 16.27,-13.03 16.32,-12.90 16.34,-12.75 16.35,-12.61 16.34,-12.47 16.32,-12.33 16.27,-12.19 16.22,-12.06 16.14,-11.94 16.05,-11.82 15.95,-11.72 15.84,-11.63 15.32,-10.92 14.80,-10.21 14.44,-9.56 14.09,-8.91 13.47,-7.92 12.84,-6.93 12.40,-5.93 11.97,-4.94 11.80,-4.16 11.64,-3.37 11.56,-2.82 11.48,-2.26 12.33,-2.04 13.18,-1.83 14.06,-2.28 14.94,-2.73 16.00,-3.37 17.06,-4.00 18.08,-5.07 19.09,-6.14 20.02,-7.09 20.96,-8.03 21.51,-8.80 22.06,-9.57 22.23,-10.20 22.40,-10.84 22.51,-11.40 22.62,-11.97 22.69,-12.11 22.75,-12.26 22.85,-12.38 22.95,-12.50 23.08,-12.60 23.20,-12.69 23.35,-12.76 23.49,-12.82 23.65,-12.85 23.80,-12.87 23.96,-12.86 24.12,-12.85 24.27,-12.80 24.42,-12.75 24.55,-12.67 24.69,-12.58 24.80,-12.47 24.91,-12.36 24.99,-12.22 25.07,-12.09 25.11,-11.93 25.16,-11.78 25.16,-11.63 25.17,-11.47 25.14,-11.31 25.11,-11.16 24.25,-10.72 23.38,-10.29 22.93,-9.67 22.48,-9.04 22.39,-8.04 22.30,-7.04 22.47,-6.15 22.64,-5.25 22.75,-4.68 22.86,-4.10 23.64,-4.62 24.42,-5.14 25.62,-5.96 26.83,-6.79 27.77,-7.56 28.71,-8.34 29.72,-9.50 30.73,-10.66 31.13,-11.33 31.53,-11.99 31.94,-12.75 32.36,-13.52 32.46,-13.64 32.56,-13.77 32.69,-13.87 32.81,-13.96 32.96,-14.03 33.11,-14.09 33.26,-14.12 33.42,-14.15 33.58,-14.13 33.74,-14.12 33.89,-14.07 34.04,-14.02 34.18,-13.94 34.32,-13.86 34.43,-13.74 34.54,-13.63 34.62,-13.49 34.70,-13.35 34.75,-13.20 34.80,-13.05 34.80,-12.89 34.81,-12.73 34.78,-12.57 34.75,-12.41 34.68,-12.27 34.62,-12.12 33.13,-10.72 31.64,-9.33 30.62,-8.36 29.61,-7.40 27.69,-4.84 25.78,-2.28 23.84,0.98 21.90,4.26 20.35,6.77 18.80,9.28 16.68,12.26 14.56,15.23 14.49,15.32 14.42,15.40 14.33,15.45 14.24,15.51 14.14,15.53 14.04,15.55 13.93,15.54 13.82,15.53 13.73,15.49 13.63,15.44 13.55,15.37 13.48,15.30 13.43,15.20 13.38,15.11 13.36,15.01 13.34,14.90 13.36,14.80 13.37,14.69 13.42,14.60 13.47,14.50 13.55,14.43 13.63,14.36 13.72,14.31 13.82,14.27 13.92,14.25 14.03,14.24 14.13,14.27 14.24,14.29 14.33,14.34 14.42,14.40 14.49,14.48 14.56,14.56 14.60,14.66 14.64,14.75 14.64,14.86 14.65,14.97 14.62,15.07 14.59,15.17 14.53,15.26 14.48,15.35 14.39,15.41 14.31,15.48 14.21,15.51 14.11,15.55 14.00,15.55 13.89,15.55 13.79,15.51 13.69,15.48 13.61,15.42 13.52,15.35 13.46,15.26 13.40,15.18 13.37,15.07 13.34,14.97 13.35,14.87 13.36,14.76 13.39,14.66 13.43,14.56 13.43,14.56 13.43,14.56 15.04,11.29 16.65,8.01 18.10,5.45 19.56,2.88 21.55,-0.54 23.54,-3.97 25.63,-6.69 27.71,-9.41 28.76,-10.39 29.81,-11.38 31.08,-12.45 32.36,-13.52 32.46,-13.64 32.56,-13.77 32.69,-13.86 32.81,-13.96 32.96,-14.03 33.11,-14.09 33.26,-14.12 33.42,-14.15 33.58,-14.13 33.74,-14.12 33.89,-14.07 34.04,-14.02 34.18,-13.94 34.32,-13.86 34.43,-13.74 34.54,-13.63 34.62,-13.49 34.70,-13.35 34.75,-13.20 34.79,-13.05 34.80,-12.89 34.81,-12.73 34.78,-12.57 34.75,-12.41 34.68,-12.27 34.62,-12.12 34.19,-11.36 33.77,-10.60 33.24,-9.76 32.72,-8.93 31.55,-7.62 30.39,-6.30 29.35,-5.45 28.31,-4.60 26.96,-3.70 25.62,-2.79 24.48,-2.26 23.34,-1.73 22.48,-1.84 21.62,-1.94 20.87,-3.18 20.13,-4.42 19.88,-5.79 19.64,-7.16 19.68,-7.86 19.72,-8.55 19.82,-9.07 19.93,-9.60 20.55,-10.57 21.18,-11.55 21.85,-12.14 22.52,-12.73 23.08,-12.82 23.64,-12.91 23.13,-12.44 22.62,-11.97 22.69,-12.11 22.75,-12.26 22.85,-12.38 22.95,-12.50 23.08,-12.60 23.20,-12.69 23.35,-12.76 23.49,-12.82 23.65,-12.85 23.80,-12.87 23.96,-12.86 24.12,-12.85 24.27,-12.80 24.42,-12.75 24.55,-12.67 24.69,-12.58 24.80,-12.47 24.91,-12.36 24.99,-12.22 25.07,-12.09 25.11,-11.93 25.16,-11.78 25.16,-11.63 25.17,-11.47 25.14,-11.31 25.11,-11.16 24.99,-10.59 24.88,-10.03 24.52,-9.05 24.17,-8.08 23.49,-7.15 22.80,-6.22 21.87,-5.28 20.94,-4.34 19.67,-3.06 18.40,-1.79 17.23,-1.10 16.06,-0.41 14.84,0.14 13.62,0.71 12.45,0.83 11.27,0.96 10.44,0.54 9.60,0.12 9.23,-0.68 8.86,-1.49 8.89,-2.06 8.92,-2.63 9.02,-3.28 9.11,-3.94 9.36,-4.96 9.60,-5.99 10.13,-7.15 10.65,-8.31 11.24,-9.23 11.84,-10.16 12.24,-10.89 12.65,-11.61 13.57,-12.60 14.48,-13.59 14.61,-13.66 14.74,-13.73 14.88,-13.76 15.02,-13.80 15.16,-13.80 15.30,-13.80 15.44,-13.76 15.58,-13.73 15.71,-13.66 15.84,-13.59 15.95,-13.50 16.05,-13.40 16.14,-13.28 16.22,-13.17 16.27,-13.03 16.32,-12.90 16.34,-12.75 16.35,-12.61 16.34,-12.47 16.32,-12.33 16.27,-12.19 16.22,-12.06 16.14,-11.94 16.05,-11.82 15.95,-11.72 15.84,-11.63 15.62,-11.27 15.40,-10.91 14.76,-10.48 14.12,-10.05 13.35,-9.69 12.58,-9.32 11.81,-8.99 11.04,-8.66 10.21,-8.43 9.39,-8.19 8.36,-8.21 7.34,-8.24 6.53,-8.31 5.73,-8.38 4.88,-8.56 4.03,-8.75 3.41,-9.08 2.79,-9.41 2.27,-9.77 1.75,-10.14 1.37,-10.75 0.99,-11.37 0.76,-12.18 0.54,-12.99 0.74,-13.92 0.94,-14.85 1.73,-15.35 2.52,-15.84 3.15,-16.02 3.78,-16.20 4.35,-16.03 4.93,-15.85 5.44,-15.47 5.95,-15.08 6.39,-14.39 6.82,-13.70 7.27,-12.58 7.72,-11.47 7.65,-10.26 7.59,-9.05 7.40,-7.82 7.21,-6.60 6.79,-5.48 6.38,-4.35 5.83,-3.28 5.29,-2.20 4.67,-1.57 4.05,-0.93 3.01,0.11 1.97,1.16 0.54,1.85 -0.88,2.55 -1.72,2.43 -2.56,2.31 -3.11,1.97 -3.65,1.62 -4.13,0.69 -4.62,-0.22 -5.04,-0.88 -5.46,-1.53 -5.83,-2.40 -6.20,-3.27 -6.68,-4.47 -7.16,-5.67 -7.52,-4.83 -7.88,-3.99 -7.74,-3.05 -7.59,-2.11 -7.20,-1.22 -6.81,-0.34 -6.02,0.37 -5.24,1.09 -4.62,1.03 -3.99,0.97 -3.35,0.74 -2.71,0.52 -1.52,-0.01 -0.33,-0.56 -0.26,-0.59 -0.19,-0.62 -0.11,-0.64 -0.03,-0.65 0.04,-0.65 0.12,-0.64 0.19,-0.62 0.27,-0.59 0.33,-0.55 0.40,-0.51 0.46,-0.45 0.51,-0.40 0.55,-0.33 0.59,-0.26 0.62,-0.19 0.64,-0.11 0.65,-0.03 0.65,0.04 0.64,0.11 0.62,0.19 0.59,0.26 0.56,0.34 0.51,0.40 0.46,0.46 0.40,0.51 0.33,0.56 0.33,0.56 L 0.33,0.56 Z"></path></g></svg>