<svg version="1.1" xmlns="http://www.w3.org/2000/svg" viewBox="0 0 473.6968688964844 555.8552093505859" width="473.6968688964844" height="555.8552093505859" filter="invert(93%) hue-rotate(180deg)" class="excalidraw-svg">
  <!-- svg-source:excalidraw -->
  
  <defs>
    <style class="style-fonts">
      @font-face {
        font-family: "Virgil";
        src: url("https://excalidraw.com/Virgil.woff2");
      }
      @font-face {
        font-family: "Cascadia";
        src: url("https://excalidraw.com/Cascadia.woff2");
      }
      @font-face {
        font-family: "Assistant";
        src: url("https://excalidraw.com/Assistant-Regular.woff2");
      }
    </style>
    
  </defs>
  <rect x="0" y="0" width="473.6968688964844" height="555.8552093505859" fill="#ffffff"/><g transform="translate(134.15048217773438 165.1880645751953) rotate(0 56.14154052734375 32.40690612792969)" stroke="none"><path fill="#1e1e1e" d="M -0.15,0.63 Q -0.15,0.63 -1.29,0.70 -2.42,0.77 -3.55,0.70 -4.69,0.63 -6.48,0.60 -8.27,0.58 -9.99,0.82 -11.71,1.07 -14.04,1.43 -16.37,1.80 -18.52,2.70 -20.67,3.60 -22.97,4.53 -25.26,5.45 -27.68,7.09 -30.10,8.73 -31.88,10.42 -33.65,12.12 -34.89,13.82 -36.13,15.53 -36.89,16.96 -37.65,18.40 -37.66,20.35 -37.68,22.31 -37.47,24.19 -37.25,26.07 -36.43,27.76 -35.60,29.45 -34.73,30.99 -33.85,32.54 -32.89,35.16 -31.94,37.78 -31.27,40.22 -30.60,42.67 -30.56,45.17 -30.52,47.67 -30.79,49.80 -31.05,51.94 -31.42,54.15 -31.80,56.36 -32.78,58.99 -33.75,61.63 -34.97,64.07 -36.19,66.51 -36.94,68.27 -37.69,70.03 -38.57,71.64 -39.46,73.26 -40.11,74.22 -40.76,75.18 -40.93,76.13 -41.10,77.09 -41.53,77.99 -41.95,78.90 -42.05,79.81 -42.15,80.71 -42.22,81.63 -42.29,82.54 -41.83,83.46 -41.38,84.38 -40.92,85.39 -40.46,86.41 -39.99,87.66 -39.52,88.92 -38.67,89.74 -37.82,90.57 -36.63,91.79 -35.44,93.01 -33.99,93.97 -32.54,94.92 -31.18,95.58 -29.81,96.24 -28.24,96.77 -26.67,97.30 -24.61,97.25 -22.55,97.19 -20.80,97.18 -19.05,97.18 -16.38,96.42 -13.71,95.66 -10.72,94.56 -7.72,93.45 -5.12,92.46 -2.52,91.46 0.78,90.74 4.09,90.03 6.84,89.73 9.58,89.43 12.08,89.31 14.58,89.18 17.41,89.95 20.24,90.71 22.81,92.13 25.38,93.55 28.32,95.76 31.27,97.96 33.60,100.25 35.94,102.53 38.22,104.79 40.50,107.06 42.52,109.06 44.53,111.07 47.38,112.88 50.22,114.70 52.68,115.71 55.13,116.73 57.33,116.87 59.53,117.02 61.96,116.58 64.39,116.15 67.01,115.45 69.63,114.75 73.57,113.16 77.52,111.57 81.30,109.84 85.08,108.12 88.51,106.35 91.93,104.57 94.90,102.54 97.87,100.51 101.48,97.56 105.09,94.62 107.90,91.82 110.72,89.02 113.51,86.24 116.30,83.46 118.46,80.51 120.63,77.57 122.61,74.49 124.58,71.41 126.98,66.98 129.38,62.54 131.45,58.55 133.53,54.56 135.19,51.29 136.86,48.02 138.36,45.06 139.85,42.09 141.29,39.49 142.72,36.89 143.89,35.21 145.06,33.53 146.10,32.27 147.14,31.01 147.84,30.22 148.55,29.42 149.48,28.73 150.40,28.04 151.14,27.11 151.89,26.19 152.44,25.08 152.98,23.98 153.48,22.73 153.98,21.48 154.15,20.29 154.32,19.10 154.15,17.97 153.99,16.84 152.95,15.21 151.92,13.58 149.64,10.48 147.37,7.37 145.56,4.40 143.75,1.43 142.21,-1.11 140.66,-3.66 138.75,-5.96 136.83,-8.26 135.27,-9.74 133.71,-11.21 132.01,-12.62 130.30,-14.03 128.70,-15.76 127.10,-17.50 124.92,-19.47 122.75,-21.43 120.96,-23.39 119.18,-25.35 117.67,-26.94 116.15,-28.52 114.78,-29.66 113.40,-30.81 111.93,-32.45 110.45,-34.08 109.04,-35.83 107.64,-37.57 106.25,-39.36 104.87,-41.15 103.53,-42.65 102.19,-44.15 100.63,-45.52 99.06,-46.89 97.48,-47.66 95.90,-48.42 94.33,-49.34 92.76,-50.26 90.94,-50.84 89.13,-51.41 87.28,-51.94 85.43,-52.47 83.69,-52.67 81.96,-52.87 79.92,-52.96 77.88,-53.05 76.22,-53.09 74.56,-53.14 73.20,-52.90 71.85,-52.67 70.49,-52.32 69.14,-51.96 67.37,-51.08 65.60,-50.19 64.12,-49.08 62.64,-47.96 61.47,-46.97 60.31,-45.97 59.29,-45.03 58.28,-44.09 57.67,-43.26 57.06,-42.42 56.20,-41.46 55.34,-40.50 54.86,-39.27 54.37,-38.04 54.16,-36.80 53.94,-35.56 53.56,-34.11 53.17,-32.67 53.03,-31.65 52.89,-30.63 52.54,-29.28 52.20,-27.94 51.78,-26.58 51.37,-25.23 50.92,-24.08 50.46,-22.92 49.67,-21.77 48.87,-20.63 48.05,-19.43 47.23,-18.24 46.58,-17.42 45.94,-16.59 45.01,-15.87 44.09,-15.14 43.16,-14.58 42.23,-14.02 40.98,-13.49 39.73,-12.96 38.42,-12.48 37.11,-12.00 35.77,-11.53 34.42,-11.07 33.07,-10.61 31.71,-10.15 29.75,-9.67 27.80,-9.20 26.12,-8.99 24.44,-8.77 22.93,-8.69 21.42,-8.60 20.13,-8.32 18.83,-8.03 17.63,-7.89 16.44,-7.75 15.39,-7.70 14.35,-7.64 13.25,-7.37 12.15,-7.11 10.84,-7.23 9.54,-7.35 8.87,-7.41 8.20,-7.46 6.76,-7.76 5.31,-8.06 4.05,-8.17 2.79,-8.28 1.91,-8.08 1.02,-7.88 0.48,-7.58 -0.06,-7.29 -1.09,-7.08 -2.11,-6.87 -2.91,-6.28 -3.72,-5.70 -4.14,-5.33 -4.57,-4.96 -4.95,-4.02 -5.34,-3.08 -5.75,-2.25 -6.16,-1.42 -6.85,0.06 -7.54,1.56 -7.56,1.66 -7.58,1.77 -7.64,1.86 -7.70,1.95 -7.78,2.01 -7.86,2.08 -7.96,2.12 -8.06,2.16 -8.16,2.16 -8.27,2.17 -8.37,2.14 -8.47,2.11 -8.56,2.05 -8.65,1.99 -8.71,1.90 -8.77,1.82 -8.81,1.72 -8.84,1.62 -8.84,1.51 -8.84,1.40 -8.80,1.30 -8.77,1.20 -8.70,1.12 -8.64,1.03 -8.55,0.98 -8.46,0.92 -8.36,0.89 -8.25,0.86 -8.15,0.87 -8.04,0.88 -7.94,0.92 -7.85,0.96 -7.77,1.03 -7.69,1.10 -7.63,1.19 -7.58,1.28 -7.56,1.38 -7.53,1.49 -7.55,1.59 -7.56,1.70 -7.61,1.79 -7.65,1.89 -7.73,1.97 -7.80,2.04 -7.89,2.09 -7.99,2.14 -8.09,2.16 -8.20,2.17 -8.30,2.15 -8.41,2.14 -8.50,2.09 -8.59,2.03 -8.67,1.96 -8.74,1.88 -8.78,1.78 -8.83,1.68 -8.84,1.58 -8.85,1.47 -8.85,1.47 -8.85,1.47 -8.95,-0.68 -9.04,-2.84 -8.63,-3.67 -8.22,-4.50 -7.88,-5.20 -7.54,-5.89 -7.15,-6.58 -6.77,-7.26 -6.22,-7.76 -5.67,-8.26 -5.04,-8.73 -4.40,-9.20 -3.56,-9.60 -2.71,-10.00 -2.06,-10.08 -1.42,-10.17 -0.50,-10.58 0.40,-10.99 1.72,-11.21 3.04,-11.43 4.51,-11.30 5.97,-11.16 7.22,-10.88 8.47,-10.61 9.22,-10.54 9.96,-10.48 10.74,-10.32 11.51,-10.16 12.84,-10.46 14.17,-10.77 15.13,-10.82 16.09,-10.87 17.14,-10.98 18.19,-11.10 19.71,-11.41 21.24,-11.72 22.65,-11.79 24.06,-11.87 25.57,-12.05 27.07,-12.23 28.89,-12.67 30.71,-13.11 32.05,-13.56 33.40,-14.02 34.72,-14.48 36.04,-14.93 37.28,-15.39 38.52,-15.84 39.58,-16.27 40.63,-16.70 41.42,-17.17 42.21,-17.64 42.86,-18.10 43.50,-18.55 44.08,-19.28 44.66,-20.00 45.50,-21.23 46.33,-22.45 46.95,-23.27 47.57,-24.10 47.99,-25.12 48.40,-26.14 48.79,-27.43 49.19,-28.72 49.50,-29.90 49.81,-31.07 49.99,-32.28 50.16,-33.48 50.52,-34.80 50.88,-36.13 51.19,-37.68 51.50,-39.24 52.24,-40.89 52.98,-42.55 53.77,-43.43 54.55,-44.31 55.35,-45.35 56.15,-46.38 57.21,-47.37 58.27,-48.35 59.52,-49.42 60.77,-50.48 62.49,-51.74 64.21,-53.00 66.28,-54.00 68.34,-55.00 69.84,-55.38 71.34,-55.76 72.98,-56.02 74.63,-56.28 76.33,-56.24 78.03,-56.19 80.18,-56.09 82.34,-55.99 84.31,-55.74 86.28,-55.48 88.19,-54.94 90.11,-54.39 92.22,-53.68 94.33,-52.97 95.81,-52.09 97.30,-51.22 99.20,-50.23 101.11,-49.25 102.81,-47.73 104.51,-46.22 105.92,-44.63 107.32,-43.05 108.68,-41.28 110.05,-39.51 111.40,-37.83 112.76,-36.14 114.08,-34.66 115.40,-33.17 116.89,-31.91 118.39,-30.65 119.92,-29.03 121.45,-27.42 123.13,-25.56 124.81,-23.71 127.08,-21.64 129.36,-19.57 130.81,-17.98 132.26,-16.38 134.04,-14.90 135.81,-13.43 137.50,-11.81 139.18,-10.20 141.20,-7.70 143.22,-5.21 144.75,-2.65 146.29,-0.10 148.02,2.76 149.76,5.63 152.11,8.85 154.46,12.08 155.67,14.23 156.87,16.38 157.04,17.97 157.20,19.55 156.92,21.05 156.64,22.55 156.08,23.92 155.51,25.29 154.79,26.64 154.07,28.00 153.07,29.15 152.07,30.30 151.36,30.80 150.65,31.30 149.98,32.05 149.30,32.81 148.33,33.98 147.36,35.14 146.27,36.70 145.18,38.26 143.76,40.80 142.35,43.35 140.85,46.32 139.35,49.29 137.67,52.57 136.00,55.85 133.91,59.86 131.83,63.87 129.38,68.39 126.93,72.91 124.90,76.07 122.87,79.23 120.57,82.33 118.26,85.42 115.46,88.21 112.67,90.99 109.75,93.87 106.83,96.76 103.13,99.77 99.43,102.79 96.31,104.90 93.19,107.01 89.71,108.81 86.22,110.62 82.38,112.37 78.54,114.12 74.44,115.75 70.33,117.39 67.59,118.12 64.85,118.85 62.09,119.30 59.33,119.75 56.72,119.51 54.11,119.27 51.43,118.14 48.74,117.01 45.67,115.02 42.61,113.02 40.59,111.01 38.57,109.00 36.30,106.74 34.02,104.48 31.82,102.31 29.62,100.15 26.83,98.04 24.04,95.94 21.76,94.64 19.48,93.34 17.08,92.63 14.68,91.92 12.28,92.05 9.88,92.17 7.28,92.46 4.67,92.75 1.57,93.41 -1.52,94.07 -4.14,95.08 -6.75,96.08 -9.85,97.23 -12.95,98.37 -15.98,99.20 -19.00,100.02 -20.76,100.03 -22.53,100.05 -25.03,100.04 -27.54,100.03 -29.30,99.43 -31.07,98.83 -32.61,98.08 -34.14,97.32 -35.82,96.18 -37.49,95.04 -38.71,93.79 -39.93,92.55 -41.05,91.28 -42.17,90.01 -42.63,88.81 -43.09,87.60 -43.57,86.54 -44.06,85.47 -44.60,83.97 -45.14,82.47 -45.07,81.39 -45.01,80.31 -44.78,78.99 -44.56,77.67 -44.24,77.05 -43.92,76.43 -43.56,75.03 -43.20,73.62 -42.60,72.74 -42.00,71.86 -41.18,70.37 -40.36,68.88 -39.57,67.05 -38.79,65.21 -37.63,62.91 -36.47,60.60 -35.56,58.23 -34.64,55.86 -34.28,53.72 -33.91,51.57 -33.66,49.63 -33.40,47.69 -33.39,45.54 -33.38,43.40 -34.01,41.08 -34.64,38.76 -35.50,36.35 -36.35,33.94 -37.28,32.30 -38.20,30.65 -39.14,28.54 -40.09,26.43 -40.32,24.32 -40.56,22.20 -40.40,19.68 -40.24,17.16 -39.36,15.49 -38.47,13.82 -37.06,11.91 -35.66,10.01 -33.69,8.16 -31.73,6.31 -29.05,4.53 -26.37,2.75 -24.07,1.83 -21.77,0.90 -19.30,-0.07 -16.83,-1.05 -14.46,-1.42 -12.08,-1.78 -10.14,-2.02 -8.20,-2.26 -6.32,-2.20 -4.44,-2.13 -3.10,-1.98 -1.77,-1.82 -0.80,-1.23 0.15,-0.63 0.23,-0.60 0.30,-0.58 0.37,-0.53 0.43,-0.49 0.48,-0.43 0.54,-0.37 0.57,-0.30 0.61,-0.23 0.63,-0.15 0.65,-0.07 0.65,0.00 0.65,0.08 0.63,0.15 0.61,0.23 0.57,0.30 0.53,0.37 0.48,0.43 0.43,0.49 0.36,0.53 0.30,0.58 0.22,0.61 0.15,0.63 0.07,0.64 -0.00,0.65 -0.08,0.64 -0.15,0.63 -0.15,0.63 L -0.15,0.63 Z"/></g><g transform="translate(176.14248657226562 202.6157684326172) rotate(0 0.91290283203125 2.28216552734375)" stroke="none"><path fill="#1e1e1e" d="M 0.46,0.46 Q 0.46,0.46 0.19,1.24 -0.08,2.01 -0.54,2.50 -1.00,2.98 -0.65,3.43 -0.30,3.88 0.70,4.19 1.71,4.49 2.33,4.15 2.94,3.80 2.93,3.22 2.91,2.63 2.94,1.64 2.97,0.66 2.62,0.24 2.27,-0.16 2.03,0.54 1.78,1.25 1.58,1.87 1.38,2.50 1.67,1.85 1.97,1.21 1.95,1.75 1.92,2.29 1.46,1.99 0.99,1.69 0.83,2.33 0.66,2.97 1.24,2.15 1.82,1.33 2.02,2.27 2.22,3.21 2.16,3.17 2.09,3.12 2.04,3.07 1.98,3.01 1.95,2.94 1.91,2.87 1.89,2.79 1.87,2.72 1.87,2.64 1.86,2.56 1.88,2.48 1.90,2.40 1.93,2.33 1.97,2.26 2.02,2.20 2.07,2.14 2.14,2.09 2.20,2.05 2.28,2.02 2.35,1.99 2.43,1.98 2.51,1.97 2.58,1.98 2.66,1.98 2.74,2.01 2.81,2.04 2.90,2.10 2.99,2.16 3.05,2.25 3.11,2.34 3.14,2.44 3.17,2.54 3.16,2.65 3.16,2.75 3.12,2.85 3.09,2.95 3.02,3.03 2.95,3.12 2.86,3.17 2.77,3.23 2.67,3.25 2.57,3.28 2.46,3.27 2.35,3.26 2.26,3.22 2.16,3.17 2.08,3.10 2.00,3.03 1.95,2.94 1.90,2.85 1.88,2.74 1.86,2.64 1.88,2.53 1.89,2.43 1.94,2.33 1.99,2.24 2.06,2.16 2.14,2.09 2.23,2.04 2.33,1.99 2.44,1.98 2.54,1.97 2.64,1.99 2.75,2.01 2.84,2.06 2.93,2.12 3.00,2.20 3.07,2.28 3.11,2.37 3.16,2.47 3.16,2.58 3.17,2.68 3.14,2.79 3.12,2.89 3.06,2.98 3.00,3.07 2.92,3.13 2.84,3.20 2.74,3.23 2.64,3.27 2.53,3.27 2.42,3.27 2.32,3.24 2.22,3.21 2.22,3.21 2.22,3.21 2.16,3.17 2.09,3.12 2.04,3.07 1.98,3.01 1.95,2.94 1.91,2.87 1.89,2.79 1.87,2.72 1.87,2.64 1.86,2.56 1.88,2.48 1.90,2.40 1.93,2.33 1.97,2.26 2.02,2.20 2.07,2.14 2.14,2.09 2.20,2.05 2.27,2.02 2.35,1.99 2.43,1.98 2.51,1.97 2.58,1.98 2.66,1.98 2.74,2.01 2.81,2.04 2.59,0.42 2.37,-1.19 3.21,-0.70 4.06,-0.22 4.31,0.50 4.56,1.23 4.20,2.44 3.84,3.64 3.20,4.16 2.57,4.68 1.51,5.15 0.44,5.61 -0.58,5.18 -1.61,4.75 -2.00,3.88 -2.38,3.02 -2.35,2.42 -2.32,1.82 -2.17,1.20 -2.02,0.58 -1.56,-0.06 -1.09,-0.70 -0.20,-1.06 0.68,-1.42 1.35,-1.34 2.02,-1.26 2.70,-0.95 3.37,-0.64 3.97,0.17 4.56,0.99 4.29,2.24 4.02,3.49 3.43,3.96 2.85,4.43 2.02,4.70 1.19,4.98 0.40,4.76 -0.38,4.55 -0.83,3.94 -1.28,3.33 -1.35,2.51 -1.42,1.69 -1.32,1.05 -1.21,0.40 -0.80,-0.59 -0.39,-1.59 0.24,-2.10 0.89,-2.62 1.75,-2.86 2.61,-3.09 3.42,-2.84 4.23,-2.58 4.81,-1.96 5.40,-1.35 5.71,-0.32 6.02,0.70 5.97,1.88 5.92,3.06 5.72,4.00 5.52,4.95 5.04,5.59 4.56,6.24 3.74,6.66 2.93,7.08 1.93,7.17 0.92,7.26 -0.15,6.88 -1.23,6.50 -1.87,6.10 -2.52,5.71 -2.97,5.06 -3.43,4.40 -3.60,3.54 -3.76,2.68 -3.40,1.87 -3.03,1.05 -2.52,0.56 -2.01,0.08 -1.24,-0.19 -0.46,-0.46 -0.40,-0.51 -0.33,-0.56 -0.26,-0.59 -0.19,-0.62 -0.11,-0.64 -0.03,-0.65 0.03,-0.65 0.11,-0.64 0.19,-0.62 0.26,-0.59 0.33,-0.55 0.40,-0.51 0.46,-0.46 0.51,-0.40 0.55,-0.33 0.59,-0.26 0.62,-0.19 0.64,-0.11 0.65,-0.03 0.65,0.03 0.64,0.11 0.62,0.19 0.59,0.26 0.56,0.33 0.51,0.40 0.46,0.46 0.46,0.46 L 0.46,0.46 Z"/></g><g transform="translate(199.87716674804688 193.48704528808594) rotate(0 -0.912872314453125 15.975250244140625)" stroke="none"><path fill="#1e1e1e" d="M 0.65,0 Q 0.65,0 1.10,1.04 1.54,2.09 1.54,3.85 1.54,5.61 1.54,7.67 1.55,9.73 1.55,12.18 1.55,14.63 1.55,16.98 1.55,19.34 1.28,21.99 1.02,24.65 0.90,26.24 0.79,27.83 -0.11,30.21 -1.03,32.59 -1.08,32.69 -1.13,32.78 -1.21,32.85 -1.29,32.92 -1.38,32.96 -1.48,33.01 -1.59,33.02 -1.69,33.02 -1.80,33.00 -1.90,32.97 -1.99,32.92 -2.08,32.86 -2.15,32.78 -2.21,32.69 -2.25,32.60 -2.29,32.50 -2.29,32.39 -2.29,32.28 -2.26,32.18 -2.23,32.08 -2.17,31.99 -2.11,31.91 -2.02,31.84 -1.94,31.78 -1.84,31.75 -1.73,31.72 -1.63,31.72 -1.52,31.72 -1.42,31.76 -1.32,31.80 -1.24,31.86 -1.16,31.93 -1.10,32.02 -1.04,32.11 -1.01,32.21 -0.99,32.31 -1.00,32.42 -1.01,32.53 -1.05,32.62 -1.09,32.72 -1.16,32.80 -1.23,32.88 -1.32,32.93 -1.41,32.99 -1.52,33.01 -1.62,33.03 -1.73,33.01 -1.83,33.00 -1.93,32.95 -2.02,32.90 -2.10,32.83 -2.18,32.75 -2.22,32.66 -2.27,32.56 -2.28,32.46 -2.30,32.35 -2.28,32.25 -2.26,32.15 -2.26,32.15 -2.26,32.15 -2.27,29.88 -2.29,27.62 -2.18,25.97 -2.07,24.33 -1.81,21.83 -1.55,19.34 -1.55,16.98 -1.55,14.63 -1.55,12.18 -1.55,9.73 -1.54,7.67 -1.54,5.61 -1.54,3.85 -1.54,2.09 -1.10,1.04 -0.65,0 -0.64,-0.07 -0.63,-0.15 -0.60,-0.23 -0.58,-0.30 -0.53,-0.37 -0.49,-0.43 -0.43,-0.48 -0.37,-0.54 -0.30,-0.57 -0.23,-0.61 -0.15,-0.63 -0.07,-0.65 0.00,-0.65 0.07,-0.65 0.15,-0.63 0.23,-0.61 0.30,-0.57 0.37,-0.54 0.43,-0.48 0.49,-0.43 0.53,-0.37 0.58,-0.30 0.60,-0.23 0.63,-0.15 0.64,-0.07 0.65,0.00 0.65,0.00 L 0.65,0 Z"/></g><g transform="translate(202.61575317382812 205.35438537597656) rotate(0 -2.282135009765625 4.10791015625)" stroke="none"><path fill="#1e1e1e" d="M 0,0.65 Q 0,0.65 -1.04,1.03 -2.09,1.41 -3.07,1.43 -4.04,1.44 -4.97,1.46 -5.91,1.47 -6.73,1.44 -7.55,1.41 -8.24,2.41 -8.93,3.41 -9.14,4.20 -9.34,5.00 -9.37,5.64 -9.40,6.29 -9.36,6.89 -9.33,7.49 -8.23,7.70 -7.13,7.91 -5.99,7.81 -4.85,7.72 -3.46,7.70 -2.06,7.67 -0.83,7.42 0.39,7.16 1.28,6.61 2.18,6.05 2.84,5.57 3.51,5.08 3.93,4.48 4.36,3.88 4.58,2.65 4.79,1.43 4.33,0.80 3.86,0.18 3.18,0.33 2.50,0.49 1.40,0.74 0.30,0.99 -0.65,1.33 -1.62,1.67 -2.41,1.84 -3.21,2.01 -4.82,2.13 -6.42,2.24 -6.53,2.26 -6.63,2.27 -6.74,2.25 -6.84,2.23 -6.93,2.18 -7.03,2.12 -7.10,2.04 -7.17,1.96 -7.21,1.87 -7.25,1.77 -7.26,1.66 -7.27,1.56 -7.24,1.45 -7.22,1.35 -7.16,1.26 -7.10,1.17 -7.02,1.11 -6.94,1.04 -6.84,1.00 -6.74,0.97 -6.63,0.97 -6.52,0.96 -6.42,0.99 -6.32,1.03 -6.23,1.09 -6.15,1.15 -6.09,1.24 -6.03,1.32 -5.99,1.42 -5.96,1.53 -5.97,1.63 -5.97,1.74 -6.01,1.84 -6.04,1.94 -6.11,2.02 -6.18,2.10 -6.27,2.16 -6.36,2.22 -6.46,2.24 -6.56,2.27 -6.67,2.26 -6.77,2.25 -6.87,2.21 -6.97,2.17 -7.05,2.09 -7.13,2.02 -7.18,1.93 -7.23,1.84 -7.25,1.73 -7.27,1.63 -7.26,1.52 -7.24,1.42 -7.19,1.32 -7.15,1.23 -7.07,1.15 -7.00,1.08 -6.90,1.03 -6.80,0.98 -6.81,0.98 -6.81,0.98 -5.31,0.16 -3.82,-0.66 -3.19,-0.81 -2.57,-0.97 -1.44,-1.38 -0.31,-1.80 1.05,-2.09 2.42,-2.38 3.84,-2.28 5.26,-2.17 6.19,-1.28 7.13,-0.39 7.40,0.61 7.67,1.62 7.52,2.88 7.38,4.14 7.04,4.89 6.71,5.64 5.99,6.54 5.27,7.44 4.47,8.03 3.66,8.61 2.34,9.34 1.02,10.07 -0.49,10.36 -2.00,10.65 -3.36,10.68 -4.73,10.70 -6.37,10.73 -8.01,10.75 -9.76,10.01 -11.50,9.26 -11.95,8.33 -12.40,7.40 -12.39,6.76 -12.38,6.12 -12.33,5.28 -12.27,4.44 -12.14,3.80 -12.00,3.15 -11.69,2.42 -11.37,1.68 -10.69,0.78 -10.01,-0.10 -8.99,-0.75 -7.96,-1.41 -6.94,-1.44 -5.91,-1.47 -4.97,-1.46 -4.04,-1.44 -3.07,-1.43 -2.09,-1.41 -1.04,-1.03 0,-0.65 0.07,-0.64 0.15,-0.63 0.23,-0.60 0.30,-0.58 0.37,-0.53 0.43,-0.49 0.48,-0.43 0.54,-0.37 0.57,-0.30 0.61,-0.23 0.63,-0.15 0.65,-0.07 0.65,0.00 0.65,0.07 0.63,0.15 0.61,0.23 0.57,0.30 0.54,0.37 0.48,0.43 0.43,0.49 0.37,0.53 0.30,0.58 0.23,0.60 0.15,0.63 0.07,0.64 -0.00,0.65 -0.00,0.65 L 0,0.65 Z"/></g><g transform="translate(215.39596557617188 198.9642791748047) rotate(0 -2.738616943359375 9.128707885742188)" stroke="none"><path fill="#1e1e1e" d="M -0.58,0.29 Q -0.58,0.29 -0.75,0.25 -0.91,0.22 -1.20,1.70 -1.49,3.19 -1.91,4.97 -2.34,6.76 -2.79,8.84 -3.23,10.92 -3.41,12.77 -3.60,14.62 -3.22,16.54 -2.84,18.47 -2.74,18.51 -2.65,18.55 -2.57,18.62 -2.49,18.69 -2.43,18.78 -2.38,18.87 -2.36,18.97 -2.33,19.08 -2.35,19.18 -2.36,19.29 -2.40,19.38 -2.45,19.48 -2.52,19.56 -2.60,19.63 -2.69,19.68 -2.78,19.73 -2.89,19.75 -2.99,19.76 -3.10,19.75 -3.20,19.73 -3.30,19.68 -3.39,19.63 -3.46,19.55 -3.54,19.47 -3.58,19.37 -3.62,19.28 -3.63,19.17 -3.64,19.07 -3.62,18.96 -3.60,18.86 -3.54,18.77 -3.49,18.68 -3.40,18.61 -3.32,18.54 -3.22,18.50 -3.12,18.46 -3.02,18.46 -2.91,18.45 -2.81,18.48 -2.71,18.51 -2.62,18.57 -2.53,18.63 -2.47,18.72 -2.41,18.80 -2.37,18.91 -2.34,19.01 -2.34,19.11 -2.34,19.22 -2.38,19.32 -2.41,19.42 -2.48,19.50 -2.54,19.59 -2.63,19.65 -2.72,19.71 -2.82,19.73 -2.92,19.76 -3.03,19.75 -3.14,19.75 -3.14,19.75 -3.14,19.75 -4.96,17.03 -6.78,14.32 -6.57,12.28 -6.37,10.24 -5.91,8.12 -5.45,6.00 -4.98,4.07 -4.50,2.15 -3.94,0.65 -3.38,-0.84 -2.58,-1.60 -1.77,-2.36 -0.95,-2.34 -0.13,-2.32 0.22,-1.30 0.58,-0.29 0.61,-0.21 0.64,-0.14 0.64,-0.06 0.65,0.01 0.64,0.09 0.63,0.16 0.60,0.24 0.57,0.31 0.52,0.38 0.48,0.44 0.42,0.49 0.36,0.54 0.29,0.58 0.22,0.61 0.14,0.63 0.06,0.65 -0.01,0.65 -0.09,0.65 -0.16,0.62 -0.24,0.60 -0.31,0.57 -0.38,0.53 -0.44,0.47 -0.50,0.42 -0.54,0.35 -0.58,0.29 -0.58,0.29 L -0.58,0.29 Z"/></g><g transform="translate(217.22171020507812 205.35438537597656) rotate(0 5.020782470703125 10.498016357421875)" stroke="none"><path fill="#1e1e1e" d="M 0.65,0 Q 0.65,0 1.03,1.04 1.40,2.08 1.65,2.87 1.90,3.66 2.27,4.83 2.64,6.00 2.99,6.63 3.34,7.25 4.18,6.47 5.03,5.69 5.57,4.90 6.10,4.11 6.60,3.25 7.11,2.38 7.68,1.62 8.25,0.85 8.41,0.76 8.57,0.66 8.75,0.60 8.92,0.55 9.11,0.54 9.30,0.52 9.48,0.56 9.66,0.59 9.83,0.66 10.00,0.74 10.15,0.85 10.29,0.97 10.41,1.11 10.52,1.26 10.60,1.43 10.68,1.60 10.71,1.78 10.74,1.96 10.73,2.15 10.72,2.33 10.67,2.51 10.61,2.69 10.52,2.85 10.42,3.01 10.29,3.14 10.16,3.27 9.38,4.19 8.59,5.10 7.88,6.88 7.17,8.66 6.31,10.80 5.45,12.93 4.82,14.83 4.19,16.73 3.41,18.50 2.63,20.27 2.60,20.36 2.56,20.46 2.49,20.55 2.42,20.63 2.34,20.69 2.25,20.74 2.14,20.77 2.04,20.79 1.93,20.78 1.83,20.77 1.73,20.73 1.63,20.69 1.55,20.62 1.47,20.55 1.42,20.45 1.37,20.36 1.35,20.26 1.33,20.15 1.35,20.05 1.36,19.94 1.41,19.85 1.46,19.75 1.53,19.68 1.61,19.60 1.70,19.56 1.80,19.51 1.90,19.50 2.01,19.48 2.11,19.50 2.22,19.52 2.31,19.58 2.40,19.63 2.47,19.71 2.54,19.79 2.59,19.89 2.63,19.98 2.64,20.09 2.64,20.20 2.62,20.30 2.59,20.40 2.53,20.49 2.48,20.58 2.39,20.65 2.31,20.71 2.21,20.75 2.11,20.78 2.00,20.79 1.90,20.79 1.80,20.76 1.69,20.72 1.61,20.66 1.52,20.60 1.46,20.51 1.40,20.43 1.37,20.33 1.34,20.22 1.34,20.12 1.34,20.01 1.34,20.01 1.34,20.01 1.33,17.91 1.31,15.81 1.94,13.79 2.57,11.77 3.44,9.63 4.31,7.49 5.20,5.38 6.09,3.27 7.17,2.06 8.25,0.85 8.41,0.76 8.57,0.66 8.75,0.60 8.92,0.55 9.11,0.54 9.30,0.52 9.48,0.56 9.66,0.59 9.83,0.66 10.00,0.74 10.15,0.85 10.29,0.97 10.41,1.11 10.52,1.26 10.60,1.43 10.68,1.60 10.71,1.78 10.74,1.96 10.73,2.15 10.72,2.33 10.67,2.51 10.61,2.69 10.52,2.85 10.42,3.01 10.29,3.14 10.16,3.27 10.36,2.86 10.56,2.44 10.08,3.18 9.59,3.92 9.05,4.85 8.51,5.79 7.81,6.76 7.12,7.74 5.96,8.74 4.81,9.75 3.64,9.81 2.48,9.88 1.68,9.30 0.88,8.71 0.39,7.79 -0.09,6.87 -0.47,5.64 -0.85,4.41 -1.12,3.26 -1.40,2.11 -1.03,1.05 -0.65,0 -0.64,-0.07 -0.63,-0.15 -0.60,-0.23 -0.58,-0.30 -0.53,-0.37 -0.49,-0.43 -0.43,-0.48 -0.37,-0.54 -0.30,-0.57 -0.23,-0.61 -0.15,-0.63 -0.07,-0.65 0.00,-0.65 0.07,-0.65 0.15,-0.63 0.23,-0.61 0.30,-0.57 0.37,-0.54 0.43,-0.48 0.49,-0.43 0.53,-0.37 0.58,-0.30 0.60,-0.23 0.63,-0.15 0.64,-0.07 0.65,0.00 0.65,0.00 L 0.65,0 Z"/></g><g transform="translate(231.82766723632812 195.3127899169922) rotate(0 3.195037841796875 14.149505615234375)" stroke="none"><path fill="#1e1e1e" d="M 0.41,-0.51 Q 0.41,-0.51 1.99,0.22 3.58,0.96 4.60,2.66 5.61,4.36 6.30,6.73 6.99,9.09 7.28,12.01 7.57,14.93 6.88,18.44 6.19,21.94 4.44,25.03 2.69,28.12 2.62,28.20 2.56,28.28 2.46,28.34 2.37,28.39 2.27,28.42 2.16,28.44 2.06,28.43 1.95,28.41 1.86,28.37 1.76,28.32 1.68,28.25 1.61,28.18 1.56,28.08 1.51,27.99 1.49,27.88 1.48,27.78 1.49,27.67 1.51,27.57 1.56,27.48 1.61,27.38 1.69,27.31 1.77,27.24 1.86,27.19 1.96,27.15 2.07,27.14 2.17,27.13 2.28,27.15 2.38,27.17 2.47,27.23 2.56,27.28 2.63,27.36 2.70,27.45 2.74,27.54 2.77,27.64 2.78,27.75 2.78,27.86 2.76,27.96 2.73,28.06 2.67,28.15 2.61,28.24 2.52,28.30 2.44,28.36 2.34,28.40 2.24,28.43 2.13,28.43 2.02,28.43 1.92,28.39 1.82,28.36 1.74,28.30 1.65,28.23 1.59,28.14 1.54,28.05 1.51,27.95 1.48,27.85 1.49,27.74 1.49,27.64 1.53,27.54 1.57,27.44 1.57,27.44 1.57,27.44 2.34,24.37 3.10,21.30 3.77,18.24 4.43,15.19 4.20,12.55 3.97,9.92 3.44,7.87 2.91,5.81 2.28,4.52 1.66,3.23 0.62,1.87 -0.41,0.51 -0.46,0.45 -0.52,0.39 -0.56,0.33 -0.60,0.26 -0.62,0.18 -0.64,0.11 -0.65,0.03 -0.65,-0.04 -0.63,-0.12 -0.62,-0.20 -0.59,-0.27 -0.55,-0.34 -0.50,-0.40 -0.45,-0.46 -0.39,-0.51 -0.33,-0.56 -0.26,-0.59 -0.18,-0.62 -0.11,-0.64 -0.03,-0.65 0.04,-0.65 0.12,-0.64 0.20,-0.62 0.27,-0.59 0.34,-0.55 0.41,-0.51 0.41,-0.51 L 0.41,-0.51 Z"/></g><g transform="translate(286.5998840332031 112.24153137207031) rotate(0 6.390106201171875 -0.912872314453125)" stroke="none"><path fill="#1e1e1e" d="M -0.20,0.62 Q -0.20,0.62 -1.11,0.72 -2.02,0.82 -2.18,0.75 -2.33,0.68 -2.46,0.57 -2.60,0.46 -2.70,0.32 -2.80,0.18 -2.87,0.03 -2.94,-0.12 -2.97,-0.29 -2.99,-0.46 -2.98,-0.63 -2.97,-0.80 -2.91,-0.97 -2.86,-1.13 -2.77,-1.28 -2.67,-1.42 -2.55,-1.54 -2.43,-1.66 -2.28,-1.75 -2.13,-1.83 -1.96,-1.88 -1.80,-1.93 -1.63,-1.93 -1.46,-1.94 -1.29,-1.91 -1.12,-1.87 0.20,-2.14 1.53,-2.40 3.35,-2.68 5.17,-2.95 7.09,-3.08 9.01,-3.20 11.96,-2.83 14.91,-2.46 15.02,-2.45 15.12,-2.43 15.22,-2.39 15.31,-2.34 15.39,-2.26 15.46,-2.19 15.51,-2.09 15.56,-2.00 15.57,-1.89 15.58,-1.79 15.56,-1.68 15.54,-1.58 15.49,-1.49 15.44,-1.39 15.36,-1.32 15.28,-1.25 15.18,-1.21 15.08,-1.17 14.98,-1.16 14.87,-1.15 14.77,-1.18 14.67,-1.20 14.58,-1.26 14.49,-1.32 14.42,-1.40 14.35,-1.49 14.32,-1.59 14.28,-1.69 14.28,-1.79 14.28,-1.90 14.31,-2.00 14.34,-2.10 14.40,-2.19 14.47,-2.27 14.55,-2.33 14.64,-2.40 14.74,-2.43 14.84,-2.46 14.95,-2.45 15.05,-2.45 15.15,-2.41 15.25,-2.38 15.34,-2.31 15.42,-2.24 15.48,-2.15 15.53,-2.06 15.56,-1.96 15.58,-1.86 15.57,-1.75 15.56,-1.65 15.52,-1.55 15.48,-1.45 15.41,-1.37 15.34,-1.29 15.24,-1.24 15.15,-1.19 15.05,-1.17 14.94,-1.15 14.94,-1.15 14.94,-1.15 12.08,-0.62 9.21,-0.08 7.42,0.02 5.63,0.14 3.63,0.43 1.64,0.72 0.57,0.66 -0.49,0.61 -1.26,0.72 -2.02,0.82 -2.18,0.75 -2.33,0.68 -2.46,0.57 -2.60,0.46 -2.70,0.32 -2.80,0.18 -2.87,0.03 -2.94,-0.12 -2.97,-0.29 -2.99,-0.46 -2.98,-0.63 -2.97,-0.80 -2.91,-0.97 -2.86,-1.13 -2.77,-1.28 -2.68,-1.42 -2.55,-1.54 -2.43,-1.66 -2.28,-1.75 -2.13,-1.83 -1.96,-1.88 -1.80,-1.93 -1.63,-1.93 -1.46,-1.94 -1.29,-1.91 -1.12,-1.87 -0.45,-1.25 0.20,-0.62 0.27,-0.58 0.35,-0.55 0.41,-0.50 0.47,-0.45 0.52,-0.39 0.56,-0.32 0.59,-0.25 0.63,-0.18 0.64,-0.10 0.65,-0.02 0.64,0.05 0.64,0.13 0.61,0.20 0.59,0.28 0.55,0.34 0.50,0.41 0.45,0.46 0.39,0.52 0.32,0.56 0.25,0.60 0.18,0.62 0.10,0.64 0.02,0.65 -0.05,0.65 -0.13,0.63 -0.20,0.62 -0.20,0.62 L -0.20,0.62 Z"/></g><g transform="translate(283.8612976074219 111.32865905761719) rotate(0 5.020782470703125 14.149505615234375)" stroke="none"><path fill="#1e1e1e" d="M 0.62,-0.20 Q 0.62,-0.20 1.26,0.43 1.91,1.08 2.44,1.73 2.97,2.39 4.11,3.11 5.26,3.84 6.31,4.46 7.36,5.07 8.15,5.65 8.94,6.22 9.65,6.96 10.36,7.70 10.50,8.83 10.65,9.96 10.04,11.34 9.44,12.73 8.61,13.85 7.77,14.98 5.45,16.61 3.13,18.25 1.12,19.43 -0.88,20.60 -2.17,21.57 -3.46,22.54 -4.14,22.86 -4.82,23.19 -4.63,23.74 -4.44,24.28 -3.55,24.65 -2.66,25.02 -1.05,25.50 0.55,25.99 2.98,26.20 5.42,26.41 7.45,26.28 9.47,26.15 11.03,25.70 12.59,25.25 14.51,25.16 16.43,25.07 16.53,25.07 16.64,25.06 16.74,25.09 16.84,25.12 16.93,25.18 17.02,25.24 17.08,25.33 17.14,25.42 17.17,25.52 17.20,25.62 17.20,25.73 17.20,25.83 17.17,25.93 17.13,26.03 17.06,26.11 17.00,26.20 16.91,26.26 16.82,26.31 16.72,26.34 16.61,26.37 16.51,26.36 16.40,26.35 16.30,26.31 16.21,26.27 16.13,26.20 16.05,26.13 15.99,26.04 15.94,25.95 15.92,25.84 15.90,25.74 15.91,25.63 15.93,25.53 15.97,25.43 16.02,25.34 16.09,25.26 16.17,25.18 16.26,25.14 16.36,25.09 16.46,25.07 16.57,25.06 16.67,25.08 16.78,25.10 16.87,25.15 16.96,25.20 17.03,25.28 17.11,25.35 17.15,25.45 17.19,25.55 17.20,25.66 17.21,25.76 17.19,25.86 17.16,25.97 17.10,26.06 17.05,26.15 16.97,26.21 16.88,26.28 16.78,26.32 16.68,26.36 16.68,26.36 16.69,26.36 15.05,26.99 13.41,27.61 11.56,28.35 9.71,29.09 7.43,29.27 5.15,29.46 2.39,29.19 -0.36,28.92 -2.33,28.26 -4.29,27.61 -5.65,26.53 -7.00,25.45 -7.14,23.84 -7.29,22.22 -6.29,21.16 -5.28,20.10 -3.85,19.04 -2.42,17.98 -0.50,16.86 1.41,15.73 3.40,14.43 5.40,13.12 6.06,12.26 6.73,11.40 7.20,10.58 7.66,9.77 7.41,9.20 7.17,8.62 6.51,8.12 5.85,7.63 4.73,6.96 3.60,6.30 2.11,5.25 0.62,4.19 -0.11,3.12 -0.86,2.06 -0.74,1.13 -0.62,0.20 -0.63,0.13 -0.65,0.05 -0.65,-0.02 -0.64,-0.10 -0.62,-0.18 -0.60,-0.25 -0.56,-0.32 -0.52,-0.39 -0.46,-0.45 -0.41,-0.50 -0.34,-0.55 -0.28,-0.59 -0.20,-0.61 -0.13,-0.64 -0.05,-0.64 0.02,-0.65 0.10,-0.64 0.18,-0.63 0.25,-0.59 0.32,-0.56 0.39,-0.52 0.45,-0.47 0.50,-0.41 0.55,-0.35 0.58,-0.27 0.62,-0.20 0.62,-0.20 L 0.62,-0.20 Z"/></g><g transform="translate(310.3345031738281 110.41578674316406) rotate(0 1.82574462890625 -3.6514739990234375)" stroke="none"><path fill="#1e1e1e" d="M -0.63,-0.15 Q -0.63,-0.15 -0.79,-1.33 -0.95,-2.51 0.93,-4.80 2.82,-7.09 2.88,-7.18 2.94,-7.26 3.02,-7.33 3.11,-7.39 3.21,-7.42 3.31,-7.45 3.42,-7.45 3.52,-7.45 3.62,-7.41 3.72,-7.38 3.81,-7.31 3.89,-7.25 3.95,-7.16 4.01,-7.07 4.03,-6.97 4.06,-6.86 4.05,-6.76 4.05,-6.65 4.00,-6.55 3.96,-6.45 3.89,-6.37 3.82,-6.30 3.73,-6.24 3.64,-6.19 3.53,-6.17 3.43,-6.15 3.32,-6.16 3.22,-6.17 3.12,-6.22 3.03,-6.27 2.95,-6.34 2.88,-6.42 2.83,-6.51 2.78,-6.61 2.77,-6.71 2.75,-6.82 2.77,-6.92 2.79,-7.03 2.84,-7.12 2.89,-7.21 2.97,-7.28 3.05,-7.35 3.15,-7.40 3.24,-7.44 3.35,-7.45 3.45,-7.46 3.56,-7.43 3.66,-7.41 3.75,-7.35 3.84,-7.30 3.91,-7.21 3.98,-7.13 4.01,-7.03 4.05,-6.93 4.05,-6.83 4.06,-6.72 4.03,-6.62 4.00,-6.52 4.00,-6.52 4.00,-6.52 3.00,-4.10 2.00,-1.68 1.32,-0.76 0.63,0.15 0.60,0.23 0.58,0.30 0.53,0.37 0.49,0.43 0.43,0.48 0.37,0.54 0.30,0.57 0.23,0.61 0.15,0.63 0.07,0.65 -0.00,0.65 -0.08,0.65 -0.15,0.63 -0.23,0.61 -0.30,0.57 -0.37,0.53 -0.43,0.48 -0.49,0.43 -0.53,0.36 -0.58,0.30 -0.61,0.22 -0.63,0.15 -0.64,0.07 -0.65,-0.00 -0.64,-0.08 -0.63,-0.15 -0.63,-0.15 L -0.63,-0.15 Z"/></g><g transform="translate(224.52468872070312 66.59799194335938) rotate(0 3.6514739990234375 115.4781723022461)" stroke="none"><path fill="#1e1e1e" d="M -0.20,0.62 Q -0.20,0.62 -1.12,0.74 -2.03,0.86 -3.17,0.50 -4.30,0.14 -5.98,-0.86 -7.67,-1.87 -9.62,-3.05 -11.58,-4.23 -14.91,-5.46 -18.24,-6.69 -21.52,-7.75 -24.79,-8.82 -28.21,-9.52 -31.64,-10.21 -35.24,-11.05 -38.85,-11.88 -43.24,-12.75 -47.63,-13.62 -51.32,-14.25 -55.02,-14.88 -57.85,-15.15 -60.68,-15.41 -63.58,-16.06 -66.49,-16.72 -69.23,-17.24 -71.97,-17.77 -74.45,-18.26 -76.94,-18.75 -79.40,-18.68 -81.87,-18.62 -84.36,-17.84 -86.85,-17.06 -89.73,-15.70 -92.61,-14.35 -96.95,-11.70 -101.29,-9.05 -105.21,-6.11 -109.12,-3.17 -112.27,0.34 -115.42,3.86 -117.72,9.39 -120.03,14.92 -120.76,19.53 -121.48,24.14 -120.77,27.48 -120.07,30.82 -118.29,33.42 -116.51,36.01 -114.43,38.76 -112.34,41.50 -110.64,44.03 -108.93,46.57 -107.61,49.36 -106.30,52.16 -106.50,54.73 -106.71,57.29 -108.24,59.83 -109.77,62.37 -112.63,64.81 -115.48,67.24 -120.90,70.88 -126.31,74.52 -132.29,78.16 -138.27,81.80 -144.99,85.96 -151.71,90.12 -159.04,94.53 -166.36,98.93 -173.16,102.90 -179.95,106.88 -186.74,111.18 -193.54,115.48 -197.95,118.84 -202.37,122.21 -205.22,125.14 -208.08,128.07 -209.44,131.24 -210.81,134.40 -211.41,137.01 -212.01,139.61 -212.26,142.00 -212.52,144.38 -212.37,146.62 -212.22,148.85 -211.90,151.38 -211.58,153.91 -211.18,156.83 -210.78,159.76 -210.60,163.97 -210.43,168.18 -210.09,171.73 -209.76,175.28 -209.62,178.95 -209.47,182.62 -208.90,186.17 -208.33,189.71 -207.04,194.32 -205.76,198.93 -203.94,202.91 -202.12,206.88 -200.09,209.81 -198.06,212.74 -195.47,214.93 -192.87,217.12 -188.21,219.32 -183.55,221.52 -179.96,223.01 -176.36,224.50 -170.61,226.99 -164.86,229.47 -160.24,232.14 -155.62,234.81 -151.82,237.26 -148.02,239.71 -145.30,241.84 -142.59,243.97 -140.27,246.81 -137.96,249.65 -136.42,252.50 -134.88,255.36 -133.71,258.16 -132.53,260.97 -131.51,263.74 -130.49,266.51 -129.77,269.32 -129.05,272.14 -128.25,274.56 -127.46,276.98 -126.45,278.60 -125.44,280.23 -124.22,280.75 -122.99,281.27 -121.09,281.26 -119.19,281.25 -116.35,280.52 -113.52,279.78 -109.63,278.68 -105.74,277.58 -100.86,276.57 -95.99,275.56 -91.54,274.86 -87.09,274.17 -82.52,273.87 -77.95,273.57 -72.60,273.45 -67.24,273.32 -59.98,273.27 -52.71,273.22 -46.97,273.46 -41.22,273.70 -36.45,273.80 -31.68,273.90 -26.64,274.74 -21.60,275.59 -17.88,276.47 -14.16,277.36 -10.81,277.99 -7.45,278.62 -3.88,279.42 -0.31,280.22 4.05,281.08 8.42,281.94 12.16,282.83 15.90,283.73 19.27,284.36 22.64,285.00 26.10,285.26 29.56,285.52 33.34,285.37 37.12,285.23 41.09,284.90 45.06,284.58 50.05,283.41 55.05,282.24 59.47,280.47 63.89,278.69 68.06,276.14 72.23,273.59 77.65,269.38 83.07,265.17 86.69,262.07 90.31,258.98 94.95,254.28 99.60,249.58 103.96,245.21 108.32,240.83 112.84,236.83 117.35,232.84 122.95,228.25 128.55,223.65 133.12,220.86 137.68,218.06 141.83,216.56 145.98,215.07 149.93,214.42 153.87,213.78 159.40,212.74 164.93,211.70 170.10,210.23 175.27,208.75 179.73,206.59 184.19,204.44 188.10,201.48 192.01,198.53 196.20,193.18 200.40,187.83 203.48,181.95 206.56,176.07 209.17,169.15 211.78,162.23 213.92,153.05 216.06,143.87 217.24,138.11 218.42,132.36 218.91,126.33 219.39,120.30 218.30,112.63 217.21,104.95 215.44,97.49 213.67,90.03 211.36,82.69 209.04,75.35 206.50,69.40 203.97,63.45 200.32,58.15 196.67,52.85 193.10,49.36 189.53,45.86 185.73,43.37 181.93,40.88 177.90,38.21 173.87,35.53 168.71,31.75 163.55,27.96 159.48,24.49 155.42,21.01 151.87,17.98 148.33,14.94 144.19,11.28 140.04,7.62 136.49,4.78 132.93,1.94 130.06,-0.61 127.18,-3.17 124.64,-5.57 122.10,-7.98 119.68,-10.61 117.25,-13.24 114.91,-15.93 112.57,-18.63 109.75,-21.86 106.92,-25.10 104.69,-27.50 102.45,-29.91 100.50,-31.67 98.55,-33.44 96.63,-35.28 94.71,-37.12 93.06,-39.00 91.41,-40.87 89.41,-43.23 87.41,-45.59 85.59,-47.30 83.78,-49.01 81.87,-49.89 79.96,-50.77 78.09,-51.43 76.23,-52.08 73.60,-52.90 70.98,-53.71 68.67,-54.03 66.37,-54.35 62.43,-53.71 58.49,-53.08 53.73,-51.27 48.97,-49.47 46.66,-48.45 44.35,-47.42 42.84,-46.73 41.33,-46.03 40.04,-45.04 38.76,-44.05 37.17,-42.59 35.57,-41.13 34.73,-39.85 33.89,-38.57 32.96,-37.18 32.02,-35.79 31.39,-34.71 30.75,-33.64 29.93,-32.35 29.11,-31.06 28.24,-29.73 27.37,-28.39 26.42,-27.23 25.47,-26.07 24.08,-24.08 22.69,-22.10 21.56,-20.45 20.43,-18.81 19.38,-17.52 18.33,-16.24 17.41,-14.97 16.49,-13.70 15.57,-12.37 14.66,-11.04 13.69,-9.88 12.72,-8.72 12.05,-7.97 11.38,-7.22 10.82,-6.63 10.27,-6.04 9.72,-5.50 9.17,-4.96 8.11,-4.54 7.06,-4.13 5.63,-3.60 4.21,-3.07 3.50,-2.78 2.78,-2.49 1.71,-2.31 0.63,-2.13 -0.80,-2.33 -2.24,-2.54 -3.21,-2.96 -4.17,-3.37 -5.22,-3.77 -6.26,-4.17 -7.71,-5.79 -9.17,-7.41 -9.24,-7.49 -9.31,-7.57 -9.35,-7.66 -9.40,-7.76 -9.41,-7.87 -9.42,-7.97 -9.39,-8.08 -9.37,-8.18 -9.31,-8.27 -9.26,-8.36 -9.18,-8.43 -9.09,-8.50 -9.00,-8.53 -8.90,-8.57 -8.79,-8.58 -8.68,-8.58 -8.58,-8.55 -8.48,-8.52 -8.39,-8.46 -8.31,-8.40 -8.24,-8.31 -8.18,-8.23 -8.15,-8.13 -8.11,-8.03 -8.11,-7.92 -8.12,-7.81 -8.15,-7.71 -8.19,-7.61 -8.25,-7.53 -8.32,-7.45 -8.41,-7.39 -8.49,-7.33 -8.60,-7.30 -8.70,-7.28 -8.81,-7.28 -8.91,-7.29 -9.01,-7.33 -9.11,-7.37 -9.19,-7.44 -9.27,-7.51 -9.32,-7.60 -9.38,-7.69 -9.40,-7.80 -9.42,-7.90 -9.41,-8.01 -9.39,-8.11 -9.35,-8.21 -9.30,-8.30 -9.23,-8.38 -9.15,-8.46 -9.06,-8.51 -8.96,-8.55 -8.86,-8.57 -8.75,-8.59 -8.65,-8.57 -8.55,-8.55 -8.45,-8.50 -8.36,-8.45 -8.36,-8.45 -8.36,-8.45 -6.71,-7.92 -5.06,-7.39 -3.88,-6.97 -2.71,-6.54 -2.16,-6.26 -1.61,-5.97 -0.72,-5.78 0.15,-5.58 0.85,-5.67 1.55,-5.76 3.04,-6.17 4.53,-6.58 5.71,-7.03 6.88,-7.48 7.32,-7.95 7.75,-8.42 8.28,-8.97 8.80,-9.53 9.44,-10.24 10.07,-10.94 10.94,-11.97 11.82,-13.01 12.76,-14.37 13.70,-15.72 14.69,-17.07 15.67,-18.42 16.63,-19.59 17.59,-20.76 18.73,-22.42 19.87,-24.08 21.34,-26.17 22.80,-28.26 23.64,-29.27 24.48,-30.29 25.34,-31.60 26.21,-32.91 27.00,-34.15 27.79,-35.39 28.47,-36.55 29.16,-37.71 30.10,-39.10 31.04,-40.50 32.13,-42.08 33.23,-43.66 34.95,-45.23 36.68,-46.80 38.27,-47.98 39.86,-49.16 41.40,-49.88 42.94,-50.60 45.35,-51.67 47.75,-52.74 52.85,-54.63 57.95,-56.52 62.39,-57.16 66.82,-57.81 69.41,-57.43 72.00,-57.05 74.71,-56.22 77.41,-55.39 79.45,-54.66 81.48,-53.92 83.81,-52.76 86.13,-51.59 88.11,-49.73 90.09,-47.86 92.07,-45.52 94.05,-43.18 95.59,-41.41 97.13,-39.64 99.01,-37.84 100.90,-36.03 102.96,-34.16 105.02,-32.29 107.29,-29.84 109.56,-27.40 112.38,-24.16 115.21,-20.92 117.52,-18.27 119.83,-15.61 122.17,-13.06 124.51,-10.51 127.01,-8.15 129.51,-5.78 132.31,-3.28 135.11,-0.78 138.74,2.10 142.37,4.99 146.49,8.64 150.61,12.28 154.15,15.31 157.69,18.35 161.66,21.75 165.62,25.14 170.71,28.88 175.80,32.62 179.83,35.30 183.86,37.97 187.91,40.67 191.97,43.37 195.75,47.13 199.53,50.89 203.31,56.49 207.10,62.10 209.69,68.21 212.28,74.33 214.63,81.79 216.97,89.25 218.76,96.87 220.56,104.48 221.66,112.52 222.76,120.56 222.24,126.79 221.71,133.03 220.51,138.83 219.32,144.64 217.10,154.02 214.88,163.40 212.19,170.51 209.49,177.61 206.25,183.75 203.01,189.89 198.51,195.52 194.01,201.15 189.82,204.28 185.63,207.40 180.91,209.66 176.18,211.92 170.86,213.43 165.54,214.95 159.97,216.00 154.39,217.05 150.74,217.61 147.08,218.18 143.23,219.53 139.38,220.87 135.01,223.54 130.63,226.20 125.08,230.75 119.53,235.30 115.09,239.22 110.65,243.14 106.29,247.52 101.93,251.89 97.18,256.67 92.43,261.45 88.74,264.60 85.06,267.74 79.49,272.05 73.92,276.36 69.51,279.03 65.10,281.70 60.45,283.55 55.79,285.41 50.56,286.62 45.33,287.83 41.28,288.15 37.24,288.48 33.28,288.63 29.31,288.77 25.68,288.49 22.04,288.20 18.59,287.56 15.13,286.91 11.46,286.02 7.79,285.13 3.38,284.27 -1.02,283.40 -4.54,282.61 -8.05,281.82 -11.49,281.18 -14.92,280.54 -18.54,279.67 -22.15,278.80 -26.95,277.98 -31.76,277.16 -36.56,277.06 -41.36,276.96 -47.03,276.72 -52.69,276.48 -59.93,276.53 -67.16,276.58 -72.45,276.71 -77.74,276.83 -82.17,277.11 -86.59,277.40 -90.96,278.07 -95.33,278.75 -100.09,279.74 -104.85,280.72 -108.79,281.84 -112.73,282.95 -115.99,283.73 -119.25,284.51 -121.80,284.36 -124.35,284.22 -126.19,283.17 -128.04,282.13 -129.30,280.07 -130.56,278.02 -131.40,275.49 -132.24,272.95 -132.90,270.29 -133.57,267.64 -134.56,264.93 -135.56,262.23 -136.67,259.56 -137.78,256.89 -139.14,254.28 -140.50,251.67 -142.54,249.07 -144.58,246.47 -147.16,244.43 -149.75,242.40 -153.49,239.99 -157.22,237.58 -161.68,235.00 -166.13,232.41 -171.86,229.94 -177.60,227.47 -181.26,225.95 -184.93,224.42 -189.94,222.00 -194.95,219.58 -197.82,217.08 -200.69,214.58 -202.87,211.40 -205.04,208.22 -206.95,204.01 -208.86,199.79 -210.17,195.01 -211.49,190.22 -212.09,186.49 -212.68,182.75 -212.82,179.16 -212.96,175.58 -213.30,171.94 -213.64,168.31 -213.80,164.25 -213.96,160.19 -214.36,157.25 -214.76,154.31 -215.09,151.68 -215.42,149.04 -215.56,146.54 -215.71,144.04 -215.42,141.46 -215.13,138.89 -214.44,135.99 -213.75,133.10 -212.08,129.49 -210.41,125.89 -207.36,122.78 -204.31,119.66 -199.78,116.22 -195.25,112.77 -188.41,108.45 -181.56,104.13 -174.78,100.16 -168.00,96.20 -160.69,91.82 -153.38,87.43 -146.64,83.26 -139.91,79.10 -133.99,75.49 -128.07,71.89 -122.79,68.35 -117.51,64.82 -114.96,62.73 -112.40,60.64 -111.09,58.71 -109.78,56.79 -109.46,55.01 -109.15,53.23 -110.32,50.76 -111.48,48.29 -113.14,45.83 -114.80,43.37 -116.94,40.54 -119.08,37.71 -121.07,34.61 -123.05,31.51 -123.79,27.61 -124.52,23.72 -123.70,18.73 -122.88,13.74 -120.31,7.79 -117.75,1.83 -114.36,-1.90 -110.98,-5.64 -106.94,-8.66 -102.90,-11.68 -98.41,-14.42 -93.92,-17.15 -90.83,-18.58 -87.75,-20.02 -84.85,-20.86 -81.96,-21.70 -79.16,-21.74 -76.36,-21.79 -73.87,-21.30 -71.38,-20.81 -68.59,-20.26 -65.80,-19.72 -63.10,-19.10 -60.39,-18.47 -57.44,-18.19 -54.50,-17.92 -50.76,-17.28 -47.03,-16.63 -42.60,-15.75 -38.16,-14.87 -34.59,-14.04 -31.02,-13.21 -27.43,-12.47 -23.85,-11.73 -20.51,-10.64 -17.17,-9.56 -13.59,-8.20 -10.00,-6.84 -8.03,-5.65 -6.06,-4.45 -4.70,-3.57 -3.33,-2.69 -2.22,-2.30 -1.11,-1.91 -0.45,-1.26 0.20,-0.62 0.27,-0.58 0.35,-0.55 0.41,-0.50 0.47,-0.45 0.52,-0.39 0.56,-0.32 0.59,-0.25 0.63,-0.18 0.64,-0.10 0.65,-0.02 0.64,0.05 0.64,0.13 0.61,0.20 0.59,0.28 0.55,0.34 0.50,0.41 0.45,0.46 0.39,0.52 0.32,0.56 0.25,0.60 0.18,0.62 0.10,0.64 0.02,0.65 -0.05,0.65 -0.13,0.63 -0.20,0.62 -0.20,0.62 L -0.20,0.62 Z"/></g><g transform="translate(375.1483459472656 27.34454345703125) rotate(0 12.78021240234375 0)" stroke="none"><path fill="#1e1e1e" d="M 0,-0.65 Q 0,-0.65 1.57,-1.08 3.14,-1.51 6.44,-1.52 9.73,-1.53 12.71,-1.53 15.68,-1.53 18.00,-1.54 20.31,-1.54 22.83,-1.09 25.36,-0.65 25.46,-0.63 25.57,-0.62 25.66,-0.57 25.75,-0.52 25.83,-0.44 25.90,-0.36 25.94,-0.27 25.99,-0.17 26.00,-0.07 26.01,0.03 25.99,0.13 25.97,0.24 25.91,0.33 25.86,0.42 25.78,0.49 25.69,0.56 25.60,0.60 25.50,0.64 25.39,0.64 25.28,0.65 25.18,0.62 25.08,0.59 24.99,0.53 24.90,0.47 24.84,0.39 24.78,0.30 24.74,0.20 24.71,0.10 24.71,-0.00 24.71,-0.10 24.74,-0.20 24.78,-0.30 24.84,-0.39 24.90,-0.47 24.99,-0.53 25.08,-0.59 25.18,-0.62 25.28,-0.65 25.39,-0.64 25.50,-0.64 25.60,-0.60 25.69,-0.56 25.78,-0.49 25.86,-0.42 25.91,-0.33 25.97,-0.24 25.99,-0.13 26.01,-0.03 26.00,0.07 25.99,0.17 25.94,0.27 25.90,0.36 25.83,0.44 25.75,0.52 25.66,0.57 25.57,0.62 25.46,0.63 25.36,0.65 25.36,0.65 25.36,0.65 22.83,1.09 20.31,1.54 18.00,1.54 15.68,1.53 12.71,1.53 9.73,1.53 6.44,1.52 3.14,1.51 1.57,1.08 0,0.65 -0.07,0.64 -0.15,0.63 -0.23,0.60 -0.30,0.58 -0.37,0.53 -0.43,0.49 -0.48,0.43 -0.54,0.37 -0.57,0.30 -0.61,0.23 -0.63,0.15 -0.65,0.07 -0.65,-0.00 -0.65,-0.07 -0.63,-0.15 -0.61,-0.23 -0.57,-0.30 -0.54,-0.37 -0.48,-0.43 -0.43,-0.49 -0.37,-0.53 -0.30,-0.58 -0.23,-0.60 -0.15,-0.63 -0.07,-0.64 0.00,-0.65 0.00,-0.65 L 0,-0.65 Z"/></g><g transform="translate(372.4097595214844 20.954452514648438) rotate(0 13.23663330078125 15.518806457519531)" stroke="none"><path fill="#1e1e1e" d="M 0.61,-0.23 Q 0.61,-0.23 1.76,1.73 2.91,3.69 3.48,4.76 4.05,5.84 5.59,8.08 7.13,10.33 8.54,12.05 9.96,13.77 11.55,15.23 13.15,16.70 14.40,17.89 15.64,19.07 16.61,19.77 17.58,20.47 18.30,20.79 19.01,21.11 19.14,21.24 19.28,21.36 19.38,21.51 19.48,21.67 19.54,21.84 19.60,22.01 19.62,22.19 19.63,22.38 19.61,22.56 19.58,22.74 19.51,22.91 19.44,23.07 19.33,23.22 19.23,23.37 19.09,23.49 18.95,23.61 18.78,23.69 18.62,23.77 18.44,23.81 18.26,23.85 18.08,23.84 17.90,23.84 17.72,23.79 17.54,23.74 17.39,23.65 17.23,23.56 17.75,23.81 18.27,24.05 16.45,23.94 14.63,23.83 13.18,24.01 11.74,24.19 10.34,24.51 8.95,24.83 7.28,25.23 5.61,25.63 4.26,26.28 2.91,26.92 1.75,27.48 0.60,28.03 -0.25,28.31 -1.11,28.59 -1.50,28.18 -1.90,27.78 -0.86,27.91 0.17,28.04 1.43,28.17 2.70,28.29 4.79,28.34 6.89,28.40 10.68,28.42 14.47,28.44 17.72,28.72 20.98,29.00 23.35,29.17 25.72,29.35 27.53,29.85 29.34,30.35 29.44,30.37 29.55,30.39 29.64,30.44 29.73,30.49 29.80,30.57 29.87,30.65 29.91,30.75 29.95,30.85 29.96,30.96 29.97,31.06 29.94,31.17 29.91,31.27 29.85,31.36 29.80,31.45 29.71,31.51 29.63,31.58 29.53,31.61 29.43,31.65 29.32,31.65 29.22,31.65 29.12,31.62 29.01,31.59 28.93,31.52 28.84,31.46 28.78,31.37 28.72,31.29 28.69,31.18 28.66,31.08 28.66,30.98 28.67,30.87 28.71,30.77 28.74,30.67 28.81,30.59 28.88,30.51 28.97,30.45 29.06,30.40 29.16,30.37 29.27,30.35 29.37,30.36 29.48,30.37 29.58,30.41 29.67,30.45 29.75,30.52 29.83,30.60 29.88,30.69 29.93,30.78 29.95,30.89 29.97,30.99 29.95,31.10 29.94,31.20 29.89,31.30 29.84,31.39 29.77,31.47 29.69,31.54 29.59,31.59 29.50,31.63 29.39,31.64 29.29,31.66 29.29,31.66 29.29,31.66 27.43,32.02 25.58,32.37 23.14,32.32 20.70,32.26 17.57,31.99 14.44,31.72 10.62,31.69 6.80,31.66 4.58,31.59 2.36,31.53 0.88,31.36 -0.59,31.20 -2.31,30.66 -4.04,30.11 -4.30,29.60 -4.55,29.09 -4.13,27.76 -3.71,26.43 -2.91,25.95 -2.12,25.47 -1.46,25.27 -0.81,25.08 0.35,24.51 1.53,23.95 3.18,23.20 4.83,22.45 6.53,22.04 8.22,21.63 9.80,21.28 11.38,20.92 13.23,20.75 15.08,20.58 16.07,20.88 17.07,21.17 18.04,21.14 19.01,21.11 19.14,21.24 19.28,21.36 19.38,21.51 19.48,21.67 19.54,21.84 19.60,22.01 19.62,22.19 19.63,22.38 19.61,22.56 19.58,22.74 19.51,22.91 19.44,23.07 19.33,23.22 19.23,23.37 19.09,23.49 18.95,23.61 18.78,23.69 18.62,23.77 18.44,23.81 18.26,23.85 18.08,23.84 17.90,23.84 17.72,23.79 17.54,23.74 17.39,23.65 17.23,23.56 16.52,23.23 15.82,22.90 14.69,22.07 13.57,21.24 12.34,20.07 11.12,18.90 9.38,17.28 7.65,15.66 6.16,13.82 4.66,11.99 3.07,9.58 1.48,7.17 0.85,5.93 0.23,4.70 -0.18,2.46 -0.61,0.23 -0.63,0.15 -0.65,0.07 -0.65,-0.00 -0.65,-0.08 -0.63,-0.15 -0.61,-0.23 -0.57,-0.30 -0.53,-0.37 -0.48,-0.43 -0.43,-0.49 -0.36,-0.53 -0.30,-0.58 -0.22,-0.61 -0.15,-0.63 -0.07,-0.64 0.00,-0.65 0.08,-0.64 0.15,-0.63 0.23,-0.60 0.30,-0.58 0.37,-0.53 0.43,-0.48 0.48,-0.43 0.54,-0.37 0.57,-0.30 0.61,-0.23 0.61,-0.23 L 0.61,-0.23 Z"/></g><g stroke-linecap="round"><g transform="translate(273.8196716308594 404.36021423339844) rotate(0 -13.69305419921875 -64.35739135742188)"><path d="M0.46 0.77 C2.01 -12.48, 14.59 -57.94, 8.24 -79.4 C1.89 -100.86, -30.33 -119.6, -37.64 -127.97 M-0.75 0.13 C1.26 -13.45, 16.25 -59.36, 10.49 -81.03 C4.72 -102.71, -27.77 -121.92, -35.34 -129.92" stroke="#6741d9" stroke-width="2" fill="none"/></g><g transform="translate(273.8196716308594 404.36021423339844) rotate(0 -13.69305419921875 -64.35739135742188)"><path d="M-11.76 -121.6 C-15.52 -124.77, -20.3 -126.95, -35.34 -129.92 M-11.76 -121.6 C-19.69 -124.09, -28.18 -127.45, -35.34 -129.92" stroke="#6741d9" stroke-width="2" fill="none"/></g><g transform="translate(273.8196716308594 404.36021423339844) rotate(0 -13.69305419921875 -64.35739135742188)"><path d="M-22.63 -108.4 C-24.08 -114.43, -26.53 -119.43, -35.34 -129.92 M-22.63 -108.4 C-26.72 -115.58, -31.27 -123.72, -35.34 -129.92" stroke="#6741d9" stroke-width="2" fill="none"/></g></g><mask/><g transform="translate(128.67324829101562 417.1404266357422) rotate(0 -12.78021240234375 15.518798828125)" stroke="none"><path fill="#6741d9" d="M 0,0.65 Q 0,0.65 -1.04,1.04 -2.09,1.42 -2.80,1.43 -3.51,1.44 -4.86,1.46 -6.21,1.48 -7.43,1.74 -8.65,2.01 -10.25,2.39 -11.84,2.77 -13.17,3.40 -14.50,4.04 -15.52,4.78 -16.55,5.52 -17.66,7.03 -18.78,8.54 -19.80,10.22 -20.81,11.90 -21.47,13.58 -22.13,15.27 -22.67,17.01 -23.22,18.76 -23.16,20.60 -23.11,22.44 -22.64,23.85 -22.16,25.27 -21.07,26.21 -19.98,27.15 -18.59,27.81 -17.19,28.46 -15.67,28.74 -14.14,29.01 -11.27,28.72 -8.39,28.44 -5.37,28.18 -2.36,27.92 -2.25,27.91 -2.15,27.91 -2.05,27.94 -1.94,27.97 -1.86,28.03 -1.77,28.09 -1.71,28.18 -1.64,28.26 -1.61,28.36 -1.58,28.47 -1.58,28.57 -1.58,28.68 -1.62,28.78 -1.65,28.88 -1.72,28.96 -1.79,29.05 -1.87,29.10 -1.96,29.16 -2.07,29.19 -2.17,29.22 -2.28,29.21 -2.38,29.20 -2.48,29.16 -2.58,29.12 -2.66,29.05 -2.74,28.98 -2.79,28.89 -2.84,28.79 -2.86,28.69 -2.89,28.59 -2.87,28.48 -2.86,28.37 -2.81,28.28 -2.77,28.18 -2.69,28.11 -2.62,28.03 -2.52,27.98 -2.43,27.94 -2.32,27.92 -2.22,27.90 -2.11,27.92 -2.01,27.94 -1.92,27.99 -1.82,28.05 -1.75,28.12 -1.68,28.20 -1.64,28.30 -1.59,28.40 -1.58,28.50 -1.57,28.61 -1.60,28.71 -1.62,28.81 -1.68,28.90 -1.74,28.99 -1.82,29.06 -1.90,29.13 -2.00,29.17 -2.10,29.20 -2.10,29.20 -2.10,29.20 -5.08,30.16 -8.06,31.11 -11.37,31.59 -14.69,32.06 -16.62,31.67 -18.55,31.27 -20.34,30.35 -22.12,29.43 -23.59,27.90 -25.05,26.37 -25.64,24.44 -26.24,22.51 -26.23,20.19 -26.22,17.87 -25.63,15.99 -25.04,14.11 -24.26,12.19 -23.49,10.28 -22.37,8.46 -21.25,6.63 -19.81,4.82 -18.37,3.01 -17.09,2.12 -15.81,1.23 -14.18,0.50 -12.55,-0.22 -10.88,-0.59 -9.22,-0.96 -7.72,-1.22 -6.22,-1.48 -4.87,-1.46 -3.51,-1.44 -2.80,-1.43 -2.09,-1.42 -1.04,-1.04 0,-0.65 0.07,-0.64 0.15,-0.63 0.23,-0.60 0.30,-0.58 0.37,-0.53 0.43,-0.49 0.48,-0.43 0.54,-0.37 0.57,-0.30 0.61,-0.23 0.63,-0.15 0.65,-0.07 0.65,0.00 0.65,0.07 0.63,0.15 0.61,0.23 0.57,0.30 0.54,0.37 0.48,0.43 0.43,0.49 0.37,0.53 0.30,0.58 0.23,0.60 0.15,0.63 0.07,0.64 -0.00,0.65 -0.00,0.65 L 0,0.65 Z"/></g><g transform="translate(131.41183471679688 447.2651824951172) rotate(0 2.282196044921875 -17.800994873046875)" stroke="none"><path fill="#6741d9" d="M -0.64,0.12 Q -0.64,0.12 -1.29,-1.10 -1.95,-2.34 -2.10,-5.11 -2.25,-7.88 -1.77,-10.99 -1.28,-14.11 -0.82,-17.20 -0.36,-20.29 0.37,-23.25 1.11,-26.21 1.76,-28.47 2.42,-30.73 3.48,-32.80 4.53,-34.87 4.58,-34.96 4.63,-35.06 4.71,-35.13 4.79,-35.20 4.88,-35.25 4.98,-35.29 5.09,-35.30 5.19,-35.31 5.30,-35.29 5.40,-35.27 5.49,-35.21 5.58,-35.16 5.65,-35.08 5.72,-35.00 5.76,-34.90 5.80,-34.80 5.80,-34.69 5.81,-34.59 5.78,-34.48 5.75,-34.38 5.69,-34.29 5.63,-34.21 5.55,-34.14 5.46,-34.08 5.36,-34.04 5.26,-34.01 5.15,-34.01 5.05,-34.01 4.95,-34.04 4.85,-34.08 4.76,-34.14 4.68,-34.21 4.62,-34.30 4.56,-34.38 4.53,-34.49 4.50,-34.59 4.51,-34.69 4.51,-34.80 4.55,-34.90 4.59,-35.00 4.66,-35.08 4.73,-35.16 4.82,-35.21 4.91,-35.27 5.02,-35.29 5.12,-35.31 5.23,-35.30 5.33,-35.29 5.43,-35.25 5.52,-35.20 5.60,-35.13 5.68,-35.06 5.73,-34.96 5.78,-34.87 5.79,-34.76 5.81,-34.66 5.79,-34.55 5.78,-34.45 5.78,-34.45 5.78,-34.45 5.40,-32.26 5.02,-30.08 4.53,-27.78 4.05,-25.48 3.34,-22.66 2.63,-19.84 2.17,-16.73 1.70,-13.63 1.23,-10.81 0.76,-7.99 0.83,-5.45 0.90,-2.90 0.77,-1.51 0.64,-0.12 0.64,-0.04 0.65,0.02 0.64,0.10 0.62,0.18 0.59,0.25 0.56,0.33 0.51,0.39 0.47,0.45 0.41,0.50 0.34,0.55 0.27,0.59 0.20,0.62 0.12,0.63 0.05,0.65 -0.02,0.65 -0.10,0.64 -0.18,0.62 -0.25,0.60 -0.32,0.56 -0.39,0.52 -0.45,0.46 -0.51,0.41 -0.55,0.34 -0.59,0.27 -0.61,0.20 -0.64,0.12 -0.64,0.12 L -0.64,0.12 Z"/></g><g transform="translate(135.06332397460938 434.48497009277344) rotate(0 32.40692138671875 5.93365478515625)" stroke="none"><path fill="#6741d9" d="M 0.63,0.15 Q 0.63,0.15 0.56,1.25 0.49,2.35 0.40,3.12 0.31,3.88 0.36,3.83 0.40,3.79 0.35,3.93 0.31,4.08 0.24,4.21 0.16,4.34 0.06,4.45 -0.04,4.56 -0.16,4.64 -0.29,4.72 -0.44,4.77 -0.58,4.82 -0.73,4.83 -0.88,4.85 -1.03,4.82 -1.18,4.80 -1.32,4.74 -1.46,4.68 -1.58,4.59 -1.71,4.50 -1.80,4.38 -1.90,4.27 -1.96,4.13 -2.03,3.99 -2.06,3.85 -2.09,3.70 -2.09,3.55 -2.08,3.39 -1.41,2.54 -0.73,1.68 0.00,0.93 0.74,0.18 1.67,-0.47 2.61,-1.13 3.70,-1.47 4.79,-1.81 6.09,-1.57 7.39,-1.34 8.10,-0.55 8.80,0.24 9.05,1.30 9.30,2.35 8.82,3.80 8.34,5.25 8.18,5.91 8.01,6.56 7.64,7.49 7.27,8.41 6.88,9.53 6.48,10.64 6.31,11.17 6.13,11.70 7.04,11.88 7.95,12.07 8.61,11.89 9.27,11.71 9.96,11.20 10.65,10.69 11.75,9.70 12.85,8.72 13.80,7.56 14.75,6.40 15.47,5.60 16.18,4.79 16.74,4.19 17.30,3.59 17.53,3.04 17.75,2.50 17.89,2.39 18.02,2.28 18.18,2.20 18.34,2.12 18.51,2.09 18.68,2.05 18.85,2.05 19.03,2.06 19.20,2.11 19.37,2.15 19.52,2.24 19.67,2.32 19.80,2.44 19.93,2.56 20.02,2.71 20.12,2.86 20.18,3.02 20.23,3.19 20.25,3.36 20.27,3.54 20.24,3.71 20.22,3.88 20.15,4.05 20.08,4.21 19.98,4.35 19.87,4.49 19.10,5.11 18.33,5.74 17.97,6.54 17.61,7.35 17.46,8.62 17.30,9.89 17.18,10.61 17.05,11.33 17.82,11.61 18.60,11.90 19.30,11.61 19.99,11.32 20.83,10.89 21.66,10.46 21.85,9.13 22.04,7.80 22.19,7.09 22.34,6.38 21.73,6.07 21.12,5.76 20.38,5.28 19.63,4.80 18.95,4.66 18.27,4.52 17.63,4.42 16.99,4.32 16.82,4.25 16.66,4.18 16.51,4.08 16.37,3.98 16.25,3.84 16.13,3.70 16.05,3.54 15.97,3.38 15.93,3.21 15.89,3.03 15.90,2.85 15.90,2.68 15.94,2.50 15.99,2.33 16.08,2.17 16.16,2.02 16.28,1.88 16.41,1.75 16.55,1.65 16.70,1.55 16.87,1.49 17.04,1.43 17.22,1.41 17.40,1.39 17.57,1.42 17.75,1.44 18.26,2.28 18.76,3.11 19.54,3.39 20.31,3.66 21.10,3.48 21.89,3.30 22.75,3.00 23.62,2.71 24.83,2.30 26.04,1.90 27.18,1.71 28.32,1.51 28.84,1.23 29.35,0.96 29.95,0.83 30.56,0.71 30.83,0.46 31.11,0.21 31.23,0.08 31.36,-0.04 31.51,-0.14 31.66,-0.24 31.84,-0.30 32.01,-0.35 32.19,-0.37 32.37,-0.39 32.55,-0.36 32.73,-0.33 32.90,-0.26 33.06,-0.19 33.21,-0.08 33.36,0.01 33.47,0.15 33.59,0.29 33.67,0.46 33.75,0.62 33.79,0.80 33.82,0.98 33.82,1.16 33.81,1.34 33.76,1.52 33.71,1.69 33.62,1.85 33.53,2.01 32.47,2.20 31.41,2.39 30.62,2.44 29.83,2.49 29.20,3.55 28.58,4.62 28.44,5.39 28.31,6.16 28.49,6.80 28.67,7.45 28.63,8.24 28.60,9.04 29.87,9.09 31.14,9.14 32.27,8.96 33.39,8.77 34.01,8.50 34.63,8.23 34.99,7.74 35.35,7.25 35.75,6.35 36.15,5.46 36.62,4.53 37.09,3.60 36.57,2.87 36.05,2.13 35.26,1.74 34.47,1.35 33.90,1.16 33.33,0.96 32.77,0.85 32.21,0.74 32.04,0.66 31.87,0.57 31.73,0.44 31.58,0.31 31.47,0.16 31.36,0.00 31.29,-0.17 31.22,-0.35 31.20,-0.54 31.17,-0.73 31.19,-0.93 31.22,-1.12 31.28,-1.30 31.35,-1.48 31.46,-1.64 31.57,-1.80 31.71,-1.93 31.85,-2.06 32.02,-2.15 32.19,-2.24 32.38,-2.28 32.57,-2.33 32.76,-2.33 32.95,-2.33 33.14,-2.29 33.33,-2.25 33.75,-1.58 34.17,-0.91 34.94,-0.89 35.71,-0.88 36.71,-0.82 37.70,-0.77 38.67,-0.74 39.63,-0.72 40.35,-0.94 41.08,-1.17 41.57,-1.46 42.06,-1.76 42.68,-1.91 43.29,-2.07 44.53,-0.64 45.77,0.78 46.85,1.80 47.93,2.82 48.73,3.87 49.53,4.92 50.08,5.56 50.62,6.19 50.98,6.94 51.34,7.68 51.44,8.85 51.55,10.01 50.93,11.04 50.30,12.07 49.09,12.75 47.88,13.43 47.23,13.94 46.59,14.45 46.44,14.58 46.30,14.71 46.13,14.80 45.96,14.89 45.77,14.94 45.58,14.99 45.38,14.99 45.19,14.99 45.00,14.94 44.81,14.90 44.64,14.81 44.47,14.72 44.32,14.59 44.18,14.46 44.07,14.30 43.95,14.14 43.88,13.96 43.81,13.78 43.79,13.59 43.77,13.39 43.79,13.20 43.81,13.01 43.88,12.82 43.95,12.64 44.06,12.48 44.17,12.32 45.36,11.61 46.55,10.89 47.25,10.32 47.95,9.75 49.25,9.12 50.55,8.49 51.76,7.77 52.96,7.06 53.61,6.34 54.25,5.63 55.13,4.74 56.01,3.85 56.62,3.24 57.23,2.62 57.42,1.63 57.61,0.63 57.55,0.08 57.50,-0.46 56.93,-0.54 56.37,-0.63 55.61,-0.50 54.85,-0.37 53.92,0.32 52.99,1.02 52.40,1.94 51.81,2.85 51.59,4.09 51.37,5.32 51.73,6.67 52.09,8.02 53.14,9.21 54.18,10.41 56.28,11.38 58.37,12.35 59.66,12.52 60.96,12.69 62.85,12.91 64.75,13.14 64.85,13.14 64.96,13.15 65.06,13.19 65.16,13.23 65.24,13.29 65.32,13.36 65.37,13.45 65.43,13.54 65.45,13.65 65.48,13.75 65.46,13.86 65.45,13.96 65.41,14.06 65.37,14.16 65.29,14.23 65.22,14.31 65.13,14.36 65.03,14.41 64.93,14.43 64.82,14.45 64.72,14.43 64.61,14.41 64.52,14.36 64.43,14.32 64.35,14.24 64.28,14.16 64.23,14.07 64.19,13.97 64.18,13.86 64.16,13.76 64.19,13.65 64.21,13.55 64.26,13.46 64.32,13.37 64.40,13.30 64.48,13.23 64.58,13.19 64.68,13.15 64.78,13.14 64.89,13.14 64.99,13.17 65.09,13.19 65.18,13.25 65.27,13.31 65.33,13.40 65.40,13.48 65.43,13.58 65.47,13.68 65.47,13.79 65.47,13.89 65.44,13.99 65.40,14.10 65.34,14.18 65.27,14.27 65.19,14.33 65.10,14.39 65.00,14.41 64.89,14.44 64.89,14.44 64.89,14.44 62.70,15.13 60.50,15.83 58.75,15.53 56.99,15.23 54.38,13.87 51.77,12.50 50.40,10.68 49.02,8.85 48.62,6.80 48.23,4.75 48.69,2.92 49.15,1.08 50.18,-0.26 51.20,-1.61 52.83,-2.55 54.46,-3.49 56.02,-3.51 57.58,-3.52 58.78,-2.73 59.97,-1.93 60.35,-0.39 60.72,1.13 60.58,1.86 60.44,2.59 60.00,3.66 59.56,4.73 58.92,5.40 58.27,6.06 57.41,6.94 56.55,7.82 55.58,8.80 54.61,9.78 53.26,10.58 51.91,11.37 50.89,11.83 49.88,12.30 48.83,13.06 47.79,13.83 47.19,14.14 46.59,14.45 46.44,14.58 46.30,14.71 46.13,14.80 45.96,14.89 45.77,14.94 45.58,14.99 45.38,14.99 45.19,14.99 45.00,14.94 44.81,14.90 44.64,14.81 44.47,14.72 44.32,14.59 44.18,14.46 44.07,14.30 43.95,14.14 43.88,13.96 43.81,13.78 43.79,13.59 43.77,13.39 43.79,13.20 43.81,13.01 43.88,12.83 43.95,12.64 44.06,12.48 44.17,12.32 44.63,12.10 45.09,11.88 45.71,11.24 46.33,10.61 47.44,10.13 48.56,9.65 48.34,8.95 48.12,8.26 47.53,7.56 46.94,6.87 46.32,6.01 45.70,5.16 44.65,4.18 43.61,3.19 42.21,1.90 40.81,0.60 40.22,-0.60 39.63,-1.81 39.82,-2.89 40.01,-3.97 40.60,-4.44 41.19,-4.91 42.04,-5.02 42.90,-5.13 43.53,-4.97 44.15,-4.82 44.80,-4.34 45.44,-3.87 45.77,-2.95 46.11,-2.03 45.90,-1.24 45.70,-0.45 44.65,0.28 43.60,1.03 42.76,1.47 41.92,1.91 40.75,2.18 39.58,2.46 38.55,2.43 37.52,2.41 36.30,2.33 35.09,2.26 34.07,2.00 33.05,1.74 32.63,1.24 32.21,0.74 32.04,0.66 31.87,0.57 31.73,0.44 31.58,0.31 31.47,0.16 31.36,0.00 31.29,-0.17 31.22,-0.35 31.20,-0.54 31.17,-0.73 31.19,-0.93 31.22,-1.12 31.28,-1.30 31.35,-1.48 31.46,-1.64 31.57,-1.80 31.71,-1.93 31.85,-2.06 32.02,-2.15 32.19,-2.24 32.38,-2.28 32.57,-2.33 32.76,-2.33 32.95,-2.33 33.14,-2.29 33.33,-2.25 33.88,-2.14 34.44,-2.03 35.27,-1.70 36.09,-1.38 37.34,-0.55 38.59,0.26 39.28,1.43 39.97,2.60 39.97,3.68 39.97,4.76 39.47,5.80 38.97,6.83 38.33,8.08 37.68,9.33 36.81,10.19 35.93,11.04 34.90,11.45 33.86,11.87 32.31,12.07 30.77,12.27 29.16,11.98 27.56,11.69 26.75,10.91 25.94,10.14 25.75,9.09 25.56,8.05 25.38,6.83 25.20,5.62 25.45,4.48 25.70,3.34 26.27,2.14 26.84,0.94 27.69,0.23 28.54,-0.47 29.20,-0.56 29.86,-0.65 30.74,-0.63 31.61,-0.61 32.21,-0.50 32.80,-0.39 31.95,-0.08 31.11,0.21 31.23,0.08 31.36,-0.04 31.51,-0.14 31.66,-0.24 31.83,-0.30 32.01,-0.35 32.19,-0.37 32.37,-0.39 32.55,-0.36 32.73,-0.33 32.90,-0.26 33.06,-0.19 33.21,-0.08 33.36,0.01 33.47,0.15 33.59,0.29 33.67,0.46 33.75,0.62 33.79,0.80 33.82,0.98 33.82,1.16 33.81,1.34 33.76,1.52 33.71,1.69 33.62,1.85 33.53,2.01 33.11,2.18 32.69,2.36 32.18,2.86 31.67,3.36 31.15,3.52 30.63,3.68 29.74,4.07 28.84,4.46 27.91,4.61 26.97,4.75 25.76,5.15 24.55,5.55 23.43,5.91 22.30,6.27 20.89,6.39 19.47,6.50 18.40,6.04 17.34,5.58 16.64,4.56 15.94,3.53 16.47,3.92 16.99,4.32 16.82,4.25 16.66,4.18 16.51,4.08 16.37,3.98 16.25,3.84 16.13,3.70 16.05,3.54 15.97,3.38 15.93,3.21 15.89,3.03 15.90,2.86 15.90,2.68 15.94,2.50 15.99,2.33 16.08,2.17 16.16,2.02 16.28,1.88 16.40,1.75 16.55,1.65 16.70,1.55 16.87,1.49 17.04,1.43 17.22,1.41 17.40,1.39 17.57,1.42 17.75,1.44 18.39,1.54 19.03,1.64 20.12,1.97 21.21,2.30 22.15,2.93 23.10,3.55 24.01,4.61 24.92,5.66 24.94,6.94 24.96,8.21 24.74,9.52 24.52,10.83 23.90,11.82 23.28,12.81 22.41,13.31 21.54,13.81 20.38,14.36 19.23,14.90 18.40,14.79 17.57,14.67 16.56,14.19 15.54,13.71 14.90,12.65 14.25,11.58 14.31,10.52 14.37,9.45 14.66,7.76 14.94,6.06 15.61,4.83 16.28,3.60 17.02,3.05 17.75,2.50 17.89,2.39 18.02,2.28 18.18,2.20 18.34,2.12 18.51,2.09 18.68,2.05 18.85,2.05 19.03,2.06 19.20,2.11 19.37,2.15 19.52,2.24 19.67,2.32 19.80,2.44 19.93,2.56 20.02,2.71 20.12,2.86 20.18,3.02 20.23,3.19 20.25,3.36 20.27,3.54 20.24,3.71 20.22,3.88 20.15,4.05 20.08,4.21 19.98,4.35 19.87,4.49 19.63,4.98 19.38,5.47 18.82,6.06 18.26,6.65 17.58,7.42 16.89,8.18 15.80,9.49 14.70,10.79 13.44,11.90 12.19,13.00 11.05,13.70 9.90,14.40 8.72,14.60 7.53,14.81 6.27,14.46 5.00,14.11 4.50,13.57 3.99,13.02 3.75,12.33 3.50,11.64 3.67,10.67 3.84,9.70 4.27,8.53 4.70,7.36 5.01,6.61 5.33,5.85 5.56,5.03 5.78,4.21 6.13,2.93 6.49,1.65 5.93,1.18 5.38,0.71 4.70,0.86 4.03,1.01 3.29,1.50 2.54,2.00 1.47,2.89 0.40,3.78 0.35,3.93 0.31,4.08 0.24,4.21 0.16,4.34 0.06,4.45 -0.04,4.56 -0.16,4.64 -0.29,4.72 -0.44,4.77 -0.58,4.82 -0.73,4.83 -0.88,4.85 -1.03,4.82 -1.18,4.80 -1.32,4.74 -1.46,4.68 -1.58,4.59 -1.71,4.50 -1.80,4.38 -1.90,4.27 -1.96,4.13 -2.03,3.99 -2.06,3.85 -2.09,3.70 -2.09,3.55 -2.08,3.39 -1.95,3.27 -1.81,3.14 -1.68,2.49 -1.54,1.84 -1.09,0.84 -0.63,-0.15 -0.60,-0.23 -0.58,-0.30 -0.53,-0.37 -0.49,-0.43 -0.43,-0.48 -0.37,-0.54 -0.30,-0.57 -0.23,-0.61 -0.15,-0.63 -0.07,-0.65 0.00,-0.65 0.08,-0.65 0.15,-0.63 0.23,-0.61 0.30,-0.57 0.37,-0.53 0.43,-0.48 0.49,-0.43 0.53,-0.36 0.58,-0.30 0.61,-0.22 0.63,-0.15 0.64,-0.07 0.65,0.00 0.64,0.08 0.63,0.15 0.63,0.15 L 0.63,0.15 Z"/></g><g transform="translate(230.00192260742188 439.9622039794922) rotate(0 0.4564208984375 8.2158203125)" stroke="none"><path fill="#6741d9" d="M -0.20,0.62 Q -0.20,0.62 -1.08,0.75 -1.95,0.88 -2.48,1.05 -3.01,1.23 -3.96,1.75 -4.92,2.28 -5.58,2.74 -6.25,3.20 -6.94,4.07 -7.64,4.95 -8.21,5.82 -8.77,6.69 -8.95,7.42 -9.12,8.15 -9.21,9.18 -9.30,10.21 -8.85,11.49 -8.40,12.78 -7.98,13.59 -7.56,14.39 -7.36,15.10 -7.16,15.81 -6.69,15.22 -6.23,14.63 -5.80,14.30 -5.37,13.98 -5.05,13.46 -4.74,12.94 -4.64,12.36 -4.55,11.77 -4.48,11.24 -4.41,10.71 -4.25,10.05 -4.09,9.38 -4.61,9.14 -5.13,8.90 -5.46,8.22 -5.79,7.55 -5.90,6.95 -6.00,6.35 -6.06,5.36 -6.11,4.36 -5.98,3.63 -5.86,2.90 -4.98,2.29 -4.10,1.68 -3.26,1.90 -2.43,2.12 -1.98,2.76 -1.52,3.40 -1.39,4.01 -1.26,4.61 -1.00,5.60 -0.74,6.59 -0.58,7.28 -0.43,7.96 -0.16,8.59 0.10,9.22 0.27,10.22 0.44,11.22 0.90,11.80 1.36,12.39 2.16,12.63 2.95,12.88 3.48,12.26 4.01,11.64 4.88,10.85 5.75,10.06 6.30,9.30 6.85,8.53 7.42,7.86 7.99,7.18 8.41,6.49 8.83,5.79 9.96,4.70 11.10,3.60 11.17,3.53 11.24,3.45 11.34,3.40 11.43,3.35 11.54,3.33 11.64,3.32 11.75,3.33 11.85,3.35 11.95,3.40 12.04,3.45 12.11,3.53 12.19,3.60 12.23,3.70 12.27,3.80 12.29,3.90 12.30,4.01 12.27,4.11 12.25,4.22 12.20,4.31 12.14,4.40 12.06,4.47 11.98,4.53 11.88,4.57 11.78,4.61 11.68,4.62 11.57,4.62 11.47,4.60 11.37,4.57 11.28,4.51 11.19,4.45 11.13,4.36 11.06,4.28 11.03,4.18 10.99,4.08 10.99,3.97 10.99,3.86 11.03,3.76 11.06,3.66 11.13,3.58 11.19,3.49 11.28,3.43 11.37,3.38 11.47,3.35 11.57,3.32 11.68,3.32 11.78,3.33 11.88,3.37 11.98,3.41 12.06,3.48 12.14,3.55 12.20,3.64 12.25,3.73 12.27,3.83 12.30,3.94 12.29,4.04 12.27,4.15 12.23,4.24 12.18,4.34 12.18,4.34 12.18,4.34 11.90,5.92 11.61,7.50 11.05,8.40 10.48,9.29 9.97,9.89 9.45,10.48 8.69,11.48 7.92,12.47 6.94,13.34 5.95,14.21 4.57,15.03 3.20,15.85 1.70,15.61 0.20,15.36 -0.52,14.78 -1.25,14.19 -1.96,13.01 -2.66,11.82 -2.76,11.12 -2.85,10.41 -3.28,9.07 -3.72,7.73 -4.04,6.80 -4.36,5.87 -4.25,5.25 -4.14,4.64 -3.56,4.46 -2.98,4.27 -2.95,5.08 -2.92,5.88 -2.60,6.59 -2.29,7.30 -1.86,7.88 -1.43,8.47 -1.33,9.24 -1.23,10.01 -1.28,10.59 -1.33,11.17 -1.43,11.86 -1.54,12.55 -1.88,13.61 -2.21,14.66 -2.89,15.54 -3.57,16.41 -4.26,16.88 -4.96,17.36 -5.72,17.70 -6.49,18.05 -7.28,18.13 -8.07,18.21 -8.96,17.57 -9.85,16.93 -10.04,16.33 -10.23,15.73 -10.75,14.70 -11.26,13.66 -11.76,11.84 -12.27,10.02 -12.13,8.68 -12.00,7.35 -11.64,6.22 -11.29,5.09 -10.61,4.06 -9.93,3.03 -8.94,1.89 -7.95,0.75 -7.11,0.19 -6.27,-0.37 -4.92,-1.02 -3.56,-1.67 -2.38,-1.80 -1.19,-1.93 -0.49,-1.27 0.20,-0.62 0.27,-0.58 0.35,-0.55 0.41,-0.50 0.47,-0.45 0.52,-0.39 0.56,-0.32 0.59,-0.25 0.63,-0.18 0.64,-0.10 0.65,-0.02 0.64,0.05 0.64,0.13 0.61,0.20 0.59,0.28 0.55,0.34 0.50,0.41 0.45,0.46 0.39,0.52 0.32,0.56 0.25,0.60 0.18,0.62 0.10,0.64 0.02,0.65 -0.05,0.65 -0.13,0.63 -0.20,0.62 -0.20,0.62 L -0.20,0.62 Z"/></g><g transform="translate(264.6910095214844 455.4810028076172) rotate(0 8.672271728515625 -8.215850830078125)" stroke="none"><path fill="#6741d9" d="M -0.54,-0.36 Q -0.54,-0.36 0.22,-2.12 0.99,-3.88 1.63,-5.27 2.26,-6.66 2.76,-8.48 3.25,-10.31 3.20,-11.69 3.14,-13.07 2.66,-14.00 2.19,-14.93 1.57,-15.49 0.95,-16.05 0.35,-16.37 -0.24,-16.70 -0.35,-16.84 -0.46,-16.99 -0.53,-17.16 -0.61,-17.33 -0.64,-17.51 -0.67,-17.70 -0.65,-17.88 -0.64,-18.07 -0.58,-18.24 -0.52,-18.42 -0.43,-18.57 -0.33,-18.73 -0.20,-18.86 -0.06,-18.99 0.09,-19.08 0.25,-19.18 0.42,-19.23 0.60,-19.28 0.79,-19.29 0.97,-19.30 1.15,-19.26 1.34,-19.22 1.50,-19.15 1.67,-19.07 1.81,-18.95 1.96,-18.83 2.77,-17.88 3.59,-16.93 5.05,-16.19 6.51,-15.46 8.32,-14.26 10.14,-13.06 12.23,-11.49 14.33,-9.92 15.57,-8.63 16.82,-7.35 17.46,-5.65 18.10,-3.95 17.50,-2.17 16.90,-0.40 15.94,0.66 14.99,1.73 11.88,1.68 8.76,1.63 8.66,1.60 8.56,1.57 8.47,1.51 8.39,1.45 8.32,1.37 8.26,1.28 8.22,1.18 8.19,1.08 8.19,0.98 8.19,0.87 8.23,0.77 8.26,0.67 8.32,0.58 8.39,0.50 8.48,0.44 8.57,0.38 8.67,0.35 8.77,0.33 8.88,0.33 8.98,0.34 9.08,0.38 9.18,0.42 9.26,0.49 9.34,0.56 9.40,0.65 9.45,0.74 9.47,0.84 9.49,0.95 9.48,1.05 9.47,1.16 9.43,1.25 9.38,1.35 9.31,1.43 9.23,1.50 9.14,1.55 9.05,1.60 8.94,1.62 8.84,1.64 8.73,1.62 8.63,1.60 8.53,1.55 8.44,1.50 8.37,1.42 8.29,1.34 8.25,1.25 8.21,1.15 8.19,1.05 8.18,0.94 8.21,0.84 8.23,0.73 8.28,0.64 8.34,0.55 8.42,0.48 8.50,0.41 8.60,0.38 8.70,0.34 8.81,0.33 8.91,0.33 8.91,0.33 8.91,0.33 10.88,-0.10 12.85,-0.53 13.44,-1.12 14.03,-1.71 14.59,-2.61 15.15,-3.51 14.83,-4.38 14.50,-5.26 13.47,-6.34 12.44,-7.42 10.43,-8.93 8.41,-10.45 6.72,-11.58 5.04,-12.70 3.20,-13.73 1.36,-14.75 0.56,-15.72 -0.24,-16.70 -0.35,-16.84 -0.46,-16.99 -0.53,-17.16 -0.61,-17.33 -0.64,-17.51 -0.67,-17.70 -0.65,-17.88 -0.64,-18.07 -0.58,-18.24 -0.52,-18.42 -0.43,-18.57 -0.33,-18.73 -0.20,-18.86 -0.06,-18.99 0.09,-19.08 0.25,-19.17 0.42,-19.23 0.60,-19.28 0.79,-19.29 0.97,-19.30 1.15,-19.26 1.34,-19.22 1.50,-19.15 1.67,-19.07 1.81,-18.95 1.96,-18.83 2.52,-18.50 3.09,-18.16 3.97,-17.17 4.86,-16.18 5.45,-14.69 6.05,-13.20 6.04,-11.37 6.03,-9.53 5.39,-7.49 4.76,-5.45 3.98,-3.93 3.20,-2.41 1.87,-1.02 0.54,0.36 0.49,0.42 0.44,0.48 0.37,0.53 0.31,0.57 0.24,0.60 0.16,0.63 0.08,0.64 0.01,0.65 -0.06,0.64 -0.14,0.64 -0.22,0.61 -0.29,0.58 -0.36,0.54 -0.42,0.49 -0.48,0.44 -0.53,0.38 -0.57,0.31 -0.61,0.24 -0.63,0.16 -0.65,0.08 -0.65,0.01 -0.65,-0.06 -0.63,-0.14 -0.61,-0.22 -0.58,-0.29 -0.54,-0.36 -0.54,-0.36 L -0.54,-0.36 Z"/></g><g transform="translate(287.5127868652344 450.00376892089844) rotate(0 -0.000030517578125 -18.7138671875)" stroke="none"><path fill="#6741d9" d="M -0.65,0.08 Q -0.65,0.08 -1.31,-1.96 -1.98,-4.01 -2.13,-6.80 -2.27,-9.59 -2.08,-12.68 -1.88,-15.76 -1.79,-18.84 -1.70,-21.92 -1.40,-25.13 -1.09,-28.34 -0.45,-32.06 0.17,-35.79 0.19,-35.89 0.22,-35.99 0.27,-36.09 0.32,-36.18 0.40,-36.25 0.49,-36.32 0.58,-36.36 0.68,-36.40 0.79,-36.40 0.89,-36.41 1.00,-36.38 1.10,-36.35 1.19,-36.29 1.28,-36.23 1.34,-36.15 1.41,-36.07 1.44,-35.97 1.47,-35.86 1.48,-35.76 1.48,-35.65 1.44,-35.55 1.41,-35.45 1.35,-35.37 1.28,-35.28 1.19,-35.22 1.11,-35.16 1.00,-35.13 0.90,-35.10 0.80,-35.11 0.69,-35.11 0.59,-35.15 0.49,-35.19 0.41,-35.26 0.33,-35.33 0.27,-35.42 0.22,-35.51 0.20,-35.61 0.17,-35.72 0.18,-35.82 0.19,-35.93 0.24,-36.02 0.28,-36.12 0.35,-36.20 0.43,-36.28 0.52,-36.33 0.61,-36.38 0.72,-36.39 0.82,-36.41 0.93,-36.39 1.03,-36.38 1.13,-36.33 1.22,-36.28 1.30,-36.20 1.37,-36.13 1.41,-36.03 1.46,-35.93 1.47,-35.83 1.48,-35.72 1.48,-35.72 1.48,-35.72 1.75,-31.88 2.02,-28.04 1.73,-24.93 1.43,-21.82 1.34,-18.68 1.24,-15.54 1.01,-12.63 0.78,-9.71 0.85,-7.05 0.93,-4.38 0.79,-2.23 0.65,-0.08 0.65,-0.00 0.65,0.07 0.63,0.15 0.61,0.23 0.57,0.30 0.54,0.37 0.48,0.43 0.43,0.48 0.37,0.53 0.30,0.58 0.23,0.60 0.15,0.63 0.08,0.64 0.00,0.65 -0.07,0.64 -0.15,0.63 -0.22,0.61 -0.30,0.58 -0.36,0.53 -0.43,0.49 -0.48,0.43 -0.53,0.37 -0.57,0.30 -0.61,0.23 -0.63,0.15 -0.65,0.08 -0.65,0.08 L -0.65,0.08 Z"/></g><g transform="translate(290.2513732910156 441.78794860839844) rotate(0 19.626739501953125 10.954437255859375)" stroke="none"><path fill="#6741d9" d="M -0.15,-0.63 Q -0.15,-0.63 0.79,-1.26 1.75,-1.89 2.81,-2.02 3.88,-2.15 5.14,-2.20 6.41,-2.26 7.41,-1.99 8.42,-1.71 9.34,-0.98 10.26,-0.24 10.43,0.75 10.60,1.76 10.32,3.00 10.04,4.24 9.66,5.52 9.27,6.80 9.14,7.99 9.01,9.18 8.82,9.70 8.63,10.21 9.20,10.45 9.76,10.69 10.81,10.82 11.85,10.95 13.69,10.30 15.53,9.65 17.07,8.65 18.60,7.65 20.10,6.67 21.60,5.70 22.65,4.60 23.69,3.50 25.15,2.63 26.61,1.76 27.39,2.61 28.17,3.46 27.84,4.81 27.51,6.15 26.67,7.14 25.84,8.13 24.82,8.84 23.80,9.54 22.47,9.60 21.13,9.65 20.08,8.88 19.03,8.10 18.56,6.23 18.10,4.35 17.98,2.83 17.86,1.32 18.11,-0.04 18.36,-1.41 19.15,-2.47 19.94,-3.53 21.03,-4.03 22.13,-4.54 23.45,-4.37 24.78,-4.20 25.75,-3.16 26.72,-2.11 27.33,-0.84 27.93,0.42 28.65,1.63 29.36,2.84 29.89,3.58 30.43,4.31 31.45,4.52 32.47,4.72 33.13,4.55 33.79,4.39 34.41,3.67 35.04,2.95 35.59,2.17 36.15,1.40 36.31,0.47 36.48,-0.44 36.89,-1.55 37.29,-2.65 37.42,-3.48 37.55,-4.30 37.61,-4.92 37.67,-5.55 37.69,-6.09 37.72,-6.64 37.76,-6.82 37.80,-6.99 37.88,-7.15 37.96,-7.32 38.08,-7.45 38.19,-7.59 38.34,-7.69 38.49,-7.80 38.65,-7.87 38.82,-7.93 39.00,-7.96 39.18,-7.98 39.36,-7.97 39.54,-7.95 39.71,-7.89 39.88,-7.83 40.03,-7.73 40.18,-7.63 40.30,-7.49 40.42,-7.36 40.51,-7.20 40.59,-7.04 40.64,-6.87 40.69,-6.70 40.69,-6.52 40.69,-6.34 40.35,-5.24 40.00,-4.15 39.68,-2.58 39.37,-1.00 39.25,0.84 39.13,2.69 38.81,5.91 38.49,9.12 38.36,12.27 38.23,15.42 38.17,18.34 38.11,21.25 37.80,23.37 37.48,25.49 36.90,27.03 36.33,28.57 36.30,28.67 36.27,28.77 36.21,28.86 36.15,28.95 36.07,29.01 35.98,29.08 35.88,29.11 35.78,29.15 35.67,29.15 35.57,29.15 35.47,29.11 35.37,29.08 35.28,29.02 35.20,28.95 35.14,28.86 35.08,28.78 35.05,28.67 35.02,28.57 35.03,28.46 35.03,28.36 35.07,28.26 35.11,28.16 35.18,28.08 35.25,28.00 35.34,27.94 35.43,27.89 35.53,27.87 35.64,27.84 35.74,27.85 35.85,27.87 35.95,27.91 36.04,27.96 36.12,28.03 36.20,28.10 36.25,28.20 36.30,28.29 36.31,28.39 36.33,28.50 36.31,28.60 36.30,28.71 36.25,28.80 36.20,28.90 36.12,28.97 36.04,29.04 35.95,29.09 35.85,29.13 35.74,29.14 35.64,29.15 35.53,29.13 35.43,29.11 35.34,29.05 35.25,29.00 35.18,28.92 35.11,28.84 35.07,28.74 35.03,28.64 35.03,28.53 35.02,28.43 35.02,28.43 35.02,28.43 34.79,26.76 34.56,25.08 34.82,23.14 35.08,21.19 35.14,18.24 35.19,15.29 35.33,12.06 35.47,8.82 35.78,5.65 36.10,2.49 36.25,0.44 36.39,-1.60 36.69,-3.03 36.98,-4.46 37.35,-5.55 37.72,-6.64 37.76,-6.82 37.80,-6.99 37.88,-7.15 37.96,-7.32 38.08,-7.45 38.19,-7.59 38.34,-7.69 38.49,-7.80 38.65,-7.87 38.82,-7.93 39.00,-7.96 39.18,-7.98 39.36,-7.97 39.54,-7.95 39.71,-7.89 39.88,-7.83 40.03,-7.73 40.18,-7.63 40.30,-7.49 40.42,-7.36 40.51,-7.20 40.59,-7.05 40.64,-6.87 40.69,-6.70 40.69,-6.52 40.69,-6.34 40.66,-5.79 40.63,-5.24 40.55,-4.53 40.47,-3.81 40.27,-2.72 40.08,-1.62 39.72,-0.68 39.37,0.24 38.97,1.65 38.58,3.07 37.82,4.08 37.06,5.10 35.83,6.12 34.60,7.15 33.35,7.39 32.11,7.62 30.81,7.37 29.52,7.12 28.81,6.60 28.09,6.08 27.46,5.21 26.83,4.33 26.05,3.00 25.27,1.66 24.81,0.64 24.36,-0.37 24.08,-1.00 23.79,-1.64 22.92,-1.60 22.05,-1.56 21.61,-1.13 21.17,-0.70 20.99,0.20 20.81,1.11 20.92,2.47 21.02,3.84 21.10,5.04 21.18,6.24 21.80,6.62 22.42,6.99 23.04,6.54 23.66,6.09 24.21,5.60 24.75,5.10 25.33,4.63 25.91,4.17 25.85,4.85 25.79,5.53 24.50,6.84 23.21,8.15 21.69,9.14 20.16,10.12 18.29,11.28 16.42,12.43 13.95,13.13 11.47,13.83 9.77,13.44 8.07,13.06 7.12,12.07 6.16,11.08 6.11,9.95 6.06,8.82 6.25,7.39 6.43,5.95 6.80,4.74 7.17,3.53 7.36,2.26 7.54,0.99 7.00,0.78 6.46,0.57 5.33,0.61 4.20,0.65 3.32,0.75 2.44,0.84 1.29,0.74 0.15,0.63 0.08,0.64 0.00,0.65 -0.07,0.64 -0.15,0.63 -0.22,0.61 -0.30,0.58 -0.36,0.53 -0.43,0.49 -0.48,0.43 -0.53,0.37 -0.57,0.30 -0.61,0.23 -0.63,0.15 -0.65,0.08 -0.65,0.00 -0.65,-0.07 -0.63,-0.15 -0.61,-0.23 -0.57,-0.30 -0.54,-0.37 -0.48,-0.43 -0.43,-0.49 -0.37,-0.53 -0.30,-0.58 -0.23,-0.60 -0.15,-0.63 -0.15,-0.63 L -0.15,-0.63 Z"/></g><g transform="translate(324.9404602050781 439.04930114746094) rotate(0 12.323760986328125 5.93365478515625)" stroke="none"><path fill="#6741d9" d="M 0.15,-0.63 Q 0.15,-0.63 1.26,-0.67 2.36,-0.71 3.10,-0.87 3.84,-1.03 5.02,-1.35 6.21,-1.66 7.82,-1.26 9.44,-0.87 10.55,0.05 11.65,0.97 11.92,2.38 12.18,3.78 11.96,5.20 11.74,6.63 11.33,7.60 10.91,8.57 9.82,9.65 8.73,10.73 7.93,11.19 7.13,11.66 6.45,11.87 5.78,12.09 5.27,12.42 4.77,12.76 4.60,12.79 4.43,12.81 4.26,12.80 4.08,12.78 3.92,12.73 3.76,12.67 3.61,12.58 3.46,12.49 3.34,12.36 3.22,12.24 3.14,12.09 3.05,11.94 3.00,11.77 2.96,11.60 2.95,11.43 2.94,11.26 2.98,11.09 3.01,10.92 3.09,10.76 3.16,10.60 3.27,10.47 3.38,10.34 3.52,10.23 3.66,10.13 3.82,10.06 3.98,9.99 4.77,10.17 5.56,10.34 6.55,10.13 7.53,9.92 9.23,9.55 10.93,9.17 12.28,8.55 13.62,7.92 14.91,6.92 16.20,5.93 17.23,4.78 18.26,3.63 18.89,2.22 19.52,0.81 20.12,-0.12 20.71,-1.06 20.11,-1.21 19.50,-1.36 18.44,-0.64 17.37,0.06 16.71,0.77 16.04,1.48 15.86,2.61 15.67,3.74 15.55,5.52 15.42,7.30 15.84,8.89 16.26,10.48 17.24,11.46 18.23,12.43 20.82,13.10 23.41,13.76 23.51,13.80 23.62,13.83 23.70,13.89 23.79,13.95 23.85,14.04 23.91,14.13 23.94,14.23 23.97,14.33 23.97,14.43 23.96,14.54 23.93,14.64 23.89,14.74 23.82,14.82 23.76,14.91 23.67,14.96 23.58,15.02 23.47,15.04 23.37,15.07 23.26,15.06 23.16,15.05 23.06,15.01 22.96,14.97 22.89,14.89 22.81,14.82 22.75,14.73 22.70,14.64 22.68,14.53 22.66,14.43 22.68,14.32 22.69,14.22 22.74,14.12 22.79,14.03 22.86,13.95 22.94,13.88 23.04,13.83 23.13,13.79 23.24,13.77 23.34,13.76 23.45,13.78 23.55,13.80 23.64,13.85 23.73,13.90 23.81,13.98 23.88,14.06 23.92,14.16 23.96,14.26 23.97,14.36 23.97,14.47 23.95,14.57 23.92,14.68 23.86,14.77 23.81,14.86 23.72,14.92 23.64,14.99 23.54,15.02 23.44,15.06 23.33,15.06 23.23,15.06 23.23,15.06 23.23,15.06 19.82,14.88 16.42,14.71 14.92,13.04 13.41,11.38 12.91,9.25 12.41,7.11 12.59,5.06 12.76,3.01 13.30,1.31 13.83,-0.39 14.85,-1.41 15.88,-2.43 17.55,-3.32 19.22,-4.21 20.38,-4.10 21.53,-4.00 22.39,-3.03 23.25,-2.06 23.23,-0.94 23.21,0.17 22.65,1.10 22.10,2.02 21.24,3.77 20.39,5.52 19.16,6.86 17.93,8.20 16.38,9.35 14.82,10.51 13.19,11.24 11.56,11.97 9.95,12.33 8.34,12.68 7.29,12.94 6.23,13.20 5.50,12.98 4.77,12.76 4.60,12.79 4.43,12.81 4.26,12.80 4.08,12.78 3.92,12.73 3.76,12.67 3.61,12.58 3.46,12.49 3.34,12.36 3.22,12.24 3.14,12.09 3.05,11.94 3.00,11.77 2.96,11.60 2.95,11.43 2.94,11.26 2.98,11.09 3.01,10.92 3.09,10.76 3.16,10.60 3.27,10.47 3.38,10.34 3.52,10.23 3.66,10.13 3.82,10.06 3.98,9.99 4.87,9.58 5.77,9.16 6.29,8.89 6.82,8.62 7.61,7.98 8.40,7.33 8.70,6.72 9.01,6.11 9.24,5.04 9.47,3.97 9.57,3.21 9.67,2.46 9.15,2.00 8.62,1.55 7.65,1.18 6.67,0.80 5.45,1.14 4.23,1.48 3.03,1.62 1.83,1.76 0.83,1.19 -0.15,0.63 -0.23,0.60 -0.30,0.58 -0.37,0.53 -0.43,0.49 -0.48,0.43 -0.54,0.37 -0.57,0.30 -0.61,0.23 -0.63,0.15 -0.65,0.07 -0.65,-0.00 -0.65,-0.08 -0.63,-0.15 -0.61,-0.23 -0.57,-0.30 -0.53,-0.37 -0.48,-0.43 -0.43,-0.49 -0.36,-0.53 -0.30,-0.58 -0.22,-0.61 -0.15,-0.63 -0.07,-0.64 0.00,-0.65 0.08,-0.64 0.15,-0.63 0.15,-0.63 L 0.15,-0.63 Z"/></g><g transform="translate(372.4097595214844 448.1780242919922) rotate(0 18.713836669921875 -10.498016357421875)" stroke="none"><path fill="#6741d9" d="M -0.50,-0.42 Q -0.50,-0.42 0.55,-2.20 1.61,-3.99 3.15,-6.22 4.70,-8.44 6.14,-10.69 7.57,-12.95 9.20,-15.97 10.84,-18.99 11.76,-21.50 12.69,-24.01 12.79,-25.98 12.89,-27.94 12.76,-29.08 12.63,-30.23 11.75,-30.71 10.87,-31.19 9.60,-30.38 8.32,-29.57 7.74,-27.84 7.17,-26.12 6.34,-22.99 5.51,-19.86 4.90,-16.71 4.28,-13.56 4.03,-10.70 3.77,-7.84 3.40,-4.99 3.02,-2.13 2.86,0.31 2.71,2.77 2.64,4.35 2.57,5.92 2.80,7.51 3.02,9.10 3.11,10.20 3.20,11.29 2.38,12.33 1.56,13.38 0.58,13.38 -0.40,13.38 -1.27,12.64 -2.15,11.90 -2.95,10.81 -3.76,9.72 -4.52,9.10 -5.27,8.48 -5.34,8.25 -5.41,8.02 -5.54,7.88 -5.67,7.75 -5.76,7.58 -5.85,7.42 -5.90,7.24 -5.95,7.06 -5.96,6.87 -5.96,6.69 -5.93,6.50 -5.89,6.32 -5.81,6.15 -5.72,5.98 -5.60,5.84 -5.49,5.70 -5.33,5.58 -5.18,5.47 -5.01,5.40 -4.84,5.33 -4.65,5.30 -4.47,5.27 -4.28,5.29 -4.10,5.30 -3.92,5.37 -3.74,5.43 -3.58,5.53 -3.43,5.63 -1.78,5.64 -0.12,5.66 1.21,5.68 2.56,5.70 4.62,5.46 6.67,5.21 8.58,4.85 10.49,4.49 11.95,3.86 13.42,3.23 14.73,2.25 16.04,1.28 16.49,0.49 16.93,-0.29 17.46,-0.91 17.99,-1.52 17.49,-2.06 16.99,-2.59 15.96,-2.01 14.93,-1.42 14.48,-0.81 14.02,-0.20 13.89,0.37 13.75,0.96 13.91,1.75 14.06,2.55 14.94,2.75 15.83,2.94 16.74,2.51 17.65,2.07 18.45,1.25 19.26,0.43 19.53,-0.52 19.80,-1.47 19.98,-2.24 20.17,-3.01 19.26,-3.67 18.35,-4.33 17.60,-4.78 16.85,-5.22 16.23,-5.43 15.61,-5.64 15.46,-5.76 15.31,-5.87 15.19,-6.02 15.08,-6.17 15.00,-6.34 14.92,-6.52 14.89,-6.70 14.85,-6.89 14.87,-7.08 14.88,-7.27 14.93,-7.45 14.99,-7.63 15.09,-7.79 15.19,-7.95 15.32,-8.09 15.45,-8.22 15.62,-8.32 15.78,-8.42 15.96,-8.47 16.14,-8.53 16.33,-8.54 16.52,-8.55 16.70,-8.52 16.89,-8.48 17.06,-8.40 17.24,-8.33 18.26,-7.88 19.28,-7.44 20.53,-7.34 21.77,-7.24 23.63,-7.17 25.50,-7.11 26.96,-7.34 28.42,-7.56 29.71,-8.14 30.99,-8.71 31.79,-9.20 32.58,-9.68 33.36,-9.97 34.14,-10.26 34.67,-10.35 35.21,-10.45 35.39,-10.49 35.57,-10.53 35.76,-10.52 35.95,-10.52 36.13,-10.47 36.31,-10.42 36.47,-10.33 36.63,-10.24 36.77,-10.11 36.91,-9.98 37.01,-9.83 37.11,-9.67 37.18,-9.49 37.24,-9.32 37.26,-9.13 37.27,-8.94 37.25,-8.76 37.22,-8.57 37.15,-8.40 37.08,-8.23 36.97,-8.08 36.86,-7.92 36.71,-7.80 36.57,-7.68 36.40,-7.60 36.24,-7.52 35.77,-7.05 35.31,-6.58 34.80,-5.60 34.29,-4.62 33.75,-3.62 33.21,-2.63 33.06,-1.61 32.90,-0.59 32.49,0.36 32.08,1.31 32.52,2.22 32.95,3.13 34.03,3.57 35.11,4.01 36.70,3.97 38.28,3.93 40.11,4.01 41.94,4.08 42.05,4.07 42.15,4.07 42.25,4.10 42.36,4.13 42.44,4.19 42.53,4.26 42.59,4.34 42.65,4.43 42.68,4.53 42.72,4.63 42.71,4.74 42.71,4.84 42.67,4.94 42.64,5.04 42.57,5.13 42.51,5.21 42.42,5.27 42.33,5.32 42.22,5.35 42.12,5.38 42.01,5.37 41.91,5.36 41.81,5.32 41.71,5.28 41.63,5.21 41.56,5.13 41.50,5.04 41.45,4.95 41.43,4.85 41.41,4.74 41.42,4.64 41.44,4.53 41.48,4.44 41.53,4.34 41.61,4.26 41.68,4.19 41.78,4.14 41.87,4.09 41.98,4.08 42.08,4.07 42.19,4.08 42.29,4.10 42.38,4.16 42.48,4.21 42.55,4.29 42.62,4.37 42.66,4.46 42.70,4.56 42.71,4.67 42.72,4.77 42.70,4.88 42.67,4.98 42.61,5.07 42.56,5.16 42.47,5.23 42.39,5.29 42.29,5.33 42.19,5.37 42.19,5.37 42.19,5.37 40.24,6.17 38.28,6.98 36.09,6.92 33.90,6.87 32.26,6.03 30.63,5.19 29.77,3.86 28.92,2.54 29.08,1.28 29.23,0.02 29.55,-0.58 29.86,-1.19 30.17,-2.62 30.49,-4.05 31.06,-5.11 31.63,-6.16 32.49,-7.54 33.36,-8.91 34.01,-9.18 34.67,-9.44 34.94,-9.94 35.21,-10.45 35.39,-10.49 35.57,-10.53 35.76,-10.52 35.95,-10.52 36.13,-10.47 36.31,-10.42 36.47,-10.33 36.63,-10.24 36.77,-10.11 36.91,-9.98 37.01,-9.83 37.11,-9.67 37.18,-9.49 37.24,-9.32 37.26,-9.13 37.27,-8.94 37.25,-8.76 37.22,-8.57 37.15,-8.40 37.08,-8.23 36.97,-8.08 36.86,-7.92 36.71,-7.80 36.57,-7.68 36.40,-7.60 36.24,-7.52 35.20,-7.26 34.16,-7.01 33.19,-6.43 32.21,-5.86 30.55,-5.18 28.90,-4.51 27.16,-4.26 25.41,-4.01 23.43,-4.07 21.46,-4.13 19.84,-4.31 18.21,-4.50 16.91,-5.07 15.61,-5.64 15.46,-5.76 15.31,-5.87 15.19,-6.02 15.08,-6.17 15.00,-6.34 14.92,-6.52 14.89,-6.70 14.85,-6.89 14.87,-7.08 14.88,-7.27 14.93,-7.45 14.99,-7.63 15.09,-7.79 15.19,-7.95 15.32,-8.09 15.45,-8.22 15.62,-8.32 15.78,-8.42 15.96,-8.47 16.14,-8.53 16.33,-8.54 16.52,-8.55 16.70,-8.52 16.89,-8.48 17.06,-8.40 17.24,-8.33 17.84,-8.11 18.45,-7.90 19.36,-7.34 20.27,-6.78 21.14,-6.03 22.02,-5.28 22.55,-4.16 23.08,-3.04 22.89,-1.73 22.69,-0.42 22.07,1.05 21.45,2.52 20.16,3.70 18.88,4.88 17.33,5.44 15.79,6.01 14.34,5.77 12.89,5.53 11.97,4.35 11.05,3.17 10.90,1.66 10.75,0.16 11.14,-0.96 11.53,-2.08 12.31,-3.02 13.09,-3.97 14.21,-4.68 15.32,-5.39 16.48,-5.50 17.65,-5.61 18.47,-5.17 19.28,-4.73 19.99,-3.73 20.69,-2.73 20.64,-1.42 20.60,-0.11 20.07,0.62 19.54,1.37 18.73,2.54 17.92,3.72 16.28,4.90 14.64,6.08 12.86,6.82 11.08,7.55 9.05,7.93 7.03,8.30 4.77,8.56 2.51,8.82 1.12,8.80 -0.26,8.77 -1.73,8.70 -3.20,8.63 -4.31,8.32 -5.41,8.02 -5.54,7.88 -5.67,7.75 -5.76,7.59 -5.85,7.42 -5.90,7.24 -5.95,7.06 -5.96,6.87 -5.96,6.69 -5.93,6.50 -5.89,6.32 -5.81,6.15 -5.72,5.98 -5.60,5.84 -5.49,5.70 -5.34,5.58 -5.18,5.47 -5.01,5.40 -4.84,5.33 -4.65,5.30 -4.47,5.27 -4.28,5.29 -4.10,5.30 -3.92,5.37 -3.74,5.43 -3.58,5.53 -3.43,5.63 -3.30,5.99 -3.18,6.35 -2.25,7.13 -1.32,7.91 -0.63,8.87 0.05,9.83 0.10,10.57 0.15,11.31 0.04,10.42 -0.06,9.52 -0.30,7.66 -0.55,5.79 -0.48,4.18 -0.41,2.57 -0.25,0.01 -0.08,-2.55 0.28,-5.34 0.66,-8.13 0.93,-11.14 1.21,-14.16 1.85,-17.41 2.49,-20.67 3.37,-23.96 4.25,-27.25 5.23,-29.53 6.22,-31.81 7.87,-32.98 9.52,-34.15 11.04,-33.96 12.55,-33.76 13.94,-32.49 15.33,-31.22 15.59,-29.48 15.86,-27.74 15.66,-25.38 15.46,-23.02 14.43,-20.30 13.41,-17.59 11.70,-14.49 9.98,-11.38 8.47,-9.10 6.97,-6.82 5.30,-4.56 3.63,-2.30 2.07,-0.94 0.50,0.42 0.44,0.47 0.38,0.52 0.32,0.56 0.25,0.60 0.17,0.62 0.09,0.64 0.01,0.65 -0.05,0.65 -0.13,0.63 -0.21,0.62 -0.28,0.58 -0.35,0.55 -0.41,0.50 -0.47,0.45 -0.52,0.38 -0.57,0.32 -0.60,0.24 -0.63,0.17 -0.64,0.09 -0.65,0.01 -0.64,-0.05 -0.64,-0.13 -0.61,-0.21 -0.59,-0.28 -0.54,-0.35 -0.50,-0.42 -0.50,-0.42 L -0.50,-0.42 Z"/></g><g transform="translate(435.3978576660156 418.96617126464844) rotate(0 10.954437255859375 0.912872314453125)" stroke="none"><path fill="#6741d9" d="M 0.15,-0.63 Q 0.15,-0.63 1.30,-0.77 2.45,-0.91 4.68,-0.55 6.90,-0.19 9.12,-0.04 11.33,0.10 13.32,0.17 15.32,0.24 18.31,0.70 21.31,1.16 21.41,1.17 21.52,1.19 21.61,1.24 21.70,1.30 21.78,1.37 21.85,1.45 21.89,1.55 21.93,1.65 21.94,1.75 21.95,1.86 21.93,1.96 21.91,2.06 21.85,2.15 21.79,2.24 21.71,2.31 21.63,2.38 21.53,2.42 21.43,2.46 21.33,2.46 21.22,2.46 21.12,2.44 21.02,2.41 20.93,2.34 20.84,2.28 20.78,2.20 20.72,2.11 20.68,2.01 20.65,1.91 20.65,1.80 20.65,1.70 20.69,1.60 20.72,1.50 20.79,1.41 20.85,1.33 20.94,1.27 21.03,1.21 21.13,1.19 21.24,1.16 21.34,1.17 21.45,1.17 21.55,1.21 21.65,1.25 21.73,1.32 21.81,1.39 21.86,1.49 21.91,1.58 21.93,1.68 21.96,1.79 21.94,1.89 21.93,2.00 21.88,2.09 21.84,2.19 21.76,2.26 21.69,2.34 21.60,2.39 21.50,2.44 21.40,2.45 21.29,2.47 21.29,2.47 21.29,2.47 18.25,2.84 15.22,3.21 13.17,3.14 11.12,3.07 8.77,2.90 6.42,2.73 4.08,2.34 1.74,1.95 0.79,1.29 -0.15,0.63 -0.23,0.60 -0.30,0.58 -0.37,0.53 -0.43,0.49 -0.48,0.43 -0.54,0.37 -0.57,0.30 -0.61,0.23 -0.63,0.15 -0.65,0.07 -0.65,-0.00 -0.65,-0.08 -0.63,-0.15 -0.61,-0.23 -0.57,-0.30 -0.53,-0.37 -0.48,-0.43 -0.43,-0.49 -0.36,-0.53 -0.30,-0.58 -0.22,-0.61 -0.15,-0.63 -0.07,-0.64 0.00,-0.65 0.08,-0.64 0.15,-0.63 0.15,-0.63 L 0.15,-0.63 Z"/></g><g transform="translate(432.6592102050781 423.53050231933594) rotate(0 8.672271728515625 15.975250244140625)" stroke="none"><path fill="#6741d9" d="M 0.63,-0.15 Q 0.63,-0.15 1.23,0.76 1.82,1.68 2.59,2.38 3.35,3.08 4.25,4.00 5.14,4.93 6.74,6.02 8.34,7.12 9.36,7.91 10.38,8.70 11.19,9.67 12.00,10.65 12.41,11.74 12.82,12.84 12.98,13.90 13.14,14.96 12.63,16.71 12.12,18.47 11.00,19.83 9.88,21.20 8.65,22.50 7.42,23.79 5.80,25.17 4.18,26.56 3.02,27.63 1.85,28.70 1.19,29.53 0.53,30.37 1.08,30.22 1.62,30.08 2.97,30.17 4.31,30.27 6.22,30.32 8.12,30.37 10.24,30.41 12.35,30.44 15.06,30.13 17.77,29.81 17.87,29.80 17.98,29.79 18.08,29.81 18.19,29.84 18.28,29.89 18.37,29.95 18.43,30.03 18.50,30.11 18.54,30.21 18.58,30.31 18.58,30.42 18.59,30.52 18.56,30.63 18.53,30.73 18.47,30.81 18.41,30.90 18.32,30.96 18.23,31.03 18.13,31.06 18.03,31.09 17.93,31.09 17.82,31.09 17.72,31.05 17.62,31.02 17.54,30.95 17.45,30.89 17.39,30.80 17.34,30.71 17.31,30.61 17.28,30.51 17.29,30.40 17.30,30.29 17.34,30.20 17.38,30.10 17.45,30.02 17.52,29.94 17.61,29.88 17.70,29.83 17.80,29.81 17.91,29.79 18.01,29.80 18.12,29.81 18.21,29.86 18.31,29.91 18.39,29.98 18.46,30.05 18.51,30.15 18.56,30.24 18.58,30.35 18.59,30.45 18.57,30.56 18.55,30.66 18.50,30.75 18.45,30.85 18.37,30.92 18.30,30.99 18.20,31.04 18.10,31.08 18.10,31.08 18.10,31.08 15.23,32.23 12.35,33.38 10.19,33.37 8.04,33.37 6.05,33.31 4.07,33.26 2.44,33.11 0.82,32.96 -0.29,32.52 -1.42,32.08 -1.66,30.43 -1.91,28.78 -1.03,27.64 -0.16,26.50 1.04,25.39 2.25,24.28 3.76,23.01 5.27,21.74 6.45,20.50 7.64,19.25 8.49,18.35 9.35,17.45 9.78,16.34 10.22,15.23 10.13,14.48 10.05,13.74 9.88,13.06 9.71,12.39 9.16,11.66 8.61,10.93 7.66,10.19 6.71,9.45 4.92,8.17 3.12,6.90 2.20,5.94 1.29,4.99 0.25,3.75 -0.77,2.50 -0.70,1.33 -0.63,0.15 -0.64,0.08 -0.65,0.00 -0.64,-0.07 -0.63,-0.15 -0.61,-0.22 -0.58,-0.30 -0.53,-0.36 -0.49,-0.43 -0.43,-0.48 -0.37,-0.53 -0.30,-0.57 -0.23,-0.61 -0.15,-0.63 -0.08,-0.65 -0.00,-0.65 0.07,-0.65 0.15,-0.63 0.23,-0.61 0.30,-0.57 0.37,-0.54 0.43,-0.48 0.49,-0.43 0.53,-0.37 0.58,-0.30 0.60,-0.23 0.63,-0.15 0.63,-0.15 L 0.63,-0.15 Z"/></g><g transform="translate(459.1324768066406 429.0077362060547) rotate(0 2.282196044921875 -4.564361572265625)" stroke="none"><path fill="#6741d9" d="M -0.52,-0.39 Q -0.52,-0.39 -0.03,-1.66 0.45,-2.93 0.97,-4.05 1.49,-5.18 2.64,-7.03 3.79,-8.87 3.84,-8.97 3.89,-9.06 3.96,-9.14 4.04,-9.21 4.14,-9.26 4.23,-9.31 4.34,-9.32 4.44,-9.34 4.55,-9.31 4.65,-9.29 4.74,-9.24 4.83,-9.19 4.90,-9.11 4.98,-9.03 5.02,-8.93 5.06,-8.84 5.07,-8.73 5.08,-8.62 5.05,-8.52 5.02,-8.42 4.97,-8.33 4.91,-8.24 4.83,-8.17 4.74,-8.11 4.64,-8.07 4.54,-8.03 4.44,-8.03 4.33,-8.03 4.23,-8.06 4.13,-8.09 4.04,-8.15 3.96,-8.22 3.89,-8.30 3.83,-8.39 3.80,-8.49 3.77,-8.59 3.77,-8.70 3.78,-8.80 3.81,-8.90 3.85,-9.00 3.92,-9.09 3.98,-9.17 4.07,-9.23 4.16,-9.28 4.27,-9.31 4.37,-9.33 4.48,-9.32 4.58,-9.32 4.68,-9.27 4.78,-9.23 4.86,-9.16 4.93,-9.09 4.99,-9.00 5.04,-8.90 5.06,-8.80 5.08,-8.69 5.06,-8.59 5.05,-8.48 5.05,-8.48 5.05,-8.48 4.54,-6.21 4.04,-3.95 3.37,-2.60 2.69,-1.26 1.61,-0.43 0.52,0.39 0.47,0.45 0.41,0.50 0.34,0.55 0.28,0.59 0.20,0.61 0.13,0.64 0.05,0.64 -0.02,0.65 -0.10,0.64 -0.18,0.63 -0.25,0.59 -0.32,0.56 -0.39,0.52 -0.45,0.47 -0.50,0.41 -0.55,0.35 -0.58,0.27 -0.62,0.20 -0.63,0.13 -0.65,0.05 -0.65,-0.02 -0.64,-0.10 -0.62,-0.18 -0.60,-0.25 -0.56,-0.32 -0.52,-0.39 -0.52,-0.39 L -0.52,-0.39 Z"/></g><g transform="translate(198.96426391601562 516.6433563232422) rotate(0 -2.73858642578125 13.23663330078125)" stroke="none"><path fill="#6741d9" d="M 0.58,0.29 Q 0.58,0.29 0.38,1.50 0.18,2.71 -0.23,4.12 -0.65,5.53 -1.09,7.43 -1.53,9.33 -1.98,11.45 -2.43,13.58 -2.88,16.29 -3.33,19.00 -3.52,20.66 -3.70,22.31 -4.23,24.02 -4.76,25.73 -4.79,25.83 -4.81,25.94 -4.87,26.03 -4.92,26.12 -5.01,26.19 -5.09,26.25 -5.19,26.29 -5.29,26.33 -5.39,26.33 -5.50,26.34 -5.60,26.31 -5.70,26.28 -5.79,26.22 -5.88,26.16 -5.94,26.07 -6.00,25.99 -6.04,25.89 -6.07,25.78 -6.07,25.68 -6.07,25.57 -6.03,25.47 -6.00,25.37 -5.93,25.29 -5.87,25.20 -5.78,25.15 -5.69,25.09 -5.59,25.06 -5.48,25.03 -5.38,25.04 -5.27,25.05 -5.17,25.09 -5.07,25.13 -4.99,25.20 -4.91,25.27 -4.86,25.36 -4.81,25.45 -4.79,25.56 -4.76,25.66 -4.78,25.76 -4.79,25.87 -4.84,25.97 -4.88,26.06 -4.96,26.14 -5.03,26.21 -5.12,26.26 -5.22,26.31 -5.32,26.33 -5.43,26.34 -5.53,26.32 -5.64,26.31 -5.73,26.26 -5.82,26.20 -5.90,26.13 -5.97,26.05 -6.01,25.95 -6.06,25.85 -6.07,25.75 -6.08,25.64 -6.08,25.64 -6.08,25.64 -6.37,23.81 -6.66,21.97 -6.46,20.24 -6.26,18.51 -5.79,15.73 -5.32,12.95 -4.85,10.79 -4.38,8.64 -3.88,6.64 -3.39,4.64 -2.83,3.06 -2.28,1.48 -1.43,0.59 -0.58,-0.29 -0.54,-0.35 -0.49,-0.42 -0.44,-0.47 -0.38,-0.53 -0.31,-0.57 -0.24,-0.60 -0.16,-0.62 -0.09,-0.65 -0.01,-0.65 0.06,-0.65 0.14,-0.63 0.22,-0.61 0.29,-0.58 0.36,-0.54 0.42,-0.49 0.48,-0.44 0.52,-0.38 0.57,-0.31 0.60,-0.24 0.63,-0.16 0.64,-0.09 0.65,-0.01 0.64,0.06 0.64,0.14 0.61,0.21 0.58,0.29 0.58,0.29 L 0.58,0.29 Z"/></g><g transform="translate(194.39993286132812 519.3819427490234) rotate(0 11.867340087890625 12.78021240234375)" stroke="none"><path fill="#6741d9" d="M 0.12,-0.64 Q 0.12,-0.64 1.52,-0.79 2.91,-0.95 4.94,-0.86 6.96,-0.77 8.79,-0.99 10.63,-1.20 12.73,-1.55 14.83,-1.90 16.59,-2.06 18.34,-2.22 20.16,-2.29 21.97,-2.36 22.99,-2.38 24.01,-2.41 24.85,-2.37 25.69,-2.34 26.40,-1.90 27.12,-1.46 27.44,-0.79 27.77,-0.12 27.86,1.02 27.95,2.16 27.97,3.11 28.00,4.06 28.01,5.26 28.02,6.45 28.03,7.75 28.03,9.04 28.03,10.38 28.03,11.72 27.75,12.99 27.47,14.26 27.37,15.16 27.28,16.05 27.23,16.94 27.19,17.82 27.41,18.53 27.63,19.23 27.75,20.26 27.87,21.28 27.86,22.14 27.85,23.00 27.48,23.68 27.11,24.37 26.69,24.79 26.28,25.22 25.60,25.56 24.92,25.90 24.30,26.03 23.69,26.15 22.19,25.92 20.69,25.70 19.95,25.61 19.21,25.52 17.75,25.21 16.29,24.90 15.01,24.79 13.74,24.68 12.41,24.63 11.09,24.58 9.33,24.82 7.57,25.05 6.20,25.16 4.83,25.26 3.60,25.55 2.37,25.83 1.71,26.17 1.04,26.50 -0.57,26.74 -2.19,26.97 -2.29,26.99 -2.40,27.01 -2.50,26.99 -2.61,26.98 -2.70,26.93 -2.80,26.88 -2.87,26.80 -2.94,26.73 -2.99,26.63 -3.03,26.54 -3.05,26.43 -3.06,26.32 -3.04,26.22 -3.02,26.12 -2.96,26.02 -2.91,25.93 -2.83,25.86 -2.75,25.79 -2.65,25.75 -2.55,25.71 -2.44,25.71 -2.34,25.70 -2.24,25.73 -2.13,25.76 -2.04,25.81 -1.96,25.87 -1.89,25.96 -1.83,26.04 -1.79,26.14 -1.76,26.24 -1.76,26.35 -1.75,26.45 -1.79,26.55 -1.82,26.66 -1.88,26.74 -1.95,26.83 -2.04,26.89 -2.12,26.95 -2.22,26.98 -2.33,27.01 -2.43,27.00 -2.54,27.00 -2.64,26.96 -2.74,26.92 -2.82,26.85 -2.90,26.78 -2.96,26.69 -3.01,26.60 -3.04,26.50 -3.06,26.40 -3.05,26.29 -3.04,26.18 -2.99,26.09 -2.95,25.99 -2.88,25.91 -2.81,25.83 -2.71,25.78 -2.62,25.73 -2.62,25.73 -2.62,25.73 -1.50,24.59 -0.39,23.45 0.61,23.00 1.61,22.55 3.09,22.22 4.57,21.90 5.86,21.80 7.15,21.70 9.18,21.46 11.22,21.21 12.63,21.27 14.05,21.33 15.53,21.48 17.01,21.63 18.32,21.93 19.62,22.23 20.46,22.34 21.30,22.45 22.69,22.69 24.09,22.94 24.42,22.29 24.76,21.63 24.68,20.82 24.59,20.02 24.33,18.86 24.06,17.71 24.11,16.71 24.16,15.70 24.29,14.62 24.42,13.53 24.66,12.62 24.90,11.71 24.90,10.38 24.89,9.05 24.89,7.76 24.89,6.48 24.88,5.31 24.87,4.14 24.85,3.24 24.83,2.34 25.01,1.44 25.20,0.55 24.65,0.61 24.10,0.66 23.09,0.69 22.08,0.72 20.35,0.78 18.62,0.84 16.97,0.98 15.33,1.12 13.15,1.48 10.96,1.84 8.89,2.05 6.81,2.27 4.57,2.13 2.33,2.00 1.10,1.32 -0.12,0.64 -0.20,0.61 -0.27,0.59 -0.34,0.55 -0.41,0.51 -0.46,0.45 -0.52,0.39 -0.56,0.32 -0.60,0.25 -0.62,0.18 -0.64,0.10 -0.65,0.02 -0.65,-0.05 -0.63,-0.12 -0.62,-0.20 -0.59,-0.27 -0.55,-0.34 -0.50,-0.41 -0.45,-0.47 -0.39,-0.51 -0.33,-0.56 -0.25,-0.59 -0.18,-0.63 -0.10,-0.64 -0.02,-0.65 0.04,-0.64 0.12,-0.64 0.12,-0.64 L 0.12,-0.64 Z"/></g><g transform="translate(218.13455200195312 517.5561981201172) rotate(0 8.215850830078125 6.8465576171875)" stroke="none"><path fill="#6741d9" d="M -0.36,-0.54 Q -0.36,-0.54 0.17,-1.43 0.71,-2.33 1.24,-2.79 1.76,-3.25 2.48,-3.96 3.21,-4.66 3.80,-5.23 4.38,-5.79 5.50,-6.63 6.62,-7.47 7.53,-8.28 8.44,-9.09 9.11,-9.70 9.78,-10.32 10.31,-10.58 10.85,-10.85 11.01,-10.96 11.17,-11.08 11.35,-11.15 11.54,-11.23 11.73,-11.25 11.93,-11.28 12.12,-11.26 12.32,-11.24 12.51,-11.18 12.69,-11.11 12.86,-11.00 13.02,-10.89 13.16,-10.75 13.29,-10.61 13.39,-10.43 13.48,-10.26 13.53,-10.07 13.59,-9.88 13.59,-9.68 13.59,-9.48 13.55,-9.29 13.51,-9.10 13.42,-8.92 13.33,-8.74 13.21,-8.59 13.08,-8.44 13.66,-7.21 14.24,-5.98 14.51,-5.27 14.78,-4.56 14.95,-3.52 15.12,-2.47 15.40,-1.72 15.68,-0.96 15.86,0.09 16.03,1.15 16.34,2.82 16.66,4.48 16.80,6.06 16.95,7.65 17.23,8.36 17.51,9.07 17.67,9.82 17.84,10.57 17.91,11.19 17.98,11.80 17.66,12.88 17.35,13.96 16.67,14.46 16.00,14.96 15.35,15.10 14.71,15.24 13.83,15.52 12.94,15.80 12.22,16.35 11.50,16.90 10.69,17.26 9.88,17.62 9.27,18.14 8.67,18.67 7.72,19.26 6.78,19.84 6.35,20.42 5.93,20.99 5.04,22.13 4.16,23.28 4.10,23.33 4.05,23.38 3.98,23.42 3.91,23.46 3.83,23.48 3.76,23.50 3.68,23.51 3.60,23.51 3.52,23.49 3.44,23.47 3.37,23.44 3.30,23.40 3.24,23.35 3.18,23.30 3.13,23.24 3.09,23.17 3.06,23.10 3.03,23.03 3.01,22.95 3.00,22.87 3.01,22.79 3.02,22.71 3.04,22.64 3.07,22.56 3.11,22.50 3.16,22.43 3.08,22.65 3.00,22.86 3.02,22.76 3.03,22.65 3.08,22.56 3.13,22.46 3.21,22.39 3.28,22.31 3.38,22.27 3.48,22.22 3.58,22.21 3.69,22.20 3.79,22.22 3.90,22.24 3.99,22.29 4.08,22.35 4.15,22.43 4.22,22.51 4.26,22.61 4.30,22.71 4.31,22.81 4.31,22.92 4.29,23.02 4.26,23.12 4.20,23.21 4.14,23.30 4.06,23.36 3.97,23.43 3.87,23.47 3.77,23.50 3.67,23.50 3.56,23.50 3.46,23.47 3.36,23.44 3.27,23.37 3.19,23.31 3.13,23.22 3.07,23.14 3.04,23.03 3.01,22.93 3.01,22.83 3.02,22.72 3.05,22.62 3.09,22.52 3.16,22.44 3.23,22.36 3.32,22.30 3.41,22.25 3.51,22.22 3.62,22.20 3.72,22.21 3.83,22.22 3.92,22.26 4.02,22.31 4.10,22.38 4.18,22.45 4.23,22.54 4.28,22.64 4.22,22.96 4.16,23.28 4.10,23.33 4.05,23.38 3.98,23.42 3.91,23.46 3.83,23.48 3.76,23.50 3.68,23.51 3.60,23.51 3.52,23.49 3.44,23.47 3.37,23.44 3.30,23.40 3.24,23.35 3.18,23.30 3.13,23.24 3.09,23.17 3.06,23.10 3.03,23.03 3.01,22.95 3.00,22.87 3.01,22.79 3.02,22.71 3.04,22.64 3.07,22.56 3.11,22.50 3.16,22.43 3.19,20.60 3.23,18.77 4.07,17.84 4.90,16.90 5.70,16.42 6.49,15.93 7.50,15.17 8.51,14.42 9.02,14.22 9.54,14.02 10.72,13.27 11.89,12.51 12.99,12.19 14.09,11.87 14.76,11.92 15.43,11.96 15.02,11.60 14.61,11.25 14.51,10.70 14.40,10.16 14.04,9.06 13.68,7.97 13.55,6.53 13.43,5.09 13.10,3.36 12.77,1.63 12.67,0.87 12.58,0.11 12.22,-0.93 11.87,-1.98 11.78,-2.73 11.68,-3.47 11.33,-4.50 10.99,-5.52 10.92,-6.15 10.86,-6.78 10.58,-8.22 10.30,-9.66 10.58,-10.25 10.85,-10.85 11.01,-10.96 11.17,-11.08 11.35,-11.15 11.54,-11.23 11.73,-11.25 11.93,-11.28 12.12,-11.26 12.32,-11.24 12.51,-11.18 12.69,-11.11 12.86,-11.00 13.02,-10.90 13.16,-10.75 13.29,-10.61 13.39,-10.43 13.48,-10.26 13.53,-10.07 13.59,-9.88 13.59,-9.68 13.59,-9.48 13.55,-9.29 13.51,-9.10 13.42,-8.92 13.33,-8.74 13.21,-8.59 13.08,-8.44 12.52,-8.18 11.96,-7.91 11.28,-7.28 10.60,-6.64 9.58,-5.75 8.55,-4.85 7.59,-4.16 6.63,-3.46 6.03,-2.88 5.43,-2.30 4.60,-1.54 3.77,-0.78 3.10,-0.27 2.43,0.23 1.39,0.38 0.36,0.54 0.29,0.58 0.22,0.61 0.14,0.63 0.06,0.65 -0.01,0.65 -0.08,0.65 -0.16,0.63 -0.24,0.61 -0.31,0.57 -0.38,0.53 -0.44,0.48 -0.49,0.42 -0.54,0.36 -0.58,0.29 -0.61,0.22 -0.64,0.14 -0.64,0.06 -0.65,-0.01 -0.64,-0.08 -0.63,-0.16 -0.60,-0.24 -0.57,-0.31 -0.53,-0.37 -0.48,-0.44 -0.42,-0.49 -0.36,-0.54 -0.36,-0.54 L -0.36,-0.54 Z"/></g><g transform="translate(198.05142211914062 516.6433563232422) rotate(0 16.888092041015625 -5.93365478515625)" stroke="none"><path fill="#6741d9" d="M -0.46,-0.46 Q -0.46,-0.46 0.28,-1.81 1.02,-3.16 1.94,-4.33 2.85,-5.50 3.89,-6.40 4.93,-7.29 5.48,-8.04 6.03,-8.78 6.52,-9.60 7.02,-10.42 7.23,-10.98 7.43,-11.55 7.99,-12.17 8.55,-12.79 9.22,-13.03 9.90,-13.28 10.48,-13.35 11.07,-13.42 12.31,-13.17 13.56,-12.91 14.63,-12.83 15.70,-12.75 16.96,-12.71 18.22,-12.67 19.54,-12.65 20.86,-12.63 22.21,-12.62 23.56,-12.62 24.92,-12.61 26.28,-12.61 27.65,-12.61 29.01,-12.60 30.12,-12.60 31.22,-12.60 32.91,-11.70 34.60,-10.80 34.69,-10.74 34.77,-10.68 34.84,-10.60 34.90,-10.51 34.94,-10.41 34.97,-10.31 34.97,-10.20 34.97,-10.10 34.94,-10.00 34.91,-9.90 34.84,-9.81 34.78,-9.73 34.69,-9.67 34.60,-9.61 34.50,-9.58 34.40,-9.55 34.29,-9.55 34.19,-9.56 34.09,-9.60 33.99,-9.64 33.91,-9.71 33.82,-9.77 33.77,-9.87 33.71,-9.96 33.69,-10.06 33.67,-10.16 33.68,-10.27 33.69,-10.37 33.73,-10.47 33.78,-10.57 33.85,-10.65 33.92,-10.72 34.02,-10.77 34.11,-10.82 34.22,-10.84 34.32,-10.86 34.43,-10.84 34.53,-10.82 34.62,-10.78 34.72,-10.73 34.79,-10.65 34.87,-10.57 34.91,-10.48 34.96,-10.38 34.97,-10.27 34.98,-10.17 34.96,-10.06 34.93,-9.96 34.88,-9.87 34.83,-9.78 34.75,-9.71 34.66,-9.64 34.57,-9.60 34.47,-9.56 34.36,-9.55 34.26,-9.55 34.15,-9.58 34.05,-9.60 34.05,-9.60 34.05,-9.60 32.64,-9.45 31.22,-9.30 30.12,-9.30 29.01,-9.30 27.64,-9.30 26.27,-9.30 24.91,-9.30 23.54,-9.31 22.18,-9.31 20.81,-9.32 19.46,-9.34 18.10,-9.36 16.76,-9.41 15.42,-9.45 14.09,-9.58 12.77,-9.70 12.06,-9.93 11.36,-10.15 10.75,-10.22 10.13,-10.28 9.88,-9.57 9.62,-8.85 9.03,-7.89 8.44,-6.93 7.67,-5.95 6.89,-4.98 6.06,-4.30 5.22,-3.62 4.19,-2.32 3.17,-1.02 1.81,-0.28 0.46,0.46 0.40,0.51 0.33,0.56 0.26,0.59 0.19,0.62 0.11,0.64 0.03,0.65 -0.03,0.65 -0.11,0.64 -0.19,0.62 -0.26,0.59 -0.33,0.55 -0.40,0.51 -0.46,0.46 -0.51,0.40 -0.55,0.33 -0.59,0.26 -0.62,0.19 -0.64,0.11 -0.65,0.03 -0.65,-0.03 -0.64,-0.11 -0.62,-0.19 -0.59,-0.26 -0.56,-0.33 -0.51,-0.40 -0.46,-0.46 -0.46,-0.46 L -0.46,-0.46 Z"/></g></svg>