<svg version="1.1" xmlns="http://www.w3.org/2000/svg" viewBox="0 0 501.08294677734375 256.6447448730469" width="501.08294677734375" height="256.6447448730469" filter="invert(93%) hue-rotate(180deg)" class="excalidraw-svg">
  <!-- svg-source:excalidraw -->
  
  <defs>
    <style class="style-fonts">
      @font-face {
        font-family: "Virgil";
        src: url("https://excalidraw.com/Virgil.woff2");
      }
      @font-face {
        font-family: "Cascadia";
        src: url("https://excalidraw.com/Cascadia.woff2");
      }
      @font-face {
        font-family: "Assistant";
        src: url("https://excalidraw.com/Assistant-Regular.woff2");
      }
    </style>
    
  </defs>
  <rect x="0" y="0" width="501.08294677734375" height="256.6447448730469" fill="#ffffff"/><g stroke-linecap="round"><g transform="translate(103.11279296875 219.04745483398438) rotate(0 96.30789184570312 -1.36932373046875)"><path d="M0 0 C32.1 -0.46, 160.51 -2.28, 192.62 -2.74 M0 0 C32.1 -0.46, 160.51 -2.28, 192.62 -2.74" stroke="#6741d9" stroke-width="2" fill="none"/></g></g><mask/><g stroke-linecap="round"><g transform="translate(296.64141845703125 215.39593505859375) rotate(0 22.82177734375 -36.05839538574219)"><path d="M0 0 C7.61 -12.02, 38.04 -60.1, 45.64 -72.12 M0 0 C7.61 -12.02, 38.04 -60.1, 45.64 -72.12" stroke="#6741d9" stroke-width="2" fill="none"/></g></g><mask/><g stroke-linecap="round"><g transform="translate(105.10128784179688 233.47445678710938) rotate(0 96.30789184570312 -1.36932373046875)"><path d="M0 0 C32.1 -0.46, 160.51 -2.28, 192.62 -2.74 M0 0 C32.1 -0.46, 160.51 -2.28, 192.62 -2.74" stroke="#6741d9" stroke-width="2" fill="none"/></g></g><mask/><g stroke-linecap="round"><g transform="translate(298.6299133300781 229.82293701171875) rotate(0 22.82177734375 -36.05839538574219)"><path d="M0 0 C7.61 -12.02, 38.04 -60.1, 45.64 -72.12 M0 0 C7.61 -12.02, 38.04 -60.1, 45.64 -72.12" stroke="#6741d9" stroke-width="2" fill="none"/></g></g><mask/><g stroke-linecap="round"><g transform="translate(106.08145141601562 246.64474487304688) rotate(0 96.30789184570312 -1.36932373046875)"><path d="M0 0 C32.1 -0.46, 160.51 -2.28, 192.62 -2.74 M0 0 C32.1 -0.46, 160.51 -2.28, 192.62 -2.74" stroke="#6741d9" stroke-width="2" fill="none"/></g></g><mask/><g stroke-linecap="round"><g transform="translate(299.6100769042969 242.99322509765625) rotate(0 22.82177734375 -36.05839538574219)"><path d="M0 0 C7.61 -12.02, 38.04 -60.1, 45.64 -72.12 M0 0 C7.61 -12.02, 38.04 -60.1, 45.64 -72.12" stroke="#6741d9" stroke-width="2" fill="none"/></g></g><mask/><g stroke-linecap="round"><g transform="translate(150.409765363958 144.62612682345213) rotate(179.83180114089555 96.30789184570312 -1.36932373046875)"><path d="M0 0 C32.1 -0.46, 160.51 -2.28, 192.62 -2.74 M0 0 C32.1 -0.46, 160.51 -2.28, 192.62 -2.74" stroke="#6741d9" stroke-width="2" fill="none"/></g></g><mask/><g stroke-linecap="round"><g transform="translate(103.96643953012827 218.0080238589127) rotate(179.83180114089555 22.82177734375 -36.05839538574219)"><path d="M0 0 C7.61 -12.02, 38.04 -60.1, 45.64 -72.12 M0 0 C7.61 -12.02, 38.04 -60.1, 45.64 -72.12" stroke="#6741d9" stroke-width="2" fill="none"/></g></g><mask/><g stroke-linecap="round"><g transform="translate(220.8731689453125 168.83953857421875) rotate(0 -0.912872314453125 -79.41976928710938)"><path d="M0 0 C-0.3 -26.47, -1.52 -132.37, -1.83 -158.84 M0 0 C-0.3 -26.47, -1.52 -132.37, -1.83 -158.84" stroke="#6741d9" stroke-width="2" fill="none"/></g><g transform="translate(220.8731689453125 168.83953857421875) rotate(0 -0.912872314453125 -79.41976928710938)"><path d="M6.99 -135.45 C4.09 -143.15, 1.18 -150.86, -1.83 -158.84 M6.99 -135.45 C4.17 -142.93, 1.35 -150.42, -1.83 -158.84" stroke="#6741d9" stroke-width="2" fill="none"/></g><g transform="translate(220.8731689453125 168.83953857421875) rotate(0 -0.912872314453125 -79.41976928710938)"><path d="M-10.11 -135.25 C-7.38 -143.02, -4.65 -150.79, -1.83 -158.84 M-10.11 -135.25 C-7.46 -142.8, -4.81 -150.35, -1.83 -158.84" stroke="#6741d9" stroke-width="2" fill="none"/></g></g><mask/><g transform="translate(258.30084228515625 10.912872314453125) rotate(0 -0.912841796875 14.149490356445312)" stroke="none"><path fill="#6741d9" d="M 0.65,0 Q 0.65,0 1.12,0.78 1.59,1.57 1.61,3.22 1.63,4.86 1.63,6.88 1.64,8.89 1.37,11.66 1.11,14.43 1.00,17.10 0.89,19.78 0.80,21.97 0.71,24.15 -0.17,26.22 -1.07,28.28 -1.13,28.37 -1.20,28.45 -1.29,28.51 -1.38,28.57 -1.48,28.60 -1.58,28.63 -1.69,28.62 -1.79,28.61 -1.89,28.58 -1.99,28.54 -2.07,28.47 -2.15,28.40 -2.21,28.31 -2.26,28.22 -2.28,28.11 -2.31,28.01 -2.29,27.90 -2.28,27.80 -2.24,27.70 -2.19,27.60 -2.12,27.53 -2.05,27.45 -1.95,27.40 -1.86,27.35 -1.75,27.33 -1.65,27.32 -1.54,27.33 -1.44,27.35 -1.35,27.40 -1.25,27.45 -1.18,27.53 -1.11,27.61 -1.06,27.70 -1.02,27.80 -1.01,27.90 -0.99,28.01 -1.02,28.11 -1.04,28.22 -1.10,28.31 -1.15,28.40 -1.23,28.47 -1.31,28.54 -1.41,28.58 -1.51,28.62 -1.62,28.62 -1.72,28.63 -1.82,28.60 -1.93,28.57 -2.01,28.51 -2.10,28.45 -2.17,28.37 -2.23,28.28 -2.26,28.18 -2.30,28.08 -2.30,27.97 -2.30,27.87 -2.26,27.77 -2.23,27.67 -2.23,27.67 -2.23,27.67 -2.31,25.88 -2.40,24.09 -2.39,21.87 -2.38,19.64 -2.27,16.88 -2.16,14.11 -1.90,11.50 -1.64,8.89 -1.63,6.88 -1.63,4.86 -1.61,3.22 -1.59,1.57 -1.12,0.78 -0.65,0 -0.64,-0.07 -0.63,-0.15 -0.60,-0.23 -0.58,-0.30 -0.53,-0.37 -0.49,-0.43 -0.43,-0.48 -0.37,-0.54 -0.30,-0.57 -0.23,-0.61 -0.15,-0.63 -0.07,-0.65 0.00,-0.65 0.07,-0.65 0.15,-0.63 0.23,-0.61 0.30,-0.57 0.37,-0.54 0.43,-0.48 0.49,-0.43 0.53,-0.37 0.58,-0.30 0.60,-0.23 0.63,-0.15 0.64,-0.07 0.65,0.00 0.65,0.00 L 0.65,0 Z"/></g><g transform="translate(250.08502197265625 26.431671142578125) rotate(0 8.215850830078125 -0.912872314453125)" stroke="none"><path fill="#6741d9" d="M 0,-0.65 Q 0,-0.65 1.30,-1.17 2.61,-1.69 3.80,-1.93 4.99,-2.18 7.25,-2.31 9.51,-2.43 12.62,-2.41 15.72,-2.39 15.83,-2.39 15.93,-2.38 16.03,-2.35 16.13,-2.31 16.22,-2.24 16.30,-2.18 16.35,-2.09 16.41,-2.00 16.44,-1.89 16.46,-1.79 16.45,-1.68 16.44,-1.58 16.40,-1.48 16.36,-1.38 16.29,-1.30 16.22,-1.23 16.13,-1.17 16.03,-1.12 15.93,-1.10 15.82,-1.08 15.72,-1.10 15.61,-1.11 15.52,-1.16 15.42,-1.21 15.35,-1.28 15.27,-1.36 15.23,-1.45 15.18,-1.55 15.17,-1.65 15.15,-1.76 15.17,-1.86 15.19,-1.97 15.24,-2.06 15.30,-2.15 15.38,-2.22 15.46,-2.29 15.55,-2.33 15.65,-2.38 15.76,-2.38 15.86,-2.39 15.97,-2.37 16.07,-2.34 16.16,-2.28 16.25,-2.23 16.31,-2.14 16.38,-2.06 16.42,-1.96 16.45,-1.86 16.46,-1.75 16.46,-1.65 16.43,-1.55 16.40,-1.44 16.33,-1.36 16.27,-1.27 16.18,-1.21 16.10,-1.15 16.00,-1.12 15.89,-1.09 15.89,-1.09 15.90,-1.09 12.79,-0.07 9.69,0.94 7.66,1.03 5.63,1.13 4.13,1.41 2.63,1.69 1.31,1.17 0,0.65 -0.07,0.64 -0.15,0.63 -0.23,0.60 -0.30,0.58 -0.37,0.53 -0.43,0.49 -0.48,0.43 -0.54,0.37 -0.57,0.30 -0.61,0.23 -0.63,0.15 -0.65,0.07 -0.65,-0.00 -0.65,-0.07 -0.63,-0.15 -0.61,-0.23 -0.57,-0.30 -0.54,-0.37 -0.48,-0.43 -0.43,-0.49 -0.37,-0.53 -0.30,-0.58 -0.23,-0.60 -0.15,-0.63 -0.07,-0.64 0.00,-0.65 0.00,-0.65 L 0,-0.65 Z"/></g><g transform="translate(121.3702392578125 124.10885620117188) rotate(0 5.47723388671875 6.3900909423828125)" stroke="none"><path fill="#6741d9" d="M 0.46,-0.46 Q 0.46,-0.46 1.08,-0.56 1.70,-0.65 2.49,-0.11 3.28,0.43 4.45,1.21 5.61,2.00 6.78,3.25 7.95,4.50 8.63,5.23 9.32,5.96 9.87,6.53 10.42,7.10 10.91,7.60 11.41,8.11 12.35,10.20 13.29,12.30 13.31,12.40 13.34,12.51 13.33,12.61 13.32,12.72 13.28,12.82 13.23,12.91 13.16,12.99 13.09,13.07 13.00,13.12 12.91,13.17 12.80,13.19 12.70,13.21 12.59,13.20 12.49,13.18 12.39,13.14 12.30,13.09 12.22,13.01 12.15,12.94 12.10,12.84 12.05,12.75 12.04,12.64 12.03,12.54 12.05,12.43 12.07,12.33 12.12,12.24 12.17,12.14 12.25,12.07 12.33,12.00 12.43,11.96 12.53,11.92 12.63,11.91 12.74,11.90 12.84,11.93 12.94,11.95 13.03,12.01 13.12,12.07 13.19,12.15 13.25,12.24 13.29,12.34 13.33,12.44 13.33,12.54 13.33,12.65 13.30,12.75 13.27,12.85 13.21,12.94 13.15,13.02 13.06,13.08 12.97,13.15 12.87,13.18 12.77,13.21 12.66,13.21 12.56,13.20 12.46,13.17 12.36,13.13 12.27,13.06 12.19,12.99 12.14,12.90 12.08,12.82 12.08,12.82 12.08,12.82 10.55,11.64 9.01,10.47 8.51,9.95 8.00,9.44 7.44,8.85 6.87,8.27 6.16,7.52 5.45,6.77 4.58,5.77 3.70,4.77 2.53,3.96 1.35,3.16 0.35,2.43 -0.65,1.70 -0.55,1.08 -0.46,0.46 -0.51,0.40 -0.56,0.33 -0.59,0.26 -0.62,0.19 -0.64,0.11 -0.65,0.03 -0.65,-0.03 -0.64,-0.11 -0.62,-0.19 -0.59,-0.26 -0.55,-0.33 -0.51,-0.40 -0.46,-0.46 -0.40,-0.51 -0.33,-0.55 -0.26,-0.59 -0.19,-0.62 -0.11,-0.64 -0.03,-0.65 0.03,-0.65 0.11,-0.64 0.19,-0.62 0.26,-0.59 0.33,-0.56 0.40,-0.51 0.46,-0.46 0.46,-0.46 L 0.46,-0.46 Z"/></g><g transform="translate(125.021728515625 135.97616577148438) rotate(0 7.302978515625 -1.8257293701171875)" stroke="none"><path fill="#6741d9" d="M 0.36,-0.54 Q 0.36,-0.54 1.39,-0.39 2.43,-0.23 3.09,0.28 3.75,0.80 4.44,1.20 5.14,1.60 5.96,2.04 6.78,2.48 7.41,2.20 8.04,1.92 8.76,1.32 9.47,0.72 9.89,-0.36 10.31,-1.45 10.83,-2.97 11.35,-4.49 12.52,-6.09 13.69,-7.69 13.74,-7.78 13.80,-7.87 13.88,-7.94 13.96,-8.01 14.06,-8.05 14.16,-8.09 14.26,-8.09 14.37,-8.10 14.47,-8.07 14.57,-8.04 14.66,-7.98 14.75,-7.92 14.81,-7.84 14.88,-7.75 14.91,-7.65 14.94,-7.55 14.94,-7.45 14.94,-7.34 14.91,-7.24 14.87,-7.14 14.81,-7.05 14.75,-6.97 14.66,-6.91 14.57,-6.85 14.47,-6.82 14.36,-6.79 14.26,-6.80 14.15,-6.81 14.05,-6.85 13.95,-6.89 13.87,-6.95 13.79,-7.02 13.74,-7.11 13.68,-7.21 13.66,-7.31 13.64,-7.41 13.65,-7.52 13.66,-7.62 13.71,-7.72 13.75,-7.82 13.83,-7.89 13.90,-7.97 13.99,-8.02 14.09,-8.07 14.19,-8.09 14.30,-8.10 14.40,-8.09 14.51,-8.07 14.60,-8.02 14.69,-7.97 14.77,-7.89 14.84,-7.81 14.88,-7.72 14.93,-7.62 14.94,-7.52 14.95,-7.41 14.93,-7.31 14.90,-7.20 14.90,-7.20 14.90,-7.20 14.68,-5.34 14.47,-3.47 13.92,-1.75 13.38,-0.02 12.55,1.59 11.71,3.20 10.70,4.03 9.69,4.85 8.45,5.31 7.20,5.76 6.24,5.52 5.28,5.28 4.39,4.79 3.51,4.31 2.64,3.77 1.78,3.23 1.24,2.78 0.71,2.33 0.17,1.44 -0.36,0.54 -0.42,0.49 -0.48,0.44 -0.53,0.37 -0.57,0.31 -0.60,0.24 -0.63,0.16 -0.64,0.08 -0.65,0.01 -0.64,-0.06 -0.64,-0.14 -0.61,-0.22 -0.58,-0.29 -0.54,-0.36 -0.49,-0.42 -0.44,-0.48 -0.38,-0.53 -0.31,-0.57 -0.24,-0.61 -0.16,-0.63 -0.08,-0.65 -0.01,-0.65 0.06,-0.65 0.14,-0.63 0.22,-0.61 0.29,-0.58 0.36,-0.54 0.36,-0.54 L 0.36,-0.54 Z"/></g><g transform="translate(23.69305419921875 73.90097045898438) rotate(0 -1.3693084716796875 9.58514404296875)" stroke="none"><path fill="#6741d9" d="M 0.63,0.18 Q 0.63,0.18 0.56,2.14 0.50,4.11 0.02,5.93 -0.45,7.74 -0.64,9.71 -0.82,11.67 -0.94,13.56 -1.05,15.46 -1.55,16.98 -2.05,18.51 -2.07,18.61 -2.10,18.71 -2.15,18.81 -2.20,18.90 -2.28,18.97 -2.36,19.04 -2.46,19.08 -2.56,19.12 -2.66,19.13 -2.77,19.14 -2.87,19.11 -2.97,19.08 -3.06,19.03 -3.15,18.97 -3.22,18.89 -3.28,18.80 -3.32,18.70 -3.36,18.60 -3.36,18.50 -3.36,18.39 -3.33,18.29 -3.30,18.19 -3.23,18.10 -3.17,18.02 -3.08,17.95 -3.00,17.89 -2.90,17.86 -2.79,17.83 -2.69,17.84 -2.58,17.84 -2.48,17.88 -2.38,17.91 -2.30,17.98 -2.22,18.05 -2.16,18.14 -2.11,18.23 -2.08,18.33 -2.06,18.43 -2.06,18.54 -2.07,18.65 -2.12,18.74 -2.16,18.84 -2.23,18.92 -2.30,19.00 -2.40,19.05 -2.49,19.10 -2.59,19.12 -2.70,19.14 -2.80,19.12 -2.91,19.11 -3.00,19.06 -3.10,19.01 -3.17,18.94 -3.25,18.86 -3.29,18.77 -3.34,18.67 -3.35,18.57 -3.37,18.46 -3.37,18.46 -3.37,18.46 -3.76,16.89 -4.16,15.32 -4.10,13.33 -4.04,11.35 -3.81,9.14 -3.58,6.92 -3.09,5.07 -2.60,3.23 -1.61,1.52 -0.63,-0.18 -0.60,-0.25 -0.56,-0.32 -0.52,-0.38 -0.47,-0.45 -0.41,-0.50 -0.35,-0.55 -0.28,-0.58 -0.21,-0.62 -0.13,-0.63 -0.05,-0.65 0.02,-0.65 0.10,-0.64 0.17,-0.62 0.25,-0.60 0.32,-0.56 0.39,-0.52 0.44,-0.47 0.50,-0.41 0.54,-0.35 0.59,-0.28 0.61,-0.20 0.64,-0.13 0.64,-0.05 0.65,0.02 0.64,0.10 0.63,0.18 0.63,0.18 L 0.63,0.18 Z"/></g><g transform="translate(21.8673095703125 69.33660888671875) rotate(0 5.93365478515625 9.128707885742188)" stroke="none"><path fill="#6741d9" d="M 0.65,0 Q 0.65,0 1.05,1.30 1.46,2.61 1.71,3.82 1.96,5.03 2.31,6.31 2.66,7.59 3.21,8.18 3.76,8.77 4.32,8.79 4.89,8.81 5.79,7.25 6.69,5.70 7.60,4.54 8.51,3.38 9.15,2.65 9.79,1.91 10.06,1.33 10.33,0.75 10.46,0.63 10.60,0.51 10.76,0.42 10.92,0.34 11.10,0.29 11.27,0.25 11.46,0.25 11.64,0.24 11.82,0.29 11.99,0.33 12.16,0.41 12.32,0.49 12.45,0.61 12.59,0.73 12.70,0.88 12.80,1.03 12.87,1.20 12.93,1.37 12.96,1.55 12.98,1.73 12.96,1.91 12.94,2.10 12.88,2.27 12.82,2.44 12.71,2.59 12.61,2.74 12.70,3.62 12.79,4.49 12.43,5.93 12.08,7.38 11.67,9.28 11.27,11.17 11.10,12.70 10.94,14.22 10.37,16.05 9.80,17.87 9.78,17.97 9.76,18.07 9.70,18.17 9.65,18.26 9.57,18.33 9.49,18.40 9.39,18.44 9.29,18.48 9.18,18.48 9.08,18.49 8.97,18.46 8.87,18.43 8.78,18.37 8.70,18.32 8.63,18.23 8.57,18.15 8.53,18.05 8.50,17.95 8.50,17.84 8.49,17.73 8.53,17.63 8.56,17.53 8.63,17.45 8.69,17.36 8.78,17.30 8.86,17.24 8.97,17.21 9.07,17.18 9.17,17.19 9.28,17.19 9.38,17.23 9.48,17.27 9.56,17.34 9.64,17.41 9.70,17.50 9.75,17.59 9.78,17.69 9.80,17.80 9.79,17.90 9.78,18.01 9.73,18.10 9.69,18.20 9.62,18.28 9.54,18.36 9.45,18.41 9.36,18.46 9.25,18.47 9.15,18.49 9.04,18.48 8.94,18.46 8.84,18.41 8.75,18.36 8.68,18.28 8.60,18.21 8.56,18.11 8.51,18.01 8.50,17.91 8.49,17.80 8.49,17.80 8.49,17.80 8.16,15.84 7.83,13.89 8.02,12.20 8.20,10.52 8.62,8.57 9.04,6.63 9.39,5.20 9.74,3.77 9.99,3.25 10.23,2.72 10.28,1.74 10.33,0.76 10.46,0.63 10.60,0.51 10.76,0.42 10.92,0.34 11.10,0.29 11.27,0.25 11.46,0.25 11.64,0.24 11.82,0.29 11.99,0.33 12.15,0.41 12.32,0.49 12.45,0.61 12.59,0.73 12.70,0.88 12.80,1.03 12.87,1.20 12.93,1.37 12.96,1.55 12.98,1.73 12.96,1.91 12.94,2.10 12.88,2.27 12.82,2.44 12.71,2.59 12.61,2.74 12.35,3.30 12.08,3.86 11.48,4.56 10.87,5.26 10.07,6.25 9.27,7.25 8.38,8.68 7.48,10.11 6.56,10.85 5.63,11.59 4.41,11.65 3.19,11.71 2.36,11.18 1.52,10.65 0.70,9.56 -0.11,8.46 -0.51,7.03 -0.91,5.59 -1.18,4.11 -1.46,2.62 -1.05,1.31 -0.65,0 -0.64,-0.07 -0.63,-0.15 -0.60,-0.23 -0.58,-0.30 -0.53,-0.37 -0.49,-0.43 -0.43,-0.48 -0.37,-0.54 -0.30,-0.57 -0.23,-0.61 -0.15,-0.63 -0.07,-0.65 0.00,-0.65 0.07,-0.65 0.15,-0.63 0.23,-0.61 0.30,-0.57 0.37,-0.54 0.43,-0.48 0.49,-0.43 0.53,-0.37 0.58,-0.30 0.60,-0.23 0.63,-0.15 0.64,-0.07 0.65,0.00 0.65,0.00 L 0.65,0 Z"/></g><g transform="translate(41.03759765625 81.20391845703125) rotate(0 7.7593994140625 5.47723388671875)" stroke="none"><path fill="#6741d9" d="M 0,0.65 Q 0,0.65 -1.03,1.03 -2.06,1.42 -2.73,2.26 -3.39,3.10 -3.83,4.17 -4.28,5.24 -4.76,6.28 -5.24,7.32 -5.39,8.12 -5.54,8.93 -5.63,9.60 -5.71,10.27 -5.77,10.44 -5.83,10.61 -5.93,10.76 -6.02,10.91 -6.15,11.03 -6.28,11.15 -6.44,11.24 -6.60,11.33 -6.77,11.38 -6.94,11.43 -7.12,11.44 -7.30,11.44 -7.48,11.40 -7.65,11.37 -7.81,11.29 -7.97,11.21 -8.11,11.10 -8.25,10.98 -8.36,10.84 -8.46,10.69 -8.53,10.53 -8.60,10.36 -8.63,10.19 -8.66,10.01 -8.64,9.83 -8.63,9.65 -7.76,9.13 -6.90,8.61 -6.19,7.77 -5.47,6.92 -5.14,6.14 -4.81,5.36 -4.34,4.41 -3.87,3.46 -3.93,2.62 -3.99,1.78 -3.91,1.61 -3.84,1.43 -3.72,1.28 -3.60,1.13 -3.46,1.01 -3.31,0.89 -3.13,0.81 -2.96,0.73 -2.77,0.69 -2.58,0.66 -2.39,0.67 -2.20,0.68 -2.02,0.73 -1.84,0.79 -1.67,0.88 -1.51,0.98 -1.37,1.11 -1.23,1.25 -1.13,1.41 -1.03,1.57 -0.97,1.75 -0.91,1.94 -0.90,2.13 -0.89,2.32 -0.92,2.51 -0.95,2.69 -1.03,3.60 -1.10,4.51 -0.94,5.18 -0.79,5.85 -0.62,6.48 -0.45,7.12 0.45,6.45 1.37,5.79 1.95,5.13 2.53,4.48 3.48,3.34 4.42,2.20 5.40,2.23 6.39,2.27 6.93,2.80 7.48,3.34 7.65,3.97 7.83,4.60 7.87,5.40 7.92,6.21 7.93,6.76 7.94,7.32 7.93,7.51 7.91,7.70 7.86,7.88 7.80,8.06 7.70,8.22 7.59,8.38 7.46,8.51 7.32,8.65 7.16,8.74 6.99,8.84 6.81,8.89 6.63,8.95 6.44,8.96 6.25,8.97 6.06,8.93 5.87,8.89 5.70,8.81 5.53,8.73 5.38,8.61 5.23,8.49 5.12,8.34 5.00,8.19 4.93,8.01 4.85,7.84 4.82,7.65 4.79,7.46 5.61,6.71 6.43,5.96 6.70,5.37 6.97,4.77 7.54,4.13 8.12,3.49 8.81,3.07 9.51,2.66 10.35,2.32 11.20,1.98 11.91,2.28 12.62,2.59 12.95,3.50 13.28,4.40 13.32,5.25 13.37,6.09 13.32,6.88 13.26,7.67 12.87,8.27 12.48,8.88 12.05,8.01 11.63,7.15 12.42,7.31 13.22,7.47 14.54,7.50 15.87,7.54 16.67,7.03 17.48,6.53 18.30,6.28 19.12,6.03 20.89,7.23 22.66,8.44 22.76,8.47 22.86,8.50 22.95,8.56 23.03,8.63 23.09,8.71 23.15,8.80 23.18,8.90 23.21,9.01 23.21,9.11 23.20,9.22 23.16,9.32 23.13,9.42 23.06,9.50 22.99,9.58 22.90,9.64 22.81,9.69 22.71,9.72 22.60,9.74 22.50,9.73 22.39,9.72 22.29,9.68 22.20,9.63 22.12,9.56 22.04,9.49 21.99,9.39 21.94,9.30 21.92,9.20 21.90,9.09 21.92,8.99 21.93,8.88 21.98,8.79 22.03,8.69 22.11,8.62 22.18,8.55 22.28,8.50 22.38,8.45 22.48,8.44 22.59,8.43 22.69,8.45 22.80,8.47 22.89,8.53 22.98,8.58 23.05,8.66 23.12,8.74 23.16,8.84 23.20,8.94 23.21,9.04 23.21,9.15 23.19,9.25 23.16,9.35 23.10,9.44 23.04,9.53 22.96,9.60 22.87,9.66 22.77,9.70 22.67,9.73 22.57,9.73 22.46,9.73 22.46,9.73 22.46,9.73 20.84,9.45 19.22,9.17 18.52,9.62 17.82,10.07 16.86,10.37 15.91,10.68 14.34,10.63 12.78,10.58 11.69,10.30 10.59,10.01 10.42,8.12 10.25,6.24 10.69,5.41 11.13,4.58 10.76,5.09 10.38,5.59 9.88,6.15 9.39,6.71 8.38,7.71 7.37,8.71 7.66,8.01 7.94,7.32 7.93,7.51 7.91,7.70 7.86,7.88 7.80,8.06 7.70,8.22 7.59,8.38 7.46,8.51 7.32,8.65 7.16,8.74 6.99,8.84 6.81,8.89 6.63,8.95 6.44,8.96 6.25,8.97 6.06,8.93 5.87,8.89 5.70,8.81 5.53,8.73 5.38,8.61 5.23,8.49 5.12,8.34 5.00,8.19 4.93,8.01 4.85,7.84 4.82,7.65 4.79,7.46 4.77,6.91 4.76,6.35 5.19,5.72 5.63,5.09 5.27,5.81 4.91,6.53 4.36,7.15 3.81,7.77 2.87,8.84 1.92,9.91 1.05,10.21 0.19,10.51 -0.53,10.38 -1.26,10.24 -1.93,9.81 -2.60,9.38 -3.11,8.33 -3.61,7.27 -3.95,6.44 -4.28,5.61 -4.27,4.99 -4.27,4.37 -4.13,3.08 -3.99,1.78 -3.91,1.61 -3.84,1.43 -3.72,1.28 -3.60,1.13 -3.46,1.01 -3.31,0.89 -3.13,0.81 -2.96,0.73 -2.77,0.69 -2.58,0.66 -2.39,0.67 -2.20,0.68 -2.02,0.73 -1.84,0.79 -1.67,0.88 -1.51,0.98 -1.37,1.11 -1.23,1.25 -1.13,1.41 -1.03,1.57 -0.97,1.75 -0.91,1.94 -0.90,2.13 -0.89,2.32 -0.92,2.51 -0.95,2.69 -0.82,2.75 -0.70,2.81 -0.93,3.81 -1.15,4.80 -1.62,5.75 -2.09,6.69 -2.74,7.89 -3.38,9.10 -3.94,9.62 -4.51,10.14 -5.52,10.77 -6.54,11.40 -6.13,10.83 -5.71,10.27 -5.77,10.44 -5.83,10.61 -5.93,10.76 -6.02,10.91 -6.15,11.03 -6.28,11.15 -6.44,11.24 -6.60,11.33 -6.77,11.38 -6.94,11.43 -7.12,11.44 -7.30,11.44 -7.48,11.40 -7.65,11.37 -7.81,11.29 -7.97,11.21 -8.11,11.10 -8.25,10.98 -8.36,10.84 -8.46,10.69 -8.53,10.53 -8.60,10.36 -8.63,10.19 -8.66,10.01 -8.64,9.83 -8.63,9.65 -8.54,8.98 -8.46,8.31 -8.21,7.19 -7.95,6.08 -7.48,5.07 -7.01,4.07 -6.45,2.80 -5.89,1.54 -5.03,0.41 -4.17,-0.72 -3.15,-1.07 -2.13,-1.42 -1.06,-1.03 0,-0.65 0.07,-0.64 0.15,-0.63 0.23,-0.60 0.30,-0.58 0.37,-0.53 0.43,-0.49 0.48,-0.43 0.54,-0.37 0.57,-0.30 0.61,-0.23 0.63,-0.15 0.65,-0.07 0.65,0.00 0.65,0.07 0.63,0.15 0.61,0.23 0.57,0.30 0.54,0.37 0.48,0.43 0.43,0.49 0.37,0.53 0.30,0.58 0.23,0.60 0.15,0.63 0.07,0.64 -0.00,0.65 -0.00,0.65 L 0,0.65 Z"/></g><g transform="translate(62.946533203125 72.98809814453125) rotate(0 0 0.4564361572265625)" stroke="none"><path fill="#6741d9" d="M 0.65,0.52 Q 0.65,0.52 0.63,0.62 0.62,0.73 0.57,0.82 0.52,0.92 0.44,0.99 0.36,1.06 0.27,1.11 0.17,1.15 0.07,1.16 -0.03,1.18 -0.13,1.15 -0.24,1.13 -0.33,1.08 -0.42,1.02 -0.49,0.94 -0.56,0.86 -0.60,0.76 -0.64,0.66 -0.64,0.55 -0.65,0.45 -0.62,0.35 -0.59,0.24 -0.53,0.16 -0.47,0.07 -0.39,0.00 -0.30,-0.05 -0.20,-0.08 -0.10,-0.12 0.00,-0.12 0.10,-0.12 0.20,-0.08 0.30,-0.05 0.39,0.00 0.47,0.07 0.53,0.16 0.59,0.24 0.62,0.35 0.65,0.45 0.64,0.56 0.64,0.66 0.60,0.76 0.56,0.86 0.49,0.94 0.42,1.02 0.33,1.08 0.24,1.13 0.13,1.15 0.03,1.18 -0.07,1.16 -0.17,1.15 -0.27,1.11 -0.36,1.06 -0.44,0.99 -0.52,0.92 -0.57,0.82 -0.62,0.73 -0.63,0.62 -0.65,0.52 -0.65,0.52 -0.65,0.52 -0.70,0.43 -0.76,0.35 -0.79,0.25 -0.82,0.15 -0.83,0.05 -0.83,-0.04 -0.82,-0.14 -0.80,-0.24 -0.76,-0.33 -0.72,-0.42 -0.66,-0.50 -0.60,-0.58 -0.52,-0.65 -0.44,-0.71 -0.34,-0.75 -0.25,-0.80 -0.15,-0.81 -0.05,-0.83 0.04,-0.83 0.14,-0.82 0.24,-0.79 0.33,-0.76 0.42,-0.71 0.51,-0.66 0.58,-0.59 0.65,-0.52 0.65,0.00 L 0.65,0.52 Z"/></g><g transform="translate(69.33660888671875 89.41976928710938) rotate(0 20.539581298828125 -12.780197143554688)" stroke="none"><path fill="#6741d9" d="M -0.46,-0.46 Q -0.46,-0.46 -0.00,-1.57 0.45,-2.68 1.52,-4.01 2.59,-5.33 3.80,-7.17 5.02,-9.02 6.04,-11.05 7.05,-13.09 8.00,-15.50 8.94,-17.91 10.42,-21.35 11.89,-24.78 12.75,-27.48 13.61,-30.17 13.96,-31.79 14.31,-33.40 13.22,-31.73 12.13,-30.06 11.19,-27.84 10.25,-25.62 9.32,-23.10 8.38,-20.57 7.49,-16.44 6.59,-12.31 5.94,-8.70 5.28,-5.09 5.01,-2.30 4.74,0.49 4.62,2.72 4.50,4.95 4.45,6.42 4.40,7.89 4.38,8.79 4.35,9.68 4.32,9.87 4.29,10.06 4.22,10.23 4.14,10.41 4.03,10.56 3.92,10.72 3.77,10.84 3.62,10.96 3.45,11.04 3.28,11.13 3.09,11.17 2.90,11.21 2.71,11.20 2.52,11.19 2.34,11.14 2.15,11.09 1.99,10.99 1.82,10.90 1.68,10.77 1.54,10.64 1.44,10.48 1.34,10.32 1.28,10.13 1.21,9.95 1.20,9.76 1.18,9.57 1.21,8.35 1.23,7.12 1.23,6.13 1.23,5.14 1.02,4.42 0.80,3.70 0.32,3.32 -0.14,2.94 -0.89,2.42 -1.64,1.91 -1.66,1.77 -1.69,1.64 -1.83,1.51 -1.97,1.39 -2.08,1.23 -2.19,1.07 -2.26,0.90 -2.32,0.72 -2.35,0.53 -2.37,0.34 -2.35,0.15 -2.33,-0.02 -2.26,-0.20 -2.19,-0.38 -2.09,-0.54 -1.98,-0.69 -1.84,-0.82 -1.69,-0.95 -1.53,-1.03 -1.36,-1.12 -1.17,-1.17 -0.99,-1.22 -0.80,-1.22 -0.61,-1.22 -0.43,-1.17 -0.24,-1.13 -0.07,-1.04 0.08,-0.95 1.28,-0.95 2.48,-0.95 3.71,-1.13 4.94,-1.32 6.83,-1.64 8.72,-1.97 10.17,-2.58 11.62,-3.20 13.11,-3.76 14.61,-4.31 15.60,-4.99 16.59,-5.66 17.16,-6.32 17.72,-6.97 17.47,-6.17 17.21,-5.38 17.50,-4.65 17.79,-3.92 18.78,-3.73 19.77,-3.54 19.96,-4.25 20.15,-4.96 19.17,-5.52 18.20,-6.08 17.71,-6.02 17.22,-5.97 17.06,-6.08 16.90,-6.18 16.77,-6.32 16.64,-6.46 16.55,-6.63 16.45,-6.80 16.40,-6.98 16.35,-7.17 16.35,-7.36 16.34,-7.55 16.38,-7.74 16.43,-7.92 16.51,-8.10 16.60,-8.27 16.72,-8.41 16.84,-8.56 17.00,-8.67 17.15,-8.79 17.33,-8.86 17.51,-8.93 17.70,-8.96 17.89,-8.99 18.08,-8.97 18.27,-8.95 18.45,-8.88 18.63,-8.82 19.21,-8.86 19.79,-8.90 20.40,-8.90 21.01,-8.90 21.79,-8.90 22.56,-8.89 23.51,-9.14 24.45,-9.38 25.23,-9.50 26.02,-9.62 27.12,-10.23 28.21,-10.85 28.58,-11.36 28.94,-11.88 29.47,-12.46 30.01,-13.04 30.49,-13.53 30.97,-14.03 31.05,-15.03 31.13,-16.02 31.45,-17.33 31.77,-18.65 31.61,-19.69 31.46,-20.73 31.40,-22.39 31.34,-24.04 31.32,-25.26 31.29,-26.47 31.05,-27.32 30.80,-28.17 30.51,-28.69 30.22,-29.20 29.65,-29.46 29.08,-29.72 28.86,-29.14 28.64,-28.56 28.24,-26.90 27.84,-25.23 27.37,-22.90 26.90,-20.56 26.71,-18.32 26.52,-16.08 26.43,-14.07 26.34,-12.07 26.57,-10.01 26.79,-7.94 26.89,-6.20 26.99,-4.45 27.26,-3.64 27.53,-2.83 27.88,-1.98 28.23,-1.13 28.74,-0.99 29.26,-0.84 29.95,-1.27 30.65,-1.69 31.61,-2.13 32.56,-2.57 33.14,-2.97 33.71,-3.37 34.20,-3.78 34.69,-4.18 35.16,-4.61 35.62,-5.04 36.04,-5.45 36.46,-5.86 37.22,-5.63 37.99,-5.40 37.39,-4.80 36.79,-4.19 36.42,-3.38 36.06,-2.57 35.88,-2.00 35.70,-1.43 35.63,-0.80 35.57,-0.18 36.10,-0.32 36.63,-0.47 37.27,-0.95 37.91,-1.43 38.75,-2.12 39.58,-2.81 40.14,-3.49 40.70,-4.17 41.39,-5.45 42.09,-6.73 42.13,-6.83 42.17,-6.92 42.24,-7.00 42.31,-7.08 42.40,-7.14 42.49,-7.19 42.60,-7.21 42.70,-7.23 42.81,-7.22 42.91,-7.20 43.01,-7.16 43.10,-7.11 43.18,-7.04 43.26,-6.96 43.30,-6.87 43.35,-6.77 43.37,-6.67 43.38,-6.56 43.36,-6.46 43.34,-6.35 43.29,-6.26 43.24,-6.17 43.16,-6.10 43.08,-6.02 42.99,-5.98 42.89,-5.94 42.78,-5.93 42.68,-5.92 42.57,-5.95 42.47,-5.97 42.38,-6.03 42.29,-6.08 42.22,-6.17 42.16,-6.25 42.12,-6.35 42.08,-6.45 42.08,-6.55 42.07,-6.66 42.10,-6.76 42.14,-6.86 42.20,-6.95 42.26,-7.04 42.34,-7.10 42.43,-7.16 42.53,-7.19 42.63,-7.23 42.74,-7.22 42.84,-7.22 42.94,-7.18 43.04,-7.15 43.13,-7.08 43.21,-7.02 43.27,-6.93 43.33,-6.84 43.35,-6.74 43.38,-6.63 43.37,-6.53 43.36,-6.42 43.36,-6.42 43.36,-6.42 43.27,-4.42 43.17,-2.42 42.42,-1.39 41.68,-0.36 40.68,0.49 39.68,1.34 38.47,2.04 37.26,2.74 35.86,2.80 34.46,2.86 33.68,2.23 32.89,1.61 32.58,0.59 32.27,-0.42 32.40,-1.44 32.53,-2.46 32.81,-3.30 33.10,-4.13 33.83,-5.39 34.55,-6.65 35.97,-7.47 37.38,-8.29 38.48,-7.23 39.57,-6.17 39.19,-4.96 38.81,-3.74 38.28,-3.23 37.75,-2.73 37.22,-2.24 36.69,-1.76 36.08,-1.26 35.46,-0.75 34.67,-0.24 33.88,0.27 32.87,0.74 31.85,1.21 30.37,1.68 28.89,2.16 27.78,1.84 26.68,1.51 26.03,0.84 25.38,0.16 24.95,-0.87 24.51,-1.91 24.18,-3.08 23.84,-4.25 23.75,-5.94 23.65,-7.62 23.43,-9.91 23.20,-12.20 23.29,-14.28 23.38,-16.35 23.60,-18.77 23.82,-21.18 24.31,-23.62 24.81,-26.06 25.46,-28.22 26.10,-30.39 27.10,-31.40 28.10,-32.41 29.53,-32.42 30.97,-32.43 31.96,-31.61 32.96,-30.78 33.43,-29.89 33.89,-29.00 34.20,-27.78 34.50,-26.55 34.52,-25.36 34.55,-24.16 34.60,-22.61 34.65,-21.06 34.77,-19.50 34.89,-17.94 34.61,-16.84 34.33,-15.73 34.18,-14.51 34.04,-13.29 33.68,-12.58 33.32,-11.87 32.84,-11.37 32.37,-10.87 31.87,-10.33 31.38,-9.80 30.57,-8.93 29.75,-8.06 28.97,-7.66 28.20,-7.26 27.38,-6.87 26.56,-6.47 25.87,-6.37 25.17,-6.27 23.87,-5.99 22.57,-5.71 21.78,-5.71 20.98,-5.71 20.36,-5.72 19.75,-5.73 18.48,-5.85 17.22,-5.97 17.06,-6.08 16.90,-6.18 16.77,-6.32 16.64,-6.46 16.55,-6.63 16.45,-6.80 16.40,-6.98 16.35,-7.17 16.35,-7.36 16.34,-7.55 16.38,-7.74 16.43,-7.92 16.51,-8.10 16.60,-8.27 16.72,-8.41 16.84,-8.56 17.00,-8.67 17.15,-8.79 17.33,-8.86 17.51,-8.93 17.70,-8.96 17.89,-8.99 18.08,-8.97 18.27,-8.95 18.45,-8.88 18.63,-8.82 18.94,-8.90 19.24,-8.98 20.52,-8.29 21.80,-7.60 22.27,-6.93 22.74,-6.26 22.94,-5.35 23.14,-4.44 22.87,-3.61 22.60,-2.79 21.95,-1.95 21.30,-1.11 20.51,-0.81 19.73,-0.51 18.59,-0.68 17.45,-0.85 16.41,-1.41 15.38,-1.97 14.71,-3.16 14.03,-4.36 14.04,-5.05 14.05,-5.75 14.21,-6.68 14.37,-7.61 14.84,-8.27 15.30,-8.92 16.21,-9.28 17.11,-9.63 17.83,-9.51 18.55,-9.38 19.21,-8.94 19.86,-8.50 20.23,-7.62 20.60,-6.75 20.41,-5.93 20.21,-5.12 19.28,-4.08 18.34,-3.05 17.03,-2.20 15.72,-1.36 14.27,-0.83 12.82,-0.29 11.05,0.41 9.27,1.13 7.29,1.47 5.30,1.81 3.58,1.97 1.86,2.12 1.15,1.90 0.43,1.69 -0.62,1.66 -1.69,1.64 -1.83,1.51 -1.97,1.39 -2.08,1.23 -2.19,1.07 -2.26,0.90 -2.32,0.72 -2.35,0.53 -2.37,0.34 -2.35,0.15 -2.33,-0.02 -2.26,-0.20 -2.19,-0.38 -2.09,-0.54 -1.98,-0.69 -1.84,-0.82 -1.69,-0.95 -1.53,-1.03 -1.36,-1.12 -1.18,-1.17 -0.99,-1.22 -0.80,-1.22 -0.61,-1.22 -0.43,-1.17 -0.24,-1.13 -0.07,-1.04 0.08,-0.95 0.21,-0.62 0.34,-0.29 1.18,0.27 2.03,0.84 2.82,1.79 3.62,2.74 3.93,3.92 4.24,5.10 4.24,6.11 4.25,7.11 4.30,8.40 4.35,9.68 4.32,9.87 4.29,10.06 4.22,10.23 4.14,10.41 4.03,10.56 3.92,10.72 3.77,10.84 3.62,10.96 3.45,11.04 3.28,11.13 3.09,11.17 2.90,11.21 2.71,11.20 2.52,11.19 2.34,11.14 2.15,11.09 1.99,10.99 1.82,10.90 1.68,10.77 1.54,10.64 1.44,10.48 1.34,10.32 1.28,10.13 1.21,9.95 1.20,9.76 1.18,9.57 1.20,8.68 1.21,7.78 1.26,6.28 1.32,4.78 1.43,2.48 1.55,0.18 1.84,-2.74 2.13,-5.66 2.79,-9.33 3.45,-12.99 4.41,-17.34 5.37,-21.69 6.33,-24.29 7.29,-26.89 8.35,-29.33 9.41,-31.76 10.76,-33.77 12.11,-35.77 13.34,-36.32 14.57,-36.86 15.54,-36.48 16.52,-36.10 16.97,-34.43 17.43,-32.77 17.03,-30.98 16.63,-29.20 15.72,-26.37 14.81,-23.53 13.35,-20.14 11.89,-16.75 10.89,-14.21 9.88,-11.67 8.77,-9.47 7.66,-7.26 6.35,-5.30 5.04,-3.34 3.86,-1.90 2.69,-0.45 1.57,0.00 0.46,0.46 0.40,0.51 0.33,0.56 0.26,0.59 0.19,0.62 0.11,0.64 0.03,0.65 -0.03,0.65 -0.11,0.64 -0.19,0.62 -0.26,0.59 -0.33,0.55 -0.40,0.51 -0.46,0.46 -0.51,0.40 -0.55,0.33 -0.59,0.26 -0.62,0.19 -0.64,0.11 -0.65,0.03 -0.65,-0.03 -0.64,-0.11 -0.62,-0.19 -0.59,-0.26 -0.56,-0.33 -0.51,-0.40 -0.46,-0.46 -0.46,-0.46 L -0.46,-0.46 Z"/></g><g transform="translate(111.32867431640625 60.2078857421875) rotate(0 8.2158203125 13.236648559570312)" stroke="none"><path fill="#6741d9" d="M -0.65,0 Q -0.65,0 -0.84,-0.80 -1.03,-1.61 -0.80,-2.42 -0.57,-3.24 -0.50,-3.78 -0.43,-4.32 -0.35,-4.45 -0.27,-4.59 -0.16,-4.70 -0.05,-4.81 0.07,-4.89 0.20,-4.97 0.35,-5.02 0.50,-5.07 0.65,-5.08 0.81,-5.09 0.96,-5.06 1.12,-5.04 1.26,-4.97 1.40,-4.91 1.53,-4.82 1.65,-4.72 1.75,-4.60 1.85,-4.48 1.91,-4.33 1.98,-4.19 2.01,-4.04 2.04,-3.89 2.03,-3.73 2.02,-3.57 1.97,-3.42 1.93,-3.27 2.18,-2.60 2.43,-1.92 2.45,-0.84 2.47,0.23 2.22,2.62 1.96,5.00 1.86,6.98 1.75,8.96 1.71,11.10 1.68,13.25 1.67,15.48 1.66,17.70 1.66,19.44 1.66,21.17 1.38,22.84 1.10,24.50 1.00,25.37 0.89,26.24 0.83,26.80 0.78,27.36 1.32,26.83 1.86,26.29 2.17,25.84 2.48,25.39 3.53,24.32 4.58,23.24 4.91,22.67 5.25,22.09 5.67,21.30 6.09,20.52 6.37,19.95 6.65,19.38 7.35,19.09 8.04,18.81 8.60,19.46 9.16,20.10 9.91,20.68 10.66,21.26 11.16,21.50 11.66,21.74 12.79,22.44 13.92,23.14 14.86,23.67 15.80,24.19 16.59,24.75 17.37,25.32 17.90,26.17 18.44,27.02 18.27,28.36 18.11,29.70 15.76,30.59 13.40,31.49 13.30,31.51 13.20,31.54 13.09,31.52 12.99,31.51 12.89,31.47 12.79,31.42 12.72,31.35 12.64,31.27 12.59,31.18 12.54,31.09 12.53,30.98 12.51,30.88 12.53,30.77 12.55,30.67 12.60,30.57 12.65,30.48 12.72,30.41 12.80,30.33 12.90,30.29 13.00,30.25 13.10,30.24 13.21,30.22 13.31,30.25 13.41,30.27 13.50,30.33 13.60,30.38 13.66,30.46 13.73,30.55 13.77,30.64 13.81,30.74 13.81,30.85 13.82,30.96 13.79,31.06 13.76,31.16 13.70,31.25 13.64,31.34 13.55,31.40 13.47,31.46 13.37,31.50 13.27,31.53 13.16,31.53 13.05,31.53 12.95,31.49 12.85,31.46 12.77,31.39 12.69,31.33 12.63,31.24 12.57,31.15 12.54,31.05 12.51,30.95 12.52,30.84 12.53,30.73 12.57,30.64 12.61,30.54 12.68,30.46 12.74,30.38 12.84,30.32 12.93,30.27 12.93,30.27 12.93,30.27 14.12,29.12 15.30,27.98 14.73,27.55 14.16,27.12 13.14,26.55 12.13,25.98 11.12,25.34 10.11,24.70 9.29,24.25 8.48,23.80 7.36,22.75 6.24,21.70 5.89,21.03 5.54,20.36 5.36,19.61 5.18,18.86 5.66,18.04 6.15,17.22 7.42,17.28 8.70,17.34 9.11,18.01 9.53,18.68 9.52,19.62 9.51,20.56 9.25,21.32 9.00,22.09 8.52,22.96 8.04,23.83 7.49,24.68 6.93,25.53 5.90,26.57 4.87,27.62 3.98,28.45 3.09,29.29 2.05,29.63 1.00,29.97 0.08,29.84 -0.83,29.70 -1.65,28.50 -2.46,27.31 -2.42,26.57 -2.38,25.83 -2.26,24.88 -2.14,23.93 -1.89,22.54 -1.63,21.15 -1.62,19.41 -1.60,17.67 -1.57,15.43 -1.54,13.18 -1.48,10.98 -1.43,8.79 -1.31,6.72 -1.20,4.65 -0.93,2.45 -0.67,0.26 -0.67,-0.78 -0.67,-1.83 -0.67,-2.39 -0.66,-2.95 -0.55,-3.63 -0.43,-4.32 -0.35,-4.45 -0.27,-4.59 -0.16,-4.70 -0.05,-4.81 0.07,-4.89 0.20,-4.97 0.35,-5.02 0.50,-5.07 0.65,-5.08 0.81,-5.09 0.96,-5.06 1.12,-5.04 1.26,-4.97 1.40,-4.91 1.53,-4.82 1.65,-4.72 1.75,-4.60 1.85,-4.48 1.91,-4.33 1.98,-4.19 2.01,-4.04 2.04,-3.89 2.03,-3.73 2.02,-3.57 1.97,-3.42 1.93,-3.28 1.48,-2.40 1.03,-1.53 0.84,-0.76 0.65,0 0.64,0.07 0.63,0.15 0.60,0.23 0.58,0.30 0.53,0.37 0.49,0.43 0.43,0.48 0.37,0.54 0.30,0.57 0.23,0.61 0.15,0.63 0.07,0.65 -0.00,0.65 -0.07,0.65 -0.15,0.63 -0.23,0.61 -0.30,0.57 -0.37,0.54 -0.43,0.48 -0.49,0.43 -0.53,0.37 -0.58,0.30 -0.60,0.23 -0.63,0.15 -0.64,0.07 -0.65,-0.00 -0.65,-0.00 L -0.65,0 Z"/></g><g transform="translate(19.128692626953125 113.1544189453125) rotate(0 3.6514892578125 2.28216552734375)" stroke="none"><path fill="#6741d9" d="M 0.20,0.62 Q 0.20,0.62 -0.44,1.28 -1.10,1.95 -1.79,2.11 -2.48,2.27 -3.57,2.33 -4.67,2.40 -5.13,2.90 -5.60,3.39 -6.36,3.83 -7.12,4.26 -7.33,4.76 -7.54,5.27 -6.44,5.67 -5.35,6.07 -4.38,6.21 -3.41,6.35 -2.16,5.93 -0.91,5.50 -0.04,5.38 0.81,5.25 1.11,4.61 1.40,3.97 0.43,3.46 -0.53,2.95 -1.37,2.78 -2.21,2.62 -2.69,2.58 -3.17,2.55 -3.36,2.50 -3.55,2.45 -3.72,2.35 -3.89,2.26 -4.03,2.12 -4.17,1.99 -4.28,1.83 -4.38,1.67 -4.45,1.48 -4.51,1.30 -4.53,1.11 -4.55,0.91 -4.52,0.72 -4.49,0.53 -4.41,0.35 -4.34,0.17 -4.23,0.01 -4.11,-0.13 -3.96,-0.26 -3.81,-0.38 -3.64,-0.47 -3.47,-0.55 -3.28,-0.60 -3.09,-0.64 -2.89,-0.63 -2.70,-0.63 -2.03,-0.23 -1.36,0.16 -0.01,0.45 1.32,0.73 2.50,0.84 3.69,0.96 4.82,0.76 5.95,0.56 6.79,0.03 7.64,-0.48 8.64,-1.01 9.65,-1.55 10.25,-1.98 10.84,-2.41 11.58,-3.07 12.32,-3.74 12.58,-4.45 12.85,-5.17 12.49,-6.12 12.14,-7.07 11.71,-7.61 11.28,-8.16 11.14,-8.72 10.99,-9.28 10.05,-8.74 9.10,-8.20 8.79,-7.76 8.48,-7.32 8.39,-6.56 8.30,-5.79 8.21,-4.15 8.13,-2.51 8.09,-1.00 8.04,0.51 8.03,2.19 8.01,3.88 8.00,5.65 7.99,7.42 7.99,8.96 7.99,10.50 7.98,11.68 7.98,12.86 7.94,13.73 7.90,14.61 6.94,15.49 5.97,16.36 5.22,16.28 4.46,16.19 3.72,15.38 2.98,14.57 2.58,14.12 2.18,13.66 1.77,13.22 1.36,12.78 0.89,12.56 0.42,12.34 0.30,12.19 0.19,12.03 0.12,11.85 0.04,11.68 0.02,11.49 -0.00,11.30 0.00,11.11 0.02,10.92 0.08,10.73 0.15,10.55 0.25,10.39 0.36,10.23 0.50,10.10 0.63,9.97 0.80,9.87 0.97,9.78 1.15,9.73 1.34,9.68 1.53,9.67 1.72,9.66 1.91,9.70 2.10,9.74 2.27,9.83 2.44,9.91 2.59,10.04 2.74,10.16 4.25,10.19 5.76,10.22 7.25,10.23 8.73,10.25 11.81,9.98 14.89,9.72 14.99,9.72 15.10,9.71 15.20,9.74 15.30,9.76 15.39,9.82 15.48,9.88 15.55,9.96 15.61,10.05 15.65,10.15 15.68,10.25 15.68,10.35 15.68,10.46 15.65,10.56 15.62,10.66 15.56,10.75 15.49,10.83 15.41,10.89 15.32,10.95 15.22,10.98 15.12,11.01 15.01,11.01 14.90,11.01 14.80,10.97 14.70,10.93 14.62,10.86 14.54,10.79 14.48,10.70 14.43,10.61 14.40,10.51 14.38,10.41 14.39,10.30 14.40,10.20 14.44,10.10 14.49,10.00 14.56,9.92 14.63,9.85 14.72,9.79 14.82,9.74 14.92,9.72 15.03,9.71 15.13,9.72 15.24,9.74 15.33,9.79 15.43,9.83 15.50,9.91 15.57,9.99 15.62,10.08 15.67,10.18 15.68,10.28 15.69,10.39 15.67,10.49 15.65,10.60 15.60,10.69 15.54,10.78 15.46,10.85 15.38,10.92 15.28,10.96 15.19,11.00 15.19,11.00 15.19,11.00 11.95,12.22 8.72,13.44 7.19,13.43 5.67,13.41 4.53,13.37 3.40,13.34 2.47,13.18 1.54,13.02 0.98,12.68 0.42,12.34 0.30,12.19 0.19,12.03 0.12,11.85 0.04,11.68 0.02,11.49 -0.00,11.30 0.00,11.11 0.02,10.92 0.08,10.73 0.15,10.55 0.25,10.39 0.36,10.23 0.49,10.10 0.63,9.97 0.80,9.87 0.97,9.78 1.15,9.73 1.34,9.68 1.53,9.67 1.72,9.66 1.91,9.70 2.10,9.74 2.27,9.83 2.44,9.91 2.59,10.04 2.74,10.16 3.17,10.35 3.61,10.53 4.10,11.05 4.59,11.57 5.18,12.47 5.76,13.38 5.32,13.77 4.87,14.16 4.83,13.51 4.79,12.85 4.79,11.67 4.79,10.49 4.80,8.95 4.81,7.41 4.81,5.63 4.82,3.85 4.84,2.13 4.86,0.41 4.90,-1.14 4.95,-2.70 5.08,-4.60 5.20,-6.49 5.60,-7.87 6.00,-9.24 6.85,-10.14 7.70,-11.03 8.56,-11.41 9.41,-11.80 10.34,-11.96 11.27,-12.12 12.30,-11.59 13.33,-11.07 13.59,-10.57 13.84,-10.08 14.37,-9.39 14.89,-8.70 15.47,-7.47 16.06,-6.25 15.99,-5.26 15.92,-4.28 15.69,-3.59 15.46,-2.90 14.97,-2.14 14.48,-1.39 13.58,-0.60 12.69,0.19 11.92,0.73 11.15,1.27 10.17,1.78 9.20,2.29 7.85,2.99 6.50,3.69 4.95,3.91 3.40,4.12 1.97,3.98 0.54,3.83 -0.68,3.52 -1.91,3.21 -2.54,2.88 -3.17,2.55 -3.36,2.50 -3.55,2.45 -3.72,2.35 -3.89,2.26 -4.03,2.12 -4.17,1.99 -4.28,1.83 -4.38,1.67 -4.45,1.48 -4.51,1.30 -4.53,1.11 -4.55,0.91 -4.52,0.72 -4.49,0.53 -4.42,0.35 -4.34,0.17 -4.23,0.01 -4.11,-0.13 -3.96,-0.26 -3.82,-0.38 -3.64,-0.47 -3.47,-0.55 -3.28,-0.60 -3.09,-0.64 -2.89,-0.63 -2.70,-0.63 -2.22,-0.60 -1.74,-0.57 -1.11,-0.46 -0.48,-0.36 0.25,-0.12 0.99,0.11 1.82,0.57 2.64,1.02 3.47,1.66 4.29,2.30 4.48,3.03 4.68,3.77 4.31,4.83 3.95,5.88 2.93,6.97 1.92,8.07 0.93,8.32 -0.05,8.57 -1.93,9.02 -3.80,9.47 -5.25,9.21 -6.69,8.95 -7.91,8.31 -9.13,7.67 -9.72,6.76 -10.32,5.84 -10.23,4.82 -10.15,3.80 -9.58,2.79 -9.01,1.78 -8.34,1.36 -7.67,0.94 -7.13,0.50 -6.59,0.05 -5.81,-0.32 -5.02,-0.71 -3.53,-0.81 -2.04,-0.90 -1.12,-0.76 -0.20,-0.62 -0.13,-0.63 -0.05,-0.65 0.02,-0.65 0.10,-0.64 0.18,-0.62 0.25,-0.60 0.32,-0.56 0.39,-0.52 0.45,-0.46 0.50,-0.41 0.55,-0.34 0.59,-0.28 0.61,-0.20 0.64,-0.13 0.64,-0.05 0.65,0.02 0.64,0.10 0.63,0.18 0.59,0.25 0.56,0.32 0.52,0.39 0.47,0.45 0.41,0.50 0.35,0.55 0.27,0.58 0.20,0.62 0.20,0.62 L 0.20,0.62 Z"/></g><g transform="translate(50.16632080078125 119.54449462890625) rotate(0 5.020782470703125 -2.28216552734375)" stroke="none"><path fill="#6741d9" d="M -0.54,-0.36 Q -0.54,-0.36 -0.32,-1.35 -0.11,-2.33 0.44,-3.47 0.99,-4.61 1.07,-5.18 1.15,-5.74 0.90,-6.28 0.65,-6.83 0.70,-7.00 0.75,-7.18 0.84,-7.34 0.92,-7.51 1.05,-7.64 1.17,-7.78 1.33,-7.88 1.48,-7.98 1.65,-8.04 1.83,-8.11 2.01,-8.13 2.19,-8.14 2.38,-8.12 2.56,-8.09 2.73,-8.03 2.90,-7.96 3.05,-7.85 3.20,-7.74 3.32,-7.60 3.44,-7.46 3.52,-7.30 3.61,-7.13 3.65,-6.96 3.69,-6.78 3.69,-6.59 3.68,-6.41 5.16,-5.74 6.63,-5.07 7.40,-4.47 8.16,-3.87 8.85,-2.98 9.54,-2.08 10.40,-0.86 11.26,0.35 11.30,1.29 11.33,2.23 10.89,2.93 10.44,3.62 8.12,3.50 5.80,3.38 5.70,3.37 5.59,3.35 5.50,3.31 5.40,3.26 5.32,3.18 5.25,3.11 5.20,3.02 5.15,2.92 5.14,2.82 5.12,2.71 5.14,2.61 5.16,2.50 5.21,2.41 5.26,2.32 5.34,2.24 5.42,2.17 5.52,2.13 5.61,2.09 5.72,2.08 5.82,2.07 5.93,2.09 6.03,2.12 6.12,2.17 6.21,2.23 6.28,2.31 6.35,2.39 6.38,2.49 6.42,2.59 6.43,2.70 6.43,2.81 6.40,2.91 6.37,3.01 6.31,3.10 6.25,3.18 6.16,3.25 6.07,3.31 5.97,3.34 5.87,3.37 5.77,3.37 5.66,3.37 5.56,3.33 5.46,3.30 5.38,3.23 5.29,3.17 5.23,3.08 5.18,2.99 5.15,2.88 5.12,2.78 5.13,2.68 5.14,2.57 5.18,2.47 5.22,2.37 5.29,2.29 5.36,2.21 5.45,2.16 5.55,2.11 5.65,2.09 5.75,2.07 5.75,2.07 5.75,2.07 7.02,1.36 8.28,0.66 7.67,0.25 7.05,-0.16 6.62,-0.79 6.18,-1.42 5.54,-1.94 4.89,-2.46 3.84,-3.16 2.80,-3.85 1.98,-4.52 1.16,-5.19 0.91,-6.01 0.65,-6.83 0.70,-7.00 0.75,-7.18 0.84,-7.34 0.92,-7.51 1.05,-7.64 1.17,-7.78 1.33,-7.88 1.48,-7.98 1.65,-8.04 1.83,-8.11 2.01,-8.13 2.19,-8.14 2.38,-8.12 2.56,-8.09 2.73,-8.03 2.90,-7.96 3.05,-7.85 3.20,-7.74 3.32,-7.60 3.44,-7.46 3.52,-7.30 3.61,-7.13 3.65,-6.96 3.69,-6.78 3.69,-6.59 3.68,-6.41 3.90,-6.03 4.12,-5.65 4.03,-4.98 3.94,-4.31 3.39,-3.28 2.84,-2.25 2.52,-1.53 2.21,-0.81 1.37,-0.22 0.54,0.36 0.49,0.42 0.44,0.48 0.37,0.53 0.31,0.57 0.24,0.60 0.16,0.63 0.08,0.64 0.01,0.65 -0.06,0.64 -0.14,0.64 -0.22,0.61 -0.29,0.58 -0.36,0.54 -0.42,0.49 -0.48,0.44 -0.53,0.38 -0.57,0.31 -0.61,0.24 -0.63,0.16 -0.65,0.08 -0.65,0.01 -0.65,-0.06 -0.63,-0.14 -0.61,-0.22 -0.58,-0.29 -0.54,-0.36 -0.54,-0.36 L -0.54,-0.36 Z"/></g><g transform="translate(65.68511962890625 111.32867431640625) rotate(0 -1.82574462890625 12.780181884765625)" stroke="none"><path fill="#6741d9" d="M 0.64,0.12 Q 0.64,0.12 0.83,1.53 1.02,2.93 0.65,4.56 0.27,6.19 0.14,7.82 0.00,9.45 -0.05,11.19 -0.10,12.94 -0.41,14.84 -0.71,16.75 -0.82,18.75 -0.94,20.75 -1.87,22.78 -2.81,24.81 -2.85,24.91 -2.89,25.01 -2.96,25.09 -3.03,25.17 -3.12,25.23 -3.21,25.28 -3.31,25.30 -3.42,25.33 -3.52,25.31 -3.63,25.30 -3.72,25.26 -3.82,25.21 -3.90,25.14 -3.97,25.07 -4.02,24.97 -4.07,24.88 -4.09,24.77 -4.11,24.67 -4.09,24.56 -4.07,24.46 -4.02,24.36 -3.97,24.27 -3.89,24.20 -3.82,24.13 -3.72,24.08 -3.62,24.04 -3.52,24.03 -3.41,24.01 -3.31,24.04 -3.20,24.06 -3.11,24.12 -3.02,24.17 -2.95,24.25 -2.88,24.33 -2.85,24.43 -2.81,24.53 -2.80,24.64 -2.80,24.74 -2.82,24.85 -2.85,24.95 -2.91,25.04 -2.97,25.12 -3.06,25.19 -3.14,25.25 -3.24,25.28 -3.34,25.32 -3.45,25.32 -3.56,25.32 -3.66,25.28 -3.76,25.25 -3.84,25.18 -3.93,25.12 -3.99,25.03 -4.05,24.94 -4.07,24.84 -4.10,24.74 -4.10,24.63 -4.09,24.53 -4.09,24.53 -4.09,24.53 -4.13,22.54 -4.16,20.55 -4.03,18.39 -3.90,16.24 -3.62,14.52 -3.34,12.81 -3.26,10.98 -3.19,9.15 -3.00,7.31 -2.82,5.48 -2.44,3.89 -2.07,2.31 -1.35,1.09 -0.64,-0.12 -0.61,-0.20 -0.59,-0.27 -0.55,-0.34 -0.51,-0.41 -0.45,-0.46 -0.39,-0.52 -0.32,-0.56 -0.25,-0.60 -0.18,-0.62 -0.10,-0.64 -0.02,-0.65 0.05,-0.65 0.12,-0.63 0.20,-0.62 0.27,-0.59 0.34,-0.55 0.41,-0.50 0.47,-0.45 0.51,-0.39 0.56,-0.33 0.59,-0.25 0.63,-0.18 0.64,-0.10 0.65,-0.02 0.64,0.04 0.64,0.12 0.64,0.12 L 0.64,0.12 Z"/></g><g transform="translate(62.946533203125 112.24154663085938) rotate(0 4.5643310546875 2.7386016845703125)" stroke="none"><path fill="#6741d9" d="M -0.29,-0.58 Q -0.29,-0.58 0.58,-1.46 1.46,-2.33 2.61,-2.61 3.75,-2.89 5.24,-2.74 6.73,-2.59 7.85,-1.84 8.97,-1.09 9.53,-0.05 10.08,0.99 10.27,2.11 10.45,3.24 9.92,4.54 9.38,5.84 6.74,6.85 4.11,7.87 4.00,7.87 3.90,7.88 3.80,7.85 3.69,7.82 3.60,7.76 3.52,7.71 3.45,7.62 3.39,7.54 3.35,7.44 3.32,7.34 3.32,7.23 3.31,7.12 3.35,7.02 3.38,6.92 3.44,6.84 3.51,6.75 3.60,6.69 3.68,6.63 3.78,6.60 3.89,6.57 3.99,6.58 4.10,6.58 4.20,6.62 4.30,6.66 4.38,6.73 4.46,6.80 4.52,6.89 4.57,6.98 4.60,7.08 4.62,7.18 4.61,7.29 4.60,7.40 4.55,7.49 4.51,7.59 4.44,7.67 4.37,7.74 4.27,7.80 4.18,7.85 4.07,7.86 3.97,7.88 3.86,7.87 3.76,7.85 3.66,7.80 3.57,7.75 3.50,7.67 3.42,7.60 3.38,7.50 3.33,7.41 3.32,7.30 3.31,7.20 3.33,7.09 3.35,6.99 3.41,6.90 3.46,6.80 3.54,6.73 3.62,6.67 3.72,6.63 3.82,6.59 3.82,6.59 3.82,6.59 5.20,5.44 6.59,4.30 6.99,3.83 7.38,3.35 7.19,2.25 6.99,1.15 6.56,0.71 6.14,0.27 5.23,0.08 4.32,-0.09 3.52,0.06 2.73,0.23 1.51,0.41 0.29,0.58 0.21,0.61 0.14,0.64 0.06,0.64 -0.01,0.65 -0.09,0.64 -0.16,0.63 -0.24,0.60 -0.31,0.57 -0.38,0.52 -0.44,0.48 -0.49,0.42 -0.54,0.36 -0.58,0.29 -0.61,0.22 -0.63,0.14 -0.65,0.06 -0.65,-0.01 -0.65,-0.09 -0.62,-0.16 -0.60,-0.24 -0.57,-0.31 -0.53,-0.38 -0.47,-0.44 -0.42,-0.50 -0.35,-0.54 -0.29,-0.58 -0.29,-0.58 L -0.29,-0.58 Z"/></g><g transform="translate(74.8138427734375 115.89303588867188) rotate(0 15.9752197265625 -0.9128875732421875)" stroke="none"><path fill="#6741d9" d="M -0.20,0.62 Q -0.20,0.62 -1.15,0.69 -2.10,0.76 -2.72,0.17 -3.34,-0.41 -3.63,-1.38 -3.91,-2.35 -3.96,-3.35 -4.01,-4.36 -3.62,-5.10 -3.24,-5.85 -2.42,-6.21 -1.60,-6.57 -0.76,-6.34 0.08,-6.12 0.79,-5.28 1.49,-4.45 1.80,-3.13 2.11,-1.81 2.20,-1.07 2.29,-0.33 2.80,0.33 3.32,1.01 3.95,1.04 4.58,1.06 5.12,0.85 5.67,0.64 6.45,0.32 7.23,-0.00 7.95,-0.58 8.68,-1.16 9.27,-1.67 9.87,-2.18 10.45,-3.07 11.04,-3.97 11.64,-4.30 12.24,-4.62 12.60,-5.27 12.96,-5.91 13.63,-6.29 14.30,-6.66 14.91,-6.78 15.52,-6.91 16.50,-6.97 17.47,-7.02 17.66,-7.01 17.85,-7.00 18.03,-6.95 18.21,-6.89 18.38,-6.80 18.54,-6.70 18.68,-6.57 18.81,-6.44 18.91,-6.27 19.01,-6.11 19.07,-5.93 19.13,-5.75 19.14,-5.56 19.15,-5.37 19.12,-5.19 19.09,-5.00 19.01,-4.83 18.94,-4.65 18.82,-4.50 18.71,-4.35 18.56,-4.23 18.41,-4.11 18.24,-4.03 18.07,-3.95 17.88,-3.92 17.69,-3.88 16.89,-3.88 16.08,-3.88 15.21,-3.88 14.34,-3.88 13.64,-3.32 12.93,-2.76 12.48,-1.69 12.02,-0.63 12.17,0.00 12.32,0.63 13.31,1.11 14.31,1.60 15.32,1.77 16.33,1.95 16.91,1.74 17.50,1.54 18.28,1.21 19.07,0.89 20.04,0.06 21.01,-0.75 21.75,-1.39 22.48,-2.04 23.04,-2.55 23.59,-3.06 24.13,-3.93 24.66,-4.81 25.10,-4.15 25.54,-3.49 24.83,-3.64 24.12,-3.80 23.95,-4.31 23.77,-4.82 23.74,-4.17 23.71,-3.51 23.34,-2.59 22.97,-1.67 23.13,-0.85 23.29,-0.03 23.24,0.82 23.19,1.67 24.28,1.48 25.37,1.28 25.96,1.04 26.55,0.79 28.04,-0.26 29.53,-1.32 31.51,-2.41 33.49,-3.51 33.58,-3.56 33.67,-3.61 33.78,-3.64 33.88,-3.66 33.99,-3.65 34.09,-3.63 34.19,-3.59 34.29,-3.54 34.36,-3.47 34.44,-3.40 34.49,-3.30 34.54,-3.21 34.55,-3.10 34.57,-3.00 34.55,-2.89 34.53,-2.79 34.48,-2.69 34.43,-2.60 34.35,-2.53 34.28,-2.46 34.18,-2.41 34.08,-2.37 33.98,-2.36 33.87,-2.35 33.77,-2.37 33.66,-2.40 33.57,-2.45 33.48,-2.51 33.41,-2.59 33.35,-2.67 33.31,-2.77 33.27,-2.87 33.26,-2.97 33.26,-3.08 33.29,-3.18 33.32,-3.28 33.38,-3.37 33.44,-3.46 33.52,-3.52 33.61,-3.59 33.71,-3.62 33.81,-3.65 33.92,-3.65 34.02,-3.65 34.12,-3.61 34.23,-3.58 34.31,-3.52 34.39,-3.45 34.45,-3.36 34.51,-3.27 34.54,-3.17 34.57,-3.07 34.56,-2.96 34.55,-2.86 34.51,-2.76 34.47,-2.66 34.40,-2.58 34.33,-2.50 34.33,-2.50 34.33,-2.50 32.81,-0.67 31.29,1.14 29.47,2.44 27.65,3.73 26.63,4.07 25.60,4.42 23.91,4.37 22.22,4.32 21.35,3.47 20.47,2.62 20.32,1.45 20.17,0.28 20.10,-1.20 20.03,-2.68 20.35,-3.47 20.67,-4.27 21.03,-5.17 21.39,-6.08 22.50,-6.53 23.61,-6.98 24.15,-6.94 24.69,-6.90 25.31,-6.77 25.94,-6.64 26.43,-6.36 26.93,-6.09 26.77,-4.14 26.60,-2.20 26.20,-1.50 25.79,-0.80 25.18,-0.22 24.57,0.34 23.78,1.02 23.00,1.70 21.65,2.76 20.29,3.81 19.30,4.21 18.31,4.60 17.19,4.85 16.06,5.10 15.11,4.98 14.15,4.85 13.40,4.59 12.65,4.32 11.79,3.77 10.92,3.22 10.18,2.36 9.43,1.50 9.32,0.93 9.21,0.36 9.14,-0.61 9.07,-1.59 9.40,-2.37 9.73,-3.16 10.02,-3.87 10.31,-4.59 11.00,-5.44 11.69,-6.29 13.02,-6.68 14.34,-7.07 15.22,-7.07 16.09,-7.07 16.78,-7.04 17.47,-7.02 17.66,-7.01 17.85,-7.00 18.03,-6.95 18.21,-6.89 18.38,-6.80 18.54,-6.70 18.68,-6.57 18.81,-6.44 18.91,-6.27 19.01,-6.11 19.07,-5.93 19.13,-5.75 19.14,-5.56 19.15,-5.37 19.12,-5.19 19.09,-5.00 19.01,-4.83 18.94,-4.65 18.82,-4.50 18.71,-4.35 18.56,-4.23 18.41,-4.11 18.24,-4.03 18.07,-3.95 17.88,-3.92 17.69,-3.88 16.87,-3.85 16.05,-3.82 15.43,-3.57 14.81,-3.32 14.35,-2.69 13.88,-2.07 13.36,-1.66 12.83,-1.24 12.39,-0.54 11.96,0.15 11.26,0.74 10.57,1.33 9.50,2.11 8.43,2.88 7.46,3.27 6.49,3.66 5.38,3.90 4.28,4.14 3.32,3.97 2.35,3.80 1.68,3.39 1.00,2.97 0.52,2.34 0.03,1.70 -0.33,0.89 -0.70,0.07 -0.77,-0.60 -0.84,-1.28 -0.90,-2.05 -0.97,-2.82 -1.12,-3.50 -1.28,-4.17 -1.21,-3.55 -1.13,-2.92 -1.09,-2.37 -1.04,-1.81 -0.41,-1.22 0.20,-0.62 0.27,-0.58 0.35,-0.55 0.41,-0.50 0.47,-0.45 0.52,-0.39 0.56,-0.32 0.59,-0.25 0.63,-0.18 0.64,-0.10 0.65,-0.02 0.64,0.05 0.64,0.13 0.61,0.20 0.59,0.28 0.55,0.34 0.50,0.41 0.45,0.46 0.39,0.52 0.32,0.56 0.25,0.60 0.18,0.62 0.10,0.64 0.02,0.65 -0.05,0.65 -0.13,0.63 -0.20,0.62 -0.20,0.62 L -0.20,0.62 Z"/></g><g transform="translate(114.0672607421875 114.98016357421875) rotate(0 3.6514892578125 0)" stroke="none"><path fill="#6741d9" d="M 0,-0.65 Q 0,-0.65 1.31,-1.15 2.62,-1.65 4.54,-1.15 6.45,-0.65 6.56,-0.63 6.66,-0.62 6.76,-0.57 6.85,-0.52 6.92,-0.44 7.00,-0.36 7.04,-0.27 7.09,-0.17 7.10,-0.07 7.11,0.03 7.09,0.13 7.06,0.24 7.01,0.33 6.95,0.42 6.87,0.49 6.79,0.56 6.69,0.60 6.59,0.64 6.49,0.64 6.38,0.65 6.28,0.62 6.18,0.59 6.09,0.53 6.00,0.47 5.94,0.39 5.87,0.30 5.84,0.20 5.80,0.10 5.80,-0.00 5.80,-0.10 5.84,-0.20 5.87,-0.30 5.94,-0.39 6.00,-0.47 6.09,-0.53 6.18,-0.59 6.28,-0.62 6.38,-0.65 6.49,-0.64 6.59,-0.64 6.69,-0.60 6.79,-0.56 6.87,-0.49 6.95,-0.42 7.01,-0.33 7.06,-0.24 7.09,-0.13 7.11,-0.03 7.10,0.07 7.09,0.17 7.04,0.27 7.00,0.36 6.92,0.44 6.85,0.52 6.76,0.57 6.66,0.62 6.56,0.63 6.45,0.65 6.45,0.65 6.45,0.65 4.54,1.15 2.62,1.65 1.31,1.15 0,0.65 -0.07,0.64 -0.15,0.63 -0.23,0.60 -0.30,0.58 -0.37,0.53 -0.43,0.49 -0.48,0.43 -0.54,0.37 -0.57,0.30 -0.61,0.23 -0.63,0.15 -0.65,0.07 -0.65,-0.00 -0.65,-0.07 -0.63,-0.15 -0.61,-0.23 -0.57,-0.30 -0.54,-0.37 -0.48,-0.43 -0.43,-0.49 -0.37,-0.53 -0.30,-0.58 -0.23,-0.60 -0.15,-0.63 -0.07,-0.64 0.00,-0.65 0.00,-0.65 L 0,-0.65 Z"/></g><g transform="translate(131.41180419921875 117.71875) rotate(0 1.82574462890625 -11.410873413085938)" stroke="none"><path fill="#6741d9" d="M -0.65,0 Q -0.65,0 -1.09,-1.57 -1.54,-3.15 -1.28,-5.23 -1.02,-7.32 -0.36,-9.59 0.29,-11.86 0.54,-13.96 0.78,-16.06 1.84,-19.18 2.90,-22.29 2.93,-22.39 2.96,-22.49 3.03,-22.58 3.09,-22.66 3.18,-22.72 3.27,-22.78 3.37,-22.81 3.47,-22.84 3.58,-22.84 3.68,-22.83 3.78,-22.79 3.88,-22.75 3.96,-22.68 4.04,-22.62 4.10,-22.52 4.15,-22.43 4.18,-22.33 4.20,-22.23 4.19,-22.12 4.18,-22.02 4.13,-21.92 4.09,-21.82 4.02,-21.74 3.94,-21.67 3.85,-21.62 3.76,-21.57 3.65,-21.55 3.55,-21.53 3.44,-21.55 3.34,-21.57 3.24,-21.62 3.15,-21.66 3.08,-21.74 3.00,-21.82 2.96,-21.91 2.91,-22.01 2.90,-22.12 2.89,-22.22 2.91,-22.33 2.93,-22.43 2.99,-22.52 3.04,-22.61 3.12,-22.68 3.21,-22.75 3.30,-22.79 3.40,-22.83 3.51,-22.84 3.61,-22.84 3.72,-22.81 3.82,-22.79 3.91,-22.73 4.00,-22.67 4.06,-22.58 4.12,-22.50 4.16,-22.40 4.19,-22.30 4.19,-22.19 4.19,-22.08 4.19,-22.08 4.19,-22.08 4.04,-18.88 3.88,-15.68 3.59,-13.33 3.29,-10.98 2.68,-8.94 2.07,-6.90 1.80,-5.02 1.54,-3.14 1.09,-1.57 0.65,0 0.64,0.07 0.63,0.15 0.60,0.23 0.58,0.30 0.53,0.37 0.49,0.43 0.43,0.48 0.37,0.54 0.30,0.57 0.23,0.61 0.15,0.63 0.07,0.65 -0.00,0.65 -0.07,0.65 -0.15,0.63 -0.23,0.61 -0.30,0.57 -0.37,0.54 -0.43,0.48 -0.49,0.43 -0.53,0.37 -0.58,0.30 -0.60,0.23 -0.63,0.15 -0.64,0.07 -0.65,-0.00 -0.65,-0.00 L -0.65,0 Z"/></g><g transform="translate(127.76031494140625 113.1544189453125) rotate(0 5.47723388671875 -1.3693084716796875)" stroke="none"><path fill="#6741d9" d="M -0.10,-0.64 Q -0.10,-0.64 1.38,-1.38 2.88,-2.11 3.96,-2.46 5.05,-2.80 7.43,-2.95 9.80,-3.10 9.91,-3.11 10.01,-3.12 10.11,-3.10 10.22,-3.08 10.31,-3.02 10.40,-2.97 10.47,-2.89 10.54,-2.80 10.57,-2.70 10.61,-2.61 10.62,-2.50 10.62,-2.39 10.59,-2.29 10.57,-2.19 10.50,-2.10 10.44,-2.01 10.36,-1.95 10.27,-1.89 10.17,-1.85 10.07,-1.82 9.97,-1.82 9.86,-1.82 9.76,-1.86 9.66,-1.89 9.58,-1.96 9.49,-2.02 9.43,-2.11 9.37,-2.20 9.35,-2.30 9.32,-2.40 9.32,-2.51 9.33,-2.61 9.37,-2.71 9.41,-2.81 9.48,-2.89 9.55,-2.97 9.64,-3.03 9.73,-3.08 9.84,-3.10 9.94,-3.12 10.05,-3.11 10.15,-3.10 10.25,-3.06 10.34,-3.01 10.42,-2.94 10.50,-2.86 10.55,-2.77 10.59,-2.67 10.61,-2.57 10.63,-2.46 10.61,-2.36 10.59,-2.25 10.54,-2.16 10.49,-2.07 10.41,-2.00 10.34,-1.92 10.24,-1.88 10.14,-1.83 10.14,-1.83 10.14,-1.84 8.08,-0.78 6.01,0.26 4.71,0.66 3.41,1.06 1.76,0.85 0.10,0.64 0.02,0.65 -0.05,0.65 -0.12,0.63 -0.20,0.62 -0.27,0.59 -0.34,0.55 -0.41,0.50 -0.47,0.45 -0.51,0.39 -0.56,0.33 -0.59,0.25 -0.62,0.18 -0.64,0.10 -0.65,0.02 -0.64,-0.04 -0.64,-0.12 -0.61,-0.20 -0.59,-0.27 -0.55,-0.34 -0.51,-0.41 -0.45,-0.46 -0.39,-0.52 -0.32,-0.56 -0.25,-0.60 -0.18,-0.62 -0.10,-0.64 -0.10,-0.64 L -0.10,-0.64 Z"/></g><g transform="translate(135.06329345703125 119.54449462890625) rotate(0 3.6514892578125 -1.369293212890625)" stroke="none"><path fill="#6741d9" d="M -0.20,-0.62 Q -0.20,-0.62 0.43,-1.29 1.06,-1.96 1.70,-2.49 2.34,-3.02 4.50,-2.69 6.65,-2.36 6.70,-2.42 6.75,-2.48 6.82,-2.53 6.88,-2.57 6.96,-2.60 7.03,-2.63 7.11,-2.64 7.19,-2.65 7.27,-2.64 7.34,-2.63 7.42,-2.60 7.49,-2.58 7.56,-2.53 7.62,-2.49 7.68,-2.43 7.73,-2.37 7.77,-2.30 7.80,-2.23 7.82,-2.15 7.84,-2.07 7.84,-2.00 7.84,-1.92 7.82,-1.84 7.80,-1.76 7.77,-1.69 7.73,-1.62 7.78,-1.88 7.83,-2.15 7.84,-2.04 7.84,-1.93 7.82,-1.83 7.79,-1.73 7.73,-1.64 7.67,-1.55 7.59,-1.49 7.51,-1.42 7.41,-1.38 7.31,-1.35 7.20,-1.35 7.10,-1.34 6.99,-1.38 6.89,-1.41 6.81,-1.47 6.72,-1.53 6.66,-1.62 6.60,-1.71 6.57,-1.81 6.54,-1.91 6.54,-2.02 6.55,-2.12 6.58,-2.22 6.62,-2.32 6.69,-2.40 6.76,-2.49 6.85,-2.54 6.94,-2.60 7.04,-2.62 7.14,-2.65 7.25,-2.64 7.35,-2.63 7.45,-2.59 7.55,-2.54 7.63,-2.47 7.70,-2.40 7.76,-2.31 7.81,-2.21 7.83,-2.11 7.85,-2.01 7.83,-1.90 7.82,-1.80 7.77,-1.70 7.72,-1.61 7.64,-1.53 7.57,-1.46 7.47,-1.41 7.38,-1.36 7.27,-1.35 7.17,-1.34 7.06,-1.36 6.96,-1.38 6.87,-1.43 6.77,-1.49 6.70,-1.57 6.63,-1.64 6.64,-2.00 6.65,-2.36 6.70,-2.42 6.75,-2.48 6.82,-2.53 6.88,-2.57 6.96,-2.60 7.03,-2.63 7.11,-2.64 7.19,-2.65 7.27,-2.64 7.34,-2.63 7.42,-2.60 7.49,-2.58 7.56,-2.53 7.62,-2.49 7.68,-2.43 7.73,-2.37 7.77,-2.30 7.80,-2.23 7.82,-2.15 7.84,-2.07 7.84,-2.00 7.84,-1.92 7.82,-1.84 7.80,-1.76 7.77,-1.69 7.73,-1.62 6.50,-1.77 5.26,-1.91 4.75,-1.24 4.23,-0.56 3.16,0.17 2.08,0.91 1.14,0.77 0.20,0.62 0.13,0.63 0.05,0.65 -0.02,0.65 -0.10,0.64 -0.18,0.62 -0.25,0.60 -0.32,0.56 -0.39,0.52 -0.45,0.46 -0.50,0.41 -0.55,0.34 -0.59,0.28 -0.61,0.20 -0.64,0.13 -0.64,0.05 -0.65,-0.02 -0.64,-0.10 -0.63,-0.18 -0.59,-0.25 -0.56,-0.32 -0.52,-0.39 -0.47,-0.45 -0.41,-0.50 -0.35,-0.55 -0.27,-0.58 -0.20,-0.62 -0.20,-0.62 L -0.20,-0.62 Z"/></g><g transform="translate(139.627685546875 107.67718505859375) rotate(0 0.00005000000000165983 0.00005000000000165983)" stroke="none"><path fill="#6741d9" d="M 1.06,-1.06 Q 1.06,-1.06 1.20,-0.86 1.34,-0.66 1.41,-0.43 1.48,-0.20 1.48,0.04 1.47,0.28 1.39,0.51 1.30,0.73 1.15,0.92 1.00,1.11 0.79,1.24 0.59,1.38 0.35,1.43 0.12,1.49 -0.12,1.47 -0.36,1.45 -0.58,1.36 -0.80,1.26 -0.99,1.10 -1.17,0.94 -1.29,0.72 -1.41,0.51 -1.45,0.27 -1.50,0.04 -1.46,-0.20 -1.43,-0.44 -1.32,-0.65 -1.22,-0.87 -1.04,-1.04 -0.87,-1.22 -0.65,-1.32 -0.44,-1.43 -0.19,-1.46 0.04,-1.50 0.27,-1.45 0.51,-1.41 0.73,-1.29 0.94,-1.17 1.10,-0.98 1.26,-0.80 1.36,-0.58 1.45,-0.36 1.47,-0.11 1.49,0.12 1.43,0.35 1.38,0.59 1.24,0.79 1.11,1.00 0.92,1.15 0.73,1.30 0.51,1.39 0.28,1.47 0.03,1.48 -0.20,1.48 -0.43,1.41 -0.66,1.34 -0.86,1.20 -1.06,1.06 -1.06,1.06 -1.06,1.06 -1.17,0.91 -1.28,0.77 -1.36,0.61 -1.43,0.44 -1.46,0.26 -1.49,0.09 -1.48,-0.09 -1.47,-0.27 -1.42,-0.44 -1.37,-0.61 -1.27,-0.77 -1.18,-0.92 -1.05,-1.05 -0.92,-1.18 -0.77,-1.27 -0.61,-1.37 -0.44,-1.42 -0.27,-1.47 -0.09,-1.48 0.09,-1.49 0.26,-1.46 0.44,-1.43 0.61,-1.36 0.77,-1.28 0.91,-1.17 1.06,-1.06 1.06,-1.06 L 1.06,-1.06 Z"/></g><g transform="translate(142.36627197265625 120.45736694335938) rotate(0 15.975250244140625 -2.7386016845703125)" stroke="none"><path fill="#6741d9" d="M -0.36,-0.54 Q -0.36,-0.54 0.15,-1.47 0.66,-2.41 1.19,-2.85 1.73,-3.29 2.46,-3.98 3.20,-4.68 4.16,-5.33 5.13,-5.99 6.19,-6.29 7.24,-6.60 7.98,-6.37 8.72,-6.15 9.35,-5.32 9.97,-4.48 10.23,-3.78 10.48,-3.07 10.55,-2.59 10.63,-2.12 10.66,-1.92 10.70,-1.72 10.69,-1.52 10.67,-1.31 10.61,-1.12 10.55,-0.93 10.45,-0.76 10.34,-0.58 10.20,-0.44 10.06,-0.30 9.88,-0.19 9.71,-0.09 9.52,-0.03 9.32,0.02 9.12,0.03 8.92,0.05 8.72,0.01 8.52,-0.02 8.34,-0.10 8.15,-0.18 7.99,-0.31 7.84,-0.43 7.71,-0.59 7.59,-0.75 7.50,-0.94 7.42,-1.12 8.32,-2.23 9.22,-3.33 9.69,-3.83 10.17,-4.32 11.37,-4.52 12.58,-4.71 13.16,-4.39 13.74,-4.06 13.05,-3.99 12.37,-3.92 12.89,-4.02 13.42,-4.12 14.07,-4.67 14.73,-5.22 15.89,-5.42 17.04,-5.62 17.60,-5.35 18.17,-5.08 18.79,-4.46 19.42,-3.84 19.82,-3.16 20.22,-2.48 20.88,-2.16 21.54,-1.85 22.44,-2.52 23.34,-3.19 24.08,-4.09 24.81,-5.00 25.47,-5.73 26.12,-6.45 26.54,-7.05 26.97,-7.66 27.21,-7.13 27.46,-6.61 27.09,-6.02 26.71,-5.44 26.66,-4.47 26.61,-3.50 26.50,-2.34 26.40,-1.19 26.97,-0.55 27.54,0.07 29.41,0.64 31.28,1.21 31.38,1.22 31.49,1.23 31.59,1.27 31.68,1.31 31.76,1.39 31.84,1.46 31.89,1.55 31.94,1.65 31.96,1.75 31.98,1.85 31.96,1.96 31.94,2.06 31.90,2.16 31.85,2.25 31.77,2.33 31.69,2.40 31.60,2.45 31.50,2.49 31.40,2.50 31.29,2.52 31.19,2.50 31.08,2.47 30.99,2.42 30.90,2.37 30.83,2.29 30.76,2.21 30.72,2.11 30.68,2.01 30.67,1.90 30.67,1.80 30.69,1.69 30.72,1.59 30.78,1.50 30.84,1.41 30.92,1.35 31.01,1.28 31.11,1.25 31.21,1.21 31.31,1.21 31.42,1.21 31.52,1.25 31.62,1.28 31.71,1.34 31.79,1.40 31.85,1.49 31.91,1.58 31.94,1.68 31.97,1.78 31.97,1.89 31.96,2.00 31.92,2.09 31.89,2.19 31.82,2.28 31.75,2.36 31.66,2.41 31.57,2.47 31.47,2.49 31.36,2.52 31.36,2.52 31.36,2.52 28.18,2.34 25.00,2.16 24.07,0.60 23.14,-0.95 23.21,-2.48 23.27,-4.01 23.62,-5.66 23.97,-7.31 24.76,-8.19 25.56,-9.07 26.53,-9.33 27.49,-9.59 28.36,-9.18 29.23,-8.78 29.55,-7.55 29.87,-6.32 29.22,-5.28 28.58,-4.24 27.96,-3.55 27.34,-2.86 26.31,-1.68 25.27,-0.51 24.16,0.20 23.04,0.93 21.86,1.08 20.69,1.24 19.88,0.92 19.07,0.60 18.09,-0.49 17.11,-1.59 16.91,-2.16 16.72,-2.73 16.17,-2.28 15.62,-1.83 14.88,-1.42 14.13,-1.01 13.54,-0.87 12.95,-0.74 12.62,-1.28 12.30,-1.83 11.83,-1.41 11.36,-0.99 10.68,-0.56 9.99,-0.13 10.31,-1.13 10.63,-2.12 10.66,-1.92 10.70,-1.72 10.69,-1.52 10.67,-1.31 10.61,-1.12 10.55,-0.93 10.45,-0.76 10.34,-0.58 10.20,-0.44 10.06,-0.30 9.88,-0.19 9.71,-0.09 9.52,-0.03 9.32,0.02 9.12,0.03 8.92,0.05 8.72,0.01 8.52,-0.02 8.34,-0.10 8.15,-0.18 7.99,-0.31 7.84,-0.43 7.71,-0.59 7.59,-0.75 7.50,-0.94 7.42,-1.12 7.36,-1.61 7.30,-2.09 7.12,-2.67 6.94,-3.26 6.19,-2.77 5.44,-2.28 4.62,-1.51 3.80,-0.74 3.14,-0.21 2.48,0.31 1.42,0.42 0.36,0.54 0.29,0.58 0.22,0.61 0.14,0.63 0.06,0.65 -0.01,0.65 -0.08,0.65 -0.16,0.63 -0.24,0.61 -0.31,0.57 -0.38,0.53 -0.44,0.48 -0.49,0.42 -0.54,0.36 -0.58,0.29 -0.61,0.22 -0.64,0.14 -0.64,0.06 -0.65,-0.01 -0.64,-0.08 -0.63,-0.16 -0.60,-0.24 -0.57,-0.31 -0.53,-0.37 -0.48,-0.44 -0.42,-0.49 -0.36,-0.54 -0.36,-0.54 L -0.36,-0.54 Z"/></g><g transform="translate(360.54241943359375 157.88507080078125) rotate(0 -3.195037841796875 -0.912872314453125)" stroke="none"><path fill="#6741d9" d="M -0.29,0.58 Q -0.29,0.58 -1.45,0.28 -2.61,-0.01 -4.36,-0.58 -6.12,-1.14 -6.23,-1.17 -6.33,-1.19 -6.42,-1.25 -6.51,-1.31 -6.57,-1.39 -6.64,-1.47 -6.68,-1.57 -6.71,-1.67 -6.72,-1.78 -6.72,-1.88 -6.69,-1.98 -6.66,-2.09 -6.60,-2.17 -6.53,-2.26 -6.45,-2.32 -6.36,-2.38 -6.26,-2.41 -6.16,-2.45 -6.05,-2.44 -5.95,-2.44 -5.85,-2.40 -5.75,-2.37 -5.66,-2.30 -5.58,-2.23 -5.52,-2.14 -5.47,-2.06 -5.44,-1.95 -5.42,-1.85 -5.42,-1.74 -5.43,-1.64 -5.47,-1.54 -5.52,-1.44 -5.59,-1.36 -5.66,-1.28 -5.75,-1.23 -5.84,-1.18 -5.95,-1.16 -6.05,-1.14 -6.16,-1.15 -6.26,-1.17 -6.36,-1.21 -6.45,-1.26 -6.53,-1.34 -6.60,-1.41 -6.65,-1.51 -6.70,-1.60 -6.71,-1.71 -6.73,-1.81 -6.71,-1.92 -6.69,-2.02 -6.63,-2.11 -6.58,-2.21 -6.50,-2.28 -6.42,-2.35 -6.33,-2.39 -6.23,-2.43 -6.12,-2.44 -6.02,-2.45 -6.02,-2.45 -6.02,-2.45 -3.80,-2.26 -1.58,-2.07 -0.64,-1.33 0.29,-0.58 0.35,-0.54 0.42,-0.49 0.47,-0.44 0.53,-0.38 0.57,-0.31 0.60,-0.24 0.62,-0.16 0.65,-0.09 0.65,-0.01 0.65,0.06 0.63,0.14 0.61,0.22 0.58,0.29 0.54,0.36 0.49,0.42 0.44,0.48 0.38,0.52 0.31,0.57 0.24,0.60 0.16,0.63 0.09,0.64 0.01,0.65 -0.06,0.64 -0.14,0.64 -0.21,0.61 -0.29,0.58 -0.29,0.58 L -0.29,0.58 Z"/></g><g transform="translate(353.23944091796875 154.23361206054688) rotate(0 9.12872314453125 -6.8465423583984375)" stroke="none"><path fill="#6741d9" d="M 0,-0.65 Q 0,-0.65 0.78,-1.14 1.57,-1.63 3.37,-1.89 5.16,-2.15 6.69,-2.52 8.21,-2.88 9.32,-3.27 10.43,-3.67 11.28,-4.29 12.13,-4.90 13.14,-5.48 14.14,-6.07 14.61,-6.66 15.08,-7.26 15.68,-7.62 16.28,-7.97 15.58,-8.56 14.88,-9.14 14.17,-9.40 13.47,-9.66 12.73,-9.79 11.98,-9.92 10.94,-10.29 9.89,-10.67 9.35,-10.78 8.81,-10.89 7.67,-10.96 6.53,-11.03 5.96,-11.04 5.39,-11.05 3.22,-12.02 1.04,-12.98 0.94,-13.02 0.85,-13.06 0.77,-13.13 0.69,-13.20 0.63,-13.30 0.58,-13.39 0.56,-13.49 0.54,-13.60 0.55,-13.70 0.57,-13.81 0.62,-13.90 0.66,-14.00 0.74,-14.07 0.81,-14.15 0.91,-14.20 1.00,-14.24 1.11,-14.26 1.21,-14.27 1.32,-14.25 1.42,-14.24 1.51,-14.18 1.61,-14.13 1.68,-14.05 1.75,-13.97 1.79,-13.88 1.83,-13.78 1.84,-13.67 1.85,-13.57 1.83,-13.46 1.80,-13.36 1.75,-13.27 1.69,-13.18 1.61,-13.11 1.52,-13.05 1.42,-13.01 1.32,-12.97 1.22,-12.97 1.11,-12.97 1.01,-13.00 0.91,-13.03 0.82,-13.09 0.74,-13.15 0.67,-13.24 0.61,-13.32 0.58,-13.42 0.55,-13.53 0.55,-13.63 0.55,-13.74 0.59,-13.84 0.62,-13.94 0.69,-14.02 0.76,-14.10 0.85,-14.16 0.93,-14.22 1.04,-14.25 1.14,-14.27 1.25,-14.26 1.35,-14.26 1.35,-14.26 1.35,-14.26 3.40,-14.36 5.45,-14.47 6.05,-14.45 6.65,-14.44 7.47,-14.41 8.29,-14.38 8.92,-14.30 9.55,-14.22 10.31,-14.04 11.08,-13.86 11.87,-13.55 12.67,-13.24 13.78,-12.99 14.90,-12.73 16.10,-12.09 17.31,-11.45 17.78,-10.93 18.24,-10.41 18.67,-9.73 19.10,-9.05 19.09,-8.38 19.09,-7.71 18.72,-7.11 18.34,-6.51 17.98,-5.79 17.61,-5.08 16.73,-4.15 15.86,-3.22 14.93,-2.68 14.01,-2.14 12.78,-1.34 11.56,-0.55 10.26,-0.10 8.96,0.33 7.29,0.72 5.61,1.10 3.59,1.37 1.57,1.63 0.78,1.14 0,0.65 -0.07,0.64 -0.15,0.63 -0.23,0.60 -0.30,0.58 -0.37,0.53 -0.43,0.49 -0.48,0.43 -0.54,0.37 -0.57,0.30 -0.61,0.23 -0.63,0.15 -0.65,0.07 -0.65,-0.00 -0.65,-0.07 -0.63,-0.15 -0.61,-0.23 -0.57,-0.30 -0.54,-0.37 -0.48,-0.43 -0.43,-0.49 -0.37,-0.53 -0.30,-0.58 -0.23,-0.60 -0.15,-0.63 -0.07,-0.64 0.00,-0.65 0.00,-0.65 L 0,-0.65 Z"/></g><g transform="translate(362.3681640625 132.32470703125) rotate(0 -6.390106201171875 6.846527099609375)" stroke="none"><path fill="#6741d9" d="M 0.29,0.58 Q 0.29,0.58 -0.53,1.54 -1.37,2.50 -2.33,2.99 -3.30,3.49 -4.23,3.96 -5.16,4.44 -5.94,5.08 -6.72,5.72 -7.59,6.52 -8.46,7.31 -9.10,7.92 -9.74,8.52 -8.24,9.36 -6.74,10.19 -5.64,10.76 -4.54,11.33 -2.48,12.15 -0.41,12.97 -0.31,13.00 -0.21,13.03 -0.12,13.09 -0.04,13.16 0.02,13.24 0.08,13.33 0.11,13.43 0.14,13.53 0.14,13.64 0.14,13.74 0.10,13.84 0.07,13.94 0.00,14.03 -0.05,14.11 -0.14,14.17 -0.23,14.22 -0.34,14.25 -0.44,14.28 -0.54,14.27 -0.65,14.26 -0.75,14.22 -0.85,14.18 -0.93,14.11 -1.01,14.04 -1.06,13.95 -1.11,13.85 -1.13,13.75 -1.15,13.65 -1.14,13.54 -1.13,13.44 -1.08,13.34 -1.03,13.24 -0.96,13.17 -0.88,13.09 -0.79,13.04 -0.69,13.00 -0.59,12.98 -0.48,12.97 -0.38,12.99 -0.27,13.01 -0.18,13.06 -0.09,13.11 -0.02,13.19 0.04,13.27 0.09,13.36 0.13,13.46 0.14,13.57 0.15,13.67 0.12,13.78 0.10,13.88 0.04,13.97 -0.00,14.06 -0.09,14.13 -0.17,14.19 -0.27,14.23 -0.37,14.27 -0.47,14.27 -0.58,14.27 -0.58,14.27 -0.58,14.27 -3.31,14.32 -6.05,14.36 -7.18,13.79 -8.32,13.22 -9.74,12.47 -11.17,11.73 -12.21,10.88 -13.24,10.03 -13.29,8.82 -13.34,7.60 -12.70,6.84 -12.05,6.08 -11.39,5.45 -10.72,4.82 -9.76,3.95 -8.79,3.08 -7.73,2.28 -6.66,1.47 -5.72,1.01 -4.77,0.54 -3.80,0.07 -2.82,-0.40 -1.56,-0.49 -0.29,-0.58 -0.21,-0.61 -0.14,-0.64 -0.06,-0.64 0.01,-0.65 0.09,-0.64 0.16,-0.63 0.24,-0.60 0.31,-0.57 0.38,-0.52 0.44,-0.48 0.49,-0.42 0.54,-0.36 0.58,-0.29 0.61,-0.22 0.63,-0.14 0.65,-0.06 0.65,0.01 0.65,0.09 0.62,0.16 0.60,0.24 0.57,0.31 0.53,0.38 0.47,0.44 0.42,0.50 0.35,0.54 0.29,0.58 0.29,0.58 L 0.29,0.58 Z"/></g><g transform="translate(385.18994140625 134.15045166015625) rotate(0 -0.456451416015625 7.3029632568359375)" stroke="none"><path fill="#6741d9" d="M -0.65,0 Q -0.65,0 -0.91,-0.78 -1.18,-1.57 -1.32,-2.17 -1.46,-2.76 -1.44,-2.94 -1.42,-3.11 -1.35,-3.28 -1.29,-3.44 -1.19,-3.59 -1.09,-3.73 -0.96,-3.85 -0.83,-3.97 -0.67,-4.05 -0.51,-4.13 -0.34,-4.18 -0.17,-4.22 0.00,-4.22 0.17,-4.22 0.34,-4.18 0.51,-4.13 0.67,-4.05 0.83,-3.97 0.96,-3.85 1.09,-3.73 1.19,-3.59 1.29,-3.44 1.35,-3.28 1.42,-3.11 1.44,-2.94 1.46,-2.76 1.52,-2.23 1.57,-1.69 1.58,0.36 1.59,2.42 1.60,4.35 1.60,6.28 1.59,8.15 1.59,10.02 1.30,11.97 1.00,13.92 0.40,15.70 -0.18,17.49 -0.21,17.59 -0.24,17.69 -0.29,17.78 -0.35,17.87 -0.43,17.94 -0.52,18.00 -0.62,18.04 -0.72,18.08 -0.82,18.08 -0.93,18.08 -1.03,18.05 -1.13,18.02 -1.22,17.96 -1.30,17.89 -1.37,17.81 -1.43,17.72 -1.46,17.62 -1.49,17.52 -1.49,17.41 -1.48,17.30 -1.45,17.20 -1.41,17.10 -1.34,17.02 -1.27,16.94 -1.18,16.88 -1.09,16.83 -0.99,16.80 -0.89,16.78 -0.78,16.78 -0.68,16.79 -0.58,16.84 -0.48,16.88 -0.40,16.95 -0.32,17.02 -0.27,17.11 -0.22,17.21 -0.20,17.31 -0.18,17.42 -0.20,17.52 -0.21,17.63 -0.26,17.72 -0.31,17.82 -0.38,17.89 -0.46,17.97 -0.55,18.01 -0.65,18.06 -0.75,18.07 -0.86,18.09 -0.96,18.07 -1.07,18.05 -1.16,17.99 -1.25,17.94 -1.32,17.86 -1.39,17.78 -1.43,17.68 -1.48,17.59 -1.48,17.48 -1.49,17.37 -1.49,17.37 -1.49,17.37 -1.77,15.43 -2.05,13.48 -1.82,11.75 -1.59,10.01 -1.59,8.14 -1.60,6.28 -1.60,4.35 -1.59,2.42 -1.58,0.36 -1.57,-1.69 -1.52,-2.23 -1.46,-2.76 -1.44,-2.94 -1.42,-3.11 -1.35,-3.28 -1.29,-3.44 -1.19,-3.59 -1.09,-3.73 -0.96,-3.85 -0.83,-3.97 -0.67,-4.05 -0.51,-4.13 -0.34,-4.18 -0.17,-4.22 -0.00,-4.22 0.17,-4.22 0.34,-4.18 0.51,-4.13 0.67,-4.05 0.83,-3.97 0.96,-3.85 1.09,-3.73 1.19,-3.59 1.29,-3.44 1.35,-3.28 1.42,-3.11 1.44,-2.94 1.46,-2.76 1.32,-2.17 1.18,-1.57 0.91,-0.78 0.65,0 0.64,0.07 0.63,0.15 0.60,0.23 0.58,0.30 0.53,0.37 0.49,0.43 0.43,0.48 0.37,0.54 0.30,0.57 0.23,0.61 0.15,0.63 0.07,0.65 -0.00,0.65 -0.07,0.65 -0.15,0.63 -0.23,0.61 -0.30,0.57 -0.37,0.54 -0.43,0.48 -0.49,0.43 -0.53,0.37 -0.58,0.30 -0.60,0.23 -0.63,0.15 -0.64,0.07 -0.65,-0.00 -0.65,-0.00 L -0.65,0 Z"/></g><g transform="translate(380.62554931640625 140.54052734375) rotate(0 5.47723388671875 -0.4564361572265625)" stroke="none"><path fill="#6741d9" d="M 0,-0.65 Q 0,-0.65 1.31,-1.12 2.62,-1.60 4.10,-1.82 5.58,-2.05 7.72,-2.13 9.86,-2.22 9.97,-2.23 10.08,-2.24 10.18,-2.22 10.28,-2.19 10.37,-2.13 10.46,-2.08 10.53,-1.99 10.60,-1.91 10.63,-1.81 10.67,-1.71 10.67,-1.61 10.68,-1.50 10.65,-1.40 10.62,-1.30 10.55,-1.21 10.49,-1.12 10.41,-1.06 10.32,-1.00 10.22,-0.97 10.12,-0.94 10.01,-0.94 9.91,-0.94 9.81,-0.98 9.71,-1.01 9.62,-1.08 9.54,-1.14 9.48,-1.23 9.42,-1.32 9.40,-1.43 9.37,-1.53 9.38,-1.64 9.39,-1.74 9.43,-1.84 9.47,-1.94 9.54,-2.02 9.61,-2.10 9.70,-2.15 9.80,-2.20 9.90,-2.22 10.00,-2.24 10.11,-2.23 10.22,-2.21 10.31,-2.17 10.41,-2.12 10.48,-2.05 10.56,-1.97 10.60,-1.88 10.65,-1.78 10.67,-1.68 10.68,-1.57 10.66,-1.47 10.64,-1.36 10.59,-1.27 10.54,-1.18 10.46,-1.11 10.38,-1.03 10.28,-0.99 10.19,-0.95 10.19,-0.95 10.19,-0.95 8.14,0.02 6.08,1.00 4.35,1.30 2.62,1.60 1.31,1.12 0,0.65 -0.07,0.64 -0.15,0.63 -0.23,0.60 -0.30,0.58 -0.37,0.53 -0.43,0.49 -0.48,0.43 -0.54,0.37 -0.57,0.30 -0.61,0.23 -0.63,0.15 -0.65,0.07 -0.65,-0.00 -0.65,-0.07 -0.63,-0.15 -0.61,-0.23 -0.57,-0.30 -0.54,-0.37 -0.48,-0.43 -0.43,-0.49 -0.37,-0.53 -0.30,-0.58 -0.23,-0.60 -0.15,-0.63 -0.07,-0.64 0.00,-0.65 0.00,-0.65 L 0,-0.65 Z"/></g><g transform="translate(388.8414306640625 150.58212280273438) rotate(0 6.39007568359375 -3.1950531005859375)" stroke="none"><path fill="#6741d9" d="M -0.36,-0.54 Q -0.36,-0.54 0.95,-1.97 2.28,-3.40 3.73,-4.37 5.19,-5.34 6.03,-5.99 6.87,-6.65 7.92,-7.03 8.97,-7.40 9.71,-7.22 10.46,-7.04 11.11,-6.19 11.76,-5.35 12.02,-4.33 12.29,-3.31 12.62,-2.33 12.95,-1.35 13.51,-1.91 14.07,-2.47 14.08,-2.39 14.09,-2.31 14.09,-2.24 14.08,-2.16 14.05,-2.08 14.03,-2.01 13.98,-1.94 13.94,-1.87 13.88,-1.82 13.82,-1.77 13.75,-1.73 13.69,-1.69 13.61,-1.67 13.53,-1.65 13.45,-1.65 13.37,-1.64 13.30,-1.66 13.22,-1.68 13.15,-1.71 13.08,-1.75 13.02,-1.80 12.96,-1.85 12.91,-1.91 12.86,-1.98 12.83,-2.05 12.80,-2.12 12.90,-2.46 13.00,-2.79 13.09,-2.85 13.18,-2.90 13.29,-2.93 13.39,-2.95 13.49,-2.94 13.60,-2.93 13.70,-2.89 13.79,-2.85 13.87,-2.78 13.95,-2.70 14.00,-2.61 14.06,-2.52 14.07,-2.41 14.09,-2.31 14.08,-2.21 14.06,-2.10 14.02,-2.01 13.97,-1.91 13.89,-1.84 13.82,-1.76 13.72,-1.71 13.63,-1.67 13.52,-1.65 13.41,-1.64 13.31,-1.66 13.21,-1.68 13.11,-1.74 13.02,-1.79 12.95,-1.87 12.88,-1.95 12.84,-2.05 12.80,-2.14 12.79,-2.25 12.78,-2.36 12.81,-2.46 12.84,-2.56 12.89,-2.65 12.95,-2.74 13.03,-2.81 13.12,-2.87 13.22,-2.91 13.32,-2.94 13.42,-2.95 13.53,-2.95 13.63,-2.92 13.73,-2.88 13.82,-2.82 13.90,-2.76 13.97,-2.67 14.03,-2.58 14.06,-2.48 14.09,-2.38 14.08,-2.27 14.08,-2.17 14.04,-2.07 14.01,-1.97 14.04,-2.22 14.07,-2.47 14.08,-2.39 14.09,-2.31 14.09,-2.24 14.08,-2.16 14.05,-2.08 14.03,-2.01 13.98,-1.94 13.94,-1.87 13.88,-1.82 13.82,-1.77 13.75,-1.73 13.69,-1.69 13.61,-1.67 13.53,-1.65 13.45,-1.65 13.37,-1.64 13.30,-1.66 13.22,-1.68 13.15,-1.71 13.08,-1.75 13.02,-1.80 12.96,-1.85 12.91,-1.91 12.86,-1.98 12.83,-2.05 12.80,-2.12 11.39,-1.57 9.97,-1.01 9.56,-1.81 9.14,-2.61 8.96,-3.37 8.77,-4.13 7.85,-3.43 6.93,-2.73 5.47,-1.76 4.01,-0.79 2.19,-0.12 0.36,0.54 0.29,0.58 0.22,0.61 0.14,0.63 0.06,0.65 -0.01,0.65 -0.08,0.65 -0.16,0.63 -0.24,0.61 -0.31,0.57 -0.38,0.53 -0.44,0.48 -0.49,0.42 -0.54,0.36 -0.58,0.29 -0.61,0.22 -0.64,0.14 -0.64,0.06 -0.65,-0.01 -0.64,-0.08 -0.63,-0.16 -0.60,-0.24 -0.57,-0.31 -0.53,-0.37 -0.48,-0.44 -0.42,-0.49 -0.36,-0.54 -0.36,-0.54 L -0.36,-0.54 Z"/></g><g transform="translate(400.708740234375 138.71478271484375) rotate(0 0 -0.4564361572265625)" stroke="none"><path fill="#6741d9" d="M -0.65,-0.52 Q -0.65,-0.52 -0.63,-0.62 -0.62,-0.73 -0.57,-0.82 -0.52,-0.92 -0.44,-0.99 -0.36,-1.06 -0.27,-1.11 -0.17,-1.15 -0.07,-1.16 0.03,-1.18 0.13,-1.15 0.24,-1.13 0.33,-1.08 0.42,-1.02 0.49,-0.94 0.56,-0.86 0.60,-0.76 0.64,-0.66 0.64,-0.55 0.65,-0.45 0.62,-0.35 0.59,-0.24 0.53,-0.16 0.47,-0.07 0.39,-0.00 0.30,0.05 0.20,0.08 0.10,0.12 -0.00,0.12 -0.10,0.12 -0.20,0.08 -0.30,0.05 -0.39,-0.00 -0.47,-0.07 -0.53,-0.16 -0.59,-0.24 -0.62,-0.35 -0.65,-0.45 -0.64,-0.56 -0.64,-0.66 -0.60,-0.76 -0.56,-0.86 -0.49,-0.94 -0.42,-1.02 -0.33,-1.08 -0.24,-1.13 -0.13,-1.15 -0.03,-1.18 0.07,-1.16 0.17,-1.15 0.27,-1.11 0.36,-1.06 0.44,-0.99 0.52,-0.92 0.57,-0.82 0.62,-0.73 0.63,-0.62 0.65,-0.52 0.65,-0.52 0.65,-0.52 0.70,-0.43 0.76,-0.35 0.79,-0.25 0.82,-0.15 0.83,-0.05 0.83,0.04 0.82,0.14 0.80,0.24 0.76,0.33 0.72,0.42 0.66,0.50 0.60,0.58 0.52,0.65 0.44,0.71 0.34,0.75 0.25,0.80 0.15,0.81 0.05,0.83 -0.04,0.83 -0.14,0.82 -0.24,0.79 -0.33,0.76 -0.42,0.71 -0.51,0.66 -0.58,0.59 -0.65,0.52 -0.65,-0.00 L -0.65,-0.52 Z"/></g><g transform="translate(401.62158203125 153.32073974609375) rotate(0 23.734649658203125 -6.8465423583984375)" stroke="none"><path fill="#6741d9" d="M -0.52,-0.39 Q -0.52,-0.39 -0.06,-1.69 0.39,-2.98 1.55,-4.27 2.71,-5.56 3.47,-6.37 4.23,-7.17 5.51,-7.91 6.79,-8.64 7.92,-8.90 9.05,-9.17 10.08,-8.64 11.11,-8.12 11.59,-7.06 12.07,-6.00 11.94,-4.83 11.81,-3.65 11.98,-2.84 12.16,-2.03 12.11,-1.85 12.07,-1.67 11.99,-1.50 11.90,-1.33 11.78,-1.19 11.65,-1.05 11.50,-0.94 11.35,-0.83 11.17,-0.76 10.99,-0.69 10.81,-0.67 10.62,-0.64 10.43,-0.66 10.25,-0.68 10.07,-0.75 9.89,-0.81 9.74,-0.92 9.58,-1.02 9.45,-1.16 9.33,-1.30 9.24,-1.47 9.15,-1.64 9.10,-1.82 9.05,-2.00 9.05,-2.19 9.05,-2.38 9.60,-3.22 10.15,-4.06 10.61,-4.54 11.07,-5.02 11.74,-5.37 12.42,-5.72 13.40,-6.23 14.38,-6.75 15.26,-6.84 16.15,-6.94 17.00,-6.96 17.85,-6.99 19.31,-7.35 20.77,-7.70 21.57,-7.34 22.37,-6.97 22.77,-6.32 23.17,-5.67 23.27,-5.11 23.37,-4.55 24.81,-4.65 26.25,-4.75 27.02,-5.30 27.78,-5.86 28.98,-6.65 30.19,-7.45 31.15,-8.27 32.12,-9.08 32.81,-9.70 33.50,-10.32 34.19,-10.66 34.89,-11.00 35.27,-11.65 35.66,-12.29 34.92,-12.20 34.17,-12.10 33.97,-11.52 33.76,-10.93 33.71,-9.46 33.66,-7.98 34.56,-6.74 35.45,-5.49 36.49,-5.26 37.52,-5.02 39.59,-5.57 41.66,-6.12 43.97,-6.40 46.28,-6.69 46.38,-6.70 46.49,-6.72 46.59,-6.70 46.70,-6.68 46.79,-6.63 46.88,-6.58 46.96,-6.50 47.03,-6.43 47.07,-6.33 47.12,-6.23 47.13,-6.13 47.14,-6.02 47.11,-5.92 47.09,-5.81 47.03,-5.72 46.98,-5.63 46.90,-5.57 46.82,-5.50 46.72,-5.46 46.62,-5.42 46.51,-5.42 46.41,-5.41 46.30,-5.44 46.20,-5.47 46.11,-5.53 46.03,-5.59 45.96,-5.67 45.90,-5.76 45.87,-5.86 45.83,-5.96 45.83,-6.07 45.83,-6.17 45.87,-6.27 45.90,-6.38 45.97,-6.46 46.03,-6.54 46.12,-6.60 46.21,-6.66 46.31,-6.69 46.42,-6.72 46.52,-6.71 46.63,-6.70 46.73,-6.66 46.83,-6.62 46.91,-6.55 46.99,-6.48 47.04,-6.39 47.09,-6.30 47.12,-6.20 47.14,-6.09 47.13,-5.99 47.11,-5.88 47.07,-5.79 47.02,-5.69 46.95,-5.61 46.87,-5.54 46.78,-5.49 46.69,-5.44 46.69,-5.44 46.69,-5.44 44.54,-4.26 42.39,-3.08 39.57,-2.45 36.75,-1.83 34.93,-2.52 33.11,-3.22 32.02,-4.60 30.94,-5.99 30.65,-7.01 30.36,-8.03 30.42,-9.23 30.48,-10.43 30.67,-11.40 30.86,-12.37 31.28,-13.08 31.71,-13.79 32.72,-14.44 33.72,-15.09 34.80,-15.06 35.87,-15.03 36.56,-14.80 37.26,-14.57 38.08,-13.93 38.91,-13.29 38.99,-12.70 39.08,-12.12 38.30,-10.82 37.52,-9.53 36.57,-8.71 35.62,-7.89 34.90,-7.25 34.18,-6.61 33.07,-5.69 31.97,-4.78 30.76,-3.97 29.55,-3.17 28.35,-2.42 27.14,-1.67 25.92,-1.35 24.71,-1.03 23.62,-1.12 22.54,-1.20 21.80,-1.85 21.06,-2.50 20.42,-3.52 19.79,-4.54 18.91,-4.21 18.03,-3.88 17.22,-3.85 16.41,-3.82 15.64,-3.77 14.86,-3.71 14.05,-3.26 13.25,-2.81 12.70,-2.42 12.16,-2.03 12.11,-1.85 12.07,-1.67 11.99,-1.50 11.90,-1.33 11.78,-1.19 11.65,-1.05 11.50,-0.94 11.35,-0.83 11.17,-0.76 10.99,-0.69 10.81,-0.67 10.62,-0.64 10.43,-0.66 10.25,-0.68 10.07,-0.75 9.89,-0.81 9.74,-0.92 9.58,-1.02 9.45,-1.16 9.33,-1.30 9.24,-1.47 9.15,-1.64 9.10,-1.82 9.05,-2.00 9.05,-2.19 9.05,-2.38 8.88,-2.43 8.71,-2.49 8.91,-3.84 9.11,-5.20 8.66,-5.61 8.20,-6.02 7.28,-5.56 6.36,-5.10 5.64,-4.33 4.91,-3.56 3.83,-2.38 2.75,-1.21 1.64,-0.40 0.52,0.39 0.47,0.45 0.41,0.50 0.34,0.55 0.28,0.59 0.20,0.61 0.13,0.64 0.05,0.64 -0.02,0.65 -0.10,0.64 -0.18,0.63 -0.25,0.59 -0.32,0.56 -0.39,0.52 -0.45,0.47 -0.50,0.41 -0.55,0.35 -0.58,0.27 -0.62,0.20 -0.63,0.13 -0.65,0.05 -0.65,-0.02 -0.64,-0.10 -0.62,-0.18 -0.60,-0.25 -0.56,-0.32 -0.52,-0.39 -0.52,-0.39 L -0.52,-0.39 Z"/></g><g transform="translate(387.01568603515625 178.88113403320312) rotate(0 6.846527099609375 -5.02081298828125)" stroke="none"><path fill="#6741d9" d="M 0,0.65 Q 0,0.65 -0.78,1.04 -1.57,1.43 -2.17,1.47 -2.76,1.52 -2.95,1.50 -3.13,1.48 -3.30,1.41 -3.47,1.35 -3.62,1.24 -3.78,1.14 -3.90,1.00 -4.02,0.86 -4.11,0.70 -4.19,0.54 -4.23,0.36 -4.28,0.18 -4.28,-0.00 -4.28,-0.18 -4.23,-0.36 -4.19,-0.54 -4.10,-0.70 -4.02,-0.86 -3.90,-1.00 -3.78,-1.14 -3.62,-1.24 -3.47,-1.35 -3.30,-1.41 -3.13,-1.48 -2.95,-1.50 -2.76,-1.52 -2.22,-1.78 -1.67,-2.04 -0.38,-2.64 0.90,-3.24 2.33,-4.67 3.75,-6.11 4.60,-7.43 5.45,-8.75 5.78,-9.55 6.11,-10.35 5.58,-10.61 5.05,-10.87 4.16,-10.10 3.27,-9.34 2.80,-7.92 2.33,-6.50 2.10,-5.14 1.87,-3.77 1.76,-2.72 1.65,-1.67 2.04,-1.04 2.43,-0.40 3.14,0.00 3.85,0.40 4.41,0.32 4.98,0.24 5.87,-0.21 6.75,-0.66 7.97,-1.36 9.18,-2.07 10.49,-2.89 11.80,-3.72 12.58,-4.30 13.36,-4.88 13.94,-5.38 14.51,-5.87 15.00,-6.32 15.48,-6.77 16.25,-6.22 17.02,-5.66 17.13,-4.93 17.24,-4.19 16.70,-4.67 16.17,-5.14 16.16,-5.06 16.15,-4.99 16.12,-4.91 16.09,-4.84 16.04,-4.78 15.99,-4.71 15.93,-4.66 15.87,-4.61 15.80,-4.57 15.73,-4.54 15.65,-4.52 15.58,-4.51 15.50,-4.51 15.42,-4.51 15.34,-4.53 15.27,-4.55 15.20,-4.59 15.13,-4.63 15.07,-4.68 15.01,-4.74 14.97,-4.80 14.93,-4.87 14.90,-4.94 14.87,-5.02 14.87,-5.10 14.86,-5.18 14.87,-5.27 14.89,-5.37 14.94,-5.46 14.99,-5.56 15.07,-5.63 15.15,-5.70 15.24,-5.75 15.34,-5.79 15.44,-5.80 15.55,-5.81 15.65,-5.79 15.76,-5.77 15.85,-5.71 15.94,-5.66 16.01,-5.58 16.08,-5.50 16.12,-5.40 16.16,-5.30 16.16,-5.19 16.17,-5.09 16.14,-4.99 16.11,-4.88 16.05,-4.80 15.99,-4.71 15.91,-4.64 15.82,-4.58 15.72,-4.55 15.62,-4.51 15.51,-4.51 15.41,-4.51 15.31,-4.55 15.21,-4.58 15.12,-4.64 15.04,-4.71 14.98,-4.80 14.92,-4.88 14.89,-4.99 14.86,-5.09 14.87,-5.19 14.87,-5.30 14.91,-5.40 14.95,-5.50 15.02,-5.58 15.09,-5.66 15.18,-5.71 15.27,-5.77 15.37,-5.79 15.48,-5.81 15.58,-5.80 15.69,-5.79 15.79,-5.75 15.88,-5.70 15.96,-5.63 16.04,-5.56 16.09,-5.46 16.14,-5.37 16.15,-5.26 16.17,-5.16 16.17,-5.15 16.17,-5.14 16.16,-5.07 16.15,-4.99 16.12,-4.91 16.09,-4.84 16.04,-4.78 15.99,-4.71 15.93,-4.66 15.87,-4.61 15.80,-4.57 15.73,-4.54 15.65,-4.52 15.58,-4.51 15.50,-4.51 15.42,-4.51 15.34,-4.53 15.27,-4.55 15.20,-4.59 15.13,-4.63 15.07,-4.68 15.01,-4.74 14.97,-4.80 14.93,-4.87 14.90,-4.94 14.87,-5.02 14.87,-5.10 14.86,-5.18 14.35,-4.31 13.84,-3.44 13.89,-4.42 13.94,-5.41 14.08,-6.00 14.21,-6.59 14.65,-7.24 15.09,-7.89 15.71,-8.12 16.33,-8.35 17.31,-7.63 18.29,-6.91 17.97,-5.74 17.65,-4.56 17.08,-4.04 16.52,-3.52 15.87,-2.96 15.21,-2.40 14.33,-1.75 13.45,-1.09 12.09,-0.24 10.72,0.61 9.35,1.39 7.98,2.17 6.49,2.74 5.00,3.30 3.67,3.16 2.35,3.01 1.07,2.03 -0.19,1.04 -0.75,-0.35 -1.31,-1.75 -1.19,-3.02 -1.08,-4.30 -0.77,-5.93 -0.46,-7.55 0.32,-9.47 1.12,-11.39 2.33,-12.44 3.55,-13.48 4.81,-13.61 6.07,-13.74 7.12,-13.13 8.17,-12.52 8.64,-11.25 9.10,-9.98 8.62,-8.50 8.14,-7.01 7.07,-5.41 6.00,-3.81 4.15,-2.08 2.29,-0.35 0.81,0.32 -0.66,0.99 -1.71,1.26 -2.76,1.52 -2.95,1.50 -3.13,1.48 -3.30,1.41 -3.47,1.35 -3.62,1.24 -3.78,1.14 -3.90,1.00 -4.02,0.86 -4.10,0.70 -4.19,0.54 -4.23,0.36 -4.28,0.18 -4.28,0.00 -4.28,-0.18 -4.23,-0.36 -4.19,-0.54 -4.11,-0.70 -4.02,-0.86 -3.90,-1.00 -3.78,-1.14 -3.62,-1.24 -3.47,-1.35 -3.30,-1.41 -3.13,-1.48 -2.95,-1.50 -2.76,-1.52 -2.17,-1.47 -1.57,-1.43 -0.78,-1.04 0,-0.65 0.07,-0.64 0.15,-0.63 0.23,-0.60 0.30,-0.58 0.37,-0.53 0.43,-0.49 0.48,-0.43 0.54,-0.37 0.57,-0.30 0.61,-0.23 0.63,-0.15 0.65,-0.07 0.65,0.00 0.65,0.07 0.63,0.15 0.61,0.23 0.57,0.30 0.54,0.37 0.48,0.43 0.43,0.49 0.37,0.53 0.30,0.58 0.23,0.60 0.15,0.63 0.07,0.64 -0.00,0.65 -0.00,0.65 L 0,0.65 Z"/></g><g transform="translate(402.53448486328125 168.83953857421875) rotate(0 4.5643310546875 5.47723388671875)" stroke="none"><path fill="#6741d9" d="M -0.65,0 Q -0.65,0 -1.03,-0.68 -1.41,-1.37 -1.73,-1.81 -2.05,-2.24 -2.03,-2.42 -2.01,-2.61 -1.94,-2.78 -1.88,-2.95 -1.77,-3.10 -1.67,-3.25 -1.53,-3.38 -1.39,-3.50 -1.23,-3.59 -1.06,-3.67 -0.88,-3.72 -0.70,-3.76 -0.52,-3.76 -0.34,-3.76 -0.16,-3.72 0.01,-3.67 0.18,-3.59 0.34,-3.50 0.48,-3.38 0.62,-3.25 0.72,-3.10 0.83,-2.95 0.89,-2.78 0.96,-2.61 0.98,-2.42 1.00,-2.24 0.92,-1.63 0.84,-1.02 0.83,-0.26 0.82,0.50 0.81,1.92 0.79,3.35 0.79,4.74 0.78,6.14 1.03,7.65 1.29,9.16 1.39,10.41 1.50,11.66 2.17,10.37 2.84,9.09 3.70,7.58 4.55,6.08 6.85,3.51 9.14,0.93 9.22,0.87 9.30,0.80 9.40,0.76 9.50,0.72 9.61,0.72 9.72,0.72 9.82,0.75 9.92,0.78 10.01,0.84 10.09,0.90 10.16,0.98 10.22,1.07 10.25,1.17 10.28,1.27 10.28,1.38 10.28,1.48 10.24,1.58 10.21,1.68 10.14,1.77 10.08,1.85 9.99,1.91 9.90,1.97 9.79,1.99 9.69,2.02 9.59,2.01 9.48,2.01 9.38,1.96 9.28,1.92 9.20,1.85 9.12,1.78 9.07,1.69 9.02,1.60 9.00,1.49 8.98,1.39 8.99,1.29 9.00,1.18 9.05,1.08 9.10,0.99 9.17,0.91 9.24,0.84 9.34,0.79 9.43,0.74 9.54,0.73 9.64,0.71 9.75,0.73 9.85,0.75 9.95,0.80 10.04,0.85 10.11,0.93 10.18,1.01 10.23,1.11 10.27,1.20 10.28,1.31 10.29,1.41 10.26,1.52 10.24,1.62 10.18,1.71 10.13,1.80 10.13,1.80 10.13,1.80 8.79,4.75 7.46,7.69 6.57,9.33 5.68,10.98 4.63,12.44 3.57,13.90 2.44,14.36 1.30,14.82 0.19,14.34 -0.91,13.87 -1.37,12.98 -1.82,12.10 -1.94,10.89 -2.05,9.69 -2.32,7.91 -2.58,6.13 -2.57,4.71 -2.56,3.30 -2.53,1.82 -2.51,0.33 -2.28,-0.95 -2.05,-2.24 -2.03,-2.42 -2.01,-2.61 -1.94,-2.78 -1.88,-2.95 -1.77,-3.10 -1.67,-3.25 -1.53,-3.38 -1.39,-3.50 -1.23,-3.59 -1.06,-3.67 -0.88,-3.72 -0.70,-3.76 -0.52,-3.76 -0.34,-3.76 -0.16,-3.72 0.01,-3.67 0.18,-3.59 0.34,-3.50 0.48,-3.38 0.62,-3.25 0.72,-3.10 0.83,-2.95 0.89,-2.78 0.96,-2.61 0.98,-2.42 1.00,-2.24 1.21,-2.00 1.41,-1.77 1.03,-0.88 0.65,0 0.64,0.07 0.63,0.15 0.60,0.23 0.58,0.30 0.53,0.37 0.49,0.43 0.43,0.48 0.37,0.54 0.30,0.57 0.23,0.61 0.15,0.63 0.07,0.65 -0.00,0.65 -0.07,0.65 -0.15,0.63 -0.23,0.61 -0.30,0.57 -0.37,0.54 -0.43,0.48 -0.49,0.43 -0.53,0.37 -0.58,0.30 -0.60,0.23 -0.63,0.15 -0.64,0.07 -0.65,-0.00 -0.65,-0.00 L -0.65,0 Z"/></g><g transform="translate(416.2275390625 175.22964477539062) rotate(0 12.78021240234375 -5.47723388671875)" stroke="none"><path fill="#6741d9" d="M -0.65,0 Q -0.65,0 -1.03,-0.30 -1.40,-0.61 -1.45,0.32 -1.51,1.26 -1.91,2.54 -2.31,3.82 -2.20,4.39 -2.09,4.97 -1.70,4.17 -1.30,3.37 -0.86,2.26 -0.42,1.15 -0.26,0.30 -0.09,-0.55 -0.62,-0.55 -1.14,-0.56 -1.33,-0.64 -1.51,-0.72 -1.66,-0.84 -1.82,-0.96 -1.94,-1.12 -2.06,-1.28 -2.14,-1.46 -2.23,-1.64 -2.26,-1.84 -2.30,-2.03 -2.29,-2.23 -2.27,-2.43 -2.21,-2.62 -2.15,-2.81 -2.05,-2.98 -1.95,-3.15 -1.81,-3.29 -1.67,-3.43 -1.50,-3.53 -1.33,-3.63 -1.14,-3.69 -0.95,-3.75 -0.75,-3.76 -0.55,-3.77 -0.36,-3.74 -0.16,-3.70 1.31,-3.60 2.78,-3.50 3.29,-3.71 3.80,-3.93 4.77,-4.50 5.74,-5.07 6.76,-5.61 7.78,-6.15 8.60,-6.82 9.42,-7.49 9.95,-8.20 10.49,-8.90 10.97,-9.71 11.46,-10.52 11.89,-11.53 12.32,-12.55 12.21,-13.50 12.10,-14.46 11.86,-15.32 11.62,-16.18 11.00,-16.34 10.39,-16.50 9.95,-14.80 9.52,-13.10 9.08,-11.59 8.64,-10.07 7.93,-7.33 7.22,-4.59 6.93,-2.46 6.65,-0.33 6.78,1.22 6.92,2.77 7.20,3.59 7.48,4.40 8.17,4.16 8.86,3.92 9.89,3.00 10.91,2.08 11.56,1.23 12.20,0.39 12.73,-0.46 13.26,-1.31 13.43,-1.82 13.60,-2.34 13.71,-2.88 13.81,-3.42 13.91,-3.60 14.00,-3.78 14.13,-3.93 14.26,-4.08 14.42,-4.19 14.59,-4.30 14.77,-4.37 14.96,-4.45 15.15,-4.47 15.35,-4.50 15.55,-4.47 15.75,-4.45 15.93,-4.38 16.12,-4.31 16.28,-4.20 16.45,-4.09 16.58,-3.94 16.71,-3.79 16.81,-3.61 16.90,-3.44 16.95,-3.24 17.00,-3.05 17.00,-2.85 17.00,-2.65 16.95,-2.46 16.90,-2.27 16.39,-2.01 15.88,-1.76 16.10,-1.05 16.31,-0.35 16.29,0.79 16.27,1.94 16.26,2.66 16.25,3.39 16.72,3.11 17.19,2.83 17.84,2.03 18.48,1.23 19.32,0.09 20.17,-1.04 20.53,-1.82 20.90,-2.60 21.04,-2.75 21.18,-2.90 21.35,-3.01 21.52,-3.12 21.72,-3.18 21.91,-3.25 22.11,-3.27 22.32,-3.28 22.52,-3.25 22.72,-3.22 22.91,-3.14 23.10,-3.06 23.26,-2.94 23.42,-2.82 23.55,-2.66 23.68,-2.50 23.77,-2.32 23.86,-2.14 23.90,-1.94 23.94,-1.74 23.93,-1.53 23.93,-1.33 23.87,-1.13 23.82,-0.94 23.71,-0.76 23.61,-0.58 24.01,0.00 24.41,0.59 24.89,1.06 25.36,1.53 27.34,1.46 29.32,1.39 29.43,1.38 29.53,1.36 29.64,1.38 29.74,1.39 29.84,1.45 29.93,1.50 30.00,1.57 30.08,1.65 30.12,1.75 30.16,1.84 30.17,1.95 30.18,2.06 30.16,2.16 30.14,2.26 30.08,2.35 30.03,2.44 29.95,2.51 29.86,2.58 29.77,2.62 29.67,2.66 29.56,2.66 29.45,2.67 29.35,2.64 29.25,2.61 29.16,2.55 29.07,2.49 29.01,2.40 28.95,2.32 28.91,2.22 28.88,2.12 28.88,2.01 28.88,1.91 28.92,1.80 28.95,1.70 29.02,1.62 29.08,1.54 29.17,1.48 29.26,1.42 29.36,1.39 29.46,1.36 29.57,1.37 29.67,1.38 29.77,1.42 29.87,1.46 29.95,1.52 30.03,1.59 30.09,1.69 30.14,1.78 30.16,1.88 30.19,1.98 30.17,2.09 30.16,2.20 30.12,2.29 30.07,2.39 30.00,2.46 29.92,2.54 29.83,2.59 29.73,2.64 29.74,2.64 29.74,2.64 27.09,3.68 24.44,4.72 23.13,4.10 21.83,3.49 21.40,1.68 20.97,-0.12 20.93,-1.36 20.90,-2.60 21.04,-2.75 21.18,-2.90 21.35,-3.01 21.52,-3.12 21.72,-3.18 21.91,-3.25 22.11,-3.27 22.32,-3.28 22.52,-3.25 22.72,-3.22 22.91,-3.14 23.10,-3.06 23.26,-2.94 23.42,-2.82 23.55,-2.66 23.68,-2.50 23.77,-2.32 23.86,-2.14 23.90,-1.94 23.94,-1.74 23.93,-1.53 23.93,-1.33 23.87,-1.13 23.82,-0.94 23.71,-0.76 23.61,-0.58 23.22,0.17 22.83,0.93 21.89,2.18 20.95,3.44 19.87,4.57 18.79,5.70 17.53,6.16 16.27,6.62 15.08,6.07 13.88,5.53 13.43,4.50 12.97,3.48 12.97,2.69 12.98,1.89 12.99,0.69 13.01,-0.49 13.41,-1.96 13.81,-3.42 13.91,-3.60 14.00,-3.78 14.13,-3.93 14.26,-4.08 14.42,-4.19 14.59,-4.30 14.77,-4.37 14.96,-4.45 15.15,-4.47 15.35,-4.50 15.55,-4.47 15.75,-4.45 15.93,-4.38 16.12,-4.31 16.28,-4.20 16.45,-4.09 16.58,-3.94 16.71,-3.79 16.81,-3.61 16.90,-3.44 16.95,-3.24 17.00,-3.05 17.00,-2.85 17.00,-2.65 16.95,-2.46 16.90,-2.27 16.80,-1.73 16.70,-1.19 16.38,-0.38 16.06,0.41 15.43,1.41 14.80,2.42 13.95,3.48 13.10,4.54 11.86,5.62 10.61,6.71 9.40,7.32 8.19,7.94 7.05,7.71 5.91,7.48 5.13,6.45 4.35,5.42 3.99,4.23 3.63,3.05 3.50,1.14 3.38,-0.76 3.70,-3.09 4.03,-5.41 4.75,-8.20 5.47,-10.99 5.95,-12.62 6.43,-14.25 6.90,-15.52 7.37,-16.79 8.09,-17.99 8.82,-19.19 9.90,-19.48 10.99,-19.76 11.62,-19.62 12.25,-19.48 12.95,-19.09 13.65,-18.70 14.21,-17.93 14.78,-17.16 15.10,-15.89 15.43,-14.61 15.42,-13.00 15.42,-11.39 14.86,-10.08 14.30,-8.77 13.70,-7.81 13.10,-6.85 12.30,-5.87 11.50,-4.89 10.42,-4.06 9.35,-3.22 8.37,-2.70 7.39,-2.18 6.12,-1.48 4.86,-0.78 3.83,-0.49 2.80,-0.19 1.51,-0.21 0.22,-0.23 -0.46,-0.40 -1.14,-0.56 -1.33,-0.64 -1.51,-0.72 -1.66,-0.84 -1.82,-0.96 -1.94,-1.12 -2.06,-1.28 -2.14,-1.46 -2.23,-1.64 -2.26,-1.84 -2.30,-2.03 -2.29,-2.23 -2.27,-2.43 -2.21,-2.62 -2.15,-2.81 -2.05,-2.98 -1.95,-3.15 -1.81,-3.29 -1.67,-3.43 -1.50,-3.53 -1.33,-3.63 -1.14,-3.69 -0.95,-3.75 -0.75,-3.76 -0.55,-3.77 -0.36,-3.74 -0.16,-3.70 -0.54,-3.75 -0.91,-3.79 0.31,-3.68 1.54,-3.56 2.11,-2.90 2.69,-2.25 2.91,-1.14 3.14,-0.04 2.89,1.16 2.64,2.38 2.12,3.66 1.60,4.94 0.85,6.16 0.09,7.38 -0.97,7.88 -2.04,8.39 -3.33,7.89 -4.63,7.39 -5.02,6.32 -5.41,5.24 -5.45,4.08 -5.48,2.91 -4.98,1.34 -4.48,-0.21 -3.75,-1.39 -3.02,-2.57 -2.09,-2.91 -1.16,-3.25 -0.35,-3.01 0.46,-2.77 0.93,-2.12 1.40,-1.48 1.03,-0.74 0.65,0 0.64,0.07 0.63,0.15 0.60,0.23 0.58,0.30 0.53,0.37 0.49,0.43 0.43,0.48 0.37,0.54 0.30,0.57 0.23,0.61 0.15,0.63 0.07,0.65 -0.00,0.65 -0.07,0.65 -0.15,0.63 -0.23,0.61 -0.30,0.57 -0.37,0.54 -0.43,0.48 -0.49,0.43 -0.53,0.37 -0.58,0.30 -0.60,0.23 -0.63,0.15 -0.64,0.07 -0.65,-0.00 -0.65,-0.00 L -0.65,0 Z"/></g><g transform="translate(452.74237060546875 174.31674194335938) rotate(0 -0.4564208984375 -11.410873413085938)" stroke="none"><path fill="#6741d9" d="M -0.62,0.20 Q -0.62,0.20 -1.31,-0.44 -1.99,-1.09 -2.18,-2.92 -2.36,-4.75 -2.42,-6.54 -2.47,-8.32 -2.22,-10.49 -1.97,-12.67 -1.84,-14.28 -1.71,-15.89 -1.19,-18.73 -0.68,-21.56 -0.66,-21.67 -0.64,-21.77 -0.59,-21.86 -0.54,-21.96 -0.46,-22.03 -0.38,-22.10 -0.28,-22.14 -0.18,-22.19 -0.08,-22.19 0.02,-22.20 0.12,-22.18 0.22,-22.15 0.31,-22.10 0.40,-22.04 0.47,-21.96 0.54,-21.88 0.57,-21.78 0.61,-21.68 0.62,-21.57 0.62,-21.46 0.59,-21.36 0.56,-21.26 0.50,-21.17 0.43,-21.09 0.35,-21.02 0.26,-20.96 0.16,-20.93 0.06,-20.90 -0.04,-20.90 -0.14,-20.90 -0.24,-20.94 -0.34,-20.98 -0.43,-21.04 -0.51,-21.11 -0.57,-21.20 -0.62,-21.29 -0.65,-21.39 -0.68,-21.49 -0.67,-21.60 -0.66,-21.70 -0.62,-21.80 -0.58,-21.90 -0.51,-21.98 -0.44,-22.06 -0.34,-22.11 -0.25,-22.16 -0.15,-22.18 -0.04,-22.21 0.05,-22.19 0.16,-22.18 0.25,-22.13 0.35,-22.08 0.42,-22.01 0.50,-21.93 0.55,-21.84 0.59,-21.74 0.61,-21.64 0.62,-21.53 0.62,-21.53 0.62,-21.53 1.01,-18.62 1.40,-15.70 1.33,-13.99 1.25,-12.28 1.02,-10.34 0.78,-8.40 0.83,-6.69 0.87,-4.97 0.91,-3.51 0.94,-2.05 0.78,-1.13 0.62,-0.20 0.63,-0.13 0.65,-0.05 0.65,0.02 0.64,0.10 0.62,0.18 0.60,0.25 0.56,0.32 0.52,0.39 0.46,0.45 0.41,0.50 0.34,0.55 0.28,0.59 0.20,0.61 0.13,0.64 0.05,0.64 -0.02,0.65 -0.10,0.64 -0.18,0.63 -0.25,0.59 -0.32,0.56 -0.39,0.52 -0.45,0.47 -0.50,0.41 -0.55,0.35 -0.58,0.27 -0.62,0.20 -0.62,0.20 L -0.62,0.20 Z"/></g><g transform="translate(445.43939208984375 166.10092163085938) rotate(0 4.564361572265625 -0.4564361572265625)" stroke="none"><path fill="#6741d9" d="M 0,-0.65 Q 0,-0.65 1.57,-1.09 3.14,-1.53 4.33,-1.52 5.52,-1.52 6.92,-1.45 8.31,-1.38 8.42,-1.39 8.52,-1.40 8.63,-1.37 8.73,-1.35 8.82,-1.29 8.91,-1.23 8.98,-1.15 9.05,-1.07 9.08,-0.97 9.12,-0.87 9.12,-0.76 9.13,-0.66 9.10,-0.56 9.06,-0.45 9.00,-0.37 8.94,-0.28 8.86,-0.22 8.77,-0.16 8.67,-0.12 8.57,-0.09 8.46,-0.10 8.35,-0.10 8.25,-0.13 8.15,-0.17 8.07,-0.24 7.99,-0.30 7.93,-0.39 7.87,-0.48 7.85,-0.58 7.82,-0.69 7.83,-0.79 7.84,-0.90 7.88,-1.00 7.92,-1.09 7.99,-1.17 8.06,-1.25 8.15,-1.31 8.25,-1.36 8.35,-1.38 8.45,-1.40 8.56,-1.39 8.66,-1.37 8.76,-1.32 8.86,-1.28 8.93,-1.20 9.01,-1.13 9.05,-1.03 9.10,-0.94 9.12,-0.83 9.13,-0.73 9.11,-0.62 9.09,-0.52 9.04,-0.43 8.99,-0.33 8.91,-0.26 8.83,-0.19 8.73,-0.15 8.64,-0.11 8.64,-0.11 8.64,-0.11 7.09,0.70 5.54,1.52 4.34,1.52 3.14,1.53 1.57,1.09 0,0.65 -0.07,0.64 -0.15,0.63 -0.23,0.60 -0.30,0.58 -0.37,0.53 -0.43,0.49 -0.48,0.43 -0.54,0.37 -0.57,0.30 -0.61,0.23 -0.63,0.15 -0.65,0.07 -0.65,-0.00 -0.65,-0.07 -0.63,-0.15 -0.61,-0.23 -0.57,-0.30 -0.54,-0.37 -0.48,-0.43 -0.43,-0.49 -0.37,-0.53 -0.30,-0.58 -0.23,-0.60 -0.15,-0.63 -0.07,-0.64 0.00,-0.65 0.00,-0.65 L 0,-0.65 Z"/></g><g transform="translate(452.74237060546875 173.40390014648438) rotate(0 4.564361572265625 -0.456451416015625)" stroke="none"><path fill="#6741d9" d="M 0.29,-0.58 Q 0.29,-0.58 0.62,-0.71 0.95,-0.83 1.57,-1.49 2.18,-2.14 2.82,-2.65 3.46,-3.17 4.73,-3.73 6.00,-4.30 7.12,-3.90 8.23,-3.51 8.78,-2.53 9.33,-1.56 9.18,-0.19 9.03,1.17 9.13,1.18 9.24,1.19 9.34,1.23 9.43,1.27 9.51,1.34 9.59,1.41 9.65,1.50 9.70,1.60 9.72,1.70 9.74,1.81 9.72,1.91 9.71,2.02 9.66,2.11 9.62,2.21 9.54,2.28 9.47,2.36 9.37,2.40 9.27,2.45 9.17,2.47 9.06,2.48 8.96,2.46 8.86,2.44 8.76,2.39 8.67,2.34 8.60,2.26 8.53,2.18 8.49,2.08 8.44,1.98 8.44,1.88 8.43,1.77 8.45,1.67 8.48,1.57 8.54,1.48 8.59,1.39 8.68,1.32 8.76,1.25 8.86,1.22 8.96,1.18 9.06,1.18 9.17,1.17 9.27,1.20 9.37,1.24 9.46,1.30 9.55,1.36 9.61,1.45 9.67,1.53 9.70,1.63 9.73,1.74 9.73,1.84 9.73,1.95 9.69,2.05 9.65,2.15 9.59,2.23 9.52,2.31 9.43,2.37 9.34,2.43 9.24,2.45 9.14,2.48 9.14,2.48 9.14,2.48 7.73,1.05 6.33,-0.38 6.25,-0.95 6.17,-1.53 5.80,-1.10 5.44,-0.68 4.69,-0.09 3.95,0.49 2.54,1.18 1.14,1.88 0.42,1.23 -0.29,0.58 -0.35,0.54 -0.42,0.49 -0.47,0.44 -0.53,0.38 -0.57,0.31 -0.60,0.24 -0.62,0.16 -0.65,0.09 -0.65,0.01 -0.65,-0.06 -0.63,-0.14 -0.61,-0.22 -0.58,-0.29 -0.54,-0.36 -0.49,-0.42 -0.44,-0.48 -0.38,-0.52 -0.31,-0.57 -0.24,-0.60 -0.16,-0.63 -0.09,-0.64 -0.01,-0.65 0.06,-0.64 0.14,-0.64 0.21,-0.61 0.29,-0.58 0.29,-0.58 L 0.29,-0.58 Z"/></g><g transform="translate(460.95819091796875 158.79794311523438) rotate(0 -0.4564208984375 1.3693084716796875)" stroke="none"><path fill="#6741d9" d="M 0.65,0 Q 0.65,0 0.65,1.12 0.65,2.24 0.63,2.34 0.62,2.45 0.57,2.54 0.52,2.64 0.44,2.71 0.36,2.78 0.27,2.83 0.17,2.87 0.07,2.88 -0.03,2.89 -0.13,2.87 -0.24,2.85 -0.33,2.79 -0.42,2.74 -0.49,2.66 -0.56,2.58 -0.60,2.48 -0.64,2.38 -0.64,2.27 -0.65,2.17 -0.62,2.07 -0.59,1.96 -0.53,1.88 -0.47,1.79 -0.39,1.72 -0.30,1.66 -0.20,1.62 -0.10,1.59 0.00,1.59 0.10,1.59 0.20,1.62 0.30,1.66 0.39,1.72 0.47,1.79 0.53,1.88 0.59,1.96 0.62,2.07 0.65,2.17 0.64,2.27 0.64,2.38 0.60,2.48 0.56,2.58 0.49,2.66 0.42,2.74 0.33,2.79 0.24,2.85 0.13,2.87 0.03,2.89 -0.07,2.88 -0.17,2.87 -0.27,2.83 -0.36,2.78 -0.44,2.71 -0.52,2.64 -0.57,2.54 -0.62,2.45 -0.63,2.34 -0.65,2.24 -0.65,2.24 -0.65,2.24 -0.65,1.12 -0.65,0 -0.64,-0.07 -0.63,-0.15 -0.60,-0.23 -0.58,-0.30 -0.53,-0.37 -0.49,-0.43 -0.43,-0.48 -0.37,-0.54 -0.30,-0.57 -0.23,-0.61 -0.15,-0.63 -0.07,-0.65 0.00,-0.65 0.07,-0.65 0.15,-0.63 0.23,-0.61 0.30,-0.57 0.37,-0.54 0.43,-0.48 0.49,-0.43 0.53,-0.37 0.58,-0.30 0.60,-0.23 0.63,-0.15 0.64,-0.07 0.65,0.00 0.65,0.00 L 0.65,0 Z"/></g><g transform="translate(472.82550048828125 167.0137939453125) rotate(0 4.107940673828125 4.5643463134765625)" stroke="none"><path fill="#6741d9" d="M 0.29,0.58 Q 0.29,0.58 -0.54,1.53 -1.38,2.48 -2.21,2.75 -3.04,3.02 -4.00,3.15 -4.97,3.28 -5.64,3.53 -6.32,3.78 -6.66,4.24 -7.00,4.71 -7.38,5.53 -7.77,6.35 -7.51,6.91 -7.25,7.47 -6.74,7.16 -6.24,6.84 -5.51,6.60 -4.79,6.36 -4.46,5.69 -4.13,5.02 -3.96,4.32 -3.79,3.62 -3.70,2.84 -3.61,2.05 -3.81,1.17 -4.00,0.28 -3.96,0.09 -3.93,-0.10 -3.84,-0.27 -3.76,-0.45 -3.63,-0.61 -3.51,-0.76 -3.35,-0.88 -3.20,-1.00 -3.02,-1.07 -2.84,-1.15 -2.64,-1.18 -2.45,-1.21 -2.25,-1.20 -2.06,-1.18 -1.87,-1.12 -1.68,-1.06 -1.52,-0.96 -1.35,-0.85 -1.21,-0.71 -1.08,-0.57 -0.98,-0.40 -0.88,-0.23 -0.82,-0.04 -0.77,0.14 -0.76,0.33 -0.75,0.53 -1.81,-0.32 -2.88,-1.18 -1.66,-1.36 -0.44,-1.54 0.19,-1.56 0.84,-1.58 1.66,-1.59 2.48,-1.60 3.70,-1.21 4.92,-0.82 5.63,0.08 6.34,0.99 6.57,1.76 6.81,2.53 6.62,3.65 6.43,4.77 6.57,5.51 6.72,6.25 6.67,6.43 6.62,6.62 6.53,6.79 6.43,6.96 6.30,7.10 6.17,7.24 6.01,7.35 5.85,7.45 5.67,7.52 5.49,7.58 5.29,7.60 5.10,7.62 4.91,7.59 4.72,7.56 4.54,7.49 4.36,7.42 4.21,7.31 4.05,7.19 3.93,7.05 3.80,6.90 3.71,6.73 3.63,6.55 3.59,6.37 3.54,6.18 3.55,5.99 3.55,5.79 4.31,4.53 5.07,3.27 5.64,2.55 6.20,1.83 7.10,0.92 7.99,0.01 9.17,-0.17 10.34,-0.37 11.01,-0.03 11.67,0.31 12.10,0.74 12.53,1.17 12.88,2.18 13.24,3.18 13.52,3.84 13.79,4.50 14.24,4.82 14.69,5.13 16.24,5.86 17.79,6.58 17.89,6.61 17.99,6.64 18.08,6.70 18.17,6.76 18.23,6.85 18.29,6.93 18.32,7.03 18.36,7.13 18.36,7.24 18.35,7.35 18.32,7.45 18.28,7.55 18.22,7.63 18.15,7.71 18.06,7.77 17.97,7.83 17.87,7.86 17.77,7.88 17.66,7.88 17.55,7.87 17.46,7.83 17.36,7.79 17.28,7.72 17.20,7.65 17.15,7.55 17.09,7.46 17.07,7.36 17.05,7.25 17.06,7.15 17.08,7.04 17.12,6.95 17.17,6.85 17.24,6.78 17.32,6.70 17.41,6.65 17.51,6.60 17.61,6.59 17.72,6.57 17.82,6.59 17.93,6.61 18.02,6.66 18.11,6.71 18.19,6.79 18.26,6.87 18.30,6.97 18.34,7.06 18.35,7.17 18.36,7.28 18.34,7.38 18.31,7.48 18.26,7.57 18.20,7.66 18.12,7.73 18.04,7.80 17.94,7.84 17.84,7.87 17.73,7.88 17.62,7.88 17.62,7.88 17.62,7.88 15.09,7.77 12.55,7.66 11.67,6.77 10.78,5.87 10.40,4.90 10.02,3.93 9.95,3.15 9.87,2.36 9.26,3.07 8.66,3.78 8.18,4.39 7.69,4.99 7.21,5.62 6.72,6.25 6.67,6.43 6.62,6.62 6.53,6.79 6.43,6.96 6.30,7.10 6.17,7.24 6.01,7.35 5.85,7.45 5.67,7.52 5.49,7.58 5.29,7.60 5.10,7.62 4.91,7.59 4.72,7.56 4.54,7.49 4.36,7.42 4.21,7.31 4.05,7.19 3.93,7.05 3.80,6.90 3.71,6.73 3.63,6.55 3.59,6.37 3.54,6.18 3.55,5.99 3.55,5.79 3.39,5.79 3.22,5.78 3.25,4.87 3.27,3.95 3.40,3.27 3.52,2.60 3.00,2.11 2.47,1.62 1.71,1.63 0.95,1.64 -0.14,1.58 -1.24,1.52 -2.62,0.90 -4.00,0.28 -3.96,0.09 -3.93,-0.10 -3.84,-0.27 -3.76,-0.45 -3.63,-0.61 -3.51,-0.76 -3.35,-0.88 -3.20,-0.99 -3.02,-1.07 -2.84,-1.15 -2.64,-1.18 -2.45,-1.21 -2.25,-1.20 -2.06,-1.18 -1.87,-1.12 -1.68,-1.06 -1.52,-0.96 -1.35,-0.85 -1.21,-0.71 -1.08,-0.57 -0.98,-0.40 -0.88,-0.23 -0.82,-0.04 -0.77,0.14 -0.76,0.33 -0.75,0.53 -0.57,0.63 -0.39,0.73 -0.38,1.60 -0.38,2.47 -0.53,3.52 -0.68,4.56 -1.06,5.70 -1.45,6.85 -2.44,8.03 -3.42,9.21 -4.55,9.63 -5.69,10.05 -7.06,10.13 -8.44,10.20 -9.22,9.65 -10.00,9.10 -10.39,8.19 -10.79,7.29 -10.76,6.19 -10.73,5.10 -10.05,3.79 -9.37,2.48 -8.44,1.63 -7.51,0.79 -6.44,0.44 -5.36,0.08 -4.67,0.02 -3.99,-0.03 -3.40,-0.20 -2.81,-0.38 -1.55,-0.48 -0.29,-0.58 -0.21,-0.61 -0.14,-0.64 -0.06,-0.64 0.01,-0.65 0.09,-0.64 0.16,-0.63 0.24,-0.60 0.31,-0.57 0.38,-0.52 0.44,-0.48 0.49,-0.42 0.54,-0.36 0.58,-0.29 0.61,-0.22 0.63,-0.14 0.65,-0.06 0.65,0.01 0.65,0.09 0.62,0.16 0.60,0.24 0.57,0.31 0.53,0.38 0.47,0.44 0.42,0.50 0.35,0.54 0.29,0.58 0.29,0.58 L 0.29,0.58 Z"/></g></svg>