<svg version="1.1" xmlns="http://www.w3.org/2000/svg" viewBox="0 0 403.7100830078125 368.7166976928711" width="403.7100830078125" height="368.7166976928711" filter="invert(93%) hue-rotate(180deg)" class="excalidraw-svg">
  <!-- svg-source:excalidraw -->
  
  <defs>
    <style class="style-fonts">
      @font-face {
        font-family: "Virgil";
        src: url("https://excalidraw.com/Virgil.woff2");
      }
      @font-face {
        font-family: "Cascadia";
        src: url("https://excalidraw.com/Cascadia.woff2");
      }
      @font-face {
        font-family: "Assistant";
        src: url("https://excalidraw.com/Assistant-Regular.woff2");
      }
    </style>
    
  </defs>
  <rect x="0" y="0" width="403.7100830078125" height="368.7166976928711" fill="#ffffff"/><g stroke-linecap="round" transform="translate(43.16766357421875 35.560386657714844) rotate(0 159.29595947265625 161.57815551757812)"><path d="M318.59 161.58 C318.59 165.6, 318.44 169.64, 318.15 173.65 C317.85 177.67, 317.4 181.68, 316.81 185.66 C316.22 189.64, 315.48 193.61, 314.6 197.53 C313.72 201.46, 312.68 205.36, 311.51 209.2 C310.35 213.05, 309.03 216.86, 307.58 220.61 C306.13 224.36, 304.54 228.06, 302.82 231.68 C301.09 235.31, 299.23 238.88, 297.25 242.37 C295.27 245.85, 293.15 249.27, 290.91 252.6 C288.68 255.92, 286.31 259.17, 283.84 262.32 C281.36 265.47, 278.77 268.53, 276.07 271.48 C273.37 274.43, 270.55 277.29, 267.64 280.02 C264.74 282.76, 261.72 285.4, 258.62 287.91 C255.51 290.41, 252.31 292.81, 249.03 295.08 C245.75 297.35, 242.38 299.5, 238.94 301.51 C235.51 303.52, 231.99 305.41, 228.41 307.16 C224.84 308.9, 221.19 310.52, 217.49 311.99 C213.8 313.46, 210.04 314.79, 206.25 315.98 C202.46 317.16, 198.61 318.21, 194.74 319.11 C190.87 320, 186.96 320.75, 183.04 321.35 C179.11 321.95, 175.16 322.4, 171.2 322.7 C167.24 323.01, 163.26 323.16, 159.3 323.16 C155.33 323.16, 151.35 323.01, 147.39 322.7 C143.43 322.4, 139.48 321.95, 135.55 321.35 C131.63 320.75, 127.72 320, 123.85 319.11 C119.98 318.21, 116.13 317.16, 112.34 315.98 C108.55 314.79, 104.79 313.46, 101.1 311.99 C97.4 310.52, 93.76 308.9, 90.18 307.16 C86.6 305.41, 83.08 303.52, 79.65 301.51 C76.21 299.5, 72.84 297.35, 69.56 295.08 C66.28 292.81, 63.08 290.41, 59.98 287.91 C56.87 285.4, 53.86 282.76, 50.95 280.02 C48.04 277.29, 45.22 274.43, 42.52 271.48 C39.82 268.53, 37.23 265.47, 34.75 262.32 C32.28 259.17, 29.91 255.92, 27.68 252.6 C25.44 249.27, 23.33 245.85, 21.34 242.37 C19.36 238.88, 17.5 235.31, 15.78 231.68 C14.05 228.06, 12.46 224.36, 11.01 220.61 C9.56 216.86, 8.25 213.05, 7.08 209.2 C5.91 205.36, 4.88 201.46, 3.99 197.53 C3.11 193.61, 2.37 189.64, 1.78 185.66 C1.19 181.68, 0.74 177.67, 0.45 173.65 C0.15 169.64, 0 165.6, 0 161.58 C0 157.55, 0.15 153.52, 0.45 149.5 C0.74 145.49, 1.19 141.48, 1.78 137.5 C2.37 133.52, 3.11 129.55, 3.99 125.62 C4.88 121.7, 5.91 117.8, 7.08 113.95 C8.25 110.11, 9.56 106.29, 11.01 102.55 C12.46 98.8, 14.05 95.1, 15.78 91.47 C17.5 87.85, 19.36 84.27, 21.34 80.79 C23.33 77.3, 25.44 73.88, 27.68 70.56 C29.91 67.23, 32.28 63.98, 34.75 60.84 C37.23 57.69, 39.82 54.63, 42.52 51.68 C45.22 48.73, 48.04 45.87, 50.95 43.13 C53.86 40.4, 56.87 37.76, 59.98 35.25 C63.08 32.74, 66.28 30.34, 69.56 28.08 C72.84 25.81, 76.21 23.66, 79.65 21.65 C83.08 19.63, 86.6 17.75, 90.18 16 C93.76 14.25, 97.4 12.64, 101.1 11.17 C104.79 9.7, 108.55 8.36, 112.34 7.18 C116.13 5.99, 119.98 4.95, 123.85 4.05 C127.72 3.16, 131.63 2.4, 135.55 1.8 C139.48 1.2, 143.43 0.75, 147.39 0.45 C151.35 0.15, 155.33 0, 159.3 0 C163.26 0, 167.24 0.15, 171.2 0.45 C175.16 0.75, 179.11 1.2, 183.04 1.8 C186.96 2.4, 190.87 3.16, 194.74 4.05 C198.61 4.95, 202.46 5.99, 206.25 7.18 C210.04 8.36, 213.8 9.7, 217.49 11.17 C221.19 12.64, 224.84 14.25, 228.41 16 C231.99 17.75, 235.51 19.63, 238.94 21.65 C242.38 23.66, 245.75 25.81, 249.03 28.08 C252.31 30.34, 255.51 32.74, 258.62 35.25 C261.72 37.76, 264.74 40.4, 267.64 43.13 C270.55 45.87, 273.37 48.73, 276.07 51.68 C278.77 54.63, 281.36 57.69, 283.84 60.84 C286.31 63.98, 288.68 67.23, 290.91 70.56 C293.15 73.88, 295.27 77.3, 297.25 80.79 C299.23 84.27, 301.09 87.85, 302.82 91.47 C304.54 95.1, 306.13 98.8, 307.58 102.55 C309.03 106.29, 310.35 110.11, 311.51 113.95 C312.68 117.8, 313.72 121.7, 314.6 125.62 C315.48 129.55, 316.22 133.52, 316.81 137.5 C317.4 141.48, 317.85 145.49, 318.15 149.5 C318.44 153.52, 318.59 157.55, 318.59 161.58" stroke="#6741d9" stroke-width="2" fill="none"/></g><g stroke-linecap="round" transform="translate(45.906219482421875 169.7524642944336) rotate(0 157.47023010253906 39.25343322753906)"><path d="M314.94 39.25 C314.94 40.39, 314.74 41.54, 314.34 42.67 C313.94 43.81, 313.34 44.95, 312.55 46.07 C311.75 47.19, 310.76 48.31, 309.57 49.41 C308.39 50.51, 307.01 51.61, 305.44 52.68 C303.88 53.75, 302.12 54.81, 300.19 55.84 C298.25 56.88, 296.13 57.89, 293.84 58.88 C291.56 59.87, 289.09 60.83, 286.46 61.77 C283.84 62.7, 281.04 63.61, 278.1 64.49 C275.16 65.36, 272.05 66.2, 268.82 67.01 C265.58 67.82, 262.19 68.59, 258.69 69.32 C255.19 70.06, 251.54 70.75, 247.79 71.41 C244.04 72.06, 240.17 72.68, 236.21 73.25 C232.24 73.82, 228.17 74.35, 224.02 74.83 C219.87 75.31, 215.63 75.75, 211.33 76.14 C207.03 76.53, 202.65 76.87, 198.23 77.17 C193.81 77.46, 189.32 77.71, 184.81 77.91 C180.31 78.11, 175.75 78.26, 171.19 78.36 C166.64 78.46, 162.05 78.51, 157.47 78.51 C152.9 78.51, 148.3 78.46, 143.75 78.36 C139.19 78.26, 134.63 78.11, 130.13 77.91 C125.62 77.71, 121.13 77.46, 116.71 77.17 C112.3 76.87, 107.91 76.53, 103.61 76.14 C99.31 75.75, 95.07 75.31, 90.92 74.83 C86.77 74.35, 82.7 73.82, 78.74 73.25 C74.77 72.68, 70.9 72.06, 67.15 71.41 C63.4 70.75, 59.75 70.06, 56.25 69.32 C52.75 68.59, 49.36 67.82, 46.12 67.01 C42.89 66.2, 39.78 65.36, 36.84 64.49 C33.9 63.61, 31.1 62.7, 28.48 61.77 C25.85 60.83, 23.38 59.87, 21.1 58.88 C18.81 57.89, 16.69 56.88, 14.75 55.84 C12.82 54.81, 11.06 53.75, 9.5 52.68 C7.93 51.61, 6.55 50.51, 5.37 49.41 C4.18 48.31, 3.19 47.19, 2.39 46.07 C1.6 44.95, 1 43.81, 0.6 42.67 C0.2 41.54, 0 40.39, 0 39.25 C0 38.11, 0.2 36.97, 0.6 35.83 C1 34.7, 1.6 33.56, 2.39 32.44 C3.19 31.31, 4.18 30.2, 5.37 29.09 C6.55 27.99, 7.93 26.9, 9.5 25.83 C11.06 24.76, 12.82 23.7, 14.75 22.66 C16.69 21.63, 18.81 20.61, 21.1 19.63 C23.38 18.64, 25.85 17.67, 28.48 16.74 C31.1 15.8, 33.9 14.9, 36.84 14.02 C39.78 13.15, 42.89 12.3, 46.12 11.5 C49.36 10.69, 52.75 9.92, 56.25 9.18 C59.75 8.45, 63.4 7.75, 67.15 7.1 C70.9 6.44, 74.77 5.83, 78.74 5.26 C82.7 4.69, 86.77 4.16, 90.92 3.68 C95.07 3.2, 99.31 2.76, 103.61 2.37 C107.91 1.98, 112.3 1.63, 116.71 1.34 C121.13 1.04, 125.62 0.79, 130.13 0.6 C134.63 0.4, 139.19 0.25, 143.75 0.15 C148.3 0.05, 152.9 0, 157.47 0 C162.05 0, 166.64 0.05, 171.19 0.15 C175.75 0.25, 180.31 0.4, 184.81 0.6 C189.32 0.79, 193.81 1.04, 198.23 1.34 C202.65 1.63, 207.03 1.98, 211.33 2.37 C215.63 2.76, 219.87 3.2, 224.02 3.68 C228.17 4.16, 232.24 4.69, 236.21 5.26 C240.17 5.83, 244.04 6.44, 247.79 7.1 C251.54 7.75, 255.19 8.45, 258.69 9.18 C262.19 9.92, 265.58 10.69, 268.82 11.5 C272.05 12.3, 275.16 13.15, 278.1 14.02 C281.04 14.9, 283.84 15.8, 286.46 16.74 C289.09 17.67, 291.56 18.64, 293.84 19.63 C296.13 20.61, 298.25 21.63, 300.19 22.66 C302.12 23.7, 303.88 24.76, 305.44 25.83 C307.01 26.9, 308.39 27.99, 309.57 29.09 C310.76 30.2, 311.75 31.31, 312.55 32.44 C313.34 33.56, 313.94 34.7, 314.34 35.83 C314.74 36.97, 314.84 38.68, 314.94 39.25 C315.04 39.82, 315.04 38.68, 314.94 39.25" stroke="#6741d9" stroke-width="2" fill="none"/></g><g transform="translate(242.1734619140625 147.84349822998047) rotate(0 -0.912872314453125 16.888107299804688)" stroke="none"><path fill="#ffffff" d="M 2.54,0.63 Q 2.54,0.63 3.97,3.21 5.39,5.80 5.28,8.98 5.18,12.16 5.53,15.78 5.88,19.40 5.92,22.24 5.95,25.07 5.90,27.31 5.84,29.54 3.77,31.27 1.70,33.00 1.64,33.42 1.57,33.84 1.37,34.22 1.18,34.59 0.87,34.89 0.56,35.18 0.18,35.36 -0.19,35.54 -0.62,35.59 -1.04,35.64 -1.45,35.55 -1.87,35.46 -2.24,35.25 -2.60,35.03 -2.88,34.71 -3.15,34.38 -3.31,33.99 -3.47,33.60 -3.50,33.17 -3.53,32.75 -3.41,32.34 -3.30,31.93 -3.07,31.57 -2.83,31.22 -2.49,30.96 -2.16,30.70 -1.75,30.56 -1.35,30.43 -0.93,30.42 -0.50,30.42 -0.10,30.56 0.29,30.69 0.63,30.94 0.97,31.20 1.21,31.55 1.45,31.90 1.57,32.31 1.69,32.72 1.67,33.14 1.65,33.57 1.49,33.96 1.34,34.36 1.06,34.68 0.79,35.01 0.43,35.23 0.06,35.45 -0.34,35.54 -0.76,35.64 -1.18,35.59 -1.60,35.55 -1.99,35.38 -2.37,35.20 -2.68,34.91 -2.99,34.62 -3.20,34.24 -3.40,33.87 -3.47,33.45 -3.54,33.03 -3.54,33.03 -3.54,33.03 -5.63,31.34 -7.72,29.64 -7.81,27.46 -7.90,25.28 -8.00,20.81 -8.11,16.35 -8.19,11.82 -8.26,7.30 -7.88,4.95 -7.49,2.59 -5.02,0.97 -2.54,-0.63 -2.43,-0.93 -2.32,-1.22 -2.14,-1.48 -1.96,-1.74 -1.72,-1.95 -1.48,-2.16 -1.20,-2.31 -0.92,-2.45 -0.61,-2.53 -0.30,-2.60 0.00,-2.60 0.32,-2.60 0.63,-2.52 0.93,-2.45 1.21,-2.30 1.49,-2.15 1.73,-1.94 1.97,-1.73 2.15,-1.47 2.32,-1.21 2.44,-0.91 2.55,-0.61 2.58,-0.30 2.62,0.00 2.58,0.32 2.54,0.63 2.54,0.63 L 2.54,0.63 Z"/></g><g transform="translate(281.42694091796875 159.7108383178711) rotate(0 -0.456451416015625 10.954437255859375)" stroke="none"><path fill="#ffffff" d="M 2.61,0.29 Q 2.61,0.29 4.37,2.87 6.13,5.46 5.99,9.15 5.85,12.84 3.78,17.12 1.71,21.40 1.64,21.82 1.57,22.24 1.37,22.61 1.17,22.99 0.86,23.28 0.55,23.57 0.16,23.74 -0.21,23.92 -0.64,23.97 -1.06,24.01 -1.47,23.92 -1.89,23.82 -2.25,23.60 -2.62,23.38 -2.89,23.06 -3.16,22.73 -3.32,22.34 -3.47,21.94 -3.49,21.52 -3.52,21.09 -3.40,20.68 -3.28,20.27 -3.04,19.92 -2.80,19.57 -2.46,19.32 -2.13,19.06 -1.72,18.93 -1.32,18.79 -0.89,18.79 -0.47,18.80 -0.07,18.93 0.33,19.07 0.66,19.33 1.00,19.59 1.24,19.94 1.47,20.30 1.59,20.71 1.70,21.12 1.67,21.54 1.65,21.96 1.49,22.36 1.33,22.75 1.05,23.07 0.78,23.40 0.41,23.61 0.05,23.83 -0.36,23.92 -0.78,24.01 -1.20,23.96 -1.62,23.91 -2.01,23.73 -2.39,23.55 -2.70,23.26 -3.00,22.97 -3.20,22.59 -3.40,22.21 -3.47,21.79 -3.53,21.37 -3.53,21.37 -3.53,21.38 -5.45,18.86 -7.37,16.34 -7.40,12.40 -7.43,8.46 -7.30,6.22 -7.18,3.98 -4.89,1.84 -2.61,-0.29 -2.53,-0.59 -2.46,-0.90 -2.32,-1.18 -2.17,-1.47 -1.96,-1.70 -1.76,-1.94 -1.50,-2.13 -1.24,-2.31 -0.94,-2.42 -0.65,-2.54 -0.34,-2.58 -0.02,-2.62 0.28,-2.59 0.60,-2.55 0.89,-2.44 1.19,-2.33 1.45,-2.16 1.72,-1.98 1.93,-1.74 2.14,-1.51 2.29,-1.23 2.44,-0.95 2.52,-0.64 2.60,-0.34 2.60,-0.02 2.61,0.29 2.61,0.29 L 2.61,0.29 Z"/></g><g transform="translate(320.68035888671875 167.01378631591797) rotate(0 -1.369293212890625 11.410888671875)" stroke="none"><path fill="#ffffff" d="M 2.61,0.18 Q 2.61,0.18 4.29,4.00 5.97,7.81 5.56,10.65 5.15,13.49 2.59,17.86 0.04,22.24 -0.09,22.64 -0.24,23.04 -0.51,23.37 -0.78,23.70 -1.13,23.93 -1.49,24.16 -1.90,24.26 -2.32,24.36 -2.74,24.33 -3.16,24.29 -3.55,24.12 -3.94,23.96 -4.26,23.67 -4.58,23.39 -4.78,23.02 -4.99,22.65 -5.07,22.23 -5.15,21.81 -5.09,21.39 -5.04,20.97 -4.85,20.59 -4.66,20.21 -4.36,19.91 -4.05,19.61 -3.67,19.42 -3.29,19.23 -2.87,19.18 -2.45,19.12 -2.03,19.20 -1.62,19.28 -1.25,19.49 -0.88,19.70 -0.59,20.02 -0.31,20.33 -0.14,20.73 0.01,21.12 0.05,21.54 0.08,21.96 -0.01,22.38 -0.12,22.79 -0.34,23.15 -0.57,23.50 -0.91,23.77 -1.24,24.03 -1.64,24.18 -2.04,24.33 -2.46,24.34 -2.89,24.35 -3.29,24.22 -3.70,24.10 -4.04,23.85 -4.39,23.60 -4.63,23.25 -4.88,22.91 -5.01,22.50 -5.13,22.10 -5.12,21.67 -5.10,21.25 -5.10,21.25 -5.11,21.25 -6.41,18.84 -7.71,16.43 -7.70,14.04 -7.69,11.65 -7.36,9.26 -7.02,6.88 -4.82,3.34 -2.61,-0.18 -2.55,-0.49 -2.49,-0.80 -2.36,-1.09 -2.23,-1.38 -2.03,-1.63 -1.83,-1.87 -1.58,-2.07 -1.33,-2.26 -1.04,-2.38 -0.75,-2.51 -0.44,-2.56 -0.12,-2.62 0.18,-2.60 0.50,-2.57 0.80,-2.48 1.10,-2.38 1.37,-2.21 1.64,-2.04 1.86,-1.82 2.08,-1.59 2.24,-1.32 2.40,-1.05 2.49,-0.74 2.58,-0.44 2.60,-0.12 2.61,0.18 2.61,0.18 L 2.61,0.18 Z"/></g><g transform="translate(200.18145751953125 156.0593490600586) rotate(0 2.73858642578125 12.323745727539062)" stroke="none"><path fill="#ffffff" d="M 2.51,-0.75 Q 2.51,-0.75 5.06,1.34 7.62,3.44 8.08,6.02 8.54,8.60 9.35,12.91 10.15,17.21 9.04,20.37 7.93,23.53 7.94,23.96 7.96,24.38 7.84,24.79 7.72,25.20 7.48,25.55 7.24,25.90 6.89,26.15 6.55,26.40 6.15,26.53 5.74,26.66 5.32,26.66 4.89,26.65 4.49,26.51 4.09,26.37 3.76,26.11 3.42,25.84 3.19,25.49 2.95,25.13 2.85,24.72 2.74,24.31 2.77,23.89 2.80,23.46 2.96,23.07 3.12,22.68 3.40,22.36 3.68,22.04 4.05,21.83 4.41,21.61 4.83,21.53 5.25,21.44 5.67,21.49 6.09,21.54 6.47,21.73 6.86,21.91 7.16,22.21 7.47,22.50 7.66,22.88 7.85,23.26 7.92,23.68 7.98,24.10 7.90,24.52 7.83,24.94 7.63,25.31 7.42,25.68 7.11,25.97 6.80,26.26 6.41,26.43 6.02,26.60 5.60,26.64 5.18,26.68 4.76,26.59 4.35,26.49 3.99,26.27 3.63,26.04 3.35,25.71 3.08,25.39 2.93,24.99 2.78,24.59 2.78,24.59 2.78,24.59 0.23,22.03 -2.31,19.47 -2.75,17.13 -3.19,14.80 -3.83,10.92 -4.47,7.05 -3.49,3.90 -2.51,0.75 -2.56,0.44 -2.62,0.13 -2.60,-0.18 -2.57,-0.50 -2.48,-0.80 -2.38,-1.10 -2.21,-1.37 -2.05,-1.64 -1.82,-1.86 -1.59,-2.08 -1.32,-2.24 -1.05,-2.40 -0.74,-2.49 -0.44,-2.58 -0.12,-2.60 0.18,-2.62 0.49,-2.55 0.80,-2.49 1.09,-2.36 1.38,-2.23 1.62,-2.03 1.87,-1.83 2.06,-1.58 2.26,-1.33 2.38,-1.04 2.51,-0.75 2.51,-0.75 L 2.51,-0.75 Z"/></g><g transform="translate(160.01513671875 158.79796600341797) rotate(0 1.825714111328125 14.149490356445312)" stroke="none"><path fill="#ffffff" d="M 2.60,-0.34 Q 2.60,-0.34 5.01,3.33 7.41,7.02 7.88,10.52 8.34,14.01 8.34,17.04 8.33,20.06 7.18,23.27 6.02,26.48 6.02,26.91 6.02,27.33 5.88,27.73 5.74,28.13 5.48,28.47 5.22,28.81 4.86,29.04 4.51,29.28 4.10,29.39 3.69,29.50 3.27,29.47 2.84,29.45 2.45,29.29 2.06,29.13 1.73,28.85 1.41,28.57 1.20,28.21 0.98,27.84 0.89,27.42 0.80,27.01 0.85,26.59 0.90,26.16 1.08,25.78 1.26,25.40 1.56,25.09 1.85,24.78 2.23,24.59 2.61,24.39 3.03,24.32 3.45,24.26 3.87,24.33 4.28,24.40 4.66,24.61 5.03,24.81 5.32,25.12 5.61,25.43 5.79,25.82 5.96,26.20 6.01,26.63 6.05,27.05 5.95,27.46 5.86,27.88 5.64,28.24 5.42,28.60 5.09,28.87 4.76,29.15 4.37,29.30 3.97,29.46 3.55,29.47 3.12,29.49 2.71,29.38 2.30,29.26 1.96,29.02 1.61,28.78 1.35,28.44 1.10,28.10 0.96,27.69 0.83,27.29 0.83,27.29 0.83,27.29 -1.31,24.11 -3.47,20.93 -3.88,18.35 -4.30,15.76 -4.81,12.24 -5.31,8.72 -3.96,4.53 -2.60,0.34 -2.60,0.03 -2.61,-0.28 -2.53,-0.59 -2.46,-0.90 -2.32,-1.18 -2.17,-1.46 -1.97,-1.70 -1.76,-1.94 -1.50,-2.12 -1.24,-2.31 -0.95,-2.42 -0.65,-2.54 -0.34,-2.58 -0.03,-2.62 0.28,-2.59 0.59,-2.55 0.89,-2.44 1.19,-2.33 1.45,-2.16 1.71,-1.98 1.93,-1.75 2.14,-1.51 2.29,-1.23 2.44,-0.95 2.52,-0.65 2.60,-0.34 2.60,-0.34 L 2.60,-0.34 Z"/></g><g transform="translate(120.76165771484375 161.53655242919922) rotate(0 4.564361572265625 12.323760986328125)" stroke="none"><path fill="#ffffff" d="M 2.54,-0.63 Q 2.54,-0.63 5.01,0.97 7.48,2.59 8.23,5.24 8.98,7.89 9.73,10.17 10.49,12.46 10.68,17.40 10.87,22.35 11.01,22.75 11.15,23.15 11.15,23.58 11.15,24.00 11.02,24.40 10.88,24.81 10.63,25.15 10.37,25.49 10.02,25.73 9.67,25.97 9.26,26.08 8.85,26.20 8.43,26.18 8.00,26.15 7.61,26.00 7.21,25.84 6.89,25.57 6.56,25.30 6.34,24.93 6.12,24.57 6.03,24.16 5.94,23.74 5.98,23.32 6.02,22.90 6.20,22.51 6.38,22.12 6.67,21.81 6.96,21.50 7.33,21.30 7.71,21.10 8.13,21.03 8.55,20.96 8.97,21.03 9.39,21.09 9.76,21.29 10.14,21.49 10.43,21.80 10.73,22.10 10.91,22.49 11.09,22.87 11.13,23.30 11.18,23.72 11.09,24.13 11.00,24.55 10.78,24.91 10.57,25.28 10.24,25.56 9.92,25.83 9.53,25.99 9.13,26.15 8.71,26.17 8.28,26.20 7.88,26.09 7.47,25.98 7.11,25.74 6.76,25.50 6.50,25.16 6.24,24.83 6.24,24.83 6.24,24.83 3.35,22.98 0.46,21.13 -0.78,18.93 -2.03,16.74 -2.96,14.08 -3.88,11.42 -4.63,8.61 -5.38,5.80 -3.96,3.22 -2.54,0.63 -2.58,0.32 -2.62,0.00 -2.58,-0.30 -2.55,-0.62 -2.44,-0.91 -2.32,-1.21 -2.15,-1.47 -1.97,-1.73 -1.73,-1.94 -1.49,-2.15 -1.21,-2.30 -0.93,-2.45 -0.63,-2.52 -0.32,-2.60 -0.00,-2.60 0.30,-2.60 0.61,-2.53 0.92,-2.45 1.20,-2.31 1.48,-2.16 1.72,-1.95 1.96,-1.74 2.14,-1.48 2.32,-1.22 2.43,-0.93 2.54,-0.63 2.54,-0.63 L 2.54,-0.63 Z"/></g><g transform="translate(89.72406005859375 168.83953094482422) rotate(0 2.73858642578125 9.128707885742188)" stroke="none"><path fill="#ffffff" d="M 2.58,-0.46 Q 2.58,-0.46 4.82,2.10 7.07,4.67 8.46,7.92 9.85,11.17 9.10,14.26 8.34,17.35 8.51,17.74 8.67,18.13 8.71,18.55 8.74,18.97 8.64,19.39 8.54,19.80 8.31,20.16 8.08,20.51 7.74,20.78 7.41,21.05 7.01,21.19 6.61,21.34 6.19,21.35 5.76,21.36 5.36,21.23 4.95,21.11 4.61,20.86 4.26,20.61 4.02,20.26 3.77,19.92 3.65,19.51 3.52,19.10 3.53,18.68 3.55,18.26 3.69,17.86 3.84,17.46 4.11,17.13 4.37,16.80 4.73,16.57 5.09,16.34 5.50,16.24 5.92,16.14 6.34,16.17 6.76,16.21 7.15,16.38 7.54,16.55 7.86,16.83 8.18,17.11 8.38,17.49 8.59,17.86 8.67,18.27 8.75,18.69 8.69,19.11 8.63,19.53 8.44,19.91 8.25,20.29 7.95,20.59 7.65,20.89 7.27,21.08 6.89,21.27 6.47,21.33 6.05,21.38 5.63,21.30 5.21,21.22 4.84,21.01 4.47,20.80 4.19,20.48 3.91,20.17 3.91,20.17 3.91,20.17 1.26,18.33 -1.39,16.50 -2.37,14.38 -3.34,12.27 -4.16,9.57 -4.97,6.87 -3.77,3.67 -2.58,0.46 -2.60,0.15 -2.62,-0.16 -2.56,-0.47 -2.50,-0.78 -2.37,-1.07 -2.24,-1.36 -2.05,-1.61 -1.85,-1.85 -1.60,-2.05 -1.35,-2.24 -1.06,-2.37 -0.77,-2.50 -0.46,-2.56 -0.15,-2.62 0.16,-2.60 0.47,-2.58 0.77,-2.48 1.08,-2.39 1.35,-2.22 1.62,-2.06 1.84,-1.84 2.07,-1.61 2.23,-1.34 2.39,-1.07 2.49,-0.77 2.58,-0.46 2.58,-0.46 L 2.58,-0.46 Z"/></g><g transform="translate(67.81512451171875 173.40389251708984) rotate(0 3.195068359375 13.69305419921875)" stroke="none"><path fill="#ffffff" d="M 2.56,-0.55 Q 2.56,-0.55 5.04,2.76 7.51,6.07 8.29,8.36 9.07,10.66 9.84,14.06 10.60,17.45 10.02,21.32 9.43,25.19 9.48,25.61 9.52,26.04 9.42,26.45 9.32,26.86 9.10,27.23 8.88,27.59 8.55,27.86 8.22,28.13 7.83,28.28 7.43,28.44 7.01,28.45 6.58,28.47 6.17,28.35 5.77,28.24 5.42,27.99 5.07,27.75 4.81,27.41 4.56,27.07 4.43,26.66 4.30,26.26 4.30,25.83 4.31,25.41 4.45,25.01 4.59,24.61 4.85,24.27 5.11,23.94 5.47,23.70 5.82,23.47 6.23,23.36 6.64,23.25 7.07,23.28 7.49,23.31 7.88,23.47 8.28,23.63 8.60,23.91 8.92,24.19 9.13,24.55 9.35,24.92 9.43,25.34 9.52,25.75 9.47,26.17 9.42,26.60 9.24,26.98 9.05,27.36 8.76,27.67 8.46,27.97 8.08,28.17 7.71,28.36 7.29,28.43 6.86,28.49 6.45,28.42 6.03,28.34 5.65,28.14 5.28,27.94 4.99,27.63 4.70,27.31 4.53,26.93 4.36,26.54 4.36,26.54 4.36,26.54 1.95,23.53 -0.45,20.52 -1.47,17.49 -2.49,14.47 -3.42,11.55 -4.36,8.62 -3.46,4.58 -2.56,0.55 -2.59,0.23 -2.62,-0.08 -2.57,-0.39 -2.52,-0.70 -2.40,-0.99 -2.28,-1.29 -2.09,-1.54 -1.91,-1.80 -1.66,-2.00 -1.42,-2.20 -1.14,-2.34 -0.85,-2.48 -0.54,-2.54 -0.23,-2.61 0.07,-2.60 0.39,-2.59 0.70,-2.51 1.00,-2.42 1.28,-2.27 1.55,-2.11 1.78,-1.89 2.01,-1.68 2.19,-1.41 2.36,-1.14 2.46,-0.84 2.56,-0.55 2.56,-0.55 L 2.56,-0.55 Z"/></g><g transform="translate(57.7735595703125 188.00981903076172) rotate(0 -0.912841796875 7.7593994140625)" stroke="none"><path fill="#ffffff" d="M -0.97,2.43 Q -0.97,2.43 -1.95,2.87 -2.94,3.31 -0.71,1.57 1.50,-0.16 2.79,1.62 4.08,3.40 4.97,5.93 5.86,8.46 5.30,11.84 4.74,15.22 4.83,15.64 4.91,16.06 4.86,16.48 4.80,16.90 4.62,17.28 4.43,17.66 4.13,17.97 3.83,18.27 3.46,18.46 3.08,18.65 2.66,18.71 2.24,18.77 1.82,18.70 1.40,18.62 1.03,18.42 0.66,18.21 0.37,17.90 0.08,17.58 -0.08,17.19 -0.25,16.80 -0.29,16.38 -0.32,15.96 -0.23,15.54 -0.13,15.13 0.09,14.77 0.32,14.41 0.65,14.14 0.97,13.87 1.37,13.72 1.77,13.57 2.19,13.56 2.62,13.54 3.03,13.66 3.43,13.79 3.78,14.03 4.13,14.28 4.38,14.62 4.63,14.96 4.76,15.37 4.88,15.77 4.88,16.20 4.87,16.62 4.73,17.02 4.58,17.42 4.32,17.76 4.05,18.09 3.70,18.32 3.34,18.55 2.93,18.66 2.52,18.76 2.10,18.73 1.67,18.70 1.28,18.54 0.89,18.37 0.57,18.09 0.25,17.81 0.04,17.44 -0.16,17.07 -0.16,17.07 -0.16,17.07 -2.76,15.05 -5.35,13.03 -6.59,10.35 -7.82,7.66 -8.40,3.46 -8.98,-0.73 -5.64,-3.07 -2.30,-5.41 -0.66,-3.92 0.97,-2.43 1.25,-2.28 1.53,-2.13 1.76,-1.92 1.99,-1.70 2.17,-1.44 2.34,-1.17 2.45,-0.88 2.56,-0.58 2.59,-0.26 2.62,0.04 2.58,0.36 2.53,0.67 2.42,0.96 2.30,1.26 2.11,1.51 1.93,1.77 1.69,1.98 1.45,2.18 1.16,2.33 0.88,2.47 0.57,2.54 0.26,2.61 -0.04,2.60 -0.36,2.60 -0.66,2.52 -0.97,2.43 -0.97,2.43 L -0.97,2.43 Z"/></g><g transform="translate(340.7635498046875 198.9642562866211) rotate(0 2.28216552734375 -8.215835571289062)" stroke="none"><path fill="#ffffff" d="M -2.60,-0.37 Q -2.60,-0.37 -4.21,-2.48 -5.82,-4.58 -5.28,-6.99 -4.74,-9.39 -3.16,-12.53 -1.59,-15.66 0.16,-16.12 1.91,-16.58 2.06,-16.97 2.21,-17.37 2.48,-17.70 2.75,-18.03 3.11,-18.25 3.47,-18.48 3.89,-18.58 4.30,-18.68 4.72,-18.64 5.15,-18.60 5.53,-18.42 5.92,-18.25 6.24,-17.97 6.55,-17.68 6.75,-17.31 6.96,-16.93 7.03,-16.52 7.11,-16.10 7.05,-15.68 6.99,-15.26 6.79,-14.88 6.60,-14.50 6.30,-14.20 5.99,-13.91 5.61,-13.72 5.23,-13.54 4.81,-13.48 4.38,-13.43 3.97,-13.51 3.55,-13.60 3.18,-13.81 2.82,-14.03 2.54,-14.35 2.26,-14.66 2.09,-15.06 1.93,-15.45 1.90,-15.87 1.87,-16.30 1.98,-16.71 2.08,-17.12 2.32,-17.47 2.55,-17.83 2.88,-18.09 3.22,-18.36 3.62,-18.50 4.02,-18.64 4.44,-18.65 4.87,-18.65 5.27,-18.52 5.68,-18.40 6.02,-18.14 6.36,-17.89 6.61,-17.54 6.85,-17.20 6.97,-16.79 7.09,-16.38 7.07,-15.96 7.06,-15.53 7.06,-15.53 7.06,-15.53 7.49,-11.51 7.92,-7.49 7.39,-5.12 6.87,-2.75 4.73,-1.19 2.60,0.37 2.51,0.67 2.43,0.98 2.28,1.26 2.12,1.53 1.91,1.76 1.69,2.00 1.43,2.17 1.17,2.35 0.87,2.45 0.57,2.56 0.25,2.59 -0.05,2.62 -0.36,2.58 -0.68,2.53 -0.97,2.41 -1.26,2.29 -1.52,2.11 -1.78,1.92 -1.98,1.68 -2.19,1.44 -2.33,1.16 -2.47,0.87 -2.54,0.57 -2.61,0.26 -2.60,-0.05 -2.60,-0.37 -2.60,-0.37 L -2.60,-0.37 Z"/></g><g transform="translate(10 10) rotate(0 1.3693084716796875 3.195049285888672)" stroke="none"><path fill="#ffffff" d="M 2.41,-1.03 Q 2.41,-1.03 3.53,1.58 4.65,4.20 4.76,4.61 4.86,5.02 4.82,5.44 4.79,5.87 4.62,6.26 4.45,6.65 4.17,6.96 3.88,7.28 3.51,7.49 3.14,7.70 2.72,7.78 2.31,7.86 1.89,7.80 1.46,7.74 1.08,7.55 0.70,7.36 0.40,7.06 0.10,6.76 -0.07,6.38 -0.26,6.00 -0.32,5.58 -0.38,5.16 -0.30,4.74 -0.22,4.32 -0.01,3.95 0.19,3.58 0.51,3.30 0.83,3.02 1.22,2.85 1.61,2.68 2.03,2.65 2.46,2.61 2.87,2.72 3.28,2.82 3.64,3.05 4.00,3.28 4.26,3.61 4.53,3.94 4.67,4.34 4.82,4.74 4.83,5.16 4.84,5.59 4.72,6.00 4.59,6.40 4.34,6.75 4.09,7.09 3.75,7.34 3.40,7.59 3.00,7.71 2.59,7.83 2.16,7.82 1.74,7.81 1.34,7.66 0.94,7.52 0.61,7.25 0.28,6.98 0.05,6.62 -0.17,6.26 -0.17,6.27 -0.17,6.27 -1.29,3.65 -2.41,1.03 -2.50,0.73 -2.59,0.42 -2.60,0.11 -2.61,-0.20 -2.55,-0.51 -2.49,-0.82 -2.35,-1.11 -2.22,-1.39 -2.02,-1.64 -1.82,-1.89 -1.57,-2.08 -1.31,-2.27 -1.02,-2.39 -0.73,-2.52 -0.42,-2.57 -0.11,-2.62 0.20,-2.59 0.52,-2.57 0.82,-2.47 1.12,-2.37 1.38,-2.20 1.65,-2.03 1.87,-1.81 2.09,-1.58 2.25,-1.30 2.41,-1.03 2.41,-1.03 L 2.41,-1.03 Z"/></g><g stroke-linecap="round" transform="translate(168.23095703125 175.22966766357422) rotate(0 31.494049072265625 32.40692138671875)"><path d="M62.99 32.41 C62.99 34.1, 62.86 35.81, 62.6 37.48 C62.34 39.15, 61.95 40.81, 61.45 42.42 C60.94 44.03, 60.3 45.61, 59.56 47.12 C58.81 48.63, 57.94 50.09, 56.97 51.46 C56.01 52.82, 54.92 54.13, 53.76 55.32 C52.6 56.52, 51.33 57.63, 50.01 58.62 C48.68 59.62, 47.26 60.51, 45.79 61.28 C44.33 62.05, 42.79 62.71, 41.23 63.23 C39.66 63.75, 38.04 64.15, 36.42 64.41 C34.8 64.68, 33.14 64.81, 31.49 64.81 C29.85 64.81, 28.19 64.68, 26.57 64.41 C24.95 64.15, 23.32 63.75, 21.76 63.23 C20.2 62.71, 18.66 62.05, 17.2 61.28 C15.73 60.51, 14.31 59.62, 12.98 58.62 C11.65 57.63, 10.39 56.52, 9.22 55.32 C8.06 54.13, 6.98 52.82, 6.01 51.46 C5.05 50.09, 4.18 48.63, 3.43 47.12 C2.69 45.61, 2.05 44.03, 1.54 42.42 C1.03 40.81, 0.64 39.15, 0.39 37.48 C0.13 35.81, 0 34.1, 0 32.41 C0 30.72, 0.13 29.01, 0.39 27.34 C0.64 25.67, 1.03 24, 1.54 22.39 C2.05 20.79, 2.69 19.2, 3.43 17.69 C4.18 16.19, 5.05 14.73, 6.01 13.36 C6.98 11.99, 8.06 10.69, 9.22 9.49 C10.39 8.3, 11.65 7.18, 12.98 6.19 C14.31 5.2, 15.73 4.3, 17.2 3.53 C18.66 2.76, 20.2 2.11, 21.76 1.59 C23.32 1.06, 24.95 0.66, 26.57 0.4 C28.19 0.13, 29.85 0, 31.49 0 C33.14 0, 34.8 0.13, 36.42 0.4 C38.04 0.66, 39.66 1.06, 41.23 1.59 C42.79 2.11, 44.33 2.76, 45.79 3.53 C47.26 4.3, 48.68 5.2, 50.01 6.19 C51.33 7.18, 52.6 8.3, 53.76 9.49 C54.92 10.69, 56.01 11.99, 56.97 13.36 C57.94 14.73, 58.81 16.19, 59.56 17.69 C60.3 19.2, 60.94 20.79, 61.45 22.39 C61.95 24, 62.34 25.67, 62.6 27.34 C62.86 29.01, 62.92 31.56, 62.99 32.41 C63.05 33.25, 63.05 31.56, 62.99 32.41" stroke="#6741d9" stroke-width="2" fill="none"/></g><g stroke-linecap="round"><g transform="translate(201.09423828125 208.09297943115234) rotate(0 56.1416015625 -61.162353515625)"><path d="M0 0 C18.71 -20.39, 93.57 -101.94, 112.28 -122.32 M0 0 C18.71 -20.39, 93.57 -101.94, 112.28 -122.32" stroke="#6741d9" stroke-width="2" fill="none"/></g><g transform="translate(201.09423828125 208.09297943115234) rotate(0 56.1416015625 -61.162353515625)"><path d="M102.7 -99.24 C105.47 -105.92, 108.24 -112.6, 112.28 -122.32 M102.7 -99.24 C105.02 -104.82, 107.34 -110.41, 112.28 -122.32" stroke="#6741d9" stroke-width="2" fill="none"/></g><g transform="translate(201.09423828125 208.09297943115234) rotate(0 56.1416015625 -61.162353515625)"><path d="M90.1 -110.8 C96.52 -114.13, 102.94 -117.47, 112.28 -122.32 M90.1 -110.8 C95.47 -113.59, 100.84 -116.38, 112.28 -122.32" stroke="#6741d9" stroke-width="2" fill="none"/></g></g><mask/><g transform="translate(243.08636474609375 104.02568817138672) rotate(0 7.302978515625 8.215850830078125)" stroke="none"><path fill="#1e1e1e" d="M 0,-0.65 Q 0,-0.65 1.31,-1.12 2.62,-1.59 3.70,-1.61 4.78,-1.62 6.03,-1.63 7.28,-1.64 8.06,-1.65 8.84,-1.66 9.47,-1.90 10.10,-2.13 10.90,-2.49 11.71,-2.84 12.35,-3.26 12.99,-3.69 13.19,-3.75 13.39,-3.80 13.59,-3.81 13.80,-3.82 14.00,-3.78 14.20,-3.73 14.39,-3.64 14.58,-3.55 14.74,-3.42 14.90,-3.29 15.02,-3.12 15.14,-2.96 15.22,-2.77 15.30,-2.58 15.33,-2.37 15.37,-2.17 15.35,-1.96 15.33,-1.76 15.26,-1.56 15.20,-1.37 15.09,-1.19 14.97,-1.02 14.82,-0.88 14.67,-0.74 14.50,-0.63 14.32,-0.53 13.74,0.29 13.17,1.12 12.44,2.12 11.72,3.11 10.64,4.83 9.56,6.55 8.90,8.21 8.24,9.87 7.98,11.72 7.73,13.56 8.06,14.56 8.38,15.55 8.86,15.97 9.33,16.38 9.93,16.17 10.53,15.95 12.00,14.95 13.47,13.94 13.55,13.88 13.64,13.81 13.74,13.78 13.84,13.74 13.94,13.74 14.05,13.74 14.15,13.77 14.25,13.81 14.34,13.87 14.42,13.93 14.48,14.02 14.55,14.11 14.57,14.21 14.60,14.31 14.60,14.42 14.60,14.52 14.56,14.62 14.52,14.72 14.45,14.80 14.38,14.89 14.29,14.94 14.20,15.00 14.10,15.02 14.00,15.05 13.89,15.04 13.79,15.02 13.69,14.98 13.59,14.94 13.51,14.87 13.44,14.79 13.38,14.70 13.33,14.61 13.31,14.50 13.30,14.40 13.31,14.29 13.33,14.19 13.38,14.09 13.43,14.00 13.50,13.93 13.58,13.85 13.67,13.81 13.77,13.76 13.87,13.75 13.98,13.73 14.08,13.76 14.19,13.78 14.28,13.83 14.37,13.88 14.44,13.96 14.51,14.04 14.55,14.14 14.59,14.24 14.60,14.35 14.61,14.45 14.58,14.56 14.55,14.66 14.49,14.75 14.44,14.84 14.44,14.84 14.44,14.84 12.96,17.02 11.49,19.20 9.71,19.30 7.92,19.40 6.49,18.10 5.06,16.79 4.60,14.97 4.14,13.15 4.52,10.84 4.90,8.53 5.72,6.58 6.54,4.64 7.70,2.82 8.87,1.01 9.74,-0.13 10.60,-1.28 11.17,-1.87 11.73,-2.45 12.36,-3.07 12.99,-3.69 13.19,-3.75 13.39,-3.80 13.59,-3.81 13.80,-3.82 14.00,-3.78 14.20,-3.73 14.39,-3.64 14.58,-3.55 14.74,-3.42 14.89,-3.29 15.02,-3.12 15.14,-2.96 15.22,-2.77 15.30,-2.58 15.33,-2.37 15.37,-2.17 15.35,-1.96 15.33,-1.76 15.26,-1.56 15.20,-1.37 15.09,-1.19 14.97,-1.02 14.82,-0.88 14.67,-0.74 14.50,-0.63 14.32,-0.53 13.68,-0.11 13.04,0.29 12.06,0.69 11.08,1.08 9.98,1.37 8.89,1.66 8.08,1.65 7.28,1.64 6.03,1.63 4.78,1.62 3.70,1.61 2.62,1.59 1.31,1.12 0,0.65 -0.07,0.64 -0.15,0.63 -0.23,0.60 -0.30,0.58 -0.37,0.53 -0.43,0.49 -0.48,0.43 -0.54,0.37 -0.57,0.30 -0.61,0.23 -0.63,0.15 -0.65,0.07 -0.65,-0.00 -0.65,-0.07 -0.63,-0.15 -0.61,-0.23 -0.57,-0.30 -0.54,-0.37 -0.48,-0.43 -0.43,-0.49 -0.37,-0.53 -0.30,-0.58 -0.23,-0.60 -0.15,-0.63 -0.07,-0.64 0.00,-0.65 0.00,-0.65 L 0,-0.65 Z"/></g><g transform="translate(233.0447998046875 219.04744720458984) rotate(0 5.93365478515625 5.477203369140625)" stroke="none"><path fill="#1e1e1e" d="M -0.20,0.62 Q -0.20,0.62 -0.97,0.70 -1.74,0.79 -1.26,1.17 -0.78,1.55 0.99,1.87 2.76,2.19 4.10,2.39 5.44,2.59 6.88,2.41 8.33,2.23 9.56,1.89 10.79,1.56 10.99,1.56 11.19,1.56 11.39,1.61 11.58,1.67 11.76,1.76 11.94,1.86 12.09,2.00 12.24,2.13 12.35,2.30 12.47,2.47 12.53,2.66 12.60,2.85 12.62,3.06 12.65,3.26 12.62,3.46 12.59,3.66 12.52,3.85 12.44,4.04 12.32,4.20 12.20,4.37 12.05,4.50 11.90,4.63 11.72,4.72 11.53,4.82 11.34,4.86 11.14,4.91 11.68,4.57 12.22,4.23 10.95,5.17 9.67,6.12 8.82,6.81 7.97,7.50 7.08,8.31 6.19,9.12 5.69,9.51 5.19,9.90 7.35,9.44 9.52,8.99 11.92,8.85 14.31,8.71 14.42,8.71 14.53,8.70 14.63,8.73 14.73,8.76 14.82,8.82 14.91,8.88 14.97,8.96 15.04,9.05 15.07,9.15 15.10,9.25 15.10,9.36 15.10,9.46 15.07,9.56 15.04,9.66 14.97,9.75 14.91,9.83 14.82,9.89 14.73,9.95 14.63,9.98 14.53,10.01 14.42,10.00 14.31,10.00 14.22,9.96 14.12,9.92 14.04,9.85 13.95,9.78 13.90,9.69 13.85,9.60 13.82,9.50 13.80,9.39 13.81,9.29 13.82,9.18 13.87,9.08 13.91,8.99 13.99,8.91 14.06,8.83 14.15,8.78 14.25,8.73 14.35,8.72 14.46,8.70 14.56,8.72 14.67,8.73 14.76,8.78 14.85,8.83 14.93,8.91 15.00,8.99 15.04,9.08 15.09,9.18 15.10,9.29 15.11,9.39 15.09,9.50 15.07,9.60 15.01,9.69 14.96,9.78 14.87,9.85 14.79,9.92 14.70,9.96 14.60,10.00 14.60,10.00 14.60,10.00 12.19,10.92 9.79,11.84 6.84,12.08 3.89,12.32 3.06,10.85 2.23,9.37 3.06,7.99 3.88,6.60 4.86,5.71 5.85,4.82 6.94,3.97 8.03,3.13 8.86,2.92 9.69,2.71 10.24,2.13 10.79,1.56 10.99,1.56 11.19,1.56 11.39,1.61 11.58,1.67 11.76,1.76 11.94,1.86 12.09,2.00 12.24,2.13 12.35,2.30 12.47,2.47 12.53,2.66 12.60,2.85 12.62,3.06 12.65,3.26 12.62,3.46 12.59,3.66 12.52,3.85 12.44,4.04 12.32,4.20 12.20,4.37 12.05,4.50 11.90,4.63 11.72,4.72 11.53,4.82 11.34,4.86 11.14,4.91 9.91,5.24 8.69,5.58 6.83,5.75 4.97,5.92 3.48,5.69 1.99,5.47 -0.41,4.81 -2.83,4.15 -3.69,3.26 -4.54,2.36 -4.71,1.21 -4.87,0.05 -3.85,-0.74 -2.82,-1.55 -2.11,-1.69 -1.40,-1.84 -0.59,-1.23 0.20,-0.62 0.27,-0.58 0.35,-0.55 0.41,-0.50 0.47,-0.45 0.52,-0.39 0.56,-0.32 0.59,-0.25 0.63,-0.18 0.64,-0.10 0.65,-0.02 0.64,0.05 0.64,0.13 0.61,0.20 0.59,0.28 0.55,0.34 0.50,0.41 0.45,0.46 0.39,0.52 0.32,0.56 0.25,0.60 0.18,0.62 0.10,0.64 0.02,0.65 -0.05,0.65 -0.13,0.63 -0.20,0.62 -0.20,0.62 L -0.20,0.62 Z"/></g><g transform="translate(248.5635986328125 236.3919906616211) rotate(0 5.477203369140625 -1.36932373046875)" stroke="none"><path fill="#1e1e1e" d="M -0.20,-0.62 Q -0.20,-0.62 0.44,-1.26 1.08,-1.91 1.74,-2.45 2.39,-2.99 2.88,-3.67 3.36,-4.35 4.25,-4.91 5.13,-5.46 6.30,-5.19 7.47,-4.93 7.99,-4.08 8.52,-3.22 8.85,-2.52 9.18,-1.81 10.03,-0.35 10.88,1.10 10.97,1.15 11.07,1.20 11.14,1.28 11.21,1.36 11.26,1.46 11.30,1.55 11.31,1.66 11.32,1.76 11.30,1.87 11.28,1.97 11.22,2.06 11.17,2.15 11.08,2.22 11.00,2.29 10.90,2.33 10.81,2.37 10.70,2.37 10.59,2.38 10.49,2.35 10.39,2.32 10.30,2.26 10.21,2.20 10.15,2.11 10.09,2.03 10.05,1.93 10.02,1.83 10.02,1.72 10.02,1.61 10.05,1.51 10.09,1.41 10.15,1.33 10.22,1.24 10.31,1.19 10.40,1.13 10.50,1.10 10.60,1.07 10.71,1.08 10.81,1.08 10.91,1.12 11.01,1.16 11.09,1.23 11.17,1.30 11.22,1.39 11.28,1.48 11.30,1.59 11.32,1.69 11.31,1.80 11.30,1.90 11.25,2.00 11.21,2.10 11.14,2.17 11.06,2.25 10.97,2.30 10.87,2.35 10.77,2.36 10.66,2.38 10.56,2.36 10.45,2.35 10.45,2.35 10.45,2.35 8.33,0.94 6.21,-0.46 5.97,-1.44 5.73,-2.42 4.96,-1.51 4.19,-0.60 3.12,0.12 2.06,0.86 1.13,0.74 0.20,0.62 0.13,0.63 0.05,0.65 -0.02,0.65 -0.10,0.64 -0.18,0.62 -0.25,0.60 -0.32,0.56 -0.39,0.52 -0.45,0.46 -0.50,0.41 -0.55,0.34 -0.59,0.28 -0.61,0.20 -0.64,0.13 -0.64,0.05 -0.65,-0.02 -0.64,-0.10 -0.63,-0.18 -0.59,-0.25 -0.56,-0.32 -0.52,-0.39 -0.47,-0.45 -0.41,-0.50 -0.35,-0.55 -0.27,-0.58 -0.20,-0.62 -0.20,-0.62 L -0.20,-0.62 Z"/></g><g transform="translate(258.60516357421875 222.69893646240234) rotate(0 0 -1.36932373046875)" stroke="none"><path fill="#1e1e1e" d="M -0.65,0 Q -0.65,0 -0.65,-0.89 -0.65,-1.78 -0.63,-1.88 -0.62,-1.99 -0.57,-2.08 -0.52,-2.17 -0.44,-2.25 -0.36,-2.32 -0.27,-2.36 -0.17,-2.41 -0.07,-2.42 0.03,-2.43 0.13,-2.41 0.24,-2.39 0.33,-2.33 0.42,-2.28 0.49,-2.19 0.56,-2.11 0.60,-2.02 0.64,-1.92 0.64,-1.81 0.65,-1.70 0.62,-1.60 0.59,-1.50 0.53,-1.41 0.47,-1.32 0.39,-1.26 0.30,-1.20 0.20,-1.16 0.10,-1.13 -0.00,-1.13 -0.10,-1.13 -0.20,-1.16 -0.30,-1.20 -0.39,-1.26 -0.47,-1.32 -0.53,-1.41 -0.59,-1.50 -0.62,-1.60 -0.65,-1.70 -0.64,-1.81 -0.64,-1.92 -0.60,-2.02 -0.56,-2.11 -0.49,-2.20 -0.42,-2.28 -0.33,-2.33 -0.24,-2.39 -0.13,-2.41 -0.03,-2.43 0.07,-2.42 0.17,-2.41 0.27,-2.36 0.36,-2.32 0.44,-2.25 0.52,-2.17 0.57,-2.08 0.62,-1.98 0.63,-1.88 0.65,-1.78 0.65,-1.78 0.65,-1.78 0.65,-0.89 0.65,0 0.64,0.07 0.63,0.15 0.60,0.23 0.58,0.30 0.53,0.37 0.49,0.43 0.43,0.48 0.37,0.54 0.30,0.57 0.23,0.61 0.15,0.63 0.07,0.65 -0.00,0.65 -0.07,0.65 -0.15,0.63 -0.23,0.61 -0.30,0.57 -0.37,0.54 -0.43,0.48 -0.49,0.43 -0.53,0.37 -0.58,0.30 -0.60,0.23 -0.63,0.15 -0.64,0.07 -0.65,-0.00 -0.65,-0.00 L -0.65,0 Z"/></g><g transform="translate(198.355712890625 205.35436248779297) rotate(0 12.780181884765625 5.47723388671875)" stroke="none"><path fill="#6741d9" d="M 0.20,-0.62 Q 0.20,-0.62 1.13,-0.77 2.05,-0.92 2.99,-0.55 3.92,-0.19 4.51,-0.02 5.11,0.14 5.72,0.69 6.32,1.24 6.81,1.57 7.29,1.90 7.90,2.33 8.51,2.75 9.41,3.19 10.30,3.64 11.21,4.08 12.13,4.53 12.71,4.60 13.29,4.66 14.05,5.05 14.80,5.44 15.37,5.49 15.94,5.53 17.19,5.94 18.43,6.34 19.40,6.79 20.37,7.25 20.91,7.70 21.44,8.16 21.90,8.60 22.37,9.04 23.84,10.12 25.32,11.19 25.42,11.21 25.53,11.24 25.62,11.29 25.71,11.35 25.78,11.43 25.85,11.51 25.88,11.61 25.92,11.71 25.93,11.81 25.93,11.92 25.90,12.02 25.88,12.13 25.82,12.21 25.76,12.30 25.67,12.36 25.59,12.43 25.48,12.46 25.38,12.49 25.28,12.49 25.17,12.49 25.07,12.46 24.97,12.42 24.89,12.36 24.80,12.29 24.74,12.21 24.68,12.12 24.66,12.02 24.63,11.91 24.63,11.81 24.64,11.70 24.68,11.60 24.72,11.50 24.79,11.42 24.86,11.34 24.95,11.29 25.04,11.23 25.15,11.21 25.25,11.19 25.36,11.20 25.46,11.21 25.56,11.26 25.65,11.30 25.73,11.38 25.81,11.45 25.86,11.55 25.90,11.64 25.92,11.74 25.94,11.85 25.92,11.95 25.90,12.06 25.85,12.15 25.80,12.25 25.72,12.32 25.65,12.39 25.55,12.44 25.45,12.48 25.35,12.49 25.24,12.50 25.24,12.50 25.24,12.50 23.28,12.31 21.32,12.11 20.71,11.85 20.09,11.58 19.64,11.17 19.19,10.75 18.62,10.22 18.04,9.69 17.38,9.48 16.73,9.28 16.14,9.09 15.56,8.91 14.98,8.83 14.40,8.75 13.57,8.35 12.74,7.94 12.18,7.86 11.62,7.79 10.70,7.32 9.77,6.85 8.86,6.38 7.94,5.90 7.00,5.39 6.05,4.88 5.38,4.53 4.71,4.18 4.35,3.61 3.98,3.03 3.32,2.88 2.66,2.73 1.87,2.35 1.09,1.97 0.44,1.29 -0.20,0.62 -0.27,0.58 -0.35,0.55 -0.41,0.50 -0.47,0.45 -0.52,0.39 -0.56,0.32 -0.59,0.25 -0.63,0.18 -0.64,0.10 -0.65,0.02 -0.64,-0.05 -0.64,-0.13 -0.61,-0.20 -0.59,-0.28 -0.55,-0.34 -0.50,-0.41 -0.45,-0.46 -0.39,-0.52 -0.32,-0.56 -0.25,-0.60 -0.18,-0.62 -0.10,-0.64 -0.02,-0.65 0.05,-0.65 0.13,-0.63 0.20,-0.62 0.20,-0.62 L 0.20,-0.62 Z"/></g><g transform="translate(216.61309814453125 219.04744720458984) rotate(0 4.107940673828125 -5.4772491455078125)" stroke="none"><path fill="#6741d9" d="M 0,-0.65 Q 0,-0.65 0.81,-1.14 1.63,-1.63 2.52,-1.31 3.42,-0.99 4.41,-0.91 5.39,-0.83 5.95,-0.81 6.50,-0.79 6.83,-1.75 7.16,-2.71 6.97,-3.26 6.78,-3.82 6.48,-4.59 6.18,-5.36 5.58,-6.39 4.97,-7.43 4.33,-8.01 3.68,-8.59 2.92,-9.45 2.16,-10.30 2.06,-10.32 1.95,-10.33 1.86,-10.38 1.76,-10.43 1.69,-10.50 1.61,-10.58 1.57,-10.67 1.52,-10.77 1.51,-10.87 1.49,-10.98 1.51,-11.08 1.53,-11.19 1.58,-11.28 1.64,-11.37 1.72,-11.44 1.79,-11.51 1.89,-11.55 1.99,-11.60 2.10,-11.60 2.20,-11.61 2.30,-11.59 2.41,-11.56 2.50,-11.50 2.59,-11.45 2.65,-11.36 2.72,-11.28 2.76,-11.18 2.79,-11.08 2.80,-10.97 2.80,-10.87 2.77,-10.77 2.74,-10.67 2.67,-10.58 2.61,-10.49 2.52,-10.43 2.44,-10.37 2.34,-10.34 2.24,-10.31 2.13,-10.31 2.02,-10.31 1.92,-10.35 1.82,-10.39 1.74,-10.45 1.66,-10.52 1.60,-10.61 1.54,-10.70 1.52,-10.80 1.49,-10.91 1.50,-11.01 1.51,-11.12 1.55,-11.21 1.59,-11.31 1.67,-11.39 1.74,-11.47 1.83,-11.52 1.92,-11.57 2.03,-11.59 2.13,-11.61 2.13,-11.61 2.13,-11.61 4.07,-11.34 6.00,-11.06 6.97,-10.12 7.95,-9.18 8.68,-7.87 9.41,-6.57 9.78,-5.53 10.16,-4.49 10.32,-3.27 10.49,-2.05 10.19,-0.92 9.89,0.19 9.02,1.19 8.16,2.18 7.27,2.37 6.38,2.56 5.78,2.54 5.18,2.52 4.31,2.45 3.45,2.38 2.48,2.00 1.51,1.63 0.75,1.14 0,0.65 -0.07,0.64 -0.15,0.63 -0.23,0.60 -0.30,0.58 -0.37,0.53 -0.43,0.49 -0.48,0.43 -0.54,0.37 -0.57,0.30 -0.61,0.23 -0.63,0.15 -0.65,0.07 -0.65,-0.00 -0.65,-0.07 -0.63,-0.15 -0.61,-0.23 -0.57,-0.30 -0.54,-0.37 -0.48,-0.43 -0.43,-0.49 -0.37,-0.53 -0.30,-0.58 -0.23,-0.60 -0.15,-0.63 -0.07,-0.64 0.00,-0.65 0.00,-0.65 L 0,-0.65 Z"/></g><g transform="translate(180.0982666015625 227.26326751708984) rotate(0 4.107940673828125 -7.3029632568359375)" stroke="none"><path fill="#c2255c" d="M 0.36,0.54 Q 0.36,0.54 -0.29,1.47 -0.96,2.40 -1.15,2.35 -1.35,2.30 -1.52,2.39 -1.69,2.47 -1.88,2.52 -2.07,2.56 -2.26,2.56 -2.46,2.55 -2.64,2.51 -2.83,2.46 -3.00,2.36 -3.17,2.27 -3.31,2.14 -3.46,2.01 -3.56,1.85 -3.67,1.69 -3.74,1.51 -3.80,1.32 -3.82,1.13 -3.84,0.94 -3.82,0.75 -3.79,0.56 -3.72,0.38 -3.65,0.20 -3.53,0.04 -3.42,-0.11 -3.28,-0.23 -3.13,-0.36 -2.30,-1.71 -1.46,-3.07 -0.65,-4.28 0.15,-5.50 1.58,-7.38 3.00,-9.25 4.42,-10.86 5.83,-12.47 6.63,-13.59 7.43,-14.71 8.85,-15.73 10.28,-16.74 10.38,-16.79 10.47,-16.84 10.57,-16.86 10.68,-16.88 10.78,-16.86 10.89,-16.85 10.98,-16.80 11.08,-16.75 11.15,-16.67 11.23,-16.60 11.27,-16.50 11.32,-16.41 11.33,-16.30 11.34,-16.20 11.32,-16.09 11.30,-15.99 11.25,-15.90 11.20,-15.80 11.12,-15.73 11.04,-15.66 10.94,-15.62 10.84,-15.58 10.73,-15.58 10.63,-15.57 10.52,-15.59 10.42,-15.62 10.33,-15.68 10.24,-15.74 10.18,-15.82 10.11,-15.91 10.08,-16.01 10.04,-16.11 10.04,-16.21 10.04,-16.32 10.07,-16.42 10.10,-16.52 10.17,-16.61 10.23,-16.69 10.32,-16.75 10.40,-16.81 10.51,-16.84 10.61,-16.87 10.71,-16.87 10.82,-16.86 10.92,-16.83 11.02,-16.79 11.10,-16.72 11.18,-16.65 11.24,-16.56 11.29,-16.47 11.32,-16.37 11.34,-16.27 11.33,-16.16 11.32,-16.06 11.28,-15.96 11.24,-15.86 11.17,-15.78 11.09,-15.70 11.09,-15.70 11.09,-15.71 10.61,-14.25 10.13,-12.79 9.23,-11.53 8.33,-10.27 6.98,-8.76 5.64,-7.24 4.27,-5.45 2.90,-3.66 2.08,-2.44 1.26,-1.22 0.55,-0.19 -0.14,0.83 -0.74,1.56 -1.35,2.30 -1.52,2.39 -1.69,2.47 -1.88,2.52 -2.07,2.56 -2.26,2.56 -2.46,2.55 -2.64,2.51 -2.83,2.46 -3.00,2.36 -3.17,2.27 -3.31,2.14 -3.46,2.01 -3.56,1.85 -3.67,1.69 -3.74,1.51 -3.80,1.32 -3.82,1.13 -3.84,0.94 -3.82,0.75 -3.79,0.56 -3.72,0.38 -3.65,0.20 -3.53,0.04 -3.42,-0.11 -3.28,-0.23 -3.13,-0.36 -2.66,-0.33 -2.18,-0.30 -1.27,-0.42 -0.36,-0.54 -0.29,-0.58 -0.22,-0.61 -0.14,-0.63 -0.06,-0.65 0.01,-0.65 0.08,-0.65 0.16,-0.63 0.24,-0.61 0.31,-0.57 0.38,-0.53 0.44,-0.48 0.49,-0.42 0.54,-0.36 0.58,-0.29 0.61,-0.22 0.64,-0.14 0.64,-0.06 0.65,0.01 0.64,0.08 0.63,0.16 0.60,0.24 0.57,0.31 0.53,0.37 0.48,0.44 0.42,0.49 0.36,0.54 0.36,0.54 L 0.36,0.54 Z"/></g><g transform="translate(183.749755859375 210.83159637451172) rotate(0 5.93365478515625 1.3693084716796875)" stroke="none"><path fill="#c2255c" d="M -0.46,-0.46 Q -0.46,-0.46 -0.25,-1.32 -0.03,-2.17 1.17,-2.81 2.38,-3.44 3.66,-3.94 4.94,-4.44 6.69,-4.69 8.43,-4.93 9.39,-5.02 10.35,-5.11 11.46,-4.92 12.57,-4.73 13.19,-3.68 13.81,-2.63 13.40,-1.47 13.00,-0.30 12.61,0.70 12.22,1.71 11.05,3.87 9.88,6.04 9.84,6.14 9.80,6.23 9.73,6.31 9.66,6.39 9.57,6.45 9.48,6.50 9.37,6.52 9.27,6.54 9.16,6.53 9.06,6.51 8.96,6.47 8.87,6.42 8.79,6.35 8.71,6.27 8.67,6.18 8.62,6.08 8.60,5.98 8.59,5.87 8.61,5.77 8.62,5.66 8.68,5.57 8.73,5.48 8.81,5.41 8.88,5.33 8.98,5.29 9.08,5.25 9.18,5.24 9.29,5.23 9.39,5.25 9.50,5.28 9.59,5.34 9.68,5.39 9.74,5.47 9.81,5.56 9.85,5.66 9.89,5.76 9.89,5.86 9.89,5.97 9.86,6.07 9.83,6.17 9.77,6.26 9.71,6.34 9.63,6.41 9.54,6.47 9.44,6.50 9.34,6.53 9.23,6.53 9.13,6.53 9.03,6.50 8.93,6.46 8.84,6.39 8.76,6.33 8.70,6.24 8.64,6.15 8.62,6.05 8.59,5.94 8.60,5.84 8.60,5.73 8.60,5.73 8.60,5.73 8.87,3.11 9.14,0.50 9.89,-0.71 10.63,-1.94 9.73,-1.85 8.83,-1.77 7.45,-1.62 6.06,-1.47 4.91,-1.03 3.75,-0.59 2.94,-0.25 2.13,0.07 1.30,0.27 0.46,0.46 0.40,0.51 0.33,0.56 0.26,0.59 0.19,0.62 0.11,0.64 0.03,0.65 -0.03,0.65 -0.11,0.64 -0.19,0.62 -0.26,0.59 -0.33,0.55 -0.40,0.51 -0.46,0.46 -0.51,0.40 -0.55,0.33 -0.59,0.26 -0.62,0.19 -0.64,0.11 -0.65,0.03 -0.65,-0.03 -0.64,-0.11 -0.62,-0.19 -0.59,-0.26 -0.56,-0.33 -0.51,-0.40 -0.46,-0.46 -0.46,-0.46 L -0.46,-0.46 Z"/></g><g transform="translate(196.52996826171875 247.3464584350586) rotate(0 2.28216552734375 -16.88812255859375)" stroke="none"><path fill="#c2255c" d="M -0.64,-0.10 Q -0.64,-0.10 -0.79,-1.75 -0.94,-3.39 -0.87,-4.78 -0.80,-6.18 -0.78,-7.81 -0.76,-9.44 -0.75,-11.45 -0.74,-13.46 -0.48,-16.48 -0.21,-19.51 0.16,-21.87 0.54,-24.24 0.98,-26.06 1.42,-27.89 1.61,-29.09 1.80,-30.29 2.76,-31.79 3.72,-33.30 3.77,-33.39 3.82,-33.49 3.89,-33.56 3.97,-33.64 4.06,-33.68 4.16,-33.73 4.27,-33.74 4.37,-33.76 4.47,-33.74 4.58,-33.71 4.67,-33.66 4.76,-33.61 4.83,-33.53 4.90,-33.45 4.94,-33.35 4.99,-33.25 4.99,-33.15 5.00,-33.04 4.97,-32.94 4.95,-32.84 4.89,-32.75 4.83,-32.66 4.75,-32.59 4.66,-32.53 4.56,-32.49 4.46,-32.45 4.36,-32.45 4.25,-32.45 4.15,-32.48 4.05,-32.52 3.96,-32.58 3.88,-32.64 3.82,-32.73 3.76,-32.81 3.73,-32.92 3.69,-33.02 3.70,-33.12 3.70,-33.23 3.74,-33.33 3.78,-33.43 3.85,-33.51 3.91,-33.59 4.00,-33.65 4.09,-33.71 4.20,-33.73 4.30,-33.76 4.41,-33.75 4.51,-33.74 4.61,-33.69 4.71,-33.65 4.78,-33.58 4.86,-33.51 4.91,-33.41 4.97,-33.32 4.98,-33.22 5.00,-33.11 4.99,-33.01 4.97,-32.90 4.97,-32.90 4.97,-32.90 4.97,-31.37 4.97,-29.83 4.80,-28.48 4.63,-27.12 4.22,-25.41 3.81,-23.70 3.44,-21.45 3.06,-19.20 2.79,-16.31 2.51,-13.42 2.48,-11.39 2.44,-9.35 2.37,-7.64 2.30,-5.94 2.15,-4.42 1.99,-2.90 1.32,-1.39 0.64,0.10 0.62,0.18 0.60,0.25 0.56,0.32 0.52,0.39 0.46,0.45 0.41,0.51 0.34,0.55 0.27,0.59 0.20,0.61 0.12,0.64 0.04,0.64 -0.02,0.65 -0.10,0.64 -0.18,0.62 -0.25,0.59 -0.33,0.56 -0.39,0.51 -0.45,0.47 -0.50,0.41 -0.55,0.34 -0.59,0.27 -0.62,0.20 -0.63,0.12 -0.65,0.05 -0.65,-0.02 -0.64,-0.10 -0.64,-0.10 L -0.64,-0.10 Z"/></g><g transform="translate(192.87847900390625 225.4375228881836) rotate(0 7.302947998046875 -5.020782470703125)" stroke="none"><path fill="#c2255c" d="M -0.64,-0.12 Q -0.64,-0.12 -0.74,-1.51 -0.85,-2.90 -0.49,-4.08 -0.12,-5.26 -0.02,-6.13 0.08,-7.00 0.14,-7.65 0.20,-8.31 1.01,-9.38 1.82,-10.44 2.52,-10.61 3.22,-10.78 4.14,-10.46 5.06,-10.14 6.26,-9.45 7.46,-8.75 8.54,-7.89 9.62,-7.02 10.79,-6.19 11.96,-5.36 13.23,-3.97 14.50,-2.59 14.59,-2.53 14.68,-2.47 14.74,-2.39 14.81,-2.30 14.84,-2.20 14.88,-2.10 14.88,-1.99 14.88,-1.89 14.84,-1.79 14.81,-1.69 14.75,-1.60 14.68,-1.52 14.60,-1.46 14.51,-1.40 14.41,-1.37 14.31,-1.34 14.20,-1.34 14.09,-1.35 13.99,-1.38 13.90,-1.42 13.81,-1.49 13.73,-1.56 13.68,-1.65 13.62,-1.74 13.60,-1.84 13.57,-1.95 13.58,-2.05 13.59,-2.16 13.64,-2.26 13.68,-2.35 13.75,-2.43 13.83,-2.51 13.92,-2.56 14.01,-2.61 14.12,-2.63 14.22,-2.65 14.33,-2.63 14.43,-2.61 14.53,-2.56 14.62,-2.51 14.70,-2.44 14.77,-2.36 14.81,-2.27 14.86,-2.17 14.87,-2.06 14.89,-1.96 14.86,-1.85 14.84,-1.75 14.79,-1.66 14.73,-1.57 14.65,-1.50 14.57,-1.43 14.47,-1.39 14.38,-1.35 14.27,-1.34 14.16,-1.34 14.06,-1.36 13.96,-1.39 13.96,-1.39 13.96,-1.39 11.99,-2.03 10.03,-2.67 8.78,-3.56 7.54,-4.45 6.65,-5.18 5.77,-5.92 4.51,-6.92 3.24,-7.92 3.17,-7.22 3.09,-6.51 2.88,-5.41 2.67,-4.30 2.28,-3.32 1.90,-2.34 1.27,-1.10 0.64,0.12 0.61,0.20 0.59,0.27 0.55,0.34 0.51,0.41 0.45,0.46 0.39,0.52 0.32,0.56 0.25,0.60 0.18,0.62 0.10,0.64 0.02,0.65 -0.05,0.65 -0.12,0.63 -0.20,0.62 -0.27,0.59 -0.34,0.55 -0.41,0.50 -0.47,0.45 -0.51,0.39 -0.56,0.33 -0.59,0.25 -0.63,0.18 -0.64,0.10 -0.65,0.02 -0.64,-0.04 -0.64,-0.12 -0.64,-0.12 L -0.64,-0.12 Z"/></g><g transform="translate(216.61309814453125 227.26326751708984) rotate(0 -5.47723388671875 -9.128707885742188)" stroke="none"><path fill="#c2255c" d="M -0.58,0.29 Q -0.58,0.29 -1.48,-0.57 -2.37,-1.43 -2.89,-2.38 -3.40,-3.34 -4.07,-4.14 -4.74,-4.93 -5.41,-6.26 -6.07,-7.58 -7.05,-9.04 -8.03,-10.50 -8.78,-12.05 -9.53,-13.59 -10.32,-15.57 -11.11,-17.56 -11.19,-17.63 -11.26,-17.71 -11.31,-17.80 -11.35,-17.90 -11.36,-18.01 -11.38,-18.11 -11.36,-18.21 -11.33,-18.32 -11.28,-18.41 -11.23,-18.50 -11.15,-18.57 -11.07,-18.64 -10.97,-18.68 -10.87,-18.72 -10.76,-18.73 -10.66,-18.74 -10.55,-18.71 -10.45,-18.68 -10.36,-18.62 -10.27,-18.56 -10.21,-18.48 -10.14,-18.40 -10.11,-18.30 -10.07,-18.20 -10.07,-18.09 -10.07,-17.98 -10.10,-17.88 -10.14,-17.78 -10.20,-17.70 -10.26,-17.61 -10.35,-17.55 -10.44,-17.49 -10.54,-17.46 -10.64,-17.43 -10.75,-17.44 -10.86,-17.44 -10.95,-17.48 -11.05,-17.52 -11.14,-17.58 -11.22,-17.65 -11.27,-17.74 -11.33,-17.83 -11.35,-17.94 -11.38,-18.04 -11.37,-18.15 -11.36,-18.25 -11.31,-18.35 -11.27,-18.45 -11.20,-18.52 -11.12,-18.60 -11.03,-18.65 -10.94,-18.70 -10.83,-18.72 -10.73,-18.74 -10.62,-18.72 -10.52,-18.71 -10.42,-18.66 -10.33,-18.61 -10.33,-18.61 -10.33,-18.61 -8.49,-16.80 -6.65,-14.99 -6.00,-13.63 -5.34,-12.28 -4.26,-10.63 -3.18,-8.99 -2.69,-7.94 -2.21,-6.89 -1.42,-5.81 -0.63,-4.74 -0.17,-3.75 0.27,-2.76 0.43,-1.52 0.58,-0.29 0.61,-0.21 0.64,-0.14 0.64,-0.06 0.65,0.01 0.64,0.09 0.63,0.16 0.60,0.24 0.57,0.31 0.52,0.38 0.48,0.44 0.42,0.49 0.36,0.54 0.29,0.58 0.22,0.61 0.14,0.63 0.06,0.65 -0.01,0.65 -0.09,0.65 -0.16,0.62 -0.24,0.60 -0.31,0.57 -0.38,0.53 -0.44,0.47 -0.50,0.42 -0.54,0.35 -0.58,0.29 -0.58,0.29 L -0.58,0.29 Z"/></g><g transform="translate(206.571533203125 219.04744720458984) rotate(0 2.73858642578125 -4.1079254150390625)" stroke="none"><path fill="#c2255c" d="M -0.36,0.54 Q -0.36,0.54 -1.42,0.32 -2.49,0.10 -3.07,-0.90 -3.64,-1.92 -3.84,-2.62 -4.04,-3.33 -4.13,-3.93 -4.21,-4.53 -4.18,-5.77 -4.14,-7.02 -3.22,-7.96 -2.31,-8.90 -1.40,-8.97 -0.48,-9.04 0.16,-9.02 0.81,-9.00 2.07,-8.70 3.33,-8.40 5.44,-8.10 7.54,-7.80 7.65,-7.81 7.75,-7.82 7.86,-7.80 7.96,-7.77 8.05,-7.72 8.14,-7.66 8.21,-7.58 8.28,-7.50 8.32,-7.40 8.35,-7.30 8.36,-7.19 8.36,-7.09 8.33,-6.99 8.30,-6.88 8.24,-6.80 8.18,-6.71 8.10,-6.64 8.01,-6.58 7.91,-6.55 7.81,-6.52 7.71,-6.52 7.60,-6.52 7.50,-6.55 7.40,-6.59 7.31,-6.65 7.23,-6.72 7.17,-6.81 7.11,-6.89 7.09,-7.00 7.06,-7.10 7.06,-7.21 7.07,-7.31 7.11,-7.41 7.15,-7.51 7.22,-7.59 7.29,-7.67 7.38,-7.72 7.47,-7.78 7.58,-7.80 7.68,-7.82 7.79,-7.81 7.89,-7.80 7.99,-7.75 8.08,-7.70 8.16,-7.63 8.24,-7.56 8.29,-7.46 8.34,-7.37 8.35,-7.26 8.37,-7.16 8.35,-7.05 8.33,-6.95 8.28,-6.86 8.23,-6.76 8.15,-6.69 8.07,-6.62 7.98,-6.57 7.88,-6.53 7.88,-6.53 7.88,-6.53 5.21,-5.86 2.54,-5.19 1.60,-5.43 0.67,-5.68 -0.21,-5.72 -1.09,-5.76 -1.05,-4.92 -1.01,-4.07 -0.83,-3.14 -0.65,-2.20 -0.14,-1.37 0.36,-0.54 0.42,-0.49 0.48,-0.44 0.53,-0.37 0.57,-0.31 0.60,-0.24 0.63,-0.16 0.64,-0.08 0.65,-0.01 0.64,0.06 0.64,0.14 0.61,0.22 0.58,0.29 0.54,0.36 0.49,0.42 0.44,0.48 0.38,0.53 0.31,0.57 0.24,0.61 0.16,0.63 0.08,0.65 0.01,0.65 -0.06,0.65 -0.14,0.63 -0.22,0.61 -0.29,0.58 -0.36,0.54 -0.36,0.54 L -0.36,0.54 Z"/></g><g transform="translate(172.7952880859375 191.66130828857422) rotate(0 7.759429931640625 5.93365478515625)" stroke="none"><path fill="#c2255c" d="M 0.54,-0.36 Q 0.54,-0.36 1.44,0.14 2.34,0.65 3.42,1.30 4.49,1.95 5.52,2.55 6.55,3.15 7.90,4.28 9.26,5.41 10.24,6.07 11.22,6.72 11.97,7.32 12.72,7.92 14.71,9.56 16.70,11.20 16.76,11.29 16.82,11.38 16.85,11.48 16.88,11.58 16.88,11.69 16.87,11.79 16.83,11.89 16.79,11.99 16.73,12.07 16.66,12.15 16.57,12.21 16.48,12.27 16.37,12.29 16.27,12.31 16.16,12.30 16.06,12.29 15.96,12.25 15.86,12.20 15.79,12.13 15.71,12.06 15.66,11.96 15.61,11.87 15.59,11.76 15.57,11.66 15.59,11.55 15.61,11.45 15.66,11.36 15.71,11.26 15.78,11.19 15.86,11.11 15.95,11.07 16.05,11.02 16.16,11.01 16.26,11.00 16.37,11.02 16.47,11.04 16.56,11.10 16.65,11.15 16.72,11.23 16.79,11.32 16.83,11.41 16.87,11.51 16.88,11.62 16.88,11.72 16.85,11.83 16.83,11.93 16.77,12.02 16.71,12.11 16.62,12.17 16.54,12.23 16.44,12.27 16.34,12.30 16.23,12.30 16.13,12.30 16.03,12.27 15.92,12.24 15.84,12.17 15.75,12.11 15.75,12.11 15.75,12.11 13.98,11.64 12.21,11.17 11.47,10.83 10.73,10.48 10.06,9.95 9.39,9.43 8.27,8.66 7.15,7.90 6.02,6.91 4.90,5.93 3.79,5.28 2.69,4.63 1.22,3.56 -0.24,2.49 -0.39,1.42 -0.54,0.36 -0.58,0.29 -0.61,0.22 -0.63,0.14 -0.65,0.06 -0.65,-0.01 -0.65,-0.08 -0.63,-0.16 -0.61,-0.24 -0.57,-0.31 -0.53,-0.38 -0.48,-0.44 -0.42,-0.49 -0.36,-0.54 -0.29,-0.58 -0.22,-0.61 -0.14,-0.64 -0.06,-0.64 0.01,-0.65 0.08,-0.64 0.16,-0.63 0.24,-0.60 0.31,-0.57 0.37,-0.53 0.44,-0.48 0.49,-0.42 0.54,-0.36 0.54,-0.36 L 0.54,-0.36 Z"/></g><g transform="translate(180.0982666015625 200.79000091552734) rotate(0 5.93365478515625 0.9128875732421875)" stroke="none"><path fill="#c2255c" d="M 0.20,-0.62 Q 0.20,-0.62 1.13,-0.76 2.06,-0.91 2.81,-0.48 3.55,-0.05 4.10,0.00 4.65,0.06 5.97,0.71 7.29,1.36 8.13,1.54 8.96,1.72 9.71,2.14 10.46,2.55 10.01,2.01 9.56,1.48 9.52,-0.35 9.48,-2.20 9.48,-2.30 9.47,-2.41 9.50,-2.51 9.53,-2.61 9.59,-2.70 9.65,-2.79 9.73,-2.86 9.81,-2.92 9.91,-2.95 10.02,-2.99 10.12,-2.99 10.23,-2.99 10.33,-2.96 10.43,-2.92 10.51,-2.86 10.60,-2.80 10.66,-2.71 10.72,-2.62 10.75,-2.52 10.78,-2.42 10.77,-2.31 10.77,-2.20 10.73,-2.10 10.69,-2.01 10.62,-1.92 10.55,-1.84 10.46,-1.79 10.37,-1.73 10.27,-1.71 10.16,-1.69 10.06,-1.70 9.95,-1.71 9.86,-1.75 9.76,-1.80 9.68,-1.87 9.60,-1.94 9.55,-2.04 9.50,-2.13 9.49,-2.23 9.47,-2.34 9.49,-2.44 9.50,-2.55 9.55,-2.64 9.60,-2.74 9.68,-2.81 9.75,-2.88 9.85,-2.93 9.95,-2.97 10.05,-2.99 10.16,-3.00 10.26,-2.98 10.37,-2.95 10.46,-2.90 10.55,-2.84 10.62,-2.76 10.69,-2.68 10.73,-2.58 10.77,-2.49 10.77,-2.49 10.77,-2.49 11.79,-0.85 12.82,0.78 12.95,1.95 13.07,3.13 12.49,4.06 11.91,4.98 10.66,5.23 9.40,5.48 8.78,5.15 8.15,4.83 6.99,4.50 5.82,4.18 4.91,3.64 3.99,3.11 2.98,2.85 1.98,2.59 1.53,2.27 1.08,1.96 0.43,1.29 -0.20,0.62 -0.27,0.58 -0.35,0.55 -0.41,0.50 -0.47,0.45 -0.52,0.39 -0.56,0.32 -0.59,0.25 -0.63,0.18 -0.64,0.10 -0.65,0.02 -0.64,-0.05 -0.64,-0.13 -0.61,-0.20 -0.59,-0.28 -0.55,-0.34 -0.50,-0.41 -0.45,-0.46 -0.39,-0.52 -0.32,-0.56 -0.25,-0.60 -0.18,-0.62 -0.10,-0.64 -0.02,-0.65 0.05,-0.65 0.13,-0.63 0.20,-0.62 0.20,-0.62 L 0.20,-0.62 Z"/></g><g transform="translate(199.2685546875 181.61971282958984) rotate(0 -0.4564208984375 8.215850830078125)" stroke="none"><path fill="#c2255c" d="M 0.63,0.15 Q 0.63,0.15 0.80,1.31 0.98,2.47 0.90,3.84 0.83,5.20 0.78,6.59 0.74,7.99 0.72,9.36 0.70,10.74 0.22,13.27 -0.25,15.80 -0.27,15.91 -0.28,16.01 -0.33,16.10 -0.38,16.20 -0.46,16.27 -0.54,16.34 -0.64,16.39 -0.73,16.43 -0.84,16.44 -0.94,16.45 -1.05,16.43 -1.15,16.41 -1.24,16.35 -1.33,16.30 -1.40,16.22 -1.47,16.14 -1.51,16.04 -1.55,15.94 -1.55,15.83 -1.56,15.73 -1.53,15.62 -1.50,15.52 -1.44,15.43 -1.38,15.35 -1.30,15.28 -1.21,15.22 -1.11,15.18 -1.01,15.15 -0.90,15.15 -0.80,15.15 -0.70,15.19 -0.60,15.22 -0.51,15.28 -0.43,15.35 -0.37,15.44 -0.31,15.53 -0.28,15.63 -0.25,15.73 -0.26,15.84 -0.26,15.94 -0.30,16.04 -0.34,16.14 -0.41,16.22 -0.48,16.30 -0.57,16.36 -0.66,16.41 -0.77,16.43 -0.87,16.45 -0.98,16.44 -1.08,16.43 -1.18,16.39 -1.28,16.34 -1.35,16.27 -1.43,16.19 -1.48,16.10 -1.53,16.01 -1.55,15.90 -1.56,15.80 -1.56,15.80 -1.56,15.80 -2.01,13.25 -2.47,10.69 -2.45,9.29 -2.43,7.88 -2.37,6.42 -2.32,4.97 -2.17,3.35 -2.03,1.72 -1.33,0.78 -0.63,-0.15 -0.60,-0.23 -0.58,-0.30 -0.53,-0.37 -0.49,-0.43 -0.43,-0.48 -0.37,-0.54 -0.30,-0.57 -0.23,-0.61 -0.15,-0.63 -0.07,-0.65 0.00,-0.65 0.08,-0.65 0.15,-0.63 0.23,-0.61 0.30,-0.57 0.37,-0.53 0.43,-0.48 0.49,-0.43 0.53,-0.36 0.58,-0.30 0.61,-0.22 0.63,-0.15 0.64,-0.07 0.65,0.00 0.64,0.08 0.63,0.15 0.63,0.15 L 0.63,0.15 Z"/></g><g transform="translate(193.79132080078125 193.48705291748047) rotate(0 7.302978515625 2.7386016845703125)" stroke="none"><path fill="#c2255c" d="M 0.64,-0.12 Q 0.64,-0.12 1.35,1.08 2.07,2.30 2.40,2.94 2.74,3.59 3.07,4.05 3.40,4.52 4.45,3.47 5.50,2.42 6.47,1.38 7.44,0.34 8.84,-0.46 10.23,-1.26 12.00,-1.31 13.77,-1.35 13.88,-1.37 13.98,-1.38 14.09,-1.36 14.19,-1.33 14.28,-1.28 14.38,-1.23 14.44,-1.15 14.51,-1.07 14.55,-0.97 14.59,-0.87 14.60,-0.76 14.61,-0.66 14.58,-0.55 14.55,-0.45 14.49,-0.36 14.43,-0.28 14.35,-0.21 14.27,-0.15 14.17,-0.11 14.07,-0.08 13.96,-0.08 13.85,-0.07 13.75,-0.11 13.65,-0.14 13.57,-0.20 13.48,-0.27 13.42,-0.36 13.36,-0.44 13.33,-0.55 13.30,-0.65 13.31,-0.75 13.31,-0.86 13.35,-0.96 13.39,-1.06 13.46,-1.14 13.53,-1.22 13.62,-1.28 13.71,-1.33 13.81,-1.36 13.91,-1.38 14.02,-1.37 14.13,-1.36 14.22,-1.31 14.32,-1.27 14.40,-1.20 14.47,-1.12 14.52,-1.03 14.57,-0.94 14.59,-0.83 14.61,-0.73 14.59,-0.62 14.58,-0.52 14.53,-0.42 14.48,-0.33 14.40,-0.26 14.33,-0.18 14.23,-0.14 14.13,-0.09 14.13,-0.09 14.13,-0.09 12.97,0.69 11.81,1.48 10.83,2.06 9.85,2.64 8.94,3.62 8.03,4.59 6.79,5.93 5.56,7.26 4.66,7.53 3.75,7.80 2.97,7.61 2.19,7.42 1.50,6.93 0.82,6.45 0.31,5.69 -0.19,4.93 -0.60,3.94 -1.02,2.94 -0.83,1.53 -0.64,0.12 -0.64,0.04 -0.65,-0.02 -0.64,-0.10 -0.62,-0.18 -0.59,-0.25 -0.56,-0.33 -0.51,-0.39 -0.47,-0.45 -0.41,-0.50 -0.34,-0.55 -0.27,-0.59 -0.20,-0.62 -0.12,-0.63 -0.05,-0.65 0.02,-0.65 0.10,-0.64 0.18,-0.62 0.25,-0.60 0.32,-0.56 0.39,-0.52 0.45,-0.46 0.51,-0.41 0.55,-0.34 0.59,-0.27 0.61,-0.20 0.64,-0.12 0.64,-0.12 L 0.64,-0.12 Z"/></g><g transform="translate(219.35174560546875 197.13854217529297) rotate(0 2.73858642578125 -0.456451416015625)" stroke="none"><path fill="#c2255c" d="M 0.20,0.62 Q 0.20,0.62 -0.35,1.37 -0.91,2.12 -1.65,2.67 -2.39,3.21 -3.07,3.83 -3.75,4.45 -3.93,4.56 -4.11,4.66 -4.32,4.72 -4.52,4.78 -4.73,4.79 -4.94,4.80 -5.15,4.76 -5.36,4.72 -5.55,4.63 -5.74,4.54 -5.91,4.41 -6.07,4.27 -6.20,4.11 -6.33,3.94 -6.41,3.74 -6.50,3.55 -6.53,3.34 -6.57,3.13 -6.55,2.92 -6.53,2.71 -6.47,2.51 -6.40,2.31 -6.29,2.13 -6.18,1.95 -6.03,1.80 -5.87,1.65 -5.18,1.24 -4.48,0.82 -3.46,0.58 -2.45,0.34 -1.11,-0.65 0.22,-1.64 2.03,-2.67 3.84,-3.71 5.12,-4.40 6.41,-5.10 8.07,-4.73 9.73,-4.36 9.80,-4.38 9.87,-4.41 9.95,-4.42 10.03,-4.43 10.11,-4.43 10.19,-4.42 10.26,-4.39 10.34,-4.36 10.40,-4.32 10.47,-4.28 10.52,-4.22 10.58,-4.16 10.61,-4.09 10.65,-4.02 10.67,-3.94 10.69,-3.87 10.69,-3.79 10.69,-3.71 10.68,-3.63 10.66,-3.55 10.62,-3.48 10.59,-3.41 10.53,-3.35 10.48,-3.29 10.42,-3.25 10.35,-3.20 10.50,-3.38 10.66,-3.55 10.60,-3.46 10.55,-3.37 10.47,-3.29 10.39,-3.22 10.30,-3.18 10.20,-3.14 10.09,-3.13 9.99,-3.12 9.88,-3.15 9.78,-3.18 9.69,-3.23 9.60,-3.29 9.53,-3.37 9.47,-3.46 9.43,-3.56 9.40,-3.66 9.39,-3.76 9.39,-3.87 9.42,-3.97 9.45,-4.07 9.52,-4.16 9.58,-4.24 9.66,-4.31 9.75,-4.37 9.85,-4.40 9.95,-4.43 10.06,-4.43 10.17,-4.42 10.27,-4.39 10.37,-4.35 10.45,-4.28 10.53,-4.22 10.59,-4.13 10.64,-4.04 10.67,-3.93 10.70,-3.83 10.69,-3.72 10.68,-3.62 10.64,-3.52 10.59,-3.42 10.52,-3.34 10.45,-3.27 10.36,-3.21 10.27,-3.16 10.16,-3.14 10.06,-3.12 9.95,-3.14 9.85,-3.15 9.75,-3.20 9.66,-3.25 9.58,-3.32 9.51,-3.40 9.46,-3.49 9.41,-3.59 9.40,-3.69 9.38,-3.80 9.56,-4.08 9.73,-4.36 9.80,-4.38 9.87,-4.41 9.95,-4.42 10.03,-4.43 10.11,-4.43 10.19,-4.42 10.26,-4.39 10.34,-4.36 10.40,-4.32 10.47,-4.28 10.52,-4.22 10.58,-4.16 10.61,-4.09 10.65,-4.02 10.67,-3.94 10.69,-3.87 10.69,-3.79 10.69,-3.71 10.68,-3.63 10.66,-3.55 10.62,-3.48 10.59,-3.41 10.53,-3.35 10.48,-3.29 10.42,-3.25 10.35,-3.20 9.22,-2.60 8.09,-1.99 6.84,-1.31 5.59,-0.64 3.90,0.32 2.21,1.28 0.26,2.51 -1.67,3.75 -2.21,3.81 -2.75,3.87 -3.25,4.16 -3.75,4.45 -3.93,4.56 -4.11,4.66 -4.32,4.72 -4.52,4.78 -4.73,4.79 -4.94,4.80 -5.15,4.76 -5.36,4.72 -5.55,4.63 -5.74,4.54 -5.91,4.41 -6.07,4.27 -6.20,4.11 -6.33,3.94 -6.41,3.74 -6.50,3.55 -6.53,3.34 -6.57,3.13 -6.55,2.92 -6.53,2.71 -6.47,2.51 -6.40,2.31 -6.29,2.13 -6.18,1.95 -6.03,1.80 -5.87,1.65 -5.43,1.25 -4.98,0.85 -4.23,0.45 -3.48,0.05 -2.85,-0.51 -2.22,-1.07 -1.21,-0.84 -0.20,-0.62 -0.13,-0.63 -0.05,-0.65 0.02,-0.65 0.10,-0.64 0.18,-0.62 0.25,-0.60 0.32,-0.56 0.39,-0.52 0.45,-0.46 0.50,-0.41 0.55,-0.34 0.59,-0.28 0.61,-0.20 0.64,-0.13 0.64,-0.05 0.65,0.02 0.64,0.10 0.63,0.18 0.59,0.25 0.56,0.32 0.52,0.39 0.47,0.45 0.41,0.50 0.35,0.55 0.27,0.58 0.20,0.62 0.20,0.62 L 0.20,0.62 Z"/></g><g transform="translate(219.35174560546875 196.22566986083984) rotate(0 -4.10797119140625 3.195037841796875)" stroke="none"><path fill="#c2255c" d="M -0.46,0.46 Q -0.46,0.46 -0.99,0.29 -1.51,0.12 -2.07,0.94 -2.63,1.76 -3.32,2.82 -4.01,3.88 -4.89,4.94 -5.77,5.99 -6.75,6.77 -7.74,7.56 -8.11,8.12 -8.49,8.69 -8.66,8.79 -8.83,8.89 -9.02,8.95 -9.20,9.00 -9.40,9.01 -9.60,9.02 -9.79,8.99 -9.98,8.95 -10.16,8.87 -10.34,8.79 -10.49,8.66 -10.65,8.54 -10.77,8.39 -10.89,8.23 -10.97,8.05 -11.05,7.87 -11.08,7.68 -11.11,7.48 -11.10,7.29 -11.09,7.09 -11.03,6.91 -10.97,6.72 -10.87,6.55 -10.76,6.38 -10.62,6.25 -10.48,6.11 -9.21,6.28 -7.94,6.45 -7.32,6.44 -6.69,6.42 -5.31,6.46 -3.92,6.49 -1.36,7.02 1.19,7.55 1.30,7.57 1.40,7.59 1.49,7.64 1.59,7.69 1.66,7.76 1.73,7.84 1.78,7.94 1.82,8.04 1.83,8.14 1.84,8.25 1.82,8.35 1.79,8.45 1.74,8.54 1.68,8.63 1.60,8.70 1.52,8.77 1.42,8.81 1.32,8.85 1.22,8.85 1.11,8.86 1.01,8.83 0.91,8.80 0.82,8.74 0.73,8.68 0.67,8.59 0.60,8.51 0.57,8.41 0.54,8.31 0.54,8.20 0.54,8.09 0.57,7.99 0.61,7.89 0.67,7.81 0.74,7.73 0.83,7.67 0.92,7.61 1.02,7.58 1.12,7.55 1.23,7.56 1.33,7.57 1.43,7.61 1.53,7.65 1.61,7.72 1.69,7.78 1.74,7.88 1.80,7.97 1.82,8.07 1.84,8.18 1.83,8.28 1.82,8.39 1.77,8.48 1.73,8.58 1.65,8.66 1.58,8.73 1.49,8.78 1.39,8.83 1.29,8.85 1.18,8.86 1.18,8.86 1.18,8.86 -1.41,9.33 -4.01,9.80 -5.53,9.75 -7.04,9.71 -8.30,9.49 -9.56,9.28 -9.03,8.99 -8.49,8.69 -8.66,8.79 -8.83,8.89 -9.02,8.95 -9.20,9.00 -9.40,9.01 -9.60,9.02 -9.79,8.99 -9.98,8.95 -10.16,8.87 -10.34,8.79 -10.49,8.66 -10.65,8.54 -10.77,8.39 -10.89,8.23 -10.97,8.05 -11.05,7.87 -11.08,7.68 -11.11,7.48 -11.10,7.29 -11.09,7.09 -11.03,6.91 -10.97,6.72 -10.87,6.55 -10.76,6.38 -10.62,6.25 -10.48,6.11 -10.11,5.57 -9.75,5.04 -8.98,4.47 -8.21,3.90 -7.43,3.00 -6.66,2.10 -5.93,1.05 -5.20,-0.00 -4.55,-0.82 -3.90,-1.64 -2.82,-2.02 -1.74,-2.41 -1.16,-2.31 -0.57,-2.22 -0.05,-1.34 0.46,-0.46 0.51,-0.40 0.56,-0.33 0.59,-0.26 0.62,-0.19 0.64,-0.11 0.65,-0.03 0.65,0.03 0.64,0.11 0.62,0.19 0.59,0.26 0.55,0.33 0.51,0.40 0.46,0.46 0.40,0.51 0.33,0.55 0.26,0.59 0.19,0.62 0.11,0.64 0.03,0.65 -0.03,0.65 -0.11,0.64 -0.19,0.62 -0.26,0.59 -0.33,0.56 -0.40,0.51 -0.46,0.46 -0.46,0.46 L -0.46,0.46 Z"/></g><g transform="translate(124.41314697265625 198.0514144897461) rotate(0 -1.369293212890625 9.128692626953125)" stroke="none"><path fill="#1e1e1e" d="M 0.54,0.36 Q 0.54,0.36 0.42,1.39 0.30,2.42 0.20,3.27 0.09,4.13 0.01,5.30 -0.06,6.46 -0.10,7.75 -0.14,9.04 -0.43,10.77 -0.72,12.49 -1.38,15.11 -2.05,17.73 -2.07,17.84 -2.09,17.94 -2.15,18.03 -2.20,18.12 -2.28,18.19 -2.36,18.26 -2.46,18.30 -2.56,18.34 -2.67,18.34 -2.77,18.35 -2.88,18.32 -2.98,18.29 -3.07,18.23 -3.15,18.17 -3.22,18.09 -3.28,18.00 -3.32,17.90 -3.35,17.80 -3.35,17.69 -3.35,17.59 -3.32,17.49 -3.28,17.39 -3.22,17.30 -3.15,17.22 -3.06,17.16 -2.98,17.10 -2.87,17.07 -2.77,17.04 -2.66,17.05 -2.56,17.05 -2.46,17.09 -2.36,17.13 -2.28,17.20 -2.20,17.27 -2.15,17.36 -2.09,17.45 -2.07,17.56 -2.05,17.66 -2.06,17.77 -2.07,17.87 -2.11,17.97 -2.16,18.06 -2.23,18.14 -2.31,18.22 -2.40,18.27 -2.49,18.32 -2.60,18.33 -2.70,18.35 -2.81,18.33 -2.91,18.32 -3.01,18.27 -3.10,18.22 -3.17,18.14 -3.25,18.06 -3.29,17.96 -3.34,17.87 -3.35,17.76 -3.36,17.66 -3.36,17.66 -3.36,17.66 -3.64,14.80 -3.92,11.94 -3.65,10.44 -3.39,8.94 -3.34,7.58 -3.30,6.22 -3.19,4.86 -3.08,3.50 -2.74,2.11 -2.40,0.72 -1.47,0.18 -0.54,-0.36 -0.49,-0.42 -0.44,-0.48 -0.37,-0.53 -0.31,-0.57 -0.24,-0.60 -0.16,-0.63 -0.08,-0.64 -0.01,-0.65 0.06,-0.64 0.14,-0.64 0.22,-0.61 0.29,-0.58 0.36,-0.54 0.42,-0.49 0.48,-0.44 0.53,-0.38 0.57,-0.31 0.61,-0.24 0.63,-0.16 0.65,-0.08 0.65,-0.01 0.65,0.06 0.63,0.14 0.61,0.22 0.58,0.29 0.54,0.36 0.54,0.36 L 0.54,0.36 Z"/></g><g transform="translate(133.5418701171875 203.52861785888672) rotate(0 -0.000030517578125 4.107940673828125)" stroke="none"><path fill="#1e1e1e" d="M 0.29,0.58 Q 0.29,0.58 -0.52,1.54 -1.33,2.50 -2.35,3.62 -3.37,4.74 -4.36,5.99 -5.34,7.24 -5.66,8.36 -5.98,9.47 -6.43,10.81 -6.88,12.14 -6.38,12.68 -5.89,13.22 -4.96,13.11 -4.02,13.00 -2.75,12.07 -1.48,11.13 0.12,9.49 1.73,7.84 2.88,5.94 4.03,4.03 4.76,1.51 5.48,-0.99 5.53,-2.48 5.57,-3.96 5.53,-4.52 5.49,-5.07 4.92,-5.13 4.36,-5.20 3.31,-5.06 2.25,-4.91 1.42,-4.44 0.58,-3.96 -0.20,-3.10 -0.99,-2.24 -1.26,-1.50 -1.54,-0.76 -1.98,0.12 -2.42,1.00 -1.11,1.36 0.19,1.72 1.57,1.55 2.95,1.39 5.62,0.98 8.29,0.56 8.40,0.54 8.50,0.51 8.61,0.51 8.71,0.52 8.81,0.56 8.91,0.60 8.99,0.67 9.07,0.74 9.12,0.83 9.18,0.92 9.20,1.03 9.22,1.13 9.21,1.24 9.20,1.34 9.15,1.44 9.11,1.53 9.04,1.61 8.96,1.69 8.87,1.74 8.77,1.78 8.67,1.80 8.56,1.82 8.46,1.80 8.35,1.78 8.26,1.73 8.17,1.68 8.09,1.60 8.02,1.53 7.98,1.43 7.93,1.33 7.92,1.23 7.91,1.12 7.94,1.02 7.96,0.91 8.01,0.82 8.07,0.73 8.15,0.67 8.23,0.60 8.33,0.56 8.43,0.52 8.54,0.51 8.64,0.51 8.74,0.54 8.85,0.57 8.93,0.63 9.02,0.69 9.09,0.77 9.15,0.86 9.18,0.96 9.22,1.06 9.22,1.17 9.21,1.27 9.18,1.37 9.15,1.47 9.08,1.56 9.02,1.64 8.93,1.70 8.84,1.76 8.84,1.76 8.84,1.76 6.06,3.16 3.28,4.57 1.47,4.73 -0.34,4.89 -1.98,4.48 -3.62,4.07 -4.44,3.12 -5.25,2.16 -5.32,1.02 -5.38,-0.11 -4.94,-1.09 -4.49,-2.07 -3.91,-3.26 -3.33,-4.44 -2.11,-5.63 -0.89,-6.82 0.53,-7.47 1.96,-8.11 3.75,-8.14 5.55,-8.17 6.75,-7.41 7.96,-6.64 8.38,-5.24 8.79,-3.85 8.68,-1.98 8.57,-0.10 7.69,2.79 6.81,5.70 5.43,7.91 4.05,10.13 2.16,12.00 0.27,13.87 -1.73,15.03 -3.75,16.19 -5.61,16.08 -7.47,15.97 -8.61,14.93 -9.75,13.89 -9.89,12.55 -10.03,11.21 -9.58,9.82 -9.13,8.43 -8.55,6.84 -7.98,5.25 -6.87,3.84 -5.75,2.44 -4.31,1.01 -2.86,-0.40 -1.57,-0.49 -0.29,-0.58 -0.21,-0.61 -0.14,-0.64 -0.06,-0.64 0.01,-0.65 0.09,-0.64 0.16,-0.63 0.24,-0.60 0.31,-0.57 0.38,-0.52 0.44,-0.48 0.49,-0.42 0.54,-0.36 0.58,-0.29 0.61,-0.22 0.63,-0.14 0.65,-0.06 0.65,0.01 0.65,0.09 0.62,0.16 0.60,0.24 0.57,0.31 0.53,0.38 0.47,0.44 0.42,0.50 0.35,0.54 0.29,0.58 0.29,0.58 L 0.29,0.58 Z"/></g><g transform="translate(146.322021484375 198.0514144897461) rotate(0 0.91290283203125 10.04156494140625)" stroke="none"><path fill="#1e1e1e" d="M 0.58,-0.29 Q 0.58,-0.29 1.50,0.55 2.41,1.41 2.85,2.02 3.29,2.64 3.80,3.51 4.31,4.39 4.97,5.15 5.63,5.90 6.29,6.95 6.95,7.99 7.04,9.32 7.13,10.65 6.25,12.43 5.37,14.20 4.44,15.44 3.51,16.68 2.23,17.80 0.94,18.91 -1.25,19.57 -3.44,20.22 -3.54,20.26 -3.65,20.29 -3.75,20.29 -3.86,20.29 -3.96,20.26 -4.06,20.23 -4.14,20.16 -4.23,20.10 -4.29,20.01 -4.35,19.92 -4.38,19.82 -4.41,19.72 -4.40,19.61 -4.40,19.51 -4.36,19.41 -4.32,19.31 -4.25,19.23 -4.19,19.15 -4.09,19.09 -4.00,19.04 -3.90,19.01 -3.80,18.99 -3.69,19.00 -3.59,19.01 -3.49,19.05 -3.39,19.10 -3.31,19.17 -3.24,19.24 -3.19,19.34 -3.14,19.43 -3.12,19.53 -3.10,19.64 -3.12,19.74 -3.13,19.85 -3.18,19.94 -3.23,20.04 -3.31,20.11 -3.38,20.18 -3.48,20.23 -3.58,20.28 -3.68,20.29 -3.79,20.30 -3.89,20.28 -3.99,20.26 -4.09,20.20 -4.18,20.15 -4.25,20.07 -4.32,19.99 -4.36,19.89 -4.40,19.79 -4.40,19.68 -4.41,19.58 -4.38,19.48 -4.35,19.37 -4.30,19.28 -4.24,19.20 -4.15,19.13 -4.07,19.07 -4.07,19.07 -4.07,19.07 -2.63,17.75 -1.18,16.44 -0.16,15.54 0.86,14.65 1.66,13.61 2.45,12.58 3.29,11.00 4.13,9.43 3.65,8.68 3.18,7.93 2.39,6.93 1.60,5.94 1.17,5.16 0.74,4.39 0.21,3.58 -0.31,2.78 -0.45,1.53 -0.58,0.29 -0.61,0.21 -0.64,0.14 -0.64,0.06 -0.65,-0.01 -0.64,-0.09 -0.63,-0.16 -0.60,-0.24 -0.57,-0.31 -0.52,-0.38 -0.48,-0.44 -0.42,-0.49 -0.36,-0.54 -0.29,-0.58 -0.22,-0.61 -0.14,-0.63 -0.06,-0.65 0.01,-0.65 0.09,-0.65 0.16,-0.62 0.24,-0.60 0.31,-0.57 0.38,-0.53 0.44,-0.47 0.50,-0.42 0.54,-0.35 0.58,-0.29 0.58,-0.29 L 0.58,-0.29 Z"/></g><g transform="translate(359.02093505859375 308.50875091552734) rotate(0 -9.585113525390625 14.1495361328125)" stroke="none"><path fill="#1e1e1e" d="M 0,0.65 Q 0,0.65 -0.35,1.04 -0.70,1.43 -1.57,2.58 -2.44,3.73 -4.08,5.14 -5.72,6.55 -7.11,8.10 -8.49,9.65 -9.86,11.36 -11.24,13.07 -12.91,14.91 -14.58,16.75 -15.81,18.04 -17.04,19.34 -17.46,20.02 -17.88,20.70 -17.63,21.36 -17.38,22.02 -16.13,22.81 -14.89,23.60 -13.59,24.23 -12.29,24.85 -10.98,25.42 -9.66,25.98 -7.53,27.13 -5.40,28.27 -5.30,28.31 -5.21,28.36 -5.13,28.43 -5.06,28.51 -5.01,28.60 -4.96,28.70 -4.95,28.80 -4.93,28.91 -4.95,29.01 -4.97,29.12 -5.02,29.21 -5.08,29.30 -5.15,29.38 -5.23,29.45 -5.33,29.49 -5.43,29.53 -5.53,29.54 -5.64,29.55 -5.74,29.52 -5.85,29.50 -5.94,29.44 -6.03,29.38 -6.09,29.30 -6.16,29.22 -6.20,29.12 -6.23,29.02 -6.24,28.91 -6.24,28.81 -6.21,28.71 -6.18,28.60 -6.12,28.52 -6.05,28.43 -5.97,28.37 -5.88,28.31 -5.78,28.28 -5.68,28.24 -5.57,28.25 -5.47,28.25 -5.37,28.29 -5.27,28.32 -5.18,28.39 -5.10,28.45 -5.04,28.54 -4.99,28.63 -4.96,28.74 -4.93,28.84 -4.94,28.95 -4.95,29.05 -4.99,29.15 -5.03,29.25 -5.11,29.33 -5.18,29.40 -5.27,29.46 -5.36,29.51 -5.46,29.53 -5.57,29.55 -5.67,29.54 -5.78,29.52 -5.78,29.52 -5.78,29.52 -8.32,29.25 -10.85,28.97 -12.31,28.43 -13.77,27.89 -15.28,27.14 -16.79,26.40 -18.45,25.20 -20.11,24.01 -20.56,23.30 -21.02,22.59 -21.18,21.62 -21.35,20.66 -21.04,19.77 -20.73,18.89 -20.11,17.95 -19.49,17.02 -18.27,15.74 -17.05,14.47 -15.42,12.73 -13.80,10.99 -12.35,9.23 -10.91,7.46 -9.37,5.77 -7.82,4.07 -6.28,2.79 -4.74,1.50 -3.06,0.03 -1.39,-1.43 -0.69,-1.04 0,-0.65 0.07,-0.64 0.15,-0.63 0.23,-0.60 0.30,-0.58 0.37,-0.53 0.43,-0.49 0.48,-0.43 0.54,-0.37 0.57,-0.30 0.61,-0.23 0.63,-0.15 0.65,-0.07 0.65,0.00 0.65,0.07 0.63,0.15 0.61,0.23 0.57,0.30 0.54,0.37 0.48,0.43 0.43,0.49 0.37,0.53 0.30,0.58 0.23,0.60 0.15,0.63 0.07,0.64 -0.00,0.65 -0.00,0.65 L 0,0.65 Z"/></g><g transform="translate(371.8011474609375 317.6374740600586) rotate(0 0 5.47723388671875)" stroke="none"><path fill="#1e1e1e" d="M 0.54,0.36 Q 0.54,0.36 -0.22,2.12 -0.98,3.88 -1.61,5.49 -2.24,7.11 -2.76,8.84 -3.27,10.57 -3.46,12.26 -3.65,13.95 -3.74,15.42 -3.83,16.90 -3.48,17.69 -3.13,18.48 -1.69,17.86 -0.26,17.24 0.90,15.51 2.07,13.79 2.81,11.11 3.55,8.42 4.16,5.16 4.76,1.90 4.75,-0.41 4.73,-2.72 4.26,-4.30 3.79,-5.87 3.17,-6.53 2.55,-7.18 1.27,-6.94 -0.01,-6.70 -1.19,-5.99 -2.37,-5.28 -3.28,-3.86 -4.20,-2.44 -4.59,-1.02 -4.98,0.39 -4.53,1.39 -4.08,2.39 -3.17,2.70 -2.27,3.01 -1.07,2.73 0.11,2.45 2.94,1.66 5.78,0.87 5.88,0.84 5.98,0.82 6.09,0.82 6.20,0.83 6.29,0.87 6.39,0.91 6.47,0.98 6.55,1.05 6.61,1.14 6.66,1.23 6.68,1.34 6.70,1.44 6.69,1.55 6.68,1.65 6.63,1.75 6.59,1.84 6.51,1.92 6.44,2.00 6.34,2.04 6.25,2.09 6.14,2.11 6.04,2.13 5.93,2.11 5.83,2.09 5.74,2.04 5.64,1.99 5.57,1.91 5.50,1.83 5.45,1.73 5.41,1.64 5.40,1.53 5.39,1.43 5.42,1.32 5.44,1.22 5.50,1.13 5.55,1.04 5.63,0.97 5.71,0.90 5.81,0.86 5.91,0.83 6.02,0.82 6.13,0.82 6.23,0.85 6.33,0.88 6.42,0.94 6.50,1.00 6.57,1.08 6.63,1.17 6.66,1.27 6.70,1.37 6.69,1.48 6.69,1.58 6.66,1.68 6.62,1.78 6.56,1.87 6.49,1.95 6.40,2.01 6.31,2.07 6.31,2.07 6.31,2.07 3.47,3.82 0.63,5.58 -1.37,5.79 -3.38,6.01 -5.06,5.01 -6.74,4.02 -7.44,1.95 -8.14,-0.10 -7.54,-2.20 -6.93,-4.29 -5.49,-6.19 -4.06,-8.09 -2.18,-9.03 -0.31,-9.97 1.88,-9.89 4.07,-9.81 5.47,-8.38 6.87,-6.94 7.45,-4.85 8.02,-2.75 8.00,-0.12 7.98,2.49 7.32,5.91 6.66,9.33 5.68,12.49 4.70,15.64 3.04,17.78 1.38,19.91 -0.51,20.75 -2.42,21.59 -4.00,20.80 -5.59,20.00 -6.20,18.42 -6.81,16.83 -6.70,15.20 -6.59,13.56 -6.30,11.64 -6.00,9.72 -5.39,7.89 -4.78,6.06 -3.99,4.23 -3.21,2.41 -1.87,1.02 -0.54,-0.36 -0.49,-0.42 -0.44,-0.48 -0.37,-0.53 -0.31,-0.57 -0.24,-0.60 -0.16,-0.63 -0.08,-0.64 -0.01,-0.65 0.06,-0.64 0.14,-0.64 0.22,-0.61 0.29,-0.58 0.36,-0.54 0.42,-0.49 0.48,-0.44 0.53,-0.38 0.57,-0.31 0.61,-0.24 0.63,-0.16 0.65,-0.08 0.65,-0.01 0.65,0.06 0.63,0.14 0.61,0.22 0.58,0.29 0.54,0.36 0.54,0.36 L 0.54,0.36 Z"/></g><g transform="translate(393.7100830078125 303.03157806396484) rotate(0 -1.36932373046875 14.605926513671875)" stroke="none"><path fill="#1e1e1e" d="M 0.58,0.29 Q 0.58,0.29 0.50,1.55 0.42,2.81 0.01,5.40 -0.39,7.99 -0.62,13.01 -0.85,18.04 -1.44,22.62 -2.02,27.20 -2.04,27.30 -2.06,27.40 -2.11,27.50 -2.17,27.59 -2.25,27.66 -2.32,27.73 -2.42,27.77 -2.52,27.81 -2.63,27.82 -2.73,27.83 -2.84,27.81 -2.94,27.78 -3.03,27.72 -3.12,27.67 -3.18,27.58 -3.25,27.50 -3.29,27.40 -3.32,27.30 -3.33,27.19 -3.33,27.09 -3.30,26.99 -3.27,26.89 -3.20,26.80 -3.14,26.71 -3.06,26.65 -2.97,26.59 -2.87,26.56 -2.77,26.53 -2.66,26.53 -2.55,26.53 -2.45,26.57 -2.36,26.61 -2.27,26.67 -2.19,26.74 -2.13,26.83 -2.08,26.92 -2.05,27.02 -2.02,27.12 -2.03,27.23 -2.04,27.34 -2.08,27.43 -2.13,27.53 -2.20,27.61 -2.27,27.69 -2.36,27.74 -2.45,27.79 -2.56,27.81 -2.66,27.83 -2.77,27.82 -2.87,27.81 -2.97,27.76 -3.06,27.71 -3.14,27.64 -3.21,27.56 -3.26,27.47 -3.31,27.37 -3.32,27.26 -3.33,27.16 -3.33,27.16 -3.33,27.16 -3.67,22.53 -4.01,17.91 -3.83,12.67 -3.65,7.43 -3.08,4.40 -2.52,1.38 -1.55,0.54 -0.58,-0.29 -0.54,-0.35 -0.49,-0.42 -0.44,-0.47 -0.38,-0.53 -0.31,-0.57 -0.24,-0.60 -0.16,-0.62 -0.09,-0.65 -0.01,-0.65 0.06,-0.65 0.14,-0.63 0.22,-0.61 0.29,-0.58 0.36,-0.54 0.42,-0.49 0.48,-0.44 0.52,-0.38 0.57,-0.31 0.60,-0.24 0.63,-0.16 0.64,-0.09 0.65,-0.01 0.64,0.06 0.64,0.14 0.61,0.21 0.58,0.29 0.58,0.29 L 0.58,0.29 Z"/></g></svg>