<svg version="1.1" xmlns="http://www.w3.org/2000/svg" viewBox="0 0 247.30487060546875 353.6916961669922" width="247.30487060546875" height="353.6916961669922" filter="invert(93%) hue-rotate(180deg)" class="excalidraw-svg">
  <!-- svg-source:excalidraw -->
  
  <defs>
    <style class="style-fonts">
      @font-face {
        font-family: "Virgil";
        src: url("https://excalidraw.com/Virgil.woff2");
      }
      @font-face {
        font-family: "Cascadia";
        src: url("https://excalidraw.com/Cascadia.woff2");
      }
      @font-face {
        font-family: "Assistant";
        src: url("https://excalidraw.com/Assistant-Regular.woff2");
      }
    </style>
    
  </defs>
  <rect x="0" y="0" width="247.30487060546875" height="353.6916961669922" fill="#ffffff"/><g stroke-linecap="round" transform="translate(10 221.3669891357422) rotate(0 97.67718505859375 14.149490356445312)"><path d="M195.35 14.15 C195.35 14.68, 195.15 15.21, 194.74 15.73 C194.33 16.26, 193.72 16.78, 192.91 17.3 C192.09 17.81, 191.08 18.32, 189.87 18.82 C188.67 19.32, 187.26 19.81, 185.68 20.29 C184.1 20.76, 182.32 21.23, 180.38 21.68 C178.44 22.12, 176.32 22.56, 174.04 22.97 C171.77 23.38, 169.32 23.78, 166.75 24.15 C164.17 24.53, 161.43 24.88, 158.58 25.21 C155.73 25.54, 152.73 25.85, 149.64 26.13 C146.56 26.41, 143.34 26.67, 140.06 26.9 C136.77 27.13, 133.38 27.33, 129.94 27.5 C126.5 27.68, 122.97 27.83, 119.41 27.94 C115.86 28.06, 112.24 28.15, 108.61 28.21 C104.99 28.27, 101.32 28.3, 97.68 28.3 C94.03 28.3, 90.36 28.27, 86.74 28.21 C83.12 28.15, 79.5 28.06, 75.94 27.94 C72.39 27.83, 68.86 27.68, 65.42 27.5 C61.98 27.33, 58.58 27.13, 55.3 26.9 C52.01 26.67, 48.8 26.41, 45.71 26.13 C42.62 25.85, 39.63 25.54, 36.78 25.21 C33.93 24.88, 31.19 24.53, 28.61 24.15 C26.03 23.78, 23.58 23.38, 21.31 22.97 C19.04 22.56, 16.91 22.12, 14.97 21.68 C13.03 21.23, 11.25 20.76, 9.67 20.29 C8.09 19.81, 6.69 19.32, 5.48 18.82 C4.28 18.32, 3.26 17.81, 2.45 17.3 C1.64 16.78, 1.02 16.26, 0.61 15.73 C0.21 15.21, 0 14.68, 0 14.15 C0 13.62, 0.21 13.09, 0.61 12.57 C1.02 12.04, 1.64 11.52, 2.45 11 C3.26 10.49, 4.28 9.97, 5.48 9.48 C6.69 8.98, 8.09 8.49, 9.67 8.01 C11.25 7.53, 13.03 7.07, 14.97 6.62 C16.91 6.17, 19.04 5.74, 21.31 5.33 C23.58 4.91, 26.03 4.52, 28.61 4.14 C31.19 3.77, 33.93 3.42, 36.78 3.09 C39.63 2.76, 42.62 2.45, 45.71 2.17 C48.8 1.89, 52.01 1.63, 55.3 1.4 C58.58 1.17, 61.98 0.97, 65.42 0.79 C68.86 0.62, 72.39 0.47, 75.94 0.35 C79.5 0.24, 83.12 0.15, 86.74 0.09 C90.36 0.03, 94.03 0, 97.68 0 C101.32 0, 104.99 0.03, 108.61 0.09 C112.24 0.15, 115.86 0.24, 119.41 0.35 C122.97 0.47, 126.5 0.62, 129.94 0.79 C133.38 0.97, 136.77 1.17, 140.06 1.4 C143.34 1.63, 146.56 1.89, 149.64 2.17 C152.73 2.45, 155.73 2.76, 158.58 3.09 C161.43 3.42, 164.17 3.77, 166.75 4.14 C169.32 4.52, 171.77 4.91, 174.04 5.33 C176.32 5.74, 178.44 6.17, 180.38 6.62 C182.32 7.07, 184.1 7.53, 185.68 8.01 C187.26 8.49, 188.67 8.98, 189.87 9.48 C191.08 9.97, 192.09 10.49, 192.91 11 C193.72 11.52, 194.33 12.04, 194.74 12.57 C195.15 13.09, 195.25 13.89, 195.35 14.15 C195.46 14.41, 195.46 13.89, 195.35 14.15" stroke="#6741d9" stroke-width="2" fill="none"/></g><g stroke-linecap="round" transform="translate(12.5804443359375 10) rotate(0 97.67718505859375 14.149490356445312)"><path d="M195.35 14.15 C195.35 14.68, 195.15 15.21, 194.74 15.73 C194.33 16.26, 193.72 16.78, 192.91 17.3 C192.09 17.81, 191.08 18.32, 189.87 18.82 C188.67 19.32, 187.26 19.81, 185.68 20.29 C184.1 20.76, 182.32 21.23, 180.38 21.68 C178.44 22.12, 176.32 22.56, 174.04 22.97 C171.77 23.38, 169.32 23.78, 166.75 24.15 C164.17 24.53, 161.43 24.88, 158.58 25.21 C155.73 25.54, 152.73 25.85, 149.64 26.13 C146.56 26.41, 143.34 26.67, 140.06 26.9 C136.77 27.13, 133.38 27.33, 129.94 27.5 C126.5 27.68, 122.97 27.83, 119.41 27.94 C115.86 28.06, 112.24 28.15, 108.61 28.21 C104.99 28.27, 101.32 28.3, 97.68 28.3 C94.03 28.3, 90.36 28.27, 86.74 28.21 C83.12 28.15, 79.5 28.06, 75.94 27.94 C72.39 27.83, 68.86 27.68, 65.42 27.5 C61.98 27.33, 58.58 27.13, 55.3 26.9 C52.01 26.67, 48.8 26.41, 45.71 26.13 C42.62 25.85, 39.63 25.54, 36.78 25.21 C33.93 24.88, 31.19 24.53, 28.61 24.15 C26.03 23.78, 23.58 23.38, 21.31 22.97 C19.04 22.56, 16.91 22.12, 14.97 21.68 C13.03 21.23, 11.25 20.76, 9.67 20.29 C8.09 19.81, 6.69 19.32, 5.48 18.82 C4.28 18.32, 3.26 17.81, 2.45 17.3 C1.64 16.78, 1.02 16.26, 0.61 15.73 C0.21 15.21, 0 14.68, 0 14.15 C0 13.62, 0.21 13.09, 0.61 12.57 C1.02 12.04, 1.64 11.52, 2.45 11 C3.26 10.49, 4.28 9.97, 5.48 9.48 C6.69 8.98, 8.09 8.49, 9.67 8.01 C11.25 7.53, 13.03 7.07, 14.97 6.62 C16.91 6.17, 19.04 5.74, 21.31 5.33 C23.58 4.91, 26.03 4.52, 28.61 4.14 C31.19 3.77, 33.93 3.42, 36.78 3.09 C39.63 2.76, 42.62 2.45, 45.71 2.17 C48.8 1.89, 52.01 1.63, 55.3 1.4 C58.58 1.17, 61.98 0.97, 65.42 0.79 C68.86 0.62, 72.39 0.47, 75.94 0.35 C79.5 0.24, 83.12 0.15, 86.74 0.09 C90.36 0.03, 94.03 0, 97.68 0 C101.32 0, 104.99 0.03, 108.61 0.09 C112.24 0.15, 115.86 0.24, 119.41 0.35 C122.97 0.47, 126.5 0.62, 129.94 0.79 C133.38 0.97, 136.77 1.17, 140.06 1.4 C143.34 1.63, 146.56 1.89, 149.64 2.17 C152.73 2.45, 155.73 2.76, 158.58 3.09 C161.43 3.42, 164.17 3.77, 166.75 4.14 C169.32 4.52, 171.77 4.91, 174.04 5.33 C176.32 5.74, 178.44 6.17, 180.38 6.62 C182.32 7.07, 184.1 7.53, 185.68 8.01 C187.26 8.49, 188.67 8.98, 189.87 9.48 C191.08 9.97, 192.09 10.49, 192.91 11 C193.72 11.52, 194.33 12.04, 194.74 12.57 C195.15 13.09, 195.25 13.89, 195.35 14.15 C195.46 14.41, 195.46 13.89, 195.35 14.15" stroke="#6741d9" stroke-width="2" fill="none"/></g><g stroke-linecap="round"><g transform="translate(10.00006103515625 234.14720153808594) rotate(0 98.59002685546875 -104.98016357421875)"><path d="M0 0 C32.86 -34.99, 164.32 -174.97, 197.18 -209.96 M0 0 C32.86 -34.99, 164.32 -174.97, 197.18 -209.96" stroke="#6741d9" stroke-width="2" fill="none"/></g></g><mask/><g stroke-linecap="round"><g transform="translate(206.2672119140625 235.0601043701172) rotate(0 -96.30783081054688 -104.52372741699219)"><path d="M0 0 C-32.1 -34.84, -160.51 -174.21, -192.62 -209.05 M0 0 C-32.1 -34.84, -160.51 -174.21, -192.62 -209.05" stroke="#6741d9" stroke-width="2" fill="none"/></g></g><mask/><g transform="translate(73.9010009765625 340.9530487060547) rotate(0 0.912872314453125 1.36932373046875)" stroke="none"><path d="M0 0 C0.3 0.46, 1.83 2.28, 1.83 2.74 C1.83 3.2, 0.3 2.74, 0 2.74" stroke="none" stroke-width="0" fill="#ffffff" fill-rule="evenodd"/><path fill="transparent" d="M 0.62,-0.20 Q 0.62,-0.20 0.65,1.29 0.69,2.79 0.63,2.88 0.57,2.97 0.49,3.04 0.40,3.10 0.30,3.14 0.20,3.17 0.10,3.17 -0.00,3.17 -0.10,3.14 -0.20,3.11 -0.29,3.04 -0.37,2.98 -0.43,2.89 -0.49,2.80 -0.52,2.70 -0.55,2.60 -0.55,2.49 -0.54,2.39 -0.50,2.29 -0.47,2.19 -0.40,2.11 -0.33,2.03 -0.24,1.97 -0.15,1.92 -0.05,1.89 0.05,1.87 0.15,1.88 0.26,1.89 0.36,1.93 0.45,1.98 0.53,2.05 0.61,2.12 0.66,2.21 0.71,2.31 0.73,2.41 0.75,2.52 0.73,2.62 0.71,2.73 0.67,2.82 0.62,2.92 0.54,2.99 0.46,3.06 0.37,3.11 0.27,3.15 0.17,3.17 0.06,3.18 -0.03,3.16 -0.14,3.14 -0.23,3.08 -0.32,3.03 -0.39,2.95 -0.46,2.87 -0.50,2.77 -0.54,2.67 -0.55,2.56 -0.55,2.46 -0.53,2.36 -0.50,2.25 -0.50,2.25 -0.50,2.25 -0.56,1.23 -0.62,0.20 -0.63,0.13 -0.65,0.05 -0.65,-0.02 -0.64,-0.10 -0.62,-0.18 -0.60,-0.25 -0.56,-0.32 -0.52,-0.39 -0.46,-0.45 -0.41,-0.50 -0.34,-0.55 -0.28,-0.59 -0.20,-0.61 -0.13,-0.64 -0.05,-0.64 0.02,-0.65 0.10,-0.64 0.18,-0.63 0.25,-0.59 0.32,-0.56 0.39,-0.52 0.45,-0.47 0.50,-0.41 0.55,-0.35 0.58,-0.27 0.62,-0.20 0.62,-0.20 L 0.62,-0.20 Z"/></g><g transform="translate(63.85943603515625 245.1016082763672) rotate(0 -0.456451416015625 6.390106201171875)" stroke="none"><path fill="transparent" d="M 0.65,0.07 Q 0.65,0.07 0.57,2.45 0.50,4.83 0.53,8.05 0.56,11.28 0.55,11.38 0.53,11.49 0.49,11.59 0.45,11.68 0.38,11.76 0.30,11.84 0.21,11.89 0.12,11.94 0.01,11.96 -0.08,11.98 -0.19,11.96 -0.29,11.94 -0.39,11.90 -0.48,11.85 -0.56,11.77 -0.63,11.69 -0.67,11.60 -0.72,11.50 -0.73,11.40 -0.75,11.29 -0.72,11.19 -0.70,11.08 -0.65,10.99 -0.59,10.90 -0.51,10.83 -0.43,10.76 -0.34,10.72 -0.24,10.68 -0.13,10.67 -0.03,10.67 0.07,10.69 0.17,10.72 0.26,10.78 0.35,10.84 0.41,10.92 0.48,11.01 0.51,11.11 0.55,11.21 0.55,11.31 0.55,11.42 0.52,11.52 0.48,11.62 0.42,11.71 0.36,11.79 0.27,11.85 0.18,11.91 0.08,11.94 -0.01,11.97 -0.12,11.97 -0.22,11.96 -0.32,11.92 -0.42,11.89 -0.50,11.82 -0.59,11.75 -0.64,11.66 -0.70,11.57 -0.72,11.47 -0.75,11.36 -0.75,11.36 -0.75,11.36 -1.15,7.99 -1.55,4.61 -1.10,2.27 -0.65,-0.07 -0.63,-0.14 -0.61,-0.22 -0.58,-0.29 -0.54,-0.36 -0.49,-0.42 -0.44,-0.48 -0.37,-0.53 -0.31,-0.57 -0.23,-0.60 -0.16,-0.63 -0.08,-0.64 -0.00,-0.65 0.07,-0.64 0.15,-0.63 0.22,-0.61 0.29,-0.58 0.36,-0.54 0.43,-0.49 0.48,-0.43 0.53,-0.37 0.57,-0.30 0.61,-0.23 0.63,-0.16 0.65,-0.08 0.65,-0.00 0.65,0.07 0.65,0.07 L 0.65,0.07 Z"/></g><g transform="translate(69.33660888671875 298.9609832763672) rotate(0 -2.282135009765625 -35.1455078125)" stroke="none"><path fill="transparent" d="M 0.62,0.20 Q 0.62,0.20 0.79,1.13 0.96,2.06 0.90,2.78 0.84,3.50 0.82,4.07 0.79,4.65 1.04,5.46 1.28,6.28 1.39,7.04 1.51,7.80 2.00,8.63 2.49,9.47 3.03,10.79 3.57,12.11 4.54,13.87 5.51,15.62 6.21,16.93 6.91,18.25 7.42,18.99 7.93,19.72 8.16,20.33 8.40,20.93 8.50,21.12 8.60,21.31 8.65,21.51 8.70,21.72 8.69,21.93 8.69,22.14 8.64,22.35 8.59,22.55 8.49,22.74 8.39,22.92 8.25,23.08 8.10,23.24 7.93,23.36 7.75,23.48 7.55,23.55 7.36,23.62 7.14,23.65 6.93,23.67 6.72,23.64 6.51,23.62 6.32,23.54 6.12,23.46 5.95,23.34 5.77,23.22 5.63,23.06 5.49,22.90 5.49,21.84 5.48,20.79 5.47,19.64 5.45,18.49 4.43,14.17 3.42,9.85 2.71,6.05 2.00,2.24 -0.11,-5.31 -2.23,-12.87 -3.93,-19.81 -5.64,-26.76 -7.14,-32.58 -8.65,-38.40 -9.82,-43.52 -10.98,-48.65 -12.27,-54.50 -13.55,-60.35 -14.37,-64.97 -15.18,-69.59 -15.79,-73.39 -16.40,-77.19 -16.66,-80.17 -16.93,-83.15 -17.29,-85.38 -17.66,-87.61 -17.81,-88.92 -17.96,-90.24 -17.72,-91.15 -17.48,-92.06 -16.93,-92.81 -16.38,-93.57 -15.29,-94.05 -14.21,-94.52 -12.69,-94.33 -11.18,-94.15 -9.02,-92.31 -6.86,-90.47 -4.96,-88.09 -3.07,-85.72 -1.44,-82.79 0.19,-79.87 1.67,-76.50 3.16,-73.14 5.09,-68.30 7.03,-63.46 8.63,-59.30 10.22,-55.14 11.14,-51.99 12.05,-48.84 12.22,-46.14 12.38,-43.43 12.40,-43.33 12.41,-43.22 12.39,-43.12 12.38,-43.01 12.33,-42.92 12.28,-42.82 12.20,-42.75 12.12,-42.68 12.02,-42.63 11.93,-42.59 11.82,-42.58 11.72,-42.57 11.61,-42.59 11.51,-42.62 11.42,-42.67 11.33,-42.73 11.26,-42.81 11.19,-42.89 11.15,-42.99 11.11,-43.09 11.11,-43.19 11.10,-43.30 11.13,-43.40 11.16,-43.50 11.22,-43.59 11.28,-43.68 11.37,-43.74 11.45,-43.81 11.55,-43.84 11.65,-43.87 11.76,-43.87 11.86,-43.87 11.97,-43.84 12.07,-43.80 12.15,-43.74 12.23,-43.67 12.29,-43.58 12.35,-43.50 12.38,-43.39 12.41,-43.29 12.40,-43.19 12.40,-43.08 12.36,-42.98 12.32,-42.88 12.25,-42.80 12.18,-42.72 12.09,-42.67 11.99,-42.61 11.89,-42.59 11.79,-42.57 11.68,-42.58 11.58,-42.59 11.48,-42.64 11.38,-42.68 11.31,-42.76 11.23,-42.83 11.18,-42.92 11.13,-43.02 11.13,-43.02 11.13,-43.02 10.00,-45.44 8.88,-47.87 7.90,-50.87 6.93,-53.87 5.31,-57.99 3.69,-62.12 1.77,-66.90 -0.13,-71.69 -1.54,-74.91 -2.95,-78.12 -4.43,-80.81 -5.90,-83.49 -7.61,-85.67 -9.31,-87.84 -10.69,-89.30 -12.07,-90.76 -12.70,-90.92 -13.33,-91.08 -13.88,-90.79 -14.42,-90.50 -14.26,-89.34 -14.10,-88.18 -13.72,-85.83 -13.34,-83.47 -13.09,-80.61 -12.84,-77.76 -12.23,-73.99 -11.63,-70.21 -10.83,-65.67 -10.03,-61.12 -8.75,-55.29 -7.47,-49.45 -6.31,-44.38 -5.14,-39.30 -3.63,-33.46 -2.12,-27.62 -0.44,-20.73 1.24,-13.84 3.39,-6.12 5.54,1.58 6.23,5.32 6.93,9.05 7.97,13.81 9.02,18.57 8.92,20.28 8.82,21.98 8.61,21.45 8.40,20.93 8.50,21.12 8.60,21.31 8.65,21.51 8.70,21.72 8.69,21.93 8.69,22.14 8.64,22.35 8.59,22.55 8.49,22.74 8.39,22.92 8.25,23.08 8.10,23.24 7.93,23.36 7.75,23.48 7.55,23.55 7.36,23.62 7.15,23.65 6.93,23.67 6.72,23.64 6.51,23.62 6.32,23.54 6.12,23.46 5.95,23.34 5.77,23.22 5.63,23.06 5.49,22.90 5.26,22.28 5.03,21.66 4.43,20.77 3.83,19.87 3.15,18.57 2.48,17.26 1.44,15.33 0.41,13.39 -0.05,12.22 -0.52,11.04 -1.17,9.69 -1.81,8.35 -1.90,7.69 -1.99,7.03 -2.24,5.74 -2.48,4.44 -2.41,3.76 -2.34,3.08 -2.18,2.08 -2.01,1.08 -1.32,0.43 -0.62,-0.20 -0.58,-0.27 -0.55,-0.35 -0.50,-0.41 -0.45,-0.47 -0.39,-0.52 -0.32,-0.56 -0.25,-0.59 -0.18,-0.63 -0.10,-0.64 -0.02,-0.65 0.05,-0.64 0.13,-0.64 0.20,-0.61 0.28,-0.59 0.34,-0.55 0.41,-0.50 0.46,-0.45 0.52,-0.39 0.56,-0.32 0.60,-0.25 0.62,-0.18 0.64,-0.10 0.65,-0.02 0.65,0.05 0.63,0.13 0.62,0.20 0.62,0.20 L 0.62,0.20 Z"/></g><g transform="translate(75.72674560546875 220.45408630371094) rotate(0 9.128692626953125 -0.456390380859375)" stroke="none"><path fill="transparent" d="M 0.20,-0.62 Q 0.20,-0.62 1.14,-0.81 2.08,-1.00 3.55,-0.58 5.02,-0.16 5.90,0.67 6.77,1.52 7.41,1.94 8.04,2.35 9.15,3.10 10.26,3.84 11.05,4.46 11.83,5.07 12.89,5.67 13.95,6.27 14.51,6.76 15.07,7.25 14.64,7.57 14.20,7.89 13.97,6.27 13.73,4.66 13.75,3.32 13.76,1.98 13.51,-0.32 13.25,-2.64 12.90,-4.37 12.54,-6.10 12.38,-7.39 12.22,-8.69 12.21,-8.89 12.19,-9.10 12.22,-9.31 12.25,-9.52 12.34,-9.71 12.42,-9.90 12.54,-10.07 12.67,-10.24 12.83,-10.37 12.99,-10.50 13.18,-10.59 13.37,-10.68 13.58,-10.72 13.78,-10.76 13.99,-10.76 14.20,-10.75 14.40,-10.69 14.60,-10.63 14.78,-10.53 14.96,-10.42 15.11,-10.28 15.26,-10.13 15.38,-9.96 15.49,-9.78 15.55,-9.58 15.62,-9.38 16.43,-8.43 17.25,-7.47 17.80,-5.63 18.35,-3.79 18.79,-2.64 19.22,-1.49 19.00,0.23 18.78,1.96 18.78,2.07 18.78,2.17 18.75,2.27 18.72,2.37 18.65,2.46 18.59,2.55 18.51,2.61 18.42,2.67 18.32,2.70 18.22,2.73 18.11,2.73 18.00,2.72 17.90,2.69 17.80,2.65 17.72,2.58 17.64,2.52 17.58,2.43 17.53,2.34 17.50,2.23 17.48,2.13 17.48,2.02 17.49,1.92 17.54,1.82 17.58,1.72 17.65,1.64 17.72,1.57 17.81,1.51 17.91,1.46 18.01,1.44 18.12,1.42 18.22,1.44 18.33,1.45 18.42,1.50 18.52,1.55 18.59,1.62 18.67,1.70 18.71,1.79 18.76,1.89 18.77,2.00 18.79,2.10 18.77,2.20 18.75,2.31 18.69,2.40 18.64,2.49 18.56,2.56 18.48,2.63 18.38,2.68 18.29,2.72 18.18,2.73 18.07,2.73 17.97,2.71 17.87,2.68 17.78,2.62 17.69,2.57 17.62,2.48 17.56,2.40 17.52,2.30 17.48,2.20 17.48,2.20 17.48,2.20 16.71,0.96 15.93,-0.27 15.45,-1.55 14.98,-2.84 14.62,-4.25 14.25,-5.66 13.90,-6.26 13.54,-6.86 12.88,-7.77 12.22,-8.69 12.21,-8.89 12.19,-9.10 12.22,-9.31 12.25,-9.52 12.34,-9.71 12.42,-9.90 12.54,-10.07 12.67,-10.24 12.83,-10.37 12.99,-10.50 13.18,-10.59 13.37,-10.68 13.58,-10.72 13.78,-10.76 13.99,-10.76 14.20,-10.75 14.40,-10.69 14.60,-10.63 14.78,-10.53 14.96,-10.42 15.11,-10.28 15.26,-10.13 15.38,-9.96 15.49,-9.78 15.55,-9.58 15.62,-9.38 15.78,-8.09 15.94,-6.79 16.32,-4.90 16.71,-3.01 16.97,-0.50 17.23,2.01 17.22,3.37 17.21,4.73 17.18,6.12 17.15,7.51 17.01,8.45 16.86,9.39 16.33,9.98 15.80,10.58 15.02,10.73 14.24,10.87 13.48,10.31 12.71,9.76 11.97,9.13 11.24,8.51 10.47,8.15 9.71,7.80 9.02,7.25 8.33,6.69 7.21,5.93 6.08,5.17 5.16,4.50 4.24,3.83 3.93,3.37 3.63,2.90 3.04,2.63 2.46,2.36 1.76,2.20 1.06,2.05 0.42,1.34 -0.20,0.62 -0.27,0.58 -0.35,0.55 -0.41,0.50 -0.47,0.45 -0.52,0.39 -0.56,0.32 -0.59,0.25 -0.63,0.18 -0.64,0.10 -0.65,0.02 -0.64,-0.05 -0.64,-0.13 -0.61,-0.20 -0.59,-0.28 -0.55,-0.34 -0.50,-0.41 -0.45,-0.46 -0.39,-0.52 -0.32,-0.56 -0.25,-0.60 -0.18,-0.62 -0.10,-0.64 -0.02,-0.65 0.05,-0.65 0.13,-0.63 0.20,-0.62 0.20,-0.62 L 0.20,-0.62 Z"/></g><g transform="translate(89.4197998046875 214.0640106201172) rotate(0 0.912841796875 2.282196044921875)" stroke="none"><path d="M0 0 C-0.15 0.15, -0.91 0.3, -0.91 0.91 C-0.91 1.52, -0.61 3.04, 0 3.65 C0.61 4.26, 2.43 4.56, 2.74 4.56 C3.04 4.56, 1.98 3.8, 1.83 3.65" stroke="none" stroke-width="0" fill="#ffffff" fill-rule="evenodd"/><path fill="transparent" d="M 0.65,0 Q 0.65,0 1.05,0.78 1.46,1.57 1.47,2.13 1.48,2.69 2.00,3.24 2.53,3.79 2.52,3.87 2.51,3.94 2.48,4.02 2.45,4.09 2.41,4.16 2.36,4.22 2.31,4.27 2.25,4.33 2.18,4.36 2.11,4.40 2.03,4.42 1.95,4.44 1.87,4.44 1.79,4.44 1.72,4.42 1.64,4.40 1.57,4.36 1.50,4.33 1.44,4.27 1.38,4.22 1.34,4.16 1.29,4.09 1.26,4.02 1.24,3.94 1.23,3.86 1.22,3.79 1.22,3.80 1.22,3.81 1.23,3.70 1.24,3.60 1.29,3.50 1.34,3.41 1.41,3.33 1.49,3.26 1.58,3.21 1.68,3.16 1.78,3.14 1.89,3.13 1.99,3.15 2.10,3.17 2.19,3.22 2.28,3.27 2.35,3.35 2.42,3.43 2.47,3.53 2.51,3.62 2.52,3.73 2.53,3.84 2.50,3.94 2.48,4.04 2.42,4.13 2.36,4.22 2.28,4.29 2.20,4.36 2.10,4.39 2.00,4.43 1.89,4.43 1.79,4.44 1.69,4.41 1.58,4.38 1.50,4.31 1.41,4.25 1.35,4.17 1.29,4.08 1.25,3.98 1.22,3.88 1.23,3.77 1.23,3.67 1.26,3.57 1.30,3.47 1.37,3.38 1.43,3.30 1.52,3.24 1.61,3.18 1.71,3.16 1.82,3.13 1.92,3.14 2.03,3.15 2.13,3.19 2.22,3.23 2.30,3.30 2.38,3.37 2.44,3.46 2.49,3.56 2.51,3.67 2.53,3.79 2.52,3.86 2.51,3.94 2.48,4.02 2.45,4.09 2.41,4.16 2.36,4.22 2.31,4.27 2.25,4.33 2.18,4.36 2.11,4.40 2.03,4.42 1.95,4.44 1.87,4.44 1.79,4.44 1.72,4.42 1.64,4.40 1.57,4.36 1.50,4.33 1.44,4.27 1.38,4.22 1.34,4.16 1.29,4.09 1.26,4.02 1.24,3.94 1.23,3.87 1.22,3.79 -0.13,3.31 -1.48,2.84 -1.47,2.20 -1.46,1.57 -1.05,0.78 -0.65,0 -0.64,-0.07 -0.63,-0.15 -0.60,-0.23 -0.58,-0.30 -0.53,-0.37 -0.49,-0.43 -0.43,-0.48 -0.37,-0.54 -0.30,-0.57 -0.23,-0.61 -0.15,-0.63 -0.07,-0.65 0.00,-0.65 0.07,-0.65 0.15,-0.63 0.23,-0.61 0.30,-0.57 0.37,-0.54 0.43,-0.48 0.49,-0.43 0.53,-0.37 0.58,-0.30 0.60,-0.23 0.63,-0.15 0.64,-0.07 0.65,0.00 0.65,0.00 L 0.65,0 Z"/></g><g transform="translate(91.24554443359375 217.7154998779297) rotate(0 -0.456451416015625 0.456451416015625)" stroke="none"><path fill="transparent" d="M -0.06,0.98 Q -0.06,0.98 -0.14,1.05 -0.23,1.11 -0.33,1.14 -0.43,1.17 -0.54,1.17 -0.64,1.16 -0.74,1.13 -0.84,1.09 -0.93,1.02 -1.01,0.96 -1.07,0.87 -1.12,0.78 -1.15,0.68 -1.17,0.57 -1.17,0.47 -1.16,0.36 -1.12,0.26 -1.07,0.17 -1.00,0.09 -0.93,0.01 -0.84,-0.03 -0.75,-0.09 -0.64,-0.11 -0.54,-0.13 -0.43,-0.11 -0.33,-0.10 -0.23,-0.05 -0.14,-0.00 -0.06,0.06 0.00,0.14 0.05,0.23 0.10,0.33 0.11,0.43 0.13,0.54 0.11,0.64 0.09,0.75 0.03,0.84 -0.01,0.93 -0.09,1.00 -0.17,1.07 -0.26,1.12 -0.36,1.16 -0.47,1.17 -0.57,1.17 -0.68,1.15 -0.78,1.12 -0.87,1.07 -0.96,1.01 -1.03,0.93 -1.09,0.84 -1.13,0.74 -1.16,0.64 -1.17,0.54 -1.17,0.43 -1.14,0.33 -1.11,0.23 -1.05,0.14 -0.98,0.06 -0.98,0.06 -0.98,0.06 -0.98,-0.05 -0.97,-0.17 -0.93,-0.29 -0.90,-0.40 -0.84,-0.50 -0.78,-0.61 -0.69,-0.69 -0.61,-0.77 -0.50,-0.84 -0.40,-0.90 -0.29,-0.93 -0.17,-0.97 -0.06,-0.98 0.05,-0.98 0.17,-0.96 0.29,-0.94 0.40,-0.89 0.51,-0.84 0.60,-0.77 0.70,-0.70 0.77,-0.60 0.84,-0.51 0.89,-0.40 0.94,-0.29 0.96,-0.17 0.98,-0.06 0.46,0.46 L -0.06,0.98 Z"/></g><g transform="translate(83.02972412109375 209.4996795654297) rotate(0 4.107879638671875 12.323760986328125)" stroke="none"><path fill="#ffffff" d="M 0.65,0 Q 0.65,0 1.17,1.04 1.69,2.09 1.95,3.44 2.20,4.79 2.56,6.14 2.92,7.50 3.57,9.04 4.22,10.59 4.76,11.80 5.30,13.00 5.59,14.21 5.88,15.42 6.21,16.27 6.53,17.13 6.88,17.65 7.23,18.18 7.61,18.65 7.99,19.11 8.51,19.97 9.03,20.83 8.96,21.74 8.90,22.66 8.93,22.73 8.97,22.80 8.98,22.88 8.99,22.96 8.99,23.04 8.98,23.12 8.96,23.19 8.93,23.27 8.89,23.34 8.85,23.40 8.79,23.46 8.74,23.51 8.67,23.55 8.60,23.59 8.53,23.62 8.45,23.64 8.37,23.64 8.29,23.65 8.21,23.63 8.14,23.62 8.06,23.59 7.99,23.55 7.93,23.50 7.87,23.45 7.82,23.39 7.77,23.33 7.74,23.26 7.71,23.18 7.69,23.08 7.68,22.97 7.70,22.87 7.72,22.76 7.77,22.67 7.83,22.58 7.91,22.51 7.99,22.44 8.08,22.40 8.18,22.36 8.29,22.35 8.39,22.34 8.50,22.37 8.60,22.39 8.69,22.45 8.78,22.51 8.84,22.59 8.91,22.67 8.95,22.77 8.98,22.87 8.98,22.98 8.99,23.09 8.96,23.19 8.92,23.29 8.86,23.37 8.80,23.46 8.71,23.52 8.63,23.58 8.52,23.61 8.42,23.64 8.32,23.64 8.21,23.64 8.11,23.60 8.01,23.56 7.93,23.50 7.85,23.43 7.79,23.34 7.73,23.25 7.71,23.15 7.68,23.04 7.69,22.94 7.70,22.83 7.74,22.73 7.79,22.64 7.86,22.56 7.93,22.48 8.02,22.43 8.11,22.38 8.22,22.36 8.32,22.34 8.43,22.35 8.53,22.37 8.63,22.41 8.72,22.46 8.80,22.54 8.87,22.61 8.89,22.64 8.90,22.66 8.93,22.73 8.97,22.80 8.98,22.88 8.99,22.96 8.99,23.04 8.98,23.12 8.96,23.19 8.93,23.27 8.89,23.34 8.85,23.40 8.79,23.46 8.74,23.51 8.67,23.55 8.60,23.59 8.53,23.62 8.45,23.64 8.37,23.64 8.29,23.65 8.21,23.63 8.14,23.62 8.06,23.59 7.99,23.55 7.93,23.50 7.87,23.45 7.82,23.39 7.77,23.33 6.92,22.95 6.07,22.56 5.69,21.90 5.31,21.25 4.81,20.61 4.31,19.98 3.83,19.16 3.34,18.33 2.94,17.25 2.54,16.17 2.36,15.28 2.18,14.39 1.62,13.15 1.05,11.90 0.34,10.13 -0.37,8.37 -0.76,6.87 -1.15,5.38 -1.42,3.74 -1.69,2.10 -1.17,1.05 -0.65,0 -0.64,-0.07 -0.63,-0.15 -0.60,-0.23 -0.58,-0.30 -0.53,-0.37 -0.49,-0.43 -0.43,-0.48 -0.37,-0.54 -0.30,-0.57 -0.23,-0.61 -0.15,-0.63 -0.07,-0.65 0.00,-0.65 0.07,-0.65 0.15,-0.63 0.23,-0.61 0.30,-0.57 0.37,-0.54 0.43,-0.48 0.49,-0.43 0.53,-0.37 0.58,-0.30 0.60,-0.23 0.63,-0.15 0.64,-0.07 0.65,0.00 0.65,0.00 L 0.65,0 Z"/></g><g transform="translate(89.4197998046875 204.93528747558594) rotate(0 6.390106201171875 12.323760986328125)" stroke="none"><path fill="#ffffff" d="M 0.62,-0.20 Q 0.62,-0.20 1.29,0.44 1.97,1.09 2.33,1.88 2.70,2.67 3.14,3.86 3.59,5.05 4.02,6.02 4.45,6.99 4.90,7.92 5.34,8.85 5.74,9.41 6.14,9.98 6.42,10.70 6.71,11.42 7.29,12.11 7.87,12.81 8.49,11.74 9.11,10.68 9.17,10.13 9.23,9.58 9.27,8.71 9.32,7.83 9.68,7.04 10.04,6.25 10.16,5.78 10.28,5.32 10.40,5.16 10.52,5.00 10.67,4.88 10.82,4.75 11.00,4.67 11.18,4.58 11.38,4.55 11.57,4.51 11.77,4.52 11.97,4.53 12.16,4.58 12.35,4.64 12.52,4.74 12.69,4.84 12.83,4.98 12.97,5.12 13.08,5.28 13.18,5.45 13.25,5.64 13.31,5.83 13.32,6.03 13.34,6.22 13.30,6.42 13.27,6.61 13.19,6.80 13.11,6.98 13.69,7.92 14.26,8.87 14.33,9.75 14.40,10.63 14.42,11.51 14.44,12.39 14.45,13.02 14.46,13.66 14.46,14.72 14.47,15.78 14.47,16.49 14.48,17.20 14.48,17.76 14.47,18.33 14.48,19.31 14.49,20.29 14.49,21.21 14.49,22.14 13.59,22.52 12.68,22.91 12.67,22.98 12.66,23.06 12.64,23.14 12.61,23.21 12.56,23.28 12.52,23.34 12.46,23.39 12.40,23.45 12.33,23.48 12.26,23.52 12.18,23.54 12.11,23.56 12.03,23.56 11.95,23.56 11.87,23.54 11.79,23.52 11.72,23.48 11.65,23.45 11.59,23.39 11.54,23.34 11.49,23.28 11.45,23.21 11.42,23.14 11.39,23.06 11.38,22.98 11.37,22.91 11.46,23.13 11.55,23.35 11.49,23.27 11.43,23.18 11.40,23.08 11.37,22.97 11.38,22.87 11.39,22.76 11.43,22.66 11.47,22.56 11.54,22.48 11.60,22.40 11.70,22.35 11.79,22.29 11.89,22.27 11.99,22.25 12.10,22.26 12.21,22.27 12.30,22.32 12.40,22.36 12.47,22.44 12.55,22.51 12.60,22.60 12.65,22.70 12.67,22.80 12.68,22.91 12.67,23.01 12.65,23.12 12.60,23.21 12.55,23.30 12.47,23.38 12.39,23.45 12.30,23.49 12.20,23.54 12.09,23.55 11.99,23.56 11.89,23.54 11.78,23.51 11.69,23.46 11.60,23.40 11.53,23.32 11.46,23.24 11.42,23.14 11.39,23.04 11.38,22.94 11.37,22.83 11.40,22.73 11.43,22.63 11.49,22.54 11.55,22.45 11.64,22.39 11.72,22.32 11.82,22.29 11.92,22.26 12.03,22.26 12.14,22.26 12.24,22.29 12.34,22.33 12.51,22.62 12.68,22.90 12.67,22.98 12.66,23.06 12.64,23.14 12.61,23.21 12.56,23.28 12.52,23.34 12.46,23.39 12.40,23.45 12.33,23.48 12.26,23.52 12.18,23.54 12.11,23.56 12.03,23.56 11.95,23.56 11.87,23.54 11.79,23.52 11.72,23.48 11.65,23.45 11.59,23.39 11.54,23.34 11.49,23.28 11.45,23.21 11.42,23.14 11.39,23.06 11.38,22.98 11.37,22.91 11.22,22.52 11.06,22.14 11.06,21.21 11.06,20.29 11.07,19.31 11.07,18.33 11.07,17.77 11.07,17.21 11.07,16.50 11.07,15.79 11.07,14.75 11.06,13.71 11.06,13.09 11.05,12.48 11.03,11.67 11.00,10.86 10.90,9.83 10.80,8.80 10.46,7.93 10.12,7.07 10.20,6.19 10.28,5.32 10.40,5.16 10.52,5.00 10.67,4.88 10.82,4.75 11.00,4.67 11.18,4.58 11.38,4.55 11.57,4.51 11.77,4.52 11.97,4.53 12.16,4.58 12.35,4.64 12.52,4.74 12.69,4.84 12.83,4.98 12.97,5.12 13.08,5.28 13.18,5.45 13.25,5.64 13.31,5.83 13.32,6.03 13.34,6.22 13.30,6.42 13.27,6.61 13.19,6.80 13.11,6.98 12.83,7.54 12.55,8.11 12.52,9.07 12.49,10.02 12.39,10.62 12.30,11.21 11.78,12.20 11.26,13.19 10.92,13.88 10.59,14.58 9.72,15.21 8.86,15.84 7.88,15.81 6.90,15.78 6.21,15.39 5.52,15.00 5.03,14.44 4.55,13.88 4.00,12.82 3.46,11.77 2.95,10.99 2.44,10.22 1.99,9.24 1.53,8.26 1.08,7.20 0.63,6.14 0.23,5.02 -0.15,3.91 -0.54,2.98 -0.92,2.05 -0.77,1.13 -0.62,0.20 -0.63,0.13 -0.65,0.05 -0.65,-0.02 -0.64,-0.10 -0.62,-0.18 -0.60,-0.25 -0.56,-0.32 -0.52,-0.39 -0.46,-0.45 -0.41,-0.50 -0.34,-0.55 -0.28,-0.59 -0.20,-0.61 -0.13,-0.64 -0.05,-0.64 0.02,-0.65 0.10,-0.64 0.18,-0.63 0.25,-0.59 0.32,-0.56 0.39,-0.52 0.45,-0.47 0.50,-0.41 0.55,-0.35 0.58,-0.27 0.62,-0.20 0.62,-0.20 L 0.62,-0.20 Z"/></g><g transform="translate(114.98016357421875 228.6699676513672) rotate(0 -0.4564208984375 -14.60595703125)" stroke="none"><path fill="#ffffff" d="M -0.58,0.29 Q -0.58,0.29 -1.25,-0.04 -1.92,-0.39 -2.13,-1.92 -2.34,-3.45 -2.40,-5.09 -2.46,-6.72 -2.49,-8.73 -2.51,-10.73 -2.53,-13.16 -2.54,-15.58 -2.54,-17.92 -2.55,-20.27 -2.55,-22.31 -2.55,-24.36 -2.06,-26.55 -1.56,-28.74 -1.55,-28.84 -1.53,-28.95 -1.48,-29.04 -1.43,-29.14 -1.35,-29.21 -1.28,-29.28 -1.18,-29.33 -1.08,-29.37 -0.98,-29.38 -0.87,-29.40 -0.77,-29.37 -0.66,-29.35 -0.57,-29.30 -0.48,-29.24 -0.41,-29.16 -0.35,-29.08 -0.31,-28.98 -0.27,-28.88 -0.26,-28.78 -0.25,-28.67 -0.28,-28.57 -0.31,-28.46 -0.37,-28.38 -0.43,-28.29 -0.52,-28.22 -0.60,-28.16 -0.70,-28.13 -0.80,-28.09 -0.91,-28.09 -1.01,-28.09 -1.11,-28.13 -1.22,-28.16 -1.30,-28.22 -1.38,-28.29 -1.44,-28.38 -1.50,-28.46 -1.53,-28.57 -1.56,-28.67 -1.55,-28.77 -1.55,-28.88 -1.51,-28.98 -1.47,-29.08 -1.40,-29.16 -1.33,-29.24 -1.24,-29.30 -1.15,-29.35 -1.05,-29.37 -0.94,-29.40 -0.84,-29.38 -0.73,-29.37 -0.64,-29.33 -0.54,-29.28 -0.46,-29.21 -0.38,-29.14 -0.34,-29.04 -0.29,-28.95 -0.27,-28.84 -0.25,-28.74 -0.25,-28.74 -0.25,-28.74 0.23,-26.55 0.73,-24.36 0.73,-22.32 0.73,-20.27 0.74,-17.93 0.74,-15.59 0.74,-13.18 0.75,-10.77 0.76,-8.79 0.78,-6.82 0.81,-5.28 0.84,-3.73 0.86,-2.72 0.87,-1.70 0.73,-1.00 0.58,-0.29 0.61,-0.21 0.64,-0.14 0.64,-0.06 0.65,0.01 0.64,0.09 0.63,0.16 0.60,0.24 0.57,0.31 0.52,0.38 0.48,0.44 0.42,0.49 0.36,0.54 0.29,0.58 0.22,0.61 0.14,0.63 0.06,0.65 -0.01,0.65 -0.09,0.65 -0.16,0.62 -0.24,0.60 -0.31,0.57 -0.38,0.53 -0.44,0.47 -0.50,0.42 -0.54,0.35 -0.58,0.29 -0.58,0.29 L -0.58,0.29 Z"/></g><g transform="translate(131.411865234375 230.49571228027344) rotate(0 -0.000030517578125 -16.431671142578125)" stroke="none"><path fill="#ffffff" d="M -0.65,0 Q -0.65,0 -1.12,-1.31 -1.58,-2.62 -1.60,-4.75 -1.62,-6.88 -1.89,-9.28 -2.15,-11.67 -2.27,-14.09 -2.38,-16.50 -2.43,-18.31 -2.48,-20.12 -2.50,-21.69 -2.52,-23.26 -2.24,-24.40 -1.95,-25.54 -1.86,-26.11 -1.78,-26.68 -1.71,-27.65 -1.65,-28.61 -0.69,-30.87 0.26,-33.12 0.34,-33.19 0.43,-33.25 0.53,-33.29 0.63,-33.32 0.73,-33.33 0.84,-33.33 0.94,-33.29 1.04,-33.26 1.13,-33.20 1.21,-33.13 1.27,-33.05 1.33,-32.96 1.36,-32.86 1.39,-32.76 1.39,-32.65 1.38,-32.54 1.35,-32.45 1.31,-32.35 1.24,-32.26 1.17,-32.18 1.08,-32.13 0.99,-32.07 0.89,-32.05 0.78,-32.02 0.68,-32.03 0.57,-32.04 0.48,-32.09 0.38,-32.13 0.30,-32.20 0.22,-32.27 0.17,-32.37 0.12,-32.46 0.10,-32.56 0.08,-32.67 0.10,-32.77 0.12,-32.88 0.16,-32.97 0.21,-33.07 0.29,-33.14 0.37,-33.22 0.46,-33.26 0.56,-33.31 0.66,-33.32 0.77,-33.33 0.87,-33.31 0.98,-33.29 1.07,-33.24 1.16,-33.18 1.23,-33.10 1.30,-33.02 1.34,-32.92 1.38,-32.83 1.39,-32.72 1.39,-32.61 1.37,-32.51 1.34,-32.41 1.28,-32.32 1.22,-32.23 1.22,-32.23 1.22,-32.23 1.37,-30.35 1.52,-28.48 1.49,-27.31 1.46,-26.15 1.33,-25.41 1.20,-24.67 0.98,-23.97 0.76,-23.27 0.78,-21.74 0.80,-20.21 0.84,-18.43 0.88,-16.66 0.99,-14.34 1.10,-12.02 1.36,-9.45 1.62,-6.89 1.60,-4.75 1.58,-2.62 1.12,-1.31 0.65,0 0.64,0.07 0.63,0.15 0.60,0.23 0.58,0.30 0.53,0.37 0.49,0.43 0.43,0.48 0.37,0.54 0.30,0.57 0.23,0.61 0.15,0.63 0.07,0.65 -0.00,0.65 -0.07,0.65 -0.15,0.63 -0.23,0.61 -0.30,0.57 -0.37,0.54 -0.43,0.48 -0.49,0.43 -0.53,0.37 -0.58,0.30 -0.60,0.23 -0.63,0.15 -0.64,0.07 -0.65,-0.00 -0.65,-0.00 L -0.65,0 Z"/></g><g transform="translate(142.36627197265625 231.40855407714844) rotate(0 2.282196044921875 -13.23663330078125)" stroke="none"><path fill="#ffffff" d="M -0.65,-0.09 Q -0.65,-0.09 -0.87,-1.99 -1.09,-3.90 -0.70,-5.54 -0.32,-7.18 -0.18,-8.79 -0.04,-10.39 0.29,-12.24 0.63,-14.10 0.75,-16.07 0.88,-18.05 0.94,-19.43 1.00,-20.81 1.05,-21.66 1.09,-22.51 1.15,-23.38 1.20,-24.26 2.66,-25.64 4.13,-27.02 4.24,-27.04 4.34,-27.05 4.45,-27.03 4.55,-27.01 4.64,-26.96 4.73,-26.91 4.81,-26.83 4.88,-26.75 4.92,-26.65 4.96,-26.55 4.97,-26.45 4.98,-26.34 4.95,-26.24 4.93,-26.14 4.87,-26.05 4.81,-25.96 4.73,-25.89 4.65,-25.82 4.55,-25.79 4.45,-25.75 4.34,-25.75 4.24,-25.74 4.13,-25.78 4.03,-25.81 3.95,-25.87 3.86,-25.93 3.80,-26.02 3.74,-26.10 3.70,-26.20 3.67,-26.31 3.68,-26.41 3.68,-26.52 3.72,-26.62 3.75,-26.72 3.82,-26.80 3.88,-26.88 3.97,-26.94 4.06,-27.00 4.17,-27.02 4.27,-27.05 4.38,-27.04 4.48,-27.03 4.58,-26.99 4.68,-26.95 4.76,-26.88 4.84,-26.81 4.89,-26.72 4.94,-26.62 4.96,-26.52 4.98,-26.41 4.97,-26.31 4.95,-26.20 4.90,-26.11 4.86,-26.01 4.78,-25.94 4.71,-25.86 4.61,-25.82 4.52,-25.77 4.52,-25.77 4.52,-25.77 4.38,-24.99 4.24,-24.22 4.27,-23.32 4.30,-22.41 4.29,-21.54 4.29,-20.67 4.23,-19.25 4.18,-17.82 4.02,-15.66 3.86,-13.50 3.54,-11.79 3.22,-10.09 3.04,-8.26 2.87,-6.43 2.50,-4.93 2.14,-3.44 1.39,-1.67 0.65,0.09 0.62,0.16 0.60,0.24 0.57,0.31 0.53,0.38 0.47,0.44 0.42,0.50 0.35,0.54 0.29,0.58 0.21,0.61 0.14,0.64 0.06,0.64 -0.01,0.65 -0.09,0.64 -0.17,0.63 -0.24,0.60 -0.31,0.57 -0.38,0.52 -0.44,0.48 -0.49,0.42 -0.54,0.36 -0.58,0.29 -0.61,0.21 -0.63,0.14 -0.65,0.06 -0.65,-0.01 -0.65,-0.09 -0.65,-0.09 L -0.65,-0.09 Z"/></g><g transform="translate(156.05938720703125 229.5828094482422) rotate(0 -0.456451416015625 -9.128692626953125)" stroke="none"><path fill="#ffffff" d="M -0.63,0.15 Q -0.63,0.15 -1.36,-0.77 -2.09,-1.71 -2.24,-3.88 -2.39,-6.05 -2.44,-7.98 -2.49,-9.91 -2.51,-11.26 -2.53,-12.60 -1.61,-15.51 -0.69,-18.42 -0.61,-18.49 -0.54,-18.57 -0.44,-18.61 -0.35,-18.66 -0.24,-18.67 -0.14,-18.68 -0.03,-18.66 0.06,-18.64 0.16,-18.59 0.25,-18.54 0.32,-18.46 0.39,-18.38 0.43,-18.28 0.47,-18.18 0.48,-18.08 0.49,-17.97 0.46,-17.87 0.43,-17.76 0.37,-17.67 0.32,-17.59 0.23,-17.52 0.15,-17.45 0.05,-17.42 -0.04,-17.38 -0.15,-17.38 -0.25,-17.38 -0.35,-17.41 -0.46,-17.44 -0.54,-17.51 -0.63,-17.57 -0.69,-17.66 -0.75,-17.74 -0.78,-17.84 -0.81,-17.95 -0.81,-18.05 -0.80,-18.16 -0.77,-18.26 -0.73,-18.36 -0.66,-18.44 -0.59,-18.52 -0.50,-18.58 -0.41,-18.63 -0.31,-18.66 -0.21,-18.68 -0.10,-18.67 0.00,-18.66 0.09,-18.62 0.19,-18.58 0.27,-18.51 0.35,-18.44 0.40,-18.34 0.45,-18.25 0.47,-18.14 0.49,-18.04 0.47,-17.93 0.46,-17.83 0.41,-17.74 0.36,-17.64 0.36,-17.64 0.36,-17.64 0.56,-15.15 0.76,-12.65 0.78,-11.32 0.80,-9.99 0.85,-8.11 0.89,-6.23 0.97,-4.35 1.04,-2.48 0.84,-1.32 0.63,-0.15 0.64,-0.08 0.65,-0.00 0.64,0.07 0.63,0.15 0.61,0.22 0.58,0.30 0.53,0.36 0.49,0.43 0.43,0.48 0.37,0.53 0.30,0.57 0.23,0.61 0.15,0.63 0.08,0.65 0.00,0.65 -0.07,0.65 -0.15,0.63 -0.23,0.61 -0.30,0.57 -0.37,0.54 -0.43,0.48 -0.49,0.43 -0.53,0.37 -0.58,0.30 -0.60,0.23 -0.63,0.15 -0.63,0.15 L -0.63,0.15 Z"/></g><g transform="translate(74.8138427734375 225.9313201904297) rotate(0 -2.28216552734375 -5.477203369140625)" stroke="none"><path fill="#ffffff" d="M 0.65,0 Q 0.65,0 0.92,0.78 1.19,1.57 1.36,1.64 1.53,1.71 1.51,1.90 1.49,2.08 1.42,2.25 1.35,2.43 1.25,2.58 1.14,2.73 1.01,2.86 0.87,2.98 0.70,3.06 0.54,3.15 0.36,3.19 0.18,3.24 -0.00,3.24 -0.18,3.24 -0.36,3.19 -0.54,3.15 -0.70,3.06 -0.87,2.98 -1.01,2.86 -1.14,2.73 -1.25,2.58 -1.35,2.43 -1.42,2.25 -1.49,2.08 -1.51,1.90 -1.53,1.71 -2.45,0.92 -3.36,0.12 -3.94,-1.70 -4.51,-3.54 -4.73,-5.13 -4.96,-6.72 -5.28,-7.75 -5.61,-8.78 -5.39,-10.30 -5.18,-11.83 -5.19,-11.91 -5.21,-11.99 -5.20,-12.06 -5.20,-12.14 -5.17,-12.22 -5.15,-12.29 -5.11,-12.36 -5.07,-12.43 -5.01,-12.48 -4.95,-12.54 -4.88,-12.58 -4.82,-12.62 -4.74,-12.64 -4.66,-12.67 -4.59,-12.67 -4.51,-12.67 -4.43,-12.66 -4.35,-12.64 -4.28,-12.61 -4.21,-12.58 -4.15,-12.53 -4.08,-12.48 -4.04,-12.42 -3.99,-12.35 -3.96,-12.28 -3.92,-12.21 -3.93,-11.99 -3.94,-11.78 -3.99,-11.69 -4.05,-11.60 -4.13,-11.53 -4.21,-11.46 -4.31,-11.42 -4.41,-11.38 -4.51,-11.37 -4.62,-11.37 -4.72,-11.39 -4.82,-11.42 -4.91,-11.48 -5.00,-11.54 -5.06,-11.62 -5.13,-11.71 -5.16,-11.81 -5.20,-11.91 -5.20,-12.01 -5.20,-12.12 -5.17,-12.22 -5.13,-12.32 -5.07,-12.41 -5.01,-12.49 -4.92,-12.55 -4.83,-12.61 -4.73,-12.64 -4.63,-12.67 -4.52,-12.67 -4.42,-12.66 -4.32,-12.62 -4.22,-12.58 -4.14,-12.52 -4.06,-12.45 -4.00,-12.36 -3.94,-12.27 -3.92,-12.16 -3.90,-12.06 -3.91,-11.95 -3.92,-11.85 -3.96,-11.75 -4.01,-11.65 -4.08,-11.58 -4.15,-11.50 -4.24,-11.45 -4.34,-11.40 -4.44,-11.38 -4.55,-11.36 -4.65,-11.38 -4.76,-11.39 -4.85,-11.44 -4.95,-11.49 -5.02,-11.57 -5.09,-11.65 -5.14,-11.74 -5.18,-11.84 -5.20,-11.94 -5.21,-12.05 -5.19,-11.94 -5.18,-11.83 -5.19,-11.91 -5.21,-11.99 -5.20,-12.06 -5.20,-12.14 -5.17,-12.22 -5.15,-12.29 -5.11,-12.36 -5.07,-12.43 -5.01,-12.48 -4.95,-12.54 -4.88,-12.58 -4.82,-12.62 -4.74,-12.64 -4.66,-12.67 -4.59,-12.67 -4.51,-12.67 -4.43,-12.66 -4.35,-12.64 -4.28,-12.61 -4.21,-12.58 -4.15,-12.53 -4.08,-12.48 -4.04,-12.42 -3.99,-12.35 -3.96,-12.28 -3.92,-12.21 -3.21,-10.96 -2.49,-9.71 -2.12,-8.44 -1.75,-7.16 -1.57,-5.79 -1.40,-4.43 -1.03,-3.01 -0.67,-1.60 -0.31,-1.01 0.04,-0.41 0.78,0.65 1.53,1.71 1.51,1.90 1.49,2.08 1.42,2.25 1.35,2.43 1.25,2.58 1.14,2.73 1.01,2.86 0.87,2.98 0.70,3.06 0.54,3.15 0.36,3.19 0.18,3.24 0.00,3.24 -0.18,3.24 -0.36,3.19 -0.54,3.15 -0.70,3.06 -0.87,2.98 -1.01,2.86 -1.14,2.73 -1.25,2.58 -1.35,2.43 -1.42,2.25 -1.49,2.08 -1.51,1.90 -1.53,1.71 -1.36,1.64 -1.19,1.57 -0.92,0.78 -0.65,0 -0.64,-0.07 -0.63,-0.15 -0.60,-0.23 -0.58,-0.30 -0.53,-0.37 -0.49,-0.43 -0.43,-0.48 -0.37,-0.54 -0.30,-0.57 -0.23,-0.61 -0.15,-0.63 -0.07,-0.65 0.00,-0.65 0.07,-0.65 0.15,-0.63 0.23,-0.61 0.30,-0.57 0.37,-0.54 0.43,-0.48 0.49,-0.43 0.53,-0.37 0.58,-0.30 0.60,-0.23 0.63,-0.15 0.64,-0.07 0.65,0.00 0.65,0.00 L 0.65,0 Z"/></g><g transform="translate(62.03369140625 231.40855407714844) rotate(0 -1.36932373046875 -8.672271728515625)" stroke="none"><path fill="#ffffff" d="M -0.64,0.10 Q -0.64,0.10 -1.39,-1.38 -2.14,-2.87 -2.52,-4.55 -2.89,-6.23 -3.06,-7.84 -3.24,-9.44 -3.55,-10.78 -3.87,-12.11 -3.62,-14.54 -3.37,-16.97 -3.36,-17.08 -3.35,-17.19 -3.30,-17.28 -3.26,-17.38 -3.19,-17.45 -3.11,-17.53 -3.02,-17.58 -2.92,-17.63 -2.82,-17.65 -2.71,-17.66 -2.61,-17.64 -2.50,-17.63 -2.41,-17.58 -2.32,-17.53 -2.24,-17.45 -2.17,-17.37 -2.13,-17.27 -2.08,-17.18 -2.07,-17.07 -2.06,-16.97 -2.09,-16.86 -2.11,-16.76 -2.16,-16.67 -2.22,-16.58 -2.30,-16.51 -2.38,-16.44 -2.48,-16.40 -2.58,-16.36 -2.69,-16.36 -2.79,-16.35 -2.90,-16.38 -3.00,-16.41 -3.08,-16.47 -3.17,-16.53 -3.24,-16.62 -3.30,-16.70 -3.33,-16.80 -3.37,-16.90 -3.37,-17.01 -3.37,-17.12 -3.33,-17.22 -3.30,-17.32 -3.23,-17.40 -3.17,-17.49 -3.08,-17.54 -2.99,-17.60 -2.89,-17.63 -2.78,-17.66 -2.68,-17.65 -2.57,-17.65 -2.47,-17.61 -2.38,-17.57 -2.29,-17.50 -2.21,-17.43 -2.16,-17.34 -2.11,-17.24 -2.08,-17.14 -2.06,-17.04 -2.06,-17.04 -2.06,-17.04 -1.34,-14.95 -0.63,-12.86 -0.28,-11.32 0.05,-9.79 0.20,-8.36 0.34,-6.93 0.72,-5.17 1.09,-3.42 0.87,-1.76 0.64,-0.10 0.65,-0.02 0.65,0.05 0.63,0.12 0.62,0.20 0.59,0.27 0.55,0.34 0.50,0.41 0.45,0.47 0.39,0.51 0.33,0.56 0.25,0.59 0.18,0.62 0.10,0.64 0.02,0.65 -0.04,0.64 -0.12,0.64 -0.20,0.61 -0.27,0.59 -0.34,0.55 -0.41,0.51 -0.46,0.45 -0.52,0.39 -0.56,0.32 -0.60,0.25 -0.62,0.18 -0.64,0.10 -0.64,0.10 L -0.64,0.10 Z"/></g><g transform="translate(47.427734375 230.49571228027344) rotate(0 -1.36932373046875 -9.12872314453125)" stroke="none"><path fill="#ffffff" d="M -0.62,0.20 Q -0.62,0.20 -1.33,-0.43 -2.04,-1.07 -2.44,-3.07 -2.85,-5.08 -3.03,-7.03 -3.20,-8.97 -3.27,-10.59 -3.34,-12.20 -3.37,-13.40 -3.40,-14.59 -3.38,-16.69 -3.36,-18.78 -3.35,-18.89 -3.34,-18.99 -3.30,-19.09 -3.26,-19.19 -3.19,-19.27 -3.12,-19.35 -3.03,-19.40 -2.94,-19.46 -2.83,-19.48 -2.73,-19.50 -2.62,-19.49 -2.52,-19.47 -2.42,-19.43 -2.33,-19.38 -2.25,-19.31 -2.17,-19.23 -2.13,-19.14 -2.08,-19.05 -2.06,-18.94 -2.05,-18.83 -2.06,-18.73 -2.08,-18.63 -2.13,-18.53 -2.18,-18.44 -2.26,-18.37 -2.34,-18.29 -2.44,-18.25 -2.53,-18.21 -2.64,-18.20 -2.75,-18.19 -2.85,-18.21 -2.95,-18.24 -3.04,-18.29 -3.13,-18.35 -3.20,-18.43 -3.27,-18.51 -3.31,-18.61 -3.35,-18.71 -3.35,-18.82 -3.35,-18.92 -3.32,-19.02 -3.30,-19.13 -3.23,-19.21 -3.17,-19.30 -3.09,-19.36 -3.00,-19.43 -2.90,-19.46 -2.80,-19.49 -2.69,-19.49 -2.59,-19.49 -2.49,-19.45 -2.39,-19.42 -2.30,-19.35 -2.22,-19.29 -2.16,-19.20 -2.10,-19.11 -2.08,-19.01 -2.05,-18.91 -2.05,-18.91 -2.05,-18.91 -1.10,-16.81 -0.16,-14.72 -0.13,-13.53 -0.10,-12.34 -0.03,-10.79 0.02,-9.25 0.16,-7.47 0.30,-5.70 0.65,-3.89 0.99,-2.07 0.80,-1.14 0.62,-0.20 0.63,-0.13 0.65,-0.05 0.65,0.02 0.64,0.10 0.62,0.18 0.60,0.25 0.56,0.32 0.52,0.39 0.46,0.45 0.41,0.50 0.34,0.55 0.28,0.59 0.20,0.61 0.13,0.64 0.05,0.64 -0.02,0.65 -0.10,0.64 -0.18,0.63 -0.25,0.59 -0.32,0.56 -0.39,0.52 -0.45,0.47 -0.50,0.41 -0.55,0.35 -0.58,0.27 -0.62,0.20 -0.62,0.20 L -0.62,0.20 Z"/></g><g transform="translate(35.5604248046875 231.40855407714844) rotate(0 -1.825775146484375 -6.846527099609375)" stroke="none"><path fill="#ffffff" d="M -0.62,0.20 Q -0.62,0.20 -1.34,-0.42 -2.06,-1.05 -2.36,-1.49 -2.66,-1.93 -2.92,-2.96 -3.18,-3.99 -3.48,-4.72 -3.77,-5.45 -3.95,-6.49 -4.13,-7.53 -4.54,-10.25 -4.96,-12.97 -4.98,-13.07 -5.01,-13.18 -5.00,-13.28 -5.00,-13.39 -4.96,-13.49 -4.92,-13.58 -4.85,-13.67 -4.78,-13.75 -4.69,-13.80 -4.59,-13.85 -4.49,-13.87 -4.39,-13.90 -4.28,-13.88 -4.18,-13.87 -4.08,-13.83 -3.98,-13.78 -3.91,-13.71 -3.83,-13.63 -3.78,-13.54 -3.73,-13.44 -3.72,-13.34 -3.70,-13.23 -3.72,-13.13 -3.74,-13.02 -3.79,-12.93 -3.84,-12.84 -3.92,-12.77 -4.00,-12.69 -4.09,-12.65 -4.19,-12.61 -4.29,-12.60 -4.40,-12.59 -4.50,-12.61 -4.61,-12.63 -4.70,-12.69 -4.79,-12.74 -4.86,-12.83 -4.92,-12.91 -4.96,-13.01 -5.00,-13.11 -5.01,-13.21 -5.01,-13.32 -4.98,-13.42 -4.95,-13.52 -4.89,-13.61 -4.83,-13.70 -4.74,-13.76 -4.66,-13.82 -4.56,-13.86 -4.46,-13.89 -4.35,-13.89 -4.24,-13.89 -4.14,-13.85 -4.04,-13.82 -3.96,-13.75 -3.88,-13.69 -3.82,-13.60 -3.76,-13.51 -3.76,-13.51 -3.76,-13.51 -2.73,-11.65 -1.70,-9.80 -1.31,-8.94 -0.92,-8.09 -0.82,-7.35 -0.72,-6.61 -0.35,-5.63 0.00,-4.65 0.06,-4.12 0.12,-3.59 0.56,-2.84 1.01,-2.09 0.81,-1.15 0.62,-0.20 0.63,-0.13 0.65,-0.05 0.65,0.02 0.64,0.10 0.62,0.18 0.60,0.25 0.56,0.32 0.52,0.39 0.46,0.45 0.41,0.50 0.34,0.55 0.28,0.59 0.20,0.61 0.13,0.64 0.05,0.64 -0.02,0.65 -0.10,0.64 -0.18,0.63 -0.25,0.59 -0.32,0.56 -0.39,0.52 -0.45,0.47 -0.50,0.41 -0.55,0.35 -0.58,0.27 -0.62,0.20 -0.62,0.20 L -0.62,0.20 Z"/></g><g transform="translate(22.78021240234375 229.5828094482422) rotate(0 1.82574462890625 -1.82574462890625)" stroke="none"><path fill="#ffffff" d="M -0.29,-0.58 Q -0.29,-0.58 0.03,-1.12 0.35,-1.65 1.61,-2.93 2.87,-4.21 3.57,-2.27 4.27,-0.33 4.26,-0.22 4.26,-0.12 4.22,-0.02 4.18,0.07 4.12,0.15 4.05,0.24 3.96,0.29 3.87,0.35 3.77,0.38 3.66,0.40 3.56,0.39 3.45,0.38 3.35,0.34 3.26,0.30 3.18,0.23 3.10,0.15 3.05,0.06 3.00,-0.02 2.98,-0.13 2.96,-0.23 2.97,-0.34 2.99,-0.44 3.04,-0.54 3.08,-0.63 3.16,-0.71 3.23,-0.78 3.33,-0.83 3.43,-0.87 3.53,-0.89 3.64,-0.90 3.74,-0.88 3.84,-0.86 3.94,-0.81 4.03,-0.75 4.10,-0.67 4.17,-0.59 4.21,-0.50 4.25,-0.40 4.26,-0.29 4.27,-0.19 4.24,-0.08 4.22,0.01 4.16,0.10 4.10,0.19 4.02,0.25 3.93,0.32 3.83,0.36 3.73,0.39 3.63,0.39 3.52,0.40 3.42,0.36 3.32,0.33 3.23,0.27 3.15,0.21 3.09,0.12 3.02,0.03 2.99,-0.06 2.96,-0.16 2.96,-0.16 2.96,-0.16 2.33,-0.97 1.70,-1.78 2.38,-1.77 3.05,-1.76 2.87,-1.17 2.69,-0.58 2.22,0.01 1.74,0.60 1.01,0.59 0.29,0.58 0.21,0.61 0.14,0.64 0.06,0.64 -0.01,0.65 -0.09,0.64 -0.16,0.63 -0.24,0.60 -0.31,0.57 -0.38,0.52 -0.44,0.48 -0.49,0.42 -0.54,0.36 -0.58,0.29 -0.61,0.22 -0.63,0.14 -0.65,0.06 -0.65,-0.01 -0.65,-0.09 -0.62,-0.16 -0.60,-0.24 -0.57,-0.31 -0.53,-0.38 -0.47,-0.44 -0.42,-0.50 -0.35,-0.54 -0.29,-0.58 -0.29,-0.58 L -0.29,-0.58 Z"/></g><g transform="translate(26.43170166015625 229.5828094482422) rotate(0 -2.738616943359375 -0.4564208984375)" stroke="none"><path fill="#ffffff" d="M -0.20,0.62 Q -0.20,0.62 -1.10,0.70 -2.00,0.78 -3.60,0.26 -5.20,-0.24 -5.30,-0.26 -5.41,-0.28 -5.50,-0.34 -5.59,-0.39 -5.66,-0.47 -5.73,-0.55 -5.77,-0.65 -5.81,-0.75 -5.82,-0.85 -5.82,-0.96 -5.80,-1.06 -5.77,-1.16 -5.71,-1.25 -5.65,-1.34 -5.57,-1.41 -5.48,-1.47 -5.38,-1.51 -5.28,-1.54 -5.18,-1.54 -5.07,-1.54 -4.97,-1.51 -4.87,-1.48 -4.78,-1.42 -4.70,-1.35 -4.64,-1.27 -4.58,-1.18 -4.55,-1.08 -4.52,-0.97 -4.52,-0.87 -4.53,-0.76 -4.56,-0.66 -4.60,-0.56 -4.67,-0.48 -4.74,-0.40 -4.83,-0.34 -4.92,-0.29 -5.02,-0.26 -5.13,-0.24 -5.23,-0.25 -5.34,-0.26 -5.43,-0.30 -5.53,-0.35 -5.61,-0.42 -5.69,-0.49 -5.74,-0.58 -5.79,-0.68 -5.81,-0.78 -5.83,-0.89 -5.81,-0.99 -5.79,-1.10 -5.75,-1.19 -5.70,-1.29 -5.62,-1.36 -5.54,-1.43 -5.45,-1.48 -5.35,-1.53 -5.25,-1.54 -5.14,-1.55 -5.14,-1.55 -5.14,-1.55 -3.14,-1.69 -1.14,-1.83 -0.46,-1.22 0.20,-0.62 0.27,-0.58 0.35,-0.55 0.41,-0.50 0.47,-0.45 0.52,-0.39 0.56,-0.32 0.59,-0.25 0.63,-0.18 0.64,-0.10 0.65,-0.02 0.64,0.05 0.64,0.13 0.61,0.20 0.59,0.28 0.55,0.34 0.50,0.41 0.45,0.46 0.39,0.52 0.32,0.56 0.25,0.60 0.18,0.62 0.10,0.64 0.02,0.65 -0.05,0.65 -0.13,0.63 -0.20,0.62 -0.20,0.62 L -0.20,0.62 Z"/></g><g transform="translate(166.1009521484375 226.84422302246094) rotate(0 -0.912872314453125 -7.302978515625)" stroke="none"><path fill="#ffffff" d="M -0.65,0 Q -0.65,0 -1.14,-0.78 -1.63,-1.57 -1.63,-2.42 -1.63,-3.28 -1.88,-4.26 -2.12,-5.23 -2.25,-6.62 -2.38,-8.00 -2.69,-9.80 -3.00,-11.59 -3.14,-13.22 -3.28,-14.85 -3.37,-15.00 -3.47,-15.16 -3.46,-15.36 -3.45,-15.57 -3.39,-15.77 -3.33,-15.97 -3.23,-16.16 -3.13,-16.34 -2.98,-16.49 -2.84,-16.64 -2.66,-16.75 -2.49,-16.86 -2.29,-16.93 -2.09,-17.00 -1.88,-17.01 -1.67,-17.03 -1.47,-17.00 -1.26,-16.97 -1.07,-16.88 -0.88,-16.80 -0.71,-16.68 -0.54,-16.55 -0.41,-16.39 -0.28,-16.23 -0.19,-16.04 -0.10,-15.85 -0.05,-15.65 -0.01,-15.44 -0.03,-14.10 -0.05,-12.77 -0.06,-11.20 -0.07,-9.63 0.17,-7.48 0.43,-5.34 0.53,-3.85 0.64,-2.36 0.63,-0.03 0.61,2.30 0.61,2.40 0.60,2.51 0.56,2.61 0.52,2.70 0.45,2.78 0.38,2.86 0.29,2.92 0.19,2.97 0.09,2.99 -0.00,3.01 -0.11,3.00 -0.22,2.99 -0.31,2.94 -0.41,2.89 -0.48,2.82 -0.56,2.75 -0.61,2.65 -0.66,2.56 -0.67,2.45 -0.69,2.35 -0.67,2.24 -0.65,2.14 -0.60,2.04 -0.55,1.95 -0.47,1.88 -0.39,1.81 -0.29,1.76 -0.20,1.72 -0.09,1.71 0.01,1.70 0.11,1.73 0.21,1.75 0.30,1.81 0.39,1.86 0.46,1.95 0.53,2.03 0.57,2.13 0.60,2.23 0.61,2.33 0.61,2.44 0.58,2.54 0.55,2.64 0.49,2.73 0.43,2.82 0.34,2.88 0.26,2.94 0.16,2.97 0.06,3.01 -0.04,3.01 -0.15,3.00 -0.25,2.97 -0.35,2.93 -0.43,2.87 -0.51,2.80 -0.57,2.71 -0.63,2.62 -0.66,2.52 -0.68,2.42 -0.68,2.42 -0.68,2.42 -1.34,1.11 -2.00,-0.19 -2.39,-1.10 -2.79,-2.01 -2.90,-3.48 -3.02,-4.94 -3.28,-7.29 -3.54,-9.65 -3.53,-11.24 -3.52,-12.83 -3.49,-13.99 -3.47,-15.16 -3.46,-15.36 -3.45,-15.57 -3.39,-15.77 -3.33,-15.97 -3.23,-16.16 -3.13,-16.34 -2.98,-16.49 -2.84,-16.64 -2.66,-16.75 -2.49,-16.86 -2.29,-16.93 -2.09,-17.00 -1.88,-17.01 -1.67,-17.03 -1.47,-17.00 -1.26,-16.97 -1.07,-16.88 -0.88,-16.80 -0.71,-16.68 -0.54,-16.55 -0.41,-16.39 -0.28,-16.23 -0.19,-16.04 -0.10,-15.85 -0.05,-15.65 -0.01,-15.44 0.00,-15.31 0.02,-15.17 0.14,-13.65 0.26,-12.13 0.58,-10.21 0.89,-8.29 0.98,-7.12 1.07,-5.96 1.35,-4.63 1.63,-3.30 1.63,-2.43 1.63,-1.57 1.14,-0.78 0.65,0 0.64,0.07 0.63,0.15 0.60,0.23 0.58,0.30 0.53,0.37 0.49,0.43 0.43,0.48 0.37,0.54 0.30,0.57 0.23,0.61 0.15,0.63 0.07,0.65 -0.00,0.65 -0.07,0.65 -0.15,0.63 -0.23,0.61 -0.30,0.57 -0.37,0.54 -0.43,0.48 -0.49,0.43 -0.53,0.37 -0.58,0.30 -0.60,0.23 -0.63,0.15 -0.64,0.07 -0.65,-0.00 -0.65,-0.00 L -0.65,0 Z"/></g><g transform="translate(178.88116455078125 227.75706481933594) rotate(0 -0.456451416015625 -2.73858642578125)" stroke="none"><path fill="#ffffff" d="M -0.65,0 Q -0.65,0 -1.06,-0.78 -1.47,-1.57 -1.50,-2.42 -1.53,-3.27 -1.78,-3.95 -2.03,-4.62 -2.17,-5.35 -2.30,-6.08 -2.36,-6.68 -2.42,-7.28 -2.44,-7.77 -2.46,-8.26 -2.46,-8.45 -2.45,-8.64 -2.40,-8.83 -2.35,-9.01 -2.25,-9.18 -2.16,-9.34 -2.03,-9.48 -1.89,-9.62 -1.73,-9.73 -1.57,-9.83 -1.39,-9.89 -1.21,-9.96 -1.02,-9.97 -0.83,-9.99 -0.64,-9.96 -0.45,-9.93 -0.27,-9.86 -0.09,-9.78 0.05,-9.67 0.20,-9.56 0.33,-9.41 0.45,-9.26 0.53,-9.09 0.62,-8.91 0.66,-8.73 0.70,-8.54 0.72,-7.48 0.74,-6.42 0.74,-5.63 0.74,-4.83 0.74,-3.97 0.74,-3.12 0.98,-2.45 1.21,-1.78 1.35,-0.75 1.49,0.28 0.69,1.10 -0.09,1.91 -0.09,1.99 -0.09,2.07 -0.11,2.15 -0.13,2.23 -0.17,2.30 -0.20,2.37 -0.26,2.43 -0.31,2.49 -0.37,2.53 -0.44,2.58 -0.51,2.60 -0.59,2.63 -0.67,2.64 -0.74,2.65 -0.82,2.64 -0.90,2.63 -0.98,2.60 -1.05,2.58 -1.11,2.53 -1.18,2.49 -1.23,2.43 -1.29,2.37 -1.32,2.30 -1.36,2.23 -1.38,2.15 -1.40,2.08 -1.37,2.17 -1.34,2.27 -1.37,2.16 -1.40,2.06 -1.39,1.96 -1.39,1.85 -1.35,1.75 -1.31,1.65 -1.24,1.57 -1.17,1.49 -1.08,1.44 -0.98,1.38 -0.88,1.36 -0.78,1.34 -0.67,1.35 -0.57,1.36 -0.47,1.41 -0.37,1.45 -0.30,1.53 -0.22,1.60 -0.17,1.70 -0.12,1.79 -0.11,1.89 -0.09,2.00 -0.11,2.10 -0.12,2.21 -0.17,2.30 -0.23,2.40 -0.30,2.47 -0.38,2.54 -0.48,2.58 -0.57,2.63 -0.68,2.64 -0.79,2.65 -0.89,2.63 -0.99,2.60 -1.08,2.55 -1.17,2.49 -1.24,2.41 -1.31,2.33 -1.35,2.23 -1.39,2.13 -1.39,2.03 -1.40,1.92 -1.37,1.82 -1.34,1.71 -1.28,1.63 -1.22,1.54 -1.13,1.48 -1.05,1.41 -0.95,1.38 -0.85,1.35 -0.74,1.35 -0.63,1.35 -0.53,1.38 -0.43,1.42 -0.35,1.48 -0.27,1.55 -0.18,1.73 -0.09,1.91 -0.09,1.99 -0.09,2.07 -0.11,2.15 -0.13,2.23 -0.17,2.30 -0.20,2.37 -0.26,2.43 -0.31,2.49 -0.37,2.53 -0.44,2.58 -0.51,2.60 -0.59,2.63 -0.67,2.64 -0.74,2.65 -0.82,2.64 -0.90,2.63 -0.98,2.60 -1.05,2.58 -1.11,2.53 -1.18,2.49 -1.23,2.43 -1.29,2.37 -1.32,2.30 -1.36,2.23 -1.38,2.15 -1.40,2.08 -1.61,1.38 -1.82,0.69 -1.90,-0.07 -1.98,-0.85 -2.28,-1.96 -2.57,-3.08 -2.57,-3.96 -2.57,-4.83 -2.57,-5.63 -2.56,-6.43 -2.51,-7.35 -2.46,-8.26 -2.46,-8.45 -2.45,-8.64 -2.40,-8.83 -2.35,-9.01 -2.25,-9.18 -2.16,-9.34 -2.03,-9.48 -1.89,-9.62 -1.73,-9.73 -1.57,-9.83 -1.39,-9.89 -1.21,-9.96 -1.02,-9.97 -0.83,-9.99 -0.64,-9.96 -0.45,-9.93 -0.27,-9.86 -0.09,-9.78 0.05,-9.67 0.20,-9.56 0.33,-9.41 0.45,-9.26 0.53,-9.09 0.62,-8.92 0.66,-8.73 0.70,-8.54 0.75,-7.58 0.81,-6.62 0.90,-6.07 0.98,-5.51 1.26,-4.41 1.53,-3.31 1.50,-2.44 1.47,-1.57 1.06,-0.78 0.65,0 0.64,0.07 0.63,0.15 0.60,0.23 0.58,0.30 0.53,0.37 0.49,0.43 0.43,0.48 0.37,0.54 0.30,0.57 0.23,0.61 0.15,0.63 0.07,0.65 -0.00,0.65 -0.07,0.65 -0.15,0.63 -0.23,0.61 -0.30,0.57 -0.37,0.54 -0.43,0.48 -0.49,0.43 -0.53,0.37 -0.58,0.30 -0.60,0.23 -0.63,0.15 -0.64,0.07 -0.65,-0.00 -0.65,-0.00 L -0.65,0 Z"/></g><g transform="translate(186.18408203125 231.40855407714844) rotate(0 -0.4564208984375 -5.47723388671875)" stroke="none"><path fill="#ffffff" d="M -0.62,0.20 Q -0.62,0.20 -1.27,-0.45 -1.93,-1.10 -2.08,-2.10 -2.23,-3.10 -2.30,-4.04 -2.37,-4.99 -2.40,-5.91 -2.43,-6.84 -2.44,-7.49 -2.46,-8.15 -2.48,-8.69 -2.49,-9.23 -2.52,-9.72 -2.55,-10.21 -2.52,-10.41 -2.50,-10.61 -2.43,-10.79 -2.36,-10.98 -2.25,-11.14 -2.14,-11.30 -1.99,-11.44 -1.85,-11.57 -1.67,-11.66 -1.50,-11.75 -1.31,-11.80 -1.11,-11.85 -0.92,-11.85 -0.72,-11.85 -0.53,-11.81 -0.33,-11.76 -0.16,-11.67 0.01,-11.58 0.16,-11.45 0.30,-11.32 0.42,-11.16 0.53,-11.00 0.60,-10.81 0.67,-10.63 0.70,-10.43 0.72,-10.23 0.75,-9.24 0.78,-8.25 0.79,-7.45 0.79,-6.65 0.25,-5.03 -0.27,-3.41 -0.34,-3.34 -0.42,-3.26 -0.51,-3.21 -0.61,-3.16 -0.71,-3.14 -0.82,-3.13 -0.92,-3.15 -1.03,-3.16 -1.12,-3.21 -1.21,-3.26 -1.29,-3.34 -1.36,-3.42 -1.40,-3.52 -1.45,-3.61 -1.46,-3.72 -1.47,-3.82 -1.45,-3.93 -1.42,-4.03 -1.37,-4.12 -1.31,-4.21 -1.23,-4.28 -1.15,-4.35 -1.05,-4.39 -0.95,-4.43 -0.84,-4.43 -0.74,-4.44 -0.64,-4.41 -0.53,-4.38 -0.45,-4.32 -0.36,-4.26 -0.30,-4.17 -0.23,-4.09 -0.20,-3.99 -0.16,-3.89 -0.17,-3.78 -0.17,-3.68 -0.20,-3.57 -0.23,-3.47 -0.30,-3.39 -0.36,-3.31 -0.45,-3.25 -0.54,-3.19 -0.64,-3.16 -0.75,-3.13 -0.85,-3.14 -0.96,-3.14 -1.06,-3.18 -1.15,-3.22 -1.24,-3.29 -1.32,-3.36 -1.37,-3.45 -1.42,-3.54 -1.45,-3.65 -1.47,-3.75 -1.46,-3.86 -1.44,-3.96 -1.40,-4.06 -1.35,-4.16 -1.35,-4.16 -1.35,-4.16 -1.98,-5.41 -2.61,-6.65 -2.61,-7.45 -2.61,-8.25 -2.58,-9.23 -2.55,-10.21 -2.52,-10.41 -2.50,-10.61 -2.43,-10.79 -2.36,-10.98 -2.25,-11.14 -2.14,-11.30 -1.99,-11.43 -1.85,-11.57 -1.67,-11.66 -1.50,-11.75 -1.31,-11.80 -1.11,-11.85 -0.92,-11.85 -0.72,-11.85 -0.53,-11.81 -0.33,-11.76 -0.16,-11.67 0.01,-11.58 0.16,-11.45 0.30,-11.32 0.42,-11.16 0.53,-11.00 0.60,-10.81 0.67,-10.63 0.70,-10.43 0.72,-10.24 0.70,-9.74 0.67,-9.25 0.67,-8.72 0.66,-8.19 0.66,-7.55 0.66,-6.91 0.67,-6.03 0.68,-5.15 0.71,-4.32 0.74,-3.48 0.81,-2.76 0.88,-2.03 0.75,-1.12 0.62,-0.20 0.63,-0.13 0.65,-0.05 0.65,0.02 0.64,0.10 0.62,0.18 0.60,0.25 0.56,0.32 0.52,0.39 0.46,0.45 0.41,0.50 0.34,0.55 0.28,0.59 0.20,0.61 0.13,0.64 0.05,0.64 -0.02,0.65 -0.10,0.64 -0.18,0.63 -0.25,0.59 -0.32,0.56 -0.39,0.52 -0.45,0.47 -0.50,0.41 -0.55,0.35 -0.58,0.27 -0.62,0.20 -0.62,0.20 L -0.62,0.20 Z"/></g><g transform="translate(187.09698486328125 110.90962219238281) rotate(0 -2.282196044921875 12.780181884765625)" stroke="none"><path fill="#1e1e1e" d="M 0.62,0.20 Q 0.62,0.20 0.71,1.11 0.80,2.01 0.50,3.84 0.19,5.68 -0.45,9.12 -1.10,12.56 -1.38,14.51 -1.66,16.46 -1.78,17.78 -1.90,19.11 -2.91,21.95 -3.91,24.79 -3.97,24.88 -4.02,24.98 -4.10,25.05 -4.18,25.11 -4.28,25.15 -4.38,25.19 -4.49,25.20 -4.59,25.21 -4.70,25.18 -4.80,25.15 -4.89,25.09 -4.97,25.03 -5.04,24.95 -5.10,24.86 -5.14,24.76 -5.17,24.66 -5.17,24.55 -5.17,24.45 -5.14,24.35 -5.10,24.25 -5.04,24.16 -4.98,24.08 -4.89,24.02 -4.80,23.96 -4.70,23.93 -4.60,23.90 -4.49,23.91 -4.38,23.91 -4.29,23.95 -4.19,23.99 -4.11,24.06 -4.02,24.13 -3.97,24.22 -3.91,24.31 -3.89,24.41 -3.87,24.52 -3.88,24.62 -3.89,24.73 -3.93,24.82 -3.98,24.92 -4.05,25.00 -4.13,25.07 -4.22,25.12 -4.31,25.17 -4.42,25.19 -4.52,25.21 -4.63,25.19 -4.73,25.17 -4.83,25.13 -4.92,25.08 -4.99,25.00 -5.07,24.92 -5.11,24.83 -5.16,24.73 -5.17,24.62 -5.18,24.52 -5.16,24.41 -5.13,24.31 -5.13,24.31 -5.13,24.31 -5.08,21.57 -5.03,18.83 -4.90,17.41 -4.77,16.00 -4.47,13.98 -4.17,11.96 -3.45,8.53 -2.74,5.10 -2.29,3.11 -1.85,1.13 -1.23,0.46 -0.62,-0.20 -0.58,-0.27 -0.55,-0.35 -0.50,-0.41 -0.45,-0.47 -0.39,-0.52 -0.32,-0.56 -0.25,-0.59 -0.18,-0.63 -0.10,-0.64 -0.02,-0.65 0.05,-0.64 0.13,-0.64 0.20,-0.61 0.28,-0.59 0.34,-0.55 0.41,-0.50 0.46,-0.45 0.52,-0.39 0.56,-0.32 0.60,-0.25 0.62,-0.18 0.64,-0.10 0.65,-0.02 0.65,0.05 0.63,0.13 0.62,0.20 0.62,0.20 L 0.62,0.20 Z"/></g><g transform="translate(181.6197509765625 111.82249450683594) rotate(0 5.93365478515625 1.8257293701171875)" stroke="none"><path fill="#1e1e1e" d="M -0.63,-0.15 Q -0.63,-0.15 -0.74,-1.34 -0.84,-2.53 0.31,-3.84 1.47,-5.15 3.35,-5.45 5.23,-5.76 6.74,-4.95 8.25,-4.14 9.33,-3.26 10.42,-2.37 11.24,-1.36 12.06,-0.36 12.49,1.07 12.92,2.51 12.78,3.87 12.64,5.23 11.65,6.54 10.66,7.86 9.64,8.64 8.63,9.43 6.01,9.56 3.39,9.70 3.28,9.70 3.18,9.69 3.08,9.66 2.98,9.62 2.90,9.55 2.81,9.48 2.76,9.40 2.70,9.31 2.67,9.20 2.65,9.10 2.66,8.99 2.67,8.89 2.71,8.79 2.75,8.69 2.82,8.61 2.89,8.53 2.99,8.48 3.08,8.43 3.18,8.41 3.29,8.39 3.39,8.41 3.50,8.42 3.59,8.47 3.69,8.52 3.76,8.59 3.84,8.67 3.89,8.76 3.93,8.86 3.95,8.96 3.96,9.07 3.94,9.17 3.92,9.28 3.87,9.37 3.81,9.46 3.74,9.53 3.66,9.60 3.56,9.64 3.46,9.69 3.35,9.69 3.25,9.70 3.15,9.68 3.04,9.65 2.95,9.59 2.86,9.54 2.80,9.45 2.73,9.37 2.69,9.27 2.66,9.17 2.66,9.06 2.65,8.96 2.69,8.86 2.72,8.75 2.78,8.67 2.84,8.58 2.93,8.52 3.01,8.46 3.12,8.43 3.22,8.40 3.22,8.40 3.22,8.40 4.99,7.62 6.75,6.84 7.51,6.29 8.26,5.73 8.96,5.13 9.66,4.53 9.80,3.85 9.93,3.18 9.78,2.29 9.63,1.41 9.06,0.66 8.50,-0.08 7.58,-0.86 6.65,-1.64 5.89,-2.28 5.13,-2.92 4.15,-2.92 3.16,-2.93 2.53,-2.29 1.89,-1.66 1.26,-0.75 0.63,0.15 0.60,0.23 0.58,0.30 0.53,0.37 0.49,0.43 0.43,0.48 0.37,0.54 0.30,0.57 0.23,0.61 0.15,0.63 0.07,0.65 -0.00,0.65 -0.08,0.65 -0.15,0.63 -0.23,0.61 -0.30,0.57 -0.37,0.53 -0.43,0.48 -0.49,0.43 -0.53,0.36 -0.58,0.30 -0.61,0.22 -0.63,0.15 -0.64,0.07 -0.65,-0.00 -0.64,-0.08 -0.63,-0.15 -0.63,-0.15 L -0.63,-0.15 Z"/></g><g transform="translate(195.31280517578125 101.78089904785156) rotate(0 4.10791015625 2.738616943359375)" stroke="none"><path fill="#1e1e1e" d="M -0.58,-0.29 Q -0.58,-0.29 -0.67,-1.02 -0.75,-1.76 0.07,-2.48 0.91,-3.21 1.74,-3.52 2.57,-3.84 3.64,-3.51 4.71,-3.18 5.22,-2.28 5.73,-1.39 5.86,-0.42 6.00,0.53 5.76,1.66 5.53,2.79 5.15,3.78 4.78,4.77 4.27,5.58 3.76,6.38 3.14,6.83 2.52,7.29 2.47,6.70 2.43,6.11 4.98,6.39 7.53,6.66 7.63,6.68 7.74,6.69 7.83,6.74 7.93,6.78 8.01,6.86 8.08,6.93 8.13,7.03 8.18,7.12 8.19,7.23 8.21,7.33 8.19,7.44 8.17,7.54 8.12,7.64 8.06,7.73 7.99,7.80 7.91,7.87 7.81,7.91 7.71,7.96 7.61,7.97 7.50,7.97 7.40,7.95 7.29,7.92 7.20,7.87 7.11,7.81 7.05,7.73 6.98,7.65 6.94,7.55 6.91,7.45 6.90,7.34 6.90,7.24 6.93,7.13 6.96,7.03 7.02,6.95 7.08,6.86 7.17,6.80 7.25,6.73 7.36,6.70 7.46,6.67 7.56,6.67 7.67,6.67 7.77,6.71 7.87,6.75 7.95,6.81 8.04,6.88 8.09,6.97 8.15,7.06 8.18,7.16 8.20,7.26 8.20,7.37 8.19,7.47 8.15,7.57 8.11,7.67 8.04,7.75 7.96,7.83 7.87,7.88 7.78,7.94 7.68,7.96 7.57,7.98 7.57,7.98 7.57,7.98 4.46,8.44 1.35,8.91 0.64,8.14 -0.05,7.37 0.52,5.93 1.10,4.50 1.43,4.02 1.75,3.54 2.09,2.76 2.43,1.97 2.64,1.39 2.86,0.81 3.00,-0.10 3.15,-1.02 2.48,-0.67 1.80,-0.33 1.19,-0.02 0.58,0.29 0.54,0.35 0.49,0.42 0.44,0.47 0.38,0.53 0.31,0.57 0.24,0.60 0.16,0.62 0.09,0.65 0.01,0.65 -0.06,0.65 -0.14,0.63 -0.22,0.61 -0.29,0.58 -0.36,0.54 -0.42,0.49 -0.48,0.44 -0.52,0.38 -0.57,0.31 -0.60,0.24 -0.63,0.16 -0.64,0.09 -0.65,0.01 -0.64,-0.06 -0.64,-0.14 -0.61,-0.21 -0.58,-0.29 -0.58,-0.29 L -0.58,-0.29 Z"/></g><g transform="translate(204.4415283203125 121.86405944824219) rotate(0 4.10791015625 0.912872314453125)" stroke="none"><path fill="#1e1e1e" d="M 0,-0.65 Q 0,-0.65 1.57,-1.11 3.14,-1.56 4.10,-1.56 5.05,-1.56 6.65,-0.25 8.24,1.05 8.32,1.12 8.40,1.19 8.45,1.29 8.49,1.38 8.51,1.49 8.53,1.59 8.51,1.70 8.49,1.80 8.44,1.89 8.39,1.99 8.31,2.06 8.23,2.13 8.14,2.18 8.04,2.22 7.94,2.23 7.83,2.24 7.73,2.22 7.62,2.19 7.53,2.14 7.44,2.08 7.37,2.00 7.30,1.92 7.27,1.82 7.23,1.72 7.22,1.62 7.22,1.51 7.25,1.41 7.28,1.31 7.34,1.22 7.40,1.13 7.48,1.07 7.57,1.00 7.67,0.97 7.77,0.94 7.88,0.94 7.98,0.94 8.08,0.97 8.18,1.01 8.27,1.07 8.35,1.14 8.41,1.23 8.47,1.31 8.50,1.42 8.52,1.52 8.52,1.63 8.51,1.73 8.47,1.83 8.43,1.93 8.36,2.01 8.29,2.09 8.20,2.14 8.11,2.20 8.00,2.22 7.90,2.24 7.79,2.23 7.69,2.22 7.59,2.17 7.50,2.13 7.50,2.13 7.50,2.13 6.23,1.84 4.97,1.56 4.06,1.56 3.14,1.56 1.57,1.11 0,0.65 -0.07,0.64 -0.15,0.63 -0.23,0.60 -0.30,0.58 -0.37,0.53 -0.43,0.49 -0.48,0.43 -0.54,0.37 -0.57,0.30 -0.61,0.23 -0.63,0.15 -0.65,0.07 -0.65,-0.00 -0.65,-0.07 -0.63,-0.15 -0.61,-0.23 -0.57,-0.30 -0.54,-0.37 -0.48,-0.43 -0.43,-0.49 -0.37,-0.53 -0.30,-0.58 -0.23,-0.60 -0.15,-0.63 -0.07,-0.64 0.00,-0.65 0.00,-0.65 L 0,-0.65 Z"/></g><g transform="translate(202.61578369140625 129.1670379638672) rotate(0 4.564361572265625 0)" stroke="none"><path fill="#1e1e1e" d="M 0,-0.65 Q 0,-0.65 1.31,-1.08 2.62,-1.51 3.96,-1.50 5.31,-1.50 6.87,-1.08 8.43,-0.65 8.54,-0.63 8.64,-0.62 8.74,-0.57 8.83,-0.52 8.91,-0.44 8.98,-0.36 9.02,-0.27 9.07,-0.17 9.08,-0.07 9.09,0.03 9.07,0.13 9.04,0.24 8.99,0.33 8.94,0.42 8.85,0.49 8.77,0.56 8.67,0.60 8.58,0.64 8.47,0.64 8.36,0.65 8.26,0.62 8.16,0.59 8.07,0.53 7.98,0.47 7.92,0.39 7.85,0.30 7.82,0.20 7.79,0.10 7.79,-0.00 7.79,-0.10 7.82,-0.20 7.85,-0.30 7.92,-0.39 7.98,-0.47 8.07,-0.53 8.16,-0.59 8.26,-0.62 8.36,-0.65 8.47,-0.64 8.58,-0.64 8.67,-0.60 8.77,-0.56 8.85,-0.49 8.94,-0.42 8.99,-0.33 9.04,-0.24 9.07,-0.13 9.09,-0.03 9.08,0.07 9.07,0.17 9.02,0.27 8.98,0.36 8.91,0.44 8.83,0.52 8.74,0.57 8.64,0.62 8.54,0.63 8.43,0.65 8.43,0.65 8.43,0.65 6.87,1.08 5.31,1.50 3.96,1.50 2.62,1.51 1.31,1.08 0,0.65 -0.07,0.64 -0.15,0.63 -0.23,0.60 -0.30,0.58 -0.37,0.53 -0.43,0.49 -0.48,0.43 -0.54,0.37 -0.57,0.30 -0.61,0.23 -0.63,0.15 -0.65,0.07 -0.65,-0.00 -0.65,-0.07 -0.63,-0.15 -0.61,-0.23 -0.57,-0.30 -0.54,-0.37 -0.48,-0.43 -0.43,-0.49 -0.37,-0.53 -0.30,-0.58 -0.23,-0.60 -0.15,-0.63 -0.07,-0.64 0.00,-0.65 0.00,-0.65 L 0,-0.65 Z"/></g><g transform="translate(229.08905029296875 126.42842102050781) rotate(0 -1.36932373046875 1.369293212890625)" stroke="none"><path fill="#1e1e1e" d="M -0.62,0.20 Q -0.62,0.20 -1.25,-0.40 -1.89,-1.01 -2.83,-1.31 -3.78,-1.61 -4.46,-2.08 -5.15,-2.55 -5.82,-2.36 -6.49,-2.17 -7.41,-0.83 -8.33,0.50 -8.63,1.23 -8.93,1.97 -8.77,3.04 -8.61,4.11 -8.20,4.89 -7.79,5.66 -7.07,5.85 -6.34,6.04 -4.83,6.18 -3.32,6.33 -2.00,6.16 -0.67,5.99 0.47,5.23 1.61,4.47 2.65,3.65 3.68,2.84 4.22,1.64 4.76,0.44 5.32,-0.63 5.87,-1.71 5.45,-2.13 5.03,-2.56 4.45,-2.93 3.87,-3.30 2.82,-3.40 1.76,-3.50 -0.16,-3.78 -2.08,-4.07 -2.19,-4.06 -2.29,-4.04 -2.40,-4.06 -2.50,-4.08 -2.59,-4.14 -2.69,-4.19 -2.76,-4.27 -2.83,-4.35 -2.87,-4.44 -2.91,-4.54 -2.92,-4.65 -2.93,-4.75 -2.90,-4.86 -2.88,-4.96 -2.82,-5.05 -2.76,-5.14 -2.68,-5.21 -2.60,-5.27 -2.50,-5.31 -2.40,-5.34 -2.29,-5.35 -2.18,-5.35 -2.08,-5.32 -1.98,-5.29 -1.89,-5.23 -1.81,-5.16 -1.75,-5.08 -1.68,-4.99 -1.65,-4.89 -1.62,-4.79 -1.63,-4.68 -1.63,-4.57 -1.67,-4.47 -1.70,-4.38 -1.77,-4.29 -1.84,-4.21 -1.93,-4.15 -2.02,-4.10 -2.12,-4.07 -2.22,-4.05 -2.33,-4.05 -2.43,-4.06 -2.53,-4.11 -2.63,-4.15 -2.71,-4.22 -2.79,-4.29 -2.84,-4.38 -2.89,-4.47 -2.91,-4.58 -2.93,-4.68 -2.92,-4.79 -2.90,-4.89 -2.85,-4.99 -2.81,-5.08 -2.73,-5.16 -2.66,-5.23 -2.56,-5.28 -2.46,-5.33 -2.46,-5.33 -2.46,-5.33 -0.09,-6.07 2.28,-6.81 3.96,-6.48 5.64,-6.15 6.57,-5.50 7.49,-4.85 8.18,-3.85 8.88,-2.86 8.86,-1.63 8.83,-0.41 8.24,0.76 7.64,1.95 6.68,3.60 5.73,5.26 4.49,6.23 3.25,7.20 1.52,8.16 -0.19,9.12 -1.93,9.31 -3.67,9.49 -5.66,9.23 -7.65,8.96 -8.99,8.19 -10.33,7.42 -11.06,5.94 -11.79,4.46 -11.86,2.69 -11.93,0.92 -11.52,-0.08 -11.12,-1.10 -9.98,-2.80 -8.84,-4.51 -7.80,-4.93 -6.77,-5.35 -5.30,-5.32 -3.83,-5.28 -3.19,-4.88 -2.54,-4.48 -1.41,-3.94 -0.27,-3.39 0.28,-2.76 0.84,-2.13 0.73,-1.17 0.62,-0.20 0.63,-0.13 0.65,-0.05 0.65,0.02 0.64,0.10 0.62,0.18 0.60,0.25 0.56,0.32 0.52,0.39 0.46,0.45 0.41,0.50 0.34,0.55 0.28,0.59 0.20,0.61 0.13,0.64 0.05,0.64 -0.02,0.65 -0.10,0.64 -0.18,0.63 -0.25,0.59 -0.32,0.56 -0.39,0.52 -0.45,0.47 -0.50,0.41 -0.55,0.35 -0.58,0.27 -0.62,0.20 -0.62,0.20 L -0.62,0.20 Z"/></g><g transform="translate(188.00982666015625 97.21653747558594) rotate(0 -1.369293212890625 -13.236618041992188)" stroke="none"><path fill="#1e1e1e" d="M -0.65,0 Q -0.65,0 -1.10,-1.57 -1.54,-3.14 -1.55,-4.08 -1.55,-5.02 -1.27,-6.15 -0.98,-7.27 -0.91,-8.56 -0.83,-9.85 -0.79,-10.96 -0.75,-12.07 -0.73,-13.06 -0.72,-14.06 -0.71,-14.99 -0.71,-15.93 -0.94,-16.64 -1.17,-17.36 -1.31,-18.39 -1.44,-19.41 -2.07,-20.62 -2.70,-21.83 -2.87,-22.49 -3.03,-23.14 -3.61,-24.29 -4.19,-25.43 -4.20,-25.51 -4.22,-25.59 -4.21,-25.67 -4.20,-25.75 -4.18,-25.82 -4.15,-25.90 -4.11,-25.96 -4.06,-26.03 -4.01,-26.08 -3.95,-26.14 -3.88,-26.18 -3.81,-26.22 -3.73,-26.24 -3.66,-26.26 -3.58,-26.26 -3.50,-26.26 -3.42,-26.25 -3.35,-26.23 -3.27,-26.19 -3.20,-26.16 -3.14,-26.11 -3.08,-26.06 -3.03,-25.99 -2.99,-25.93 -2.96,-25.86 -2.93,-25.78 -3.17,-25.38 -3.41,-24.97 -3.52,-24.96 -3.63,-24.95 -3.73,-24.98 -3.83,-25.01 -3.92,-25.07 -4.01,-25.13 -4.07,-25.21 -4.14,-25.30 -4.17,-25.40 -4.21,-25.50 -4.21,-25.60 -4.21,-25.71 -4.18,-25.81 -4.14,-25.91 -4.08,-26.00 -4.02,-26.08 -3.93,-26.14 -3.84,-26.20 -3.74,-26.23 -3.64,-26.26 -3.53,-26.26 -3.42,-26.25 -3.32,-26.21 -3.23,-26.17 -3.14,-26.10 -3.06,-26.04 -3.01,-25.95 -2.95,-25.86 -2.93,-25.75 -2.90,-25.65 -2.92,-25.54 -2.93,-25.44 -2.97,-25.34 -3.01,-25.24 -3.09,-25.17 -3.16,-25.09 -3.25,-25.04 -3.35,-24.99 -3.45,-24.97 -3.56,-24.95 -3.66,-24.97 -3.77,-24.98 -3.86,-25.03 -3.95,-25.08 -4.03,-25.16 -4.10,-25.24 -4.15,-25.33 -4.19,-25.43 -4.20,-25.53 -4.22,-25.64 -4.19,-25.74 -4.17,-25.85 -4.12,-25.94 -4.06,-26.03 -3.98,-26.10 -3.90,-26.17 -4.05,-25.80 -4.19,-25.43 -4.20,-25.51 -4.22,-25.59 -4.21,-25.67 -4.20,-25.75 -4.18,-25.82 -4.15,-25.90 -4.11,-25.96 -4.06,-26.03 -4.01,-26.08 -3.95,-26.14 -3.88,-26.18 -3.81,-26.22 -3.73,-26.24 -3.66,-26.26 -3.58,-26.26 -3.50,-26.26 -3.42,-26.25 -3.35,-26.23 -3.27,-26.19 -3.20,-26.16 -3.14,-26.11 -3.08,-26.06 -3.03,-25.99 -2.99,-25.93 -2.96,-25.86 -2.93,-25.78 -1.52,-25.07 -0.12,-24.36 0.04,-23.81 0.22,-23.26 0.61,-22.44 1.01,-21.63 1.39,-20.74 1.76,-19.85 1.85,-19.04 1.94,-18.22 2.22,-17.08 2.51,-15.93 2.50,-14.96 2.48,-13.99 2.46,-12.97 2.43,-11.94 2.38,-10.77 2.33,-9.61 2.18,-8.02 2.03,-6.43 1.79,-5.71 1.55,-4.99 1.55,-4.07 1.54,-3.14 1.10,-1.57 0.65,0 0.64,0.07 0.63,0.15 0.60,0.23 0.58,0.30 0.53,0.37 0.49,0.43 0.43,0.48 0.37,0.54 0.30,0.57 0.23,0.61 0.15,0.63 0.07,0.65 -0.00,0.65 -0.07,0.65 -0.15,0.63 -0.23,0.61 -0.30,0.57 -0.37,0.54 -0.43,0.48 -0.49,0.43 -0.53,0.37 -0.58,0.30 -0.60,0.23 -0.63,0.15 -0.64,0.07 -0.65,-0.00 -0.65,-0.00 L -0.65,0 Z"/></g><g transform="translate(180.70684814453125 80.78486633300781) rotate(0 6.390106201171875 -7.7593994140625)" stroke="none"><path fill="#1e1e1e" d="M -0.65,0 Q -0.65,0 -1.06,-1.31 -1.48,-2.62 -1.49,-3.70 -1.51,-4.78 -1.52,-6.03 -1.53,-7.28 -1.54,-8.33 -1.55,-9.39 -1.56,-10.38 -1.56,-11.38 -1.23,-12.37 -0.89,-13.37 -0.26,-13.98 0.36,-14.58 1.35,-14.85 2.35,-15.11 2.96,-15.18 3.57,-15.24 4.14,-15.48 4.70,-15.73 6.00,-15.90 7.30,-16.07 9.73,-16.07 12.17,-16.08 12.27,-16.08 12.38,-16.08 12.48,-16.04 12.58,-16.01 12.66,-15.95 12.75,-15.88 12.81,-15.80 12.87,-15.71 12.90,-15.61 12.93,-15.50 12.92,-15.40 12.92,-15.29 12.88,-15.19 12.84,-15.09 12.77,-15.01 12.70,-14.93 12.61,-14.88 12.52,-14.82 12.42,-14.80 12.31,-14.77 12.21,-14.79 12.10,-14.80 12.00,-14.84 11.91,-14.89 11.83,-14.96 11.75,-15.03 11.70,-15.12 11.65,-15.22 11.63,-15.32 11.62,-15.43 11.63,-15.53 11.65,-15.64 11.70,-15.73 11.75,-15.83 11.83,-15.90 11.90,-15.97 12.00,-16.02 12.10,-16.06 12.20,-16.07 12.31,-16.09 12.41,-16.06 12.52,-16.04 12.61,-15.99 12.70,-15.93 12.77,-15.85 12.84,-15.77 12.88,-15.67 12.91,-15.57 12.92,-15.47 12.93,-15.36 12.90,-15.26 12.87,-15.16 12.81,-15.07 12.75,-14.98 12.67,-14.92 12.58,-14.85 12.48,-14.82 12.38,-14.78 12.38,-14.78 12.38,-14.78 10.02,-13.78 7.66,-12.78 6.75,-12.71 5.83,-12.63 4.37,-12.27 2.92,-11.90 2.24,-11.60 1.56,-11.30 1.56,-10.34 1.55,-9.39 1.54,-8.33 1.53,-7.28 1.52,-6.03 1.51,-4.78 1.49,-3.70 1.48,-2.62 1.06,-1.31 0.65,0 0.64,0.07 0.63,0.15 0.60,0.23 0.58,0.30 0.53,0.37 0.49,0.43 0.43,0.48 0.37,0.54 0.30,0.57 0.23,0.61 0.15,0.63 0.07,0.65 -0.00,0.65 -0.07,0.65 -0.15,0.63 -0.23,0.61 -0.30,0.57 -0.37,0.54 -0.43,0.48 -0.49,0.43 -0.53,0.37 -0.58,0.30 -0.60,0.23 -0.63,0.15 -0.64,0.07 -0.65,-0.00 -0.65,-0.00 L -0.65,0 Z"/></g><g stroke-linecap="round"><g transform="translate(108.590087890625 125.51554870605469) rotate(0 -33.776214599609375 -45.6435546875)"><path d="M0 0 C-11.26 -15.21, -56.29 -76.07, -67.55 -91.29 M0 0 C-11.26 -15.21, -56.29 -76.07, -67.55 -91.29" stroke="#6741d9" stroke-width="1" fill="none"/></g></g><mask/><g stroke-linecap="round"><g transform="translate(105.8514404296875 125.51554870605469) rotate(0 -18.257415771484375 -43.81781005859375)"><path d="M0 0 C-6.09 -14.61, -30.43 -73.03, -36.51 -87.64 M0 0 C-6.09 -14.61, -30.43 -73.03, -36.51 -87.64" stroke="#6741d9" stroke-width="1" fill="none"/></g></g><mask/><g stroke-linecap="round"><g transform="translate(108.590087890625 126.42842102050781) rotate(0 -7.7593994140625 -42.44850158691406)"><path d="M0 0 C-2.59 -14.15, -12.93 -70.75, -15.52 -84.9 M0 0 C-2.59 -14.15, -12.93 -70.75, -15.52 -84.9" stroke="#6741d9" stroke-width="1" fill="none"/></g></g><mask/><g stroke-linecap="round"><g transform="translate(109.5029296875 128.25416564941406) rotate(0 5.47723388671875 -44.730682373046875)"><path d="M0 0 C1.83 -14.91, 9.13 -74.55, 10.95 -89.46 M0 0 C1.83 -14.91, 9.13 -74.55, 10.95 -89.46" stroke="#6741d9" stroke-width="1" fill="none"/></g></g><mask/><g stroke-linecap="round"><g transform="translate(106.76434326171875 128.25416564941406) rotate(0 19.626708984375 -44.730682373046875)"><path d="M0 0 C6.54 -14.91, 32.71 -74.55, 39.25 -89.46 M0 0 C6.54 -14.91, 32.71 -74.55, 39.25 -89.46" stroke="#6741d9" stroke-width="1" fill="none"/></g></g><mask/><g stroke-linecap="round"><g transform="translate(109.5029296875 129.1670379638672) rotate(0 33.7762451171875 -47.92572021484375)"><path d="M0 0 C11.26 -15.98, 56.29 -79.88, 67.55 -95.85 M0 0 C11.26 -15.98, 56.29 -79.88, 67.55 -95.85" stroke="#6741d9" stroke-width="1" fill="none"/></g></g><mask/><g stroke-linecap="round"><g transform="translate(52.762298583984375 68.25344467163086) rotate(0 49.97969055175781 -21.90890884399414)"><path d="M0 0 C16.66 2.05, 96.38 21.68, 99.96 12.32 C103.53 2.97, 34.54 -44.73, 21.45 -56.14 M0 0 C16.66 2.05, 96.38 21.68, 99.96 12.32 C103.53 2.97, 34.54 -44.73, 21.45 -56.14" stroke="#ff75a5" stroke-width="2" fill="none"/></g></g><mask/></svg>