<svg version="1.1" xmlns="http://www.w3.org/2000/svg" viewBox="0 0 834.1596450805664 844.3166809082031" width="834.1596450805664" height="844.3166809082031" filter="invert(93%) hue-rotate(180deg)" class="excalidraw-svg"><!-- svg-source:excalidraw --><metadata></metadata><defs><style class="style-fonts">
      </style></defs><rect x="0" y="0" width="834.1596450805664" height="844.3166809082031" fill="transparent"></rect><g stroke-linecap="round" transform="translate(103.77079010009766 243.62367248535156) rotate(0 100.12870025634766 95.26408386230469)"><path d="M200.26 95.26 C200.26 98.38, 200.1 101.5, 199.78 104.6 C199.45 107.7, 198.97 110.8, 198.33 113.85 C197.7 116.9, 196.9 119.94, 195.95 122.92 C195 125.9, 193.89 128.84, 192.64 131.72 C191.38 134.6, 189.98 137.43, 188.43 140.17 C186.89 142.92, 185.2 145.6, 183.38 148.19 C181.57 150.78, 179.6 153.29, 177.53 155.7 C175.45 158.1, 173.24 160.43, 170.93 162.63 C168.62 164.83, 166.18 166.93, 163.65 168.9 C161.12 170.88, 158.48 172.74, 155.76 174.47 C153.04 176.2, 150.21 177.81, 147.33 179.28 C144.44 180.75, 141.47 182.09, 138.45 183.28 C135.42 184.47, 132.33 185.52, 129.19 186.43 C126.06 187.33, 122.87 188.09, 119.66 188.7 C116.45 189.3, 113.2 189.76, 109.94 190.07 C106.69 190.37, 103.4 190.53, 100.13 190.53 C96.86 190.53, 93.57 190.37, 90.31 190.07 C87.06 189.76, 83.8 189.3, 80.59 188.7 C77.39 188.09, 74.19 187.33, 71.06 186.43 C67.93 185.52, 64.83 184.47, 61.81 183.28 C58.79 182.09, 55.81 180.75, 52.93 179.28 C50.04 177.81, 47.22 176.2, 44.5 174.47 C41.78 172.74, 39.14 170.88, 36.61 168.9 C34.08 166.93, 31.64 164.83, 29.33 162.63 C27.01 160.43, 24.8 158.1, 22.73 155.7 C20.65 153.29, 18.69 150.78, 16.87 148.19 C15.06 145.6, 13.37 142.92, 11.82 140.17 C10.28 137.43, 8.87 134.6, 7.62 131.72 C6.37 128.84, 5.26 125.9, 4.31 122.92 C3.36 119.94, 2.56 116.9, 1.92 113.85 C1.29 110.8, 0.8 107.7, 0.48 104.6 C0.16 101.5, 0 98.38, 0 95.26 C0 92.15, 0.16 89.02, 0.48 85.93 C0.8 82.83, 1.29 79.73, 1.92 76.68 C2.56 73.63, 3.36 70.59, 4.31 67.61 C5.26 64.63, 6.37 61.68, 7.62 58.81 C8.87 55.93, 10.28 53.1, 11.82 50.36 C13.37 47.61, 15.06 44.93, 16.87 42.34 C18.69 39.75, 20.65 37.24, 22.73 34.83 C24.8 32.42, 27.01 30.1, 29.33 27.9 C31.64 25.7, 34.08 23.6, 36.61 21.62 C39.14 19.65, 41.78 17.78, 44.5 16.05 C47.22 14.33, 50.04 12.72, 52.93 11.25 C55.81 9.78, 58.79 8.44, 61.81 7.25 C64.83 6.06, 67.93 5.01, 71.06 4.1 C74.19 3.2, 77.39 2.44, 80.59 1.83 C83.8 1.22, 87.06 0.76, 90.31 0.46 C93.57 0.15, 96.86 0, 100.13 0 C103.4 0, 106.69 0.15, 109.94 0.46 C113.2 0.76, 116.45 1.22, 119.66 1.83 C122.87 2.44, 126.06 3.2, 129.19 4.1 C132.33 5.01, 135.42 6.06, 138.45 7.25 C141.47 8.44, 144.44 9.78, 147.33 11.25 C150.21 12.72, 153.04 14.33, 155.76 16.05 C158.48 17.78, 161.12 19.65, 163.65 21.62 C166.18 23.6, 168.62 25.7, 170.93 27.9 C173.24 30.1, 175.45 32.42, 177.53 34.83 C179.6 37.24, 181.57 39.75, 183.38 42.34 C185.2 44.93, 186.89 47.61, 188.43 50.36 C189.98 53.1, 191.38 55.93, 192.64 58.81 C193.89 61.68, 195 64.63, 195.95 67.61 C196.9 70.59, 197.7 73.63, 198.33 76.68 C198.97 79.73, 199.45 82.83, 199.78 85.93 C200.1 89.02, 200.18 93.71, 200.26 95.26 C200.34 96.82, 200.34 93.71, 200.26 95.26" stroke="#6741d9" stroke-width="4" fill="none"></path></g><g stroke-linecap="round" transform="translate(380.3916778564453 467.2382507324219) rotate(0 100.12870025634766 95.26408386230469)"><path d="M200.26 95.26 C200.26 98.38, 200.1 101.5, 199.78 104.6 C199.45 107.7, 198.97 110.8, 198.33 113.85 C197.7 116.9, 196.9 119.94, 195.95 122.92 C195 125.9, 193.89 128.84, 192.64 131.72 C191.38 134.6, 189.98 137.43, 188.43 140.17 C186.89 142.92, 185.2 145.6, 183.38 148.19 C181.57 150.78, 179.6 153.29, 177.53 155.7 C175.45 158.1, 173.24 160.43, 170.93 162.63 C168.62 164.83, 166.18 166.93, 163.65 168.9 C161.12 170.88, 158.48 172.74, 155.76 174.47 C153.04 176.2, 150.21 177.81, 147.33 179.28 C144.44 180.75, 141.47 182.09, 138.45 183.28 C135.42 184.47, 132.33 185.52, 129.19 186.43 C126.06 187.33, 122.87 188.09, 119.66 188.7 C116.45 189.3, 113.2 189.76, 109.94 190.07 C106.69 190.37, 103.4 190.53, 100.13 190.53 C96.86 190.53, 93.57 190.37, 90.31 190.07 C87.06 189.76, 83.8 189.3, 80.59 188.7 C77.39 188.09, 74.19 187.33, 71.06 186.43 C67.93 185.52, 64.83 184.47, 61.81 183.28 C58.79 182.09, 55.81 180.75, 52.93 179.28 C50.04 177.81, 47.22 176.2, 44.5 174.47 C41.78 172.74, 39.14 170.88, 36.61 168.9 C34.08 166.93, 31.64 164.83, 29.33 162.63 C27.01 160.43, 24.8 158.1, 22.73 155.7 C20.65 153.29, 18.69 150.78, 16.87 148.19 C15.06 145.6, 13.37 142.92, 11.82 140.17 C10.28 137.43, 8.87 134.6, 7.62 131.72 C6.37 128.84, 5.26 125.9, 4.31 122.92 C3.36 119.94, 2.56 116.9, 1.92 113.85 C1.29 110.8, 0.8 107.7, 0.48 104.6 C0.16 101.5, 0 98.38, 0 95.26 C0 92.15, 0.16 89.02, 0.48 85.93 C0.8 82.83, 1.29 79.73, 1.92 76.68 C2.56 73.63, 3.36 70.59, 4.31 67.61 C5.26 64.63, 6.37 61.68, 7.62 58.81 C8.87 55.93, 10.28 53.1, 11.82 50.36 C13.37 47.61, 15.06 44.93, 16.87 42.34 C18.69 39.75, 20.65 37.24, 22.73 34.83 C24.8 32.42, 27.01 30.1, 29.33 27.9 C31.64 25.7, 34.08 23.6, 36.61 21.62 C39.14 19.65, 41.78 17.78, 44.5 16.05 C47.22 14.33, 50.04 12.72, 52.93 11.25 C55.81 9.78, 58.79 8.44, 61.81 7.25 C64.83 6.06, 67.93 5.01, 71.06 4.1 C74.19 3.2, 77.39 2.44, 80.59 1.83 C83.8 1.22, 87.06 0.76, 90.31 0.46 C93.57 0.15, 96.86 0, 100.13 0 C103.4 0, 106.69 0.15, 109.94 0.46 C113.2 0.76, 116.45 1.22, 119.66 1.83 C122.87 2.44, 126.06 3.2, 129.19 4.1 C132.33 5.01, 135.42 6.06, 138.45 7.25 C141.47 8.44, 144.44 9.78, 147.33 11.25 C150.21 12.72, 153.04 14.33, 155.76 16.05 C158.48 17.78, 161.12 19.65, 163.65 21.62 C166.18 23.6, 168.62 25.7, 170.93 27.9 C173.24 30.1, 175.45 32.42, 177.53 34.83 C179.6 37.24, 181.57 39.75, 183.38 42.34 C185.2 44.93, 186.89 47.61, 188.43 50.36 C189.98 53.1, 191.38 55.93, 192.64 58.81 C193.89 61.68, 195 64.63, 195.95 67.61 C196.9 70.59, 197.7 73.63, 198.33 76.68 C198.97 79.73, 199.45 82.83, 199.78 85.93 C200.1 89.02, 200.18 93.71, 200.26 95.26 C200.34 96.82, 200.34 93.71, 200.26 95.26" stroke="#6741d9" stroke-width="4" fill="none"></path></g><g stroke-linecap="round" transform="translate(461.5727081298828 190.66632080078125) rotate(0 100.12870025634766 95.26408386230469)"><path d="M200.26 95.26 C200.26 98.38, 200.1 101.5, 199.78 104.6 C199.45 107.7, 198.97 110.8, 198.33 113.85 C197.7 116.9, 196.9 119.94, 195.95 122.92 C195 125.9, 193.89 128.84, 192.64 131.72 C191.38 134.6, 189.98 137.43, 188.43 140.17 C186.89 142.92, 185.2 145.6, 183.38 148.19 C181.57 150.78, 179.6 153.29, 177.53 155.7 C175.45 158.1, 173.24 160.43, 170.93 162.63 C168.62 164.83, 166.18 166.93, 163.65 168.9 C161.12 170.88, 158.48 172.74, 155.76 174.47 C153.04 176.2, 150.21 177.81, 147.33 179.28 C144.44 180.75, 141.47 182.09, 138.45 183.28 C135.42 184.47, 132.33 185.52, 129.19 186.43 C126.06 187.33, 122.87 188.09, 119.66 188.7 C116.45 189.3, 113.2 189.76, 109.94 190.07 C106.69 190.37, 103.4 190.53, 100.13 190.53 C96.86 190.53, 93.57 190.37, 90.31 190.07 C87.06 189.76, 83.8 189.3, 80.59 188.7 C77.39 188.09, 74.19 187.33, 71.06 186.43 C67.93 185.52, 64.83 184.47, 61.81 183.28 C58.79 182.09, 55.81 180.75, 52.93 179.28 C50.04 177.81, 47.22 176.2, 44.5 174.47 C41.78 172.74, 39.14 170.88, 36.61 168.9 C34.08 166.93, 31.64 164.83, 29.33 162.63 C27.01 160.43, 24.8 158.1, 22.73 155.7 C20.65 153.29, 18.69 150.78, 16.87 148.19 C15.06 145.6, 13.37 142.92, 11.82 140.17 C10.28 137.43, 8.87 134.6, 7.62 131.72 C6.37 128.84, 5.26 125.9, 4.31 122.92 C3.36 119.94, 2.56 116.9, 1.92 113.85 C1.29 110.8, 0.8 107.7, 0.48 104.6 C0.16 101.5, 0 98.38, 0 95.26 C0 92.15, 0.16 89.02, 0.48 85.93 C0.8 82.83, 1.29 79.73, 1.92 76.68 C2.56 73.63, 3.36 70.59, 4.31 67.61 C5.26 64.63, 6.37 61.68, 7.62 58.81 C8.87 55.93, 10.28 53.1, 11.82 50.36 C13.37 47.61, 15.06 44.93, 16.87 42.34 C18.69 39.75, 20.65 37.24, 22.73 34.83 C24.8 32.42, 27.01 30.1, 29.33 27.9 C31.64 25.7, 34.08 23.6, 36.61 21.62 C39.14 19.65, 41.78 17.78, 44.5 16.05 C47.22 14.33, 50.04 12.72, 52.93 11.25 C55.81 9.78, 58.79 8.44, 61.81 7.25 C64.83 6.06, 67.93 5.01, 71.06 4.1 C74.19 3.2, 77.39 2.44, 80.59 1.83 C83.8 1.22, 87.06 0.76, 90.31 0.46 C93.57 0.15, 96.86 0, 100.13 0 C103.4 0, 106.69 0.15, 109.94 0.46 C113.2 0.76, 116.45 1.22, 119.66 1.83 C122.87 2.44, 126.06 3.2, 129.19 4.1 C132.33 5.01, 135.42 6.06, 138.45 7.25 C141.47 8.44, 144.44 9.78, 147.33 11.25 C150.21 12.72, 153.04 14.33, 155.76 16.05 C158.48 17.78, 161.12 19.65, 163.65 21.62 C166.18 23.6, 168.62 25.7, 170.93 27.9 C173.24 30.1, 175.45 32.42, 177.53 34.83 C179.6 37.24, 181.57 39.75, 183.38 42.34 C185.2 44.93, 186.89 47.61, 188.43 50.36 C189.98 53.1, 191.38 55.93, 192.64 58.81 C193.89 61.68, 195 64.63, 195.95 67.61 C196.9 70.59, 197.7 73.63, 198.33 76.68 C198.97 79.73, 199.45 82.83, 199.78 85.93 C200.1 89.02, 200.18 93.71, 200.26 95.26 C200.34 96.82, 200.34 93.71, 200.26 95.26" stroke="#6741d9" stroke-width="4" fill="none"></path></g><g stroke-linecap="round"><g transform="translate(10 86.98695373535156) rotate(0 101.44374084472656 334.22621154785156)"><path d="M0 0 C33.81 111.41, 169.07 557.04, 202.89 668.45 M0 0 C33.81 111.41, 169.07 557.04, 202.89 668.45" stroke="#c2255c" stroke-width="2" fill="none"></path></g></g><mask></mask><g stroke-linecap="round"><g transform="translate(106.4518814086914 60.31976318359375) rotate(0 29.387603759765625 94.4635009765625)"><path d="M0 0 C9.8 31.49, 48.98 157.44, 58.78 188.93 M0 0 C9.8 31.49, 48.98 157.44, 58.78 188.93" stroke="#c2255c" stroke-width="2" fill="none"></path></g></g><mask></mask><g stroke-linecap="round"><g transform="translate(222.8085708618164 14.989013671875) rotate(0 78.81617736816406 251.8503875732422)"><path d="M0 0 C26.27 83.95, 131.36 419.75, 157.63 503.7 M0 0 C26.27 83.95, 131.36 419.75, 157.63 503.7" stroke="#c2255c" stroke-width="2" fill="none"></path></g></g><mask></mask><g stroke-linecap="round"><g transform="translate(229.41851043701172 435.0961608886719) rotate(0 55.992950439453125 170.1224365234375)"><path d="M0 0 C18.66 56.71, 93.32 283.54, 111.99 340.24 M0 0 C18.66 56.71, 93.32 283.54, 111.99 340.24" stroke="#c2255c" stroke-width="2" fill="none"></path></g></g><mask></mask><g stroke-linecap="round"><g transform="translate(423.0156021118164 643.6166687011719) rotate(0 33.23493957519531 95.35000610351562)"><path d="M0 0 C11.08 31.78, 55.39 158.92, 66.47 190.7 M0 0 C11.08 31.78, 55.39 158.92, 66.47 190.7" stroke="#c2255c" stroke-width="2" fill="none"></path></g></g><mask></mask><g stroke-linecap="round"><g transform="translate(350.30252838134766 10.73089599609375) rotate(0 65.05702209472656 225.9033660888672)"><path d="M0 0 C21.69 75.3, 108.43 376.51, 130.11 451.81 M0 0 C21.69 75.3, 108.43 376.51, 130.11 451.81" stroke="#c2255c" stroke-width="2" fill="none"></path></g></g><mask></mask><g stroke-linecap="round"><g transform="translate(541.2060928344727 648.946533203125) rotate(0 32.15899658203125 83.07545471191406)"><path d="M0 0 C10.72 27.69, 53.6 138.46, 64.32 166.15 M0 0 C10.72 27.69, 53.6 138.46, 64.32 166.15" stroke="#c2255c" stroke-width="2" fill="none"></path></g></g><mask></mask><g stroke-linecap="round"><g transform="translate(499.6115188598633 20.050506591796875) rotate(0 21.758102416992188 81.88209533691406)"><path d="M0 0 C7.25 27.29, 36.26 136.47, 43.52 163.76 M0 0 C7.25 27.29, 36.26 136.47, 43.52 163.76" stroke="#c2255c" stroke-width="2" fill="none"></path></g></g><mask></mask><g stroke-linecap="round"><g transform="translate(610.055305480957 376.8083801269531) rotate(0 75.45787048339844 228.3582763671875)"><path d="M0 0 C25.15 76.12, 125.76 380.6, 150.92 456.72 M0 0 C25.15 76.12, 125.76 380.6, 150.92 456.72" stroke="#c2255c" stroke-width="2" fill="none"></path></g></g><mask></mask><g stroke-linecap="round"><g transform="translate(621.2721633911133 10) rotate(0 101.44374084472656 334.22621154785156)"><path d="M0 0 C33.81 111.41, 169.07 557.04, 202.89 668.45 M0 0 C33.81 111.41, 169.07 557.04, 202.89 668.45" stroke="#c2255c" stroke-width="2" fill="none"></path></g></g><mask></mask><g transform="translate(434.9681930541992 107.85365295410156) rotate(0 -1.075958251953125 14.047531127929688)" stroke="none"><path fill="#6741d9" d="M 0.65,0.01 Q 0.65,0.01 0.84,1.26 1.02,2.50 0.95,3.89 0.87,5.28 0.74,7.28 0.61,9.28 0.39,11.59 0.17,13.90 -0.02,15.77 -0.22,17.64 -0.38,19.06 -0.54,20.48 -0.64,21.56 -0.74,22.64 -0.78,23.45 -0.82,24.26 -0.91,25.95 -1.00,27.63 -0.96,27.73 -0.93,27.83 -0.92,27.94 -0.92,28.04 -0.95,28.15 -0.98,28.25 -1.04,28.33 -1.11,28.42 -1.19,28.48 -1.28,28.54 -1.38,28.58 -1.48,28.61 -1.59,28.60 -1.69,28.60 -1.79,28.57 -1.89,28.53 -1.98,28.46 -2.06,28.40 -2.12,28.31 -2.17,28.22 -2.20,28.11 -2.23,28.01 -2.22,27.91 -2.21,27.80 -2.17,27.70 -2.12,27.60 -2.05,27.52 -1.98,27.45 -1.89,27.39 -1.80,27.34 -1.69,27.32 -1.59,27.30 -1.48,27.31 -1.38,27.33 -1.28,27.38 -1.19,27.42 -1.11,27.50 -1.04,27.57 -0.99,27.67 -0.94,27.76 -0.93,27.87 -0.91,27.97 -0.93,28.08 -0.95,28.18 -1.01,28.27 -1.06,28.37 -1.14,28.44 -1.22,28.51 -1.31,28.55 -1.41,28.59 -1.52,28.60 -1.62,28.61 -1.73,28.59 -1.83,28.56 -1.92,28.50 -2.01,28.45 -2.08,28.36 -2.14,28.28 -2.14,28.28 -2.14,28.28 -2.74,26.20 -3.34,24.12 -3.29,23.26 -3.24,22.40 -3.12,21.29 -3.01,20.19 -2.84,18.78 -2.67,17.36 -2.44,15.51 -2.22,13.66 -1.98,11.38 -1.73,9.10 -1.56,7.11 -1.39,5.13 -1.28,3.78 -1.17,2.43 -0.91,1.20 -0.65,-0.01 -0.64,-0.09 -0.63,-0.17 -0.60,-0.24 -0.57,-0.32 -0.52,-0.38 -0.47,-0.45 -0.41,-0.50 -0.35,-0.55 -0.28,-0.58 -0.21,-0.62 -0.13,-0.63 -0.05,-0.65 0.01,-0.65 0.09,-0.64 0.17,-0.62 0.25,-0.60 0.32,-0.56 0.38,-0.52 0.44,-0.47 0.50,-0.42 0.54,-0.35 0.59,-0.28 0.61,-0.21 0.64,-0.13 0.64,-0.05 0.65,0.01 0.65,0.01 L 0.65,0.01 Z"></path></g><g transform="translate(449.44466400146484 117.80967712402344) rotate(0 5.0862884521484375 2.38671875)" stroke="none"><path fill="#6741d9" d="M 0.42,0.50 Q 0.42,0.50 -0.03,1.10 -0.48,1.70 -0.80,2.14 -1.13,2.59 -1.60,3.37 -2.08,4.15 -2.45,4.91 -2.82,5.67 -3.11,6.41 -3.41,7.15 -3.65,7.92 -3.89,8.70 -4.08,9.47 -4.26,10.23 -4.32,10.87 -4.39,11.50 -4.37,12.10 -4.36,12.70 -4.30,13.26 -4.24,13.82 -3.80,14.56 -3.35,15.30 -2.77,15.35 -2.20,15.41 -1.64,15.19 -1.08,14.98 0.15,14.22 1.39,13.47 2.55,12.60 3.71,11.73 4.82,10.79 5.92,9.86 6.92,8.84 7.92,7.83 8.77,6.75 9.61,5.67 10.38,4.49 11.16,3.31 11.91,1.83 12.67,0.35 13.15,-0.83 13.63,-2.01 13.87,-3.00 14.11,-3.99 14.23,-4.90 14.35,-5.81 14.32,-6.57 14.30,-7.33 14.15,-7.93 13.99,-8.53 13.75,-9.02 13.50,-9.51 12.76,-10.00 12.02,-10.48 11.45,-10.58 10.87,-10.68 9.97,-10.48 9.08,-10.27 8.18,-9.93 7.28,-9.60 6.48,-9.14 5.68,-8.68 4.99,-8.13 4.29,-7.58 3.72,-6.94 3.15,-6.31 2.76,-5.73 2.37,-5.15 2.13,-4.59 1.88,-4.04 1.81,-3.49 1.73,-2.95 1.85,-2.38 1.97,-1.82 2.49,-1.16 3.02,-0.51 4.11,-0.26 5.21,-0.01 6.25,-0.11 7.30,-0.20 8.28,-0.34 9.27,-0.48 11.58,-1.01 13.88,-1.54 13.99,-1.54 14.10,-1.54 14.20,-1.51 14.30,-1.47 14.38,-1.41 14.46,-1.34 14.52,-1.25 14.58,-1.17 14.61,-1.06 14.64,-0.96 14.63,-0.85 14.63,-0.75 14.59,-0.65 14.55,-0.55 14.48,-0.47 14.41,-0.39 14.32,-0.34 14.23,-0.28 14.12,-0.26 14.02,-0.24 13.91,-0.25 13.81,-0.26 13.71,-0.31 13.61,-0.35 13.54,-0.43 13.46,-0.50 13.41,-0.59 13.36,-0.69 13.35,-0.79 13.33,-0.90 13.35,-1.00 13.36,-1.11 13.41,-1.20 13.47,-1.29 13.54,-1.37 13.62,-1.44 13.72,-1.48 13.81,-1.53 13.92,-1.54 14.03,-1.55 14.13,-1.53 14.23,-1.50 14.32,-1.45 14.41,-1.39 14.48,-1.31 14.55,-1.23 14.59,-1.13 14.63,-1.03 14.63,-0.92 14.64,-0.82 14.61,-0.72 14.58,-0.61 14.52,-0.53 14.46,-0.44 14.37,-0.38 14.29,-0.31 14.19,-0.28 14.09,-0.24 14.09,-0.24 14.09,-0.24 11.89,0.86 9.70,1.97 8.61,2.19 7.52,2.41 6.16,2.52 4.80,2.63 3.82,2.44 2.84,2.26 2.00,1.82 1.17,1.38 0.60,0.75 0.04,0.13 -0.28,-0.63 -0.62,-1.40 -0.72,-2.38 -0.83,-3.37 -0.65,-4.24 -0.47,-5.11 -0.11,-5.85 0.23,-6.60 0.73,-7.33 1.23,-8.06 1.96,-8.84 2.68,-9.62 3.54,-10.28 4.39,-10.95 5.38,-11.51 6.37,-12.06 7.48,-12.46 8.58,-12.86 9.94,-13.08 11.30,-13.30 12.22,-13.11 13.15,-12.92 13.97,-12.48 14.80,-12.04 15.37,-11.37 15.94,-10.71 16.29,-9.94 16.65,-9.18 16.84,-8.29 17.04,-7.40 17.06,-6.42 17.07,-5.45 16.92,-4.38 16.77,-3.32 16.47,-2.15 16.16,-0.98 15.63,0.30 15.10,1.60 14.26,3.21 13.43,4.81 12.58,6.08 11.73,7.35 10.79,8.54 9.84,9.73 8.74,10.82 7.65,11.91 6.48,12.89 5.31,13.87 4.02,14.82 2.73,15.77 1.20,16.63 -0.32,17.48 -1.33,17.74 -2.34,17.99 -3.22,17.86 -4.10,17.73 -4.72,17.31 -5.35,16.88 -5.78,16.26 -6.22,15.64 -6.48,14.85 -6.74,14.07 -6.79,13.39 -6.85,12.70 -6.83,11.95 -6.82,11.20 -6.70,10.42 -6.59,9.63 -6.36,8.80 -6.13,7.96 -5.83,7.11 -5.53,6.25 -5.18,5.45 -4.82,4.64 -4.37,3.80 -3.91,2.97 -3.33,2.11 -2.74,1.26 -2.25,0.72 -1.76,0.17 -1.09,-0.16 -0.42,-0.50 -0.35,-0.54 -0.28,-0.58 -0.21,-0.61 -0.13,-0.64 -0.06,-0.64 0.01,-0.65 0.09,-0.64 0.17,-0.63 0.24,-0.60 0.32,-0.57 0.38,-0.52 0.44,-0.47 0.50,-0.41 0.55,-0.35 0.58,-0.28 0.62,-0.21 0.63,-0.13 0.65,-0.06 0.65,0.01 0.64,0.09 0.62,0.17 0.60,0.25 0.56,0.31 0.52,0.38 0.47,0.44 0.42,0.50 0.42,0.50 L 0.42,0.50 Z"></path></g><g transform="translate(461.5735092163086 129.8114471435547) rotate(0 4.33642578125 -1.3979339599609375)" stroke="none"><path fill="#6741d9" d="M -0.29,-0.58 Q -0.29,-0.58 0.41,-1.26 1.13,-1.93 1.68,-2.36 2.23,-2.79 2.81,-3.31 3.39,-3.82 4.04,-4.42 4.70,-5.02 5.16,-5.45 5.62,-5.89 6.07,-6.35 6.52,-6.81 6.93,-7.18 7.34,-7.54 7.47,-7.66 7.60,-7.79 7.76,-7.87 7.91,-7.96 8.08,-8.00 8.26,-8.05 8.43,-8.05 8.61,-8.05 8.78,-8.01 8.96,-7.97 9.12,-7.89 9.27,-7.81 9.41,-7.70 9.54,-7.58 9.65,-7.44 9.75,-7.29 9.82,-7.13 9.88,-6.96 9.91,-6.79 9.93,-6.61 9.91,-6.44 9.89,-6.26 9.83,-6.09 9.77,-5.93 9.67,-5.78 9.58,-5.63 9.45,-5.51 9.31,-5.39 8.91,-4.36 8.51,-3.33 8.18,-2.65 7.84,-1.97 7.45,-1.28 7.06,-0.58 6.69,0.10 6.32,0.79 6.11,1.28 5.91,1.77 5.54,2.53 5.17,3.28 5.25,3.35 5.34,3.42 5.39,3.50 5.45,3.59 5.48,3.70 5.51,3.80 5.50,3.90 5.49,4.01 5.45,4.11 5.41,4.21 5.34,4.29 5.27,4.37 5.18,4.42 5.09,4.47 4.99,4.50 4.88,4.52 4.78,4.50 4.67,4.49 4.57,4.45 4.48,4.40 4.40,4.33 4.33,4.25 4.28,4.16 4.23,4.06 4.21,3.96 4.20,3.85 4.22,3.75 4.23,3.64 4.28,3.55 4.34,3.46 4.41,3.39 4.49,3.31 4.59,3.27 4.69,3.23 4.79,3.22 4.90,3.21 5.00,3.23 5.10,3.25 5.19,3.31 5.28,3.37 5.35,3.45 5.42,3.53 5.46,3.63 5.50,3.73 5.50,3.83 5.51,3.94 5.48,4.04 5.45,4.14 5.39,4.23 5.32,4.32 5.24,4.38 5.15,4.45 5.05,4.48 4.95,4.51 4.85,4.51 4.74,4.51 4.64,4.47 4.54,4.44 4.54,4.44 4.54,4.44 3.77,2.48 3.00,0.53 3.27,-0.08 3.54,-0.70 3.93,-1.43 4.33,-2.15 4.68,-2.75 5.04,-3.36 5.40,-4.08 5.76,-4.79 6.28,-5.75 6.79,-6.71 7.20,-7.25 7.60,-7.79 7.76,-7.87 7.91,-7.96 8.08,-8.00 8.26,-8.05 8.43,-8.05 8.61,-8.05 8.78,-8.01 8.96,-7.97 9.12,-7.89 9.27,-7.81 9.41,-7.70 9.54,-7.58 9.65,-7.44 9.75,-7.29 9.82,-7.13 9.88,-6.96 9.91,-6.79 9.93,-6.61 9.91,-6.44 9.89,-6.26 9.83,-6.09 9.77,-5.93 9.67,-5.78 9.58,-5.63 9.45,-5.51 9.31,-5.39 8.87,-5.10 8.43,-4.80 7.93,-4.34 7.44,-3.88 6.95,-3.45 6.45,-3.02 5.75,-2.43 5.05,-1.84 4.37,-1.30 3.69,-0.75 2.96,-0.27 2.24,0.21 1.26,0.39 0.29,0.58 0.22,0.61 0.15,0.63 0.07,0.64 -0.00,0.65 -0.08,0.64 -0.16,0.63 -0.23,0.60 -0.31,0.57 -0.37,0.53 -0.44,0.48 -0.49,0.42 -0.54,0.36 -0.58,0.29 -0.61,0.22 -0.63,0.14 -0.65,0.07 -0.65,-0.00 -0.65,-0.08 -0.63,-0.16 -0.61,-0.23 -0.57,-0.30 -0.53,-0.37 -0.48,-0.43 -0.43,-0.49 -0.36,-0.54 -0.29,-0.58 -0.29,-0.58 L -0.29,-0.58 Z"></path></g><g transform="translate(477.81063079833984 110.78590393066406) rotate(0 4.792877197265625 8.14080810546875)" stroke="none"><path fill="#6741d9" d="M 0.23,-0.61 Q 0.23,-0.61 1.13,-0.67 2.02,-0.73 2.85,-0.35 3.68,0.03 4.50,0.44 5.32,0.85 6.08,1.32 6.84,1.80 7.38,2.19 7.92,2.58 8.46,3.02 8.99,3.46 9.58,4.12 10.18,4.78 10.59,5.43 11.01,6.08 11.27,6.81 11.54,7.55 11.62,8.32 11.71,9.09 11.55,9.96 11.39,10.84 11.11,11.60 10.84,12.36 10.47,13.06 10.09,13.76 9.65,14.37 9.20,14.98 8.62,15.54 8.04,16.10 6.22,16.65 4.40,17.21 4.30,17.23 4.19,17.24 4.09,17.22 3.98,17.21 3.89,17.15 3.80,17.10 3.73,17.02 3.65,16.95 3.61,16.85 3.57,16.75 3.56,16.65 3.55,16.54 3.57,16.44 3.60,16.33 3.65,16.24 3.71,16.15 3.79,16.09 3.87,16.02 3.97,15.98 4.07,15.94 4.18,15.94 4.28,15.93 4.39,15.97 4.49,16.00 4.58,16.06 4.66,16.12 4.73,16.20 4.79,16.29 4.82,16.39 4.85,16.49 4.85,16.60 4.85,16.70 4.81,16.80 4.78,16.90 4.71,16.99 4.65,17.07 4.56,17.13 4.47,17.19 4.37,17.21 4.26,17.24 4.16,17.23 4.05,17.23 3.95,17.18 3.86,17.14 3.78,17.07 3.70,17.00 3.64,16.91 3.59,16.82 3.57,16.72 3.55,16.61 3.56,16.51 3.57,16.40 3.62,16.31 3.67,16.21 3.74,16.13 3.81,16.06 3.91,16.01 4.00,15.96 4.00,15.96 4.00,15.96 4.82,14.74 5.64,13.52 6.35,12.78 7.05,12.04 7.34,11.57 7.63,11.10 7.86,10.57 8.09,10.04 8.25,9.27 8.41,8.50 8.08,7.67 7.76,6.84 7.35,6.33 6.94,5.82 6.52,5.43 6.10,5.05 5.64,4.71 5.18,4.36 4.55,3.93 3.93,3.50 3.15,3.08 2.38,2.66 1.68,2.28 0.97,1.91 0.36,1.26 -0.23,0.61 -0.30,0.57 -0.37,0.53 -0.43,0.48 -0.49,0.42 -0.54,0.36 -0.58,0.29 -0.61,0.22 -0.63,0.14 -0.64,0.07 -0.65,-0.00 -0.64,-0.08 -0.63,-0.16 -0.60,-0.23 -0.57,-0.31 -0.53,-0.37 -0.48,-0.44 -0.42,-0.49 -0.36,-0.54 -0.29,-0.58 -0.22,-0.61 -0.14,-0.63 -0.07,-0.65 0.00,-0.65 0.08,-0.65 0.16,-0.63 0.23,-0.61 0.23,-0.61 L 0.23,-0.61 Z"></path></g><g transform="translate(461.2474594116211 142.0859832763672) rotate(0 7.17303466796875 15.547760009765625)" stroke="none"><path fill="#6741d9" d="M -0.04,-0.65 Q -0.04,-0.65 0.54,-1.05 1.13,-1.45 1.83,-1.31 2.52,-1.18 3.18,-0.74 3.83,-0.30 4.22,0.10 4.61,0.50 5.36,1.52 6.12,2.54 6.87,3.79 7.62,5.03 8.37,6.50 9.11,7.98 9.81,9.53 10.51,11.09 11.13,12.67 11.76,14.25 12.28,15.83 12.80,17.42 13.18,18.68 13.55,19.95 13.87,21.24 14.18,22.52 14.42,23.36 14.66,24.20 14.84,24.85 15.02,25.49 15.22,26.23 15.43,26.98 15.00,29.18 14.58,31.38 14.54,31.48 14.50,31.58 14.43,31.66 14.36,31.74 14.27,31.79 14.18,31.85 14.08,31.87 13.97,31.89 13.87,31.88 13.76,31.87 13.67,31.82 13.57,31.78 13.49,31.71 13.41,31.63 13.36,31.54 13.32,31.45 13.30,31.34 13.28,31.24 13.30,31.13 13.32,31.03 13.37,30.93 13.42,30.84 13.49,30.77 13.57,30.69 13.67,30.65 13.76,30.60 13.87,30.59 13.97,30.58 14.08,30.60 14.18,30.63 14.27,30.68 14.36,30.74 14.43,30.82 14.50,30.90 14.54,31.00 14.58,31.10 14.59,31.20 14.59,31.31 14.56,31.41 14.53,31.51 14.47,31.60 14.41,31.69 14.33,31.75 14.24,31.82 14.14,31.85 14.04,31.89 13.94,31.89 13.83,31.88 13.73,31.85 13.63,31.82 13.54,31.75 13.46,31.69 13.40,31.60 13.34,31.51 13.31,31.41 13.29,31.31 13.29,31.20 13.30,31.09 13.30,31.09 13.30,31.10 12.88,29.50 12.45,27.91 12.21,27.12 11.97,26.33 11.79,25.69 11.61,25.05 11.37,24.16 11.12,23.27 10.83,22.05 10.54,20.83 10.19,19.61 9.83,18.38 9.35,16.88 8.87,15.38 8.28,13.86 7.69,12.34 7.04,10.84 6.38,9.34 5.70,7.95 5.02,6.57 4.36,5.42 3.70,4.28 3.07,3.36 2.45,2.45 1.85,1.87 1.26,1.29 0.65,0.97 0.04,0.65 -0.03,0.65 -0.11,0.64 -0.19,0.62 -0.26,0.60 -0.33,0.55 -0.40,0.51 -0.45,0.46 -0.51,0.40 -0.55,0.33 -0.59,0.27 -0.62,0.19 -0.64,0.12 -0.65,0.04 -0.65,-0.03 -0.64,-0.11 -0.62,-0.19 -0.59,-0.26 -0.56,-0.33 -0.51,-0.39 -0.46,-0.46 -0.40,-0.51 -0.34,-0.56 -0.27,-0.59 -0.19,-0.62 -0.12,-0.64 -0.04,-0.65 -0.04,-0.65 L -0.04,-0.65 Z"></path></g><g transform="translate(464.96443939208984 164.72572326660156) rotate(0 9.064056396484375 9.444564819335938)" stroke="none"><path fill="#6741d9" d="M 0.55,-0.34 Q 0.55,-0.34 1.27,0.54 1.98,1.43 2.60,2.47 3.21,3.50 3.95,4.73 4.69,5.95 5.68,7.64 6.67,9.33 7.50,10.66 8.32,11.99 9.09,13.04 9.87,14.10 10.70,14.99 11.53,15.88 12.11,16.39 12.68,16.89 13.27,16.97 13.86,17.05 14.53,16.01 15.20,14.98 15.60,13.96 16.00,12.93 16.44,11.21 16.87,9.49 17.07,7.13 17.27,4.77 17.29,4.66 17.30,4.56 17.35,4.46 17.40,4.37 17.48,4.30 17.56,4.22 17.65,4.18 17.75,4.13 17.86,4.12 17.96,4.11 18.07,4.14 18.17,4.16 18.26,4.21 18.35,4.27 18.42,4.35 18.49,4.43 18.53,4.53 18.57,4.63 18.57,4.73 18.58,4.84 18.55,4.94 18.52,5.04 18.46,5.13 18.40,5.22 18.32,5.28 18.23,5.35 18.13,5.38 18.03,5.42 17.92,5.42 17.82,5.42 17.72,5.38 17.62,5.35 17.53,5.28 17.45,5.22 17.39,5.13 17.33,5.04 17.30,4.94 17.27,4.84 17.28,4.73 17.28,4.63 17.32,4.53 17.36,4.43 17.43,4.35 17.50,4.27 17.59,4.21 17.68,4.16 17.79,4.13 17.89,4.11 18.00,4.12 18.10,4.14 18.20,4.18 18.29,4.22 18.37,4.30 18.45,4.37 18.50,4.47 18.55,4.56 18.56,4.66 18.58,4.77 18.58,4.77 18.58,4.77 18.59,7.25 18.61,9.72 18.52,11.78 18.43,13.83 17.95,15.14 17.48,16.45 16.74,17.51 16.01,18.58 15.15,19.11 14.30,19.64 13.36,19.63 12.43,19.63 11.68,19.21 10.94,18.80 10.30,18.18 9.66,17.55 8.78,16.52 7.90,15.49 7.12,14.34 6.33,13.19 5.51,11.82 4.70,10.44 3.77,8.72 2.85,7.00 2.16,5.74 1.47,4.47 0.94,3.44 0.41,2.41 -0.07,1.37 -0.55,0.34 -0.59,0.27 -0.62,0.20 -0.63,0.12 -0.65,0.04 -0.65,-0.02 -0.64,-0.10 -0.62,-0.18 -0.60,-0.26 -0.56,-0.32 -0.52,-0.39 -0.46,-0.45 -0.41,-0.51 -0.34,-0.55 -0.27,-0.59 -0.20,-0.61 -0.12,-0.64 -0.04,-0.65 0.03,-0.65 0.10,-0.64 0.18,-0.62 0.25,-0.59 0.33,-0.56 0.39,-0.51 0.45,-0.47 0.50,-0.40 0.55,-0.34 0.55,-0.34 L 0.55,-0.34 Z"></path></g><g transform="translate(176.41381072998047 194.11643981933594) rotate(0 0.06520843505859375 11.490310668945312)" stroke="none"><path fill="#6741d9" d="M -0.64,-0.09 Q -0.64,-0.09 -0.64,-0.75 -0.64,-1.41 -0.61,-1.79 -0.58,-2.17 -0.55,-2.28 -0.52,-2.39 -0.47,-2.49 -0.41,-2.59 -0.34,-2.67 -0.26,-2.75 -0.17,-2.82 -0.07,-2.88 0.03,-2.92 0.13,-2.95 0.25,-2.96 0.36,-2.97 0.47,-2.96 0.58,-2.94 0.69,-2.90 0.79,-2.86 0.88,-2.79 0.98,-2.72 1.05,-2.64 1.12,-2.55 1.17,-2.45 1.22,-2.35 1.25,-2.24 1.27,-2.13 1.27,-2.01 1.27,-1.90 1.46,-0.16 1.66,1.58 1.67,2.65 1.67,3.73 1.62,5.25 1.56,6.78 1.59,8.87 1.62,10.96 1.60,12.80 1.58,14.64 1.55,15.84 1.52,17.03 1.46,18.43 1.39,19.84 1.35,20.90 1.30,21.96 0.79,23.71 0.29,25.47 0.25,25.57 0.22,25.67 0.15,25.75 0.09,25.84 0.00,25.90 -0.08,25.96 -0.18,25.98 -0.28,26.01 -0.39,26.01 -0.49,26.00 -0.59,25.96 -0.69,25.92 -0.77,25.85 -0.85,25.78 -0.91,25.69 -0.96,25.60 -0.99,25.50 -1.01,25.39 -1.00,25.29 -0.98,25.18 -0.94,25.09 -0.90,24.99 -0.82,24.91 -0.75,24.84 -0.65,24.79 -0.56,24.74 -0.46,24.72 -0.35,24.70 -0.25,24.72 -0.14,24.74 -0.05,24.79 0.04,24.84 0.11,24.91 0.18,24.99 0.23,25.09 0.27,25.18 0.28,25.29 0.29,25.40 0.27,25.50 0.25,25.60 0.19,25.69 0.14,25.79 0.06,25.85 -0.01,25.92 -0.11,25.96 -0.21,26.00 -0.32,26.01 -0.42,26.01 -0.53,25.98 -0.63,25.96 -0.72,25.90 -0.80,25.84 -0.87,25.75 -0.93,25.67 -0.97,25.57 -1.00,25.46 -1.00,25.36 -1.00,25.25 -1.00,25.25 -1.00,25.25 -1.17,23.57 -1.35,21.89 -1.33,20.79 -1.31,19.70 -1.24,18.33 -1.16,16.95 -1.12,15.77 -1.08,14.59 -1.03,12.78 -0.98,10.97 -0.96,8.81 -0.94,6.65 -0.84,5.18 -0.75,3.72 -0.73,2.64 -0.72,1.56 -0.66,0.23 -0.61,-1.09 -0.60,-1.63 -0.58,-2.17 -0.55,-2.28 -0.52,-2.39 -0.47,-2.49 -0.41,-2.59 -0.34,-2.67 -0.26,-2.75 -0.17,-2.82 -0.07,-2.88 0.03,-2.91 0.13,-2.95 0.25,-2.96 0.36,-2.97 0.47,-2.96 0.58,-2.94 0.69,-2.90 0.79,-2.86 0.88,-2.79 0.98,-2.72 1.05,-2.64 1.12,-2.55 1.17,-2.45 1.22,-2.35 1.25,-2.24 1.27,-2.13 1.27,-2.01 1.27,-1.90 1.14,-1.53 1.01,-1.17 0.83,-0.53 0.64,0.09 0.62,0.17 0.60,0.24 0.57,0.31 0.53,0.38 0.47,0.44 0.42,0.50 0.35,0.54 0.29,0.58 0.21,0.61 0.14,0.64 0.06,0.64 -0.01,0.65 -0.09,0.64 -0.17,0.63 -0.24,0.60 -0.31,0.57 -0.38,0.52 -0.44,0.48 -0.49,0.42 -0.54,0.36 -0.58,0.28 -0.61,0.21 -0.63,0.14 -0.65,0.06 -0.65,-0.01 -0.64,-0.09 -0.64,-0.09 L -0.64,-0.09 Z"></path></g><g transform="translate(187.10811614990234 198.8898468017578) rotate(0 7.7924957275390625 1.670684814453125)" stroke="none"><path fill="#6741d9" d="M 0.53,0.38 Q 0.53,0.38 0.11,1.22 -0.29,2.06 -0.62,2.82 -0.95,3.58 -1.18,4.46 -1.41,5.33 -1.62,6.32 -1.82,7.32 -1.95,8.32 -2.08,9.33 -2.15,10.30 -2.21,11.28 -2.13,12.25 -2.05,13.23 -1.93,13.93 -1.81,14.62 -1.34,15.25 -0.88,15.88 -0.11,15.87 0.65,15.85 1.42,15.58 2.18,15.32 3.19,14.74 4.21,14.16 5.62,12.94 7.04,11.71 8.30,10.44 9.56,9.17 10.62,7.82 11.68,6.48 12.55,5.08 13.43,3.68 14.12,2.25 14.80,0.82 15.24,-0.57 15.68,-1.98 15.91,-3.34 16.14,-4.70 16.11,-5.85 16.07,-6.99 15.73,-8.11 15.39,-9.24 14.98,-10.03 14.56,-10.82 14.11,-11.32 13.66,-11.82 12.69,-12.09 11.72,-12.35 11.12,-12.19 10.53,-12.04 9.77,-11.66 9.02,-11.29 8.28,-10.75 7.54,-10.21 6.73,-9.25 5.93,-8.29 5.33,-7.37 4.73,-6.45 4.33,-5.59 3.94,-4.73 3.74,-3.93 3.54,-3.12 3.50,-2.38 3.46,-1.65 3.64,-0.92 3.81,-0.18 4.09,0.27 4.38,0.72 5.25,1.14 6.13,1.56 6.78,1.57 7.43,1.58 8.29,1.42 9.16,1.26 10.18,0.95 11.20,0.65 12.49,0.21 13.78,-0.22 14.72,-0.55 15.66,-0.88 17.34,-1.45 19.03,-2.02 19.12,-1.97 19.21,-1.91 19.28,-1.83 19.35,-1.76 19.39,-1.66 19.44,-1.56 19.44,-1.45 19.45,-1.35 19.43,-1.25 19.40,-1.14 19.34,-1.05 19.29,-0.96 19.20,-0.90 19.12,-0.83 19.02,-0.79 18.92,-0.76 18.82,-0.75 18.71,-0.75 18.61,-0.78 18.51,-0.81 18.42,-0.88 18.33,-0.94 18.27,-1.02 18.21,-1.11 18.18,-1.21 18.15,-1.31 18.15,-1.42 18.15,-1.53 18.19,-1.63 18.23,-1.73 18.29,-1.81 18.36,-1.89 18.45,-1.95 18.54,-2.01 18.64,-2.03 18.75,-2.06 18.85,-2.05 18.96,-2.04 19.06,-2.00 19.15,-1.96 19.23,-1.88 19.31,-1.81 19.36,-1.72 19.42,-1.63 19.44,-1.52 19.46,-1.42 19.44,-1.31 19.43,-1.21 19.38,-1.11 19.33,-1.02 19.26,-0.94 19.18,-0.87 19.09,-0.82 18.99,-0.77 18.89,-0.76 18.78,-0.75 18.68,-0.77 18.57,-0.79 18.57,-0.79 18.57,-0.79 17.61,0.21 16.64,1.21 15.71,1.76 14.78,2.30 13.44,2.91 12.09,3.51 10.88,3.90 9.67,4.29 8.45,4.47 7.24,4.65 6.18,4.55 5.11,4.44 4.13,4.03 3.15,3.61 2.44,2.90 1.73,2.19 1.30,1.30 0.87,0.41 0.69,-0.72 0.51,-1.86 0.60,-2.86 0.70,-3.86 0.99,-4.92 1.29,-5.98 1.79,-7.02 2.29,-8.06 3.00,-9.12 3.71,-10.18 4.76,-11.39 5.82,-12.59 6.79,-13.27 7.77,-13.96 8.85,-14.44 9.92,-14.91 11.00,-15.10 12.07,-15.28 13.11,-15.08 14.15,-14.89 15.02,-14.35 15.89,-13.80 16.55,-13.00 17.22,-12.20 17.75,-11.13 18.28,-10.06 18.67,-8.56 19.06,-7.06 19.07,-5.63 19.07,-4.19 18.79,-2.64 18.50,-1.08 17.98,0.51 17.46,2.11 16.68,3.68 15.91,5.25 14.93,6.77 13.95,8.29 12.78,9.75 11.60,11.20 10.24,12.55 8.87,13.90 7.21,15.25 5.55,16.60 4.26,17.28 2.97,17.96 1.84,18.25 0.72,18.54 -0.24,18.50 -1.21,18.45 -1.95,18.09 -2.68,17.73 -3.18,17.14 -3.68,16.55 -3.98,15.79 -4.27,15.02 -4.38,14.19 -4.50,13.36 -4.53,12.22 -4.57,11.09 -4.47,10.04 -4.36,8.99 -4.18,7.91 -4.00,6.82 -3.74,5.76 -3.48,4.71 -3.14,3.70 -2.81,2.69 -2.34,1.80 -1.88,0.91 -1.20,0.26 -0.53,-0.38 -0.47,-0.44 -0.42,-0.50 -0.35,-0.54 -0.28,-0.58 -0.21,-0.61 -0.14,-0.64 -0.06,-0.64 0.01,-0.65 0.09,-0.64 0.17,-0.63 0.24,-0.60 0.32,-0.57 0.38,-0.52 0.44,-0.47 0.49,-0.41 0.55,-0.35 0.58,-0.28 0.61,-0.21 0.63,-0.13 0.65,-0.06 0.65,0.01 0.64,0.09 0.62,0.17 0.60,0.24 0.56,0.31 0.53,0.38 0.53,0.38 L 0.53,0.38 Z"></path></g><g transform="translate(200.86727142333984 209.9369354248047) rotate(0 6.8143463134765625 2.55718994140625)" stroke="none"><path fill="#6741d9" d="M -0.61,-0.22 Q -0.61,-0.22 -0.56,-0.87 -0.51,-1.52 -0.04,-2.04 0.42,-2.56 1.02,-2.85 1.62,-3.13 2.22,-3.25 2.83,-3.36 3.40,-3.35 3.98,-3.34 4.62,-3.14 5.27,-2.93 6.11,-2.30 6.96,-1.67 7.25,-0.79 7.55,0.08 7.44,0.77 7.33,1.46 7.08,2.06 6.82,2.65 6.47,3.19 6.12,3.72 5.65,4.23 5.18,4.74 4.65,5.27 4.13,5.80 4.73,5.62 5.34,5.43 6.28,5.60 7.22,5.77 8.28,5.88 9.34,5.99 11.42,6.17 13.50,6.34 13.60,6.33 13.71,6.32 13.81,6.35 13.92,6.38 14.00,6.44 14.09,6.49 14.16,6.58 14.22,6.66 14.26,6.76 14.30,6.86 14.30,6.97 14.30,7.07 14.27,7.18 14.23,7.28 14.17,7.36 14.11,7.45 14.02,7.51 13.93,7.57 13.83,7.60 13.73,7.63 13.62,7.63 13.52,7.62 13.42,7.58 13.32,7.55 13.24,7.48 13.16,7.41 13.10,7.32 13.04,7.23 13.02,7.13 12.99,7.02 13.00,6.92 13.01,6.81 13.06,6.72 13.10,6.62 13.17,6.54 13.24,6.46 13.34,6.41 13.43,6.36 13.53,6.34 13.64,6.32 13.74,6.34 13.85,6.35 13.94,6.40 14.04,6.45 14.11,6.53 14.19,6.60 14.23,6.70 14.28,6.79 14.29,6.90 14.31,7.00 14.28,7.11 14.26,7.21 14.21,7.30 14.16,7.40 14.08,7.47 14.00,7.54 13.90,7.58 13.80,7.62 13.80,7.62 13.80,7.62 11.49,8.26 9.18,8.91 8.61,8.91 8.04,8.91 7.43,8.90 6.83,8.89 6.22,8.81 5.61,8.74 5.05,8.61 4.48,8.49 3.97,8.34 3.45,8.19 2.78,7.92 2.11,7.64 1.58,7.10 1.05,6.56 1.00,5.87 0.96,5.17 1.25,4.58 1.54,3.99 2.07,3.50 2.60,3.02 3.18,2.51 3.76,2.00 4.20,1.38 4.64,0.76 4.76,0.18 4.89,-0.39 4.35,-0.74 3.81,-1.09 3.10,-1.10 2.39,-1.12 1.86,-0.93 1.33,-0.74 0.97,-0.26 0.61,0.22 0.58,0.29 0.54,0.36 0.49,0.42 0.44,0.48 0.37,0.53 0.31,0.57 0.23,0.60 0.16,0.63 0.08,0.64 0.00,0.65 -0.06,0.64 -0.14,0.63 -0.22,0.61 -0.29,0.58 -0.36,0.54 -0.42,0.49 -0.48,0.43 -0.53,0.38 -0.57,0.31 -0.61,0.24 -0.63,0.16 -0.65,0.08 -0.65,0.00 -0.65,-0.06 -0.63,-0.14 -0.61,-0.22 -0.61,-0.22 L -0.61,-0.22 Z"></path></g><g transform="translate(217.69121551513672 193.50267028808594) rotate(0 7.1078033447265625 8.592193603515625)" stroke="none"><path fill="#6741d9" d="M 0.54,-0.36 Q 0.54,-0.36 1.19,-0.06 1.84,0.22 2.92,0.88 3.99,1.54 4.73,1.97 5.48,2.40 6.29,2.82 7.10,3.23 7.95,3.61 8.80,3.98 9.66,4.36 10.51,4.74 11.26,5.05 12.01,5.36 12.66,5.66 13.32,5.96 13.83,6.25 14.35,6.54 14.79,6.87 15.23,7.20 15.63,7.68 16.03,8.16 16.24,8.85 16.45,9.55 16.25,10.43 16.06,11.31 15.72,11.87 15.39,12.43 14.82,12.93 14.25,13.42 13.58,13.75 12.92,14.08 12.22,14.28 11.53,14.48 10.85,14.60 10.18,14.72 9.61,14.84 9.05,14.97 8.47,15.12 7.90,15.27 7.34,15.44 6.78,15.61 6.07,15.88 5.36,16.15 3.92,16.69 2.48,17.23 2.40,17.29 2.31,17.35 2.21,17.39 2.11,17.42 2.01,17.42 1.90,17.42 1.80,17.39 1.70,17.36 1.61,17.29 1.53,17.23 1.47,17.14 1.41,17.05 1.38,16.95 1.35,16.85 1.36,16.74 1.36,16.64 1.40,16.54 1.44,16.44 1.51,16.36 1.58,16.28 1.67,16.22 1.76,16.17 1.86,16.14 1.97,16.12 2.07,16.13 2.18,16.14 2.28,16.19 2.37,16.23 2.45,16.30 2.53,16.38 2.58,16.47 2.63,16.56 2.64,16.67 2.66,16.77 2.65,16.88 2.63,16.98 2.58,17.08 2.53,17.17 2.45,17.24 2.38,17.32 2.28,17.36 2.18,17.41 2.08,17.42 1.97,17.43 1.87,17.41 1.76,17.39 1.67,17.33 1.58,17.28 1.51,17.20 1.44,17.11 1.40,17.02 1.36,16.92 1.36,16.81 1.35,16.71 1.38,16.60 1.41,16.50 1.47,16.41 1.53,16.32 1.53,16.32 1.53,16.32 2.79,14.89 4.06,13.45 4.87,12.99 5.68,12.53 6.32,12.27 6.96,12.02 7.61,11.81 8.27,11.61 9.44,11.36 10.62,11.10 11.40,10.88 12.18,10.66 12.70,10.19 13.22,9.73 12.59,9.29 11.96,8.85 11.37,8.56 10.77,8.28 10.00,7.94 9.23,7.61 8.36,7.21 7.50,6.82 6.58,6.38 5.67,5.95 4.79,5.47 3.92,5.00 3.18,4.55 2.44,4.09 1.62,3.56 0.81,3.04 0.15,2.42 -0.49,1.81 -0.52,1.08 -0.54,0.36 -0.58,0.29 -0.61,0.22 -0.63,0.14 -0.65,0.06 -0.65,-0.01 -0.65,-0.09 -0.62,-0.16 -0.60,-0.24 -0.57,-0.31 -0.53,-0.38 -0.47,-0.44 -0.42,-0.49 -0.35,-0.54 -0.29,-0.58 -0.21,-0.61 -0.14,-0.64 -0.06,-0.64 0.01,-0.65 0.09,-0.64 0.16,-0.63 0.24,-0.60 0.31,-0.57 0.38,-0.52 0.44,-0.48 0.49,-0.42 0.54,-0.36 0.54,-0.36 L 0.54,-0.36 Z"></path></g><g transform="translate(228.45073699951172 212.73280334472656) rotate(0 9.650955200195312 10.603836059570312)" stroke="none"><path fill="#6741d9" d="M -0.52,-0.39 Q -0.52,-0.39 -0.34,-1.04 -0.17,-1.69 0.22,-2.07 0.62,-2.44 1.17,-2.69 1.72,-2.94 2.38,-3.02 3.04,-3.09 3.76,-3.01 4.48,-2.93 5.12,-2.83 5.76,-2.73 6.89,-2.31 8.02,-1.90 8.97,-1.44 9.92,-0.98 10.58,-0.59 11.24,-0.20 12.26,0.60 13.28,1.42 14.07,2.13 14.85,2.85 15.57,3.68 16.30,4.50 16.91,5.44 17.53,6.38 18.04,7.33 18.56,8.27 19.05,9.49 19.55,10.72 19.86,11.72 20.18,12.71 20.38,13.61 20.58,14.51 20.72,15.37 20.85,16.23 20.90,17.03 20.94,17.83 20.91,18.54 20.87,19.26 20.77,19.90 20.67,20.54 20.38,21.52 20.08,22.50 18.25,22.02 16.42,21.54 16.37,21.60 16.33,21.67 16.26,21.72 16.20,21.77 16.13,21.80 16.06,21.84 15.98,21.85 15.91,21.87 15.83,21.86 15.75,21.86 15.67,21.84 15.59,21.82 15.53,21.78 15.46,21.74 15.40,21.68 15.34,21.63 15.30,21.56 15.26,21.49 15.23,21.42 15.21,21.34 15.20,21.26 15.20,21.18 15.21,21.11 15.22,21.03 15.25,20.96 15.29,20.88 15.24,21.09 15.20,21.30 15.21,21.20 15.21,21.09 15.24,20.99 15.28,20.89 15.35,20.81 15.41,20.72 15.50,20.67 15.59,20.61 15.70,20.58 15.80,20.56 15.91,20.57 16.01,20.58 16.11,20.62 16.21,20.66 16.29,20.73 16.36,20.80 16.42,20.89 16.47,20.99 16.49,21.09 16.51,21.19 16.50,21.30 16.48,21.40 16.43,21.50 16.39,21.60 16.31,21.67 16.24,21.75 16.14,21.79 16.05,21.84 15.94,21.85 15.84,21.87 15.73,21.85 15.63,21.83 15.53,21.78 15.44,21.72 15.37,21.65 15.30,21.57 15.26,21.47 15.22,21.37 15.21,21.27 15.20,21.16 15.22,21.06 15.25,20.95 15.31,20.86 15.36,20.77 15.45,20.71 15.53,20.64 15.63,20.60 15.73,20.57 15.84,20.56 15.94,20.56 16.04,20.59 16.14,20.62 16.23,20.69 16.32,20.75 16.38,20.83 16.44,20.92 16.43,21.23 16.42,21.54 16.37,21.60 16.33,21.67 16.26,21.72 16.20,21.77 16.13,21.80 16.06,21.84 15.98,21.85 15.91,21.87 15.83,21.86 15.75,21.86 15.67,21.84 15.59,21.82 15.53,21.78 15.46,21.74 15.40,21.68 15.34,21.63 15.30,21.56 15.26,21.49 15.23,21.42 15.21,21.34 15.20,21.26 15.20,21.18 15.21,21.11 15.22,21.03 15.25,20.96 15.29,20.88 16.00,21.06 16.72,21.23 16.93,20.59 17.15,19.95 17.29,18.96 17.43,17.97 17.42,17.34 17.41,16.71 17.32,15.96 17.23,15.22 17.08,14.46 16.93,13.69 16.68,12.81 16.42,11.94 16.03,10.87 15.64,9.81 15.20,8.97 14.77,8.13 14.31,7.36 13.84,6.59 13.26,5.88 12.67,5.17 11.97,4.49 11.27,3.82 10.46,3.11 9.66,2.40 9.11,2.05 8.57,1.71 7.74,1.28 6.91,0.84 6.06,0.45 5.21,0.06 4.16,-0.17 3.11,-0.41 2.39,-0.33 1.67,-0.26 1.09,0.06 0.52,0.39 0.46,0.45 0.41,0.51 0.34,0.55 0.27,0.59 0.20,0.62 0.12,0.64 0.04,0.65 -0.03,0.65 -0.11,0.64 -0.18,0.62 -0.26,0.59 -0.33,0.56 -0.39,0.51 -0.45,0.46 -0.50,0.40 -0.55,0.34 -0.59,0.27 -0.62,0.20 -0.63,0.12 -0.65,0.04 -0.65,-0.03 -0.64,-0.11 -0.62,-0.18 -0.60,-0.26 -0.56,-0.33 -0.52,-0.39 -0.52,-0.39 L -0.52,-0.39 Z"></path></g><g transform="translate(239.1450424194336 229.9171600341797) rotate(0 7.7924957275390625 4.01617431640625)" stroke="none"><path fill="#6741d9" d="M 0.65,-0.08 Q 0.65,-0.08 1.12,0.68 1.60,1.45 1.78,1.97 1.97,2.49 2.42,3.27 2.86,4.05 3.40,4.77 3.95,5.49 4.32,5.90 4.70,6.30 5.31,5.91 5.93,5.52 6.43,5.00 6.94,4.49 7.69,3.74 8.44,2.99 9.08,2.37 9.73,1.75 10.30,1.23 10.87,0.71 13.18,0.02 15.48,-0.66 15.58,-0.64 15.68,-0.62 15.78,-0.57 15.87,-0.52 15.94,-0.44 16.01,-0.36 16.06,-0.27 16.10,-0.17 16.11,-0.06 16.12,0.03 16.09,0.14 16.07,0.24 16.01,0.33 15.96,0.42 15.87,0.49 15.79,0.55 15.69,0.59 15.59,0.63 15.49,0.63 15.38,0.64 15.28,0.61 15.18,0.57 15.09,0.51 15.00,0.45 14.94,0.37 14.88,0.28 14.85,0.18 14.81,0.08 14.82,-0.02 14.82,-0.12 14.85,-0.22 14.89,-0.32 14.96,-0.41 15.02,-0.49 15.11,-0.55 15.20,-0.61 15.30,-0.63 15.40,-0.66 15.51,-0.65 15.62,-0.64 15.71,-0.60 15.81,-0.56 15.89,-0.49 15.97,-0.42 16.02,-0.33 16.08,-0.24 16.10,-0.13 16.12,-0.03 16.11,0.07 16.09,0.17 16.05,0.27 16.00,0.36 15.93,0.44 15.85,0.51 15.76,0.56 15.66,0.61 15.56,0.63 15.45,0.64 15.45,0.64 15.45,0.64 14.38,1.92 13.30,3.20 12.77,3.76 12.24,4.32 11.61,4.95 10.98,5.58 10.22,6.31 9.47,7.03 8.91,7.58 8.35,8.13 7.76,8.66 7.16,9.18 6.31,9.62 5.46,10.06 4.82,10.02 4.17,9.97 3.52,9.56 2.86,9.14 2.35,8.60 1.84,8.07 1.32,7.31 0.81,6.54 0.50,6.05 0.18,5.56 -0.07,5.04 -0.33,4.53 -0.57,3.91 -0.80,3.29 -0.98,2.56 -1.15,1.83 -0.90,0.96 -0.65,0.08 -0.65,0.00 -0.65,-0.06 -0.63,-0.14 -0.61,-0.22 -0.58,-0.29 -0.54,-0.36 -0.49,-0.42 -0.44,-0.48 -0.37,-0.53 -0.31,-0.57 -0.24,-0.60 -0.16,-0.63 -0.08,-0.64 -0.00,-0.65 0.06,-0.64 0.14,-0.63 0.22,-0.61 0.29,-0.58 0.36,-0.54 0.42,-0.49 0.48,-0.43 0.53,-0.38 0.57,-0.31 0.61,-0.24 0.63,-0.16 0.65,-0.08 0.65,-0.08 L 0.65,-0.08 Z"></path></g><g transform="translate(382.93126678466797 413.6942901611328) rotate(0 -0.097808837890625 13.126983642578125)" stroke="none"><path fill="#6741d9" d="M -0.64,-0.13 Q -0.64,-0.13 -0.73,-0.70 -0.82,-1.28 -0.78,-1.40 -0.74,-1.52 -0.67,-1.63 -0.60,-1.74 -0.51,-1.83 -0.41,-1.92 -0.30,-1.98 -0.18,-2.05 -0.06,-2.08 0.06,-2.12 0.19,-2.12 0.32,-2.13 0.44,-2.10 0.57,-2.07 0.69,-2.02 0.80,-1.96 0.90,-1.88 1.00,-1.79 1.08,-1.69 1.16,-1.59 1.21,-1.47 1.26,-1.35 1.28,-1.22 1.30,-1.09 1.29,-0.96 1.27,-0.83 1.54,-0.33 1.81,0.16 1.87,2.09 1.92,4.02 1.93,5.45 1.93,6.88 1.88,8.36 1.83,9.84 1.70,11.35 1.56,12.87 1.39,14.25 1.22,15.62 1.10,16.78 0.97,17.93 0.88,18.92 0.79,19.91 0.71,20.75 0.63,21.59 0.62,22.43 0.60,23.27 0.59,23.97 0.57,24.67 0.54,26.02 0.52,27.36 0.54,27.46 0.57,27.56 0.56,27.67 0.56,27.78 0.52,27.88 0.48,27.97 0.41,28.05 0.34,28.13 0.25,28.19 0.15,28.24 0.05,28.26 -0.04,28.29 -0.15,28.27 -0.25,28.26 -0.35,28.21 -0.45,28.17 -0.52,28.10 -0.60,28.02 -0.65,27.93 -0.70,27.83 -0.71,27.73 -0.73,27.62 -0.71,27.52 -0.69,27.41 -0.64,27.32 -0.59,27.23 -0.51,27.15 -0.44,27.08 -0.34,27.04 -0.24,27.00 -0.14,26.98 -0.03,26.97 0.06,27.00 0.17,27.02 0.26,27.08 0.35,27.13 0.42,27.21 0.48,27.30 0.52,27.40 0.56,27.49 0.57,27.60 0.57,27.71 0.54,27.81 0.51,27.91 0.45,28.00 0.39,28.09 0.30,28.15 0.22,28.21 0.12,28.25 0.02,28.28 -0.08,28.28 -0.18,28.28 -0.29,28.24 -0.39,28.21 -0.47,28.14 -0.55,28.08 -0.61,27.99 -0.67,27.90 -0.67,27.90 -0.67,27.90 -1.30,26.32 -1.94,24.75 -1.99,24.02 -2.05,23.28 -2.08,22.31 -2.10,21.34 -2.03,20.50 -1.95,19.66 -1.86,18.64 -1.77,17.63 -1.63,16.45 -1.50,15.28 -1.33,13.95 -1.16,12.62 -1.02,11.17 -0.88,9.73 -0.82,8.30 -0.75,6.88 -0.75,5.45 -0.74,4.02 -0.72,2.68 -0.71,1.35 -0.69,0.62 -0.67,-0.10 -0.75,-0.69 -0.82,-1.28 -0.78,-1.40 -0.74,-1.52 -0.67,-1.63 -0.60,-1.74 -0.51,-1.83 -0.41,-1.92 -0.30,-1.98 -0.18,-2.05 -0.06,-2.08 0.06,-2.12 0.19,-2.12 0.32,-2.13 0.44,-2.10 0.57,-2.07 0.69,-2.02 0.80,-1.96 0.90,-1.88 1.00,-1.79 1.08,-1.69 1.16,-1.59 1.21,-1.47 1.26,-1.35 1.28,-1.22 1.30,-1.09 1.29,-0.96 1.27,-0.83 0.96,-0.34 0.64,0.13 0.61,0.21 0.59,0.28 0.54,0.35 0.50,0.41 0.44,0.47 0.39,0.52 0.32,0.56 0.25,0.60 0.17,0.62 0.10,0.64 0.02,0.65 -0.05,0.65 -0.13,0.63 -0.21,0.62 -0.28,0.58 -0.35,0.55 -0.41,0.50 -0.47,0.45 -0.52,0.38 -0.57,0.32 -0.60,0.25 -0.63,0.17 -0.64,0.09 -0.65,0.02 -0.64,-0.05 -0.64,-0.13 -0.64,-0.13 L -0.64,-0.13 Z"></path></g><g transform="translate(393.29952239990234 420.78627014160156) rotate(0 5.51019287109375 1.602508544921875)" stroke="none"><path fill="#6741d9" d="M 0.53,0.37 Q 0.53,0.37 0.17,1.19 -0.18,2.02 -0.40,2.61 -0.63,3.21 -0.74,3.90 -0.85,4.58 -0.96,5.31 -1.06,6.04 -1.10,6.93 -1.14,7.83 -1.12,8.53 -1.10,9.23 -1.03,9.86 -0.96,10.49 -0.85,11.01 -0.75,11.54 -0.45,12.20 -0.16,12.86 0.40,12.61 0.96,12.36 1.50,11.95 2.05,11.53 2.76,10.83 3.48,10.14 4.48,8.86 5.48,7.59 6.23,6.34 6.99,5.09 7.62,3.80 8.24,2.51 8.75,1.29 9.25,0.08 9.55,-0.97 9.86,-2.02 10.04,-2.96 10.22,-3.90 10.23,-4.60 10.24,-5.31 10.13,-6.13 10.01,-6.94 9.81,-7.46 9.60,-7.98 9.04,-8.58 8.49,-9.17 7.74,-9.36 6.99,-9.55 6.45,-9.43 5.90,-9.30 5.34,-9.01 4.78,-8.72 4.24,-8.23 3.71,-7.73 3.25,-7.10 2.79,-6.46 2.39,-5.70 1.98,-4.94 1.71,-4.20 1.45,-3.46 1.34,-2.71 1.23,-1.96 1.35,-0.82 1.47,0.32 1.69,1.03 1.91,1.75 2.40,2.26 2.89,2.77 3.73,2.67 4.58,2.57 5.31,2.37 6.04,2.16 7.03,1.70 8.03,1.24 8.93,0.81 9.82,0.38 11.33,-0.02 12.84,-0.43 12.94,-0.46 13.04,-0.49 13.14,-0.49 13.25,-0.49 13.35,-0.46 13.45,-0.42 13.53,-0.36 13.62,-0.29 13.68,-0.20 13.74,-0.12 13.76,-0.01 13.79,0.08 13.79,0.18 13.78,0.29 13.74,0.39 13.70,0.49 13.63,0.57 13.56,0.65 13.47,0.70 13.38,0.76 13.28,0.78 13.17,0.80 13.07,0.79 12.96,0.78 12.86,0.73 12.77,0.69 12.69,0.61 12.61,0.54 12.57,0.45 12.52,0.35 12.50,0.25 12.48,0.14 12.50,0.04 12.52,-0.06 12.57,-0.15 12.62,-0.24 12.70,-0.32 12.77,-0.39 12.87,-0.43 12.97,-0.48 13.07,-0.49 13.18,-0.50 13.28,-0.48 13.39,-0.45 13.48,-0.40 13.57,-0.34 13.64,-0.26 13.70,-0.18 13.74,-0.08 13.78,0.01 13.79,0.11 13.79,0.22 13.76,0.32 13.73,0.43 13.67,0.51 13.61,0.60 13.53,0.66 13.44,0.73 13.44,0.73 13.44,0.73 12.27,1.76 11.10,2.80 10.19,3.33 9.28,3.86 8.06,4.46 6.84,5.06 5.87,5.31 4.91,5.57 3.92,5.63 2.93,5.69 2.06,5.43 1.20,5.18 0.53,4.59 -0.14,4.01 -0.52,3.27 -0.90,2.53 -1.14,1.55 -1.39,0.56 -1.48,-0.92 -1.57,-2.41 -1.38,-3.42 -1.19,-4.44 -0.84,-5.36 -0.48,-6.28 0.02,-7.21 0.54,-8.14 1.19,-9.00 1.85,-9.85 2.70,-10.56 3.55,-11.26 4.47,-11.68 5.40,-12.09 6.42,-12.23 7.44,-12.37 8.18,-12.23 8.92,-12.09 9.61,-11.75 10.30,-11.42 10.90,-10.89 11.50,-10.36 11.92,-9.67 12.35,-8.97 12.62,-8.15 12.89,-7.33 13.02,-6.27 13.14,-5.21 13.09,-4.28 13.05,-3.34 12.83,-2.27 12.61,-1.20 12.25,-0.01 11.88,1.17 11.33,2.47 10.78,3.77 10.08,5.17 9.38,6.56 8.52,7.94 7.65,9.32 6.50,10.72 5.35,12.13 4.47,12.94 3.58,13.75 2.73,14.29 1.88,14.84 1.07,15.08 0.25,15.32 -0.48,15.20 -1.22,15.08 -1.75,14.65 -2.29,14.22 -2.62,13.61 -2.94,13.00 -3.07,12.48 -3.19,11.96 -3.28,11.33 -3.38,10.70 -3.43,9.98 -3.48,9.26 -3.47,8.45 -3.46,7.65 -3.36,6.66 -3.26,5.67 -3.11,4.91 -2.97,4.15 -2.76,3.28 -2.55,2.40 -2.19,1.64 -1.83,0.88 -1.18,0.25 -0.53,-0.37 -0.48,-0.43 -0.43,-0.49 -0.36,-0.53 -0.30,-0.58 -0.22,-0.61 -0.15,-0.63 -0.07,-0.64 0.00,-0.65 0.08,-0.64 0.16,-0.63 0.23,-0.60 0.30,-0.57 0.37,-0.53 0.43,-0.48 0.49,-0.42 0.54,-0.37 0.57,-0.29 0.61,-0.22 0.63,-0.15 0.65,-0.07 0.65,0.00 0.65,0.08 0.63,0.15 0.61,0.23 0.57,0.30 0.53,0.37 0.53,0.37 L 0.53,0.37 Z"></path></g><g transform="translate(406.3413619995117 429.03749084472656) rotate(0 3.5539093017578125 4.63702392578125)" stroke="none"><path fill="#6741d9" d="M -0.65,0.05 Q -0.65,0.05 -0.89,-0.51 -1.12,-1.08 -0.75,-1.67 -0.37,-2.26 0.43,-2.54 1.25,-2.83 1.96,-2.86 2.68,-2.90 3.38,-2.79 4.08,-2.67 4.69,-2.49 5.30,-2.31 5.84,-2.05 6.38,-1.78 7.24,-1.04 8.09,-0.30 8.46,0.76 8.82,1.83 8.72,2.43 8.62,3.03 8.38,3.52 8.14,4.01 7.69,4.45 7.24,4.89 6.33,5.33 5.43,5.77 4.45,5.85 3.48,5.92 2.94,5.95 2.41,5.97 2.22,5.95 2.04,5.94 1.87,5.88 1.70,5.82 1.54,5.72 1.39,5.63 1.26,5.49 1.14,5.36 1.05,5.20 0.96,5.05 0.91,4.87 0.86,4.70 0.85,4.51 0.84,4.33 0.88,4.15 0.92,3.98 1.00,3.81 1.08,3.65 1.19,3.51 1.31,3.37 1.45,3.26 1.60,3.15 1.77,3.08 1.94,3.01 2.12,2.98 2.30,2.95 2.98,3.25 3.66,3.54 4.31,3.83 4.97,4.12 5.47,4.34 5.97,4.56 6.47,4.80 6.97,5.04 7.66,5.47 8.35,5.90 8.88,6.78 9.42,7.67 9.26,8.58 9.10,9.49 8.71,10.08 8.31,10.68 7.80,11.17 7.30,11.67 6.72,12.01 6.14,12.35 5.18,12.50 4.22,12.64 3.50,12.58 2.78,12.52 0.88,10.87 -1.01,9.22 -1.06,9.12 -1.11,9.03 -1.12,8.92 -1.14,8.82 -1.12,8.71 -1.10,8.61 -1.05,8.51 -1.00,8.42 -0.92,8.35 -0.84,8.28 -0.74,8.23 -0.65,8.19 -0.54,8.18 -0.43,8.17 -0.33,8.20 -0.23,8.22 -0.14,8.28 -0.05,8.33 0.01,8.41 0.08,8.50 0.12,8.60 0.15,8.70 0.16,8.80 0.16,8.91 0.13,9.01 0.10,9.11 0.04,9.20 -0.01,9.29 -0.10,9.35 -0.18,9.41 -0.28,9.44 -0.38,9.48 -0.49,9.47 -0.60,9.47 -0.70,9.44 -0.80,9.40 -0.88,9.34 -0.96,9.27 -1.02,9.18 -1.08,9.09 -1.11,8.99 -1.13,8.89 -1.13,8.78 -1.12,8.68 -1.08,8.58 -1.04,8.48 -0.97,8.40 -0.90,8.32 -0.81,8.27 -0.71,8.21 -0.61,8.19 -0.51,8.17 -0.40,8.18 -0.29,8.20 -0.20,8.24 -0.10,8.29 -0.03,8.36 0.04,8.44 0.04,8.44 0.04,8.44 1.52,8.78 3.00,9.13 3.79,9.17 4.59,9.22 5.11,8.95 5.63,8.67 6.15,8.50 6.67,8.32 6.19,7.98 5.71,7.64 4.79,7.22 3.86,6.80 3.13,6.38 2.41,5.97 2.22,5.95 2.04,5.94 1.87,5.88 1.70,5.82 1.54,5.72 1.39,5.63 1.26,5.49 1.14,5.36 1.05,5.20 0.96,5.05 0.91,4.87 0.86,4.70 0.85,4.51 0.84,4.33 0.88,4.15 0.92,3.98 1.00,3.81 1.08,3.65 1.19,3.51 1.31,3.37 1.45,3.26 1.60,3.15 1.77,3.08 1.94,3.01 2.12,2.98 2.30,2.95 2.95,2.90 3.60,2.85 4.26,2.81 4.92,2.76 5.48,2.39 6.05,2.03 5.91,1.44 5.76,0.85 5.17,0.45 4.57,0.05 3.64,-0.20 2.72,-0.46 1.85,-0.59 0.97,-0.72 0.81,-0.38 0.65,-0.05 0.65,0.02 0.64,0.10 0.62,0.17 0.60,0.25 0.56,0.32 0.52,0.39 0.47,0.45 0.41,0.50 0.34,0.55 0.28,0.59 0.20,0.61 0.13,0.64 0.05,0.64 -0.02,0.65 -0.10,0.64 -0.18,0.63 -0.25,0.60 -0.32,0.56 -0.39,0.52 -0.45,0.47 -0.50,0.41 -0.55,0.35 -0.58,0.28 -0.62,0.20 -0.63,0.13 -0.65,0.05 -0.65,0.05 L -0.65,0.05 Z"></path></g><g transform="translate(419.7744369506836 416.76295471191406) rotate(0 6.129669189453125 8.6944580078125)" stroke="none"><path fill="#6741d9" d="M -0.09,-0.64 Q -0.09,-0.64 0.73,-1.22 1.56,-1.80 2.53,-1.81 3.50,-1.82 4.32,-1.74 5.14,-1.66 5.87,-1.49 6.60,-1.33 7.28,-1.08 7.96,-0.83 8.49,-0.61 9.03,-0.39 9.59,-0.08 10.14,0.22 10.89,0.77 11.65,1.32 12.20,1.82 12.76,2.33 13.15,2.83 13.54,3.32 13.54,4.61 13.54,5.89 13.19,6.45 12.84,7.02 12.28,7.61 11.71,8.21 11.23,8.67 10.74,9.13 10.23,9.62 9.71,10.11 9.25,10.57 8.79,11.03 8.28,11.56 7.76,12.09 7.17,12.79 6.57,13.48 6.12,14.06 5.67,14.64 5.17,15.20 4.66,15.76 3.11,16.96 1.57,18.17 1.49,18.24 1.41,18.31 1.32,18.35 1.22,18.40 1.11,18.41 1.01,18.42 0.90,18.39 0.80,18.37 0.71,18.31 0.62,18.26 0.55,18.17 0.48,18.09 0.45,17.99 0.41,17.89 0.40,17.79 0.40,17.68 0.43,17.58 0.46,17.48 0.52,17.39 0.58,17.30 0.67,17.24 0.75,17.18 0.85,17.14 0.95,17.11 1.06,17.11 1.17,17.11 1.27,17.15 1.37,17.19 1.45,17.25 1.53,17.32 1.59,17.40 1.65,17.49 1.68,17.60 1.70,17.70 1.70,17.80 1.69,17.91 1.65,18.01 1.61,18.11 1.54,18.19 1.47,18.27 1.38,18.32 1.29,18.37 1.18,18.40 1.08,18.42 0.97,18.40 0.87,18.39 0.77,18.35 0.68,18.30 0.60,18.23 0.52,18.15 0.47,18.06 0.43,17.96 0.41,17.86 0.39,17.75 0.41,17.65 0.43,17.54 0.48,17.45 0.53,17.36 0.53,17.36 0.53,17.36 1.29,15.38 2.05,13.40 2.48,12.93 2.90,12.47 3.40,11.83 3.91,11.19 4.58,10.41 5.25,9.64 5.79,9.09 6.32,8.55 6.82,8.05 7.33,7.55 7.84,7.08 8.36,6.61 8.81,6.19 9.26,5.77 9.73,5.03 10.20,4.30 9.66,3.83 9.12,3.36 8.48,2.92 7.83,2.49 6.85,2.09 5.87,1.70 5.34,1.56 4.80,1.42 4.15,1.35 3.50,1.27 2.76,1.26 2.03,1.25 1.06,0.95 0.09,0.64 0.01,0.65 -0.05,0.65 -0.13,0.63 -0.21,0.62 -0.28,0.58 -0.35,0.55 -0.41,0.50 -0.47,0.45 -0.52,0.38 -0.57,0.32 -0.60,0.24 -0.63,0.17 -0.64,0.09 -0.65,0.01 -0.64,-0.05 -0.64,-0.13 -0.61,-0.21 -0.59,-0.28 -0.54,-0.35 -0.50,-0.42 -0.44,-0.47 -0.38,-0.52 -0.32,-0.56 -0.25,-0.60 -0.17,-0.62 -0.09,-0.64 -0.09,-0.64 L -0.09,-0.64 Z"></path></g><g transform="translate(431.5121078491211 431.69691467285156) rotate(0 7.0751953125 11.556671142578125)" stroke="none"><path fill="#6741d9" d="M 0.13,-0.64 Q 0.13,-0.64 0.87,-0.82 1.61,-1.00 2.73,-0.54 3.86,-0.08 4.54,0.36 5.22,0.81 5.92,1.38 6.61,1.94 7.29,2.56 7.97,3.17 8.44,3.70 8.90,4.22 9.59,5.21 10.28,6.19 10.82,7.17 11.36,8.16 11.77,9.14 12.19,10.13 12.58,11.13 12.96,12.12 13.27,13.11 13.58,14.10 13.86,14.99 14.13,15.88 14.42,16.76 14.70,17.64 14.90,18.25 15.10,18.86 15.33,19.74 15.56,20.62 15.50,21.17 15.44,21.73 13.68,22.27 11.92,22.81 11.92,22.89 11.92,22.97 11.90,23.05 11.88,23.12 11.84,23.19 11.81,23.26 11.75,23.32 11.70,23.38 11.64,23.43 11.57,23.47 11.50,23.50 11.42,23.53 11.34,23.54 11.27,23.55 11.19,23.54 11.11,23.53 11.03,23.50 10.96,23.47 10.90,23.43 10.83,23.38 10.78,23.32 10.73,23.27 10.69,23.20 10.65,23.13 10.63,23.05 10.61,22.97 10.71,23.17 10.81,23.36 10.74,23.28 10.68,23.19 10.65,23.09 10.61,22.99 10.62,22.88 10.62,22.77 10.65,22.67 10.69,22.57 10.75,22.49 10.82,22.41 10.91,22.35 11.00,22.29 11.10,22.26 11.20,22.24 11.31,22.24 11.42,22.25 11.51,22.29 11.61,22.33 11.69,22.40 11.77,22.47 11.83,22.57 11.88,22.66 11.90,22.76 11.92,22.87 11.91,22.97 11.89,23.08 11.85,23.17 11.80,23.27 11.73,23.34 11.65,23.42 11.56,23.47 11.46,23.52 11.36,23.53 11.25,23.55 11.15,23.53 11.04,23.51 10.95,23.46 10.86,23.41 10.79,23.33 10.72,23.25 10.67,23.15 10.63,23.06 10.62,22.95 10.61,22.85 10.63,22.74 10.66,22.64 10.71,22.55 10.77,22.46 10.85,22.39 10.94,22.32 11.03,22.29 11.13,22.25 11.24,22.24 11.35,22.24 11.45,22.27 11.55,22.30 11.73,22.56 11.92,22.81 11.92,22.89 11.92,22.97 11.90,23.05 11.88,23.12 11.84,23.19 11.81,23.26 11.75,23.32 11.70,23.38 11.64,23.43 11.57,23.47 11.50,23.50 11.42,23.53 11.34,23.54 11.27,23.55 11.19,23.54 11.11,23.53 11.04,23.50 10.96,23.47 10.90,23.43 10.83,23.38 10.78,23.32 10.73,23.27 10.69,23.20 10.65,23.13 10.63,23.05 10.61,22.97 11.56,22.13 12.50,21.30 12.30,20.56 12.09,19.82 11.90,19.21 11.70,18.60 11.42,17.70 11.14,16.79 10.87,15.90 10.60,15.01 10.34,14.10 10.08,13.20 9.73,12.24 9.38,11.28 9.04,10.42 8.71,9.56 8.27,8.70 7.83,7.84 7.27,6.97 6.71,6.11 6.37,5.69 6.02,5.27 5.41,4.69 4.79,4.10 4.22,3.60 3.64,3.09 3.08,2.68 2.52,2.28 1.80,1.91 1.08,1.55 0.47,1.09 -0.13,0.64 -0.20,0.61 -0.28,0.59 -0.34,0.55 -0.41,0.50 -0.46,0.45 -0.52,0.39 -0.56,0.32 -0.60,0.25 -0.62,0.18 -0.64,0.10 -0.65,0.02 -0.65,-0.05 -0.63,-0.12 -0.62,-0.20 -0.58,-0.27 -0.55,-0.35 -0.50,-0.41 -0.45,-0.47 -0.39,-0.52 -0.32,-0.56 -0.25,-0.59 -0.18,-0.63 -0.10,-0.64 -0.02,-0.65 0.05,-0.64 0.13,-0.64 0.13,-0.64 L 0.13,-0.64 Z"></path></g><g transform="translate(434.5769271850586 447.4492950439453) rotate(0 6.9447784423828125 5.83038330078125)" stroke="none"><path fill="#6741d9" d="M 0.57,-0.30 Q 0.57,-0.30 1.22,0.25 1.86,0.81 2.24,1.41 2.62,2.01 3.07,2.68 3.52,3.34 4.01,4.04 4.51,4.74 4.88,5.27 5.26,5.80 5.69,6.46 6.13,7.12 6.53,7.63 6.94,8.13 7.45,8.66 7.96,9.20 8.47,9.62 8.97,10.04 9.31,9.28 9.65,8.52 10.00,7.81 10.35,7.09 10.71,6.26 11.07,5.42 12.02,3.48 12.96,1.54 12.98,1.44 13.00,1.33 13.05,1.24 13.10,1.15 13.18,1.08 13.26,1.00 13.35,0.96 13.45,0.92 13.56,0.91 13.66,0.89 13.77,0.92 13.87,0.94 13.96,1.00 14.05,1.05 14.12,1.14 14.19,1.22 14.23,1.32 14.26,1.42 14.27,1.52 14.27,1.63 14.24,1.73 14.21,1.83 14.15,1.92 14.09,2.01 14.01,2.07 13.92,2.13 13.82,2.17 13.72,2.20 13.61,2.20 13.51,2.20 13.41,2.16 13.31,2.13 13.22,2.06 13.14,2.00 13.08,1.91 13.02,1.82 13.00,1.72 12.97,1.61 12.97,1.51 12.98,1.40 13.02,1.30 13.06,1.21 13.13,1.13 13.20,1.05 13.29,0.99 13.38,0.94 13.49,0.92 13.59,0.89 13.70,0.91 13.80,0.92 13.90,0.96 14.00,1.01 14.07,1.08 14.15,1.16 14.20,1.25 14.25,1.35 14.26,1.45 14.28,1.56 14.28,1.56 14.28,1.56 14.14,4.13 14.01,6.70 13.60,7.62 13.20,8.53 12.73,9.44 12.26,10.35 11.66,11.13 11.06,11.92 10.22,12.40 9.37,12.89 8.02,12.53 6.66,12.17 6.18,11.72 5.69,11.27 5.12,10.61 4.55,9.96 4.09,9.33 3.63,8.69 3.25,8.07 2.88,7.44 2.51,6.88 2.13,6.32 1.66,5.56 1.18,4.80 0.75,4.07 0.33,3.34 -0.01,2.67 -0.36,2.00 -0.47,1.15 -0.57,0.30 -0.60,0.23 -0.63,0.16 -0.64,0.08 -0.65,0.00 -0.64,-0.07 -0.63,-0.15 -0.61,-0.22 -0.58,-0.30 -0.53,-0.36 -0.49,-0.43 -0.43,-0.48 -0.37,-0.53 -0.30,-0.57 -0.23,-0.61 -0.15,-0.63 -0.08,-0.65 -0.00,-0.65 0.07,-0.65 0.15,-0.63 0.22,-0.61 0.30,-0.57 0.37,-0.54 0.42,-0.49 0.48,-0.43 0.53,-0.37 0.57,-0.30 0.57,-0.30 L 0.57,-0.30 Z"></path></g></svg>