<svg version="1.1" xmlns="http://www.w3.org/2000/svg" viewBox="0 0 584.9998779296875 460.83331298828125" width="584.9998779296875" height="460.83331298828125" filter="invert(93%) hue-rotate(180deg)" class="excalidraw-svg"><!-- svg-source:excalidraw --><metadata></metadata><defs><style class="style-fonts">
      </style></defs><rect x="0" y="0" width="584.9998779296875" height="460.83331298828125" fill="transparent"></rect><g stroke-linecap="round" transform="translate(10.8333740234375 75.83331298828125) rotate(0 168.33331298828125 165)"><path d="M336.67 165 C336.67 169.11, 336.51 173.23, 336.2 177.33 C335.88 181.43, 335.41 185.53, 334.79 189.59 C334.16 193.66, 333.38 197.71, 332.45 201.72 C331.51 205.72, 330.42 209.71, 329.19 213.63 C327.95 217.56, 326.56 221.46, 325.03 225.28 C323.5 229.11, 321.82 232.89, 320 236.59 C318.18 240.29, 316.21 243.94, 314.11 247.5 C312.02 251.06, 309.78 254.55, 307.42 257.95 C305.05 261.34, 302.56 264.66, 299.94 267.88 C297.33 271.09, 294.58 274.22, 291.73 277.23 C288.88 280.24, 285.9 283.16, 282.83 285.95 C279.76 288.75, 276.57 291.44, 273.29 294 C270.01 296.56, 266.62 299.01, 263.16 301.33 C259.69 303.64, 256.13 305.84, 252.5 307.89 C248.87 309.95, 245.15 311.88, 241.37 313.66 C237.59 315.44, 233.74 317.09, 229.83 318.59 C225.93 320.1, 221.96 321.46, 217.95 322.67 C213.94 323.88, 209.88 324.95, 205.79 325.86 C201.7 326.78, 197.57 327.54, 193.42 328.16 C189.28 328.77, 185.09 329.23, 180.91 329.54 C176.73 329.85, 172.53 330, 168.33 330 C164.14 330, 159.94 329.85, 155.75 329.54 C151.57 329.23, 147.39 328.77, 143.24 328.16 C139.1 327.54, 134.96 326.78, 130.88 325.86 C126.79 324.95, 122.72 323.88, 118.72 322.67 C114.71 321.46, 110.74 320.1, 106.83 318.59 C102.93 317.09, 99.07 315.44, 95.3 313.66 C91.52 311.88, 87.8 309.95, 84.17 307.89 C80.54 305.84, 76.97 303.64, 73.51 301.33 C70.04 299.01, 66.66 296.56, 63.38 294 C60.1 291.44, 56.91 288.75, 53.84 285.95 C50.76 283.16, 47.79 280.24, 44.94 277.23 C42.08 274.22, 39.34 271.09, 36.73 267.88 C34.11 264.66, 31.61 261.34, 29.25 257.95 C26.89 254.55, 24.65 251.06, 22.55 247.5 C20.46 243.94, 18.49 240.29, 16.67 236.59 C14.85 232.89, 13.17 229.11, 11.64 225.28 C10.1 221.46, 8.71 217.56, 7.48 213.63 C6.24 209.71, 5.15 205.72, 4.22 201.72 C3.29 197.71, 2.51 193.66, 1.88 189.59 C1.26 185.53, 0.78 181.43, 0.47 177.33 C0.16 173.23, 0 169.11, 0 165 C0 160.89, 0.16 156.77, 0.47 152.67 C0.78 148.57, 1.26 144.47, 1.88 140.41 C2.51 136.34, 3.29 132.29, 4.22 128.28 C5.15 124.28, 6.24 120.29, 7.48 116.37 C8.71 112.44, 10.1 108.54, 11.64 104.72 C13.17 100.89, 14.85 97.11, 16.67 93.41 C18.49 89.71, 20.46 86.06, 22.55 82.5 C24.65 78.94, 26.89 75.45, 29.25 72.05 C31.61 68.66, 34.11 65.34, 36.73 62.12 C39.34 58.91, 42.08 55.78, 44.94 52.77 C47.79 49.76, 50.76 46.84, 53.84 44.05 C56.91 41.25, 60.1 38.56, 63.38 36 C66.66 33.44, 70.04 30.99, 73.51 28.67 C76.97 26.36, 80.54 24.16, 84.17 22.11 C87.8 20.05, 91.52 18.12, 95.3 16.34 C99.07 14.56, 102.93 12.91, 106.83 11.41 C110.74 9.9, 114.71 8.54, 118.72 7.33 C122.72 6.12, 126.79 5.05, 130.88 4.14 C134.96 3.22, 139.1 2.46, 143.24 1.84 C147.39 1.23, 151.57 0.77, 155.75 0.46 C159.94 0.15, 164.14 0, 168.33 0 C172.53 0, 176.73 0.15, 180.91 0.46 C185.09 0.77, 189.28 1.23, 193.42 1.84 C197.57 2.46, 201.7 3.22, 205.79 4.14 C209.88 5.05, 213.94 6.12, 217.95 7.33 C221.96 8.54, 225.93 9.9, 229.83 11.41 C233.74 12.91, 237.59 14.56, 241.37 16.34 C245.15 18.12, 248.87 20.05, 252.5 22.11 C256.13 24.16, 259.69 26.36, 263.16 28.67 C266.62 30.99, 270.01 33.44, 273.29 36 C276.57 38.56, 279.76 41.25, 282.83 44.05 C285.9 46.84, 288.88 49.76, 291.73 52.77 C294.58 55.78, 297.33 58.91, 299.94 62.12 C302.56 65.34, 305.05 68.66, 307.42 72.05 C309.78 75.45, 312.02 78.94, 314.11 82.5 C316.21 86.06, 318.18 89.71, 320 93.41 C321.82 97.11, 323.5 100.89, 325.03 104.72 C326.56 108.54, 327.95 112.44, 329.19 116.37 C330.42 120.29, 331.51 124.28, 332.45 128.28 C333.38 132.29, 334.16 136.34, 334.79 140.41 C335.41 144.47, 335.88 148.57, 336.2 152.67 C336.51 156.77, 336.67 160.89, 336.67 165" stroke="#6741d9" stroke-width="4" fill="none"></path></g><g stroke-linecap="round" transform="translate(14.1666259765625 225.83331298828125) rotate(0 166.24993896484375 27.0833740234375)"><path d="M332.5 27.08 C332.5 27.87, 332.29 28.66, 331.87 29.44 C331.45 30.23, 330.81 31.01, 329.97 31.79 C329.14 32.56, 328.09 33.33, 326.84 34.09 C325.58 34.85, 324.13 35.61, 322.47 36.35 C320.82 37.09, 318.96 37.82, 316.92 38.53 C314.88 39.24, 312.64 39.94, 310.23 40.63 C307.81 41.31, 305.2 41.97, 302.43 42.62 C299.66 43.26, 296.71 43.89, 293.6 44.49 C290.5 45.09, 287.22 45.68, 283.81 46.23 C280.39 46.79, 276.81 47.32, 273.11 47.83 C269.41 48.34, 265.56 48.82, 261.61 49.27 C257.65 49.72, 253.56 50.14, 249.37 50.54 C245.19 50.93, 240.89 51.3, 236.51 51.63 C232.13 51.96, 227.65 52.26, 223.11 52.53 C218.57 52.8, 213.94 53.04, 209.28 53.24 C204.61 53.45, 199.88 53.62, 195.12 53.76 C190.36 53.89, 185.55 54, 180.74 54.06 C175.93 54.13, 171.08 54.17, 166.25 54.17 C161.42 54.17, 156.57 54.13, 151.76 54.06 C146.95 54, 142.14 53.89, 137.38 53.76 C132.62 53.62, 127.89 53.45, 123.22 53.24 C118.56 53.04, 113.93 52.8, 109.39 52.53 C104.85 52.26, 100.37 51.96, 95.99 51.63 C91.61 51.3, 87.31 50.93, 83.12 50.54 C78.94 50.14, 74.85 49.72, 70.89 49.27 C66.94 48.82, 63.09 48.34, 59.39 47.83 C55.69 47.32, 52.11 46.79, 48.69 46.23 C45.28 45.68, 42 45.09, 38.9 44.49 C35.79 43.89, 32.84 43.26, 30.07 42.62 C27.3 41.97, 24.69 41.31, 22.27 40.63 C19.86 39.94, 17.62 39.24, 15.58 38.53 C13.54 37.82, 11.68 37.09, 10.03 36.35 C8.37 35.61, 6.91 34.85, 5.66 34.09 C4.41 33.33, 3.36 32.56, 2.53 31.79 C1.69 31.01, 1.05 30.23, 0.63 29.44 C0.21 28.66, 0 27.87, 0 27.08 C0 26.3, 0.21 25.51, 0.63 24.72 C1.05 23.94, 1.69 23.16, 2.53 22.38 C3.36 21.61, 4.41 20.83, 5.66 20.07 C6.91 19.31, 8.37 18.56, 10.03 17.82 C11.68 17.08, 13.54 16.35, 15.58 15.64 C17.62 14.92, 19.86 14.22, 22.27 13.54 C24.69 12.86, 27.3 12.19, 30.07 11.55 C32.84 10.9, 35.79 10.28, 38.9 9.67 C42 9.07, 45.28 8.49, 48.69 7.93 C52.11 7.38, 55.69 6.84, 59.39 6.34 C63.09 5.83, 66.94 5.35, 70.89 4.9 C74.85 4.45, 78.94 4.02, 83.12 3.63 C87.31 3.24, 91.61 2.87, 95.99 2.54 C100.37 2.2, 104.85 1.9, 109.39 1.63 C113.93 1.36, 118.56 1.13, 123.22 0.92 C127.89 0.72, 132.62 0.55, 137.38 0.41 C142.14 0.27, 146.95 0.17, 151.76 0.1 C156.57 0.03, 161.42 0, 166.25 0 C171.08 0, 175.93 0.03, 180.74 0.1 C185.55 0.17, 190.36 0.27, 195.12 0.41 C199.88 0.55, 204.61 0.72, 209.28 0.92 C213.94 1.13, 218.57 1.36, 223.11 1.63 C227.65 1.9, 232.13 2.2, 236.51 2.54 C240.89 2.87, 245.19 3.24, 249.37 3.63 C253.56 4.02, 257.65 4.45, 261.61 4.9 C265.56 5.35, 269.41 5.83, 273.11 6.34 C276.81 6.84, 280.39 7.38, 283.81 7.93 C287.22 8.49, 290.5 9.07, 293.6 9.67 C296.71 10.28, 299.66 10.9, 302.43 11.55 C305.2 12.19, 307.81 12.86, 310.23 13.54 C312.64 14.22, 314.88 14.92, 316.92 15.64 C318.96 16.35, 320.82 17.08, 322.47 17.82 C324.13 18.56, 325.58 19.31, 326.84 20.07 C328.09 20.83, 329.14 21.61, 329.97 22.38 C330.81 23.16, 331.45 23.94, 331.87 24.72 C332.29 25.51, 332.39 26.69, 332.5 27.08 C332.61 27.48, 332.61 26.69, 332.5 27.08" stroke="#6741d9" stroke-width="2.5" fill="none" stroke-dasharray="8 10"></path></g><g transform="translate(390.8333740234375 43.33331298828125) rotate(0 4.1666259765625 2.9166717529296875)" stroke="none"><path fill="#6741d9" d="M 0.60,0.24 Q 0.60,0.24 0.35,1.53 0.10,2.82 -0.09,3.33 -0.30,3.84 0.73,4.36 1.76,4.88 2.61,5.31 3.45,5.74 4.35,5.85 5.25,5.97 5.99,5.80 6.72,5.62 7.65,5.54 8.57,5.45 8.87,4.97 9.18,4.50 9.08,3.79 8.99,3.09 8.38,3.19 7.78,3.30 7.20,3.48 6.62,3.66 6.01,4.12 5.41,4.58 4.86,5.02 4.32,5.46 3.86,5.85 3.41,6.25 2.68,5.72 1.95,5.20 2.33,4.78 2.70,4.36 2.48,3.63 2.26,2.90 2.75,3.20 3.25,3.51 3.22,4.29 3.19,5.07 3.57,5.48 3.96,5.89 4.59,5.79 5.23,5.68 4.96,4.84 4.69,3.99 4.08,3.31 3.47,2.62 4.21,3.27 4.95,3.92 5.86,4.08 6.77,4.24 6.82,3.36 6.87,2.49 6.39,1.63 5.91,0.77 5.53,0.39 5.16,0.01 4.61,0.42 4.07,0.83 3.72,1.57 3.37,2.31 3.30,3.16 3.22,4.01 4.06,4.15 4.90,4.29 4.74,3.66 4.58,3.03 4.51,2.44 4.44,1.85 4.99,2.48 5.53,3.11 6.04,3.71 6.55,4.30 6.65,4.34 6.75,4.38 6.83,4.45 6.91,4.51 6.97,4.60 7.02,4.69 7.05,4.80 7.07,4.90 7.06,5.01 7.05,5.11 7.01,5.21 6.96,5.31 6.89,5.38 6.82,5.46 6.73,5.51 6.63,5.56 6.53,5.58 6.42,5.60 6.32,5.58 6.21,5.57 6.12,5.52 6.02,5.47 5.95,5.39 5.88,5.32 5.83,5.22 5.78,5.13 5.77,5.02 5.76,4.91 5.78,4.81 5.80,4.71 5.86,4.62 5.91,4.52 5.99,4.45 6.07,4.38 6.17,4.34 6.27,4.30 6.37,4.30 6.48,4.29 6.58,4.32 6.69,4.34 6.77,4.40 6.86,4.46 6.93,4.55 6.99,4.63 7.03,4.73 7.06,4.83 7.06,4.94 7.06,5.04 7.03,5.14 7.00,5.25 6.94,5.33 6.87,5.42 6.78,5.48 6.70,5.54 6.60,5.57 6.49,5.60 6.39,5.59 6.28,5.59 6.28,5.59 6.28,5.59 4.33,4.25 2.38,2.91 2.15,1.94 1.92,0.97 2.13,0.30 2.34,-0.37 2.87,-0.73 3.39,-1.09 4.41,-1.06 5.42,-1.03 6.02,-0.57 6.62,-0.12 7.07,1.15 7.51,2.43 7.63,3.51 7.75,4.58 7.25,5.51 6.74,6.44 5.80,6.85 4.86,7.25 4.05,7.20 3.24,7.15 2.63,6.96 2.02,6.77 1.44,6.26 0.86,5.76 0.53,4.88 0.20,3.99 0.24,3.19 0.28,2.39 0.40,1.80 0.53,1.21 0.82,0.53 1.11,-0.13 1.78,-0.93 2.45,-1.73 3.18,-2.13 3.92,-2.53 4.97,-2.65 6.03,-2.76 6.78,-2.37 7.52,-1.97 7.98,-1.42 8.44,-0.86 8.85,-0.17 9.27,0.50 9.59,1.89 9.90,3.28 9.79,4.25 9.69,5.22 8.96,5.95 8.23,6.67 7.41,6.93 6.58,7.18 5.89,7.10 5.19,7.01 4.21,6.71 3.23,6.41 2.42,5.76 1.61,5.12 1.20,4.42 0.79,3.72 0.68,2.71 0.58,1.71 1.15,1.01 1.73,0.31 2.24,0.17 2.76,0.03 3.56,0.04 4.37,0.04 4.94,0.39 5.52,0.73 6.12,1.20 6.71,1.66 7.14,2.43 7.56,3.19 7.78,4.22 8.00,5.25 7.80,6.16 7.60,7.08 7.09,7.66 6.58,8.25 5.69,8.55 4.79,8.85 3.88,8.71 2.98,8.58 2.34,8.20 1.70,7.82 1.26,7.25 0.82,6.68 0.52,5.89 0.22,5.11 0.24,4.52 0.26,3.93 0.39,3.08 0.53,2.23 0.97,1.64 1.41,1.04 2.25,0.83 3.09,0.62 4.02,1.47 4.95,2.32 5.31,2.97 5.67,3.62 5.62,4.39 5.58,5.16 5.05,5.85 4.53,6.54 3.56,7.07 2.59,7.59 1.69,6.95 0.78,6.31 1.07,5.21 1.37,4.10 1.90,3.61 2.43,3.12 3.08,2.60 3.73,2.08 4.80,1.42 5.86,0.75 6.97,0.53 8.07,0.32 9.24,0.54 10.42,0.77 11.00,1.32 11.57,1.87 11.82,2.79 12.07,3.71 11.89,4.65 11.71,5.58 11.18,6.43 10.65,7.28 9.73,7.67 8.82,8.07 7.99,8.12 7.16,8.18 6.01,8.32 4.87,8.46 3.61,8.21 2.34,7.95 1.48,7.49 0.61,7.03 -0.45,6.38 -1.51,5.73 -1.97,4.83 -2.42,3.94 -2.22,2.95 -2.02,1.97 -1.31,0.86 -0.60,-0.24 -0.57,-0.31 -0.53,-0.38 -0.48,-0.44 -0.42,-0.49 -0.36,-0.54 -0.29,-0.58 -0.22,-0.61 -0.14,-0.64 -0.06,-0.64 0.01,-0.65 0.09,-0.64 0.16,-0.63 0.24,-0.60 0.31,-0.57 0.37,-0.52 0.44,-0.48 0.49,-0.42 0.54,-0.36 0.58,-0.29 0.61,-0.22 0.63,-0.14 0.65,-0.06 0.65,0.01 0.65,0.09 0.62,0.16 0.60,0.24 0.60,0.24 L 0.60,0.24 Z"></path></g><g transform="translate(415.8333740234375 10) rotate(0 5.4166259765625 9.166656494140625)" stroke="none"><path fill="#6741d9" d="M 0.58,-0.29 Q 0.58,-0.29 1.45,0.47 2.32,1.23 3.00,2.28 3.69,3.33 4.24,4.31 4.80,5.29 5.71,6.58 6.63,7.87 7.73,9.39 8.84,10.92 9.51,11.80 10.18,12.68 10.75,15.15 11.32,17.62 11.33,17.73 11.34,17.84 11.32,17.94 11.29,18.04 11.24,18.13 11.18,18.22 11.10,18.29 11.02,18.36 10.92,18.40 10.82,18.44 10.72,18.45 10.61,18.45 10.51,18.42 10.41,18.39 10.32,18.33 10.23,18.27 10.17,18.19 10.10,18.10 10.07,18.00 10.03,17.90 10.04,17.80 10.04,17.69 10.07,17.59 10.10,17.49 10.17,17.40 10.23,17.32 10.32,17.26 10.41,17.20 10.51,17.17 10.61,17.14 10.72,17.15 10.83,17.16 10.93,17.20 11.02,17.24 11.10,17.31 11.19,17.37 11.24,17.47 11.29,17.56 11.32,17.66 11.34,17.76 11.33,17.87 11.32,17.98 11.27,18.07 11.23,18.17 11.15,18.25 11.08,18.32 10.98,18.37 10.89,18.42 10.79,18.44 10.68,18.45 10.58,18.44 10.47,18.42 10.38,18.37 10.28,18.32 10.21,18.24 10.14,18.16 10.09,18.07 10.05,17.97 10.05,17.97 10.05,17.97 8.87,16.32 7.70,14.67 6.94,13.76 6.18,12.86 5.04,11.30 3.91,9.75 2.93,8.31 1.96,6.87 1.45,5.93 0.95,4.99 0.27,3.79 -0.40,2.59 -0.49,1.44 -0.58,0.29 -0.61,0.21 -0.64,0.14 -0.64,0.06 -0.65,-0.01 -0.64,-0.09 -0.63,-0.16 -0.60,-0.24 -0.57,-0.31 -0.52,-0.38 -0.48,-0.44 -0.42,-0.49 -0.36,-0.54 -0.29,-0.58 -0.22,-0.61 -0.14,-0.63 -0.06,-0.65 0.01,-0.65 0.09,-0.65 0.16,-0.62 0.24,-0.60 0.31,-0.57 0.38,-0.53 0.44,-0.47 0.50,-0.42 0.54,-0.35 0.58,-0.29 0.58,-0.29 L 0.58,-0.29 Z"></path></g><g transform="translate(414.1666259765625 26.666656494140625) rotate(0 8.3333740234375 -6.6666717529296875)" stroke="none"><path fill="#6741d9" d="M -0.46,-0.46 Q -0.46,-0.46 0.59,-1.80 1.64,-3.14 2.38,-3.90 3.12,-4.66 3.67,-5.22 4.22,-5.79 5.67,-7.05 7.12,-8.31 8.75,-9.33 10.39,-10.36 12.83,-11.75 15.26,-13.15 15.36,-13.20 15.46,-13.24 15.56,-13.26 15.67,-13.27 15.77,-13.25 15.87,-13.23 15.97,-13.17 16.06,-13.12 16.13,-13.04 16.20,-12.96 16.24,-12.86 16.28,-12.76 16.29,-12.66 16.29,-12.55 16.27,-12.45 16.24,-12.35 16.18,-12.26 16.12,-12.17 16.04,-12.10 15.96,-12.04 15.86,-12.00 15.76,-11.97 15.65,-11.97 15.54,-11.96 15.44,-12.00 15.34,-12.03 15.26,-12.09 15.17,-12.15 15.11,-12.24 15.05,-12.33 15.02,-12.43 14.99,-12.53 14.99,-12.64 15.00,-12.74 15.04,-12.84 15.07,-12.94 15.14,-13.03 15.21,-13.11 15.30,-13.16 15.39,-13.22 15.49,-13.24 15.60,-13.27 15.70,-13.26 15.81,-13.25 15.90,-13.21 16.00,-13.16 16.08,-13.09 16.16,-13.02 16.21,-12.93 16.26,-12.83 16.28,-12.73 16.30,-12.62 16.28,-12.52 16.27,-12.41 16.22,-12.32 16.17,-12.22 16.09,-12.15 16.02,-12.08 16.02,-12.08 16.02,-12.08 13.82,-10.23 11.63,-8.38 10.13,-7.43 8.63,-6.48 7.21,-5.35 5.79,-4.22 5.22,-3.67 4.66,-3.12 3.90,-2.38 3.14,-1.64 1.80,-0.59 0.46,0.46 0.40,0.51 0.33,0.56 0.26,0.59 0.19,0.62 0.11,0.64 0.03,0.65 -0.03,0.65 -0.11,0.64 -0.19,0.62 -0.26,0.59 -0.33,0.55 -0.40,0.51 -0.46,0.46 -0.51,0.40 -0.55,0.33 -0.59,0.26 -0.62,0.19 -0.64,0.11 -0.65,0.03 -0.65,-0.03 -0.64,-0.11 -0.62,-0.19 -0.59,-0.26 -0.56,-0.33 -0.51,-0.40 -0.46,-0.46 -0.46,-0.46 L -0.46,-0.46 Z"></path></g><g transform="translate(430.8333740234375 32.5) rotate(0 5 -5.0000152587890625)" stroke="none"><path fill="#6741d9" d="M -0.36,-0.54 Q -0.36,-0.54 0.23,-1.20 0.83,-1.86 1.62,-2.36 2.41,-2.85 3.05,-3.68 3.68,-4.50 4.27,-5.14 4.85,-5.79 5.57,-6.56 6.29,-7.33 6.75,-8.05 7.20,-8.78 7.70,-9.40 8.19,-10.02 9.20,-10.76 10.20,-11.49 10.75,-10.65 11.30,-9.81 11.15,-8.98 11.00,-8.15 10.65,-7.27 10.29,-6.40 10.20,-5.75 10.12,-5.10 10.06,-4.12 10.01,-3.15 9.98,-2.47 9.95,-1.79 9.85,-0.83 9.75,0.12 9.74,0.19 9.73,0.27 9.70,0.35 9.67,0.42 9.62,0.48 9.57,0.55 9.51,0.60 9.45,0.65 9.38,0.68 9.31,0.71 9.23,0.73 9.15,0.75 9.07,0.74 9.00,0.74 8.92,0.72 8.84,0.70 8.77,0.66 8.71,0.62 8.65,0.56 8.59,0.51 8.55,0.44 8.51,0.38 8.48,0.30 8.46,0.23 8.45,0.15 8.44,0.07 8.57,-0.17 8.69,-0.41 8.78,-0.46 8.88,-0.52 8.98,-0.53 9.09,-0.55 9.19,-0.54 9.30,-0.52 9.39,-0.48 9.49,-0.43 9.56,-0.35 9.63,-0.28 9.68,-0.18 9.73,-0.09 9.74,0.01 9.75,0.12 9.73,0.22 9.71,0.32 9.66,0.42 9.61,0.51 9.53,0.58 9.45,0.65 9.35,0.69 9.25,0.73 9.15,0.74 9.04,0.75 8.94,0.72 8.83,0.69 8.74,0.64 8.66,0.58 8.59,0.49 8.52,0.41 8.49,0.31 8.45,0.21 8.45,0.10 8.45,0.00 8.48,-0.09 8.51,-0.19 8.57,-0.28 8.64,-0.37 8.72,-0.43 8.81,-0.49 8.91,-0.52 9.01,-0.55 9.12,-0.55 9.23,-0.54 9.33,-0.50 9.43,-0.47 9.51,-0.40 9.59,-0.33 9.65,-0.24 9.70,-0.15 9.73,-0.05 9.75,0.04 9.74,0.15 9.73,0.26 9.69,0.35 9.65,0.45 9.70,0.28 9.75,0.12 9.74,0.19 9.73,0.27 9.70,0.35 9.67,0.42 9.62,0.48 9.57,0.55 9.51,0.60 9.45,0.65 9.38,0.68 9.31,0.71 9.23,0.73 9.15,0.75 9.07,0.74 9.00,0.74 8.92,0.72 8.84,0.70 8.77,0.66 8.71,0.62 8.65,0.56 8.59,0.51 8.55,0.44 8.51,0.38 8.48,0.30 8.46,0.23 8.45,0.15 8.44,0.07 7.61,-0.92 6.78,-1.91 6.80,-2.62 6.82,-3.32 6.88,-4.48 6.95,-5.63 7.14,-6.62 7.33,-7.60 7.62,-8.30 7.92,-9.01 8.18,-9.64 8.43,-10.27 8.81,-9.51 9.19,-8.74 9.80,-8.50 10.40,-8.26 9.95,-7.73 9.50,-7.19 8.85,-6.33 8.21,-5.46 7.48,-4.74 6.74,-4.02 6.16,-3.41 5.57,-2.81 4.58,-1.82 3.60,-0.83 2.82,-0.44 2.04,-0.05 1.20,0.24 0.36,0.54 0.29,0.58 0.22,0.61 0.14,0.63 0.06,0.65 -0.01,0.65 -0.08,0.65 -0.16,0.63 -0.24,0.61 -0.31,0.57 -0.38,0.53 -0.44,0.48 -0.49,0.42 -0.54,0.36 -0.58,0.29 -0.61,0.22 -0.64,0.14 -0.64,0.06 -0.65,-0.01 -0.64,-0.08 -0.63,-0.16 -0.60,-0.24 -0.57,-0.31 -0.53,-0.37 -0.48,-0.44 -0.42,-0.49 -0.36,-0.54 -0.36,-0.54 L -0.36,-0.54 Z"></path></g><g transform="translate(46.66668701171875 49.166656494140625) rotate(0 -17.91668701171875 21.666671752929688)" stroke="none"><path fill="#6741d9" d="M -0.46,0.46 Q -0.46,0.46 -1.08,0.20 -1.71,-0.05 -2.39,-0.10 -3.06,-0.14 -4.32,-0.20 -5.58,-0.25 -7.56,-0.26 -9.55,-0.28 -11.59,-0.29 -13.64,-0.29 -16.12,-0.05 -18.60,0.18 -20.67,0.28 -22.74,0.39 -24.75,0.67 -26.75,0.95 -28.39,1.08 -30.03,1.20 -31.45,1.26 -32.87,1.31 -33.52,1.54 -34.18,1.77 -34.77,1.86 -35.36,1.94 -34.82,2.65 -34.28,3.35 -33.39,3.88 -32.49,4.40 -31.41,4.91 -30.32,5.41 -28.85,6.13 -27.38,6.85 -25.52,7.90 -23.67,8.94 -21.69,10.10 -19.71,11.25 -18.13,12.23 -16.56,13.21 -15.17,14.11 -13.78,15.01 -12.65,15.91 -11.53,16.81 -10.82,17.42 -10.11,18.04 -9.19,19.05 -8.26,20.05 -8.40,20.87 -8.53,21.68 -9.27,22.36 -10.01,23.03 -11.29,23.74 -12.56,24.45 -14.12,25.01 -15.69,25.57 -17.42,26.47 -19.15,27.37 -20.61,28.23 -22.07,29.09 -23.56,30.35 -25.06,31.62 -26.39,33.07 -27.71,34.53 -28.47,35.78 -29.22,37.04 -29.50,37.93 -29.79,38.83 -29.67,39.49 -29.55,40.15 -29.30,40.87 -29.05,41.60 -28.77,42.05 -28.48,42.51 -28.03,42.80 -27.59,43.09 -26.88,43.16 -26.17,43.24 -25.01,43.06 -23.86,42.88 -22.13,42.57 -20.39,42.26 -18.71,41.89 -17.03,41.52 -15.18,40.90 -13.33,40.29 -11.07,39.56 -8.80,38.84 -6.76,38.55 -4.72,38.26 -2.45,38.42 -0.18,38.59 -0.08,38.60 0.02,38.61 0.12,38.65 0.21,38.69 0.29,38.76 0.37,38.83 0.43,38.92 0.48,39.02 0.50,39.12 0.52,39.22 0.51,39.33 0.49,39.44 0.45,39.53 0.40,39.63 0.33,39.70 0.25,39.78 0.16,39.83 0.06,39.87 -0.03,39.89 -0.14,39.90 -0.24,39.88 -0.35,39.86 -0.44,39.81 -0.53,39.76 -0.60,39.68 -0.68,39.60 -0.72,39.51 -0.76,39.41 -0.77,39.30 -0.78,39.20 -0.76,39.09 -0.73,38.99 -0.67,38.90 -0.62,38.81 -0.53,38.74 -0.45,38.68 -0.35,38.64 -0.25,38.60 -0.15,38.60 -0.04,38.60 0.05,38.63 0.15,38.66 0.24,38.72 0.33,38.78 0.39,38.87 0.45,38.95 0.48,39.05 0.51,39.15 0.51,39.26 0.51,39.37 0.47,39.47 0.44,39.57 0.37,39.65 0.31,39.73 0.22,39.79 0.13,39.85 0.03,39.87 -0.07,39.90 -0.07,39.90 -0.07,39.90 -2.17,40.46 -4.27,41.01 -6.06,41.36 -7.86,41.70 -10.11,42.48 -12.36,43.25 -14.36,43.90 -16.37,44.56 -18.12,44.93 -19.87,45.29 -21.70,45.59 -23.53,45.89 -25.14,46.01 -26.74,46.13 -28.00,45.78 -29.27,45.43 -30.08,44.72 -30.90,44.01 -31.33,43.24 -31.76,42.47 -32.06,41.45 -32.37,40.43 -32.43,39.23 -32.49,38.03 -32.07,36.80 -31.65,35.58 -30.73,34.10 -29.82,32.62 -28.35,31.03 -26.89,29.44 -25.20,28.04 -23.51,26.64 -21.98,25.74 -20.46,24.84 -18.55,23.87 -16.64,22.89 -15.28,22.42 -13.92,21.95 -12.82,21.36 -11.71,20.76 -11.18,20.78 -10.64,20.81 -11.28,20.48 -11.93,20.16 -12.60,19.57 -13.28,18.98 -14.29,18.16 -15.29,17.35 -16.66,16.46 -18.03,15.58 -19.57,14.62 -21.11,13.66 -23.07,12.51 -25.03,11.36 -26.82,10.35 -28.60,9.35 -30.05,8.64 -31.51,7.92 -32.79,7.31 -34.07,6.69 -35.36,5.71 -36.66,4.73 -37.01,4.04 -37.36,3.36 -37.59,2.60 -37.81,1.83 -37.59,1.10 -37.36,0.37 -36.78,-0.11 -36.21,-0.60 -35.61,-0.74 -35.01,-0.88 -34.00,-1.17 -32.99,-1.46 -31.62,-1.51 -30.24,-1.56 -28.68,-1.67 -27.13,-1.78 -25.00,-2.07 -22.88,-2.35 -20.86,-2.44 -18.85,-2.53 -16.23,-2.76 -13.62,-2.99 -11.56,-2.96 -9.50,-2.93 -7.46,-2.88 -5.42,-2.82 -3.97,-2.70 -2.53,-2.58 -1.37,-2.21 -0.20,-1.85 0.13,-1.16 0.46,-0.46 0.51,-0.40 0.56,-0.33 0.59,-0.26 0.62,-0.19 0.64,-0.11 0.65,-0.03 0.65,0.03 0.64,0.11 0.62,0.19 0.59,0.26 0.55,0.33 0.51,0.40 0.46,0.46 0.40,0.51 0.33,0.55 0.26,0.59 0.19,0.62 0.11,0.64 0.03,0.65 -0.03,0.65 -0.11,0.64 -0.19,0.62 -0.26,0.59 -0.33,0.56 -0.40,0.51 -0.46,0.46 -0.46,0.46 L -0.46,0.46 Z"></path></g><g transform="translate(444.1666259765625 189.1666259765625) rotate(0 -0.83331298828125 1.2500152587890625)" stroke="none"><path fill="#6741d9" d="M 0.65,0 Q 0.65,0 0.95,0.71 1.26,1.43 0.80,2.13 0.34,2.83 0.02,2.34 -0.29,1.86 -0.90,1.74 -1.51,1.62 -2.11,1.24 -2.71,0.85 -2.10,1.68 -1.48,2.51 -1.08,2.93 -0.67,3.34 -0.00,2.72 0.67,2.10 0.27,1.42 -0.12,0.75 -0.74,-0.02 -1.37,-0.80 -1.32,-0.17 -1.27,0.44 -1.18,0.99 -1.09,1.55 -0.51,1.22 0.06,0.88 0.18,1.84 0.30,2.79 0.24,2.85 0.19,2.91 0.12,2.95 0.05,2.99 -0.01,3.02 -0.09,3.04 -0.17,3.05 -0.24,3.06 -0.32,3.04 -0.40,3.03 -0.47,3.00 -0.55,2.97 -0.61,2.92 -0.67,2.88 -0.72,2.81 -0.77,2.75 -0.81,2.68 -0.84,2.61 -0.86,2.53 -0.88,2.46 -0.87,2.38 -0.87,2.30 -0.85,2.22 -0.83,2.15 -0.79,2.08 -0.75,2.01 -0.27,1.96 0.20,1.91 0.27,1.99 0.34,2.07 0.38,2.17 0.41,2.27 0.42,2.38 0.42,2.48 0.39,2.59 0.36,2.69 0.30,2.77 0.24,2.86 0.15,2.92 0.06,2.99 -0.03,3.02 -0.13,3.05 -0.24,3.05 -0.34,3.04 -0.44,3.01 -0.54,2.97 -0.62,2.91 -0.71,2.84 -0.77,2.75 -0.82,2.66 -0.85,2.56 -0.88,2.46 -0.87,2.35 -0.86,2.24 -0.82,2.15 -0.78,2.05 -0.71,1.97 -0.64,1.89 -0.54,1.84 -0.45,1.78 -0.35,1.76 -0.24,1.74 -0.14,1.76 -0.03,1.77 0.05,1.82 0.15,1.86 0.22,1.94 0.30,2.01 0.35,2.11 0.39,2.20 0.41,2.31 0.42,2.41 0.41,2.52 0.39,2.62 0.33,2.71 0.28,2.81 0.20,2.88 0.13,2.95 0.03,2.99 -0.06,3.04 -0.17,3.04 -0.27,3.05 -0.37,3.03 -0.48,3.00 -0.09,2.90 0.30,2.79 0.24,2.85 0.19,2.91 0.12,2.95 0.05,2.99 -0.01,3.02 -0.09,3.04 -0.17,3.05 -0.24,3.06 -0.32,3.04 -0.40,3.03 -0.47,3.00 -0.55,2.97 -0.61,2.92 -0.67,2.88 -0.72,2.81 -0.77,2.75 -0.81,2.68 -0.84,2.61 -0.86,2.53 -0.88,2.46 -0.87,2.38 -0.87,2.30 -0.85,2.22 -0.83,2.15 -0.79,2.08 -0.75,2.01 -1.66,0.71 -2.56,-0.58 -2.09,-0.93 -1.62,-1.27 -0.80,-1.37 0.01,-1.48 0.61,-1.31 1.20,-1.15 1.78,-0.66 2.36,-0.16 2.55,0.75 2.73,1.67 2.25,2.51 1.76,3.35 1.03,3.77 0.29,4.20 -0.74,4.32 -1.78,4.44 -2.53,4.01 -3.28,3.58 -3.74,2.49 -4.21,1.41 -4.38,0.53 -4.55,-0.33 -4.15,-1.34 -3.75,-2.35 -3.09,-2.84 -2.44,-3.32 -1.61,-3.46 -0.77,-3.59 0.04,-3.20 0.86,-2.81 1.32,-2.26 1.77,-1.71 2.20,-1.04 2.62,-0.37 2.94,0.45 3.26,1.28 3.30,2.17 3.34,3.05 2.95,3.84 2.56,4.63 2.06,5.19 1.56,5.74 0.65,6.02 -0.24,6.31 -1.19,6.13 -2.14,5.95 -2.78,5.50 -3.42,5.05 -3.88,4.34 -4.35,3.62 -4.68,2.74 -5.01,1.85 -4.99,0.85 -4.97,-0.15 -4.56,-0.75 -4.16,-1.34 -3.62,-1.61 -3.08,-1.88 -1.77,-1.50 -0.46,-1.12 0.16,-0.84 0.80,-0.56 1.54,0.47 2.28,1.51 2.42,2.13 2.56,2.75 2.13,3.43 1.71,4.10 0.68,4.02 -0.33,3.93 -0.74,3.37 -1.14,2.80 -1.20,2.12 -1.26,1.43 -0.95,0.71 -0.65,0 -0.64,-0.07 -0.63,-0.15 -0.60,-0.23 -0.58,-0.30 -0.53,-0.37 -0.49,-0.43 -0.43,-0.48 -0.37,-0.54 -0.30,-0.57 -0.23,-0.61 -0.15,-0.63 -0.07,-0.65 0.00,-0.65 0.07,-0.65 0.15,-0.63 0.23,-0.61 0.30,-0.57 0.37,-0.54 0.43,-0.48 0.49,-0.43 0.53,-0.37 0.58,-0.30 0.60,-0.23 0.63,-0.15 0.64,-0.07 0.65,0.00 0.65,0.00 L 0.65,0 Z"></path></g><g transform="translate(460 166.66665649414062) rotate(0 5 7.0833282470703125)" stroke="none"><path fill="#6741d9" d="M 0.52,-0.39 Q 0.52,-0.39 1.56,0.32 2.61,1.03 3.59,2.10 4.58,3.16 5.49,4.10 6.40,5.04 7.31,6.23 8.23,7.42 8.79,8.13 9.35,8.84 9.93,11.16 10.50,13.49 10.51,13.59 10.52,13.70 10.49,13.80 10.47,13.90 10.41,13.99 10.36,14.08 10.27,14.15 10.19,14.22 10.09,14.26 9.99,14.29 9.89,14.30 9.78,14.30 9.68,14.27 9.58,14.24 9.49,14.18 9.40,14.12 9.34,14.04 9.28,13.95 9.24,13.85 9.21,13.75 9.21,13.64 9.22,13.53 9.25,13.43 9.29,13.33 9.35,13.25 9.42,13.17 9.51,13.11 9.60,13.05 9.70,13.02 9.80,13.00 9.91,13.00 10.01,13.01 10.11,13.05 10.21,13.09 10.29,13.16 10.37,13.23 10.42,13.33 10.48,13.42 10.50,13.52 10.52,13.63 10.50,13.73 10.49,13.84 10.45,13.93 10.40,14.03 10.33,14.10 10.25,14.18 10.16,14.23 10.06,14.28 9.96,14.29 9.85,14.31 9.75,14.29 9.64,14.27 9.55,14.22 9.46,14.17 9.38,14.09 9.31,14.01 9.27,13.91 9.23,13.82 9.23,13.82 9.23,13.82 8.20,12.25 7.17,10.69 6.51,9.97 5.86,9.25 5.04,8.18 4.22,7.12 3.30,6.14 2.38,5.17 1.32,3.98 0.26,2.79 -0.13,1.59 -0.52,0.39 -0.56,0.32 -0.60,0.25 -0.62,0.18 -0.64,0.10 -0.65,0.02 -0.65,-0.05 -0.63,-0.13 -0.62,-0.20 -0.58,-0.28 -0.55,-0.35 -0.50,-0.41 -0.45,-0.47 -0.39,-0.52 -0.32,-0.56 -0.25,-0.59 -0.18,-0.63 -0.10,-0.64 -0.02,-0.65 0.05,-0.64 0.13,-0.64 0.20,-0.61 0.28,-0.59 0.34,-0.55 0.41,-0.50 0.47,-0.45 0.52,-0.39 0.52,-0.39 L 0.52,-0.39 Z"></path></g><g transform="translate(460.8333740234375 180.83331298828125) rotate(0 5.83331298828125 -8.75)" stroke="none"><path fill="#6741d9" d="M -0.60,-0.24 Q -0.60,-0.24 -0.45,-1.57 -0.29,-2.90 0.90,-4.75 2.11,-6.60 3.57,-8.56 5.04,-10.52 6.39,-12.28 7.75,-14.03 9.54,-15.59 11.34,-17.14 11.42,-17.21 11.50,-17.28 11.60,-17.32 11.70,-17.36 11.80,-17.37 11.91,-17.37 12.01,-17.34 12.11,-17.32 12.20,-17.26 12.29,-17.20 12.35,-17.11 12.42,-17.03 12.45,-16.93 12.49,-16.83 12.49,-16.72 12.49,-16.61 12.45,-16.51 12.42,-16.41 12.35,-16.33 12.29,-16.24 12.20,-16.18 12.11,-16.12 12.01,-16.10 11.91,-16.07 11.80,-16.07 11.70,-16.08 11.60,-16.12 11.50,-16.16 11.42,-16.23 11.34,-16.29 11.28,-16.39 11.23,-16.48 11.20,-16.58 11.18,-16.68 11.19,-16.79 11.20,-16.90 11.25,-16.99 11.29,-17.09 11.37,-17.17 11.44,-17.24 11.53,-17.29 11.63,-17.34 11.73,-17.36 11.84,-17.38 11.94,-17.36 12.05,-17.34 12.14,-17.29 12.23,-17.24 12.31,-17.17 12.38,-17.09 12.43,-16.99 12.47,-16.90 12.48,-16.79 12.49,-16.68 12.47,-16.58 12.45,-16.48 12.39,-16.39 12.34,-16.29 12.34,-16.29 12.34,-16.29 11.15,-14.33 9.96,-12.37 8.64,-10.58 7.33,-8.79 5.89,-6.90 4.44,-5.01 3.33,-3.45 2.21,-1.88 1.41,-0.82 0.60,0.24 0.57,0.31 0.53,0.38 0.48,0.44 0.42,0.49 0.36,0.54 0.29,0.58 0.22,0.61 0.14,0.64 0.06,0.64 -0.01,0.65 -0.09,0.64 -0.16,0.63 -0.24,0.60 -0.31,0.57 -0.37,0.52 -0.44,0.48 -0.49,0.42 -0.54,0.36 -0.58,0.29 -0.61,0.22 -0.63,0.14 -0.65,0.06 -0.65,-0.01 -0.65,-0.09 -0.63,-0.16 -0.60,-0.24 -0.60,-0.24 L -0.60,-0.24 Z"></path></g><g transform="translate(477.5 180) rotate(0 9.58331298828125 5)" stroke="none"><path fill="#6741d9" d="M -0.46,-0.46 Q -0.46,-0.46 -0.15,-1.13 0.14,-1.80 1.21,-2.37 2.27,-2.94 3.03,-3.17 3.78,-3.40 4.85,-3.24 5.91,-3.07 6.52,-2.58 7.13,-2.09 7.43,-1.18 7.72,-0.28 7.56,0.72 7.40,1.73 6.81,2.93 6.22,4.13 5.50,5.34 4.79,6.55 4.23,7.34 3.66,8.12 3.44,8.87 3.22,9.62 4.25,9.70 5.28,9.79 6.75,10.12 8.21,10.46 10.37,10.64 12.53,10.82 15.56,11.32 18.58,11.82 18.68,11.84 18.79,11.86 18.88,11.91 18.97,11.97 19.04,12.05 19.11,12.13 19.15,12.22 19.20,12.32 19.21,12.43 19.21,12.53 19.19,12.64 19.16,12.74 19.11,12.83 19.05,12.92 18.97,12.98 18.88,13.05 18.78,13.09 18.68,13.12 18.58,13.13 18.47,13.13 18.37,13.10 18.27,13.07 18.18,13.01 18.09,12.94 18.03,12.86 17.97,12.77 17.94,12.67 17.91,12.57 17.91,12.46 17.91,12.35 17.95,12.26 17.99,12.16 18.05,12.07 18.12,11.99 18.21,11.93 18.30,11.88 18.40,11.85 18.51,11.82 18.61,11.83 18.72,11.84 18.82,11.88 18.91,11.93 18.99,12.00 19.07,12.07 19.12,12.16 19.18,12.25 19.20,12.36 19.22,12.46 19.20,12.57 19.19,12.67 19.14,12.77 19.09,12.86 19.02,12.94 18.94,13.01 18.85,13.06 18.75,13.11 18.65,13.12 18.54,13.14 18.54,13.14 18.54,13.14 15.45,13.44 12.35,13.75 9.93,13.64 7.50,13.53 6.08,13.19 4.66,12.86 3.17,12.41 1.68,11.96 1.04,10.95 0.39,9.93 0.50,8.85 0.61,7.78 0.94,7.07 1.27,6.37 1.79,5.69 2.32,5.02 3.03,3.91 3.75,2.80 4.28,1.94 4.80,1.07 5.00,0.17 5.20,-0.72 4.26,-0.73 3.32,-0.74 2.54,-0.43 1.77,-0.11 1.11,0.17 0.46,0.46 0.40,0.51 0.33,0.56 0.26,0.59 0.19,0.62 0.11,0.64 0.03,0.65 -0.03,0.65 -0.11,0.64 -0.19,0.62 -0.26,0.59 -0.33,0.55 -0.40,0.51 -0.46,0.46 -0.51,0.40 -0.55,0.33 -0.59,0.26 -0.62,0.19 -0.64,0.11 -0.65,0.03 -0.65,-0.03 -0.64,-0.11 -0.62,-0.19 -0.59,-0.26 -0.56,-0.33 -0.51,-0.40 -0.46,-0.46 -0.46,-0.46 L -0.46,-0.46 Z"></path></g><g transform="translate(347.5 403.33331298828125) rotate(0 1.6666259765625 0.83331298828125)" stroke="none"><path fill="#6741d9" d="M 0,0.65 Q 0,0.65 -0.64,0.84 -1.29,1.02 -1.62,1.47 -1.94,1.92 -1.77,2.45 -1.59,2.99 -1.19,3.46 -0.80,3.92 0.12,4.03 1.04,4.14 1.72,4.25 2.40,4.37 2.94,4.19 3.49,4.01 4.07,3.57 4.65,3.13 4.63,2.22 4.62,1.31 4.36,0.39 4.11,-0.53 3.64,-0.96 3.17,-1.40 2.63,-1.79 2.09,-2.19 1.18,-1.99 0.27,-1.79 0.21,-1.23 0.15,-0.67 0.05,0.20 -0.04,1.09 0.02,1.65 0.08,2.21 0.85,2.52 1.61,2.83 2.41,2.46 3.21,2.09 2.46,2.02 1.72,1.96 1.55,1.92 1.38,1.87 1.22,1.79 1.07,1.71 0.94,1.59 0.80,1.47 0.71,1.32 0.61,1.18 0.54,1.01 0.48,0.85 0.46,0.67 0.44,0.49 0.47,0.32 0.49,0.14 0.55,-0.01 0.62,-0.18 0.72,-0.32 0.82,-0.46 0.95,-0.58 1.09,-0.70 1.24,-0.78 1.40,-0.86 1.57,-0.90 1.74,-0.94 1.92,-0.94 2.10,-0.94 2.85,-0.12 3.60,0.69 3.00,1.17 2.40,1.65 2.05,2.10 1.70,2.56 2.67,1.94 3.64,1.33 3.70,1.39 3.75,1.45 3.79,1.52 3.83,1.59 3.85,1.66 3.87,1.74 3.87,1.82 3.88,1.90 3.86,1.98 3.84,2.05 3.81,2.12 3.77,2.20 3.72,2.26 3.67,2.32 3.60,2.36 3.54,2.41 3.47,2.44 3.39,2.47 3.32,2.48 3.24,2.49 3.16,2.48 3.08,2.48 3.01,2.45 2.93,2.42 2.86,2.38 2.80,2.34 2.80,1.83 2.80,1.33 2.89,1.28 2.98,1.22 3.09,1.20 3.19,1.18 3.30,1.19 3.40,1.20 3.50,1.25 3.59,1.30 3.67,1.37 3.75,1.44 3.80,1.54 3.85,1.63 3.86,1.74 3.88,1.84 3.86,1.95 3.84,2.05 3.79,2.14 3.74,2.24 3.66,2.31 3.58,2.38 3.49,2.43 3.39,2.47 3.29,2.48 3.18,2.49 3.08,2.47 2.97,2.44 2.88,2.39 2.79,2.33 2.72,2.25 2.66,2.17 2.62,2.07 2.58,1.97 2.57,1.86 2.57,1.76 2.60,1.66 2.63,1.55 2.69,1.47 2.75,1.38 2.83,1.32 2.92,1.25 3.02,1.22 3.12,1.19 3.23,1.19 3.33,1.19 3.43,1.22 3.53,1.26 3.62,1.32 3.70,1.39 3.76,1.48 3.82,1.57 3.85,1.67 3.87,1.77 3.87,1.88 3.86,1.98 3.82,2.08 3.78,2.18 3.71,1.76 3.64,1.33 3.70,1.39 3.75,1.45 3.79,1.52 3.83,1.59 3.85,1.66 3.87,1.74 3.87,1.82 3.88,1.90 3.86,1.98 3.84,2.05 3.81,2.12 3.77,2.20 3.72,2.26 3.67,2.32 3.60,2.36 3.54,2.41 3.47,2.44 3.39,2.47 3.32,2.48 3.24,2.49 3.16,2.48 3.08,2.48 3.01,2.45 2.93,2.42 2.86,2.38 2.80,2.34 1.20,3.32 -0.39,4.30 -0.77,3.74 -1.15,3.19 -1.15,2.22 -1.15,1.26 -0.78,0.61 -0.42,-0.03 0.09,-0.47 0.61,-0.92 1.25,-1.32 1.89,-1.72 2.59,-1.84 3.29,-1.95 4.06,-1.35 4.83,-0.76 4.24,0.37 3.66,1.51 2.69,1.74 1.72,1.96 1.55,1.92 1.38,1.87 1.22,1.79 1.07,1.71 0.94,1.59 0.80,1.47 0.71,1.32 0.61,1.18 0.54,1.01 0.48,0.85 0.46,0.67 0.44,0.49 0.47,0.32 0.49,0.14 0.55,-0.01 0.62,-0.18 0.72,-0.32 0.82,-0.46 0.95,-0.58 1.09,-0.70 1.24,-0.78 1.40,-0.86 1.57,-0.90 1.74,-0.94 1.92,-0.94 2.10,-0.94 1.93,-1.01 1.76,-1.09 2.62,-1.14 3.48,-1.20 4.09,-0.91 4.69,-0.63 5.18,-0.02 5.66,0.58 5.75,1.68 5.84,2.78 5.38,3.53 4.92,4.28 3.93,4.87 2.95,5.45 1.63,5.37 0.32,5.28 -0.97,4.32 -2.27,3.35 -2.56,2.05 -2.85,0.75 -2.66,-0.50 -2.46,-1.75 -1.83,-2.84 -1.19,-3.92 -0.03,-4.34 1.12,-4.76 2.26,-4.66 3.40,-4.57 4.33,-3.90 5.25,-3.23 5.98,-2.29 6.71,-1.35 7.01,-0.17 7.31,0.99 7.34,2.09 7.37,3.19 6.81,4.18 6.26,5.18 5.20,5.85 4.14,6.53 3.10,6.72 2.05,6.92 1.24,6.78 0.42,6.65 -1.03,6.16 -2.49,5.68 -3.20,4.76 -3.91,3.84 -4.09,3.03 -4.26,2.22 -3.94,1.31 -3.62,0.40 -3.18,0.00 -2.73,-0.39 -2.15,-0.71 -1.57,-1.02 -0.78,-0.84 0,-0.65 0.07,-0.64 0.15,-0.63 0.23,-0.60 0.30,-0.58 0.37,-0.53 0.43,-0.49 0.48,-0.43 0.54,-0.37 0.57,-0.30 0.61,-0.23 0.63,-0.15 0.65,-0.07 0.65,0.00 0.65,0.07 0.63,0.15 0.61,0.23 0.57,0.30 0.54,0.37 0.48,0.43 0.43,0.49 0.37,0.53 0.30,0.58 0.23,0.60 0.15,0.63 0.07,0.64 -0.00,0.65 -0.00,0.65 L 0,0.65 Z"></path></g><g transform="translate(363.3333740234375 426.66668701171875) rotate(0 6.25 6.6666259765625)" stroke="none"><path fill="#6741d9" d="M 0.41,-0.51 Q 0.41,-0.51 1.89,0.08 3.38,0.67 4.88,2.09 6.38,3.51 7.71,4.85 9.03,6.20 10.09,7.87 11.15,9.54 11.89,11.33 12.62,13.11 12.66,13.21 12.70,13.31 12.71,13.42 12.72,13.52 12.69,13.63 12.66,13.73 12.60,13.82 12.54,13.91 12.46,13.97 12.38,14.04 12.28,14.07 12.18,14.10 12.07,14.11 11.96,14.11 11.86,14.07 11.76,14.04 11.68,13.98 11.59,13.91 11.53,13.82 11.47,13.74 11.44,13.64 11.41,13.53 11.42,13.43 11.42,13.32 11.46,13.22 11.50,13.12 11.57,13.04 11.64,12.96 11.73,12.90 11.82,12.85 11.92,12.83 12.02,12.80 12.13,12.81 12.24,12.82 12.33,12.87 12.43,12.91 12.51,12.98 12.58,13.06 12.63,13.15 12.68,13.24 12.70,13.35 12.72,13.45 12.70,13.56 12.69,13.66 12.64,13.76 12.59,13.85 12.51,13.92 12.44,14.00 12.34,14.04 12.24,14.09 12.14,14.10 12.03,14.11 11.93,14.09 11.83,14.07 11.73,14.01 11.64,13.96 11.57,13.88 11.50,13.80 11.50,13.80 11.50,13.80 10.29,12.39 9.07,10.99 8.03,9.64 6.99,8.29 5.63,7.03 4.27,5.78 2.83,4.46 1.40,3.15 0.49,1.83 -0.41,0.51 -0.46,0.45 -0.52,0.39 -0.56,0.33 -0.60,0.26 -0.62,0.18 -0.64,0.11 -0.65,0.03 -0.65,-0.04 -0.63,-0.12 -0.62,-0.20 -0.59,-0.27 -0.55,-0.34 -0.50,-0.40 -0.45,-0.46 -0.39,-0.51 -0.33,-0.56 -0.26,-0.59 -0.18,-0.62 -0.11,-0.64 -0.03,-0.65 0.04,-0.65 0.12,-0.64 0.20,-0.62 0.27,-0.59 0.34,-0.55 0.41,-0.51 0.41,-0.51 L 0.41,-0.51 Z"></path></g><g transform="translate(364.16668701171875 441.66668701171875) rotate(0 9.166656494140625 -8.75)" stroke="none"><path fill="#6741d9" d="M -0.58,-0.29 Q -0.58,-0.29 -0.15,-1.88 0.27,-3.46 2.31,-5.91 4.35,-8.36 5.44,-9.58 6.52,-10.80 8.01,-12.08 9.50,-13.37 11.14,-14.57 12.77,-15.77 14.96,-16.68 17.14,-17.59 17.24,-17.62 17.34,-17.66 17.45,-17.66 17.55,-17.66 17.65,-17.63 17.76,-17.60 17.84,-17.54 17.93,-17.47 17.99,-17.39 18.05,-17.30 18.08,-17.20 18.11,-17.10 18.11,-16.99 18.10,-16.88 18.07,-16.78 18.03,-16.69 17.96,-16.60 17.89,-16.52 17.80,-16.46 17.71,-16.41 17.61,-16.38 17.51,-16.36 17.40,-16.37 17.30,-16.38 17.20,-16.42 17.10,-16.46 17.02,-16.53 16.94,-16.61 16.89,-16.70 16.84,-16.79 16.82,-16.90 16.80,-17.00 16.82,-17.10 16.83,-17.21 16.88,-17.30 16.93,-17.40 17.01,-17.47 17.08,-17.55 17.18,-17.60 17.27,-17.64 17.38,-17.66 17.48,-17.67 17.59,-17.65 17.69,-17.63 17.78,-17.57 17.88,-17.52 17.95,-17.44 18.02,-17.36 18.06,-17.26 18.10,-17.17 18.11,-17.06 18.11,-16.95 18.09,-16.85 18.06,-16.75 18.00,-16.66 17.95,-16.57 17.86,-16.50 17.78,-16.44 17.78,-16.44 17.78,-16.44 16.03,-15.16 14.27,-13.88 12.78,-12.59 11.30,-11.31 9.95,-10.12 8.60,-8.94 7.52,-7.74 6.45,-6.54 4.52,-4.41 2.60,-2.28 1.59,-0.99 0.58,0.29 0.54,0.35 0.49,0.42 0.44,0.47 0.38,0.53 0.31,0.57 0.24,0.60 0.16,0.62 0.09,0.65 0.01,0.65 -0.06,0.65 -0.14,0.63 -0.22,0.61 -0.29,0.58 -0.36,0.54 -0.42,0.49 -0.48,0.44 -0.52,0.38 -0.57,0.31 -0.60,0.24 -0.63,0.16 -0.64,0.09 -0.65,0.01 -0.64,-0.06 -0.64,-0.14 -0.61,-0.21 -0.58,-0.29 -0.58,-0.29 L -0.58,-0.29 Z"></path></g><g transform="translate(380.8333740234375 439.16668701171875) rotate(0 4.1666259765625 4.1666259765625)" stroke="none"><path fill="#6741d9" d="M -0.46,-0.46 Q -0.46,-0.46 0.04,-1.39 0.54,-2.33 1.47,-2.98 2.40,-3.62 3.52,-3.72 4.64,-3.81 5.47,-3.81 6.30,-3.82 7.34,-3.54 8.37,-3.27 9.01,-2.74 9.65,-2.21 9.97,-1.27 10.29,-0.34 10.13,0.68 9.96,1.72 9.51,2.98 9.06,4.24 8.47,4.68 7.88,5.12 7.50,5.20 7.12,5.28 6.96,5.35 6.80,5.42 6.63,5.44 6.46,5.47 6.28,5.46 6.11,5.44 5.95,5.38 5.78,5.33 5.64,5.24 5.49,5.14 5.37,5.02 5.25,4.89 5.17,4.74 5.08,4.59 5.03,4.42 4.99,4.26 4.98,4.08 4.97,3.91 5.01,3.74 5.05,3.57 5.12,3.42 5.20,3.26 5.31,3.13 5.42,2.99 5.56,2.89 5.69,2.79 6.66,3.32 7.63,3.86 8.17,4.07 8.72,4.28 9.25,4.92 9.79,5.55 9.86,6.56 9.94,7.58 9.63,8.53 9.31,9.48 8.54,10.31 7.76,11.13 7.20,11.60 6.65,12.08 3.96,11.83 1.26,11.57 1.16,11.54 1.06,11.50 0.98,11.44 0.90,11.37 0.84,11.28 0.78,11.19 0.75,11.09 0.72,10.99 0.73,10.88 0.74,10.78 0.78,10.68 0.82,10.58 0.89,10.50 0.96,10.42 1.05,10.37 1.14,10.31 1.25,10.29 1.35,10.27 1.45,10.28 1.56,10.29 1.66,10.34 1.75,10.39 1.83,10.46 1.90,10.53 1.95,10.63 2.00,10.72 2.02,10.83 2.03,10.93 2.02,11.04 2.00,11.14 1.95,11.23 1.90,11.33 1.82,11.40 1.74,11.47 1.64,11.52 1.55,11.56 1.44,11.57 1.33,11.58 1.23,11.56 1.13,11.53 1.04,11.48 0.95,11.42 0.88,11.34 0.81,11.26 0.77,11.16 0.73,11.06 0.73,10.95 0.73,10.85 0.75,10.74 0.78,10.64 0.85,10.55 0.91,10.47 0.99,10.40 1.08,10.34 1.18,10.31 1.28,10.28 1.38,10.28 1.49,10.28 1.49,10.28 1.49,10.28 3.14,10.06 4.80,9.83 5.64,9.06 6.48,8.29 6.71,7.75 6.93,7.21 6.72,6.67 6.51,6.13 5.99,5.72 5.47,5.32 6.30,5.30 7.12,5.28 6.96,5.35 6.80,5.42 6.63,5.44 6.46,5.47 6.28,5.46 6.11,5.44 5.95,5.38 5.78,5.33 5.64,5.24 5.49,5.14 5.37,5.02 5.25,4.89 5.17,4.74 5.08,4.59 5.03,4.42 4.99,4.26 4.98,4.08 4.97,3.91 5.01,3.74 5.05,3.57 5.12,3.42 5.20,3.26 5.31,3.13 5.42,2.99 5.56,2.89 5.69,2.79 6.37,2.53 7.04,2.28 7.13,1.68 7.22,1.07 7.36,0.15 7.50,-0.77 6.88,-0.98 6.26,-1.18 4.93,-1.30 3.60,-1.42 2.96,-0.98 2.33,-0.53 1.39,-0.03 0.46,0.46 0.40,0.51 0.33,0.56 0.26,0.59 0.19,0.62 0.11,0.64 0.03,0.65 -0.03,0.65 -0.11,0.64 -0.19,0.62 -0.26,0.59 -0.33,0.55 -0.40,0.51 -0.46,0.46 -0.51,0.40 -0.55,0.33 -0.59,0.26 -0.62,0.19 -0.64,0.11 -0.65,0.03 -0.65,-0.03 -0.64,-0.11 -0.62,-0.19 -0.59,-0.26 -0.56,-0.33 -0.51,-0.40 -0.46,-0.46 -0.46,-0.46 L -0.46,-0.46 Z"></path></g><g transform="translate(532.4998779296875 323.3333740234375) rotate(0 -2.9166259765625 -0.000030517578125)" stroke="none"><path fill="#6741d9" d="M -0.15,0.63 Q -0.15,0.63 -1.15,0.45 -2.14,0.27 -2.76,-0.02 -3.39,-0.33 -4.12,-0.82 -4.86,-1.31 -5.33,-0.89 -5.81,-0.48 -6.15,0.06 -6.49,0.61 -6.65,1.49 -6.81,2.38 -5.89,2.26 -4.97,2.15 -4.04,1.67 -3.11,1.19 -2.27,0.55 -1.42,-0.07 -0.90,-0.74 -0.37,-1.41 0.09,-1.86 0.57,-2.32 -0.18,-2.21 -0.93,-2.10 -1.82,-1.62 -2.71,-1.13 -3.52,-0.52 -4.32,0.09 -4.53,0.64 -4.73,1.19 -4.99,1.74 -5.25,2.30 -4.61,1.83 -3.98,1.35 -3.22,0.78 -2.47,0.21 -2.06,-0.14 -1.65,-0.50 -2.25,-0.11 -2.84,0.27 -3.42,0.40 -4.00,0.52 -4.13,1.05 -4.26,1.58 -4.42,1.66 -4.59,1.74 -4.77,1.77 -4.95,1.81 -5.13,1.81 -5.31,1.80 -5.49,1.75 -5.66,1.70 -5.82,1.61 -5.98,1.52 -6.11,1.39 -6.25,1.27 -6.35,1.11 -6.45,0.96 -6.50,0.79 -6.56,0.61 -6.58,0.43 -6.60,0.25 -6.57,0.07 -6.54,-0.10 -6.47,-0.27 -6.40,-0.44 -6.29,-0.59 -6.18,-0.73 -6.04,-0.85 -5.90,-0.97 -4.99,-1.19 -4.08,-1.41 -3.38,-1.53 -2.69,-1.66 -3.16,-1.61 -3.64,-1.56 -3.46,-1.64 -3.28,-1.73 -3.09,-1.77 -2.90,-1.82 -2.70,-1.81 -2.50,-1.81 -2.31,-1.76 -2.12,-1.70 -1.95,-1.61 -1.78,-1.51 -1.64,-1.38 -1.49,-1.24 -1.38,-1.08 -1.27,-0.91 -1.21,-0.73 -1.14,-0.54 -1.12,-0.35 -1.10,-0.15 -1.13,0.03 -1.16,0.23 -1.24,0.41 -1.31,0.59 -1.43,0.75 -1.54,0.91 -1.69,1.04 -1.84,1.17 -2.54,1.74 -3.25,2.32 -2.67,2.47 -2.09,2.62 -0.09,2.68 1.89,2.73 2.00,2.74 2.11,2.74 2.20,2.78 2.30,2.82 2.38,2.89 2.46,2.96 2.52,3.05 2.57,3.14 2.60,3.25 2.62,3.35 2.61,3.46 2.59,3.56 2.55,3.66 2.50,3.75 2.43,3.83 2.36,3.91 2.26,3.96 2.17,4.01 2.06,4.02 1.96,4.04 1.85,4.02 1.75,4.01 1.66,3.95 1.56,3.90 1.49,3.83 1.42,3.75 1.37,3.65 1.33,3.56 1.32,3.45 1.31,3.35 1.33,3.24 1.35,3.14 1.41,3.05 1.46,2.96 1.54,2.89 1.63,2.82 1.73,2.78 1.82,2.74 1.93,2.74 2.04,2.73 2.14,2.76 2.24,2.79 2.33,2.85 2.42,2.91 2.48,2.99 2.54,3.08 2.58,3.18 2.61,3.28 2.61,3.39 2.61,3.49 2.58,3.59 2.54,3.69 2.48,3.78 2.41,3.86 2.32,3.92 2.23,3.98 2.13,4.01 2.03,4.04 2.03,4.04 2.03,4.04 -0.12,4.76 -2.28,5.48 -3.41,5.42 -4.55,5.37 -5.18,4.99 -5.81,4.61 -6.16,3.52 -6.50,2.43 -6.38,1.84 -6.26,1.25 -5.89,0.59 -5.52,-0.06 -5.02,-0.50 -4.52,-0.94 -4.08,-1.25 -3.64,-1.56 -3.46,-1.64 -3.28,-1.73 -3.09,-1.77 -2.90,-1.82 -2.70,-1.81 -2.50,-1.81 -2.31,-1.76 -2.12,-1.70 -1.95,-1.61 -1.78,-1.51 -1.64,-1.38 -1.49,-1.24 -1.38,-1.08 -1.27,-0.92 -1.21,-0.73 -1.14,-0.54 -1.12,-0.35 -1.10,-0.15 -1.13,0.03 -1.16,0.23 -1.24,0.41 -1.31,0.59 -1.42,0.75 -1.54,0.91 -1.69,1.04 -1.84,1.17 -2.65,0.96 -3.45,0.75 -3.85,1.16 -4.26,1.58 -4.42,1.66 -4.59,1.74 -4.77,1.77 -4.95,1.81 -5.13,1.81 -5.31,1.80 -5.49,1.75 -5.66,1.70 -5.82,1.61 -5.98,1.52 -6.11,1.39 -6.25,1.27 -6.35,1.11 -6.45,0.96 -6.50,0.79 -6.56,0.61 -6.58,0.43 -6.60,0.25 -6.57,0.07 -6.54,-0.10 -6.47,-0.27 -6.40,-0.44 -6.29,-0.59 -6.18,-0.73 -6.04,-0.85 -5.90,-0.97 -6.16,-0.87 -6.43,-0.78 -5.22,-1.67 -4.01,-2.55 -3.17,-2.80 -2.34,-3.06 -1.42,-2.90 -0.49,-2.74 0.08,-2.26 0.67,-1.77 0.88,-0.86 1.10,0.04 0.74,0.85 0.39,1.66 -0.09,2.11 -0.59,2.56 -1.14,3.00 -1.70,3.43 -2.42,3.83 -3.14,4.23 -4.16,4.46 -5.17,4.68 -6.10,4.43 -7.03,4.18 -7.45,3.55 -7.86,2.93 -7.86,2.08 -7.85,1.22 -7.63,0.52 -7.41,-0.16 -6.82,-1.18 -6.22,-2.19 -5.14,-3.00 -4.07,-3.81 -2.78,-4.41 -1.50,-5.02 -0.25,-5.12 1.00,-5.21 1.69,-4.76 2.39,-4.31 2.75,-3.53 3.12,-2.75 3.01,-1.87 2.90,-0.99 2.35,-0.30 1.79,0.38 1.03,1.28 0.26,2.17 -0.81,2.95 -1.88,3.73 -3.20,4.33 -4.52,4.93 -5.81,5.04 -7.09,5.15 -7.98,4.64 -8.87,4.13 -9.23,3.16 -9.60,2.20 -9.49,1.31 -9.37,0.41 -9.10,-0.26 -8.83,-0.93 -8.27,-1.73 -7.70,-2.53 -6.84,-3.10 -5.97,-3.67 -5.01,-3.60 -4.05,-3.52 -3.54,-2.96 -3.04,-2.39 -2.36,-1.81 -1.69,-1.23 -0.76,-0.93 0.15,-0.63 0.23,-0.60 0.30,-0.58 0.37,-0.53 0.43,-0.49 0.48,-0.43 0.54,-0.37 0.57,-0.30 0.61,-0.23 0.63,-0.15 0.65,-0.07 0.65,0.00 0.65,0.08 0.63,0.15 0.61,0.23 0.57,0.30 0.53,0.37 0.48,0.43 0.43,0.49 0.36,0.53 0.30,0.58 0.22,0.61 0.15,0.63 0.07,0.64 -0.00,0.65 -0.08,0.64 -0.15,0.63 -0.15,0.63 L -0.15,0.63 Z"></path></g><g transform="translate(542.4998779296875 337.5) rotate(0 8.3333740234375 7.083343505859375)" stroke="none"><path fill="#6741d9" d="M 0.36,-0.54 Q 0.36,-0.54 1.23,-0.29 2.11,-0.05 3.69,1.07 5.27,2.21 6.36,2.90 7.44,3.59 8.78,4.94 10.11,6.30 11.27,7.26 12.42,8.23 13.59,9.18 14.76,10.12 15.72,11.65 16.67,13.18 16.73,13.27 16.79,13.36 16.81,13.47 16.84,13.57 16.83,13.67 16.82,13.78 16.77,13.88 16.73,13.97 16.66,14.05 16.59,14.13 16.49,14.18 16.40,14.24 16.30,14.25 16.19,14.27 16.09,14.26 15.98,14.24 15.89,14.20 15.79,14.15 15.72,14.07 15.64,14.00 15.60,13.90 15.55,13.81 15.54,13.70 15.52,13.59 15.54,13.49 15.57,13.39 15.62,13.29 15.67,13.20 15.75,13.13 15.83,13.06 15.93,13.02 16.03,12.98 16.13,12.97 16.24,12.96 16.34,12.99 16.44,13.02 16.53,13.07 16.62,13.13 16.69,13.21 16.75,13.30 16.79,13.40 16.83,13.50 16.83,13.60 16.83,13.71 16.80,13.81 16.77,13.91 16.70,14.00 16.64,14.08 16.55,14.15 16.47,14.21 16.37,14.24 16.26,14.27 16.16,14.26 16.05,14.26 15.95,14.22 15.85,14.19 15.77,14.12 15.69,14.05 15.69,14.05 15.69,14.05 14.46,13.11 13.23,12.18 11.92,11.29 10.61,10.41 9.31,9.34 8.01,8.27 6.96,7.09 5.91,5.90 4.76,5.12 3.61,4.35 2.19,3.16 0.76,1.96 0.19,1.25 -0.36,0.54 -0.42,0.49 -0.48,0.44 -0.53,0.37 -0.57,0.31 -0.60,0.24 -0.63,0.16 -0.64,0.08 -0.65,0.01 -0.64,-0.06 -0.64,-0.14 -0.61,-0.22 -0.58,-0.29 -0.54,-0.36 -0.49,-0.42 -0.44,-0.48 -0.38,-0.53 -0.31,-0.57 -0.24,-0.61 -0.16,-0.63 -0.08,-0.65 -0.01,-0.65 0.06,-0.65 0.14,-0.63 0.22,-0.61 0.29,-0.58 0.36,-0.54 0.36,-0.54 L 0.36,-0.54 Z"></path></g><g transform="translate(540.833251953125 350.8333740234375) rotate(0 8.33331298828125 -7.5)" stroke="none"><path fill="#6741d9" d="M -0.39,-0.52 Q -0.39,-0.52 0.35,-1.51 1.11,-2.50 2.62,-3.99 4.14,-5.49 5.77,-7.08 7.39,-8.68 9.11,-10.08 10.83,-11.48 13.08,-13.06 15.32,-14.65 15.41,-14.71 15.50,-14.77 15.60,-14.80 15.71,-14.82 15.81,-14.82 15.92,-14.81 16.02,-14.77 16.11,-14.73 16.19,-14.66 16.27,-14.59 16.33,-14.50 16.38,-14.41 16.40,-14.30 16.42,-14.20 16.41,-14.09 16.40,-13.99 16.35,-13.89 16.31,-13.79 16.23,-13.72 16.16,-13.64 16.06,-13.59 15.97,-13.55 15.86,-13.53 15.76,-13.51 15.65,-13.53 15.55,-13.55 15.46,-13.60 15.36,-13.65 15.29,-13.73 15.22,-13.81 15.18,-13.91 15.13,-14.00 15.12,-14.11 15.11,-14.21 15.14,-14.32 15.16,-14.42 15.22,-14.51 15.27,-14.60 15.36,-14.67 15.44,-14.74 15.54,-14.78 15.64,-14.81 15.74,-14.82 15.85,-14.82 15.95,-14.79 16.05,-14.76 16.14,-14.70 16.23,-14.64 16.29,-14.56 16.35,-14.47 16.38,-14.37 16.42,-14.27 16.42,-14.16 16.41,-14.06 16.38,-13.96 16.34,-13.86 16.28,-13.77 16.21,-13.69 16.21,-13.69 16.21,-13.69 14.41,-11.54 12.60,-9.38 11.01,-7.99 9.42,-6.59 7.76,-4.99 6.10,-3.39 4.41,-1.88 2.71,-0.36 1.55,0.07 0.39,0.52 0.32,0.56 0.25,0.60 0.18,0.62 0.10,0.64 0.02,0.65 -0.05,0.65 -0.13,0.63 -0.20,0.62 -0.28,0.58 -0.35,0.55 -0.41,0.50 -0.47,0.45 -0.52,0.39 -0.56,0.32 -0.59,0.25 -0.63,0.18 -0.64,0.10 -0.65,0.02 -0.64,-0.05 -0.64,-0.13 -0.61,-0.20 -0.59,-0.28 -0.55,-0.34 -0.50,-0.41 -0.45,-0.47 -0.39,-0.52 -0.39,-0.52 L -0.39,-0.52 Z"></path></g><g transform="translate(570.833251953125 366.66668701171875) rotate(0 -2.91668701171875 -10)" stroke="none"><path fill="#6741d9" d="M -0.65,0 Q -0.65,0 -0.99,-0.95 -1.32,-1.91 -1.34,-3.04 -1.36,-4.17 -1.12,-5.72 -0.89,-7.27 -0.80,-8.77 -0.72,-10.27 -0.68,-11.87 -0.65,-13.46 -0.64,-14.63 -0.62,-15.79 -0.61,-16.74 -0.61,-17.70 -1.57,-16.48 -2.54,-15.27 -3.42,-14.41 -4.31,-13.55 -4.85,-12.80 -5.39,-12.04 -6.11,-10.99 -6.84,-9.93 -7.07,-9.17 -7.30,-8.40 -7.73,-7.63 -8.16,-6.87 -7.50,-6.80 -6.84,-6.73 -5.84,-6.67 -4.84,-6.60 -3.69,-6.57 -2.53,-6.54 -0.97,-6.23 0.58,-5.93 2.12,-5.05 3.67,-4.17 3.76,-4.12 3.86,-4.08 3.93,-4.00 4.01,-3.93 4.05,-3.83 4.10,-3.73 4.11,-3.63 4.13,-3.52 4.11,-3.42 4.08,-3.32 4.03,-3.22 3.98,-3.13 3.90,-3.06 3.82,-2.99 3.72,-2.95 3.62,-2.91 3.52,-2.90 3.41,-2.89 3.31,-2.92 3.21,-2.95 3.12,-3.00 3.03,-3.06 2.96,-3.14 2.90,-3.23 2.86,-3.33 2.82,-3.43 2.82,-3.53 2.82,-3.64 2.85,-3.74 2.88,-3.84 2.95,-3.93 3.01,-4.01 3.10,-4.08 3.18,-4.14 3.29,-4.17 3.39,-4.20 3.49,-4.19 3.60,-4.19 3.70,-4.15 3.80,-4.12 3.88,-4.05 3.96,-3.98 4.02,-3.89 4.08,-3.80 4.10,-3.70 4.13,-3.59 4.12,-3.49 4.11,-3.38 4.06,-3.29 4.02,-3.19 3.95,-3.11 3.88,-3.03 3.78,-2.98 3.69,-2.93 3.59,-2.91 3.48,-2.89 3.38,-2.91 3.27,-2.92 3.27,-2.92 3.27,-2.92 1.68,-3.03 0.09,-3.15 -1.26,-3.35 -2.63,-3.56 -3.85,-3.59 -5.06,-3.63 -6.26,-3.73 -7.46,-3.83 -8.68,-4.21 -9.89,-4.59 -10.45,-5.46 -11.02,-6.32 -10.87,-7.33 -10.72,-8.34 -10.41,-8.85 -10.09,-9.36 -9.69,-10.47 -9.29,-11.58 -8.53,-12.68 -7.77,-13.79 -7.07,-14.73 -6.36,-15.67 -5.45,-16.55 -4.55,-17.43 -3.50,-18.39 -2.45,-19.36 -1.45,-19.92 -0.44,-20.49 0.30,-20.27 1.05,-20.06 1.65,-18.90 2.25,-17.74 2.24,-16.74 2.23,-15.74 2.21,-14.57 2.19,-13.39 2.14,-11.74 2.08,-10.08 1.96,-8.45 1.84,-6.81 1.60,-5.49 1.36,-4.16 1.34,-3.04 1.32,-1.91 0.99,-0.95 0.65,0 0.64,0.07 0.63,0.15 0.60,0.23 0.58,0.30 0.53,0.37 0.49,0.43 0.43,0.48 0.37,0.54 0.30,0.57 0.23,0.61 0.15,0.63 0.07,0.65 -0.00,0.65 -0.07,0.65 -0.15,0.63 -0.23,0.61 -0.30,0.57 -0.37,0.54 -0.43,0.48 -0.49,0.43 -0.53,0.37 -0.58,0.30 -0.60,0.23 -0.63,0.15 -0.64,0.07 -0.65,-0.00 -0.65,-0.00 L -0.65,0 Z"></path></g></svg>