<svg version="1.1" xmlns="http://www.w3.org/2000/svg" viewBox="0 0 446.76708984375 220.8315887451172" width="446.76708984375" height="220.8315887451172" filter="invert(93%) hue-rotate(180deg)" class="excalidraw-svg">
  <!-- svg-source:excalidraw -->
  
  <defs>
    <style class="style-fonts">
      @font-face {
        font-family: "Virgil";
        src: url("https://excalidraw.com/Virgil.woff2");
      }
      @font-face {
        font-family: "Cascadia";
        src: url("https://excalidraw.com/Cascadia.woff2");
      }
      @font-face {
        font-family: "Assistant";
        src: url("https://excalidraw.com/Assistant-Regular.woff2");
      }
    </style>
    
  </defs>
  <rect x="0" y="0" width="446.76708984375" height="220.8315887451172" fill="#ffffff"/><g transform="translate(101.28704833984375 36.62541198730469) rotate(0 23.962860107421875 0)" stroke="none"><path fill="#1e1e1e" d="M 0.15,-0.63 Q 0.15,-0.63 1.10,-0.71 2.05,-0.80 2.99,-0.75 3.92,-0.70 4.77,-0.68 5.61,-0.67 6.84,-0.67 8.06,-0.68 9.68,-0.70 11.29,-0.72 13.21,-0.95 15.13,-1.18 17.12,-1.29 19.11,-1.40 20.83,-1.45 22.55,-1.50 23.94,-1.52 25.32,-1.54 26.79,-1.55 28.25,-1.56 29.15,-1.77 30.06,-1.98 31.26,-2.09 32.46,-2.20 33.17,-2.24 33.88,-2.28 34.64,-2.30 35.39,-2.32 36.15,-2.33 36.91,-2.33 37.45,-2.34 37.99,-2.34 39.07,-2.34 40.15,-2.34 41.28,-2.35 42.40,-2.35 43.32,-2.35 44.25,-2.35 45.95,-1.88 47.65,-1.41 47.76,-1.40 47.86,-1.38 47.96,-1.33 48.05,-1.28 48.13,-1.20 48.20,-1.12 48.24,-1.03 48.29,-0.93 48.30,-0.83 48.31,-0.72 48.29,-0.62 48.26,-0.51 48.21,-0.42 48.16,-0.33 48.07,-0.26 47.99,-0.19 47.89,-0.15 47.80,-0.11 47.69,-0.11 47.58,-0.10 47.48,-0.13 47.38,-0.16 47.29,-0.22 47.20,-0.28 47.14,-0.36 47.07,-0.45 47.04,-0.55 47.01,-0.65 47.01,-0.76 47.01,-0.86 47.04,-0.96 47.07,-1.06 47.14,-1.15 47.20,-1.23 47.29,-1.29 47.38,-1.35 47.48,-1.38 47.58,-1.41 47.69,-1.40 47.80,-1.40 47.89,-1.36 47.99,-1.32 48.07,-1.25 48.16,-1.18 48.21,-1.09 48.26,-1.00 48.29,-0.89 48.31,-0.79 48.30,-0.69 48.29,-0.58 48.24,-0.48 48.20,-0.39 48.12,-0.31 48.05,-0.23 47.96,-0.18 47.86,-0.13 47.76,-0.12 47.65,-0.10 47.65,-0.10 47.65,-0.10 45.95,0.36 44.25,0.83 43.33,0.83 42.41,0.83 41.28,0.82 40.15,0.82 39.08,0.83 38.01,0.83 37.47,0.83 36.94,0.83 36.20,0.84 35.47,0.85 34.77,0.86 34.06,0.88 33.39,0.92 32.73,0.95 31.72,1.03 30.70,1.11 29.49,1.35 28.28,1.58 26.82,1.59 25.36,1.59 23.99,1.60 22.62,1.62 20.94,1.64 19.25,1.67 17.35,1.75 15.46,1.82 13.37,2.02 11.28,2.22 9.65,2.19 8.02,2.15 6.75,2.11 5.49,2.07 4.58,2.01 3.68,1.94 2.56,1.81 1.44,1.67 0.64,1.15 -0.15,0.63 -0.23,0.60 -0.30,0.58 -0.37,0.53 -0.43,0.49 -0.48,0.43 -0.54,0.37 -0.57,0.30 -0.61,0.23 -0.63,0.15 -0.65,0.07 -0.65,-0.00 -0.65,-0.08 -0.63,-0.15 -0.61,-0.23 -0.57,-0.30 -0.53,-0.37 -0.48,-0.43 -0.43,-0.49 -0.36,-0.53 -0.30,-0.58 -0.22,-0.61 -0.15,-0.63 -0.07,-0.64 0.00,-0.65 0.08,-0.64 0.15,-0.63 0.15,-0.63 L 0.15,-0.63 Z"/></g><g transform="translate(145.4091796875 25.214523315429688) rotate(0 0.38037109375 11.410881042480469)" stroke="none"><path fill="#1e1e1e" d="M 0.64,-0.10 Q 0.64,-0.10 1.28,1.13 1.92,2.37 2.05,4.55 2.17,6.73 2.22,8.73 2.27,10.73 2.30,13.55 2.33,16.37 2.30,18.44 2.28,20.51 1.53,21.34 0.79,22.17 0.78,22.25 0.77,22.33 0.74,22.40 0.71,22.48 0.67,22.54 0.62,22.61 0.57,22.66 0.51,22.71 0.44,22.75 0.37,22.79 0.29,22.81 0.21,22.83 0.13,22.83 0.05,22.83 -0.01,22.81 -0.09,22.79 -0.16,22.75 -0.23,22.72 -0.29,22.66 -0.35,22.61 -0.39,22.55 -0.44,22.48 -0.47,22.41 -0.50,22.33 -0.51,22.26 -0.52,22.18 -0.47,22.34 -0.43,22.51 -0.46,22.41 -0.50,22.31 -0.51,22.20 -0.51,22.10 -0.48,21.99 -0.45,21.89 -0.39,21.80 -0.33,21.72 -0.24,21.65 -0.16,21.59 -0.06,21.56 0.03,21.53 0.14,21.53 0.25,21.53 0.35,21.56 0.45,21.60 0.53,21.66 0.61,21.73 0.67,21.82 0.73,21.91 0.76,22.01 0.79,22.11 0.78,22.22 0.77,22.32 0.73,22.42 0.69,22.52 0.62,22.60 0.55,22.68 0.46,22.73 0.37,22.79 0.26,22.81 0.16,22.83 0.05,22.82 -0.04,22.81 -0.14,22.76 -0.23,22.71 -0.31,22.64 -0.39,22.57 -0.43,22.47 -0.48,22.38 -0.50,22.27 -0.52,22.17 -0.50,22.06 -0.48,21.96 -0.43,21.86 -0.38,21.77 -0.30,21.70 -0.22,21.63 -0.12,21.58 -0.03,21.54 0.07,21.53 0.18,21.52 0.28,21.54 0.38,21.57 0.47,21.62 0.56,21.68 0.68,21.93 0.79,22.17 0.78,22.25 0.77,22.33 0.74,22.40 0.71,22.48 0.67,22.54 0.62,22.61 0.57,22.66 0.51,22.71 0.44,22.75 0.37,22.79 0.29,22.81 0.21,22.83 0.13,22.83 0.05,22.83 -0.01,22.81 -0.09,22.79 -0.16,22.75 -0.23,22.72 -0.29,22.66 -0.35,22.61 -0.39,22.55 -0.44,22.48 -0.47,22.41 -0.50,22.33 -0.51,22.26 -0.52,22.18 -0.65,21.35 -0.78,20.52 -0.82,18.46 -0.85,16.39 -0.86,13.59 -0.87,10.79 -0.89,8.83 -0.92,6.87 -0.99,4.87 -1.05,2.87 -0.84,1.48 -0.64,0.10 -0.65,0.02 -0.65,-0.05 -0.63,-0.12 -0.62,-0.20 -0.59,-0.27 -0.55,-0.34 -0.50,-0.41 -0.45,-0.47 -0.39,-0.51 -0.33,-0.56 -0.25,-0.59 -0.18,-0.62 -0.10,-0.64 -0.02,-0.65 0.04,-0.64 0.12,-0.64 0.20,-0.61 0.27,-0.59 0.34,-0.55 0.41,-0.51 0.46,-0.45 0.52,-0.39 0.56,-0.32 0.60,-0.25 0.62,-0.18 0.64,-0.10 0.64,-0.10 L 0.64,-0.10 Z"/></g><g transform="translate(142.36627197265625 25.975250244140625) rotate(0 9.128692626953125 11.791244506835938)" stroke="none"><path fill="#1e1e1e" d="M 0.29,-0.58 Q 0.29,-0.58 1.36,-0.54 2.43,-0.49 3.58,-0.14 4.73,0.19 6.96,1.52 9.20,2.84 11.17,4.03 13.14,5.21 14.83,6.13 16.53,7.04 17.67,7.99 18.82,8.94 19.46,10.50 20.10,12.07 19.37,13.91 18.65,15.76 16.60,17.47 14.55,19.19 12.87,20.45 11.20,21.71 9.23,22.66 7.25,23.61 5.30,24.07 3.34,24.52 3.24,24.56 3.14,24.59 3.03,24.59 2.92,24.59 2.82,24.55 2.72,24.52 2.64,24.46 2.55,24.39 2.49,24.30 2.43,24.21 2.41,24.11 2.38,24.01 2.38,23.90 2.39,23.80 2.43,23.70 2.47,23.60 2.54,23.52 2.61,23.44 2.70,23.38 2.79,23.33 2.89,23.31 3.00,23.28 3.10,23.30 3.21,23.31 3.31,23.35 3.40,23.40 3.48,23.47 3.56,23.54 3.60,23.64 3.65,23.73 3.67,23.84 3.69,23.94 3.67,24.05 3.65,24.15 3.60,24.25 3.55,24.34 3.48,24.41 3.40,24.49 3.30,24.53 3.21,24.57 3.10,24.59 2.99,24.60 2.89,24.57 2.79,24.55 2.70,24.49 2.61,24.44 2.54,24.36 2.47,24.28 2.43,24.18 2.39,24.08 2.38,23.97 2.38,23.87 2.41,23.77 2.44,23.66 2.50,23.58 2.56,23.49 2.64,23.42 2.73,23.36 2.73,23.36 2.73,23.36 4.19,22.01 5.65,20.66 7.27,19.66 8.89,18.67 10.52,17.40 12.16,16.13 13.77,14.99 15.38,13.85 15.89,12.62 16.41,11.40 15.66,10.66 14.91,9.93 13.19,8.96 11.46,7.98 9.49,6.78 7.52,5.58 5.63,4.37 3.74,3.17 2.40,2.70 1.06,2.24 0.38,1.41 -0.29,0.58 -0.35,0.54 -0.42,0.49 -0.47,0.44 -0.53,0.38 -0.57,0.31 -0.60,0.24 -0.62,0.16 -0.65,0.09 -0.65,0.01 -0.65,-0.06 -0.63,-0.14 -0.61,-0.22 -0.58,-0.29 -0.54,-0.36 -0.49,-0.42 -0.44,-0.48 -0.38,-0.52 -0.31,-0.57 -0.24,-0.60 -0.16,-0.63 -0.09,-0.64 -0.01,-0.65 0.06,-0.64 0.14,-0.64 0.21,-0.61 0.29,-0.58 0.29,-0.58 L 0.29,-0.58 Z"/></g><g transform="translate(159.86297607421875 37.386138916015625) rotate(0 11.791229248046875 -1.1410903930664062)" stroke="none"><path fill="#1e1e1e" d="M 0,-0.65 Q 0,-0.65 0.86,-0.95 1.73,-1.26 2.38,-1.48 3.03,-1.70 4.36,-1.84 5.70,-1.99 7.01,-2.27 8.33,-2.54 10.09,-2.69 11.86,-2.84 13.26,-2.90 14.65,-2.95 15.68,-2.98 16.71,-3.01 17.59,-3.02 18.47,-3.04 19.06,-3.04 19.65,-3.05 21.42,-2.95 23.18,-2.86 23.29,-2.86 23.39,-2.87 23.50,-2.85 23.60,-2.82 23.69,-2.76 23.78,-2.70 23.84,-2.62 23.91,-2.54 23.94,-2.44 23.98,-2.34 23.98,-2.23 23.98,-2.12 23.95,-2.02 23.92,-1.92 23.86,-1.84 23.79,-1.75 23.71,-1.69 23.62,-1.63 23.52,-1.60 23.42,-1.57 23.31,-1.57 23.21,-1.57 23.11,-1.61 23.01,-1.65 22.92,-1.72 22.84,-1.78 22.79,-1.87 22.73,-1.96 22.70,-2.07 22.68,-2.17 22.69,-2.28 22.70,-2.38 22.74,-2.48 22.78,-2.58 22.86,-2.66 22.93,-2.73 23.02,-2.79 23.11,-2.84 23.22,-2.86 23.32,-2.88 23.43,-2.86 23.53,-2.84 23.63,-2.80 23.72,-2.75 23.80,-2.67 23.87,-2.60 23.92,-2.50 23.96,-2.41 23.98,-2.30 23.99,-2.20 23.97,-2.09 23.95,-1.99 23.90,-1.90 23.84,-1.80 23.76,-1.73 23.68,-1.66 23.59,-1.62 23.49,-1.58 23.49,-1.58 23.49,-1.58 21.58,-0.78 19.67,0.02 19.09,0.02 18.50,0.02 17.64,0.02 16.77,0.03 15.76,0.04 14.75,0.05 13.40,0.08 12.05,0.12 10.45,0.19 8.85,0.27 7.38,0.50 5.91,0.74 4.80,0.78 3.70,0.82 2.73,1.04 1.76,1.26 0.88,0.95 0,0.65 -0.07,0.64 -0.15,0.63 -0.23,0.60 -0.30,0.58 -0.37,0.53 -0.43,0.49 -0.48,0.43 -0.54,0.37 -0.57,0.30 -0.61,0.23 -0.63,0.15 -0.65,0.07 -0.65,-0.00 -0.65,-0.07 -0.63,-0.15 -0.61,-0.23 -0.57,-0.30 -0.54,-0.37 -0.48,-0.43 -0.43,-0.49 -0.37,-0.53 -0.30,-0.58 -0.23,-0.60 -0.15,-0.63 -0.07,-0.64 0.00,-0.65 0.00,-0.65 L 0,-0.65 Z"/></g><g transform="translate(224.524658203125 26.735977172851562) rotate(0 5.3250732421875 -0.7607269287109375)" stroke="none"><path fill="#1e1e1e" d="M -0.12,-0.64 Q -0.12,-0.64 0.88,-1.24 1.90,-1.84 3.10,-1.96 4.30,-2.08 5.58,-2.32 6.85,-2.56 9.05,-1.43 11.25,-0.30 11.26,-0.20 11.26,-0.09 11.23,0.00 11.20,0.10 11.14,0.19 11.08,0.27 10.99,0.34 10.90,0.40 10.80,0.43 10.70,0.46 10.59,0.46 10.49,0.46 10.39,0.42 10.29,0.38 10.20,0.32 10.12,0.25 10.06,0.16 10.01,0.07 9.98,-0.02 9.96,-0.12 9.96,-0.23 9.97,-0.33 10.01,-0.43 10.05,-0.53 10.13,-0.61 10.20,-0.69 10.29,-0.74 10.38,-0.79 10.49,-0.81 10.59,-0.83 10.69,-0.82 10.80,-0.81 10.90,-0.76 10.99,-0.71 11.07,-0.64 11.14,-0.56 11.19,-0.47 11.24,-0.37 11.25,-0.27 11.27,-0.16 11.25,-0.06 11.23,0.04 11.17,0.13 11.12,0.22 11.04,0.29 10.96,0.36 10.87,0.41 10.77,0.45 10.66,0.46 10.56,0.47 10.45,0.44 10.35,0.42 10.26,0.36 10.17,0.30 10.11,0.22 10.04,0.14 10.00,0.04 9.96,-0.05 9.96,-0.05 9.96,-0.05 8.68,0.11 7.40,0.28 5.97,0.56 4.55,0.84 3.50,0.90 2.46,0.96 1.29,0.80 0.12,0.64 0.04,0.64 -0.02,0.65 -0.10,0.64 -0.18,0.62 -0.25,0.59 -0.33,0.56 -0.39,0.51 -0.45,0.47 -0.50,0.41 -0.55,0.34 -0.59,0.27 -0.62,0.20 -0.63,0.12 -0.65,0.05 -0.65,-0.02 -0.64,-0.10 -0.62,-0.18 -0.60,-0.25 -0.56,-0.32 -0.52,-0.39 -0.46,-0.45 -0.41,-0.51 -0.34,-0.55 -0.27,-0.59 -0.20,-0.61 -0.12,-0.64 -0.12,-0.64 L -0.12,-0.64 Z"/></g><g transform="translate(223.003173828125 35.10395812988281) rotate(0 7.607269287109375 0.38036346435546875)" stroke="none"><path fill="#1e1e1e" d="M 0.15,-0.63 Q 0.15,-0.63 1.13,-0.82 2.10,-1.00 3.02,-0.98 3.94,-0.96 4.78,-0.93 5.62,-0.91 7.06,-0.88 8.50,-0.84 9.99,-0.71 11.48,-0.58 13.01,-0.24 14.54,0.10 14.64,0.11 14.75,0.13 14.84,0.18 14.93,0.23 15.01,0.31 15.08,0.39 15.12,0.48 15.17,0.58 15.18,0.69 15.19,0.79 15.17,0.89 15.14,1.00 15.09,1.09 15.03,1.18 14.95,1.25 14.87,1.32 14.77,1.36 14.67,1.40 14.57,1.40 14.46,1.41 14.36,1.38 14.26,1.35 14.17,1.29 14.08,1.23 14.02,1.14 13.95,1.06 13.92,0.96 13.89,0.86 13.89,0.75 13.89,0.65 13.92,0.55 13.96,0.44 14.02,0.36 14.08,0.28 14.17,0.22 14.26,0.16 14.36,0.13 14.47,0.10 14.57,0.11 14.68,0.11 14.78,0.15 14.88,0.19 14.96,0.26 15.04,0.33 15.09,0.42 15.15,0.51 15.17,0.62 15.19,0.72 15.18,0.83 15.17,0.93 15.12,1.03 15.08,1.12 15.00,1.20 14.93,1.28 14.84,1.33 14.74,1.38 14.64,1.39 14.53,1.41 14.53,1.41 14.53,1.41 13.00,1.75 11.47,2.08 9.96,2.20 8.46,2.31 6.97,2.32 5.48,2.32 4.57,2.26 3.66,2.20 2.52,2.04 1.39,1.87 0.61,1.25 -0.15,0.63 -0.23,0.60 -0.30,0.58 -0.37,0.53 -0.43,0.49 -0.48,0.43 -0.54,0.37 -0.57,0.30 -0.61,0.23 -0.63,0.15 -0.65,0.07 -0.65,-0.00 -0.65,-0.08 -0.63,-0.15 -0.61,-0.23 -0.57,-0.30 -0.53,-0.37 -0.48,-0.43 -0.43,-0.49 -0.36,-0.53 -0.30,-0.58 -0.22,-0.61 -0.15,-0.63 -0.07,-0.64 0.00,-0.65 0.08,-0.64 0.15,-0.63 0.15,-0.63 L 0.15,-0.63 Z"/></g><g transform="translate(292.229248046875 25.214523315429688) rotate(0 39.557708740234375 -0.38036346435546875)" stroke="none"><path fill="#1e1e1e" d="M 0.20,0.62 Q 0.20,0.62 -0.39,1.01 -0.98,1.41 -1.54,1.57 -2.09,1.74 -2.97,1.91 -3.84,2.08 -4.01,2.07 -4.17,2.07 -4.33,2.03 -4.48,1.98 -4.62,1.90 -4.77,1.82 -4.89,1.71 -5.00,1.60 -5.09,1.46 -5.18,1.32 -5.24,1.17 -5.29,1.02 -5.30,0.85 -5.32,0.69 -5.29,0.53 -5.27,0.37 -5.21,0.22 -5.14,0.07 -5.05,-0.05 -4.95,-0.19 -4.83,-0.29 -4.70,-0.39 -4.55,-0.47 -4.41,-0.54 -4.25,-0.57 -4.09,-0.61 -3.35,-0.27 -2.61,0.05 -1.75,0.00 -0.90,-0.04 0.22,-0.05 1.35,-0.06 2.71,-0.08 4.07,-0.10 5.63,-0.34 7.19,-0.59 9.06,-0.71 10.93,-0.84 12.71,-1.11 14.50,-1.39 16.45,-1.52 18.40,-1.65 19.99,-1.92 21.57,-2.19 23.01,-2.31 24.45,-2.44 26.17,-2.51 27.89,-2.57 29.27,-2.59 30.66,-2.62 32.12,-2.63 33.59,-2.65 34.64,-2.65 35.70,-2.66 36.81,-2.66 37.92,-2.66 38.82,-2.67 39.73,-2.67 40.78,-2.67 41.83,-2.67 42.93,-2.42 44.03,-2.18 44.92,-2.11 45.81,-2.04 46.64,-2.00 47.47,-1.97 48.47,-1.95 49.48,-1.93 50.34,-1.93 51.21,-1.92 52.23,-1.92 53.25,-1.91 54.13,-1.91 55.00,-1.91 55.81,-1.91 56.62,-1.91 57.62,-1.91 58.61,-1.91 59.25,-1.91 59.88,-1.91 61.22,-2.21 62.56,-2.52 63.38,-2.56 64.21,-2.61 64.98,-2.62 65.76,-2.64 66.28,-2.83 66.79,-3.02 67.44,-3.14 68.09,-3.26 68.86,-3.31 69.64,-3.37 70.84,-3.39 72.04,-3.42 72.76,-3.42 73.48,-3.43 74.23,-3.43 74.97,-3.43 75.70,-3.42 76.42,-3.42 77.77,-3.73 79.12,-4.05 79.75,-4.09 80.39,-4.13 81.12,-4.13 81.85,-4.14 81.44,-2.87 81.03,-1.61 81.11,-1.60 81.19,-1.59 81.26,-1.57 81.34,-1.54 81.40,-1.50 81.47,-1.45 81.52,-1.39 81.58,-1.34 81.61,-1.27 81.65,-1.20 81.67,-1.12 81.69,-1.05 81.70,-0.97 81.70,-0.89 81.68,-0.81 81.66,-0.73 81.63,-0.66 81.59,-0.59 81.54,-0.53 81.49,-0.47 81.43,-0.42 81.36,-0.38 81.29,-0.35 81.22,-0.32 81.14,-0.31 81.06,-0.29 81.09,-0.30 81.12,-0.30 81.01,-0.30 80.91,-0.31 80.81,-0.35 80.71,-0.39 80.63,-0.45 80.55,-0.52 80.49,-0.61 80.44,-0.70 80.41,-0.81 80.39,-0.91 80.40,-1.02 80.41,-1.12 80.45,-1.22 80.50,-1.31 80.57,-1.39 80.64,-1.47 80.74,-1.52 80.83,-1.57 80.93,-1.59 81.04,-1.61 81.14,-1.59 81.25,-1.57 81.34,-1.53 81.44,-1.48 81.51,-1.40 81.58,-1.32 81.63,-1.23 81.68,-1.13 81.69,-1.03 81.70,-0.92 81.68,-0.82 81.66,-0.71 81.60,-0.62 81.55,-0.53 81.47,-0.46 81.39,-0.39 81.29,-0.35 81.19,-0.31 81.08,-0.30 80.98,-0.30 80.88,-0.32 80.77,-0.35 80.69,-0.41 80.60,-0.47 80.53,-0.55 80.47,-0.64 80.43,-0.74 80.40,-0.84 80.40,-0.95 80.40,-1.05 80.43,-1.15 80.46,-1.25 80.53,-1.34 80.59,-1.42 80.68,-1.48 80.76,-1.54 80.90,-1.58 81.03,-1.61 81.11,-1.60 81.19,-1.59 81.26,-1.57 81.34,-1.54 81.40,-1.50 81.47,-1.45 81.52,-1.39 81.58,-1.34 81.61,-1.27 81.65,-1.20 81.67,-1.12 81.69,-1.05 81.70,-0.97 81.70,-0.89 81.68,-0.81 81.66,-0.73 81.63,-0.66 81.59,-0.59 81.54,-0.53 81.49,-0.47 81.43,-0.42 81.36,-0.38 81.29,-0.35 81.22,-0.32 81.14,-0.31 81.06,-0.29 81.50,-0.33 81.94,-0.37 81.29,-0.34 80.64,-0.31 80.08,-0.27 79.52,-0.23 78.89,-0.20 78.26,-0.17 77.39,0.10 76.53,0.38 75.75,0.38 74.98,0.39 74.24,0.39 73.50,0.39 72.79,0.40 72.08,0.40 70.98,0.42 69.87,0.45 68.88,0.54 67.88,0.64 66.88,0.91 65.88,1.17 65.14,1.19 64.41,1.20 63.72,1.24 63.04,1.27 62.46,1.33 61.88,1.39 60.90,1.65 59.93,1.91 59.27,1.91 58.61,1.91 57.61,1.91 56.61,1.91 55.80,1.91 54.99,1.91 54.12,1.91 53.24,1.90 52.21,1.90 51.18,1.90 50.29,1.89 49.41,1.88 48.36,1.87 47.30,1.85 46.38,1.81 45.47,1.76 44.29,1.65 43.12,1.53 42.46,1.34 41.80,1.14 40.77,1.15 39.73,1.15 38.83,1.15 37.92,1.15 36.82,1.15 35.72,1.15 34.66,1.15 33.61,1.15 32.16,1.15 30.71,1.16 29.36,1.17 28.00,1.19 26.38,1.22 24.75,1.26 23.45,1.35 22.15,1.45 20.38,1.71 18.62,1.97 16.80,2.06 14.99,2.15 13.05,2.39 11.11,2.63 9.37,2.69 7.62,2.75 5.84,2.93 4.05,3.12 2.68,3.09 1.30,3.05 0.11,3.01 -1.08,2.96 -1.83,2.89 -2.58,2.82 -3.21,2.45 -3.84,2.08 -4.00,2.07 -4.17,2.07 -4.33,2.03 -4.48,1.98 -4.62,1.90 -4.77,1.82 -4.89,1.71 -5.00,1.60 -5.09,1.46 -5.18,1.32 -5.24,1.17 -5.29,1.02 -5.30,0.85 -5.32,0.69 -5.29,0.53 -5.27,0.37 -5.21,0.22 -5.15,0.07 -5.05,-0.05 -4.95,-0.19 -4.83,-0.29 -4.70,-0.39 -4.56,-0.47 -4.41,-0.54 -4.25,-0.57 -4.09,-0.61 -3.68,-0.54 -3.27,-0.48 -2.45,-0.51 -1.63,-0.53 -0.92,-0.57 -0.20,-0.62 -0.13,-0.63 -0.05,-0.65 0.02,-0.65 0.10,-0.64 0.18,-0.62 0.25,-0.60 0.32,-0.56 0.39,-0.52 0.45,-0.46 0.50,-0.41 0.55,-0.34 0.59,-0.28 0.61,-0.20 0.64,-0.13 0.64,-0.05 0.65,0.02 0.64,0.10 0.63,0.18 0.59,0.25 0.56,0.32 0.52,0.39 0.47,0.45 0.41,0.50 0.35,0.55 0.27,0.58 0.20,0.62 0.20,0.62 L 0.20,0.62 Z"/></g><g transform="translate(319.6153564453125 26.735977172851562) rotate(0 25.103973388671875 14.834144592285156)" stroke="none"><path fill="#1e1e1e" d="M -0.65,0 Q -0.65,0 -0.87,-0.65 -1.09,-1.31 -0.93,-2.23 -0.77,-3.16 -0.76,-3.31 -0.74,-3.45 -0.69,-3.59 -0.63,-3.73 -0.55,-3.85 -0.47,-3.97 -0.36,-4.07 -0.25,-4.16 -0.12,-4.23 0.00,-4.30 0.14,-4.34 0.29,-4.37 0.43,-4.37 0.58,-4.37 0.72,-4.34 0.86,-4.30 0.99,-4.23 1.12,-4.16 1.23,-4.07 1.34,-3.97 1.43,-3.85 1.51,-3.73 1.56,-3.59 1.61,-3.45 1.63,-3.31 1.65,-3.16 1.71,-1.49 1.76,0.17 1.71,1.64 1.65,3.10 1.63,5.27 1.61,7.43 1.60,9.23 1.59,11.03 1.37,12.98 1.14,14.93 0.83,17.26 0.52,19.60 0.39,21.20 0.27,22.80 0.21,24.13 0.16,25.45 -0.09,26.62 -0.36,27.78 -0.44,28.55 -0.53,29.33 -0.56,29.88 -0.60,30.44 -0.73,31.03 -0.85,31.63 -0.67,32.74 -0.49,33.85 -0.43,33.31 -0.38,32.77 -0.34,32.98 -0.31,33.18 -0.32,33.39 -0.33,33.59 -0.39,33.79 -0.45,33.98 -0.56,34.16 -0.67,34.34 -0.81,34.48 -0.96,34.63 -1.13,34.73 -1.31,34.84 -1.51,34.90 -1.70,34.96 -1.91,34.98 -2.12,34.99 -2.32,34.95 -2.52,34.91 -2.71,34.83 -2.90,34.74 -3.06,34.62 -3.22,34.49 -3.35,34.33 -3.47,34.17 -3.56,33.98 -3.64,33.79 -2.39,32.78 -1.14,31.77 -0.58,31.72 -0.03,31.67 0.63,31.67 1.29,31.66 2.28,31.45 3.27,31.24 4.97,31.12 6.67,31.01 8.59,30.75 10.51,30.49 12.96,30.37 15.42,30.24 17.98,30.18 20.55,30.12 22.51,30.10 24.47,30.08 26.84,30.06 29.21,30.05 30.87,30.05 32.53,30.04 34.11,30.04 35.69,30.03 37.02,30.03 38.35,30.03 39.79,30.03 41.23,30.03 42.28,30.03 43.33,30.03 44.66,30.03 45.99,30.03 47.02,30.28 48.05,30.53 48.87,30.63 49.70,30.73 50.79,31.04 51.88,31.35 51.95,31.37 52.03,31.38 52.10,31.42 52.17,31.45 52.23,31.50 52.29,31.55 52.34,31.62 52.39,31.68 52.42,31.75 52.45,31.82 52.46,31.90 52.47,31.98 52.47,32.06 52.46,32.14 52.43,32.21 52.41,32.29 52.37,32.36 52.32,32.42 52.27,32.48 52.21,32.53 52.14,32.57 52.07,32.61 52.00,32.63 51.92,32.65 51.84,32.66 51.76,32.66 51.54,32.54 51.31,32.42 51.26,32.33 51.20,32.24 51.18,32.13 51.16,32.03 51.17,31.92 51.19,31.82 51.23,31.72 51.28,31.63 51.35,31.55 51.43,31.48 51.52,31.43 51.62,31.38 51.72,31.36 51.83,31.35 51.93,31.37 52.04,31.38 52.13,31.44 52.22,31.49 52.29,31.56 52.37,31.64 52.41,31.74 52.45,31.84 52.46,31.94 52.47,32.05 52.45,32.15 52.42,32.25 52.37,32.35 52.31,32.44 52.23,32.50 52.15,32.57 52.05,32.61 51.95,32.65 51.84,32.65 51.74,32.66 51.64,32.63 51.53,32.60 51.45,32.53 51.36,32.47 51.30,32.39 51.23,32.30 51.20,32.20 51.17,32.10 51.17,31.99 51.17,31.89 51.21,31.79 51.24,31.69 51.31,31.60 51.37,31.52 51.46,31.46 51.55,31.40 51.65,31.38 51.76,31.35 51.86,31.36 51.97,31.36 52.07,31.40 52.16,31.45 52.02,31.40 51.88,31.35 51.95,31.37 52.03,31.38 52.10,31.42 52.17,31.45 52.23,31.50 52.29,31.55 52.34,31.62 52.39,31.68 52.42,31.75 52.45,31.82 52.46,31.90 52.47,31.98 52.47,32.06 52.46,32.14 52.43,32.21 52.41,32.29 52.37,32.36 52.32,32.42 52.27,32.48 52.21,32.53 52.14,32.57 52.07,32.61 52.00,32.63 51.92,32.65 51.84,32.66 51.76,32.66 50.04,33.56 48.31,34.46 47.66,34.35 47.01,34.23 46.48,34.05 45.95,33.86 44.64,33.86 43.33,33.86 42.28,33.86 41.23,33.86 39.79,33.86 38.35,33.86 37.02,33.86 35.70,33.86 34.12,33.86 32.54,33.86 30.88,33.86 29.22,33.87 26.87,33.87 24.51,33.87 22.56,33.89 20.62,33.90 18.10,33.94 15.59,33.97 13.29,34.07 10.99,34.16 8.94,34.42 6.88,34.68 5.41,34.75 3.94,34.82 2.61,35.04 1.28,35.26 0.59,35.25 -0.09,35.23 -1.20,35.12 -2.31,35.01 -1.35,33.89 -0.38,32.77 -0.34,32.98 -0.31,33.18 -0.32,33.39 -0.33,33.59 -0.39,33.79 -0.45,33.98 -0.56,34.16 -0.67,34.34 -0.81,34.48 -0.96,34.63 -1.13,34.73 -1.31,34.84 -1.51,34.90 -1.70,34.96 -1.91,34.98 -2.12,34.99 -2.32,34.95 -2.52,34.91 -2.71,34.83 -2.90,34.74 -3.06,34.62 -3.22,34.49 -3.35,34.33 -3.47,34.17 -3.56,33.98 -3.64,33.79 -3.23,33.00 -2.82,32.21 -2.90,32.91 -2.99,33.61 -3.33,33.08 -3.68,32.55 -3.75,31.37 -3.82,30.20 -3.77,29.57 -3.72,28.95 -3.60,27.99 -3.48,27.03 -3.26,26.17 -3.04,25.31 -2.97,23.92 -2.91,22.54 -2.77,20.86 -2.63,19.17 -2.32,16.86 -2.00,14.55 -1.78,12.78 -1.55,11.01 -1.53,9.20 -1.52,7.38 -1.47,5.17 -1.43,2.95 -1.33,1.31 -1.23,-0.31 -1.03,-1.14 -0.83,-1.96 -0.80,-2.56 -0.77,-3.16 -0.76,-3.31 -0.74,-3.45 -0.69,-3.59 -0.63,-3.73 -0.55,-3.85 -0.47,-3.97 -0.36,-4.07 -0.25,-4.16 -0.12,-4.23 0.00,-4.30 0.14,-4.34 0.29,-4.37 0.43,-4.37 0.58,-4.37 0.72,-4.34 0.86,-4.30 0.99,-4.23 1.12,-4.16 1.23,-4.07 1.34,-3.97 1.43,-3.85 1.51,-3.73 1.56,-3.59 1.61,-3.45 1.63,-3.31 1.65,-3.16 1.37,-2.23 1.09,-1.31 0.87,-0.65 0.65,0 0.64,0.07 0.63,0.15 0.60,0.23 0.58,0.30 0.53,0.37 0.49,0.43 0.43,0.48 0.37,0.54 0.30,0.57 0.23,0.61 0.15,0.63 0.07,0.65 -0.00,0.65 -0.07,0.65 -0.15,0.63 -0.23,0.61 -0.30,0.57 -0.37,0.54 -0.43,0.48 -0.49,0.43 -0.53,0.37 -0.58,0.30 -0.60,0.23 -0.63,0.15 -0.64,0.07 -0.65,-0.00 -0.65,-0.00 L -0.65,0 Z"/></g><g transform="translate(372.10546875 13.04290771484375) rotate(0 1.52142333984375 24.343223571777344)" stroke="none"><path fill="#1e1e1e" d="M -0.62,-0.20 Q -0.62,-0.20 -0.56,-0.95 -0.49,-1.69 -0.09,-2.16 0.30,-2.63 0.42,-3.02 0.54,-3.41 0.66,-3.49 0.77,-3.57 0.90,-3.62 1.04,-3.67 1.18,-3.69 1.31,-3.71 1.45,-3.69 1.59,-3.67 1.73,-3.62 1.86,-3.58 1.97,-3.50 2.09,-3.42 2.18,-3.31 2.28,-3.21 2.34,-3.08 2.41,-2.96 2.44,-2.82 2.48,-2.69 2.48,-2.55 2.48,-2.40 2.45,-2.27 2.41,-2.13 2.35,-2.01 2.28,-1.88 2.19,-1.78 2.10,-1.67 2.54,-0.29 2.99,1.07 3.24,3.77 3.49,6.46 3.60,8.97 3.72,11.48 3.99,14.24 4.26,17.00 4.39,19.77 4.51,22.53 4.58,26.33 4.65,30.14 4.69,33.72 4.72,37.30 4.74,40.35 4.76,43.41 4.76,45.36 4.77,47.31 4.75,48.58 4.73,49.85 4.68,50.17 4.63,50.49 4.60,50.68 4.58,50.87 4.51,51.05 4.45,51.23 4.34,51.39 4.23,51.54 4.09,51.67 3.94,51.80 3.77,51.89 3.60,51.98 3.42,52.02 3.23,52.07 3.04,52.07 2.85,52.07 2.66,52.02 2.47,51.98 2.30,51.89 2.13,51.80 1.99,51.67 1.85,51.55 1.74,51.39 1.63,51.23 1.56,51.05 1.49,50.87 1.47,50.68 1.45,50.49 1.64,49.16 1.84,47.82 1.46,45.74 1.07,43.65 1.06,43.55 1.06,43.44 1.09,43.34 1.12,43.24 1.18,43.15 1.24,43.06 1.32,43.00 1.41,42.94 1.51,42.90 1.61,42.87 1.72,42.87 1.82,42.87 1.92,42.91 2.02,42.94 2.11,43.00 2.19,43.07 2.25,43.16 2.31,43.25 2.34,43.35 2.37,43.45 2.36,43.56 2.35,43.66 2.31,43.76 2.27,43.86 2.20,43.94 2.13,44.02 2.04,44.08 1.95,44.13 1.85,44.15 1.74,44.17 1.64,44.16 1.53,44.15 1.44,44.10 1.34,44.06 1.26,43.98 1.19,43.91 1.14,43.82 1.09,43.72 1.07,43.62 1.06,43.51 1.07,43.41 1.09,43.30 1.14,43.21 1.19,43.12 1.27,43.04 1.35,42.97 1.44,42.93 1.54,42.88 1.65,42.87 1.75,42.86 1.86,42.89 1.96,42.91 2.05,42.97 2.14,43.02 2.21,43.10 2.28,43.18 2.32,43.28 2.35,43.38 2.35,43.38 2.35,43.38 2.86,45.48 3.36,47.58 3.99,49.04 4.63,50.49 4.60,50.68 4.58,50.87 4.51,51.05 4.45,51.23 4.34,51.39 4.23,51.54 4.09,51.67 3.94,51.80 3.77,51.89 3.60,51.98 3.42,52.02 3.23,52.07 3.04,52.07 2.85,52.07 2.66,52.02 2.47,51.98 2.30,51.89 2.13,51.80 1.99,51.67 1.85,51.55 1.74,51.39 1.63,51.23 1.56,51.05 1.49,50.87 1.47,50.68 1.45,50.49 1.39,50.17 1.34,49.85 1.32,48.59 1.30,47.32 1.30,45.37 1.30,43.42 1.30,40.37 1.30,37.32 1.29,33.75 1.28,30.18 1.26,26.42 1.24,22.66 1.14,19.98 1.05,17.30 0.80,14.45 0.55,11.61 0.47,9.16 0.39,6.72 0.18,3.92 -0.02,1.13 -0.01,-0.11 -0.01,-1.35 0.26,-2.38 0.54,-3.41 0.66,-3.49 0.77,-3.57 0.90,-3.62 1.04,-3.67 1.18,-3.69 1.31,-3.71 1.45,-3.69 1.59,-3.67 1.73,-3.62 1.86,-3.58 1.97,-3.50 2.09,-3.42 2.18,-3.31 2.28,-3.21 2.34,-3.08 2.41,-2.96 2.44,-2.82 2.48,-2.69 2.48,-2.55 2.48,-2.40 2.45,-2.27 2.41,-2.13 2.35,-2.01 2.28,-1.88 2.19,-1.78 2.10,-1.67 1.73,-1.30 1.37,-0.92 0.99,-0.36 0.62,0.20 0.58,0.27 0.55,0.35 0.50,0.41 0.45,0.47 0.39,0.52 0.32,0.56 0.25,0.59 0.18,0.63 0.10,0.64 0.02,0.65 -0.05,0.64 -0.13,0.64 -0.20,0.61 -0.28,0.59 -0.34,0.55 -0.41,0.50 -0.46,0.45 -0.52,0.39 -0.56,0.32 -0.60,0.25 -0.62,0.18 -0.64,0.10 -0.65,0.02 -0.65,-0.05 -0.63,-0.13 -0.62,-0.20 -0.62,-0.20 L -0.62,-0.20 Z"/></g><g transform="translate(368.30181884765625 16.0858154296875) rotate(0 19.018157958984375 25.48431396484375)" stroke="none"><path fill="#1e1e1e" d="M -0.20,-0.62 Q -0.20,-0.62 0.35,-1.11 0.92,-1.61 1.49,-1.77 2.06,-1.94 2.79,-2.03 3.51,-2.11 4.26,-2.15 5.00,-2.18 6.32,-1.99 7.65,-1.80 8.88,-1.49 10.11,-1.19 12.35,0.08 14.58,1.36 16.60,2.78 18.61,4.19 21.43,6.32 24.26,8.45 26.78,10.46 29.30,12.47 31.56,14.94 33.82,17.41 35.05,19.42 36.29,21.44 37.27,23.90 38.26,26.36 38.70,28.59 39.13,30.83 39.31,32.91 39.49,34.99 39.11,36.75 38.73,38.52 37.87,40.42 37.01,42.33 35.67,43.93 34.34,45.54 32.81,46.71 31.28,47.88 29.22,48.86 27.17,49.84 25.40,50.46 23.64,51.09 21.76,51.59 19.88,52.08 17.74,52.51 15.61,52.93 13.75,53.02 11.88,53.11 9.18,52.06 6.49,51.01 6.39,50.96 6.29,50.92 6.22,50.84 6.14,50.77 6.09,50.67 6.05,50.58 6.03,50.47 6.02,50.37 6.03,50.26 6.05,50.16 6.11,50.06 6.16,49.97 6.23,49.90 6.31,49.83 6.41,49.79 6.51,49.74 6.61,49.73 6.72,49.72 6.82,49.75 6.93,49.77 7.02,49.83 7.11,49.89 7.17,49.97 7.24,50.05 7.28,50.15 7.32,50.25 7.32,50.36 7.32,50.46 7.29,50.56 7.26,50.66 7.20,50.75 7.14,50.84 7.05,50.90 6.97,50.96 6.87,51.00 6.77,51.03 6.66,51.03 6.55,51.02 6.45,50.99 6.35,50.95 6.27,50.89 6.19,50.82 6.13,50.73 6.07,50.64 6.04,50.54 6.02,50.44 6.03,50.33 6.03,50.23 6.07,50.13 6.12,50.03 6.19,49.95 6.26,49.87 6.35,49.82 6.44,49.76 6.54,49.74 6.65,49.72 6.75,49.74 6.86,49.75 6.86,49.75 6.86,49.75 9.21,49.78 11.57,49.81 13.22,49.55 14.88,49.28 16.91,48.87 18.94,48.46 20.67,48.01 22.41,47.57 24.01,47.02 25.62,46.46 27.37,45.69 29.12,44.92 30.38,44.04 31.64,43.15 32.74,41.97 33.84,40.79 34.61,39.24 35.38,37.68 35.73,36.45 36.08,35.22 35.93,33.34 35.77,31.46 35.43,29.53 35.08,27.60 34.23,25.39 33.37,23.18 32.34,21.43 31.30,19.67 29.25,17.38 27.19,15.09 24.71,13.11 22.23,11.12 19.46,9.00 16.69,6.88 14.79,5.51 12.90,4.14 11.09,2.97 9.28,1.80 8.20,1.49 7.11,1.17 6.08,0.94 5.05,0.71 4.37,0.71 3.69,0.71 2.69,0.72 1.70,0.74 0.95,0.68 0.20,0.62 0.13,0.63 0.05,0.65 -0.02,0.65 -0.10,0.64 -0.18,0.62 -0.25,0.60 -0.32,0.56 -0.39,0.52 -0.45,0.46 -0.50,0.41 -0.55,0.34 -0.59,0.28 -0.61,0.20 -0.64,0.13 -0.64,0.05 -0.65,-0.02 -0.64,-0.10 -0.63,-0.18 -0.59,-0.25 -0.56,-0.32 -0.52,-0.39 -0.47,-0.45 -0.41,-0.50 -0.35,-0.55 -0.27,-0.58 -0.20,-0.62 -0.20,-0.62 L -0.20,-0.62 Z"/></g><g transform="translate(410.9024658203125 44.232666015625) rotate(0 -0.7607421875 -2.2821807861328125)" stroke="none"><path fill="#1e1e1e" d="M -0.62,0.20 Q -0.62,0.20 -1.05,-0.37 -1.47,-0.95 -2.13,-1.64 -2.78,-2.33 -3.39,-2.60 -4.01,-2.87 -4.46,-2.45 -4.91,-2.03 -4.95,-1.35 -4.98,-0.67 -4.70,-0.19 -4.41,0.29 -3.60,0.81 -2.80,1.34 -1.87,1.82 -0.95,2.29 0.04,2.24 1.03,2.18 1.67,1.87 2.31,1.56 2.65,0.77 2.99,-0.02 3.19,-0.70 3.38,-1.39 3.25,-2.12 3.12,-2.85 2.70,-3.71 2.29,-4.57 1.73,-5.33 1.17,-6.09 0.59,-6.55 0.02,-7.01 -0.72,-7.22 -1.47,-7.43 -2.66,-6.66 -3.86,-5.90 -3.94,-5.82 -4.02,-5.75 -4.12,-5.71 -4.22,-5.67 -4.32,-5.66 -4.43,-5.66 -4.53,-5.68 -4.64,-5.71 -4.73,-5.77 -4.81,-5.82 -4.88,-5.91 -4.95,-5.99 -4.98,-6.09 -5.02,-6.19 -5.02,-6.30 -5.02,-6.40 -4.99,-6.50 -4.96,-6.61 -4.90,-6.69 -4.83,-6.78 -4.75,-6.84 -4.66,-6.90 -4.56,-6.93 -4.46,-6.96 -4.35,-6.96 -4.25,-6.95 -4.15,-6.92 -4.05,-6.88 -3.96,-6.81 -3.88,-6.75 -3.82,-6.66 -3.77,-6.57 -3.74,-6.46 -3.72,-6.36 -3.73,-6.25 -3.74,-6.15 -3.78,-6.05 -3.82,-5.95 -3.89,-5.87 -3.96,-5.80 -4.06,-5.74 -4.15,-5.69 -4.25,-5.67 -4.36,-5.65 -4.46,-5.67 -4.57,-5.68 -4.66,-5.73 -4.76,-5.78 -4.83,-5.85 -4.91,-5.93 -4.96,-6.03 -5.00,-6.12 -5.02,-6.23 -5.03,-6.33 -5.01,-6.44 -4.99,-6.54 -4.94,-6.63 -4.88,-6.72 -4.88,-6.72 -4.88,-6.72 -3.85,-8.38 -2.81,-10.04 -1.97,-10.27 -1.14,-10.50 -0.22,-10.34 0.69,-10.18 1.38,-9.82 2.07,-9.46 2.92,-8.71 3.76,-7.97 4.49,-6.92 5.21,-5.87 5.75,-4.54 6.30,-3.21 6.37,-1.88 6.45,-0.54 6.09,0.53 5.74,1.62 4.79,2.94 3.83,4.26 2.46,4.80 1.09,5.35 -0.58,5.25 -2.27,5.15 -3.52,4.49 -4.78,3.83 -6.01,2.72 -7.25,1.61 -7.65,0.29 -8.06,-1.02 -7.66,-2.51 -7.26,-4.00 -6.38,-4.73 -5.50,-5.46 -4.43,-5.60 -3.35,-5.74 -2.45,-5.37 -1.54,-4.99 -1.14,-4.49 -0.74,-4.00 -0.39,-3.47 -0.04,-2.94 0.28,-2.30 0.60,-1.66 0.61,-0.93 0.62,-0.20 0.63,-0.13 0.65,-0.05 0.65,0.02 0.64,0.10 0.62,0.18 0.60,0.25 0.56,0.32 0.52,0.39 0.46,0.45 0.41,0.50 0.34,0.55 0.28,0.59 0.20,0.61 0.13,0.64 0.05,0.64 -0.02,0.65 -0.10,0.64 -0.18,0.63 -0.25,0.59 -0.32,0.56 -0.39,0.52 -0.45,0.47 -0.50,0.41 -0.55,0.35 -0.58,0.27 -0.62,0.20 -0.62,0.20 L -0.62,0.20 Z"/></g><g transform="translate(417.7490234375 39.668304443359375) rotate(0 8.748291015625 1.1410903930664062)" stroke="none"><path fill="#1e1e1e" d="M 0.65,0 Q 0.65,0 0.98,0.63 1.31,1.27 0.88,1.84 0.46,2.41 0.19,2.48 -0.08,2.55 -0.23,2.65 -0.38,2.75 -0.55,2.81 -0.73,2.87 -0.91,2.89 -1.09,2.91 -1.27,2.88 -1.45,2.85 -1.61,2.79 -1.78,2.72 -1.93,2.61 -2.08,2.51 -2.20,2.37 -2.31,2.23 -2.39,2.07 -2.47,1.90 -2.51,1.73 -2.55,1.55 -2.55,1.37 -2.55,1.19 -2.50,1.01 -2.45,0.84 -2.37,0.68 -2.28,0.52 -2.15,0.39 -2.03,0.25 -0.96,-0.01 0.09,-0.28 0.72,-0.27 1.34,-0.26 2.26,-0.26 3.19,-0.25 4.61,-0.02 6.02,0.20 7.14,0.28 8.25,0.37 9.59,0.40 10.93,0.44 12.16,0.46 13.39,0.47 14.57,0.48 15.75,0.48 16.69,1.05 17.63,1.62 17.71,1.63 17.79,1.64 17.86,1.67 17.93,1.70 18.00,1.74 18.06,1.79 18.12,1.85 18.17,1.91 18.21,1.98 18.24,2.05 18.26,2.12 18.28,2.20 18.28,2.28 18.28,2.36 18.26,2.44 18.24,2.51 18.20,2.58 18.16,2.65 18.11,2.71 18.06,2.77 17.99,2.82 17.93,2.86 17.85,2.89 17.78,2.92 17.70,2.92 17.62,2.93 17.52,2.92 17.42,2.90 17.32,2.85 17.23,2.80 17.16,2.72 17.08,2.65 17.04,2.55 16.99,2.45 16.98,2.35 16.97,2.24 16.99,2.14 17.02,2.04 17.07,1.94 17.12,1.85 17.21,1.78 17.29,1.72 17.38,1.68 17.48,1.64 17.59,1.63 17.70,1.62 17.80,1.65 17.90,1.68 17.99,1.74 18.08,1.80 18.14,1.88 18.21,1.97 18.24,2.07 18.27,2.17 18.27,2.28 18.27,2.38 18.24,2.48 18.21,2.58 18.14,2.67 18.08,2.75 17.99,2.81 17.90,2.87 17.80,2.90 17.70,2.93 17.59,2.92 17.49,2.92 17.39,2.88 17.29,2.84 17.21,2.77 17.13,2.70 17.07,2.61 17.02,2.52 16.99,2.42 16.97,2.31 16.98,2.21 16.99,2.10 17.04,2.01 17.08,1.91 17.15,1.83 17.23,1.75 17.32,1.71 17.42,1.66 17.52,1.64 17.62,1.62 17.63,1.62 17.63,1.62 17.71,1.63 17.79,1.64 17.86,1.67 17.93,1.70 18.00,1.74 18.06,1.79 18.12,1.85 18.17,1.91 18.21,1.98 18.24,2.05 18.26,2.12 18.28,2.20 18.28,2.28 18.28,2.36 18.26,2.44 18.24,2.51 18.20,2.58 18.16,2.65 18.11,2.71 18.06,2.77 17.99,2.82 17.93,2.86 17.85,2.89 17.78,2.92 17.70,2.92 17.62,2.93 16.68,3.49 15.73,4.05 14.54,4.04 13.35,4.03 12.09,4.01 10.83,4.00 9.40,3.95 7.98,3.91 6.70,3.80 5.42,3.70 4.29,3.49 3.16,3.28 2.21,3.27 1.26,3.26 0.59,2.91 -0.08,2.55 -0.23,2.65 -0.38,2.75 -0.55,2.81 -0.73,2.87 -0.91,2.89 -1.09,2.91 -1.27,2.88 -1.45,2.85 -1.61,2.79 -1.78,2.72 -1.93,2.61 -2.08,2.51 -2.20,2.37 -2.31,2.23 -2.39,2.07 -2.47,1.90 -2.51,1.73 -2.55,1.55 -2.55,1.37 -2.55,1.19 -2.50,1.01 -2.45,0.84 -2.37,0.68 -2.28,0.52 -2.15,0.39 -2.03,0.25 -1.67,0.36 -1.31,0.47 -0.98,0.23 -0.65,0 -0.64,-0.07 -0.63,-0.15 -0.60,-0.23 -0.58,-0.30 -0.53,-0.37 -0.49,-0.43 -0.43,-0.48 -0.37,-0.54 -0.30,-0.57 -0.23,-0.61 -0.15,-0.63 -0.07,-0.65 0.00,-0.65 0.07,-0.65 0.15,-0.63 0.23,-0.61 0.30,-0.57 0.37,-0.54 0.43,-0.48 0.49,-0.43 0.53,-0.37 0.58,-0.30 0.60,-0.23 0.63,-0.15 0.64,-0.07 0.65,0.00 0.65,0.00 L 0.65,0 Z"/></g><g transform="translate(10.7607421875 174.31675720214844) rotate(0 16.735931396484375 0.0000152587890625)" stroke="none"><path fill="#1e1e1e" d="M 0,-0.65 Q 0,-0.65 1.09,-1.10 2.18,-1.55 3.30,-1.57 4.42,-1.60 5.34,-1.61 6.25,-1.63 7.51,-1.65 8.77,-1.67 10.06,-1.90 11.34,-2.13 13.12,-2.25 14.89,-2.37 16.51,-2.42 18.13,-2.47 19.48,-2.50 20.82,-2.53 22.06,-2.54 23.29,-2.55 24.45,-2.31 25.60,-2.08 26.16,-2.00 26.72,-1.92 27.53,-1.88 28.35,-1.83 29.10,-1.82 29.86,-1.81 30.62,-1.81 31.38,-1.80 32.13,-0.92 32.88,-0.03 32.96,-0.02 33.04,-0.01 33.11,0.01 33.19,0.04 33.25,0.08 33.32,0.13 33.37,0.19 33.42,0.25 33.46,0.32 33.49,0.39 33.51,0.46 33.53,0.54 33.53,0.62 33.53,0.70 33.51,0.78 33.49,0.85 33.46,0.92 33.42,0.99 33.37,1.05 33.31,1.11 33.25,1.16 33.18,1.20 33.11,1.23 33.04,1.26 32.96,1.27 32.88,1.27 32.99,1.26 33.10,1.24 33.00,1.26 32.89,1.27 32.79,1.26 32.68,1.24 32.59,1.20 32.49,1.15 32.42,1.07 32.34,1.00 32.30,0.90 32.25,0.81 32.24,0.70 32.22,0.60 32.24,0.49 32.26,0.39 32.32,0.30 32.37,0.20 32.45,0.13 32.53,0.06 32.63,0.02 32.73,-0.01 32.83,-0.02 32.94,-0.03 33.04,-0.00 33.14,0.02 33.23,0.07 33.32,0.13 33.39,0.22 33.45,0.30 33.49,0.40 33.53,0.50 33.53,0.61 33.53,0.71 33.50,0.81 33.47,0.91 33.40,1.00 33.34,1.09 33.25,1.15 33.17,1.21 33.07,1.24 32.96,1.27 32.86,1.27 32.75,1.26 32.65,1.23 32.55,1.19 32.47,1.12 32.39,1.05 32.33,0.96 32.27,0.87 32.25,0.77 32.22,0.67 32.23,0.56 32.24,0.46 32.29,0.36 32.33,0.26 32.40,0.18 32.47,0.10 32.68,0.03 32.88,-0.03 32.96,-0.02 33.04,-0.01 33.11,0.01 33.19,0.04 33.25,0.08 33.32,0.13 33.37,0.19 33.42,0.25 33.46,0.32 33.49,0.39 33.51,0.46 33.53,0.54 33.53,0.62 33.53,0.70 33.51,0.78 33.49,0.85 33.46,0.92 33.42,0.99 33.37,1.05 33.31,1.11 33.25,1.16 33.18,1.20 33.11,1.23 33.04,1.26 32.96,1.27 32.88,1.27 31.74,1.54 30.61,1.81 29.83,1.80 29.04,1.80 28.16,1.77 27.28,1.75 26.74,1.70 26.19,1.65 25.50,1.55 24.81,1.44 24.05,1.24 23.29,1.05 22.08,1.05 20.87,1.05 19.54,1.06 18.22,1.07 16.65,1.10 15.08,1.13 13.47,1.19 11.86,1.26 10.32,1.46 8.78,1.67 7.52,1.65 6.25,1.63 5.34,1.61 4.42,1.60 3.30,1.57 2.18,1.55 1.09,1.10 0,0.65 -0.07,0.64 -0.15,0.63 -0.23,0.60 -0.30,0.58 -0.37,0.53 -0.43,0.49 -0.48,0.43 -0.54,0.37 -0.57,0.30 -0.61,0.23 -0.63,0.15 -0.65,0.07 -0.65,-0.00 -0.65,-0.07 -0.63,-0.15 -0.61,-0.23 -0.57,-0.30 -0.54,-0.37 -0.48,-0.43 -0.43,-0.49 -0.37,-0.53 -0.30,-0.58 -0.23,-0.60 -0.15,-0.63 -0.07,-0.64 0.00,-0.65 0.00,-0.65 L 0,-0.65 Z"/></g><g transform="translate(12.28216552734375 202.46360778808594) rotate(0 13.69305419921875 1.521453857421875)" stroke="none"><path fill="#1e1e1e" d="M 0.58,0.29 Q 0.58,0.29 0.64,0.86 0.69,1.43 1.84,1.34 2.98,1.26 4.31,1.25 5.63,1.24 6.45,1.03 7.26,0.83 9.14,0.70 11.02,0.58 12.44,0.54 13.86,0.49 15.34,0.47 16.82,0.45 17.70,0.24 18.58,0.03 19.80,-0.08 21.02,-0.19 21.73,-0.23 22.45,-0.28 23.21,-0.30 23.97,-0.32 25.90,0.27 27.83,0.86 27.93,0.88 28.04,0.89 28.13,0.94 28.22,0.99 28.30,1.07 28.37,1.15 28.42,1.24 28.46,1.34 28.47,1.45 28.48,1.55 28.46,1.65 28.44,1.76 28.38,1.85 28.33,1.94 28.25,2.01 28.17,2.08 28.07,2.12 27.97,2.16 27.86,2.16 27.76,2.17 27.66,2.14 27.55,2.11 27.47,2.05 27.38,2.00 27.31,1.91 27.25,1.83 27.21,1.73 27.18,1.63 27.18,1.52 27.18,1.41 27.21,1.31 27.25,1.21 27.31,1.13 27.37,1.04 27.46,0.98 27.55,0.92 27.65,0.89 27.76,0.86 27.86,0.87 27.97,0.88 28.07,0.91 28.16,0.95 28.25,1.02 28.33,1.09 28.38,1.18 28.44,1.27 28.46,1.38 28.48,1.48 28.47,1.59 28.46,1.69 28.42,1.79 28.37,1.88 28.30,1.96 28.23,2.04 28.13,2.09 28.04,2.14 27.93,2.16 27.83,2.17 27.83,2.17 27.83,2.17 25.95,2.79 24.06,3.41 23.37,3.43 22.67,3.44 22.00,3.48 21.34,3.52 20.35,3.59 19.35,3.67 18.11,3.91 16.87,4.16 15.41,4.17 13.96,4.18 12.58,4.21 11.21,4.24 9.61,4.30 8.00,4.36 6.81,4.58 5.61,4.80 4.25,4.76 2.89,4.73 1.70,4.67 0.52,4.60 -0.34,4.35 -1.20,4.10 -1.51,3.47 -1.82,2.85 -1.83,2.12 -1.84,1.40 -1.70,0.86 -1.56,0.31 -1.07,0.01 -0.58,-0.29 -0.54,-0.35 -0.49,-0.42 -0.44,-0.47 -0.38,-0.53 -0.31,-0.57 -0.24,-0.60 -0.16,-0.62 -0.09,-0.65 -0.01,-0.65 0.06,-0.65 0.14,-0.63 0.22,-0.61 0.29,-0.58 0.36,-0.54 0.42,-0.49 0.48,-0.44 0.52,-0.38 0.57,-0.31 0.60,-0.24 0.63,-0.16 0.64,-0.09 0.65,-0.01 0.64,0.06 0.64,0.14 0.61,0.21 0.58,0.29 0.58,0.29 L 0.58,0.29 Z"/></g><g transform="translate(41.950439453125 169.7523956298828) rotate(0 -1.141082763671875 17.877059936523438)" stroke="none"><path fill="#1e1e1e" d="M 0.65,0.09 Q 0.65,0.09 0.92,1.69 1.19,3.29 1.12,5.82 1.05,8.35 0.80,11.26 0.55,14.17 0.45,16.23 0.34,18.29 0.31,20.68 0.27,23.08 0.47,25.33 0.67,27.58 0.76,29.48 0.84,31.39 0.86,32.41 0.87,33.43 -0.24,33.24 -1.35,33.06 -1.36,33.14 -1.36,33.22 -1.39,33.29 -1.41,33.37 -1.46,33.43 -1.50,33.50 -1.56,33.55 -1.61,33.61 -1.68,33.65 -1.75,33.69 -1.83,33.71 -1.90,33.73 -1.98,33.73 -2.06,33.74 -2.14,33.72 -2.22,33.70 -2.29,33.67 -2.36,33.64 -2.42,33.59 -2.48,33.54 -2.53,33.47 -2.58,33.41 -2.61,33.34 -2.64,33.26 -2.65,33.18 -2.66,33.11 -2.65,33.19 -2.63,33.28 -2.65,33.17 -2.66,33.07 -2.64,32.96 -2.62,32.86 -2.57,32.76 -2.52,32.67 -2.44,32.60 -2.36,32.53 -2.26,32.49 -2.17,32.45 -2.06,32.44 -1.95,32.43 -1.85,32.45 -1.75,32.48 -1.66,32.54 -1.57,32.59 -1.50,32.68 -1.44,32.76 -1.40,32.86 -1.36,32.96 -1.36,33.06 -1.36,33.17 -1.39,33.27 -1.42,33.37 -1.48,33.46 -1.54,33.55 -1.63,33.61 -1.71,33.67 -1.82,33.70 -1.92,33.73 -2.02,33.73 -2.13,33.73 -2.23,33.69 -2.33,33.65 -2.41,33.59 -2.49,33.52 -2.55,33.43 -2.61,33.34 -2.64,33.24 -2.66,33.14 -2.65,33.03 -2.64,32.92 -2.60,32.83 -2.56,32.73 -2.49,32.65 -2.42,32.57 -2.33,32.52 -2.23,32.47 -2.13,32.45 -2.02,32.43 -1.92,32.44 -1.81,32.45 -1.72,32.50 -1.62,32.55 -1.55,32.62 -1.47,32.70 -1.41,32.88 -1.35,33.06 -1.36,33.14 -1.36,33.22 -1.39,33.29 -1.41,33.37 -1.46,33.43 -1.50,33.50 -1.56,33.55 -1.61,33.61 -1.68,33.65 -1.75,33.69 -1.83,33.71 -1.90,33.73 -1.98,33.73 -2.06,33.74 -2.14,33.72 -2.22,33.70 -2.29,33.67 -2.36,33.64 -2.42,33.59 -2.48,33.54 -2.53,33.47 -2.58,33.41 -2.61,33.34 -2.64,33.26 -2.65,33.18 -2.66,33.11 -2.58,33.33 -2.50,33.55 -2.56,32.55 -2.61,31.54 -2.70,29.71 -2.78,27.87 -2.97,25.44 -3.17,23.01 -3.12,20.56 -3.06,18.11 -2.95,15.99 -2.83,13.87 -2.56,11.05 -2.30,8.24 -2.18,5.53 -2.06,2.83 -1.35,1.36 -0.65,-0.09 -0.62,-0.16 -0.60,-0.24 -0.57,-0.31 -0.53,-0.38 -0.47,-0.44 -0.42,-0.50 -0.35,-0.54 -0.29,-0.58 -0.21,-0.61 -0.14,-0.64 -0.06,-0.64 0.01,-0.65 0.09,-0.64 0.17,-0.63 0.24,-0.60 0.31,-0.57 0.38,-0.52 0.44,-0.48 0.49,-0.42 0.54,-0.36 0.58,-0.29 0.61,-0.21 0.63,-0.14 0.65,-0.06 0.65,0.01 0.65,0.09 0.65,0.09 L 0.65,0.09 Z"/></g><g transform="translate(35.10394287109375 169.7523956298828) rotate(0 14.834136962890625 15.594894409179688)" stroke="none"><path fill="#1e1e1e" d="M -0.65,0 Q -0.65,0 -0.91,-0.67 -1.16,-1.35 -0.94,-2.09 -0.73,-2.83 -0.13,-3.65 0.45,-4.48 1.05,-4.91 1.64,-5.34 2.74,-5.96 3.83,-6.59 5.15,-6.91 6.47,-7.24 9.22,-6.71 11.96,-6.18 14.68,-5.04 17.39,-3.89 20.12,-2.28 22.85,-0.67 24.81,1.46 26.77,3.59 28.10,6.38 29.42,9.17 29.99,11.54 30.55,13.92 30.14,17.12 29.73,20.32 28.63,23.27 27.54,26.22 25.70,28.91 23.85,31.60 21.89,33.47 19.92,35.35 17.58,36.46 15.24,37.57 13.18,37.80 11.13,38.03 9.27,37.48 7.41,36.93 5.86,36.01 4.30,35.08 4.21,35.04 4.11,34.99 4.04,34.91 3.97,34.83 3.92,34.74 3.88,34.64 3.86,34.54 3.85,34.43 3.87,34.33 3.90,34.22 3.95,34.13 4.00,34.04 4.08,33.97 4.17,33.90 4.26,33.86 4.36,33.82 4.47,33.81 4.57,33.81 4.68,33.84 4.78,33.86 4.87,33.92 4.96,33.98 5.02,34.07 5.09,34.15 5.12,34.25 5.15,34.35 5.16,34.46 5.16,34.56 5.12,34.66 5.09,34.76 5.03,34.85 4.96,34.93 4.87,34.99 4.79,35.06 4.68,35.08 4.58,35.11 4.48,35.11 4.37,35.10 4.27,35.06 4.17,35.03 4.09,34.96 4.01,34.89 3.95,34.80 3.90,34.71 3.88,34.60 3.85,34.50 3.86,34.40 3.87,34.29 3.92,34.19 3.96,34.10 4.03,34.02 4.11,33.94 4.20,33.89 4.29,33.84 4.40,33.82 4.50,33.80 4.61,33.82 4.71,33.84 4.71,33.84 4.71,33.84 6.37,33.97 8.03,34.11 9.43,34.28 10.82,34.45 12.29,34.31 13.77,34.17 15.62,33.39 17.47,32.61 19.19,31.05 20.91,29.50 22.59,27.22 24.28,24.94 25.31,22.36 26.34,19.78 26.81,17.18 27.28,14.58 26.83,12.57 26.38,10.55 25.33,8.16 24.27,5.77 22.70,3.95 21.12,2.13 18.61,0.61 16.09,-0.90 13.67,-1.98 11.24,-3.06 9.11,-3.64 6.98,-4.22 6.08,-4.08 5.18,-3.94 3.86,-3.33 2.53,-2.72 1.85,-1.99 1.16,-1.27 0.91,-0.63 0.65,0 0.64,0.07 0.63,0.15 0.60,0.23 0.58,0.30 0.53,0.37 0.49,0.43 0.43,0.48 0.37,0.54 0.30,0.57 0.23,0.61 0.15,0.63 0.07,0.65 -0.00,0.65 -0.07,0.65 -0.15,0.63 -0.23,0.61 -0.30,0.57 -0.37,0.54 -0.43,0.48 -0.49,0.43 -0.53,0.37 -0.58,0.30 -0.60,0.23 -0.63,0.15 -0.64,0.07 -0.65,-0.00 -0.65,-0.00 L -0.65,0 Z"/></g><g transform="translate(67.81512451171875 182.6847381591797) rotate(0 -1.141082763671875 3.42327880859375)" stroke="none"><path fill="#1e1e1e" d="M -0.15,0.63 Q -0.15,0.63 -1.05,0.58 -1.94,0.52 -3.06,0.78 -4.19,1.04 -4.99,1.71 -5.80,2.39 -5.96,3.42 -6.13,4.44 -5.97,5.15 -5.81,5.86 -5.23,6.39 -4.66,6.92 -3.99,7.09 -3.32,7.27 -2.17,6.93 -1.03,6.60 -0.23,5.93 0.55,5.26 1.26,4.19 1.96,3.11 2.48,2.38 2.99,1.64 2.50,0.89 2.01,0.14 1.13,-0.15 0.25,-0.46 -1.71,-0.09 -3.69,0.26 -3.79,0.29 -3.88,0.33 -3.99,0.33 -4.10,0.33 -4.20,0.30 -4.30,0.27 -4.39,0.21 -4.47,0.15 -4.53,0.06 -4.60,-0.01 -4.63,-0.12 -4.66,-0.22 -4.66,-0.32 -4.65,-0.43 -4.62,-0.53 -4.58,-0.63 -4.51,-0.71 -4.45,-0.80 -4.36,-0.85 -4.27,-0.91 -4.16,-0.93 -4.06,-0.96 -3.95,-0.95 -3.85,-0.94 -3.75,-0.90 -3.65,-0.86 -3.57,-0.79 -3.50,-0.72 -3.44,-0.62 -3.39,-0.53 -3.37,-0.43 -3.35,-0.32 -3.37,-0.22 -3.38,-0.11 -3.43,-0.02 -3.47,0.07 -3.55,0.14 -3.63,0.22 -3.72,0.27 -3.82,0.31 -3.92,0.33 -4.03,0.34 -4.13,0.32 -4.24,0.30 -4.33,0.25 -4.42,0.20 -4.49,0.12 -4.56,0.04 -4.60,-0.05 -4.65,-0.15 -4.65,-0.25 -4.66,-0.36 -4.64,-0.46 -4.61,-0.57 -4.55,-0.66 -4.50,-0.75 -4.41,-0.81 -4.33,-0.88 -4.33,-0.88 -4.33,-0.88 -1.73,-2.20 0.86,-3.52 2.10,-3.22 3.33,-2.92 4.14,-2.20 4.94,-1.48 5.32,-0.68 5.70,0.11 5.79,1.40 5.88,2.68 5.20,3.84 4.51,5.00 3.43,6.34 2.35,7.68 0.98,8.56 -0.37,9.44 -2.23,9.68 -4.09,9.92 -5.35,9.37 -6.61,8.82 -7.49,7.66 -8.37,6.50 -8.55,5.28 -8.72,4.07 -8.55,3.20 -8.37,2.33 -7.92,1.45 -7.47,0.57 -6.66,-0.05 -5.84,-0.67 -5.13,-0.93 -4.42,-1.20 -3.78,-1.20 -3.14,-1.21 -2.35,-1.30 -1.55,-1.39 -0.69,-1.01 0.15,-0.63 0.23,-0.60 0.30,-0.58 0.37,-0.53 0.43,-0.49 0.48,-0.43 0.54,-0.37 0.57,-0.30 0.61,-0.23 0.63,-0.15 0.65,-0.07 0.65,0.00 0.65,0.08 0.63,0.15 0.61,0.23 0.57,0.30 0.53,0.37 0.48,0.43 0.43,0.49 0.36,0.53 0.30,0.58 0.22,0.61 0.15,0.63 0.07,0.64 -0.00,0.65 -0.08,0.64 -0.15,0.63 -0.15,0.63 L -0.15,0.63 Z"/></g><g transform="translate(71.6187744140625 187.2490997314453) rotate(0 14.834136962890625 -1.141082763671875)" stroke="none"><path fill="#1e1e1e" d="M -0.20,-0.62 Q -0.20,-0.62 0.33,-1.20 0.87,-1.78 1.95,-1.97 3.02,-2.15 4.35,-2.26 5.67,-2.37 7.21,-2.63 8.74,-2.90 11.05,-3.04 13.36,-3.19 14.98,-3.24 16.60,-3.30 18.38,-3.33 20.17,-3.37 21.20,-3.58 22.23,-3.80 23.49,-3.91 24.75,-4.03 25.48,-4.07 26.22,-4.12 26.76,-4.14 27.31,-4.15 27.13,-3.54 26.94,-2.93 27.02,-2.93 27.10,-2.92 27.18,-2.89 27.25,-2.87 27.32,-2.83 27.38,-2.78 27.44,-2.73 27.49,-2.67 27.53,-2.60 27.57,-2.53 27.59,-2.45 27.61,-2.38 27.62,-2.30 27.62,-2.22 27.60,-2.14 27.59,-2.06 27.55,-1.99 27.52,-1.92 27.47,-1.86 27.42,-1.80 27.35,-1.75 27.29,-1.71 27.22,-1.68 27.14,-1.64 27.07,-1.63 26.99,-1.62 26.87,-1.64 26.76,-1.65 26.66,-1.70 26.57,-1.75 26.50,-1.83 26.42,-1.91 26.38,-2.01 26.33,-2.10 26.32,-2.21 26.31,-2.31 26.33,-2.42 26.36,-2.52 26.41,-2.61 26.47,-2.70 26.55,-2.77 26.63,-2.84 26.73,-2.88 26.83,-2.92 26.93,-2.92 27.04,-2.93 27.14,-2.90 27.24,-2.87 27.33,-2.81 27.42,-2.75 27.48,-2.67 27.55,-2.58 27.58,-2.48 27.61,-2.38 27.61,-2.28 27.61,-2.17 27.58,-2.07 27.55,-1.97 27.48,-1.88 27.42,-1.80 27.33,-1.74 27.24,-1.68 27.14,-1.65 27.04,-1.62 26.93,-1.63 26.82,-1.64 26.73,-1.68 26.63,-1.71 26.55,-1.78 26.46,-1.85 26.41,-1.94 26.36,-2.03 26.33,-2.14 26.31,-2.24 26.32,-2.35 26.33,-2.45 26.38,-2.55 26.42,-2.65 26.50,-2.72 26.57,-2.80 26.66,-2.85 26.76,-2.90 26.86,-2.92 26.97,-2.93 26.96,-2.93 26.94,-2.93 27.02,-2.93 27.10,-2.92 27.18,-2.89 27.25,-2.87 27.32,-2.83 27.38,-2.78 27.44,-2.73 27.49,-2.67 27.53,-2.60 27.57,-2.53 27.59,-2.45 27.61,-2.38 27.62,-2.30 27.62,-2.22 27.60,-2.14 27.59,-2.06 27.55,-1.99 27.52,-1.92 27.47,-1.86 27.42,-1.80 27.35,-1.75 27.29,-1.71 27.22,-1.68 27.14,-1.64 27.07,-1.63 26.99,-1.62 26.71,-0.97 26.44,-0.32 25.75,-0.28 25.06,-0.24 23.99,-0.17 22.93,-0.09 21.57,0.14 20.22,0.38 18.46,0.38 16.69,0.38 15.11,0.41 13.52,0.44 11.38,0.49 9.24,0.55 7.51,0.76 5.77,0.96 4.55,0.93 3.33,0.91 2.54,0.91 1.75,0.91 0.98,0.76 0.20,0.62 0.13,0.63 0.05,0.65 -0.02,0.65 -0.10,0.64 -0.18,0.62 -0.25,0.60 -0.32,0.56 -0.39,0.52 -0.45,0.46 -0.50,0.41 -0.55,0.34 -0.59,0.28 -0.61,0.20 -0.64,0.13 -0.64,0.05 -0.65,-0.02 -0.64,-0.10 -0.63,-0.18 -0.59,-0.25 -0.56,-0.32 -0.52,-0.39 -0.47,-0.45 -0.41,-0.50 -0.35,-0.55 -0.27,-0.58 -0.20,-0.62 -0.20,-0.62 L -0.20,-0.62 Z"/></g><g transform="translate(102.80853271484375 168.23097229003906) rotate(0 -1.141082763671875 18.257415771484375)" stroke="none"><path fill="#1e1e1e" d="M -0.62,0.20 Q -0.62,0.20 -0.97,-0.39 -1.33,-1.00 -1.08,0.55 -0.84,2.11 -0.81,3.47 -0.79,4.83 -0.76,6.94 -0.72,9.05 -0.70,11.26 -0.68,13.46 -0.46,15.18 -0.24,16.90 -0.13,18.82 -0.02,20.74 0.02,22.43 0.07,24.12 0.30,25.83 0.54,27.54 0.65,29.02 0.76,30.49 0.81,32.00 0.86,33.51 0.88,34.60 0.90,35.68 0.34,36.60 -0.21,37.51 -0.22,37.59 -0.23,37.67 -0.26,37.74 -0.28,37.82 -0.33,37.88 -0.37,37.95 -0.43,38.00 -0.49,38.06 -0.56,38.10 -0.63,38.13 -0.70,38.15 -0.78,38.17 -0.86,38.18 -0.94,38.18 -1.01,38.16 -1.09,38.14 -1.16,38.11 -1.23,38.07 -1.29,38.02 -1.35,37.97 -1.40,37.90 -1.45,37.84 -1.47,37.76 -1.50,37.69 -1.51,37.61 -1.53,37.53 -1.44,37.31 -1.35,37.08 -1.27,37.01 -1.18,36.95 -1.08,36.91 -0.98,36.88 -0.88,36.88 -0.77,36.87 -0.67,36.91 -0.57,36.94 -0.48,37.00 -0.40,37.07 -0.34,37.15 -0.28,37.24 -0.25,37.34 -0.22,37.44 -0.22,37.55 -0.23,37.66 -0.26,37.76 -0.30,37.86 -0.37,37.94 -0.44,38.02 -0.53,38.07 -0.62,38.13 -0.72,38.15 -0.83,38.18 -0.93,38.17 -1.04,38.16 -1.13,38.11 -1.23,38.07 -1.31,38.00 -1.39,37.93 -1.44,37.83 -1.49,37.74 -1.51,37.64 -1.53,37.53 -1.51,37.43 -1.49,37.32 -1.45,37.23 -1.40,37.13 -1.32,37.06 -1.24,36.98 -1.15,36.94 -1.05,36.89 -0.95,36.88 -0.84,36.87 -0.74,36.89 -0.63,36.91 -0.54,36.96 -0.45,37.02 -0.38,37.10 -0.31,37.18 -0.27,37.28 -0.23,37.38 -0.22,37.48 -0.22,37.59 -0.24,37.69 -0.27,37.79 -0.24,37.65 -0.21,37.51 -0.22,37.59 -0.23,37.67 -0.26,37.74 -0.28,37.82 -0.33,37.88 -0.37,37.95 -0.43,38.00 -0.49,38.06 -0.56,38.10 -0.63,38.13 -0.70,38.15 -0.78,38.17 -0.86,38.18 -0.94,38.18 -1.01,38.16 -1.09,38.14 -1.16,38.11 -1.23,38.07 -1.29,38.02 -1.35,37.97 -1.40,37.90 -1.45,37.84 -1.47,37.76 -1.50,37.69 -1.51,37.61 -1.53,37.53 -2.00,36.62 -2.47,35.71 -2.49,34.66 -2.50,33.61 -2.54,32.17 -2.58,30.72 -2.67,29.35 -2.76,27.98 -2.99,26.09 -3.23,24.20 -3.26,22.55 -3.29,20.90 -3.37,19.09 -3.44,17.29 -3.66,15.38 -3.87,13.47 -3.85,11.26 -3.82,9.05 -3.79,6.93 -3.75,4.82 -3.72,3.45 -3.68,2.08 -3.64,0.91 -3.60,-0.25 -3.56,-0.95 -3.51,-1.65 -2.81,-2.68 -2.12,-3.70 -1.17,-3.29 -0.22,-2.89 0.12,-2.25 0.46,-1.61 0.54,-0.91 0.62,-0.20 0.63,-0.13 0.65,-0.05 0.65,0.02 0.64,0.10 0.62,0.18 0.60,0.25 0.56,0.32 0.52,0.39 0.46,0.45 0.41,0.50 0.34,0.55 0.28,0.59 0.20,0.61 0.13,0.64 0.05,0.64 -0.02,0.65 -0.10,0.64 -0.18,0.63 -0.25,0.59 -0.32,0.56 -0.39,0.52 -0.45,0.47 -0.50,0.41 -0.55,0.35 -0.58,0.27 -0.62,0.20 -0.62,0.20 L -0.62,0.20 Z"/></g><g transform="translate(137.04119873046875 159.8629608154297) rotate(0 -2.282196044921875 25.103958129882812)" stroke="none"><path fill="#1e1e1e" d="M 0.65,0.09 Q 0.65,0.09 0.88,1.68 1.12,3.28 0.83,5.26 0.54,7.24 0.44,9.31 0.34,11.38 0.30,14.01 0.26,16.64 0.03,20.00 -0.19,23.36 -0.51,26.34 -0.83,29.31 -0.95,31.61 -1.07,33.91 -1.13,35.54 -1.18,37.18 -1.43,38.66 -1.68,40.14 -1.77,41.29 -1.86,42.44 -1.90,43.37 -1.94,44.30 -1.96,45.13 -1.98,45.96 -2.24,46.98 -2.50,47.99 -3.20,48.54 -3.91,49.08 -3.93,49.16 -3.96,49.23 -4.00,49.30 -4.04,49.37 -4.09,49.42 -4.15,49.48 -4.21,49.52 -4.28,49.56 -4.36,49.59 -4.43,49.61 -4.51,49.62 -4.59,49.62 -4.67,49.61 -4.75,49.60 -4.82,49.56 -4.89,49.53 -4.95,49.49 -5.02,49.44 -5.07,49.38 -5.12,49.31 -5.15,49.24 -5.18,49.17 -5.20,49.09 -5.21,49.01 -5.21,48.94 -5.20,48.86 -5.19,48.81 -5.18,48.76 -5.13,48.67 -5.08,48.57 -5.01,48.50 -4.93,48.43 -4.83,48.38 -4.74,48.34 -4.63,48.32 -4.53,48.31 -4.42,48.33 -4.32,48.36 -4.23,48.41 -4.14,48.46 -4.07,48.55 -4.00,48.63 -3.96,48.72 -3.92,48.82 -3.91,48.93 -3.90,49.03 -3.93,49.14 -3.96,49.24 -4.02,49.33 -4.08,49.42 -4.16,49.48 -4.25,49.55 -4.35,49.58 -4.45,49.62 -4.55,49.62 -4.66,49.62 -4.76,49.58 -4.86,49.55 -4.95,49.49 -5.03,49.42 -5.09,49.34 -5.15,49.25 -5.18,49.15 -5.21,49.04 -5.20,48.94 -5.20,48.83 -5.16,48.73 -5.12,48.63 -5.05,48.55 -4.99,48.47 -4.90,48.41 -4.80,48.36 -4.70,48.34 -4.60,48.31 -4.49,48.32 -4.39,48.33 -4.29,48.38 -4.19,48.42 -4.11,48.49 -4.04,48.57 -3.99,48.66 -3.94,48.75 -3.92,48.86 -3.90,48.96 -3.91,49.02 -3.91,49.08 -3.93,49.16 -3.96,49.23 -4.00,49.30 -4.04,49.37 -4.09,49.42 -4.15,49.48 -4.21,49.52 -4.28,49.56 -4.36,49.59 -4.43,49.61 -4.51,49.62 -4.59,49.62 -4.67,49.61 -4.75,49.60 -4.82,49.57 -4.89,49.53 -4.95,49.49 -5.02,49.44 -5.07,49.38 -5.12,49.31 -5.15,49.24 -5.18,49.17 -5.20,49.09 -5.21,49.01 -5.21,48.94 -5.20,48.86 -5.70,48.58 -6.19,48.31 -6.07,47.66 -5.95,47.01 -5.76,46.43 -5.57,45.85 -5.55,45.00 -5.53,44.14 -5.48,43.14 -5.43,42.14 -5.31,40.83 -5.20,39.51 -4.96,38.28 -4.73,37.05 -4.66,35.37 -4.60,33.70 -4.45,31.32 -4.30,28.93 -3.97,26.02 -3.65,23.11 -3.40,19.84 -3.14,16.56 -3.06,13.87 -2.99,11.17 -2.82,8.95 -2.66,6.73 -2.33,4.78 -1.99,2.83 -1.32,1.37 -0.65,-0.09 -0.62,-0.16 -0.60,-0.24 -0.57,-0.31 -0.53,-0.38 -0.47,-0.44 -0.42,-0.50 -0.35,-0.54 -0.29,-0.58 -0.21,-0.61 -0.14,-0.64 -0.06,-0.64 0.01,-0.65 0.09,-0.64 0.17,-0.63 0.24,-0.60 0.31,-0.57 0.38,-0.52 0.44,-0.48 0.49,-0.42 0.54,-0.36 0.58,-0.29 0.61,-0.21 0.63,-0.14 0.65,-0.06 0.65,0.01 0.65,0.09 0.65,0.09 L 0.65,0.09 Z"/></g><g transform="translate(127.9124755859375 159.8629608154297) rotate(0 20.539581298828125 23.962875366210938)" stroke="none"><path fill="#1e1e1e" d="M 0,-0.65 Q 0,-0.65 0.87,-0.96 1.74,-1.26 2.34,-1.29 2.93,-1.32 4.00,-1.11 5.07,-0.91 5.81,-0.86 6.55,-0.81 7.72,-0.80 8.89,-0.79 10.00,-0.54 11.11,-0.29 12.07,-0.23 13.03,-0.16 14.73,0.32 16.44,0.82 18.42,1.44 20.41,2.07 22.37,2.78 24.34,3.49 26.34,4.47 28.34,5.45 30.11,6.55 31.87,7.64 33.79,9.25 35.71,10.86 37.22,12.46 38.73,14.07 39.71,16.01 40.69,17.96 41.30,19.66 41.92,21.36 42.22,23.32 42.52,25.27 42.43,27.09 42.34,28.90 42.29,29.83 42.25,30.75 41.51,32.55 40.78,34.36 40.02,35.72 39.27,37.09 38.22,38.42 37.18,39.76 35.85,41.21 34.52,42.66 32.49,44.06 30.47,45.46 28.40,46.30 26.34,47.15 24.60,47.71 22.86,48.27 21.24,48.73 19.62,49.19 17.92,49.40 16.22,49.62 14.84,49.67 13.45,49.72 12.25,49.42 11.04,49.11 9.23,47.84 7.41,46.57 7.32,46.52 7.23,46.46 7.16,46.38 7.09,46.30 7.06,46.20 7.02,46.10 7.01,46.00 7.00,45.89 7.03,45.79 7.06,45.69 7.12,45.60 7.18,45.51 7.26,45.45 7.35,45.38 7.45,45.35 7.55,45.31 7.66,45.31 7.76,45.31 7.86,45.35 7.96,45.38 8.05,45.45 8.13,45.51 8.19,45.60 8.25,45.69 8.28,45.79 8.31,45.89 8.30,46.00 8.30,46.10 8.26,46.20 8.22,46.30 8.15,46.38 8.08,46.46 7.99,46.52 7.90,46.57 7.80,46.60 7.69,46.62 7.59,46.61 7.48,46.60 7.39,46.55 7.29,46.51 7.21,46.43 7.13,46.36 7.08,46.27 7.04,46.17 7.02,46.07 7.00,45.96 7.02,45.86 7.03,45.75 7.08,45.66 7.13,45.57 7.21,45.49 7.29,45.42 7.38,45.37 7.48,45.33 7.59,45.32 7.69,45.31 7.80,45.33 7.90,45.35 7.90,45.35 7.90,45.35 9.79,45.56 11.67,45.76 12.46,45.82 13.25,45.88 14.49,45.77 15.74,45.66 17.14,45.50 18.54,45.33 20.09,44.90 21.64,44.46 23.25,43.95 24.86,43.44 26.57,42.79 28.27,42.14 29.96,41.05 31.65,39.96 32.89,38.64 34.13,37.31 35.01,36.24 35.89,35.17 36.59,33.97 37.29,32.76 37.90,31.60 38.52,30.45 38.58,29.55 38.63,28.64 38.77,27.19 38.91,25.75 38.73,24.14 38.55,22.54 38.02,21.00 37.50,19.47 36.83,17.93 36.16,16.39 34.82,14.93 33.48,13.47 31.77,11.99 30.07,10.50 28.46,9.47 26.85,8.44 25.02,7.51 23.20,6.58 21.30,5.86 19.40,5.15 17.45,4.50 15.50,3.84 14.11,3.38 12.73,2.91 11.56,2.78 10.39,2.64 9.59,2.42 8.78,2.19 7.50,2.12 6.22,2.05 5.32,1.92 4.41,1.79 3.67,1.55 2.92,1.32 2.33,1.29 1.74,1.26 0.87,0.96 0,0.65 -0.07,0.64 -0.15,0.63 -0.23,0.60 -0.30,0.58 -0.37,0.53 -0.43,0.49 -0.48,0.43 -0.54,0.37 -0.57,0.30 -0.61,0.23 -0.63,0.15 -0.65,0.07 -0.65,-0.00 -0.65,-0.07 -0.63,-0.15 -0.61,-0.23 -0.57,-0.30 -0.54,-0.37 -0.48,-0.43 -0.43,-0.49 -0.37,-0.53 -0.30,-0.58 -0.23,-0.60 -0.15,-0.63 -0.07,-0.64 0.00,-0.65 0.00,-0.65 L 0,-0.65 Z"/></g><g transform="translate(170.51312255859375 183.4454803466797) rotate(0 1.141082763671875 3.0428924560546875)" stroke="none"><path fill="#1e1e1e" d="M 0,0.65 Q 0,0.65 -0.87,0.98 -1.74,1.31 -2.31,1.33 -2.87,1.34 -3.18,1.84 -3.50,2.33 -3.53,3.11 -3.56,3.90 -2.97,4.88 -2.39,5.86 -1.59,5.84 -0.79,5.81 0.27,5.46 1.35,5.12 2.37,4.41 3.38,3.69 4.17,2.84 4.95,1.98 4.64,1.19 4.32,0.39 3.36,0.25 2.39,0.11 1.51,0.03 0.62,-0.04 -0.84,0.47 -2.32,0.99 -2.41,1.05 -2.50,1.10 -2.60,1.13 -2.70,1.16 -2.81,1.15 -2.91,1.14 -3.01,1.10 -3.11,1.06 -3.19,0.99 -3.27,0.92 -3.32,0.82 -3.37,0.73 -3.39,0.63 -3.42,0.52 -3.40,0.42 -3.39,0.31 -3.34,0.22 -3.29,0.12 -3.22,0.05 -3.14,-0.02 -3.05,-0.07 -2.96,-0.11 -2.85,-0.13 -2.74,-0.14 -2.64,-0.12 -2.54,-0.11 -2.44,-0.05 -2.35,-0.00 -2.28,0.07 -2.21,0.15 -2.16,0.24 -2.12,0.34 -2.11,0.45 -2.10,0.55 -2.13,0.66 -2.15,0.76 -2.21,0.85 -2.27,0.94 -2.35,1.01 -2.43,1.07 -2.53,1.11 -2.63,1.15 -2.74,1.15 -2.84,1.15 -2.95,1.12 -3.05,1.09 -3.13,1.03 -3.22,0.97 -3.28,0.88 -3.35,0.80 -3.38,0.70 -3.41,0.59 -3.41,0.49 -3.40,0.38 -3.37,0.28 -3.33,0.18 -3.27,0.10 -3.20,0.02 -3.20,0.02 -3.20,0.02 -1.32,-1.47 0.55,-2.96 1.50,-3.03 2.45,-3.09 3.99,-2.95 5.54,-2.81 6.46,-1.93 7.37,-1.06 7.77,0.18 8.16,1.43 7.78,2.72 7.40,4.00 6.25,5.15 5.11,6.30 3.64,7.20 2.18,8.10 0.50,8.48 -1.16,8.85 -2.73,8.46 -4.29,8.06 -5.27,6.75 -6.24,5.44 -6.40,4.46 -6.56,3.49 -6.23,2.07 -5.91,0.66 -5.22,-0.07 -4.52,-0.81 -3.75,-1.08 -2.98,-1.34 -2.36,-1.33 -1.74,-1.31 -0.87,-0.98 0,-0.65 0.07,-0.64 0.15,-0.63 0.23,-0.60 0.30,-0.58 0.37,-0.53 0.43,-0.49 0.48,-0.43 0.54,-0.37 0.57,-0.30 0.61,-0.23 0.63,-0.15 0.65,-0.07 0.65,0.00 0.65,0.07 0.63,0.15 0.61,0.23 0.57,0.30 0.54,0.37 0.48,0.43 0.43,0.49 0.37,0.53 0.30,0.58 0.23,0.60 0.15,0.63 0.07,0.64 -0.00,0.65 -0.00,0.65 L 0,0.65 Z"/></g><g transform="translate(173.5560302734375 185.72764587402344) rotate(0 12.171600341796875 -1.141082763671875)" stroke="none"><path fill="#1e1e1e" d="M -0.12,-0.64 Q -0.12,-0.64 0.87,-1.32 1.87,-2.01 2.92,-2.34 3.98,-2.67 4.99,-2.84 6.01,-3.01 7.13,-3.10 8.24,-3.20 9.69,-3.46 11.13,-3.73 12.74,-3.86 14.35,-4.00 15.46,-4.05 16.58,-4.11 17.90,-3.90 19.22,-3.70 20.05,-3.62 20.88,-3.55 22.27,-2.55 23.66,-1.55 23.74,-1.53 23.82,-1.52 23.89,-1.48 23.96,-1.45 24.02,-1.39 24.08,-1.34 24.13,-1.28 24.18,-1.22 24.21,-1.14 24.24,-1.07 24.25,-0.99 24.26,-0.91 24.25,-0.83 24.24,-0.76 24.22,-0.68 24.19,-0.61 24.15,-0.54 24.11,-0.47 24.05,-0.42 23.99,-0.37 23.92,-0.33 23.85,-0.29 23.78,-0.27 23.70,-0.25 23.62,-0.24 23.54,-0.24 23.86,-0.41 24.18,-0.58 24.11,-0.50 24.05,-0.41 23.96,-0.35 23.87,-0.29 23.77,-0.27 23.66,-0.24 23.56,-0.25 23.45,-0.26 23.35,-0.30 23.26,-0.34 23.18,-0.41 23.10,-0.48 23.04,-0.57 22.99,-0.66 22.97,-0.76 22.95,-0.87 22.96,-0.97 22.97,-1.08 23.02,-1.18 23.06,-1.27 23.14,-1.35 23.21,-1.42 23.31,-1.47 23.40,-1.52 23.51,-1.54 23.61,-1.55 23.72,-1.53 23.82,-1.51 23.91,-1.46 24.01,-1.41 24.08,-1.33 24.15,-1.26 24.19,-1.16 24.24,-1.06 24.25,-0.96 24.26,-0.85 24.23,-0.75 24.21,-0.64 24.15,-0.55 24.10,-0.46 24.01,-0.39 23.93,-0.33 23.83,-0.29 23.73,-0.25 23.63,-0.25 23.52,-0.24 23.42,-0.27 23.32,-0.30 23.23,-0.36 23.14,-0.42 23.08,-0.51 23.02,-0.60 22.99,-0.70 22.95,-0.80 22.95,-0.90 22.96,-1.01 23.31,-1.28 23.66,-1.55 23.74,-1.53 23.82,-1.52 23.89,-1.48 23.96,-1.45 24.02,-1.39 24.08,-1.34 24.13,-1.28 24.18,-1.22 24.21,-1.14 24.24,-1.07 24.25,-0.99 24.26,-0.91 24.25,-0.83 24.24,-0.76 24.22,-0.68 24.19,-0.61 24.15,-0.54 24.11,-0.47 24.05,-0.42 23.99,-0.37 23.92,-0.33 23.85,-0.29 23.78,-0.27 23.70,-0.25 23.62,-0.24 23.54,-0.24 22.04,0.00 20.53,0.26 19.54,0.16 18.55,0.06 17.63,-0.12 16.71,-0.32 15.66,-0.29 14.60,-0.25 13.15,-0.18 11.70,-0.11 10.07,0.10 8.44,0.32 7.47,0.34 6.50,0.36 5.68,0.46 4.87,0.55 3.68,0.84 2.50,1.13 1.31,0.89 0.12,0.64 0.04,0.64 -0.02,0.65 -0.10,0.64 -0.18,0.62 -0.25,0.59 -0.33,0.56 -0.39,0.51 -0.45,0.47 -0.50,0.41 -0.55,0.34 -0.59,0.27 -0.62,0.20 -0.63,0.12 -0.65,0.05 -0.65,-0.02 -0.64,-0.10 -0.62,-0.18 -0.60,-0.25 -0.56,-0.32 -0.52,-0.39 -0.46,-0.45 -0.41,-0.51 -0.34,-0.55 -0.27,-0.59 -0.20,-0.61 -0.12,-0.64 -0.12,-0.64 L -0.12,-0.64 Z"/></g><g transform="translate(102.80853271484375 200.94215393066406) rotate(0 14.07342529296875 -1.5214385986328125)" stroke="none"><path fill="#1e1e1e" d="M -0.20,-0.62 Q -0.20,-0.62 0.33,-1.17 0.88,-1.72 1.46,-1.85 2.05,-1.99 2.78,-2.07 3.51,-2.15 4.45,-2.38 5.39,-2.61 6.25,-2.75 7.10,-2.89 7.67,-2.95 8.23,-3.01 9.12,-3.05 10.02,-3.10 11.00,-3.40 11.98,-3.70 12.90,-3.79 13.81,-3.87 14.60,-3.88 15.39,-3.90 16.16,-3.91 16.93,-3.92 17.69,-3.93 18.45,-3.93 19.21,-3.94 19.97,-3.94 20.57,-3.95 21.17,-3.96 22.06,-3.98 22.96,-3.99 23.54,-3.99 24.12,-3.99 26.01,-3.50 27.89,-3.01 27.97,-3.03 28.04,-3.06 28.12,-3.06 28.20,-3.07 28.28,-3.05 28.36,-3.04 28.43,-3.01 28.50,-2.97 28.56,-2.92 28.63,-2.88 28.68,-2.81 28.73,-2.75 28.76,-2.68 28.79,-2.61 28.81,-2.53 28.82,-2.45 28.82,-2.37 28.81,-2.29 28.79,-2.22 28.77,-2.14 28.72,-2.08 28.68,-2.01 28.63,-1.95 28.57,-1.89 28.50,-1.85 28.44,-1.81 28.59,-1.95 28.74,-2.10 28.68,-2.01 28.61,-1.93 28.52,-1.87 28.43,-1.81 28.33,-1.78 28.23,-1.76 28.12,-1.76 28.02,-1.77 27.92,-1.81 27.82,-1.85 27.74,-1.92 27.66,-1.99 27.61,-2.08 27.55,-2.17 27.53,-2.28 27.51,-2.38 27.52,-2.49 27.53,-2.59 27.58,-2.69 27.63,-2.78 27.70,-2.86 27.77,-2.94 27.87,-2.99 27.96,-3.03 28.07,-3.05 28.17,-3.07 28.28,-3.05 28.38,-3.03 28.47,-2.98 28.57,-2.93 28.64,-2.85 28.71,-2.77 28.76,-2.68 28.80,-2.58 28.81,-2.47 28.82,-2.37 28.80,-2.26 28.77,-2.16 28.72,-2.07 28.66,-1.98 28.58,-1.91 28.50,-1.84 28.40,-1.81 28.30,-1.77 28.19,-1.76 28.09,-1.76 27.98,-1.79 27.88,-1.82 27.80,-1.88 27.71,-1.94 27.64,-2.02 27.58,-2.11 27.55,-2.21 27.52,-2.31 27.52,-2.42 27.52,-2.52 27.71,-2.77 27.89,-3.01 27.97,-3.03 28.04,-3.06 28.12,-3.06 28.20,-3.07 28.28,-3.05 28.36,-3.04 28.43,-3.01 28.50,-2.97 28.56,-2.92 28.63,-2.88 28.68,-2.81 28.73,-2.75 28.76,-2.68 28.79,-2.61 28.81,-2.53 28.82,-2.45 28.82,-2.37 28.81,-2.29 28.79,-2.22 28.77,-2.14 28.72,-2.08 28.68,-2.01 28.63,-1.95 28.57,-1.89 28.50,-1.85 28.44,-1.81 27.15,-1.47 25.85,-1.12 25.05,-0.84 24.25,-0.56 23.60,-0.56 22.96,-0.56 22.06,-0.58 21.17,-0.59 20.57,-0.61 19.97,-0.62 19.21,-0.62 18.45,-0.62 17.69,-0.62 16.93,-0.63 16.18,-0.64 15.42,-0.65 14.69,-0.64 13.96,-0.64 13.17,-0.59 12.38,-0.55 11.66,-0.24 10.94,0.05 10.12,0.06 9.30,0.07 8.40,0.10 7.51,0.14 6.94,0.18 6.37,0.23 5.03,0.49 3.69,0.74 2.71,0.79 1.73,0.85 0.97,0.73 0.20,0.62 0.13,0.63 0.05,0.65 -0.02,0.65 -0.10,0.64 -0.18,0.62 -0.25,0.60 -0.32,0.56 -0.39,0.52 -0.45,0.46 -0.50,0.41 -0.55,0.34 -0.59,0.28 -0.61,0.20 -0.64,0.13 -0.64,0.05 -0.65,-0.02 -0.64,-0.10 -0.63,-0.18 -0.59,-0.25 -0.56,-0.32 -0.52,-0.39 -0.47,-0.45 -0.41,-0.50 -0.35,-0.55 -0.27,-0.58 -0.20,-0.62 -0.20,-0.62 L -0.20,-0.62 Z"/></g><g transform="translate(99.765625 168.23097229003906) rotate(0 19.018157958984375 1.5214385986328125)" stroke="none"><path fill="#1e1e1e" d="M 0.29,-0.58 Q 0.29,-0.58 0.89,-0.69 1.49,-0.79 2.27,-0.54 3.05,-0.28 3.72,-0.20 4.38,-0.11 5.51,-0.10 6.64,-0.09 8.01,-0.10 9.38,-0.10 10.84,-0.11 12.29,-0.12 13.35,-0.13 14.41,-0.13 15.73,-0.15 17.05,-0.17 18.13,-0.39 19.21,-0.61 20.82,-0.51 22.44,-0.42 23.86,-0.38 25.28,-0.35 26.54,-0.34 27.80,-0.33 28.99,-0.33 30.18,-0.33 31.17,-0.54 32.17,-0.75 33.41,-0.86 34.66,-0.97 35.85,-1.02 37.03,-1.06 37.75,-1.08 38.47,-1.09 38.56,-0.72 38.65,-0.34 38.78,-0.32 38.91,-0.31 39.04,-0.27 39.17,-0.22 39.28,-0.15 39.39,-0.07 39.48,0.01 39.57,0.11 39.64,0.23 39.70,0.35 39.74,0.48 39.77,0.61 39.78,0.74 39.78,0.87 39.75,1.01 39.72,1.14 39.66,1.26 39.60,1.38 39.52,1.48 39.43,1.58 39.32,1.66 39.21,1.74 39.09,1.79 38.96,1.84 38.83,1.86 38.70,1.88 37.35,2.53 36.00,3.19 35.90,3.23 35.80,3.27 35.70,3.27 35.59,3.28 35.49,3.25 35.38,3.23 35.30,3.17 35.21,3.11 35.14,3.03 35.08,2.94 35.04,2.84 35.01,2.74 35.01,2.63 35.00,2.53 35.04,2.43 35.07,2.33 35.13,2.24 35.20,2.16 35.28,2.10 35.37,2.03 35.47,2.01 35.58,1.98 35.68,1.98 35.79,1.98 35.89,2.02 35.99,2.06 36.07,2.13 36.15,2.20 36.21,2.29 36.26,2.38 36.29,2.48 36.31,2.58 36.30,2.69 36.29,2.80 36.24,2.89 36.20,2.99 36.13,3.07 36.06,3.15 35.96,3.20 35.87,3.25 35.77,3.27 35.66,3.28 35.56,3.27 35.45,3.25 35.36,3.20 35.26,3.15 35.19,3.08 35.11,3.00 35.07,2.91 35.02,2.81 35.01,2.70 35.00,2.60 35.02,2.50 35.04,2.39 35.09,2.30 35.15,2.21 35.23,2.14 35.31,2.07 35.31,2.07 35.31,2.07 36.98,0.86 38.65,-0.34 38.78,-0.32 38.91,-0.31 39.04,-0.27 39.17,-0.22 39.28,-0.15 39.39,-0.07 39.48,0.01 39.57,0.11 39.64,0.23 39.70,0.35 39.74,0.48 39.77,0.61 39.78,0.74 39.78,0.87 39.75,1.01 39.72,1.14 39.66,1.26 39.60,1.38 39.52,1.48 39.43,1.58 39.32,1.66 39.21,1.74 39.09,1.79 38.96,1.84 38.83,1.86 38.70,1.88 38.63,2.27 38.55,2.66 37.86,2.68 37.16,2.70 36.06,2.73 34.96,2.76 33.90,2.83 32.84,2.91 31.50,3.13 30.16,3.35 28.95,3.33 27.74,3.31 26.44,3.27 25.15,3.23 23.63,3.16 22.12,3.09 20.95,2.93 19.78,2.77 18.42,2.99 17.06,3.20 15.73,3.18 14.40,3.16 13.33,3.15 12.27,3.13 10.80,3.10 9.32,3.08 7.91,3.02 6.50,2.96 5.20,2.86 3.91,2.76 2.98,2.58 2.06,2.40 1.16,2.03 0.25,1.67 -0.01,1.12 -0.29,0.58 -0.35,0.54 -0.42,0.49 -0.47,0.44 -0.53,0.38 -0.57,0.31 -0.60,0.24 -0.62,0.16 -0.65,0.09 -0.65,0.01 -0.65,-0.06 -0.63,-0.14 -0.61,-0.22 -0.58,-0.29 -0.54,-0.36 -0.49,-0.42 -0.44,-0.48 -0.38,-0.52 -0.31,-0.57 -0.24,-0.60 -0.16,-0.63 -0.09,-0.64 -0.01,-0.65 0.06,-0.64 0.14,-0.64 0.21,-0.61 0.29,-0.58 0.29,-0.58 L 0.29,-0.58 Z"/></g><g transform="translate(223.763916015625 179.64183044433594) rotate(0 2.282196044921875 -0.380340576171875)" stroke="none"><path fill="#1e1e1e" d="M 0,0.65 Q 0,0.65 -0.65,0.93 -1.31,1.20 -1.45,1.18 -1.60,1.16 -1.73,1.11 -1.87,1.06 -1.99,0.98 -2.11,0.90 -2.20,0.79 -2.30,0.68 -2.37,0.55 -2.43,0.42 -2.47,0.28 -2.50,0.14 -2.50,-0.00 -2.50,-0.14 -2.47,-0.28 -2.43,-0.42 -2.37,-0.55 -2.30,-0.68 -2.20,-0.79 -2.11,-0.90 -1.99,-0.98 -1.87,-1.06 -1.73,-1.11 -1.60,-1.16 -1.45,-1.18 -1.31,-1.20 -0.64,-1.54 0.01,-1.88 0.88,-2.01 1.75,-2.15 2.78,-2.19 3.81,-2.23 4.95,-1.21 6.10,-0.20 6.17,-0.19 6.25,-0.18 6.33,-0.16 6.40,-0.13 6.47,-0.09 6.54,-0.05 6.59,0.00 6.65,0.05 6.69,0.12 6.73,0.19 6.75,0.27 6.77,0.34 6.77,0.42 6.78,0.50 6.76,0.58 6.74,0.66 6.71,0.73 6.68,0.80 6.63,0.86 6.58,0.92 6.51,0.97 6.45,1.02 6.38,1.05 6.30,1.08 6.23,1.09 6.15,1.11 6.43,0.92 6.71,0.74 6.65,0.83 6.59,0.91 6.50,0.97 6.42,1.04 6.31,1.07 6.21,1.10 6.11,1.10 6.00,1.09 5.90,1.06 5.80,1.02 5.72,0.96 5.63,0.89 5.58,0.80 5.52,0.71 5.49,0.61 5.47,0.50 5.48,0.40 5.48,0.29 5.53,0.19 5.57,0.10 5.64,0.02 5.71,-0.05 5.80,-0.10 5.89,-0.16 6.00,-0.18 6.10,-0.20 6.21,-0.18 6.31,-0.17 6.41,-0.12 6.50,-0.08 6.58,-0.00 6.65,0.06 6.70,0.16 6.75,0.25 6.76,0.36 6.78,0.47 6.76,0.57 6.74,0.67 6.69,0.77 6.63,0.86 6.56,0.93 6.48,1.00 6.38,1.04 6.28,1.09 6.18,1.09 6.07,1.10 5.97,1.08 5.86,1.05 5.77,1.00 5.68,0.94 5.62,0.86 5.55,0.77 5.51,0.67 5.48,0.57 5.47,0.47 5.47,0.36 5.78,0.08 6.09,-0.20 6.17,-0.19 6.25,-0.18 6.33,-0.16 6.40,-0.13 6.47,-0.09 6.54,-0.05 6.59,0.00 6.65,0.05 6.69,0.12 6.73,0.19 6.75,0.27 6.77,0.34 6.77,0.42 6.78,0.50 6.76,0.58 6.74,0.66 6.71,0.73 6.68,0.80 6.63,0.86 6.58,0.92 6.51,0.97 6.45,1.02 6.38,1.05 6.30,1.08 6.23,1.09 6.15,1.11 5.05,0.96 3.95,0.82 3.04,0.86 2.13,0.90 1.50,0.95 0.88,1.00 -0.21,1.10 -1.31,1.20 -1.45,1.18 -1.60,1.16 -1.73,1.11 -1.87,1.06 -1.99,0.98 -2.11,0.90 -2.20,0.79 -2.30,0.68 -2.37,0.55 -2.43,0.42 -2.47,0.28 -2.50,0.14 -2.50,0.00 -2.50,-0.14 -2.47,-0.28 -2.43,-0.42 -2.37,-0.55 -2.30,-0.68 -2.20,-0.79 -2.11,-0.90 -1.99,-0.98 -1.87,-1.06 -1.73,-1.11 -1.60,-1.16 -1.45,-1.18 -1.31,-1.20 -0.65,-0.93 0,-0.65 0.07,-0.64 0.15,-0.63 0.23,-0.60 0.30,-0.58 0.37,-0.53 0.43,-0.49 0.48,-0.43 0.54,-0.37 0.57,-0.30 0.61,-0.23 0.63,-0.15 0.65,-0.07 0.65,0.00 0.65,0.07 0.63,0.15 0.61,0.23 0.57,0.30 0.54,0.37 0.48,0.43 0.43,0.49 0.37,0.53 0.30,0.58 0.23,0.60 0.15,0.63 0.07,0.64 -0.00,0.65 -0.00,0.65 L 0,0.65 Z"/></g><g transform="translate(222.24249267578125 188.7705535888672) rotate(0 5.3250732421875 0.3803558349609375)" stroke="none"><path fill="#1e1e1e" d="M 0.12,-0.64 Q 0.12,-0.64 1.32,-0.99 2.52,-1.34 3.60,-1.49 4.69,-1.65 5.50,-1.68 6.31,-1.72 8.24,-1.18 10.16,-0.65 10.26,-0.63 10.37,-0.61 10.46,-0.57 10.55,-0.52 10.63,-0.44 10.70,-0.36 10.75,-0.27 10.79,-0.17 10.81,-0.07 10.82,0.03 10.80,0.13 10.78,0.24 10.72,0.33 10.67,0.42 10.59,0.49 10.51,0.56 10.41,0.60 10.31,0.64 10.21,0.65 10.10,0.65 10.00,0.63 9.90,0.60 9.81,0.54 9.72,0.48 9.65,0.40 9.59,0.32 9.55,0.22 9.52,0.12 9.52,0.01 9.51,-0.09 9.55,-0.19 9.58,-0.29 9.64,-0.37 9.71,-0.46 9.79,-0.52 9.88,-0.58 9.98,-0.61 10.09,-0.64 10.19,-0.64 10.30,-0.63 10.40,-0.59 10.50,-0.56 10.58,-0.49 10.66,-0.42 10.72,-0.33 10.77,-0.24 10.80,-0.14 10.82,-0.03 10.81,0.06 10.80,0.17 10.76,0.27 10.71,0.36 10.64,0.44 10.57,0.52 10.47,0.57 10.38,0.62 10.28,0.64 10.17,0.66 10.17,0.66 10.17,0.66 8.37,1.27 6.56,1.88 5.80,1.95 5.03,2.02 3.44,2.12 1.85,2.22 0.86,1.43 -0.12,0.64 -0.20,0.61 -0.27,0.59 -0.34,0.55 -0.41,0.51 -0.46,0.45 -0.52,0.39 -0.56,0.32 -0.60,0.25 -0.62,0.18 -0.64,0.10 -0.65,0.02 -0.65,-0.05 -0.63,-0.12 -0.62,-0.20 -0.59,-0.27 -0.55,-0.34 -0.50,-0.41 -0.45,-0.47 -0.39,-0.51 -0.33,-0.56 -0.25,-0.59 -0.18,-0.63 -0.10,-0.64 -0.02,-0.65 0.04,-0.64 0.12,-0.64 0.12,-0.64 L 0.12,-0.64 Z"/></g><g transform="translate(282.33978271484375 166.7095184326172) rotate(0 14.83416748046875 -0.7607269287109375)" stroke="none"><path fill="#1e1e1e" d="M 0,-0.65 Q 0,-0.65 1.31,-1.07 2.62,-1.49 3.61,-1.51 4.61,-1.53 5.91,-1.56 7.21,-1.60 8.63,-1.62 10.06,-1.64 12.56,-1.87 15.06,-2.11 16.84,-2.21 18.62,-2.32 20.38,-2.57 22.15,-2.83 23.17,-2.92 24.20,-3.02 25.34,-3.01 26.48,-2.99 27.37,-1.96 28.25,-0.92 28.33,-0.92 28.41,-0.91 28.49,-0.89 28.56,-0.86 28.63,-0.82 28.70,-0.78 28.75,-0.72 28.81,-0.66 28.84,-0.60 28.88,-0.53 28.91,-0.45 28.93,-0.37 28.93,-0.30 28.94,-0.22 28.92,-0.14 28.90,-0.06 28.87,0.00 28.84,0.07 28.79,0.13 28.74,0.19 28.67,0.24 28.61,0.29 28.54,0.32 28.47,0.35 28.39,0.37 28.31,0.38 28.52,0.29 28.74,0.19 28.65,0.25 28.57,0.31 28.46,0.34 28.36,0.37 28.26,0.37 28.15,0.37 28.05,0.33 27.95,0.29 27.87,0.22 27.79,0.15 27.73,0.06 27.67,-0.02 27.65,-0.12 27.63,-0.22 27.64,-0.33 27.65,-0.43 27.69,-0.53 27.73,-0.63 27.80,-0.71 27.88,-0.78 27.97,-0.84 28.06,-0.89 28.17,-0.91 28.27,-0.92 28.38,-0.91 28.48,-0.89 28.58,-0.84 28.67,-0.80 28.75,-0.72 28.82,-0.64 28.87,-0.55 28.91,-0.45 28.92,-0.35 28.94,-0.24 28.92,-0.14 28.89,-0.03 28.84,0.05 28.79,0.14 28.71,0.21 28.63,0.28 28.53,0.32 28.43,0.36 28.33,0.37 28.22,0.38 28.12,0.35 28.01,0.32 27.93,0.26 27.84,0.21 27.77,0.12 27.71,0.04 27.67,-0.05 27.63,-0.15 27.63,-0.26 27.63,-0.36 27.66,-0.47 27.70,-0.57 27.97,-0.75 28.25,-0.92 28.33,-0.92 28.41,-0.91 28.49,-0.89 28.56,-0.86 28.63,-0.82 28.70,-0.78 28.75,-0.72 28.81,-0.66 28.84,-0.60 28.88,-0.53 28.91,-0.45 28.93,-0.37 28.93,-0.30 28.94,-0.22 28.92,-0.14 28.90,-0.06 28.87,0.00 28.84,0.07 28.79,0.13 28.74,0.19 28.67,0.24 28.61,0.29 28.54,0.32 28.47,0.35 28.39,0.37 28.31,0.38 27.46,0.23 26.61,0.09 25.59,0.19 24.56,0.30 23.59,0.42 22.62,0.55 20.71,0.81 18.80,1.07 17.07,1.15 15.35,1.24 12.70,1.44 10.06,1.64 8.63,1.62 7.21,1.60 5.91,1.56 4.61,1.53 3.61,1.51 2.62,1.49 1.31,1.07 0,0.65 -0.07,0.64 -0.15,0.63 -0.23,0.60 -0.30,0.58 -0.37,0.53 -0.43,0.49 -0.48,0.43 -0.54,0.37 -0.57,0.30 -0.61,0.23 -0.63,0.15 -0.65,0.07 -0.65,-0.00 -0.65,-0.07 -0.63,-0.15 -0.61,-0.23 -0.57,-0.30 -0.54,-0.37 -0.48,-0.43 -0.43,-0.49 -0.37,-0.53 -0.30,-0.58 -0.23,-0.60 -0.15,-0.63 -0.07,-0.64 0.00,-0.65 0.00,-0.65 L 0,-0.65 Z"/></g><g transform="translate(283.86126708984375 201.70289611816406) rotate(0 15.9752197265625 -1.9018096923828125)" stroke="none"><path fill="#1e1e1e" d="M 0,-0.65 Q 0,-0.65 1.31,-1.05 2.62,-1.45 4.85,-1.74 7.08,-2.03 9.79,-2.38 12.50,-2.73 14.95,-3.10 17.40,-3.47 19.60,-3.63 21.81,-3.79 23.53,-4.02 25.25,-4.24 26.72,-4.26 28.20,-4.28 29.83,-4.33 31.46,-4.37 31.57,-4.37 31.67,-4.38 31.77,-4.35 31.88,-4.32 31.96,-4.26 32.05,-4.20 32.11,-4.11 32.17,-4.02 32.21,-3.92 32.24,-3.82 32.24,-3.72 32.24,-3.61 32.20,-3.51 32.16,-3.41 32.10,-3.33 32.03,-3.24 31.94,-3.18 31.85,-3.13 31.75,-3.10 31.65,-3.07 31.54,-3.08 31.44,-3.09 31.34,-3.13 31.24,-3.17 31.16,-3.24 31.08,-3.31 31.03,-3.40 30.97,-3.49 30.95,-3.60 30.93,-3.70 30.95,-3.81 30.96,-3.91 31.01,-4.01 31.05,-4.10 31.13,-4.18 31.20,-4.26 31.30,-4.30 31.39,-4.35 31.50,-4.37 31.60,-4.38 31.71,-4.36 31.81,-4.35 31.90,-4.29 32.00,-4.24 32.07,-4.16 32.14,-4.09 32.18,-3.99 32.22,-3.89 32.23,-3.79 32.24,-3.68 32.22,-3.58 32.19,-3.47 32.14,-3.38 32.08,-3.29 32.00,-3.23 31.92,-3.16 31.82,-3.12 31.72,-3.08 31.72,-3.08 31.72,-3.08 30.09,-2.26 28.46,-1.44 27.11,-1.22 25.76,-1.00 23.90,-0.66 22.05,-0.32 19.97,-0.18 17.88,-0.04 15.38,0.28 12.89,0.61 10.14,0.88 7.39,1.15 5.00,1.30 2.62,1.45 1.31,1.05 0,0.65 -0.07,0.64 -0.15,0.63 -0.23,0.60 -0.30,0.58 -0.37,0.53 -0.43,0.49 -0.48,0.43 -0.54,0.37 -0.57,0.30 -0.61,0.23 -0.63,0.15 -0.65,0.07 -0.65,-0.00 -0.65,-0.07 -0.63,-0.15 -0.61,-0.23 -0.57,-0.30 -0.54,-0.37 -0.48,-0.43 -0.43,-0.49 -0.37,-0.53 -0.30,-0.58 -0.23,-0.60 -0.15,-0.63 -0.07,-0.64 0.00,-0.65 0.00,-0.65 L 0,-0.65 Z"/></g><g transform="translate(310.48663330078125 158.34153747558594) rotate(0 1.14111328125 23.202133178710938)" stroke="none"><path fill="#1e1e1e" d="M 0.65,-0.09 Q 0.65,-0.09 1.21,1.38 1.78,2.87 1.92,4.89 2.06,6.91 2.13,9.30 2.20,11.69 2.24,14.89 2.28,18.09 2.52,22.47 2.77,26.85 2.87,30.72 2.97,34.59 3.23,37.48 3.49,40.38 3.20,41.32 2.92,42.25 2.92,42.33 2.91,42.41 2.89,42.49 2.87,42.56 2.83,42.63 2.79,42.70 2.74,42.76 2.68,42.82 2.62,42.86 2.55,42.90 2.48,42.93 2.40,42.95 2.32,42.96 2.24,42.97 2.16,42.95 2.09,42.94 2.01,42.91 1.94,42.88 1.88,42.83 1.81,42.79 1.76,42.73 1.71,42.66 1.68,42.59 1.64,42.52 1.63,42.44 1.61,42.37 1.63,42.23 1.65,42.08 1.70,41.99 1.75,41.90 1.83,41.83 1.91,41.76 2.01,41.71 2.11,41.67 2.21,41.66 2.32,41.66 2.42,41.68 2.52,41.71 2.61,41.76 2.70,41.82 2.77,41.90 2.84,41.99 2.87,42.09 2.91,42.19 2.91,42.29 2.92,42.40 2.88,42.50 2.85,42.60 2.79,42.69 2.73,42.77 2.64,42.84 2.56,42.90 2.46,42.93 2.35,42.96 2.25,42.96 2.14,42.95 2.04,42.92 1.94,42.88 1.86,42.81 1.78,42.75 1.72,42.66 1.66,42.57 1.64,42.47 1.61,42.36 1.62,42.26 1.63,42.15 1.67,42.05 1.71,41.96 1.78,41.88 1.85,41.80 1.95,41.75 2.04,41.69 2.14,41.67 2.25,41.65 2.35,41.67 2.46,41.68 2.55,41.73 2.65,41.78 2.72,41.85 2.80,41.93 2.85,42.02 2.89,42.12 2.91,42.22 2.92,42.33 2.92,42.29 2.92,42.25 2.92,42.33 2.91,42.41 2.89,42.49 2.87,42.56 2.83,42.63 2.79,42.70 2.74,42.76 2.68,42.82 2.62,42.86 2.55,42.90 2.48,42.93 2.40,42.95 2.32,42.96 2.24,42.97 2.16,42.95 2.09,42.94 2.01,42.91 1.94,42.88 1.88,42.83 1.81,42.79 1.76,42.73 1.71,42.66 1.68,42.59 1.64,42.52 1.63,42.44 1.61,42.37 0.96,41.51 0.30,40.66 0.04,37.66 -0.22,34.67 -0.30,30.84 -0.39,27.02 -0.60,22.56 -0.81,18.11 -0.80,14.92 -0.79,11.74 -0.80,9.39 -0.81,7.05 -0.86,5.15 -0.90,3.25 -0.77,1.67 -0.65,0.09 -0.65,0.01 -0.65,-0.06 -0.63,-0.14 -0.61,-0.21 -0.58,-0.29 -0.54,-0.36 -0.49,-0.42 -0.44,-0.48 -0.38,-0.52 -0.31,-0.57 -0.24,-0.60 -0.17,-0.63 -0.09,-0.64 -0.01,-0.65 0.06,-0.64 0.14,-0.64 0.21,-0.61 0.29,-0.58 0.35,-0.54 0.42,-0.50 0.47,-0.44 0.53,-0.38 0.57,-0.31 0.60,-0.24 0.62,-0.16 0.65,-0.09 0.65,-0.09 L 0.65,-0.09 Z"/></g><g transform="translate(306.68304443359375 159.1022491455078) rotate(0 15.9752197265625 23.2021484375)" stroke="none"><path fill="#1e1e1e" d="M 0.10,-0.64 Q 0.10,-0.64 1.48,-0.78 2.85,-0.91 5.07,-0.17 7.29,0.57 9.35,1.56 11.41,2.55 13.63,3.86 15.84,5.16 18.14,6.84 20.44,8.51 23.27,11.71 26.11,14.92 28.20,18.07 30.29,21.22 31.45,24.20 32.61,27.19 33.11,29.89 33.61,32.59 32.93,35.12 32.24,37.65 30.72,39.71 29.20,41.77 25.97,43.62 22.73,45.48 20.25,46.42 17.76,47.37 14.98,47.46 12.20,47.56 10.39,47.09 8.58,46.61 6.86,46.15 5.14,45.69 5.05,45.65 4.95,45.61 4.87,45.54 4.79,45.47 4.74,45.38 4.68,45.29 4.66,45.18 4.64,45.08 4.65,44.97 4.67,44.87 4.71,44.77 4.76,44.68 4.83,44.60 4.91,44.52 5.00,44.48 5.10,44.43 5.20,44.41 5.31,44.40 5.41,44.42 5.52,44.44 5.61,44.49 5.70,44.54 5.78,44.62 5.85,44.70 5.89,44.79 5.93,44.89 5.94,45.00 5.95,45.10 5.93,45.21 5.90,45.31 5.85,45.40 5.79,45.49 5.71,45.56 5.63,45.62 5.53,45.66 5.43,45.70 5.32,45.70 5.21,45.71 5.11,45.68 5.01,45.65 4.92,45.58 4.84,45.52 4.77,45.44 4.71,45.35 4.68,45.25 4.65,45.15 4.65,45.04 4.65,44.94 4.69,44.84 4.72,44.74 4.79,44.65 4.85,44.57 4.94,44.51 5.03,44.45 5.14,44.43 5.24,44.40 5.34,44.41 5.45,44.42 5.45,44.42 5.45,44.42 7.08,44.76 8.71,45.10 10.36,44.92 12.02,44.73 14.31,44.49 16.61,44.25 18.85,43.37 21.10,42.48 23.86,41.06 26.61,39.63 27.85,38.11 29.10,36.58 29.77,34.79 30.44,32.99 30.03,30.65 29.62,28.32 28.62,25.63 27.63,22.95 25.68,19.96 23.73,16.98 21.17,13.97 18.61,10.97 16.45,9.36 14.29,7.75 12.20,6.48 10.11,5.21 8.21,4.25 6.31,3.29 4.35,2.54 2.39,1.79 1.14,1.22 -0.10,0.64 -0.18,0.62 -0.25,0.60 -0.32,0.56 -0.39,0.52 -0.45,0.46 -0.51,0.41 -0.55,0.34 -0.59,0.27 -0.61,0.20 -0.64,0.12 -0.64,0.04 -0.65,-0.02 -0.64,-0.10 -0.62,-0.18 -0.59,-0.25 -0.56,-0.33 -0.51,-0.39 -0.47,-0.45 -0.41,-0.50 -0.34,-0.55 -0.27,-0.59 -0.20,-0.62 -0.12,-0.63 -0.05,-0.65 0.02,-0.65 0.10,-0.64 0.10,-0.64 L 0.10,-0.64 Z"/></g><g transform="translate(310.48663330078125 207.78871154785156) rotate(0 -0.380340576171875 -7.607269287109375)" stroke="none"><path fill="#1e1e1e" d="M -0.64,0.12 Q -0.64,0.12 -1.16,-0.90 -1.68,-1.93 -1.82,-3.35 -1.96,-4.77 -1.80,-6.35 -1.64,-7.92 -1.57,-9.15 -1.51,-10.37 -1.08,-12.57 -0.66,-14.77 -0.64,-14.87 -0.62,-14.97 -0.57,-15.07 -0.52,-15.16 -0.44,-15.23 -0.36,-15.30 -0.26,-15.35 -0.17,-15.39 -0.06,-15.40 0.03,-15.41 0.14,-15.38 0.24,-15.36 0.33,-15.30 0.42,-15.25 0.49,-15.16 0.56,-15.08 0.59,-14.98 0.63,-14.88 0.63,-14.78 0.64,-14.67 0.61,-14.57 0.58,-14.47 0.52,-14.38 0.45,-14.29 0.37,-14.23 0.28,-14.17 0.18,-14.13 0.08,-14.10 -0.02,-14.10 -0.12,-14.11 -0.22,-14.14 -0.32,-14.18 -0.41,-14.24 -0.49,-14.31 -0.55,-14.40 -0.60,-14.49 -0.63,-14.59 -0.66,-14.69 -0.65,-14.80 -0.64,-14.91 -0.60,-15.00 -0.56,-15.10 -0.49,-15.18 -0.42,-15.26 -0.33,-15.31 -0.23,-15.37 -0.13,-15.39 -0.03,-15.41 0.07,-15.40 0.17,-15.38 0.27,-15.34 0.37,-15.29 0.44,-15.21 0.52,-15.14 0.56,-15.05 0.61,-14.95 0.63,-14.85 0.64,-14.74 0.64,-14.74 0.64,-14.74 0.96,-12.47 1.28,-10.21 1.19,-8.89 1.11,-7.58 0.91,-6.26 0.71,-4.95 0.76,-3.69 0.80,-2.43 0.72,-1.28 0.64,-0.12 0.64,-0.04 0.65,0.02 0.64,0.10 0.62,0.18 0.59,0.25 0.56,0.33 0.51,0.39 0.47,0.45 0.41,0.50 0.34,0.55 0.27,0.59 0.20,0.62 0.12,0.63 0.05,0.65 -0.02,0.65 -0.10,0.64 -0.18,0.62 -0.25,0.60 -0.32,0.56 -0.39,0.52 -0.45,0.46 -0.51,0.41 -0.55,0.34 -0.59,0.27 -0.61,0.20 -0.64,0.12 -0.64,0.12 L -0.64,0.12 Z"/></g><g transform="translate(337.112060546875 186.48838806152344) rotate(0 17.1163330078125 0.3803558349609375)" stroke="none"><path fill="#1e1e1e" d="M 0,-0.65 Q 0,-0.65 1.74,-1.16 3.49,-1.66 5.55,-1.69 7.61,-1.71 10.30,-1.51 13.00,-1.31 15.67,-1.01 18.35,-0.70 20.65,-0.79 22.96,-0.88 24.88,-0.89 26.81,-0.89 28.28,-0.81 29.76,-0.72 31.88,0.01 34.01,0.76 34.10,0.80 34.20,0.85 34.27,0.93 34.35,1.01 34.39,1.10 34.44,1.20 34.45,1.30 34.46,1.41 34.44,1.51 34.42,1.62 34.37,1.71 34.31,1.80 34.23,1.87 34.15,1.94 34.05,1.98 33.96,2.02 33.85,2.03 33.74,2.03 33.64,2.01 33.54,1.98 33.45,1.92 33.36,1.86 33.30,1.78 33.23,1.70 33.20,1.60 33.16,1.50 33.16,1.39 33.16,1.28 33.19,1.18 33.22,1.08 33.29,1.00 33.35,0.91 33.44,0.85 33.52,0.79 33.63,0.76 33.73,0.73 33.83,0.73 33.94,0.74 34.04,0.78 34.14,0.81 34.22,0.88 34.30,0.95 34.36,1.04 34.41,1.13 34.44,1.23 34.46,1.34 34.45,1.44 34.44,1.55 34.40,1.65 34.36,1.74 34.28,1.82 34.21,1.90 34.12,1.95 34.02,2.00 33.92,2.02 33.82,2.04 33.71,2.02 33.61,2.01 33.61,2.01 33.61,2.01 31.70,2.15 29.79,2.29 28.33,2.41 26.87,2.52 24.98,2.59 23.08,2.66 20.51,2.74 17.94,2.83 15.32,2.51 12.71,2.19 10.16,1.95 7.61,1.71 5.55,1.69 3.49,1.66 1.74,1.16 0,0.65 -0.07,0.64 -0.15,0.63 -0.23,0.60 -0.30,0.58 -0.37,0.53 -0.43,0.49 -0.48,0.43 -0.54,0.37 -0.57,0.30 -0.61,0.23 -0.63,0.15 -0.65,0.07 -0.65,-0.00 -0.65,-0.07 -0.63,-0.15 -0.61,-0.23 -0.57,-0.30 -0.54,-0.37 -0.48,-0.43 -0.43,-0.49 -0.37,-0.53 -0.30,-0.58 -0.23,-0.60 -0.15,-0.63 -0.07,-0.64 0.00,-0.65 0.00,-0.65 L 0,-0.65 Z"/></g></svg>