<svg version="1.1" xmlns="http://www.w3.org/2000/svg" viewBox="0 0 299 317" width="299" height="317" filter="invert(93%) hue-rotate(180deg)" class="excalidraw-svg">
  <!-- svg-source:excalidraw -->
  
  <defs>
    <style class="style-fonts">
      @font-face {
        font-family: "Virgil";
        src: url("https://excalidraw.com/Virgil.woff2");
      }
      @font-face {
        font-family: "Cascadia";
        src: url("https://excalidraw.com/Cascadia.woff2");
      }
      @font-face {
        font-family: "Assistant";
        src: url("https://excalidraw.com/Assistant-Regular.woff2");
      }
    </style>
    
  </defs>
  <rect x="0" y="0" width="299" height="317" fill="#ffffff"/><g stroke-linecap="round"><g transform="translate(11 47) rotate(0 98 0)"><path d="M0 0 C32.67 0, 163.33 0, 196 0 M0 0 C32.67 0, 163.33 0, 196 0" stroke="#1e1e1e" stroke-width="2" fill="none"/></g></g><mask/><g stroke-linecap="round"><g transform="translate(10 69) rotate(0 98 0)"><path d="M0 0 C32.67 0, 163.33 0, 196 0 M0 0 C32.67 0, 163.33 0, 196 0" stroke="#1e1e1e" stroke-width="2" fill="none"/></g></g><mask/><g stroke-linecap="round"><g transform="translate(11 119) rotate(0 98 0)"><path d="M0 0 C32.67 0, 163.33 0, 196 0 M0 0 C32.67 0, 163.33 0, 196 0" stroke="#1e1e1e" stroke-width="2" fill="none"/></g></g><mask/><g stroke-linecap="round"><g transform="translate(111 44) rotate(0 47 72)"><path d="M0 0 C1.83 20.83, -4.67 101, 11 125 C26.67 149, 80.17 140.83, 94 144 M0 0 C1.83 20.83, -4.67 101, 11 125 C26.67 149, 80.17 140.83, 94 144" stroke="#1e1e1e" stroke-width="2" fill="none"/></g></g><mask/><g stroke-linecap="round"><g transform="translate(126 69) rotate(0 39.5 72)"><path d="M0 0 C1.54 20.83, -3.92 101, 9.24 125 C22.41 149, 67.37 140.83, 79 144 M0 0 C1.54 20.83, -3.92 101, 9.24 125 C22.41 149, 67.37 140.83, 79 144" stroke="#1e1e1e" stroke-width="2" fill="none"/></g></g><mask/><g stroke-linecap="round"><g transform="translate(144 119) rotate(0 29.5 72)"><path d="M0 0 C1.15 20.83, -2.93 101, 6.9 125 C16.74 149, 50.32 140.83, 59 144 M0 0 C1.15 20.83, -2.93 101, 6.9 125 C16.74 149, 50.32 140.83, 59 144" stroke="#1e1e1e" stroke-width="2" fill="none"/></g></g><mask/><g stroke-linecap="round" transform="translate(208 10) rotate(0 40.5 69.5)"><path d="M20.25 0 C30.37 0, 40.49 0, 60.75 0 M20.25 0 C28.71 0, 37.17 0, 60.75 0 M60.75 0 C74.25 0, 81 6.75, 81 20.25 M60.75 0 C74.25 0, 81 6.75, 81 20.25 M81 20.25 C81 49.24, 81 78.22, 81 118.75 M81 20.25 C81 47.08, 81 73.91, 81 118.75 M81 118.75 C81 132.25, 74.25 139, 60.75 139 M81 118.75 C81 132.25, 74.25 139, 60.75 139 M60.75 139 C52.05 139, 43.35 139, 20.25 139 M60.75 139 C48.14 139, 35.53 139, 20.25 139 M20.25 139 C6.75 139, 0 132.25, 0 118.75 M20.25 139 C6.75 139, 0 132.25, 0 118.75 M0 118.75 C0 87.59, 0 56.44, 0 20.25 M0 118.75 C0 80.18, 0 41.61, 0 20.25 M0 20.25 C0 6.75, 6.75 0, 20.25 0 M0 20.25 C0 6.75, 6.75 0, 20.25 0" stroke="#1e1e1e" stroke-width="2" fill="none"/></g><g stroke-linecap="round" transform="translate(206.5 162.5) rotate(0 40.5 69.5)"><path d="M20.25 0 C32.8 0, 45.35 0, 60.75 0 M20.25 0 C28.57 0, 36.89 0, 60.75 0 M60.75 0 C74.25 0, 81 6.75, 81 20.25 M60.75 0 C74.25 0, 81 6.75, 81 20.25 M81 20.25 C81 57.62, 81 95, 81 118.75 M81 20.25 C81 53.61, 81 86.97, 81 118.75 M81 118.75 C81 132.25, 74.25 139, 60.75 139 M81 118.75 C81 132.25, 74.25 139, 60.75 139 M60.75 139 C47.95 139, 35.15 139, 20.25 139 M60.75 139 C47.03 139, 33.31 139, 20.25 139 M20.25 139 C6.75 139, 0 132.25, 0 118.75 M20.25 139 C6.75 139, 0 132.25, 0 118.75 M0 118.75 C0 84.4, 0 50.05, 0 20.25 M0 118.75 C0 81.47, 0 44.18, 0 20.25 M0 20.25 C0 6.75, 6.75 0, 20.25 0 M0 20.25 C0 6.75, 6.75 0, 20.25 0" stroke="#1e1e1e" stroke-width="2" fill="none"/></g><g transform="translate(239 87) rotate(0 2 -2.5)" stroke="none"><path fill="#1e1e1e" d="M -0.52,-0.39 Q -0.52,-0.39 0.08,-1.73 0.69,-3.07 1.95,-4.48 3.20,-5.88 4.55,-7.58 5.90,-9.28 6.69,-11.03 7.48,-12.78 8.13,-14.13 8.79,-15.49 8.72,-16.37 8.66,-17.24 8.13,-17.76 7.60,-18.28 7.07,-18.09 6.55,-17.91 5.88,-17.41 5.20,-16.90 4.71,-15.71 4.22,-14.51 3.38,-11.98 2.55,-9.45 2.21,-6.73 1.87,-4.02 1.71,-1.42 1.56,1.16 1.78,3.04 2.00,4.91 2.10,6.65 2.19,8.39 2.50,9.57 2.81,10.75 2.97,11.64 3.12,12.53 3.18,13.18 3.24,13.82 3.25,13.98 3.25,14.15 3.22,14.31 3.19,14.47 3.12,14.61 3.05,14.76 2.95,14.89 2.85,15.01 2.72,15.11 2.59,15.21 2.44,15.27 2.29,15.34 2.13,15.36 1.97,15.39 1.80,15.38 1.64,15.37 1.49,15.31 1.33,15.26 1.19,15.18 1.06,15.09 0.94,14.97 0.83,14.86 0.75,14.72 0.67,14.57 0.62,14.42 0.58,14.26 0.86,14.78 1.15,15.30 0.14,14.60 -0.86,13.89 -1.75,13.04 -2.65,12.19 -3.39,11.17 -4.13,10.15 -4.67,9.51 -5.20,8.87 -5.71,8.32 -6.22,7.76 -6.80,6.90 -7.38,6.03 -7.34,5.38 -7.30,4.73 -6.45,4.03 -5.61,3.33 -4.23,3.06 -2.86,2.79 -1.16,2.73 0.53,2.67 2.10,2.72 3.67,2.78 5.44,3.06 7.21,3.35 7.32,3.36 7.42,3.38 7.52,3.43 7.61,3.48 7.68,3.55 7.76,3.63 7.80,3.72 7.85,3.82 7.86,3.93 7.87,4.03 7.85,4.14 7.83,4.24 7.78,4.33 7.72,4.42 7.64,4.49 7.56,4.56 7.46,4.60 7.37,4.64 7.26,4.65 7.15,4.66 7.05,4.63 6.95,4.60 6.86,4.54 6.77,4.48 6.71,4.40 6.64,4.32 6.61,4.22 6.57,4.12 6.57,4.01 6.57,3.90 6.60,3.80 6.64,3.70 6.70,3.62 6.76,3.53 6.85,3.47 6.94,3.41 7.04,3.38 7.14,3.35 7.25,3.36 7.35,3.36 7.45,3.40 7.55,3.44 7.63,3.50 7.72,3.57 7.77,3.66 7.83,3.75 7.85,3.86 7.87,3.96 7.86,4.07 7.85,4.17 7.81,4.27 7.77,4.37 7.69,4.44 7.62,4.52 7.53,4.57 7.43,4.62 7.33,4.64 7.23,4.66 7.23,4.66 7.23,4.66 5.47,4.98 3.72,5.30 2.19,5.41 0.65,5.52 -0.89,5.60 -2.44,5.68 -3.33,5.81 -4.21,5.93 -3.66,6.53 -3.12,7.13 -2.52,7.86 -1.92,8.58 -1.35,9.40 -0.78,10.23 0.05,11.02 0.89,11.82 1.25,12.27 1.62,12.73 2.43,13.27 3.24,13.82 3.25,13.98 3.25,14.15 3.22,14.31 3.19,14.47 3.12,14.61 3.05,14.76 2.95,14.89 2.85,15.01 2.72,15.11 2.59,15.21 2.44,15.27 2.29,15.34 2.13,15.36 1.97,15.39 1.80,15.38 1.64,15.37 1.49,15.31 1.33,15.26 1.19,15.18 1.06,15.09 0.94,14.97 0.83,14.86 0.75,14.72 0.67,14.58 0.62,14.42 0.58,14.26 0.52,13.62 0.46,12.97 0.33,12.19 0.21,11.40 -0.13,9.98 -0.47,8.55 -0.56,6.88 -0.65,5.21 -0.88,3.11 -1.10,1.01 -0.94,-1.67 -0.78,-4.36 -0.38,-7.32 0.01,-10.28 0.91,-12.98 1.81,-15.68 2.70,-17.33 3.58,-18.97 4.80,-19.74 6.02,-20.51 7.24,-20.62 8.46,-20.73 9.47,-20.13 10.49,-19.52 10.92,-18.42 11.35,-17.32 11.30,-15.88 11.25,-14.44 10.59,-13.04 9.92,-11.64 8.96,-9.63 7.99,-7.62 6.57,-5.86 5.15,-4.11 3.95,-2.82 2.75,-1.52 1.63,-0.56 0.52,0.39 0.47,0.45 0.41,0.50 0.34,0.55 0.28,0.59 0.20,0.61 0.13,0.64 0.05,0.64 -0.02,0.65 -0.10,0.64 -0.18,0.63 -0.25,0.59 -0.32,0.56 -0.39,0.52 -0.45,0.47 -0.50,0.41 -0.55,0.35 -0.58,0.27 -0.62,0.20 -0.63,0.13 -0.65,0.05 -0.65,-0.02 -0.64,-0.10 -0.62,-0.18 -0.60,-0.25 -0.56,-0.32 -0.52,-0.39 -0.52,-0.39 L -0.52,-0.39 Z"/></g><g transform="translate(252 99) rotate(0 3 -3)" stroke="none"><path fill="#1e1e1e" d="M -0.46,-0.46 Q -0.46,-0.46 0.16,-1.56 0.78,-2.65 1.34,-3.52 1.91,-4.38 2.43,-5.32 2.96,-6.25 3.47,-7.25 3.98,-8.25 4.09,-8.38 4.19,-8.52 4.32,-8.63 4.46,-8.74 4.61,-8.81 4.77,-8.88 4.94,-8.92 5.10,-8.95 5.27,-8.94 5.45,-8.94 5.61,-8.89 5.77,-8.84 5.92,-8.75 6.07,-8.67 6.19,-8.55 6.32,-8.43 6.41,-8.28 6.50,-8.14 6.55,-7.98 6.61,-7.81 6.62,-7.64 6.64,-7.47 6.61,-7.30 6.58,-7.13 6.51,-6.98 6.44,-6.82 6.10,-6.26 5.76,-5.70 5.42,-4.61 5.07,-3.51 4.86,-2.48 4.65,-1.46 3.75,0.42 2.86,2.32 2.81,2.42 2.77,2.51 2.70,2.59 2.63,2.67 2.53,2.72 2.44,2.77 2.33,2.79 2.23,2.80 2.12,2.79 2.02,2.77 1.92,2.72 1.83,2.67 1.76,2.60 1.68,2.52 1.64,2.42 1.59,2.33 1.58,2.22 1.57,2.12 1.59,2.01 1.61,1.91 1.67,1.82 1.72,1.73 1.80,1.66 1.88,1.59 1.98,1.55 2.08,1.51 2.19,1.50 2.29,1.49 2.40,1.52 2.50,1.55 2.59,1.61 2.67,1.67 2.74,1.75 2.80,1.84 2.84,1.94 2.87,2.04 2.87,2.14 2.87,2.25 2.84,2.35 2.81,2.45 2.74,2.54 2.68,2.62 2.59,2.68 2.50,2.74 2.40,2.77 2.30,2.80 2.19,2.80 2.09,2.79 1.99,2.75 1.89,2.71 1.81,2.64 1.73,2.58 1.67,2.48 1.62,2.39 1.59,2.29 1.57,2.19 1.58,2.08 1.59,1.98 1.59,1.98 1.59,1.98 1.74,0.03 1.89,-1.91 2.05,-3.17 2.21,-4.44 3.10,-6.34 3.98,-8.25 4.09,-8.38 4.19,-8.52 4.32,-8.63 4.46,-8.74 4.61,-8.81 4.77,-8.88 4.93,-8.92 5.10,-8.95 5.27,-8.94 5.45,-8.94 5.61,-8.89 5.77,-8.84 5.92,-8.75 6.07,-8.67 6.19,-8.55 6.32,-8.43 6.41,-8.28 6.50,-8.14 6.55,-7.98 6.61,-7.81 6.62,-7.64 6.64,-7.47 6.61,-7.30 6.58,-7.13 6.51,-6.98 6.44,-6.82 5.90,-5.84 5.36,-4.86 4.76,-3.84 4.15,-2.82 3.41,-1.80 2.66,-0.79 1.56,-0.16 0.46,0.46 0.40,0.51 0.33,0.56 0.26,0.59 0.19,0.62 0.11,0.64 0.03,0.65 -0.03,0.65 -0.11,0.64 -0.19,0.62 -0.26,0.59 -0.33,0.55 -0.40,0.51 -0.46,0.46 -0.51,0.40 -0.55,0.33 -0.59,0.26 -0.62,0.19 -0.64,0.11 -0.65,0.03 -0.65,-0.03 -0.64,-0.11 -0.62,-0.19 -0.59,-0.26 -0.56,-0.33 -0.51,-0.40 -0.46,-0.46 -0.46,-0.46 L -0.46,-0.46 Z"/></g><g transform="translate(234 247) rotate(0 5.5 -6.5)" stroke="none"><path fill="#1e1e1e" d="M -0.46,-0.46 Q -0.46,-0.46 0.43,-1.86 1.34,-3.25 2.63,-4.86 3.92,-6.46 5.30,-8.55 6.69,-10.63 7.82,-12.90 8.96,-15.17 9.40,-17.16 9.85,-19.15 10.05,-20.79 10.26,-22.43 9.88,-23.07 9.50,-23.72 8.88,-23.30 8.27,-22.87 7.51,-21.11 6.75,-19.34 6.11,-16.34 5.47,-13.34 4.90,-10.29 4.32,-7.25 4.08,-4.02 3.84,-0.79 4.01,1.36 4.18,3.52 4.24,5.37 4.29,7.23 4.42,9.79 4.56,12.35 4.56,12.46 4.56,12.56 4.52,12.66 4.49,12.76 4.42,12.85 4.36,12.93 4.27,12.99 4.18,13.05 4.08,13.08 3.98,13.11 3.87,13.10 3.76,13.09 3.67,13.05 3.57,13.01 3.49,12.94 3.41,12.88 3.35,12.78 3.30,12.69 3.28,12.59 3.25,12.49 3.27,12.38 3.28,12.27 3.32,12.18 3.37,12.08 3.44,12.00 3.52,11.93 3.61,11.88 3.70,11.83 3.81,11.81 3.91,11.80 4.02,11.81 4.12,11.83 4.22,11.88 4.31,11.93 4.38,12.01 4.46,12.09 4.50,12.18 4.54,12.28 4.55,12.39 4.56,12.49 4.54,12.60 4.52,12.70 4.46,12.79 4.41,12.88 4.33,12.95 4.24,13.02 4.15,13.06 4.05,13.10 3.94,13.10 3.83,13.11 3.73,13.08 3.63,13.05 3.54,12.99 3.45,12.93 3.39,12.84 3.33,12.76 3.29,12.66 3.26,12.56 3.26,12.56 3.26,12.56 2.37,9.96 1.47,7.36 1.37,5.56 1.27,3.75 1.07,1.37 0.88,-1.00 1.14,-4.40 1.40,-7.80 1.98,-10.89 2.57,-13.98 3.33,-17.29 4.08,-20.60 5.24,-22.85 6.40,-25.11 7.66,-25.83 8.92,-26.56 10.42,-25.87 11.92,-25.19 12.51,-23.75 13.10,-22.32 12.88,-20.40 12.65,-18.49 12.09,-16.19 11.53,-13.89 10.29,-11.47 9.05,-9.05 7.56,-6.87 6.08,-4.68 4.66,-3.01 3.25,-1.34 1.86,-0.43 0.46,0.46 0.40,0.51 0.33,0.56 0.26,0.59 0.19,0.62 0.11,0.64 0.03,0.65 -0.03,0.65 -0.11,0.64 -0.19,0.62 -0.26,0.59 -0.33,0.55 -0.40,0.51 -0.46,0.46 -0.51,0.40 -0.55,0.33 -0.59,0.26 -0.62,0.19 -0.64,0.11 -0.65,0.03 -0.65,-0.03 -0.64,-0.11 -0.62,-0.19 -0.59,-0.26 -0.56,-0.33 -0.51,-0.40 -0.46,-0.46 -0.46,-0.46 L -0.46,-0.46 Z"/></g><g transform="translate(243 250) rotate(0 5.5 0.5)" stroke="none"><path fill="#1e1e1e" d="M -0.46,-0.46 Q -0.46,-0.46 -0.03,-1.18 0.38,-1.91 1.17,-2.77 1.96,-3.63 2.71,-4.09 3.46,-4.56 4.39,-5.03 5.32,-5.50 6.76,-4.90 8.20,-4.30 8.31,-3.58 8.41,-2.86 8.10,-1.81 7.80,-0.76 7.42,0.46 7.03,1.68 6.53,2.63 6.03,3.57 6.57,3.93 7.12,4.29 8.73,4.42 10.33,4.56 10.43,4.53 10.54,4.51 10.64,4.52 10.75,4.53 10.85,4.57 10.94,4.62 11.02,4.69 11.10,4.76 11.15,4.86 11.20,4.95 11.22,5.06 11.23,5.16 11.22,5.27 11.20,5.37 11.15,5.46 11.10,5.56 11.03,5.63 10.95,5.71 10.85,5.75 10.76,5.80 10.65,5.81 10.55,5.82 10.44,5.80 10.34,5.78 10.25,5.72 10.16,5.67 10.09,5.59 10.02,5.51 9.98,5.41 9.94,5.31 9.93,5.20 9.92,5.10 9.95,4.99 9.98,4.89 10.04,4.80 10.10,4.72 10.18,4.65 10.27,4.59 10.37,4.55 10.47,4.52 10.57,4.52 10.68,4.52 10.78,4.55 10.88,4.58 10.97,4.65 11.05,4.71 11.11,4.80 11.17,4.89 11.20,4.99 11.23,5.09 11.22,5.20 11.22,5.30 11.18,5.40 11.14,5.50 11.07,5.58 11.01,5.66 10.91,5.72 10.82,5.77 10.82,5.77 10.82,5.77 8.76,6.59 6.70,7.40 5.67,7.22 4.64,7.03 3.98,6.46 3.32,5.90 3.05,4.85 2.78,3.80 3.06,2.92 3.33,2.04 3.75,1.37 4.17,0.70 4.62,-0.50 5.06,-1.71 5.62,-2.46 6.18,-3.20 5.41,-2.80 4.65,-2.40 4.13,-2.17 3.61,-1.94 2.76,-1.16 1.91,-0.38 1.18,0.03 0.46,0.46 0.40,0.51 0.33,0.56 0.26,0.59 0.19,0.62 0.11,0.64 0.03,0.65 -0.03,0.65 -0.11,0.64 -0.19,0.62 -0.26,0.59 -0.33,0.55 -0.40,0.51 -0.46,0.46 -0.51,0.40 -0.55,0.33 -0.59,0.26 -0.62,0.19 -0.64,0.11 -0.65,0.03 -0.65,-0.03 -0.64,-0.11 -0.62,-0.19 -0.59,-0.26 -0.56,-0.33 -0.51,-0.40 -0.46,-0.46 -0.46,-0.46 L -0.46,-0.46 Z"/></g><g transform="translate(235 239) rotate(0 0 4)" stroke="none"><path fill="#1e1e1e" d="M 0.36,0.54 Q 0.36,0.54 -0.28,1.44 -0.92,2.34 -1.50,2.86 -2.08,3.38 -2.61,3.89 -3.13,4.41 -3.86,4.78 -4.59,5.15 -5.10,5.56 -5.61,5.96 -5.80,6.01 -5.99,6.07 -6.19,6.07 -6.39,6.08 -6.58,6.04 -6.78,5.99 -6.96,5.91 -7.14,5.82 -7.29,5.69 -7.44,5.56 -7.56,5.40 -7.68,5.24 -7.75,5.06 -7.83,4.88 -7.86,4.68 -7.89,4.48 -7.87,4.28 -7.85,4.09 -7.79,3.90 -7.72,3.71 -7.61,3.54 -7.51,3.37 -7.36,3.24 -7.22,3.10 -7.04,3.00 -6.87,2.91 -5.64,3.49 -4.40,4.08 -3.78,4.02 -3.16,3.95 -2.25,4.01 -1.33,4.07 0.09,4.41 1.53,4.75 2.54,4.88 3.55,5.01 5.44,6.19 7.33,7.38 7.38,7.47 7.44,7.56 7.46,7.66 7.49,7.76 7.48,7.87 7.47,7.97 7.42,8.07 7.38,8.17 7.31,8.25 7.24,8.32 7.14,8.38 7.05,8.43 6.95,8.45 6.84,8.46 6.74,8.45 6.63,8.43 6.54,8.38 6.44,8.34 6.37,8.26 6.29,8.18 6.25,8.09 6.20,7.99 6.19,7.89 6.18,7.78 6.20,7.68 6.22,7.57 6.27,7.48 6.33,7.39 6.41,7.32 6.49,7.25 6.58,7.21 6.68,7.17 6.79,7.16 6.89,7.15 7.00,7.18 7.10,7.21 7.19,7.27 7.28,7.32 7.34,7.41 7.41,7.49 7.44,7.59 7.48,7.69 7.48,7.80 7.48,7.91 7.45,8.01 7.42,8.11 7.35,8.19 7.29,8.28 7.20,8.34 7.12,8.40 7.01,8.43 6.91,8.46 6.81,8.46 6.70,8.45 6.60,8.41 6.50,8.37 6.42,8.31 6.34,8.24 6.34,8.24 6.34,8.24 4.73,8.41 3.12,8.58 1.88,8.43 0.65,8.29 -0.49,7.98 -1.63,7.68 -2.73,7.58 -3.82,7.47 -5.23,7.03 -6.65,6.58 -6.13,6.27 -5.61,5.96 -5.80,6.01 -5.99,6.07 -6.19,6.07 -6.39,6.08 -6.58,6.04 -6.78,5.99 -6.96,5.91 -7.14,5.82 -7.29,5.69 -7.44,5.56 -7.56,5.40 -7.68,5.24 -7.75,5.06 -7.83,4.88 -7.86,4.68 -7.89,4.48 -7.87,4.28 -7.85,4.09 -7.79,3.90 -7.72,3.71 -7.61,3.54 -7.51,3.37 -7.36,3.24 -7.22,3.10 -7.04,3.00 -6.87,2.91 -6.03,2.48 -5.18,2.06 -4.58,1.55 -3.98,1.04 -3.25,0.50 -2.52,-0.04 -1.44,-0.29 -0.36,-0.54 -0.29,-0.58 -0.22,-0.61 -0.14,-0.63 -0.06,-0.65 0.01,-0.65 0.08,-0.65 0.16,-0.63 0.24,-0.61 0.31,-0.57 0.38,-0.53 0.44,-0.48 0.49,-0.42 0.54,-0.36 0.58,-0.29 0.61,-0.22 0.64,-0.14 0.64,-0.06 0.65,0.01 0.64,0.08 0.63,0.16 0.60,0.24 0.57,0.31 0.53,0.37 0.48,0.44 0.42,0.49 0.36,0.54 0.36,0.54 L 0.36,0.54 Z"/></g><g transform="translate(88 246) rotate(0 -0.5 1)" stroke="none"><path fill="#1e1e1e" d="M 4.69,2.34 Q 4.69,2.34 4.41,2.92 4.12,3.49 3.62,4.18 3.12,4.87 2.43,5.37 1.74,5.86 0.93,6.11 0.11,6.35 -0.73,6.33 -1.58,6.30 -2.37,6.01 -3.17,5.71 -3.83,5.17 -4.49,4.64 -4.95,3.92 -5.40,3.20 -5.60,2.38 -5.81,1.55 -5.74,0.71 -5.66,-0.13 -5.33,-0.91 -4.99,-1.69 -4.42,-2.32 -3.85,-2.95 -3.11,-3.37 -2.36,-3.78 -1.53,-3.94 -0.69,-4.10 0.14,-3.98 0.98,-3.86 1.74,-3.48 2.50,-3.10 3.10,-2.50 3.70,-1.90 4.07,-1.13 4.45,-0.37 4.56,0.46 4.67,1.31 4.51,2.14 4.34,2.97 3.92,3.71 3.50,4.45 2.87,5.02 2.23,5.58 1.45,5.91 0.67,6.25 -0.17,6.31 -1.01,6.38 -1.84,6.17 -2.66,5.96 -3.38,5.50 -4.09,5.04 -4.62,4.38 -5.15,3.71 -5.44,2.92 -5.73,2.12 -5.75,1.27 -5.77,0.42 -5.52,-0.38 -5.27,-1.20 -5.27,-1.20 -5.27,-1.19 -4.98,-1.77 -4.69,-2.34 -4.34,-2.87 -3.99,-3.40 -3.53,-3.83 -3.06,-4.26 -2.51,-4.56 -1.95,-4.87 -1.34,-5.03 -0.73,-5.20 -0.10,-5.21 0.53,-5.22 1.14,-5.08 1.76,-4.94 2.33,-4.66 2.89,-4.38 3.38,-3.97 3.86,-3.56 4.23,-3.04 4.60,-2.53 4.83,-1.94 5.07,-1.35 5.16,-0.72 5.25,-0.10 5.18,0.52 5.12,1.15 4.91,1.75 4.69,2.34 4.69,2.34 L 4.69,2.34 Z"/></g><g transform="translate(89 277) rotate(0 -0.5 1)" stroke="none"><path fill="#1e1e1e" d="M 4.69,2.34 Q 4.69,2.34 4.41,2.92 4.12,3.49 3.62,4.18 3.12,4.87 2.43,5.37 1.74,5.86 0.93,6.11 0.11,6.35 -0.73,6.33 -1.58,6.30 -2.37,6.01 -3.17,5.71 -3.83,5.17 -4.49,4.64 -4.95,3.92 -5.40,3.20 -5.60,2.38 -5.81,1.55 -5.74,0.71 -5.66,-0.13 -5.33,-0.91 -4.99,-1.69 -4.42,-2.32 -3.85,-2.95 -3.11,-3.37 -2.36,-3.78 -1.53,-3.94 -0.69,-4.10 0.14,-3.98 0.98,-3.86 1.74,-3.48 2.50,-3.10 3.10,-2.50 3.70,-1.90 4.07,-1.13 4.45,-0.37 4.56,0.46 4.67,1.31 4.51,2.14 4.34,2.97 3.92,3.71 3.50,4.45 2.87,5.02 2.23,5.58 1.45,5.91 0.67,6.25 -0.17,6.31 -1.01,6.38 -1.84,6.17 -2.66,5.96 -3.38,5.50 -4.09,5.04 -4.62,4.38 -5.15,3.71 -5.44,2.92 -5.73,2.12 -5.75,1.27 -5.77,0.42 -5.52,-0.38 -5.27,-1.20 -5.27,-1.20 -5.27,-1.19 -4.98,-1.77 -4.69,-2.34 -4.34,-2.87 -3.99,-3.40 -3.53,-3.83 -3.06,-4.26 -2.51,-4.56 -1.95,-4.87 -1.34,-5.03 -0.73,-5.20 -0.10,-5.21 0.53,-5.22 1.14,-5.08 1.76,-4.94 2.33,-4.66 2.89,-4.38 3.38,-3.97 3.86,-3.56 4.23,-3.04 4.60,-2.53 4.83,-1.94 5.07,-1.35 5.16,-0.72 5.25,-0.10 5.18,0.52 5.12,1.15 4.91,1.75 4.69,2.34 4.69,2.34 L 4.69,2.34 Z"/></g><g transform="translate(87 306) rotate(0 0 0.5)" stroke="none"><path fill="#1e1e1e" d="M 5.25,0.57 Q 5.25,0.57 5.11,1.41 4.97,2.25 4.58,3.00 4.18,3.75 3.56,4.33 2.94,4.92 2.17,5.28 1.40,5.63 0.56,5.72 -0.28,5.82 -1.11,5.63 -1.94,5.45 -2.67,5.01 -3.40,4.57 -3.95,3.93 -4.50,3.28 -4.81,2.49 -5.13,1.70 -5.17,0.85 -5.22,0.00 -4.99,-0.81 -4.76,-1.63 -4.29,-2.33 -3.81,-3.03 -3.13,-3.55 -2.46,-4.06 -1.65,-4.33 -0.84,-4.60 0.00,-4.60 0.85,-4.60 1.65,-4.33 2.46,-4.06 3.13,-3.55 3.81,-3.03 4.29,-2.33 4.76,-1.62 4.99,-0.81 5.22,0.00 5.17,0.85 5.13,1.70 4.81,2.49 4.50,3.28 3.95,3.93 3.39,4.57 2.67,5.01 1.94,5.45 1.11,5.63 0.28,5.82 -0.56,5.72 -1.40,5.63 -2.17,5.27 -2.94,4.92 -3.56,4.33 -4.18,3.75 -4.58,3.00 -4.97,2.25 -5.11,1.41 -5.25,0.57 -5.25,0.57 -5.25,0.57 -5.24,-0.06 -5.23,-0.69 -5.07,-1.31 -4.91,-1.93 -4.61,-2.49 -4.31,-3.05 -3.88,-3.52 -3.45,-3.99 -2.92,-4.35 -2.40,-4.70 -1.80,-4.92 -1.20,-5.14 -0.57,-5.21 0.06,-5.28 0.69,-5.20 1.32,-5.11 1.91,-4.88 2.51,-4.64 3.03,-4.28 3.55,-3.91 3.96,-3.43 4.38,-2.95 4.67,-2.38 4.96,-1.81 5.10,-1.19 5.25,-0.57 5.25,0.00 L 5.25,0.57 Z"/></g></svg>