<svg version="1.1" xmlns="http://www.w3.org/2000/svg" viewBox="0 0 734 215" width="734" height="215" filter="invert(93%) hue-rotate(180deg)" class="excalidraw-svg">
  <!-- svg-source:excalidraw -->
  
  <defs>
    <style class="style-fonts">
      @font-face {
        font-family: "Virgil";
        src: url("https://excalidraw.com/Virgil.woff2");
      }
      @font-face {
        font-family: "Cascadia";
        src: url("https://excalidraw.com/Cascadia.woff2");
      }
      @font-face {
        font-family: "Assistant";
        src: url("https://excalidraw.com/Assistant-Regular.woff2");
      }
    </style>
    
  </defs>
  <rect x="0" y="0" width="734" height="215" fill="#ffffff"/><g transform="translate(10 87) rotate(0 7.5 10)" stroke="none"><path fill="#1e1e1e" d="M 0.46,-0.46 Q 0.46,-0.46 1.80,0.49 3.15,1.44 4.52,2.77 5.90,4.10 7.35,5.52 8.79,6.95 10.04,8.47 11.28,9.99 12.37,11.51 13.46,13.03 14.17,14.32 14.89,15.61 15.16,17.37 15.43,19.13 15.44,19.23 15.45,19.34 15.43,19.44 15.41,19.55 15.36,19.64 15.30,19.73 15.22,19.80 15.14,19.87 15.04,19.91 14.95,19.95 14.84,19.96 14.73,19.96 14.63,19.94 14.53,19.91 14.44,19.85 14.35,19.79 14.28,19.71 14.22,19.63 14.18,19.53 14.15,19.43 14.15,19.32 14.15,19.21 14.18,19.11 14.21,19.01 14.28,18.93 14.34,18.84 14.43,18.78 14.51,18.72 14.61,18.69 14.72,18.66 14.82,18.66 14.93,18.67 15.03,18.71 15.13,18.74 15.21,18.81 15.29,18.88 15.35,18.97 15.40,19.06 15.43,19.16 15.45,19.27 15.44,19.37 15.43,19.48 15.39,19.58 15.34,19.67 15.27,19.75 15.20,19.83 15.11,19.88 15.01,19.93 14.91,19.95 14.80,19.97 14.70,19.95 14.59,19.94 14.50,19.89 14.40,19.84 14.33,19.76 14.26,19.69 14.21,19.59 14.17,19.49 14.17,19.49 14.17,19.49 13.53,18.15 12.90,16.81 12.12,15.69 11.34,14.56 10.27,13.11 9.21,11.65 8.08,10.22 6.95,8.79 5.52,7.34 4.10,5.90 2.77,4.52 1.44,3.15 0.49,1.80 -0.46,0.46 -0.51,0.40 -0.56,0.33 -0.59,0.26 -0.62,0.19 -0.64,0.11 -0.65,0.03 -0.65,-0.03 -0.64,-0.11 -0.62,-0.19 -0.59,-0.26 -0.55,-0.33 -0.51,-0.40 -0.46,-0.46 -0.40,-0.51 -0.33,-0.55 -0.26,-0.59 -0.19,-0.62 -0.11,-0.64 -0.03,-0.65 0.03,-0.65 0.11,-0.64 0.19,-0.62 0.26,-0.59 0.33,-0.56 0.40,-0.51 0.46,-0.46 0.46,-0.46 L 0.46,-0.46 Z"/></g><g transform="translate(11 107) rotate(0 7.5 -10)" stroke="none"><path fill="#1e1e1e" d="M -0.54,-0.36 Q -0.54,-0.36 -0.18,-1.36 0.17,-2.37 0.87,-4.13 1.57,-5.88 3.09,-8.21 4.60,-10.54 6.12,-12.41 7.65,-14.28 9.23,-15.88 10.82,-17.47 12.38,-18.65 13.94,-19.83 14.02,-19.90 14.11,-19.96 14.21,-19.99 14.31,-20.03 14.41,-20.03 14.52,-20.03 14.62,-19.99 14.72,-19.96 14.81,-19.90 14.89,-19.83 14.95,-19.74 15.01,-19.66 15.04,-19.55 15.07,-19.45 15.06,-19.35 15.06,-19.24 15.02,-19.14 14.98,-19.04 14.91,-18.96 14.84,-18.88 14.75,-18.83 14.66,-18.77 14.55,-18.75 14.45,-18.72 14.34,-18.74 14.24,-18.75 14.14,-18.79 14.05,-18.84 13.97,-18.91 13.89,-18.98 13.84,-19.08 13.79,-19.17 13.77,-19.27 13.76,-19.38 13.77,-19.48 13.79,-19.59 13.84,-19.68 13.89,-19.78 13.97,-19.85 14.04,-19.92 14.14,-19.97 14.24,-20.01 14.34,-20.02 14.45,-20.04 14.55,-20.01 14.66,-19.99 14.75,-19.94 14.84,-19.88 14.91,-19.80 14.98,-19.72 15.02,-19.62 15.06,-19.52 15.06,-19.42 15.07,-19.31 15.04,-19.21 15.01,-19.10 14.95,-19.02 14.89,-18.93 14.89,-18.93 14.89,-18.93 13.81,-17.32 12.74,-15.71 11.32,-14.05 9.91,-12.39 8.44,-10.66 6.96,-8.93 5.48,-6.85 3.99,-4.77 3.06,-2.92 2.12,-1.07 1.33,-0.35 0.54,0.36 0.49,0.42 0.44,0.48 0.37,0.53 0.31,0.57 0.24,0.60 0.16,0.63 0.08,0.64 0.01,0.65 -0.06,0.64 -0.14,0.64 -0.22,0.61 -0.29,0.58 -0.36,0.54 -0.42,0.49 -0.48,0.44 -0.53,0.38 -0.57,0.31 -0.61,0.24 -0.63,0.16 -0.65,0.08 -0.65,0.01 -0.65,-0.06 -0.63,-0.14 -0.61,-0.22 -0.58,-0.29 -0.54,-0.36 -0.54,-0.36 L -0.54,-0.36 Z"/></g><g transform="translate(38 94) rotate(0 5 -1)" stroke="none"><path fill="#1e1e1e" d="M -0.15,-0.63 Q -0.15,-0.63 0.90,-1.26 1.96,-1.89 2.94,-2.30 3.92,-2.72 6.71,-2.25 9.50,-1.77 9.59,-1.73 9.69,-1.69 9.77,-1.63 9.86,-1.56 9.91,-1.47 9.97,-1.38 9.99,-1.27 10.01,-1.17 10.00,-1.06 9.99,-0.96 9.95,-0.86 9.91,-0.77 9.83,-0.69 9.76,-0.61 9.67,-0.56 9.57,-0.51 9.47,-0.49 9.37,-0.47 9.26,-0.49 9.16,-0.51 9.06,-0.55 8.97,-0.60 8.89,-0.68 8.82,-0.76 8.77,-0.85 8.73,-0.95 8.72,-1.05 8.70,-1.16 8.73,-1.26 8.75,-1.37 8.80,-1.46 8.86,-1.55 8.94,-1.62 9.02,-1.69 9.11,-1.73 9.21,-1.77 9.32,-1.78 9.42,-1.78 9.53,-1.75 9.63,-1.73 9.72,-1.67 9.81,-1.61 9.87,-1.53 9.94,-1.44 9.97,-1.34 10.01,-1.24 10.01,-1.13 10.01,-1.03 9.98,-0.93 9.94,-0.83 9.88,-0.74 9.82,-0.66 9.73,-0.60 9.64,-0.54 9.54,-0.51 9.44,-0.48 9.33,-0.48 9.22,-0.49 9.22,-0.49 9.22,-0.49 7.08,-0.27 4.93,-0.06 3.78,0.33 2.63,0.74 1.39,0.69 0.15,0.63 0.08,0.64 0.00,0.65 -0.07,0.64 -0.15,0.63 -0.22,0.61 -0.30,0.58 -0.36,0.53 -0.43,0.49 -0.48,0.43 -0.53,0.37 -0.57,0.30 -0.61,0.23 -0.63,0.15 -0.65,0.08 -0.65,0.00 -0.65,-0.07 -0.63,-0.15 -0.61,-0.23 -0.57,-0.30 -0.54,-0.37 -0.48,-0.43 -0.43,-0.49 -0.37,-0.53 -0.30,-0.58 -0.23,-0.60 -0.15,-0.63 -0.15,-0.63 L -0.15,-0.63 Z"/></g><g transform="translate(39 98) rotate(0 5.5 -0.5)" stroke="none"><path fill="#1e1e1e" d="M 0,-0.65 Q 0,-0.65 0.85,-1.13 1.71,-1.62 2.75,-1.92 3.80,-2.22 5.32,-2.35 6.84,-2.49 8.76,-1.60 10.68,-0.71 10.78,-0.67 10.88,-0.64 10.97,-0.58 11.05,-0.52 11.11,-0.43 11.17,-0.34 11.20,-0.24 11.23,-0.14 11.23,-0.03 11.22,0.07 11.19,0.16 11.15,0.26 11.08,0.35 11.01,0.43 10.92,0.48 10.83,0.54 10.73,0.56 10.62,0.59 10.52,0.58 10.41,0.57 10.32,0.52 10.22,0.48 10.14,0.41 10.06,0.34 10.01,0.24 9.96,0.15 9.94,0.04 9.92,-0.05 9.94,-0.16 9.96,-0.26 10.00,-0.35 10.05,-0.45 10.13,-0.52 10.21,-0.60 10.30,-0.64 10.40,-0.69 10.50,-0.70 10.61,-0.71 10.71,-0.69 10.82,-0.67 10.91,-0.62 11.00,-0.56 11.07,-0.48 11.14,-0.40 11.18,-0.30 11.22,-0.21 11.23,-0.10 11.23,0.00 11.21,0.10 11.18,0.20 11.12,0.29 11.06,0.38 10.98,0.44 10.89,0.51 10.79,0.54 10.69,0.58 10.59,0.58 10.48,0.58 10.48,0.58 10.48,0.58 8.77,0.72 7.06,0.85 5.81,0.96 4.56,1.07 3.15,1.34 1.73,1.62 0.86,1.13 0,0.65 -0.07,0.64 -0.15,0.63 -0.23,0.60 -0.30,0.58 -0.37,0.53 -0.43,0.49 -0.48,0.43 -0.54,0.37 -0.57,0.30 -0.61,0.23 -0.63,0.15 -0.65,0.07 -0.65,-0.00 -0.65,-0.07 -0.63,-0.15 -0.61,-0.23 -0.57,-0.30 -0.54,-0.37 -0.48,-0.43 -0.43,-0.49 -0.37,-0.53 -0.30,-0.58 -0.23,-0.60 -0.15,-0.63 -0.07,-0.64 0.00,-0.65 0.00,-0.65 L 0,-0.65 Z"/></g><g transform="translate(99 18) rotate(0 -7.5 58)" stroke="none"><path fill="#1e1e1e" d="M 0.51,0.41 Q 0.51,0.41 -0.49,1.95 -1.50,3.50 -2.47,5.74 -3.44,7.99 -5.27,13.82 -7.10,19.65 -8.45,25.56 -9.80,31.47 -10.95,37.43 -12.09,43.39 -12.27,50.72 -12.46,58.05 -11.68,66.02 -10.90,73.98 -9.73,81.10 -8.56,88.22 -7.52,93.54 -6.48,98.87 -5.54,102.86 -4.61,106.85 -3.71,110.53 -2.82,114.21 -2.81,114.31 -2.80,114.42 -2.82,114.52 -2.84,114.63 -2.89,114.72 -2.95,114.81 -3.03,114.88 -3.11,114.95 -3.21,114.99 -3.31,115.03 -3.41,115.03 -3.52,115.04 -3.62,115.01 -3.72,114.98 -3.81,114.92 -3.90,114.87 -3.97,114.78 -4.03,114.70 -4.06,114.60 -4.10,114.50 -4.10,114.39 -4.10,114.28 -4.07,114.18 -4.03,114.08 -3.97,114.00 -3.91,113.91 -3.82,113.85 -3.73,113.79 -3.63,113.76 -3.53,113.73 -3.42,113.74 -3.31,113.74 -3.22,113.78 -3.12,113.82 -3.04,113.89 -2.95,113.96 -2.90,114.05 -2.84,114.14 -2.82,114.24 -2.80,114.35 -2.81,114.45 -2.82,114.56 -2.86,114.66 -2.91,114.75 -2.98,114.83 -3.05,114.91 -3.15,114.96 -3.24,115.01 -3.34,115.03 -3.45,115.04 -3.55,115.03 -3.66,115.01 -3.75,114.96 -3.85,114.91 -3.92,114.83 -3.99,114.76 -4.04,114.66 -4.08,114.57 -4.08,114.57 -4.08,114.57 -5.26,110.95 -6.44,107.33 -7.58,103.33 -8.71,99.32 -9.83,93.97 -10.95,88.62 -12.17,81.42 -13.38,74.22 -14.15,66.10 -14.92,57.98 -14.70,50.46 -14.47,42.93 -13.29,36.93 -12.11,30.93 -10.71,24.94 -9.30,18.95 -7.35,13.02 -5.40,7.10 -4.25,4.67 -3.09,2.24 -1.80,0.91 -0.51,-0.41 -0.45,-0.46 -0.39,-0.52 -0.33,-0.56 -0.26,-0.60 -0.18,-0.62 -0.11,-0.64 -0.03,-0.65 0.04,-0.65 0.12,-0.63 0.20,-0.62 0.27,-0.59 0.34,-0.55 0.40,-0.50 0.46,-0.45 0.51,-0.39 0.56,-0.33 0.59,-0.26 0.62,-0.18 0.64,-0.11 0.65,-0.03 0.65,0.04 0.64,0.12 0.62,0.20 0.59,0.27 0.55,0.34 0.51,0.41 0.51,0.41 L 0.51,0.41 Z"/></g><g transform="translate(110 28) rotate(0 4.5 6)" stroke="none"><path fill="#1e1e1e" d="M 0.58,-0.29 Q 0.58,-0.29 1.44,0.71 2.29,1.72 3.07,2.66 3.84,3.61 4.80,4.93 5.75,6.26 6.68,7.35 7.60,8.44 8.50,10.38 9.40,12.32 9.43,12.43 9.46,12.53 9.46,12.63 9.45,12.74 9.41,12.84 9.38,12.94 9.31,13.02 9.24,13.10 9.15,13.16 9.06,13.21 8.96,13.24 8.85,13.26 8.75,13.25 8.64,13.24 8.55,13.20 8.45,13.16 8.37,13.09 8.29,13.02 8.24,12.92 8.19,12.83 8.17,12.72 8.15,12.62 8.17,12.51 8.18,12.41 8.23,12.32 8.28,12.22 8.36,12.15 8.43,12.07 8.53,12.03 8.62,11.98 8.73,11.97 8.83,11.95 8.94,11.97 9.04,11.99 9.13,12.05 9.23,12.10 9.30,12.18 9.37,12.26 9.41,12.36 9.45,12.46 9.45,12.56 9.46,12.67 9.44,12.77 9.41,12.87 9.35,12.96 9.29,13.05 9.21,13.12 9.13,13.18 9.03,13.22 8.93,13.26 8.82,13.26 8.71,13.26 8.61,13.23 8.51,13.19 8.42,13.13 8.34,13.07 8.28,12.98 8.22,12.89 8.22,12.89 8.22,12.89 6.87,11.55 5.53,10.20 4.52,9.02 3.51,7.84 2.62,6.54 1.72,5.24 0.86,4.06 0.00,2.87 -0.29,1.58 -0.58,0.29 -0.61,0.21 -0.64,0.14 -0.64,0.06 -0.65,-0.01 -0.64,-0.09 -0.63,-0.16 -0.60,-0.24 -0.57,-0.31 -0.52,-0.38 -0.48,-0.44 -0.42,-0.49 -0.36,-0.54 -0.29,-0.58 -0.22,-0.61 -0.14,-0.63 -0.06,-0.65 0.01,-0.65 0.09,-0.65 0.16,-0.62 0.24,-0.60 0.31,-0.57 0.38,-0.53 0.44,-0.47 0.50,-0.42 0.54,-0.35 0.58,-0.29 0.58,-0.29 L 0.58,-0.29 Z"/></g><g transform="translate(107 40) rotate(0 7 -8)" stroke="none"><path fill="#1e1e1e" d="M -0.52,-0.39 Q -0.52,-0.39 0.04,-1.76 0.61,-3.13 1.83,-4.57 3.06,-6.01 4.72,-7.78 6.39,-9.55 7.65,-11.07 8.92,-12.58 10.86,-14.11 12.80,-15.65 12.88,-15.71 12.97,-15.78 13.07,-15.82 13.17,-15.85 13.27,-15.86 13.38,-15.86 13.48,-15.83 13.58,-15.80 13.67,-15.73 13.75,-15.67 13.82,-15.59 13.88,-15.50 13.91,-15.40 13.94,-15.30 13.94,-15.19 13.94,-15.08 13.90,-14.98 13.86,-14.89 13.80,-14.80 13.73,-14.72 13.64,-14.66 13.55,-14.60 13.45,-14.58 13.34,-14.55 13.24,-14.56 13.13,-14.57 13.03,-14.61 12.94,-14.65 12.86,-14.72 12.78,-14.80 12.73,-14.89 12.67,-14.98 12.65,-15.09 12.63,-15.19 12.65,-15.29 12.66,-15.40 12.71,-15.50 12.76,-15.59 12.83,-15.67 12.91,-15.74 13.00,-15.79 13.10,-15.84 13.20,-15.85 13.31,-15.86 13.41,-15.84 13.52,-15.82 13.61,-15.77 13.70,-15.72 13.77,-15.64 13.84,-15.56 13.89,-15.46 13.93,-15.37 13.94,-15.26 13.94,-15.16 13.92,-15.05 13.89,-14.95 13.84,-14.86 13.78,-14.77 13.78,-14.77 13.78,-14.77 12.52,-12.73 11.27,-10.69 9.96,-9.02 8.66,-7.34 6.98,-5.66 5.30,-3.98 4.06,-2.72 2.83,-1.46 1.68,-0.53 0.52,0.39 0.47,0.45 0.41,0.50 0.34,0.55 0.28,0.59 0.20,0.61 0.13,0.64 0.05,0.64 -0.02,0.65 -0.10,0.64 -0.18,0.63 -0.25,0.59 -0.32,0.56 -0.39,0.52 -0.45,0.47 -0.50,0.41 -0.55,0.35 -0.58,0.27 -0.62,0.20 -0.63,0.13 -0.65,0.05 -0.65,-0.02 -0.64,-0.10 -0.62,-0.18 -0.60,-0.25 -0.56,-0.32 -0.52,-0.39 -0.52,-0.39 L -0.52,-0.39 Z"/></g><g transform="translate(122 41) rotate(0 3.5 -2.5)" stroke="none"><path fill="#1e1e1e" d="M -0.52,-0.39 Q -0.52,-0.39 0.05,-1.75 0.63,-3.12 1.59,-4.23 2.55,-5.35 3.18,-6.32 3.82,-7.29 4.37,-7.72 4.93,-8.16 5.04,-8.29 5.16,-8.43 5.30,-8.53 5.44,-8.63 5.61,-8.70 5.77,-8.76 5.94,-8.78 6.12,-8.81 6.29,-8.79 6.47,-8.77 6.63,-8.71 6.80,-8.65 6.94,-8.55 7.09,-8.45 7.21,-8.32 7.33,-8.19 7.41,-8.04 7.49,-7.89 7.54,-7.72 7.58,-7.55 7.58,-7.37 7.59,-7.19 7.55,-7.02 7.51,-6.85 7.43,-6.70 7.35,-6.54 6.81,-5.31 6.26,-4.08 6.05,-3.16 5.84,-2.25 4.80,0.10 3.75,2.46 3.71,2.57 3.68,2.67 3.62,2.75 3.55,2.83 3.46,2.89 3.38,2.95 3.27,2.98 3.17,3.01 3.06,3.00 2.96,3.00 2.86,2.96 2.76,2.92 2.68,2.85 2.60,2.78 2.54,2.69 2.49,2.60 2.47,2.50 2.44,2.39 2.46,2.29 2.47,2.18 2.51,2.08 2.56,1.99 2.63,1.91 2.70,1.83 2.80,1.78 2.89,1.73 3.00,1.72 3.10,1.70 3.21,1.72 3.31,1.74 3.40,1.79 3.50,1.84 3.57,1.91 3.64,1.99 3.69,2.09 3.73,2.18 3.74,2.29 3.76,2.39 3.73,2.50 3.71,2.60 3.66,2.69 3.60,2.78 3.52,2.85 3.44,2.92 3.34,2.96 3.24,3.00 3.13,3.00 3.03,3.01 2.93,2.98 2.82,2.95 2.74,2.89 2.65,2.83 2.58,2.75 2.52,2.66 2.49,2.56 2.45,2.46 2.45,2.36 2.45,2.25 2.45,2.25 2.45,2.25 2.67,-0.34 2.89,-2.94 3.19,-4.19 3.48,-5.44 4.20,-6.80 4.93,-8.16 5.04,-8.29 5.16,-8.43 5.30,-8.53 5.44,-8.63 5.61,-8.70 5.77,-8.76 5.94,-8.78 6.12,-8.81 6.29,-8.79 6.47,-8.77 6.63,-8.71 6.80,-8.65 6.94,-8.55 7.09,-8.45 7.21,-8.32 7.33,-8.19 7.41,-8.04 7.49,-7.89 7.54,-7.72 7.58,-7.55 7.58,-7.37 7.59,-7.19 7.55,-7.02 7.51,-6.85 7.43,-6.70 7.35,-6.54 6.75,-6.10 6.14,-5.67 5.40,-4.58 4.65,-3.50 3.73,-2.49 2.81,-1.47 1.67,-0.54 0.52,0.39 0.47,0.45 0.41,0.50 0.34,0.55 0.28,0.59 0.20,0.61 0.13,0.64 0.05,0.64 -0.02,0.65 -0.10,0.64 -0.18,0.63 -0.25,0.59 -0.32,0.56 -0.39,0.52 -0.45,0.47 -0.50,0.41 -0.55,0.35 -0.58,0.27 -0.62,0.20 -0.63,0.13 -0.65,0.05 -0.65,-0.02 -0.64,-0.10 -0.62,-0.18 -0.60,-0.25 -0.56,-0.32 -0.52,-0.39 -0.52,-0.39 L -0.52,-0.39 Z"/></g><g transform="translate(108 58) rotate(0 1.5 -1)" stroke="none"><path fill="#1e1e1e" d="M -0.54,0.36 Q -0.54,0.36 -1.33,-0.35 -2.13,-1.07 -2.45,-1.84 -2.78,-2.60 -2.92,-3.25 -3.06,-3.90 -3.50,-4.71 -3.93,-5.52 -4.00,-5.67 -4.07,-5.81 -4.10,-5.97 -4.13,-6.13 -4.12,-6.30 -4.12,-6.46 -4.07,-6.61 -4.03,-6.77 -3.94,-6.91 -3.86,-7.05 -3.75,-7.17 -3.64,-7.29 -3.50,-7.37 -3.36,-7.46 -3.21,-7.51 -3.05,-7.56 -2.89,-7.57 -2.73,-7.59 -2.57,-7.56 -2.41,-7.53 -2.26,-7.47 -2.11,-7.40 -1.98,-7.31 -1.85,-7.21 -1.75,-7.08 -1.64,-6.96 -0.74,-6.06 0.16,-5.15 0.91,-4.67 1.66,-4.19 2.49,-3.22 3.32,-2.25 4.04,-1.75 4.76,-1.25 5.28,-0.53 5.79,0.19 6.21,2.42 6.63,4.65 6.62,4.75 6.61,4.86 6.57,4.96 6.52,5.05 6.45,5.13 6.38,5.21 6.29,5.26 6.19,5.31 6.09,5.33 5.98,5.35 5.88,5.33 5.77,5.32 5.68,5.27 5.58,5.22 5.51,5.15 5.44,5.07 5.39,4.98 5.34,4.88 5.33,4.77 5.32,4.67 5.34,4.56 5.36,4.46 5.41,4.37 5.47,4.28 5.55,4.21 5.63,4.14 5.72,4.10 5.82,4.05 5.93,4.05 6.03,4.04 6.14,4.07 6.24,4.09 6.33,4.15 6.42,4.21 6.48,4.29 6.55,4.38 6.58,4.48 6.62,4.58 6.62,4.68 6.62,4.79 6.59,4.89 6.56,4.99 6.50,5.08 6.43,5.16 6.35,5.22 6.26,5.28 6.16,5.32 6.06,5.35 5.95,5.34 5.84,5.34 5.74,5.30 5.64,5.26 5.56,5.19 5.48,5.13 5.42,5.04 5.37,4.95 5.34,4.84 5.32,4.74 5.32,4.74 5.32,4.74 4.87,3.85 4.43,2.96 3.57,2.16 2.71,1.36 1.73,0.58 0.74,-0.19 0.26,-0.87 -0.20,-1.56 -1.18,-2.27 -2.15,-2.98 -3.04,-4.25 -3.93,-5.52 -4.00,-5.67 -4.07,-5.81 -4.10,-5.97 -4.13,-6.13 -4.12,-6.30 -4.12,-6.46 -4.07,-6.61 -4.03,-6.77 -3.94,-6.91 -3.86,-7.05 -3.75,-7.17 -3.64,-7.29 -3.50,-7.37 -3.36,-7.46 -3.21,-7.51 -3.05,-7.56 -2.89,-7.57 -2.73,-7.59 -2.57,-7.56 -2.41,-7.53 -2.26,-7.47 -2.11,-7.40 -1.98,-7.31 -1.85,-7.21 -1.75,-7.08 -1.64,-6.96 -1.53,-6.42 -1.42,-5.88 -0.96,-4.66 -0.49,-3.45 -0.33,-2.91 -0.16,-2.37 0.18,-1.36 0.54,-0.36 0.58,-0.29 0.61,-0.22 0.63,-0.14 0.65,-0.06 0.65,0.01 0.65,0.08 0.63,0.16 0.61,0.24 0.57,0.31 0.53,0.38 0.48,0.44 0.42,0.49 0.36,0.54 0.29,0.58 0.22,0.61 0.14,0.64 0.06,0.64 -0.01,0.65 -0.08,0.64 -0.16,0.63 -0.24,0.60 -0.31,0.57 -0.37,0.53 -0.44,0.48 -0.49,0.42 -0.54,0.36 -0.54,0.36 L -0.54,0.36 Z"/></g><g transform="translate(105 64) rotate(0 6 -6)" stroke="none"><path fill="#1e1e1e" d="M -0.62,-0.20 Q -0.62,-0.20 -0.68,-1.18 -0.75,-2.16 -0.33,-3.20 0.07,-4.23 1.24,-5.45 2.41,-6.67 3.41,-7.66 4.40,-8.65 5.79,-9.68 7.18,-10.70 9.24,-11.55 11.31,-12.40 11.41,-12.43 11.52,-12.46 11.62,-12.45 11.73,-12.45 11.83,-12.41 11.93,-12.37 12.01,-12.30 12.09,-12.23 12.14,-12.14 12.20,-12.05 12.22,-11.95 12.25,-11.84 12.24,-11.74 12.22,-11.63 12.18,-11.54 12.14,-11.44 12.06,-11.36 11.99,-11.28 11.90,-11.23 11.80,-11.18 11.70,-11.17 11.59,-11.15 11.49,-11.17 11.38,-11.18 11.29,-11.23 11.20,-11.28 11.12,-11.36 11.05,-11.43 11.00,-11.53 10.96,-11.63 10.95,-11.73 10.93,-11.84 10.96,-11.94 10.98,-12.05 11.03,-12.14 11.09,-12.23 11.17,-12.30 11.25,-12.37 11.35,-12.41 11.45,-12.45 11.55,-12.45 11.66,-12.46 11.76,-12.43 11.86,-12.40 11.95,-12.34 12.04,-12.28 12.10,-12.20 12.17,-12.12 12.20,-12.02 12.24,-11.91 12.24,-11.81 12.24,-11.70 12.21,-11.60 12.17,-11.50 12.11,-11.42 12.04,-11.33 11.96,-11.27 11.87,-11.21 11.87,-11.21 11.87,-11.21 10.43,-9.78 8.99,-8.34 7.79,-7.38 6.58,-6.41 5.55,-5.42 4.52,-4.43 3.61,-3.71 2.71,-2.98 2.30,-2.13 1.90,-1.28 1.26,-0.53 0.62,0.20 0.58,0.27 0.55,0.35 0.50,0.41 0.45,0.47 0.39,0.52 0.32,0.56 0.25,0.59 0.18,0.63 0.10,0.64 0.02,0.65 -0.05,0.64 -0.13,0.64 -0.20,0.61 -0.28,0.59 -0.34,0.55 -0.41,0.50 -0.46,0.45 -0.52,0.39 -0.56,0.32 -0.60,0.25 -0.62,0.18 -0.64,0.10 -0.65,0.02 -0.65,-0.05 -0.63,-0.13 -0.62,-0.20 -0.62,-0.20 L -0.62,-0.20 Z"/></g><g transform="translate(120 60) rotate(0 5 2.5)" stroke="none"><path fill="#1e1e1e" d="M -0.62,-0.20 Q -0.62,-0.20 -0.66,-1.22 -0.71,-2.25 -0.13,-2.88 0.44,-3.52 1.30,-4.05 2.16,-4.58 3.21,-4.79 4.26,-4.99 4.89,-4.71 5.53,-4.43 6.06,-3.77 6.59,-3.12 6.60,-1.72 6.62,-0.33 6.25,0.82 5.88,1.99 5.07,3.18 4.26,4.37 3.64,5.14 3.03,5.90 2.48,6.53 1.93,7.16 1.42,7.70 0.91,8.25 0.76,8.37 0.62,8.49 0.45,8.57 0.29,8.66 0.11,8.70 -0.07,8.74 -0.25,8.74 -0.44,8.74 -0.62,8.69 -0.80,8.64 -0.97,8.55 -1.13,8.46 -1.27,8.34 -1.41,8.21 -1.51,8.06 -1.62,7.90 -1.68,7.72 -1.74,7.55 -1.76,7.36 -1.78,7.18 -1.76,6.99 -1.73,6.80 -1.66,6.63 -1.60,6.46 -1.49,6.30 -1.38,6.15 -0.02,6.24 1.32,6.33 1.98,6.67 2.63,7.01 3.56,7.10 4.48,7.20 5.77,7.32 7.06,7.45 8.67,7.89 10.29,8.32 10.39,8.34 10.50,8.36 10.59,8.41 10.68,8.46 10.75,8.54 10.82,8.62 10.87,8.72 10.91,8.82 10.92,8.92 10.93,9.03 10.90,9.13 10.87,9.24 10.82,9.32 10.76,9.41 10.68,9.48 10.59,9.55 10.49,9.58 10.40,9.62 10.29,9.62 10.18,9.63 10.08,9.60 9.98,9.57 9.89,9.50 9.81,9.44 9.74,9.36 9.68,9.27 9.65,9.17 9.62,9.07 9.62,8.96 9.63,8.85 9.66,8.75 9.70,8.65 9.76,8.57 9.83,8.49 9.92,8.43 10.01,8.37 10.11,8.35 10.22,8.32 10.32,8.33 10.43,8.34 10.53,8.38 10.62,8.42 10.70,8.49 10.78,8.56 10.83,8.66 10.89,8.75 10.91,8.85 10.93,8.96 10.91,9.06 10.90,9.17 10.85,9.26 10.80,9.36 10.73,9.43 10.65,9.51 10.56,9.56 10.46,9.60 10.36,9.62 10.25,9.63 10.25,9.63 10.25,9.63 8.58,9.98 6.91,10.33 5.48,10.32 4.05,10.31 2.63,10.08 1.21,9.84 0.41,9.41 -0.37,8.98 0.26,8.61 0.91,8.25 0.76,8.37 0.62,8.49 0.46,8.57 0.29,8.66 0.11,8.70 -0.07,8.74 -0.25,8.74 -0.44,8.74 -0.62,8.69 -0.80,8.64 -0.97,8.55 -1.13,8.46 -1.27,8.34 -1.41,8.21 -1.51,8.06 -1.62,7.90 -1.68,7.72 -1.74,7.55 -1.76,7.36 -1.78,7.18 -1.76,6.99 -1.73,6.80 -1.66,6.63 -1.60,6.46 -1.49,6.30 -1.38,6.15 -0.86,5.62 -0.33,5.08 0.19,4.53 0.72,3.98 1.28,3.31 1.85,2.65 2.48,1.83 3.11,1.02 3.42,0.16 3.72,-0.68 3.67,-1.39 3.61,-2.09 2.74,-1.64 1.86,-1.19 1.24,-0.49 0.62,0.20 0.58,0.27 0.55,0.35 0.50,0.41 0.45,0.47 0.39,0.52 0.32,0.56 0.25,0.59 0.18,0.63 0.10,0.64 0.02,0.65 -0.05,0.64 -0.13,0.64 -0.20,0.61 -0.28,0.59 -0.34,0.55 -0.41,0.50 -0.46,0.45 -0.52,0.39 -0.56,0.32 -0.60,0.25 -0.62,0.18 -0.64,0.10 -0.65,0.02 -0.65,-0.05 -0.63,-0.13 -0.62,-0.20 -0.62,-0.20 L -0.62,-0.20 Z"/></g><g transform="translate(112 72) rotate(0 -1 1.5)" stroke="none"><path fill="#1e1e1e" d="M 0.54,0.36 Q 0.54,0.36 -0.27,1.59 -1.09,2.82 -1.16,2.90 -1.23,2.97 -1.33,3.02 -1.42,3.07 -1.52,3.09 -1.63,3.11 -1.73,3.09 -1.84,3.08 -1.93,3.03 -2.03,2.98 -2.10,2.90 -2.17,2.83 -2.22,2.73 -2.27,2.63 -2.28,2.53 -2.29,2.42 -2.27,2.32 -2.25,2.21 -2.19,2.12 -2.14,2.03 -2.06,1.96 -1.98,1.89 -1.88,1.85 -1.78,1.81 -1.67,1.81 -1.57,1.80 -1.47,1.83 -1.36,1.86 -1.27,1.91 -1.19,1.97 -1.12,2.06 -1.06,2.14 -1.02,2.24 -0.99,2.34 -0.99,2.45 -0.98,2.55 -1.02,2.66 -1.05,2.76 -1.11,2.84 -1.18,2.93 -1.27,2.99 -1.35,3.05 -1.46,3.08 -1.56,3.11 -1.66,3.10 -1.77,3.10 -1.87,3.06 -1.97,3.02 -2.05,2.95 -2.13,2.88 -2.19,2.79 -2.24,2.70 -2.27,2.60 -2.29,2.49 -2.28,2.39 -2.27,2.28 -2.22,2.19 -2.18,2.09 -2.18,2.09 -2.18,2.09 -1.36,0.86 -0.54,-0.36 -0.49,-0.42 -0.44,-0.48 -0.37,-0.53 -0.31,-0.57 -0.24,-0.60 -0.16,-0.63 -0.08,-0.64 -0.01,-0.65 0.06,-0.64 0.14,-0.64 0.22,-0.61 0.29,-0.58 0.36,-0.54 0.42,-0.49 0.48,-0.44 0.53,-0.38 0.57,-0.31 0.61,-0.24 0.63,-0.16 0.65,-0.08 0.65,-0.01 0.65,0.06 0.63,0.14 0.61,0.22 0.58,0.29 0.54,0.36 0.54,0.36 L 0.54,0.36 Z"/></g><g transform="translate(110 87) rotate(0 1 -1)" stroke="none"><path fill="#1e1e1e" d="M -0.65,0 Q -0.65,0 -0.12,-0.04 0.41,-0.08 0.42,-0.16 0.43,-0.23 0.46,-0.31 0.48,-0.38 0.53,-0.45 0.57,-0.51 0.63,-0.56 0.69,-0.62 0.76,-0.65 0.83,-0.69 0.91,-0.71 0.99,-0.73 1.07,-0.73 1.15,-0.73 1.22,-0.71 1.30,-0.69 1.37,-0.65 1.44,-0.62 1.50,-0.56 1.56,-0.51 1.60,-0.45 1.65,-0.38 1.68,-0.31 1.70,-0.23 1.71,-0.16 1.72,-0.08 1.56,0.20 1.40,0.48 1.30,0.52 1.20,0.56 1.09,0.56 0.99,0.57 0.88,0.54 0.78,0.51 0.70,0.44 0.61,0.38 0.55,0.30 0.48,0.21 0.45,0.11 0.42,0.01 0.42,-0.09 0.42,-0.19 0.45,-0.29 0.49,-0.39 0.56,-0.48 0.62,-0.56 0.71,-0.62 0.80,-0.68 0.90,-0.70 1.00,-0.73 1.11,-0.72 1.22,-0.72 1.31,-0.68 1.41,-0.63 1.49,-0.56 1.57,-0.50 1.63,-0.40 1.68,-0.31 1.70,-0.21 1.72,-0.10 1.71,-0.00 1.70,0.10 1.65,0.19 1.60,0.29 1.53,0.37 1.46,0.44 1.36,0.49 1.27,0.54 1.16,0.55 1.06,0.57 0.95,0.55 0.85,0.53 0.76,0.48 0.66,0.43 0.59,0.35 0.52,0.27 0.47,0.18 0.43,0.08 0.42,-0.02 0.41,-0.12 0.44,-0.22 0.46,-0.33 0.52,-0.42 0.57,-0.51 0.49,-0.29 0.41,-0.08 0.42,-0.16 0.43,-0.23 0.46,-0.31 0.48,-0.38 0.53,-0.45 0.57,-0.51 0.63,-0.56 0.69,-0.62 0.76,-0.65 0.83,-0.69 0.91,-0.71 0.99,-0.73 1.07,-0.73 1.15,-0.73 1.22,-0.71 1.30,-0.69 1.37,-0.65 1.44,-0.62 1.50,-0.56 1.56,-0.51 1.60,-0.45 1.65,-0.38 1.68,-0.31 1.70,-0.23 1.71,-0.16 1.72,-0.08 1.19,-0.04 0.65,0 0.64,0.07 0.63,0.15 0.60,0.23 0.58,0.30 0.53,0.37 0.49,0.43 0.43,0.48 0.37,0.54 0.30,0.57 0.23,0.61 0.15,0.63 0.07,0.65 -0.00,0.65 -0.07,0.65 -0.15,0.63 -0.23,0.61 -0.30,0.57 -0.37,0.54 -0.43,0.48 -0.49,0.43 -0.53,0.37 -0.58,0.30 -0.60,0.23 -0.63,0.15 -0.64,0.07 -0.65,-0.00 -0.65,-0.00 L -0.65,0 Z"/></g><g transform="translate(111 74) rotate(0 0 0.5)" stroke="none"><path fill="#1e1e1e" d="M 0.58,-0.29 Q 0.58,-0.29 0.19,0.67 -0.18,1.64 -0.16,1.71 -0.13,1.79 -0.12,1.86 -0.11,1.94 -0.12,2.02 -0.14,2.10 -0.17,2.17 -0.19,2.25 -0.24,2.31 -0.29,2.37 -0.35,2.43 -0.41,2.48 -0.48,2.51 -0.55,2.55 -0.63,2.57 -0.70,2.58 -0.78,2.58 -0.86,2.58 -0.94,2.56 -1.02,2.54 -1.08,2.50 -1.15,2.46 -1.21,2.41 -1.27,2.36 -1.31,2.29 -1.36,2.22 -1.08,2.40 -0.80,2.59 -0.90,2.56 -1.01,2.54 -1.10,2.49 -1.19,2.44 -1.26,2.36 -1.33,2.27 -1.37,2.18 -1.41,2.08 -1.42,1.97 -1.42,1.87 -1.40,1.76 -1.37,1.66 -1.31,1.57 -1.25,1.48 -1.17,1.42 -1.08,1.35 -0.98,1.32 -0.88,1.28 -0.78,1.28 -0.67,1.28 -0.57,1.31 -0.47,1.35 -0.38,1.41 -0.30,1.47 -0.24,1.56 -0.18,1.65 -0.15,1.75 -0.12,1.85 -0.12,1.96 -0.13,2.06 -0.17,2.16 -0.20,2.26 -0.27,2.34 -0.34,2.43 -0.43,2.48 -0.52,2.54 -0.62,2.56 -0.73,2.58 -0.83,2.57 -0.94,2.56 -1.04,2.52 -1.13,2.48 -1.21,2.41 -1.29,2.33 -1.34,2.24 -1.39,2.15 -1.41,2.04 -1.43,1.94 -1.41,1.83 -1.39,1.73 -1.35,1.63 -1.30,1.54 -1.22,1.46 -1.14,1.39 -1.05,1.34 -0.95,1.30 -0.57,1.47 -0.18,1.64 -0.16,1.71 -0.13,1.79 -0.12,1.86 -0.11,1.94 -0.12,2.02 -0.14,2.10 -0.17,2.17 -0.19,2.25 -0.24,2.31 -0.29,2.37 -0.35,2.43 -0.41,2.48 -0.48,2.51 -0.55,2.55 -0.63,2.57 -0.70,2.58 -0.78,2.58 -0.86,2.58 -0.94,2.56 -1.02,2.54 -1.08,2.50 -1.15,2.46 -1.21,2.41 -1.27,2.36 -1.31,2.29 -1.36,2.22 -0.97,1.26 -0.58,0.29 -0.61,0.21 -0.64,0.14 -0.64,0.06 -0.65,-0.01 -0.64,-0.09 -0.63,-0.16 -0.60,-0.24 -0.57,-0.31 -0.52,-0.38 -0.48,-0.44 -0.42,-0.49 -0.36,-0.54 -0.29,-0.58 -0.22,-0.61 -0.14,-0.63 -0.06,-0.65 0.01,-0.65 0.09,-0.65 0.16,-0.62 0.24,-0.60 0.31,-0.57 0.38,-0.53 0.44,-0.47 0.50,-0.42 0.54,-0.35 0.58,-0.29 0.58,-0.29 L 0.58,-0.29 Z"/></g><g transform="translate(110 84) rotate(0 -0.5 1.5)" stroke="none"><path fill="#1e1e1e" d="M 0.46,0.46 Q 0.46,0.46 0.47,1.04 0.48,1.63 0.33,1.74 0.19,1.85 0.03,1.92 -0.13,2.00 -0.30,2.03 -0.48,2.06 -0.66,2.05 -0.84,2.04 -1.01,1.99 -1.18,1.93 -1.34,1.84 -1.49,1.75 -1.62,1.62 -1.75,1.49 -1.84,1.34 -1.93,1.18 -1.99,1.01 -2.04,0.84 -2.05,0.66 -2.06,0.48 -2.03,0.30 -2.00,0.13 -1.92,-0.03 -1.85,-0.19 -1.74,-0.34 -1.63,-0.48 -0.41,0.69 0.81,1.87 0.66,1.98 0.52,2.09 0.36,2.17 0.19,2.24 0.02,2.27 -0.15,2.30 -0.33,2.29 -0.51,2.28 -0.68,2.23 -0.85,2.18 -1.01,2.08 -1.16,1.99 -1.29,1.86 -1.41,1.73 -1.51,1.58 -1.60,1.43 -1.65,1.25 -1.71,1.08 -1.72,0.90 -1.73,0.72 -1.70,0.55 -1.66,0.37 -1.59,0.21 -1.52,0.04 -1.41,-0.09 -1.29,-0.23 0.10,-0.48 1.51,-0.72 0.90,-0.83 0.30,-0.93 0.50,-0.97 0.69,-1.00 0.89,-0.99 1.09,-0.98 1.28,-0.92 1.47,-0.86 1.64,-0.76 1.81,-0.66 1.95,-0.52 2.09,-0.38 2.19,-0.21 2.30,-0.04 2.36,0.14 2.42,0.33 2.43,0.53 2.44,0.73 2.41,0.92 2.37,1.12 2.29,1.30 2.21,1.48 2.09,1.64 1.96,1.79 1.81,1.92 1.65,2.04 1.47,2.12 1.29,2.20 -0.11,2.86 -1.52,3.51 -1.62,3.53 -1.73,3.56 -1.83,3.55 -1.94,3.54 -2.04,3.50 -2.13,3.45 -2.21,3.38 -2.29,3.31 -2.34,3.22 -2.39,3.13 -2.41,3.02 -2.43,2.92 -2.42,2.81 -2.40,2.71 -2.36,2.61 -2.31,2.52 -2.23,2.44 -2.16,2.37 -2.06,2.32 -1.97,2.27 -1.86,2.26 -1.76,2.25 -1.65,2.27 -1.55,2.29 -1.46,2.34 -1.36,2.39 -1.29,2.47 -1.22,2.55 -1.18,2.65 -1.14,2.75 -1.13,2.85 -1.12,2.96 -1.15,3.06 -1.17,3.16 -1.23,3.25 -1.29,3.34 -1.37,3.41 -1.46,3.48 -1.56,3.51 -1.66,3.55 -1.76,3.55 -1.87,3.55 -1.97,3.52 -2.07,3.49 -2.16,3.43 -2.24,3.36 -2.30,3.28 -2.37,3.19 -2.40,3.09 -2.43,2.99 -2.42,2.88 -2.42,2.78 -2.38,2.68 -2.35,2.58 -2.28,2.49 -2.21,2.41 -2.12,2.35 -2.03,2.30 -2.03,2.30 -2.03,2.30 -1.36,0.98 -0.68,-0.33 -0.18,-0.63 0.30,-0.93 0.49,-0.97 0.69,-1.00 0.89,-0.99 1.09,-0.98 1.28,-0.92 1.47,-0.86 1.64,-0.76 1.81,-0.66 1.95,-0.52 2.09,-0.38 2.19,-0.21 2.30,-0.04 2.36,0.14 2.42,0.33 2.43,0.53 2.44,0.73 2.41,0.92 2.37,1.12 2.29,1.30 2.21,1.48 2.09,1.64 1.97,1.79 1.81,1.92 1.65,2.04 1.47,2.12 1.29,2.20 0.42,1.61 -0.45,1.02 0.17,1.44 0.81,1.87 0.66,1.98 0.52,2.09 0.36,2.17 0.19,2.24 0.02,2.27 -0.15,2.30 -0.33,2.29 -0.51,2.28 -0.68,2.23 -0.85,2.18 -1.01,2.08 -1.16,1.99 -1.29,1.86 -1.41,1.73 -1.51,1.58 -1.60,1.43 -1.65,1.26 -1.71,1.08 -1.72,0.90 -1.73,0.72 -1.70,0.55 -1.66,0.37 -1.59,0.21 -1.52,0.04 -1.41,-0.09 -1.29,-0.23 -0.40,0.69 0.48,1.63 0.34,1.74 0.19,1.85 0.03,1.92 -0.13,2.00 -0.30,2.03 -0.48,2.06 -0.66,2.05 -0.84,2.04 -1.01,1.99 -1.18,1.93 -1.34,1.84 -1.49,1.75 -1.62,1.62 -1.75,1.49 -1.84,1.34 -1.93,1.18 -1.99,1.01 -2.04,0.84 -2.05,0.66 -2.06,0.48 -2.03,0.30 -2.00,0.13 -1.92,-0.03 -1.85,-0.19 -1.74,-0.33 -1.63,-0.48 -1.04,-0.47 -0.46,-0.46 -0.40,-0.51 -0.33,-0.56 -0.26,-0.59 -0.19,-0.62 -0.11,-0.64 -0.03,-0.65 0.03,-0.65 0.11,-0.64 0.19,-0.62 0.26,-0.59 0.33,-0.55 0.40,-0.51 0.46,-0.46 0.51,-0.40 0.55,-0.33 0.59,-0.26 0.62,-0.19 0.64,-0.11 0.65,-0.03 0.65,0.03 0.64,0.11 0.62,0.19 0.59,0.26 0.56,0.33 0.51,0.40 0.46,0.46 0.46,0.46 L 0.46,0.46 Z"/></g><g transform="translate(109 99) rotate(0 1 -2)" stroke="none"><path fill="#1e1e1e" d="M -0.62,-0.20 Q -0.62,-0.20 -0.73,-1.20 -0.84,-2.19 -0.68,-2.85 -0.53,-3.51 -0.46,-2.83 -0.39,-2.16 -0.37,-2.23 -0.34,-2.31 -0.30,-2.37 -0.26,-2.44 -0.20,-2.50 -0.15,-2.55 -0.08,-2.59 -0.01,-2.64 0.05,-2.66 0.13,-2.68 0.21,-2.69 0.29,-2.69 0.37,-2.68 0.44,-2.66 0.52,-2.63 0.59,-2.60 0.65,-2.55 0.71,-2.50 0.76,-2.44 0.81,-2.37 0.84,-2.30 0.87,-2.23 0.89,-2.15 0.90,-2.07 0.90,-1.99 0.89,-1.92 0.51,-1.65 0.14,-1.39 0.04,-1.42 -0.05,-1.46 -0.14,-1.52 -0.22,-1.58 -0.28,-1.67 -0.34,-1.76 -0.37,-1.86 -0.40,-1.97 -0.39,-2.07 -0.39,-2.18 -0.35,-2.28 -0.31,-2.37 -0.24,-2.46 -0.17,-2.54 -0.08,-2.59 0.00,-2.65 0.11,-2.67 0.21,-2.69 0.32,-2.68 0.42,-2.67 0.52,-2.62 0.61,-2.58 0.69,-2.51 0.77,-2.43 0.82,-2.34 0.87,-2.24 0.89,-2.14 0.90,-2.04 0.88,-1.93 0.87,-1.83 0.82,-1.73 0.77,-1.64 0.69,-1.56 0.61,-1.49 0.52,-1.45 0.42,-1.40 0.31,-1.39 0.21,-1.38 0.11,-1.40 0.00,-1.43 -0.08,-1.48 -0.17,-1.54 -0.24,-1.62 -0.31,-1.70 -0.35,-1.80 -0.39,-1.90 -0.39,-2.00 -0.40,-2.11 -0.37,-2.21 -0.34,-2.31 -0.28,-2.40 -0.22,-2.49 -0.14,-2.55 -0.05,-2.62 0.04,-2.65 0.14,-2.68 -0.12,-2.42 -0.39,-2.16 -0.37,-2.23 -0.34,-2.31 -0.30,-2.37 -0.26,-2.44 -0.20,-2.50 -0.15,-2.55 -0.08,-2.59 -0.01,-2.64 0.05,-2.66 0.13,-2.68 0.21,-2.69 0.29,-2.69 0.37,-2.68 0.44,-2.66 0.51,-2.63 0.59,-2.60 0.65,-2.55 0.71,-2.50 0.76,-2.44 0.81,-2.37 0.84,-2.30 0.87,-2.23 0.89,-2.15 0.90,-2.07 0.90,-1.99 0.89,-1.92 1.53,-2.23 2.16,-2.54 2.08,-1.90 1.99,-1.25 1.31,-0.52 0.62,0.20 0.58,0.27 0.55,0.35 0.50,0.41 0.45,0.47 0.39,0.52 0.32,0.56 0.25,0.59 0.18,0.63 0.10,0.64 0.02,0.65 -0.05,0.64 -0.13,0.64 -0.20,0.61 -0.28,0.59 -0.34,0.55 -0.41,0.50 -0.46,0.45 -0.52,0.39 -0.56,0.32 -0.60,0.25 -0.62,0.18 -0.64,0.10 -0.65,0.02 -0.65,-0.05 -0.63,-0.13 -0.62,-0.20 -0.62,-0.20 L -0.62,-0.20 Z"/></g><g transform="translate(101 115) rotate(0 3 1.5)" stroke="none"><path fill="#1e1e1e" d="M -0.62,0.20 Q -0.62,0.20 -1.10,-0.58 -1.59,-1.38 -1.77,-2.09 -1.96,-2.79 -2.35,-3.36 -2.74,-3.93 -2.75,-4.08 -2.76,-4.23 -2.73,-4.38 -2.71,-4.53 -2.64,-4.67 -2.58,-4.81 -2.49,-4.93 -2.39,-5.05 -2.27,-5.15 -2.15,-5.24 -2.01,-5.31 -1.87,-5.37 -1.72,-5.40 -1.57,-5.43 -1.42,-5.42 -1.27,-5.41 -1.12,-5.36 -0.98,-5.32 -0.85,-5.24 -0.71,-5.16 -0.61,-5.05 -0.50,-4.95 -0.42,-4.81 -0.34,-4.68 -0.29,-4.54 -0.25,-4.39 1.19,-3.53 2.63,-2.68 3.51,-1.21 4.40,0.24 5.22,1.25 6.04,2.27 6.72,3.42 7.39,4.57 7.77,5.93 8.14,7.28 8.21,7.36 8.28,7.43 8.33,7.53 8.37,7.63 8.38,7.73 8.39,7.84 8.37,7.94 8.35,8.04 8.29,8.14 8.24,8.23 8.16,8.29 8.08,8.36 7.98,8.40 7.88,8.44 7.77,8.45 7.67,8.45 7.56,8.42 7.46,8.39 7.37,8.33 7.29,8.27 7.22,8.19 7.16,8.10 7.12,8.00 7.09,7.90 7.09,7.80 7.09,7.69 7.13,7.59 7.16,7.49 7.22,7.40 7.29,7.32 7.38,7.26 7.47,7.20 7.57,7.17 7.67,7.15 7.78,7.15 7.88,7.16 7.98,7.20 8.08,7.24 8.16,7.31 8.24,7.38 8.30,7.47 8.35,7.56 8.37,7.66 8.39,7.77 8.38,7.87 8.37,7.98 8.33,8.07 8.28,8.17 8.21,8.25 8.13,8.32 8.04,8.37 7.95,8.42 7.84,8.44 7.74,8.46 7.63,8.44 7.53,8.42 7.43,8.37 7.34,8.32 7.34,8.32 7.34,8.32 5.99,7.31 4.63,6.30 3.98,5.35 3.33,4.40 2.38,3.17 1.43,1.94 0.85,0.82 0.27,-0.28 -0.67,-1.25 -1.63,-2.21 -2.18,-3.07 -2.74,-3.93 -2.75,-4.08 -2.76,-4.23 -2.73,-4.38 -2.71,-4.53 -2.64,-4.67 -2.58,-4.81 -2.49,-4.93 -2.39,-5.05 -2.27,-5.15 -2.15,-5.24 -2.01,-5.31 -1.87,-5.37 -1.72,-5.40 -1.57,-5.43 -1.42,-5.42 -1.27,-5.41 -1.12,-5.36 -0.98,-5.32 -0.85,-5.24 -0.71,-5.16 -0.61,-5.05 -0.50,-4.95 -0.42,-4.81 -0.34,-4.68 -0.29,-4.54 -0.25,-4.39 0.03,-3.83 0.32,-3.27 0.38,-2.66 0.44,-2.06 0.53,-1.13 0.62,-0.20 0.63,-0.13 0.65,-0.05 0.65,0.02 0.64,0.10 0.62,0.18 0.60,0.25 0.56,0.32 0.52,0.39 0.46,0.45 0.41,0.50 0.34,0.55 0.28,0.59 0.20,0.61 0.13,0.64 0.05,0.64 -0.02,0.65 -0.10,0.64 -0.18,0.63 -0.25,0.59 -0.32,0.56 -0.39,0.52 -0.45,0.47 -0.50,0.41 -0.55,0.35 -0.58,0.27 -0.62,0.20 -0.62,0.20 L -0.62,0.20 Z"/></g><g transform="translate(100 121) rotate(0 4.5 -5)" stroke="none"><path fill="#1e1e1e" d="M -0.62,-0.20 Q -0.62,-0.20 -0.86,-1.26 -1.11,-2.31 -0.30,-3.50 0.49,-4.69 1.43,-5.73 2.36,-6.76 5.24,-8.48 8.12,-10.20 8.22,-10.24 8.31,-10.29 8.42,-10.30 8.52,-10.31 8.63,-10.29 8.73,-10.26 8.82,-10.21 8.91,-10.15 8.98,-10.07 9.05,-9.99 9.09,-9.89 9.13,-9.79 9.13,-9.68 9.14,-9.58 9.11,-9.48 9.08,-9.37 9.02,-9.29 8.96,-9.20 8.87,-9.14 8.79,-9.07 8.69,-9.04 8.59,-9.01 8.48,-9.01 8.37,-9.01 8.27,-9.04 8.17,-9.08 8.09,-9.14 8.01,-9.21 7.95,-9.29 7.89,-9.38 7.86,-9.48 7.83,-9.59 7.84,-9.69 7.84,-9.80 7.88,-9.90 7.92,-10.00 7.99,-10.08 8.06,-10.16 8.15,-10.21 8.25,-10.27 8.35,-10.29 8.45,-10.31 8.56,-10.30 8.67,-10.29 8.76,-10.24 8.86,-10.20 8.93,-10.12 9.01,-10.05 9.06,-9.95 9.11,-9.86 9.13,-9.75 9.14,-9.65 9.12,-9.54 9.11,-9.44 9.06,-9.35 9.01,-9.25 8.93,-9.18 8.85,-9.11 8.85,-9.11 8.85,-9.11 6.95,-6.73 5.05,-4.35 4.24,-3.43 3.44,-2.51 2.85,-1.82 2.26,-1.13 1.44,-0.46 0.62,0.20 0.58,0.27 0.55,0.35 0.50,0.41 0.45,0.47 0.39,0.52 0.32,0.56 0.25,0.59 0.18,0.63 0.10,0.64 0.02,0.65 -0.05,0.64 -0.13,0.64 -0.20,0.61 -0.28,0.59 -0.34,0.55 -0.41,0.50 -0.46,0.45 -0.52,0.39 -0.56,0.32 -0.60,0.25 -0.62,0.18 -0.64,0.10 -0.65,0.02 -0.65,-0.05 -0.63,-0.13 -0.62,-0.20 -0.62,-0.20 L -0.62,-0.20 Z"/></g><g transform="translate(112 124) rotate(0 10.5 -2)" stroke="none"><path fill="#1e1e1e" d="M -0.54,-0.36 Q -0.54,-0.36 -0.23,-1.39 0.07,-2.43 0.24,-2.96 0.41,-3.49 0.89,-4.23 1.36,-4.97 2.03,-5.41 2.70,-5.85 3.35,-6.03 4.00,-6.20 4.64,-6.26 5.28,-6.32 6.12,-5.99 6.96,-5.67 7.60,-5.19 8.25,-4.70 8.66,-4.00 9.08,-3.31 9.23,-2.65 9.39,-1.99 9.44,-1.50 9.49,-1.01 9.50,-0.82 9.51,-0.63 9.48,-0.45 9.44,-0.26 9.36,-0.09 9.29,0.08 9.17,0.23 9.05,0.38 8.91,0.49 8.76,0.61 8.58,0.69 8.41,0.77 8.23,0.80 8.04,0.84 7.85,0.83 7.66,0.82 7.48,0.76 7.30,0.70 7.13,0.61 6.97,0.51 6.84,0.38 6.70,0.24 6.60,0.08 6.51,-0.07 6.45,-0.25 6.39,-0.43 6.88,-1.43 7.37,-2.43 7.83,-2.90 8.28,-3.37 8.77,-3.85 9.25,-4.33 9.76,-4.82 10.27,-5.32 11.46,-5.59 12.64,-5.85 13.21,-5.55 13.78,-5.26 14.07,-4.58 14.35,-3.90 14.43,-3.34 14.50,-2.79 14.47,-2.11 14.45,-1.44 15.08,-1.46 15.71,-1.49 16.47,-1.63 17.23,-1.77 18.68,-2.05 20.13,-2.34 20.23,-2.36 20.33,-2.39 20.44,-2.38 20.55,-2.37 20.64,-2.33 20.74,-2.29 20.82,-2.22 20.90,-2.15 20.95,-2.05 21.00,-1.96 21.02,-1.86 21.04,-1.75 21.03,-1.65 21.01,-1.54 20.97,-1.45 20.92,-1.35 20.84,-1.28 20.77,-1.20 20.67,-1.15 20.58,-1.11 20.47,-1.09 20.37,-1.08 20.26,-1.10 20.16,-1.12 20.07,-1.17 19.97,-1.22 19.90,-1.30 19.83,-1.38 19.79,-1.48 19.75,-1.58 19.74,-1.68 19.73,-1.79 19.76,-1.89 19.78,-2.00 19.84,-2.08 19.90,-2.17 19.98,-2.24 20.06,-2.31 20.16,-2.34 20.26,-2.38 20.37,-2.38 20.48,-2.39 20.58,-2.35 20.68,-2.32 20.77,-2.26 20.85,-2.20 20.91,-2.11 20.98,-2.03 21.01,-1.92 21.04,-1.82 21.03,-1.72 21.03,-1.61 20.99,-1.51 20.96,-1.41 20.89,-1.33 20.82,-1.24 20.73,-1.19 20.65,-1.13 20.65,-1.13 20.65,-1.13 19.33,-0.23 18.02,0.65 16.93,1.11 15.85,1.57 14.61,1.47 13.38,1.36 12.44,0.27 11.49,-0.81 11.44,-1.67 11.38,-2.52 11.83,-2.87 12.28,-3.22 11.82,-2.74 11.37,-2.26 10.43,-1.63 9.49,-1.01 9.50,-0.82 9.51,-0.63 9.48,-0.45 9.44,-0.26 9.36,-0.09 9.29,0.08 9.17,0.23 9.05,0.38 8.91,0.49 8.76,0.61 8.58,0.69 8.41,0.77 8.23,0.80 8.04,0.84 7.85,0.83 7.66,0.82 7.48,0.76 7.30,0.70 7.13,0.61 6.97,0.51 6.84,0.38 6.70,0.24 6.60,0.08 6.51,-0.07 6.45,-0.25 6.39,-0.43 6.33,-1.45 6.27,-2.47 5.76,-3.01 5.26,-3.55 4.60,-3.49 3.95,-3.43 3.40,-3.00 2.85,-2.56 2.54,-1.79 2.22,-1.01 1.38,-0.32 0.54,0.36 0.49,0.42 0.44,0.48 0.37,0.53 0.31,0.57 0.24,0.60 0.16,0.63 0.08,0.64 0.01,0.65 -0.06,0.64 -0.14,0.64 -0.22,0.61 -0.29,0.58 -0.36,0.54 -0.42,0.49 -0.48,0.44 -0.53,0.38 -0.57,0.31 -0.61,0.24 -0.63,0.16 -0.65,0.08 -0.65,0.01 -0.65,-0.06 -0.63,-0.14 -0.61,-0.22 -0.58,-0.29 -0.54,-0.36 -0.54,-0.36 L -0.54,-0.36 Z"/></g><g transform="translate(140 17) rotate(0 4.5 54)" stroke="none"><path fill="#1e1e1e" d="M 0.58,-0.29 Q 0.58,-0.29 1.74,1.28 2.89,2.87 3.91,6.29 4.93,9.71 6.22,14.58 7.52,19.45 8.37,25.62 9.23,31.79 9.60,37.60 9.97,43.40 9.85,49.65 9.72,55.89 9.38,61.71 9.04,67.53 8.61,72.60 8.17,77.66 7.68,82.41 7.19,87.15 6.66,90.62 6.12,94.10 5.56,97.01 5.00,99.92 4.11,102.11 3.22,104.29 2.09,105.93 0.97,107.56 0.90,107.65 0.84,107.73 0.75,107.79 0.66,107.85 0.56,107.88 0.46,107.91 0.35,107.90 0.25,107.90 0.15,107.86 0.05,107.82 -0.02,107.75 -0.10,107.68 -0.16,107.59 -0.21,107.50 -0.24,107.40 -0.26,107.29 -0.25,107.19 -0.24,107.08 -0.19,106.98 -0.15,106.89 -0.08,106.81 -0.00,106.73 0.08,106.68 0.17,106.63 0.28,106.62 0.38,106.60 0.49,106.61 0.59,106.63 0.69,106.68 0.78,106.73 0.85,106.81 0.93,106.88 0.97,106.98 1.02,107.08 1.03,107.18 1.04,107.29 1.02,107.39 1.00,107.50 0.94,107.59 0.89,107.68 0.81,107.75 0.73,107.82 0.63,107.86 0.53,107.90 0.42,107.90 0.32,107.91 0.21,107.88 0.11,107.85 0.02,107.79 -0.06,107.73 -0.12,107.65 -0.18,107.56 -0.22,107.46 -0.25,107.36 -0.25,107.26 -0.25,107.15 -0.22,107.05 -0.19,106.95 -0.19,106.95 -0.19,106.95 0.45,105.22 1.10,103.50 1.77,101.49 2.45,99.48 2.88,96.59 3.31,93.70 3.75,90.27 4.20,86.85 4.65,82.12 5.10,77.40 5.54,72.37 5.97,67.34 6.33,61.58 6.68,55.82 6.83,49.70 6.98,43.58 6.65,37.89 6.32,32.19 5.53,26.18 4.74,20.17 3.51,15.32 2.27,10.46 1.41,7.24 0.55,4.02 -0.01,2.16 -0.58,0.29 -0.61,0.21 -0.64,0.14 -0.64,0.06 -0.65,-0.01 -0.64,-0.09 -0.63,-0.16 -0.60,-0.24 -0.57,-0.31 -0.52,-0.38 -0.48,-0.44 -0.42,-0.49 -0.36,-0.54 -0.29,-0.58 -0.22,-0.61 -0.14,-0.63 -0.06,-0.65 0.01,-0.65 0.09,-0.65 0.16,-0.62 0.24,-0.60 0.31,-0.57 0.38,-0.53 0.44,-0.47 0.50,-0.42 0.54,-0.35 0.58,-0.29 0.58,-0.29 L 0.58,-0.29 Z"/></g><g stroke-linecap="round"><g transform="translate(161 29) rotate(0 209 0.5)"><path d="M0 0 C69.67 0.17, 348.33 0.83, 418 1 M0 0 C69.67 0.17, 348.33 0.83, 418 1" stroke="#1e1e1e" stroke-width="2" fill="none"/></g></g><mask/><g stroke-linecap="round"><g transform="translate(164 56.5) rotate(0 209 0.5)"><path d="M0 0 C69.67 0.17, 348.33 0.83, 418 1 M0 0 C69.67 0.17, 348.33 0.83, 418 1" stroke="#1e1e1e" stroke-width="2" fill="none"/></g></g><mask/><g stroke-linecap="round"><g transform="translate(162 114.5) rotate(0 209 0.5)"><path d="M0 0 C69.67 0.17, 348.33 0.83, 418 1 M0 0 C69.67 0.17, 348.33 0.83, 418 1" stroke="#1e1e1e" stroke-width="2" fill="none"/></g></g><mask/><g stroke-linecap="round" transform="translate(201 10) rotate(0 20 18)"><path d="M9 0 C15.8 0, 22.61 0, 31 0 C37 0, 40 3, 40 9 C40 15.23, 40 21.47, 40 27 C40 33, 37 36, 31 36 C22.29 36, 13.59 36, 9 36 C3 36, 0 33, 0 27 C0 21.75, 0 16.5, 0 9 C0 3, 3 0, 9 0" stroke="none" stroke-width="0" fill="#ffffff"/><path d="M9 0 C16.23 0, 23.47 0, 31 0 M9 0 C14.91 0, 20.82 0, 31 0 M31 0 C37 0, 40 3, 40 9 M31 0 C37 0, 40 3, 40 9 M40 9 C40 15.38, 40 21.76, 40 27 M40 9 C40 15.26, 40 21.51, 40 27 M40 27 C40 33, 37 36, 31 36 M40 27 C40 33, 37 36, 31 36 M31 36 C22.73 36, 14.45 36, 9 36 M31 36 C23.94 36, 16.89 36, 9 36 M9 36 C3 36, 0 33, 0 27 M9 36 C3 36, 0 33, 0 27 M0 27 C0 23.17, 0 19.34, 0 9 M0 27 C0 20.28, 0 13.55, 0 9 M0 9 C0 3, 3 0, 9 0 M0 9 C0 3, 3 0, 9 0" stroke="#1e1e1e" stroke-width="2" fill="none"/></g><g stroke-linecap="round" transform="translate(311 11) rotate(0 21 33)"><path d="M10.5 0 C15.11 0, 19.71 0, 31.5 0 C38.5 0, 42 3.5, 42 10.5 C42 24.88, 42 39.27, 42 55.5 C42 62.5, 38.5 66, 31.5 66 C24.43 66, 17.36 66, 10.5 66 C3.5 66, 0 62.5, 0 55.5 C0 40.52, 0 25.54, 0 10.5 C0 3.5, 3.5 0, 10.5 0" stroke="none" stroke-width="0" fill="#ffffff"/><path d="M10.5 0 C16.51 0, 22.52 0, 31.5 0 M10.5 0 C14.81 0, 19.12 0, 31.5 0 M31.5 0 C38.5 0, 42 3.5, 42 10.5 M31.5 0 C38.5 0, 42 3.5, 42 10.5 M42 10.5 C42 26.69, 42 42.88, 42 55.5 M42 10.5 C42 25.44, 42 40.38, 42 55.5 M42 55.5 C42 62.5, 38.5 66, 31.5 66 M42 55.5 C42 62.5, 38.5 66, 31.5 66 M31.5 66 C23.52 66, 15.54 66, 10.5 66 M31.5 66 C25.47 66, 19.44 66, 10.5 66 M10.5 66 C3.5 66, 0 62.5, 0 55.5 M10.5 66 C3.5 66, 0 62.5, 0 55.5 M0 55.5 C0 45.87, 0 36.25, 0 10.5 M0 55.5 C0 38.06, 0 20.62, 0 10.5 M0 10.5 C0 3.5, 3.5 0, 10.5 0 M0 10.5 C0 3.5, 3.5 0, 10.5 0" stroke="#1e1e1e" stroke-width="2" fill="none"/></g><g stroke-linecap="round" transform="translate(498 21) rotate(0 30 56.5)"><path d="M15 0 C22.31 0, 29.63 0, 45 0 C55 0, 60 5, 60 15 C60 41.87, 60 68.75, 60 98 C60 108, 55 113, 45 113 C37.15 113, 29.3 113, 15 113 C5 113, 0 108, 0 98 C0 78.21, 0 58.43, 0 15 C0 5, 5 0, 15 0" stroke="none" stroke-width="0" fill="#ffffff"/><path d="M15 0 C23.23 0, 31.46 0, 45 0 M15 0 C24.89 0, 34.79 0, 45 0 M45 0 C55 0, 60 5, 60 15 M45 0 C55 0, 60 5, 60 15 M60 15 C60 46.51, 60 78.02, 60 98 M60 15 C60 37.68, 60 60.36, 60 98 M60 98 C60 108, 55 113, 45 113 M60 98 C60 108, 55 113, 45 113 M45 113 C34.37 113, 23.74 113, 15 113 M45 113 C37.11 113, 29.22 113, 15 113 M15 113 C5 113, 0 108, 0 98 M15 113 C5 113, 0 108, 0 98 M0 98 C0 74.45, 0 50.91, 0 15 M0 98 C0 77.88, 0 57.76, 0 15 M0 15 C0 5, 5 0, 15 0 M0 15 C0 5, 5 0, 15 0" stroke="#1e1e1e" stroke-width="2" fill="none"/></g><g transform="translate(622 76) rotate(0 5 -8.5)" stroke="none"><path fill="#1e1e1e" d="M -0.36,-0.54 Q -0.36,-0.54 0.27,-1.41 0.92,-2.28 2.23,-4.38 3.54,-6.47 4.76,-8.30 5.97,-10.12 7.61,-12.88 9.25,-15.64 10.49,-18.73 11.73,-21.82 12.58,-23.75 13.42,-25.68 13.48,-27.01 13.54,-28.35 13.05,-28.55 12.55,-28.75 11.41,-27.20 10.26,-25.65 9.17,-22.80 8.07,-19.96 7.31,-16.20 6.54,-12.44 6.21,-8.01 5.89,-3.58 5.74,-0.24 5.60,3.09 5.24,5.45 4.89,7.82 4.75,9.33 4.61,10.84 4.54,11.79 4.48,12.73 4.45,12.90 4.41,13.06 4.34,13.21 4.26,13.36 4.15,13.49 4.04,13.62 3.91,13.72 3.77,13.82 3.61,13.89 3.46,13.95 3.29,13.97 3.12,14.00 2.96,13.98 2.79,13.97 2.63,13.91 2.47,13.86 2.33,13.76 2.18,13.67 2.07,13.55 1.95,13.42 1.87,13.28 1.79,13.13 1.75,12.96 1.70,12.80 1.70,12.63 1.69,12.46 1.04,11.64 0.38,10.81 -0.37,9.31 -1.13,7.82 -1.76,6.27 -2.40,4.73 -2.94,3.55 -3.47,2.36 -3.94,1.68 -4.41,1.00 -5.24,1.01 -6.07,1.01 -6.21,0.89 -6.34,0.78 -6.44,0.63 -6.55,0.49 -6.61,0.32 -6.68,0.16 -6.70,-0.01 -6.73,-0.19 -6.71,-0.36 -6.69,-0.54 -6.63,-0.71 -6.57,-0.87 -6.47,-1.02 -6.37,-1.17 -6.24,-1.29 -6.11,-1.41 -5.95,-1.49 -5.79,-1.58 -5.62,-1.62 -5.45,-1.67 -5.27,-1.67 -5.09,-1.67 -4.92,-1.63 -4.75,-1.59 -4.59,-1.51 -4.43,-1.43 -3.87,-1.15 -3.31,-0.87 -1.98,-1.11 -0.65,-1.36 1.84,-1.41 4.34,-1.47 7.88,-1.05 11.43,-0.63 11.54,-0.62 11.64,-0.60 11.74,-0.55 11.83,-0.50 11.90,-0.43 11.98,-0.35 12.02,-0.26 12.07,-0.16 12.08,-0.05 12.09,0.04 12.07,0.14 12.05,0.25 12.00,0.34 11.94,0.43 11.86,0.50 11.78,0.57 11.69,0.61 11.59,0.65 11.48,0.66 11.38,0.67 11.27,0.64 11.17,0.61 11.08,0.55 10.99,0.49 10.93,0.41 10.86,0.33 10.83,0.23 10.79,0.13 10.79,0.02 10.79,-0.08 10.82,-0.18 10.86,-0.28 10.92,-0.36 10.98,-0.45 11.07,-0.51 11.16,-0.57 11.26,-0.60 11.36,-0.63 11.47,-0.62 11.57,-0.62 11.67,-0.58 11.77,-0.54 11.85,-0.48 11.93,-0.41 11.99,-0.32 12.05,-0.23 12.07,-0.12 12.09,-0.02 12.08,0.08 12.07,0.18 12.03,0.28 11.99,0.38 11.91,0.45 11.84,0.53 11.75,0.58 11.66,0.63 11.55,0.65 11.45,0.67 11.45,0.67 11.45,0.67 7.93,1.16 4.42,1.66 2.03,1.74 -0.36,1.81 -2.41,1.88 -4.47,1.94 -5.27,1.48 -6.07,1.01 -6.21,0.89 -6.34,0.78 -6.44,0.63 -6.55,0.49 -6.61,0.32 -6.68,0.16 -6.70,-0.01 -6.73,-0.19 -6.71,-0.36 -6.69,-0.54 -6.63,-0.71 -6.57,-0.87 -6.47,-1.02 -6.37,-1.17 -6.24,-1.29 -6.11,-1.41 -5.95,-1.49 -5.79,-1.58 -5.62,-1.62 -5.45,-1.67 -5.27,-1.67 -5.09,-1.67 -4.92,-1.63 -4.75,-1.59 -4.59,-1.51 -4.43,-1.43 -4.14,-1.60 -3.86,-1.78 -2.95,-1.20 -2.04,-0.63 -1.47,0.28 -0.90,1.20 -0.35,2.43 0.19,3.67 0.78,5.10 1.36,6.54 2.11,8.00 2.85,9.46 3.24,10.17 3.62,10.88 4.05,11.81 4.48,12.73 4.45,12.90 4.41,13.06 4.34,13.21 4.26,13.36 4.15,13.49 4.04,13.62 3.91,13.72 3.77,13.82 3.61,13.89 3.46,13.95 3.29,13.97 3.12,14.00 2.96,13.98 2.79,13.97 2.63,13.91 2.47,13.86 2.33,13.76 2.19,13.67 2.07,13.55 1.95,13.42 1.87,13.28 1.79,13.13 1.75,12.96 1.70,12.80 1.70,12.63 1.69,12.46 1.76,11.52 1.82,10.57 1.98,8.99 2.13,7.40 2.48,5.18 2.82,2.97 2.96,-0.40 3.11,-3.78 3.46,-8.39 3.82,-13.00 4.66,-16.99 5.49,-20.99 6.82,-24.20 8.14,-27.42 9.98,-29.31 11.83,-31.19 13.17,-31.09 14.51,-30.99 15.38,-29.83 16.25,-28.66 16.18,-26.63 16.10,-24.60 15.28,-22.66 14.46,-20.72 13.13,-17.42 11.81,-14.11 10.11,-11.30 8.42,-8.48 7.19,-6.66 5.96,-4.85 4.24,-2.43 2.52,-0.01 1.44,0.26 0.36,0.54 0.29,0.58 0.22,0.61 0.14,0.63 0.06,0.65 -0.01,0.65 -0.08,0.65 -0.16,0.63 -0.24,0.61 -0.31,0.57 -0.38,0.53 -0.44,0.48 -0.49,0.42 -0.54,0.36 -0.58,0.29 -0.61,0.22 -0.64,0.14 -0.64,0.06 -0.65,-0.01 -0.64,-0.08 -0.63,-0.16 -0.60,-0.24 -0.57,-0.31 -0.53,-0.37 -0.48,-0.44 -0.42,-0.49 -0.36,-0.54 -0.36,-0.54 L -0.36,-0.54 Z"/></g><g transform="translate(652 51) rotate(0 -3 13.5)" stroke="none"><path fill="#1e1e1e" d="M -0.46,-0.46 Q -0.46,-0.46 -0.03,-1.17 0.38,-1.88 0.62,-2.43 0.86,-2.99 0.96,-3.07 1.06,-3.15 1.19,-3.21 1.31,-3.26 1.44,-3.28 1.57,-3.31 1.70,-3.30 1.83,-3.29 1.96,-3.25 2.09,-3.21 2.20,-3.14 2.31,-3.08 2.41,-2.98 2.50,-2.89 2.57,-2.77 2.64,-2.66 2.68,-2.53 2.72,-2.41 2.72,-2.27 2.73,-2.14 2.71,-2.01 2.68,-1.88 2.63,-1.76 2.58,-1.64 2.49,-1.53 2.41,-1.43 1.73,-0.63 1.05,0.16 0.27,1.20 -0.50,2.23 -1.65,4.61 -2.80,6.98 -3.56,9.91 -4.31,12.85 -4.93,15.83 -5.55,18.82 -5.52,20.81 -5.49,22.80 -5.24,24.46 -4.99,26.12 -4.41,27.68 -3.83,29.24 -3.77,29.33 -3.70,29.41 -3.67,29.51 -3.64,29.61 -3.64,29.72 -3.64,29.83 -3.67,29.93 -3.71,30.03 -3.77,30.11 -3.84,30.20 -3.92,30.25 -4.01,30.31 -4.12,30.34 -4.22,30.37 -4.32,30.36 -4.43,30.36 -4.53,30.32 -4.63,30.28 -4.71,30.21 -4.79,30.14 -4.84,30.05 -4.90,29.96 -4.92,29.85 -4.94,29.75 -4.93,29.64 -4.92,29.54 -4.87,29.44 -4.83,29.35 -4.75,29.27 -4.68,29.19 -4.59,29.14 -4.49,29.09 -4.39,29.08 -4.28,29.06 -4.18,29.08 -4.07,29.10 -3.98,29.15 -3.89,29.20 -3.81,29.27 -3.74,29.35 -3.70,29.45 -3.65,29.54 -3.64,29.65 -3.63,29.76 -3.65,29.86 -3.68,29.96 -3.73,30.05 -3.79,30.14 -3.87,30.21 -3.95,30.28 -4.05,30.32 -4.15,30.36 -4.25,30.36 -4.36,30.37 -4.46,30.34 -4.56,30.31 -4.65,30.25 -4.74,30.19 -4.74,30.19 -4.74,30.19 -6.31,28.40 -7.88,26.62 -8.21,24.72 -8.55,22.83 -8.56,20.52 -8.56,18.21 -7.91,15.13 -7.27,12.06 -6.39,8.85 -5.51,5.64 -4.17,3.02 -2.83,0.41 -1.82,-0.81 -0.81,-2.04 0.02,-2.51 0.86,-2.99 0.96,-3.07 1.06,-3.15 1.19,-3.21 1.31,-3.26 1.44,-3.28 1.57,-3.31 1.70,-3.30 1.83,-3.29 1.96,-3.25 2.09,-3.21 2.20,-3.14 2.31,-3.08 2.41,-2.98 2.50,-2.89 2.57,-2.77 2.64,-2.66 2.68,-2.53 2.72,-2.41 2.72,-2.27 2.73,-2.14 2.71,-2.01 2.68,-1.88 2.63,-1.76 2.58,-1.64 2.49,-1.53 2.41,-1.43 2.16,-0.92 1.91,-0.41 1.18,0.02 0.46,0.46 0.40,0.51 0.33,0.56 0.26,0.59 0.19,0.62 0.11,0.64 0.03,0.65 -0.03,0.65 -0.11,0.64 -0.19,0.62 -0.26,0.59 -0.33,0.55 -0.40,0.51 -0.46,0.46 -0.51,0.40 -0.55,0.33 -0.59,0.26 -0.62,0.19 -0.64,0.11 -0.65,0.03 -0.65,-0.03 -0.64,-0.11 -0.62,-0.19 -0.59,-0.26 -0.56,-0.33 -0.51,-0.40 -0.46,-0.46 -0.46,-0.46 L -0.46,-0.46 Z"/></g><g transform="translate(659 65) rotate(0 4 6)" stroke="none"><path fill="#1e1e1e" d="M 0.52,-0.39 Q 0.52,-0.39 1.69,0.52 2.85,1.44 4.06,2.72 5.27,4.01 6.13,5.23 6.98,6.46 7.71,8.89 8.44,11.31 8.46,11.41 8.48,11.52 8.47,11.62 8.45,11.73 8.41,11.82 8.36,11.92 8.28,11.99 8.21,12.07 8.11,12.11 8.02,12.16 7.91,12.17 7.81,12.19 7.70,12.17 7.60,12.15 7.51,12.09 7.41,12.04 7.34,11.96 7.27,11.88 7.23,11.78 7.19,11.69 7.18,11.58 7.17,11.47 7.20,11.37 7.22,11.27 7.28,11.18 7.34,11.09 7.42,11.02 7.51,10.96 7.61,10.92 7.71,10.89 7.81,10.88 7.92,10.88 8.02,10.91 8.12,10.94 8.21,11.01 8.29,11.07 8.35,11.15 8.42,11.24 8.45,11.34 8.48,11.44 8.47,11.55 8.47,11.66 8.43,11.76 8.40,11.86 8.33,11.94 8.26,12.02 8.17,12.08 8.08,12.13 7.98,12.16 7.88,12.19 7.77,12.18 7.67,12.17 7.57,12.12 7.47,12.08 7.39,12.01 7.31,11.94 7.26,11.85 7.21,11.75 7.21,11.75 7.21,11.75 5.91,9.94 4.62,8.13 3.85,7.06 3.09,5.99 1.84,4.57 0.59,3.15 0.03,1.77 -0.52,0.39 -0.56,0.32 -0.60,0.25 -0.62,0.18 -0.64,0.10 -0.65,0.02 -0.65,-0.05 -0.63,-0.13 -0.62,-0.20 -0.58,-0.28 -0.55,-0.35 -0.50,-0.41 -0.45,-0.47 -0.39,-0.52 -0.32,-0.56 -0.25,-0.59 -0.18,-0.63 -0.10,-0.64 -0.02,-0.65 0.05,-0.64 0.13,-0.64 0.20,-0.61 0.28,-0.59 0.34,-0.55 0.41,-0.50 0.47,-0.45 0.52,-0.39 0.52,-0.39 L 0.52,-0.39 Z"/></g><g transform="translate(656 77) rotate(0 5.5 -6)" stroke="none"><path fill="#1e1e1e" d="M -0.58,-0.29 Q -0.58,-0.29 -0.39,-1.64 -0.20,-2.98 0.96,-4.49 2.13,-6.01 3.86,-7.51 5.59,-9.01 8.10,-10.39 10.62,-11.77 10.72,-11.82 10.81,-11.87 10.91,-11.89 11.02,-11.91 11.12,-11.89 11.23,-11.87 11.32,-11.82 11.42,-11.77 11.49,-11.70 11.56,-11.62 11.61,-11.52 11.65,-11.43 11.66,-11.32 11.68,-11.22 11.65,-11.11 11.63,-11.01 11.58,-10.92 11.52,-10.83 11.44,-10.76 11.36,-10.69 11.26,-10.65 11.16,-10.61 11.06,-10.60 10.95,-10.60 10.85,-10.63 10.75,-10.65 10.66,-10.71 10.57,-10.77 10.51,-10.86 10.44,-10.94 10.41,-11.04 10.37,-11.14 10.37,-11.25 10.37,-11.35 10.41,-11.46 10.44,-11.56 10.50,-11.64 10.57,-11.73 10.66,-11.79 10.74,-11.85 10.85,-11.87 10.95,-11.90 11.05,-11.90 11.16,-11.89 11.26,-11.85 11.36,-11.81 11.44,-11.75 11.52,-11.68 11.57,-11.59 11.63,-11.49 11.65,-11.39 11.68,-11.29 11.66,-11.18 11.65,-11.08 11.61,-10.98 11.56,-10.88 11.49,-10.81 11.42,-10.73 11.42,-10.73 11.42,-10.73 9.52,-8.73 7.61,-6.73 6.10,-5.36 4.59,-3.99 3.54,-2.80 2.50,-1.61 1.54,-0.65 0.58,0.29 0.54,0.35 0.49,0.42 0.44,0.47 0.38,0.53 0.31,0.57 0.24,0.60 0.16,0.62 0.09,0.65 0.01,0.65 -0.06,0.65 -0.14,0.63 -0.22,0.61 -0.29,0.58 -0.36,0.54 -0.42,0.49 -0.48,0.44 -0.52,0.38 -0.57,0.31 -0.60,0.24 -0.63,0.16 -0.64,0.09 -0.65,0.01 -0.64,-0.06 -0.64,-0.14 -0.61,-0.21 -0.58,-0.29 -0.58,-0.29 L -0.58,-0.29 Z"/></g><g transform="translate(682 67) rotate(0 0.00005000000000165983 0.00004999999998744897)" stroke="none"><path fill="#1e1e1e" d="M 1.06,-1.06 Q 1.06,-1.06 1.20,-0.86 1.34,-0.66 1.41,-0.43 1.48,-0.20 1.48,0.04 1.47,0.28 1.39,0.51 1.30,0.73 1.15,0.92 1.00,1.11 0.79,1.24 0.59,1.38 0.35,1.43 0.12,1.49 -0.12,1.47 -0.36,1.45 -0.58,1.36 -0.80,1.26 -0.99,1.10 -1.17,0.94 -1.29,0.72 -1.41,0.51 -1.45,0.27 -1.50,0.04 -1.46,-0.20 -1.43,-0.44 -1.32,-0.65 -1.22,-0.87 -1.04,-1.04 -0.87,-1.22 -0.65,-1.32 -0.44,-1.43 -0.19,-1.46 0.04,-1.50 0.27,-1.45 0.51,-1.41 0.73,-1.29 0.94,-1.17 1.10,-0.98 1.26,-0.80 1.36,-0.58 1.45,-0.36 1.47,-0.11 1.49,0.12 1.43,0.35 1.38,0.59 1.24,0.79 1.11,1.00 0.92,1.15 0.73,1.30 0.51,1.39 0.28,1.47 0.03,1.48 -0.20,1.48 -0.43,1.41 -0.66,1.34 -0.86,1.20 -1.06,1.06 -1.06,1.06 -1.06,1.06 -1.17,0.91 -1.28,0.77 -1.36,0.61 -1.43,0.44 -1.46,0.26 -1.49,0.09 -1.48,-0.09 -1.47,-0.27 -1.42,-0.44 -1.37,-0.61 -1.27,-0.77 -1.18,-0.92 -1.05,-1.05 -0.92,-1.18 -0.77,-1.27 -0.61,-1.37 -0.44,-1.42 -0.27,-1.47 -0.09,-1.48 0.09,-1.49 0.26,-1.46 0.44,-1.43 0.61,-1.36 0.77,-1.28 0.91,-1.17 1.06,-1.06 1.06,-1.06 L 1.06,-1.06 Z"/></g><g transform="translate(676 46) rotate(0 -1 18)" stroke="none"><path fill="#1e1e1e" d="M 0.60,-0.25 Q 0.60,-0.25 1.90,1.56 3.20,3.39 3.93,6.69 4.66,9.99 4.97,13.16 5.28,16.32 4.83,19.55 4.37,22.78 3.58,25.61 2.78,28.45 1.45,30.64 0.13,32.83 -1.16,34.01 -2.45,35.19 -3.75,36.08 -5.05,36.96 -5.14,37.03 -5.22,37.09 -5.32,37.12 -5.43,37.16 -5.53,37.16 -5.64,37.16 -5.74,37.12 -5.84,37.09 -5.92,37.02 -6.01,36.96 -6.07,36.87 -6.12,36.78 -6.15,36.68 -6.18,36.57 -6.17,36.47 -6.17,36.36 -6.13,36.26 -6.09,36.16 -6.02,36.08 -5.95,36.00 -5.86,35.95 -5.76,35.90 -5.66,35.87 -5.56,35.85 -5.45,35.86 -5.34,35.88 -5.25,35.92 -5.15,35.97 -5.08,36.04 -5.00,36.12 -4.95,36.21 -4.90,36.30 -4.89,36.41 -4.87,36.51 -4.89,36.62 -4.91,36.72 -4.96,36.82 -5.01,36.91 -5.08,36.98 -5.16,37.06 -5.26,37.10 -5.36,37.14 -5.46,37.15 -5.57,37.16 -5.67,37.14 -5.77,37.12 -5.86,37.06 -5.96,37.00 -6.02,36.92 -6.09,36.84 -6.13,36.74 -6.17,36.64 -6.17,36.54 -6.18,36.43 -6.15,36.33 -6.12,36.23 -6.06,36.14 -6.00,36.05 -6.00,36.05 -6.00,36.05 -5.17,34.73 -4.34,33.41 -3.48,32.30 -2.61,31.19 -1.56,29.34 -0.51,27.49 0.23,24.87 0.97,22.26 1.43,19.43 1.89,16.60 1.64,13.64 1.39,10.67 0.82,7.66 0.24,4.65 -0.17,2.45 -0.60,0.25 -0.62,0.18 -0.64,0.10 -0.65,0.02 -0.65,-0.05 -0.63,-0.12 -0.62,-0.20 -0.58,-0.27 -0.55,-0.34 -0.50,-0.41 -0.45,-0.47 -0.39,-0.52 -0.32,-0.56 -0.25,-0.59 -0.18,-0.63 -0.10,-0.64 -0.02,-0.65 0.05,-0.64 0.13,-0.64 0.20,-0.61 0.28,-0.59 0.34,-0.55 0.41,-0.50 0.46,-0.45 0.52,-0.39 0.56,-0.32 0.60,-0.25 0.60,-0.25 L 0.60,-0.25 Z"/></g><g transform="translate(686 64) rotate(0 7 0)" stroke="none"><path fill="#1e1e1e" d="M 0,-0.65 Q 0,-0.65 0.86,-1.09 1.72,-1.53 3.24,-1.57 4.75,-1.60 6.26,-1.61 7.77,-1.62 10.59,-1.14 13.41,-0.65 13.52,-0.63 13.62,-0.62 13.72,-0.57 13.81,-0.52 13.88,-0.44 13.96,-0.36 14.00,-0.27 14.05,-0.17 14.06,-0.07 14.07,0.03 14.05,0.13 14.02,0.24 13.97,0.33 13.91,0.42 13.83,0.49 13.75,0.56 13.65,0.60 13.55,0.64 13.45,0.64 13.34,0.65 13.24,0.62 13.14,0.59 13.05,0.53 12.96,0.47 12.90,0.39 12.83,0.30 12.80,0.20 12.77,0.10 12.77,-0.00 12.77,-0.10 12.80,-0.20 12.83,-0.30 12.90,-0.39 12.96,-0.47 13.05,-0.53 13.14,-0.59 13.24,-0.62 13.34,-0.65 13.45,-0.64 13.55,-0.64 13.65,-0.60 13.75,-0.56 13.83,-0.49 13.91,-0.42 13.97,-0.33 14.02,-0.24 14.05,-0.13 14.07,-0.03 14.06,0.07 14.05,0.17 14.00,0.27 13.96,0.36 13.88,0.44 13.81,0.52 13.72,0.57 13.62,0.62 13.52,0.63 13.41,0.65 13.41,0.65 13.41,0.65 10.59,1.14 7.77,1.62 6.26,1.61 4.75,1.60 3.24,1.57 1.72,1.53 0.86,1.09 0,0.65 -0.07,0.64 -0.15,0.63 -0.23,0.60 -0.30,0.58 -0.37,0.53 -0.43,0.49 -0.48,0.43 -0.54,0.37 -0.57,0.30 -0.61,0.23 -0.63,0.15 -0.65,0.07 -0.65,-0.00 -0.65,-0.07 -0.63,-0.15 -0.61,-0.23 -0.57,-0.30 -0.54,-0.37 -0.48,-0.43 -0.43,-0.49 -0.37,-0.53 -0.30,-0.58 -0.23,-0.60 -0.15,-0.63 -0.07,-0.64 0.00,-0.65 0.00,-0.65 L 0,-0.65 Z"/></g><g transform="translate(688 74) rotate(0 5 -0.5)" stroke="none"><path fill="#1e1e1e" d="M 0,-0.65 Q 0,-0.65 1.14,-1.29 2.29,-1.92 3.47,-2.17 4.65,-2.42 7.11,-1.56 9.57,-0.69 9.67,-0.67 9.77,-0.64 9.86,-0.58 9.95,-0.52 10.02,-0.44 10.08,-0.36 10.12,-0.26 10.15,-0.16 10.16,-0.05 10.16,0.05 10.13,0.15 10.09,0.25 10.03,0.33 9.97,0.42 9.88,0.48 9.79,0.54 9.69,0.57 9.59,0.60 9.48,0.60 9.38,0.59 9.28,0.56 9.18,0.52 9.10,0.45 9.01,0.38 8.96,0.29 8.90,0.20 8.88,0.10 8.85,0.00 8.86,-0.10 8.87,-0.20 8.91,-0.30 8.96,-0.40 9.03,-0.48 9.10,-0.55 9.19,-0.61 9.29,-0.66 9.39,-0.68 9.50,-0.70 9.60,-0.68 9.71,-0.67 9.80,-0.62 9.90,-0.57 9.97,-0.49 10.04,-0.42 10.09,-0.32 10.14,-0.23 10.15,-0.12 10.16,-0.02 10.14,0.08 10.12,0.18 10.07,0.28 10.02,0.37 9.94,0.44 9.86,0.51 9.76,0.55 9.66,0.59 9.55,0.60 9.45,0.60 9.45,0.60 9.45,0.60 7.40,0.94 5.35,1.27 3.83,1.59 2.30,1.92 1.15,1.29 0,0.65 -0.07,0.64 -0.15,0.63 -0.23,0.60 -0.30,0.58 -0.37,0.53 -0.43,0.49 -0.48,0.43 -0.54,0.37 -0.57,0.30 -0.61,0.23 -0.63,0.15 -0.65,0.07 -0.65,-0.00 -0.65,-0.07 -0.63,-0.15 -0.61,-0.23 -0.57,-0.30 -0.54,-0.37 -0.48,-0.43 -0.43,-0.49 -0.37,-0.53 -0.30,-0.58 -0.23,-0.60 -0.15,-0.63 -0.07,-0.64 0.00,-0.65 0.00,-0.65 L 0,-0.65 Z"/></g><g transform="translate(709 63) rotate(0 5.5 14)" stroke="none"><path fill="#1e1e1e" d="M 0.60,-0.24 Q 0.60,-0.24 1.42,1.09 2.23,2.43 2.76,3.23 3.29,4.03 3.77,4.60 4.26,5.17 4.89,5.00 5.51,4.84 6.51,4.25 7.50,3.66 8.40,2.65 9.30,1.63 10.42,0.78 11.54,-0.06 11.84,-0.55 12.13,-1.03 12.56,-1.29 12.98,-1.55 13.11,-1.69 13.25,-1.83 13.41,-1.94 13.57,-2.05 13.75,-2.11 13.93,-2.18 14.13,-2.20 14.32,-2.22 14.51,-2.19 14.71,-2.17 14.89,-2.09 15.07,-2.02 15.22,-1.91 15.38,-1.80 15.51,-1.65 15.63,-1.50 15.72,-1.33 15.81,-1.15 15.85,-0.96 15.90,-0.78 15.89,-0.58 15.89,-0.39 15.84,-0.20 15.79,-0.01 15.70,0.15 15.60,0.32 14.99,1.34 14.38,2.36 12.67,5.10 10.97,7.84 8.52,11.87 6.07,15.90 3.80,19.07 1.54,22.23 -0.55,25.08 -2.65,27.93 -2.72,28.01 -2.79,28.10 -2.87,28.15 -2.96,28.21 -3.07,28.24 -3.17,28.26 -3.28,28.26 -3.38,28.25 -3.48,28.21 -3.58,28.17 -3.66,28.10 -3.74,28.03 -3.79,27.93 -3.84,27.84 -3.86,27.74 -3.88,27.63 -3.87,27.53 -3.86,27.42 -3.81,27.33 -3.77,27.23 -3.69,27.16 -3.62,27.08 -3.52,27.03 -3.43,26.98 -3.32,26.97 -3.22,26.95 -3.11,26.97 -3.01,26.99 -2.91,27.04 -2.82,27.10 -2.75,27.17 -2.68,27.25 -2.64,27.35 -2.59,27.45 -2.58,27.55 -2.57,27.66 -2.60,27.76 -2.62,27.87 -2.68,27.96 -2.74,28.05 -2.82,28.11 -2.90,28.18 -3.00,28.22 -3.10,28.25 -3.21,28.26 -3.31,28.26 -3.41,28.23 -3.52,28.20 -3.60,28.14 -3.69,28.08 -3.75,27.99 -3.81,27.91 -3.85,27.81 -3.88,27.71 -3.88,27.60 -3.87,27.49 -3.84,27.39 -3.80,27.29 -3.80,27.29 -3.80,27.29 -2.43,23.86 -1.05,20.43 1.06,17.29 3.18,14.14 5.64,10.09 8.10,6.05 9.83,3.30 11.56,0.56 12.27,-0.49 12.98,-1.55 13.11,-1.69 13.25,-1.83 13.41,-1.94 13.57,-2.05 13.75,-2.11 13.93,-2.18 14.13,-2.20 14.32,-2.22 14.51,-2.19 14.71,-2.17 14.89,-2.09 15.07,-2.02 15.22,-1.91 15.38,-1.80 15.51,-1.65 15.63,-1.50 15.72,-1.33 15.81,-1.15 15.85,-0.96 15.90,-0.78 15.89,-0.58 15.89,-0.39 15.84,-0.20 15.79,-0.01 15.70,0.15 15.60,0.32 15.08,0.58 14.55,0.85 13.97,1.60 13.39,2.34 12.43,3.03 11.48,3.72 10.21,4.98 8.95,6.24 7.54,6.94 6.14,7.64 4.97,7.73 3.81,7.82 3.01,7.33 2.21,6.85 1.67,6.08 1.13,5.31 0.59,4.31 0.06,3.31 -0.27,1.77 -0.60,0.24 -0.63,0.16 -0.65,0.09 -0.65,0.01 -0.65,-0.06 -0.63,-0.14 -0.61,-0.22 -0.58,-0.29 -0.54,-0.36 -0.49,-0.42 -0.44,-0.48 -0.37,-0.52 -0.31,-0.57 -0.24,-0.60 -0.16,-0.63 -0.09,-0.64 -0.01,-0.65 0.06,-0.64 0.14,-0.64 0.22,-0.61 0.29,-0.58 0.36,-0.54 0.42,-0.49 0.48,-0.44 0.53,-0.38 0.57,-0.31 0.60,-0.24 0.60,-0.24 L 0.60,-0.24 Z"/></g><g transform="translate(342 86) rotate(0 7.5 36)" stroke="none"><path fill="#1e1e1e" d="M 0.62,0.20 Q 0.62,0.20 0.63,1.16 0.65,2.12 0.58,3.22 0.50,4.31 0.46,5.37 0.42,6.44 0.41,8.03 0.40,9.62 0.40,11.46 0.40,13.29 0.40,15.22 0.40,17.14 0.40,19.11 0.40,21.08 0.69,23.27 0.98,25.45 1.11,27.03 1.24,28.60 1.31,30.44 1.37,32.28 1.68,34.10 1.99,35.93 2.41,37.85 2.83,39.78 3.29,41.43 3.75,43.09 4.23,44.65 4.71,46.21 5.45,47.62 6.19,49.04 6.84,50.61 7.49,52.18 8.03,53.37 8.57,54.56 9.09,55.64 9.61,56.72 10.38,57.98 11.15,59.24 11.82,60.75 12.49,62.26 13.04,63.43 13.58,64.59 14.10,65.65 14.62,66.72 15.08,67.37 15.54,68.02 16.02,69.76 16.50,71.50 16.53,71.60 16.55,71.71 16.54,71.81 16.53,71.92 16.48,72.01 16.44,72.11 16.37,72.19 16.29,72.27 16.20,72.32 16.11,72.37 16.00,72.38 15.90,72.40 15.79,72.39 15.69,72.37 15.59,72.32 15.50,72.27 15.43,72.19 15.35,72.12 15.31,72.02 15.26,71.93 15.25,71.82 15.24,71.71 15.26,71.61 15.28,71.51 15.34,71.42 15.39,71.32 15.47,71.25 15.55,71.19 15.65,71.15 15.75,71.11 15.85,71.10 15.96,71.09 16.06,71.12 16.17,71.15 16.25,71.21 16.34,71.27 16.41,71.35 16.47,71.43 16.51,71.53 16.54,71.64 16.54,71.74 16.54,71.85 16.51,71.95 16.48,72.05 16.41,72.13 16.35,72.22 16.26,72.28 16.17,72.34 16.07,72.37 15.97,72.40 15.86,72.39 15.76,72.39 15.66,72.35 15.56,72.31 15.48,72.24 15.40,72.17 15.34,72.08 15.29,71.99 15.29,71.99 15.29,71.99 14.12,70.88 12.95,69.76 12.38,68.92 11.82,68.09 11.29,67.00 10.77,65.91 10.21,64.71 9.65,63.51 9.07,62.17 8.49,60.83 7.66,59.44 6.84,58.04 6.31,56.93 5.79,55.82 5.23,54.58 4.67,53.33 4.08,51.87 3.49,50.41 2.67,48.75 1.84,47.10 1.35,45.49 0.86,43.88 0.39,42.14 -0.07,40.40 -0.49,38.40 -0.91,36.40 -1.22,34.38 -1.53,32.37 -1.56,30.60 -1.60,28.83 -1.72,27.32 -1.83,25.81 -2.11,23.45 -2.40,21.08 -2.39,19.11 -2.39,17.14 -2.38,15.21 -2.37,13.27 -2.35,11.43 -2.34,9.59 -2.30,7.95 -2.27,6.31 -2.20,5.18 -2.14,4.05 -1.97,2.68 -1.80,1.32 -1.21,0.55 -0.62,-0.20 -0.58,-0.27 -0.55,-0.35 -0.50,-0.41 -0.45,-0.47 -0.39,-0.52 -0.32,-0.56 -0.25,-0.59 -0.18,-0.63 -0.10,-0.64 -0.02,-0.65 0.05,-0.64 0.13,-0.64 0.20,-0.61 0.28,-0.59 0.34,-0.55 0.41,-0.50 0.46,-0.45 0.52,-0.39 0.56,-0.32 0.60,-0.25 0.62,-0.18 0.64,-0.10 0.65,-0.02 0.65,0.05 0.63,0.13 0.62,0.20 0.62,0.20 L 0.62,0.20 Z"/></g><g transform="translate(498 145) rotate(0 -47 11.5)" stroke="none"><path fill="#1e1e1e" d="M 0,0.65 Q 0,0.65 -0.85,1.03 -1.71,1.40 -2.78,1.71 -3.84,2.01 -5.18,2.44 -6.51,2.87 -8.26,3.36 -10.02,3.85 -12.44,4.63 -14.86,5.42 -17.30,6.33 -19.75,7.24 -22.22,8.22 -24.69,9.19 -26.62,9.91 -28.55,10.63 -30.78,11.51 -33.01,12.39 -34.74,13.31 -36.46,14.22 -38.50,14.97 -40.53,15.71 -42.55,16.31 -44.56,16.92 -46.78,17.73 -49.00,18.54 -51.16,19.20 -53.32,19.86 -55.71,20.44 -58.10,21.02 -60.66,21.29 -63.21,21.55 -65.32,21.94 -67.43,22.32 -69.00,22.50 -70.56,22.67 -71.95,23.01 -73.33,23.35 -75.26,23.53 -77.19,23.71 -78.85,23.77 -80.51,23.84 -81.58,24.13 -82.66,24.42 -84.20,24.58 -85.74,24.73 -86.96,24.80 -88.17,24.86 -89.27,24.88 -90.37,24.90 -91.99,24.28 -93.61,23.65 -93.72,23.63 -93.82,23.62 -93.92,23.57 -94.01,23.52 -94.08,23.44 -94.16,23.36 -94.20,23.27 -94.25,23.17 -94.26,23.07 -94.27,22.96 -94.25,22.86 -94.23,22.75 -94.17,22.66 -94.12,22.57 -94.04,22.50 -93.96,22.43 -93.86,22.39 -93.76,22.35 -93.66,22.35 -93.55,22.34 -93.45,22.37 -93.34,22.39 -93.26,22.45 -93.17,22.51 -93.10,22.60 -93.04,22.68 -93.00,22.78 -92.97,22.88 -92.97,22.99 -92.97,23.09 -93.00,23.19 -93.03,23.30 -93.10,23.38 -93.16,23.47 -93.25,23.53 -93.34,23.59 -93.44,23.62 -93.54,23.64 -93.65,23.64 -93.75,23.63 -93.85,23.60 -93.95,23.56 -94.03,23.49 -94.11,23.42 -94.17,23.33 -94.22,23.24 -94.25,23.14 -94.27,23.03 -94.26,22.93 -94.25,22.82 -94.21,22.72 -94.16,22.63 -94.09,22.55 -94.02,22.47 -93.92,22.42 -93.83,22.37 -93.73,22.35 -93.62,22.34 -93.62,22.34 -93.62,22.34 -92.04,21.67 -90.45,21.01 -89.41,20.99 -88.36,20.97 -87.24,20.91 -86.11,20.86 -84.85,20.75 -83.59,20.64 -82.14,20.30 -80.68,19.96 -79.10,19.90 -77.52,19.83 -75.87,19.71 -74.22,19.58 -72.60,19.20 -70.99,18.83 -69.55,18.67 -68.11,18.52 -65.85,18.13 -63.59,17.73 -61.28,17.53 -58.98,17.32 -56.69,16.78 -54.41,16.25 -52.34,15.63 -50.27,15.02 -47.94,14.19 -45.61,13.36 -43.69,12.80 -41.77,12.24 -39.96,11.61 -38.14,10.98 -36.23,10.00 -34.31,9.03 -32.03,8.17 -29.75,7.31 -27.84,6.64 -25.93,5.97 -23.41,5.02 -20.90,4.08 -18.37,3.18 -15.84,2.29 -13.34,1.53 -10.83,0.78 -9.11,0.35 -7.38,-0.08 -5.95,-0.47 -4.52,-0.86 -3.12,-1.13 -1.73,-1.40 -0.86,-1.03 0,-0.65 0.07,-0.64 0.15,-0.63 0.23,-0.60 0.30,-0.58 0.37,-0.53 0.43,-0.49 0.48,-0.43 0.54,-0.37 0.57,-0.30 0.61,-0.23 0.63,-0.15 0.65,-0.07 0.65,0.00 0.65,0.07 0.63,0.15 0.61,0.23 0.57,0.30 0.54,0.37 0.48,0.43 0.43,0.49 0.37,0.53 0.30,0.58 0.23,0.60 0.15,0.63 0.07,0.64 -0.00,0.65 -0.00,0.65 L 0,0.65 Z"/></g><g transform="translate(408 158) rotate(0 -5 6.5)" stroke="none"><path fill="#1e1e1e" d="M 0.46,0.46 Q 0.46,0.46 0.07,1.23 -0.30,1.99 -1.19,2.64 -2.08,3.28 -2.64,3.78 -3.21,4.27 -3.61,4.95 -4.02,5.63 -4.56,6.33 -5.09,7.02 -5.60,7.62 -6.11,8.22 -6.63,8.79 -7.14,9.35 -6.27,9.57 -5.40,9.79 -4.70,9.91 -4.00,10.04 -2.15,11.15 -0.29,12.25 -0.19,12.29 -0.09,12.33 -0.01,12.40 0.06,12.47 0.11,12.56 0.17,12.66 0.19,12.76 0.21,12.86 0.20,12.97 0.19,13.08 0.14,13.17 0.10,13.27 0.02,13.34 -0.04,13.42 -0.13,13.47 -0.23,13.52 -0.33,13.54 -0.44,13.55 -0.54,13.53 -0.65,13.52 -0.74,13.47 -0.84,13.42 -0.91,13.34 -0.98,13.26 -1.02,13.16 -1.07,13.07 -1.08,12.96 -1.09,12.86 -1.07,12.75 -1.04,12.65 -0.99,12.56 -0.93,12.47 -0.85,12.40 -0.77,12.33 -0.67,12.29 -0.57,12.25 -0.47,12.25 -0.36,12.24 -0.26,12.27 -0.15,12.30 -0.07,12.36 0.01,12.42 0.07,12.51 0.14,12.59 0.17,12.69 0.20,12.79 0.20,12.90 0.20,13.01 0.17,13.11 0.13,13.21 0.07,13.29 0.00,13.38 -0.07,13.43 -0.16,13.49 -0.27,13.52 -0.37,13.55 -0.47,13.54 -0.58,13.54 -0.58,13.54 -0.58,13.54 -2.66,13.44 -4.73,13.35 -5.90,13.07 -7.06,12.78 -7.98,12.24 -8.90,11.70 -9.74,10.86 -10.59,10.02 -10.62,9.30 -10.66,8.57 -10.01,7.83 -9.36,7.09 -8.86,6.61 -8.37,6.14 -7.86,5.63 -7.35,5.12 -6.83,4.57 -6.32,4.02 -5.61,3.11 -4.91,2.21 -4.19,1.67 -3.48,1.13 -2.73,0.71 -1.99,0.30 -1.22,-0.08 -0.46,-0.46 -0.40,-0.51 -0.33,-0.56 -0.26,-0.59 -0.19,-0.62 -0.11,-0.64 -0.03,-0.65 0.03,-0.65 0.11,-0.64 0.19,-0.62 0.26,-0.59 0.33,-0.55 0.40,-0.51 0.46,-0.46 0.51,-0.40 0.55,-0.33 0.59,-0.26 0.62,-0.19 0.64,-0.11 0.65,-0.03 0.65,0.03 0.64,0.11 0.62,0.19 0.59,0.26 0.56,0.33 0.51,0.40 0.46,0.46 0.46,0.46 L 0.46,0.46 Z"/></g><g transform="translate(348 156) rotate(0 6.5 -3)" stroke="none"><path fill="#1e1e1e" d="M 0.46,-0.46 Q 0.46,-0.46 0.99,-0.42 1.52,-0.39 2.10,-0.11 2.69,0.16 3.53,0.58 4.38,1.00 5.14,1.11 5.91,1.21 6.48,1.26 7.05,1.32 7.63,0.78 8.20,0.25 8.83,-0.62 9.46,-1.51 10.00,-2.66 10.54,-3.81 11.14,-4.92 11.74,-6.03 12.91,-7.33 14.08,-8.62 14.14,-8.71 14.20,-8.80 14.29,-8.86 14.37,-8.92 14.48,-8.95 14.58,-8.98 14.68,-8.98 14.79,-8.98 14.89,-8.94 14.99,-8.90 15.07,-8.84 15.16,-8.77 15.21,-8.68 15.27,-8.59 15.30,-8.49 15.32,-8.39 15.31,-8.28 15.30,-8.17 15.26,-8.08 15.22,-7.98 15.15,-7.90 15.08,-7.82 14.99,-7.77 14.89,-7.72 14.79,-7.70 14.68,-7.68 14.58,-7.69 14.47,-7.70 14.38,-7.75 14.28,-7.80 14.21,-7.87 14.13,-7.95 14.09,-8.04 14.04,-8.14 14.02,-8.25 14.01,-8.35 14.03,-8.46 14.05,-8.56 14.10,-8.65 14.15,-8.74 14.23,-8.82 14.31,-8.89 14.41,-8.93 14.51,-8.97 14.61,-8.98 14.72,-8.99 14.82,-8.96 14.93,-8.94 15.02,-8.88 15.11,-8.82 15.17,-8.74 15.24,-8.66 15.27,-8.56 15.31,-8.46 15.31,-8.35 15.32,-8.24 15.29,-8.14 15.25,-8.04 15.25,-8.04 15.25,-8.04 14.93,-6.33 14.61,-4.62 14.10,-3.48 13.59,-2.34 12.87,-0.89 12.16,0.56 11.18,1.73 10.21,2.90 9.50,3.38 8.79,3.86 7.85,4.14 6.90,4.43 6.09,4.31 5.29,4.20 4.16,3.91 3.03,3.62 2.14,3.12 1.24,2.62 0.43,2.08 -0.37,1.54 -0.41,1.00 -0.46,0.46 -0.51,0.40 -0.56,0.33 -0.59,0.26 -0.62,0.19 -0.64,0.11 -0.65,0.03 -0.65,-0.03 -0.64,-0.11 -0.62,-0.19 -0.59,-0.26 -0.55,-0.33 -0.51,-0.40 -0.46,-0.46 -0.40,-0.51 -0.33,-0.55 -0.26,-0.59 -0.19,-0.62 -0.11,-0.64 -0.03,-0.65 0.03,-0.65 0.11,-0.64 0.19,-0.62 0.26,-0.59 0.33,-0.56 0.40,-0.51 0.46,-0.46 0.46,-0.46 L 0.46,-0.46 Z"/></g><g transform="translate(316 181) rotate(0 0 10.5)" stroke="none"><path fill="#1e1e1e" d="M -0.36,0.54 Q -0.36,0.54 -1.35,0.18 -2.34,-0.17 -3.10,-0.30 -3.86,-0.43 -4.59,-0.21 -5.31,0.00 -6.19,0.36 -7.06,0.71 -7.62,1.09 -8.18,1.46 -7.42,1.24 -6.66,1.01 -5.24,0.37 -3.82,-0.27 -2.97,-0.81 -2.12,-1.34 -1.50,-1.84 -0.88,-2.33 -0.32,-2.86 0.24,-3.39 0.39,-3.48 0.54,-3.58 0.71,-3.63 0.88,-3.68 1.06,-3.69 1.23,-3.70 1.41,-3.67 1.58,-3.64 1.74,-3.56 1.90,-3.49 2.04,-3.38 2.18,-3.27 2.29,-3.13 2.40,-2.99 2.47,-2.83 2.54,-2.67 2.58,-2.49 2.61,-2.32 2.60,-2.14 2.58,-1.97 2.53,-1.80 2.48,-1.63 2.39,-1.48 2.29,-1.33 2.17,-1.20 2.04,-1.08 2.71,0.35 3.37,1.79 3.70,3.46 4.03,5.13 3.89,7.50 3.76,9.88 3.40,12.03 3.04,14.18 2.59,16.00 2.13,17.82 0.98,19.64 -0.16,21.47 -0.96,22.50 -1.76,23.54 -2.91,24.14 -4.06,24.74 -5.65,24.53 -7.25,24.31 -7.59,23.36 -7.94,22.41 -7.48,20.82 -7.02,19.24 -5.30,16.84 -3.58,14.44 -1.37,12.02 0.83,9.60 3.42,8.10 6.02,6.59 7.46,5.36 8.91,4.13 9.00,4.07 9.09,4.01 9.19,3.98 9.29,3.95 9.40,3.95 9.50,3.96 9.60,4.00 9.70,4.03 9.78,4.10 9.87,4.17 9.92,4.26 9.98,4.35 10.00,4.45 10.02,4.56 10.01,4.66 10.00,4.77 9.96,4.87 9.92,4.96 9.84,5.04 9.77,5.12 9.68,5.17 9.59,5.22 9.48,5.24 9.38,5.26 9.27,5.24 9.17,5.22 9.07,5.18 8.98,5.13 8.90,5.05 8.83,4.97 8.78,4.88 8.74,4.78 8.73,4.68 8.71,4.57 8.74,4.47 8.76,4.36 8.81,4.27 8.86,4.18 8.94,4.11 9.03,4.04 9.12,4.00 9.22,3.96 9.33,3.95 9.43,3.95 9.54,3.97 9.64,4.00 9.73,4.06 9.82,4.12 9.88,4.20 9.95,4.29 9.98,4.39 10.02,4.49 10.02,4.59 10.02,4.70 9.99,4.80 9.95,4.90 9.89,4.99 9.83,5.07 9.83,5.07 9.83,5.07 8.44,6.59 7.05,8.10 4.95,9.77 2.86,11.44 0.81,13.80 -1.23,16.15 -2.78,18.22 -4.32,20.29 -4.77,21.10 -5.21,21.91 -5.00,22.54 -4.78,23.16 -5.05,22.59 -5.31,22.03 -4.69,21.81 -4.06,21.59 -3.40,20.68 -2.73,19.78 -1.79,18.40 -0.84,17.01 -0.43,15.34 -0.01,13.67 0.32,11.67 0.66,9.67 0.81,7.68 0.97,5.69 0.62,3.87 0.28,2.04 0.23,0.87 0.17,-0.29 -0.05,-1.28 -0.29,-2.28 -0.02,-2.84 0.24,-3.39 0.39,-3.48 0.54,-3.58 0.71,-3.63 0.88,-3.68 1.06,-3.69 1.23,-3.70 1.41,-3.67 1.58,-3.64 1.74,-3.56 1.90,-3.49 2.04,-3.38 2.18,-3.27 2.29,-3.13 2.40,-2.99 2.47,-2.83 2.54,-2.67 2.58,-2.49 2.61,-2.32 2.60,-2.14 2.58,-1.97 2.53,-1.80 2.48,-1.63 2.39,-1.48 2.29,-1.33 2.17,-1.20 2.04,-1.08 1.45,-0.58 0.86,-0.08 0.11,0.48 -0.63,1.05 -1.64,1.67 -2.66,2.29 -4.27,3.00 -5.87,3.72 -7.00,3.98 -8.13,4.25 -9.13,4.02 -10.14,3.79 -10.53,3.23 -10.92,2.67 -10.82,1.62 -10.73,0.57 -10.22,-0.09 -9.72,-0.77 -8.86,-1.28 -8.00,-1.79 -6.90,-2.17 -5.80,-2.55 -4.57,-2.69 -3.34,-2.84 -2.22,-2.48 -1.10,-2.12 -0.36,-1.33 0.36,-0.54 0.42,-0.49 0.48,-0.44 0.53,-0.37 0.57,-0.31 0.60,-0.24 0.63,-0.16 0.64,-0.08 0.65,-0.01 0.64,0.06 0.64,0.14 0.61,0.22 0.58,0.29 0.54,0.36 0.49,0.42 0.44,0.48 0.38,0.53 0.31,0.57 0.24,0.61 0.16,0.63 0.08,0.65 0.01,0.65 -0.06,0.65 -0.14,0.63 -0.22,0.61 -0.29,0.58 -0.36,0.54 -0.36,0.54 L -0.36,0.54 Z"/></g><g transform="translate(330 187) rotate(0 4 -3)" stroke="none"><path fill="#1e1e1e" d="M 0,0.65 Q 0,0.65 -0.86,0.78 -1.72,0.90 -2.68,0.94 -3.63,0.98 -4.51,0.69 -5.39,0.39 -6.19,-0.27 -6.99,-0.94 -7.09,-1.94 -7.19,-2.95 -7.15,-3.91 -7.11,-4.87 -6.40,-5.85 -5.68,-6.83 -4.50,-7.27 -3.33,-7.70 -2.06,-7.25 -0.79,-6.81 0.30,-5.99 1.40,-5.17 2.23,-4.18 3.06,-3.18 3.70,-2.18 4.33,-1.19 5.17,-0.94 6.01,-0.70 7.17,-1.16 8.33,-1.62 9.78,-2.25 11.23,-2.88 12.64,-3.52 14.05,-4.15 14.14,-4.19 14.24,-4.24 14.35,-4.25 14.45,-4.26 14.56,-4.24 14.66,-4.21 14.75,-4.16 14.84,-4.10 14.91,-4.02 14.98,-3.94 15.02,-3.84 15.06,-3.74 15.06,-3.64 15.07,-3.53 15.04,-3.43 15.01,-3.33 14.95,-3.24 14.89,-3.15 14.81,-3.09 14.72,-3.02 14.62,-2.99 14.52,-2.96 14.41,-2.96 14.31,-2.96 14.21,-2.99 14.11,-3.02 14.02,-3.09 13.94,-3.15 13.88,-3.24 13.82,-3.33 13.79,-3.43 13.76,-3.53 13.77,-3.64 13.77,-3.75 13.81,-3.85 13.85,-3.94 13.92,-4.02 13.99,-4.11 14.08,-4.16 14.17,-4.21 14.28,-4.24 14.38,-4.26 14.49,-4.25 14.59,-4.24 14.69,-4.19 14.78,-4.15 14.86,-4.07 14.94,-4.00 14.99,-3.91 15.04,-3.81 15.05,-3.71 15.07,-3.60 15.05,-3.50 15.04,-3.39 14.99,-3.30 14.94,-3.20 14.86,-3.13 14.78,-3.06 14.78,-3.06 14.78,-3.06 13.56,-1.92 12.34,-0.78 10.80,0.16 9.25,1.10 7.43,1.65 5.61,2.19 4.49,1.89 3.37,1.59 2.65,0.97 1.93,0.35 1.39,-0.55 0.86,-1.47 0.29,-2.28 -0.26,-3.09 -1.10,-3.81 -1.93,-4.53 -2.98,-4.86 -4.03,-5.19 -4.48,-4.83 -4.93,-4.48 -4.92,-3.65 -4.92,-2.83 -4.74,-2.18 -4.57,-1.54 -4.07,-1.26 -3.57,-0.98 -2.65,-0.94 -1.72,-0.90 -0.86,-0.78 0,-0.65 0.07,-0.64 0.15,-0.63 0.23,-0.60 0.30,-0.58 0.37,-0.53 0.43,-0.49 0.48,-0.43 0.54,-0.37 0.57,-0.30 0.61,-0.23 0.63,-0.15 0.65,-0.07 0.65,0.00 0.65,0.07 0.63,0.15 0.61,0.23 0.57,0.30 0.54,0.37 0.48,0.43 0.43,0.49 0.37,0.53 0.30,0.58 0.23,0.60 0.15,0.63 0.07,0.64 -0.00,0.65 -0.00,0.65 L 0,0.65 Z"/></g><g transform="translate(350 189) rotate(0 0.5 -13.5)" stroke="none"><path fill="#1e1e1e" d="M -0.62,0.20 Q -0.62,0.20 -1.12,-0.58 -1.63,-1.37 -1.86,-3.01 -2.09,-4.65 -1.91,-7.42 -1.73,-10.19 -1.37,-13.36 -1.01,-16.53 -0.50,-19.32 -0.00,-22.11 0.61,-24.14 1.22,-26.16 1.25,-26.26 1.28,-26.36 1.35,-26.45 1.41,-26.54 1.49,-26.60 1.58,-26.66 1.68,-26.69 1.78,-26.72 1.89,-26.72 1.99,-26.72 2.09,-26.68 2.19,-26.65 2.28,-26.58 2.36,-26.51 2.42,-26.43 2.48,-26.34 2.50,-26.23 2.53,-26.13 2.52,-26.02 2.51,-25.92 2.47,-25.82 2.43,-25.72 2.36,-25.64 2.29,-25.56 2.20,-25.51 2.10,-25.46 2.00,-25.44 1.90,-25.42 1.79,-25.43 1.68,-25.45 1.59,-25.49 1.49,-25.54 1.42,-25.61 1.34,-25.69 1.30,-25.78 1.25,-25.88 1.23,-25.98 1.22,-26.09 1.24,-26.19 1.26,-26.30 1.31,-26.39 1.36,-26.48 1.44,-26.55 1.52,-26.63 1.62,-26.67 1.71,-26.71 1.82,-26.72 1.92,-26.73 2.03,-26.70 2.13,-26.68 2.22,-26.62 2.31,-26.56 2.38,-26.48 2.44,-26.40 2.48,-26.30 2.52,-26.20 2.52,-26.09 2.53,-25.99 2.53,-25.99 2.53,-25.99 2.59,-23.83 2.66,-21.68 2.26,-18.93 1.86,-16.17 1.45,-13.06 1.03,-9.94 0.74,-7.40 0.45,-4.85 0.47,-3.46 0.48,-2.07 0.55,-1.13 0.62,-0.20 0.63,-0.13 0.65,-0.05 0.65,0.02 0.64,0.10 0.62,0.18 0.60,0.25 0.56,0.32 0.52,0.39 0.46,0.45 0.41,0.50 0.34,0.55 0.28,0.59 0.20,0.61 0.13,0.64 0.05,0.64 -0.02,0.65 -0.10,0.64 -0.18,0.63 -0.25,0.59 -0.32,0.56 -0.39,0.52 -0.45,0.47 -0.50,0.41 -0.55,0.35 -0.58,0.27 -0.62,0.20 -0.62,0.20 L -0.62,0.20 Z"/></g><g transform="translate(345 174) rotate(0 5.5 -0.5)" stroke="none"><path fill="#1e1e1e" d="M 0,-0.65 Q 0,-0.65 0.86,-1.13 1.72,-1.62 3.39,-1.90 5.07,-2.18 8.26,-1.95 11.45,-1.72 11.56,-1.69 11.66,-1.66 11.75,-1.60 11.83,-1.54 11.90,-1.45 11.96,-1.37 11.99,-1.27 12.03,-1.17 12.03,-1.06 12.03,-0.96 11.99,-0.86 11.96,-0.75 11.89,-0.67 11.83,-0.59 11.74,-0.53 11.65,-0.47 11.55,-0.44 11.45,-0.41 11.34,-0.42 11.23,-0.43 11.14,-0.47 11.04,-0.51 10.96,-0.58 10.88,-0.64 10.82,-0.74 10.77,-0.83 10.75,-0.93 10.72,-1.04 10.74,-1.14 10.75,-1.25 10.79,-1.34 10.84,-1.44 10.91,-1.52 10.99,-1.59 11.08,-1.64 11.17,-1.69 11.28,-1.71 11.38,-1.72 11.49,-1.70 11.59,-1.69 11.69,-1.64 11.78,-1.59 11.85,-1.51 11.93,-1.43 11.97,-1.33 12.01,-1.24 12.02,-1.13 12.03,-1.03 12.01,-0.92 11.99,-0.82 11.93,-0.73 11.88,-0.64 11.80,-0.57 11.71,-0.50 11.61,-0.46 11.52,-0.42 11.41,-0.42 11.30,-0.41 11.30,-0.41 11.30,-0.41 8.44,0.30 5.59,1.03 3.65,1.32 1.72,1.62 0.86,1.13 0,0.65 -0.07,0.64 -0.15,0.63 -0.23,0.60 -0.30,0.58 -0.37,0.53 -0.43,0.49 -0.48,0.43 -0.54,0.37 -0.57,0.30 -0.61,0.23 -0.63,0.15 -0.65,0.07 -0.65,-0.00 -0.65,-0.07 -0.63,-0.15 -0.61,-0.23 -0.57,-0.30 -0.54,-0.37 -0.48,-0.43 -0.43,-0.49 -0.37,-0.53 -0.30,-0.58 -0.23,-0.60 -0.15,-0.63 -0.07,-0.64 0.00,-0.65 0.00,-0.65 L 0,-0.65 Z"/></g><g transform="translate(349 187) rotate(0 18.5 -6.5)" stroke="none"><path fill="#1e1e1e" d="M 0.20,-0.62 Q 0.20,-0.62 1.08,-0.67 1.96,-0.72 3.69,-1.49 5.42,-2.26 7.33,-3.40 9.24,-4.54 11.28,-5.62 13.32,-6.71 14.67,-7.68 16.03,-8.65 16.89,-9.33 17.75,-10.01 18.40,-9.73 19.05,-9.45 18.35,-9.18 17.64,-8.92 16.31,-8.07 14.98,-7.21 13.84,-6.31 12.69,-5.40 12.35,-4.66 12.00,-3.92 12.43,-3.36 12.85,-2.79 13.68,-2.73 14.52,-2.66 16.15,-3.16 17.78,-3.65 19.25,-4.65 20.72,-5.64 22.55,-6.95 24.38,-8.26 25.35,-9.30 26.32,-10.35 27.06,-11.12 27.80,-11.89 28.11,-12.89 28.42,-13.89 28.52,-14.05 28.63,-14.20 28.77,-14.33 28.91,-14.45 29.07,-14.54 29.24,-14.63 29.42,-14.67 29.60,-14.72 29.78,-14.72 29.97,-14.72 30.15,-14.68 30.33,-14.64 30.50,-14.55 30.67,-14.47 30.81,-14.34 30.95,-14.22 31.06,-14.07 31.16,-13.91 31.23,-13.74 31.30,-13.57 31.32,-13.38 31.35,-13.19 31.32,-13.01 31.30,-12.82 31.24,-12.65 31.17,-12.47 31.08,-13.35 31.00,-14.22 31.61,-13.61 32.23,-13.00 33.07,-12.18 33.91,-11.36 34.86,-10.45 35.81,-9.54 36.63,-8.39 37.45,-7.24 37.52,-5.71 37.60,-4.18 36.48,-2.81 35.37,-1.44 32.80,-0.64 30.23,0.14 30.12,0.17 30.02,0.20 29.92,0.20 29.81,0.19 29.71,0.15 29.61,0.11 29.53,0.04 29.45,-0.01 29.39,-0.10 29.34,-0.20 29.32,-0.30 29.29,-0.40 29.30,-0.51 29.31,-0.61 29.36,-0.71 29.40,-0.81 29.48,-0.88 29.55,-0.96 29.64,-1.01 29.74,-1.06 29.84,-1.08 29.94,-1.10 30.05,-1.08 30.15,-1.06 30.25,-1.02 30.34,-0.97 30.42,-0.89 30.49,-0.81 30.53,-0.72 30.58,-0.62 30.59,-0.51 30.60,-0.41 30.58,-0.30 30.56,-0.20 30.50,-0.11 30.45,-0.02 30.37,0.04 30.29,0.11 30.19,0.15 30.09,0.19 29.99,0.20 29.88,0.20 29.78,0.17 29.67,0.15 29.59,0.09 29.50,0.03 29.43,-0.05 29.37,-0.13 29.33,-0.23 29.30,-0.33 29.30,-0.44 29.30,-0.54 29.33,-0.65 29.37,-0.75 29.43,-0.83 29.49,-0.92 29.58,-0.98 29.67,-1.04 29.67,-1.04 29.67,-1.04 31.42,-2.26 33.17,-3.49 33.85,-4.55 34.53,-5.62 33.98,-6.40 33.44,-7.19 32.53,-8.13 31.63,-9.08 30.81,-9.92 29.99,-10.75 29.41,-11.34 28.83,-11.93 28.62,-12.91 28.42,-13.89 28.52,-14.05 28.63,-14.20 28.77,-14.33 28.91,-14.45 29.07,-14.54 29.24,-14.63 29.42,-14.67 29.60,-14.72 29.78,-14.72 29.97,-14.72 30.15,-14.68 30.33,-14.64 30.50,-14.55 30.67,-14.47 30.81,-14.34 30.95,-14.22 31.06,-14.07 31.16,-13.91 31.23,-13.74 31.30,-13.57 31.32,-13.38 31.35,-13.19 31.32,-13.01 31.30,-12.82 31.24,-12.65 31.17,-12.47 31.03,-11.93 30.89,-11.39 30.44,-10.61 29.99,-9.82 29.24,-9.05 28.49,-8.29 27.30,-7.06 26.11,-5.83 24.21,-4.50 22.31,-3.17 20.43,-2.02 18.55,-0.86 16.36,-0.36 14.17,0.13 12.76,-0.15 11.36,-0.45 10.55,-1.22 9.74,-1.99 9.63,-3.49 9.53,-4.99 10.23,-6.23 10.93,-7.47 12.24,-8.51 13.56,-9.55 15.31,-10.58 17.06,-11.60 18.18,-11.70 19.31,-11.79 19.98,-10.91 20.65,-10.03 20.12,-8.93 19.59,-7.83 18.66,-7.06 17.73,-6.29 16.22,-5.19 14.71,-4.10 12.72,-3.04 10.72,-1.97 8.55,-0.76 6.39,0.45 3.93,1.16 1.48,1.87 0.63,1.24 -0.20,0.62 -0.27,0.58 -0.35,0.55 -0.41,0.50 -0.47,0.45 -0.52,0.39 -0.56,0.32 -0.59,0.25 -0.63,0.18 -0.64,0.10 -0.65,0.02 -0.64,-0.05 -0.64,-0.13 -0.61,-0.20 -0.59,-0.28 -0.55,-0.34 -0.50,-0.41 -0.45,-0.46 -0.39,-0.52 -0.32,-0.56 -0.25,-0.60 -0.18,-0.62 -0.10,-0.64 -0.02,-0.65 0.05,-0.65 0.13,-0.63 0.20,-0.62 0.20,-0.62 L 0.20,-0.62 Z"/></g></svg>