<svg version="1.1" xmlns="http://www.w3.org/2000/svg" viewBox="0 0 896.3560791015625 255.82496643066406" width="896.3560791015625" height="255.82496643066406" filter="invert(93%) hue-rotate(180deg)" class="excalidraw-svg">
  <!-- svg-source:excalidraw -->
  
  <defs>
    <style class="style-fonts">
      @font-face {
        font-family: "Virgil";
        src: url("https://excalidraw.com/Virgil.woff2");
      }
      @font-face {
        font-family: "Cascadia";
        src: url("https://excalidraw.com/Cascadia.woff2");
      }
      @font-face {
        font-family: "Assistant";
        src: url("https://excalidraw.com/Assistant-Regular.woff2");
      }
    </style>
    
  </defs>
  <rect x="0" y="0" width="896.3560791015625" height="255.82496643066406" fill="#ffffff"/><g stroke-linecap="round" transform="translate(10 10) rotate(0 213.00323486328125 117.91248321533203)"><path d="M32 0 C144.8 0.28, 256.73 -1.49, 394.01 0 M32 0 C169.58 1.15, 307.25 2.07, 394.01 0 M394.01 0 C415.51 1.32, 424.16 9.55, 426.01 32 M394.01 0 C415.85 1, 424.28 12.42, 426.01 32 M426.01 32 C423.86 69.26, 425.71 104.47, 426.01 203.82 M426.01 32 C424.96 87.61, 423.65 144.59, 426.01 203.82 M426.01 203.82 C425.83 226.33, 416.52 235, 394.01 235.82 M426.01 203.82 C426.79 222.86, 417.59 236.35, 394.01 235.82 M394.01 235.82 C254.42 237.42, 116.65 235.8, 32 235.82 M394.01 235.82 C278.38 235.22, 163.61 235.56, 32 235.82 M32 235.82 C9.72 237.51, 1.96 224.86, 0 203.82 M32 235.82 C10.94 235.59, 1.37 227.27, 0 203.82 M0 203.82 C1.1 154.21, -1.85 105.22, 0 32 M0 203.82 C0.22 140.16, 0.35 77, 0 32 M0 32 C1.78 10.54, 8.87 -1.58, 32 0 M0 32 C1.29 9.12, 11.83 -2.27, 32 0" stroke="#1e1e1e" stroke-width="2" fill="none"/></g><g stroke-linecap="round" transform="translate(124.86956787109375 85.31184387207031) rotate(0 103.07833862304688 41.079193115234375)"><path d="M0 0 C64.55 -1.94, 131.13 -1.76, 206.16 0 M0 0 C42.47 0.24, 85.74 -0.57, 206.16 0 M206.16 0 C207.38 31.41, 204.43 62.82, 206.16 82.16 M206.16 0 C206.42 25.81, 206.33 50.14, 206.16 82.16 M206.16 82.16 C158.99 81.04, 114.84 80.85, 0 82.16 M206.16 82.16 C138.86 81.14, 72.15 81.99, 0 82.16 M0 82.16 C-0.69 64.71, 0.46 44.5, 0 0 M0 82.16 C-0.58 52.01, -0.2 21.78, 0 0" stroke="#1e1e1e" stroke-width="2" fill="none"/></g><g stroke-linecap="round" transform="translate(125.71572875976562 84.92424011230469) rotate(0 47.54534912109375 41.079193115234375)"><path d="M0 0 C0 0, 0 0, 0 0 M0 0 C0 0, 0 0, 0 0 M0.13 12.04 C2.13 6.57, 6.24 4.92, 10.63 -0.03 M0.13 12.04 C5 7.09, 8.89 3.08, 10.63 -0.03 M0.27 24.08 C2.77 19.4, 9.98 13.04, 21.26 -0.07 M0.27 24.08 C5.46 18.31, 10.47 10.77, 21.26 -0.07 M-0.26 36.88 C11.07 25.49, 22.15 12.92, 31.89 -0.1 M-0.26 36.88 C7.49 28.84, 13.65 21.61, 31.89 -0.1 M-0.12 48.92 C12.78 37.16, 23.66 20.33, 42.52 -0.14 M-0.12 48.92 C9.58 38.7, 17.55 28.89, 42.52 -0.14 M0.01 60.96 C9.22 48.39, 21.61 35.2, 53.15 -0.17 M0.01 60.96 C11.94 47.86, 22.65 36.4, 53.15 -0.17 M0.14 73 C22.25 48.33, 40.87 26.13, 63.78 -0.21 M0.14 73 C20.23 50.53, 38.41 29.46, 63.78 -0.21 M2.9 82.02 C21.7 62.21, 41.68 39.32, 74.41 -0.24 M2.9 82.02 C24.69 55.7, 48.64 30.8, 74.41 -0.24 M13.53 81.99 C39.41 50.48, 67.24 21.19, 85.04 -0.28 M13.53 81.99 C30.17 62.86, 46.66 44.31, 85.04 -0.28 M24.16 81.95 C40.5 62.66, 58.66 45.18, 95.01 0.44 M24.16 81.95 C44.51 59.18, 62.27 38.15, 95.01 0.44 M34.79 81.92 C50.42 62.93, 65.09 48.61, 95.15 12.49 M34.79 81.92 C54.33 57.16, 76.22 34.14, 95.15 12.49 M45.42 81.88 C59.18 66.33, 72.42 47.71, 95.28 24.53 M45.42 81.88 C64.92 59.89, 84.15 37.15, 95.28 24.53 M56.05 81.85 C65.45 69.45, 75.32 60.2, 95.41 36.57 M56.05 81.85 C68.97 65.5, 83.69 50.4, 95.41 36.57 M66.02 82.57 C77.22 70.39, 87.27 57.27, 95.55 48.61 M66.02 82.57 C77.14 69.73, 87.9 58.09, 95.55 48.61 M76.65 82.54 C81.33 75.97, 86.12 73.37, 95.02 61.4 M76.65 82.54 C81.96 75.33, 88.37 68.48, 95.02 61.4 M87.28 82.5 C90.06 78.59, 91.23 76.33, 95.16 73.44 M87.28 82.5 C90.12 80.04, 91.83 77.21, 95.16 73.44" stroke="#1e1e1e" stroke-width="1" fill="none"/><path d="M0 0 C24.25 -0.49, 45.05 -0.3, 95.09 0 M0 0 C32.23 1.32, 63.99 0.11, 95.09 0 M95.09 0 C96.58 30.73, 97.51 59.61, 95.09 82.16 M95.09 0 C95.02 31.28, 95.5 64.06, 95.09 82.16 M95.09 82.16 C63.66 79.69, 29.4 80.28, 0 82.16 M95.09 82.16 C62.07 82.69, 27.8 82.74, 0 82.16 M0 82.16 C-0.36 52.59, -0.05 26.55, 0 0 M0 82.16 C-1 64, -0.4 43.56, 0 0" stroke="#1e1e1e" stroke-width="2" fill="none"/></g><g stroke-linecap="round" transform="translate(589.5818786621094 31.5916748046875) rotate(0 103.07833862304688 41.079193115234375)"><path d="M0 0 C46.97 -2.26, 93.8 0.51, 206.16 0 M0 0 C47.04 0.93, 93.99 2.05, 206.16 0 M206.16 0 C206.88 30.48, 205.56 59.24, 206.16 82.16 M206.16 0 C207.02 17.29, 207.36 34.67, 206.16 82.16 M206.16 82.16 C152.82 82.06, 103.2 82.33, 0 82.16 M206.16 82.16 C157.18 83.81, 108.2 84.24, 0 82.16 M0 82.16 C-0.11 65.83, -0.45 45.61, 0 0 M0 82.16 C0.96 56.64, 1.01 29.71, 0 0" stroke="#1e1e1e" stroke-width="2" fill="none"/></g><g stroke-linecap="round" transform="translate(590.4280395507812 31.204071044921875) rotate(0 47.54534912109375 41.079193115234375)"><path d="M0 0 C0 0, 0 0, 0 0 M0 0 C0 0, 0 0, 0 0 M0.13 12.04 C3.41 10.13, 6.37 6.1, 10.63 -0.03 M0.13 12.04 C3.14 8.76, 6.45 5.35, 10.63 -0.03 M0.27 24.08 C5.16 19.45, 9.35 15.2, 21.26 -0.07 M0.27 24.08 C6 17.83, 12.1 11.07, 21.26 -0.07 M-0.26 36.88 C11.24 22.83, 23.59 9.74, 31.89 -0.1 M-0.26 36.88 C9.95 26.14, 19.55 13.88, 31.89 -0.1 M-0.12 48.92 C16.92 30.13, 32.31 13.36, 42.52 -0.14 M-0.12 48.92 C10.36 36.81, 19.47 26.52, 42.52 -0.14 M0.01 60.96 C21.51 36.6, 40.06 11.27, 53.15 -0.17 M0.01 60.96 C20.88 36.22, 42.91 13.42, 53.15 -0.17 M0.14 73 C23.73 47.01, 42.66 24.41, 63.78 -0.21 M0.14 73 C19.8 48.23, 39.91 26.11, 63.78 -0.21 M2.9 82.02 C29.87 51.83, 54.39 22.28, 74.41 -0.24 M2.9 82.02 C19.5 64.96, 33.96 46.23, 74.41 -0.24 M13.53 81.99 C37.06 57.21, 57.64 27.64, 85.04 -0.28 M13.53 81.99 C28.52 64.88, 41.84 48.76, 85.04 -0.28 M24.16 81.95 C50.71 50.51, 78.19 17.48, 95.01 0.44 M24.16 81.95 C40.64 61.71, 58.01 42.59, 95.01 0.44 M34.79 81.92 C56.35 59.61, 73.04 35.7, 95.15 12.49 M34.79 81.92 C56.95 57.41, 76.8 32.72, 95.15 12.49 M45.42 81.88 C57.76 70.92, 65.26 59.7, 95.28 24.53 M45.42 81.88 C62.42 62.38, 80.07 41.91, 95.28 24.53 M56.05 81.85 C69.53 66.46, 85.32 49.79, 95.41 36.57 M56.05 81.85 C65.72 71.86, 74.1 61.11, 95.41 36.57 M66.02 82.57 C74.94 70.15, 85.79 60.14, 95.55 48.61 M66.02 82.57 C76.46 70.88, 86.25 59.27, 95.55 48.61 M76.65 82.54 C81.05 78.96, 86.13 70.17, 95.02 61.4 M76.65 82.54 C80.51 77.08, 85.72 71.29, 95.02 61.4 M87.28 82.5 C89.24 80.27, 89.89 78.04, 95.16 73.44 M87.28 82.5 C89.97 79.67, 92.81 76.38, 95.16 73.44" stroke="#1e1e1e" stroke-width="1" fill="none"/><path d="M0 0 C31.42 2.14, 62.03 -0.12, 95.09 0 M0 0 C18.73 1.22, 39.18 1.5, 95.09 0 M95.09 0 C94.12 22.1, 93.41 48.17, 95.09 82.16 M95.09 0 C96.12 19.27, 94.93 38.07, 95.09 82.16 M95.09 82.16 C60.04 79.72, 20.69 79.65, 0 82.16 M95.09 82.16 C59.23 83.18, 22.58 82.74, 0 82.16 M0 82.16 C-0.25 61.37, 0.32 44.2, 0 0 M0 82.16 C0.2 61.02, -0.37 39.26, 0 0" stroke="#1e1e1e" stroke-width="2" fill="none"/></g><g stroke-linecap="round" transform="translate(588.046868081382 146.69940518405605) rotate(180.0810352612223 103.07833862304688 41.079193115234375)"><path d="M0 0 C48.41 -1.34, 92.56 -0.01, 206.16 0 M0 0 C79.38 2.05, 157.64 1.11, 206.16 0 M206.16 0 C206.99 20.99, 207.43 43.34, 206.16 82.16 M206.16 0 C206.14 26.02, 205.93 52.31, 206.16 82.16 M206.16 82.16 C150.89 82.69, 98.55 84.12, 0 82.16 M206.16 82.16 C150.2 82.33, 93.14 82.53, 0 82.16 M0 82.16 C2.17 62.02, 2.43 40.93, 0 0 M0 82.16 C0.66 54.98, 1.09 29.76, 0 0" stroke="#1e1e1e" stroke-width="2" fill="none"/></g><g stroke-linecap="round" transform="translate(698.2660833003636 147.1643538685349) rotate(180.0810352612223 47.54534912109375 41.079193115234375)"><path d="M0 0 C0 0, 0 0, 0 0 M0 0 C0 0, 0 0, 0 0 M0.13 12.04 C4.46 7.98, 9.71 1.6, 10.63 -0.03 M0.13 12.04 C4.21 8.09, 7.46 3.7, 10.63 -0.03 M0.27 24.08 C5.95 17.17, 10.73 11.4, 21.26 -0.07 M0.27 24.08 C8.17 16.38, 14.59 7.04, 21.26 -0.07 M-0.26 36.88 C7.72 24.21, 21.03 12.04, 31.89 -0.1 M-0.26 36.88 C5.67 28.23, 12.29 21.03, 31.89 -0.1 M-0.12 48.92 C11.62 33.69, 22.26 21.28, 42.52 -0.14 M-0.12 48.92 C16.55 28.53, 32.54 9.79, 42.52 -0.14 M0.01 60.96 C16.55 41.53, 29.94 26.14, 53.15 -0.17 M0.01 60.96 C13.5 43.66, 27.91 29.35, 53.15 -0.17 M0.14 73 C23.68 46.36, 48.93 16.94, 63.78 -0.21 M0.14 73 C22.36 47.33, 44.97 20.82, 63.78 -0.21 M1.59 83.53 C22.26 61.96, 41.99 37.35, 74.41 -0.24 M1.59 83.53 C17.24 66.2, 32.03 48.68, 74.41 -0.24 M12.22 83.5 C30.24 61.91, 47.06 42.67, 85.04 -0.28 M12.22 83.5 C36.11 57.38, 58.2 30.01, 85.04 -0.28 M22.85 83.46 C40.64 61.81, 60.59 41.25, 95.01 0.44 M22.85 83.46 C48.19 55.84, 72.35 27.54, 95.01 0.44 M33.48 83.43 C53.86 57.41, 77.74 34.56, 95.15 12.49 M33.48 83.43 C57.93 54.55, 82.79 27.2, 95.15 12.49 M44.11 83.39 C56.8 70.07, 68.14 55.5, 95.28 24.53 M44.11 83.39 C60.27 63.83, 78.47 44.21, 95.28 24.53 M54.74 83.36 C61.72 74.17, 69.56 62.69, 95.41 36.57 M54.74 83.36 C64.11 71.64, 74.42 61.07, 95.41 36.57 M65.37 83.32 C71.92 77.33, 80.99 68.59, 95.55 48.61 M65.37 83.32 C72.93 74.37, 81.15 66.32, 95.55 48.61 M76 83.29 C80.66 76.54, 86.85 71.66, 95.02 61.4 M76 83.29 C82.89 76.06, 88.12 69.27, 95.02 61.4 M86.63 83.26 C89.81 81.4, 89.45 79.1, 95.16 73.44 M86.63 83.26 C89.28 80.3, 92.45 76.1, 95.16 73.44" stroke="#1e1e1e" stroke-width="1" fill="none"/><path d="M0 0 C26.68 0.63, 57.46 -0.8, 95.09 0 M0 0 C18.98 -1.04, 38.37 0.15, 95.09 0 M95.09 0 C96.18 28.83, 95.71 58.54, 95.09 82.16 M95.09 0 C94.39 21.23, 94.52 44.42, 95.09 82.16 M95.09 82.16 C59.47 81.79, 19.64 82.07, 0 82.16 M95.09 82.16 C63.97 81.72, 32.62 81.2, 0 82.16 M0 82.16 C1.24 62.66, -0.21 43.06, 0 0 M0 82.16 C0.49 53.03, -0.54 22.1, 0 0" stroke="#1e1e1e" stroke-width="2" fill="none"/></g><g transform="translate(830.0623779296875 79.22602844238281) rotate(0 10.650146484375 -2.28216552734375)" stroke="none"><path fill="#1e1e1e" d="M -0.62,-0.20 Q -0.62,-0.20 -0.61,-0.93 -0.60,-1.66 -0.27,-2.44 0.05,-3.23 0.54,-3.72 1.02,-4.21 1.69,-4.63 2.36,-5.05 3.23,-5.28 4.10,-5.51 5.08,-5.37 6.06,-5.24 7.02,-4.66 7.98,-4.09 9.03,-3.18 10.09,-2.27 10.69,-1.71 11.29,-1.15 12.34,-1.06 13.39,-0.97 14.34,-1.29 15.29,-1.61 16.57,-2.26 17.85,-2.92 19.40,-4.04 20.95,-5.17 21.04,-5.23 21.13,-5.29 21.23,-5.32 21.33,-5.35 21.44,-5.34 21.54,-5.34 21.64,-5.30 21.74,-5.26 21.82,-5.19 21.90,-5.12 21.96,-5.03 22.02,-4.94 22.04,-4.84 22.06,-4.74 22.05,-4.63 22.04,-4.52 22.00,-4.43 21.95,-4.33 21.88,-4.25 21.81,-4.18 21.72,-4.13 21.62,-4.07 21.52,-4.06 21.41,-4.04 21.31,-4.05 21.20,-4.07 21.11,-4.12 21.01,-4.17 20.94,-4.25 20.87,-4.32 20.82,-4.42 20.78,-4.51 20.76,-4.62 20.75,-4.73 20.77,-4.83 20.80,-4.93 20.85,-5.02 20.90,-5.12 20.98,-5.19 21.06,-5.25 21.16,-5.30 21.26,-5.34 21.37,-5.34 21.47,-5.35 21.58,-5.32 21.68,-5.29 21.77,-5.23 21.86,-5.18 21.92,-5.09 21.99,-5.01 22.02,-4.91 22.05,-4.81 22.06,-4.70 22.06,-4.59 22.02,-4.49 21.99,-4.39 21.93,-4.31 21.86,-4.22 21.86,-4.22 21.86,-4.22 20.47,-2.51 19.08,-0.80 17.56,0.13 16.04,1.06 14.52,1.41 13.00,1.76 11.33,1.34 9.66,0.93 8.99,0.31 8.32,-0.29 7.43,-1.12 6.54,-1.96 6.00,-2.39 5.47,-2.82 4.49,-2.93 3.50,-3.04 2.78,-2.65 2.06,-2.25 1.77,-1.61 1.48,-0.96 1.05,-0.37 0.62,0.20 0.58,0.27 0.55,0.35 0.50,0.41 0.45,0.47 0.39,0.52 0.32,0.56 0.25,0.59 0.18,0.63 0.10,0.64 0.02,0.65 -0.05,0.64 -0.13,0.64 -0.20,0.61 -0.28,0.59 -0.34,0.55 -0.41,0.50 -0.46,0.45 -0.52,0.39 -0.56,0.32 -0.60,0.25 -0.62,0.18 -0.64,0.10 -0.65,0.02 -0.65,-0.05 -0.63,-0.13 -0.62,-0.20 -0.62,-0.20 L -0.62,-0.20 Z"/></g><g transform="translate(873.4237060546875 68.57588195800781) rotate(0 1.14105224609375 7.226898193359375)" stroke="none"><path fill="#1e1e1e" d="M 0.15,0.63 Q 0.15,0.63 -0.68,0.99 -1.51,1.35 -2.24,1.67 -2.97,1.98 -3.77,2.88 -4.57,3.78 -5.08,5.52 -5.58,7.26 -5.18,8.92 -4.77,10.58 -3.84,11.82 -2.91,13.06 -1.88,13.50 -0.86,13.94 1.10,13.29 3.07,12.64 4.47,11.41 5.86,10.18 6.61,8.50 7.36,6.81 7.47,5.38 7.59,3.94 7.07,2.88 6.55,1.81 5.94,1.25 5.33,0.69 4.18,0.79 3.03,0.90 0.98,1.67 -1.06,2.43 -1.16,2.46 -1.26,2.49 -1.37,2.49 -1.47,2.48 -1.57,2.44 -1.67,2.40 -1.75,2.33 -1.83,2.26 -1.89,2.17 -1.94,2.08 -1.97,1.98 -1.99,1.88 -1.98,1.77 -1.97,1.66 -1.92,1.57 -1.88,1.47 -1.80,1.39 -1.73,1.32 -1.64,1.27 -1.54,1.22 -1.44,1.20 -1.33,1.18 -1.23,1.20 -1.12,1.22 -1.03,1.27 -0.94,1.32 -0.86,1.39 -0.79,1.47 -0.75,1.57 -0.70,1.66 -0.69,1.77 -0.68,1.87 -0.70,1.98 -0.72,2.08 -0.78,2.17 -0.83,2.26 -0.91,2.33 -0.99,2.40 -1.09,2.44 -1.19,2.48 -1.30,2.49 -1.40,2.49 -1.51,2.46 -1.61,2.44 -1.70,2.38 -1.78,2.32 -1.85,2.23 -1.91,2.15 -1.95,2.05 -1.98,1.95 -1.98,1.84 -1.98,1.73 -1.95,1.63 -1.91,1.53 -1.85,1.45 -1.78,1.36 -1.70,1.30 -1.61,1.24 -1.61,1.24 -1.61,1.24 0.61,0.02 2.85,-1.18 4.65,-1.28 6.46,-1.37 7.66,-0.33 8.86,0.70 9.51,2.38 10.16,4.05 9.93,5.97 9.70,7.89 8.62,9.98 7.54,12.06 5.67,13.54 3.79,15.01 1.14,15.58 -1.50,16.15 -3.11,15.33 -4.72,14.52 -5.86,12.81 -7.00,11.10 -7.36,8.91 -7.72,6.71 -6.93,4.54 -6.15,2.36 -4.96,1.24 -3.76,0.13 -2.87,-0.17 -1.97,-0.48 -1.06,-0.55 -0.15,-0.63 -0.08,-0.64 -0.00,-0.65 0.07,-0.64 0.15,-0.63 0.22,-0.61 0.30,-0.58 0.36,-0.53 0.43,-0.49 0.48,-0.43 0.53,-0.37 0.57,-0.30 0.61,-0.23 0.63,-0.15 0.65,-0.08 0.65,-0.00 0.65,0.07 0.63,0.15 0.61,0.23 0.57,0.30 0.54,0.37 0.48,0.43 0.43,0.49 0.37,0.53 0.30,0.58 0.23,0.60 0.15,0.63 0.15,0.63 L 0.15,0.63 Z"/></g><g transform="translate(837.6695556640625 197.8992462158203) rotate(0 12.932373046875 -3.4232635498046875)" stroke="none"><path fill="#1e1e1e" d="M -0.63,-0.15 Q -0.63,-0.15 -0.60,-1.08 -0.56,-2.01 0.02,-2.99 0.61,-3.97 1.83,-4.91 3.05,-5.84 3.72,-6.39 4.39,-6.94 5.60,-7.29 6.81,-7.64 7.98,-7.30 9.15,-6.96 9.94,-6.27 10.73,-5.59 11.43,-4.92 12.13,-4.26 12.77,-3.85 13.42,-3.44 14.40,-3.11 15.38,-2.78 16.42,-3.06 17.47,-3.35 18.83,-3.79 20.19,-4.24 22.61,-5.28 25.02,-6.31 25.12,-6.36 25.21,-6.40 25.32,-6.41 25.42,-6.42 25.53,-6.40 25.63,-6.37 25.72,-6.32 25.81,-6.26 25.88,-6.18 25.95,-6.10 25.99,-6.00 26.02,-5.90 26.03,-5.79 26.03,-5.69 26.00,-5.58 25.97,-5.48 25.91,-5.39 25.85,-5.31 25.77,-5.24 25.68,-5.18 25.58,-5.15 25.48,-5.12 25.37,-5.12 25.27,-5.12 25.17,-5.15 25.07,-5.19 24.98,-5.25 24.90,-5.32 24.84,-5.41 24.78,-5.50 24.75,-5.60 24.73,-5.70 24.73,-5.81 24.74,-5.91 24.78,-6.01 24.82,-6.11 24.89,-6.19 24.96,-6.27 25.05,-6.32 25.15,-6.38 25.25,-6.40 25.35,-6.42 25.46,-6.41 25.56,-6.40 25.66,-6.35 25.76,-6.30 25.83,-6.23 25.91,-6.16 25.96,-6.06 26.01,-5.97 26.02,-5.86 26.04,-5.76 26.02,-5.65 26.00,-5.55 25.95,-5.45 25.90,-5.36 25.82,-5.29 25.74,-5.22 25.74,-5.22 25.74,-5.22 23.43,-3.48 21.12,-1.75 19.56,-1.11 18.00,-0.46 16.29,-0.24 14.58,-0.02 13.20,-0.56 11.81,-1.10 11.00,-1.71 10.19,-2.32 9.52,-3.02 8.86,-3.73 8.50,-4.20 8.14,-4.68 7.62,-5.02 7.11,-5.35 6.42,-5.24 5.74,-5.12 5.04,-4.57 4.34,-4.01 3.36,-3.38 2.37,-2.75 1.90,-2.11 1.43,-1.47 1.03,-0.66 0.63,0.15 0.60,0.23 0.58,0.30 0.53,0.37 0.49,0.43 0.43,0.48 0.37,0.54 0.30,0.57 0.23,0.61 0.15,0.63 0.07,0.65 -0.00,0.65 -0.08,0.65 -0.15,0.63 -0.23,0.61 -0.30,0.57 -0.37,0.53 -0.43,0.48 -0.49,0.43 -0.53,0.36 -0.58,0.30 -0.61,0.22 -0.63,0.15 -0.64,0.07 -0.65,-0.00 -0.64,-0.08 -0.63,-0.15 -0.63,-0.15 L -0.63,-0.15 Z"/></g><g transform="translate(877.227294921875 194.8563690185547) rotate(0 4.56439208984375 -2.2821807861328125)" stroke="none"><path fill="#1e1e1e" d="M -0.41,-0.51 Q -0.41,-0.51 0.53,-1.56 1.48,-2.61 2.46,-4.02 3.45,-5.42 4.31,-6.88 5.16,-8.34 5.94,-9.84 6.71,-11.34 6.79,-11.58 6.87,-11.81 6.97,-11.96 7.08,-12.10 7.21,-12.22 7.35,-12.33 7.51,-12.41 7.67,-12.49 7.84,-12.53 8.01,-12.57 8.19,-12.57 8.37,-12.57 8.54,-12.52 8.71,-12.48 8.87,-12.39 9.03,-12.30 9.16,-12.18 9.29,-12.06 9.39,-11.92 9.49,-11.77 9.55,-11.60 9.61,-11.43 9.63,-11.26 9.64,-11.08 9.62,-10.90 9.60,-10.73 9.53,-10.56 9.46,-10.39 8.86,-9.36 8.26,-8.33 7.63,-6.31 7.01,-4.28 6.72,-2.80 6.44,-1.31 6.46,0.25 6.49,1.82 7.07,3.33 7.66,4.83 8.47,6.13 9.29,7.43 9.33,7.52 9.38,7.62 9.39,7.73 9.40,7.83 9.37,7.94 9.35,8.04 9.30,8.13 9.24,8.22 9.16,8.29 9.08,8.36 8.98,8.40 8.88,8.43 8.77,8.44 8.67,8.44 8.56,8.41 8.46,8.39 8.37,8.33 8.29,8.27 8.22,8.18 8.16,8.10 8.13,7.99 8.09,7.89 8.09,7.79 8.09,7.68 8.13,7.58 8.16,7.48 8.23,7.40 8.29,7.31 8.38,7.25 8.47,7.19 8.57,7.17 8.68,7.14 8.78,7.14 8.89,7.15 8.99,7.19 9.08,7.23 9.17,7.30 9.25,7.37 9.30,7.46 9.35,7.55 9.38,7.66 9.40,7.76 9.39,7.87 9.37,7.97 9.33,8.07 9.28,8.16 9.21,8.24 9.14,8.32 9.04,8.37 8.95,8.42 8.84,8.43 8.74,8.45 8.63,8.43 8.53,8.41 8.43,8.36 8.34,8.31 8.27,8.23 8.20,8.16 8.20,8.16 8.20,8.16 7.28,6.86 6.36,5.57 5.12,3.82 3.88,2.08 3.71,0.12 3.55,-1.83 3.86,-3.51 4.16,-5.19 4.92,-7.52 5.68,-9.85 6.28,-10.83 6.87,-11.81 6.97,-11.96 7.08,-12.10 7.21,-12.22 7.35,-12.33 7.51,-12.41 7.67,-12.49 7.84,-12.53 8.01,-12.57 8.19,-12.57 8.37,-12.57 8.54,-12.52 8.71,-12.48 8.87,-12.39 9.03,-12.30 9.16,-12.18 9.29,-12.06 9.39,-11.92 9.49,-11.77 9.55,-11.60 9.61,-11.43 9.63,-11.26 9.64,-11.08 9.62,-10.90 9.60,-10.73 9.53,-10.56 9.46,-10.39 9.28,-10.22 9.09,-10.04 8.22,-8.52 7.34,-7.00 6.37,-5.47 5.39,-3.93 4.14,-2.40 2.89,-0.87 1.65,-0.18 0.41,0.51 0.34,0.55 0.27,0.59 0.20,0.62 0.12,0.64 0.04,0.65 -0.03,0.65 -0.11,0.64 -0.18,0.62 -0.26,0.59 -0.33,0.56 -0.39,0.51 -0.45,0.46 -0.50,0.40 -0.55,0.34 -0.59,0.27 -0.62,0.20 -0.63,0.12 -0.65,0.04 -0.65,-0.03 -0.64,-0.11 -0.62,-0.18 -0.60,-0.26 -0.56,-0.33 -0.52,-0.39 -0.46,-0.45 -0.41,-0.51 -0.41,-0.51 L -0.41,-0.51 Z"/></g><g transform="translate(378.95196533203125 34.34321594238281) rotate(0 12.932342529296875 -1.5214462280273438)" stroke="none"><path fill="#1e1e1e" d="M -0.10,-0.64 Q -0.10,-0.64 1.14,-1.19 2.40,-1.73 4.26,-2.10 6.13,-2.46 8.08,-2.63 10.03,-2.80 12.10,-3.10 14.17,-3.40 16.36,-3.74 18.55,-4.08 20.21,-4.16 21.86,-4.24 23.88,-3.25 25.90,-2.26 25.98,-2.19 26.06,-2.12 26.12,-2.03 26.17,-1.94 26.19,-1.83 26.22,-1.73 26.21,-1.63 26.19,-1.52 26.15,-1.42 26.10,-1.33 26.03,-1.25 25.96,-1.17 25.86,-1.12 25.77,-1.07 25.67,-1.06 25.56,-1.04 25.46,-1.06 25.35,-1.07 25.26,-1.12 25.16,-1.17 25.09,-1.25 25.02,-1.33 24.97,-1.42 24.93,-1.52 24.92,-1.63 24.91,-1.73 24.93,-1.84 24.95,-1.94 25.01,-2.03 25.06,-2.12 25.14,-2.19 25.22,-2.26 25.32,-2.30 25.42,-2.34 25.53,-2.34 25.63,-2.35 25.74,-2.32 25.84,-2.29 25.93,-2.23 26.01,-2.17 26.08,-2.09 26.14,-2.00 26.18,-1.90 26.21,-1.80 26.21,-1.70 26.21,-1.59 26.18,-1.49 26.14,-1.39 26.08,-1.30 26.01,-1.22 25.92,-1.16 25.84,-1.10 25.73,-1.07 25.63,-1.04 25.53,-1.05 25.42,-1.05 25.32,-1.09 25.22,-1.13 25.22,-1.13 25.22,-1.13 23.66,-1.28 22.10,-1.42 20.56,-1.21 19.02,-1.01 16.79,-0.68 14.56,-0.35 12.40,-0.09 10.24,0.15 8.42,0.25 6.59,0.34 4.72,0.60 2.84,0.86 1.47,0.75 0.10,0.64 0.02,0.65 -0.05,0.65 -0.12,0.63 -0.20,0.62 -0.27,0.59 -0.34,0.55 -0.41,0.50 -0.47,0.45 -0.51,0.39 -0.56,0.33 -0.59,0.25 -0.63,0.18 -0.64,0.10 -0.65,0.02 -0.64,-0.04 -0.64,-0.12 -0.61,-0.20 -0.59,-0.27 -0.55,-0.34 -0.51,-0.41 -0.45,-0.46 -0.39,-0.52 -0.32,-0.56 -0.25,-0.60 -0.18,-0.62 -0.10,-0.64 -0.10,-0.64 L -0.10,-0.64 Z"/></g><g transform="translate(394.16650390625 33.58250427246094) rotate(0 -0.38037109375 10.650161743164062)" stroke="none"><path fill="#1e1e1e" d="M 0.65,0.06 Q 0.65,0.06 0.84,2.29 1.03,4.52 0.95,6.29 0.88,8.06 0.83,9.46 0.79,10.86 0.93,12.23 1.07,13.60 1.02,15.16 0.97,16.73 0.80,18.60 0.63,20.46 0.61,20.57 0.60,20.67 0.55,20.77 0.51,20.86 0.43,20.94 0.36,21.01 0.26,21.06 0.17,21.11 0.06,21.12 -0.04,21.14 -0.14,21.12 -0.24,21.10 -0.34,21.05 -0.43,20.99 -0.50,20.91 -0.57,20.84 -0.61,20.74 -0.66,20.64 -0.66,20.53 -0.67,20.43 -0.65,20.33 -0.62,20.22 -0.56,20.13 -0.51,20.04 -0.42,19.98 -0.34,19.91 -0.24,19.87 -0.14,19.84 -0.04,19.83 0.06,19.83 0.16,19.86 0.26,19.89 0.35,19.95 0.44,20.02 0.50,20.10 0.56,20.19 0.59,20.29 0.62,20.39 0.62,20.50 0.62,20.60 0.58,20.70 0.54,20.80 0.48,20.89 0.41,20.97 0.32,21.03 0.23,21.08 0.13,21.11 0.03,21.14 -0.07,21.13 -0.18,21.12 -0.27,21.08 -0.37,21.04 -0.45,20.96 -0.53,20.89 -0.58,20.80 -0.63,20.71 -0.65,20.60 -0.67,20.50 -0.67,20.50 -0.67,20.50 -0.95,18.68 -1.22,16.85 -1.44,15.41 -1.66,13.97 -1.93,12.38 -2.19,10.79 -2.16,9.34 -2.13,7.90 -2.01,6.06 -1.90,4.22 -1.27,2.08 -0.65,-0.06 -0.63,-0.14 -0.61,-0.21 -0.58,-0.29 -0.54,-0.36 -0.49,-0.42 -0.44,-0.48 -0.38,-0.52 -0.31,-0.57 -0.24,-0.60 -0.17,-0.63 -0.09,-0.64 -0.01,-0.65 0.06,-0.64 0.14,-0.64 0.21,-0.61 0.29,-0.58 0.35,-0.54 0.42,-0.50 0.47,-0.44 0.53,-0.38 0.57,-0.31 0.60,-0.24 0.62,-0.16 0.65,-0.09 0.65,-0.01 0.65,0.06 0.65,0.06 L 0.65,0.06 Z"/></g></svg>