<svg version="1.1" xmlns="http://www.w3.org/2000/svg" viewBox="0 0 344.0692138671875 116.6121826171875" width="344.0692138671875" height="116.6121826171875" filter="invert(93%) hue-rotate(180deg)" class="excalidraw-svg">
  <!-- svg-source:excalidraw -->
  
  <defs>
    <style class="style-fonts">
      @font-face {
        font-family: "Virgil";
        src: url("https://excalidraw.com/Virgil.woff2");
      }
      @font-face {
        font-family: "Cascadia";
        src: url("https://excalidraw.com/Cascadia.woff2");
      }
      @font-face {
        font-family: "Assistant";
        src: url("https://excalidraw.com/Assistant-Regular.woff2");
      }
    </style>
    
  </defs>
  <rect x="0" y="0" width="344.0692138671875" height="116.6121826171875" fill="#ffffff"/><g transform="translate(10 13.80364990234375) rotate(0 30.429046630859375 1.9018096923828125)" stroke="none"><path fill="#1e1e1e" d="M 0,-0.65 Q 0,-0.65 0.87,-0.93 1.75,-1.21 3.11,-1.03 4.46,-0.85 6.23,-0.81 7.99,-0.77 10.07,-0.77 12.14,-0.76 14.83,-0.55 17.53,-0.34 21.23,-0.27 24.93,-0.20 27.88,0.04 30.84,0.29 33.78,0.38 36.72,0.47 39.29,0.51 41.85,0.55 44.33,0.78 46.81,1.01 48.67,1.11 50.53,1.21 51.97,1.25 53.41,1.29 54.68,1.31 55.95,1.32 56.70,1.33 57.46,1.34 58.16,2.17 58.85,3.00 58.93,3.01 59.01,3.03 59.08,3.05 59.15,3.08 59.22,3.13 59.28,3.17 59.33,3.23 59.39,3.29 59.42,3.36 59.46,3.43 59.48,3.51 59.50,3.59 59.49,3.67 59.49,3.75 59.47,3.82 59.45,3.90 59.42,3.97 59.38,4.04 59.33,4.10 59.27,4.16 59.21,4.20 59.14,4.25 59.07,4.27 58.99,4.30 58.91,4.31 58.84,4.32 58.89,4.31 58.94,4.31 58.83,4.31 58.72,4.31 58.62,4.27 58.52,4.24 58.44,4.17 58.36,4.10 58.30,4.01 58.24,3.93 58.22,3.82 58.19,3.72 58.20,3.61 58.20,3.51 58.25,3.41 58.29,3.31 58.36,3.23 58.43,3.15 58.52,3.10 58.61,3.05 58.72,3.03 58.82,3.00 58.92,3.02 59.03,3.03 59.13,3.08 59.22,3.12 59.30,3.20 59.37,3.27 59.42,3.37 59.47,3.46 59.48,3.57 59.50,3.67 59.48,3.78 59.46,3.88 59.41,3.98 59.36,4.07 59.28,4.14 59.20,4.21 59.10,4.25 59.01,4.30 58.90,4.31 58.79,4.32 58.69,4.29 58.59,4.27 58.50,4.21 58.41,4.15 58.34,4.07 58.27,3.99 58.24,3.89 58.20,3.79 58.19,3.68 58.19,3.58 58.22,3.48 58.25,3.37 58.31,3.29 58.37,3.20 58.46,3.14 58.55,3.08 58.70,3.04 58.85,3.00 58.93,3.01 59.01,3.03 59.08,3.05 59.15,3.08 59.22,3.13 59.28,3.17 59.33,3.23 59.39,3.29 59.42,3.36 59.46,3.43 59.48,3.51 59.50,3.59 59.49,3.67 59.49,3.75 59.47,3.82 59.45,3.90 59.42,3.97 59.38,4.04 59.33,4.10 59.27,4.16 59.21,4.20 59.14,4.25 59.07,4.27 58.99,4.30 58.91,4.31 58.84,4.32 58.13,4.52 57.43,4.72 56.66,4.71 55.90,4.70 54.61,4.68 53.32,4.66 51.83,4.61 50.35,4.57 48.41,4.46 46.48,4.35 44.13,4.11 41.79,3.87 39.20,3.81 36.60,3.75 33.58,3.62 30.55,3.49 27.70,3.22 24.84,2.95 21.05,2.82 17.26,2.68 14.67,2.43 12.08,2.17 9.97,2.09 7.85,2.02 5.93,1.87 4.01,1.73 2.88,1.47 1.74,1.21 0.87,0.93 0,0.65 -0.07,0.64 -0.15,0.63 -0.23,0.60 -0.30,0.58 -0.37,0.53 -0.43,0.49 -0.48,0.43 -0.54,0.37 -0.57,0.30 -0.61,0.23 -0.63,0.15 -0.65,0.07 -0.65,-0.00 -0.65,-0.07 -0.63,-0.15 -0.61,-0.23 -0.57,-0.30 -0.54,-0.37 -0.48,-0.43 -0.43,-0.49 -0.37,-0.53 -0.30,-0.58 -0.23,-0.60 -0.15,-0.63 -0.07,-0.64 0.00,-0.65 0.00,-0.65 L 0,-0.65 Z"/></g><g transform="translate(13.80364990234375 57.165008544921875) rotate(0 31.18975830078125 -0.7607269287109375)" stroke="none"><path fill="#1e1e1e" d="M 0.12,-0.64 Q 0.12,-0.64 1.27,-0.73 2.42,-0.82 4.03,-1.03 5.64,-1.23 7.95,-1.33 10.27,-1.43 12.94,-1.70 15.61,-1.97 18.56,-2.10 21.51,-2.23 24.29,-2.30 27.07,-2.36 29.78,-2.40 32.50,-2.44 34.96,-2.47 37.43,-2.49 39.57,-2.50 41.71,-2.51 43.85,-2.74 45.98,-2.96 47.39,-3.06 48.80,-3.16 50.30,-3.21 51.80,-3.25 52.64,-3.27 53.49,-3.29 54.29,-3.30 55.10,-3.31 55.88,-3.31 56.66,-3.32 57.65,-3.32 58.63,-3.32 59.27,-3.32 59.91,-3.32 59.84,-3.06 59.77,-2.80 59.85,-2.79 59.92,-2.78 60.00,-2.75 60.07,-2.72 60.14,-2.68 60.20,-2.63 60.25,-2.57 60.31,-2.51 60.34,-2.44 60.38,-2.37 60.40,-2.30 60.42,-2.22 60.42,-2.14 60.42,-2.06 60.40,-1.98 60.38,-1.91 60.34,-1.84 60.31,-1.77 60.26,-1.71 60.20,-1.65 60.14,-1.60 60.07,-1.56 60.00,-1.53 59.92,-1.50 59.85,-1.49 59.77,-1.48 59.57,-1.55 59.38,-1.61 59.31,-1.69 59.23,-1.76 59.18,-1.86 59.14,-1.95 59.12,-2.06 59.11,-2.16 59.13,-2.27 59.15,-2.37 59.21,-2.46 59.26,-2.56 59.34,-2.63 59.42,-2.70 59.52,-2.74 59.61,-2.78 59.72,-2.79 59.83,-2.79 59.93,-2.77 60.03,-2.74 60.12,-2.68 60.21,-2.63 60.28,-2.54 60.34,-2.46 60.38,-2.36 60.41,-2.26 60.42,-2.15 60.42,-2.05 60.39,-1.94 60.35,-1.84 60.29,-1.76 60.23,-1.67 60.14,-1.61 60.05,-1.55 59.95,-1.52 59.85,-1.49 59.74,-1.49 59.64,-1.50 59.54,-1.53 59.44,-1.57 59.36,-1.64 59.28,-1.71 59.22,-1.80 59.16,-1.89 59.14,-1.99 59.11,-2.09 59.12,-2.20 59.13,-2.30 59.17,-2.40 59.22,-2.50 59.29,-2.58 59.36,-2.65 59.45,-2.71 59.55,-2.76 59.65,-2.78 59.75,-2.80 59.86,-2.78 59.97,-2.77 59.87,-2.78 59.77,-2.80 59.85,-2.79 59.92,-2.78 60.00,-2.75 60.07,-2.72 60.14,-2.68 60.20,-2.63 60.25,-2.57 60.31,-2.51 60.34,-2.44 60.38,-2.37 60.40,-2.30 60.42,-2.22 60.42,-2.14 60.42,-2.06 60.40,-1.98 60.38,-1.91 60.34,-1.84 60.31,-1.77 60.26,-1.71 60.20,-1.65 60.14,-1.60 60.07,-1.56 60.00,-1.53 59.92,-1.50 59.85,-1.49 59.77,-1.48 59.84,-0.60 59.91,0.28 59.28,0.28 58.64,0.28 57.65,0.28 56.67,0.28 55.90,0.28 55.13,0.28 54.35,0.29 53.56,0.30 52.73,0.31 51.89,0.33 50.47,0.36 49.04,0.40 47.69,0.48 46.33,0.57 44.03,0.79 41.72,1.00 39.58,1.00 37.44,0.99 34.98,0.98 32.52,0.98 29.82,0.97 27.12,0.97 24.37,0.99 21.62,1.01 18.76,1.09 15.89,1.16 13.12,1.38 10.34,1.59 8.09,1.60 5.84,1.60 3.89,1.65 1.94,1.70 0.90,1.17 -0.12,0.64 -0.20,0.61 -0.27,0.59 -0.34,0.55 -0.41,0.51 -0.46,0.45 -0.52,0.39 -0.56,0.32 -0.60,0.25 -0.62,0.18 -0.64,0.10 -0.65,0.02 -0.65,-0.05 -0.63,-0.12 -0.62,-0.20 -0.59,-0.27 -0.55,-0.34 -0.50,-0.41 -0.45,-0.47 -0.39,-0.51 -0.33,-0.56 -0.25,-0.59 -0.18,-0.63 -0.10,-0.64 -0.02,-0.65 0.04,-0.64 0.12,-0.64 0.12,-0.64 L 0.12,-0.64 Z"/></g><g transform="translate(68.575927734375 13.80364990234375) rotate(0 -0.000030517578125 19.39849853515625)" stroke="none"><path fill="#1e1e1e" d="M 0.64,-0.12 Q 0.64,-0.12 1.22,0.89 1.81,1.91 1.94,3.33 2.07,4.76 2.14,6.46 2.21,8.15 2.04,10.48 1.87,12.80 1.81,15.24 1.75,17.68 1.50,19.90 1.25,22.12 1.16,24.50 1.07,26.89 1.03,28.78 0.99,30.68 0.97,32.14 0.95,33.60 0.94,34.44 0.94,35.28 0.41,37.29 -0.10,39.30 -0.12,39.41 -0.13,39.51 -0.18,39.61 -0.23,39.70 -0.31,39.78 -0.39,39.85 -0.48,39.89 -0.58,39.94 -0.69,39.95 -0.79,39.96 -0.90,39.94 -1.00,39.91 -1.09,39.86 -1.18,39.80 -1.25,39.72 -1.32,39.64 -1.36,39.54 -1.40,39.44 -1.40,39.34 -1.41,39.23 -1.38,39.13 -1.35,39.03 -1.29,38.94 -1.23,38.85 -1.15,38.79 -1.06,38.72 -0.96,38.69 -0.86,38.66 -0.76,38.66 -0.65,38.66 -0.55,38.69 -0.45,38.72 -0.36,38.79 -0.28,38.85 -0.22,38.94 -0.16,39.03 -0.13,39.13 -0.10,39.23 -0.11,39.34 -0.11,39.45 -0.15,39.54 -0.19,39.64 -0.26,39.72 -0.33,39.81 -0.42,39.86 -0.51,39.91 -0.62,39.94 -0.72,39.96 -0.83,39.95 -0.93,39.94 -1.03,39.89 -1.12,39.85 -1.20,39.77 -1.28,39.70 -1.33,39.61 -1.38,39.51 -1.40,39.41 -1.41,39.30 -1.41,39.30 -1.41,39.30 -1.92,37.28 -2.44,35.25 -2.43,34.40 -2.42,33.55 -2.39,32.08 -2.37,30.60 -2.32,28.67 -2.27,26.74 -2.15,24.23 -2.02,21.73 -1.76,19.65 -1.50,17.57 -1.39,15.04 -1.27,12.52 -1.04,10.37 -0.81,8.22 -0.81,6.59 -0.82,4.96 -0.88,3.71 -0.93,2.46 -0.79,1.29 -0.64,0.12 -0.64,0.04 -0.65,-0.02 -0.64,-0.10 -0.62,-0.18 -0.59,-0.25 -0.56,-0.33 -0.51,-0.39 -0.47,-0.45 -0.41,-0.50 -0.34,-0.55 -0.27,-0.59 -0.20,-0.62 -0.12,-0.63 -0.05,-0.65 0.02,-0.65 0.10,-0.64 0.18,-0.62 0.25,-0.60 0.32,-0.56 0.39,-0.52 0.45,-0.46 0.51,-0.41 0.55,-0.34 0.59,-0.27 0.61,-0.20 0.64,-0.12 0.64,-0.12 L 0.64,-0.12 Z"/></g><g transform="translate(65.53302001953125 10.7607421875) rotate(0 18.257415771484375 21.300308227539062)" stroke="none"><path fill="#1e1e1e" d="M -0.15,-0.63 Q -0.15,-0.63 0.68,-1.03 1.52,-1.42 2.93,-1.36 4.35,-1.30 5.72,-1.29 7.09,-1.29 8.65,-1.07 10.20,-0.86 11.54,-0.54 12.88,-0.23 14.66,0.57 16.43,1.38 18.27,2.37 20.11,3.35 22.57,4.38 25.02,5.40 27.28,6.77 29.55,8.15 31.43,9.63 33.32,11.11 34.40,12.23 35.49,13.36 36.30,15.13 37.11,16.90 37.24,18.70 37.37,20.50 37.18,22.17 37.00,23.83 36.69,25.42 36.39,27.01 35.54,28.76 34.69,30.51 33.91,31.87 33.12,33.23 32.07,34.56 31.03,35.89 29.85,36.95 28.68,38.02 27.05,39.16 25.41,40.30 23.82,41.23 22.22,42.16 20.31,42.84 18.40,43.51 17.00,43.99 15.60,44.46 14.20,44.70 12.79,44.93 11.76,45.01 10.72,45.09 9.38,45.07 8.03,45.04 7.26,44.99 6.48,44.93 4.58,44.47 2.68,44.01 2.57,43.99 2.47,43.98 2.38,43.93 2.28,43.88 2.21,43.80 2.13,43.73 2.09,43.63 2.04,43.53 2.03,43.43 2.02,43.32 2.04,43.22 2.07,43.11 2.12,43.02 2.17,42.93 2.26,42.86 2.34,42.79 2.43,42.75 2.53,42.71 2.64,42.71 2.74,42.70 2.85,42.73 2.95,42.76 3.04,42.82 3.13,42.88 3.19,42.96 3.26,43.04 3.29,43.15 3.32,43.25 3.32,43.35 3.33,43.46 3.29,43.56 3.26,43.66 3.19,43.74 3.13,43.83 3.04,43.89 2.95,43.95 2.85,43.98 2.75,44.01 2.64,44.00 2.54,44.00 2.44,43.96 2.34,43.92 2.26,43.85 2.18,43.78 2.12,43.69 2.07,43.60 2.04,43.50 2.02,43.39 2.03,43.29 2.04,43.18 2.09,43.08 2.13,42.99 2.20,42.91 2.28,42.83 2.37,42.78 2.46,42.73 2.57,42.72 2.67,42.70 2.67,42.70 2.67,42.70 4.55,42.22 6.42,41.73 7.18,41.65 7.93,41.56 9.16,41.47 10.39,41.37 11.29,41.28 12.19,41.19 13.29,41.02 14.39,40.85 15.78,40.39 17.18,39.92 18.76,39.40 20.34,38.88 21.81,38.04 23.28,37.19 24.75,36.21 26.21,35.23 27.19,34.39 28.17,33.55 29.09,32.46 30.00,31.38 30.76,30.13 31.52,28.88 32.24,27.58 32.96,26.29 33.26,24.84 33.56,23.38 33.77,22.00 33.97,20.61 34.00,19.35 34.03,18.09 33.57,16.79 33.11,15.48 32.24,14.50 31.36,13.53 29.66,12.13 27.96,10.72 25.90,9.43 23.84,8.14 21.28,7.01 18.71,5.87 16.97,4.87 15.23,3.87 13.73,3.10 12.23,2.32 11.01,1.99 9.78,1.66 8.39,1.40 7.00,1.13 5.56,1.03 4.12,0.93 3.05,0.74 1.97,0.55 1.06,0.59 0.15,0.63 0.08,0.64 0.00,0.65 -0.07,0.64 -0.15,0.63 -0.22,0.61 -0.30,0.58 -0.36,0.53 -0.43,0.49 -0.48,0.43 -0.53,0.37 -0.57,0.30 -0.61,0.23 -0.63,0.15 -0.65,0.08 -0.65,0.00 -0.65,-0.07 -0.63,-0.15 -0.61,-0.23 -0.57,-0.30 -0.54,-0.37 -0.48,-0.43 -0.43,-0.49 -0.37,-0.53 -0.30,-0.58 -0.23,-0.60 -0.15,-0.63 -0.15,-0.63 L -0.15,-0.63 Z"/></g><g transform="translate(102.80859375 31.300323486328125) rotate(0 1.14105224609375 1.1410980224609375)" stroke="none"><path fill="#1e1e1e" d="M -0.46,0.46 Q -0.46,0.46 -1.17,0.32 -1.88,0.17 -2.41,0.43 -2.94,0.69 -3.51,0.94 -4.08,1.19 -3.91,1.73 -3.74,2.26 -3.08,2.92 -2.42,3.59 -1.52,3.94 -0.63,4.29 0.17,4.35 0.98,4.40 1.60,4.23 2.22,4.06 3.17,3.78 4.13,3.50 4.62,3.22 5.11,2.94 5.45,2.31 5.80,1.69 5.41,0.86 5.02,0.03 4.42,-0.63 3.82,-1.30 3.11,-1.60 2.40,-1.91 1.76,-1.93 1.11,-1.95 0.36,-1.97 -0.39,-2.00 -1.17,-1.82 -1.96,-1.63 -2.90,-0.59 -3.84,0.44 -3.87,0.54 -3.91,0.64 -3.97,0.73 -4.04,0.81 -4.13,0.87 -4.21,0.93 -4.32,0.95 -4.42,0.98 -4.53,0.98 -4.63,0.97 -4.73,0.93 -4.83,0.89 -4.91,0.82 -4.99,0.75 -5.04,0.66 -5.10,0.57 -5.12,0.46 -5.14,0.36 -5.13,0.25 -5.12,0.15 -5.07,0.05 -5.03,-0.03 -4.95,-0.11 -4.88,-0.19 -4.79,-0.24 -4.69,-0.28 -4.59,-0.30 -4.48,-0.32 -4.38,-0.30 -4.27,-0.28 -4.18,-0.23 -4.09,-0.18 -4.01,-0.10 -3.94,-0.03 -3.90,0.06 -3.85,0.16 -3.84,0.26 -3.83,0.37 -3.85,0.47 -3.88,0.58 -3.93,0.67 -3.99,0.76 -4.07,0.83 -4.15,0.89 -4.25,0.93 -4.35,0.97 -4.46,0.98 -4.56,0.98 -4.66,0.95 -4.77,0.92 -4.85,0.86 -4.94,0.80 -5.01,0.72 -5.07,0.63 -5.10,0.53 -5.14,0.43 -5.13,0.32 -5.13,0.22 -5.13,0.22 -5.13,0.22 -4.79,-1.87 -4.44,-3.98 -3.57,-4.51 -2.69,-5.05 -1.48,-5.28 -0.28,-5.51 0.56,-5.47 1.41,-5.44 2.48,-5.32 3.54,-5.19 4.20,-4.92 4.86,-4.66 5.61,-4.10 6.36,-3.54 6.76,-3.05 7.16,-2.56 7.56,-1.96 7.96,-1.35 8.29,-0.55 8.63,0.24 8.71,1.48 8.78,2.72 8.44,3.44 8.10,4.16 7.38,4.92 6.66,5.68 5.84,6.09 5.03,6.50 3.96,6.82 2.89,7.13 1.83,7.33 0.76,7.53 -0.32,7.43 -1.41,7.34 -2.35,7.05 -3.29,6.76 -4.06,6.19 -4.84,5.62 -5.29,5.07 -5.74,4.52 -6.28,3.50 -6.81,2.47 -6.81,1.87 -6.80,1.27 -6.63,0.43 -6.46,-0.40 -5.65,-1.05 -4.83,-1.71 -3.90,-2.06 -2.97,-2.42 -2.17,-2.52 -1.37,-2.62 -0.62,-2.27 0.13,-1.92 0.29,-1.19 0.46,-0.46 0.51,-0.40 0.56,-0.33 0.59,-0.26 0.62,-0.19 0.64,-0.11 0.65,-0.03 0.65,0.03 0.64,0.11 0.62,0.19 0.59,0.26 0.55,0.33 0.51,0.40 0.46,0.46 0.40,0.51 0.33,0.55 0.26,0.59 0.19,0.62 0.11,0.64 0.03,0.65 -0.03,0.65 -0.11,0.64 -0.19,0.62 -0.26,0.59 -0.33,0.56 -0.40,0.51 -0.46,0.46 -0.46,0.46 L -0.46,0.46 Z"/></g><g transform="translate(112.697998046875 32.061065673828125) rotate(0 10.269805908203125 1.141082763671875)" stroke="none"><path fill="#1e1e1e" d="M 0.46,0.46 Q 0.46,0.46 0.23,0.84 0.01,1.23 0.18,0.58 0.34,-0.06 0.89,-0.05 1.43,-0.04 2.32,-0.04 3.22,-0.05 3.83,-0.05 4.43,-0.05 5.34,-0.06 6.25,-0.07 7.10,-0.08 7.94,-0.08 8.78,0.17 9.62,0.43 10.58,0.51 11.54,0.58 12.15,0.59 12.77,0.60 13.47,0.60 14.17,0.61 14.91,0.61 15.64,0.61 16.17,0.61 16.71,0.60 19.26,1.11 21.81,1.62 21.91,1.64 22.01,1.65 22.11,1.70 22.20,1.75 22.28,1.83 22.35,1.91 22.39,2.01 22.44,2.10 22.45,2.21 22.46,2.31 22.44,2.42 22.42,2.52 22.36,2.61 22.31,2.70 22.22,2.77 22.14,2.84 22.04,2.88 21.95,2.92 21.84,2.92 21.73,2.93 21.63,2.90 21.53,2.87 21.44,2.81 21.35,2.75 21.29,2.67 21.22,2.58 21.19,2.48 21.16,2.38 21.16,2.28 21.16,2.17 21.19,2.07 21.23,1.97 21.29,1.88 21.35,1.80 21.44,1.74 21.53,1.68 21.63,1.65 21.73,1.62 21.84,1.63 21.95,1.64 22.05,1.68 22.14,1.71 22.22,1.78 22.31,1.85 22.36,1.94 22.42,2.03 22.44,2.14 22.46,2.24 22.45,2.35 22.44,2.45 22.39,2.55 22.35,2.65 22.28,2.72 22.20,2.80 22.11,2.85 22.01,2.90 21.91,2.92 21.80,2.93 21.81,2.93 21.81,2.93 19.25,3.44 16.70,3.95 16.16,3.94 15.63,3.94 14.88,3.93 14.14,3.93 13.41,3.92 12.68,3.90 11.98,3.88 11.29,3.86 10.73,3.81 10.18,3.76 9.02,3.44 7.86,3.12 7.05,3.11 6.24,3.11 5.32,3.09 4.40,3.08 3.79,3.06 3.17,3.05 2.22,3.02 1.27,2.98 0.55,2.93 -0.16,2.87 -0.81,2.57 -1.46,2.28 -1.61,1.40 -1.76,0.51 -1.11,0.02 -0.46,-0.46 -0.40,-0.51 -0.33,-0.56 -0.26,-0.59 -0.19,-0.62 -0.11,-0.64 -0.03,-0.65 0.03,-0.65 0.11,-0.64 0.19,-0.62 0.26,-0.59 0.33,-0.55 0.40,-0.51 0.46,-0.46 0.51,-0.40 0.55,-0.33 0.59,-0.26 0.62,-0.19 0.64,-0.11 0.65,-0.03 0.65,0.03 0.64,0.11 0.62,0.19 0.59,0.26 0.56,0.33 0.51,0.40 0.46,0.46 0.46,0.46 L 0.46,0.46 Z"/></g><g transform="translate(33.58251953125 95.2012939453125) rotate(0 -0.760711669921875 5.7054443359375)" stroke="none"><path fill="#1e1e1e" d="M 0.64,0.12 Q 0.64,0.12 0.71,1.28 0.79,2.43 0.47,3.60 0.16,4.76 0.04,5.80 -0.08,6.83 -0.46,8.87 -0.85,10.90 -0.87,11.01 -0.89,11.11 -0.94,11.21 -0.99,11.30 -1.07,11.37 -1.15,11.44 -1.25,11.48 -1.34,11.52 -1.45,11.53 -1.56,11.54 -1.66,11.51 -1.76,11.49 -1.85,11.43 -1.94,11.37 -2.01,11.29 -2.07,11.21 -2.11,11.11 -2.15,11.01 -2.15,10.90 -2.15,10.80 -2.12,10.69 -2.09,10.59 -2.03,10.51 -1.96,10.42 -1.88,10.36 -1.79,10.30 -1.69,10.27 -1.59,10.23 -1.48,10.24 -1.38,10.24 -1.28,10.28 -1.18,10.31 -1.09,10.38 -1.01,10.45 -0.95,10.54 -0.90,10.63 -0.87,10.73 -0.85,10.83 -0.86,10.94 -0.86,11.05 -0.91,11.14 -0.95,11.24 -1.02,11.32 -1.09,11.40 -1.18,11.45 -1.28,11.50 -1.38,11.52 -1.48,11.54 -1.59,11.53 -1.70,11.51 -1.79,11.47 -1.89,11.42 -1.96,11.34 -2.04,11.27 -2.08,11.17 -2.13,11.08 -2.14,10.97 -2.16,10.87 -2.16,10.87 -2.16,10.87 -2.36,8.71 -2.56,6.54 -2.42,5.31 -2.29,4.08 -1.97,3.01 -1.66,1.94 -1.15,0.90 -0.64,-0.12 -0.61,-0.20 -0.59,-0.27 -0.55,-0.34 -0.51,-0.41 -0.45,-0.46 -0.39,-0.52 -0.32,-0.56 -0.25,-0.60 -0.18,-0.62 -0.10,-0.64 -0.02,-0.65 0.05,-0.65 0.12,-0.63 0.20,-0.62 0.27,-0.59 0.34,-0.55 0.41,-0.50 0.47,-0.45 0.51,-0.39 0.56,-0.33 0.59,-0.25 0.63,-0.18 0.64,-0.10 0.65,-0.02 0.64,0.04 0.64,0.12 0.64,0.12 L 0.64,0.12 Z"/></g><g transform="translate(32.06109619140625 99.00491333007812) rotate(0 6.466156005859375 -1.5214385986328125)" stroke="none"><path fill="#1e1e1e" d="M -0.65,0 Q -0.65,0 -0.75,-1.09 -0.85,-2.18 -0.92,-2.87 -1.00,-3.55 -0.99,-3.67 -0.97,-3.79 -0.93,-3.90 -0.89,-4.02 -0.82,-4.12 -0.75,-4.22 -0.66,-4.30 -0.57,-4.38 -0.46,-4.43 -0.35,-4.49 -0.23,-4.52 -0.12,-4.55 0.00,-4.55 0.12,-4.55 0.23,-4.52 0.35,-4.49 0.46,-4.43 0.57,-4.38 0.66,-4.30 0.75,-4.22 0.82,-4.12 0.89,-4.02 0.93,-3.90 0.97,-3.79 0.99,-3.67 1.00,-3.55 2.03,-2.74 3.07,-1.92 3.96,-0.97 4.86,-0.02 5.47,0.60 6.08,1.24 6.52,1.70 6.97,2.17 7.68,2.10 8.39,2.03 8.81,1.27 9.23,0.51 9.89,-0.85 10.56,-2.23 11.40,-4.41 12.24,-6.60 12.27,-6.70 12.30,-6.80 12.36,-6.89 12.42,-6.98 12.50,-7.04 12.59,-7.11 12.69,-7.14 12.79,-7.17 12.89,-7.17 13.00,-7.17 13.10,-7.14 13.20,-7.10 13.29,-7.04 13.37,-6.97 13.43,-6.88 13.49,-6.80 13.52,-6.69 13.54,-6.59 13.54,-6.49 13.53,-6.38 13.49,-6.28 13.45,-6.18 13.38,-6.10 13.31,-6.02 13.22,-5.97 13.13,-5.91 13.03,-5.89 12.92,-5.87 12.82,-5.88 12.71,-5.89 12.62,-5.94 12.52,-5.98 12.44,-6.06 12.37,-6.13 12.32,-6.22 12.27,-6.32 12.25,-6.42 12.23,-6.53 12.25,-6.63 12.27,-6.74 12.32,-6.83 12.37,-6.92 12.45,-7.00 12.53,-7.07 12.62,-7.11 12.72,-7.16 12.82,-7.17 12.93,-7.18 13.03,-7.16 13.14,-7.13 13.23,-7.08 13.32,-7.02 13.39,-6.94 13.46,-6.86 13.49,-6.76 13.53,-6.66 13.54,-6.56 13.54,-6.45 13.54,-6.45 13.54,-6.45 13.31,-3.71 13.07,-0.97 12.24,0.62 11.40,2.23 10.34,3.33 9.28,4.43 8.19,4.57 7.10,4.71 6.20,4.34 5.30,3.98 4.79,3.46 4.28,2.94 3.67,2.28 3.06,1.63 2.11,0.58 1.17,-0.47 0.65,-1.20 0.13,-1.94 -0.43,-2.74 -1.00,-3.55 -0.99,-3.67 -0.97,-3.79 -0.93,-3.90 -0.89,-4.02 -0.82,-4.12 -0.75,-4.22 -0.66,-4.30 -0.57,-4.38 -0.46,-4.43 -0.35,-4.49 -0.23,-4.52 -0.12,-4.55 -0.00,-4.55 0.12,-4.55 0.23,-4.52 0.35,-4.49 0.46,-4.43 0.57,-4.38 0.66,-4.30 0.75,-4.22 0.82,-4.12 0.89,-4.02 0.93,-3.90 0.97,-3.79 0.99,-3.67 1.00,-3.55 0.92,-2.87 0.85,-2.18 0.75,-1.09 0.65,0 0.64,0.07 0.63,0.15 0.60,0.23 0.58,0.30 0.53,0.37 0.49,0.43 0.43,0.48 0.37,0.54 0.30,0.57 0.23,0.61 0.15,0.63 0.07,0.65 -0.00,0.65 -0.07,0.65 -0.15,0.63 -0.23,0.61 -0.30,0.57 -0.37,0.54 -0.43,0.48 -0.49,0.43 -0.53,0.37 -0.58,0.30 -0.60,0.23 -0.63,0.15 -0.64,0.07 -0.65,-0.00 -0.65,-0.00 L -0.65,0 Z"/></g><g transform="translate(48.03631591796875 102.80856323242188) rotate(0 4.564361572265625 -4.944732666015625)" stroke="none"><path fill="#1e1e1e" d="M -0.54,-0.36 Q -0.54,-0.36 -0.29,-1.14 -0.04,-1.91 0.26,-2.78 0.58,-3.65 0.95,-4.52 1.33,-5.38 1.93,-6.46 2.53,-7.55 3.02,-8.26 3.51,-8.97 4.07,-9.77 4.63,-10.57 6.02,-10.66 7.40,-10.75 8.17,-9.77 8.94,-8.79 9.23,-7.57 9.51,-6.35 9.75,-5.28 9.99,-4.22 9.19,-1.89 8.39,0.44 8.34,0.53 8.29,0.63 8.22,0.70 8.14,0.78 8.05,0.82 7.95,0.87 7.85,0.88 7.74,0.90 7.64,0.88 7.53,0.86 7.44,0.80 7.35,0.75 7.28,0.67 7.21,0.59 7.17,0.49 7.13,0.40 7.12,0.29 7.11,0.18 7.14,0.08 7.16,-0.01 7.22,-0.10 7.28,-0.19 7.36,-0.26 7.44,-0.32 7.54,-0.36 7.64,-0.39 7.75,-0.40 7.86,-0.40 7.96,-0.37 8.06,-0.34 8.14,-0.27 8.23,-0.21 8.29,-0.12 8.35,-0.04 8.38,0.05 8.41,0.16 8.41,0.26 8.41,0.37 8.37,0.47 8.33,0.57 8.27,0.65 8.20,0.73 8.11,0.79 8.02,0.85 7.92,0.87 7.81,0.90 7.71,0.89 7.60,0.88 7.50,0.83 7.41,0.79 7.33,0.72 7.25,0.65 7.20,0.56 7.15,0.46 7.13,0.36 7.11,0.25 7.12,0.15 7.14,0.04 7.14,0.04 7.14,0.04 7.24,-1.75 7.35,-3.55 6.98,-4.66 6.61,-5.76 6.49,-6.57 6.37,-7.37 6.33,-7.99 6.29,-8.61 6.00,-7.98 5.72,-7.36 5.27,-6.77 4.81,-6.19 4.20,-5.25 3.59,-4.32 3.19,-3.51 2.78,-2.70 2.28,-1.70 1.79,-0.70 1.16,-0.17 0.54,0.36 0.49,0.42 0.44,0.48 0.37,0.53 0.31,0.57 0.24,0.60 0.16,0.63 0.08,0.64 0.01,0.65 -0.06,0.64 -0.14,0.64 -0.22,0.61 -0.29,0.58 -0.36,0.54 -0.42,0.49 -0.48,0.44 -0.53,0.38 -0.57,0.31 -0.61,0.24 -0.63,0.16 -0.65,0.08 -0.65,0.01 -0.65,-0.06 -0.63,-0.14 -0.61,-0.22 -0.58,-0.29 -0.54,-0.36 -0.54,-0.36 L -0.54,-0.36 Z"/></g><g transform="translate(51.0792236328125 99.76565551757812) rotate(0 4.564361572265625 -0.38037109375)" stroke="none"><path fill="#1e1e1e" d="M -0.12,-0.64 Q -0.12,-0.64 0.90,-1.14 1.94,-1.64 2.67,-1.72 3.39,-1.79 4.40,-1.66 5.41,-1.54 6.93,-1.47 8.45,-1.40 8.55,-1.39 8.66,-1.37 8.75,-1.32 8.85,-1.27 8.92,-1.20 9.00,-1.12 9.04,-1.03 9.09,-0.93 9.10,-0.83 9.11,-0.72 9.09,-0.62 9.07,-0.51 9.02,-0.42 8.97,-0.33 8.89,-0.26 8.81,-0.19 8.71,-0.15 8.61,-0.11 8.50,-0.10 8.40,-0.09 8.30,-0.12 8.19,-0.14 8.10,-0.20 8.01,-0.26 7.95,-0.34 7.88,-0.43 7.85,-0.53 7.81,-0.63 7.81,-0.74 7.81,-0.84 7.84,-0.94 7.87,-1.04 7.94,-1.13 8.00,-1.21 8.09,-1.28 8.17,-1.34 8.28,-1.37 8.38,-1.40 8.48,-1.39 8.59,-1.39 8.69,-1.35 8.79,-1.31 8.87,-1.25 8.95,-1.18 9.01,-1.09 9.06,-1.00 9.09,-0.89 9.11,-0.79 9.10,-0.69 9.09,-0.58 9.05,-0.48 9.01,-0.39 8.94,-0.31 8.86,-0.23 8.77,-0.18 8.68,-0.13 8.57,-0.11 8.47,-0.09 8.47,-0.09 8.47,-0.09 6.97,0.02 5.48,0.14 4.59,0.34 3.71,0.54 3.07,0.65 2.42,0.77 1.27,0.70 0.12,0.64 0.04,0.64 -0.02,0.65 -0.10,0.64 -0.18,0.62 -0.25,0.59 -0.33,0.56 -0.39,0.51 -0.45,0.47 -0.50,0.41 -0.55,0.34 -0.59,0.27 -0.62,0.20 -0.63,0.12 -0.65,0.05 -0.65,-0.02 -0.64,-0.10 -0.62,-0.18 -0.60,-0.25 -0.56,-0.32 -0.52,-0.39 -0.46,-0.45 -0.41,-0.51 -0.34,-0.55 -0.27,-0.59 -0.20,-0.61 -0.12,-0.64 -0.12,-0.64 L -0.12,-0.64 Z"/></g><g transform="translate(61.7293701171875 93.67984008789062) rotate(0 0.38037109375 4.183990478515625)" stroke="none"><path fill="#1e1e1e" d="M 0.65,-0.09 Q 0.65,-0.09 1.20,1.39 1.75,2.87 1.85,3.76 1.96,4.65 1.68,6.32 1.40,7.99 1.39,8.10 1.37,8.20 1.33,8.30 1.28,8.39 1.20,8.47 1.13,8.54 1.03,8.59 0.94,8.64 0.83,8.65 0.73,8.67 0.62,8.65 0.52,8.63 0.43,8.58 0.34,8.52 0.26,8.44 0.19,8.37 0.15,8.27 0.11,8.17 0.10,8.06 0.09,7.96 0.12,7.86 0.14,7.75 0.20,7.66 0.26,7.57 0.34,7.51 0.42,7.44 0.52,7.40 0.62,7.37 0.73,7.36 0.83,7.36 0.93,7.39 1.04,7.42 1.12,7.48 1.21,7.54 1.27,7.63 1.33,7.72 1.36,7.82 1.40,7.92 1.39,8.03 1.39,8.13 1.35,8.23 1.32,8.33 1.25,8.41 1.18,8.50 1.10,8.56 1.01,8.61 0.90,8.64 0.80,8.66 0.69,8.66 0.59,8.65 0.49,8.61 0.39,8.56 0.31,8.49 0.23,8.42 0.18,8.33 0.13,8.24 0.11,8.13 0.09,8.03 0.09,8.03 0.09,8.03 -0.31,6.48 -0.71,4.94 -0.79,4.09 -0.87,3.24 -0.76,1.67 -0.65,0.09 -0.65,0.01 -0.65,-0.06 -0.63,-0.14 -0.61,-0.21 -0.58,-0.29 -0.54,-0.36 -0.49,-0.42 -0.44,-0.48 -0.38,-0.52 -0.31,-0.57 -0.24,-0.60 -0.17,-0.63 -0.09,-0.64 -0.01,-0.65 0.06,-0.64 0.14,-0.64 0.21,-0.61 0.29,-0.58 0.35,-0.54 0.42,-0.50 0.47,-0.44 0.53,-0.38 0.57,-0.31 0.60,-0.24 0.62,-0.16 0.65,-0.09 0.65,-0.09 L 0.65,-0.09 Z"/></g><g transform="translate(60.9686279296875 95.96200561523438) rotate(0 6.4661865234375 1.5214691162109375)" stroke="none"><path fill="#1e1e1e" d="M 0.41,-0.51 Q 0.41,-0.51 1.68,0.13 2.95,0.78 3.66,1.37 4.37,1.97 5.14,2.66 5.91,3.34 6.58,3.75 7.25,4.17 7.99,4.22 8.72,4.28 9.18,3.15 9.64,2.02 9.90,1.15 10.16,0.28 10.86,-1.18 11.56,-2.65 11.56,-2.75 11.56,-2.86 11.60,-2.96 11.63,-3.06 11.70,-3.14 11.76,-3.23 11.85,-3.29 11.94,-3.35 12.04,-3.37 12.15,-3.40 12.25,-3.39 12.36,-3.39 12.46,-3.35 12.56,-3.31 12.64,-3.24 12.72,-3.17 12.77,-3.08 12.82,-2.98 12.85,-2.88 12.87,-2.78 12.86,-2.67 12.84,-2.57 12.80,-2.47 12.75,-2.37 12.68,-2.30 12.60,-2.22 12.51,-2.17 12.42,-2.12 12.31,-2.11 12.21,-2.09 12.10,-2.11 12.00,-2.13 11.90,-2.18 11.81,-2.23 11.74,-2.31 11.66,-2.38 11.62,-2.48 11.58,-2.58 11.57,-2.68 11.56,-2.79 11.58,-2.89 11.60,-3.00 11.66,-3.09 11.72,-3.18 11.80,-3.24 11.88,-3.31 11.98,-3.35 12.08,-3.39 12.18,-3.39 12.29,-3.40 12.39,-3.37 12.49,-3.34 12.58,-3.28 12.67,-3.22 12.73,-3.13 12.79,-3.05 12.83,-2.95 12.86,-2.85 12.86,-2.85 12.86,-2.85 13.07,-0.82 13.29,1.20 12.95,2.37 12.60,3.53 11.52,5.15 10.44,6.76 9.30,7.00 8.17,7.24 6.96,6.86 5.75,6.48 4.92,5.87 4.10,5.26 3.41,4.57 2.72,3.88 2.07,3.30 1.41,2.71 0.50,1.61 -0.41,0.51 -0.46,0.45 -0.52,0.39 -0.56,0.33 -0.60,0.26 -0.62,0.18 -0.64,0.11 -0.65,0.03 -0.65,-0.04 -0.63,-0.12 -0.62,-0.20 -0.59,-0.27 -0.55,-0.34 -0.50,-0.40 -0.45,-0.46 -0.39,-0.51 -0.33,-0.56 -0.26,-0.59 -0.18,-0.62 -0.11,-0.64 -0.03,-0.65 0.04,-0.65 0.12,-0.64 0.20,-0.62 0.27,-0.59 0.34,-0.55 0.41,-0.51 0.41,-0.51 L 0.41,-0.51 Z"/></g><g transform="translate(80.74749755859375 92.91912841796875) rotate(0 0 4.9447174072265625)" stroke="none"><path fill="#1e1e1e" d="M 0.65,0 Q 0.65,0 1.00,0.87 1.35,1.74 1.37,2.99 1.39,4.24 1.38,5.21 1.37,6.17 1.01,7.85 0.65,9.52 0.63,9.63 0.62,9.73 0.57,9.82 0.52,9.92 0.44,9.99 0.36,10.06 0.27,10.11 0.17,10.15 0.07,10.16 -0.03,10.18 -0.13,10.15 -0.24,10.13 -0.33,10.08 -0.42,10.02 -0.49,9.94 -0.56,9.86 -0.60,9.76 -0.64,9.66 -0.64,9.56 -0.65,9.45 -0.62,9.35 -0.59,9.24 -0.53,9.16 -0.47,9.07 -0.39,9.00 -0.30,8.94 -0.20,8.91 -0.10,8.87 0.00,8.87 0.10,8.87 0.20,8.91 0.30,8.94 0.39,9.00 0.47,9.07 0.53,9.16 0.59,9.24 0.62,9.35 0.65,9.45 0.64,9.56 0.64,9.66 0.60,9.76 0.56,9.86 0.49,9.94 0.42,10.02 0.33,10.08 0.24,10.13 0.13,10.15 0.03,10.18 -0.07,10.16 -0.17,10.15 -0.27,10.11 -0.36,10.06 -0.44,9.99 -0.52,9.92 -0.57,9.82 -0.62,9.73 -0.63,9.63 -0.65,9.52 -0.65,9.52 -0.65,9.52 -1.01,7.85 -1.37,6.17 -1.38,5.21 -1.39,4.24 -1.37,2.99 -1.35,1.74 -1.00,0.87 -0.65,0 -0.64,-0.07 -0.63,-0.15 -0.60,-0.23 -0.58,-0.30 -0.53,-0.37 -0.49,-0.43 -0.43,-0.48 -0.37,-0.54 -0.30,-0.57 -0.23,-0.61 -0.15,-0.63 -0.07,-0.65 0.00,-0.65 0.07,-0.65 0.15,-0.63 0.23,-0.61 0.30,-0.57 0.37,-0.54 0.43,-0.48 0.49,-0.43 0.53,-0.37 0.58,-0.30 0.60,-0.23 0.63,-0.15 0.64,-0.07 0.65,0.00 0.65,0.00 L 0.65,0 Z"/></g><g transform="translate(77.70458984375 94.4405517578125) rotate(0 6.466217041015625 3.8036346435546875)" stroke="none"><path fill="#1e1e1e" d="M -0.65,0 Q -0.65,0 -0.74,-0.86 -0.83,-1.72 -0.19,-2.28 0.43,-2.85 1.56,-2.84 2.69,-2.83 3.98,-2.57 5.28,-2.32 6.59,-1.74 7.90,-1.16 9.11,-0.48 10.33,0.19 11.28,0.68 12.23,1.18 13.11,2.26 13.99,3.34 14.16,4.74 14.33,6.15 13.52,7.65 12.71,9.14 11.22,9.71 9.72,10.28 7.30,10.34 4.87,10.41 4.77,10.41 4.66,10.40 4.56,10.37 4.46,10.33 4.38,10.26 4.30,10.19 4.24,10.10 4.19,10.01 4.16,9.91 4.14,9.81 4.15,9.70 4.16,9.59 4.20,9.50 4.24,9.40 4.31,9.32 4.39,9.24 4.48,9.19 4.57,9.14 4.68,9.12 4.78,9.10 4.89,9.12 4.99,9.13 5.09,9.18 5.18,9.23 5.26,9.31 5.33,9.38 5.38,9.48 5.42,9.57 5.43,9.68 5.45,9.79 5.43,9.89 5.41,9.99 5.35,10.09 5.30,10.18 5.22,10.25 5.14,10.32 5.04,10.36 4.94,10.40 4.84,10.41 4.73,10.41 4.63,10.39 4.53,10.36 4.44,10.30 4.35,10.24 4.28,10.16 4.22,10.08 4.18,9.98 4.15,9.88 4.14,9.77 4.14,9.66 4.17,9.56 4.21,9.46 4.27,9.38 4.33,9.29 4.42,9.23 4.51,9.17 4.61,9.14 4.71,9.11 4.71,9.11 4.71,9.11 6.79,8.61 8.87,8.12 9.67,7.76 10.47,7.40 10.94,6.71 11.40,6.02 11.49,5.38 11.58,4.73 11.23,4.07 10.88,3.41 9.97,2.89 9.06,2.38 7.96,1.72 6.86,1.06 5.81,0.55 4.76,0.03 3.59,-0.23 2.42,-0.50 1.62,-0.70 0.83,-0.89 0.74,-0.44 0.65,0 0.64,0.07 0.63,0.15 0.60,0.23 0.58,0.30 0.53,0.37 0.49,0.43 0.43,0.48 0.37,0.54 0.30,0.57 0.23,0.61 0.15,0.63 0.07,0.65 -0.00,0.65 -0.07,0.65 -0.15,0.63 -0.23,0.61 -0.30,0.57 -0.37,0.54 -0.43,0.48 -0.49,0.43 -0.53,0.37 -0.58,0.30 -0.60,0.23 -0.63,0.15 -0.64,0.07 -0.65,-0.00 -0.65,-0.00 L -0.65,0 Z"/></g><g transform="translate(166.70953369140625 32.061065673828125) rotate(0 5.3250732421875 -0.38037109375)" stroke="none"><path fill="#1e1e1e" d="M -0.10,-0.64 Q -0.10,-0.64 1.15,-1.17 2.41,-1.70 3.68,-1.82 4.95,-1.94 5.92,-1.97 6.90,-1.99 8.59,-1.70 10.27,-1.41 10.38,-1.39 10.48,-1.38 10.58,-1.33 10.67,-1.28 10.75,-1.20 10.82,-1.13 10.87,-1.03 10.91,-0.93 10.93,-0.83 10.94,-0.72 10.92,-0.62 10.90,-0.52 10.84,-0.42 10.79,-0.33 10.71,-0.26 10.63,-0.19 10.53,-0.15 10.43,-0.11 10.33,-0.10 10.22,-0.10 10.12,-0.12 10.01,-0.15 9.93,-0.21 9.84,-0.27 9.77,-0.35 9.71,-0.44 9.67,-0.54 9.64,-0.64 9.63,-0.74 9.63,-0.85 9.67,-0.95 9.70,-1.05 9.76,-1.14 9.83,-1.22 9.91,-1.28 10.00,-1.34 10.10,-1.37 10.20,-1.40 10.31,-1.40 10.42,-1.39 10.52,-1.36 10.61,-1.32 10.70,-1.25 10.78,-1.18 10.83,-1.09 10.89,-1.00 10.91,-0.90 10.94,-0.79 10.93,-0.69 10.92,-0.58 10.87,-0.49 10.83,-0.39 10.76,-0.31 10.69,-0.23 10.59,-0.18 10.50,-0.13 10.40,-0.11 10.29,-0.09 10.29,-0.09 10.29,-0.09 8.65,0.24 7.01,0.59 6.08,0.64 5.15,0.69 3.99,0.76 2.83,0.83 1.47,0.74 0.10,0.64 0.02,0.65 -0.05,0.65 -0.12,0.63 -0.20,0.62 -0.27,0.59 -0.34,0.55 -0.41,0.50 -0.47,0.45 -0.51,0.39 -0.56,0.33 -0.59,0.25 -0.62,0.18 -0.64,0.10 -0.65,0.02 -0.64,-0.04 -0.64,-0.12 -0.61,-0.20 -0.59,-0.27 -0.55,-0.34 -0.51,-0.41 -0.45,-0.46 -0.39,-0.52 -0.32,-0.56 -0.25,-0.60 -0.18,-0.62 -0.10,-0.64 -0.10,-0.64 L -0.10,-0.64 Z"/></g><g transform="translate(167.47027587890625 37.386138916015625) rotate(0 4.9447021484375 0.3803558349609375)" stroke="none"><path fill="#1e1e1e" d="M 0,-0.65 Q 0,-0.65 0.65,-0.95 1.31,-1.25 2.02,-1.29 2.74,-1.32 3.70,-1.35 4.66,-1.37 5.51,-1.35 6.35,-1.33 8.06,-0.66 9.77,0.01 9.87,0.06 9.96,0.12 10.03,0.20 10.10,0.28 10.13,0.38 10.17,0.47 10.18,0.58 10.19,0.69 10.16,0.79 10.13,0.89 10.07,0.98 10.01,1.07 9.93,1.13 9.84,1.20 9.74,1.23 9.64,1.27 9.54,1.27 9.43,1.27 9.33,1.23 9.23,1.20 9.14,1.14 9.06,1.07 9.00,0.98 8.94,0.90 8.91,0.79 8.88,0.69 8.89,0.59 8.89,0.48 8.93,0.38 8.97,0.28 9.04,0.20 9.11,0.12 9.20,0.06 9.29,0.01 9.39,-0.00 9.50,-0.03 9.60,-0.02 9.71,-0.01 9.80,0.03 9.90,0.07 9.98,0.15 10.06,0.22 10.11,0.31 10.16,0.41 10.17,0.51 10.19,0.62 10.17,0.72 10.16,0.82 10.11,0.92 10.06,1.01 9.98,1.09 9.91,1.16 9.81,1.21 9.71,1.25 9.61,1.26 9.50,1.27 9.40,1.25 9.29,1.23 9.29,1.23 9.29,1.23 7.82,1.28 6.35,1.33 5.51,1.35 4.66,1.37 3.70,1.35 2.74,1.32 2.02,1.29 1.31,1.25 0.65,0.95 0,0.65 -0.07,0.64 -0.15,0.63 -0.23,0.60 -0.30,0.58 -0.37,0.53 -0.43,0.49 -0.48,0.43 -0.54,0.37 -0.57,0.30 -0.61,0.23 -0.63,0.15 -0.65,0.07 -0.65,-0.00 -0.65,-0.07 -0.63,-0.15 -0.61,-0.23 -0.57,-0.30 -0.54,-0.37 -0.48,-0.43 -0.43,-0.49 -0.37,-0.53 -0.30,-0.58 -0.23,-0.60 -0.15,-0.63 -0.07,-0.64 0.00,-0.65 0.00,-0.65 L 0,-0.65 Z"/></g><g transform="translate(214.63525390625 17.607269287109375) rotate(0 18.637786865234375 0.7607269287109375)" stroke="none"><path fill="#1e1e1e" d="M 0,-0.65 Q 0,-0.65 1.09,-1.03 2.18,-1.41 3.52,-1.46 4.86,-1.50 6.74,-1.55 8.62,-1.59 10.30,-1.61 11.97,-1.63 14.43,-1.66 16.90,-1.68 19.04,-1.69 21.18,-1.70 23.40,-1.71 25.62,-1.72 27.00,-1.72 28.38,-1.73 30.06,-1.73 31.74,-1.74 33.12,-1.71 34.50,-1.68 34.55,-0.49 34.61,0.70 34.69,0.71 34.76,0.72 34.84,0.74 34.91,0.77 34.98,0.82 35.04,0.86 35.10,0.92 35.15,0.98 35.18,1.05 35.22,1.12 35.24,1.20 35.26,1.28 35.26,1.35 35.26,1.43 35.24,1.51 35.22,1.59 35.18,1.66 35.15,1.73 35.10,1.79 35.04,1.85 34.98,1.89 34.91,1.94 34.84,1.96 34.76,1.99 34.69,2.00 34.61,2.01 34.63,2.01 34.66,2.01 34.55,2.00 34.45,1.99 34.35,1.95 34.25,1.91 34.17,1.84 34.09,1.76 34.04,1.67 33.99,1.58 33.97,1.47 33.95,1.37 33.97,1.27 33.98,1.16 34.03,1.06 34.08,0.97 34.15,0.89 34.23,0.82 34.32,0.77 34.42,0.73 34.52,0.71 34.63,0.70 34.73,0.72 34.84,0.74 34.93,0.79 35.02,0.84 35.09,0.92 35.16,1.00 35.20,1.10 35.25,1.20 35.25,1.30 35.26,1.41 35.24,1.51 35.21,1.62 35.15,1.70 35.09,1.79 35.01,1.86 34.93,1.93 34.83,1.96 34.73,2.00 34.62,2.00 34.52,2.00 34.42,1.97 34.31,1.94 34.23,1.88 34.14,1.82 34.08,1.73 34.02,1.64 33.99,1.54 33.96,1.44 33.96,1.33 33.96,1.23 34.00,1.13 34.04,1.03 34.10,0.95 34.17,0.86 34.26,0.81 34.35,0.75 34.48,0.72 34.61,0.70 34.69,0.71 34.76,0.72 34.84,0.74 34.91,0.77 34.98,0.82 35.04,0.86 35.10,0.92 35.15,0.98 35.18,1.05 35.22,1.12 35.24,1.20 35.26,1.28 35.26,1.35 35.26,1.43 35.24,1.51 35.22,1.59 35.18,1.66 35.15,1.73 35.10,1.79 35.04,1.85 34.98,1.89 34.91,1.94 34.84,1.96 34.76,1.99 34.69,2.00 34.61,2.01 34.54,1.84 34.47,1.68 33.11,1.71 31.74,1.74 30.06,1.73 28.38,1.73 27.00,1.72 25.62,1.72 23.40,1.71 21.18,1.70 19.04,1.69 16.90,1.68 14.43,1.66 11.97,1.63 10.30,1.61 8.62,1.59 6.74,1.55 4.86,1.50 3.52,1.46 2.18,1.41 1.09,1.03 0,0.65 -0.07,0.64 -0.15,0.63 -0.23,0.60 -0.30,0.58 -0.37,0.53 -0.43,0.49 -0.48,0.43 -0.54,0.37 -0.57,0.30 -0.61,0.23 -0.63,0.15 -0.65,0.07 -0.65,-0.00 -0.65,-0.07 -0.63,-0.15 -0.61,-0.23 -0.57,-0.30 -0.54,-0.37 -0.48,-0.43 -0.43,-0.49 -0.37,-0.53 -0.30,-0.58 -0.23,-0.60 -0.15,-0.63 -0.07,-0.64 0.00,-0.65 0.00,-0.65 L 0,-0.65 Z"/></g><g transform="translate(216.91741943359375 51.079193115234375) rotate(0 17.877044677734375 -0.3803558349609375)" stroke="none"><path fill="#1e1e1e" d="M 0.09,-0.65 Q 0.09,-0.65 1.68,-0.83 3.26,-1.01 5.16,-0.96 7.06,-0.91 8.75,-0.90 10.44,-0.88 12.83,-1.11 15.22,-1.33 18.67,-1.66 22.12,-1.99 24.41,-2.34 26.71,-2.69 28.86,-2.83 31.02,-2.96 33.16,-2.56 35.29,-2.16 35.40,-2.14 35.50,-2.13 35.60,-2.08 35.69,-2.04 35.77,-1.96 35.84,-1.89 35.89,-1.79 35.94,-1.70 35.96,-1.59 35.97,-1.49 35.95,-1.38 35.94,-1.28 35.88,-1.19 35.83,-1.09 35.75,-1.02 35.68,-0.95 35.58,-0.91 35.48,-0.86 35.38,-0.85 35.27,-0.84 35.17,-0.87 35.06,-0.89 34.97,-0.95 34.88,-1.01 34.82,-1.09 34.75,-1.17 34.71,-1.27 34.67,-1.37 34.67,-1.47 34.66,-1.58 34.69,-1.68 34.72,-1.78 34.79,-1.87 34.85,-1.96 34.93,-2.02 35.02,-2.08 35.12,-2.12 35.22,-2.15 35.33,-2.15 35.43,-2.15 35.53,-2.11 35.63,-2.07 35.72,-2.01 35.80,-1.94 35.86,-1.85 35.92,-1.77 35.94,-1.66 35.97,-1.56 35.96,-1.45 35.96,-1.35 35.91,-1.25 35.87,-1.15 35.80,-1.07 35.73,-0.99 35.64,-0.94 35.55,-0.89 35.45,-0.86 35.34,-0.84 35.34,-0.84 35.34,-0.84 33.30,-0.24 31.26,0.36 29.23,0.52 27.21,0.68 24.81,1.02 22.42,1.37 18.95,1.65 15.49,1.93 12.93,2.11 10.37,2.29 8.64,2.22 6.91,2.16 4.88,2.02 2.85,1.88 1.38,1.26 -0.09,0.65 -0.16,0.62 -0.24,0.60 -0.31,0.57 -0.38,0.53 -0.44,0.47 -0.50,0.42 -0.54,0.35 -0.58,0.29 -0.61,0.21 -0.64,0.14 -0.64,0.06 -0.65,-0.01 -0.64,-0.09 -0.63,-0.17 -0.60,-0.24 -0.57,-0.31 -0.52,-0.38 -0.48,-0.44 -0.42,-0.49 -0.36,-0.54 -0.29,-0.58 -0.21,-0.61 -0.14,-0.63 -0.06,-0.65 0.01,-0.65 0.09,-0.65 0.09,-0.65 L 0.09,-0.65 Z"/></g><g transform="translate(249.628662109375 14.564361572265625) rotate(0 -0.7607421875 19.018142700195312)" stroke="none"><path fill="#1e1e1e" d="M 0.65,0 Q 0.65,0 0.98,1.53 1.31,3.06 1.36,4.80 1.40,6.55 1.22,9.10 1.04,11.66 0.77,14.70 0.49,17.74 0.38,20.30 0.26,22.86 0.22,25.25 0.17,27.65 0.15,29.54 0.13,31.43 0.32,32.78 0.51,34.12 0.17,35.72 -0.16,37.31 -0.17,37.42 -0.17,37.52 -0.22,37.62 -0.26,37.72 -0.33,37.80 -0.40,37.88 -0.49,37.93 -0.58,37.98 -0.69,38.00 -0.79,38.02 -0.90,38.01 -1.00,37.99 -1.10,37.95 -1.19,37.90 -1.27,37.82 -1.34,37.75 -1.39,37.65 -1.44,37.56 -1.45,37.45 -1.47,37.35 -1.45,37.24 -1.43,37.14 -1.38,37.05 -1.32,36.96 -1.25,36.88 -1.17,36.81 -1.07,36.77 -0.97,36.73 -0.87,36.72 -0.76,36.71 -0.66,36.74 -0.55,36.76 -0.46,36.82 -0.37,36.88 -0.31,36.96 -0.24,37.04 -0.20,37.14 -0.17,37.24 -0.16,37.35 -0.16,37.45 -0.19,37.55 -0.22,37.66 -0.28,37.74 -0.35,37.83 -0.43,37.89 -0.52,37.95 -0.62,37.98 -0.72,38.02 -0.83,38.01 -0.93,38.01 -1.03,37.97 -1.13,37.94 -1.22,37.87 -1.30,37.80 -1.36,37.72 -1.41,37.63 -1.44,37.52 -1.47,37.42 -1.47,37.42 -1.47,37.42 -2.06,36.00 -2.65,34.57 -2.88,32.98 -3.11,31.40 -3.08,29.49 -3.05,27.57 -2.98,25.14 -2.91,22.70 -2.76,20.06 -2.61,17.42 -2.27,14.41 -1.92,11.40 -1.66,8.97 -1.40,6.54 -1.36,4.80 -1.31,3.06 -0.98,1.53 -0.65,0 -0.64,-0.07 -0.63,-0.15 -0.60,-0.23 -0.58,-0.30 -0.53,-0.37 -0.49,-0.43 -0.43,-0.48 -0.37,-0.54 -0.30,-0.57 -0.23,-0.61 -0.15,-0.63 -0.07,-0.65 0.00,-0.65 0.07,-0.65 0.15,-0.63 0.23,-0.61 0.30,-0.57 0.37,-0.54 0.43,-0.48 0.49,-0.43 0.53,-0.37 0.58,-0.30 0.60,-0.23 0.63,-0.15 0.64,-0.07 0.65,0.00 0.65,0.00 L 0.65,0 Z"/></g><g transform="translate(245.06427001953125 14.564361572265625) rotate(0 15.214508056640625 17.1163330078125)" stroke="none"><path fill="#1e1e1e" d="M -0.62,-0.20 Q -0.62,-0.20 -0.65,-0.98 -0.68,-1.77 -0.23,-2.30 0.20,-2.83 0.85,-3.27 1.51,-3.72 2.11,-3.95 2.71,-4.17 3.94,-4.30 5.18,-4.43 6.86,-4.26 8.55,-4.09 10.63,-3.57 12.71,-3.05 15.02,-1.91 17.33,-0.76 19.42,0.61 21.52,1.99 23.14,3.52 24.76,5.05 26.29,6.55 27.82,8.05 28.82,9.73 29.82,11.42 30.49,13.78 31.15,16.14 31.43,18.27 31.70,20.41 31.39,22.60 31.07,24.78 30.71,26.56 30.35,28.34 28.99,30.28 27.62,32.23 26.33,33.47 25.05,34.72 22.53,35.82 20.01,36.93 17.87,37.56 15.72,38.19 13.51,38.20 11.30,38.21 9.69,37.82 8.08,37.43 6.51,36.29 4.94,35.15 4.86,35.09 4.77,35.02 4.71,34.94 4.65,34.85 4.61,34.75 4.58,34.65 4.58,34.54 4.59,34.44 4.62,34.34 4.66,34.24 4.72,34.15 4.79,34.07 4.88,34.01 4.97,33.95 5.07,33.93 5.18,33.90 5.28,33.91 5.39,33.92 5.48,33.96 5.58,34.00 5.66,34.07 5.74,34.14 5.79,34.23 5.85,34.33 5.87,34.43 5.89,34.53 5.87,34.64 5.86,34.75 5.81,34.84 5.77,34.94 5.69,35.01 5.62,35.09 5.52,35.14 5.43,35.18 5.32,35.20 5.22,35.21 5.11,35.19 5.01,35.17 4.92,35.12 4.82,35.07 4.75,34.99 4.68,34.91 4.64,34.82 4.60,34.72 4.59,34.61 4.58,34.51 4.60,34.40 4.63,34.30 4.68,34.21 4.74,34.12 4.82,34.05 4.91,33.99 5.01,33.95 5.10,33.91 5.21,33.91 5.32,33.91 5.42,33.94 5.52,33.97 5.52,33.97 5.52,33.97 7.01,34.32 8.49,34.67 9.87,34.68 11.24,34.69 12.96,34.62 14.68,34.55 16.63,33.98 18.59,33.40 20.58,32.68 22.57,31.95 23.66,30.97 24.74,29.98 25.87,28.72 27.00,27.47 27.35,25.84 27.71,24.21 28.06,22.50 28.41,20.78 28.19,18.89 27.96,16.99 27.46,15.01 26.96,13.02 26.23,11.69 25.50,10.36 24.00,8.88 22.50,7.41 21.10,6.05 19.70,4.69 17.78,3.39 15.86,2.09 13.87,1.04 11.89,0.00 10.02,-0.51 8.16,-1.03 6.75,-1.25 5.34,-1.46 4.11,-1.41 2.88,-1.36 2.22,-1.10 1.55,-0.85 1.09,-0.32 0.62,0.20 0.58,0.27 0.55,0.35 0.50,0.41 0.45,0.47 0.39,0.52 0.32,0.56 0.25,0.59 0.18,0.63 0.10,0.64 0.02,0.65 -0.05,0.64 -0.13,0.64 -0.20,0.61 -0.28,0.59 -0.34,0.55 -0.41,0.50 -0.46,0.45 -0.52,0.39 -0.56,0.32 -0.60,0.25 -0.62,0.18 -0.64,0.10 -0.65,0.02 -0.65,-0.05 -0.63,-0.13 -0.62,-0.20 -0.62,-0.20 L -0.62,-0.20 Z"/></g><g transform="translate(273.9718017578125 35.103973388671875) rotate(0 10.26983642578125 -0.38037109375)" stroke="none"><path fill="#1e1e1e" d="M -0.12,-0.64 Q -0.12,-0.64 0.86,-1.35 1.86,-2.06 3.30,-2.20 4.74,-2.33 6.00,-2.39 7.26,-2.45 8.67,-2.48 10.08,-2.52 11.56,-2.53 13.03,-2.55 14.66,-2.34 16.30,-2.12 18.11,-1.73 19.93,-1.35 20.00,-1.33 20.08,-1.31 20.15,-1.27 20.22,-1.23 20.28,-1.18 20.34,-1.13 20.38,-1.06 20.42,-0.99 20.45,-0.92 20.48,-0.84 20.48,-0.77 20.49,-0.69 20.48,-0.61 20.47,-0.53 20.44,-0.46 20.41,-0.38 20.36,-0.32 20.32,-0.26 20.26,-0.20 20.20,-0.15 20.12,-0.12 20.05,-0.08 19.98,-0.07 19.90,-0.05 19.82,-0.05 19.74,-0.05 19.50,-0.21 19.26,-0.38 19.23,-0.48 19.19,-0.57 19.19,-0.68 19.18,-0.79 19.21,-0.89 19.24,-0.99 19.31,-1.08 19.37,-1.16 19.45,-1.23 19.54,-1.29 19.64,-1.32 19.74,-1.35 19.85,-1.35 19.96,-1.35 20.06,-1.31 20.16,-1.27 20.24,-1.21 20.32,-1.14 20.38,-1.05 20.44,-0.96 20.46,-0.86 20.49,-0.76 20.48,-0.65 20.47,-0.55 20.43,-0.45 20.39,-0.35 20.32,-0.27 20.25,-0.19 20.16,-0.14 20.06,-0.09 19.96,-0.07 19.86,-0.05 19.75,-0.06 19.64,-0.07 19.55,-0.12 19.45,-0.17 19.38,-0.24 19.30,-0.32 19.26,-0.41 19.21,-0.51 19.19,-0.61 19.18,-0.72 19.20,-0.82 19.22,-0.93 19.27,-1.02 19.32,-1.11 19.40,-1.18 19.48,-1.25 19.58,-1.30 19.67,-1.34 19.78,-1.35 19.88,-1.36 19.99,-1.33 20.09,-1.31 20.18,-1.25 20.27,-1.19 20.10,-1.27 19.93,-1.35 20.00,-1.33 20.08,-1.31 20.15,-1.27 20.22,-1.23 20.28,-1.18 20.34,-1.13 20.38,-1.06 20.42,-0.99 20.45,-0.92 20.48,-0.84 20.48,-0.77 20.49,-0.69 20.48,-0.61 20.47,-0.53 20.44,-0.46 20.41,-0.38 20.36,-0.32 20.32,-0.26 20.26,-0.20 20.20,-0.15 20.12,-0.12 20.05,-0.08 19.98,-0.07 19.90,-0.05 19.82,-0.05 19.74,-0.05 17.76,0.71 15.78,1.48 14.41,1.27 13.05,1.05 11.59,1.05 10.12,1.04 8.75,1.04 7.37,1.05 6.17,1.07 4.98,1.09 3.74,1.14 2.51,1.19 1.32,0.91 0.12,0.64 0.04,0.64 -0.02,0.65 -0.10,0.64 -0.18,0.62 -0.25,0.59 -0.33,0.56 -0.39,0.51 -0.45,0.47 -0.50,0.41 -0.55,0.34 -0.59,0.27 -0.62,0.20 -0.63,0.12 -0.65,0.05 -0.65,-0.02 -0.64,-0.10 -0.62,-0.18 -0.60,-0.25 -0.56,-0.32 -0.52,-0.39 -0.46,-0.45 -0.41,-0.51 -0.34,-0.55 -0.27,-0.59 -0.20,-0.61 -0.12,-0.64 -0.12,-0.64 L -0.12,-0.64 Z"/></g><g transform="translate(295.272216796875 25.975250244140625) rotate(0 -0.7607421875 6.0858001708984375)" stroke="none"><path fill="#1e1e1e" d="M 0.65,0 Q 0.65,0 1.01,1.53 1.37,3.06 1.17,4.48 0.98,5.91 0.91,7.06 0.83,8.21 0.02,10.20 -0.79,12.19 -0.85,12.27 -0.91,12.36 -1.00,12.42 -1.09,12.48 -1.19,12.51 -1.29,12.54 -1.40,12.54 -1.50,12.53 -1.60,12.49 -1.70,12.46 -1.79,12.39 -1.87,12.32 -1.92,12.23 -1.98,12.14 -2.00,12.04 -2.03,11.93 -2.02,11.83 -2.01,11.72 -1.97,11.63 -1.92,11.53 -1.85,11.45 -1.78,11.37 -1.69,11.32 -1.59,11.27 -1.49,11.25 -1.39,11.23 -1.28,11.25 -1.18,11.26 -1.08,11.31 -0.99,11.36 -0.91,11.43 -0.84,11.51 -0.79,11.61 -0.74,11.70 -0.73,11.81 -0.72,11.91 -0.74,12.02 -0.76,12.12 -0.81,12.21 -0.87,12.30 -0.95,12.37 -1.03,12.44 -1.12,12.49 -1.22,12.53 -1.33,12.53 -1.43,12.54 -1.54,12.51 -1.64,12.49 -1.73,12.43 -1.82,12.37 -1.88,12.29 -1.95,12.20 -1.99,12.10 -2.02,12.00 -2.02,11.90 -2.02,11.79 -1.99,11.69 -1.96,11.59 -1.96,11.59 -1.96,11.59 -2.02,9.79 -2.08,7.98 -1.97,6.71 -1.85,5.43 -1.61,4.24 -1.37,3.05 -1.01,1.52 -0.65,0 -0.64,-0.07 -0.63,-0.15 -0.60,-0.23 -0.58,-0.30 -0.53,-0.37 -0.49,-0.43 -0.43,-0.48 -0.37,-0.54 -0.30,-0.57 -0.23,-0.61 -0.15,-0.63 -0.07,-0.65 0.00,-0.65 0.07,-0.65 0.15,-0.63 0.23,-0.61 0.30,-0.57 0.37,-0.54 0.43,-0.48 0.49,-0.43 0.53,-0.37 0.58,-0.30 0.60,-0.23 0.63,-0.15 0.64,-0.07 0.65,0.00 0.65,0.00 L 0.65,0 Z"/></g><g transform="translate(291.468505859375 22.932342529296875) rotate(0 7.6072998046875 9.509078979492188)" stroke="none"><path fill="#1e1e1e" d="M 0.39,-0.52 Q 0.39,-0.52 1.48,-0.16 2.57,0.19 3.91,1.00 5.25,1.80 6.34,2.38 7.43,2.96 8.86,3.91 10.30,4.87 11.54,5.69 12.78,6.52 13.72,7.06 14.66,7.61 15.29,8.22 15.92,8.84 16.22,9.87 16.52,10.90 15.89,12.21 15.26,13.52 13.74,14.74 12.21,15.95 10.96,16.82 9.70,17.70 7.85,18.44 6.00,19.18 5.93,19.26 5.85,19.34 5.76,19.39 5.66,19.43 5.56,19.45 5.45,19.47 5.35,19.45 5.24,19.43 5.15,19.38 5.06,19.33 4.99,19.25 4.91,19.17 4.87,19.07 4.83,18.98 4.82,18.87 4.81,18.76 4.83,18.66 4.86,18.56 4.91,18.47 4.97,18.38 5.05,18.31 5.13,18.24 5.23,18.20 5.33,18.17 5.44,18.16 5.54,18.16 5.64,18.19 5.75,18.22 5.83,18.28 5.92,18.34 5.98,18.42 6.05,18.51 6.08,18.61 6.11,18.71 6.11,18.82 6.11,18.92 6.07,19.02 6.04,19.12 5.97,19.21 5.91,19.29 5.82,19.35 5.73,19.41 5.63,19.44 5.52,19.46 5.42,19.46 5.31,19.45 5.21,19.41 5.12,19.37 5.04,19.30 4.96,19.23 4.90,19.14 4.85,19.04 4.83,18.94 4.81,18.84 4.82,18.73 4.83,18.62 4.88,18.53 4.92,18.43 4.92,18.43 4.92,18.43 6.26,16.58 7.60,14.73 8.80,13.87 10.00,13.01 11.16,12.20 12.31,11.39 12.61,10.93 12.91,10.46 11.92,9.86 10.93,9.25 9.70,8.40 8.46,7.55 7.15,6.62 5.85,5.69 4.60,4.92 3.36,4.15 2.83,3.66 2.30,3.16 1.61,2.79 0.91,2.42 0.26,1.47 -0.39,0.52 -0.45,0.47 -0.50,0.41 -0.55,0.34 -0.59,0.28 -0.61,0.20 -0.64,0.13 -0.64,0.05 -0.65,-0.02 -0.64,-0.10 -0.63,-0.18 -0.59,-0.25 -0.56,-0.32 -0.52,-0.39 -0.47,-0.45 -0.41,-0.50 -0.35,-0.55 -0.27,-0.58 -0.20,-0.62 -0.13,-0.63 -0.05,-0.65 0.02,-0.65 0.10,-0.64 0.18,-0.62 0.25,-0.60 0.32,-0.56 0.39,-0.52 0.39,-0.52 L 0.39,-0.52 Z"/></g><g transform="translate(305.16162109375 35.103973388671875) rotate(0 13.69305419921875 0.380340576171875)" stroke="none"><path fill="#1e1e1e" d="M 0,-0.65 Q 0,-0.65 0.43,-1.19 0.87,-1.73 1.93,-1.76 2.99,-1.78 4.18,-2.01 5.36,-2.23 6.82,-2.12 8.27,-2.01 10.03,-1.98 11.80,-1.94 14.52,-1.93 17.25,-1.92 20.02,-1.67 22.79,-1.43 25.69,-0.21 28.58,1.00 28.63,1.10 28.67,1.19 28.69,1.30 28.70,1.40 28.67,1.51 28.65,1.61 28.60,1.70 28.54,1.79 28.46,1.86 28.38,1.93 28.28,1.97 28.18,2.01 28.08,2.02 27.97,2.02 27.87,1.99 27.77,1.96 27.68,1.90 27.59,1.84 27.53,1.76 27.46,1.68 27.43,1.58 27.39,1.47 27.39,1.37 27.39,1.26 27.43,1.16 27.46,1.06 27.53,0.98 27.59,0.89 27.68,0.83 27.77,0.77 27.87,0.74 27.97,0.72 28.08,0.72 28.18,0.73 28.28,0.77 28.38,0.81 28.46,0.87 28.54,0.94 28.60,1.03 28.65,1.12 28.67,1.23 28.70,1.33 28.69,1.44 28.67,1.54 28.63,1.64 28.58,1.74 28.51,1.81 28.44,1.89 28.34,1.94 28.25,1.99 28.15,2.01 28.04,2.02 27.94,2.01 27.83,1.99 27.74,1.94 27.64,1.89 27.57,1.81 27.50,1.74 27.50,1.74 27.50,1.74 24.99,2.00 22.47,2.27 19.85,2.06 17.22,1.85 14.45,1.82 11.69,1.78 9.79,1.71 7.89,1.64 6.91,1.50 5.92,1.36 4.46,1.57 3.00,1.78 1.93,1.76 0.87,1.73 0.43,1.19 0,0.65 -0.07,0.64 -0.15,0.63 -0.23,0.60 -0.30,0.58 -0.37,0.53 -0.43,0.49 -0.48,0.43 -0.54,0.37 -0.57,0.30 -0.61,0.23 -0.63,0.15 -0.65,0.07 -0.65,-0.00 -0.65,-0.07 -0.63,-0.15 -0.61,-0.23 -0.57,-0.30 -0.54,-0.37 -0.48,-0.43 -0.43,-0.49 -0.37,-0.53 -0.30,-0.58 -0.23,-0.60 -0.15,-0.63 -0.07,-0.64 0.00,-0.65 0.00,-0.65 L 0,-0.65 Z"/></g></svg>