<svg version="1.1" xmlns="http://www.w3.org/2000/svg" viewBox="0 0 426.2275390625 73.25079345703125" width="426.2275390625" height="73.25079345703125" filter="invert(93%) hue-rotate(180deg)" class="excalidraw-svg">
  <!-- svg-source:excalidraw -->
  
  <defs>
    <style class="style-fonts">
      @font-face {
        font-family: "Virgil";
        src: url("https://excalidraw.com/Virgil.woff2");
      }
      @font-face {
        font-family: "Cascadia";
        src: url("https://excalidraw.com/Cascadia.woff2");
      }
      @font-face {
        font-family: "Assistant";
        src: url("https://excalidraw.com/Assistant-Regular.woff2");
      }
    </style>
    
  </defs>
  <rect x="0" y="0" width="426.2275390625" height="73.25079345703125" fill="#ffffff"/><g transform="translate(10 16.085800170898438) rotate(0 44.8828125 0.38036346435546875)" stroke="none"><path fill="#1e1e1e" d="M 0.29,-0.58 Q 0.29,-0.58 1.32,-0.49 2.36,-0.39 3.40,-0.29 4.45,-0.18 6.22,-0.12 7.99,-0.06 9.84,-0.05 11.70,-0.03 13.80,-0.03 15.90,-0.03 18.33,-0.03 20.75,-0.04 22.44,-0.04 24.13,-0.04 26.75,-0.27 29.37,-0.49 32.52,-0.59 35.67,-0.69 37.80,-0.94 39.92,-1.20 41.55,-1.32 43.18,-1.44 44.54,-1.49 45.90,-1.54 47.13,-1.57 48.37,-1.59 49.55,-1.60 50.74,-1.61 52.11,-1.61 53.49,-1.62 54.74,-1.62 55.98,-1.62 57.31,-1.40 58.64,-1.17 59.51,-1.09 60.39,-1.01 61.39,-0.98 62.40,-0.95 63.27,-0.94 64.14,-0.92 64.94,-0.92 65.75,-0.92 66.53,-0.92 67.31,-0.92 67.86,-0.92 68.41,-0.93 69.08,-0.93 69.75,-0.93 70.47,-0.93 71.20,-0.93 71.94,-0.93 72.68,-0.93 73.44,-0.93 74.19,-0.94 74.73,-0.94 75.27,-0.94 76.61,-1.24 77.95,-1.55 78.73,-1.60 79.50,-1.65 80.12,-1.80 80.73,-1.95 81.72,-2.01 82.72,-2.06 83.25,-1.80 83.79,-1.53 84.72,-1.68 85.65,-1.82 87.70,-1.25 89.75,-0.68 89.85,-0.64 89.94,-0.59 90.02,-0.52 90.10,-0.44 90.15,-0.35 90.19,-0.25 90.21,-0.15 90.23,-0.04 90.21,0.05 90.19,0.16 90.14,0.25 90.09,0.34 90.01,0.41 89.93,0.49 89.84,0.53 89.74,0.57 89.63,0.58 89.53,0.60 89.42,0.57 89.32,0.55 89.23,0.49 89.14,0.44 89.07,0.35 89.00,0.27 88.97,0.17 88.93,0.07 88.92,-0.02 88.92,-0.13 88.95,-0.23 88.98,-0.33 89.04,-0.42 89.10,-0.51 89.18,-0.57 89.27,-0.63 89.37,-0.67 89.47,-0.70 89.58,-0.70 89.68,-0.70 89.78,-0.66 89.88,-0.63 89.97,-0.56 90.05,-0.50 90.11,-0.41 90.17,-0.32 90.20,-0.22 90.22,-0.11 90.22,-0.01 90.21,0.09 90.17,0.19 90.13,0.28 90.06,0.36 89.99,0.44 89.90,0.50 89.81,0.55 89.70,0.57 89.60,0.60 89.49,0.58 89.39,0.57 89.39,0.57 89.39,0.57 88.11,0.82 86.83,1.08 85.93,1.09 85.02,1.10 84.49,1.37 83.95,1.64 83.12,1.37 82.28,1.10 80.99,1.43 79.70,1.77 78.73,1.80 77.76,1.84 76.51,2.15 75.27,2.46 74.73,2.46 74.19,2.46 73.44,2.46 72.68,2.45 71.94,2.45 71.19,2.45 70.47,2.45 69.75,2.45 69.07,2.45 68.40,2.44 67.85,2.44 67.30,2.44 66.51,2.43 65.72,2.42 64.90,2.41 64.08,2.39 63.17,2.37 62.27,2.35 61.17,2.31 60.06,2.26 59.05,2.15 58.05,2.05 57.01,1.84 55.97,1.63 54.74,1.63 53.50,1.63 52.13,1.63 50.76,1.63 49.59,1.64 48.42,1.65 47.22,1.66 46.01,1.68 44.70,1.72 43.40,1.76 41.85,1.86 40.30,1.96 38.03,2.22 35.76,2.48 32.69,2.57 29.62,2.65 26.87,2.87 24.12,3.08 22.43,3.07 20.75,3.06 18.31,3.05 15.88,3.03 13.77,3.00 11.65,2.97 9.75,2.92 7.86,2.87 5.94,2.77 4.03,2.67 2.58,2.41 1.13,2.14 0.42,1.36 -0.29,0.58 -0.35,0.54 -0.42,0.49 -0.47,0.44 -0.53,0.38 -0.57,0.31 -0.60,0.24 -0.62,0.16 -0.65,0.09 -0.65,0.01 -0.65,-0.06 -0.63,-0.14 -0.61,-0.22 -0.58,-0.29 -0.54,-0.36 -0.49,-0.42 -0.44,-0.48 -0.38,-0.52 -0.31,-0.57 -0.24,-0.60 -0.16,-0.63 -0.09,-0.64 -0.01,-0.65 0.06,-0.64 0.14,-0.64 0.21,-0.61 0.29,-0.58 0.29,-0.58 L 0.29,-0.58 Z"/></g><g transform="translate(15.3250732421875 60.20790100097656) rotate(0 44.50244140625 -1.9018173217773438)" stroke="none"><path fill="#1e1e1e" d="M 0.12,-0.64 Q 0.12,-0.64 1.28,-0.74 2.44,-0.84 3.49,-0.78 4.54,-0.72 6.07,-0.70 7.60,-0.69 9.13,-0.69 10.66,-0.69 12.41,-0.69 14.15,-0.70 16.86,-0.72 19.57,-0.74 21.82,-0.74 24.06,-0.75 26.25,-0.98 28.45,-1.21 30.32,-1.32 32.19,-1.43 34.23,-1.69 36.26,-1.96 38.07,-2.08 39.89,-2.21 41.98,-2.26 44.07,-2.31 45.50,-2.55 46.93,-2.78 48.52,-2.90 50.12,-3.02 51.67,-3.08 53.23,-3.13 54.54,-3.16 55.86,-3.18 57.30,-3.19 58.73,-3.21 60.22,-3.21 61.70,-3.22 63.21,-3.23 64.71,-3.24 65.79,-3.24 66.87,-3.24 67.98,-3.25 69.10,-3.25 70.01,-3.26 70.92,-3.27 71.96,-3.29 73.00,-3.30 73.88,-3.30 74.77,-3.31 76.01,-3.31 77.26,-3.31 78.01,-3.31 78.76,-3.32 79.74,-3.32 80.71,-3.32 81.35,-3.32 81.98,-3.32 82.90,-3.33 83.83,-3.33 84.88,-3.33 85.93,-3.33 86.62,-3.32 87.32,-3.32 87.81,-2.99 88.30,-2.66 87.85,-1.77 87.40,-0.88 87.05,-2.76 86.69,-4.64 86.77,-4.67 86.84,-4.70 86.92,-4.72 86.99,-4.73 87.07,-4.72 87.15,-4.72 87.23,-4.69 87.30,-4.67 87.37,-4.63 87.44,-4.59 87.49,-4.53 87.55,-4.47 87.59,-4.41 87.63,-4.34 87.65,-4.26 87.67,-4.19 87.68,-4.11 87.68,-4.03 87.67,-3.95 87.65,-3.87 87.62,-3.80 87.59,-3.73 87.54,-3.67 87.49,-3.61 87.42,-3.56 87.36,-3.51 86.87,-3.71 86.39,-3.92 86.38,-4.02 86.37,-4.13 86.40,-4.23 86.42,-4.33 86.48,-4.42 86.54,-4.51 86.62,-4.58 86.70,-4.65 86.80,-4.68 86.90,-4.72 87.01,-4.72 87.12,-4.73 87.22,-4.69 87.32,-4.66 87.41,-4.60 87.49,-4.54 87.55,-4.45 87.62,-4.37 87.65,-4.26 87.68,-4.16 87.67,-4.06 87.67,-3.95 87.63,-3.85 87.60,-3.75 87.53,-3.67 87.46,-3.59 87.37,-3.53 87.29,-3.47 87.18,-3.45 87.08,-3.42 86.97,-3.43 86.87,-3.44 86.77,-3.48 86.67,-3.52 86.59,-3.59 86.51,-3.66 86.46,-3.76 86.41,-3.85 86.39,-3.95 86.37,-4.06 86.38,-4.16 86.40,-4.27 86.45,-4.36 86.49,-4.46 86.57,-4.53 86.64,-4.61 86.74,-4.66 86.83,-4.70 86.94,-4.72 87.05,-4.73 87.15,-4.71 87.25,-4.69 87.35,-4.64 87.44,-4.59 87.51,-4.51 87.58,-4.43 87.14,-4.53 86.69,-4.64 86.77,-4.67 86.84,-4.70 86.92,-4.72 86.99,-4.73 87.07,-4.72 87.15,-4.72 87.23,-4.69 87.30,-4.67 87.37,-4.63 87.44,-4.59 87.49,-4.53 87.55,-4.47 87.59,-4.41 87.63,-4.34 87.65,-4.26 87.67,-4.19 87.68,-4.11 87.68,-4.03 87.67,-3.95 87.65,-3.87 87.62,-3.80 87.59,-3.73 87.54,-3.67 87.49,-3.61 87.42,-3.56 87.36,-3.51 88.66,-2.65 89.97,-1.78 88.58,-0.75 87.20,0.27 86.56,0.28 85.93,0.29 84.88,0.29 83.83,0.29 82.90,0.28 81.98,0.28 81.35,0.28 80.71,0.28 79.74,0.27 78.76,0.27 78.01,0.27 77.26,0.27 76.01,0.27 74.77,0.26 73.88,0.26 73.00,0.25 71.96,0.24 70.92,0.23 70.01,0.22 69.10,0.21 67.98,0.20 66.87,0.20 65.79,0.20 64.72,0.20 63.21,0.19 61.71,0.19 60.23,0.19 58.75,0.19 57.33,0.19 55.91,0.19 54.62,0.21 53.32,0.22 51.83,0.25 50.34,0.28 48.88,0.36 47.43,0.44 45.79,0.69 44.15,0.93 42.12,0.97 40.09,1.01 38.37,1.11 36.65,1.20 34.50,1.45 32.35,1.70 30.55,1.78 28.74,1.85 26.40,2.06 24.06,2.27 21.81,2.26 19.57,2.25 16.85,2.23 14.14,2.20 12.39,2.18 10.63,2.16 9.08,2.13 7.53,2.10 5.92,2.03 4.31,1.96 3.12,1.84 1.93,1.72 0.90,1.18 -0.12,0.64 -0.20,0.61 -0.27,0.59 -0.34,0.55 -0.41,0.51 -0.46,0.45 -0.52,0.39 -0.56,0.32 -0.60,0.25 -0.62,0.18 -0.64,0.10 -0.65,0.02 -0.65,-0.05 -0.63,-0.12 -0.62,-0.20 -0.59,-0.27 -0.55,-0.34 -0.50,-0.41 -0.45,-0.47 -0.39,-0.51 -0.33,-0.56 -0.25,-0.59 -0.18,-0.63 -0.10,-0.64 -0.02,-0.65 0.04,-0.64 0.12,-0.64 0.12,-0.64 L 0.12,-0.64 Z"/></g><g transform="translate(97.48345947265625 17.607254028320312) rotate(0 13.69305419921875 19.77886962890625)" stroke="none"><path fill="#1e1e1e" d="M -0.20,-0.62 Q -0.20,-0.62 0.41,-1.03 1.02,-1.43 2.18,-1.37 3.33,-1.31 4.34,-1.28 5.35,-1.26 6.36,-1.02 7.38,-0.77 8.82,-0.48 10.27,-0.19 11.86,0.39 13.46,0.97 15.52,2.11 17.57,3.24 19.37,4.63 21.17,6.03 22.86,7.75 24.54,9.47 25.53,10.93 26.52,12.40 27.21,14.22 27.91,16.03 28.21,17.52 28.50,19.01 28.41,20.66 28.32,22.31 27.81,23.99 27.29,25.68 26.12,27.40 24.94,29.11 24.02,30.25 23.09,31.38 21.76,32.59 20.44,33.81 19.40,34.56 18.37,35.31 17.01,36.09 15.65,36.87 14.76,37.57 13.87,38.26 12.66,38.88 11.46,39.50 10.86,39.88 10.25,40.26 9.57,40.45 8.88,40.65 6.82,40.47 4.77,40.29 4.67,40.25 4.58,40.20 4.50,40.13 4.42,40.06 4.37,39.96 4.32,39.87 4.30,39.77 4.29,39.66 4.30,39.56 4.32,39.45 4.37,39.36 4.42,39.26 4.49,39.19 4.57,39.12 4.67,39.07 4.76,39.02 4.87,39.01 4.97,39.00 5.08,39.02 5.18,39.04 5.27,39.10 5.36,39.15 5.43,39.23 5.50,39.31 5.54,39.41 5.58,39.51 5.59,39.62 5.60,39.72 5.57,39.83 5.54,39.93 5.48,40.02 5.42,40.10 5.34,40.17 5.25,40.23 5.15,40.27 5.05,40.30 4.95,40.30 4.84,40.30 4.74,40.27 4.64,40.24 4.55,40.17 4.47,40.11 4.41,40.02 4.35,39.94 4.32,39.83 4.29,39.73 4.29,39.63 4.30,39.52 4.34,39.42 4.38,39.32 4.45,39.24 4.51,39.16 4.60,39.10 4.69,39.05 4.80,39.02 4.90,39.00 5.01,39.01 5.11,39.02 5.11,39.02 5.11,39.02 6.79,38.27 8.47,37.53 9.22,37.01 9.96,36.50 10.91,36.05 11.86,35.59 12.93,34.79 14.01,33.98 15.23,33.30 16.45,32.62 17.35,31.98 18.26,31.35 19.44,30.34 20.63,29.32 21.50,28.30 22.37,27.27 23.35,25.97 24.34,24.67 24.79,23.36 25.24,22.06 25.37,20.80 25.51,19.54 25.29,18.29 25.08,17.04 24.57,15.52 24.07,13.99 23.26,12.72 22.45,11.46 20.94,9.84 19.42,8.23 17.82,6.92 16.21,5.61 14.37,4.51 12.52,3.41 11.12,2.85 9.72,2.28 8.23,1.93 6.73,1.57 5.98,1.34 5.22,1.11 4.12,1.02 3.03,0.93 2.31,0.75 1.59,0.56 0.90,0.59 0.20,0.62 0.13,0.63 0.05,0.65 -0.02,0.65 -0.10,0.64 -0.18,0.62 -0.25,0.60 -0.32,0.56 -0.39,0.52 -0.45,0.46 -0.50,0.41 -0.55,0.34 -0.59,0.28 -0.61,0.20 -0.64,0.13 -0.64,0.05 -0.65,-0.02 -0.64,-0.10 -0.63,-0.18 -0.59,-0.25 -0.56,-0.32 -0.52,-0.39 -0.47,-0.45 -0.41,-0.50 -0.35,-0.55 -0.27,-0.58 -0.20,-0.62 -0.20,-0.62 L -0.20,-0.62 Z"/></g><g transform="translate(95.2012939453125 16.085800170898438) rotate(0 24.72357177734375 21.300323486328125)" stroke="none"><path fill="#1e1e1e" d="M 0,-0.65 Q 0,-0.65 1.31,-0.91 2.62,-1.16 4.14,-0.96 5.67,-0.76 7.10,-0.69 8.53,-0.62 10.01,-0.60 11.50,-0.58 13.66,-0.59 15.81,-0.60 18.27,-0.61 20.72,-0.62 23.41,-0.19 26.10,0.23 28.44,0.41 30.78,0.58 33.22,1.10 35.65,1.63 37.61,2.30 39.56,2.98 41.53,3.95 43.50,4.91 45.00,5.77 46.51,6.62 47.73,7.74 48.95,8.87 49.57,10.19 50.19,11.51 50.45,13.26 50.70,15.00 50.79,16.38 50.88,17.75 50.47,19.82 50.06,21.90 49.66,23.41 49.27,24.91 48.37,26.41 47.46,27.91 46.18,29.42 44.89,30.93 43.43,32.26 41.96,33.60 40.67,34.61 39.38,35.62 37.96,36.70 36.55,37.77 35.28,38.68 34.00,39.59 32.53,40.45 31.06,41.32 29.46,41.95 27.87,42.58 25.74,42.88 23.61,43.18 22.08,43.30 20.56,43.41 18.80,43.47 17.04,43.54 15.86,43.56 14.68,43.58 13.52,43.54 12.36,43.50 11.43,43.41 10.50,43.31 8.97,43.19 7.44,43.07 7.33,43.09 7.23,43.11 7.12,43.10 7.02,43.09 6.92,43.04 6.83,43.00 6.75,42.92 6.67,42.85 6.62,42.75 6.58,42.66 6.56,42.55 6.54,42.45 6.56,42.34 6.58,42.24 6.63,42.15 6.68,42.05 6.76,41.98 6.84,41.91 6.94,41.87 7.03,41.82 7.14,41.81 7.25,41.80 7.35,41.83 7.45,41.85 7.54,41.91 7.63,41.96 7.70,42.04 7.77,42.13 7.81,42.23 7.84,42.33 7.85,42.43 7.85,42.54 7.82,42.64 7.79,42.74 7.73,42.83 7.67,42.92 7.59,42.98 7.50,43.04 7.40,43.07 7.30,43.11 7.19,43.11 7.09,43.10 6.99,43.07 6.89,43.03 6.80,42.97 6.72,42.90 6.66,42.81 6.60,42.73 6.57,42.62 6.55,42.52 6.55,42.41 6.56,42.31 6.60,42.21 6.64,42.11 6.71,42.03 6.78,41.95 6.87,41.90 6.97,41.84 6.97,41.84 6.97,41.84 8.73,41.10 10.49,40.35 11.41,40.25 12.34,40.14 13.48,40.09 14.63,40.04 15.79,40.02 16.95,40.01 18.64,39.98 20.32,39.95 21.76,39.87 23.19,39.78 24.94,39.60 26.68,39.42 28.03,38.92 29.39,38.42 30.73,37.65 32.07,36.88 33.31,36.00 34.54,35.13 35.94,34.06 37.34,33.00 38.54,32.07 39.75,31.14 41.07,29.96 42.40,28.77 43.56,27.45 44.73,26.14 45.46,25.09 46.20,24.04 46.59,22.64 46.97,21.24 47.37,19.57 47.77,17.91 47.69,16.64 47.62,15.38 47.49,14.02 47.36,12.65 47.09,11.80 46.81,10.95 45.92,10.06 45.03,9.16 43.61,8.34 42.20,7.52 40.40,6.62 38.59,5.71 36.81,5.08 35.03,4.44 32.79,3.93 30.56,3.42 28.09,3.22 25.62,3.02 23.16,2.57 20.70,2.12 18.25,2.10 15.79,2.07 13.61,2.02 11.43,1.98 9.90,1.93 8.37,1.87 6.84,1.75 5.30,1.63 3.96,1.40 2.62,1.16 1.31,0.91 0,0.65 -0.07,0.64 -0.15,0.63 -0.23,0.60 -0.30,0.58 -0.37,0.53 -0.43,0.49 -0.48,0.43 -0.54,0.37 -0.57,0.30 -0.61,0.23 -0.63,0.15 -0.65,0.07 -0.65,-0.00 -0.65,-0.07 -0.63,-0.15 -0.61,-0.23 -0.57,-0.30 -0.54,-0.37 -0.48,-0.43 -0.43,-0.49 -0.37,-0.53 -0.30,-0.58 -0.23,-0.60 -0.15,-0.63 -0.07,-0.64 0.00,-0.65 0.00,-0.65 L 0,-0.65 Z"/></g><g transform="translate(142.36627197265625 35.10394287109375) rotate(0 22.44140625 0.7607269287109375)" stroke="none"><path fill="#1e1e1e" d="M 0.15,-0.63 Q 0.15,-0.63 1.10,-0.69 2.04,-0.75 2.98,-0.74 3.92,-0.72 5.31,-0.50 6.70,-0.29 8.26,-0.23 9.82,-0.18 10.79,-0.37 11.77,-0.55 13.87,-0.67 15.97,-0.79 18.60,-0.85 21.23,-0.90 24.31,-0.94 27.39,-0.98 29.71,-1.21 32.03,-1.44 34.41,-1.56 36.79,-1.67 38.23,-1.72 39.67,-1.77 42.20,-0.85 44.73,0.06 44.83,0.09 44.93,0.13 45.01,0.20 45.09,0.27 45.15,0.36 45.20,0.45 45.23,0.55 45.25,0.65 45.24,0.76 45.23,0.86 45.19,0.96 45.15,1.06 45.08,1.14 45.00,1.21 44.91,1.27 44.82,1.32 44.71,1.34 44.61,1.36 44.50,1.34 44.40,1.33 44.30,1.28 44.21,1.23 44.13,1.15 44.06,1.08 44.01,0.98 43.97,0.89 43.95,0.78 43.94,0.68 43.96,0.57 43.98,0.47 44.04,0.38 44.09,0.28 44.17,0.21 44.25,0.14 44.35,0.10 44.44,0.06 44.55,0.05 44.66,0.05 44.76,0.07 44.86,0.10 44.95,0.16 45.04,0.21 45.11,0.30 45.17,0.38 45.21,0.48 45.24,0.58 45.24,0.69 45.25,0.79 45.21,0.90 45.18,1.00 45.12,1.08 45.06,1.17 44.97,1.23 44.88,1.29 44.78,1.32 44.68,1.35 44.57,1.35 44.47,1.34 44.47,1.34 44.47,1.34 42.12,1.61 39.77,1.89 38.36,1.92 36.94,1.95 34.65,2.03 32.37,2.11 29.89,2.32 27.41,2.54 24.34,2.53 21.27,2.52 18.68,2.52 16.09,2.53 14.17,2.55 12.24,2.58 10.94,2.74 9.63,2.90 7.89,2.73 6.14,2.57 4.91,2.27 3.68,1.97 2.56,1.80 1.45,1.63 0.64,1.13 -0.15,0.63 -0.23,0.60 -0.30,0.58 -0.37,0.53 -0.43,0.49 -0.48,0.43 -0.54,0.37 -0.57,0.30 -0.61,0.23 -0.63,0.15 -0.65,0.07 -0.65,-0.00 -0.65,-0.08 -0.63,-0.15 -0.61,-0.23 -0.57,-0.30 -0.53,-0.37 -0.48,-0.43 -0.43,-0.49 -0.36,-0.53 -0.30,-0.58 -0.22,-0.61 -0.15,-0.63 -0.07,-0.64 0.00,-0.65 0.08,-0.64 0.15,-0.63 0.15,-0.63 L 0.15,-0.63 Z"/></g><g transform="translate(214.63519287109375 32.06105041503906) rotate(0 6.0858154296875 0.7607192993164062)" stroke="none"><path fill="#1e1e1e" d="M 0,-0.65 Q 0,-0.65 1.09,-1.02 2.18,-1.40 3.52,-1.43 4.86,-1.46 5.87,-1.48 6.87,-1.49 7.96,-1.47 9.04,-1.45 10.48,-0.22 11.92,1.01 11.94,1.12 11.96,1.22 11.95,1.33 11.93,1.43 11.89,1.53 11.84,1.62 11.76,1.70 11.69,1.77 11.59,1.82 11.50,1.87 11.39,1.88 11.29,1.90 11.18,1.88 11.08,1.86 10.99,1.81 10.89,1.76 10.82,1.68 10.75,1.60 10.71,1.50 10.67,1.40 10.66,1.30 10.65,1.19 10.67,1.09 10.70,0.98 10.76,0.90 10.81,0.81 10.90,0.74 10.98,0.67 11.08,0.63 11.18,0.60 11.28,0.59 11.39,0.59 11.49,0.62 11.59,0.65 11.68,0.71 11.77,0.78 11.83,0.86 11.89,0.95 11.92,1.05 11.95,1.15 11.95,1.26 11.95,1.36 11.91,1.46 11.88,1.56 11.81,1.65 11.74,1.73 11.65,1.79 11.57,1.84 11.46,1.87 11.36,1.90 11.25,1.89 11.15,1.88 11.05,1.84 10.95,1.80 10.87,1.73 10.79,1.66 10.74,1.56 10.69,1.47 10.69,1.47 10.69,1.47 9.87,1.46 9.04,1.45 7.96,1.47 6.87,1.49 5.87,1.48 4.86,1.46 3.52,1.43 2.18,1.40 1.09,1.02 0,0.65 -0.07,0.64 -0.15,0.63 -0.23,0.60 -0.30,0.58 -0.37,0.53 -0.43,0.49 -0.48,0.43 -0.54,0.37 -0.57,0.30 -0.61,0.23 -0.63,0.15 -0.65,0.07 -0.65,-0.00 -0.65,-0.07 -0.63,-0.15 -0.61,-0.23 -0.57,-0.30 -0.54,-0.37 -0.48,-0.43 -0.43,-0.49 -0.37,-0.53 -0.30,-0.58 -0.23,-0.60 -0.15,-0.63 -0.07,-0.64 0.00,-0.65 0.00,-0.65 L 0,-0.65 Z"/></g><g transform="translate(216.15667724609375 41.95048522949219) rotate(0 5.7054443359375 0.3803558349609375)" stroke="none"><path fill="#1e1e1e" d="M 0.15,-0.63 Q 0.15,-0.63 1.11,-0.79 2.06,-0.95 3.08,-1.07 4.10,-1.19 5.10,-1.20 6.10,-1.22 8.47,-0.93 10.84,-0.65 10.94,-0.63 11.05,-0.61 11.14,-0.56 11.24,-0.52 11.31,-0.44 11.39,-0.36 11.43,-0.27 11.48,-0.17 11.49,-0.07 11.50,0.03 11.48,0.13 11.46,0.24 11.40,0.33 11.35,0.42 11.27,0.49 11.19,0.56 11.09,0.60 10.99,0.64 10.89,0.65 10.78,0.65 10.68,0.63 10.58,0.60 10.49,0.54 10.40,0.48 10.33,0.40 10.27,0.31 10.23,0.21 10.20,0.11 10.20,0.01 10.20,-0.09 10.23,-0.19 10.26,-0.29 10.33,-0.38 10.39,-0.46 10.48,-0.52 10.56,-0.58 10.67,-0.61 10.77,-0.64 10.87,-0.64 10.98,-0.63 11.08,-0.59 11.18,-0.56 11.26,-0.49 11.34,-0.42 11.40,-0.33 11.45,-0.24 11.48,-0.13 11.50,-0.03 11.49,0.06 11.48,0.17 11.44,0.27 11.39,0.36 11.32,0.44 11.25,0.52 11.16,0.57 11.06,0.62 10.96,0.64 10.85,0.66 10.85,0.66 10.85,0.66 8.55,1.02 6.24,1.37 5.31,1.47 4.38,1.56 2.90,1.69 1.43,1.82 0.63,1.23 -0.15,0.63 -0.23,0.60 -0.30,0.58 -0.37,0.53 -0.43,0.49 -0.48,0.43 -0.54,0.37 -0.57,0.30 -0.61,0.23 -0.63,0.15 -0.65,0.07 -0.65,-0.00 -0.65,-0.08 -0.63,-0.15 -0.61,-0.23 -0.57,-0.30 -0.53,-0.37 -0.48,-0.43 -0.43,-0.49 -0.36,-0.53 -0.30,-0.58 -0.22,-0.61 -0.15,-0.63 -0.07,-0.64 0.00,-0.65 0.08,-0.64 0.15,-0.63 0.15,-0.63 L 0.15,-0.63 Z"/></g><g transform="translate(261.8001708984375 19.128707885742188) rotate(0 27.38616943359375 -0.7607269287109375)" stroke="none"><path fill="#1e1e1e" d="M 0,-0.65 Q 0,-0.65 0.87,-1.15 1.74,-1.64 2.99,-1.67 4.24,-1.69 5.21,-1.70 6.17,-1.71 7.24,-1.73 8.31,-1.75 9.85,-1.76 11.40,-1.78 13.27,-2.01 15.14,-2.25 16.90,-2.36 18.66,-2.47 20.51,-2.52 22.36,-2.58 23.90,-2.81 25.44,-3.04 27.09,-3.16 28.73,-3.27 30.09,-3.32 31.45,-3.37 32.90,-3.39 34.36,-3.41 35.41,-3.42 36.47,-3.43 37.57,-3.43 38.68,-3.44 39.37,-3.44 40.05,-3.44 41.00,-3.44 41.95,-3.44 42.79,-3.44 43.63,-3.45 44.65,-3.45 45.66,-3.45 46.53,-3.45 47.40,-3.45 48.20,-3.45 49.01,-3.45 49.82,-3.44 50.62,-3.44 52.58,-2.43 54.55,-1.42 54.65,-1.40 54.76,-1.38 54.85,-1.33 54.94,-1.27 55.01,-1.19 55.08,-1.11 55.12,-1.01 55.16,-0.91 55.17,-0.81 55.17,-0.70 55.15,-0.60 55.12,-0.50 55.06,-0.41 55.00,-0.32 54.92,-0.25 54.83,-0.19 54.73,-0.15 54.63,-0.12 54.53,-0.12 54.42,-0.12 54.32,-0.15 54.22,-0.18 54.13,-0.25 54.05,-0.31 53.99,-0.40 53.93,-0.48 53.90,-0.59 53.87,-0.69 53.87,-0.79 53.88,-0.90 53.92,-1.00 53.95,-1.10 54.02,-1.18 54.09,-1.26 54.18,-1.32 54.27,-1.37 54.37,-1.40 54.48,-1.42 54.58,-1.41 54.69,-1.40 54.79,-1.36 54.88,-1.31 54.96,-1.24 55.04,-1.17 55.09,-1.08 55.14,-0.98 55.16,-0.88 55.18,-0.77 55.16,-0.67 55.14,-0.56 55.10,-0.47 55.05,-0.37 54.97,-0.30 54.89,-0.23 54.80,-0.18 54.70,-0.14 54.60,-0.12 54.49,-0.11 54.49,-0.11 54.49,-0.11 52.51,0.14 50.52,0.40 49.77,0.40 49.01,0.40 48.20,0.40 47.40,0.40 46.53,0.40 45.66,0.40 44.65,0.40 43.64,0.40 42.80,0.40 41.96,0.40 41.01,0.40 40.06,0.40 39.38,0.40 38.69,0.40 37.59,0.40 36.50,0.41 35.45,0.41 34.41,0.42 32.99,0.43 31.57,0.45 30.27,0.49 28.98,0.52 27.47,0.61 25.97,0.70 24.21,0.93 22.45,1.17 20.66,1.20 18.86,1.22 17.20,1.30 15.54,1.37 13.47,1.58 11.40,1.78 9.85,1.76 8.31,1.75 7.24,1.73 6.17,1.71 5.21,1.70 4.24,1.69 2.99,1.67 1.74,1.64 0.87,1.15 0,0.65 -0.07,0.64 -0.15,0.63 -0.23,0.60 -0.30,0.58 -0.37,0.53 -0.43,0.49 -0.48,0.43 -0.54,0.37 -0.57,0.30 -0.61,0.23 -0.63,0.15 -0.65,0.07 -0.65,-0.00 -0.65,-0.07 -0.63,-0.15 -0.61,-0.23 -0.57,-0.30 -0.54,-0.37 -0.48,-0.43 -0.43,-0.49 -0.37,-0.53 -0.30,-0.58 -0.23,-0.60 -0.15,-0.63 -0.07,-0.64 0.00,-0.65 0.00,-0.65 L 0,-0.65 Z"/></g><g transform="translate(312.768798828125 10) rotate(0 0.38037109375 8.36798095703125)" stroke="none"><path fill="#1e1e1e" d="M 0.64,-0.12 Q 0.64,-0.12 1.28,0.88 1.93,1.89 2.06,3.77 2.19,5.65 2.25,7.53 2.31,9.40 2.09,10.97 1.86,12.54 1.62,14.00 1.39,15.47 1.37,15.54 1.34,15.62 1.31,15.69 1.27,15.76 1.21,15.82 1.16,15.87 1.10,15.92 1.03,15.96 0.95,15.99 0.88,16.02 0.80,16.02 0.72,16.03 0.64,16.02 0.57,16.01 0.49,15.98 0.42,15.95 0.35,15.90 0.29,15.86 0.24,15.80 0.19,15.74 0.15,15.67 0.12,15.60 0.10,15.52 0.08,15.44 0.08,15.36 0.08,15.28 0.11,15.19 0.14,15.09 0.20,15.00 0.27,14.92 0.35,14.85 0.44,14.79 0.54,14.76 0.64,14.73 0.75,14.73 0.85,14.73 0.95,14.76 1.05,14.80 1.14,14.87 1.22,14.93 1.28,15.02 1.34,15.11 1.36,15.21 1.39,15.31 1.38,15.42 1.37,15.53 1.33,15.62 1.29,15.72 1.22,15.80 1.15,15.88 1.06,15.94 0.97,15.99 0.86,16.01 0.76,16.03 0.65,16.02 0.55,16.01 0.45,15.96 0.36,15.91 0.28,15.84 0.21,15.76 0.16,15.67 0.11,15.57 0.09,15.47 0.08,15.36 0.10,15.26 0.12,15.16 0.17,15.06 0.22,14.97 0.30,14.90 0.38,14.83 0.47,14.78 0.57,14.74 0.68,14.73 0.78,14.72 0.88,14.74 0.99,14.77 1.08,14.83 1.17,14.88 1.24,14.96 1.30,15.05 1.34,15.15 1.38,15.24 1.38,15.35 1.39,15.46 1.39,15.46 1.39,15.47 1.37,15.54 1.34,15.62 1.31,15.69 1.27,15.76 1.22,15.82 1.16,15.87 1.10,15.92 1.03,15.96 0.96,15.99 0.88,16.02 0.80,16.02 0.72,16.03 0.64,16.02 0.57,16.01 0.49,15.98 0.42,15.95 0.36,15.90 0.29,15.86 0.24,15.80 0.19,15.74 0.15,15.67 0.12,15.60 0.10,15.52 0.08,15.44 0.08,15.36 0.08,15.28 -0.59,13.69 -1.27,12.10 -1.09,10.78 -0.90,9.46 -0.92,7.64 -0.94,5.82 -1.00,4.15 -1.05,2.48 -0.85,1.30 -0.64,0.12 -0.64,0.04 -0.65,-0.02 -0.64,-0.10 -0.62,-0.18 -0.59,-0.25 -0.56,-0.33 -0.51,-0.39 -0.47,-0.45 -0.41,-0.50 -0.34,-0.55 -0.27,-0.59 -0.20,-0.62 -0.12,-0.63 -0.05,-0.65 0.02,-0.65 0.10,-0.64 0.18,-0.62 0.25,-0.60 0.32,-0.56 0.39,-0.52 0.45,-0.46 0.51,-0.41 0.55,-0.34 0.59,-0.27 0.61,-0.20 0.64,-0.12 0.64,-0.12 L 0.64,-0.12 Z"/></g><g transform="translate(309.7259521484375 10.760726928710938) rotate(0 9.509033203125 8.748344421386719)" stroke="none"><path fill="#1e1e1e" d="M 0.15,-0.63 Q 0.15,-0.63 1.12,-0.77 2.08,-0.91 2.99,-0.61 3.89,-0.32 4.54,-0.25 5.19,-0.19 6.09,0.09 7.00,0.39 8.27,0.95 9.54,1.51 11.13,2.16 12.71,2.81 14.03,3.30 15.34,3.79 16.51,4.51 17.67,5.23 18.24,5.45 18.81,5.66 19.46,6.82 20.11,7.99 19.84,8.97 19.56,9.95 18.38,11.09 17.19,12.23 15.85,13.31 14.51,14.40 12.72,15.37 10.93,16.34 9.24,16.97 7.55,17.61 5.22,17.80 2.89,18.00 2.79,18.01 2.68,18.02 2.58,18.00 2.47,17.98 2.38,17.93 2.29,17.87 2.22,17.79 2.15,17.71 2.11,17.61 2.07,17.51 2.06,17.41 2.06,17.30 2.08,17.20 2.11,17.10 2.17,17.01 2.23,16.92 2.31,16.85 2.40,16.79 2.50,16.75 2.60,16.72 2.70,16.72 2.81,16.72 2.91,16.75 3.01,16.78 3.10,16.85 3.18,16.91 3.24,17.00 3.30,17.08 3.33,17.19 3.36,17.29 3.36,17.39 3.35,17.50 3.31,17.60 3.28,17.70 3.21,17.78 3.14,17.86 3.05,17.92 2.96,17.97 2.86,18.00 2.75,18.02 2.65,18.01 2.54,18.00 2.44,17.96 2.35,17.91 2.27,17.84 2.19,17.77 2.14,17.68 2.09,17.58 2.07,17.48 2.05,17.37 2.07,17.27 2.09,17.16 2.13,17.07 2.18,16.97 2.26,16.90 2.34,16.83 2.43,16.78 2.53,16.74 2.53,16.74 2.53,16.74 4.38,15.42 6.23,14.11 7.69,13.55 9.15,13.00 10.65,12.21 12.16,11.43 13.43,10.43 14.69,9.43 15.53,8.77 16.37,8.11 16.84,8.42 17.30,8.72 16.58,8.38 15.86,8.04 15.01,7.46 14.16,6.88 12.80,6.36 11.44,5.84 9.82,5.14 8.19,4.44 7.06,3.90 5.93,3.35 5.30,3.10 4.66,2.84 3.75,2.64 2.84,2.44 2.12,2.11 1.41,1.79 0.62,1.21 -0.15,0.63 -0.23,0.60 -0.30,0.58 -0.37,0.53 -0.43,0.49 -0.48,0.43 -0.54,0.37 -0.57,0.30 -0.61,0.23 -0.63,0.15 -0.65,0.07 -0.65,-0.00 -0.65,-0.08 -0.63,-0.15 -0.61,-0.23 -0.57,-0.30 -0.53,-0.37 -0.48,-0.43 -0.43,-0.49 -0.36,-0.53 -0.30,-0.58 -0.22,-0.61 -0.15,-0.63 -0.07,-0.64 0.00,-0.65 0.08,-0.64 0.15,-0.63 0.15,-0.63 L 0.15,-0.63 Z"/></g><g transform="translate(266.364501953125 54.12208557128906) rotate(0 22.06109619140625 -0.38036346435546875)" stroke="none"><path fill="#1e1e1e" d="M 0,-0.65 Q 0,-0.65 0.87,-0.98 1.74,-1.31 2.77,-1.36 3.80,-1.41 4.67,-1.42 5.55,-1.44 6.79,-1.47 8.04,-1.50 9.56,-1.74 11.08,-1.98 13.59,-2.11 16.11,-2.24 18.03,-2.29 19.96,-2.34 21.87,-2.37 23.79,-2.40 25.70,-2.41 27.60,-2.42 29.51,-2.43 31.41,-2.44 32.66,-2.44 33.91,-2.45 35.09,-2.45 36.28,-2.45 37.22,-2.45 38.16,-2.45 39.00,-2.45 39.84,-2.45 41.69,-2.22 43.54,-1.98 43.64,-2.01 43.74,-2.03 43.85,-2.02 43.96,-2.02 44.05,-1.97 44.15,-1.93 44.23,-1.86 44.31,-1.79 44.36,-1.70 44.41,-1.61 44.43,-1.50 44.45,-1.40 44.44,-1.29 44.43,-1.19 44.38,-1.09 44.33,-1.00 44.26,-0.92 44.18,-0.85 44.09,-0.80 43.99,-0.75 43.89,-0.74 43.78,-0.72 43.68,-0.74 43.57,-0.76 43.48,-0.81 43.39,-0.87 43.32,-0.95 43.24,-1.03 43.20,-1.12 43.16,-1.22 43.15,-1.33 43.14,-1.43 43.17,-1.54 43.19,-1.64 43.25,-1.73 43.31,-1.82 43.39,-1.88 43.47,-1.95 43.57,-1.99 43.67,-2.02 43.78,-2.03 43.89,-2.03 43.99,-2.00 44.09,-1.97 44.18,-1.91 44.26,-1.84 44.32,-1.76 44.39,-1.67 44.42,-1.57 44.45,-1.47 44.45,-1.36 44.44,-1.26 44.41,-1.16 44.37,-1.06 44.30,-0.97 44.24,-0.89 44.15,-0.83 44.06,-0.78 44.06,-0.78 44.06,-0.78 41.95,0.07 39.84,0.93 39.00,0.93 38.16,0.93 37.22,0.93 36.28,0.93 35.09,0.93 33.91,0.93 32.66,0.93 31.42,0.92 29.52,0.92 27.62,0.92 25.72,0.92 23.82,0.92 21.92,0.93 20.02,0.94 18.13,0.97 16.23,1.00 13.86,1.05 11.50,1.11 9.77,1.30 8.04,1.50 6.80,1.47 5.55,1.44 4.67,1.42 3.80,1.41 2.77,1.36 1.74,1.31 0.87,0.98 0,0.65 -0.07,0.64 -0.15,0.63 -0.23,0.60 -0.30,0.58 -0.37,0.53 -0.43,0.49 -0.48,0.43 -0.54,0.37 -0.57,0.30 -0.61,0.23 -0.63,0.15 -0.65,0.07 -0.65,-0.00 -0.65,-0.07 -0.63,-0.15 -0.61,-0.23 -0.57,-0.30 -0.54,-0.37 -0.48,-0.43 -0.43,-0.49 -0.37,-0.53 -0.30,-0.58 -0.23,-0.60 -0.15,-0.63 -0.07,-0.64 0.00,-0.65 0.00,-0.65 L 0,-0.65 Z"/></g><g transform="translate(308.2044677734375 43.471923828125) rotate(0 0.38037109375 7.607261657714844)" stroke="none"><path fill="#1e1e1e" d="M 0.65,0 Q 0.65,0 0.99,0.87 1.33,1.74 1.38,2.99 1.44,4.24 1.48,5.42 1.51,6.61 1.54,8.21 1.58,9.80 1.47,11.76 1.35,13.72 1.34,13.80 1.33,13.88 1.31,13.95 1.28,14.02 1.23,14.09 1.19,14.15 1.13,14.21 1.07,14.26 1.00,14.30 0.93,14.33 0.85,14.35 0.78,14.37 0.70,14.37 0.62,14.37 0.54,14.35 0.46,14.33 0.39,14.30 0.32,14.26 0.27,14.21 0.21,14.15 0.16,14.09 0.12,14.02 0.09,13.95 0.06,13.88 0.05,13.80 0.04,13.72 0.31,13.40 0.59,13.07 0.69,13.07 0.80,13.07 0.90,13.10 1.00,13.14 1.09,13.20 1.17,13.27 1.23,13.35 1.29,13.44 1.32,13.54 1.35,13.65 1.34,13.75 1.34,13.86 1.30,13.96 1.26,14.06 1.19,14.14 1.12,14.22 1.03,14.27 0.94,14.33 0.84,14.35 0.74,14.37 0.63,14.36 0.52,14.35 0.43,14.31 0.33,14.26 0.25,14.19 0.18,14.12 0.13,14.03 0.08,13.93 0.06,13.83 0.04,13.72 0.06,13.62 0.07,13.51 0.12,13.42 0.17,13.32 0.25,13.25 0.33,13.18 0.42,13.13 0.52,13.09 0.62,13.08 0.73,13.06 0.83,13.09 0.94,13.11 1.03,13.16 1.12,13.22 1.19,13.30 1.26,13.38 1.30,13.48 1.34,13.58 1.34,13.68 1.35,13.79 1.32,13.89 1.29,13.99 1.24,14.08 1.18,14.17 1.09,14.23 1.01,14.30 1.18,14.01 1.35,13.72 1.34,13.80 1.33,13.88 1.31,13.95 1.28,14.02 1.23,14.09 1.19,14.15 1.13,14.21 1.07,14.26 1.00,14.30 0.93,14.33 0.85,14.35 0.78,14.37 0.70,14.37 0.62,14.37 0.54,14.35 0.46,14.33 0.39,14.30 0.32,14.26 0.27,14.21 0.21,14.15 0.16,14.09 0.12,14.02 0.09,13.95 0.06,13.88 0.05,13.80 0.04,13.72 -0.76,11.76 -1.58,9.80 -1.54,8.21 -1.51,6.61 -1.48,5.42 -1.44,4.24 -1.38,2.99 -1.33,1.74 -0.99,0.87 -0.65,0 -0.64,-0.07 -0.63,-0.15 -0.60,-0.23 -0.58,-0.30 -0.53,-0.37 -0.49,-0.43 -0.43,-0.48 -0.37,-0.54 -0.30,-0.57 -0.23,-0.61 -0.15,-0.63 -0.07,-0.65 0.00,-0.65 0.07,-0.65 0.15,-0.63 0.23,-0.61 0.30,-0.57 0.37,-0.54 0.43,-0.48 0.49,-0.43 0.53,-0.37 0.58,-0.30 0.60,-0.23 0.63,-0.15 0.64,-0.07 0.65,0.00 0.65,0.00 L 0.65,0 Z"/></g><g transform="translate(306.6829833984375 44.23265075683594) rotate(0 9.12872314453125 9.509071350097656)" stroke="none"><path fill="#1e1e1e" d="M 0.10,-0.64 Q 0.10,-0.64 1.49,-0.84 2.88,-1.04 4.27,-0.49 5.66,0.06 6.68,0.22 7.70,0.39 9.04,0.97 10.38,1.54 11.66,1.94 12.94,2.34 14.48,2.98 16.03,3.61 17.10,4.45 18.17,5.28 18.77,6.33 19.37,7.39 19.37,8.62 19.37,9.84 18.32,11.46 17.28,13.08 15.85,14.21 14.41,15.34 12.47,16.47 10.53,17.60 9.01,18.30 7.50,19.01 4.58,18.99 1.67,18.97 1.57,18.93 1.47,18.88 1.40,18.81 1.32,18.74 1.27,18.65 1.21,18.56 1.19,18.45 1.17,18.35 1.19,18.24 1.20,18.14 1.25,18.04 1.30,17.95 1.38,17.87 1.45,17.80 1.55,17.75 1.64,17.70 1.75,17.69 1.85,17.68 1.96,17.70 2.06,17.72 2.15,17.77 2.25,17.82 2.32,17.90 2.39,17.98 2.43,18.08 2.47,18.18 2.48,18.28 2.49,18.39 2.46,18.49 2.43,18.60 2.38,18.69 2.32,18.77 2.23,18.84 2.15,18.91 2.05,18.94 1.95,18.98 1.84,18.98 1.74,18.98 1.64,18.95 1.54,18.92 1.45,18.86 1.36,18.79 1.30,18.71 1.24,18.62 1.21,18.52 1.18,18.42 1.18,18.31 1.19,18.20 1.22,18.11 1.26,18.01 1.33,17.92 1.40,17.84 1.49,17.78 1.58,17.73 1.68,17.70 1.78,17.68 1.89,17.69 1.99,17.70 1.99,17.70 1.99,17.70 3.94,16.61 5.88,15.52 7.25,14.89 8.61,14.25 10.37,13.27 12.12,12.28 13.20,11.52 14.29,10.77 15.05,10.00 15.81,9.23 15.84,8.54 15.86,7.84 15.26,7.27 14.65,6.69 13.29,6.08 11.92,5.46 10.47,4.97 9.02,4.48 8.05,3.99 7.08,3.50 5.76,3.21 4.43,2.93 3.40,2.42 2.36,1.92 1.12,1.28 -0.10,0.64 -0.18,0.62 -0.25,0.60 -0.32,0.56 -0.39,0.52 -0.45,0.46 -0.51,0.41 -0.55,0.34 -0.59,0.27 -0.61,0.20 -0.64,0.12 -0.64,0.04 -0.65,-0.02 -0.64,-0.10 -0.62,-0.18 -0.59,-0.25 -0.56,-0.33 -0.51,-0.39 -0.47,-0.45 -0.41,-0.50 -0.34,-0.55 -0.27,-0.59 -0.20,-0.62 -0.12,-0.63 -0.05,-0.65 0.02,-0.65 0.10,-0.64 0.10,-0.64 L 0.10,-0.64 Z"/></g><g transform="translate(325.701171875 51.83990478515625) rotate(0 7.60723876953125 0)" stroke="none"><path fill="#1e1e1e" d="M 0,-0.65 Q 0,-0.65 0.43,-1.08 0.87,-1.51 1.49,-1.53 2.12,-1.55 3.26,-1.58 4.40,-1.61 5.76,-1.63 7.11,-1.64 8.79,-1.66 10.46,-1.67 11.82,-1.68 13.19,-1.69 14.78,-1.17 16.38,-0.65 16.48,-0.63 16.59,-0.62 16.68,-0.57 16.78,-0.52 16.85,-0.44 16.92,-0.36 16.97,-0.27 17.01,-0.17 17.02,-0.07 17.04,0.03 17.01,0.13 16.99,0.24 16.94,0.33 16.88,0.42 16.80,0.49 16.72,0.56 16.62,0.60 16.52,0.64 16.42,0.64 16.31,0.65 16.21,0.62 16.10,0.59 16.02,0.53 15.93,0.47 15.86,0.39 15.80,0.30 15.77,0.20 15.73,0.10 15.73,-0.00 15.73,-0.10 15.77,-0.20 15.80,-0.30 15.86,-0.39 15.93,-0.47 16.02,-0.53 16.10,-0.59 16.21,-0.62 16.31,-0.65 16.42,-0.64 16.52,-0.64 16.62,-0.60 16.72,-0.56 16.80,-0.49 16.88,-0.42 16.94,-0.33 16.99,-0.24 17.01,-0.13 17.04,-0.03 17.02,0.07 17.01,0.17 16.97,0.27 16.92,0.36 16.85,0.44 16.78,0.52 16.68,0.57 16.59,0.62 16.48,0.63 16.38,0.65 16.38,0.65 16.38,0.65 14.78,1.17 13.19,1.69 11.82,1.68 10.46,1.67 8.79,1.66 7.11,1.64 5.76,1.63 4.40,1.61 3.26,1.58 2.12,1.55 1.49,1.53 0.87,1.51 0.43,1.08 0,0.65 -0.07,0.64 -0.15,0.63 -0.23,0.60 -0.30,0.58 -0.37,0.53 -0.43,0.49 -0.48,0.43 -0.54,0.37 -0.57,0.30 -0.61,0.23 -0.63,0.15 -0.65,0.07 -0.65,-0.00 -0.65,-0.07 -0.63,-0.15 -0.61,-0.23 -0.57,-0.30 -0.54,-0.37 -0.48,-0.43 -0.43,-0.49 -0.37,-0.53 -0.30,-0.58 -0.23,-0.60 -0.15,-0.63 -0.07,-0.64 0.00,-0.65 0.00,-0.65 L 0,-0.65 Z"/></g><g transform="translate(329.5047607421875 16.085800170898438) rotate(0 7.2269287109375 1.1410903930664062)" stroke="none"><path fill="#1e1e1e" d="M 0.58,-0.29 Q 0.58,-0.29 1.07,-0.05 1.57,0.17 2.54,0.34 3.51,0.51 4.22,0.53 4.93,0.56 5.91,0.59 6.89,0.61 7.76,0.62 8.62,0.63 9.64,0.63 10.66,0.63 12.72,0.78 14.79,0.93 14.89,0.93 15.00,0.92 15.10,0.95 15.20,0.98 15.29,1.05 15.38,1.11 15.44,1.19 15.50,1.28 15.53,1.38 15.56,1.48 15.56,1.59 15.56,1.70 15.52,1.80 15.49,1.90 15.42,1.98 15.36,2.06 15.27,2.12 15.18,2.18 15.07,2.20 14.97,2.23 14.86,2.22 14.76,2.21 14.66,2.17 14.56,2.13 14.48,2.06 14.40,1.99 14.35,1.90 14.30,1.80 14.28,1.70 14.26,1.60 14.27,1.49 14.29,1.38 14.33,1.29 14.38,1.19 14.45,1.12 14.53,1.04 14.62,1.00 14.72,0.95 14.82,0.93 14.93,0.92 15.03,0.94 15.14,0.96 15.23,1.01 15.32,1.06 15.39,1.14 15.47,1.22 15.51,1.32 15.55,1.41 15.56,1.52 15.57,1.62 15.54,1.73 15.52,1.83 15.46,1.92 15.41,2.01 15.32,2.08 15.24,2.14 15.14,2.18 15.04,2.22 15.04,2.22 15.04,2.22 12.84,3.06 10.63,3.90 9.59,3.88 8.55,3.87 7.65,3.84 6.75,3.81 5.66,3.74 4.56,3.68 3.00,3.25 1.44,2.81 0.90,2.63 0.36,2.45 -0.16,2.01 -0.69,1.57 -0.64,0.93 -0.58,0.29 -0.61,0.21 -0.64,0.14 -0.64,0.06 -0.65,-0.01 -0.64,-0.09 -0.63,-0.16 -0.60,-0.24 -0.57,-0.31 -0.52,-0.38 -0.48,-0.44 -0.42,-0.49 -0.36,-0.54 -0.29,-0.58 -0.22,-0.61 -0.14,-0.63 -0.06,-0.65 0.01,-0.65 0.09,-0.65 0.16,-0.62 0.24,-0.60 0.31,-0.57 0.38,-0.53 0.44,-0.47 0.50,-0.42 0.54,-0.35 0.58,-0.29 0.58,-0.29 L 0.58,-0.29 Z"/></g><g transform="translate(343.9586181640625 16.846527099609375) rotate(0 -0.38037109375 14.07342529296875)" stroke="none"><path fill="#1e1e1e" d="M 0.62,0.20 Q 0.62,0.20 0.56,1.64 0.51,3.08 0.38,4.38 0.26,5.68 0.22,7.32 0.17,8.96 0.38,10.89 0.59,12.81 0.69,14.81 0.78,16.81 0.83,18.98 0.87,21.14 0.89,22.49 0.91,23.85 0.92,24.86 0.93,25.88 1.07,26.35 1.22,26.82 1.21,26.90 1.20,26.97 1.17,27.05 1.14,27.12 1.10,27.19 1.05,27.25 0.99,27.31 0.94,27.36 0.87,27.40 0.80,27.43 0.72,27.45 0.64,27.47 0.56,27.47 0.48,27.47 0.41,27.46 0.33,27.44 0.26,27.40 0.19,27.36 0.13,27.31 0.07,27.26 0.03,27.20 -0.01,27.13 -0.04,27.06 -0.07,26.98 -0.08,26.90 -0.09,26.83 0.08,26.53 0.26,26.24 0.36,26.20 0.46,26.17 0.57,26.17 0.68,26.18 0.78,26.21 0.88,26.25 0.96,26.31 1.04,26.38 1.10,26.47 1.16,26.55 1.19,26.66 1.21,26.76 1.21,26.87 1.20,26.97 1.16,27.07 1.12,27.17 1.05,27.25 0.98,27.33 0.89,27.38 0.79,27.44 0.69,27.46 0.59,27.48 0.48,27.46 0.37,27.45 0.28,27.41 0.18,27.36 0.11,27.29 0.03,27.21 -0.01,27.12 -0.06,27.02 -0.07,26.92 -0.09,26.81 -0.07,26.71 -0.05,26.60 -0.00,26.51 0.04,26.42 0.12,26.34 0.20,26.27 0.30,26.23 0.39,26.19 0.50,26.18 0.60,26.17 0.71,26.19 0.81,26.22 0.90,26.27 0.99,26.33 1.06,26.41 1.13,26.49 1.17,26.59 1.20,26.69 1.21,26.80 1.21,26.90 1.18,27.00 1.15,27.11 1.09,27.19 1.03,27.28 1.12,27.05 1.22,26.82 1.21,26.90 1.20,26.97 1.17,27.05 1.14,27.12 1.10,27.19 1.05,27.25 0.99,27.31 0.94,27.36 0.87,27.40 0.80,27.43 0.72,27.45 0.64,27.47 0.56,27.47 0.48,27.47 0.41,27.46 0.33,27.44 0.26,27.40 0.19,27.36 0.13,27.31 0.07,27.26 0.03,27.20 -0.01,27.13 -0.04,27.06 -0.07,26.98 -0.08,26.90 -0.09,26.83 -1.28,26.36 -2.47,25.90 -2.47,24.89 -2.47,23.88 -2.48,22.54 -2.49,21.19 -2.51,19.07 -2.54,16.95 -2.60,15.03 -2.66,13.11 -2.82,10.96 -2.98,8.82 -2.87,7.05 -2.75,5.29 -2.50,3.73 -2.26,2.16 -1.44,0.98 -0.62,-0.20 -0.58,-0.27 -0.55,-0.35 -0.50,-0.41 -0.45,-0.47 -0.39,-0.52 -0.32,-0.56 -0.25,-0.59 -0.18,-0.63 -0.10,-0.64 -0.02,-0.65 0.05,-0.64 0.13,-0.64 0.20,-0.61 0.28,-0.59 0.34,-0.55 0.41,-0.50 0.46,-0.45 0.52,-0.39 0.56,-0.32 0.60,-0.25 0.62,-0.18 0.64,-0.10 0.65,-0.02 0.65,0.05 0.63,0.13 0.62,0.20 0.62,0.20 L 0.62,0.20 Z"/></g><g transform="translate(343.1978759765625 29.018142700195312) rotate(0 -0.38037109375 10.269798278808594)" stroke="none"><path fill="#1e1e1e" d="M 0.65,0 Q 0.65,0 0.82,0.65 0.98,1.31 1.07,2.67 1.16,4.04 1.19,4.84 1.22,5.65 1.24,6.65 1.25,7.65 1.26,8.51 1.27,9.37 1.28,10.40 1.29,11.42 1.07,12.64 0.84,13.85 0.77,14.90 0.70,15.95 0.30,18.08 -0.09,20.21 -0.11,20.32 -0.13,20.42 -0.18,20.51 -0.23,20.61 -0.31,20.68 -0.39,20.75 -0.49,20.79 -0.58,20.84 -0.69,20.85 -0.80,20.86 -0.90,20.83 -1.00,20.81 -1.09,20.75 -1.18,20.70 -1.25,20.61 -1.32,20.53 -1.36,20.43 -1.39,20.33 -1.40,20.23 -1.40,20.12 -1.37,20.02 -1.34,19.92 -1.28,19.83 -1.22,19.74 -1.14,19.68 -1.05,19.62 -0.95,19.58 -0.85,19.55 -0.74,19.55 -0.64,19.56 -0.54,19.59 -0.44,19.63 -0.35,19.69 -0.27,19.76 -0.21,19.85 -0.15,19.93 -0.12,20.04 -0.10,20.14 -0.10,20.25 -0.11,20.35 -0.15,20.45 -0.19,20.55 -0.26,20.63 -0.33,20.71 -0.42,20.76 -0.52,20.81 -0.62,20.84 -0.72,20.86 -0.83,20.84 -0.94,20.83 -1.03,20.79 -1.13,20.74 -1.20,20.67 -1.28,20.59 -1.33,20.50 -1.38,20.40 -1.39,20.30 -1.41,20.19 -1.41,20.19 -1.41,20.19 -1.68,17.96 -1.94,15.73 -1.83,14.53 -1.72,13.34 -1.50,12.38 -1.29,11.41 -1.28,10.39 -1.27,9.37 -1.26,8.51 -1.25,7.65 -1.24,6.65 -1.22,5.65 -1.19,4.84 -1.16,4.04 -1.07,2.67 -0.98,1.31 -0.82,0.65 -0.65,0 -0.64,-0.07 -0.63,-0.15 -0.60,-0.23 -0.58,-0.30 -0.53,-0.37 -0.49,-0.43 -0.43,-0.48 -0.37,-0.54 -0.30,-0.57 -0.23,-0.61 -0.15,-0.63 -0.07,-0.65 0.00,-0.65 0.07,-0.65 0.15,-0.63 0.23,-0.61 0.30,-0.57 0.37,-0.54 0.43,-0.48 0.49,-0.43 0.53,-0.37 0.58,-0.30 0.60,-0.23 0.63,-0.15 0.64,-0.07 0.65,0.00 0.65,0.00 L 0.65,0 Z"/></g><g transform="translate(338.633544921875 13.042892456054688) rotate(0 14.8341064453125 21.300331115722656)" stroke="none"><path fill="#1e1e1e" d="M -0.20,-0.62 Q -0.20,-0.62 0.35,-1.11 0.92,-1.60 1.51,-1.73 2.11,-1.86 3.20,-1.70 4.30,-1.54 5.97,-1.28 7.64,-1.01 9.53,-0.44 11.43,0.11 13.33,0.79 15.22,1.47 17.38,2.43 19.53,3.38 21.19,4.50 22.85,5.62 24.41,6.73 25.96,7.85 27.15,9.06 28.34,10.27 29.35,11.98 30.35,13.70 30.80,15.18 31.25,16.66 31.44,18.22 31.63,19.78 31.49,21.21 31.34,22.64 31.06,24.31 30.78,25.98 30.44,27.40 30.10,28.81 29.25,30.44 28.40,32.08 27.63,33.40 26.85,34.73 25.29,36.14 23.72,37.55 22.17,38.58 20.61,39.61 18.89,40.70 17.16,41.79 15.44,42.54 13.71,43.29 11.73,43.65 9.76,44.00 8.17,44.34 6.57,44.68 4.99,44.61 3.41,44.54 1.39,43.54 -0.61,42.54 -0.71,42.50 -0.81,42.46 -0.89,42.39 -0.97,42.32 -1.02,42.23 -1.08,42.14 -1.10,42.04 -1.13,41.93 -1.11,41.83 -1.10,41.72 -1.06,41.63 -1.01,41.53 -0.94,41.45 -0.87,41.38 -0.78,41.33 -0.68,41.28 -0.58,41.26 -0.47,41.24 -0.37,41.26 -0.26,41.27 -0.17,41.32 -0.07,41.37 -0.00,41.45 0.06,41.53 0.11,41.62 0.15,41.72 0.16,41.83 0.18,41.93 0.15,42.03 0.13,42.14 0.08,42.23 0.02,42.32 -0.05,42.39 -0.13,42.46 -0.23,42.50 -0.33,42.54 -0.43,42.54 -0.54,42.55 -0.64,42.52 -0.74,42.49 -0.83,42.43 -0.92,42.37 -0.98,42.29 -1.05,42.21 -1.08,42.11 -1.12,42.00 -1.12,41.90 -1.12,41.79 -1.08,41.69 -1.05,41.59 -0.99,41.51 -0.92,41.42 -0.84,41.36 -0.75,41.30 -0.65,41.27 -0.54,41.24 -0.44,41.25 -0.33,41.26 -0.33,41.26 -0.33,41.26 1.64,41.06 3.61,40.87 4.73,40.95 5.84,41.03 7.51,40.69 9.18,40.35 10.75,40.13 12.33,39.92 13.82,39.34 15.30,38.75 17.03,37.72 18.75,36.69 20.15,35.83 21.56,34.97 22.84,33.99 24.13,33.01 24.90,31.79 25.68,30.57 26.43,29.31 27.19,28.05 27.52,26.76 27.86,25.48 28.14,23.88 28.43,22.29 28.58,21.19 28.74,20.09 28.60,18.77 28.47,17.45 28.15,16.29 27.83,15.12 27.04,13.69 26.25,12.26 25.26,11.22 24.27,10.18 22.75,9.08 21.24,7.98 19.80,6.99 18.36,5.99 16.31,5.06 14.26,4.13 12.43,3.45 10.60,2.78 8.88,2.22 7.16,1.66 5.47,1.34 3.77,1.01 2.73,0.87 1.69,0.73 0.95,0.67 0.20,0.62 0.13,0.63 0.05,0.65 -0.02,0.65 -0.10,0.64 -0.18,0.62 -0.25,0.60 -0.32,0.56 -0.39,0.52 -0.45,0.46 -0.50,0.41 -0.55,0.34 -0.59,0.28 -0.61,0.20 -0.64,0.13 -0.64,0.05 -0.65,-0.02 -0.64,-0.10 -0.63,-0.18 -0.59,-0.25 -0.56,-0.32 -0.52,-0.39 -0.47,-0.45 -0.41,-0.50 -0.35,-0.55 -0.27,-0.58 -0.20,-0.62 -0.20,-0.62 L -0.20,-0.62 Z"/></g><g transform="translate(366.7803955078125 36.625396728515625) rotate(0 9.128662109375 -0.38036346435546875)" stroke="none"><path fill="#1e1e1e" d="M -0.09,-0.65 Q -0.09,-0.65 1.37,-1.30 2.84,-1.96 3.97,-2.07 5.10,-2.18 6.26,-2.24 7.41,-2.30 8.78,-2.33 10.15,-2.37 11.61,-2.39 13.06,-2.41 14.96,-1.91 16.87,-1.41 16.95,-1.40 17.03,-1.39 17.10,-1.37 17.17,-1.34 17.24,-1.29 17.30,-1.25 17.36,-1.19 17.41,-1.13 17.45,-1.06 17.48,-0.99 17.50,-0.91 17.52,-0.84 17.52,-0.76 17.52,-0.68 17.51,-0.60 17.49,-0.53 17.45,-0.46 17.41,-0.39 17.36,-0.33 17.31,-0.27 17.24,-0.22 17.18,-0.18 17.11,-0.15 17.03,-0.12 16.95,-0.11 16.87,-0.10 16.77,-0.12 16.66,-0.13 16.57,-0.18 16.47,-0.23 16.40,-0.31 16.33,-0.39 16.28,-0.48 16.24,-0.58 16.23,-0.69 16.22,-0.79 16.24,-0.90 16.26,-1.00 16.32,-1.09 16.37,-1.18 16.45,-1.25 16.53,-1.32 16.63,-1.36 16.73,-1.40 16.84,-1.40 16.94,-1.41 17.05,-1.38 17.15,-1.35 17.24,-1.29 17.32,-1.23 17.39,-1.15 17.45,-1.06 17.49,-0.96 17.52,-0.86 17.52,-0.75 17.52,-0.65 17.49,-0.55 17.45,-0.45 17.39,-0.36 17.32,-0.28 17.23,-0.22 17.15,-0.16 17.04,-0.13 16.94,-0.10 16.84,-0.11 16.73,-0.11 16.63,-0.15 16.53,-0.19 16.45,-0.26 16.37,-0.33 16.32,-0.42 16.26,-0.51 16.24,-0.62 16.22,-0.72 16.23,-0.83 16.24,-0.93 16.28,-1.03 16.33,-1.12 16.40,-1.20 16.48,-1.28 16.57,-1.33 16.66,-1.38 16.77,-1.40 16.87,-1.41 16.87,-1.41 16.87,-1.41 16.95,-1.40 17.03,-1.39 17.10,-1.37 17.17,-1.34 17.24,-1.29 17.30,-1.25 17.36,-1.19 17.41,-1.13 17.45,-1.06 17.48,-0.99 17.50,-0.91 17.52,-0.84 17.52,-0.76 17.52,-0.68 17.51,-0.60 17.49,-0.53 17.45,-0.46 17.41,-0.39 17.36,-0.33 17.31,-0.27 17.24,-0.22 17.18,-0.18 17.11,-0.15 17.03,-0.12 16.95,-0.11 16.87,-0.10 14.98,0.40 13.08,0.91 11.63,0.90 10.19,0.89 8.86,0.89 7.53,0.89 6.45,0.91 5.37,0.93 4.32,1.01 3.27,1.08 1.68,0.86 0.09,0.65 0.01,0.65 -0.06,0.65 -0.14,0.63 -0.21,0.61 -0.29,0.58 -0.36,0.54 -0.42,0.49 -0.48,0.44 -0.52,0.38 -0.57,0.31 -0.60,0.24 -0.63,0.17 -0.64,0.09 -0.65,0.01 -0.64,-0.06 -0.64,-0.14 -0.61,-0.21 -0.58,-0.29 -0.54,-0.35 -0.50,-0.42 -0.44,-0.47 -0.38,-0.53 -0.31,-0.57 -0.24,-0.60 -0.16,-0.62 -0.09,-0.65 -0.09,-0.65 L -0.09,-0.65 Z"/></g><g transform="translate(383.516357421875 28.257415771484375) rotate(0 0 7.6072540283203125)" stroke="none"><path fill="#1e1e1e" d="M 0.65,0 Q 0.65,0 0.99,0.87 1.32,1.74 1.57,2.62 1.81,3.51 1.95,5.14 2.09,6.77 2.15,8.10 2.21,9.43 1.95,10.78 1.70,12.13 0.77,13.84 -0.15,15.54 -0.24,15.60 -0.33,15.66 -0.43,15.69 -0.53,15.72 -0.64,15.72 -0.74,15.71 -0.84,15.67 -0.94,15.63 -1.02,15.57 -1.11,15.50 -1.16,15.41 -1.22,15.32 -1.24,15.21 -1.26,15.11 -1.25,15.00 -1.24,14.90 -1.20,14.80 -1.16,14.70 -1.08,14.63 -1.01,14.55 -0.92,14.50 -0.82,14.45 -0.72,14.43 -0.61,14.41 -0.51,14.43 -0.40,14.44 -0.31,14.49 -0.22,14.54 -0.14,14.62 -0.07,14.70 -0.02,14.79 0.01,14.89 0.03,14.99 0.04,15.10 0.02,15.20 -0.00,15.31 -0.05,15.40 -0.10,15.49 -0.19,15.56 -0.27,15.63 -0.36,15.67 -0.46,15.71 -0.57,15.71 -0.67,15.72 -0.78,15.69 -0.88,15.67 -0.97,15.61 -1.06,15.55 -1.12,15.46 -1.19,15.38 -1.22,15.28 -1.26,15.18 -1.26,15.07 -1.26,14.97 -1.22,14.87 -1.19,14.76 -1.13,14.68 -1.06,14.59 -1.06,14.59 -1.06,14.59 -1.09,13.13 -1.11,11.66 -0.95,10.59 -0.80,9.51 -0.82,8.23 -0.85,6.95 -0.89,5.52 -0.94,4.09 -1.13,2.92 -1.32,1.75 -0.99,0.87 -0.65,0 -0.64,-0.07 -0.63,-0.15 -0.60,-0.23 -0.58,-0.30 -0.53,-0.37 -0.49,-0.43 -0.43,-0.48 -0.37,-0.54 -0.30,-0.57 -0.23,-0.61 -0.15,-0.63 -0.07,-0.65 0.00,-0.65 0.07,-0.65 0.15,-0.63 0.23,-0.61 0.30,-0.57 0.37,-0.54 0.43,-0.48 0.49,-0.43 0.53,-0.37 0.58,-0.30 0.60,-0.23 0.63,-0.15 0.64,-0.07 0.65,0.00 0.65,0.00 L 0.65,0 Z"/></g><g transform="translate(381.234130859375 29.018142700195312) rotate(0 6.8465576171875 8.748344421386719)" stroke="none"><path fill="#1e1e1e" d="M 0.20,-0.62 Q 0.20,-0.62 1.00,-0.81 1.79,-1.00 2.57,-0.68 3.36,-0.36 4.46,-0.04 5.57,0.26 6.95,1.16 8.32,2.06 9.37,2.56 10.42,3.05 11.47,3.79 12.53,4.52 13.30,5.22 14.07,5.92 14.36,7.00 14.66,8.08 14.39,9.17 14.13,10.26 12.71,11.61 11.29,12.96 10.26,13.63 9.24,14.29 7.75,14.77 6.27,15.25 5.36,15.69 4.46,16.14 2.75,16.87 1.03,17.59 0.93,17.64 0.84,17.68 0.73,17.69 0.63,17.70 0.52,17.68 0.42,17.65 0.33,17.60 0.24,17.54 0.17,17.46 0.10,17.38 0.06,17.28 0.03,17.18 0.02,17.07 0.02,16.97 0.05,16.87 0.08,16.76 0.14,16.68 0.20,16.59 0.28,16.53 0.37,16.46 0.47,16.43 0.57,16.40 0.68,16.40 0.78,16.40 0.88,16.43 0.98,16.47 1.07,16.53 1.15,16.60 1.21,16.69 1.27,16.78 1.29,16.88 1.32,16.98 1.32,17.09 1.31,17.19 1.27,17.29 1.23,17.39 1.16,17.47 1.09,17.55 1.00,17.60 0.91,17.66 0.80,17.68 0.70,17.70 0.59,17.69 0.49,17.68 0.39,17.63 0.29,17.58 0.22,17.51 0.14,17.44 0.09,17.34 0.04,17.25 0.03,17.14 0.01,17.04 0.03,16.93 0.05,16.83 0.10,16.74 0.15,16.64 0.23,16.57 0.31,16.50 0.31,16.50 0.31,16.50 1.65,15.20 2.99,13.90 4.04,13.06 5.09,12.21 6.16,11.72 7.22,11.23 8.07,10.64 8.92,10.05 9.86,9.49 10.80,8.92 11.15,8.36 11.50,7.79 11.04,7.48 10.59,7.17 9.80,6.55 9.00,5.93 7.75,5.30 6.51,4.68 5.57,3.97 4.63,3.26 3.37,2.87 2.12,2.48 1.47,2.18 0.83,1.88 0.31,1.25 -0.20,0.62 -0.27,0.58 -0.35,0.55 -0.41,0.50 -0.47,0.45 -0.52,0.39 -0.56,0.32 -0.59,0.25 -0.63,0.18 -0.64,0.10 -0.65,0.02 -0.64,-0.05 -0.64,-0.13 -0.61,-0.20 -0.59,-0.28 -0.55,-0.34 -0.50,-0.41 -0.45,-0.46 -0.39,-0.52 -0.32,-0.56 -0.25,-0.60 -0.18,-0.62 -0.10,-0.64 -0.02,-0.65 0.05,-0.65 0.13,-0.63 0.20,-0.62 0.20,-0.62 L 0.20,-0.62 Z"/></g><g transform="translate(391.88427734375 35.86466979980469) rotate(0 12.171630859375 0.7607269287109375)" stroke="none"><path fill="#1e1e1e" d="M 0,-0.65 Q 0,-0.65 1.09,-1.03 2.18,-1.42 3.30,-1.48 4.42,-1.53 5.99,-1.58 7.57,-1.63 9.43,-1.45 11.30,-1.27 12.98,-0.97 14.66,-0.66 16.34,-0.52 18.02,-0.37 20.86,0.23 23.70,0.84 23.81,0.86 23.91,0.88 24.00,0.94 24.10,0.99 24.17,1.07 24.24,1.15 24.28,1.24 24.32,1.34 24.33,1.45 24.34,1.55 24.32,1.66 24.29,1.76 24.23,1.85 24.18,1.94 24.09,2.00 24.01,2.07 23.91,2.11 23.81,2.15 23.71,2.15 23.60,2.15 23.50,2.12 23.40,2.09 23.31,2.03 23.22,1.97 23.16,1.88 23.10,1.80 23.07,1.69 23.04,1.59 23.04,1.49 23.04,1.38 23.08,1.28 23.11,1.18 23.18,1.10 23.25,1.01 23.33,0.96 23.42,0.90 23.53,0.87 23.63,0.85 23.74,0.86 23.84,0.86 23.94,0.91 24.04,0.95 24.12,1.02 24.20,1.09 24.25,1.18 24.30,1.27 24.32,1.38 24.34,1.48 24.33,1.59 24.31,1.69 24.27,1.79 24.22,1.88 24.15,1.96 24.07,2.03 23.98,2.08 23.88,2.13 23.78,2.14 23.67,2.16 23.67,2.16 23.67,2.16 20.72,2.59 17.77,3.02 15.89,2.90 14.00,2.78 12.44,2.46 10.87,2.14 9.22,1.89 7.56,1.63 5.99,1.58 4.42,1.53 3.30,1.48 2.18,1.42 1.09,1.03 0,0.65 -0.07,0.64 -0.15,0.63 -0.23,0.60 -0.30,0.58 -0.37,0.53 -0.43,0.49 -0.48,0.43 -0.54,0.37 -0.57,0.30 -0.61,0.23 -0.63,0.15 -0.65,0.07 -0.65,-0.00 -0.65,-0.07 -0.63,-0.15 -0.61,-0.23 -0.57,-0.30 -0.54,-0.37 -0.48,-0.43 -0.43,-0.49 -0.37,-0.53 -0.30,-0.58 -0.23,-0.60 -0.15,-0.63 -0.07,-0.64 0.00,-0.65 0.00,-0.65 L 0,-0.65 Z"/></g></svg>