<svg version="1.1" xmlns="http://www.w3.org/2000/svg" viewBox="0 0 538.1055297851562 328.5503692626953" width="538.1055297851562" height="328.5503692626953" filter="invert(93%) hue-rotate(180deg)" class="excalidraw-svg">
  <!-- svg-source:excalidraw -->
  
  <defs>
    <style class="style-fonts">
      @font-face {
        font-family: "Virgil";
        src: url("https://excalidraw.com/Virgil.woff2");
      }
      @font-face {
        font-family: "Cascadia";
        src: url("https://excalidraw.com/Cascadia.woff2");
      }
      @font-face {
        font-family: "Assistant";
        src: url("https://excalidraw.com/Assistant-Regular.woff2");
      }
    </style>
    
  </defs>
  <rect x="0" y="0" width="538.1055297851562" height="328.5503692626953" fill="#ffffff"/><g stroke-linecap="round"><g transform="translate(10.50762939453125 49.253448486328125) rotate(0 130.0841064453125 0.4564361572265625)"><path d="M0 0 C43.36 0.15, 216.81 0.76, 260.17 0.91 M0 0 C43.36 0.15, 216.81 0.76, 260.17 0.91" stroke="#1e1e1e" stroke-width="2" fill="none"/></g></g><mask/><g stroke-linecap="round"><g transform="translate(11.805908203125 69.96542358398438) rotate(0 130.0841064453125 0.4564361572265625)"><path d="M0 0 C43.36 0.15, 216.81 0.76, 260.17 0.91 M0 0 C43.36 0.15, 216.81 0.76, 260.17 0.91" stroke="#1e1e1e" stroke-width="2" fill="none"/></g></g><mask/><g stroke-linecap="round"><g transform="translate(10 111.95352172851562) rotate(0 130.0841064453125 0.4564361572265625)"><path d="M0 0 C43.36 0.15, 216.81 0.76, 260.17 0.91 M0 0 C43.36 0.15, 216.81 0.76, 260.17 0.91" stroke="#1e1e1e" stroke-width="2" fill="none"/></g></g><mask/><g stroke-linecap="round"><g transform="translate(164.7828369140625 47.42771911621094) rotate(0 53.859405517578125 52.946502685546875)"><path d="M0 0 C2.89 15.67, -0.61 76.38, 17.34 94.03 C35.3 111.67, 92.66 103.92, 107.72 105.89 M0 0 C2.89 15.67, -0.61 76.38, 17.34 94.03 C35.3 111.67, 92.66 103.92, 107.72 105.89" stroke="#1e1e1e" stroke-width="2" fill="none"/></g></g><mask/><g stroke-linecap="round"><g transform="translate(176.78115844726562 70.79537826234605) rotate(0 45.187103271484375 52.946502685546875)"><path d="M0 0 C2.43 15.67, -0.51 76.38, 14.55 94.03 C29.61 111.67, 77.74 103.92, 90.37 105.89 M0 0 C2.43 15.67, -0.51 76.38, 14.55 94.03 C29.61 111.67, 77.74 103.92, 90.37 105.89" stroke="#1e1e1e" stroke-width="2" fill="none"/></g></g><mask/><g stroke-linecap="round"><g transform="translate(195.09207153320312 113.40130477601792) rotate(0 35.601959228515625 52.946502685546875)"><path d="M0 0 C1.91 15.67, -0.4 76.38, 11.47 94.03 C23.33 111.67, 61.25 103.92, 71.2 105.89 M0 0 C1.91 15.67, -0.4 76.38, 11.47 94.03 C23.33 111.67, 61.25 103.92, 71.2 105.89" stroke="#1e1e1e" stroke-width="2" fill="none"/></g></g><mask/><g stroke-linecap="round" transform="translate(272.5015869140625 26.431686401367188) rotate(0 45.6435546875 50.664329528808594)"><path d="M22.82 0 C33.42 0, 44.02 0, 68.47 0 M22.82 0 C34.09 0, 45.36 0, 68.47 0 M68.47 0 C83.68 0, 91.29 7.61, 91.29 22.82 M68.47 0 C83.68 0, 91.29 7.61, 91.29 22.82 M91.29 22.82 C91.29 40.37, 91.29 57.91, 91.29 78.51 M91.29 22.82 C91.29 38.75, 91.29 54.67, 91.29 78.51 M91.29 78.51 C91.29 93.72, 83.68 101.33, 68.47 101.33 M91.29 78.51 C91.29 93.72, 83.68 101.33, 68.47 101.33 M68.47 101.33 C50.88 101.33, 33.29 101.33, 22.82 101.33 M68.47 101.33 C50.4 101.33, 32.33 101.33, 22.82 101.33 M22.82 101.33 C7.61 101.33, 0 93.72, 0 78.51 M22.82 101.33 C7.61 101.33, 0 93.72, 0 78.51 M0 78.51 C0 60, 0 41.5, 0 22.82 M0 78.51 C0 64.33, 0 50.15, 0 22.82 M0 22.82 C0 7.61, 7.61 0, 22.82 0 M0 22.82 C0 7.61, 7.61 0, 22.82 0" stroke="#1e1e1e" stroke-width="2" fill="none"/></g><g stroke-linecap="round" transform="translate(268.5277099609375 137.38915252685547) rotate(0 45.6435546875 50.664329528808594)"><path d="M22.82 0 C39.58 0, 56.34 0, 68.47 0 M22.82 0 C35.32 0, 47.83 0, 68.47 0 M68.47 0 C83.68 0, 91.29 7.61, 91.29 22.82 M68.47 0 C83.68 0, 91.29 7.61, 91.29 22.82 M91.29 22.82 C91.29 39.44, 91.29 56.06, 91.29 78.51 M91.29 22.82 C91.29 39.02, 91.29 55.22, 91.29 78.51 M91.29 78.51 C91.29 93.72, 83.68 101.33, 68.47 101.33 M91.29 78.51 C91.29 93.72, 83.68 101.33, 68.47 101.33 M68.47 101.33 C57.08 101.33, 45.69 101.33, 22.82 101.33 M68.47 101.33 C52.93 101.33, 37.39 101.33, 22.82 101.33 M22.82 101.33 C7.61 101.33, 0 93.72, 0 78.51 M22.82 101.33 C7.61 101.33, 0 93.72, 0 78.51 M0 78.51 C0 56.83, 0 35.16, 0 22.82 M0 78.51 C0 62.27, 0 46.04, 0 22.82 M0 22.82 C0 7.61, 7.61 0, 22.82 0 M0 22.82 C0 7.61, 7.61 0, 22.82 0" stroke="#1e1e1e" stroke-width="2" fill="none"/></g><g stroke-linecap="round" transform="translate(138.30963134765625 10) rotate(0 194.89794921875 154.27518463134766)"><path d="M32 0 C99.05 0, 166.09 0, 357.8 0 M32 0 C134.68 0, 237.36 0, 357.8 0 M357.8 0 C379.13 0, 389.8 10.67, 389.8 32 M357.8 0 C379.13 0, 389.8 10.67, 389.8 32 M389.8 32 C389.8 87.6, 389.8 143.21, 389.8 276.55 M389.8 32 C389.8 119.08, 389.8 206.15, 389.8 276.55 M389.8 276.55 C389.8 297.88, 379.13 308.55, 357.8 308.55 M389.8 276.55 C389.8 297.88, 379.13 308.55, 357.8 308.55 M357.8 308.55 C282.09 308.55, 206.38 308.55, 32 308.55 M357.8 308.55 C243.32 308.55, 128.83 308.55, 32 308.55 M32 308.55 C10.67 308.55, 0 297.88, 0 276.55 M32 308.55 C10.67 308.55, 0 297.88, 0 276.55 M0 276.55 C0 218.6, 0 160.66, 0 32 M0 276.55 C0 202.9, 0 129.26, 0 32 M0 32 C0 10.67, 10.67 0, 32 0 M0 32 C0 10.67, 10.67 0, 32 0" stroke="#1e1e1e" stroke-width="2" fill="none"/></g><g stroke-linecap="round"><g transform="translate(363.1871032714844 81.06539916992188) rotate(0 31.49407958984375 0)"><path d="M0 0 C10.5 0, 52.49 0, 62.99 0 M0 0 C10.5 0, 52.49 0, 62.99 0" stroke="#1e1e1e" stroke-width="2" fill="none"/></g></g><mask/><g transform="translate(211.33929443359375 234.5662384033203) rotate(0 0 0.912872314453125)" stroke="none"><path fill="#1e1e1e" d="M 2.62,1.04 Q 2.62,1.04 2.55,1.46 2.48,1.88 2.29,2.26 2.09,2.63 1.78,2.93 1.47,3.22 1.08,3.40 0.70,3.58 0.28,3.62 -0.14,3.67 -0.55,3.58 -0.97,3.48 -1.33,3.27 -1.70,3.05 -1.97,2.72 -2.25,2.40 -2.40,2.00 -2.56,1.61 -2.58,1.18 -2.61,0.76 -2.49,0.35 -2.38,-0.05 -2.14,-0.40 -1.90,-0.75 -1.56,-1.01 -1.23,-1.27 -0.82,-1.40 -0.42,-1.54 0.00,-1.54 0.42,-1.54 0.82,-1.40 1.23,-1.27 1.56,-1.01 1.90,-0.75 2.14,-0.40 2.38,-0.05 2.49,0.35 2.61,0.76 2.58,1.19 2.56,1.61 2.40,2.00 2.25,2.40 1.97,2.72 1.69,3.05 1.33,3.27 0.97,3.49 0.55,3.58 0.14,3.67 -0.28,3.62 -0.70,3.58 -1.08,3.40 -1.47,3.22 -1.78,2.93 -2.09,2.63 -2.29,2.26 -2.48,1.88 -2.55,1.46 -2.62,1.04 -2.62,1.04 -2.62,1.04 -2.71,0.72 -2.80,0.39 -2.80,0.04 -2.81,-0.29 -2.73,-0.62 -2.66,-0.95 -2.50,-1.26 -2.35,-1.56 -2.13,-1.82 -1.91,-2.08 -1.63,-2.28 -1.35,-2.48 -1.04,-2.60 -0.72,-2.73 -0.38,-2.78 -0.04,-2.82 0.28,-2.79 0.62,-2.75 0.94,-2.64 1.27,-2.52 1.55,-2.33 1.83,-2.15 2.06,-1.89 2.29,-1.64 2.46,-1.34 2.62,-1.04 2.62,0.00 L 2.62,1.04 Z"/></g><g transform="translate(209.5135498046875 249.1721649169922) rotate(0 -0.456451416015625 0.4564361572265625)" stroke="none"><path fill="#1e1e1e" d="M 1.33,2.38 Q 1.33,2.38 0.98,2.63 0.64,2.87 0.23,3.00 -0.17,3.12 -0.59,3.11 -1.02,3.10 -1.41,2.95 -1.81,2.81 -2.14,2.54 -2.48,2.27 -2.70,1.92 -2.93,1.56 -3.04,1.15 -3.14,0.73 -3.10,0.31 -3.07,-0.10 -2.90,-0.49 -2.73,-0.88 -2.45,-1.20 -2.17,-1.52 -1.80,-1.73 -1.43,-1.94 -1.01,-2.02 -0.59,-2.10 -0.17,-2.04 0.24,-1.98 0.62,-1.79 1.00,-1.60 1.30,-1.30 1.60,-1.00 1.79,-0.62 1.98,-0.24 2.04,0.17 2.10,0.59 2.02,1.01 1.94,1.43 1.73,1.80 1.52,2.17 1.20,2.45 0.88,2.73 0.49,2.90 0.10,3.07 -0.31,3.10 -0.73,3.14 -1.15,3.04 -1.56,2.93 -1.92,2.70 -2.27,2.47 -2.54,2.14 -2.81,1.81 -2.95,1.41 -3.10,1.01 -3.11,0.59 -3.12,0.16 -3.00,-0.23 -2.87,-0.64 -2.62,-0.98 -2.38,-1.33 -2.38,-1.33 -2.38,-1.33 -2.18,-1.59 -1.99,-1.86 -1.74,-2.07 -1.49,-2.28 -1.19,-2.43 -0.89,-2.57 -0.57,-2.64 -0.25,-2.71 0.07,-2.70 0.40,-2.69 0.71,-2.61 1.03,-2.52 1.32,-2.36 1.60,-2.20 1.85,-1.97 2.09,-1.75 2.27,-1.47 2.44,-1.20 2.55,-0.89 2.66,-0.58 2.69,-0.25 2.72,0.07 2.68,0.39 2.63,0.72 2.50,1.02 2.38,1.33 1.85,1.85 L 1.33,2.38 Z"/></g><g transform="translate(207.68780517578125 267.42958068847656) rotate(0 0.4564208984375 -0.45637089843749834)" stroke="none"><path fill="#1e1e1e" d="M 1.85,-1.85 Q 1.85,-1.85 2.10,-1.51 2.35,-1.16 2.47,-0.76 2.60,-0.35 2.59,0.07 2.57,0.49 2.43,0.89 2.28,1.29 2.02,1.62 1.75,1.95 1.39,2.18 1.03,2.41 0.62,2.51 0.21,2.61 -0.21,2.58 -0.63,2.54 -1.02,2.38 -1.41,2.21 -1.73,1.92 -2.04,1.64 -2.25,1.27 -2.46,0.90 -2.54,0.48 -2.62,0.07 -2.56,-0.35 -2.51,-0.77 -2.32,-1.15 -2.13,-1.53 -1.83,-1.83 -1.53,-2.13 -1.15,-2.32 -0.77,-2.51 -0.34,-2.56 0.07,-2.62 0.48,-2.54 0.90,-2.46 1.27,-2.25 1.64,-2.04 1.92,-1.73 2.21,-1.41 2.38,-1.02 2.54,-0.63 2.58,-0.20 2.61,0.21 2.51,0.62 2.41,1.03 2.18,1.39 1.95,1.75 1.62,2.02 1.29,2.28 0.89,2.43 0.49,2.57 0.06,2.59 -0.35,2.60 -0.76,2.47 -1.16,2.35 -1.51,2.10 -1.85,1.85 -1.85,1.85 -1.85,1.85 -2.05,1.60 -2.24,1.35 -2.37,1.07 -2.50,0.78 -2.56,0.47 -2.62,0.15 -2.60,-0.15 -2.58,-0.47 -2.48,-0.77 -2.39,-1.07 -2.23,-1.34 -2.06,-1.61 -1.84,-1.84 -1.61,-2.06 -1.34,-2.23 -1.07,-2.39 -0.77,-2.48 -0.47,-2.58 -0.15,-2.60 0.15,-2.62 0.47,-2.56 0.78,-2.50 1.07,-2.37 1.35,-2.24 1.60,-2.05 1.85,-1.85 1.85,-1.85 L 1.85,-1.85 Z"/></g><g transform="translate(280.71746826171875 287.5127410888672) rotate(0 2.282196044921875 -5.4772186279296875)" stroke="none"><path fill="#1e1e1e" d="M -0.36,-0.54 Q -0.36,-0.54 0.20,-1.39 0.78,-2.23 1.55,-2.94 2.33,-3.64 3.38,-4.95 4.43,-6.25 5.68,-7.87 6.92,-9.48 7.61,-11.31 8.30,-13.13 8.62,-14.34 8.93,-15.54 8.64,-16.21 8.34,-16.87 7.83,-16.70 7.32,-16.52 6.72,-15.56 6.12,-14.60 5.57,-12.97 5.03,-11.34 4.51,-8.83 4.00,-6.31 4.05,-4.31 4.09,-2.30 4.11,-0.32 4.12,1.64 4.38,3.15 4.64,4.67 4.75,5.72 4.86,6.78 4.10,7.79 3.34,8.79 2.44,8.81 1.54,8.83 0.47,8.16 -0.58,7.48 -1.58,7.06 -2.58,6.64 -3.45,6.48 -4.31,6.33 -5.00,6.00 -5.69,5.67 -5.86,5.61 -6.04,5.55 -6.19,5.45 -6.35,5.35 -6.47,5.21 -6.60,5.08 -6.69,4.92 -6.78,4.76 -6.83,4.58 -6.88,4.40 -6.89,4.22 -6.89,4.03 -6.85,3.85 -6.82,3.67 -6.73,3.51 -6.65,3.34 -6.54,3.20 -6.42,3.06 -6.27,2.95 -6.12,2.84 -5.95,2.77 -5.78,2.69 -5.60,2.67 -5.42,2.64 -5.23,2.66 -5.05,2.67 -3.68,2.78 -2.31,2.89 -0.60,2.91 1.09,2.93 2.20,2.72 3.30,2.51 6.36,2.76 9.42,3.02 9.52,3.03 9.63,3.04 9.72,3.09 9.82,3.13 9.90,3.21 9.97,3.28 10.02,3.37 10.07,3.47 10.09,3.57 10.10,3.68 10.09,3.78 10.07,3.89 10.02,3.98 9.97,4.08 9.89,4.15 9.81,4.22 9.72,4.26 9.62,4.31 9.51,4.32 9.41,4.33 9.31,4.31 9.20,4.28 9.11,4.23 9.02,4.17 8.95,4.09 8.88,4.01 8.84,3.91 8.81,3.81 8.80,3.71 8.80,3.60 8.82,3.50 8.85,3.40 8.91,3.31 8.97,3.22 9.06,3.16 9.14,3.09 9.24,3.06 9.35,3.03 9.45,3.03 9.56,3.03 9.66,3.06 9.76,3.10 9.84,3.16 9.93,3.23 9.99,3.31 10.05,3.40 10.07,3.51 10.10,3.61 10.09,3.71 10.09,3.82 10.05,3.92 10.01,4.02 9.94,4.10 9.87,4.18 9.78,4.23 9.69,4.29 9.58,4.31 9.48,4.33 9.48,4.33 9.48,4.33 6.69,4.93 3.91,5.54 2.49,5.83 1.07,6.13 -0.69,6.11 -2.46,6.09 -4.07,5.88 -5.69,5.67 -5.86,5.61 -6.04,5.55 -6.19,5.45 -6.35,5.35 -6.47,5.21 -6.60,5.08 -6.69,4.92 -6.78,4.76 -6.83,4.58 -6.88,4.40 -6.89,4.22 -6.89,4.03 -6.85,3.85 -6.82,3.67 -6.73,3.51 -6.65,3.34 -6.54,3.20 -6.42,3.06 -6.27,2.95 -6.12,2.84 -5.95,2.77 -5.78,2.69 -5.60,2.67 -5.42,2.64 -5.23,2.66 -5.05,2.67 -4.36,3.05 -3.67,3.42 -2.53,3.70 -1.40,3.97 -0.15,4.55 1.08,5.13 1.59,5.98 2.09,6.82 1.97,5.98 1.85,5.13 1.58,3.40 1.30,1.67 1.28,-0.29 1.27,-2.25 1.24,-4.56 1.21,-6.87 1.76,-9.57 2.31,-12.28 3.03,-14.28 3.75,-16.29 4.89,-17.70 6.03,-19.12 7.29,-19.45 8.54,-19.78 9.79,-18.98 11.03,-18.18 11.49,-16.62 11.95,-15.07 11.58,-13.52 11.22,-11.97 10.30,-9.78 9.38,-7.60 8.07,-5.95 6.75,-4.30 5.50,-2.87 4.25,-1.44 3.31,-0.65 2.36,0.13 1.36,0.34 0.36,0.54 0.29,0.58 0.22,0.61 0.14,0.63 0.06,0.65 -0.01,0.65 -0.08,0.65 -0.16,0.63 -0.24,0.61 -0.31,0.57 -0.38,0.53 -0.44,0.48 -0.49,0.42 -0.54,0.36 -0.58,0.29 -0.61,0.22 -0.64,0.14 -0.64,0.06 -0.65,-0.01 -0.64,-0.08 -0.63,-0.16 -0.60,-0.24 -0.57,-0.31 -0.53,-0.37 -0.48,-0.44 -0.42,-0.49 -0.36,-0.54 -0.36,-0.54 L -0.36,-0.54 Z"/></g><g transform="translate(296.23626708984375 296.64146423339844) rotate(0 6.846527099609375 -2.28216552734375)" stroke="none"><path fill="#1e1e1e" d="M -0.36,-0.54 Q -0.36,-0.54 0.21,-1.38 0.79,-2.21 1.90,-2.97 3.00,-3.74 3.87,-4.74 4.73,-5.74 5.67,-6.74 6.62,-7.74 6.88,-8.49 7.14,-9.23 7.60,-9.80 8.06,-10.38 7.88,-10.63 7.70,-10.89 7.67,-11.07 7.64,-11.25 7.66,-11.44 7.68,-11.62 7.74,-11.80 7.80,-11.97 7.90,-12.12 8.00,-12.28 8.14,-12.41 8.27,-12.53 8.43,-12.62 8.59,-12.71 8.77,-12.76 8.95,-12.81 9.13,-12.81 9.32,-12.82 9.50,-12.78 9.68,-12.74 9.84,-12.66 10.01,-12.58 10.15,-12.46 10.29,-12.34 10.40,-12.19 10.51,-12.04 10.58,-11.87 10.65,-11.70 10.20,-10.83 9.76,-9.96 9.78,-8.99 9.80,-8.02 9.51,-6.84 9.21,-5.66 9.12,-4.81 9.03,-3.95 8.68,-2.87 8.34,-1.79 8.24,-0.77 8.15,0.25 8.09,0.99 8.04,1.73 7.71,2.77 7.39,3.81 6.96,4.78 6.53,5.75 5.92,6.37 5.31,6.99 4.86,7.40 4.41,7.81 3.73,8.12 3.04,8.44 2.09,8.42 1.14,8.40 0.54,7.74 -0.06,7.07 0.04,6.05 0.15,5.03 0.86,4.01 1.57,2.99 2.98,1.75 4.39,0.50 5.86,-0.31 7.33,-1.13 10.05,-2.46 12.77,-3.79 12.87,-3.83 12.96,-3.88 13.07,-3.90 13.17,-3.91 13.27,-3.90 13.38,-3.88 13.47,-3.83 13.57,-3.77 13.64,-3.70 13.71,-3.62 13.75,-3.52 13.80,-3.42 13.81,-3.32 13.82,-3.21 13.79,-3.11 13.77,-3.01 13.71,-2.92 13.65,-2.83 13.57,-2.76 13.49,-2.69 13.39,-2.65 13.29,-2.61 13.19,-2.61 13.08,-2.61 12.98,-2.64 12.88,-2.67 12.79,-2.73 12.70,-2.79 12.64,-2.87 12.58,-2.96 12.54,-3.06 12.51,-3.16 12.51,-3.27 12.51,-3.37 12.55,-3.47 12.59,-3.57 12.65,-3.66 12.72,-3.74 12.80,-3.80 12.89,-3.86 13.00,-3.88 13.10,-3.91 13.21,-3.90 13.31,-3.90 13.41,-3.86 13.51,-3.82 13.59,-3.75 13.67,-3.68 13.72,-3.58 13.77,-3.49 13.80,-3.39 13.82,-3.28 13.80,-3.18 13.79,-3.07 13.74,-2.98 13.70,-2.88 13.62,-2.80 13.55,-2.73 13.55,-2.73 13.55,-2.73 11.16,-0.62 8.78,1.49 7.56,2.15 6.35,2.81 5.15,3.81 3.94,4.81 3.15,5.18 2.37,5.54 3.04,4.97 3.72,4.40 4.06,3.60 4.40,2.80 4.65,2.14 4.90,1.47 4.96,0.69 5.02,-0.09 5.18,-1.43 5.35,-2.78 5.63,-3.56 5.91,-4.34 6.05,-5.40 6.18,-6.46 6.43,-7.31 6.68,-8.16 6.71,-8.72 6.73,-9.28 6.84,-10.14 6.94,-11.01 7.74,-11.62 8.53,-12.23 8.11,-11.56 7.70,-10.89 7.67,-11.07 7.64,-11.25 7.66,-11.44 7.68,-11.62 7.74,-11.80 7.80,-11.97 7.90,-12.12 8.00,-12.28 8.14,-12.41 8.27,-12.53 8.43,-12.62 8.59,-12.71 8.77,-12.76 8.95,-12.81 9.13,-12.81 9.32,-12.82 9.50,-12.78 9.68,-12.74 9.84,-12.66 10.01,-12.58 10.15,-12.46 10.29,-12.34 10.40,-12.19 10.51,-12.04 10.58,-11.87 10.65,-11.70 10.68,-11.32 10.71,-10.93 10.72,-10.24 10.73,-9.55 10.32,-8.80 9.91,-8.04 9.36,-6.89 8.82,-5.74 7.86,-4.75 6.91,-3.76 5.77,-2.55 4.62,-1.35 3.49,-0.61 2.35,0.11 1.35,0.33 0.36,0.54 0.29,0.58 0.22,0.61 0.14,0.63 0.06,0.65 -0.01,0.65 -0.08,0.65 -0.16,0.63 -0.24,0.61 -0.31,0.57 -0.38,0.53 -0.44,0.48 -0.49,0.42 -0.54,0.36 -0.58,0.29 -0.61,0.22 -0.64,0.14 -0.64,0.06 -0.65,-0.01 -0.64,-0.08 -0.63,-0.16 -0.60,-0.24 -0.57,-0.31 -0.53,-0.37 -0.48,-0.44 -0.42,-0.49 -0.36,-0.54 -0.36,-0.54 L -0.36,-0.54 Z"/></g><g transform="translate(306.27783203125 277.47117614746094) rotate(0 -1.82574462890625 -0.4564361572265625)" stroke="none"><path fill="#1e1e1e" d="M -0.29,0.58 Q -0.29,0.58 -1.76,0.58 -3.22,0.58 -3.33,0.59 -3.44,0.59 -3.54,0.56 -3.64,0.53 -3.72,0.46 -3.81,0.40 -3.87,0.32 -3.93,0.23 -3.97,0.13 -4.00,0.03 -3.99,-0.07 -3.99,-0.18 -3.95,-0.28 -3.92,-0.38 -3.85,-0.46 -3.78,-0.54 -3.69,-0.60 -3.60,-0.66 -3.50,-0.68 -3.40,-0.71 -3.29,-0.70 -3.19,-0.69 -3.09,-0.65 -2.99,-0.61 -2.91,-0.53 -2.83,-0.46 -2.78,-0.37 -2.73,-0.28 -2.71,-0.17 -2.69,-0.07 -2.70,0.03 -2.72,0.13 -2.77,0.23 -2.81,0.32 -2.89,0.40 -2.96,0.47 -3.06,0.52 -3.15,0.57 -3.26,0.58 -3.36,0.59 -3.47,0.57 -3.57,0.55 -3.67,0.50 -3.76,0.45 -3.83,0.37 -3.90,0.29 -3.94,0.19 -3.98,0.10 -3.99,-0.00 -4.00,-0.11 -3.97,-0.21 -3.95,-0.31 -3.89,-0.40 -3.83,-0.49 -3.75,-0.56 -3.67,-0.62 -3.57,-0.66 -3.47,-0.70 -3.47,-0.70 -3.47,-0.70 -1.59,-0.64 0.29,-0.58 0.35,-0.54 0.42,-0.49 0.47,-0.44 0.53,-0.38 0.57,-0.31 0.60,-0.24 0.62,-0.16 0.65,-0.09 0.65,-0.01 0.65,0.06 0.63,0.14 0.61,0.22 0.58,0.29 0.54,0.36 0.49,0.42 0.44,0.48 0.38,0.52 0.31,0.57 0.24,0.60 0.16,0.63 0.09,0.64 0.01,0.65 -0.06,0.64 -0.14,0.64 -0.21,0.61 -0.29,0.58 -0.29,0.58 L -0.29,0.58 Z"/></g><g transform="translate(303.53924560546875 280.2097930908203) rotate(0 1.369293212890625 -2.2821807861328125)" stroke="none"><path fill="#1e1e1e" d="M -0.65,0 Q -0.65,0 -0.95,-0.78 -1.24,-1.57 -1.24,-2.20 -1.24,-2.83 -0.89,-3.64 -0.54,-4.46 -0.01,-3.79 0.51,-3.12 0.55,-3.19 0.60,-3.25 0.66,-3.31 0.71,-3.36 0.78,-3.40 0.85,-3.43 0.93,-3.45 1.01,-3.47 1.09,-3.47 1.17,-3.48 1.24,-3.46 1.32,-3.44 1.39,-3.40 1.46,-3.37 1.52,-3.32 1.58,-3.26 1.63,-3.20 1.67,-3.14 1.70,-3.06 1.73,-2.99 1.74,-2.91 1.75,-2.83 1.74,-2.75 1.73,-2.67 1.71,-2.60 1.68,-2.53 1.43,-2.35 1.17,-2.17 1.07,-2.18 0.96,-2.18 0.86,-2.22 0.76,-2.26 0.68,-2.32 0.60,-2.39 0.54,-2.48 0.49,-2.57 0.46,-2.68 0.44,-2.78 0.45,-2.89 0.46,-2.99 0.50,-3.09 0.55,-3.19 0.62,-3.26 0.69,-3.34 0.78,-3.39 0.88,-3.44 0.98,-3.46 1.09,-3.48 1.19,-3.46 1.30,-3.45 1.39,-3.40 1.49,-3.35 1.56,-3.27 1.63,-3.20 1.68,-3.10 1.73,-3.01 1.74,-2.90 1.75,-2.79 1.73,-2.69 1.71,-2.59 1.65,-2.50 1.60,-2.40 1.52,-2.33 1.44,-2.26 1.34,-2.22 1.24,-2.18 1.14,-2.18 1.03,-2.17 0.93,-2.20 0.83,-2.22 0.74,-2.28 0.65,-2.34 0.58,-2.42 0.52,-2.51 0.48,-2.61 0.45,-2.71 0.45,-2.82 0.45,-2.92 0.48,-3.02 0.51,-3.12 0.57,-3.21 0.64,-3.29 0.73,-3.36 0.81,-3.42 0.66,-3.27 0.51,-3.12 0.55,-3.19 0.60,-3.25 0.66,-3.31 0.71,-3.36 0.78,-3.40 0.85,-3.43 0.93,-3.45 1.01,-3.47 1.09,-3.47 1.17,-3.48 1.24,-3.46 1.32,-3.44 1.39,-3.40 1.46,-3.37 1.52,-3.32 1.58,-3.26 1.63,-3.20 1.67,-3.14 1.70,-3.06 1.73,-2.99 1.74,-2.91 1.75,-2.83 1.74,-2.75 1.73,-2.67 1.71,-2.60 1.68,-2.53 1.46,-2.61 1.24,-2.70 1.24,-2.14 1.24,-1.57 0.95,-0.78 0.65,0 0.64,0.07 0.63,0.15 0.60,0.23 0.58,0.30 0.53,0.37 0.49,0.43 0.43,0.48 0.37,0.54 0.30,0.57 0.23,0.61 0.15,0.63 0.07,0.65 -0.00,0.65 -0.07,0.65 -0.15,0.63 -0.23,0.61 -0.30,0.57 -0.37,0.54 -0.43,0.48 -0.49,0.43 -0.53,0.37 -0.58,0.30 -0.60,0.23 -0.63,0.15 -0.64,0.07 -0.65,-0.00 -0.65,-0.00 L -0.65,0 Z"/></g><g transform="translate(295.32342529296875 60.20790100097656) rotate(0 15.9752197265625 -0.4564361572265625)" stroke="none"><path fill="#1e1e1e" d="M -0.20,-0.62 Q -0.20,-0.62 0.42,-1.36 1.05,-2.10 2.63,-2.28 4.20,-2.46 6.68,-2.53 9.16,-2.61 11.51,-2.64 13.86,-2.67 16.17,-2.68 18.49,-2.70 20.78,-2.71 23.08,-2.71 25.10,-2.69 27.13,-2.67 29.65,-1.67 32.17,-0.66 32.24,-0.58 32.31,-0.50 32.35,-0.40 32.39,-0.31 32.39,-0.20 32.40,-0.09 32.37,0.00 32.35,0.10 32.29,0.19 32.23,0.28 32.14,0.34 32.06,0.41 31.96,0.44 31.86,0.48 31.75,0.48 31.65,0.48 31.55,0.45 31.45,0.41 31.36,0.35 31.28,0.29 31.21,0.20 31.15,0.11 31.13,0.01 31.10,-0.08 31.10,-0.19 31.11,-0.30 31.14,-0.39 31.18,-0.49 31.25,-0.58 31.32,-0.66 31.41,-0.71 31.50,-0.77 31.60,-0.79 31.71,-0.82 31.81,-0.80 31.92,-0.79 32.02,-0.75 32.11,-0.71 32.19,-0.63 32.27,-0.56 32.32,-0.47 32.37,-0.37 32.39,-0.27 32.40,-0.17 32.39,-0.06 32.37,0.03 32.32,0.13 32.27,0.22 32.20,0.30 32.12,0.37 32.02,0.42 31.93,0.46 31.82,0.47 31.72,0.49 31.61,0.46 31.51,0.44 31.42,0.39 31.33,0.33 31.33,0.33 31.33,0.33 29.23,0.59 27.13,0.85 25.10,0.87 23.08,0.90 20.79,0.90 18.50,0.90 16.19,0.90 13.89,0.90 11.56,0.91 9.22,0.92 6.85,0.94 4.48,0.96 3.28,1.01 2.08,1.05 1.14,0.83 0.20,0.62 0.13,0.63 0.05,0.65 -0.02,0.65 -0.10,0.64 -0.18,0.62 -0.25,0.60 -0.32,0.56 -0.39,0.52 -0.45,0.46 -0.50,0.41 -0.55,0.34 -0.59,0.28 -0.61,0.20 -0.64,0.13 -0.64,0.05 -0.65,-0.02 -0.64,-0.10 -0.63,-0.18 -0.59,-0.25 -0.56,-0.32 -0.52,-0.39 -0.47,-0.45 -0.41,-0.50 -0.35,-0.55 -0.27,-0.58 -0.20,-0.62 -0.20,-0.62 L -0.20,-0.62 Z"/></g><g transform="translate(305.364990234375 60.20790100097656) rotate(0 -0.456451416015625 10.041580200195312)" stroke="none"><path fill="#1e1e1e" d="M 0.65,0 Q 0.65,0 1.09,1.04 1.53,2.09 1.56,3.59 1.59,5.09 1.34,7.14 1.09,9.20 0.98,10.76 0.88,12.33 0.79,14.03 0.70,15.73 0.22,17.69 -0.25,19.65 -0.26,19.76 -0.28,19.86 -0.33,19.96 -0.38,20.05 -0.46,20.12 -0.54,20.19 -0.64,20.24 -0.73,20.28 -0.84,20.29 -0.95,20.30 -1.05,20.28 -1.15,20.25 -1.24,20.20 -1.33,20.14 -1.40,20.06 -1.47,19.98 -1.51,19.88 -1.55,19.78 -1.55,19.67 -1.55,19.57 -1.52,19.46 -1.49,19.36 -1.43,19.28 -1.37,19.19 -1.29,19.13 -1.20,19.06 -1.10,19.03 -1.00,19.00 -0.89,19.00 -0.79,19.00 -0.69,19.03 -0.59,19.07 -0.50,19.14 -0.42,19.20 -0.36,19.29 -0.30,19.38 -0.28,19.48 -0.25,19.58 -0.26,19.69 -0.26,19.80 -0.30,19.89 -0.34,19.99 -0.41,20.07 -0.48,20.15 -0.58,20.21 -0.67,20.26 -0.77,20.28 -0.88,20.30 -0.98,20.29 -1.09,20.28 -1.18,20.23 -1.28,20.18 -1.35,20.11 -1.43,20.04 -1.48,19.94 -1.53,19.85 -1.54,19.74 -1.56,19.64 -1.56,19.64 -1.56,19.64 -1.97,17.64 -2.39,15.64 -2.38,13.87 -2.38,12.10 -2.26,10.43 -2.14,8.77 -1.86,6.92 -1.59,5.08 -1.56,3.59 -1.53,2.09 -1.09,1.04 -0.65,0 -0.64,-0.07 -0.63,-0.15 -0.60,-0.23 -0.58,-0.30 -0.53,-0.37 -0.49,-0.43 -0.43,-0.48 -0.37,-0.54 -0.30,-0.57 -0.23,-0.61 -0.15,-0.63 -0.07,-0.65 0.00,-0.65 0.07,-0.65 0.15,-0.63 0.23,-0.61 0.30,-0.57 0.37,-0.54 0.43,-0.48 0.49,-0.43 0.53,-0.37 0.58,-0.30 0.60,-0.23 0.63,-0.15 0.64,-0.07 0.65,0.00 0.65,0.00 L 0.65,0 Z"/></g><g transform="translate(311.75506591796875 61.12077331542969) rotate(0 0.000030517578125 11.867324829101562)" stroke="none"><path fill="#1e1e1e" d="M 0.63,-0.15 Q 0.63,-0.15 1.31,0.80 1.99,1.76 1.90,3.50 1.80,5.25 1.76,6.88 1.71,8.52 1.70,10.27 1.68,12.02 1.40,13.93 1.11,15.84 0.92,17.58 0.73,19.32 0.25,21.13 -0.22,22.94 -0.24,23.04 -0.26,23.15 -0.32,23.24 -0.37,23.33 -0.45,23.40 -0.53,23.47 -0.63,23.51 -0.73,23.55 -0.83,23.56 -0.94,23.57 -1.04,23.54 -1.14,23.52 -1.23,23.46 -1.32,23.40 -1.39,23.32 -1.45,23.23 -1.49,23.13 -1.52,23.03 -1.52,22.93 -1.53,22.82 -1.49,22.72 -1.46,22.62 -1.40,22.53 -1.34,22.45 -1.25,22.38 -1.16,22.32 -1.06,22.29 -0.96,22.26 -0.85,22.27 -0.75,22.27 -0.65,22.31 -0.55,22.35 -0.47,22.41 -0.38,22.48 -0.33,22.57 -0.27,22.66 -0.25,22.77 -0.22,22.87 -0.23,22.98 -0.24,23.08 -0.28,23.18 -0.33,23.28 -0.40,23.35 -0.47,23.43 -0.56,23.48 -0.66,23.53 -0.76,23.55 -0.87,23.57 -0.97,23.56 -1.08,23.54 -1.17,23.49 -1.27,23.44 -1.34,23.37 -1.41,23.29 -1.46,23.20 -1.51,23.10 -1.52,23.00 -1.53,22.89 -1.53,22.89 -1.53,22.89 -1.87,21.01 -2.21,19.13 -2.17,17.24 -2.13,15.34 -1.87,13.65 -1.60,11.96 -1.56,10.18 -1.52,8.40 -1.44,6.66 -1.35,4.93 -1.15,3.68 -0.94,2.43 -0.79,1.29 -0.63,0.15 -0.64,0.08 -0.65,0.00 -0.64,-0.07 -0.63,-0.15 -0.61,-0.22 -0.58,-0.30 -0.53,-0.36 -0.49,-0.43 -0.43,-0.48 -0.37,-0.53 -0.30,-0.57 -0.23,-0.61 -0.15,-0.63 -0.08,-0.65 -0.00,-0.65 0.07,-0.65 0.15,-0.63 0.23,-0.61 0.30,-0.57 0.37,-0.54 0.43,-0.48 0.49,-0.43 0.53,-0.37 0.58,-0.30 0.60,-0.23 0.63,-0.15 0.63,-0.15 L 0.63,-0.15 Z"/></g><g transform="translate(314.49371337890625 85.76829528808594) rotate(0 2.73858642578125 5.020790100097656)" stroke="none"><path fill="#1e1e1e" d="M 0.52,-0.39 Q 0.52,-0.39 1.72,0.34 2.92,1.08 3.74,2.02 4.56,2.96 5.04,4.14 5.52,5.33 5.76,7.39 5.99,9.45 6.01,9.56 6.02,9.66 5.99,9.77 5.97,9.87 5.91,9.96 5.86,10.05 5.78,10.12 5.70,10.19 5.60,10.23 5.50,10.27 5.39,10.27 5.29,10.28 5.18,10.25 5.08,10.22 4.99,10.16 4.91,10.10 4.84,10.01 4.78,9.93 4.75,9.83 4.71,9.73 4.71,9.62 4.71,9.51 4.75,9.41 4.78,9.31 4.85,9.23 4.91,9.15 5.00,9.09 5.09,9.03 5.19,9.00 5.29,8.97 5.40,8.98 5.51,8.98 5.60,9.02 5.70,9.06 5.78,9.13 5.86,9.20 5.92,9.29 5.97,9.39 5.99,9.49 6.02,9.59 6.00,9.70 5.99,9.80 5.95,9.90 5.90,10.00 5.83,10.07 5.75,10.15 5.66,10.20 5.57,10.25 5.46,10.27 5.36,10.28 5.25,10.26 5.15,10.25 5.05,10.20 4.96,10.15 4.89,10.07 4.81,9.99 4.77,9.89 4.73,9.80 4.73,9.80 4.73,9.80 3.62,8.15 2.52,6.50 2.26,5.81 2.01,5.12 1.12,4.11 0.22,3.11 -0.15,1.75 -0.52,0.39 -0.56,0.32 -0.60,0.25 -0.62,0.18 -0.64,0.10 -0.65,0.02 -0.65,-0.05 -0.63,-0.13 -0.62,-0.20 -0.58,-0.28 -0.55,-0.35 -0.50,-0.41 -0.45,-0.47 -0.39,-0.52 -0.32,-0.56 -0.25,-0.59 -0.18,-0.63 -0.10,-0.64 -0.02,-0.65 0.05,-0.64 0.13,-0.64 0.20,-0.61 0.28,-0.59 0.34,-0.55 0.41,-0.50 0.47,-0.45 0.52,-0.39 0.52,-0.39 L 0.52,-0.39 Z"/></g><g transform="translate(312.66796875 94.89700317382812) rotate(0 4.5643310546875 -5.477226257324219)" stroke="none"><path fill="#1e1e1e" d="M -0.56,-0.33 Q -0.56,-0.33 -0.17,-1.88 0.21,-3.44 1.05,-4.83 1.88,-6.22 3.18,-7.45 4.48,-8.68 6.39,-9.87 8.30,-11.06 8.38,-11.12 8.47,-11.18 8.57,-11.21 8.67,-11.24 8.78,-11.24 8.89,-11.23 8.99,-11.20 9.09,-11.16 9.17,-11.09 9.25,-11.02 9.31,-10.93 9.36,-10.84 9.39,-10.74 9.41,-10.64 9.40,-10.53 9.39,-10.43 9.35,-10.33 9.31,-10.23 9.24,-10.15 9.16,-10.07 9.07,-10.02 8.98,-9.97 8.87,-9.95 8.77,-9.93 8.66,-9.95 8.56,-9.96 8.46,-10.01 8.37,-10.06 8.30,-10.14 8.22,-10.21 8.17,-10.31 8.13,-10.40 8.12,-10.51 8.10,-10.61 8.12,-10.72 8.14,-10.82 8.20,-10.91 8.25,-11.01 8.33,-11.08 8.41,-11.15 8.51,-11.19 8.61,-11.23 8.71,-11.24 8.82,-11.24 8.92,-11.22 9.02,-11.19 9.11,-11.13 9.20,-11.07 9.27,-10.99 9.33,-10.91 9.37,-10.81 9.40,-10.71 9.41,-10.60 9.41,-10.50 9.38,-10.39 9.34,-10.29 9.28,-10.21 9.22,-10.12 9.22,-10.12 9.22,-10.12 7.97,-8.22 6.71,-6.33 5.70,-5.36 4.69,-4.40 3.81,-3.10 2.93,-1.80 1.74,-0.73 0.56,0.33 0.51,0.40 0.46,0.46 0.40,0.51 0.34,0.56 0.26,0.59 0.19,0.62 0.11,0.64 0.04,0.65 -0.03,0.65 -0.11,0.64 -0.19,0.62 -0.26,0.59 -0.33,0.55 -0.40,0.51 -0.45,0.46 -0.51,0.40 -0.55,0.33 -0.59,0.27 -0.62,0.19 -0.64,0.12 -0.65,0.04 -0.65,-0.03 -0.64,-0.11 -0.62,-0.19 -0.59,-0.26 -0.56,-0.33 -0.56,-0.33 L -0.56,-0.33 Z"/></g><g transform="translate(322.70953369140625 96.72273254394531) rotate(0 1.369293212890625 1.8257522583007812)" stroke="none"><path fill="#1e1e1e" d="M -0.46,-0.46 Q -0.46,-0.46 -0.24,-1.29 -0.03,-2.13 0.43,-2.60 0.90,-3.08 1.11,-3.56 1.33,-4.05 1.48,-4.17 1.63,-4.28 1.80,-4.36 1.97,-4.44 2.15,-4.47 2.33,-4.50 2.52,-4.49 2.71,-4.48 2.89,-4.42 3.07,-4.37 3.23,-4.27 3.39,-4.18 3.52,-4.04 3.65,-3.91 3.75,-3.75 3.84,-3.59 3.90,-3.41 3.96,-3.23 3.97,-3.05 3.98,-2.86 3.94,-2.68 3.91,-2.49 3.83,-2.32 3.76,-2.15 3.64,-2.00 3.53,-1.86 3.65,-0.68 3.78,0.48 3.45,1.84 3.12,3.19 2.72,4.93 2.32,6.67 2.33,6.77 2.35,6.88 2.33,6.98 2.30,7.09 2.25,7.18 2.20,7.27 2.12,7.34 2.04,7.41 1.94,7.45 1.84,7.49 1.74,7.50 1.63,7.51 1.53,7.48 1.42,7.45 1.33,7.40 1.25,7.34 1.18,7.25 1.11,7.17 1.08,7.07 1.04,6.97 1.04,6.86 1.04,6.76 1.07,6.66 1.11,6.56 1.17,6.47 1.23,6.38 1.32,6.32 1.41,6.26 1.51,6.23 1.61,6.20 1.72,6.21 1.82,6.21 1.92,6.25 2.02,6.29 2.10,6.35 2.18,6.42 2.24,6.51 2.30,6.60 2.32,6.71 2.35,6.81 2.34,6.91 2.33,7.02 2.28,7.12 2.24,7.21 2.17,7.29 2.10,7.37 2.00,7.42 1.91,7.47 1.80,7.49 1.70,7.51 1.59,7.50 1.49,7.48 1.40,7.43 1.30,7.38 1.23,7.31 1.15,7.23 1.11,7.14 1.06,7.04 1.06,7.04 1.06,7.04 0.33,4.68 -0.40,2.32 -0.12,1.23 0.14,0.14 0.61,-1.43 1.08,-3.01 1.20,-3.53 1.33,-4.05 1.48,-4.17 1.63,-4.28 1.80,-4.36 1.97,-4.44 2.15,-4.47 2.33,-4.50 2.52,-4.49 2.71,-4.48 2.89,-4.42 3.07,-4.37 3.23,-4.27 3.39,-4.18 3.52,-4.04 3.65,-3.91 3.75,-3.75 3.84,-3.59 3.90,-3.41 3.96,-3.23 3.97,-3.05 3.98,-2.86 3.94,-2.68 3.91,-2.49 3.83,-2.32 3.76,-2.15 3.64,-2.00 3.53,-1.86 3.33,-1.40 3.13,-0.95 2.63,-0.46 2.13,0.03 1.29,0.24 0.46,0.46 0.40,0.51 0.33,0.56 0.26,0.59 0.19,0.62 0.11,0.64 0.03,0.65 -0.03,0.65 -0.11,0.64 -0.19,0.62 -0.26,0.59 -0.33,0.55 -0.40,0.51 -0.46,0.46 -0.51,0.40 -0.55,0.33 -0.59,0.26 -0.62,0.19 -0.64,0.11 -0.65,0.03 -0.65,-0.03 -0.64,-0.11 -0.62,-0.19 -0.59,-0.26 -0.56,-0.33 -0.51,-0.40 -0.46,-0.46 -0.46,-0.46 L -0.46,-0.46 Z"/></g><g transform="translate(295.32342529296875 174.31675720214844) rotate(0 12.780181884765625 -1.3693084716796875)" stroke="none"><path fill="#1e1e1e" d="M -0.15,-0.63 Q -0.15,-0.63 0.78,-1.31 1.73,-1.98 3.21,-2.40 4.70,-2.83 6.77,-3.05 8.85,-3.26 11.03,-3.36 13.21,-3.46 15.07,-3.75 16.92,-4.04 18.88,-4.16 20.83,-4.27 22.96,-3.82 25.09,-3.38 25.19,-3.36 25.30,-3.35 25.39,-3.30 25.49,-3.25 25.56,-3.18 25.64,-3.10 25.69,-3.01 25.73,-2.91 25.75,-2.81 25.76,-2.70 25.74,-2.60 25.72,-2.50 25.67,-2.40 25.62,-2.31 25.54,-2.24 25.46,-2.17 25.37,-2.13 25.27,-2.08 25.16,-2.07 25.06,-2.06 24.95,-2.09 24.85,-2.12 24.76,-2.17 24.67,-2.23 24.60,-2.31 24.54,-2.39 24.50,-2.49 24.46,-2.59 24.46,-2.70 24.46,-2.81 24.49,-2.91 24.52,-3.01 24.58,-3.10 24.64,-3.18 24.73,-3.24 24.81,-3.31 24.91,-3.34 25.02,-3.37 25.12,-3.37 25.23,-3.36 25.33,-3.33 25.43,-3.29 25.51,-3.23 25.59,-3.16 25.65,-3.07 25.71,-2.98 25.73,-2.88 25.76,-2.78 25.75,-2.67 25.74,-2.56 25.70,-2.47 25.66,-2.37 25.59,-2.29 25.52,-2.21 25.43,-2.16 25.34,-2.10 25.23,-2.08 25.13,-2.06 25.13,-2.06 25.13,-2.06 23.09,-1.45 21.06,-0.83 19.25,-0.70 17.44,-0.56 15.38,-0.27 13.32,0.00 11.22,0.04 9.12,0.08 7.30,0.18 5.47,0.28 3.97,0.61 2.46,0.93 1.31,0.78 0.15,0.63 0.08,0.64 0.00,0.65 -0.07,0.64 -0.15,0.63 -0.22,0.61 -0.30,0.58 -0.36,0.53 -0.43,0.49 -0.48,0.43 -0.53,0.37 -0.57,0.30 -0.61,0.23 -0.63,0.15 -0.65,0.08 -0.65,0.00 -0.65,-0.07 -0.63,-0.15 -0.61,-0.23 -0.57,-0.30 -0.54,-0.37 -0.48,-0.43 -0.43,-0.49 -0.37,-0.53 -0.30,-0.58 -0.23,-0.60 -0.15,-0.63 -0.15,-0.63 L -0.15,-0.63 Z"/></g><g transform="translate(306.27783203125 174.31675720214844) rotate(0 -1.82574462890625 9.58514404296875)" stroke="none"><path fill="#1e1e1e" d="M 0.36,0.54 Q 0.36,0.54 -0.19,1.38 -0.74,2.22 -0.88,2.81 -1.02,3.40 -1.02,3.97 -1.02,4.54 -1.31,5.75 -1.60,6.97 -1.43,7.65 -1.26,8.34 -1.18,9.62 -1.10,10.90 -1.09,12.23 -1.07,13.56 -1.09,14.64 -1.12,15.73 -1.60,17.27 -2.08,18.81 -2.09,18.91 -2.11,19.02 -2.16,19.11 -2.21,19.20 -2.29,19.28 -2.36,19.35 -2.46,19.40 -2.56,19.44 -2.66,19.45 -2.77,19.46 -2.87,19.44 -2.98,19.42 -3.07,19.36 -3.16,19.31 -3.23,19.23 -3.30,19.15 -3.34,19.05 -3.38,18.95 -3.38,18.85 -3.39,18.74 -3.36,18.64 -3.33,18.53 -3.27,18.45 -3.21,18.36 -3.13,18.29 -3.04,18.23 -2.94,18.19 -2.84,18.16 -2.74,18.16 -2.63,18.16 -2.53,18.19 -2.43,18.23 -2.34,18.29 -2.26,18.35 -2.20,18.44 -2.14,18.53 -2.11,18.63 -2.08,18.73 -2.09,18.84 -2.09,18.95 -2.13,19.05 -2.17,19.14 -2.24,19.23 -2.31,19.31 -2.40,19.36 -2.49,19.42 -2.59,19.44 -2.70,19.46 -2.80,19.45 -2.91,19.44 -3.01,19.40 -3.10,19.35 -3.18,19.28 -3.26,19.21 -3.31,19.11 -3.36,19.02 -3.37,18.91 -3.39,18.81 -3.39,18.81 -3.39,18.81 -3.89,17.29 -4.38,15.76 -4.43,14.69 -4.47,13.62 -4.51,12.35 -4.54,11.07 -4.58,9.94 -4.62,8.81 -4.73,7.51 -4.84,6.22 -4.55,5.24 -4.27,4.26 -4.15,3.38 -4.03,2.50 -3.76,1.84 -3.49,1.18 -2.95,0.52 -2.40,-0.12 -1.38,-0.33 -0.36,-0.54 -0.29,-0.58 -0.22,-0.61 -0.14,-0.63 -0.06,-0.65 0.01,-0.65 0.08,-0.65 0.16,-0.63 0.24,-0.61 0.31,-0.57 0.38,-0.53 0.44,-0.48 0.49,-0.42 0.54,-0.36 0.58,-0.29 0.61,-0.22 0.64,-0.14 0.64,-0.06 0.65,0.01 0.64,0.08 0.63,0.16 0.60,0.24 0.57,0.31 0.53,0.37 0.48,0.44 0.42,0.49 0.36,0.54 0.36,0.54 L 0.36,0.54 Z"/></g><g transform="translate(309.9293212890625 174.31675720214844) rotate(0 -0.4564208984375 8.672271728515625)" stroke="none"><path fill="#1e1e1e" d="M 0.63,0.15 Q 0.63,0.15 0.85,1.32 1.07,2.49 1.02,3.85 0.96,5.21 0.93,6.60 0.90,7.99 0.88,9.37 0.86,10.74 0.82,11.85 0.78,12.96 0.26,14.94 -0.25,16.91 -0.27,17.01 -0.29,17.12 -0.34,17.21 -0.39,17.31 -0.46,17.38 -0.54,17.45 -0.64,17.50 -0.73,17.54 -0.84,17.55 -0.94,17.56 -1.05,17.54 -1.15,17.52 -1.24,17.46 -1.33,17.41 -1.40,17.33 -1.47,17.25 -1.51,17.15 -1.55,17.05 -1.55,16.94 -1.56,16.84 -1.53,16.73 -1.50,16.63 -1.44,16.54 -1.38,16.46 -1.30,16.39 -1.21,16.33 -1.11,16.29 -1.01,16.26 -0.91,16.26 -0.80,16.26 -0.70,16.29 -0.60,16.33 -0.51,16.39 -0.43,16.46 -0.37,16.55 -0.31,16.63 -0.28,16.74 -0.25,16.84 -0.26,16.94 -0.27,17.05 -0.31,17.15 -0.35,17.25 -0.41,17.33 -0.48,17.41 -0.57,17.46 -0.67,17.52 -0.77,17.54 -0.87,17.56 -0.98,17.55 -1.08,17.54 -1.18,17.50 -1.28,17.45 -1.35,17.38 -1.43,17.30 -1.48,17.21 -1.53,17.12 -1.55,17.01 -1.56,16.91 -1.56,16.91 -1.56,16.91 -2.07,14.92 -2.58,12.94 -2.61,11.81 -2.63,10.69 -2.61,9.28 -2.59,7.87 -2.52,6.42 -2.46,4.96 -2.29,3.33 -2.12,1.70 -1.38,0.77 -0.63,-0.15 -0.60,-0.23 -0.58,-0.30 -0.53,-0.37 -0.49,-0.43 -0.43,-0.48 -0.37,-0.54 -0.30,-0.57 -0.23,-0.61 -0.15,-0.63 -0.07,-0.65 0.00,-0.65 0.08,-0.65 0.15,-0.63 0.23,-0.61 0.30,-0.57 0.37,-0.53 0.43,-0.48 0.49,-0.43 0.53,-0.36 0.58,-0.30 0.61,-0.22 0.63,-0.15 0.64,-0.07 0.65,0.00 0.64,0.08 0.63,0.15 0.63,0.15 L 0.63,0.15 Z"/></g><g transform="translate(316.31939697265625 190.74842834472656) rotate(0 3.195068359375 3.6514892578125)" stroke="none"><path fill="#1e1e1e" d="M 0.46,-0.46 Q 0.46,-0.46 1.58,-0.01 2.70,0.44 3.57,1.29 4.44,2.14 5.31,3.04 6.18,3.94 7.02,5.85 7.86,7.77 7.87,7.87 7.88,7.98 7.86,8.08 7.83,8.19 7.78,8.28 7.72,8.37 7.64,8.43 7.56,8.50 7.46,8.54 7.36,8.58 7.25,8.58 7.14,8.58 7.04,8.55 6.94,8.52 6.85,8.46 6.77,8.40 6.70,8.32 6.64,8.23 6.61,8.13 6.58,8.03 6.58,7.92 6.58,7.82 6.61,7.72 6.65,7.62 6.72,7.53 6.78,7.45 6.87,7.39 6.96,7.33 7.06,7.31 7.16,7.28 7.27,7.29 7.38,7.29 7.47,7.33 7.57,7.38 7.65,7.45 7.73,7.52 7.79,7.61 7.84,7.70 7.86,7.80 7.88,7.91 7.87,8.01 7.86,8.12 7.81,8.21 7.76,8.31 7.69,8.39 7.61,8.46 7.52,8.51 7.43,8.56 7.32,8.57 7.22,8.59 7.11,8.57 7.01,8.55 6.91,8.50 6.82,8.45 6.75,8.37 6.68,8.29 6.63,8.20 6.59,8.10 6.59,8.10 6.59,8.10 5.27,7.15 3.96,6.20 3.05,5.32 2.14,4.44 1.29,3.57 0.44,2.70 -0.01,1.58 -0.46,0.46 -0.51,0.40 -0.56,0.33 -0.59,0.26 -0.62,0.19 -0.64,0.11 -0.65,0.03 -0.65,-0.03 -0.64,-0.11 -0.62,-0.19 -0.59,-0.26 -0.55,-0.33 -0.51,-0.40 -0.46,-0.46 -0.40,-0.51 -0.33,-0.55 -0.26,-0.59 -0.19,-0.62 -0.11,-0.64 -0.03,-0.65 0.03,-0.65 0.11,-0.64 0.19,-0.62 0.26,-0.59 0.33,-0.56 0.40,-0.51 0.46,-0.46 0.46,-0.46 L 0.46,-0.46 Z"/></g><g transform="translate(315.40655517578125 199.8771514892578) rotate(0 5.020782470703125 -6.3900909423828125)" stroke="none"><path fill="#1e1e1e" d="M -0.52,-0.39 Q -0.52,-0.39 -0.03,-1.66 0.46,-2.92 0.94,-4.07 1.43,-5.22 2.55,-6.67 3.66,-8.12 4.65,-9.41 5.63,-10.70 7.48,-11.90 9.34,-13.10 9.43,-13.15 9.53,-13.19 9.64,-13.20 9.74,-13.21 9.85,-13.18 9.95,-13.16 10.04,-13.10 10.13,-13.04 10.19,-12.96 10.26,-12.88 10.30,-12.78 10.34,-12.68 10.34,-12.57 10.34,-12.47 10.31,-12.37 10.28,-12.26 10.22,-12.18 10.16,-12.09 10.07,-12.03 9.99,-11.97 9.88,-11.93 9.78,-11.90 9.68,-11.90 9.57,-11.91 9.47,-11.94 9.37,-11.98 9.29,-12.05 9.21,-12.11 9.15,-12.20 9.09,-12.29 9.06,-12.39 9.04,-12.50 9.05,-12.60 9.05,-12.71 9.10,-12.81 9.14,-12.90 9.21,-12.98 9.28,-13.06 9.37,-13.12 9.46,-13.17 9.57,-13.19 9.67,-13.21 9.78,-13.19 9.88,-13.18 9.98,-13.13 10.07,-13.09 10.15,-13.01 10.22,-12.94 10.27,-12.84 10.32,-12.75 10.33,-12.64 10.35,-12.54 10.33,-12.43 10.31,-12.33 10.26,-12.24 10.21,-12.14 10.13,-12.07 10.05,-12.00 10.05,-12.00 10.05,-12.00 8.99,-10.52 7.93,-9.05 6.98,-7.65 6.03,-6.25 5.06,-5.08 4.10,-3.91 3.39,-2.59 2.68,-1.27 1.60,-0.43 0.52,0.39 0.47,0.45 0.41,0.50 0.34,0.55 0.28,0.59 0.20,0.61 0.13,0.64 0.05,0.64 -0.02,0.65 -0.10,0.64 -0.18,0.63 -0.25,0.59 -0.32,0.56 -0.39,0.52 -0.45,0.47 -0.50,0.41 -0.55,0.35 -0.58,0.27 -0.62,0.20 -0.63,0.13 -0.65,0.05 -0.65,-0.02 -0.64,-0.10 -0.62,-0.18 -0.60,-0.25 -0.56,-0.32 -0.52,-0.39 -0.52,-0.39 L -0.52,-0.39 Z"/></g><g transform="translate(327.27386474609375 200.79002380371094) rotate(0 2.738616943359375 3.1950531005859375)" stroke="none"><path fill="#1e1e1e" d="M 0.29,0.58 Q 0.29,0.58 -0.41,1.03 -1.12,1.47 -1.83,0.66 -2.55,-0.15 -2.37,-0.66 -2.18,-1.18 -1.59,-1.57 -0.99,-1.96 0.01,-2.06 1.01,-2.15 1.72,-1.77 2.43,-1.39 2.77,-0.74 3.11,-0.09 3.24,0.75 3.37,1.61 3.43,2.19 3.48,2.77 3.47,3.67 3.46,4.58 3.08,5.32 2.70,6.05 2.65,5.39 2.60,4.73 3.06,5.01 3.53,5.28 5.17,5.94 6.80,6.60 6.91,6.63 7.01,6.65 7.10,6.71 7.19,6.77 7.26,6.85 7.33,6.93 7.36,7.03 7.40,7.13 7.41,7.24 7.41,7.34 7.38,7.44 7.35,7.55 7.29,7.63 7.23,7.72 7.14,7.78 7.06,7.85 6.96,7.88 6.85,7.91 6.75,7.91 6.64,7.91 6.54,7.87 6.44,7.84 6.36,7.77 6.27,7.70 6.22,7.61 6.16,7.53 6.13,7.42 6.10,7.32 6.11,7.21 6.12,7.11 6.16,7.01 6.20,6.91 6.27,6.83 6.34,6.75 6.43,6.70 6.52,6.65 6.63,6.62 6.73,6.60 6.84,6.62 6.94,6.63 7.04,6.68 7.14,6.72 7.21,6.80 7.29,6.87 7.34,6.97 7.38,7.06 7.40,7.17 7.41,7.27 7.40,7.38 7.38,7.48 7.33,7.57 7.27,7.67 7.20,7.74 7.12,7.81 7.02,7.85 6.92,7.90 6.82,7.91 6.71,7.92 6.71,7.92 6.71,7.92 4.33,8.12 1.94,8.32 1.17,7.93 0.40,7.54 0.07,7.00 -0.26,6.47 -0.05,5.29 0.16,4.12 0.14,2.99 0.12,1.85 0.39,1.17 0.66,0.50 0.11,0.55 -0.43,0.59 -0.70,0.08 -0.97,-0.42 -0.63,-0.50 -0.29,-0.58 -0.21,-0.61 -0.14,-0.64 -0.06,-0.64 0.01,-0.65 0.09,-0.64 0.16,-0.63 0.24,-0.60 0.31,-0.57 0.38,-0.52 0.44,-0.48 0.49,-0.42 0.54,-0.36 0.58,-0.29 0.61,-0.22 0.63,-0.14 0.65,-0.06 0.65,0.01 0.65,0.09 0.62,0.16 0.60,0.24 0.57,0.31 0.53,0.38 0.47,0.44 0.42,0.50 0.35,0.54 0.29,0.58 0.29,0.58 L 0.29,0.58 Z"/></g><g stroke-linecap="round"><g transform="translate(360.71875 190.4020233154297) rotate(0 29.211883544921875 -0.4564361572265625)"><path d="M0 0 C9.74 -0.15, 48.69 -0.76, 58.42 -0.91 M0 0 C9.74 -0.15, 48.69 -0.76, 58.42 -0.91" stroke="#1e1e1e" stroke-width="2" fill="none"/></g></g><mask/><g stroke-linecap="round"><g transform="translate(422.21246337890625 81.20393371582031) rotate(0 10.954437255859375 53.85939025878906)"><path d="M0 0 C3.8 9.28, 22.97 37.73, 22.82 55.69 C22.67 73.64, 3.04 99.05, -0.91 107.72 M0 0 C3.8 9.28, 22.97 37.73, 22.82 55.69 C22.67 73.64, 3.04 99.05, -0.91 107.72" stroke="#1e1e1e" stroke-width="2" fill="none"/></g></g><mask/><g stroke-linecap="round"><g transform="translate(420.38671875 79.37818908691406) rotate(0 32.86334228515625 54.77226257324219)"><path d="M0 0 C10.95 8.98, 65.73 35.6, 65.73 53.86 C65.73 72.12, 10.95 100.26, 0 109.54 M0 0 C10.95 8.98, 65.73 35.6, 65.73 53.86 C65.73 72.12, 10.95 100.26, 0 109.54" stroke="#1e1e1e" stroke-width="2" fill="none"/></g></g><mask/><g stroke-linecap="round"><g transform="translate(487.93914794921875 133.23756408691406) rotate(0 11.8673095703125 0.4564361572265625)"><path d="M0 0 C3.96 0.15, 19.78 0.76, 23.73 0.91 M0 0 C3.96 0.15, 19.78 0.76, 23.73 0.91" stroke="#1e1e1e" stroke-width="2" fill="none"/></g></g><mask/><g transform="translate(455.0758056640625 130.4989471435547) rotate(0 0.912872314453125 5.02081298828125)" stroke="none"><path fill="#1e1e1e" d="M 0.20,0.62 Q 0.20,0.62 -0.38,1.32 -0.97,2.02 -1.26,2.47 -1.56,2.92 -1.97,3.59 -2.39,4.26 -2.50,4.89 -2.62,5.52 -2.33,6.30 -2.04,7.08 -1.42,7.82 -0.79,8.56 -0.23,8.73 0.32,8.90 0.92,9.02 1.51,9.14 2.00,8.75 2.49,8.35 3.02,7.96 3.56,7.58 3.91,7.04 4.27,6.51 4.37,5.97 4.47,5.43 4.29,4.89 4.12,4.35 3.52,3.52 2.93,2.69 2.56,2.27 2.18,1.85 1.43,1.99 0.67,2.14 0.58,2.19 0.48,2.23 0.38,2.25 0.27,2.27 0.17,2.25 0.06,2.23 -0.02,2.18 -0.11,2.13 -0.19,2.05 -0.26,1.97 -0.30,1.87 -0.34,1.78 -0.35,1.67 -0.36,1.57 -0.34,1.46 -0.32,1.36 -0.26,1.27 -0.20,1.18 -0.12,1.11 -0.04,1.04 0.05,1.00 0.15,0.97 0.25,0.96 0.36,0.96 0.46,0.99 0.56,1.02 0.65,1.08 0.74,1.14 0.80,1.22 0.86,1.31 0.90,1.41 0.93,1.51 0.93,1.62 0.93,1.72 0.89,1.82 0.86,1.92 0.79,2.01 0.73,2.09 0.64,2.15 0.55,2.21 0.45,2.24 0.34,2.26 0.24,2.26 0.13,2.25 0.03,2.21 -0.06,2.17 -0.14,2.10 -0.22,2.03 -0.27,1.94 -0.32,1.84 -0.34,1.74 -0.37,1.64 -0.35,1.53 -0.34,1.43 -0.29,1.33 -0.25,1.23 -0.17,1.16 -0.10,1.08 -0.10,1.08 -0.10,1.08 2.23,0.33 4.57,-0.40 5.06,0.14 5.56,0.70 6.03,1.35 6.50,2.00 6.91,2.85 7.32,3.71 7.47,4.93 7.63,6.14 7.27,7.27 6.92,8.39 6.20,9.29 5.48,10.20 4.73,10.73 3.97,11.25 2.66,11.78 1.36,12.30 0.19,12.11 -0.97,11.91 -2.08,11.35 -3.19,10.79 -4.02,9.80 -4.86,8.82 -5.44,7.60 -6.02,6.38 -5.93,5.54 -5.85,4.70 -5.53,3.60 -5.20,2.50 -4.59,1.59 -3.97,0.67 -3.07,-0.15 -2.17,-0.97 -1.19,-0.79 -0.20,-0.62 -0.13,-0.63 -0.05,-0.65 0.02,-0.65 0.10,-0.64 0.18,-0.62 0.25,-0.60 0.32,-0.56 0.39,-0.52 0.45,-0.46 0.50,-0.41 0.55,-0.34 0.59,-0.28 0.61,-0.20 0.64,-0.13 0.64,-0.05 0.65,0.02 0.64,0.10 0.63,0.18 0.59,0.25 0.56,0.32 0.52,0.39 0.47,0.45 0.41,0.50 0.35,0.55 0.27,0.58 0.20,0.62 0.20,0.62 L 0.20,0.62 Z"/></g><g transform="translate(464.20452880859375 131.4118194580078) rotate(0 0 5.47723388671875)" stroke="none"><path fill="#1e1e1e" d="M 0.65,0 Q 0.65,0 1.06,1.04 1.47,2.09 1.49,3.33 1.52,4.56 1.52,5.87 1.52,7.18 1.09,8.73 0.65,10.27 0.63,10.37 0.62,10.48 0.57,10.57 0.52,10.67 0.44,10.74 0.36,10.81 0.27,10.86 0.17,10.90 0.07,10.91 -0.03,10.93 -0.13,10.90 -0.24,10.88 -0.33,10.82 -0.42,10.77 -0.49,10.69 -0.56,10.61 -0.60,10.51 -0.64,10.41 -0.64,10.30 -0.65,10.20 -0.62,10.10 -0.59,9.99 -0.53,9.91 -0.47,9.82 -0.39,9.75 -0.30,9.69 -0.20,9.66 -0.10,9.62 0.00,9.62 0.10,9.62 0.20,9.66 0.30,9.69 0.39,9.75 0.47,9.82 0.53,9.91 0.59,9.99 0.62,10.10 0.65,10.20 0.64,10.30 0.64,10.41 0.60,10.51 0.56,10.61 0.49,10.69 0.42,10.77 0.33,10.82 0.24,10.88 0.13,10.90 0.03,10.93 -0.07,10.91 -0.17,10.90 -0.27,10.86 -0.36,10.81 -0.44,10.74 -0.52,10.67 -0.57,10.57 -0.62,10.48 -0.63,10.37 -0.65,10.27 -0.65,10.27 -0.65,10.27 -1.09,8.73 -1.52,7.18 -1.52,5.87 -1.52,4.56 -1.49,3.33 -1.47,2.09 -1.06,1.04 -0.65,0 -0.64,-0.07 -0.63,-0.15 -0.60,-0.23 -0.58,-0.30 -0.53,-0.37 -0.49,-0.43 -0.43,-0.48 -0.37,-0.54 -0.30,-0.57 -0.23,-0.61 -0.15,-0.63 -0.07,-0.65 0.00,-0.65 0.07,-0.65 0.15,-0.63 0.23,-0.61 0.30,-0.57 0.37,-0.54 0.43,-0.48 0.49,-0.43 0.53,-0.37 0.58,-0.30 0.60,-0.23 0.63,-0.15 0.64,-0.07 0.65,0.00 0.65,0.00 L 0.65,0 Z"/></g><g transform="translate(461.46588134765625 134.1504364013672) rotate(0 5.020782470703125 2.7386322021484375)" stroke="none"><path fill="#1e1e1e" d="M -0.52,-0.39 Q -0.52,-0.39 0.03,-1.62 0.59,-2.84 1.30,-3.42 2.01,-4.00 2.63,-4.48 3.25,-4.96 4.33,-5.01 5.41,-5.06 6.23,-5.05 7.05,-5.03 8.00,-4.61 8.96,-4.18 9.49,-3.28 10.02,-2.37 10.18,-1.36 10.33,-0.35 9.82,1.09 9.32,2.54 9.03,3.33 8.74,4.13 7.93,4.72 7.11,5.32 7.69,5.76 8.28,6.21 9.37,7.85 10.47,9.48 10.51,9.58 10.55,9.68 10.55,9.79 10.56,9.89 10.53,9.99 10.50,10.10 10.44,10.18 10.38,10.27 10.30,10.34 10.21,10.40 10.11,10.43 10.01,10.47 9.91,10.47 9.80,10.47 9.70,10.43 9.60,10.40 9.51,10.34 9.43,10.27 9.37,10.18 9.31,10.09 9.28,9.99 9.25,9.89 9.26,9.78 9.27,9.68 9.31,9.58 9.35,9.48 9.41,9.40 9.48,9.32 9.57,9.26 9.67,9.21 9.77,9.19 9.87,9.16 9.98,9.18 10.08,9.19 10.18,9.23 10.28,9.28 10.35,9.35 10.43,9.42 10.48,9.52 10.53,9.61 10.55,9.72 10.56,9.82 10.55,9.93 10.53,10.03 10.48,10.13 10.43,10.22 10.35,10.29 10.27,10.36 10.18,10.41 10.08,10.45 9.98,10.46 9.87,10.48 9.77,10.45 9.66,10.43 9.57,10.37 9.48,10.32 9.41,10.24 9.34,10.16 9.34,10.16 9.34,10.16 7.83,9.52 6.32,8.87 5.49,8.15 4.65,7.42 4.38,6.52 4.11,5.61 4.34,4.84 4.57,4.08 5.51,3.44 6.45,2.80 6.57,2.11 6.69,1.43 7.14,0.62 7.58,-0.17 7.52,-0.76 7.45,-1.34 7.17,-1.85 6.88,-2.36 5.61,-2.59 4.34,-2.82 3.93,-2.40 3.52,-1.98 3.03,-1.66 2.55,-1.35 1.53,-0.47 0.52,0.39 0.47,0.45 0.41,0.50 0.34,0.55 0.28,0.59 0.20,0.61 0.13,0.64 0.05,0.64 -0.02,0.65 -0.10,0.64 -0.18,0.63 -0.25,0.59 -0.32,0.56 -0.39,0.52 -0.45,0.47 -0.50,0.41 -0.55,0.35 -0.58,0.27 -0.62,0.20 -0.63,0.13 -0.65,0.05 -0.65,-0.02 -0.64,-0.10 -0.62,-0.18 -0.60,-0.25 -0.56,-0.32 -0.52,-0.39 -0.52,-0.39 L -0.52,-0.39 Z"/></g><g transform="translate(438.64410400390625 222.6989288330078) rotate(0 -0.4564208984375 0)" stroke="none"><path fill="#1e1e1e" d="M 1.33,2.38 Q 1.33,2.38 0.98,2.63 0.64,2.87 0.23,3.00 -0.17,3.12 -0.59,3.11 -1.01,3.10 -1.41,2.95 -1.81,2.81 -2.14,2.54 -2.48,2.27 -2.70,1.92 -2.93,1.56 -3.04,1.15 -3.14,0.73 -3.10,0.31 -3.07,-0.10 -2.90,-0.49 -2.73,-0.88 -2.45,-1.20 -2.17,-1.52 -1.80,-1.73 -1.43,-1.94 -1.01,-2.02 -0.59,-2.10 -0.17,-2.04 0.24,-1.98 0.62,-1.79 1.00,-1.60 1.30,-1.30 1.60,-1.00 1.79,-0.62 1.98,-0.24 2.04,0.17 2.10,0.59 2.02,1.01 1.94,1.43 1.73,1.80 1.52,2.17 1.20,2.45 0.88,2.73 0.49,2.90 0.10,3.07 -0.31,3.10 -0.73,3.14 -1.15,3.04 -1.56,2.93 -1.92,2.70 -2.27,2.47 -2.54,2.14 -2.81,1.81 -2.95,1.41 -3.10,1.01 -3.11,0.59 -3.12,0.16 -3.00,-0.23 -2.87,-0.64 -2.62,-0.98 -2.38,-1.33 -2.38,-1.33 -2.38,-1.33 -2.18,-1.59 -1.99,-1.86 -1.74,-2.07 -1.49,-2.28 -1.19,-2.43 -0.89,-2.57 -0.57,-2.64 -0.25,-2.71 0.07,-2.70 0.40,-2.69 0.71,-2.61 1.03,-2.52 1.32,-2.36 1.60,-2.20 1.85,-1.97 2.09,-1.75 2.27,-1.47 2.44,-1.20 2.55,-0.89 2.66,-0.58 2.69,-0.25 2.72,0.07 2.68,0.39 2.63,0.72 2.50,1.02 2.38,1.33 1.85,1.85 L 1.33,2.38 Z"/></g><g transform="translate(437.73126220703125 240.04347229003906) rotate(0 -0.456451416015625 1.3693084716796875)" stroke="none"><path fill="#1e1e1e" d="M 2.49,0.83 Q 2.49,0.83 2.22,1.61 1.96,2.40 1.76,2.78 1.57,3.15 1.26,3.45 0.95,3.74 0.57,3.92 0.18,4.10 -0.23,4.15 -0.65,4.19 -1.07,4.10 -1.48,4.01 -1.85,3.79 -2.21,3.58 -2.49,3.25 -2.77,2.93 -2.92,2.54 -3.08,2.14 -3.11,1.72 -3.13,1.29 -3.02,0.88 -2.91,0.47 -2.67,0.12 -2.43,-0.22 -2.09,-0.48 -1.76,-0.74 -1.36,-0.87 -0.95,-1.01 -0.53,-1.01 -0.10,-1.01 0.29,-0.88 0.69,-0.74 1.03,-0.49 1.37,-0.23 1.61,0.11 1.85,0.46 1.97,0.87 2.08,1.28 2.06,1.70 2.04,2.13 1.88,2.52 1.72,2.92 1.45,3.24 1.18,3.57 0.81,3.79 0.45,4.01 0.03,4.10 -0.37,4.19 -0.79,4.15 -1.22,4.10 -1.60,3.93 -1.99,3.75 -2.30,3.46 -2.61,3.17 -2.81,2.79 -3.01,2.42 -3.08,2.00 -3.15,1.58 -3.08,1.16 -3.01,0.74 -3.01,0.74 -3.01,0.74 -2.75,-0.04 -2.49,-0.83 -2.35,-1.11 -2.22,-1.40 -2.02,-1.64 -1.82,-1.89 -1.56,-2.08 -1.31,-2.27 -1.02,-2.39 -0.73,-2.52 -0.41,-2.57 -0.10,-2.62 0.20,-2.59 0.52,-2.57 0.82,-2.47 1.12,-2.37 1.39,-2.20 1.66,-2.03 1.87,-1.80 2.09,-1.57 2.25,-1.30 2.41,-1.03 2.50,-0.72 2.59,-0.42 2.60,-0.10 2.61,0.21 2.55,0.52 2.49,0.83 2.49,0.83 L 2.49,0.83 Z"/></g><g transform="translate(436.818359375 260.1266326904297) rotate(0 0.456451416015625 0.4564361572265625)" stroke="none"><path fill="#1e1e1e" d="M 2.62,0.52 Q 2.62,0.52 2.55,0.94 2.48,1.36 2.29,1.73 2.09,2.11 1.78,2.40 1.47,2.69 1.08,2.87 0.70,3.05 0.28,3.10 -0.14,3.14 -0.55,3.05 -0.97,2.96 -1.33,2.74 -1.70,2.52 -1.97,2.20 -2.25,1.87 -2.40,1.48 -2.56,1.08 -2.58,0.66 -2.61,0.24 -2.49,-0.16 -2.38,-0.57 -2.14,-0.92 -1.90,-1.28 -1.56,-1.53 -1.23,-1.79 -0.82,-1.93 -0.42,-2.06 0.00,-2.06 0.42,-2.06 0.82,-1.93 1.23,-1.79 1.56,-1.53 1.90,-1.28 2.14,-0.92 2.38,-0.57 2.49,-0.16 2.61,0.24 2.58,0.66 2.56,1.09 2.40,1.48 2.25,1.87 1.97,2.20 1.69,2.52 1.33,2.74 0.97,2.96 0.55,3.05 0.14,3.14 -0.28,3.10 -0.70,3.05 -1.08,2.87 -1.47,2.69 -1.78,2.40 -2.09,2.11 -2.29,1.73 -2.48,1.36 -2.55,0.94 -2.62,0.52 -2.62,0.52 -2.62,0.52 -2.65,0.20 -2.67,-0.11 -2.62,-0.43 -2.56,-0.75 -2.44,-1.05 -2.31,-1.34 -2.11,-1.60 -1.92,-1.86 -1.67,-2.06 -1.42,-2.26 -1.12,-2.40 -0.83,-2.54 -0.52,-2.60 -0.20,-2.67 0.11,-2.65 0.44,-2.64 0.75,-2.55 1.06,-2.45 1.33,-2.29 1.61,-2.13 1.85,-1.90 2.08,-1.68 2.25,-1.41 2.42,-1.13 2.52,-0.83 2.62,-0.52 2.62,0.00 L 2.62,0.52 Z"/></g></svg>