<svg version="1.1" xmlns="http://www.w3.org/2000/svg" viewBox="0 0 655.9666748046875 239.08901977539062" width="655.9666748046875" height="239.08901977539062" filter="invert(93%) hue-rotate(180deg)" class="excalidraw-svg">
  <!-- svg-source:excalidraw -->
  
  <defs>
    <style class="style-fonts">
      @font-face {
        font-family: "Virgil";
        src: url("https://excalidraw.com/Virgil.woff2");
      }
      @font-face {
        font-family: "Cascadia";
        src: url("https://excalidraw.com/Cascadia.woff2");
      }
      @font-face {
        font-family: "Assistant";
        src: url("https://excalidraw.com/Assistant-Regular.woff2");
      }
    </style>
    
  </defs>
  <rect x="0" y="0" width="655.9666748046875" height="239.08901977539062" fill="#ffffff"/><g stroke-linecap="round"><g transform="translate(283.86114501953125 36.625396728515625) rotate(0 81.01736450195312 0.7607269287109375)"><path d="M0 0 C27.01 0.25, 135.03 1.27, 162.03 1.52 M0 0 C27.01 0.25, 135.03 1.27, 162.03 1.52" stroke="#1e1e1e" stroke-width="4" fill="none"/></g></g><mask/><g stroke-linecap="round"><g transform="translate(284.6000061035156 98.41767883300781) rotate(0 81.01736450195312 0.7607269287109375)"><path d="M0 0 C27.01 0.25, 135.03 1.27, 162.03 1.52 M0 0 C27.01 0.25, 135.03 1.27, 162.03 1.52" stroke="#1e1e1e" stroke-width="4" fill="none"/></g></g><mask/><g transform="translate(448.177978515625 39.668304443359375) rotate(0 0.38043212890625 29.287940979003906)" stroke="none"><path fill="#1e1e1e" d="M 0.62,0.20 Q 0.62,0.20 0.72,0.96 0.82,1.72 0.76,2.32 0.70,2.91 0.67,3.60 0.63,4.29 0.62,5.24 0.61,6.19 0.60,7.03 0.60,7.88 0.59,9.11 0.59,10.34 0.60,11.52 0.60,12.70 0.81,13.97 1.03,15.24 1.12,16.31 1.22,17.38 1.27,18.51 1.31,19.63 1.33,20.55 1.35,21.46 1.36,22.28 1.37,23.10 1.57,23.71 1.77,24.32 1.89,25.43 2.01,26.55 2.05,27.21 2.10,27.87 2.12,28.61 2.13,29.34 2.14,30.09 2.15,30.84 2.16,31.59 2.16,32.35 2.16,33.11 2.16,33.87 2.17,34.84 2.17,35.81 2.37,36.50 2.57,37.18 2.68,38.07 2.79,38.97 2.84,39.56 2.88,40.15 2.90,40.85 2.92,41.56 2.93,42.30 2.94,43.03 2.95,44.01 2.95,44.98 2.95,45.61 2.95,46.23 2.96,47.36 2.96,48.49 2.97,49.63 2.97,50.77 2.68,52.02 2.38,53.27 2.33,53.80 2.28,54.34 2.26,55.26 2.24,56.18 1.55,57.11 0.87,58.04 0.86,58.12 0.85,58.20 0.82,58.27 0.79,58.35 0.75,58.41 0.70,58.48 0.64,58.53 0.58,58.58 0.51,58.62 0.44,58.66 0.36,58.67 0.29,58.69 0.21,58.69 0.13,58.69 0.05,58.67 -0.02,58.65 -0.09,58.62 -0.16,58.58 -0.21,58.53 -0.27,58.47 -0.32,58.41 -0.36,58.34 -0.39,58.27 -0.42,58.19 -0.43,58.11 -0.44,58.04 -0.41,58.17 -0.38,58.31 -0.40,58.21 -0.43,58.11 -0.43,58.00 -0.42,57.90 -0.38,57.80 -0.34,57.70 -0.27,57.62 -0.20,57.54 -0.11,57.48 -0.02,57.43 0.07,57.41 0.18,57.38 0.28,57.40 0.39,57.41 0.49,57.45 0.58,57.50 0.66,57.57 0.74,57.64 0.78,57.74 0.83,57.83 0.85,57.94 0.87,58.04 0.85,58.15 0.83,58.25 0.78,58.34 0.73,58.44 0.66,58.51 0.58,58.58 0.48,58.63 0.39,58.67 0.28,58.68 0.17,58.70 0.07,58.67 -0.02,58.65 -0.11,58.59 -0.21,58.54 -0.27,58.46 -0.34,58.38 -0.38,58.28 -0.42,58.18 -0.43,58.07 -0.43,57.97 -0.40,57.86 -0.37,57.76 -0.31,57.67 -0.25,57.59 -0.17,57.52 -0.08,57.46 0.01,57.43 0.11,57.39 0.21,57.39 0.32,57.39 0.42,57.43 0.52,57.46 0.61,57.53 0.69,57.59 0.78,57.82 0.87,58.04 0.86,58.12 0.85,58.20 0.82,58.27 0.79,58.35 0.75,58.41 0.70,58.48 0.64,58.53 0.58,58.58 0.51,58.62 0.44,58.66 0.36,58.67 0.29,58.69 0.21,58.69 0.13,58.69 0.05,58.67 -0.02,58.65 -0.09,58.62 -0.15,58.58 -0.21,58.53 -0.27,58.47 -0.32,58.41 -0.36,58.34 -0.39,58.27 -0.42,58.19 -0.43,58.11 -0.44,58.04 -0.56,57.09 -0.69,56.14 -0.69,55.52 -0.68,54.90 -0.60,53.99 -0.53,53.08 -0.37,52.52 -0.22,51.96 -0.07,51.36 0.06,50.77 0.07,49.63 0.07,48.49 0.07,47.36 0.08,46.24 0.08,45.61 0.08,44.99 0.07,44.02 0.07,43.06 0.06,42.35 0.06,41.63 0.01,40.46 -0.02,39.30 -0.10,38.59 -0.17,37.88 -0.41,36.86 -0.65,35.84 -0.65,34.85 -0.65,33.87 -0.65,33.12 -0.65,32.36 -0.65,31.61 -0.65,30.87 -0.66,30.14 -0.66,29.41 -0.68,28.73 -0.69,28.04 -0.73,27.43 -0.77,26.81 -0.83,25.94 -0.90,25.07 -1.15,24.11 -1.39,23.15 -1.39,22.33 -1.40,21.51 -1.41,20.62 -1.43,19.73 -1.46,18.68 -1.50,17.63 -1.58,16.65 -1.67,15.67 -1.89,14.19 -2.12,12.70 -2.11,11.52 -2.11,10.34 -2.10,9.10 -2.10,7.86 -2.09,7.00 -2.08,6.14 -2.06,5.15 -2.04,4.15 -1.99,3.36 -1.95,2.57 -1.82,1.73 -1.70,0.89 -1.16,0.34 -0.62,-0.20 -0.58,-0.27 -0.55,-0.35 -0.50,-0.41 -0.45,-0.47 -0.39,-0.52 -0.32,-0.56 -0.25,-0.59 -0.18,-0.63 -0.10,-0.64 -0.02,-0.65 0.05,-0.64 0.13,-0.64 0.20,-0.61 0.28,-0.59 0.34,-0.55 0.41,-0.50 0.46,-0.45 0.52,-0.39 0.56,-0.32 0.60,-0.25 0.62,-0.18 0.64,-0.10 0.65,-0.02 0.65,0.05 0.63,0.13 0.62,0.20 0.62,0.20 L 0.62,0.20 Z"/></g><g transform="translate(443.6136474609375 37.38612365722656) rotate(0 25.48431396484375 30.048660278320312)" stroke="none"><path fill="#1e1e1e" d="M -0.15,-0.63 Q -0.15,-0.63 0.67,-1.02 1.50,-1.40 2.14,-1.51 2.77,-1.63 3.50,-1.69 4.24,-1.75 4.99,-1.77 5.74,-1.80 6.71,-1.83 7.69,-1.85 9.28,-1.64 10.86,-1.43 12.33,-1.36 13.80,-1.28 15.38,-1.02 16.96,-0.77 18.31,-0.43 19.66,-0.10 21.09,0.24 22.52,0.60 23.80,0.97 25.09,1.34 26.49,1.71 27.89,2.08 29.16,2.46 30.44,2.84 31.91,3.46 33.38,4.08 34.43,4.55 35.49,5.03 36.64,5.69 37.79,6.35 38.68,6.83 39.57,7.31 40.49,8.00 41.41,8.70 42.08,9.51 42.75,10.32 43.41,11.03 44.07,11.73 44.67,12.83 45.27,13.94 45.91,14.97 46.54,16.00 47.05,16.91 47.56,17.82 48.03,18.92 48.49,20.03 48.91,21.15 49.32,22.27 49.72,23.40 50.11,24.53 50.31,25.54 50.50,26.55 50.78,27.54 51.06,28.52 51.20,29.24 51.34,29.96 51.41,30.98 51.47,32.00 51.70,32.69 51.92,33.38 52.05,34.51 52.18,35.64 52.23,36.32 52.28,37.01 52.06,37.94 51.85,38.87 51.79,39.51 51.73,40.15 51.45,41.05 51.18,41.94 50.84,42.76 50.50,43.58 50.15,44.36 49.79,45.15 49.43,45.92 49.06,46.70 48.68,47.48 48.31,48.27 47.56,49.03 46.81,49.79 46.46,50.34 46.11,50.89 45.42,51.69 44.74,52.48 43.72,53.33 42.70,54.18 41.81,54.77 40.91,55.37 39.92,56.04 38.93,56.72 38.16,57.08 37.39,57.44 36.56,57.97 35.73,58.50 34.70,58.84 33.67,59.17 32.97,59.47 32.27,59.77 31.53,60.12 30.80,60.47 29.84,60.71 28.87,60.94 28.01,61.03 27.16,61.12 26.60,61.33 26.05,61.55 25.13,61.69 24.21,61.84 23.63,62.07 23.05,62.29 22.11,62.45 21.18,62.61 20.34,62.67 19.50,62.73 18.70,62.76 17.91,62.78 17.13,62.79 16.36,62.81 15.59,62.81 14.82,62.82 14.06,62.82 13.30,62.82 12.53,62.83 11.77,62.83 11.23,62.83 10.69,62.83 9.61,62.83 8.53,62.84 6.92,61.81 5.31,60.78 5.21,60.73 5.12,60.68 5.04,60.61 4.97,60.53 4.92,60.43 4.88,60.34 4.86,60.23 4.85,60.13 4.87,60.02 4.89,59.92 4.94,59.83 5.00,59.74 5.08,59.67 5.16,59.60 5.25,59.55 5.35,59.51 5.46,59.50 5.56,59.50 5.67,59.52 5.77,59.55 5.86,59.61 5.95,59.67 6.01,59.75 6.08,59.83 6.12,59.93 6.15,60.03 6.15,60.14 6.16,60.24 6.12,60.35 6.09,60.45 6.03,60.53 5.97,60.62 5.88,60.68 5.79,60.74 5.69,60.77 5.59,60.80 5.48,60.80 5.38,60.79 5.28,60.76 5.18,60.72 5.10,60.65 5.01,60.59 4.96,60.50 4.90,60.41 4.88,60.30 4.85,60.20 4.86,60.09 4.87,59.99 4.91,59.89 4.95,59.79 5.03,59.71 5.10,59.64 5.19,59.58 5.28,59.53 5.39,59.51 5.49,59.49 5.60,59.51 5.70,59.52 5.70,59.52 5.70,59.52 7.12,59.20 8.53,58.87 9.61,58.87 10.68,58.87 11.23,58.87 11.77,58.87 12.53,58.88 13.29,58.88 14.05,58.88 14.80,58.88 15.56,58.88 16.31,58.87 17.06,58.87 17.80,58.86 18.53,58.85 19.26,58.83 19.94,58.80 20.62,58.77 21.21,58.70 21.79,58.64 22.73,58.34 23.67,58.04 24.28,57.97 24.88,57.91 25.85,57.63 26.82,57.36 27.49,57.32 28.15,57.28 28.73,57.21 29.30,57.14 30.11,56.78 30.92,56.43 31.80,56.09 32.69,55.75 33.32,55.61 33.95,55.47 34.99,54.88 36.02,54.30 36.55,54.10 37.08,53.89 38.10,53.24 39.13,52.59 39.90,52.11 40.66,51.63 41.50,50.99 42.34,50.35 42.93,49.71 43.53,49.06 44.12,48.28 44.71,47.49 45.16,47.17 45.60,46.85 45.98,46.11 46.35,45.38 46.73,44.63 47.11,43.88 47.47,43.15 47.83,42.42 48.14,41.72 48.46,41.02 48.70,40.42 48.93,39.81 49.22,38.48 49.52,37.14 49.48,36.53 49.44,35.91 49.37,35.02 49.30,34.13 49.04,33.14 48.78,32.16 48.74,31.31 48.70,30.45 48.60,29.84 48.49,29.23 48.19,28.13 47.89,27.03 47.76,26.21 47.62,25.39 47.24,24.28 46.86,23.17 46.47,22.10 46.08,21.03 45.68,20.06 45.29,19.09 44.81,18.22 44.33,17.35 43.65,16.24 42.98,15.13 42.57,14.29 42.16,13.46 41.46,12.68 40.76,11.91 40.30,11.29 39.83,10.68 39.11,10.09 38.38,9.49 37.46,8.99 36.55,8.49 35.51,7.87 34.47,7.25 33.45,6.78 32.43,6.32 31.08,5.74 29.74,5.16 28.50,4.78 27.27,4.41 25.84,4.02 24.42,3.64 23.18,3.27 21.94,2.90 20.51,2.54 19.08,2.17 17.83,1.85 16.57,1.53 15.12,1.27 13.66,1.01 12.10,0.90 10.54,0.80 9.12,0.57 7.70,0.35 6.74,0.34 5.79,0.33 5.07,0.34 4.36,0.34 3.72,0.36 3.08,0.38 2.54,0.45 1.99,0.53 1.07,0.58 0.15,0.63 0.08,0.64 0.00,0.65 -0.07,0.64 -0.15,0.63 -0.22,0.61 -0.30,0.58 -0.36,0.53 -0.43,0.49 -0.48,0.43 -0.53,0.37 -0.57,0.30 -0.61,0.23 -0.63,0.15 -0.65,0.08 -0.65,0.00 -0.65,-0.07 -0.63,-0.15 -0.61,-0.23 -0.57,-0.30 -0.54,-0.37 -0.48,-0.43 -0.43,-0.49 -0.37,-0.53 -0.30,-0.58 -0.23,-0.60 -0.15,-0.63 -0.15,-0.63 L -0.15,-0.63 Z"/></g><g stroke-linecap="round"><g transform="translate(283.4697570800781 150.3697052001953) rotate(0 128.94308471679688 1.5214385986328125)"><path d="M0 0 C42.98 0.51, 214.91 2.54, 257.89 3.04 M0 0 C42.98 0.51, 214.91 2.54, 257.89 3.04" stroke="#1e1e1e" stroke-width="4" fill="none"/></g></g><mask/><g stroke-linecap="round"><g transform="translate(495.5489196777344 70.24269104003906) rotate(0 23.582611083984375 0.38036346435546875)"><path d="M0 0 C7.86 0.13, 39.3 0.63, 47.17 0.76 M0 0 C7.86 0.13, 39.3 0.63, 47.17 0.76" stroke="#1e1e1e" stroke-width="4" fill="none"/></g></g><mask/><g transform="translate(547.8331298828125 69.33660888671875) rotate(0 -2.28216552734375 41.079193115234375)" stroke="none"><path fill="#1e1e1e" d="M 0.58,0.29 Q 0.58,0.29 0.31,1.24 0.03,2.20 -0.10,2.72 -0.24,3.25 -0.61,3.87 -0.97,4.48 -1.45,4.80 -1.92,5.11 -2.44,5.60 -2.96,6.09 -2.91,6.64 -2.86,7.19 -2.71,8.23 -2.56,9.26 -2.50,10.54 -2.44,11.82 -2.41,13.01 -2.38,14.21 -2.35,15.81 -2.32,17.41 -2.30,19.18 -2.28,20.96 -2.49,22.49 -2.71,24.01 -2.78,25.42 -2.85,26.82 -2.88,27.87 -2.91,28.91 -2.92,30.44 -2.93,31.96 -2.93,33.27 -2.93,34.58 -2.93,35.79 -2.93,37.00 -2.73,38.02 -2.52,39.05 -2.42,40.28 -2.31,41.51 -2.08,42.29 -1.84,43.07 -1.71,44.49 -1.57,45.90 -1.52,46.68 -1.47,47.46 -1.45,48.69 -1.43,49.93 -1.42,51.10 -1.41,52.27 -1.40,53.43 -1.40,54.58 -1.39,55.73 -1.39,56.88 -1.39,57.80 -1.38,58.72 -1.38,59.56 -1.38,60.39 -1.37,61.18 -1.37,61.97 -1.36,62.74 -1.36,63.51 -1.35,64.28 -1.35,65.05 -1.34,65.81 -1.33,66.57 -1.32,67.33 -1.32,68.10 -1.31,68.85 -1.31,69.60 -1.12,70.13 -0.93,70.66 -0.82,71.30 -0.70,71.93 -0.64,72.69 -0.58,73.46 -0.55,74.65 -0.51,75.85 -0.51,76.57 -0.50,77.29 -0.49,78.25 -0.49,79.22 -1.72,80.35 -2.95,81.49 -2.96,81.56 -2.97,81.64 -2.99,81.72 -3.02,81.79 -3.07,81.86 -3.11,81.92 -3.17,81.97 -3.23,82.03 -3.30,82.06 -3.37,82.10 -3.45,82.12 -3.52,82.14 -3.60,82.14 -3.68,82.14 -3.76,82.12 -3.84,82.10 -3.91,82.06 -3.98,82.03 -4.03,81.97 -4.09,81.92 -4.14,81.86 -4.18,81.79 -4.21,81.72 -4.24,81.64 -4.25,81.57 -4.26,81.49 -4.16,81.72 -4.06,81.96 -4.12,81.87 -4.19,81.79 -4.22,81.69 -4.25,81.58 -4.25,81.48 -4.25,81.37 -4.21,81.27 -4.18,81.17 -4.11,81.09 -4.05,81.00 -3.96,80.95 -3.87,80.89 -3.77,80.86 -3.67,80.83 -3.56,80.84 -3.45,80.85 -3.36,80.89 -3.26,80.93 -3.18,81.00 -3.10,81.07 -3.04,81.16 -2.99,81.25 -2.97,81.36 -2.95,81.46 -2.96,81.56 -2.97,81.67 -3.02,81.77 -3.06,81.86 -3.14,81.94 -3.21,82.01 -3.31,82.06 -3.40,82.11 -3.51,82.13 -3.61,82.14 -3.72,82.12 -3.82,82.11 -3.91,82.05 -4.01,82.00 -4.08,81.93 -4.15,81.85 -4.19,81.75 -4.24,81.65 -4.25,81.55 -4.26,81.44 -4.23,81.34 -4.21,81.24 -4.15,81.14 -4.10,81.05 -4.02,80.99 -3.93,80.92 -3.83,80.88 -3.74,80.84 -3.63,80.84 -3.52,80.83 -3.42,80.86 -3.32,80.89 -3.13,81.19 -2.95,81.49 -2.96,81.56 -2.97,81.64 -2.99,81.72 -3.02,81.79 -3.07,81.86 -3.11,81.92 -3.17,81.97 -3.23,82.03 -3.30,82.06 -3.37,82.10 -3.45,82.12 -3.52,82.14 -3.60,82.14 -3.68,82.14 -3.76,82.12 -3.84,82.10 -3.91,82.06 -3.98,82.03 -4.03,81.97 -4.09,81.92 -4.14,81.86 -4.18,81.79 -4.21,81.72 -4.24,81.64 -4.25,81.57 -4.26,81.49 -4.17,80.35 -4.07,79.22 -4.07,78.26 -4.06,77.30 -4.06,76.59 -4.06,75.89 -4.08,74.77 -4.09,73.66 -4.18,72.64 -4.27,71.62 -4.52,70.63 -4.76,69.64 -4.76,68.87 -4.76,68.10 -4.75,67.33 -4.75,66.57 -4.74,65.81 -4.73,65.05 -4.72,64.28 -4.71,63.51 -4.71,62.74 -4.71,61.97 -4.70,61.18 -4.70,60.39 -4.70,59.56 -4.69,58.73 -4.69,57.80 -4.69,56.88 -4.69,55.74 -4.69,54.59 -4.69,53.44 -4.69,52.30 -4.70,51.14 -4.71,49.98 -4.72,48.82 -4.74,47.66 -4.78,46.92 -4.83,46.19 -4.91,45.06 -4.99,43.94 -5.28,42.86 -5.56,41.79 -5.64,40.71 -5.72,39.64 -5.95,38.32 -6.18,37.00 -6.17,35.78 -6.16,34.56 -6.15,33.24 -6.14,31.93 -6.11,30.36 -6.09,28.79 -6.04,27.71 -5.99,26.63 -5.88,25.08 -5.77,23.54 -5.55,22.25 -5.33,20.96 -5.31,19.19 -5.29,17.42 -5.28,15.83 -5.26,14.24 -5.26,13.07 -5.26,11.90 -5.27,10.71 -5.28,9.53 -5.30,8.87 -5.31,8.21 -5.53,7.48 -5.76,6.74 -5.60,5.93 -5.44,5.13 -4.99,4.70 -4.55,4.27 -3.84,3.84 -3.14,3.42 -2.69,3.01 -2.25,2.60 -2.01,1.95 -1.78,1.29 -1.18,0.50 -0.58,-0.29 -0.54,-0.35 -0.49,-0.42 -0.44,-0.47 -0.38,-0.53 -0.31,-0.57 -0.24,-0.60 -0.16,-0.62 -0.09,-0.65 -0.01,-0.65 0.06,-0.65 0.14,-0.63 0.22,-0.61 0.29,-0.58 0.36,-0.54 0.42,-0.49 0.48,-0.44 0.52,-0.38 0.57,-0.31 0.60,-0.24 0.63,-0.16 0.64,-0.09 0.65,-0.01 0.64,0.06 0.64,0.14 0.61,0.21 0.58,0.29 0.58,0.29 L 0.58,0.29 Z"/></g><g transform="translate(543.268798828125 70.09733581542969) rotate(0 33.091552734375 41.83991241455078)" stroke="none"><path fill="#1e1e1e" d="M 0,-0.65 Q 0,-0.65 1.09,-0.98 2.18,-1.31 3.09,-1.33 3.99,-1.34 5.37,-1.14 6.74,-0.94 8.08,-0.88 9.42,-0.82 11.18,-0.58 12.93,-0.34 14.47,-0.26 16.00,-0.17 18.04,0.06 20.09,0.31 21.85,0.63 23.62,0.96 25.54,1.55 27.46,2.14 29.37,2.82 31.28,3.50 33.18,4.22 35.09,4.94 36.54,5.45 37.98,5.97 39.90,6.61 41.83,7.26 43.40,8.01 44.98,8.77 46.33,9.53 47.67,10.30 48.90,11.06 50.14,11.82 51.32,12.57 52.51,13.33 53.67,14.08 54.84,14.84 56.08,15.88 57.33,16.92 58.36,18.08 59.39,19.25 60.06,20.22 60.74,21.19 61.45,22.23 62.15,23.27 62.83,24.07 63.51,24.87 64.11,25.77 64.71,26.67 65.22,27.80 65.74,28.93 66.33,29.93 66.92,30.93 67.28,32.29 67.65,33.65 67.92,34.16 68.19,34.68 68.42,35.89 68.64,37.10 68.71,38.26 68.78,39.41 68.58,40.92 68.38,42.44 68.30,43.59 68.23,44.74 67.72,46.55 67.21,48.37 66.79,49.72 66.37,51.08 65.72,52.62 65.07,54.15 64.33,55.51 63.58,56.87 62.62,58.52 61.65,60.18 60.80,61.55 59.94,62.93 59.33,63.78 58.71,64.63 57.97,65.47 57.23,66.32 56.56,67.24 55.88,68.16 55.09,69.08 54.29,70.00 53.29,71.05 52.29,72.10 51.21,73.20 50.13,74.31 48.46,75.54 46.80,76.77 45.75,77.64 44.71,78.52 42.99,79.46 41.26,80.41 39.61,81.04 37.96,81.66 35.97,82.36 33.99,83.05 31.99,83.58 29.99,84.12 28.04,84.56 26.09,85.00 24.52,85.21 22.96,85.41 21.39,85.49 19.81,85.58 18.72,85.61 17.62,85.65 15.61,85.66 13.60,85.67 11.75,85.45 9.90,85.23 8.77,85.15 7.65,85.06 6.75,85.03 5.85,84.99 4.63,84.68 3.42,84.37 1.61,83.60 -0.20,82.84 -0.30,82.81 -0.40,82.79 -0.49,82.74 -0.59,82.68 -0.66,82.60 -0.73,82.52 -0.77,82.43 -0.81,82.33 -0.81,82.22 -0.82,82.11 -0.79,82.01 -0.76,81.91 -0.71,81.82 -0.65,81.73 -0.56,81.67 -0.48,81.60 -0.38,81.57 -0.28,81.53 -0.17,81.53 -0.07,81.53 0.03,81.56 0.13,81.60 0.21,81.66 0.30,81.72 0.36,81.81 0.42,81.90 0.45,82.00 0.48,82.10 0.47,82.21 0.47,82.32 0.43,82.41 0.39,82.51 0.32,82.60 0.25,82.68 0.16,82.73 0.07,82.79 -0.02,82.81 -0.12,82.84 -0.23,82.82 -0.34,82.81 -0.43,82.77 -0.53,82.73 -0.61,82.65 -0.68,82.58 -0.74,82.49 -0.79,82.40 -0.80,82.29 -0.82,82.19 -0.81,82.08 -0.79,81.98 -0.74,81.88 -0.69,81.79 -0.62,81.71 -0.54,81.64 -0.44,81.59 -0.35,81.55 -0.24,81.54 -0.14,81.52 -0.14,81.52 -0.14,81.52 2.05,81.08 4.25,80.63 5.14,80.79 6.03,80.95 7.00,80.99 7.96,81.03 9.18,81.13 10.39,81.22 11.98,81.43 13.57,81.63 15.53,81.62 17.50,81.61 18.55,81.57 19.60,81.54 21.03,81.47 22.46,81.40 23.83,81.23 25.20,81.06 27.08,80.64 28.96,80.21 30.82,79.73 32.67,79.25 34.62,78.58 36.57,77.92 37.99,77.41 39.41,76.89 40.80,76.19 42.20,75.48 43.35,74.53 44.49,73.58 45.92,72.57 47.35,71.57 48.41,70.49 49.47,69.41 50.42,68.42 51.36,67.44 52.06,66.64 52.76,65.85 53.54,64.80 54.32,63.75 54.95,63.05 55.57,62.34 56.11,61.61 56.65,60.87 57.48,59.55 58.31,58.22 59.25,56.61 60.19,55.00 60.85,53.81 61.50,52.63 62.08,51.28 62.67,49.92 63.08,48.60 63.49,47.28 63.93,45.87 64.37,44.46 64.46,43.17 64.55,41.88 64.74,40.74 64.92,39.61 64.87,38.64 64.82,37.67 64.76,36.98 64.70,36.29 64.31,35.42 63.92,34.55 63.75,33.68 63.59,32.81 62.92,31.64 62.26,30.48 61.89,29.61 61.52,28.74 61.06,28.02 60.59,27.30 59.80,26.34 59.01,25.39 58.32,24.35 57.63,23.32 57.09,22.51 56.54,21.69 55.72,20.72 54.91,19.74 53.86,18.82 52.81,17.90 51.67,17.14 50.53,16.37 49.38,15.61 48.24,14.85 47.07,14.11 45.90,13.36 44.67,12.64 43.45,11.92 42.07,11.24 40.70,10.55 38.75,9.88 36.81,9.20 35.34,8.66 33.87,8.11 32.00,7.38 30.13,6.64 28.30,5.95 26.47,5.27 24.74,4.70 23.01,4.13 21.34,3.80 19.66,3.46 17.73,3.18 15.79,2.89 14.14,2.76 12.48,2.62 10.85,2.34 9.23,2.06 7.74,1.94 6.26,1.81 5.12,1.58 3.98,1.34 3.08,1.33 2.18,1.31 1.09,0.98 0,0.65 -0.07,0.64 -0.15,0.63 -0.23,0.60 -0.30,0.58 -0.37,0.53 -0.43,0.49 -0.48,0.43 -0.54,0.37 -0.57,0.30 -0.61,0.23 -0.63,0.15 -0.65,0.07 -0.65,-0.00 -0.65,-0.07 -0.63,-0.15 -0.61,-0.23 -0.57,-0.30 -0.54,-0.37 -0.48,-0.43 -0.43,-0.49 -0.37,-0.53 -0.30,-0.58 -0.23,-0.60 -0.15,-0.63 -0.07,-0.64 0.00,-0.65 0.00,-0.65 L 0,-0.65 Z"/></g><g transform="translate(612.4947509765625 110.41580200195312) rotate(0 16.7359619140625 0.3803558349609375)" stroke="none"><path fill="#1e1e1e" d="M 0,-0.65 Q 0,-0.65 0.65,-1.04 1.31,-1.42 2.24,-1.46 3.16,-1.49 3.78,-1.51 4.40,-1.53 5.31,-1.56 6.22,-1.58 7.00,-1.60 7.79,-1.61 8.55,-1.62 9.32,-1.63 9.92,-1.64 10.52,-1.66 11.75,-1.63 12.98,-1.60 13.61,-1.26 14.25,-0.92 14.85,-0.96 15.45,-1.00 16.41,-0.99 17.37,-0.98 18.26,-0.99 19.16,-0.99 19.94,-1.00 20.72,-1.01 21.71,-1.02 22.69,-1.03 23.58,-1.04 24.48,-1.06 25.26,-1.06 26.05,-1.06 26.81,-1.07 27.58,-1.08 28.34,-1.09 29.10,-1.11 29.86,-1.11 30.62,-1.12 31.05,-0.52 31.47,0.07 31.55,0.08 31.63,0.08 31.71,0.11 31.78,0.14 31.85,0.19 31.91,0.23 31.96,0.29 32.02,0.35 32.05,0.42 32.09,0.49 32.11,0.57 32.13,0.64 32.13,0.72 32.13,0.80 32.11,0.88 32.09,0.96 32.05,1.03 32.02,1.10 31.96,1.15 31.91,1.21 31.85,1.26 31.78,1.30 31.71,1.33 31.63,1.36 31.55,1.37 31.47,1.38 31.41,1.37 31.34,1.36 31.24,1.33 31.14,1.29 31.06,1.22 30.98,1.15 30.92,1.06 30.87,0.97 30.84,0.87 30.82,0.76 30.83,0.66 30.84,0.55 30.88,0.45 30.93,0.36 31.00,0.28 31.07,0.20 31.17,0.15 31.26,0.10 31.37,0.08 31.47,0.07 31.58,0.08 31.68,0.10 31.77,0.15 31.87,0.20 31.94,0.27 32.02,0.35 32.06,0.45 32.11,0.54 32.12,0.65 32.13,0.75 32.11,0.86 32.09,0.96 32.03,1.05 31.98,1.14 31.90,1.21 31.82,1.28 31.72,1.32 31.62,1.36 31.51,1.37 31.41,1.38 31.31,1.35 31.20,1.32 31.11,1.26 31.03,1.20 30.96,1.12 30.90,1.03 30.86,0.93 30.83,0.83 30.83,0.73 30.83,0.62 30.86,0.52 30.89,0.42 30.96,0.33 31.02,0.25 31.11,0.19 31.20,0.13 31.30,0.10 31.40,0.07 31.44,0.07 31.47,0.07 31.55,0.08 31.63,0.08 31.71,0.11 31.78,0.14 31.85,0.19 31.91,0.23 31.96,0.29 32.02,0.35 32.05,0.42 32.09,0.49 32.11,0.57 32.13,0.64 32.13,0.72 32.13,0.80 32.11,0.88 32.09,0.95 32.05,1.03 32.02,1.10 31.96,1.15 31.91,1.21 31.85,1.26 31.78,1.30 31.71,1.33 31.63,1.36 31.55,1.37 31.47,1.38 31.05,2.01 30.62,2.64 29.86,2.63 29.10,2.63 28.34,2.61 27.58,2.60 26.81,2.59 26.05,2.59 25.26,2.58 24.48,2.58 23.58,2.57 22.69,2.55 21.71,2.54 20.72,2.53 19.93,2.52 19.14,2.51 18.24,2.49 17.33,2.48 16.69,2.47 16.05,2.45 15.08,2.38 14.11,2.30 13.31,1.95 12.51,1.60 11.51,1.63 10.52,1.66 9.92,1.64 9.32,1.63 8.55,1.62 7.79,1.61 7.00,1.60 6.22,1.58 5.31,1.56 4.40,1.53 3.78,1.51 3.16,1.49 2.24,1.46 1.31,1.42 0.65,1.04 0,0.65 -0.07,0.64 -0.15,0.63 -0.23,0.60 -0.30,0.58 -0.37,0.53 -0.43,0.49 -0.48,0.43 -0.54,0.37 -0.57,0.30 -0.61,0.23 -0.63,0.15 -0.65,0.07 -0.65,-0.00 -0.65,-0.07 -0.63,-0.15 -0.61,-0.23 -0.57,-0.30 -0.54,-0.37 -0.48,-0.43 -0.43,-0.49 -0.37,-0.53 -0.30,-0.58 -0.23,-0.60 -0.15,-0.63 -0.07,-0.64 0.00,-0.65 0.00,-0.65 L 0,-0.65 Z"/></g><g stroke-linecap="round" transform="translate(298.3150634765625 10) rotate(0 163.5560302734375 83.67982482910156)"><path d="M32 0 C110.6 0, 189.2 0, 295.11 0 M295.11 0 C316.45 0, 327.11 10.67, 327.11 32 M327.11 32 C327.11 57.16, 327.11 82.32, 327.11 135.36 M327.11 135.36 C327.11 156.69, 316.45 167.36, 295.11 167.36 M295.11 167.36 C238.98 167.36, 182.84 167.36, 32 167.36 M32 167.36 C10.67 167.36, 0 156.69, 0 135.36 M0 135.36 C0 109.45, 0 83.55, 0 32 M0 32 C0 10.67, 10.67 0, 32 0" stroke="#1e1e1e" stroke-width="1" fill="none" stroke-dasharray="8 8.5"/></g><g transform="translate(353.8480224609375 86.07257080078125) rotate(0 12.552001953125 14.07342529296875)" stroke="none"><path d="M0 0 C0 -0.25, 0.13 -5.58, 0 -1.52 C-0.13 2.54, -0.38 19.14, -0.76 24.34 C-1.14 29.54, -4.94 30.18, -2.28 29.67 C0.38 29.16, 11.03 23.46, 15.21 21.3 C19.4 19.14, 21.43 17.75, 22.82 16.74 C24.22 15.72, 22.82 15.59, 23.58 15.21 C24.34 14.83, 27.39 15.21, 27.39 14.45 C27.39 13.69, 27.39 12.93, 23.58 10.65 C19.78 8.37, 8.11 2.79, 4.56 0.76 C1.01 -1.27, 2.66 -1.39, 2.28 -1.52 C1.9 -1.65, 2.28 -0.25, 2.28 0" stroke="none" stroke-width="0" fill="#ffffff" fill-rule="evenodd"/><path fill="#1e1e1e" d="M 0.65,0 Q 0.65,0 1.06,1.09 1.47,2.18 1.49,3.52 1.52,4.86 1.54,6.31 1.56,7.75 1.58,9.24 1.60,10.73 1.38,12.35 1.17,13.98 1.09,15.21 1.01,16.45 0.98,17.63 0.95,18.80 0.94,19.96 0.93,21.11 0.93,22.04 0.92,22.98 0.69,24.19 0.45,25.41 0.37,26.02 0.29,26.63 -0.06,27.85 -0.42,29.07 -0.51,29.48 -0.61,29.90 -0.73,30.07 -0.85,30.24 -1.01,30.37 -1.17,30.51 -1.36,30.60 -1.54,30.69 -1.75,30.74 -1.95,30.79 -2.16,30.78 -2.37,30.78 -2.57,30.73 -2.77,30.67 -2.95,30.57 -3.13,30.47 -3.29,30.33 -3.44,30.19 -3.56,30.02 -3.67,29.85 -3.74,29.65 -3.81,29.45 -3.83,29.25 -3.86,29.04 -3.83,28.83 -3.80,28.63 -3.72,28.43 -3.65,28.24 -2.94,27.77 -2.22,27.29 -1.47,27.08 -0.72,26.86 -0.09,26.56 0.54,26.26 1.68,25.69 2.82,25.12 4.03,24.63 5.24,24.13 6.28,23.54 7.33,22.95 8.27,22.45 9.20,21.95 10.33,21.49 11.46,21.02 12.31,20.63 13.15,20.25 13.80,19.74 14.45,19.22 15.30,18.70 16.15,18.17 16.96,17.73 17.77,17.29 18.55,16.88 19.33,16.47 20.08,16.09 20.83,15.72 21.17,15.27 21.50,14.83 22.48,14.37 23.46,13.90 24.44,13.41 25.43,12.93 25.83,12.87 26.23,12.81 26.44,12.77 26.66,12.73 26.88,12.74 27.10,12.75 27.31,12.81 27.52,12.87 27.70,12.99 27.89,13.10 28.05,13.25 28.20,13.40 28.32,13.59 28.43,13.78 28.50,13.98 28.57,14.19 28.58,14.41 28.60,14.63 28.56,14.84 28.52,15.06 28.44,15.26 28.35,15.46 28.22,15.63 28.08,15.81 27.91,15.94 27.74,16.08 27.54,16.17 27.34,16.26 26.06,15.34 24.78,14.42 24.20,13.89 23.63,13.36 23.02,13.06 22.42,12.75 21.41,12.11 20.40,11.46 19.74,11.08 19.09,10.70 18.38,10.32 17.66,9.93 17.01,9.47 16.37,9.01 15.79,8.69 15.21,8.36 14.52,7.99 13.83,7.63 13.10,7.25 12.37,6.88 11.62,6.50 10.87,6.12 10.21,5.67 9.56,5.22 8.63,4.86 7.70,4.49 7.07,4.06 6.43,3.63 5.87,3.32 5.31,3.01 4.29,2.49 3.26,1.97 2.60,1.17 1.93,0.37 1.87,0.32 1.81,0.27 1.76,0.21 1.72,0.14 1.69,0.07 1.66,0.00 1.65,-0.07 1.64,-0.15 1.65,-0.23 1.65,-0.31 1.68,-0.38 1.71,-0.46 1.75,-0.52 1.79,-0.59 1.85,-0.64 1.91,-0.70 1.98,-0.73 2.05,-0.77 2.13,-0.79 2.20,-0.81 2.28,-0.81 2.36,-0.82 2.44,-0.80 2.52,-0.78 2.59,-0.75 2.66,-0.71 2.77,-0.30 2.89,0.10 2.83,0.19 2.77,0.27 2.69,0.34 2.61,0.40 2.51,0.44 2.41,0.47 2.30,0.47 2.19,0.48 2.09,0.44 1.99,0.41 1.91,0.35 1.82,0.28 1.76,0.20 1.70,0.11 1.67,0.01 1.64,-0.09 1.65,-0.19 1.65,-0.30 1.69,-0.40 1.73,-0.50 1.80,-0.58 1.86,-0.66 1.95,-0.72 2.04,-0.77 2.15,-0.79 2.25,-0.82 2.36,-0.81 2.46,-0.80 2.56,-0.75 2.66,-0.71 2.73,-0.64 2.81,-0.57 2.86,-0.47 2.91,-0.38 2.93,-0.27 2.95,-0.17 2.93,-0.06 2.92,0.03 2.87,0.13 2.82,0.22 2.74,0.29 2.67,0.37 2.57,0.41 2.48,0.46 2.37,0.47 2.26,0.48 2.16,0.46 2.06,0.44 1.96,0.39 1.87,0.33 1.80,0.25 1.73,0.17 1.69,0.07 1.65,-0.02 1.65,-0.12 1.64,-0.23 1.79,0.07 1.93,0.37 1.87,0.32 1.81,0.27 1.76,0.21 1.72,0.14 1.69,0.07 1.66,0.00 1.65,-0.07 1.64,-0.15 1.65,-0.23 1.65,-0.31 1.68,-0.38 1.71,-0.46 1.75,-0.52 1.79,-0.59 1.85,-0.64 1.91,-0.70 1.98,-0.73 2.05,-0.77 2.13,-0.79 2.20,-0.81 2.28,-0.81 2.36,-0.82 2.44,-0.80 2.52,-0.78 2.59,-0.75 2.66,-0.71 4.28,-0.79 5.90,-0.88 6.57,-0.65 7.23,-0.42 8.29,0.24 9.36,0.91 9.91,1.17 10.46,1.42 11.55,2.01 12.65,2.60 13.41,2.98 14.17,3.37 14.92,3.75 15.68,4.14 16.43,4.54 17.18,4.94 17.93,5.38 18.68,5.82 19.11,6.14 19.53,6.46 20.31,6.88 21.10,7.30 22.27,8.13 23.45,8.96 24.40,9.30 25.35,9.64 25.89,10.13 26.43,10.62 27.08,11.08 27.73,11.53 28.17,12.60 28.60,13.68 27.42,13.24 26.23,12.81 26.44,12.77 26.66,12.73 26.88,12.74 27.10,12.75 27.31,12.81 27.52,12.87 27.70,12.99 27.89,13.10 28.05,13.25 28.20,13.40 28.32,13.59 28.43,13.78 28.50,13.98 28.57,14.19 28.58,14.41 28.60,14.63 28.56,14.84 28.52,15.06 28.44,15.26 28.35,15.46 28.22,15.63 28.08,15.81 27.91,15.94 27.74,16.08 27.54,16.17 27.34,16.26 26.72,16.36 26.09,16.46 25.07,16.91 24.05,17.37 23.30,18.13 22.55,18.89 21.77,19.29 21.00,19.69 20.25,20.08 19.51,20.46 18.77,20.86 18.04,21.26 17.32,21.69 16.61,22.12 15.63,22.82 14.66,23.52 13.74,23.94 12.82,24.35 11.85,24.74 10.88,25.12 9.97,25.60 9.06,26.08 7.81,26.75 6.57,27.43 5.47,27.86 4.38,28.29 3.20,28.86 2.02,29.43 1.30,29.76 0.58,30.09 -0.01,30.00 -0.61,29.90 -0.73,30.07 -0.85,30.23 -1.01,30.37 -1.17,30.51 -1.36,30.60 -1.54,30.69 -1.75,30.74 -1.95,30.79 -2.16,30.78 -2.36,30.78 -2.57,30.73 -2.77,30.67 -2.95,30.57 -3.13,30.47 -3.29,30.33 -3.44,30.19 -3.56,30.02 -3.67,29.85 -3.74,29.65 -3.81,29.45 -3.83,29.25 -3.86,29.04 -3.83,28.83 -3.80,28.63 -3.72,28.43 -3.65,28.24 -3.54,27.85 -3.44,27.45 -3.25,26.81 -3.05,26.16 -2.94,25.44 -2.84,24.72 -2.63,23.83 -2.42,22.94 -2.41,22.00 -2.40,21.06 -2.38,19.88 -2.35,18.70 -2.31,17.46 -2.26,16.22 -2.15,14.86 -2.04,13.51 -1.82,12.12 -1.60,10.72 -1.58,9.24 -1.56,7.75 -1.54,6.31 -1.52,4.86 -1.49,3.52 -1.47,2.18 -1.06,1.09 -0.65,0 -0.64,-0.07 -0.63,-0.15 -0.60,-0.23 -0.58,-0.30 -0.53,-0.37 -0.49,-0.43 -0.43,-0.48 -0.37,-0.54 -0.30,-0.57 -0.23,-0.61 -0.15,-0.63 -0.07,-0.65 0.00,-0.65 0.07,-0.65 0.15,-0.63 0.23,-0.61 0.30,-0.57 0.37,-0.54 0.43,-0.48 0.49,-0.43 0.53,-0.37 0.58,-0.30 0.60,-0.23 0.63,-0.15 0.64,-0.07 0.65,0.00 0.65,0.00 L 0.65,0 Z"/></g><g transform="translate(445.8958740234375 197.13851928710938) rotate(0 13.69305419921875 -0.7607269287109375)" stroke="none"><path fill="#1e1e1e" d="M 0,-0.65 Q 0,-0.65 1.74,-0.99 3.49,-1.32 5.48,-1.55 7.46,-1.78 9.69,-1.88 11.92,-1.99 14.18,-2.04 16.44,-2.09 18.41,-2.32 20.39,-2.56 21.96,-2.64 23.52,-2.73 25.16,-2.12 26.80,-1.51 26.90,-1.48 27.01,-1.45 27.09,-1.38 27.17,-1.32 27.23,-1.23 27.29,-1.14 27.32,-1.04 27.35,-0.94 27.35,-0.83 27.34,-0.73 27.30,-0.63 27.26,-0.53 27.19,-0.45 27.12,-0.37 27.03,-0.31 26.94,-0.26 26.84,-0.23 26.74,-0.21 26.63,-0.22 26.52,-0.23 26.43,-0.28 26.33,-0.32 26.25,-0.40 26.18,-0.47 26.13,-0.56 26.08,-0.66 26.06,-0.76 26.04,-0.87 26.06,-0.97 26.08,-1.08 26.13,-1.17 26.18,-1.26 26.25,-1.34 26.33,-1.41 26.43,-1.45 26.52,-1.50 26.63,-1.51 26.73,-1.52 26.84,-1.50 26.94,-1.48 27.03,-1.42 27.12,-1.37 27.19,-1.29 27.26,-1.21 27.30,-1.11 27.34,-1.01 27.35,-0.90 27.35,-0.80 27.32,-0.69 27.30,-0.59 27.24,-0.50 27.18,-0.42 27.09,-0.35 27.01,-0.29 26.91,-0.25 26.81,-0.22 26.70,-0.22 26.59,-0.22 26.59,-0.22 26.59,-0.22 25.14,-0.11 23.69,-0.01 22.20,0.10 20.71,0.21 18.60,0.45 16.49,0.68 14.26,0.71 12.04,0.74 9.89,0.82 7.75,0.90 5.62,1.11 3.50,1.32 1.75,0.99 0,0.65 -0.07,0.64 -0.15,0.63 -0.23,0.60 -0.30,0.58 -0.37,0.53 -0.43,0.49 -0.48,0.43 -0.54,0.37 -0.57,0.30 -0.61,0.23 -0.63,0.15 -0.65,0.07 -0.65,-0.00 -0.65,-0.07 -0.63,-0.15 -0.61,-0.23 -0.57,-0.30 -0.54,-0.37 -0.48,-0.43 -0.43,-0.49 -0.37,-0.53 -0.30,-0.58 -0.23,-0.60 -0.15,-0.63 -0.07,-0.64 0.00,-0.65 0.00,-0.65 L 0,-0.65 Z"/></g><g transform="translate(457.3067626953125 194.85635375976562) rotate(0 -1.521484375 10.650161743164062)" stroke="none"><path fill="#1e1e1e" d="M 0.46,0.46 Q 0.46,0.46 0.17,1.03 -0.10,1.61 -0.17,2.33 -0.24,3.05 -0.24,3.91 -0.23,4.77 -0.43,6.75 -0.62,8.73 -0.93,10.67 -1.24,12.61 -1.36,14.45 -1.48,16.29 -1.61,17.69 -1.74,19.08 -1.76,19.16 -1.77,19.24 -1.81,19.31 -1.84,19.38 -1.89,19.44 -1.94,19.50 -2.00,19.55 -2.07,19.60 -2.14,19.63 -2.21,19.66 -2.29,19.68 -2.37,19.69 -2.45,19.68 -2.52,19.68 -2.60,19.65 -2.68,19.63 -2.74,19.59 -2.81,19.55 -2.87,19.49 -2.92,19.43 -2.96,19.37 -3.00,19.30 -3.02,19.22 -3.05,19.15 -3.05,19.07 -3.05,18.99 -2.68,18.69 -2.30,18.39 -2.20,18.42 -2.10,18.45 -2.01,18.52 -1.93,18.58 -1.87,18.67 -1.81,18.75 -1.78,18.86 -1.75,18.96 -1.75,19.06 -1.76,19.17 -1.80,19.27 -1.83,19.37 -1.90,19.45 -1.97,19.53 -2.06,19.59 -2.15,19.64 -2.26,19.67 -2.36,19.69 -2.47,19.68 -2.57,19.67 -2.67,19.62 -2.76,19.58 -2.84,19.51 -2.92,19.43 -2.97,19.34 -3.02,19.25 -3.04,19.14 -3.06,19.04 -3.04,18.93 -3.02,18.83 -2.97,18.73 -2.92,18.64 -2.85,18.57 -2.77,18.49 -2.68,18.45 -2.58,18.40 -2.47,18.39 -2.37,18.38 -2.26,18.40 -2.16,18.42 -2.07,18.48 -1.98,18.53 -1.91,18.61 -1.84,18.69 -1.80,18.79 -1.76,18.89 -1.75,18.99 -1.75,19.10 -1.77,19.20 -1.80,19.31 -1.86,19.39 -1.92,19.48 -2.00,19.55 -2.09,19.61 -2.19,19.65 -2.29,19.68 -2.02,19.38 -1.74,19.08 -1.76,19.16 -1.77,19.24 -1.81,19.31 -1.84,19.38 -1.89,19.44 -1.94,19.50 -2.00,19.55 -2.07,19.60 -2.14,19.63 -2.21,19.66 -2.29,19.68 -2.37,19.69 -2.45,19.68 -2.52,19.68 -2.60,19.65 -2.67,19.63 -2.74,19.59 -2.81,19.55 -2.86,19.49 -2.92,19.43 -2.96,19.37 -3.00,19.30 -3.02,19.22 -3.05,19.15 -3.05,19.07 -3.05,18.99 -3.63,17.54 -4.20,16.10 -4.05,14.13 -3.90,12.17 -3.57,10.29 -3.24,8.41 -2.97,6.55 -2.70,4.68 -2.63,3.72 -2.56,2.75 -2.41,1.99 -2.26,1.23 -1.95,0.68 -1.64,0.13 -1.05,-0.16 -0.46,-0.46 -0.40,-0.51 -0.33,-0.56 -0.26,-0.59 -0.19,-0.62 -0.11,-0.64 -0.03,-0.65 0.03,-0.65 0.11,-0.64 0.19,-0.62 0.26,-0.59 0.33,-0.55 0.40,-0.51 0.46,-0.46 0.51,-0.40 0.55,-0.33 0.59,-0.26 0.62,-0.19 0.64,-0.11 0.65,-0.03 0.65,0.03 0.64,0.11 0.62,0.19 0.59,0.26 0.56,0.33 0.51,0.40 0.46,0.46 0.46,0.46 L 0.46,0.46 Z"/></g><g transform="translate(463.392578125 197.89926147460938) rotate(0 0 8.748336791992188)" stroke="none"><path fill="#1e1e1e" d="M 0.65,0 Q 0.65,0 0.99,0.43 1.32,0.87 1.34,1.93 1.36,2.99 1.37,4.54 1.38,6.08 1.17,8.13 0.96,10.17 0.87,11.42 0.79,12.67 0.73,13.84 0.67,15.01 0.28,16.87 -0.10,18.74 -0.12,18.84 -0.13,18.95 -0.18,19.04 -0.23,19.14 -0.31,19.21 -0.39,19.28 -0.49,19.32 -0.58,19.37 -0.69,19.38 -0.79,19.39 -0.90,19.37 -1.00,19.34 -1.09,19.29 -1.18,19.23 -1.25,19.15 -1.32,19.07 -1.36,18.97 -1.40,18.87 -1.40,18.77 -1.41,18.66 -1.38,18.56 -1.35,18.45 -1.29,18.37 -1.23,18.28 -1.14,18.22 -1.06,18.15 -0.96,18.12 -0.86,18.09 -0.75,18.09 -0.64,18.09 -0.54,18.12 -0.44,18.16 -0.36,18.22 -0.27,18.29 -0.21,18.37 -0.16,18.46 -0.13,18.57 -0.10,18.67 -0.11,18.77 -0.11,18.88 -0.15,18.98 -0.19,19.08 -0.26,19.16 -0.33,19.24 -0.42,19.29 -0.52,19.35 -0.62,19.37 -0.72,19.39 -0.83,19.38 -0.93,19.37 -1.03,19.32 -1.13,19.28 -1.20,19.20 -1.28,19.13 -1.33,19.03 -1.38,18.94 -1.39,18.84 -1.41,18.73 -1.41,18.73 -1.41,18.73 -1.74,16.82 -2.07,14.92 -2.05,13.69 -2.03,12.46 -1.93,11.16 -1.83,9.86 -1.61,7.97 -1.38,6.08 -1.37,4.54 -1.36,2.99 -1.34,1.93 -1.32,0.87 -0.99,0.43 -0.65,0 -0.64,-0.07 -0.63,-0.15 -0.60,-0.23 -0.58,-0.30 -0.53,-0.37 -0.49,-0.43 -0.43,-0.48 -0.37,-0.54 -0.30,-0.57 -0.23,-0.61 -0.15,-0.63 -0.07,-0.65 0.00,-0.65 0.07,-0.65 0.15,-0.63 0.23,-0.61 0.30,-0.57 0.37,-0.54 0.43,-0.48 0.49,-0.43 0.53,-0.37 0.58,-0.30 0.60,-0.23 0.63,-0.15 0.64,-0.07 0.65,0.00 0.65,0.00 L 0.65,0 Z"/></g><g transform="translate(470.239013671875 215.39593505859375) rotate(0 5.7054443359375 6.0858154296875)" stroke="none"><path fill="#1e1e1e" d="M -0.29,-0.58 Q -0.29,-0.58 0.47,-1.24 1.24,-1.90 2.17,-2.14 3.10,-2.38 3.73,-2.47 4.36,-2.57 5.26,-2.38 6.16,-2.19 7.47,-1.54 8.78,-0.88 8.95,0.16 9.12,1.22 8.88,2.34 8.65,3.47 8.07,4.71 7.49,5.95 6.76,6.96 6.03,7.97 5.33,8.99 4.63,10.01 4.07,10.71 3.52,11.41 3.05,11.94 2.58,12.47 3.19,12.26 3.79,12.05 4.66,12.07 5.53,12.09 6.56,12.11 7.59,12.12 8.78,12.54 9.98,12.96 10.01,12.86 10.04,12.76 10.10,12.68 10.17,12.59 10.26,12.53 10.34,12.47 10.44,12.44 10.55,12.41 10.65,12.42 10.76,12.42 10.86,12.46 10.96,12.50 11.04,12.57 11.12,12.63 11.18,12.72 11.23,12.82 11.26,12.92 11.28,13.02 11.27,13.13 11.26,13.23 11.21,13.33 11.17,13.43 11.10,13.51 11.03,13.58 10.93,13.63 10.84,13.68 10.74,13.70 10.63,13.72 10.53,13.70 10.42,13.69 10.33,13.64 10.23,13.59 10.16,13.51 10.08,13.44 10.04,13.34 9.99,13.25 9.98,13.14 9.97,13.04 9.99,12.93 10.01,12.83 10.07,12.74 10.12,12.64 10.20,12.57 10.28,12.50 10.38,12.46 10.48,12.42 10.58,12.42 10.69,12.41 10.79,12.44 10.89,12.47 10.98,12.52 11.07,12.58 11.14,12.67 11.20,12.75 11.24,12.85 11.27,12.95 11.27,13.06 11.27,13.16 11.27,13.16 11.27,13.16 9.42,14.20 7.56,15.23 6.51,15.22 5.45,15.22 4.48,15.19 3.52,15.17 2.75,15.08 1.98,15.00 1.37,14.78 0.77,14.57 0.06,13.93 -0.64,13.29 -0.67,12.59 -0.71,11.89 -0.23,11.14 0.23,10.39 0.65,9.92 1.07,9.45 1.56,8.84 2.06,8.22 2.80,7.17 3.54,6.12 4.14,5.34 4.74,4.56 5.23,3.66 5.72,2.75 6.17,1.56 6.63,0.37 6.08,0.25 5.52,0.12 4.57,0.01 3.62,-0.10 2.94,0.02 2.25,0.15 1.27,0.37 0.29,0.58 0.21,0.61 0.14,0.64 0.06,0.64 -0.01,0.65 -0.09,0.64 -0.16,0.63 -0.24,0.60 -0.31,0.57 -0.38,0.52 -0.44,0.48 -0.49,0.42 -0.54,0.36 -0.58,0.29 -0.61,0.22 -0.63,0.14 -0.65,0.06 -0.65,-0.01 -0.65,-0.09 -0.62,-0.16 -0.60,-0.24 -0.57,-0.31 -0.53,-0.38 -0.47,-0.44 -0.42,-0.50 -0.35,-0.54 -0.29,-0.58 -0.29,-0.58 L -0.29,-0.58 Z"/></g><g transform="translate(470.999755859375 222.24249267578125) rotate(0 6.4661865234375 0.3803558349609375)" stroke="none"><path fill="#1e1e1e" d="M 0,-0.65 Q 0,-0.65 0.65,-0.98 1.31,-1.31 2.24,-1.36 3.18,-1.42 3.79,-1.44 4.41,-1.46 5.55,-1.49 6.68,-1.52 7.82,-1.48 8.97,-1.43 10.65,-0.72 12.33,-0.02 12.43,0.01 12.53,0.05 12.62,0.11 12.70,0.18 12.76,0.27 12.81,0.36 12.84,0.46 12.87,0.56 12.86,0.67 12.85,0.78 12.81,0.87 12.76,0.97 12.69,1.05 12.62,1.13 12.53,1.18 12.44,1.23 12.33,1.25 12.23,1.27 12.12,1.26 12.02,1.25 11.92,1.20 11.83,1.15 11.75,1.08 11.68,1.00 11.63,0.91 11.58,0.81 11.57,0.71 11.55,0.60 11.57,0.50 11.59,0.39 11.65,0.30 11.70,0.21 11.78,0.14 11.86,0.06 11.95,0.02 12.05,-0.01 12.16,-0.02 12.26,-0.03 12.37,-0.00 12.47,0.02 12.56,0.07 12.65,0.13 12.72,0.21 12.78,0.30 12.82,0.39 12.86,0.49 12.86,0.60 12.86,0.71 12.83,0.81 12.80,0.91 12.74,1.00 12.68,1.08 12.59,1.14 12.50,1.21 12.40,1.24 12.30,1.27 12.19,1.27 12.09,1.26 12.09,1.26 12.09,1.26 10.52,1.35 8.96,1.43 7.82,1.48 6.68,1.52 5.55,1.49 4.41,1.46 3.79,1.44 3.18,1.42 2.24,1.36 1.31,1.31 0.65,0.98 0,0.65 -0.07,0.64 -0.15,0.63 -0.23,0.60 -0.30,0.58 -0.37,0.53 -0.43,0.49 -0.48,0.43 -0.54,0.37 -0.57,0.30 -0.61,0.23 -0.63,0.15 -0.65,0.07 -0.65,-0.00 -0.65,-0.07 -0.63,-0.15 -0.61,-0.23 -0.57,-0.30 -0.54,-0.37 -0.48,-0.43 -0.43,-0.49 -0.37,-0.53 -0.30,-0.58 -0.23,-0.60 -0.15,-0.63 -0.07,-0.64 0.00,-0.65 0.00,-0.65 L 0,-0.65 Z"/></g><g transform="translate(13.80364990234375 91.39764404296875) rotate(0 3.042877197265625 7.6072540283203125)" stroke="none"><path fill="#1e1e1e" d="M 0.20,0.62 Q 0.20,0.62 -0.39,0.99 -1.00,1.37 -1.55,1.51 -2.11,1.65 -2.54,1.71 -2.96,1.77 -3.09,1.77 -3.22,1.78 -3.35,1.76 -3.48,1.74 -3.60,1.68 -3.72,1.63 -3.83,1.55 -3.93,1.47 -4.01,1.37 -4.09,1.26 -4.15,1.14 -4.20,1.02 -4.22,0.90 -4.25,0.77 -4.24,0.64 -4.23,0.51 -4.19,0.38 -4.16,0.25 -4.09,0.14 -4.02,0.03 -3.93,-0.05 -3.84,-0.15 -3.72,-0.21 -3.61,-0.28 -3.49,-0.32 -3.36,-0.36 -2.56,-0.42 -1.75,-0.48 -0.47,-0.70 0.80,-0.92 2.23,-1.23 3.65,-1.54 4.53,-1.68 5.40,-1.82 6.25,-1.88 7.09,-1.95 7.80,-2.18 8.51,-2.41 9.56,-1.69 10.61,-0.98 10.61,-0.30 10.61,0.36 9.58,1.75 8.55,3.14 7.75,4.22 6.96,5.31 5.47,6.94 3.98,8.57 2.99,10.02 2.01,11.48 1.36,12.54 0.72,13.60 0.24,14.43 -0.23,15.26 1.09,14.94 2.41,14.62 3.54,14.39 4.68,14.15 6.11,13.20 7.55,12.25 7.61,12.17 7.68,12.09 7.78,12.03 7.87,11.98 7.97,11.95 8.07,11.93 8.18,11.94 8.29,11.96 8.38,12.00 8.48,12.05 8.55,12.12 8.63,12.19 8.68,12.29 8.73,12.38 8.75,12.49 8.76,12.59 8.74,12.70 8.73,12.80 8.68,12.90 8.63,12.99 8.55,13.06 8.47,13.13 8.37,13.18 8.28,13.22 8.17,13.23 8.07,13.24 7.96,13.22 7.86,13.20 7.77,13.14 7.68,13.09 7.61,13.00 7.54,12.92 7.50,12.82 7.46,12.73 7.46,12.62 7.45,12.51 7.48,12.41 7.51,12.31 7.57,12.22 7.63,12.13 7.72,12.07 7.80,12.01 7.90,11.97 8.00,11.94 8.11,11.94 8.22,11.94 8.32,11.98 8.42,12.01 8.50,12.08 8.59,12.14 8.64,12.23 8.70,12.32 8.73,12.42 8.76,12.52 8.75,12.63 8.75,12.73 8.71,12.83 8.67,12.93 8.67,12.93 8.67,12.93 7.00,14.99 5.34,17.05 4.00,17.35 2.65,17.65 0.98,17.70 -0.69,17.76 -1.55,17.24 -2.41,16.71 -2.63,15.37 -2.85,14.02 -2.32,13.04 -1.79,12.07 -1.11,10.94 -0.42,9.82 0.68,8.19 1.80,6.57 3.20,5.06 4.59,3.55 5.45,2.41 6.30,1.26 7.24,0.18 8.18,-0.88 8.57,-0.39 8.97,0.09 8.13,0.34 7.29,0.59 6.54,0.64 5.79,0.68 4.99,0.81 4.18,0.93 2.68,1.24 1.18,1.55 -0.31,1.75 -1.81,1.96 -2.38,1.86 -2.96,1.77 -3.09,1.77 -3.22,1.78 -3.35,1.76 -3.48,1.74 -3.60,1.68 -3.72,1.63 -3.83,1.55 -3.93,1.47 -4.01,1.37 -4.09,1.26 -4.15,1.14 -4.20,1.02 -4.22,0.90 -4.25,0.77 -4.24,0.64 -4.23,0.51 -4.19,0.38 -4.16,0.25 -4.09,0.14 -4.02,0.03 -3.93,-0.05 -3.84,-0.15 -3.72,-0.21 -3.61,-0.28 -3.49,-0.32 -3.36,-0.36 -2.49,-0.43 -1.62,-0.50 -0.91,-0.56 -0.20,-0.62 -0.13,-0.63 -0.05,-0.65 0.02,-0.65 0.10,-0.64 0.18,-0.62 0.25,-0.60 0.32,-0.56 0.39,-0.52 0.45,-0.46 0.50,-0.41 0.55,-0.34 0.59,-0.28 0.61,-0.20 0.64,-0.13 0.64,-0.05 0.65,0.02 0.64,0.10 0.63,0.18 0.59,0.25 0.56,0.32 0.52,0.39 0.47,0.45 0.41,0.50 0.35,0.55 0.27,0.58 0.20,0.62 0.20,0.62 L 0.20,0.62 Z"/></g><g transform="translate(10 100.5263671875) rotate(0 6.466156005859375 -1.521453857421875)" stroke="none"><path fill="#1e1e1e" d="M -0.29,-0.58 Q -0.29,-0.58 0.42,-1.35 1.14,-2.11 2.09,-2.38 3.04,-2.66 4.24,-2.99 5.44,-3.32 6.48,-3.45 7.51,-3.58 10.00,-3.60 12.48,-3.62 12.59,-3.62 12.69,-3.63 12.79,-3.60 12.90,-3.57 12.98,-3.50 13.07,-3.44 13.13,-3.36 13.20,-3.27 13.23,-3.17 13.26,-3.07 13.26,-2.96 13.26,-2.86 13.22,-2.76 13.19,-2.66 13.12,-2.57 13.06,-2.49 12.97,-2.43 12.88,-2.37 12.77,-2.35 12.67,-2.32 12.57,-2.33 12.46,-2.33 12.36,-2.38 12.26,-2.42 12.18,-2.49 12.10,-2.56 12.05,-2.65 12.00,-2.74 11.98,-2.84 11.95,-2.95 11.97,-3.05 11.98,-3.16 12.03,-3.25 12.07,-3.35 12.15,-3.43 12.22,-3.50 12.32,-3.55 12.41,-3.60 12.52,-3.61 12.62,-3.63 12.73,-3.61 12.83,-3.59 12.92,-3.54 13.02,-3.49 13.09,-3.41 13.16,-3.33 13.20,-3.24 13.25,-3.14 13.26,-3.03 13.27,-2.93 13.24,-2.82 13.22,-2.72 13.16,-2.63 13.10,-2.54 13.02,-2.47 12.94,-2.41 12.84,-2.37 12.74,-2.33 12.74,-2.33 12.74,-2.33 10.33,-1.47 7.91,-0.60 7.04,-0.48 6.16,-0.35 4.93,-0.09 3.69,0.17 3.02,0.26 2.35,0.36 1.32,0.47 0.29,0.58 0.21,0.61 0.14,0.64 0.06,0.64 -0.01,0.65 -0.09,0.64 -0.16,0.63 -0.24,0.60 -0.31,0.57 -0.38,0.52 -0.44,0.48 -0.49,0.42 -0.54,0.36 -0.58,0.29 -0.61,0.22 -0.63,0.14 -0.65,0.06 -0.65,-0.01 -0.65,-0.09 -0.62,-0.16 -0.60,-0.24 -0.57,-0.31 -0.53,-0.38 -0.47,-0.44 -0.42,-0.50 -0.35,-0.54 -0.29,-0.58 -0.29,-0.58 L -0.29,-0.58 Z"/></g><g transform="translate(32.06103515625 95.2012939453125) rotate(0 4.564361572265625 -0.38037109375)" stroke="none"><path fill="#1e1e1e" d="M -0.20,-0.62 Q -0.20,-0.62 0.35,-1.14 0.91,-1.65 1.98,-1.80 3.04,-1.96 3.91,-2.00 4.78,-2.05 6.21,-1.42 7.64,-0.79 7.72,-0.78 7.80,-0.77 7.87,-0.75 7.95,-0.73 8.01,-0.68 8.08,-0.64 8.14,-0.59 8.19,-0.53 8.23,-0.46 8.27,-0.39 8.30,-0.32 8.32,-0.24 8.32,-0.16 8.33,-0.08 8.31,-0.00 8.29,0.06 8.26,0.13 8.23,0.21 8.18,0.27 8.13,0.33 8.07,0.38 8.00,0.43 7.93,0.46 7.86,0.49 7.78,0.50 7.70,0.52 7.92,0.42 8.13,0.33 8.05,0.39 7.96,0.45 7.86,0.48 7.76,0.51 7.65,0.51 7.54,0.50 7.44,0.47 7.34,0.43 7.26,0.36 7.18,0.30 7.12,0.21 7.07,0.12 7.04,0.01 7.02,-0.08 7.02,-0.19 7.03,-0.29 7.08,-0.39 7.12,-0.49 7.19,-0.57 7.26,-0.64 7.35,-0.70 7.45,-0.75 7.55,-0.77 7.66,-0.79 7.76,-0.77 7.87,-0.76 7.96,-0.71 8.06,-0.66 8.13,-0.59 8.21,-0.51 8.25,-0.42 8.30,-0.32 8.31,-0.21 8.33,-0.11 8.31,-0.00 8.29,0.09 8.23,0.18 8.18,0.27 8.10,0.34 8.02,0.41 7.92,0.46 7.83,0.50 7.72,0.51 7.61,0.51 7.51,0.49 7.41,0.46 7.32,0.40 7.23,0.35 7.16,0.26 7.10,0.18 7.06,0.08 7.02,-0.01 7.02,-0.12 7.02,-0.22 7.05,-0.32 7.08,-0.43 7.36,-0.61 7.64,-0.79 7.72,-0.78 7.80,-0.77 7.87,-0.75 7.95,-0.73 8.01,-0.68 8.08,-0.64 8.14,-0.59 8.19,-0.53 8.23,-0.46 8.27,-0.39 8.30,-0.32 8.32,-0.24 8.32,-0.16 8.33,-0.08 8.31,-0.00 8.29,0.06 8.26,0.13 8.23,0.21 8.18,0.27 8.13,0.33 8.07,0.38 8.00,0.43 7.93,0.46 7.86,0.49 7.78,0.50 7.70,0.52 6.31,0.58 4.91,0.65 4.11,0.68 3.31,0.71 2.51,0.74 1.71,0.78 0.95,0.70 0.20,0.62 0.13,0.63 0.05,0.65 -0.02,0.65 -0.10,0.64 -0.18,0.62 -0.25,0.60 -0.32,0.56 -0.39,0.52 -0.45,0.46 -0.50,0.41 -0.55,0.34 -0.59,0.28 -0.61,0.20 -0.64,0.13 -0.64,0.05 -0.65,-0.02 -0.64,-0.10 -0.63,-0.18 -0.59,-0.25 -0.56,-0.32 -0.52,-0.39 -0.47,-0.45 -0.41,-0.50 -0.35,-0.55 -0.27,-0.58 -0.20,-0.62 -0.20,-0.62 L -0.20,-0.62 Z"/></g><g transform="translate(29.77886962890625 99.765625) rotate(0 5.7054443359375 -0.7607269287109375)" stroke="none"><path fill="#1e1e1e" d="M 0,-0.65 Q 0,-0.65 0.87,-0.95 1.74,-1.26 2.87,-1.53 4.00,-1.80 5.38,-2.07 6.76,-2.33 8.66,-2.21 10.55,-2.09 10.66,-2.08 10.76,-2.07 10.86,-2.03 10.96,-1.99 11.04,-1.93 11.12,-1.86 11.17,-1.77 11.23,-1.67 11.25,-1.57 11.27,-1.47 11.26,-1.36 11.25,-1.26 11.21,-1.16 11.16,-1.06 11.09,-0.99 11.01,-0.91 10.92,-0.86 10.83,-0.81 10.72,-0.79 10.62,-0.78 10.51,-0.79 10.41,-0.81 10.31,-0.86 10.22,-0.91 10.15,-0.99 10.07,-1.07 10.03,-1.16 9.99,-1.26 9.97,-1.37 9.96,-1.47 9.99,-1.57 10.01,-1.68 10.06,-1.77 10.12,-1.86 10.20,-1.93 10.28,-2.00 10.38,-2.04 10.48,-2.07 10.59,-2.08 10.69,-2.09 10.79,-2.06 10.90,-2.03 10.98,-1.97 11.07,-1.91 11.14,-1.82 11.20,-1.74 11.23,-1.64 11.27,-1.54 11.27,-1.43 11.27,-1.32 11.23,-1.22 11.20,-1.12 11.13,-1.04 11.07,-0.96 10.98,-0.90 10.89,-0.84 10.79,-0.81 10.69,-0.78 10.69,-0.78 10.69,-0.78 9.01,-0.28 7.33,0.21 5.90,0.57 4.48,0.92 3.11,1.09 1.75,1.26 0.87,0.95 0,0.65 -0.07,0.64 -0.15,0.63 -0.23,0.60 -0.30,0.58 -0.37,0.53 -0.43,0.49 -0.48,0.43 -0.54,0.37 -0.57,0.30 -0.61,0.23 -0.63,0.15 -0.65,0.07 -0.65,-0.00 -0.65,-0.07 -0.63,-0.15 -0.61,-0.23 -0.57,-0.30 -0.54,-0.37 -0.48,-0.43 -0.43,-0.49 -0.37,-0.53 -0.30,-0.58 -0.23,-0.60 -0.15,-0.63 -0.07,-0.64 0.00,-0.65 0.00,-0.65 L 0,-0.65 Z"/></g><g transform="translate(55.6435546875 70.85806274414062) rotate(0 -3.04290771484375 19.01813507080078)" stroke="none"><path fill="#1e1e1e" d="M 0.60,0.25 Q 0.60,0.25 0.20,1.89 -0.19,3.53 -0.42,4.54 -0.66,5.54 -1.42,7.82 -2.18,10.09 -2.69,12.49 -3.21,14.89 -3.64,17.86 -4.07,20.84 -4.25,23.59 -4.44,26.35 -4.12,28.73 -3.81,31.10 -3.53,32.79 -3.25,34.48 -2.66,36.12 -2.07,37.76 -2.03,37.86 -2.00,37.96 -2.00,38.07 -2.00,38.17 -2.04,38.27 -2.08,38.37 -2.14,38.46 -2.21,38.54 -2.30,38.60 -2.39,38.66 -2.49,38.68 -2.59,38.71 -2.70,38.70 -2.80,38.70 -2.90,38.66 -3.00,38.61 -3.08,38.54 -3.16,38.47 -3.21,38.38 -3.26,38.29 -3.29,38.19 -3.31,38.08 -3.29,37.98 -3.28,37.87 -3.23,37.78 -3.19,37.68 -3.11,37.60 -3.04,37.53 -2.94,37.48 -2.85,37.43 -2.74,37.42 -2.64,37.40 -2.53,37.42 -2.43,37.44 -2.34,37.49 -2.24,37.54 -2.17,37.62 -2.10,37.70 -2.06,37.80 -2.02,37.89 -2.01,38.00 -2.00,38.10 -2.02,38.21 -2.05,38.31 -2.10,38.40 -2.16,38.49 -2.24,38.56 -2.32,38.63 -2.42,38.66 -2.52,38.70 -2.63,38.70 -2.73,38.71 -2.83,38.68 -2.94,38.65 -3.02,38.59 -3.11,38.53 -3.17,38.44 -3.24,38.35 -3.24,38.35 -3.24,38.36 -4.34,36.66 -5.44,34.97 -5.90,33.22 -6.36,31.46 -6.76,28.82 -7.16,26.18 -6.96,23.31 -6.76,20.44 -6.29,17.37 -5.81,14.31 -5.23,11.77 -4.65,9.23 -3.86,7.07 -3.07,4.92 -2.75,3.75 -2.42,2.58 -1.51,1.16 -0.60,-0.25 -0.56,-0.32 -0.52,-0.39 -0.46,-0.45 -0.41,-0.50 -0.34,-0.55 -0.28,-0.59 -0.20,-0.61 -0.12,-0.64 -0.05,-0.64 0.02,-0.65 0.10,-0.64 0.18,-0.63 0.25,-0.59 0.32,-0.56 0.39,-0.52 0.45,-0.47 0.50,-0.41 0.55,-0.34 0.58,-0.27 0.62,-0.20 0.63,-0.12 0.65,-0.05 0.65,0.02 0.64,0.10 0.62,0.18 0.60,0.25 0.60,0.25 L 0.60,0.25 Z"/></g><g transform="translate(61.7293701171875 92.15838623046875) rotate(0 1.141082763671875 -1.5214691162109375)" stroke="none"><path fill="#1e1e1e" d="M -0.62,-0.20 Q -0.62,-0.20 -0.82,-1.00 -1.02,-1.80 -0.69,-2.58 -0.36,-3.37 0.04,-4.00 0.44,-4.62 0.82,-5.76 1.21,-6.89 1.33,-7.33 1.44,-7.77 1.56,-7.92 1.68,-8.08 1.83,-8.21 1.98,-8.33 2.16,-8.42 2.33,-8.50 2.52,-8.55 2.72,-8.59 2.91,-8.58 3.11,-8.57 3.30,-8.52 3.48,-8.47 3.66,-8.37 3.83,-8.27 3.97,-8.14 4.11,-8.01 4.22,-7.84 4.32,-7.68 4.39,-7.49 4.45,-7.31 4.47,-7.11 4.49,-6.91 4.46,-6.72 4.43,-6.53 4.35,-6.35 4.28,-6.16 3.89,-5.52 3.51,-4.88 3.20,-3.82 2.88,-2.76 2.75,-1.74 2.61,-0.73 2.51,0.14 2.41,1.01 2.21,2.49 2.00,3.98 2.02,4.08 2.04,4.18 2.03,4.29 2.01,4.40 1.97,4.49 1.92,4.59 1.84,4.66 1.77,4.73 1.67,4.78 1.58,4.83 1.47,4.84 1.37,4.86 1.26,4.84 1.16,4.82 1.06,4.76 0.97,4.71 0.90,4.63 0.83,4.55 0.79,4.45 0.75,4.36 0.74,4.25 0.73,4.14 0.76,4.04 0.78,3.94 0.84,3.85 0.90,3.76 0.98,3.69 1.07,3.63 1.17,3.59 1.26,3.55 1.37,3.55 1.48,3.55 1.58,3.58 1.68,3.61 1.77,3.68 1.85,3.74 1.91,3.82 1.98,3.91 2.01,4.01 2.04,4.11 2.03,4.22 2.03,4.33 1.99,4.43 1.96,4.53 1.89,4.61 1.82,4.69 1.73,4.75 1.64,4.80 1.54,4.83 1.44,4.85 1.33,4.85 1.22,4.84 1.13,4.79 1.03,4.75 0.95,4.68 0.87,4.61 0.82,4.52 0.77,4.42 0.77,4.42 0.77,4.42 0.02,2.61 -0.71,0.80 -0.69,-0.16 -0.66,-1.14 -0.51,-2.42 -0.35,-3.71 0.01,-4.97 0.38,-6.23 0.91,-7.00 1.44,-7.77 1.56,-7.92 1.68,-8.08 1.83,-8.21 1.98,-8.33 2.15,-8.42 2.33,-8.50 2.52,-8.54 2.71,-8.59 2.91,-8.58 3.11,-8.57 3.30,-8.52 3.48,-8.47 3.66,-8.37 3.83,-8.28 3.97,-8.14 4.11,-8.01 4.22,-7.84 4.32,-7.68 4.39,-7.49 4.45,-7.31 4.47,-7.11 4.49,-6.91 4.46,-6.72 4.43,-6.53 4.35,-6.35 4.28,-6.16 3.94,-5.45 3.60,-4.74 3.04,-3.42 2.48,-2.11 2.19,-1.47 1.90,-0.82 1.26,-0.30 0.62,0.20 0.58,0.27 0.55,0.35 0.50,0.41 0.45,0.47 0.39,0.52 0.32,0.56 0.25,0.59 0.18,0.63 0.10,0.64 0.02,0.65 -0.05,0.64 -0.13,0.64 -0.20,0.61 -0.28,0.59 -0.34,0.55 -0.41,0.50 -0.46,0.45 -0.52,0.39 -0.56,0.32 -0.60,0.25 -0.62,0.18 -0.64,0.10 -0.65,0.02 -0.65,-0.05 -0.63,-0.13 -0.62,-0.20 -0.62,-0.20 L -0.62,-0.20 Z"/></g><g transform="translate(72.3795166015625 92.91909790039062) rotate(0 -1.521453857421875 4.183990478515625)" stroke="none"><path fill="#1e1e1e" d="M 0.56,0.33 Q 0.56,0.33 0.15,1.57 -0.25,2.81 -0.48,3.42 -0.70,4.02 -1.53,6.08 -2.35,8.14 -2.38,8.24 -2.41,8.35 -2.47,8.43 -2.53,8.52 -2.62,8.58 -2.70,8.65 -2.80,8.68 -2.90,8.71 -3.01,8.71 -3.12,8.71 -3.22,8.67 -3.32,8.63 -3.40,8.57 -3.48,8.50 -3.54,8.41 -3.60,8.33 -3.63,8.22 -3.65,8.12 -3.65,8.01 -3.64,7.91 -3.60,7.81 -3.56,7.71 -3.49,7.63 -3.42,7.55 -3.32,7.50 -3.23,7.45 -3.13,7.42 -3.02,7.40 -2.92,7.42 -2.81,7.43 -2.72,7.48 -2.62,7.52 -2.55,7.60 -2.47,7.67 -2.42,7.77 -2.37,7.86 -2.36,7.97 -2.34,8.07 -2.36,8.18 -2.38,8.28 -2.43,8.37 -2.48,8.47 -2.56,8.54 -2.64,8.61 -2.74,8.65 -2.84,8.70 -2.94,8.71 -3.05,8.71 -3.15,8.69 -3.25,8.67 -3.34,8.61 -3.43,8.55 -3.50,8.47 -3.57,8.39 -3.61,8.29 -3.64,8.19 -3.65,8.08 -3.65,7.98 -3.65,7.98 -3.65,7.98 -3.34,5.53 -3.03,3.08 -2.70,2.31 -2.37,1.55 -1.46,0.60 -0.56,-0.33 -0.51,-0.40 -0.46,-0.46 -0.40,-0.51 -0.34,-0.56 -0.26,-0.59 -0.19,-0.62 -0.11,-0.64 -0.04,-0.65 0.03,-0.65 0.11,-0.64 0.19,-0.62 0.26,-0.59 0.33,-0.55 0.40,-0.51 0.45,-0.46 0.51,-0.40 0.55,-0.33 0.59,-0.27 0.62,-0.19 0.64,-0.12 0.65,-0.04 0.65,0.03 0.64,0.11 0.62,0.19 0.59,0.26 0.56,0.33 0.56,0.33 L 0.56,0.33 Z"/></g><g transform="translate(83.7904052734375 89.115478515625) rotate(0 1.901824951171875 2.66253662109375)" stroke="none"><path fill="#1e1e1e" d="M 0.20,0.62 Q 0.20,0.62 -0.31,1.19 -0.84,1.77 -1.34,2.20 -1.85,2.62 -2.18,3.31 -2.52,3.99 -2.67,4.56 -2.81,5.12 -2.49,5.74 -2.16,6.36 -1.02,6.82 0.11,7.27 0.91,6.96 1.71,6.64 2.69,6.13 3.67,5.63 4.14,4.91 4.60,4.20 5.24,2.84 5.88,1.49 6.14,0.68 6.41,-0.11 5.97,-0.72 5.54,-1.33 4.95,-1.51 4.36,-1.69 3.58,-1.85 2.79,-2.00 1.04,-1.33 -0.71,-0.65 -0.79,-0.59 -0.88,-0.52 -0.98,-0.49 -1.08,-0.46 -1.19,-0.46 -1.29,-0.46 -1.39,-0.49 -1.49,-0.52 -1.58,-0.59 -1.66,-0.65 -1.72,-0.74 -1.78,-0.83 -1.81,-0.93 -1.84,-1.03 -1.83,-1.14 -1.83,-1.24 -1.79,-1.34 -1.75,-1.44 -1.68,-1.52 -1.61,-1.60 -1.52,-1.66 -1.43,-1.71 -1.33,-1.74 -1.22,-1.76 -1.12,-1.75 -1.01,-1.74 -0.92,-1.69 -0.82,-1.65 -0.74,-1.58 -0.67,-1.50 -0.62,-1.41 -0.57,-1.31 -0.55,-1.21 -0.53,-1.11 -0.55,-1.00 -0.57,-0.90 -0.61,-0.80 -0.66,-0.71 -0.74,-0.63 -0.82,-0.56 -0.91,-0.52 -1.01,-0.47 -1.12,-0.46 -1.22,-0.45 -1.33,-0.47 -1.43,-0.49 -1.52,-0.55 -1.61,-0.60 -1.68,-0.68 -1.75,-0.76 -1.79,-0.86 -1.83,-0.96 -1.83,-1.07 -1.84,-1.17 -1.81,-1.28 -1.78,-1.38 -1.72,-1.47 -1.67,-1.55 -1.67,-1.55 -1.67,-1.55 -0.11,-3.10 1.44,-4.64 2.36,-4.82 3.28,-5.00 4.56,-4.76 5.83,-4.51 7.00,-3.75 8.17,-2.99 8.78,-1.38 9.40,0.21 9.03,1.54 8.67,2.87 7.84,4.46 7.01,6.06 6.07,7.15 5.12,8.23 3.83,8.87 2.54,9.51 1.07,9.84 -0.39,10.16 -1.87,9.71 -3.35,9.25 -4.14,8.33 -4.92,7.41 -5.29,6.02 -5.65,4.64 -5.35,3.58 -5.05,2.52 -4.34,1.44 -3.63,0.36 -2.70,-0.26 -1.78,-0.89 -0.99,-0.76 -0.20,-0.62 -0.13,-0.63 -0.05,-0.65 0.02,-0.65 0.10,-0.64 0.18,-0.62 0.25,-0.60 0.32,-0.56 0.39,-0.52 0.45,-0.46 0.50,-0.41 0.55,-0.34 0.59,-0.28 0.61,-0.20 0.64,-0.13 0.64,-0.05 0.65,0.02 0.64,0.10 0.63,0.18 0.59,0.25 0.56,0.32 0.52,0.39 0.47,0.45 0.41,0.50 0.35,0.55 0.27,0.58 0.20,0.62 0.20,0.62 L 0.20,0.62 Z"/></g><g transform="translate(97.48345947265625 95.2012939453125) rotate(0 -1.901824951171875 2.66253662109375)" stroke="none"><path fill="#1e1e1e" d="M 0.52,0.39 Q 0.52,0.39 0.10,1.43 -0.31,2.47 -1.81,4.13 -3.30,5.80 -3.40,5.83 -3.50,5.87 -3.61,5.87 -3.72,5.87 -3.82,5.84 -3.92,5.81 -4.01,5.75 -4.09,5.68 -4.15,5.60 -4.21,5.51 -4.24,5.41 -4.27,5.31 -4.27,5.20 -4.27,5.09 -4.23,4.99 -4.19,4.89 -4.12,4.81 -4.06,4.73 -3.97,4.67 -3.88,4.62 -3.77,4.59 -3.67,4.57 -3.56,4.58 -3.46,4.59 -3.36,4.63 -3.26,4.67 -3.19,4.74 -3.11,4.82 -3.06,4.91 -3.00,5.00 -2.99,5.11 -2.97,5.21 -2.98,5.32 -3.00,5.42 -3.04,5.52 -3.09,5.61 -3.17,5.68 -3.24,5.76 -3.34,5.81 -3.44,5.85 -3.54,5.87 -3.65,5.88 -3.75,5.86 -3.85,5.84 -3.95,5.78 -4.04,5.73 -4.11,5.65 -4.18,5.57 -4.22,5.47 -4.26,5.38 -4.27,5.27 -4.28,5.16 -4.25,5.06 -4.22,4.96 -4.17,4.87 -4.11,4.78 -4.02,4.71 -3.94,4.65 -3.94,4.65 -3.94,4.65 -3.12,2.83 -2.31,1.02 -1.41,0.31 -0.52,-0.39 -0.47,-0.45 -0.41,-0.50 -0.34,-0.55 -0.28,-0.59 -0.20,-0.61 -0.13,-0.64 -0.05,-0.64 0.02,-0.65 0.10,-0.64 0.18,-0.63 0.25,-0.59 0.32,-0.56 0.39,-0.52 0.45,-0.47 0.50,-0.41 0.55,-0.35 0.58,-0.27 0.62,-0.20 0.63,-0.13 0.65,-0.05 0.65,0.02 0.64,0.10 0.62,0.18 0.60,0.25 0.56,0.32 0.52,0.39 0.52,0.39 L 0.52,0.39 Z"/></g><g transform="translate(104.33001708984375 89.87619018554688) rotate(0 3.042877197265625 -1.5214385986328125)" stroke="none"><path fill="#1e1e1e" d="M -0.39,-0.52 Q -0.39,-0.52 0.27,-1.42 0.94,-2.33 1.35,-3.12 1.75,-3.92 2.18,-4.74 2.61,-5.55 3.06,-6.20 3.52,-6.84 3.87,-7.57 4.22,-8.30 4.31,-8.46 4.40,-8.62 4.52,-8.76 4.64,-8.89 4.79,-9.00 4.94,-9.10 5.12,-9.17 5.29,-9.23 5.47,-9.25 5.65,-9.27 5.83,-9.25 6.02,-9.23 6.19,-9.16 6.36,-9.09 6.51,-8.99 6.66,-8.88 6.78,-8.75 6.90,-8.61 6.99,-8.45 7.07,-8.28 7.12,-8.10 7.16,-7.93 7.16,-7.74 7.16,-7.56 7.11,-7.38 7.07,-7.20 6.54,-5.83 6.01,-4.46 5.60,-2.88 5.19,-1.30 5.00,-0.23 4.81,0.82 4.26,2.82 3.71,4.82 3.69,4.93 3.67,5.03 3.62,5.12 3.57,5.22 3.49,5.29 3.41,5.36 3.31,5.40 3.21,5.44 3.10,5.45 3.00,5.45 2.89,5.43 2.79,5.40 2.70,5.34 2.61,5.28 2.55,5.20 2.48,5.12 2.45,5.02 2.41,4.91 2.41,4.81 2.41,4.70 2.44,4.60 2.47,4.50 2.54,4.41 2.60,4.33 2.69,4.27 2.77,4.21 2.88,4.18 2.98,4.15 3.08,4.15 3.19,4.16 3.29,4.19 3.39,4.23 3.47,4.30 3.55,4.37 3.61,4.46 3.66,4.55 3.69,4.65 3.71,4.75 3.70,4.86 3.69,4.97 3.65,5.06 3.61,5.16 3.54,5.24 3.46,5.32 3.37,5.37 3.28,5.42 3.17,5.44 3.07,5.46 2.96,5.44 2.86,5.42 2.76,5.38 2.67,5.33 2.59,5.25 2.52,5.18 2.47,5.08 2.43,4.98 2.42,4.88 2.40,4.77 2.40,4.77 2.40,4.77 2.10,2.56 1.79,0.35 1.96,-0.86 2.13,-2.07 2.56,-3.81 2.99,-5.55 3.61,-6.92 4.22,-8.30 4.31,-8.46 4.40,-8.62 4.52,-8.76 4.64,-8.89 4.79,-9.00 4.94,-9.10 5.12,-9.17 5.29,-9.23 5.47,-9.25 5.65,-9.27 5.83,-9.25 6.02,-9.23 6.19,-9.16 6.36,-9.09 6.51,-8.99 6.66,-8.88 6.78,-8.75 6.90,-8.61 6.99,-8.45 7.07,-8.28 7.12,-8.10 7.16,-7.93 7.16,-7.74 7.16,-7.56 7.11,-7.38 7.07,-7.20 6.75,-6.79 6.44,-6.37 6.16,-5.76 5.89,-5.15 5.50,-4.64 5.12,-4.14 4.61,-3.29 4.10,-2.43 3.32,-1.36 2.55,-0.29 1.47,0.11 0.39,0.52 0.32,0.56 0.25,0.60 0.18,0.62 0.10,0.64 0.02,0.65 -0.05,0.65 -0.13,0.63 -0.20,0.62 -0.28,0.58 -0.35,0.55 -0.41,0.50 -0.47,0.45 -0.52,0.39 -0.56,0.32 -0.59,0.25 -0.63,0.18 -0.64,0.10 -0.65,0.02 -0.64,-0.05 -0.64,-0.13 -0.61,-0.20 -0.59,-0.28 -0.55,-0.34 -0.50,-0.41 -0.45,-0.47 -0.39,-0.52 -0.39,-0.52 L -0.39,-0.52 Z"/></g><g transform="translate(118.0230712890625 65.53297424316406) rotate(0 4.9447021484375 23.20214080810547)" stroke="none"><path fill="#1e1e1e" d="M 0.29,-0.58 Q 0.29,-0.58 1.34,-0.44 2.39,-0.30 3.65,1.12 4.91,2.55 6.33,5.40 7.75,8.25 8.79,11.25 9.83,14.24 10.30,18.70 10.77,23.16 10.96,26.11 11.14,29.06 10.78,32.19 10.41,35.31 9.73,37.96 9.05,40.61 7.38,43.11 5.71,45.60 5.65,45.68 5.59,45.77 5.50,45.83 5.41,45.89 5.31,45.92 5.21,45.95 5.10,45.94 4.99,45.94 4.90,45.90 4.80,45.86 4.71,45.80 4.63,45.73 4.58,45.64 4.52,45.55 4.50,45.44 4.47,45.34 4.48,45.23 4.49,45.13 4.54,45.03 4.58,44.93 4.65,44.86 4.73,44.78 4.82,44.73 4.91,44.68 5.02,44.66 5.12,44.64 5.23,44.66 5.33,44.67 5.43,44.72 5.52,44.77 5.60,44.85 5.67,44.92 5.71,45.02 5.76,45.12 5.77,45.22 5.79,45.33 5.76,45.43 5.74,45.53 5.69,45.63 5.63,45.72 5.55,45.79 5.47,45.86 5.38,45.90 5.28,45.94 5.17,45.94 5.06,45.95 4.96,45.92 4.86,45.90 4.77,45.84 4.68,45.78 4.62,45.69 4.55,45.61 4.52,45.51 4.48,45.41 4.48,45.30 4.48,45.20 4.51,45.10 4.55,45.00 4.55,45.00 4.55,45.00 5.46,42.49 6.38,39.98 6.88,37.46 7.38,34.95 7.74,32.09 8.10,29.24 7.92,26.35 7.75,23.46 7.37,19.32 7.00,15.18 6.05,12.36 5.10,9.53 3.89,6.92 2.69,4.31 1.89,3.18 1.10,2.05 0.40,1.32 -0.29,0.58 -0.35,0.54 -0.42,0.49 -0.47,0.44 -0.53,0.38 -0.57,0.31 -0.60,0.24 -0.62,0.16 -0.65,0.09 -0.65,0.01 -0.65,-0.06 -0.63,-0.14 -0.61,-0.22 -0.58,-0.29 -0.54,-0.36 -0.49,-0.42 -0.44,-0.48 -0.38,-0.52 -0.31,-0.57 -0.24,-0.60 -0.16,-0.63 -0.09,-0.64 -0.01,-0.65 0.06,-0.64 0.14,-0.64 0.21,-0.61 0.29,-0.58 0.29,-0.58 L 0.29,-0.58 Z"/></g><g transform="translate(184.2061767578125 93.67984008789062) rotate(0 9.88946533203125 -0.7607269287109375)" stroke="none"><path fill="#1e1e1e" d="M -0.20,0.62 Q -0.20,0.62 -0.89,0.64 -1.57,0.66 -2.19,0.98 -2.81,1.29 -2.98,1.31 -3.15,1.34 -3.32,1.32 -3.49,1.30 -3.65,1.24 -3.81,1.18 -3.96,1.08 -4.10,0.98 -4.21,0.86 -4.33,0.73 -4.41,0.58 -4.49,0.43 -4.53,0.26 -4.57,0.10 -4.57,-0.07 -4.57,-0.24 -4.53,-0.40 -4.49,-0.57 -4.41,-0.72 -4.34,-0.87 -4.22,-1.00 -4.11,-1.13 -3.97,-1.23 -3.83,-1.33 -3.67,-1.39 -3.51,-1.45 -2.83,-1.58 -2.15,-1.71 -1.27,-1.93 -0.40,-2.15 1.38,-2.48 3.16,-2.82 5.54,-2.98 7.93,-3.14 10.02,-3.21 12.11,-3.27 13.87,-3.30 15.64,-3.33 16.82,-3.34 18.01,-3.36 18.95,-3.35 19.90,-3.35 21.68,-2.16 23.45,-0.97 23.45,-0.86 23.44,-0.76 23.40,-0.66 23.37,-0.56 23.30,-0.48 23.23,-0.40 23.14,-0.34 23.05,-0.28 22.94,-0.26 22.84,-0.24 22.74,-0.25 22.63,-0.26 22.53,-0.30 22.44,-0.35 22.36,-0.42 22.28,-0.49 22.23,-0.59 22.18,-0.68 22.16,-0.78 22.14,-0.89 22.16,-0.99 22.18,-1.10 22.23,-1.19 22.28,-1.29 22.35,-1.36 22.43,-1.43 22.52,-1.48 22.62,-1.52 22.73,-1.54 22.83,-1.55 22.94,-1.53 23.04,-1.50 23.13,-1.45 23.22,-1.40 23.29,-1.32 23.36,-1.24 23.40,-1.14 23.44,-1.04 23.45,-0.93 23.45,-0.83 23.43,-0.72 23.40,-0.62 23.34,-0.53 23.28,-0.44 23.20,-0.38 23.11,-0.31 23.01,-0.28 22.91,-0.25 22.81,-0.24 22.70,-0.24 22.60,-0.28 22.50,-0.31 22.41,-0.37 22.33,-0.44 22.27,-0.53 22.21,-0.61 22.18,-0.72 22.15,-0.82 22.15,-0.82 22.15,-0.82 21.03,-0.24 19.91,0.32 18.98,0.33 18.04,0.34 16.86,0.35 15.69,0.36 13.95,0.38 12.21,0.39 10.17,0.44 8.13,0.48 5.95,0.58 3.77,0.68 2.01,0.96 0.26,1.25 -1.27,1.27 -2.81,1.29 -2.98,1.31 -3.15,1.34 -3.32,1.32 -3.49,1.30 -3.65,1.24 -3.81,1.18 -3.96,1.08 -4.10,0.98 -4.21,0.86 -4.33,0.73 -4.41,0.58 -4.49,0.43 -4.53,0.26 -4.57,0.10 -4.57,-0.07 -4.57,-0.24 -4.53,-0.40 -4.49,-0.57 -4.41,-0.72 -4.34,-0.87 -4.22,-1.00 -4.11,-1.13 -3.97,-1.23 -3.83,-1.33 -3.67,-1.39 -3.51,-1.45 -3.06,-1.44 -2.62,-1.43 -1.83,-1.48 -1.04,-1.54 -0.42,-1.08 0.20,-0.62 0.27,-0.58 0.35,-0.55 0.41,-0.50 0.47,-0.45 0.52,-0.39 0.56,-0.32 0.59,-0.25 0.63,-0.18 0.64,-0.10 0.65,-0.02 0.64,0.05 0.64,0.13 0.61,0.20 0.59,0.28 0.55,0.34 0.50,0.41 0.45,0.46 0.39,0.52 0.32,0.56 0.25,0.60 0.18,0.62 0.10,0.64 0.02,0.65 -0.05,0.65 -0.13,0.63 -0.20,0.62 -0.20,0.62 L -0.20,0.62 Z"/></g><g transform="translate(184.2061767578125 103.56927490234375) rotate(0 10.269805908203125 -0.7607269287109375)" stroke="none"><path fill="#1e1e1e" d="M -0.20,-0.62 Q -0.20,-0.62 0.95,-1.51 2.11,-2.41 3.92,-2.66 5.73,-2.91 8.03,-3.00 10.33,-3.09 12.47,-2.83 14.61,-2.57 17.39,-1.68 20.17,-0.78 20.27,-0.74 20.37,-0.69 20.44,-0.62 20.52,-0.54 20.57,-0.45 20.62,-0.36 20.63,-0.25 20.65,-0.15 20.63,-0.04 20.61,0.05 20.56,0.15 20.51,0.24 20.43,0.31 20.35,0.38 20.25,0.43 20.16,0.47 20.05,0.48 19.95,0.49 19.84,0.47 19.74,0.44 19.65,0.39 19.56,0.33 19.49,0.25 19.42,0.17 19.39,0.07 19.35,-0.02 19.34,-0.13 19.34,-0.23 19.37,-0.33 19.40,-0.44 19.46,-0.52 19.52,-0.61 19.60,-0.67 19.69,-0.74 19.79,-0.77 19.89,-0.80 20.00,-0.80 20.10,-0.80 20.20,-0.76 20.31,-0.73 20.39,-0.66 20.47,-0.60 20.53,-0.51 20.59,-0.42 20.62,-0.32 20.64,-0.22 20.64,-0.11 20.63,-0.00 20.59,0.08 20.55,0.18 20.48,0.26 20.41,0.34 20.32,0.40 20.23,0.45 20.12,0.47 20.02,0.49 19.91,0.48 19.81,0.47 19.81,0.47 19.81,0.47 17.07,0.48 14.33,0.50 12.39,0.39 10.45,0.28 8.28,0.35 6.11,0.42 4.62,0.54 3.13,0.66 1.66,0.64 0.20,0.62 0.13,0.63 0.05,0.65 -0.02,0.65 -0.10,0.64 -0.18,0.62 -0.25,0.60 -0.32,0.56 -0.39,0.52 -0.45,0.46 -0.50,0.41 -0.55,0.34 -0.59,0.28 -0.61,0.20 -0.64,0.13 -0.64,0.05 -0.65,-0.02 -0.64,-0.10 -0.63,-0.18 -0.59,-0.25 -0.56,-0.32 -0.52,-0.39 -0.47,-0.45 -0.41,-0.50 -0.35,-0.55 -0.27,-0.58 -0.20,-0.62 -0.20,-0.62 L -0.20,-0.62 Z"/></g><g transform="translate(200.18145751953125 81.50820922851562) rotate(0 9.889434814453125 16.355606079101562)" stroke="none"><path fill="#1e1e1e" d="M 0.58,-0.29 Q 0.58,-0.29 1.34,0.41 2.10,1.12 2.89,2.00 3.68,2.88 4.68,3.92 5.68,4.97 7.57,6.43 9.47,7.89 11.41,9.42 13.34,10.94 15.32,12.70 17.30,14.46 18.49,16.15 19.69,17.83 19.56,19.80 19.43,21.78 17.57,24.02 15.72,26.26 12.23,28.18 8.75,30.09 7.43,31.00 6.12,31.91 6.02,31.95 5.92,32.00 5.82,32.01 5.71,32.02 5.61,32.00 5.51,31.98 5.41,31.92 5.32,31.87 5.25,31.79 5.18,31.71 5.14,31.61 5.10,31.51 5.10,31.40 5.09,31.30 5.12,31.20 5.15,31.09 5.20,31.01 5.26,30.92 5.35,30.85 5.43,30.79 5.53,30.75 5.63,30.72 5.74,30.72 5.84,30.72 5.95,30.75 6.05,30.78 6.13,30.85 6.22,30.91 6.28,31.00 6.34,31.08 6.37,31.19 6.40,31.29 6.39,31.39 6.39,31.50 6.35,31.60 6.31,31.70 6.24,31.78 6.17,31.86 6.08,31.92 5.99,31.97 5.89,32.00 5.78,32.02 5.68,32.01 5.57,32.00 5.48,31.95 5.38,31.91 5.30,31.84 5.22,31.77 5.17,31.67 5.12,31.58 5.10,31.47 5.09,31.37 5.10,31.26 5.12,31.16 5.17,31.07 5.22,30.97 5.29,30.90 5.37,30.82 5.37,30.82 5.37,30.82 6.69,29.92 8.00,29.01 10.71,26.65 13.42,24.30 14.81,22.67 16.20,21.03 16.50,20.07 16.81,19.10 15.94,17.99 15.07,16.88 13.23,15.14 11.38,13.41 9.46,11.86 7.54,10.32 5.51,8.66 3.49,7.01 2.46,5.86 1.43,4.72 0.54,3.54 -0.35,2.37 -0.47,1.33 -0.58,0.29 -0.61,0.21 -0.64,0.14 -0.64,0.06 -0.65,-0.01 -0.64,-0.09 -0.63,-0.16 -0.60,-0.24 -0.57,-0.31 -0.52,-0.38 -0.48,-0.44 -0.42,-0.49 -0.36,-0.54 -0.29,-0.58 -0.22,-0.61 -0.14,-0.63 -0.06,-0.65 0.01,-0.65 0.09,-0.65 0.16,-0.62 0.24,-0.60 0.31,-0.57 0.38,-0.53 0.44,-0.47 0.50,-0.42 0.54,-0.35 0.58,-0.29 0.58,-0.29 L 0.58,-0.29 Z"/></g></svg>