<svg version="1.1" xmlns="http://www.w3.org/2000/svg" viewBox="0 0 412.53448486328125 351.6763916015625" width="412.53448486328125" height="351.6763916015625" filter="invert(93%) hue-rotate(180deg)" class="excalidraw-svg">
  <!-- svg-source:excalidraw -->
  
  <defs>
    <style class="style-fonts">
      @font-face {
        font-family: "Virgil";
        src: url("https://excalidraw.com/Virgil.woff2");
      }
      @font-face {
        font-family: "Cascadia";
        src: url("https://excalidraw.com/Cascadia.woff2");
      }
      @font-face {
        font-family: "Assistant";
        src: url("https://excalidraw.com/Assistant-Regular.woff2");
      }
    </style>
    
  </defs>
  <rect x="0" y="0" width="412.53448486328125" height="351.6763916015625" fill="#ffffff"/><g stroke-linecap="round" transform="translate(10 11.521453857421875) rotate(0 196.26724243164062 165.0774688720703)"><path d="M39.31 65.97 C39.31 65.97, 39.31 65.97, 39.31 65.97 M39.31 65.97 C39.31 65.97, 39.31 65.97, 39.31 65.97 M4.8 130.05 C32.48 98.2, 60.17 66.36, 97.96 22.88 M4.8 130.05 C27.55 103.88, 50.3 77.71, 97.96 22.88 M1.13 158.66 C29.63 125.88, 58.13 93.09, 129.72 10.74 M1.13 158.66 C38.84 115.28, 76.55 71.9, 129.72 10.74 M1.4 182.74 C41.33 136.8, 81.26 90.86, 156.88 3.87 M1.4 182.74 C44.11 133.6, 86.83 84.46, 156.88 3.87 M5.6 202.29 C64.28 134.79, 122.96 67.29, 180.77 0.79 M5.6 202.29 C70.84 127.24, 136.08 52.19, 180.77 0.79 M11.11 220.34 C49.3 176.41, 87.48 132.49, 202.03 0.72 M11.11 220.34 C81.95 138.86, 152.78 57.37, 202.03 0.72 M19.25 235.36 C96.8 146.16, 174.34 56.95, 221.98 2.16 M19.25 235.36 C76.18 169.88, 133.1 104.39, 221.98 2.16 M28.05 249.63 C107.74 157.96, 187.43 66.29, 240.61 5.11 M28.05 249.63 C105.2 160.88, 182.35 72.13, 240.61 5.11 M38.16 262.4 C83.62 210.1, 129.07 157.81, 258.59 8.81 M38.16 262.4 C116.29 172.51, 194.42 82.63, 258.59 8.81 M48.92 274.4 C98.1 217.83, 147.28 161.25, 275.26 14.03 M48.92 274.4 C115.23 198.12, 181.53 121.85, 275.26 14.03 M60.99 284.9 C115.09 222.67, 169.19 160.44, 290.61 20.75 M60.99 284.9 C139.53 194.56, 218.06 104.22, 290.61 20.75 M74.38 293.89 C155.3 200.8, 236.21 107.72, 305.31 28.23 M74.38 293.89 C124.23 236.54, 174.08 179.19, 305.31 28.23 M87.77 302.87 C154.38 226.25, 220.98 149.63, 319.36 36.46 M87.77 302.87 C135.16 248.36, 182.54 193.85, 319.36 36.46 M102.47 310.35 C190.86 208.67, 279.25 106.99, 332.09 46.2 M102.47 310.35 C194.11 204.93, 285.75 99.52, 332.09 46.2 M118.48 316.32 C201.26 221.1, 284.03 125.88, 344.16 56.7 M118.48 316.32 C189.78 234.3, 261.07 152.29, 344.16 56.7 M134.49 322.29 C205.07 241.1, 275.64 159.92, 355.58 67.95 M134.49 322.29 C205.79 240.27, 277.09 158.24, 355.58 67.95 M152.47 325.99 C208.82 261.18, 265.16 196.36, 365.04 81.47 M152.47 325.99 C208.17 261.92, 263.87 197.85, 365.04 81.47 M171.11 328.94 C240.04 249.65, 308.97 170.36, 374.49 94.98 M171.11 328.94 C227.74 263.79, 284.38 198.64, 374.49 94.98 M191.06 330.38 C260.17 250.88, 329.28 171.37, 381.97 110.76 M191.06 330.38 C237.18 277.33, 283.3 224.27, 381.97 110.76 M212.32 330.32 C250.53 286.36, 288.74 242.4, 388.14 128.05 M212.32 330.32 C277.71 255.09, 343.1 179.87, 388.14 128.05 M236.86 326.47 C271.63 286.48, 306.39 246.48, 391.69 148.36 M236.86 326.47 C278 279.14, 319.14 231.81, 391.69 148.36 M262.71 321.12 C303.65 274.03, 344.59 226.93, 392.61 171.69 M262.71 321.12 C304.3 273.28, 345.89 225.43, 392.61 171.69 M295.12 308.22 C314.56 285.86, 334.01 263.49, 388.94 200.3 M295.12 308.22 C328.72 269.57, 362.31 230.93, 388.94 200.3" stroke="#1e1e1e" stroke-width="2" fill="none"/><path d="M392.53 165.08 C392.53 169, 392.37 172.94, 392.03 176.85 C391.7 180.77, 391.2 184.68, 390.54 188.57 C389.87 192.46, 389.04 196.33, 388.05 200.17 C387.06 204, 385.9 207.82, 384.58 211.59 C383.27 215.35, 381.79 219.09, 380.16 222.77 C378.53 226.44, 376.74 230.08, 374.8 233.65 C372.86 237.22, 370.76 240.75, 368.53 244.19 C366.29 247.64, 363.9 251.02, 361.38 254.33 C358.85 257.63, 356.18 260.86, 353.39 264 C350.59 267.15, 347.65 270.21, 344.6 273.18 C341.54 276.15, 338.35 279.03, 335.05 281.8 C331.75 284.58, 328.32 287.26, 324.79 289.83 C321.27 292.41, 317.62 294.88, 313.89 297.23 C310.15 299.58, 306.3 301.83, 302.38 303.95 C298.45 306.07, 294.42 308.08, 290.33 309.96 C286.23 311.84, 282.05 313.61, 277.8 315.24 C273.55 316.87, 269.23 318.37, 264.86 319.75 C260.48 321.12, 256.04 322.36, 251.56 323.47 C247.08 324.57, 242.55 325.55, 237.99 326.38 C233.43 327.22, 228.82 327.92, 224.2 328.47 C219.58 329.03, 214.92 329.45, 210.27 329.73 C205.61 330.01, 200.93 330.15, 196.27 330.15 C191.6 330.15, 186.92 330.01, 182.27 329.73 C177.61 329.45, 172.96 329.03, 168.34 328.47 C163.72 327.92, 159.11 327.22, 154.55 326.38 C149.99 325.55, 145.45 324.57, 140.97 323.47 C136.49 322.36, 132.05 321.12, 127.68 319.75 C123.31 318.37, 118.98 316.87, 114.73 315.24 C110.49 313.61, 106.3 311.84, 102.21 309.96 C98.11 308.08, 94.08 306.07, 90.16 303.95 C86.23 301.83, 82.38 299.58, 78.65 297.23 C74.91 294.88, 71.27 292.41, 67.74 289.83 C64.21 287.26, 60.79 284.58, 57.49 281.8 C54.19 279.03, 50.99 276.15, 47.94 273.18 C44.88 270.21, 41.94 267.15, 39.15 264 C36.35 260.86, 33.68 257.63, 31.16 254.33 C28.63 251.02, 26.24 247.64, 24.01 244.19 C21.77 240.75, 19.68 237.22, 17.74 233.65 C15.8 230.08, 14.01 226.44, 12.37 222.77 C10.74 219.09, 9.27 215.35, 7.95 211.59 C6.64 207.82, 5.48 204, 4.49 200.17 C3.49 196.33, 2.66 192.46, 2 188.57 C1.33 184.68, 0.83 180.77, 0.5 176.85 C0.17 172.94, 0 169, 0 165.08 C0 161.15, 0.17 157.22, 0.5 153.3 C0.83 149.39, 1.33 145.47, 2 141.58 C2.66 137.7, 3.49 133.82, 4.49 129.99 C5.48 126.15, 6.64 122.34, 7.95 118.57 C9.27 114.8, 10.74 111.07, 12.37 107.39 C14.01 103.71, 15.8 100.07, 17.74 96.5 C19.68 92.93, 21.77 89.41, 24.01 85.96 C26.24 82.52, 28.63 79.13, 31.16 75.83 C33.68 72.53, 36.35 69.29, 39.15 66.15 C41.94 63.01, 44.88 59.94, 47.94 56.97 C50.99 54.01, 54.19 51.13, 57.49 48.35 C60.79 45.57, 64.21 42.89, 67.74 40.32 C71.27 37.75, 74.91 35.28, 78.65 32.93 C82.38 30.57, 86.23 28.33, 90.16 26.21 C94.08 24.08, 98.11 22.07, 102.21 20.19 C106.3 18.31, 110.49 16.55, 114.73 14.92 C118.98 13.29, 123.31 11.78, 127.68 10.41 C132.05 9.04, 136.49 7.79, 140.97 6.69 C145.45 5.58, 149.99 4.61, 154.55 3.77 C159.11 2.94, 163.72 2.24, 168.34 1.68 C172.96 1.12, 177.61 0.7, 182.27 0.42 C186.92 0.14, 191.6 0, 196.27 0 C200.93 0, 205.61 0.14, 210.27 0.42 C214.92 0.7, 219.58 1.12, 224.2 1.68 C228.82 2.24, 233.43 2.94, 237.99 3.77 C242.55 4.61, 247.08 5.58, 251.56 6.69 C256.04 7.79, 260.48 9.04, 264.86 10.41 C269.23 11.78, 273.55 13.29, 277.8 14.92 C282.05 16.55, 286.23 18.31, 290.33 20.19 C294.42 22.07, 298.45 24.08, 302.38 26.21 C306.3 28.33, 310.15 30.57, 313.89 32.93 C317.62 35.28, 321.27 37.75, 324.79 40.32 C328.32 42.89, 331.75 45.57, 335.05 48.35 C338.35 51.13, 341.54 54.01, 344.6 56.97 C347.65 59.94, 350.59 63.01, 353.39 66.15 C356.18 69.29, 358.85 72.53, 361.38 75.83 C363.9 79.13, 366.29 82.52, 368.53 85.96 C370.76 89.41, 372.86 92.93, 374.8 96.5 C376.74 100.07, 378.53 103.71, 380.16 107.39 C381.79 111.07, 383.27 114.8, 384.58 118.57 C385.9 122.34, 387.06 126.15, 388.05 129.99 C389.04 133.82, 389.87 137.7, 390.54 141.58 C391.2 145.47, 391.7 149.39, 392.03 153.3 C392.37 157.22, 392.53 161.15, 392.53 165.08" stroke="#1e1e1e" stroke-width="4" fill="none"/></g><g stroke-linecap="round" transform="translate(187.24908447265625 99.765625) rotate(0 82.91912841796875 80.63693237304688)"><path d="M165.84 80.64 C165.84 83.45, 165.69 86.27, 165.38 89.07 C165.08 91.86, 164.63 94.65, 164.03 97.4 C163.43 100.15, 162.67 102.88, 161.78 105.56 C160.89 108.23, 159.84 110.87, 158.67 113.43 C157.49 116, 156.17 118.52, 154.73 120.96 C153.28 123.39, 151.7 125.76, 150 128.03 C148.3 130.31, 146.47 132.51, 144.54 134.59 C142.61 136.68, 140.55 138.68, 138.4 140.56 C136.26 142.44, 134 144.22, 131.66 145.87 C129.32 147.53, 126.88 149.07, 124.38 150.47 C121.88 151.88, 119.28 153.16, 116.65 154.3 C114.01 155.45, 111.29 156.46, 108.54 157.33 C105.79 158.2, 102.98 158.93, 100.16 159.51 C97.33 160.1, 94.46 160.54, 91.59 160.83 C88.71 161.13, 85.81 161.27, 82.92 161.27 C80.03 161.27, 77.13 161.13, 74.25 160.83 C71.38 160.54, 68.51 160.1, 65.68 159.51 C62.85 158.93, 60.04 158.2, 57.3 157.33 C54.55 156.46, 51.83 155.45, 49.19 154.3 C46.55 153.16, 43.96 151.88, 41.46 150.47 C38.96 149.07, 36.52 147.53, 34.18 145.87 C31.84 144.22, 29.58 142.44, 27.44 140.56 C25.29 138.68, 23.23 136.68, 21.3 134.59 C19.36 132.51, 17.53 130.31, 15.84 128.03 C14.14 125.76, 12.55 123.39, 11.11 120.96 C9.66 118.52, 8.34 116, 7.17 113.43 C5.99 110.87, 4.95 108.23, 4.06 105.56 C3.17 102.88, 2.41 100.15, 1.81 97.4 C1.21 94.65, 0.76 91.86, 0.45 89.07 C0.15 86.27, 0 83.45, 0 80.64 C0 77.83, 0.15 75, 0.45 72.21 C0.76 69.41, 1.21 66.62, 1.81 63.87 C2.41 61.12, 3.17 58.39, 4.06 55.72 C4.95 53.05, 5.99 50.41, 7.17 47.84 C8.34 45.27, 9.66 42.75, 11.11 40.32 C12.55 37.89, 14.14 35.51, 15.84 33.24 C17.53 30.97, 19.36 28.77, 21.3 26.68 C23.23 24.59, 25.29 22.59, 27.44 20.71 C29.58 18.83, 31.84 17.05, 34.18 15.4 C36.52 13.75, 38.96 12.21, 41.46 10.8 C43.96 9.4, 46.55 8.11, 49.19 6.97 C51.83 5.83, 54.55 4.81, 57.3 3.95 C60.04 3.08, 62.85 2.35, 65.68 1.76 C68.51 1.18, 71.38 0.74, 74.25 0.44 C77.13 0.15, 80.03 0, 82.92 0 C85.81 0, 88.71 0.15, 91.59 0.44 C94.46 0.74, 97.33 1.18, 100.16 1.76 C102.98 2.35, 105.79 3.08, 108.54 3.95 C111.29 4.81, 114.01 5.83, 116.65 6.97 C119.28 8.11, 121.88 9.4, 124.38 10.8 C126.88 12.21, 129.32 13.75, 131.66 15.4 C134 17.05, 136.26 18.83, 138.4 20.71 C140.55 22.59, 142.61 24.59, 144.54 26.68 C146.47 28.77, 148.3 30.97, 150 33.24 C151.7 35.51, 153.28 37.89, 154.73 40.32 C156.17 42.75, 157.49 45.27, 158.67 47.84 C159.84 50.41, 160.89 53.05, 161.78 55.72 C162.67 58.39, 163.43 61.12, 164.03 63.87 C164.63 66.62, 165.08 69.41, 165.38 72.21 C165.69 75, 165.76 79.23, 165.84 80.64 C165.91 82.04, 165.91 79.23, 165.84 80.64" stroke="none" stroke-width="0" fill="#ffffff"/><path d="M165.84 80.64 C165.84 83.45, 165.69 86.27, 165.38 89.07 C165.08 91.86, 164.63 94.65, 164.03 97.4 C163.43 100.15, 162.67 102.88, 161.78 105.56 C160.89 108.23, 159.84 110.87, 158.67 113.43 C157.49 116, 156.17 118.52, 154.73 120.96 C153.28 123.39, 151.7 125.76, 150 128.03 C148.3 130.31, 146.47 132.51, 144.54 134.59 C142.61 136.68, 140.55 138.68, 138.4 140.56 C136.26 142.44, 134 144.22, 131.66 145.87 C129.32 147.53, 126.88 149.07, 124.38 150.47 C121.88 151.88, 119.28 153.16, 116.65 154.3 C114.01 155.45, 111.29 156.46, 108.54 157.33 C105.79 158.2, 102.98 158.93, 100.16 159.51 C97.33 160.1, 94.46 160.54, 91.59 160.83 C88.71 161.13, 85.81 161.27, 82.92 161.27 C80.03 161.27, 77.13 161.13, 74.25 160.83 C71.38 160.54, 68.51 160.1, 65.68 159.51 C62.85 158.93, 60.04 158.2, 57.3 157.33 C54.55 156.46, 51.83 155.45, 49.19 154.3 C46.55 153.16, 43.96 151.88, 41.46 150.47 C38.96 149.07, 36.52 147.53, 34.18 145.87 C31.84 144.22, 29.58 142.44, 27.44 140.56 C25.29 138.68, 23.23 136.68, 21.3 134.59 C19.36 132.51, 17.53 130.31, 15.84 128.03 C14.14 125.76, 12.55 123.39, 11.11 120.96 C9.66 118.52, 8.34 116, 7.17 113.43 C5.99 110.87, 4.95 108.23, 4.06 105.56 C3.17 102.88, 2.41 100.15, 1.81 97.4 C1.21 94.65, 0.76 91.86, 0.45 89.07 C0.15 86.27, 0 83.45, 0 80.64 C0 77.83, 0.15 75, 0.45 72.21 C0.76 69.41, 1.21 66.62, 1.81 63.87 C2.41 61.12, 3.17 58.39, 4.06 55.72 C4.95 53.05, 5.99 50.41, 7.17 47.84 C8.34 45.27, 9.66 42.75, 11.11 40.32 C12.55 37.89, 14.14 35.51, 15.84 33.24 C17.53 30.97, 19.36 28.77, 21.3 26.68 C23.23 24.59, 25.29 22.59, 27.44 20.71 C29.58 18.83, 31.84 17.05, 34.18 15.4 C36.52 13.75, 38.96 12.21, 41.46 10.8 C43.96 9.4, 46.55 8.11, 49.19 6.97 C51.83 5.83, 54.55 4.81, 57.3 3.95 C60.04 3.08, 62.85 2.35, 65.68 1.76 C68.51 1.18, 71.38 0.74, 74.25 0.44 C77.13 0.15, 80.03 0, 82.92 0 C85.81 0, 88.71 0.15, 91.59 0.44 C94.46 0.74, 97.33 1.18, 100.16 1.76 C102.98 2.35, 105.79 3.08, 108.54 3.95 C111.29 4.81, 114.01 5.83, 116.65 6.97 C119.28 8.11, 121.88 9.4, 124.38 10.8 C126.88 12.21, 129.32 13.75, 131.66 15.4 C134 17.05, 136.26 18.83, 138.4 20.71 C140.55 22.59, 142.61 24.59, 144.54 26.68 C146.47 28.77, 148.3 30.97, 150 33.24 C151.7 35.51, 153.28 37.89, 154.73 40.32 C156.17 42.75, 157.49 45.27, 158.67 47.84 C159.84 50.41, 160.89 53.05, 161.78 55.72 C162.67 58.39, 163.43 61.12, 164.03 63.87 C164.63 66.62, 165.08 69.41, 165.38 72.21 C165.69 75, 165.76 79.23, 165.84 80.64 C165.91 82.04, 165.91 79.23, 165.84 80.64" stroke="#1e1e1e" stroke-width="4" fill="none"/></g><g transform="translate(281.5791015625 142.36627197265625) rotate(0 -0.38037109375 14.834152221679688)" stroke="none"><path fill="#1e1e1e" d="M 0.65,0.06 Q 0.65,0.06 0.68,2.27 0.71,4.48 0.67,7.13 0.62,9.77 0.60,11.78 0.58,13.78 0.59,16.38 0.60,18.97 0.61,21.39 0.62,23.81 0.57,25.27 0.53,26.74 0.21,26.53 -0.10,26.32 -0.11,26.40 -0.12,26.48 -0.15,26.55 -0.17,26.63 -0.22,26.69 -0.26,26.76 -0.32,26.81 -0.38,26.86 -0.45,26.90 -0.52,26.94 -0.60,26.96 -0.68,26.97 -0.76,26.97 -0.84,26.97 -0.91,26.95 -0.99,26.94 -1.06,26.90 -1.13,26.86 -1.19,26.81 -1.25,26.76 -1.29,26.69 -1.34,26.63 -1.37,26.55 -1.39,26.48 -1.40,26.40 -1.41,26.32 -1.39,26.22 -1.38,26.11 -1.33,26.02 -1.28,25.92 -1.20,25.85 -1.12,25.78 -1.03,25.73 -0.93,25.69 -0.83,25.68 -0.72,25.67 -0.62,25.69 -0.51,25.71 -0.42,25.77 -0.33,25.82 -0.26,25.90 -0.19,25.98 -0.15,26.08 -0.11,26.18 -0.11,26.29 -0.10,26.39 -0.13,26.49 -0.16,26.60 -0.22,26.69 -0.28,26.77 -0.36,26.84 -0.45,26.90 -0.55,26.94 -0.65,26.97 -0.76,26.97 -0.86,26.97 -0.96,26.94 -1.06,26.90 -1.15,26.84 -1.23,26.77 -1.29,26.69 -1.35,26.60 -1.38,26.50 -1.41,26.39 -1.40,26.29 -1.40,26.18 -1.36,26.08 -1.32,25.98 -1.25,25.90 -1.18,25.82 -1.09,25.77 -1.00,25.71 -0.90,25.69 -0.79,25.67 -0.69,25.68 -0.58,25.69 -0.48,25.73 -0.39,25.78 -0.31,25.85 -0.23,25.92 -0.18,26.02 -0.13,26.11 -0.12,26.22 -0.10,26.32 -0.10,26.32 -0.10,26.32 -0.11,26.40 -0.12,26.48 -0.15,26.55 -0.17,26.63 -0.22,26.69 -0.26,26.76 -0.32,26.81 -0.38,26.86 -0.45,26.90 -0.52,26.94 -0.60,26.96 -0.68,26.97 -0.76,26.97 -0.84,26.97 -0.91,26.95 -0.99,26.94 -1.06,26.90 -1.13,26.86 -1.19,26.81 -1.25,26.76 -1.29,26.69 -1.34,26.63 -1.37,26.55 -1.39,26.48 -1.40,26.40 -1.41,26.32 -1.73,26.53 -2.04,26.73 -2.08,25.27 -2.12,23.80 -2.10,21.38 -2.07,18.96 -2.03,16.34 -1.98,13.73 -1.93,11.71 -1.87,9.68 -1.73,6.97 -1.58,4.25 -1.12,2.09 -0.65,-0.06 -0.63,-0.14 -0.61,-0.21 -0.58,-0.29 -0.54,-0.36 -0.49,-0.42 -0.44,-0.48 -0.38,-0.52 -0.31,-0.57 -0.24,-0.60 -0.17,-0.63 -0.09,-0.64 -0.01,-0.65 0.06,-0.64 0.14,-0.64 0.21,-0.61 0.29,-0.58 0.35,-0.54 0.42,-0.50 0.47,-0.44 0.53,-0.38 0.57,-0.31 0.60,-0.24 0.62,-0.16 0.65,-0.09 0.65,-0.01 0.65,0.06 0.65,0.06 L 0.65,0.06 Z"/></g><g transform="translate(279.29693603515625 146.93063354492188) rotate(0 11.410888671875 10.650161743164062)" stroke="none"><path fill="#1e1e1e" d="M 0.46,-0.46 Q 0.46,-0.46 1.30,0.01 2.14,0.49 2.97,1.72 3.81,2.95 4.32,3.61 4.83,4.26 5.68,5.15 6.54,6.03 7.45,6.77 8.36,7.52 9.31,7.52 10.26,7.53 11.57,6.77 12.88,6.02 14.51,4.46 16.14,2.91 17.29,1.60 18.44,0.29 19.45,-0.58 20.46,-1.45 20.84,-2.05 21.22,-2.64 21.38,-2.74 21.54,-2.85 21.71,-2.91 21.89,-2.97 22.07,-2.99 22.26,-3.01 22.45,-2.98 22.63,-2.95 22.80,-2.88 22.98,-2.81 23.13,-2.70 23.28,-2.59 23.40,-2.45 23.52,-2.30 23.60,-2.13 23.69,-1.97 23.73,-1.78 23.77,-1.60 23.76,-1.41 23.76,-1.23 23.71,-1.05 23.66,-0.87 23.57,-0.70 23.48,-0.54 23.35,-0.40 23.22,-0.26 23.71,-0.70 24.21,-1.13 23.92,1.41 23.63,3.97 23.48,6.32 23.34,8.67 23.27,10.56 23.19,12.44 23.06,14.76 22.92,17.09 22.79,20.01 22.65,22.94 22.65,23.04 22.64,23.15 22.60,23.25 22.56,23.34 22.49,23.42 22.42,23.50 22.33,23.56 22.24,23.61 22.13,23.63 22.03,23.65 21.92,23.64 21.82,23.63 21.72,23.58 21.63,23.54 21.55,23.46 21.47,23.39 21.42,23.29 21.38,23.20 21.36,23.10 21.34,22.99 21.36,22.89 21.38,22.78 21.43,22.69 21.48,22.59 21.56,22.52 21.64,22.45 21.74,22.41 21.83,22.36 21.94,22.35 22.05,22.34 22.15,22.37 22.25,22.39 22.34,22.45 22.43,22.50 22.50,22.59 22.57,22.67 22.61,22.77 22.64,22.87 22.65,22.97 22.65,23.08 22.62,23.18 22.59,23.28 22.53,23.37 22.47,23.46 22.39,23.52 22.30,23.58 22.20,23.62 22.10,23.65 21.99,23.65 21.89,23.65 21.79,23.61 21.69,23.57 21.60,23.51 21.52,23.44 21.46,23.36 21.40,23.27 21.37,23.16 21.35,23.06 21.35,23.06 21.35,23.06 20.55,20.06 19.75,17.05 19.67,14.69 19.59,12.32 19.65,10.38 19.71,8.44 19.87,5.90 20.04,3.37 20.48,1.63 20.92,-0.09 21.07,-1.37 21.22,-2.64 21.38,-2.74 21.53,-2.85 21.71,-2.91 21.89,-2.97 22.07,-2.99 22.26,-3.01 22.45,-2.98 22.63,-2.95 22.80,-2.88 22.98,-2.81 23.13,-2.70 23.28,-2.59 23.40,-2.45 23.52,-2.30 23.60,-2.13 23.69,-1.97 23.73,-1.78 23.77,-1.60 23.76,-1.41 23.76,-1.23 23.71,-1.05 23.66,-0.87 23.57,-0.70 23.48,-0.54 23.35,-0.40 23.22,-0.26 22.79,0.25 22.37,0.77 21.48,1.48 20.60,2.20 19.35,3.61 18.09,5.02 16.13,6.79 14.17,8.56 12.19,9.43 10.20,10.30 8.52,10.03 6.84,9.76 5.70,8.81 4.55,7.86 3.65,6.83 2.75,5.80 2.21,5.04 1.67,4.28 1.07,3.20 0.48,2.13 0.00,1.29 -0.46,0.46 -0.51,0.40 -0.56,0.33 -0.59,0.26 -0.62,0.19 -0.64,0.11 -0.65,0.03 -0.65,-0.03 -0.64,-0.11 -0.62,-0.19 -0.59,-0.26 -0.55,-0.33 -0.51,-0.40 -0.46,-0.46 -0.40,-0.51 -0.33,-0.55 -0.26,-0.59 -0.19,-0.62 -0.11,-0.64 -0.03,-0.65 0.03,-0.65 0.11,-0.64 0.19,-0.62 0.26,-0.59 0.33,-0.56 0.40,-0.51 0.46,-0.46 0.46,-0.46 L 0.46,-0.46 Z"/></g><g transform="translate(39.6683349609375 11.521453857421875) rotate(0 12.93231201171875 -0.38036346435546875)" stroke="none"><path fill="#1e1e1e" d="M 0,-0.65 Q 0,-0.65 2.18,-1.07 4.37,-1.48 5.95,-1.50 7.54,-1.51 10.18,-1.53 12.82,-1.56 15.19,-1.76 17.56,-1.96 19.72,-1.96 21.89,-1.96 23.77,-1.98 25.65,-2.00 25.76,-2.00 25.87,-2.00 25.97,-1.97 26.07,-1.94 26.16,-1.88 26.24,-1.82 26.30,-1.73 26.37,-1.65 26.40,-1.54 26.43,-1.44 26.43,-1.34 26.42,-1.23 26.39,-1.13 26.35,-1.03 26.28,-0.95 26.22,-0.87 26.13,-0.81 26.04,-0.75 25.93,-0.73 25.83,-0.70 25.72,-0.71 25.62,-0.72 25.52,-0.76 25.42,-0.80 25.34,-0.87 25.27,-0.94 25.21,-1.04 25.16,-1.13 25.14,-1.23 25.12,-1.34 25.14,-1.44 25.15,-1.55 25.20,-1.64 25.24,-1.74 25.32,-1.81 25.39,-1.89 25.49,-1.93 25.58,-1.98 25.69,-2.00 25.79,-2.01 25.90,-1.99 26.00,-1.97 26.10,-1.92 26.19,-1.87 26.26,-1.79 26.33,-1.71 26.37,-1.61 26.41,-1.51 26.42,-1.41 26.43,-1.30 26.41,-1.20 26.38,-1.09 26.32,-1.01 26.27,-0.92 26.18,-0.85 26.10,-0.78 26.00,-0.75 25.90,-0.71 25.90,-0.71 25.90,-0.71 23.96,-0.00 22.01,0.71 19.92,0.90 17.83,1.09 15.33,1.32 12.83,1.56 10.18,1.53 7.54,1.51 5.95,1.50 4.37,1.48 2.18,1.07 0,0.65 -0.07,0.64 -0.15,0.63 -0.23,0.60 -0.30,0.58 -0.37,0.53 -0.43,0.49 -0.48,0.43 -0.54,0.37 -0.57,0.30 -0.61,0.23 -0.63,0.15 -0.65,0.07 -0.65,-0.00 -0.65,-0.07 -0.63,-0.15 -0.61,-0.23 -0.57,-0.30 -0.54,-0.37 -0.48,-0.43 -0.43,-0.49 -0.37,-0.53 -0.30,-0.58 -0.23,-0.60 -0.15,-0.63 -0.07,-0.64 0.00,-0.65 0.00,-0.65 L 0,-0.65 Z"/></g><g transform="translate(54.12213134765625 13.04290771484375) rotate(0 -1.521453857421875 11.030517578125)" stroke="none"><path fill="#1e1e1e" d="M 0.62,0.20 Q 0.62,0.20 0.60,1.65 0.58,3.10 0.46,4.60 0.34,6.10 0.06,8.35 -0.21,10.60 -0.33,12.38 -0.44,14.15 -0.83,16.06 -1.21,17.98 -1.78,19.84 -2.35,21.70 -2.38,21.80 -2.40,21.90 -2.46,21.99 -2.52,22.08 -2.60,22.15 -2.68,22.22 -2.78,22.26 -2.88,22.29 -2.99,22.30 -3.09,22.30 -3.19,22.27 -3.30,22.24 -3.38,22.18 -3.47,22.12 -3.53,22.03 -3.59,21.94 -3.63,21.84 -3.66,21.74 -3.65,21.63 -3.65,21.53 -3.62,21.43 -3.58,21.33 -3.51,21.24 -3.45,21.16 -3.36,21.10 -3.27,21.05 -3.17,21.02 -3.06,20.99 -2.96,21.00 -2.85,21.01 -2.75,21.05 -2.66,21.09 -2.58,21.16 -2.50,21.23 -2.44,21.33 -2.39,21.42 -2.37,21.52 -2.35,21.63 -2.36,21.73 -2.38,21.84 -2.42,21.93 -2.47,22.03 -2.55,22.10 -2.62,22.18 -2.72,22.23 -2.81,22.27 -2.92,22.29 -3.02,22.30 -3.13,22.29 -3.23,22.27 -3.32,22.21 -3.42,22.16 -3.49,22.08 -3.56,22.00 -3.60,21.91 -3.64,21.81 -3.65,21.70 -3.66,21.60 -3.66,21.60 -3.66,21.60 -3.86,19.58 -4.06,17.56 -3.90,15.74 -3.74,13.92 -3.60,12.05 -3.46,10.17 -3.15,7.96 -2.83,5.74 -2.58,3.94 -2.33,2.14 -1.48,0.96 -0.62,-0.20 -0.58,-0.27 -0.55,-0.35 -0.50,-0.41 -0.45,-0.47 -0.39,-0.52 -0.32,-0.56 -0.25,-0.59 -0.18,-0.63 -0.10,-0.64 -0.02,-0.65 0.05,-0.64 0.13,-0.64 0.20,-0.61 0.28,-0.59 0.34,-0.55 0.41,-0.50 0.46,-0.45 0.52,-0.39 0.56,-0.32 0.60,-0.25 0.62,-0.18 0.64,-0.10 0.65,-0.02 0.65,0.05 0.63,0.13 0.62,0.20 0.62,0.20 L 0.62,0.20 Z"/></g></svg>