<svg version="1.1" xmlns="http://www.w3.org/2000/svg" viewBox="0 0 833.9765014648438 189.64183044433594" width="833.9765014648438" height="189.64183044433594" filter="invert(93%) hue-rotate(180deg)" class="excalidraw-svg">
  <!-- svg-source:excalidraw -->
  
  <defs>
    <style class="style-fonts">
      @font-face {
        font-family: "Virgil";
        src: url("https://excalidraw.com/Virgil.woff2");
      }
      @font-face {
        font-family: "Cascadia";
        src: url("https://excalidraw.com/Cascadia.woff2");
      }
      @font-face {
        font-family: "Assistant";
        src: url("https://excalidraw.com/Assistant-Regular.woff2");
      }
    </style>
    
  </defs>
  <rect x="0" y="0" width="833.9765014648438" height="189.64183044433594" fill="#ffffff"/><g stroke-linecap="round"><g transform="translate(50.3184814453125 64.77230834960938) rotate(0 228.5980224609375 1.141082763671875)"><path d="M0.98 1.09 C77.33 1.24, 381.61 1.6, 457.79 1.94 M0.03 0.62 C76.3 1.46, 380.87 3.2, 457.16 3.3" stroke="#1e1e1e" stroke-width="2" fill="none"/></g></g><mask/><g stroke-linecap="round"><g transform="translate(53.466762376870065 102.72701909841038) rotate(0 228.5980224609375 1.141082763671875)"><path d="M0.89 -0.16 C76.86 0.11, 380.54 2.25, 456.64 2.76 M-0.1 -1.3 C75.59 -0.87, 379.23 0.52, 455.39 0.89" stroke="#1e1e1e" stroke-width="2" fill="none"/></g></g><mask/><g stroke-linecap="round"><g transform="translate(52.448634935463815 134.98443486989476) rotate(0 228.5980224609375 1.141082763671875)"><path d="M0.27 0.65 C76.67 1.14, 381.6 3.32, 457.83 3.41 M-1.04 -0.05 C75.3 0.09, 380.85 1.55, 457.21 1.88" stroke="#1e1e1e" stroke-width="2" fill="none"/></g></g><mask/><g stroke-linecap="round" transform="translate(181.92401123046875 38.1468505859375) rotate(0 100.03543090820312 65.04206085205078)"><path d="M32 0 C68.89 0.56, 107.31 -1.11, 168.07 0 M168.07 0 C190.05 -1.05, 198.25 9.1, 200.07 32 M200.07 32 C198.85 48.26, 198.78 69.05, 200.07 98.08 M200.07 98.08 C200.1 118.45, 187.65 128.24, 168.07 130.08 M168.07 130.08 C128.58 133.27, 83.93 130.3, 32 130.08 M32 130.08 C11.59 130.65, -0.58 117.81, 0 98.08 M0 98.08 C1.98 73.75, -1.77 49.26, 0 32 M0 32 C-1.2 11.51, 10.86 -0.94, 32 0" stroke="#1e1e1e" stroke-width="2.5" fill="none" stroke-dasharray="8 10"/></g><g transform="translate(13.04290771484375 59.44718933105469) rotate(0 4.9447021484375 6.466156005859375)" stroke="none"><path fill="#1e1e1e" d="M 0.54,-0.36 Q 0.54,-0.36 1.26,0.10 1.99,0.56 2.78,1.41 3.58,2.26 4.15,2.86 4.72,3.46 5.40,4.14 6.08,4.82 6.87,5.84 7.65,6.85 8.53,7.92 9.41,8.98 9.61,11.13 9.81,13.27 9.78,13.38 9.76,13.48 9.70,13.57 9.65,13.66 9.57,13.73 9.49,13.80 9.39,13.84 9.29,13.88 9.18,13.88 9.08,13.89 8.97,13.86 8.87,13.83 8.78,13.77 8.70,13.71 8.63,13.62 8.57,13.54 8.54,13.44 8.50,13.34 8.50,13.23 8.50,13.12 8.54,13.02 8.57,12.92 8.64,12.84 8.70,12.75 8.79,12.70 8.88,12.64 8.98,12.61 9.09,12.58 9.19,12.59 9.30,12.59 9.40,12.63 9.49,12.67 9.57,12.74 9.66,12.81 9.71,12.90 9.76,13.00 9.79,13.10 9.81,13.20 9.80,13.31 9.78,13.41 9.74,13.51 9.69,13.61 9.62,13.68 9.55,13.76 9.45,13.81 9.36,13.86 9.25,13.87 9.15,13.89 9.04,13.87 8.94,13.86 8.84,13.80 8.75,13.75 8.68,13.68 8.61,13.60 8.56,13.50 8.52,13.41 8.51,13.30 8.50,13.19 8.50,13.19 8.50,13.19 8.00,11.95 7.51,10.70 6.45,9.64 5.40,8.57 4.73,7.68 4.06,6.79 3.38,6.08 2.69,5.36 2.11,4.73 1.53,4.10 0.64,3.08 -0.24,2.05 -0.39,1.21 -0.54,0.36 -0.58,0.29 -0.61,0.22 -0.63,0.14 -0.65,0.06 -0.65,-0.01 -0.65,-0.08 -0.63,-0.16 -0.61,-0.24 -0.57,-0.31 -0.53,-0.38 -0.48,-0.44 -0.42,-0.49 -0.36,-0.54 -0.29,-0.58 -0.22,-0.61 -0.14,-0.64 -0.06,-0.64 0.01,-0.65 0.08,-0.64 0.16,-0.63 0.24,-0.60 0.31,-0.57 0.37,-0.53 0.44,-0.48 0.49,-0.42 0.54,-0.36 0.54,-0.36 L 0.54,-0.36 Z"/></g><g transform="translate(13.04290771484375 72.37950134277344) rotate(0 6.085784912109375 -7.2268829345703125)" stroke="none"><path fill="#1e1e1e" d="M -0.63,-0.15 Q -0.63,-0.15 -0.65,-1.11 -0.68,-2.06 0.11,-3.30 0.90,-4.55 1.63,-5.64 2.36,-6.74 4.08,-8.40 5.80,-10.06 7.23,-11.14 8.66,-12.23 10.26,-13.30 11.85,-14.37 11.94,-14.43 12.03,-14.48 12.14,-14.51 12.24,-14.53 12.35,-14.53 12.45,-14.52 12.55,-14.48 12.65,-14.43 12.73,-14.36 12.80,-14.29 12.86,-14.20 12.91,-14.11 12.93,-14.00 12.95,-13.90 12.93,-13.79 12.92,-13.69 12.87,-13.59 12.82,-13.50 12.75,-13.42 12.67,-13.35 12.58,-13.30 12.48,-13.25 12.38,-13.24 12.27,-13.22 12.17,-13.24 12.06,-13.26 11.97,-13.32 11.88,-13.37 11.81,-13.45 11.74,-13.53 11.70,-13.63 11.65,-13.72 11.65,-13.83 11.64,-13.93 11.66,-14.04 11.69,-14.14 11.75,-14.23 11.80,-14.32 11.89,-14.39 11.97,-14.45 12.07,-14.49 12.17,-14.53 12.28,-14.53 12.38,-14.53 12.48,-14.50 12.58,-14.47 12.67,-14.41 12.76,-14.34 12.82,-14.26 12.88,-14.17 12.91,-14.07 12.94,-13.97 12.94,-13.86 12.94,-13.76 12.90,-13.66 12.86,-13.56 12.80,-13.47 12.73,-13.39 12.73,-13.39 12.73,-13.39 11.45,-11.88 10.16,-10.38 8.89,-9.26 7.62,-8.14 6.07,-6.69 4.52,-5.23 3.74,-4.14 2.96,-3.05 2.26,-2.24 1.55,-1.43 1.09,-0.63 0.63,0.15 0.60,0.23 0.58,0.30 0.53,0.37 0.49,0.43 0.43,0.48 0.37,0.54 0.30,0.57 0.23,0.61 0.15,0.63 0.07,0.65 -0.00,0.65 -0.08,0.65 -0.15,0.63 -0.23,0.61 -0.30,0.57 -0.37,0.53 -0.43,0.48 -0.49,0.43 -0.53,0.36 -0.58,0.30 -0.61,0.22 -0.63,0.15 -0.64,0.07 -0.65,-0.00 -0.64,-0.08 -0.63,-0.15 -0.63,-0.15 L -0.63,-0.15 Z"/></g><g transform="translate(13.04290771484375 87.59403991699219) rotate(0 4.9447021484375 9.509063720703125)" stroke="none"><path fill="#1e1e1e" d="M 0.58,-0.29 Q 0.58,-0.29 1.22,0.48 1.86,1.25 2.29,2.05 2.71,2.84 3.07,3.31 3.43,3.77 3.90,3.44 4.37,3.11 5.02,2.60 5.67,2.09 6.39,1.44 7.11,0.78 7.85,0.07 8.60,-0.64 9.06,-1.07 9.52,-1.49 9.53,-1.90 9.54,-2.30 9.69,-2.42 9.84,-2.53 10.01,-2.61 10.18,-2.68 10.37,-2.71 10.56,-2.74 10.74,-2.73 10.93,-2.72 11.11,-2.66 11.29,-2.60 11.45,-2.50 11.61,-2.40 11.74,-2.26 11.87,-2.13 11.96,-1.97 12.06,-1.80 12.11,-1.62 12.17,-1.44 12.17,-1.26 12.18,-1.07 12.15,-0.88 12.11,-0.70 12.03,-0.53 11.95,-0.36 11.83,-0.21 11.71,-0.06 11.19,0.80 10.66,1.67 9.26,3.48 7.86,5.28 6.89,6.82 5.92,8.37 4.87,10.51 3.83,12.65 2.89,14.45 1.96,16.26 0.71,18.07 -0.53,19.89 -0.59,19.98 -0.65,20.07 -0.73,20.14 -0.81,20.21 -0.91,20.24 -1.01,20.28 -1.12,20.28 -1.22,20.29 -1.32,20.26 -1.43,20.23 -1.51,20.17 -1.60,20.11 -1.66,20.02 -1.72,19.93 -1.76,19.83 -1.79,19.73 -1.79,19.62 -1.78,19.52 -1.75,19.42 -1.71,19.32 -1.65,19.24 -1.58,19.15 -1.49,19.09 -1.40,19.04 -1.30,19.01 -1.20,18.98 -1.09,18.99 -0.98,19.00 -0.89,19.04 -0.79,19.08 -0.71,19.15 -0.63,19.22 -0.58,19.31 -0.52,19.41 -0.50,19.51 -0.48,19.61 -0.50,19.72 -0.51,19.83 -0.56,19.92 -0.60,20.02 -0.68,20.09 -0.75,20.17 -0.85,20.22 -0.94,20.26 -1.05,20.28 -1.15,20.29 -1.26,20.27 -1.36,20.26 -1.45,20.20 -1.55,20.15 -1.62,20.07 -1.69,20.00 -1.73,19.90 -1.77,19.80 -1.78,19.69 -1.79,19.59 -1.77,19.49 -1.74,19.38 -1.74,19.38 -1.74,19.38 -1.28,17.13 -0.82,14.88 0.04,13.05 0.91,11.21 2.04,8.92 3.17,6.63 4.24,4.95 5.31,3.27 6.65,1.60 7.99,-0.06 8.76,-1.18 9.54,-2.30 9.69,-2.42 9.84,-2.53 10.01,-2.61 10.18,-2.68 10.37,-2.71 10.56,-2.74 10.74,-2.73 10.93,-2.72 11.11,-2.66 11.29,-2.60 11.45,-2.50 11.61,-2.40 11.74,-2.26 11.87,-2.13 11.96,-1.97 12.06,-1.80 12.11,-1.62 12.17,-1.44 12.17,-1.26 12.18,-1.07 12.15,-0.88 12.11,-0.70 12.03,-0.53 11.95,-0.36 11.83,-0.21 11.71,-0.06 11.70,-0.02 11.68,0.01 11.06,0.64 10.43,1.27 9.64,2.01 8.85,2.75 8.03,3.46 7.21,4.18 6.29,4.83 5.36,5.48 4.20,5.77 3.04,6.07 2.27,5.64 1.50,5.21 1.07,4.54 0.65,3.88 0.26,3.06 -0.11,2.24 -0.35,1.26 -0.58,0.29 -0.61,0.21 -0.64,0.14 -0.64,0.06 -0.65,-0.01 -0.64,-0.09 -0.63,-0.16 -0.60,-0.24 -0.57,-0.31 -0.52,-0.38 -0.48,-0.44 -0.42,-0.49 -0.36,-0.54 -0.29,-0.58 -0.22,-0.61 -0.14,-0.63 -0.06,-0.65 0.01,-0.65 0.09,-0.65 0.16,-0.62 0.24,-0.60 0.31,-0.57 0.38,-0.53 0.44,-0.47 0.50,-0.42 0.54,-0.35 0.58,-0.29 0.58,-0.29 L 0.58,-0.29 Z"/></g><g transform="translate(11.52142333984375 128.67323303222656) rotate(0 4.9447021484375 6.0858001708984375)" stroke="none"><path fill="#1e1e1e" d="M -0.62,-0.20 Q -0.62,-0.20 -0.56,-1.03 -0.51,-1.86 0.20,-2.40 0.93,-2.94 1.87,-3.33 2.81,-3.71 3.75,-3.90 4.69,-4.09 5.90,-3.80 7.10,-3.52 7.76,-2.58 8.41,-1.64 8.64,-0.23 8.88,1.17 8.50,2.63 8.11,4.09 7.52,5.71 6.93,7.34 6.48,8.66 6.02,9.98 5.86,10.70 5.69,11.41 5.87,12.03 6.05,12.64 8.00,12.92 9.95,13.20 10.06,13.19 10.16,13.18 10.26,13.20 10.37,13.22 10.46,13.28 10.55,13.33 10.62,13.41 10.69,13.49 10.73,13.59 10.77,13.69 10.77,13.80 10.78,13.90 10.75,14.01 10.72,14.11 10.66,14.20 10.60,14.28 10.52,14.35 10.43,14.41 10.33,14.45 10.23,14.48 10.13,14.48 10.02,14.48 9.92,14.45 9.82,14.41 9.73,14.35 9.65,14.28 9.59,14.20 9.53,14.11 9.50,14.01 9.47,13.90 9.48,13.80 9.48,13.69 9.52,13.59 9.56,13.49 9.63,13.41 9.70,13.33 9.79,13.28 9.88,13.22 9.99,13.20 10.09,13.18 10.20,13.19 10.30,13.20 10.40,13.24 10.49,13.29 10.57,13.36 10.65,13.43 10.70,13.53 10.75,13.62 10.77,13.73 10.78,13.83 10.77,13.94 10.75,14.04 10.70,14.14 10.65,14.23 10.57,14.30 10.50,14.38 10.40,14.42 10.30,14.47 10.30,14.47 10.30,14.47 7.75,15.19 5.20,15.91 4.30,15.27 3.40,14.64 2.88,13.66 2.36,12.67 2.43,11.64 2.51,10.60 2.74,9.75 2.97,8.90 3.46,7.56 3.95,6.22 4.56,4.67 5.17,3.13 5.54,2.27 5.90,1.41 5.86,0.45 5.81,-0.49 5.44,-1.03 5.07,-1.56 4.39,-1.47 3.70,-1.37 2.54,-1.06 1.38,-0.75 1.00,-0.27 0.62,0.20 0.58,0.27 0.55,0.35 0.50,0.41 0.45,0.47 0.39,0.52 0.32,0.56 0.25,0.59 0.18,0.63 0.10,0.64 0.02,0.65 -0.05,0.64 -0.13,0.64 -0.20,0.61 -0.28,0.59 -0.34,0.55 -0.41,0.50 -0.46,0.45 -0.52,0.39 -0.56,0.32 -0.60,0.25 -0.62,0.18 -0.64,0.10 -0.65,0.02 -0.65,-0.05 -0.63,-0.13 -0.62,-0.20 -0.62,-0.20 L -0.62,-0.20 Z"/></g><g transform="translate(10 137.0412139892578) rotate(0 6.466156005859375 -0.7607269287109375)" stroke="none"><path fill="#1e1e1e" d="M 0,-0.65 Q 0,-0.65 0.65,-0.98 1.30,-1.31 2.33,-1.56 3.36,-1.80 4.34,-1.89 5.33,-1.98 6.65,-1.90 7.97,-1.82 9.95,-1.92 11.93,-2.02 12.04,-2.02 12.14,-2.02 12.24,-1.98 12.34,-1.95 12.43,-1.89 12.51,-1.82 12.57,-1.73 12.63,-1.65 12.66,-1.54 12.69,-1.44 12.69,-1.34 12.68,-1.23 12.64,-1.13 12.60,-1.03 12.53,-0.95 12.47,-0.87 12.37,-0.81 12.28,-0.76 12.18,-0.74 12.08,-0.71 11.97,-0.72 11.86,-0.74 11.77,-0.78 11.67,-0.82 11.59,-0.90 11.52,-0.97 11.47,-1.06 11.42,-1.16 11.40,-1.26 11.38,-1.37 11.40,-1.47 11.42,-1.58 11.47,-1.67 11.52,-1.76 11.59,-1.84 11.67,-1.91 11.77,-1.96 11.86,-2.00 11.97,-2.01 12.07,-2.02 12.18,-2.00 12.28,-1.98 12.37,-1.92 12.46,-1.87 12.53,-1.79 12.60,-1.71 12.64,-1.61 12.68,-1.51 12.69,-1.41 12.69,-1.30 12.66,-1.20 12.64,-1.09 12.58,-1.01 12.52,-0.92 12.43,-0.85 12.35,-0.79 12.25,-0.75 12.15,-0.72 12.15,-0.72 12.15,-0.72 10.10,-0.15 8.04,0.42 6.83,0.57 5.61,0.73 4.74,0.83 3.87,0.93 2.59,1.12 1.31,1.31 0.65,0.98 0,0.65 -0.07,0.64 -0.15,0.63 -0.23,0.60 -0.30,0.58 -0.37,0.53 -0.43,0.49 -0.48,0.43 -0.54,0.37 -0.57,0.30 -0.61,0.23 -0.63,0.15 -0.65,0.07 -0.65,-0.00 -0.65,-0.07 -0.63,-0.15 -0.61,-0.23 -0.57,-0.30 -0.54,-0.37 -0.48,-0.43 -0.43,-0.49 -0.37,-0.53 -0.30,-0.58 -0.23,-0.60 -0.15,-0.63 -0.07,-0.64 0.00,-0.65 0.00,-0.65 L 0,-0.65 Z"/></g><g transform="translate(279.296875 65.53297424316406) rotate(0 -0.38037109375 2.2821807861328125)" stroke="none"><path fill="#1e1e1e" d="M 0,0.65 Q 0,0.65 -0.65,0.86 -1.31,1.06 -2.27,1.29 -3.22,1.52 -3.56,2.06 -3.90,2.61 -4.21,3.28 -4.52,3.96 -4.18,4.74 -3.85,5.53 -3.33,5.84 -2.81,6.15 -2.18,5.99 -1.54,5.83 -0.49,5.17 0.55,4.52 1.45,3.82 2.34,3.12 2.86,2.47 3.37,1.81 3.51,1.28 3.66,0.74 3.35,-0.01 3.04,-0.78 2.50,-0.97 1.97,-1.17 1.38,-1.29 0.79,-1.40 0.19,-1.48 -0.40,-1.56 -0.83,-1.22 -1.26,-0.88 -1.91,-0.35 -2.56,0.18 -3.08,0.63 -3.59,1.09 -3.93,1.60 -4.28,2.12 -4.25,2.66 -4.23,3.20 -3.56,3.45 -2.89,3.69 -1.85,3.30 -0.82,2.90 -0.19,2.32 0.43,1.73 0.12,1.16 -0.19,0.58 -0.54,0.07 -0.89,-0.43 -1.57,0.12 -2.24,0.68 -2.58,1.46 -2.92,2.23 -2.59,2.81 -2.26,3.38 -1.48,3.80 -0.69,4.21 -0.13,3.40 0.43,2.60 -0.38,1.64 -1.19,0.68 -1.18,0.60 -1.18,0.53 -1.16,0.45 -1.13,0.37 -1.09,0.31 -1.05,0.24 -1.00,0.18 -0.94,0.13 -0.87,0.09 -0.80,0.04 -0.73,0.02 -0.65,0.00 -0.57,-0.00 -0.49,-0.00 -0.42,0.00 -0.34,0.02 -0.27,0.05 -0.19,0.08 -0.13,0.13 -0.07,0.18 -0.02,0.24 0.02,0.30 0.05,0.38 0.08,0.45 0.10,0.53 0.11,0.60 -0.16,0.95 -0.44,1.29 -0.55,1.29 -0.65,1.29 -0.75,1.25 -0.85,1.22 -0.94,1.15 -1.02,1.09 -1.08,1.00 -1.14,0.91 -1.16,0.81 -1.19,0.70 -1.18,0.60 -1.17,0.49 -1.13,0.39 -1.09,0.29 -1.02,0.22 -0.95,0.14 -0.86,0.08 -0.77,0.03 -0.66,0.01 -0.56,-0.00 -0.45,0.00 -0.35,0.01 -0.25,0.06 -0.16,0.11 -0.08,0.18 -0.00,0.26 0.03,0.35 0.08,0.44 0.10,0.55 0.11,0.66 0.09,0.76 0.07,0.86 0.02,0.96 -0.02,1.05 -0.10,1.12 -0.18,1.19 -0.27,1.24 -0.37,1.28 -0.48,1.29 -0.58,1.30 -0.68,1.27 -0.79,1.25 -0.88,1.19 -0.97,1.14 -1.04,1.05 -1.10,0.97 -1.14,0.87 -1.18,0.77 -1.18,0.67 -1.19,0.56 -1.16,0.46 -1.13,0.36 -1.06,0.27 -1.00,0.18 -0.92,0.12 -0.83,0.06 -1.01,0.37 -1.19,0.68 -1.18,0.60 -1.18,0.53 -1.16,0.45 -1.13,0.37 -1.09,0.31 -1.05,0.24 -1.00,0.18 -0.94,0.13 -0.87,0.09 -0.80,0.04 -0.73,0.02 -0.65,0.00 -0.57,-0.00 -0.49,-0.00 -0.42,0.00 -0.34,0.02 -0.27,0.05 -0.19,0.08 -0.13,0.13 -0.07,0.18 -0.02,0.24 0.02,0.30 0.05,0.38 0.08,0.45 0.10,0.53 0.11,0.60 1.56,1.16 3.01,1.71 2.96,2.77 2.91,3.82 2.38,4.65 1.85,5.48 1.05,6.10 0.26,6.72 -0.72,6.76 -1.70,6.80 -2.77,6.26 -3.84,5.71 -4.36,5.08 -4.88,4.46 -5.26,3.14 -5.65,1.82 -5.36,0.83 -5.07,-0.15 -4.46,-0.91 -3.85,-1.66 -3.20,-2.07 -2.56,-2.48 -1.50,-2.70 -0.45,-2.93 0.58,-2.33 1.61,-1.74 2.00,-1.17 2.40,-0.60 2.69,0.15 2.97,0.91 2.89,1.96 2.80,3.02 2.15,3.85 1.49,4.69 0.82,5.10 0.15,5.51 -0.70,5.81 -1.56,6.11 -2.57,6.22 -3.58,6.33 -4.51,5.97 -5.45,5.61 -6.13,4.81 -6.82,4.01 -6.96,2.97 -7.10,1.94 -6.83,1.24 -6.56,0.54 -6.00,-0.21 -5.44,-0.98 -4.87,-1.48 -4.30,-1.98 -3.44,-2.66 -2.57,-3.34 -1.47,-3.81 -0.38,-4.28 0.54,-4.19 1.46,-4.11 2.40,-3.84 3.34,-3.58 4.34,-2.88 5.33,-2.18 5.70,-1.39 6.06,-0.60 6.12,0.44 6.19,1.49 5.80,2.47 5.40,3.44 4.65,4.30 3.90,5.15 2.86,5.93 1.81,6.72 0.34,7.49 -1.11,8.27 -2.28,8.38 -3.45,8.50 -4.30,8.13 -5.15,7.75 -5.59,7.17 -6.03,6.60 -6.34,5.88 -6.64,5.17 -6.69,4.16 -6.73,3.15 -6.43,2.47 -6.12,1.78 -5.72,0.98 -5.31,0.18 -4.65,-0.23 -3.98,-0.65 -2.64,-0.85 -1.31,-1.06 -0.65,-0.86 0,-0.65 0.07,-0.64 0.15,-0.63 0.23,-0.60 0.30,-0.58 0.37,-0.53 0.43,-0.49 0.48,-0.43 0.54,-0.37 0.57,-0.30 0.61,-0.23 0.63,-0.15 0.65,-0.07 0.65,0.00 0.65,0.07 0.63,0.15 0.61,0.23 0.57,0.30 0.54,0.37 0.48,0.43 0.43,0.49 0.37,0.53 0.30,0.58 0.23,0.60 0.15,0.63 0.07,0.64 -0.00,0.65 -0.00,0.65 L 0,0.65 Z"/></g><g transform="translate(277.01470947265625 73.14024353027344) rotate(0 1.141082763671875 11.791244506835938)" stroke="none"><path fill="#1e1e1e" d="M 0.62,-0.20 Q 0.62,-0.20 1.15,0.33 1.68,0.88 2.18,2.10 2.67,3.33 2.75,4.12 2.83,4.92 3.02,5.62 3.21,6.32 3.38,7.15 3.55,7.98 3.61,8.75 3.66,9.52 3.68,10.06 3.70,10.59 3.71,11.45 3.73,12.32 3.73,13.10 3.73,13.88 3.73,14.64 3.74,15.41 3.74,16.17 3.74,16.93 3.74,17.69 3.74,18.45 3.74,19.21 3.74,19.97 2.97,21.79 2.20,23.60 2.15,23.69 2.10,23.79 2.03,23.86 1.95,23.94 1.85,23.98 1.76,24.03 1.65,24.04 1.55,24.05 1.44,24.03 1.34,24.01 1.25,23.96 1.16,23.90 1.09,23.82 1.02,23.74 0.98,23.64 0.94,23.55 0.93,23.44 0.92,23.33 0.95,23.23 0.98,23.13 1.03,23.04 1.09,22.95 1.18,22.89 1.26,22.82 1.36,22.79 1.46,22.75 1.57,22.75 1.67,22.75 1.77,22.78 1.88,22.81 1.96,22.88 2.05,22.94 2.11,23.03 2.17,23.11 2.20,23.22 2.23,23.32 2.22,23.42 2.22,23.53 2.18,23.63 2.14,23.73 2.07,23.81 2.01,23.89 1.92,23.95 1.83,24.00 1.72,24.03 1.62,24.05 1.51,24.04 1.41,24.03 1.31,23.99 1.21,23.94 1.13,23.87 1.06,23.80 1.01,23.71 0.96,23.61 0.94,23.51 0.92,23.40 0.93,23.30 0.95,23.19 0.95,23.19 0.95,23.19 0.88,21.20 0.82,19.21 0.82,18.45 0.81,17.69 0.81,16.93 0.81,16.17 0.82,15.41 0.82,14.65 0.82,13.88 0.82,13.12 0.82,12.33 0.81,11.54 0.79,10.62 0.77,9.69 0.72,8.64 0.67,7.58 0.35,6.36 0.04,5.14 -0.02,4.06 -0.09,2.99 -0.45,2.36 -0.81,1.73 -0.71,0.97 -0.62,0.20 -0.63,0.13 -0.65,0.05 -0.65,-0.02 -0.64,-0.10 -0.62,-0.18 -0.60,-0.25 -0.56,-0.32 -0.52,-0.39 -0.46,-0.45 -0.41,-0.50 -0.34,-0.55 -0.28,-0.59 -0.20,-0.61 -0.13,-0.64 -0.05,-0.64 0.02,-0.65 0.10,-0.64 0.18,-0.63 0.25,-0.59 0.32,-0.56 0.39,-0.52 0.45,-0.47 0.50,-0.41 0.55,-0.35 0.58,-0.27 0.62,-0.20 0.62,-0.20 L 0.62,-0.20 Z"/></g><g transform="translate(279.296875 99.00492858886719) rotate(0 -1.14105224609375 4.1839752197265625)" stroke="none"><path fill="#1e1e1e" d="M -0.36,0.54 Q -0.36,0.54 -1.09,0.35 -1.82,0.16 -2.41,0.31 -3.00,0.46 -3.60,1.45 -4.21,2.45 -4.58,3.37 -4.96,4.29 -4.87,5.09 -4.79,5.89 -4.40,6.54 -4.02,7.18 -3.48,7.87 -2.94,8.56 -1.88,8.61 -0.83,8.66 -0.05,8.07 0.72,7.48 1.25,6.87 1.79,6.26 2.17,5.26 2.55,4.25 2.71,3.44 2.88,2.63 2.74,1.84 2.61,1.05 1.72,0.33 0.83,-0.39 -0.10,0.30 -1.04,0.99 -1.40,1.70 -1.76,2.42 -1.91,3.07 -2.06,3.72 -2.14,4.61 -2.21,5.49 -2.05,6.06 -1.89,6.63 -1.12,6.32 -0.35,6.01 0.31,5.52 0.97,5.02 1.41,4.46 1.84,3.90 1.23,3.77 0.61,3.64 -0.06,4.04 -0.74,4.45 -0.15,3.62 0.42,2.79 0.95,2.88 1.48,2.98 -0.05,3.89 -1.59,4.81 -1.67,4.87 -1.76,4.93 -1.86,4.96 -1.97,4.99 -2.07,4.98 -2.18,4.97 -2.28,4.93 -2.38,4.89 -2.46,4.82 -2.54,4.75 -2.59,4.66 -2.64,4.57 -2.67,4.46 -2.69,4.36 -2.68,4.26 -2.66,4.15 -2.62,4.05 -2.57,3.96 -2.50,3.88 -2.42,3.80 -2.33,3.76 -2.24,3.71 -2.13,3.69 -2.03,3.68 -1.92,3.69 -1.82,3.71 -1.72,3.76 -1.63,3.81 -1.56,3.89 -1.48,3.97 -1.44,4.07 -1.40,4.16 -1.39,4.27 -1.38,4.37 -1.40,4.48 -1.42,4.58 -1.48,4.67 -1.54,4.76 -1.62,4.83 -1.70,4.90 -1.80,4.94 -1.90,4.97 -2.00,4.98 -2.11,4.98 -2.21,4.95 -2.31,4.92 -2.40,4.86 -2.49,4.80 -2.55,4.72 -2.62,4.63 -2.65,4.53 -2.68,4.43 -2.68,4.32 -2.68,4.22 -2.64,4.12 -2.61,4.02 -2.54,3.93 -2.48,3.85 -2.48,3.85 -2.48,3.85 -1.06,2.28 0.35,0.72 1.20,0.65 2.06,0.57 2.69,1.19 3.32,1.81 3.22,2.73 3.11,3.65 2.70,4.27 2.29,4.88 1.54,5.51 0.80,6.14 0.12,6.47 -0.56,6.79 -1.33,6.73 -2.10,6.66 -2.80,5.66 -3.50,4.67 -3.36,4.01 -3.23,3.36 -2.83,2.78 -2.43,2.20 -1.82,1.78 -1.20,1.36 -0.39,1.07 0.41,0.78 1.65,0.84 2.90,0.90 3.71,1.66 4.53,2.41 4.65,3.29 4.77,4.18 4.42,4.95 4.07,5.73 3.36,6.54 2.66,7.35 1.67,8.03 0.68,8.70 -0.61,9.06 -1.91,9.41 -2.91,9.02 -3.91,8.63 -4.50,7.74 -5.09,6.85 -5.10,6.03 -5.11,5.22 -4.99,4.09 -4.88,2.97 -4.59,1.98 -4.30,0.98 -3.61,-0.10 -2.93,-1.20 -2.09,-1.88 -1.25,-2.55 -0.21,-2.91 0.82,-3.28 1.71,-2.98 2.59,-2.68 3.37,-2.04 4.15,-1.39 4.76,-0.42 5.37,0.54 5.49,1.86 5.61,3.19 5.35,4.26 5.08,5.32 4.46,6.69 3.83,8.06 3.02,8.91 2.22,9.75 0.87,10.54 -0.47,11.32 -1.77,11.34 -3.06,11.37 -4.03,10.84 -5.00,10.30 -5.72,9.36 -6.44,8.41 -6.96,7.25 -7.48,6.09 -7.48,4.72 -7.47,3.35 -7.00,2.24 -6.53,1.13 -5.87,0.10 -5.20,-0.92 -3.79,-1.49 -2.39,-2.06 -1.59,-1.99 -0.79,-1.91 -0.21,-1.23 0.36,-0.54 0.42,-0.49 0.48,-0.44 0.53,-0.37 0.57,-0.31 0.60,-0.24 0.63,-0.16 0.64,-0.08 0.65,-0.01 0.64,0.06 0.64,0.14 0.61,0.22 0.58,0.29 0.54,0.36 0.49,0.42 0.44,0.48 0.38,0.53 0.31,0.57 0.24,0.61 0.16,0.63 0.08,0.65 0.01,0.65 -0.06,0.65 -0.14,0.63 -0.22,0.61 -0.29,0.58 -0.36,0.54 -0.36,0.54 L -0.36,0.54 Z"/></g><g transform="translate(276.25396728515625 108.13362121582031) rotate(0 0.7607421875 9.889434814453125)" stroke="none"><path fill="#1e1e1e" d="M 0.63,-0.15 Q 0.63,-0.15 1.17,0.63 1.70,1.43 1.83,2.07 1.96,2.71 2.04,3.68 2.12,4.65 2.13,5.28 2.14,5.92 2.05,6.63 1.97,7.34 2.34,7.81 2.72,8.27 2.82,9.15 2.93,10.04 2.95,10.82 2.97,11.60 2.98,12.36 3.00,13.12 3.00,13.89 3.01,14.65 3.01,15.41 3.02,16.17 2.15,18.18 1.28,20.20 1.19,20.25 1.09,20.30 0.99,20.31 0.88,20.33 0.78,20.31 0.68,20.29 0.58,20.24 0.49,20.19 0.42,20.11 0.34,20.03 0.30,19.94 0.26,19.84 0.25,19.73 0.24,19.63 0.26,19.52 0.29,19.42 0.34,19.33 0.40,19.24 0.48,19.17 0.56,19.11 0.66,19.07 0.76,19.03 0.87,19.02 0.97,19.02 1.07,19.05 1.18,19.08 1.26,19.14 1.35,19.20 1.41,19.29 1.48,19.37 1.51,19.47 1.54,19.57 1.54,19.68 1.54,19.79 1.50,19.89 1.47,19.99 1.40,20.07 1.34,20.16 1.25,20.21 1.16,20.27 1.06,20.30 0.96,20.33 0.85,20.32 0.74,20.31 0.65,20.27 0.55,20.23 0.47,20.16 0.39,20.09 0.33,20.00 0.28,19.91 0.26,19.80 0.24,19.70 0.25,19.59 0.26,19.49 0.31,19.39 0.35,19.30 0.43,19.22 0.50,19.14 0.50,19.14 0.50,19.14 0.26,17.66 0.02,16.17 0.02,15.41 0.03,14.65 0.03,13.89 0.04,13.13 0.04,12.37 0.05,11.62 0.05,10.90 0.06,10.17 0.14,9.62 0.23,9.07 -0.10,8.60 -0.45,8.13 -0.54,7.04 -0.64,5.95 -0.64,5.35 -0.64,4.76 -0.68,3.95 -0.71,3.14 -0.77,2.60 -0.83,2.06 -0.73,1.11 -0.63,0.15 -0.64,0.08 -0.65,0.00 -0.64,-0.07 -0.63,-0.15 -0.61,-0.22 -0.58,-0.30 -0.53,-0.36 -0.49,-0.43 -0.43,-0.48 -0.37,-0.53 -0.30,-0.57 -0.23,-0.61 -0.15,-0.63 -0.08,-0.65 -0.00,-0.65 0.07,-0.65 0.15,-0.63 0.23,-0.61 0.30,-0.57 0.37,-0.54 0.43,-0.48 0.49,-0.43 0.53,-0.37 0.58,-0.30 0.60,-0.23 0.63,-0.15 0.63,-0.15 L 0.63,-0.15 Z"/></g><g transform="translate(277.77545166015625 127.15177917480469) rotate(0 0.38037109375 10.269790649414062)" stroke="none"><path fill="#1e1e1e" d="M 0,0.65 Q 0,0.65 -0.63,1.05 -1.26,1.44 -2.31,1.77 -3.36,2.10 -4.43,2.81 -5.49,3.51 -6.14,4.28 -6.79,5.04 -7.29,5.77 -7.78,6.50 -8.15,7.54 -8.52,8.58 -8.45,9.49 -8.38,10.40 -8.38,11.77 -8.37,13.14 -7.97,14.14 -7.57,15.14 -7.21,15.78 -6.86,16.41 -6.53,16.86 -6.20,17.30 -5.75,17.59 -5.30,17.88 -4.69,18.24 -4.08,18.60 -3.37,18.68 -2.67,18.77 -1.84,18.62 -1.01,18.47 0.00,18.20 1.02,17.94 1.85,17.63 2.68,17.31 3.62,16.78 4.55,16.25 5.14,15.83 5.73,15.41 6.31,14.69 6.88,13.96 7.64,13.14 8.40,12.33 8.79,11.33 9.18,10.34 9.13,9.47 9.07,8.60 8.68,7.72 8.29,6.83 7.78,6.09 7.27,5.35 6.38,4.97 5.49,4.59 4.73,4.40 3.96,4.20 2.71,3.88 1.46,3.56 0.59,3.43 -0.27,3.31 -0.88,3.45 -1.49,3.58 -2.68,4.03 -3.87,4.49 -3.91,4.58 -3.95,4.68 -4.02,4.76 -4.09,4.84 -4.18,4.90 -4.27,4.95 -4.38,4.97 -4.48,4.99 -4.59,4.98 -4.69,4.97 -4.79,4.92 -4.88,4.87 -4.96,4.80 -5.04,4.72 -5.08,4.63 -5.13,4.54 -5.15,4.43 -5.16,4.33 -5.14,4.22 -5.13,4.12 -5.07,4.02 -5.02,3.93 -4.94,3.86 -4.87,3.79 -4.77,3.74 -4.67,3.70 -4.57,3.69 -4.46,3.68 -4.36,3.70 -4.25,3.73 -4.16,3.79 -4.07,3.84 -4.01,3.92 -3.94,4.01 -3.90,4.10 -3.86,4.20 -3.86,4.31 -3.85,4.42 -3.88,4.52 -3.91,4.62 -3.98,4.71 -4.04,4.79 -4.12,4.86 -4.21,4.92 -4.31,4.95 -4.41,4.99 -4.52,4.98 -4.62,4.98 -4.72,4.95 -4.82,4.91 -4.91,4.85 -4.99,4.78 -5.05,4.69 -5.11,4.60 -5.13,4.50 -5.16,4.40 -5.15,4.29 -5.15,4.18 -5.15,4.18 -5.15,4.18 -3.61,2.34 -2.07,0.50 -0.97,0.32 0.12,0.14 1.19,0.29 2.27,0.45 3.55,0.79 4.84,1.12 5.91,1.45 6.99,1.77 8.38,2.62 9.78,3.47 10.51,4.58 11.24,5.70 11.72,7.12 12.20,8.55 12.12,10.02 12.05,11.50 11.37,12.93 10.69,14.37 9.97,15.16 9.24,15.94 8.38,16.92 7.52,17.91 6.78,18.42 6.05,18.93 4.90,19.56 3.76,20.19 2.77,20.55 1.78,20.92 0.59,21.21 -0.59,21.51 -1.88,21.65 -3.17,21.79 -4.37,21.53 -5.57,21.26 -6.35,20.81 -7.12,20.35 -7.88,19.74 -8.64,19.14 -9.10,18.51 -9.55,17.89 -10.01,17.03 -10.46,16.18 -10.95,14.70 -11.43,13.22 -11.44,11.84 -11.46,10.46 -11.44,9.02 -11.42,7.58 -10.87,6.18 -10.33,4.77 -9.70,3.87 -9.07,2.98 -8.11,1.96 -7.15,0.94 -6.22,0.36 -5.29,-0.20 -4.09,-0.57 -2.89,-0.93 -2.12,-1.19 -1.36,-1.44 -0.68,-1.05 0,-0.65 0.07,-0.64 0.15,-0.63 0.23,-0.60 0.30,-0.58 0.37,-0.53 0.43,-0.49 0.48,-0.43 0.54,-0.37 0.57,-0.30 0.61,-0.23 0.63,-0.15 0.65,-0.07 0.65,0.00 0.65,0.07 0.63,0.15 0.61,0.23 0.57,0.30 0.54,0.37 0.48,0.43 0.43,0.49 0.37,0.53 0.30,0.58 0.23,0.60 0.15,0.63 0.07,0.64 -0.00,0.65 -0.00,0.65 L 0,0.65 Z"/></g><g transform="translate(275.4932861328125 129.43394470214844) rotate(0 0.760711669921875 7.6072540283203125)" stroke="none"><path fill="#1e1e1e" d="M 0.65,0 Q 0.65,0 0.95,1.53 1.25,3.06 1.49,4.72 1.72,6.38 2.03,7.96 2.34,9.53 2.46,10.47 2.58,11.40 2.37,13.11 2.16,14.82 2.14,14.93 2.13,15.04 2.09,15.13 2.04,15.23 1.97,15.30 1.89,15.38 1.80,15.43 1.70,15.48 1.60,15.49 1.49,15.51 1.39,15.49 1.28,15.47 1.19,15.42 1.10,15.37 1.03,15.29 0.95,15.21 0.91,15.12 0.87,15.02 0.86,14.91 0.85,14.81 0.87,14.71 0.89,14.60 0.95,14.51 1.01,14.42 1.09,14.35 1.17,14.29 1.27,14.25 1.37,14.21 1.47,14.21 1.58,14.20 1.68,14.23 1.78,14.26 1.87,14.32 1.96,14.38 2.02,14.47 2.09,14.55 2.12,14.65 2.15,14.75 2.15,14.86 2.15,14.97 2.11,15.07 2.08,15.17 2.01,15.25 1.95,15.33 1.86,15.39 1.77,15.45 1.67,15.48 1.56,15.51 1.46,15.50 1.35,15.49 1.25,15.45 1.16,15.41 1.08,15.34 1.00,15.27 0.94,15.18 0.89,15.09 0.87,14.98 0.85,14.88 0.85,14.88 0.85,14.88 0.45,13.33 0.06,11.77 -0.07,10.90 -0.21,10.02 -0.53,8.37 -0.85,6.71 -1.05,4.88 -1.25,3.06 -0.95,1.53 -0.65,0 -0.64,-0.07 -0.63,-0.15 -0.60,-0.23 -0.58,-0.30 -0.53,-0.37 -0.49,-0.43 -0.43,-0.48 -0.37,-0.54 -0.30,-0.57 -0.23,-0.61 -0.15,-0.63 -0.07,-0.65 0.00,-0.65 0.07,-0.65 0.15,-0.63 0.23,-0.61 0.30,-0.57 0.37,-0.54 0.43,-0.48 0.49,-0.43 0.53,-0.37 0.58,-0.30 0.60,-0.23 0.63,-0.15 0.64,-0.07 0.65,0.00 0.65,0.00 L 0.65,0 Z"/></g><g transform="translate(531.8578491210938 62.49006652832031) rotate(0 3.8035888671875 7.607269287109375)" stroke="none"><path fill="#1e1e1e" d="M 0.58,-0.29 Q 0.58,-0.29 1.58,0.84 2.58,1.99 3.32,3.67 4.06,5.35 4.77,6.65 5.49,7.95 6.20,9.16 6.91,10.37 7.55,12.83 8.19,15.29 8.18,15.40 8.18,15.50 8.14,15.60 8.10,15.70 8.03,15.78 7.96,15.86 7.87,15.92 7.78,15.97 7.68,15.99 7.57,16.02 7.47,16.00 7.36,15.99 7.26,15.95 7.17,15.90 7.09,15.83 7.01,15.76 6.96,15.66 6.91,15.57 6.90,15.46 6.88,15.36 6.90,15.25 6.92,15.15 6.97,15.05 7.02,14.96 7.09,14.89 7.17,14.82 7.27,14.77 7.36,14.73 7.47,14.72 7.57,14.70 7.68,14.73 7.78,14.75 7.87,14.81 7.96,14.86 8.03,14.94 8.10,15.02 8.14,15.12 8.18,15.22 8.18,15.33 8.19,15.43 8.16,15.53 8.13,15.64 8.07,15.72 8.01,15.81 7.93,15.88 7.84,15.94 7.74,15.97 7.64,16.01 7.54,16.01 7.43,16.01 7.33,15.97 7.23,15.94 7.14,15.87 7.06,15.81 7.00,15.72 6.94,15.63 6.91,15.53 6.88,15.43 6.88,15.43 6.88,15.43 5.72,13.63 4.55,11.84 3.75,10.58 2.96,9.33 2.19,7.91 1.42,6.49 0.73,4.87 0.04,3.25 -0.27,1.77 -0.58,0.29 -0.61,0.21 -0.64,0.14 -0.64,0.06 -0.65,-0.01 -0.64,-0.09 -0.63,-0.16 -0.60,-0.24 -0.57,-0.31 -0.52,-0.38 -0.48,-0.44 -0.42,-0.49 -0.36,-0.54 -0.29,-0.58 -0.22,-0.61 -0.14,-0.63 -0.06,-0.65 0.01,-0.65 0.09,-0.65 0.16,-0.62 0.24,-0.60 0.31,-0.57 0.38,-0.53 0.44,-0.47 0.50,-0.42 0.54,-0.35 0.58,-0.29 0.58,-0.29 L 0.58,-0.29 Z"/></g><g transform="translate(530.3363647460938 78.46531677246094) rotate(0 7.2269287109375 -7.6072540283203125)" stroke="none"><path fill="#1e1e1e" d="M -0.49,-0.43 Q -0.49,-0.43 1.09,-2.55 2.67,-4.67 4.48,-6.82 6.29,-8.98 8.10,-10.48 9.90,-11.98 11.59,-13.48 13.28,-14.99 13.36,-15.05 13.45,-15.11 13.55,-15.14 13.65,-15.17 13.76,-15.16 13.87,-15.16 13.97,-15.12 14.06,-15.08 14.15,-15.01 14.23,-14.95 14.28,-14.86 14.34,-14.77 14.36,-14.66 14.39,-14.56 14.38,-14.45 14.37,-14.35 14.32,-14.25 14.28,-14.15 14.21,-14.08 14.13,-14.00 14.04,-13.95 13.95,-13.90 13.84,-13.88 13.74,-13.86 13.63,-13.88 13.53,-13.89 13.43,-13.94 13.34,-13.99 13.27,-14.07 13.19,-14.14 13.15,-14.24 13.10,-14.33 13.09,-14.44 13.08,-14.54 13.10,-14.65 13.12,-14.75 13.17,-14.84 13.23,-14.94 13.31,-15.01 13.39,-15.07 13.49,-15.12 13.58,-15.16 13.69,-15.16 13.80,-15.17 13.90,-15.14 14.00,-15.11 14.09,-15.06 14.18,-15.00 14.24,-14.91 14.31,-14.83 14.34,-14.73 14.38,-14.63 14.38,-14.52 14.38,-14.42 14.35,-14.32 14.32,-14.21 14.25,-14.13 14.19,-14.04 14.19,-14.04 14.19,-14.04 12.62,-12.40 11.06,-10.76 9.55,-9.12 8.05,-7.48 6.18,-5.34 4.32,-3.20 2.40,-1.38 0.49,0.43 0.43,0.48 0.37,0.54 0.30,0.57 0.23,0.61 0.15,0.63 0.07,0.65 -0.00,0.65 -0.08,0.65 -0.15,0.63 -0.23,0.61 -0.30,0.57 -0.37,0.53 -0.43,0.48 -0.49,0.43 -0.53,0.36 -0.58,0.30 -0.60,0.23 -0.63,0.15 -0.64,0.07 -0.65,-0.00 -0.64,-0.07 -0.63,-0.15 -0.60,-0.23 -0.58,-0.30 -0.53,-0.37 -0.49,-0.43 -0.49,-0.43 L -0.49,-0.43 Z"/></g><g transform="translate(205.5064697265625 10) rotate(0 6.4661865234375 0.7607269287109375)" stroke="none"><path fill="#1e1e1e" d="M 0.24,-0.60 Q 0.24,-0.60 1.43,-0.48 2.63,-0.35 3.73,-0.45 4.83,-0.54 6.28,-0.55 7.74,-0.55 8.57,-0.54 9.41,-0.54 10.99,-0.21 12.58,0.10 12.68,0.12 12.79,0.13 12.88,0.18 12.98,0.23 13.05,0.31 13.12,0.39 13.17,0.48 13.21,0.58 13.22,0.69 13.23,0.79 13.21,0.89 13.19,1.00 13.13,1.09 13.08,1.18 13.00,1.25 12.92,1.32 12.82,1.36 12.72,1.40 12.61,1.40 12.51,1.41 12.41,1.38 12.30,1.35 12.22,1.29 12.13,1.23 12.06,1.15 12.00,1.07 11.96,0.96 11.93,0.86 11.93,0.76 11.93,0.65 11.96,0.55 12.00,0.45 12.06,0.37 12.13,0.28 12.21,0.22 12.30,0.16 12.40,0.13 12.51,0.10 12.61,0.11 12.72,0.11 12.82,0.15 12.92,0.19 13.00,0.26 13.08,0.33 13.13,0.42 13.19,0.51 13.21,0.62 13.23,0.72 13.22,0.83 13.21,0.93 13.17,1.03 13.12,1.12 13.05,1.20 12.98,1.28 12.88,1.33 12.79,1.38 12.68,1.40 12.58,1.41 12.58,1.41 12.58,1.41 11.00,1.74 9.42,2.07 8.59,2.09 7.76,2.11 6.33,2.14 4.89,2.16 3.31,2.13 1.74,2.10 0.74,1.35 -0.24,0.60 -0.31,0.57 -0.38,0.53 -0.44,0.48 -0.49,0.42 -0.54,0.36 -0.58,0.29 -0.61,0.22 -0.64,0.14 -0.64,0.06 -0.65,-0.01 -0.64,-0.09 -0.63,-0.16 -0.60,-0.24 -0.57,-0.31 -0.52,-0.37 -0.48,-0.44 -0.42,-0.49 -0.36,-0.54 -0.29,-0.58 -0.22,-0.61 -0.14,-0.63 -0.06,-0.65 0.01,-0.65 0.09,-0.65 0.16,-0.63 0.24,-0.60 0.24,-0.60 L 0.24,-0.60 Z"/></g><g transform="translate(210.83160400390625 12.282180786132812) rotate(0 -0.7607421875 5.7054443359375)" stroke="none"><path fill="#1e1e1e" d="M 0.64,0.12 Q 0.64,0.12 0.68,1.27 0.73,2.42 0.43,3.59 0.14,4.76 0.04,5.60 -0.05,6.43 -0.10,7.21 -0.14,7.99 -0.21,9.41 -0.27,10.83 -0.25,10.93 -0.23,11.03 -0.24,11.14 -0.26,11.25 -0.30,11.34 -0.35,11.44 -0.42,11.51 -0.50,11.59 -0.59,11.64 -0.69,11.68 -0.79,11.70 -0.90,11.71 -1.00,11.70 -1.11,11.68 -1.20,11.62 -1.29,11.57 -1.37,11.49 -1.44,11.42 -1.48,11.32 -1.52,11.22 -1.53,11.12 -1.54,11.01 -1.52,10.91 -1.49,10.80 -1.44,10.71 -1.38,10.62 -1.30,10.56 -1.21,10.49 -1.12,10.45 -1.02,10.41 -0.91,10.41 -0.80,10.41 -0.70,10.44 -0.60,10.47 -0.51,10.53 -0.43,10.59 -0.36,10.68 -0.30,10.76 -0.27,10.86 -0.24,10.96 -0.24,11.07 -0.24,11.18 -0.28,11.28 -0.31,11.38 -0.38,11.46 -0.44,11.54 -0.53,11.60 -0.62,11.66 -0.73,11.69 -0.83,11.71 -0.93,11.70 -1.04,11.70 -1.14,11.66 -1.24,11.61 -1.32,11.54 -1.40,11.47 -1.45,11.38 -1.50,11.29 -1.50,11.29 -1.50,11.29 -2.11,9.55 -2.72,7.82 -2.66,6.94 -2.59,6.07 -2.42,5.08 -2.26,4.09 -1.93,3.02 -1.60,1.95 -1.12,0.91 -0.64,-0.12 -0.61,-0.20 -0.59,-0.27 -0.55,-0.34 -0.51,-0.41 -0.45,-0.46 -0.39,-0.52 -0.32,-0.56 -0.25,-0.60 -0.18,-0.62 -0.10,-0.64 -0.02,-0.65 0.05,-0.65 0.12,-0.63 0.20,-0.62 0.27,-0.59 0.34,-0.55 0.41,-0.50 0.47,-0.45 0.51,-0.39 0.56,-0.33 0.59,-0.25 0.63,-0.18 0.64,-0.10 0.65,-0.02 0.64,0.04 0.64,0.12 0.64,0.12 L 0.64,0.12 Z"/></g><g transform="translate(225.28533935546875 13.803634643554688) rotate(0 -1.14105224609375 3.8036270141601562)" stroke="none"><path fill="#1e1e1e" d="M 0.15,0.63 Q 0.15,0.63 -0.61,1.20 -1.38,1.77 -1.97,2.23 -2.57,2.68 -3.18,3.42 -3.80,4.16 -3.99,5.13 -4.17,6.10 -3.66,6.57 -3.14,7.04 -2.49,6.77 -1.83,6.50 -0.90,6.04 0.01,5.58 0.74,4.83 1.46,4.08 1.74,3.62 2.02,3.16 1.99,2.11 1.96,1.06 1.46,0.77 0.97,0.47 0.34,0.27 -0.27,0.06 -1.68,0.58 -3.09,1.09 -3.19,1.13 -3.29,1.17 -3.39,1.18 -3.50,1.19 -3.60,1.16 -3.70,1.13 -3.79,1.07 -3.88,1.01 -3.95,0.93 -4.01,0.85 -4.05,0.75 -4.08,0.64 -4.08,0.54 -4.08,0.43 -4.05,0.33 -4.02,0.23 -3.96,0.15 -3.89,0.06 -3.80,0.00 -3.72,-0.05 -3.62,-0.08 -3.51,-0.11 -3.41,-0.11 -3.30,-0.10 -3.20,-0.06 -3.10,-0.02 -3.02,0.03 -2.94,0.10 -2.88,0.19 -2.83,0.28 -2.80,0.39 -2.78,0.49 -2.79,0.59 -2.80,0.70 -2.84,0.80 -2.89,0.89 -2.96,0.97 -3.03,1.05 -3.13,1.10 -3.22,1.15 -3.32,1.17 -3.43,1.19 -3.53,1.17 -3.64,1.16 -3.73,1.11 -3.83,1.06 -3.90,0.98 -3.97,0.91 -4.02,0.81 -4.07,0.71 -4.08,0.61 -4.09,0.50 -4.07,0.40 -4.05,0.30 -3.99,0.20 -3.94,0.11 -3.86,0.04 -3.78,-0.02 -3.78,-0.02 -3.78,-0.02 -1.85,-1.17 0.07,-2.32 1.37,-2.00 2.67,-1.67 3.62,-0.73 4.56,0.21 4.76,1.52 4.95,2.82 4.70,3.75 4.44,4.67 3.95,5.39 3.47,6.12 2.38,7.13 1.29,8.14 0.02,8.73 -1.24,9.32 -2.67,9.47 -4.09,9.62 -5.35,8.74 -6.60,7.85 -6.81,6.63 -7.01,5.41 -6.53,3.88 -6.05,2.35 -5.10,1.33 -4.16,0.30 -3.13,-0.29 -2.11,-0.90 -1.13,-0.77 -0.15,-0.63 -0.08,-0.64 -0.00,-0.65 0.07,-0.64 0.15,-0.63 0.22,-0.61 0.30,-0.58 0.36,-0.53 0.43,-0.49 0.48,-0.43 0.53,-0.37 0.57,-0.30 0.61,-0.23 0.63,-0.15 0.65,-0.08 0.65,-0.00 0.65,0.07 0.63,0.15 0.61,0.23 0.57,0.30 0.54,0.37 0.48,0.43 0.43,0.49 0.37,0.53 0.30,0.58 0.23,0.60 0.15,0.63 0.15,0.63 L 0.15,0.63 Z"/></g><g transform="translate(234.4140625 13.04290771484375) rotate(0 -0.38037109375 4.9447174072265625)" stroke="none"><path fill="#1e1e1e" d="M 0.63,0.15 Q 0.63,0.15 0.72,1.10 0.80,2.05 0.75,3.19 0.69,4.34 0.63,5.49 0.57,6.65 0.52,7.98 0.47,9.31 0.49,9.41 0.52,9.52 0.51,9.62 0.50,9.73 0.45,9.82 0.41,9.92 0.33,10.00 0.26,10.08 0.17,10.13 0.07,10.18 -0.02,10.19 -0.13,10.21 -0.23,10.19 -0.34,10.18 -0.43,10.13 -0.52,10.08 -0.60,10.00 -0.67,9.92 -0.72,9.83 -0.76,9.73 -0.77,9.63 -0.78,9.52 -0.76,9.42 -0.74,9.31 -0.68,9.22 -0.63,9.13 -0.55,9.06 -0.47,8.99 -0.37,8.95 -0.27,8.91 -0.17,8.91 -0.06,8.90 0.03,8.93 0.14,8.96 0.22,9.02 0.31,9.08 0.38,9.16 0.44,9.24 0.48,9.35 0.51,9.45 0.51,9.55 0.51,9.66 0.48,9.76 0.44,9.86 0.38,9.94 0.32,10.03 0.23,10.09 0.14,10.15 0.04,10.18 -0.05,10.21 -0.16,10.20 -0.27,10.20 -0.37,10.16 -0.46,10.12 -0.55,10.05 -0.63,9.98 -0.68,9.89 -0.74,9.80 -0.74,9.80 -0.74,9.80 -1.36,8.18 -1.97,6.57 -1.96,5.35 -1.94,4.14 -1.81,2.79 -1.68,1.44 -1.16,0.64 -0.63,-0.15 -0.60,-0.23 -0.58,-0.30 -0.53,-0.37 -0.49,-0.43 -0.43,-0.48 -0.37,-0.54 -0.30,-0.57 -0.23,-0.61 -0.15,-0.63 -0.07,-0.65 0.00,-0.65 0.08,-0.65 0.15,-0.63 0.23,-0.61 0.30,-0.57 0.37,-0.53 0.43,-0.48 0.49,-0.43 0.53,-0.36 0.58,-0.30 0.61,-0.22 0.63,-0.15 0.64,-0.07 0.65,0.00 0.64,0.08 0.63,0.15 0.63,0.15 L 0.63,0.15 Z"/></g><g transform="translate(231.37115478515625 11.521453857421875) rotate(0 4.564361572265625 0)" stroke="none"><path fill="#1e1e1e" d="M 0,-0.65 Q 0,-0.65 0.87,-0.96 1.74,-1.27 2.33,-1.29 2.91,-1.31 3.40,-1.52 3.89,-1.74 4.98,-1.87 6.06,-2.00 7.66,-1.00 9.25,0.00 9.32,0.08 9.39,0.16 9.43,0.26 9.46,0.36 9.47,0.46 9.47,0.57 9.44,0.67 9.41,0.77 9.35,0.86 9.29,0.95 9.21,1.01 9.12,1.08 9.02,1.11 8.92,1.14 8.81,1.14 8.71,1.14 8.61,1.10 8.51,1.07 8.42,1.00 8.34,0.94 8.28,0.85 8.22,0.76 8.19,0.66 8.17,0.55 8.17,0.45 8.18,0.34 8.22,0.24 8.26,0.15 8.33,0.07 8.40,-0.00 8.49,-0.06 8.58,-0.11 8.69,-0.13 8.79,-0.15 8.90,-0.14 9.00,-0.13 9.10,-0.08 9.20,-0.04 9.27,0.03 9.35,0.10 9.40,0.20 9.45,0.29 9.46,0.39 9.48,0.50 9.46,0.60 9.44,0.71 9.39,0.80 9.34,0.90 9.26,0.97 9.18,1.04 9.08,1.08 8.99,1.13 8.88,1.14 8.78,1.15 8.67,1.12 8.57,1.10 8.48,1.04 8.39,0.99 8.39,0.99 8.39,0.99 7.36,0.87 6.33,0.75 5.52,0.81 4.71,0.87 3.83,1.09 2.94,1.31 2.34,1.29 1.74,1.27 0.87,0.96 0,0.65 -0.07,0.64 -0.15,0.63 -0.23,0.60 -0.30,0.58 -0.37,0.53 -0.43,0.49 -0.48,0.43 -0.54,0.37 -0.57,0.30 -0.61,0.23 -0.63,0.15 -0.65,0.07 -0.65,-0.00 -0.65,-0.07 -0.63,-0.15 -0.61,-0.23 -0.57,-0.30 -0.54,-0.37 -0.48,-0.43 -0.43,-0.49 -0.37,-0.53 -0.30,-0.58 -0.23,-0.60 -0.15,-0.63 -0.07,-0.64 0.00,-0.65 0.00,-0.65 L 0,-0.65 Z"/></g><g transform="translate(234.4140625 17.607269287109375) rotate(0 2.66253662109375 0.38036346435546875)" stroke="none"><path fill="#1e1e1e" d="M 0.20,-0.62 Q 0.20,-0.62 0.90,-0.64 1.61,-0.66 3.21,-0.64 4.81,-0.62 4.91,-0.61 5.02,-0.60 5.12,-0.55 5.21,-0.51 5.29,-0.44 5.37,-0.37 5.42,-0.28 5.47,-0.18 5.49,-0.08 5.51,0.02 5.50,0.12 5.48,0.23 5.43,0.32 5.38,0.42 5.31,0.49 5.23,0.57 5.14,0.61 5.04,0.66 4.94,0.67 4.83,0.68 4.73,0.66 4.62,0.64 4.53,0.59 4.44,0.54 4.37,0.46 4.30,0.38 4.26,0.28 4.22,0.18 4.21,0.08 4.20,-0.02 4.23,-0.12 4.25,-0.23 4.31,-0.32 4.37,-0.40 4.45,-0.47 4.54,-0.54 4.64,-0.57 4.74,-0.61 4.84,-0.61 4.95,-0.61 5.05,-0.58 5.15,-0.55 5.24,-0.48 5.32,-0.42 5.38,-0.33 5.45,-0.25 5.48,-0.15 5.51,-0.04 5.50,0.05 5.50,0.16 5.46,0.26 5.42,0.36 5.36,0.44 5.29,0.52 5.20,0.58 5.11,0.63 5.00,0.66 4.90,0.68 4.90,0.68 4.90,0.68 2.95,1.11 1.01,1.54 0.40,1.08 -0.20,0.62 -0.27,0.58 -0.35,0.55 -0.41,0.50 -0.47,0.45 -0.52,0.39 -0.56,0.32 -0.59,0.25 -0.63,0.18 -0.64,0.10 -0.65,0.02 -0.64,-0.05 -0.64,-0.13 -0.61,-0.20 -0.59,-0.28 -0.55,-0.34 -0.50,-0.41 -0.45,-0.46 -0.39,-0.52 -0.32,-0.56 -0.25,-0.60 -0.18,-0.62 -0.10,-0.64 -0.02,-0.65 0.05,-0.65 0.13,-0.63 0.20,-0.62 0.20,-0.62 L 0.20,-0.62 Z"/></g><g transform="translate(245.064208984375 10) rotate(0 0 6.4661712646484375)" stroke="none"><path fill="#1e1e1e" d="M 0.65,0 Q 0.65,0 0.86,0.87 1.07,1.74 1.11,2.55 1.14,3.36 1.18,5.02 1.22,6.68 1.21,8.04 1.20,9.40 0.93,10.99 0.65,12.58 0.63,12.68 0.62,12.79 0.57,12.88 0.52,12.97 0.44,13.05 0.36,13.12 0.27,13.17 0.17,13.21 0.07,13.22 -0.03,13.23 -0.13,13.21 -0.24,13.19 -0.33,13.13 -0.42,13.08 -0.49,13.00 -0.56,12.92 -0.60,12.82 -0.64,12.72 -0.64,12.61 -0.65,12.51 -0.62,12.40 -0.59,12.30 -0.53,12.21 -0.47,12.13 -0.39,12.06 -0.30,12.00 -0.20,11.96 -0.10,11.93 0.00,11.93 0.10,11.93 0.20,11.96 0.30,12.00 0.39,12.06 0.47,12.13 0.53,12.21 0.59,12.30 0.62,12.40 0.65,12.51 0.64,12.61 0.64,12.72 0.60,12.82 0.56,12.92 0.49,13.00 0.42,13.08 0.33,13.13 0.24,13.19 0.13,13.21 0.03,13.23 -0.07,13.22 -0.17,13.21 -0.27,13.17 -0.36,13.12 -0.44,13.05 -0.52,12.97 -0.57,12.88 -0.62,12.79 -0.63,12.68 -0.65,12.58 -0.65,12.58 -0.65,12.58 -0.93,10.99 -1.20,9.40 -1.21,8.04 -1.22,6.68 -1.18,5.02 -1.14,3.36 -1.11,2.55 -1.07,1.74 -0.86,0.87 -0.65,0 -0.64,-0.07 -0.63,-0.15 -0.60,-0.23 -0.58,-0.30 -0.53,-0.37 -0.49,-0.43 -0.43,-0.48 -0.37,-0.54 -0.30,-0.57 -0.23,-0.61 -0.15,-0.63 -0.07,-0.65 0.00,-0.65 0.07,-0.65 0.15,-0.63 0.23,-0.61 0.30,-0.57 0.37,-0.54 0.43,-0.48 0.49,-0.43 0.53,-0.37 0.58,-0.30 0.60,-0.23 0.63,-0.15 0.64,-0.07 0.65,0.00 0.65,0.00 L 0.65,0 Z"/></g><g transform="translate(243.54278564453125 11.521453857421875) rotate(0 4.183990478515625 -0.7607269287109375)" stroke="none"><path fill="#1e1e1e" d="M -0.20,-0.62 Q -0.20,-0.62 0.33,-1.18 0.88,-1.75 1.95,-1.90 3.03,-2.06 3.72,-2.30 4.42,-2.54 6.60,-1.56 8.79,-0.58 8.82,-0.48 8.86,-0.38 8.86,-0.27 8.87,-0.17 8.83,-0.07 8.80,0.02 8.74,0.11 8.68,0.20 8.59,0.26 8.51,0.32 8.40,0.35 8.30,0.38 8.20,0.38 8.09,0.38 7.99,0.34 7.89,0.30 7.81,0.24 7.73,0.17 7.67,0.08 7.61,-0.00 7.59,-0.10 7.56,-0.20 7.57,-0.31 7.58,-0.42 7.62,-0.51 7.66,-0.61 7.73,-0.69 7.80,-0.77 7.90,-0.82 7.99,-0.87 8.09,-0.89 8.20,-0.91 8.30,-0.90 8.41,-0.89 8.50,-0.84 8.60,-0.79 8.67,-0.72 8.75,-0.64 8.80,-0.55 8.84,-0.45 8.86,-0.34 8.87,-0.24 8.85,-0.14 8.83,-0.03 8.78,0.05 8.73,0.14 8.65,0.22 8.57,0.29 8.47,0.33 8.37,0.37 8.27,0.38 8.16,0.39 8.06,0.36 7.95,0.34 7.87,0.28 7.78,0.22 7.71,0.14 7.64,0.06 7.64,0.06 7.64,0.06 6.46,0.16 5.28,0.26 4.30,0.53 3.33,0.81 2.53,0.84 1.74,0.87 0.97,0.74 0.20,0.62 0.13,0.63 0.05,0.65 -0.02,0.65 -0.10,0.64 -0.18,0.62 -0.25,0.60 -0.32,0.56 -0.39,0.52 -0.45,0.46 -0.50,0.41 -0.55,0.34 -0.59,0.28 -0.61,0.20 -0.64,0.13 -0.64,0.05 -0.65,-0.02 -0.64,-0.10 -0.63,-0.18 -0.59,-0.25 -0.56,-0.32 -0.52,-0.39 -0.47,-0.45 -0.41,-0.50 -0.35,-0.55 -0.27,-0.58 -0.20,-0.62 -0.20,-0.62 L -0.20,-0.62 Z"/></g><g transform="translate(245.064208984375 16.846542358398438) rotate(0 3.80364990234375 0)" stroke="none"><path fill="#1e1e1e" d="M 0,-0.65 Q 0,-0.65 0.87,-0.94 1.74,-1.22 2.34,-1.21 2.93,-1.20 5.01,-0.92 7.09,-0.65 7.19,-0.63 7.29,-0.62 7.39,-0.57 7.48,-0.52 7.56,-0.44 7.63,-0.36 7.67,-0.27 7.72,-0.17 7.73,-0.07 7.74,0.03 7.72,0.13 7.70,0.24 7.64,0.33 7.59,0.42 7.50,0.49 7.42,0.56 7.33,0.60 7.23,0.64 7.12,0.64 7.01,0.65 6.91,0.62 6.81,0.59 6.72,0.53 6.63,0.47 6.57,0.39 6.51,0.30 6.47,0.20 6.44,0.10 6.44,-0.00 6.44,-0.10 6.47,-0.20 6.51,-0.30 6.57,-0.39 6.63,-0.47 6.72,-0.53 6.81,-0.59 6.91,-0.62 7.01,-0.65 7.12,-0.64 7.23,-0.64 7.33,-0.60 7.42,-0.56 7.50,-0.49 7.59,-0.42 7.64,-0.33 7.70,-0.24 7.72,-0.13 7.74,-0.03 7.73,0.07 7.72,0.17 7.67,0.27 7.63,0.36 7.56,0.44 7.48,0.52 7.39,0.57 7.29,0.62 7.19,0.63 7.09,0.65 7.09,0.65 7.09,0.65 5.01,0.92 2.93,1.20 2.34,1.21 1.74,1.22 0.87,0.94 0,0.65 -0.07,0.64 -0.15,0.63 -0.23,0.60 -0.30,0.58 -0.37,0.53 -0.43,0.49 -0.48,0.43 -0.54,0.37 -0.57,0.30 -0.61,0.23 -0.63,0.15 -0.65,0.07 -0.65,-0.00 -0.65,-0.07 -0.63,-0.15 -0.61,-0.23 -0.57,-0.30 -0.54,-0.37 -0.48,-0.43 -0.43,-0.49 -0.37,-0.53 -0.30,-0.58 -0.23,-0.60 -0.15,-0.63 -0.07,-0.64 0.00,-0.65 0.00,-0.65 L 0,-0.65 Z"/></g><g transform="translate(263.3216552734375 13.04290771484375) rotate(0 -2.282196044921875 4.9447174072265625)" stroke="none"><path fill="#1e1e1e" d="M 0,0.65 Q 0,0.65 -0.85,0.90 -1.71,1.15 -2.51,1.58 -3.32,2.00 -3.86,2.35 -4.41,2.70 -4.70,3.33 -5.00,3.97 -5.12,4.98 -5.24,6.00 -5.12,6.96 -4.99,7.93 -4.14,7.97 -3.30,8.00 -2.37,7.56 -1.45,7.12 -0.74,6.39 -0.04,5.66 0.17,4.93 0.39,4.21 0.11,3.48 -0.17,2.76 -0.57,2.33 -0.98,1.89 -2.48,1.55 -3.99,1.21 -4.09,1.24 -4.19,1.27 -4.30,1.26 -4.40,1.26 -4.50,1.22 -4.60,1.18 -4.68,1.11 -4.76,1.04 -4.82,0.95 -4.87,0.86 -4.89,0.76 -4.92,0.65 -4.91,0.55 -4.90,0.44 -4.85,0.35 -4.81,0.25 -4.73,0.17 -4.66,0.10 -4.57,0.05 -4.47,0.00 -4.37,-0.01 -4.26,-0.03 -4.16,-0.01 -4.05,2.74 -3.96,0.04 -3.87,0.09 -3.79,0.17 -3.72,0.25 -3.67,0.34 -3.63,0.44 -3.62,0.55 -3.61,0.65 -3.63,0.76 -3.65,0.86 -3.71,0.95 -3.76,1.04 -3.84,1.11 -3.92,1.18 -4.02,1.22 -4.12,1.26 -4.23,1.26 -4.33,1.27 -4.43,1.24 -4.54,1.21 -4.63,1.15 -4.71,1.10 -4.78,1.01 -4.84,0.93 -4.88,0.83 -4.91,0.72 -4.91,0.62 -4.91,0.51 -4.88,0.41 -4.84,0.31 -4.78,0.23 -4.71,0.14 -4.63,0.08 -4.54,0.02 -4.54,0.02 -4.54,0.02 -1.72,0.07 1.09,0.12 1.80,1.05 2.50,1.98 2.76,3.44 3.02,4.90 2.46,6.22 1.90,7.54 0.79,8.54 -0.32,9.54 -1.63,10.09 -2.94,10.63 -4.32,10.63 -5.70,10.63 -6.63,9.50 -7.55,8.36 -7.68,6.97 -7.81,5.58 -7.52,4.14 -7.22,2.71 -6.52,1.68 -5.82,0.66 -5.05,0.20 -4.28,-0.25 -3.03,-0.70 -1.78,-1.15 -0.89,-0.90 0,-0.65 0.07,-0.64 0.15,-0.63 0.23,-0.60 0.30,-0.58 0.37,-0.53 0.43,-0.49 0.48,-0.43 0.54,-0.37 0.57,-0.30 0.61,-0.23 0.63,-0.15 0.65,-0.07 0.65,0.00 0.65,0.07 0.63,0.15 0.61,0.23 0.57,0.30 0.54,0.37 0.48,0.43 0.43,0.49 0.37,0.53 0.30,0.58 0.23,0.60 0.15,0.63 0.07,0.64 -0.00,0.65 -0.00,0.65 L 0,0.65 Z"/></g><g transform="translate(275.4932861328125 11.521453857421875) rotate(0 3.8035888671875 6.085807800292969)" stroke="none"><path fill="#1e1e1e" d="M 0.46,0.46 Q 0.46,0.46 -0.00,1.25 -0.47,2.05 -0.59,2.78 -0.71,3.52 -0.77,4.47 -0.84,5.43 -0.86,6.28 -0.88,7.13 -0.89,7.92 -0.89,8.70 -0.68,9.29 -0.47,9.87 0.75,9.96 1.98,10.04 2.80,9.87 3.62,9.70 4.79,9.81 5.97,9.92 7.57,9.97 9.17,10.02 9.27,10.03 9.38,10.04 9.47,10.09 9.57,10.13 9.64,10.21 9.72,10.28 9.77,10.38 9.82,10.47 9.83,10.58 9.85,10.68 9.83,10.79 9.81,10.89 9.76,10.98 9.71,11.08 9.63,11.15 9.55,11.22 9.46,11.26 9.36,11.31 9.25,11.32 9.15,11.33 9.04,11.30 8.94,11.28 8.85,11.22 8.76,11.17 8.69,11.08 8.62,11.00 8.59,10.90 8.55,10.80 8.54,10.70 8.54,10.59 8.57,10.49 8.60,10.39 8.66,10.30 8.72,10.21 8.81,10.15 8.89,10.09 8.99,10.06 9.10,10.02 9.20,10.02 9.31,10.03 9.41,10.06 9.51,10.10 9.59,10.16 9.68,10.23 9.73,10.32 9.79,10.41 9.82,10.51 9.85,10.61 9.84,10.72 9.83,10.82 9.79,10.92 9.75,11.02 9.68,11.10 9.61,11.18 9.52,11.23 9.43,11.29 9.32,11.31 9.22,11.33 9.22,11.33 9.22,11.33 7.68,11.50 6.14,11.67 5.21,11.99 4.29,12.30 2.74,12.65 1.20,13.00 0.37,13.09 -0.45,13.18 -1.38,12.69 -2.32,12.19 -2.75,11.41 -3.18,10.62 -3.39,9.64 -3.60,8.66 -3.56,7.82 -3.53,6.98 -3.45,6.06 -3.37,5.14 -3.20,3.99 -3.02,2.84 -2.58,1.70 -2.14,0.57 -1.30,0.05 -0.46,-0.46 -0.40,-0.51 -0.33,-0.56 -0.26,-0.59 -0.19,-0.62 -0.11,-0.64 -0.03,-0.65 0.03,-0.65 0.11,-0.64 0.19,-0.62 0.26,-0.59 0.33,-0.55 0.40,-0.51 0.46,-0.46 0.51,-0.40 0.55,-0.33 0.59,-0.26 0.62,-0.19 0.64,-0.11 0.65,-0.03 0.65,0.03 0.64,0.11 0.62,0.19 0.59,0.26 0.56,0.33 0.51,0.40 0.46,0.46 0.46,0.46 L 0.46,0.46 Z"/></g><g transform="translate(296.7935791015625 22.171615600585938) rotate(0 -2.28216552734375 -4.9447174072265625)" stroke="none"><path fill="#1e1e1e" d="M -0.46,0.46 Q -0.46,0.46 -1.36,0.04 -2.26,-0.36 -2.86,-1.15 -3.46,-1.93 -3.95,-2.73 -4.43,-3.52 -4.68,-4.71 -4.93,-5.90 -4.95,-7.59 -4.98,-9.28 -5.01,-9.38 -5.05,-9.48 -5.05,-9.59 -5.05,-9.69 -5.02,-9.79 -4.99,-9.90 -4.92,-9.98 -4.86,-10.07 -4.77,-10.13 -4.69,-10.19 -4.59,-10.22 -4.48,-10.25 -4.38,-10.25 -4.27,-10.24 -4.17,-10.21 -4.07,-10.17 -3.99,-10.10 -3.91,-10.03 -3.85,-9.94 -3.80,-9.85 -3.77,-9.75 -3.75,-9.65 -3.76,-9.54 -3.77,-9.43 -3.81,-9.34 -3.85,-9.24 -3.92,-9.16 -3.99,-9.08 -4.09,-9.03 -4.18,-8.98 -4.28,-8.96 -4.39,-8.94 -4.49,-8.96 -4.60,-8.97 -4.69,-9.02 -4.79,-9.07 -4.86,-9.14 -4.94,-9.22 -4.98,-9.32 -5.03,-9.41 -5.04,-9.52 -5.06,-9.62 -5.04,-9.73 -5.02,-9.83 -4.96,-9.92 -4.91,-10.01 -4.83,-10.09 -4.75,-10.16 -4.65,-10.20 -4.55,-10.24 -4.45,-10.25 -4.34,-10.25 -4.24,-10.23 -4.14,-10.20 -4.05,-10.14 -3.96,-10.08 -3.89,-10.00 -3.83,-9.92 -3.83,-9.92 -3.83,-9.92 -2.98,-8.17 -2.13,-6.43 -2.01,-5.68 -1.89,-4.93 -1.52,-4.24 -1.14,-3.55 -0.75,-2.90 -0.36,-2.25 0.05,-1.36 0.46,-0.46 0.51,-0.40 0.56,-0.33 0.59,-0.26 0.62,-0.19 0.64,-0.11 0.65,-0.03 0.65,0.03 0.64,0.11 0.62,0.19 0.59,0.26 0.55,0.33 0.51,0.40 0.46,0.46 0.40,0.51 0.33,0.55 0.26,0.59 0.19,0.62 0.11,0.64 0.03,0.65 -0.03,0.65 -0.11,0.64 -0.19,0.62 -0.26,0.59 -0.33,0.56 -0.40,0.51 -0.46,0.46 -0.46,0.46 L -0.46,0.46 Z"/></g><g transform="translate(539.4651489257812 105.09071350097656) rotate(0 3.4232177734375 0)" stroke="none"><path fill="#1e1e1e" d="M -0.46,0.46 Q -0.46,0.46 -1.02,0.14 -1.57,-0.17 -2.03,-0.52 -2.49,-0.87 -2.57,-0.98 -2.66,-1.09 -2.71,-1.21 -2.77,-1.34 -2.79,-1.47 -2.82,-1.61 -2.81,-1.75 -2.80,-1.88 -2.76,-2.02 -2.72,-2.15 -2.65,-2.27 -2.58,-2.38 -2.48,-2.48 -2.38,-2.58 -2.27,-2.65 -2.15,-2.72 -2.02,-2.76 -1.88,-2.80 -1.75,-2.81 -1.61,-2.82 -1.47,-2.79 -1.34,-2.77 -1.21,-2.71 -1.09,-2.66 -0.98,-2.57 -0.87,-2.49 -0.57,-1.96 -0.26,-1.44 0.50,-1.44 1.27,-1.43 2.51,-2.53 3.74,-3.63 4.73,-4.79 5.73,-5.95 6.40,-6.70 7.08,-7.45 7.35,-8.01 7.61,-8.56 7.75,-8.68 7.88,-8.79 8.04,-8.88 8.20,-8.96 8.37,-9.00 8.54,-9.04 8.72,-9.03 8.90,-9.03 9.07,-8.99 9.24,-8.94 9.40,-8.86 9.55,-8.78 9.68,-8.66 9.81,-8.54 9.91,-8.39 10.01,-8.24 10.07,-8.08 10.13,-7.91 10.15,-7.73 10.17,-7.56 10.15,-7.38 10.13,-7.21 10.06,-7.04 10.00,-6.88 9.89,-6.73 9.79,-6.59 9.07,-5.46 8.35,-4.33 7.45,-2.69 6.54,-1.04 5.45,0.77 4.35,2.60 3.40,4.02 2.45,5.43 1.31,6.73 0.18,8.03 0.11,8.11 0.05,8.20 -0.03,8.25 -0.12,8.31 -0.23,8.34 -0.33,8.36 -0.44,8.35 -0.54,8.34 -0.64,8.30 -0.74,8.26 -0.82,8.19 -0.89,8.12 -0.95,8.02 -1.00,7.93 -1.02,7.83 -1.04,7.72 -1.02,7.62 -1.01,7.51 -0.96,7.42 -0.91,7.32 -0.84,7.25 -0.76,7.17 -0.67,7.12 -0.57,7.08 -0.47,7.06 -0.36,7.05 -0.26,7.07 -0.15,7.09 -0.06,7.14 0.02,7.20 0.09,7.27 0.16,7.35 0.21,7.45 0.25,7.55 0.25,7.66 0.26,7.76 0.24,7.86 0.21,7.97 0.15,8.06 0.10,8.15 0.01,8.21 -0.06,8.28 -0.16,8.31 -0.26,8.35 -0.37,8.35 -0.47,8.36 -0.57,8.32 -0.68,8.29 -0.76,8.23 -0.85,8.17 -0.91,8.08 -0.97,8.00 -1.00,7.89 -1.03,7.79 -1.03,7.69 -1.03,7.58 -0.99,7.48 -0.95,7.38 -0.95,7.38 -0.95,7.38 -0.39,5.70 0.17,4.02 0.99,2.57 1.81,1.12 2.84,-0.69 3.87,-2.52 4.87,-4.32 5.87,-6.12 6.74,-7.34 7.61,-8.56 7.75,-8.68 7.88,-8.79 8.04,-8.88 8.20,-8.96 8.37,-9.00 8.54,-9.04 8.72,-9.03 8.90,-9.03 9.07,-8.99 9.24,-8.94 9.40,-8.86 9.55,-8.78 9.68,-8.66 9.81,-8.54 9.91,-8.39 10.01,-8.24 10.07,-8.08 10.13,-7.91 10.15,-7.73 10.17,-7.56 10.15,-7.38 10.13,-7.21 10.06,-7.04 10.00,-6.88 9.89,-6.73 9.79,-6.59 9.49,-6.08 9.18,-5.57 8.52,-4.84 7.85,-4.11 6.71,-2.81 5.58,-1.51 4.50,-0.61 3.43,0.29 2.37,0.77 1.31,1.25 0.46,1.19 -0.38,1.12 -1.21,0.78 -2.05,0.43 -2.27,-0.22 -2.49,-0.87 -2.57,-0.98 -2.66,-1.09 -2.71,-1.21 -2.77,-1.34 -2.79,-1.47 -2.82,-1.61 -2.81,-1.75 -2.80,-1.88 -2.76,-2.02 -2.72,-2.15 -2.65,-2.27 -2.58,-2.38 -2.48,-2.48 -2.38,-2.58 -2.27,-2.65 -2.15,-2.72 -2.02,-2.76 -1.88,-2.80 -1.75,-2.81 -1.61,-2.82 -1.47,-2.79 -1.34,-2.77 -1.21,-2.71 -1.09,-2.66 -0.98,-2.57 -0.87,-2.49 -0.52,-2.03 -0.17,-1.57 0.14,-1.02 0.46,-0.46 0.51,-0.40 0.56,-0.33 0.59,-0.26 0.62,-0.19 0.64,-0.11 0.65,-0.03 0.65,0.03 0.64,0.11 0.62,0.19 0.59,0.26 0.55,0.33 0.51,0.40 0.46,0.46 0.40,0.51 0.33,0.55 0.26,0.59 0.19,0.62 0.11,0.64 0.03,0.65 -0.03,0.65 -0.11,0.64 -0.19,0.62 -0.26,0.59 -0.33,0.56 -0.40,0.51 -0.46,0.46 -0.46,0.46 L -0.46,0.46 Z"/></g><g transform="translate(537.1829223632812 101.28709411621094) rotate(0 1.90179443359375 2.2821807861328125)" stroke="none"><path fill="#1e1e1e" d="M 0.62,-0.20 Q 0.62,-0.20 1.04,0.37 1.46,0.96 2.73,2.41 4.01,3.86 4.08,3.94 4.14,4.03 4.18,4.13 4.21,4.23 4.21,4.33 4.21,4.44 4.18,4.54 4.15,4.64 4.08,4.73 4.02,4.81 3.93,4.87 3.84,4.93 3.74,4.96 3.64,4.99 3.53,4.99 3.43,4.98 3.33,4.94 3.23,4.90 3.15,4.84 3.07,4.77 3.01,4.68 2.95,4.59 2.93,4.48 2.91,4.38 2.92,4.27 2.93,4.17 2.97,4.07 3.02,3.98 3.09,3.90 3.16,3.82 3.26,3.77 3.35,3.72 3.45,3.70 3.56,3.68 3.66,3.70 3.77,3.72 3.86,3.76 3.96,3.81 4.03,3.89 4.10,3.97 4.15,4.06 4.19,4.16 4.21,4.26 4.22,4.37 4.20,4.47 4.17,4.58 4.12,4.67 4.07,4.76 3.99,4.83 3.91,4.90 3.81,4.94 3.71,4.98 3.60,4.99 3.50,4.99 3.39,4.97 3.29,4.94 3.20,4.88 3.11,4.82 3.11,4.82 3.12,4.82 1.63,3.88 0.14,2.94 -0.21,2.30 -0.58,1.66 -0.60,0.93 -0.62,0.20 -0.63,0.13 -0.65,0.05 -0.65,-0.02 -0.64,-0.10 -0.62,-0.18 -0.60,-0.25 -0.56,-0.32 -0.52,-0.39 -0.46,-0.45 -0.41,-0.50 -0.34,-0.55 -0.28,-0.59 -0.20,-0.61 -0.13,-0.64 -0.05,-0.64 0.02,-0.65 0.10,-0.64 0.18,-0.63 0.25,-0.59 0.32,-0.56 0.39,-0.52 0.45,-0.47 0.50,-0.41 0.55,-0.35 0.58,-0.27 0.62,-0.20 0.62,-0.20 L 0.62,-0.20 Z"/></g><g transform="translate(538.7044067382812 139.32337951660156) rotate(0 6.84649658203125 4.564361572265625)" stroke="none"><path fill="#1e1e1e" d="M -0.36,-0.54 Q -0.36,-0.54 0.13,-1.22 0.63,-1.90 1.66,-2.37 2.69,-2.83 3.88,-3.05 5.08,-3.27 6.24,-3.36 7.41,-3.44 8.34,-3.48 9.27,-3.52 10.57,-3.01 11.87,-2.49 12.20,-1.41 12.53,-0.33 11.87,1.00 11.21,2.34 10.28,3.67 9.35,5.00 8.49,6.03 7.63,7.06 7.11,7.84 6.59,8.63 7.36,9.17 8.13,9.72 9.16,9.66 10.19,9.59 11.60,9.18 13.00,8.77 13.10,8.73 13.20,8.69 13.31,8.69 13.41,8.68 13.52,8.71 13.62,8.73 13.71,8.79 13.80,8.85 13.86,8.93 13.93,9.02 13.96,9.12 14.00,9.22 14.00,9.32 14.00,9.43 13.97,9.53 13.93,9.63 13.87,9.72 13.81,9.80 13.72,9.86 13.63,9.93 13.53,9.96 13.43,9.98 13.32,9.98 13.22,9.98 13.12,9.94 13.02,9.90 12.94,9.83 12.85,9.76 12.80,9.67 12.74,9.58 12.72,9.48 12.69,9.38 12.70,9.27 12.72,9.16 12.76,9.07 12.80,8.97 12.87,8.89 12.95,8.82 13.04,8.76 13.13,8.71 13.24,8.69 13.34,8.68 13.45,8.69 13.55,8.71 13.65,8.76 13.74,8.81 13.81,8.88 13.89,8.96 13.93,9.05 13.98,9.15 13.99,9.26 14.01,9.36 13.98,9.46 13.96,9.57 13.91,9.66 13.86,9.75 13.78,9.82 13.70,9.89 13.70,9.89 13.70,9.89 12.07,10.97 10.44,12.04 8.96,12.22 7.48,12.39 6.29,12.01 5.11,11.63 4.42,10.71 3.74,9.79 3.98,8.44 4.21,7.09 4.83,6.16 5.45,5.24 6.24,4.30 7.03,3.36 7.92,2.11 8.81,0.86 9.07,-0.04 9.34,-0.94 8.46,-0.92 7.58,-0.90 6.53,-0.84 5.49,-0.77 4.58,-0.65 3.67,-0.52 2.83,-0.18 1.99,0.15 1.17,0.34 0.36,0.54 0.29,0.58 0.22,0.61 0.14,0.63 0.06,0.65 -0.01,0.65 -0.08,0.65 -0.16,0.63 -0.24,0.61 -0.31,0.57 -0.38,0.53 -0.44,0.48 -0.49,0.42 -0.54,0.36 -0.58,0.29 -0.61,0.22 -0.64,0.14 -0.64,0.06 -0.65,-0.01 -0.64,-0.08 -0.63,-0.16 -0.60,-0.24 -0.57,-0.31 -0.53,-0.37 -0.48,-0.44 -0.42,-0.49 -0.36,-0.54 -0.36,-0.54 L -0.36,-0.54 Z"/></g><g transform="translate(542.5079956054688 146.16990661621094) rotate(0 6.0858154296875 -0.7607269287109375)" stroke="none"><path fill="#1e1e1e" d="M -0.10,-0.64 Q -0.10,-0.64 1.15,-1.16 2.41,-1.68 3.21,-1.79 4.01,-1.90 4.66,-2.13 5.30,-2.37 6.42,-2.44 7.54,-2.51 9.44,-2.33 11.33,-2.14 11.44,-2.13 11.54,-2.12 11.64,-2.07 11.73,-2.02 11.81,-1.95 11.88,-1.88 11.93,-1.78 11.98,-1.69 12.00,-1.58 12.01,-1.48 11.99,-1.37 11.97,-1.27 11.92,-1.17 11.87,-1.08 11.79,-1.01 11.71,-0.94 11.62,-0.89 11.52,-0.85 11.41,-0.84 11.31,-0.83 11.20,-0.86 11.10,-0.88 11.01,-0.94 10.92,-0.99 10.85,-1.08 10.79,-1.16 10.75,-1.26 10.71,-1.36 10.71,-1.46 10.70,-1.57 10.73,-1.67 10.76,-1.77 10.83,-1.86 10.89,-1.95 10.97,-2.01 11.06,-2.07 11.16,-2.10 11.26,-2.14 11.37,-2.14 11.47,-2.13 11.57,-2.10 11.67,-2.06 11.76,-2.00 11.84,-1.93 11.90,-1.84 11.96,-1.75 11.98,-1.65 12.01,-1.55 12.00,-1.44 11.99,-1.33 11.95,-1.24 11.91,-1.14 11.84,-1.06 11.77,-0.98 11.68,-0.93 11.59,-0.87 11.48,-0.85 11.38,-0.83 11.38,-0.83 11.38,-0.83 9.59,-0.52 7.80,-0.20 6.96,-0.05 6.12,0.09 5.22,0.37 4.33,0.65 3.58,0.73 2.83,0.80 1.47,0.72 0.10,0.64 0.02,0.65 -0.05,0.65 -0.12,0.63 -0.20,0.62 -0.27,0.59 -0.34,0.55 -0.41,0.50 -0.47,0.45 -0.51,0.39 -0.56,0.33 -0.59,0.25 -0.63,0.18 -0.64,0.10 -0.65,0.02 -0.64,-0.04 -0.64,-0.12 -0.61,-0.20 -0.59,-0.27 -0.55,-0.34 -0.51,-0.41 -0.45,-0.46 -0.39,-0.52 -0.32,-0.56 -0.25,-0.60 -0.18,-0.62 -0.10,-0.64 -0.10,-0.64 L -0.10,-0.64 Z"/></g><g transform="translate(560.7654418945312 137.0412139892578) rotate(0 1.14105224609375 -2.6625518798828125)" stroke="none"><path fill="#1e1e1e" d="M -0.63,-0.15 Q -0.63,-0.15 -0.65,-1.09 -0.68,-2.03 0.44,-3.66 1.56,-5.28 1.62,-5.37 1.67,-5.46 1.75,-5.54 1.82,-5.61 1.92,-5.65 2.02,-5.69 2.12,-5.70 2.23,-5.71 2.33,-5.69 2.44,-5.66 2.53,-5.61 2.62,-5.55 2.68,-5.47 2.75,-5.39 2.79,-5.29 2.83,-5.19 2.83,-5.08 2.83,-4.97 2.80,-4.87 2.77,-4.77 2.71,-4.68 2.65,-4.60 2.57,-4.53 2.48,-4.47 2.38,-4.44 2.28,-4.41 2.17,-4.41 2.07,-4.41 1.97,-4.45 1.87,-4.48 1.78,-4.55 1.70,-4.61 1.64,-4.70 1.58,-4.79 1.56,-4.90 1.53,-5.00 1.54,-5.10 1.54,-5.21 1.59,-5.31 1.63,-5.41 1.70,-5.49 1.77,-5.57 1.86,-5.62 1.95,-5.67 2.06,-5.69 2.16,-5.71 2.26,-5.70 2.37,-5.69 2.47,-5.64 2.56,-5.59 2.64,-5.52 2.71,-5.45 2.76,-5.35 2.81,-5.26 2.82,-5.15 2.84,-5.05 2.82,-4.94 2.80,-4.84 2.80,-4.84 2.80,-4.84 2.18,-3.15 1.55,-1.46 1.09,-0.65 0.63,0.15 0.60,0.23 0.58,0.30 0.53,0.37 0.49,0.43 0.43,0.48 0.37,0.54 0.30,0.57 0.23,0.61 0.15,0.63 0.07,0.65 -0.00,0.65 -0.08,0.65 -0.15,0.63 -0.23,0.61 -0.30,0.57 -0.37,0.53 -0.43,0.48 -0.49,0.43 -0.53,0.36 -0.58,0.30 -0.61,0.22 -0.63,0.15 -0.64,0.07 -0.65,-0.00 -0.64,-0.08 -0.63,-0.15 -0.63,-0.15 L -0.63,-0.15 Z"/></g><g transform="translate(578.2621459960938 140.84483337402344) rotate(0 4.5643310546875 -0.7607269287109375)" stroke="none"><path fill="#1e1e1e" d="M -0.15,-0.63 Q -0.15,-0.63 0.63,-1.18 1.42,-1.72 2.42,-2.04 3.41,-2.35 4.38,-2.52 5.34,-2.68 7.45,-1.63 9.55,-0.58 9.58,-0.48 9.62,-0.38 9.62,-0.28 9.62,-0.17 9.59,-0.07 9.56,0.02 9.50,0.11 9.44,0.19 9.35,0.25 9.26,0.32 9.16,0.35 9.06,0.38 8.95,0.37 8.85,0.37 8.75,0.33 8.65,0.30 8.57,0.23 8.48,0.16 8.43,0.07 8.37,-0.01 8.34,-0.11 8.32,-0.21 8.33,-0.32 8.34,-0.42 8.38,-0.52 8.42,-0.62 8.49,-0.70 8.56,-0.78 8.66,-0.83 8.75,-0.88 8.85,-0.90 8.96,-0.92 9.06,-0.91 9.17,-0.89 9.26,-0.84 9.36,-0.79 9.43,-0.72 9.51,-0.64 9.56,-0.55 9.60,-0.45 9.62,-0.35 9.63,-0.24 9.61,-0.14 9.59,-0.03 9.54,0.05 9.48,0.14 9.40,0.21 9.32,0.28 9.23,0.32 9.13,0.36 9.02,0.37 8.92,0.38 8.81,0.35 8.71,0.33 8.62,0.27 8.53,0.21 8.47,0.13 8.40,0.05 8.40,0.05 8.40,0.05 7.08,0.04 5.75,0.03 4.97,0.13 4.19,0.23 3.13,0.54 2.07,0.85 1.11,0.74 0.15,0.63 0.08,0.64 0.00,0.65 -0.07,0.64 -0.15,0.63 -0.22,0.61 -0.30,0.58 -0.36,0.53 -0.43,0.49 -0.48,0.43 -0.53,0.37 -0.57,0.30 -0.61,0.23 -0.63,0.15 -0.65,0.08 -0.65,0.00 -0.65,-0.07 -0.63,-0.15 -0.61,-0.23 -0.57,-0.30 -0.54,-0.37 -0.48,-0.43 -0.43,-0.49 -0.37,-0.53 -0.30,-0.58 -0.23,-0.60 -0.15,-0.63 -0.15,-0.63 L -0.15,-0.63 Z"/></g><g transform="translate(579.0228881835938 146.16990661621094) rotate(0 6.46612548828125 0)" stroke="none"><path fill="#1e1e1e" d="M 0,-0.65 Q 0,-0.65 1.09,-0.88 2.18,-1.12 3.08,-1.14 3.99,-1.17 5.03,-1.19 6.07,-1.22 7.16,-1.20 8.26,-1.19 10.38,-0.92 12.49,-0.65 12.59,-0.63 12.70,-0.62 12.79,-0.57 12.89,-0.52 12.96,-0.44 13.03,-0.36 13.08,-0.27 13.12,-0.17 13.13,-0.07 13.15,0.03 13.12,0.13 13.10,0.24 13.05,0.33 12.99,0.42 12.91,0.49 12.83,0.56 12.73,0.60 12.63,0.64 12.53,0.64 12.42,0.65 12.32,0.62 12.21,0.59 12.13,0.53 12.04,0.47 11.97,0.39 11.91,0.30 11.88,0.20 11.84,0.10 11.84,-0.00 11.84,-0.10 11.88,-0.20 11.91,-0.30 11.97,-0.39 12.04,-0.47 12.13,-0.53 12.21,-0.59 12.32,-0.62 12.42,-0.65 12.53,-0.64 12.63,-0.64 12.73,-0.60 12.83,-0.56 12.91,-0.49 12.99,-0.42 13.05,-0.33 13.10,-0.24 13.12,-0.13 13.15,-0.03 13.13,0.07 13.12,0.17 13.08,0.27 13.03,0.36 12.96,0.44 12.89,0.52 12.79,0.57 12.70,0.62 12.59,0.63 12.49,0.65 12.49,0.65 12.49,0.65 10.38,0.92 8.26,1.19 7.16,1.20 6.07,1.22 5.03,1.19 3.99,1.17 3.08,1.14 2.18,1.12 1.09,0.88 0,0.65 -0.07,0.64 -0.15,0.63 -0.23,0.60 -0.30,0.58 -0.37,0.53 -0.43,0.49 -0.48,0.43 -0.54,0.37 -0.57,0.30 -0.61,0.23 -0.63,0.15 -0.65,0.07 -0.65,-0.00 -0.65,-0.07 -0.63,-0.15 -0.61,-0.23 -0.57,-0.30 -0.54,-0.37 -0.48,-0.43 -0.43,-0.49 -0.37,-0.53 -0.30,-0.58 -0.23,-0.60 -0.15,-0.63 -0.07,-0.64 0.00,-0.65 0.00,-0.65 L 0,-0.65 Z"/></g><g transform="translate(629.9915161132812 113.45869445800781) rotate(0 -9.12872314453125 30.429046630859375)" stroke="none"><path fill="#1e1e1e" d="M -0.58,0.29 Q -0.58,0.29 -0.97,0.07 -1.35,-0.14 -2.35,-0.38 -3.35,-0.63 -4.09,-0.69 -4.84,-0.75 -6.09,-0.38 -7.33,-0.00 -8.47,0.53 -9.61,1.06 -10.36,2.22 -11.11,3.38 -11.67,4.68 -12.23,5.98 -12.23,7.88 -12.23,9.79 -12.03,11.48 -11.84,13.18 -11.33,15.15 -10.83,17.13 -10.58,18.74 -10.34,20.34 -10.23,21.93 -10.12,23.52 -10.31,25.00 -10.51,26.49 -11.35,27.78 -12.19,29.06 -12.97,29.98 -13.75,30.89 -14.61,31.58 -15.46,32.27 -16.01,32.11 -16.56,31.95 -15.94,31.96 -15.32,31.97 -14.58,32.64 -13.84,33.32 -13.39,34.06 -12.93,34.81 -12.67,35.98 -12.41,37.15 -12.33,38.06 -12.25,38.96 -12.21,40.45 -12.18,41.95 -12.39,43.56 -12.60,45.17 -12.91,47.13 -13.22,49.09 -13.34,50.73 -13.46,52.37 -13.52,53.72 -13.57,55.07 -13.59,56.08 -13.62,57.08 -13.43,57.75 -13.25,58.43 -12.53,59.40 -11.81,60.37 -10.48,60.47 -9.15,60.57 -9.05,60.53 -8.96,60.49 -8.85,60.48 -8.74,60.47 -8.64,60.50 -8.54,60.53 -8.45,60.59 -8.36,60.65 -8.30,60.73 -8.23,60.81 -8.20,60.91 -8.16,61.01 -8.16,61.12 -8.16,61.23 -8.19,61.33 -8.22,61.43 -8.29,61.51 -8.35,61.60 -8.44,61.66 -8.52,61.72 -8.63,61.75 -8.73,61.78 -8.83,61.78 -8.94,61.77 -9.04,61.73 -9.14,61.70 -9.22,61.63 -9.30,61.56 -9.36,61.47 -9.41,61.38 -9.44,61.28 -9.46,61.17 -9.45,61.07 -9.44,60.96 -9.40,60.86 -9.36,60.77 -9.28,60.69 -9.21,60.61 -9.12,60.56 -9.02,60.51 -8.92,60.49 -8.82,60.47 -8.71,60.49 -8.61,60.50 -8.51,60.55 -8.42,60.60 -8.34,60.68 -8.27,60.75 -8.22,60.85 -8.18,60.94 -8.16,61.05 -8.15,61.16 -8.17,61.26 -8.19,61.36 -8.25,61.46 -8.30,61.55 -8.38,61.62 -8.46,61.69 -8.46,61.69 -8.46,61.69 -10.65,62.62 -12.84,63.56 -13.52,62.95 -14.20,62.35 -14.86,61.53 -15.52,60.71 -15.89,59.94 -16.27,59.18 -16.50,58.11 -16.73,57.04 -16.71,55.99 -16.68,54.95 -16.63,53.54 -16.57,52.13 -16.43,50.37 -16.30,48.61 -15.99,46.68 -15.69,44.74 -15.49,43.38 -15.28,42.01 -15.31,40.61 -15.33,39.21 -15.39,38.45 -15.45,37.69 -15.52,37.01 -15.59,36.33 -15.90,35.80 -16.21,35.27 -16.69,34.95 -17.18,34.62 -17.79,34.18 -18.39,33.75 -18.50,32.49 -18.61,31.23 -17.95,30.56 -17.29,29.89 -16.63,29.42 -15.97,28.94 -15.26,28.13 -14.54,27.33 -13.92,26.63 -13.30,25.94 -13.13,24.81 -12.97,23.68 -13.05,22.21 -13.13,20.75 -13.33,19.28 -13.53,17.81 -14.06,15.65 -14.60,13.48 -14.80,11.60 -15.00,9.72 -14.89,7.33 -14.78,4.94 -14.07,3.35 -13.35,1.76 -12.13,0.22 -10.90,-1.31 -9.46,-1.98 -8.02,-2.65 -6.29,-3.04 -4.55,-3.43 -3.42,-3.24 -2.29,-3.05 -1.68,-2.75 -1.07,-2.46 -0.29,-2.03 0.47,-1.60 0.53,-0.95 0.58,-0.29 0.61,-0.21 0.64,-0.14 0.64,-0.06 0.65,0.01 0.64,0.09 0.63,0.16 0.60,0.24 0.57,0.31 0.52,0.38 0.48,0.44 0.42,0.49 0.36,0.54 0.29,0.58 0.22,0.61 0.14,0.63 0.06,0.65 -0.01,0.65 -0.09,0.65 -0.16,0.62 -0.24,0.60 -0.31,0.57 -0.38,0.53 -0.44,0.47 -0.50,0.42 -0.54,0.35 -0.58,0.29 -0.58,0.29 L -0.58,0.29 Z"/></g><g transform="translate(643.6845092773438 123.34812927246094) rotate(0 5.7054443359375 6.0858154296875)" stroke="none"><path fill="#1e1e1e" d="M 0,-0.65 Q 0,-0.65 1.31,-1.01 2.62,-1.38 3.83,-1.38 5.05,-1.39 6.22,-1.40 7.39,-1.40 8.19,-1.39 8.98,-1.38 9.81,-0.67 10.64,0.04 10.69,0.90 10.75,1.75 10.22,3.04 9.70,4.33 8.71,5.45 7.71,6.57 6.97,7.55 6.22,8.53 5.95,9.08 5.69,9.62 5.24,10.24 4.79,10.86 5.32,10.64 5.85,10.42 6.57,10.48 7.29,10.54 9.10,10.67 10.92,10.81 11.03,10.81 11.13,10.81 11.23,10.85 11.33,10.89 11.41,10.96 11.50,11.02 11.55,11.11 11.61,11.20 11.63,11.31 11.66,11.41 11.65,11.52 11.64,11.62 11.60,11.72 11.55,11.82 11.48,11.89 11.41,11.97 11.32,12.02 11.22,12.08 11.12,12.09 11.01,12.11 10.91,12.10 10.80,12.08 10.71,12.03 10.61,11.99 10.54,11.91 10.47,11.84 10.42,11.74 10.37,11.64 10.36,11.54 10.35,11.43 10.37,11.33 10.39,11.22 10.44,11.13 10.49,11.04 10.57,10.97 10.65,10.90 10.75,10.86 10.85,10.82 10.96,10.81 11.06,10.80 11.16,10.83 11.27,10.86 11.36,10.91 11.45,10.97 11.51,11.06 11.58,11.14 11.61,11.24 11.65,11.34 11.65,11.45 11.65,11.55 11.62,11.65 11.59,11.75 11.53,11.84 11.46,11.93 11.38,11.99 11.29,12.05 11.19,12.08 11.09,12.11 11.09,12.11 11.09,12.11 9.08,12.86 7.07,13.61 6.19,13.54 5.31,13.48 4.16,13.20 3.01,12.92 2.29,12.20 1.57,11.49 1.56,10.79 1.54,10.10 2.23,9.15 2.92,8.19 3.33,7.41 3.75,6.64 4.61,5.54 5.46,4.44 6.19,3.75 6.91,3.06 7.79,2.22 8.67,1.38 8.03,1.39 7.39,1.40 6.22,1.40 5.05,1.39 3.83,1.38 2.62,1.38 1.31,1.01 0,0.65 -0.07,0.64 -0.15,0.63 -0.23,0.60 -0.30,0.58 -0.37,0.53 -0.43,0.49 -0.48,0.43 -0.54,0.37 -0.57,0.30 -0.61,0.23 -0.63,0.15 -0.65,0.07 -0.65,-0.00 -0.65,-0.07 -0.63,-0.15 -0.61,-0.23 -0.57,-0.30 -0.54,-0.37 -0.48,-0.43 -0.43,-0.49 -0.37,-0.53 -0.30,-0.58 -0.23,-0.60 -0.15,-0.63 -0.07,-0.64 0.00,-0.65 0.00,-0.65 L 0,-0.65 Z"/></g><g transform="translate(647.4880981445312 128.67323303222656) rotate(0 3.04296875 0.7607269287109375)" stroke="none"><path fill="#1e1e1e" d="M 0.20,0.62 Q 0.20,0.62 -0.30,1.28 -0.81,1.94 -0.99,1.97 -1.18,2.01 -1.37,2.00 -1.56,2.00 -1.75,1.94 -1.93,1.89 -2.09,1.79 -2.26,1.70 -2.40,1.57 -2.54,1.43 -2.64,1.27 -2.74,1.11 -2.80,0.93 -2.86,0.75 -2.88,0.56 -2.89,0.37 -2.86,0.18 -2.83,-0.00 -2.75,-0.18 -2.68,-0.35 -2.56,-0.50 -2.45,-0.66 -2.30,-0.78 -2.15,-0.90 -1.98,-0.98 -1.81,-1.06 -0.99,-0.99 -0.18,-0.91 1.15,-0.88 2.49,-0.84 3.51,-0.59 4.52,-0.34 6.22,0.24 7.91,0.84 8.02,0.86 8.12,0.88 8.21,0.94 8.30,0.99 8.37,1.07 8.44,1.15 8.48,1.25 8.52,1.35 8.52,1.45 8.53,1.56 8.50,1.66 8.47,1.77 8.41,1.85 8.36,1.94 8.27,2.01 8.19,2.07 8.09,2.10 7.98,2.14 7.88,2.14 7.77,2.14 7.67,2.11 7.57,2.07 7.49,2.01 7.40,1.94 7.34,1.86 7.28,1.77 7.25,1.66 7.23,1.56 7.23,1.46 7.24,1.35 7.28,1.25 7.31,1.15 7.38,1.07 7.45,0.99 7.54,0.94 7.63,0.88 7.74,0.86 7.84,0.84 7.95,0.85 8.05,0.86 8.15,0.90 8.25,0.95 8.32,1.02 8.40,1.09 8.45,1.19 8.50,1.28 8.52,1.39 8.53,1.49 8.52,1.59 8.50,1.70 8.45,1.79 8.40,1.89 8.32,1.96 8.25,2.03 8.15,2.08 8.05,2.12 7.95,2.13 7.84,2.15 7.84,2.15 7.84,2.15 5.76,2.43 3.69,2.71 3.05,2.51 2.41,2.32 1.47,2.30 0.53,2.28 -0.13,2.11 -0.81,1.94 -0.99,1.97 -1.18,2.01 -1.37,2.00 -1.56,2.00 -1.75,1.94 -1.93,1.89 -2.09,1.79 -2.26,1.70 -2.40,1.57 -2.54,1.43 -2.64,1.27 -2.74,1.11 -2.80,0.93 -2.86,0.75 -2.88,0.56 -2.89,0.37 -2.86,0.18 -2.83,-0.00 -2.75,-0.17 -2.68,-0.35 -2.56,-0.50 -2.45,-0.66 -2.30,-0.78 -2.15,-0.90 -1.98,-0.98 -1.81,-1.06 -1.01,-0.84 -0.20,-0.62 -0.13,-0.63 -0.05,-0.65 0.02,-0.65 0.10,-0.64 0.18,-0.62 0.25,-0.60 0.32,-0.56 0.39,-0.52 0.45,-0.46 0.50,-0.41 0.55,-0.34 0.59,-0.28 0.61,-0.20 0.64,-0.13 0.64,-0.05 0.65,0.02 0.64,0.10 0.63,0.18 0.59,0.25 0.56,0.32 0.52,0.39 0.47,0.45 0.41,0.50 0.35,0.55 0.27,0.58 0.20,0.62 0.20,0.62 L 0.20,0.62 Z"/></g><g transform="translate(645.2059936523438 116.50160217285156) rotate(0 5.3250732421875 0.38037109375)" stroke="none"><path fill="#1e1e1e" d="M 0,-0.65 Q 0,-0.65 1.74,-1.07 3.49,-1.48 4.89,-1.48 6.29,-1.47 8.31,-0.74 10.33,-0.00 10.43,0.03 10.52,0.08 10.60,0.15 10.68,0.22 10.73,0.32 10.78,0.41 10.79,0.51 10.81,0.62 10.79,0.72 10.78,0.83 10.73,0.92 10.68,1.02 10.60,1.09 10.52,1.16 10.42,1.21 10.33,1.25 10.22,1.26 10.12,1.27 10.01,1.25 9.91,1.23 9.82,1.17 9.73,1.12 9.66,1.04 9.59,0.96 9.55,0.86 9.51,0.76 9.51,0.65 9.50,0.55 9.53,0.44 9.56,0.34 9.62,0.25 9.68,0.17 9.76,0.10 9.85,0.04 9.95,0.00 10.05,-0.02 10.15,-0.02 10.26,-0.02 10.36,0.00 10.46,0.04 10.55,0.10 10.63,0.17 10.69,0.26 10.75,0.34 10.78,0.45 10.81,0.55 10.80,0.65 10.79,0.76 10.75,0.86 10.72,0.96 10.65,1.04 10.58,1.12 10.49,1.17 10.40,1.23 10.29,1.25 10.19,1.27 10.08,1.26 9.98,1.25 9.98,1.25 9.98,1.25 8.14,1.36 6.29,1.47 4.89,1.48 3.49,1.48 1.74,1.07 0,0.65 -0.07,0.64 -0.15,0.63 -0.23,0.60 -0.30,0.58 -0.37,0.53 -0.43,0.49 -0.48,0.43 -0.54,0.37 -0.57,0.30 -0.61,0.23 -0.63,0.15 -0.65,0.07 -0.65,-0.00 -0.65,-0.07 -0.63,-0.15 -0.61,-0.23 -0.57,-0.30 -0.54,-0.37 -0.48,-0.43 -0.43,-0.49 -0.37,-0.53 -0.30,-0.58 -0.23,-0.60 -0.15,-0.63 -0.07,-0.64 0.00,-0.65 0.00,-0.65 L 0,-0.65 Z"/></g><g transform="translate(681.7207641601562 134.75901794433594) rotate(0 5.7054443359375 -3.0428924560546875)" stroke="none"><path fill="#1e1e1e" d="M -0.46,-0.46 Q -0.46,-0.46 -0.04,-1.34 0.37,-2.22 0.93,-3.10 1.49,-3.98 1.87,-4.41 2.26,-4.84 2.39,-5.43 2.53,-6.03 2.61,-6.06 2.69,-6.09 2.75,-6.27 2.80,-6.45 2.89,-6.61 2.98,-6.76 3.11,-6.90 3.24,-7.03 3.40,-7.12 3.55,-7.22 3.73,-7.28 3.90,-7.33 4.08,-7.35 4.27,-7.36 4.45,-7.33 4.63,-7.30 4.80,-7.23 4.97,-7.15 5.11,-7.04 5.26,-6.93 5.37,-6.79 5.49,-6.64 5.57,-6.48 5.64,-6.31 5.68,-6.13 5.71,-5.95 5.71,-5.77 5.70,-5.58 6.02,-5.07 6.34,-4.55 6.99,-3.52 7.63,-2.49 9.09,-2.78 10.54,-3.07 10.63,-3.13 10.71,-3.20 10.81,-3.23 10.91,-3.27 11.01,-3.27 11.12,-3.27 11.22,-3.24 11.32,-3.21 11.41,-3.15 11.50,-3.08 11.56,-3.00 11.62,-2.91 11.65,-2.81 11.68,-2.71 11.67,-2.60 11.67,-2.49 11.63,-2.39 11.59,-2.29 11.53,-2.21 11.46,-2.13 11.37,-2.07 11.28,-2.02 11.18,-1.99 11.07,-1.97 10.97,-1.98 10.86,-1.99 10.76,-2.03 10.67,-2.07 10.59,-2.14 10.51,-2.22 10.46,-2.31 10.41,-2.40 10.39,-2.51 10.37,-2.61 10.39,-2.72 10.40,-2.82 10.45,-2.92 10.50,-3.01 10.57,-3.09 10.65,-3.16 10.74,-3.21 10.84,-3.25 10.95,-3.27 11.05,-3.28 11.15,-3.26 11.26,-3.24 11.35,-3.18 11.44,-3.13 11.51,-3.05 11.58,-2.97 11.62,-2.87 11.67,-2.78 11.67,-2.67 11.68,-2.56 11.65,-2.46 11.63,-2.36 11.57,-2.27 11.51,-2.18 11.51,-2.18 11.51,-2.18 9.14,-0.84 6.77,0.49 5.88,-0.20 4.99,-0.91 4.66,-1.50 4.32,-2.08 3.92,-2.68 3.52,-3.28 3.22,-3.98 2.93,-4.68 2.81,-5.39 2.69,-6.09 2.75,-6.27 2.80,-6.45 2.89,-6.61 2.98,-6.76 3.11,-6.89 3.24,-7.03 3.40,-7.12 3.55,-7.22 3.73,-7.28 3.90,-7.33 4.08,-7.35 4.27,-7.36 4.45,-7.33 4.63,-7.30 4.80,-7.23 4.97,-7.15 5.11,-7.04 5.26,-6.93 5.37,-6.79 5.49,-6.64 5.57,-6.48 5.64,-6.31 5.68,-6.13 5.71,-5.95 5.71,-5.77 5.70,-5.58 5.26,-4.92 4.83,-4.25 4.55,-3.67 4.27,-3.10 3.64,-2.38 3.02,-1.65 2.63,-1.02 2.24,-0.39 1.35,0.03 0.46,0.46 0.40,0.51 0.33,0.56 0.26,0.59 0.19,0.62 0.11,0.64 0.03,0.65 -0.03,0.65 -0.11,0.64 -0.19,0.62 -0.26,0.59 -0.33,0.55 -0.40,0.51 -0.46,0.46 -0.51,0.40 -0.55,0.33 -0.59,0.26 -0.62,0.19 -0.64,0.11 -0.65,0.03 -0.65,-0.03 -0.64,-0.11 -0.62,-0.19 -0.59,-0.26 -0.56,-0.33 -0.51,-0.40 -0.46,-0.46 -0.46,-0.46 L -0.46,-0.46 Z"/></g><g transform="translate(688.5673217773438 119.54450988769531) rotate(0 -0.38037109375 1.521453857421875)" stroke="none"><path fill="#1e1e1e" d="M 0.63,0.15 Q 0.63,0.15 0.32,1.40 0.01,2.65 -0.02,2.75 -0.07,2.84 -0.14,2.92 -0.21,3.00 -0.30,3.05 -0.39,3.10 -0.50,3.12 -0.60,3.14 -0.71,3.13 -0.81,3.12 -0.91,3.07 -1.00,3.02 -1.08,2.95 -1.15,2.87 -1.20,2.78 -1.25,2.68 -1.26,2.57 -1.27,2.47 -1.25,2.37 -1.23,2.26 -1.18,2.17 -1.13,2.08 -1.05,2.01 -0.97,1.93 -0.87,1.89 -0.78,1.85 -0.67,1.84 -0.56,1.83 -0.46,1.86 -0.36,1.89 -0.27,1.94 -0.18,2.00 -0.11,2.08 -0.05,2.17 -0.01,2.27 0.02,2.37 0.02,2.47 0.02,2.58 -0.00,2.68 -0.03,2.78 -0.09,2.87 -0.15,2.95 -0.24,3.02 -0.33,3.08 -0.43,3.11 -0.53,3.14 -0.64,3.14 -0.74,3.13 -0.84,3.10 -0.94,3.06 -1.03,2.99 -1.11,2.93 -1.16,2.84 -1.22,2.75 -1.25,2.64 -1.27,2.54 -1.26,2.43 -1.26,2.33 -1.26,2.33 -1.26,2.33 -0.94,1.08 -0.63,-0.15 -0.60,-0.23 -0.58,-0.30 -0.53,-0.37 -0.49,-0.43 -0.43,-0.48 -0.37,-0.54 -0.30,-0.57 -0.23,-0.61 -0.15,-0.63 -0.07,-0.65 0.00,-0.65 0.08,-0.65 0.15,-0.63 0.23,-0.61 0.30,-0.57 0.37,-0.53 0.43,-0.48 0.49,-0.43 0.53,-0.36 0.58,-0.30 0.61,-0.22 0.63,-0.15 0.64,-0.07 0.65,0.00 0.64,0.08 0.63,0.15 0.63,0.15 L 0.63,0.15 Z"/></g><g transform="translate(690.0888061523438 133.99830627441406) rotate(0 14.45379638671875 -9.12872314453125)" stroke="none"><path fill="#1e1e1e" d="M 0.15,-0.63 Q 0.15,-0.63 1.08,-0.67 2.00,-0.70 2.82,-0.89 3.64,-1.08 4.77,-1.57 5.91,-2.06 7.32,-3.48 8.74,-4.90 10.23,-6.79 11.72,-8.67 12.72,-10.89 13.73,-13.11 14.62,-15.57 15.51,-18.03 15.65,-20.01 15.80,-21.99 15.91,-22.68 16.02,-23.37 15.37,-23.13 14.71,-22.89 13.99,-21.46 13.28,-20.03 12.49,-17.49 11.69,-14.95 10.90,-11.67 10.10,-8.40 9.55,-5.49 8.99,-2.58 8.76,-0.08 8.52,2.41 8.42,4.14 8.31,5.86 8.24,6.81 8.17,7.76 8.13,7.95 8.08,8.14 8.06,8.28 8.03,8.43 7.98,8.56 7.92,8.69 7.83,8.81 7.74,8.93 7.63,9.02 7.51,9.11 7.38,9.17 7.25,9.24 7.10,9.27 6.96,9.29 6.81,9.29 6.67,9.28 6.53,9.24 6.39,9.20 6.26,9.12 6.13,9.05 6.03,8.95 5.92,8.85 5.85,8.72 5.77,8.60 5.72,8.46 5.68,8.32 5.67,8.17 5.65,8.03 5.27,6.84 4.90,5.66 4.53,5.13 4.17,4.60 3.61,3.96 3.05,3.33 2.37,2.61 1.70,1.90 0.92,1.57 0.15,1.24 0.03,1.03 -0.07,0.81 -0.21,0.75 -0.34,0.69 -0.46,0.60 -0.58,0.51 -0.67,0.40 -0.76,0.28 -0.82,0.15 -0.88,0.01 -0.91,-0.12 -0.94,-0.27 -0.93,-0.41 -0.92,-0.56 -0.88,-0.70 -0.84,-0.84 -0.76,-0.97 -0.69,-1.09 -0.58,-1.20 -0.48,-1.30 -0.36,-1.38 -0.23,-1.46 -0.09,-1.50 0.04,-1.55 0.19,-1.56 0.33,-1.57 0.48,-1.54 0.62,-1.52 0.19,-0.25 -0.23,1.02 -0.37,0.96 -0.50,0.90 -0.62,0.81 -0.74,0.72 -0.83,0.60 -0.92,0.49 -0.98,0.35 -1.05,0.22 -1.07,0.07 -1.10,-0.06 -1.09,-0.21 -1.09,-0.36 -1.04,-0.50 -1.00,-0.64 -0.92,-0.77 -0.85,-0.89 -0.75,-1.00 -0.64,-1.10 -0.52,-1.18 -0.39,-1.26 -0.25,-1.30 -0.11,-1.35 0.03,-1.36 0.18,-1.37 0.32,-1.34 0.47,-1.32 1.14,-1.04 1.82,-0.76 2.78,-0.70 3.74,-0.63 4.50,-0.80 5.25,-0.97 6.72,-1.26 8.20,-1.55 9.98,-2.49 11.76,-3.44 14.10,-4.73 16.44,-6.02 18.42,-7.80 20.41,-9.58 22.11,-11.80 23.80,-14.03 24.95,-16.22 26.10,-18.41 26.35,-20.29 26.60,-22.16 26.31,-23.27 26.03,-24.38 25.59,-24.96 25.16,-25.53 24.55,-25.71 23.95,-25.90 22.91,-24.41 21.87,-22.92 21.37,-20.89 20.87,-18.87 20.22,-15.79 19.56,-12.71 19.29,-10.14 19.02,-7.56 18.68,-5.12 18.34,-2.67 18.20,-1.01 18.06,0.64 18.00,1.77 17.94,2.91 17.68,3.93 17.42,4.94 16.36,4.88 15.31,4.83 15.00,4.00 14.68,3.17 14.22,2.77 13.75,2.36 13.41,1.78 13.08,1.19 12.42,0.70 11.77,0.21 11.70,0.09 11.62,-0.02 11.58,-0.16 11.54,-0.29 11.53,-0.43 11.53,-0.57 11.55,-0.71 11.58,-0.85 11.64,-0.98 11.70,-1.10 11.78,-1.22 11.87,-1.33 11.98,-1.41 12.09,-1.50 12.22,-1.56 12.35,-1.61 12.49,-1.64 12.63,-1.66 12.77,-1.65 12.91,-1.64 13.04,-1.60 13.18,-1.56 13.30,-1.48 13.42,-1.41 13.52,-1.31 13.62,-1.21 14.27,-1.60 14.93,-1.98 16.32,-2.00 17.72,-2.01 19.13,-1.96 20.55,-1.91 22.02,-2.31 23.49,-2.71 23.59,-2.72 23.70,-2.73 23.80,-2.71 23.90,-2.69 24.00,-2.64 24.09,-2.59 24.16,-2.51 24.23,-2.43 24.27,-2.33 24.31,-2.23 24.32,-2.13 24.33,-2.02 24.30,-1.92 24.28,-1.81 24.22,-1.73 24.16,-1.64 24.08,-1.57 23.99,-1.50 23.89,-1.47 23.79,-1.43 23.69,-1.43 23.58,-1.43 23.48,-1.46 23.38,-1.49 23.29,-1.55 23.21,-1.62 23.15,-1.70 23.08,-1.79 23.05,-1.89 23.02,-1.99 23.03,-2.10 23.03,-2.21 23.07,-2.30 23.10,-2.40 23.17,-2.49 23.24,-2.57 23.33,-2.63 23.42,-2.68 23.52,-2.71 23.63,-2.73 23.73,-2.72 23.84,-2.71 23.93,-2.67 24.03,-2.63 24.11,-2.56 24.19,-2.49 24.24,-2.39 24.29,-2.30 24.31,-2.20 24.33,-2.09 24.32,-1.99 24.30,-1.88 24.25,-1.79 24.21,-1.69 24.13,-1.62 24.05,-1.54 23.96,-1.50 23.86,-1.45 23.86,-1.45 23.86,-1.45 22.32,-0.94 20.78,-0.43 19.28,0.07 17.78,0.59 16.44,0.63 15.10,0.68 13.43,0.45 11.77,0.21 11.70,0.09 11.62,-0.02 11.58,-0.16 11.54,-0.29 11.53,-0.43 11.53,-0.57 11.55,-0.71 11.58,-0.85 11.64,-0.98 11.70,-1.10 11.78,-1.22 11.87,-1.33 11.98,-1.41 12.09,-1.50 12.22,-1.56 12.35,-1.61 12.49,-1.64 12.63,-1.66 12.77,-1.65 12.91,-1.64 13.04,-1.60 13.18,-1.56 13.30,-1.48 13.42,-1.41 13.52,-1.31 13.62,-1.21 13.93,-1.04 14.25,-0.86 14.78,-0.00 15.31,0.85 15.99,1.60 16.67,2.34 16.99,3.19 17.31,4.04 16.50,3.42 15.70,2.79 15.76,1.62 15.83,0.45 15.98,-1.26 16.13,-2.98 16.47,-5.39 16.81,-7.80 17.11,-10.49 17.41,-13.17 18.10,-16.29 18.79,-19.41 19.40,-21.66 20.00,-23.92 21.00,-25.54 22.01,-27.17 23.17,-27.53 24.34,-27.89 25.54,-27.41 26.73,-26.93 27.44,-25.95 28.15,-24.96 28.49,-23.44 28.84,-21.91 28.52,-19.64 28.20,-17.38 26.97,-14.97 25.74,-12.56 23.91,-10.14 22.07,-7.72 19.87,-5.77 17.66,-3.83 15.29,-2.52 12.91,-1.21 10.81,-0.15 8.70,0.89 7.21,1.18 5.71,1.47 4.62,1.65 3.53,1.83 2.21,1.67 0.89,1.51 0.33,1.26 -0.23,1.02 -0.37,0.96 -0.50,0.90 -0.62,0.81 -0.74,0.72 -0.83,0.60 -0.92,0.49 -0.98,0.35 -1.05,0.22 -1.07,0.07 -1.10,-0.06 -1.09,-0.21 -1.09,-0.36 -1.04,-0.50 -1.00,-0.64 -0.92,-0.77 -0.85,-0.89 -0.75,-1.00 -0.64,-1.10 -0.52,-1.18 -0.39,-1.26 -0.25,-1.30 -0.11,-1.35 0.03,-1.36 0.18,-1.37 0.32,-1.34 0.47,-1.32 0.19,-0.25 -0.07,0.81 -0.21,0.75 -0.34,0.69 -0.46,0.60 -0.58,0.51 -0.67,0.40 -0.76,0.28 -0.82,0.15 -0.88,0.01 -0.91,-0.12 -0.94,-0.27 -0.93,-0.41 -0.92,-0.56 -0.88,-0.70 -0.84,-0.84 -0.76,-0.97 -0.69,-1.09 -0.58,-1.20 -0.48,-1.30 -0.36,-1.38 -0.23,-1.46 -0.09,-1.50 0.04,-1.55 0.19,-1.56 0.33,-1.57 0.48,-1.54 0.62,-1.52 1.37,-1.04 2.13,-0.56 2.76,-0.15 3.40,0.25 4.11,1.00 4.83,1.76 5.49,2.51 6.15,3.26 6.60,3.93 7.05,4.60 7.55,5.73 8.05,6.87 8.06,7.50 8.08,8.14 8.06,8.28 8.03,8.43 7.98,8.56 7.92,8.69 7.83,8.81 7.74,8.93 7.63,9.02 7.51,9.11 7.38,9.17 7.25,9.24 7.10,9.27 6.96,9.29 6.81,9.29 6.67,9.28 6.53,9.24 6.39,9.20 6.26,9.12 6.13,9.05 6.03,8.95 5.92,8.85 5.85,8.72 5.77,8.60 5.72,8.46 5.68,8.32 5.67,8.17 5.65,8.03 5.65,7.84 5.64,7.65 5.65,6.68 5.67,5.71 5.77,3.94 5.86,2.17 6.10,-0.45 6.34,-3.08 6.90,-6.05 7.46,-9.03 8.27,-12.41 9.07,-15.78 9.98,-18.59 10.88,-21.41 12.11,-23.32 13.34,-25.22 14.52,-25.62 15.71,-26.02 16.79,-25.50 17.88,-24.98 18.28,-23.38 18.69,-21.78 18.50,-19.42 18.31,-17.06 17.38,-14.45 16.46,-11.84 15.25,-9.33 14.04,-6.83 12.38,-4.80 10.71,-2.77 8.83,-1.14 6.94,0.47 5.45,0.96 3.96,1.45 2.73,1.51 1.49,1.57 0.66,1.10 -0.15,0.63 -0.23,0.60 -0.30,0.58 -0.37,0.53 -0.43,0.49 -0.48,0.43 -0.54,0.37 -0.57,0.30 -0.61,0.23 -0.63,0.15 -0.65,0.07 -0.65,-0.00 -0.65,-0.08 -0.63,-0.15 -0.61,-0.23 -0.57,-0.30 -0.53,-0.37 -0.48,-0.43 -0.43,-0.49 -0.36,-0.53 -0.30,-0.58 -0.22,-0.61 -0.15,-0.63 -0.07,-0.64 0.00,-0.65 0.08,-0.64 0.15,-0.63 0.15,-0.63 L 0.15,-0.63 Z"/></g><g transform="translate(746.3825073242188 127.15177917480469) rotate(0 3.80364990234375 4.9447174072265625)" stroke="none"><path fill="#1e1e1e" d="M 0.52,-0.39 Q 0.52,-0.39 1.47,0.25 2.43,0.90 3.34,1.87 4.25,2.83 4.92,3.77 5.59,4.71 6.03,5.28 6.47,5.84 7.19,7.49 7.91,9.14 7.95,9.23 7.99,9.33 8.00,9.44 8.01,9.54 7.98,9.65 7.95,9.75 7.89,9.84 7.84,9.93 7.75,9.99 7.67,10.06 7.57,10.09 7.47,10.13 7.36,10.13 7.26,10.13 7.16,10.10 7.05,10.07 6.97,10.01 6.88,9.94 6.82,9.86 6.76,9.77 6.73,9.67 6.70,9.57 6.70,9.46 6.71,9.35 6.75,9.25 6.78,9.16 6.85,9.07 6.92,8.99 7.01,8.93 7.10,8.88 7.20,8.85 7.31,8.83 7.41,8.84 7.52,8.85 7.61,8.89 7.71,8.93 7.79,9.01 7.87,9.08 7.92,9.17 7.97,9.26 7.99,9.37 8.01,9.47 7.99,9.58 7.98,9.68 7.93,9.78 7.88,9.87 7.81,9.95 7.73,10.02 7.63,10.07 7.54,10.11 7.43,10.13 7.33,10.14 7.22,10.12 7.12,10.10 7.03,10.05 6.94,9.99 6.87,9.91 6.80,9.83 6.80,9.83 6.80,9.83 5.53,8.73 4.27,7.62 3.75,7.00 3.22,6.38 2.66,5.58 2.10,4.77 1.15,3.68 0.19,2.58 -0.16,1.49 -0.52,0.39 -0.56,0.32 -0.60,0.25 -0.62,0.18 -0.64,0.10 -0.65,0.02 -0.65,-0.05 -0.63,-0.13 -0.62,-0.20 -0.58,-0.28 -0.55,-0.35 -0.50,-0.41 -0.45,-0.47 -0.39,-0.52 -0.32,-0.56 -0.25,-0.59 -0.18,-0.63 -0.10,-0.64 -0.02,-0.65 0.05,-0.64 0.13,-0.64 0.20,-0.61 0.28,-0.59 0.34,-0.55 0.41,-0.50 0.47,-0.45 0.52,-0.39 0.52,-0.39 L 0.52,-0.39 Z"/></g><g transform="translate(745.6217651367188 137.0412139892578) rotate(0 6.8465576171875 -4.564361572265625)" stroke="none"><path fill="#1e1e1e" d="M -0.46,-0.46 Q -0.46,-0.46 0.24,-1.51 0.94,-2.56 2.07,-3.26 3.20,-3.96 4.44,-5.01 5.68,-6.05 6.97,-6.92 8.26,-7.80 10.41,-8.57 12.55,-9.34 12.65,-9.37 12.76,-9.40 12.86,-9.39 12.97,-9.38 13.07,-9.34 13.16,-9.30 13.24,-9.23 13.32,-9.16 13.38,-9.06 13.43,-8.97 13.45,-8.87 13.47,-8.76 13.46,-8.66 13.44,-8.55 13.40,-8.46 13.35,-8.36 13.28,-8.29 13.20,-8.21 13.11,-8.16 13.01,-8.12 12.91,-8.10 12.80,-8.09 12.70,-8.10 12.59,-8.12 12.50,-8.18 12.41,-8.23 12.33,-8.31 12.26,-8.38 12.22,-8.48 12.18,-8.58 12.17,-8.69 12.16,-8.79 12.18,-8.89 12.21,-9.00 12.27,-9.09 12.32,-9.18 12.41,-9.24 12.49,-9.31 12.59,-9.35 12.69,-9.39 12.79,-9.39 12.90,-9.39 13.00,-9.36 13.10,-9.33 13.19,-9.27 13.28,-9.21 13.34,-9.12 13.40,-9.04 13.43,-8.94 13.46,-8.83 13.46,-8.73 13.46,-8.62 13.42,-8.52 13.39,-8.42 13.32,-8.34 13.26,-8.26 13.17,-8.20 13.08,-8.14 13.08,-8.14 13.08,-8.14 11.26,-7.18 9.44,-6.22 8.30,-5.27 7.17,-4.31 5.79,-3.10 4.40,-1.89 3.47,-1.41 2.55,-0.93 1.50,-0.23 0.46,0.46 0.40,0.51 0.33,0.56 0.26,0.59 0.19,0.62 0.11,0.64 0.03,0.65 -0.03,0.65 -0.11,0.64 -0.19,0.62 -0.26,0.59 -0.33,0.55 -0.40,0.51 -0.46,0.46 -0.51,0.40 -0.55,0.33 -0.59,0.26 -0.62,0.19 -0.64,0.11 -0.65,0.03 -0.65,-0.03 -0.64,-0.11 -0.62,-0.19 -0.59,-0.26 -0.56,-0.33 -0.51,-0.40 -0.46,-0.46 -0.46,-0.46 L -0.46,-0.46 Z"/></g><g transform="translate(765.4006958007812 130.9553985595703) rotate(0 4.1839599609375 -0.7607269287109375)" stroke="none"><path fill="#1e1e1e" d="M -0.36,-0.54 Q -0.36,-0.54 0.18,-1.14 0.74,-1.73 1.33,-2.01 1.92,-2.29 2.92,-2.47 3.92,-2.65 6.00,-2.41 8.07,-2.17 8.17,-2.15 8.28,-2.14 8.37,-2.09 8.47,-2.04 8.54,-1.96 8.61,-1.89 8.66,-1.79 8.71,-1.70 8.72,-1.59 8.73,-1.49 8.71,-1.38 8.69,-1.28 8.64,-1.19 8.58,-1.09 8.50,-1.02 8.42,-0.95 8.32,-0.91 8.23,-0.87 8.12,-0.87 8.01,-0.86 7.91,-0.89 7.81,-0.91 7.72,-0.97 7.63,-1.03 7.56,-1.11 7.50,-1.20 7.46,-1.30 7.43,-1.40 7.43,-1.50 7.43,-1.61 7.46,-1.71 7.49,-1.81 7.55,-1.90 7.62,-1.98 7.70,-2.04 7.79,-2.10 7.89,-2.13 8.00,-2.16 8.10,-2.16 8.21,-2.16 8.31,-2.12 8.41,-2.08 8.49,-2.01 8.57,-1.94 8.63,-1.85 8.68,-1.76 8.71,-1.66 8.73,-1.56 8.72,-1.45 8.71,-1.35 8.67,-1.25 8.62,-1.15 8.55,-1.07 8.48,-1.00 8.39,-0.94 8.29,-0.89 8.19,-0.87 8.08,-0.86 8.08,-0.86 8.08,-0.86 6.12,-0.50 4.15,-0.15 3.01,-0.08 1.88,-0.00 1.12,0.26 0.36,0.54 0.29,0.58 0.22,0.61 0.14,0.63 0.06,0.65 -0.01,0.65 -0.08,0.65 -0.16,0.63 -0.24,0.61 -0.31,0.57 -0.38,0.53 -0.44,0.48 -0.49,0.42 -0.54,0.36 -0.58,0.29 -0.61,0.22 -0.64,0.14 -0.64,0.06 -0.65,-0.01 -0.64,-0.08 -0.63,-0.16 -0.60,-0.24 -0.57,-0.31 -0.53,-0.37 -0.48,-0.44 -0.42,-0.49 -0.36,-0.54 -0.36,-0.54 L -0.36,-0.54 Z"/></g><g transform="translate(766.1613159179688 133.23756408691406) rotate(0 3.80364990234375 0)" stroke="none"><path fill="#1e1e1e" d="M 0,-0.65 Q 0,-0.65 0.87,-0.97 1.74,-1.30 2.55,-1.28 3.36,-1.26 5.24,-0.96 7.12,-0.65 7.22,-0.63 7.33,-0.62 7.42,-0.57 7.52,-0.52 7.59,-0.44 7.66,-0.36 7.71,-0.27 7.75,-0.17 7.76,-0.07 7.77,0.03 7.75,0.13 7.73,0.24 7.67,0.33 7.62,0.42 7.54,0.49 7.46,0.56 7.36,0.60 7.26,0.64 7.15,0.64 7.05,0.65 6.95,0.62 6.84,0.59 6.76,0.53 6.67,0.47 6.60,0.39 6.54,0.30 6.50,0.20 6.47,0.10 6.47,-0.00 6.47,-0.10 6.50,-0.20 6.54,-0.30 6.60,-0.39 6.67,-0.47 6.76,-0.53 6.84,-0.59 6.95,-0.62 7.05,-0.65 7.15,-0.64 7.26,-0.64 7.36,-0.60 7.46,-0.56 7.54,-0.49 7.62,-0.42 7.67,-0.33 7.73,-0.24 7.75,-0.13 7.77,-0.03 7.76,0.07 7.75,0.17 7.71,0.27 7.66,0.36 7.59,0.44 7.52,0.52 7.42,0.57 7.33,0.62 7.22,0.63 7.12,0.65 7.12,0.65 7.12,0.65 5.24,0.96 3.36,1.26 2.55,1.28 1.74,1.30 0.87,0.97 0,0.65 -0.07,0.64 -0.15,0.63 -0.23,0.60 -0.30,0.58 -0.37,0.53 -0.43,0.49 -0.48,0.43 -0.54,0.37 -0.57,0.30 -0.61,0.23 -0.63,0.15 -0.65,0.07 -0.65,-0.00 -0.65,-0.07 -0.63,-0.15 -0.61,-0.23 -0.57,-0.30 -0.54,-0.37 -0.48,-0.43 -0.43,-0.49 -0.37,-0.53 -0.30,-0.58 -0.23,-0.60 -0.15,-0.63 -0.07,-0.64 0.00,-0.65 0.00,-0.65 L 0,-0.65 Z"/></g><g transform="translate(780.6151733398438 128.67323303222656) rotate(0 3.0428466796875 7.6072540283203125)" stroke="none"><path fill="#1e1e1e" d="M 0.63,-0.15 Q 0.63,-0.15 1.03,0.64 1.42,1.44 1.85,1.79 2.28,2.14 3.39,2.10 4.50,2.05 5.31,1.42 6.13,0.80 6.68,0.15 7.23,-0.49 7.68,-0.91 8.13,-1.33 8.15,-1.71 8.18,-2.08 8.30,-2.18 8.42,-2.28 8.56,-2.35 8.71,-2.42 8.86,-2.46 9.01,-2.49 9.17,-2.48 9.33,-2.48 9.48,-2.44 9.64,-2.39 9.77,-2.32 9.91,-2.24 10.03,-2.13 10.14,-2.02 10.23,-1.89 10.31,-1.75 10.36,-1.60 10.41,-1.46 10.43,-1.30 10.44,-1.14 10.42,-0.98 10.39,-0.83 10.33,-0.68 10.27,-0.54 10.18,-0.41 10.08,-0.28 9.18,0.53 8.27,1.36 6.88,3.14 5.50,4.92 4.23,6.59 2.96,8.25 1.79,10.01 0.61,11.77 -1.15,14.17 -2.91,16.57 -2.99,16.65 -3.06,16.73 -3.15,16.78 -3.24,16.83 -3.35,16.85 -3.45,16.87 -3.56,16.86 -3.66,16.84 -3.76,16.79 -3.85,16.75 -3.93,16.67 -4.00,16.60 -4.05,16.50 -4.09,16.41 -4.11,16.30 -4.12,16.19 -4.10,16.09 -4.08,15.99 -4.03,15.89 -3.98,15.80 -3.90,15.73 -3.82,15.66 -3.72,15.62 -3.62,15.58 -3.52,15.57 -3.41,15.56 -3.31,15.59 -3.21,15.61 -3.12,15.67 -3.03,15.73 -2.96,15.81 -2.89,15.89 -2.86,15.99 -2.82,16.09 -2.82,16.20 -2.82,16.30 -2.85,16.41 -2.88,16.51 -2.94,16.59 -3.00,16.68 -3.09,16.74 -3.18,16.80 -3.28,16.83 -3.38,16.86 -3.49,16.86 -3.59,16.86 -3.69,16.82 -3.79,16.78 -3.87,16.72 -3.96,16.65 -4.01,16.56 -4.07,16.47 -4.10,16.37 -4.12,16.27 -4.11,16.16 -4.10,16.05 -4.06,15.96 -4.02,15.86 -4.02,15.86 -4.02,15.86 -2.82,13.07 -1.63,10.28 -0.40,8.44 0.81,6.59 2.10,4.93 3.39,3.26 4.94,1.31 6.49,-0.62 7.33,-1.35 8.18,-2.08 8.30,-2.18 8.42,-2.28 8.56,-2.35 8.71,-2.42 8.86,-2.46 9.01,-2.49 9.17,-2.48 9.33,-2.48 9.48,-2.44 9.64,-2.39 9.77,-2.32 9.91,-2.24 10.03,-2.13 10.14,-2.02 10.23,-1.89 10.31,-1.75 10.36,-1.61 10.41,-1.46 10.43,-1.30 10.44,-1.14 10.42,-0.98 10.39,-0.83 10.33,-0.68 10.27,-0.54 10.18,-0.41 10.08,-0.28 10.12,-0.20 10.15,-0.13 9.60,0.51 9.05,1.15 8.26,1.97 7.48,2.80 6.19,3.58 4.89,4.36 3.68,4.44 2.47,4.52 1.59,4.11 0.71,3.71 0.08,2.88 -0.55,2.05 -0.59,1.10 -0.63,0.15 -0.64,0.08 -0.65,0.00 -0.64,-0.07 -0.63,-0.15 -0.61,-0.22 -0.58,-0.30 -0.53,-0.36 -0.49,-0.43 -0.43,-0.48 -0.37,-0.53 -0.30,-0.57 -0.23,-0.61 -0.15,-0.63 -0.08,-0.65 -0.00,-0.65 0.07,-0.65 0.15,-0.63 0.23,-0.61 0.30,-0.57 0.37,-0.54 0.43,-0.48 0.49,-0.43 0.53,-0.37 0.58,-0.30 0.60,-0.23 0.63,-0.15 0.63,-0.15 L 0.63,-0.15 Z"/></g><g transform="translate(798.8726196289062 131.7161102294922) rotate(0 3.4232177734375 0.38037109375)" stroke="none"><path fill="#1e1e1e" d="M 0.12,-0.64 Q 0.12,-0.64 1.27,-0.69 2.42,-0.73 4.39,-0.32 6.36,0.08 6.46,0.10 6.57,0.12 6.66,0.17 6.75,0.23 6.82,0.31 6.89,0.39 6.93,0.49 6.97,0.59 6.97,0.69 6.98,0.80 6.95,0.90 6.92,1.00 6.86,1.09 6.81,1.18 6.72,1.24 6.64,1.31 6.54,1.34 6.44,1.38 6.33,1.38 6.22,1.38 6.12,1.35 6.02,1.31 5.94,1.25 5.85,1.19 5.79,1.10 5.73,1.01 5.70,0.91 5.67,0.81 5.68,0.70 5.68,0.59 5.72,0.49 5.76,0.40 5.83,0.31 5.90,0.23 5.99,0.18 6.08,0.12 6.18,0.10 6.29,0.08 6.39,0.09 6.50,0.10 6.59,0.14 6.69,0.19 6.77,0.26 6.85,0.33 6.90,0.42 6.95,0.52 6.96,0.62 6.98,0.73 6.97,0.83 6.95,0.94 6.90,1.03 6.85,1.13 6.77,1.20 6.70,1.27 6.60,1.32 6.51,1.36 6.40,1.37 6.29,1.39 6.29,1.39 6.29,1.39 4.12,1.50 1.95,1.61 0.91,1.12 -0.12,0.64 -0.20,0.61 -0.27,0.59 -0.34,0.55 -0.41,0.51 -0.46,0.45 -0.52,0.39 -0.56,0.32 -0.60,0.25 -0.62,0.18 -0.64,0.10 -0.65,0.02 -0.65,-0.05 -0.63,-0.12 -0.62,-0.20 -0.59,-0.27 -0.55,-0.34 -0.50,-0.41 -0.45,-0.47 -0.39,-0.51 -0.33,-0.56 -0.25,-0.59 -0.18,-0.63 -0.10,-0.64 -0.02,-0.65 0.04,-0.64 0.12,-0.64 0.12,-0.64 L 0.12,-0.64 Z"/></g><g transform="translate(798.1118774414062 135.51976013183594) rotate(0 4.9447021484375 0)" stroke="none"><path fill="#1e1e1e" d="M 0,-0.65 Q 0,-0.65 1.09,-0.92 2.18,-1.18 3.08,-1.20 3.99,-1.22 5.03,-1.16 6.07,-1.10 7.63,-0.88 9.19,-0.65 9.30,-0.63 9.40,-0.62 9.50,-0.57 9.59,-0.52 9.67,-0.44 9.74,-0.36 9.78,-0.27 9.83,-0.17 9.84,-0.07 9.85,0.03 9.83,0.13 9.80,0.24 9.75,0.33 9.70,0.42 9.61,0.49 9.53,0.56 9.43,0.60 9.34,0.64 9.23,0.64 9.12,0.65 9.02,0.62 8.92,0.59 8.83,0.53 8.74,0.47 8.68,0.39 8.61,0.30 8.58,0.20 8.55,0.10 8.55,-0.00 8.55,-0.10 8.58,-0.20 8.61,-0.30 8.68,-0.39 8.74,-0.47 8.83,-0.53 8.92,-0.59 9.02,-0.62 9.12,-0.65 9.23,-0.64 9.34,-0.64 9.43,-0.60 9.53,-0.56 9.61,-0.49 9.70,-0.42 9.75,-0.33 9.80,-0.24 9.83,-0.13 9.85,-0.03 9.84,0.07 9.83,0.17 9.78,0.27 9.74,0.36 9.66,0.44 9.59,0.52 9.50,0.57 9.40,0.62 9.30,0.63 9.19,0.65 9.19,0.65 9.19,0.65 7.63,0.88 6.07,1.10 5.03,1.16 3.99,1.22 3.08,1.20 2.18,1.18 1.09,0.92 0,0.65 -0.07,0.64 -0.15,0.63 -0.23,0.60 -0.30,0.58 -0.37,0.53 -0.43,0.49 -0.48,0.43 -0.54,0.37 -0.57,0.30 -0.61,0.23 -0.63,0.15 -0.65,0.07 -0.65,-0.00 -0.65,-0.07 -0.63,-0.15 -0.61,-0.23 -0.57,-0.30 -0.54,-0.37 -0.48,-0.43 -0.43,-0.49 -0.37,-0.53 -0.30,-0.58 -0.23,-0.60 -0.15,-0.63 -0.07,-0.64 0.00,-0.65 0.00,-0.65 L 0,-0.65 Z"/></g><g transform="translate(816.3692016601562 135.51976013183594) rotate(0 3.80364990234375 -3.04290771484375)" stroke="none"><path fill="#1e1e1e" d="M -0.39,-0.52 Q -0.39,-0.52 0.31,-1.39 1.03,-2.25 1.50,-2.89 1.98,-3.52 2.68,-4.30 3.38,-5.08 4.11,-5.85 4.84,-6.62 5.36,-7.39 5.88,-8.15 6.00,-8.25 6.13,-8.35 6.27,-8.42 6.41,-8.49 6.57,-8.52 6.72,-8.55 6.88,-8.54 7.04,-8.53 7.19,-8.49 7.34,-8.45 7.48,-8.37 7.61,-8.29 7.72,-8.18 7.84,-8.07 7.92,-7.93 8.01,-7.80 8.05,-7.65 8.10,-7.50 8.12,-7.34 8.13,-7.18 8.10,-7.03 8.08,-6.87 8.01,-6.73 7.95,-6.58 7.86,-6.46 7.76,-6.33 7.38,-5.70 6.99,-5.07 6.61,-3.80 6.22,-2.53 5.41,-0.29 4.60,1.93 4.55,2.02 4.50,2.12 4.43,2.19 4.35,2.27 4.26,2.31 4.16,2.36 4.05,2.37 3.95,2.38 3.84,2.36 3.74,2.34 3.65,2.29 3.56,2.23 3.49,2.15 3.42,2.07 3.38,1.98 3.34,1.88 3.33,1.77 3.32,1.67 3.35,1.56 3.38,1.46 3.43,1.37 3.49,1.28 3.58,1.22 3.66,1.15 3.76,1.12 3.86,1.08 3.97,1.08 4.07,1.08 4.17,1.11 4.28,1.14 4.36,1.21 4.45,1.27 4.51,1.36 4.57,1.44 4.60,1.55 4.63,1.65 4.62,1.75 4.62,1.86 4.58,1.96 4.54,2.06 4.48,2.14 4.41,2.22 4.32,2.28 4.23,2.33 4.12,2.36 4.02,2.38 3.91,2.37 3.81,2.36 3.71,2.32 3.61,2.28 3.54,2.20 3.46,2.13 3.41,2.04 3.36,1.95 3.34,1.84 3.32,1.74 3.34,1.63 3.35,1.53 3.35,1.53 3.35,1.53 3.64,-0.78 3.93,-3.10 4.25,-4.62 4.56,-6.13 5.22,-7.14 5.88,-8.15 6.00,-8.25 6.13,-8.35 6.27,-8.42 6.41,-8.49 6.57,-8.52 6.72,-8.55 6.88,-8.54 7.04,-8.53 7.19,-8.49 7.34,-8.45 7.48,-8.37 7.61,-8.29 7.72,-8.18 7.84,-8.07 7.92,-7.93 8.01,-7.80 8.05,-7.65 8.10,-7.50 8.12,-7.34 8.13,-7.18 8.10,-7.03 8.08,-6.87 8.01,-6.73 7.95,-6.58 7.86,-6.46 7.76,-6.33 7.22,-5.59 6.68,-4.84 5.96,-4.10 5.23,-3.37 4.55,-2.66 3.87,-1.96 3.17,-1.16 2.46,-0.36 1.43,0.07 0.39,0.52 0.32,0.56 0.25,0.60 0.18,0.62 0.10,0.64 0.02,0.65 -0.05,0.65 -0.13,0.63 -0.20,0.62 -0.28,0.58 -0.35,0.55 -0.41,0.50 -0.47,0.45 -0.52,0.39 -0.56,0.32 -0.59,0.25 -0.63,0.18 -0.64,0.10 -0.65,0.02 -0.64,-0.05 -0.64,-0.13 -0.61,-0.20 -0.59,-0.28 -0.55,-0.34 -0.50,-0.41 -0.45,-0.47 -0.39,-0.52 -0.39,-0.52 L -0.39,-0.52 Z"/></g><g transform="translate(639.1201782226562 168.99168395996094) rotate(0 5.7054443359375 5.3250732421875)" stroke="none"><path fill="#1e1e1e" d="M 0,-0.65 Q 0,-0.65 1.31,-0.93 2.62,-1.20 3.84,-1.21 5.05,-1.22 6.14,-0.99 7.23,-0.77 8.04,-0.69 8.86,-0.61 9.66,0.44 10.46,1.50 10.21,2.18 9.96,2.85 9.10,3.87 8.24,4.89 7.45,5.72 6.67,6.56 5.93,7.27 5.20,7.99 5.60,8.40 6.00,8.81 6.67,8.92 7.33,9.04 9.07,9.20 10.82,9.36 10.93,9.35 11.03,9.34 11.14,9.36 11.24,9.39 11.33,9.44 11.42,9.50 11.49,9.58 11.56,9.66 11.59,9.76 11.63,9.86 11.64,9.97 11.64,10.07 11.61,10.18 11.58,10.28 11.52,10.36 11.46,10.45 11.38,10.52 11.29,10.58 11.19,10.61 11.09,10.64 10.98,10.64 10.88,10.64 10.78,10.61 10.68,10.57 10.59,10.51 10.51,10.44 10.45,10.35 10.39,10.27 10.36,10.16 10.34,10.06 10.34,9.95 10.35,9.85 10.39,9.75 10.43,9.65 10.50,9.57 10.57,9.49 10.66,9.44 10.75,9.38 10.86,9.36 10.96,9.34 11.07,9.35 11.17,9.36 11.27,9.41 11.36,9.46 11.44,9.53 11.52,9.60 11.57,9.70 11.61,9.79 11.63,9.90 11.65,10.00 11.63,10.11 11.61,10.21 11.56,10.31 11.51,10.40 11.43,10.47 11.35,10.54 11.26,10.59 11.16,10.63 11.16,10.63 11.16,10.63 8.93,11.10 6.69,11.56 5.52,11.22 4.35,10.87 3.59,9.98 2.82,9.08 2.98,7.75 3.14,6.42 3.93,5.57 4.72,4.72 5.47,3.92 6.22,3.13 7.24,1.95 8.25,0.77 8.33,1.31 8.42,1.85 7.55,1.75 6.68,1.64 5.86,1.43 5.04,1.22 3.83,1.21 2.62,1.20 1.31,0.93 0,0.65 -0.07,0.64 -0.15,0.63 -0.23,0.60 -0.30,0.58 -0.37,0.53 -0.43,0.49 -0.48,0.43 -0.54,0.37 -0.57,0.30 -0.61,0.23 -0.63,0.15 -0.65,0.07 -0.65,-0.00 -0.65,-0.07 -0.63,-0.15 -0.61,-0.23 -0.57,-0.30 -0.54,-0.37 -0.48,-0.43 -0.43,-0.49 -0.37,-0.53 -0.30,-0.58 -0.23,-0.60 -0.15,-0.63 -0.07,-0.64 0.00,-0.65 0.00,-0.65 L 0,-0.65 Z"/></g><g transform="translate(639.8809204101562 176.5989532470703) rotate(0 5.7054443359375 -0.7607269287109375)" stroke="none"><path fill="#1e1e1e" d="M -0.12,-0.64 Q -0.12,-0.64 0.90,-1.15 1.93,-1.67 3.01,-1.98 4.08,-2.29 5.32,-2.38 6.56,-2.47 8.60,-1.99 10.63,-1.51 10.73,-1.48 10.84,-1.45 10.92,-1.39 11.01,-1.33 11.07,-1.24 11.14,-1.16 11.17,-1.06 11.20,-0.96 11.20,-0.85 11.20,-0.74 11.17,-0.64 11.13,-0.54 11.07,-0.46 11.00,-0.38 10.91,-0.32 10.82,-0.26 10.72,-0.23 10.62,-0.20 10.51,-0.21 10.41,-0.22 10.31,-0.26 10.21,-0.30 10.13,-0.37 10.05,-0.44 9.99,-0.53 9.94,-0.62 9.92,-0.73 9.90,-0.83 9.91,-0.93 9.92,-1.04 9.97,-1.14 10.01,-1.23 10.09,-1.31 10.16,-1.38 10.26,-1.43 10.35,-1.48 10.46,-1.50 10.56,-1.51 10.67,-1.50 10.77,-1.48 10.86,-1.43 10.96,-1.38 11.03,-1.30 11.10,-1.22 11.14,-1.12 11.19,-1.03 11.20,-0.92 11.21,-0.81 11.19,-0.71 11.16,-0.61 11.11,-0.52 11.05,-0.43 10.97,-0.36 10.89,-0.29 10.79,-0.25 10.69,-0.21 10.58,-0.21 10.48,-0.21 10.48,-0.21 10.48,-0.21 8.65,-0.19 6.82,-0.18 5.79,-0.00 4.76,0.17 3.60,0.48 2.43,0.79 1.28,0.72 0.12,0.64 0.04,0.64 -0.02,0.65 -0.10,0.64 -0.18,0.62 -0.25,0.59 -0.33,0.56 -0.39,0.51 -0.45,0.47 -0.50,0.41 -0.55,0.34 -0.59,0.27 -0.62,0.20 -0.63,0.12 -0.65,0.05 -0.65,-0.02 -0.64,-0.10 -0.62,-0.18 -0.60,-0.25 -0.56,-0.32 -0.52,-0.39 -0.46,-0.45 -0.41,-0.51 -0.34,-0.55 -0.27,-0.59 -0.20,-0.61 -0.12,-0.64 -0.12,-0.64 L -0.12,-0.64 Z"/></g><g transform="translate(674.8743286132812 175.8382110595703) rotate(0 26.2449951171875 -8.36798095703125)" stroke="none"><path fill="#1e1e1e" d="M 0.12,-0.64 Q 0.12,-0.64 1.26,-0.68 2.40,-0.72 3.33,-0.87 4.27,-1.02 5.23,-1.48 6.19,-1.95 7.51,-2.59 8.83,-3.24 9.69,-4.06 10.55,-4.89 9.66,-3.75 8.78,-2.62 8.57,-1.71 8.37,-0.81 9.21,-0.18 10.04,0.43 10.94,0.34 11.84,0.26 13.42,-0.56 14.99,-1.38 16.53,-2.56 18.07,-3.75 20.01,-5.75 21.95,-7.75 23.18,-9.42 24.41,-11.10 25.10,-12.98 25.78,-14.86 25.66,-16.11 25.53,-17.37 25.19,-17.95 24.85,-18.53 24.08,-18.10 23.30,-17.66 22.86,-16.85 22.41,-16.04 22.03,-14.05 21.64,-12.06 21.47,-10.33 21.29,-8.60 21.45,-6.63 21.60,-4.67 21.85,-3.71 22.10,-2.75 22.73,-2.10 23.36,-1.46 24.00,-1.24 24.64,-1.03 25.58,-1.52 26.52,-2.02 27.37,-2.60 28.23,-3.18 28.97,-4.01 29.70,-4.84 29.85,-5.73 30.00,-6.63 31.14,-7.45 32.28,-8.28 32.83,-7.97 33.38,-7.67 33.89,-7.27 34.40,-6.87 34.95,-6.55 35.50,-6.24 36.06,-5.82 36.63,-5.40 37.20,-4.68 37.77,-3.96 38.22,-3.22 38.68,-2.48 38.92,-1.79 39.16,-1.10 39.04,-0.09 38.92,0.91 38.32,1.89 37.72,2.86 36.93,3.54 36.13,4.22 35.47,4.53 34.81,4.85 34.38,4.92 33.94,5.00 33.77,5.05 33.60,5.10 33.43,5.11 33.25,5.12 33.08,5.09 32.90,5.06 32.74,4.98 32.58,4.91 32.44,4.80 32.30,4.69 32.19,4.55 32.09,4.42 32.01,4.25 31.94,4.09 31.91,3.92 31.88,3.75 31.89,3.57 31.90,3.39 31.95,3.23 32.01,3.06 32.10,2.91 32.19,2.75 32.31,2.63 32.44,2.51 32.59,2.41 32.74,2.32 33.52,1.92 34.30,1.52 35.15,0.99 36.00,0.46 36.55,0.03 37.10,-0.38 38.31,-1.06 39.52,-1.74 41.09,-2.64 42.65,-3.55 43.91,-4.54 45.17,-5.53 45.83,-5.91 46.49,-6.29 45.86,-5.93 45.23,-5.57 44.90,-5.05 44.58,-4.52 44.85,-3.44 45.12,-2.37 45.62,-1.61 46.12,-0.86 48.72,-0.13 51.33,0.59 51.43,0.63 51.53,0.67 51.61,0.74 51.69,0.81 51.74,0.90 51.80,0.99 51.82,1.09 51.84,1.20 51.83,1.30 51.82,1.41 51.78,1.51 51.73,1.60 51.66,1.68 51.59,1.76 51.49,1.81 51.40,1.86 51.30,1.87 51.19,1.89 51.09,1.88 50.98,1.86 50.89,1.81 50.79,1.76 50.72,1.68 50.65,1.61 50.60,1.51 50.56,1.41 50.55,1.31 50.53,1.20 50.56,1.10 50.58,0.99 50.63,0.90 50.69,0.81 50.77,0.74 50.85,0.67 50.95,0.63 51.05,0.59 51.15,0.59 51.26,0.58 51.36,0.61 51.46,0.64 51.55,0.70 51.64,0.76 51.70,0.84 51.77,0.93 51.80,1.03 51.84,1.13 51.84,1.23 51.84,1.34 51.80,1.44 51.77,1.54 51.71,1.63 51.64,1.71 51.55,1.77 51.47,1.83 51.36,1.86 51.26,1.89 51.16,1.88 51.05,1.88 51.05,1.88 51.05,1.88 47.78,1.34 44.51,0.80 43.53,-0.54 42.56,-1.89 42.45,-3.71 42.34,-5.52 43.19,-6.65 44.03,-7.77 45.23,-8.24 46.44,-8.70 47.16,-8.46 47.87,-8.21 48.22,-6.82 48.56,-5.43 47.66,-4.48 46.76,-3.53 45.37,-2.42 43.97,-1.31 42.39,-0.37 40.81,0.56 39.77,1.15 38.72,1.73 38.08,2.22 37.44,2.72 36.51,3.31 35.59,3.91 34.76,4.45 33.94,5.00 33.77,5.05 33.60,5.10 33.43,5.11 33.25,5.12 33.08,5.09 32.90,5.06 32.74,4.98 32.58,4.91 32.44,4.80 32.30,4.69 32.20,4.55 32.09,4.42 32.01,4.25 31.94,4.09 31.91,3.92 31.88,3.75 31.89,3.57 31.90,3.39 31.95,3.23 32.01,3.06 32.10,2.91 32.19,2.75 32.31,2.63 32.44,2.51 32.59,2.41 32.74,2.32 33.49,2.08 34.24,1.83 34.75,1.47 35.26,1.10 35.66,0.64 36.06,0.18 36.13,-0.44 36.21,-1.07 35.86,-1.71 35.52,-2.36 34.84,-3.16 34.16,-3.97 33.09,-4.69 32.02,-5.41 31.53,-5.73 31.04,-6.05 31.80,-6.28 32.56,-6.51 32.57,-5.58 32.58,-4.65 32.12,-3.85 31.66,-3.05 30.68,-2.02 29.70,-0.98 28.58,-0.27 27.47,0.43 25.82,0.92 24.17,1.41 22.84,0.86 21.51,0.31 20.59,-0.85 19.67,-2.02 19.37,-3.26 19.07,-4.50 18.95,-6.68 18.83,-8.86 19.04,-10.71 19.26,-12.57 19.79,-14.89 20.31,-17.22 20.99,-18.33 21.67,-19.44 22.75,-20.22 23.82,-20.99 25.30,-20.48 26.78,-19.97 27.41,-18.81 28.04,-17.65 28.13,-15.85 28.23,-14.05 27.38,-11.81 26.53,-9.58 25.17,-7.75 23.81,-5.93 21.72,-3.81 19.63,-1.69 17.87,-0.38 16.11,0.92 14.03,1.85 11.95,2.77 10.42,2.69 8.90,2.60 7.87,1.84 6.83,1.08 6.45,0.03 6.06,-1.01 6.36,-2.36 6.67,-3.72 7.45,-5.03 8.22,-6.34 9.45,-6.98 10.68,-7.62 11.69,-7.23 12.69,-6.85 13.03,-6.01 13.37,-5.17 12.83,-4.08 12.30,-3.00 11.14,-1.96 9.97,-0.93 8.58,-0.28 7.19,0.36 5.88,0.87 4.58,1.39 3.27,1.49 1.97,1.59 0.92,1.11 -0.12,0.64 -0.20,0.61 -0.27,0.59 -0.34,0.55 -0.41,0.51 -0.46,0.45 -0.52,0.39 -0.56,0.32 -0.60,0.25 -0.62,0.18 -0.64,0.10 -0.65,0.02 -0.65,-0.05 -0.63,-0.12 -0.62,-0.20 -0.59,-0.27 -0.55,-0.34 -0.50,-0.41 -0.45,-0.47 -0.39,-0.51 -0.33,-0.56 -0.25,-0.59 -0.18,-0.63 -0.10,-0.64 -0.02,-0.65 0.04,-0.64 0.12,-0.64 0.12,-0.64 L 0.12,-0.64 Z"/></g></svg>