<svg version="1.1" xmlns="http://www.w3.org/2000/svg" viewBox="0 0 418.81694933560215 175.1880340576172" width="418.81694933560215" height="175.1880340576172" filter="invert(93%) hue-rotate(180deg)" class="excalidraw-svg">
  <!-- svg-source:excalidraw -->
  
  <defs>
    <style class="style-fonts">
      @font-face {
        font-family: "Virgil";
        src: url("https://excalidraw.com/Virgil.woff2");
      }
      @font-face {
        font-family: "Cascadia";
        src: url("https://excalidraw.com/Cascadia.woff2");
      }
      @font-face {
        font-family: "Assistant";
        src: url("https://excalidraw.com/Assistant-Regular.woff2");
      }
    </style>
    
  </defs>
  <rect x="0" y="0" width="418.81694933560215" height="175.1880340576172" fill="#ffffff"/><g stroke-linecap="round"><g transform="translate(9.75941515373998 19.889434814453125) rotate(0 197.7886962890625 -0.38036346435546875)"><path d="M1.11 0.75 C67.17 0.69, 329.73 -0.98, 395.44 -1.04 M0.24 0.09 C66.21 0.28, 328.71 0.59, 394.41 0.36" stroke="#1e1e1e" stroke-width="2" fill="none"/></g></g><mask/><g stroke-linecap="round"><g transform="translate(11.491168993082852 74.60239417701962) rotate(0 197.7886962890625 -0.38036346435546875)"><path d="M-0.32 -0.84 C65.76 -0.83, 330.36 -0.12, 396.41 0.04 M1.71 1.33 C67.71 1, 330.29 -1.14, 395.89 -1.66" stroke="#1e1e1e" stroke-width="2" fill="none"/></g></g><mask/><g stroke-linecap="round"><g transform="translate(12.294879930582852 136.570991589129) rotate(0 197.7886962890625 -0.38036346435546875)"><path d="M0.87 0.62 C66.82 0.52, 330.69 -0.19, 396.52 -0.27 M-0.13 -0.09 C65.68 -0.59, 330.17 -1.86, 396.07 -2.13" stroke="#1e1e1e" stroke-width="2" fill="none"/></g></g><mask/><g stroke-linecap="round"><g transform="translate(206.78736925530248 19.889434814453125) rotate(0 1.14111328125 44.50244903564453)"><path d="M-0.53 -0.45 C-0.22 14.44, 2.52 74.79, 2.92 89.76 M1.4 -1.73 C1.51 12.78, 2.38 73.21, 2.31 88.03" stroke="#1e1e1e" stroke-width="2" fill="none"/></g></g><mask/><g stroke-linecap="round" transform="translate(178.64057970452123 107.37284851074219) rotate(0 30.80938720703125 28.9075927734375)"><path d="M61.62 28.91 C61.62 30.58, 61.46 32.28, 61.15 33.93 C60.84 35.58, 60.37 37.22, 59.76 38.79 C59.15 40.37, 58.38 41.91, 57.49 43.36 C56.6 44.81, 55.56 46.21, 54.41 47.49 C53.26 48.77, 51.98 49.98, 50.61 51.05 C49.25 52.13, 47.76 53.11, 46.21 53.94 C44.67 54.78, 43.02 55.5, 41.35 56.07 C39.67 56.64, 37.92 57.09, 36.16 57.38 C34.4 57.67, 32.59 57.82, 30.81 57.82 C29.03 57.82, 27.22 57.67, 25.46 57.38 C23.7 57.09, 21.95 56.64, 20.27 56.07 C18.6 55.5, 16.95 54.78, 15.4 53.94 C13.86 53.11, 12.37 52.13, 11.01 51.05 C9.64 49.98, 8.35 48.77, 7.21 47.49 C6.06 46.21, 5.02 44.81, 4.13 43.36 C3.24 41.91, 2.47 40.37, 1.86 38.79 C1.25 37.22, 0.78 35.58, 0.47 33.93 C0.16 32.28, 0 30.58, 0 28.91 C0 27.23, 0.16 25.54, 0.47 23.89 C0.78 22.24, 1.25 20.59, 1.86 19.02 C2.47 17.45, 3.24 15.9, 4.13 14.45 C5.02 13, 6.06 11.61, 7.21 10.33 C8.35 9.04, 9.64 7.84, 11.01 6.76 C12.37 5.69, 13.86 4.71, 15.4 3.87 C16.95 3.04, 18.6 2.32, 20.27 1.74 C21.95 1.17, 23.7 0.73, 25.46 0.44 C27.22 0.15, 29.03 0, 30.81 0 C32.59 0, 34.4 0.15, 36.16 0.44 C37.92 0.73, 39.67 1.17, 41.35 1.74 C43.02 2.32, 44.67 3.04, 46.21 3.87 C47.76 4.71, 49.25 5.69, 50.61 6.76 C51.98 7.84, 53.26 9.04, 54.41 10.33 C55.56 11.61, 56.6 13, 57.49 14.45 C58.38 15.9, 59.15 17.45, 59.76 19.02 C60.37 20.59, 60.84 22.24, 61.15 23.89 C61.46 25.54, 61.54 28.07, 61.62 28.91 C61.7 29.74, 61.7 28.07, 61.62 28.91" stroke="none" stroke-width="0" fill="#ffffff"/><path d="M61.62 28.91 C61.62 30.58, 61.46 32.28, 61.15 33.93 C60.84 35.58, 60.37 37.22, 59.76 38.79 C59.15 40.37, 58.38 41.91, 57.49 43.36 C56.6 44.81, 55.56 46.21, 54.41 47.49 C53.26 48.77, 51.98 49.98, 50.61 51.05 C49.25 52.13, 47.76 53.11, 46.21 53.94 C44.67 54.78, 43.02 55.5, 41.35 56.07 C39.67 56.64, 37.92 57.09, 36.16 57.38 C34.4 57.67, 32.59 57.82, 30.81 57.82 C29.03 57.82, 27.22 57.67, 25.46 57.38 C23.7 57.09, 21.95 56.64, 20.27 56.07 C18.6 55.5, 16.95 54.78, 15.4 53.94 C13.86 53.11, 12.37 52.13, 11.01 51.05 C9.64 49.98, 8.35 48.77, 7.21 47.49 C6.06 46.21, 5.02 44.81, 4.13 43.36 C3.24 41.91, 2.47 40.37, 1.86 38.79 C1.25 37.22, 0.78 35.58, 0.47 33.93 C0.16 32.28, 0 30.58, 0 28.91 C0 27.23, 0.16 25.54, 0.47 23.89 C0.78 22.24, 1.25 20.59, 1.86 19.02 C2.47 17.45, 3.24 15.9, 4.13 14.45 C5.02 13, 6.06 11.61, 7.21 10.33 C8.35 9.04, 9.64 7.84, 11.01 6.76 C12.37 5.69, 13.86 4.71, 15.4 3.87 C16.95 3.04, 18.6 2.32, 20.27 1.74 C21.95 1.17, 23.7 0.73, 25.46 0.44 C27.22 0.15, 29.03 0, 30.81 0 C32.59 0, 34.4 0.15, 36.16 0.44 C37.92 0.73, 39.67 1.17, 41.35 1.74 C43.02 2.32, 44.67 3.04, 46.21 3.87 C47.76 4.71, 49.25 5.69, 50.61 6.76 C51.98 7.84, 53.26 9.04, 54.41 10.33 C55.56 11.61, 56.6 13, 57.49 14.45 C58.38 15.9, 59.15 17.45, 59.76 19.02 C60.37 20.59, 60.84 22.24, 61.15 23.89 C61.46 25.54, 61.54 28.07, 61.62 28.91 C61.7 29.74, 61.7 28.07, 61.62 28.91" stroke="#1e1e1e" stroke-width="2" fill="none"/></g><g transform="translate(198.41938829827123 130.9553985595703) rotate(0 12.552001953125 7.60723876953125)" stroke="none"><path fill="#1e1e1e" d="M 0.46,-0.46 Q 0.46,-0.46 0.90,-0.34 1.34,-0.23 1.57,1.02 1.80,2.27 1.61,3.29 1.43,4.31 1.36,5.04 1.30,5.78 1.27,6.73 1.24,7.68 1.43,8.62 1.62,9.56 2.08,10.28 2.54,11.00 2.99,11.83 3.44,12.66 4.01,13.36 4.58,14.06 5.04,14.59 5.51,15.12 5.87,15.53 6.23,15.94 6.81,15.98 7.40,16.03 8.32,16.10 9.25,16.17 10.30,16.20 11.35,16.23 12.34,16.04 13.33,15.85 14.32,15.37 15.31,14.89 16.22,14.45 17.13,14.01 17.67,13.65 18.20,13.28 18.83,12.72 19.47,12.16 20.18,11.48 20.89,10.80 21.35,10.15 21.81,9.50 22.22,8.80 22.63,8.10 22.75,7.50 22.87,6.90 22.93,6.02 23.00,5.14 23.27,4.19 23.54,3.23 23.41,2.67 23.28,2.11 23.21,0.20 23.13,-1.70 23.10,-1.80 23.07,-1.90 23.07,-2.01 23.07,-2.11 23.11,-2.21 23.15,-2.31 23.21,-2.40 23.28,-2.48 23.37,-2.54 23.46,-2.59 23.56,-2.62 23.66,-2.65 23.77,-2.64 23.88,-2.63 23.97,-2.59 24.07,-2.55 24.15,-2.48 24.23,-2.41 24.28,-2.32 24.34,-2.22 24.36,-2.12 24.38,-2.01 24.36,-1.91 24.35,-1.80 24.30,-1.71 24.26,-1.61 24.18,-1.54 24.11,-1.46 24.01,-1.41 23.92,-1.37 23.81,-1.35 23.71,-1.34 23.60,-1.36 23.50,-1.38 23.40,-1.43 23.31,-1.48 23.24,-1.56 23.17,-1.64 23.13,-1.73 23.08,-1.83 23.07,-1.94 23.07,-2.04 23.09,-2.15 23.12,-2.25 23.17,-2.34 23.23,-2.43 23.31,-2.50 23.39,-2.56 23.49,-2.60 23.59,-2.64 23.70,-2.64 23.81,-2.64 23.91,-2.61 24.01,-2.58 24.10,-2.52 24.18,-2.46 24.24,-2.37 24.31,-2.29 24.31,-2.29 24.31,-2.29 25.01,-0.25 25.72,1.77 25.81,2.80 25.91,3.84 25.67,4.59 25.44,5.35 25.35,6.42 25.25,7.49 24.99,8.41 24.74,9.32 24.26,10.12 23.78,10.92 23.18,11.74 22.57,12.55 21.82,13.27 21.07,13.98 20.31,14.64 19.55,15.29 18.86,15.74 18.18,16.19 17.25,16.64 16.33,17.08 15.06,17.65 13.78,18.22 12.54,18.43 11.29,18.65 10.17,18.61 9.05,18.57 7.95,18.48 6.86,18.38 5.77,18.04 4.68,17.71 4.19,17.21 3.70,16.71 3.20,16.13 2.69,15.56 2.01,14.69 1.33,13.81 0.90,13.01 0.46,12.21 -0.12,11.13 -0.71,10.06 -0.93,8.84 -1.15,7.62 -1.11,6.58 -1.08,5.55 -0.99,4.68 -0.90,3.82 -0.73,3.14 -0.55,2.47 -0.51,1.78 -0.47,1.10 -0.46,0.78 -0.46,0.46 -0.51,0.40 -0.56,0.33 -0.59,0.26 -0.62,0.19 -0.64,0.11 -0.65,0.03 -0.65,-0.03 -0.64,-0.11 -0.62,-0.19 -0.59,-0.26 -0.55,-0.33 -0.51,-0.40 -0.46,-0.46 -0.40,-0.51 -0.33,-0.55 -0.26,-0.59 -0.19,-0.62 -0.11,-0.64 -0.03,-0.65 0.03,-0.65 0.11,-0.64 0.19,-0.62 0.26,-0.59 0.33,-0.56 0.40,-0.51 0.46,-0.46 0.46,-0.46 L 0.46,-0.46 Z"/></g><g transform="translate(209.83027697014623 64.01152038574219) rotate(0 -1.14105224609375 9.128707885742188)" stroke="none"><path fill="#1e1e1e" d="M 0,0.65 Q 0,0.65 -0.87,0.77 -1.74,0.88 -2.34,0.91 -2.93,0.93 -3.78,0.97 -4.64,1.02 -5.11,1.46 -5.57,1.90 -5.85,2.35 -6.12,2.81 -6.47,3.46 -6.83,4.10 -7.19,4.81 -7.56,5.51 -7.67,6.32 -7.77,7.12 -7.84,7.92 -7.90,8.72 -7.92,9.50 -7.95,10.27 -7.96,11.25 -7.98,12.22 -7.79,12.91 -7.61,13.61 -7.20,13.98 -6.78,14.35 -6.15,15.01 -5.52,15.67 -4.98,15.84 -4.44,16.01 -3.50,16.34 -2.56,16.68 -1.82,16.80 -1.08,16.92 -0.48,16.76 0.12,16.60 0.80,16.34 1.49,16.08 2.21,15.76 2.93,15.44 3.30,14.98 3.67,14.52 4.05,13.91 4.44,13.30 4.83,12.61 5.21,11.92 5.33,11.34 5.44,10.76 5.29,10.23 5.14,9.70 5.07,9.12 5.01,8.53 4.78,7.60 4.56,6.66 3.99,5.92 3.42,5.19 2.95,4.89 2.48,4.60 1.99,4.17 1.49,3.75 0.05,2.99 -1.38,2.23 -1.47,2.19 -1.57,2.14 -1.65,2.07 -1.73,2.00 -1.78,1.91 -1.83,1.82 -1.85,1.71 -1.87,1.61 -1.86,1.50 -1.84,1.40 -1.79,1.30 -1.75,1.21 -1.67,1.13 -1.59,1.06 -1.50,1.01 -1.40,0.96 -1.30,0.95 -1.19,0.94 -1.09,0.96 -0.98,0.98 -0.89,1.03 -0.80,1.08 -0.73,1.16 -0.66,1.24 -0.62,1.34 -0.58,1.44 -0.57,1.55 -0.56,1.65 -0.59,1.75 -0.61,1.86 -0.67,1.95 -0.73,2.04 -0.81,2.10 -0.90,2.17 -1.00,2.20 -1.10,2.24 -1.20,2.24 -1.31,2.24 -1.41,2.21 -1.51,2.18 -1.60,2.12 -1.68,2.05 -1.74,1.97 -1.81,1.88 -1.84,1.78 -1.87,1.68 -1.86,1.57 -1.86,1.47 -1.82,1.37 -1.78,1.27 -1.72,1.18 -1.65,1.10 -1.56,1.05 -1.47,0.99 -1.37,0.96 -1.26,0.94 -1.16,0.95 -1.05,0.96 -1.05,0.96 -1.05,0.96 0.93,1.46 2.93,1.96 3.37,2.31 3.81,2.66 4.51,3.16 5.22,3.67 5.62,4.15 6.01,4.63 6.39,5.24 6.76,5.84 7.03,6.63 7.29,7.42 7.37,8.34 7.45,9.26 7.59,10.24 7.73,11.21 7.49,12.13 7.26,13.04 6.82,13.81 6.39,14.58 5.88,15.34 5.36,16.10 4.64,16.80 3.92,17.51 3.10,17.87 2.29,18.23 1.42,18.54 0.56,18.84 -0.42,19.00 -1.41,19.16 -2.36,18.99 -3.32,18.82 -4.30,18.46 -5.29,18.11 -6.18,17.70 -7.08,17.29 -7.77,16.58 -8.46,15.86 -9.10,15.07 -9.75,14.27 -9.99,13.24 -10.23,12.21 -10.22,11.20 -10.21,10.19 -10.18,9.36 -10.15,8.54 -10.07,7.65 -10.00,6.75 -9.78,5.63 -9.56,4.50 -9.17,3.76 -8.77,3.01 -8.36,2.29 -7.95,1.58 -7.46,0.90 -6.96,0.22 -6.49,-0.13 -6.01,-0.49 -5.39,-0.75 -4.76,-1.02 -3.84,-0.97 -2.93,-0.93 -2.34,-0.91 -1.74,-0.88 -0.87,-0.77 0,-0.65 0.07,-0.64 0.15,-0.63 0.23,-0.60 0.30,-0.58 0.37,-0.53 0.43,-0.49 0.48,-0.43 0.54,-0.37 0.57,-0.30 0.61,-0.23 0.63,-0.15 0.65,-0.07 0.65,0.00 0.65,0.07 0.63,0.15 0.61,0.23 0.57,0.30 0.54,0.37 0.48,0.43 0.43,0.49 0.37,0.53 0.30,0.58 0.23,0.60 0.15,0.63 0.07,0.64 -0.00,0.65 -0.00,0.65 L 0,0.65 Z"/></g><g transform="translate(206.78736925530248 18.36798095703125) rotate(0 2.662567138671875 0)" stroke="none"><path fill="#1e1e1e" d="M -0.46,0.46 Q -0.46,0.46 -1.24,-0.06 -2.03,-0.59 -2.53,-1.07 -3.03,-1.54 -3.63,-1.66 -4.22,-1.77 -4.88,-1.39 -5.54,-1.01 -6.05,-0.82 -6.55,-0.63 -6.77,-0.08 -6.98,0.46 -6.80,1.02 -6.63,1.58 -6.38,2.26 -6.14,2.93 -5.49,3.50 -4.85,4.07 -3.74,4.75 -2.64,5.43 -1.54,5.93 -0.45,6.44 0.76,6.62 1.98,6.80 2.94,6.88 3.90,6.97 4.98,6.58 6.06,6.20 7.00,5.81 7.93,5.42 8.46,5.08 8.99,4.74 9.53,4.05 10.08,3.35 10.53,2.63 10.99,1.90 11.38,1.22 11.76,0.54 11.43,-0.46 11.10,-1.47 10.61,-2.31 10.12,-3.15 9.52,-3.90 8.92,-4.65 8.34,-5.10 7.75,-5.55 7.23,-5.70 6.72,-5.85 5.97,-6.24 5.22,-6.62 2.98,-6.15 0.73,-5.68 0.63,-5.66 0.53,-5.63 0.42,-5.64 0.31,-5.65 0.22,-5.69 0.12,-5.73 0.04,-5.80 -0.03,-5.87 -0.08,-5.97 -0.13,-6.06 -0.15,-6.16 -0.17,-6.27 -0.16,-6.37 -0.14,-6.48 -0.10,-6.57 -0.05,-6.67 0.01,-6.74 0.09,-6.82 0.19,-6.87 0.28,-6.91 0.39,-6.93 0.49,-6.94 0.60,-6.92 0.70,-6.90 0.79,-6.85 0.88,-6.80 0.96,-6.72 1.03,-6.64 1.07,-6.54 1.11,-6.44 1.12,-6.34 1.13,-6.23 1.10,-6.13 1.08,-6.03 1.02,-5.94 0.96,-5.85 0.88,-5.78 0.80,-5.71 0.70,-5.68 0.60,-5.64 0.49,-5.64 0.38,-5.64 0.28,-5.67 0.18,-5.70 0.09,-5.76 0.01,-5.82 -0.04,-5.91 -0.11,-5.99 -0.14,-6.10 -0.17,-6.20 -0.17,-6.30 -0.16,-6.41 -0.13,-6.51 -0.09,-6.61 -0.02,-6.69 0.03,-6.78 0.12,-6.83 0.21,-6.89 0.21,-6.89 0.21,-6.89 2.12,-7.91 4.02,-8.93 5.07,-9.04 6.12,-9.15 6.88,-8.88 7.64,-8.62 8.61,-8.28 9.58,-7.93 10.44,-7.22 11.29,-6.51 12.02,-5.55 12.75,-4.59 13.34,-3.47 13.92,-2.35 14.18,-1.40 14.43,-0.46 14.37,0.63 14.31,1.73 13.82,2.59 13.33,3.45 12.74,4.30 12.16,5.15 11.28,6.09 10.41,7.03 9.65,7.46 8.90,7.88 7.85,8.27 6.80,8.66 5.26,9.06 3.73,9.47 2.65,9.36 1.56,9.25 0.04,8.96 -1.47,8.68 -2.71,8.09 -3.96,7.51 -5.26,6.65 -6.56,5.80 -7.47,4.82 -8.38,3.84 -8.70,2.93 -9.02,2.02 -9.15,0.90 -9.27,-0.21 -9.02,-0.83 -8.77,-1.45 -7.89,-2.19 -7.01,-2.92 -6.54,-3.28 -6.08,-3.64 -4.89,-3.84 -3.71,-4.04 -3.20,-3.88 -2.68,-3.72 -2.13,-3.39 -1.57,-3.06 -1.08,-2.54 -0.59,-2.03 -0.06,-1.24 0.46,-0.46 0.51,-0.40 0.56,-0.33 0.59,-0.26 0.62,-0.19 0.64,-0.11 0.65,-0.03 0.65,0.03 0.64,0.11 0.62,0.19 0.59,0.26 0.55,0.33 0.51,0.40 0.46,0.46 0.40,0.51 0.33,0.55 0.26,0.59 0.19,0.62 0.11,0.64 0.03,0.65 -0.03,0.65 -0.11,0.64 -0.19,0.62 -0.26,0.59 -0.33,0.56 -0.40,0.51 -0.46,0.46 -0.46,0.46 L -0.46,0.46 Z"/></g></svg>