<svg version="1.1" xmlns="http://www.w3.org/2000/svg" viewBox="0 0 968.2035985608653 183.2249338124949" width="968.2035985608653" height="183.2249338124949" filter="invert(93%) hue-rotate(180deg)" class="excalidraw-svg">
  <!-- svg-source:excalidraw -->
  
  <defs>
    <style class="style-fonts">
      @font-face {
        font-family: "Virgil";
        src: url("https://excalidraw.com/Virgil.woff2");
      }
      @font-face {
        font-family: "Cascadia";
        src: url("https://excalidraw.com/Cascadia.woff2");
      }
      @font-face {
        font-family: "Assistant";
        src: url("https://excalidraw.com/Assistant-Regular.woff2");
      }
    </style>
    
  </defs>
  <rect x="0" y="0" width="968.2035985608653" height="183.2249338124949" fill="#ffffff"/><g stroke-linecap="round"><g transform="translate(9.75941515373998 20.603548880904327) rotate(0 197.7886962890625 -0.38036346435546875)"><path d="M1.11 0.75 C67.17 0.69, 329.73 -0.98, 395.44 -1.04 M0.24 0.09 C66.21 0.28, 328.71 0.59, 394.41 0.36" stroke="#1e1e1e" stroke-width="2" fill="none"/></g></g><mask/><g stroke-linecap="round"><g transform="translate(10.777054926631621 74.60239417701962) rotate(0 197.7886962890625 -0.38036346435546875)"><path d="M-0.32 -0.84 C65.76 -0.83, 330.36 -0.12, 396.41 0.04 M1.71 1.33 C67.71 1, 330.29 -1.14, 395.89 -1.66" stroke="#1e1e1e" stroke-width="2" fill="none"/></g></g><mask/><g stroke-linecap="round"><g transform="translate(11.580765864131621 136.570991589129) rotate(0 197.7886962890625 -0.38036346435546875)"><path d="M0.87 0.62 C66.82 0.52, 330.69 -0.19, 396.52 -0.27 M-0.13 -0.09 C65.68 -0.59, 330.17 -1.86, 396.07 -2.13" stroke="#1e1e1e" stroke-width="2" fill="none"/></g></g><mask/><g stroke-linecap="round"><g transform="translate(206.07325518885125 19.889434814453125) rotate(0 1.14111328125 44.50244903564453)"><path d="M-0.53 -0.45 C-0.22 14.44, 2.52 74.79, 2.92 89.76 M1.4 -1.73 C1.51 12.78, 2.38 73.21, 2.31 88.03" stroke="#1e1e1e" stroke-width="2" fill="none"/></g></g><mask/><g stroke-linecap="round" transform="translate(177.92646563807 107.37284851074219) rotate(0 30.80938720703125 28.9075927734375)"><path d="M61.62 28.91 C61.62 30.58, 61.46 32.28, 61.15 33.93 C60.84 35.58, 60.37 37.22, 59.76 38.79 C59.15 40.37, 58.38 41.91, 57.49 43.36 C56.6 44.81, 55.56 46.21, 54.41 47.49 C53.26 48.77, 51.98 49.98, 50.61 51.05 C49.25 52.13, 47.76 53.11, 46.21 53.94 C44.67 54.78, 43.02 55.5, 41.35 56.07 C39.67 56.64, 37.92 57.09, 36.16 57.38 C34.4 57.67, 32.59 57.82, 30.81 57.82 C29.03 57.82, 27.22 57.67, 25.46 57.38 C23.7 57.09, 21.95 56.64, 20.27 56.07 C18.6 55.5, 16.95 54.78, 15.4 53.94 C13.86 53.11, 12.37 52.13, 11.01 51.05 C9.64 49.98, 8.35 48.77, 7.21 47.49 C6.06 46.21, 5.02 44.81, 4.13 43.36 C3.24 41.91, 2.47 40.37, 1.86 38.79 C1.25 37.22, 0.78 35.58, 0.47 33.93 C0.16 32.28, 0 30.58, 0 28.91 C0 27.23, 0.16 25.54, 0.47 23.89 C0.78 22.24, 1.25 20.59, 1.86 19.02 C2.47 17.45, 3.24 15.9, 4.13 14.45 C5.02 13, 6.06 11.61, 7.21 10.33 C8.35 9.04, 9.64 7.84, 11.01 6.76 C12.37 5.69, 13.86 4.71, 15.4 3.87 C16.95 3.04, 18.6 2.32, 20.27 1.74 C21.95 1.17, 23.7 0.73, 25.46 0.44 C27.22 0.15, 29.03 0, 30.81 0 C32.59 0, 34.4 0.15, 36.16 0.44 C37.92 0.73, 39.67 1.17, 41.35 1.74 C43.02 2.32, 44.67 3.04, 46.21 3.87 C47.76 4.71, 49.25 5.69, 50.61 6.76 C51.98 7.84, 53.26 9.04, 54.41 10.33 C55.56 11.61, 56.6 13, 57.49 14.45 C58.38 15.9, 59.15 17.45, 59.76 19.02 C60.37 20.59, 60.84 22.24, 61.15 23.89 C61.46 25.54, 61.54 28.07, 61.62 28.91 C61.7 29.74, 61.7 28.07, 61.62 28.91" stroke="none" stroke-width="0" fill="#ffffff"/><path d="M61.62 28.91 C61.62 30.58, 61.46 32.28, 61.15 33.93 C60.84 35.58, 60.37 37.22, 59.76 38.79 C59.15 40.37, 58.38 41.91, 57.49 43.36 C56.6 44.81, 55.56 46.21, 54.41 47.49 C53.26 48.77, 51.98 49.98, 50.61 51.05 C49.25 52.13, 47.76 53.11, 46.21 53.94 C44.67 54.78, 43.02 55.5, 41.35 56.07 C39.67 56.64, 37.92 57.09, 36.16 57.38 C34.4 57.67, 32.59 57.82, 30.81 57.82 C29.03 57.82, 27.22 57.67, 25.46 57.38 C23.7 57.09, 21.95 56.64, 20.27 56.07 C18.6 55.5, 16.95 54.78, 15.4 53.94 C13.86 53.11, 12.37 52.13, 11.01 51.05 C9.64 49.98, 8.35 48.77, 7.21 47.49 C6.06 46.21, 5.02 44.81, 4.13 43.36 C3.24 41.91, 2.47 40.37, 1.86 38.79 C1.25 37.22, 0.78 35.58, 0.47 33.93 C0.16 32.28, 0 30.58, 0 28.91 C0 27.23, 0.16 25.54, 0.47 23.89 C0.78 22.24, 1.25 20.59, 1.86 19.02 C2.47 17.45, 3.24 15.9, 4.13 14.45 C5.02 13, 6.06 11.61, 7.21 10.33 C8.35 9.04, 9.64 7.84, 11.01 6.76 C12.37 5.69, 13.86 4.71, 15.4 3.87 C16.95 3.04, 18.6 2.32, 20.27 1.74 C21.95 1.17, 23.7 0.73, 25.46 0.44 C27.22 0.15, 29.03 0, 30.81 0 C32.59 0, 34.4 0.15, 36.16 0.44 C37.92 0.73, 39.67 1.17, 41.35 1.74 C43.02 2.32, 44.67 3.04, 46.21 3.87 C47.76 4.71, 49.25 5.69, 50.61 6.76 C51.98 7.84, 53.26 9.04, 54.41 10.33 C55.56 11.61, 56.6 13, 57.49 14.45 C58.38 15.9, 59.15 17.45, 59.76 19.02 C60.37 20.59, 60.84 22.24, 61.15 23.89 C61.46 25.54, 61.54 28.07, 61.62 28.91 C61.7 29.74, 61.7 28.07, 61.62 28.91" stroke="#1e1e1e" stroke-width="2" fill="none"/></g><g transform="translate(197.70527423182 130.9553985595703) rotate(0 12.552001953125 7.60723876953125)" stroke="none"><path fill="#1e1e1e" d="M 0.46,-0.46 Q 0.46,-0.46 0.90,-0.34 1.34,-0.23 1.57,1.02 1.80,2.27 1.61,3.29 1.43,4.31 1.36,5.04 1.30,5.78 1.27,6.73 1.24,7.68 1.43,8.62 1.62,9.56 2.08,10.28 2.54,11.00 2.99,11.83 3.44,12.66 4.01,13.36 4.58,14.06 5.04,14.59 5.51,15.12 5.87,15.53 6.23,15.94 6.81,15.98 7.40,16.03 8.32,16.10 9.25,16.17 10.30,16.20 11.35,16.23 12.34,16.04 13.33,15.85 14.32,15.37 15.31,14.89 16.22,14.45 17.13,14.01 17.67,13.65 18.20,13.28 18.83,12.72 19.47,12.16 20.18,11.48 20.89,10.80 21.35,10.15 21.81,9.50 22.22,8.80 22.63,8.10 22.75,7.50 22.87,6.90 22.93,6.02 23.00,5.14 23.27,4.19 23.54,3.23 23.41,2.67 23.28,2.11 23.21,0.20 23.13,-1.70 23.10,-1.80 23.07,-1.90 23.07,-2.01 23.07,-2.11 23.11,-2.21 23.15,-2.31 23.21,-2.40 23.28,-2.48 23.37,-2.54 23.46,-2.59 23.56,-2.62 23.66,-2.65 23.77,-2.64 23.88,-2.63 23.97,-2.59 24.07,-2.55 24.15,-2.48 24.23,-2.41 24.28,-2.32 24.34,-2.22 24.36,-2.12 24.38,-2.01 24.36,-1.91 24.35,-1.80 24.30,-1.71 24.26,-1.61 24.18,-1.54 24.11,-1.46 24.01,-1.41 23.92,-1.37 23.81,-1.35 23.71,-1.34 23.60,-1.36 23.50,-1.38 23.40,-1.43 23.31,-1.48 23.24,-1.56 23.17,-1.64 23.13,-1.73 23.08,-1.83 23.07,-1.94 23.07,-2.04 23.09,-2.15 23.12,-2.25 23.17,-2.34 23.23,-2.43 23.31,-2.50 23.39,-2.56 23.49,-2.60 23.59,-2.64 23.70,-2.64 23.81,-2.64 23.91,-2.61 24.01,-2.58 24.10,-2.52 24.18,-2.46 24.24,-2.37 24.31,-2.29 24.31,-2.29 24.31,-2.29 25.01,-0.25 25.72,1.77 25.81,2.80 25.91,3.84 25.67,4.59 25.44,5.35 25.35,6.42 25.25,7.49 24.99,8.41 24.74,9.32 24.26,10.12 23.78,10.92 23.18,11.74 22.57,12.55 21.82,13.27 21.07,13.98 20.31,14.64 19.55,15.29 18.86,15.74 18.18,16.19 17.25,16.64 16.33,17.08 15.06,17.65 13.78,18.22 12.54,18.43 11.29,18.65 10.17,18.61 9.05,18.57 7.95,18.48 6.86,18.38 5.77,18.04 4.68,17.71 4.19,17.21 3.70,16.71 3.20,16.13 2.69,15.56 2.01,14.69 1.33,13.81 0.90,13.01 0.46,12.21 -0.12,11.13 -0.71,10.06 -0.93,8.84 -1.15,7.62 -1.11,6.58 -1.08,5.55 -0.99,4.68 -0.90,3.82 -0.73,3.14 -0.55,2.47 -0.51,1.78 -0.47,1.10 -0.46,0.78 -0.46,0.46 -0.51,0.40 -0.56,0.33 -0.59,0.26 -0.62,0.19 -0.64,0.11 -0.65,0.03 -0.65,-0.03 -0.64,-0.11 -0.62,-0.19 -0.59,-0.26 -0.55,-0.33 -0.51,-0.40 -0.46,-0.46 -0.40,-0.51 -0.33,-0.55 -0.26,-0.59 -0.19,-0.62 -0.11,-0.64 -0.03,-0.65 0.03,-0.65 0.11,-0.64 0.19,-0.62 0.26,-0.59 0.33,-0.56 0.40,-0.51 0.46,-0.46 0.46,-0.46 L 0.46,-0.46 Z"/></g><g transform="translate(209.116162903695 64.01152038574219) rotate(0 -1.14105224609375 9.128707885742188)" stroke="none"><path fill="#1e1e1e" d="M 0,0.65 Q 0,0.65 -0.87,0.77 -1.74,0.88 -2.34,0.91 -2.93,0.93 -3.78,0.97 -4.64,1.02 -5.11,1.46 -5.57,1.90 -5.85,2.35 -6.12,2.81 -6.47,3.46 -6.83,4.10 -7.19,4.81 -7.56,5.51 -7.67,6.32 -7.77,7.12 -7.84,7.92 -7.90,8.72 -7.92,9.50 -7.95,10.27 -7.96,11.25 -7.98,12.22 -7.79,12.91 -7.61,13.61 -7.20,13.98 -6.78,14.35 -6.15,15.01 -5.52,15.67 -4.98,15.84 -4.44,16.01 -3.50,16.34 -2.56,16.68 -1.82,16.80 -1.08,16.92 -0.48,16.76 0.12,16.60 0.80,16.34 1.49,16.08 2.21,15.76 2.93,15.44 3.30,14.98 3.67,14.52 4.05,13.91 4.44,13.30 4.83,12.61 5.21,11.92 5.33,11.34 5.44,10.76 5.29,10.23 5.14,9.70 5.07,9.12 5.01,8.53 4.78,7.60 4.56,6.66 3.99,5.92 3.42,5.19 2.95,4.89 2.48,4.60 1.99,4.17 1.49,3.75 0.05,2.99 -1.38,2.23 -1.47,2.19 -1.57,2.14 -1.65,2.07 -1.73,2.00 -1.78,1.91 -1.83,1.82 -1.85,1.71 -1.87,1.61 -1.86,1.50 -1.84,1.40 -1.79,1.30 -1.75,1.21 -1.67,1.13 -1.59,1.06 -1.50,1.01 -1.40,0.96 -1.30,0.95 -1.19,0.94 -1.09,0.96 -0.98,0.98 -0.89,1.03 -0.80,1.08 -0.73,1.16 -0.66,1.24 -0.62,1.34 -0.58,1.44 -0.57,1.55 -0.56,1.65 -0.59,1.75 -0.61,1.86 -0.67,1.95 -0.73,2.04 -0.81,2.10 -0.90,2.17 -1.00,2.20 -1.10,2.24 -1.20,2.24 -1.31,2.24 -1.41,2.21 -1.51,2.18 -1.60,2.12 -1.68,2.05 -1.74,1.97 -1.81,1.88 -1.84,1.78 -1.87,1.68 -1.86,1.57 -1.86,1.47 -1.82,1.37 -1.78,1.27 -1.72,1.18 -1.65,1.10 -1.56,1.05 -1.47,0.99 -1.37,0.96 -1.26,0.94 -1.16,0.95 -1.05,0.96 -1.05,0.96 -1.05,0.96 0.93,1.46 2.93,1.96 3.37,2.31 3.81,2.66 4.51,3.16 5.22,3.67 5.62,4.15 6.01,4.63 6.39,5.24 6.76,5.84 7.03,6.63 7.29,7.42 7.37,8.34 7.45,9.26 7.59,10.24 7.73,11.21 7.49,12.13 7.26,13.04 6.82,13.81 6.39,14.58 5.88,15.34 5.36,16.10 4.64,16.80 3.92,17.51 3.10,17.87 2.29,18.23 1.42,18.54 0.56,18.84 -0.42,19.00 -1.41,19.16 -2.36,18.99 -3.32,18.82 -4.30,18.46 -5.29,18.11 -6.18,17.70 -7.08,17.29 -7.77,16.58 -8.46,15.86 -9.10,15.07 -9.75,14.27 -9.99,13.24 -10.23,12.21 -10.22,11.20 -10.21,10.19 -10.18,9.36 -10.15,8.54 -10.07,7.65 -10.00,6.75 -9.78,5.63 -9.56,4.50 -9.17,3.76 -8.77,3.01 -8.36,2.29 -7.95,1.58 -7.46,0.90 -6.96,0.22 -6.49,-0.13 -6.01,-0.49 -5.39,-0.75 -4.76,-1.02 -3.84,-0.97 -2.93,-0.93 -2.34,-0.91 -1.74,-0.88 -0.87,-0.77 0,-0.65 0.07,-0.64 0.15,-0.63 0.23,-0.60 0.30,-0.58 0.37,-0.53 0.43,-0.49 0.48,-0.43 0.54,-0.37 0.57,-0.30 0.61,-0.23 0.63,-0.15 0.65,-0.07 0.65,0.00 0.65,0.07 0.63,0.15 0.61,0.23 0.57,0.30 0.54,0.37 0.48,0.43 0.43,0.49 0.37,0.53 0.30,0.58 0.23,0.60 0.15,0.63 0.07,0.64 -0.00,0.65 -0.00,0.65 L 0,0.65 Z"/></g><g transform="translate(206.07325518885125 18.36798095703125) rotate(0 2.662567138671875 0)" stroke="none"><path fill="#1e1e1e" d="M -0.46,0.46 Q -0.46,0.46 -1.24,-0.06 -2.03,-0.59 -2.53,-1.07 -3.03,-1.54 -3.63,-1.66 -4.22,-1.77 -4.88,-1.39 -5.54,-1.01 -6.05,-0.82 -6.55,-0.63 -6.77,-0.08 -6.98,0.46 -6.80,1.02 -6.63,1.58 -6.38,2.26 -6.14,2.93 -5.49,3.50 -4.85,4.07 -3.74,4.75 -2.64,5.43 -1.54,5.93 -0.45,6.44 0.76,6.62 1.98,6.80 2.94,6.88 3.90,6.97 4.98,6.58 6.06,6.20 7.00,5.81 7.93,5.42 8.46,5.08 8.99,4.74 9.53,4.05 10.08,3.35 10.53,2.63 10.99,1.90 11.38,1.22 11.76,0.54 11.43,-0.46 11.10,-1.47 10.61,-2.31 10.12,-3.15 9.52,-3.90 8.92,-4.65 8.34,-5.10 7.75,-5.55 7.23,-5.70 6.72,-5.85 5.97,-6.24 5.22,-6.62 2.98,-6.15 0.73,-5.68 0.63,-5.66 0.53,-5.63 0.42,-5.64 0.31,-5.65 0.22,-5.69 0.12,-5.73 0.04,-5.80 -0.03,-5.87 -0.08,-5.97 -0.13,-6.06 -0.15,-6.16 -0.17,-6.27 -0.16,-6.37 -0.14,-6.48 -0.10,-6.57 -0.05,-6.67 0.01,-6.74 0.09,-6.82 0.19,-6.87 0.28,-6.91 0.39,-6.93 0.49,-6.94 0.60,-6.92 0.70,-6.90 0.79,-6.85 0.88,-6.80 0.96,-6.72 1.03,-6.64 1.07,-6.54 1.11,-6.44 1.12,-6.34 1.13,-6.23 1.10,-6.13 1.08,-6.03 1.02,-5.94 0.96,-5.85 0.88,-5.78 0.80,-5.71 0.70,-5.68 0.60,-5.64 0.49,-5.64 0.38,-5.64 0.28,-5.67 0.18,-5.70 0.09,-5.76 0.01,-5.82 -0.04,-5.91 -0.11,-5.99 -0.14,-6.10 -0.17,-6.20 -0.17,-6.30 -0.16,-6.41 -0.13,-6.51 -0.09,-6.61 -0.02,-6.69 0.03,-6.78 0.12,-6.83 0.21,-6.89 0.21,-6.89 0.21,-6.89 2.12,-7.91 4.02,-8.93 5.07,-9.04 6.12,-9.15 6.88,-8.88 7.64,-8.62 8.61,-8.28 9.58,-7.93 10.44,-7.22 11.29,-6.51 12.02,-5.55 12.75,-4.59 13.34,-3.47 13.92,-2.35 14.18,-1.40 14.43,-0.46 14.37,0.63 14.31,1.73 13.82,2.59 13.33,3.45 12.74,4.30 12.16,5.15 11.28,6.09 10.41,7.03 9.65,7.46 8.90,7.88 7.85,8.27 6.80,8.66 5.26,9.06 3.73,9.47 2.65,9.36 1.56,9.25 0.04,8.96 -1.47,8.68 -2.71,8.09 -3.96,7.51 -5.26,6.65 -6.56,5.80 -7.47,4.82 -8.38,3.84 -8.70,2.93 -9.02,2.02 -9.15,0.90 -9.27,-0.21 -9.02,-0.83 -8.77,-1.45 -7.89,-2.19 -7.01,-2.92 -6.54,-3.28 -6.08,-3.64 -4.89,-3.84 -3.71,-4.04 -3.20,-3.88 -2.68,-3.72 -2.13,-3.39 -1.57,-3.06 -1.08,-2.54 -0.59,-2.03 -0.06,-1.24 0.46,-0.46 0.51,-0.40 0.56,-0.33 0.59,-0.26 0.62,-0.19 0.64,-0.11 0.65,-0.03 0.65,0.03 0.64,0.11 0.62,0.19 0.59,0.26 0.55,0.33 0.51,0.40 0.46,0.46 0.40,0.51 0.33,0.55 0.26,0.59 0.19,0.62 0.11,0.64 0.03,0.65 -0.03,0.65 -0.11,0.64 -0.19,0.62 -0.26,0.59 -0.33,0.56 -0.40,0.51 -0.46,0.46 -0.46,0.46 L -0.46,0.46 Z"/></g><g stroke-linecap="round"><g transform="translate(561.1834499637692 21.29356839344166) rotate(0 197.7886962890625 -0.38036346435546875)"><path d="M0.22 -0.38 C66.41 -0.38, 330.74 0.33, 396.72 0.36 M-1.12 -1.62 C65.05 -1.96, 330.26 -1.07, 396.37 -1.17" stroke="#1e1e1e" stroke-width="2" fill="none"/></g></g><mask/><g stroke-linecap="round"><g transform="translate(560.9525546101269 72.83568503391962) rotate(0 197.7886962890625 -0.38036346435546875)"><path d="M0.57 0.12 C66.2 -0.07, 329 -0.57, 394.9 -0.69 M-0.59 -0.86 C65.33 -0.88, 331.26 0.61, 397.25 0.88" stroke="#1e1e1e" stroke-width="2" fill="none"/></g></g><mask/><g stroke-linecap="round"><g transform="translate(563.0313003224973 139.494715277414) rotate(0 197.7886962890625 -0.38036346435546875)"><path d="M0.37 0.14 C66.33 -0.13, 329.14 -1.28, 395.07 -1.57 M-0.89 -0.83 C64.92 -0.98, 327.81 -0.48, 393.86 -0.46" stroke="#1e1e1e" stroke-width="2" fill="none"/></g></g><mask/><g stroke-linecap="round" transform="translate(605.5081263679465 108.95604289105972) rotate(0 37.49018637083719 32.134445460717586)"><path d="M16.07 0 C28.49 0, 40.9 0, 58.91 0 C69.62 0, 74.98 5.36, 74.98 16.07 C74.98 23.69, 74.98 31.31, 74.98 48.2 C74.98 58.91, 69.62 64.27, 58.91 64.27 C49.78 64.27, 40.65 64.27, 16.07 64.27 C5.36 64.27, 0 58.91, 0 48.2 C0 35.66, 0 23.11, 0 16.07 C0 5.36, 5.36 0, 16.07 0" stroke="none" stroke-width="0" fill="#ffffff"/><path d="M16.07 0 C27.95 0, 39.83 0, 58.91 0 M16.07 0 C29.97 0, 43.87 0, 58.91 0 M58.91 0 C69.62 0, 74.98 5.36, 74.98 16.07 M58.91 0 C69.62 0, 74.98 5.36, 74.98 16.07 M74.98 16.07 C74.98 26.56, 74.98 37.06, 74.98 48.2 M74.98 16.07 C74.98 27.59, 74.98 39.11, 74.98 48.2 M74.98 48.2 C74.98 58.91, 69.62 64.27, 58.91 64.27 M74.98 48.2 C74.98 58.91, 69.62 64.27, 58.91 64.27 M58.91 64.27 C44.49 64.27, 30.06 64.27, 16.07 64.27 M58.91 64.27 C44.95 64.27, 30.99 64.27, 16.07 64.27 M16.07 64.27 C5.36 64.27, 0 58.91, 0 48.2 M16.07 64.27 C5.36 64.27, 0 58.91, 0 48.2 M0 48.2 C0 36.84, 0 25.49, 0 16.07 M0 48.2 C0 39.09, 0 29.98, 0 16.07 M0 16.07 C0 5.36, 5.36 0, 16.07 0 M0 16.07 C0 5.36, 5.36 0, 16.07 0" stroke="#1e1e1e" stroke-width="2" fill="none"/></g><g stroke-linecap="round" transform="translate(744.2736556710554 106.99523715027067) rotate(0 37.49018637083719 32.134445460717586)"><path d="M16.07 0 C28.37 0, 40.67 0, 58.91 0 C69.62 0, 74.98 5.36, 74.98 16.07 C74.98 24.91, 74.98 33.75, 74.98 48.2 C74.98 58.91, 69.62 64.27, 58.91 64.27 C50.06 64.27, 41.21 64.27, 16.07 64.27 C5.36 64.27, 0 58.91, 0 48.2 C0 40.43, 0 32.65, 0 16.07 C0 5.36, 5.36 0, 16.07 0" stroke="none" stroke-width="0" fill="#ffffff"/><path d="M16.07 0 C32.77 0, 49.48 0, 58.91 0 M16.07 0 C28.49 0, 40.9 0, 58.91 0 M58.91 0 C69.62 0, 74.98 5.36, 74.98 16.07 M58.91 0 C69.62 0, 74.98 5.36, 74.98 16.07 M74.98 16.07 C74.98 25.76, 74.98 35.44, 74.98 48.2 M74.98 16.07 C74.98 22.92, 74.98 29.76, 74.98 48.2 M74.98 48.2 C74.98 58.91, 69.62 64.27, 58.91 64.27 M74.98 48.2 C74.98 58.91, 69.62 64.27, 58.91 64.27 M58.91 64.27 C43.69 64.27, 28.48 64.27, 16.07 64.27 M58.91 64.27 C48.97 64.27, 39.02 64.27, 16.07 64.27 M16.07 64.27 C5.36 64.27, 0 58.91, 0 48.2 M16.07 64.27 C5.36 64.27, 0 58.91, 0 48.2 M0 48.2 C0 37.35, 0 26.51, 0 16.07 M0 48.2 C0 35.82, 0 23.44, 0 16.07 M0 16.07 C0 5.36, 5.36 0, 16.07 0 M0 16.07 C0 5.36, 5.36 0, 16.07 0" stroke="#1e1e1e" stroke-width="2" fill="none"/></g><g stroke-linecap="round" transform="translate(864.2361674208715 107.19344620136883) rotate(0 37.49018637083719 32.134445460717586)"><path d="M16.07 0 C27.26 0, 38.45 0, 58.91 0 C69.62 0, 74.98 5.36, 74.98 16.07 C74.98 25.6, 74.98 35.13, 74.98 48.2 C74.98 58.91, 69.62 64.27, 58.91 64.27 C43.66 64.27, 28.4 64.27, 16.07 64.27 C5.36 64.27, 0 58.91, 0 48.2 C0 38.54, 0 28.89, 0 16.07 C0 5.36, 5.36 0, 16.07 0" stroke="none" stroke-width="0" fill="#ffffff"/><path d="M16.07 0 C24.7 0, 33.32 0, 58.91 0 M16.07 0 C32.41 0, 48.75 0, 58.91 0 M58.91 0 C69.62 0, 74.98 5.36, 74.98 16.07 M58.91 0 C69.62 0, 74.98 5.36, 74.98 16.07 M74.98 16.07 C74.98 28.24, 74.98 40.41, 74.98 48.2 M74.98 16.07 C74.98 27.2, 74.98 38.33, 74.98 48.2 M74.98 48.2 C74.98 58.91, 69.62 64.27, 58.91 64.27 M74.98 48.2 C74.98 58.91, 69.62 64.27, 58.91 64.27 M58.91 64.27 C41.94 64.27, 24.97 64.27, 16.07 64.27 M58.91 64.27 C46.99 64.27, 35.08 64.27, 16.07 64.27 M16.07 64.27 C5.36 64.27, 0 58.91, 0 48.2 M16.07 64.27 C5.36 64.27, 0 58.91, 0 48.2 M0 48.2 C0 36.29, 0 24.39, 0 16.07 M0 48.2 C0 40.96, 0 33.72, 0 16.07 M0 16.07 C0 5.36, 5.36 0, 16.07 0 M0 16.07 C0 5.36, 5.36 0, 16.07 0" stroke="#1e1e1e" stroke-width="2" fill="none"/></g><g transform="translate(644.0693692501957 68.25242916239051) rotate(0 3.213456004898262 4.641641167201442)" stroke="none"><path fill="#1e1e1e" d="M 0,0.65 Q 0,0.65 -0.56,0.94 -1.13,1.23 -1.62,1.78 -2.10,2.33 -2.33,3.14 -2.57,3.95 -2.68,4.68 -2.79,5.41 -2.84,6.11 -2.90,6.80 -2.41,7.57 -1.91,8.33 -1.40,8.67 -0.88,9.00 -0.26,9.36 0.36,9.71 1.47,9.66 2.59,9.61 3.45,9.55 4.31,9.50 4.83,9.14 5.35,8.77 5.98,8.54 6.61,8.32 7.07,7.92 7.53,7.53 7.95,7.18 8.37,6.83 8.71,5.77 9.06,4.72 9.17,3.86 9.29,3.00 8.87,2.24 8.44,1.48 7.88,0.78 7.31,0.08 6.60,-0.27 5.90,-0.62 4.16,-1.05 2.41,-1.48 2.31,-1.50 2.20,-1.51 2.11,-1.57 2.01,-1.62 1.94,-1.69 1.87,-1.77 1.83,-1.87 1.78,-1.97 1.77,-2.07 1.76,-2.18 1.79,-2.28 1.81,-2.38 1.87,-2.47 1.92,-2.56 2.00,-2.63 2.09,-2.70 2.19,-2.74 2.28,-2.78 2.39,-2.78 2.50,-2.79 2.60,-2.76 2.70,-2.73 2.79,-2.67 2.88,-2.61 2.94,-2.52 3.00,-2.43 3.03,-2.33 3.07,-2.23 3.07,-2.13 3.06,-2.02 3.03,-1.92 2.99,-1.82 2.93,-1.74 2.86,-1.65 2.78,-1.59 2.69,-1.53 2.58,-1.51 2.48,-1.48 2.38,-1.49 2.27,-1.49 2.17,-1.53 2.07,-1.58 1.99,-1.65 1.91,-1.71 1.86,-1.81 1.81,-1.90 1.78,-2.00 1.76,-2.11 1.77,-2.21 1.79,-2.32 1.83,-2.41 1.88,-2.51 1.95,-2.59 2.03,-2.66 2.12,-2.71 2.22,-2.76 2.32,-2.77 2.43,-2.79 2.43,-2.79 2.43,-2.79 4.62,-2.99 6.82,-3.18 7.42,-2.96 8.01,-2.74 8.71,-2.24 9.41,-1.74 9.80,-1.28 10.18,-0.82 10.57,-0.25 10.95,0.31 11.24,0.96 11.54,1.61 11.76,2.36 11.97,3.10 11.90,3.86 11.83,4.61 11.66,5.20 11.50,5.79 11.22,6.40 10.94,7.01 10.58,7.84 10.21,8.67 9.67,9.14 9.14,9.62 7.89,10.34 6.64,11.07 5.62,11.58 4.60,12.08 3.76,12.14 2.93,12.20 1.63,12.31 0.34,12.42 -0.28,12.20 -0.92,11.99 -1.64,11.57 -2.36,11.15 -3.08,10.64 -3.80,10.12 -4.43,9.35 -5.05,8.58 -5.27,7.61 -5.49,6.64 -5.42,5.81 -5.36,4.98 -5.19,4.06 -5.03,3.13 -4.61,1.98 -4.18,0.82 -3.72,0.28 -3.26,-0.24 -2.29,-0.73 -1.32,-1.23 -0.66,-0.94 0,-0.65 0.07,-0.64 0.15,-0.63 0.23,-0.60 0.30,-0.58 0.37,-0.53 0.43,-0.49 0.48,-0.43 0.54,-0.37 0.57,-0.30 0.61,-0.23 0.63,-0.15 0.65,-0.07 0.65,0.00 0.65,0.07 0.63,0.15 0.61,0.23 0.57,0.30 0.54,0.37 0.48,0.43 0.43,0.49 0.37,0.53 0.30,0.58 0.23,0.60 0.15,0.63 0.07,0.64 -0.00,0.65 -0.00,0.65 L 0,0.65 Z"/></g><g transform="translate(646.9258255160007 76.82162607740838) rotate(0 0.3570570332256011 15.710165697133135)" stroke="none"><path fill="#1e1e1e" d="M 0.65,0 Q 0.65,0 0.94,1.02 1.22,2.05 1.24,3.10 1.27,4.15 1.48,5.09 1.70,6.03 1.81,7.38 1.93,8.73 1.98,9.91 2.03,11.09 2.06,12.42 2.08,13.75 2.10,14.93 2.11,16.10 2.12,17.02 2.13,17.93 2.13,18.52 2.14,19.11 2.14,19.77 2.15,20.44 2.16,21.54 2.17,22.65 2.18,23.52 2.19,24.39 2.21,25.13 2.23,25.88 2.24,26.60 2.24,27.31 1.71,29.10 1.17,30.88 1.20,30.98 1.24,31.08 1.24,31.19 1.24,31.30 1.20,31.40 1.17,31.50 1.11,31.58 1.04,31.67 0.95,31.73 0.87,31.79 0.76,31.82 0.66,31.84 0.56,31.84 0.45,31.83 0.35,31.79 0.25,31.75 0.17,31.69 0.09,31.62 0.03,31.53 -0.01,31.43 -0.03,31.33 -0.06,31.23 -0.04,31.12 -0.03,31.02 0.00,30.92 0.05,30.82 0.12,30.75 0.19,30.67 0.29,30.62 0.38,30.57 0.48,30.55 0.59,30.53 0.69,30.55 0.80,30.57 0.89,30.62 0.99,30.67 1.06,30.75 1.13,30.82 1.18,30.92 1.22,31.02 1.23,31.12 1.25,31.23 1.22,31.33 1.20,31.43 1.15,31.52 1.09,31.62 1.01,31.68 0.93,31.75 0.83,31.79 0.73,31.83 0.63,31.84 0.52,31.84 0.42,31.82 0.31,31.79 0.23,31.73 0.14,31.67 0.07,31.58 0.01,31.50 0.01,31.50 0.01,31.50 -0.40,29.41 -0.81,27.31 -0.81,26.60 -0.81,25.88 -0.78,25.13 -0.76,24.39 -0.75,23.52 -0.74,22.65 -0.73,21.54 -0.72,20.44 -0.72,19.78 -0.72,19.12 -0.71,18.53 -0.71,17.94 -0.71,17.03 -0.70,16.12 -0.70,14.95 -0.70,13.78 -0.71,12.48 -0.71,11.18 -0.74,10.05 -0.76,8.92 -0.82,7.72 -0.88,6.53 -1.07,5.34 -1.27,4.16 -1.24,3.10 -1.22,2.05 -0.94,1.02 -0.65,0 -0.64,-0.07 -0.63,-0.15 -0.60,-0.23 -0.58,-0.30 -0.53,-0.37 -0.49,-0.43 -0.43,-0.48 -0.37,-0.54 -0.30,-0.57 -0.23,-0.61 -0.15,-0.63 -0.07,-0.65 0.00,-0.65 0.07,-0.65 0.15,-0.63 0.23,-0.61 0.30,-0.57 0.37,-0.54 0.43,-0.48 0.49,-0.43 0.53,-0.37 0.58,-0.30 0.60,-0.23 0.63,-0.15 0.64,-0.07 0.65,0.00 0.65,0.00 L 0.65,0 Z"/></g><g transform="translate(703.3395762947368 17.551419032867216) rotate(0 8.212197175924558 33.2055879133282)" stroke="none"><path fill="#1e1e1e" d="M -0.46,-0.46 Q -0.46,-0.46 0.02,-1.03 0.50,-1.59 1.09,-1.54 1.67,-1.49 2.17,-0.70 2.68,0.08 2.85,0.87 3.02,1.67 3.09,2.84 3.17,4.02 3.40,5.01 3.63,6.01 3.75,7.37 3.87,8.72 4.12,10.03 4.37,11.33 4.69,12.93 5.01,14.53 5.16,16.09 5.31,17.66 5.37,19.36 5.44,21.06 5.47,22.60 5.50,24.14 5.52,25.61 5.54,27.09 5.55,28.13 5.56,29.16 5.57,30.22 5.57,31.28 5.58,32.35 5.59,33.41 5.59,34.07 5.59,34.73 5.60,35.62 5.60,36.52 5.60,37.31 5.60,38.10 5.61,38.64 5.61,39.18 5.61,39.82 5.61,40.47 5.61,41.35 5.61,42.24 5.62,42.98 5.62,43.73 5.34,44.50 5.06,45.27 4.45,45.75 3.85,46.23 2.95,46.12 2.04,46.01 1.19,46.25 0.34,46.49 -0.39,46.70 -1.12,46.90 -1.68,47.31 -2.24,47.72 -2.90,48.28 -3.55,48.84 -3.90,49.52 -4.26,50.21 -4.62,51.26 -4.99,52.32 -5.13,53.49 -5.27,54.66 -5.35,56.17 -5.42,57.68 -5.08,58.72 -4.73,59.76 -4.38,60.89 -4.04,62.01 -3.22,62.86 -2.40,63.70 -1.53,64.24 -0.66,64.78 0.62,65.19 1.90,65.60 3.58,65.77 5.27,65.95 6.86,65.63 8.46,65.32 10.16,64.79 11.86,64.27 13.48,63.29 15.11,62.31 16.59,61.11 18.08,59.91 19.03,58.67 19.99,57.43 20.55,56.18 21.11,54.94 21.33,53.71 21.55,52.48 21.44,51.06 21.34,49.63 20.93,48.55 20.53,47.46 19.82,46.50 19.12,45.53 18.12,44.80 17.12,44.08 15.97,43.59 14.82,43.10 13.69,42.67 12.56,42.23 11.42,42.08 10.28,41.94 9.31,42.06 8.34,42.19 7.39,42.24 6.44,42.29 5.63,42.29 4.82,42.29 4.37,42.69 3.92,43.09 3.49,43.50 3.05,43.91 2.75,45.00 2.45,46.09 2.39,46.14 2.33,46.20 2.26,46.23 2.19,46.27 2.11,46.28 2.03,46.30 1.95,46.30 1.88,46.30 1.80,46.27 1.72,46.25 1.65,46.21 1.58,46.18 1.53,46.12 1.47,46.07 1.43,46.00 1.38,45.94 1.36,45.86 1.33,45.79 1.32,45.71 1.32,45.63 1.33,45.55 1.34,45.47 1.37,45.40 1.40,45.33 1.44,45.26 1.49,45.20 1.92,45.16 2.36,45.11 2.43,45.19 2.51,45.26 2.55,45.36 2.60,45.46 2.61,45.56 2.63,45.67 2.61,45.77 2.59,45.87 2.53,45.97 2.48,46.06 2.40,46.13 2.32,46.20 2.23,46.24 2.13,46.28 2.02,46.29 1.92,46.30 1.81,46.27 1.71,46.25 1.62,46.19 1.53,46.13 1.46,46.05 1.40,45.97 1.36,45.87 1.33,45.77 1.32,45.66 1.32,45.55 1.35,45.45 1.38,45.35 1.45,45.27 1.51,45.18 1.60,45.12 1.68,45.06 1.78,45.03 1.89,44.99 1.99,45.00 2.10,45.00 2.20,45.04 2.30,45.08 2.38,45.14 2.46,45.21 2.52,45.30 2.58,45.39 2.60,45.49 2.63,45.60 2.62,45.70 2.61,45.81 2.57,45.90 2.52,46.00 2.45,46.08 2.38,46.16 2.29,46.21 2.20,46.26 2.09,46.28 1.99,46.30 1.88,46.29 1.78,46.27 2.11,46.18 2.45,46.09 2.39,46.14 2.33,46.20 2.26,46.23 2.19,46.27 2.11,46.28 2.03,46.30 1.95,46.30 1.88,46.30 1.80,46.27 1.72,46.25 1.65,46.21 1.58,46.18 1.53,46.12 1.47,46.07 1.43,46.00 1.38,45.94 1.36,45.86 1.33,45.79 1.32,45.71 1.32,45.63 1.33,45.55 1.34,45.47 1.37,45.40 1.40,45.33 1.44,45.26 1.49,45.20 1.22,43.58 0.95,41.96 1.30,41.54 1.64,41.11 2.33,40.39 3.01,39.68 3.84,39.36 4.67,39.04 5.46,39.00 6.24,38.95 7.12,38.90 7.99,38.84 9.37,38.73 10.75,38.61 12.25,38.85 13.76,39.09 14.98,39.57 16.20,40.04 17.68,40.74 19.16,41.43 20.49,42.52 21.82,43.62 22.72,44.99 23.63,46.37 24.12,47.90 24.60,49.43 24.67,51.26 24.74,53.10 24.39,54.70 24.04,56.30 23.27,57.86 22.50,59.41 21.29,60.89 20.08,62.38 18.40,63.71 16.72,65.05 14.76,66.17 12.81,67.30 10.91,67.87 9.02,68.45 6.98,68.77 4.95,69.10 2.92,68.86 0.90,68.61 -0.73,68.03 -2.38,67.45 -3.57,66.64 -4.77,65.83 -5.90,64.45 -7.03,63.07 -7.42,61.86 -7.80,60.66 -8.21,59.12 -8.62,57.58 -8.54,55.90 -8.46,54.23 -8.24,52.74 -8.02,51.25 -7.53,49.91 -7.04,48.58 -6.36,47.50 -5.67,46.42 -4.84,45.72 -4.01,45.02 -3.00,44.41 -2.00,43.81 -0.55,43.53 0.90,43.24 1.92,43.49 2.94,43.73 2.94,42.98 2.94,42.24 2.95,41.35 2.95,40.47 2.95,39.82 2.95,39.18 2.95,38.64 2.95,38.10 2.96,37.31 2.96,36.52 2.96,35.62 2.97,34.73 2.97,34.07 2.97,33.41 2.98,32.35 2.98,31.28 2.98,30.23 2.99,29.18 2.99,28.14 2.99,27.11 2.99,25.64 2.98,24.18 2.97,22.66 2.95,21.14 2.91,19.51 2.86,17.87 2.75,16.43 2.64,14.99 2.34,13.37 2.04,11.75 1.79,10.32 1.55,8.90 1.48,7.69 1.40,6.47 1.18,5.30 0.96,4.12 0.93,3.08 0.90,2.03 1.02,0.99 1.13,-0.04 0.79,0.20 0.46,0.46 0.40,0.51 0.33,0.56 0.26,0.59 0.19,0.62 0.11,0.64 0.03,0.65 -0.03,0.65 -0.11,0.64 -0.19,0.62 -0.26,0.59 -0.33,0.55 -0.40,0.51 -0.46,0.46 -0.51,0.40 -0.55,0.33 -0.59,0.26 -0.62,0.19 -0.64,0.11 -0.65,0.03 -0.65,-0.03 -0.64,-0.11 -0.62,-0.19 -0.59,-0.26 -0.56,-0.33 -0.51,-0.40 -0.46,-0.46 -0.46,-0.46 L -0.46,-0.46 Z"/></g><g transform="translate(708.3382601716307 61.111431733208974) rotate(0 0 12.853781048993653)" stroke="none"><path fill="#1e1e1e" d="M 0.65,0 Q 0.65,0 0.94,1.43 1.22,2.87 1.26,4.30 1.30,5.73 1.34,7.78 1.38,9.82 1.40,11.72 1.42,13.62 1.44,15.45 1.45,17.28 1.45,18.88 1.44,20.48 1.05,22.94 0.65,25.40 0.63,25.50 0.62,25.60 0.57,25.70 0.52,25.79 0.44,25.87 0.36,25.94 0.27,25.98 0.17,26.03 0.07,26.04 -0.03,26.05 -0.13,26.03 -0.24,26.01 -0.33,25.95 -0.42,25.90 -0.49,25.81 -0.56,25.73 -0.60,25.63 -0.64,25.54 -0.64,25.43 -0.65,25.32 -0.62,25.22 -0.59,25.12 -0.53,25.03 -0.47,24.94 -0.39,24.88 -0.30,24.81 -0.20,24.78 -0.10,24.75 0.00,24.75 0.10,24.75 0.20,24.78 0.30,24.81 0.39,24.88 0.47,24.94 0.53,25.03 0.59,25.12 0.62,25.22 0.65,25.32 0.64,25.43 0.64,25.54 0.60,25.63 0.56,25.73 0.49,25.81 0.42,25.90 0.33,25.95 0.24,26.01 0.13,26.03 0.03,26.05 -0.07,26.04 -0.17,26.03 -0.27,25.98 -0.36,25.94 -0.44,25.87 -0.52,25.79 -0.57,25.70 -0.62,25.60 -0.63,25.50 -0.65,25.39 -0.65,25.39 -0.65,25.40 -1.05,22.94 -1.44,20.48 -1.45,18.88 -1.45,17.28 -1.44,15.45 -1.42,13.62 -1.40,11.72 -1.38,9.82 -1.34,7.78 -1.30,5.73 -1.26,4.30 -1.22,2.87 -0.94,1.43 -0.65,0 -0.64,-0.07 -0.63,-0.15 -0.60,-0.23 -0.58,-0.30 -0.53,-0.37 -0.49,-0.43 -0.43,-0.48 -0.37,-0.54 -0.30,-0.57 -0.23,-0.61 -0.15,-0.63 -0.07,-0.65 0.00,-0.65 0.07,-0.65 0.15,-0.63 0.23,-0.61 0.30,-0.57 0.37,-0.54 0.43,-0.48 0.49,-0.43 0.53,-0.37 0.58,-0.30 0.60,-0.23 0.63,-0.15 0.64,-0.07 0.65,0.00 0.65,0.00 L 0.65,0 Z"/></g><g transform="translate(782.6045188468539 69.68062864822684) rotate(0 0.3570570332256011 3.9275414242832767)" stroke="none"><path fill="#1e1e1e" d="M -0.36,0.54 Q -0.36,0.54 -1.04,0.35 -1.71,0.16 -2.32,0.46 -2.92,0.77 -3.50,1.67 -4.07,2.57 -4.46,3.82 -4.85,5.06 -4.72,6.18 -4.58,7.30 -3.91,7.91 -3.23,8.53 -2.14,8.88 -1.06,9.24 -0.27,9.10 0.51,8.96 1.21,8.73 1.91,8.51 2.46,7.91 3.00,7.31 3.46,6.67 3.91,6.03 4.31,5.36 4.71,4.69 5.08,4.00 5.45,3.32 5.55,2.77 5.65,2.23 5.51,1.53 5.36,0.83 5.30,0.21 5.24,-0.39 4.53,-0.87 3.81,-1.35 2.89,-1.30 1.97,-1.25 0.05,-1.37 -1.86,-1.49 -1.96,-1.50 -2.07,-1.52 -2.16,-1.56 -2.26,-1.61 -2.33,-1.69 -2.41,-1.76 -2.45,-1.86 -2.50,-1.95 -2.52,-2.06 -2.53,-2.16 -2.51,-2.27 -2.49,-2.37 -2.44,-2.46 -2.39,-2.56 -2.31,-2.63 -2.23,-2.70 -2.13,-2.74 -2.03,-2.78 -1.93,-2.79 -1.82,-2.80 -1.72,-2.77 -1.61,-2.75 -1.53,-2.69 -1.44,-2.63 -1.37,-2.55 -1.30,-2.47 -1.27,-2.37 -1.23,-2.27 -1.23,-2.16 -1.22,-2.06 -1.25,-1.95 -1.29,-1.85 -1.35,-1.77 -1.41,-1.68 -1.50,-1.62 -1.58,-1.56 -1.68,-1.53 -1.78,-1.49 -1.89,-1.50 -2.00,-1.50 -2.10,-1.54 -2.20,-1.57 -2.28,-1.64 -2.36,-1.71 -2.42,-1.80 -2.48,-1.88 -2.50,-1.99 -2.53,-2.09 -2.52,-2.20 -2.51,-2.30 -2.47,-2.40 -2.43,-2.50 -2.36,-2.58 -2.29,-2.66 -2.19,-2.71 -2.10,-2.76 -2.00,-2.78 -1.89,-2.80 -1.89,-2.80 -1.89,-2.80 -0.21,-3.14 1.47,-3.48 2.37,-3.65 3.26,-3.83 4.09,-3.66 4.92,-3.50 5.51,-3.19 6.11,-2.89 6.62,-2.50 7.12,-2.10 7.45,-1.40 7.77,-0.69 7.83,-0.11 7.88,0.46 8.01,1.59 8.13,2.73 7.90,3.62 7.68,4.50 7.27,5.24 6.87,5.99 6.40,6.75 5.94,7.52 5.34,8.32 4.73,9.12 3.75,9.97 2.77,10.83 1.82,11.13 0.86,11.43 -0.30,11.56 -1.48,11.69 -2.56,11.44 -3.64,11.19 -4.34,10.70 -5.04,10.21 -5.45,9.77 -5.86,9.32 -6.40,8.52 -6.94,7.73 -7.00,6.98 -7.07,6.24 -7.12,5.27 -7.17,4.29 -6.91,3.63 -6.65,2.98 -6.40,2.13 -6.15,1.28 -5.68,0.57 -5.20,-0.13 -4.52,-0.77 -3.84,-1.41 -3.05,-1.67 -2.25,-1.92 -1.50,-1.86 -0.74,-1.80 -0.19,-1.17 0.36,-0.54 0.42,-0.49 0.48,-0.44 0.53,-0.37 0.57,-0.31 0.60,-0.24 0.63,-0.16 0.64,-0.08 0.65,-0.01 0.64,0.06 0.64,0.14 0.61,0.22 0.58,0.29 0.54,0.36 0.49,0.42 0.44,0.48 0.38,0.53 0.31,0.57 0.24,0.61 0.16,0.63 0.08,0.65 0.01,0.65 -0.06,0.65 -0.14,0.63 -0.22,0.61 -0.29,0.58 -0.36,0.54 -0.36,0.54 L -0.36,0.54 Z"/></g><g transform="translate(782.6045188468539 76.82162607740838) rotate(0 -0.7140567723188269 13.924923501604326)" stroke="none"><path fill="#1e1e1e" d="M 0.64,0.12 Q 0.64,0.12 0.68,1.20 0.73,2.28 0.66,2.87 0.59,3.47 0.76,4.18 0.94,4.88 1.03,5.73 1.12,6.57 1.16,7.35 1.20,8.13 1.23,8.87 1.25,9.61 1.27,10.76 1.29,11.91 1.30,12.79 1.31,13.68 1.31,14.42 1.32,15.16 1.03,16.21 0.75,17.25 0.70,18.03 0.64,18.81 0.64,19.50 0.63,20.19 0.63,20.90 0.63,21.61 0.63,22.32 0.63,23.03 0.63,23.75 0.63,24.46 -0.04,26.20 -0.72,27.95 -0.79,28.03 -0.86,28.11 -0.95,28.17 -1.04,28.23 -1.14,28.25 -1.25,28.28 -1.35,28.27 -1.46,28.26 -1.55,28.21 -1.65,28.17 -1.73,28.10 -1.81,28.03 -1.86,27.94 -1.91,27.84 -1.93,27.74 -1.95,27.63 -1.94,27.53 -1.92,27.42 -1.87,27.33 -1.82,27.23 -1.75,27.16 -1.67,27.08 -1.58,27.04 -1.48,26.99 -1.38,26.98 -1.27,26.96 -1.17,26.99 -1.06,27.01 -0.97,27.06 -0.88,27.11 -0.81,27.19 -0.74,27.27 -0.70,27.37 -0.66,27.47 -0.65,27.57 -0.64,27.68 -0.67,27.78 -0.69,27.88 -0.75,27.97 -0.81,28.06 -0.89,28.13 -0.98,28.19 -1.08,28.23 -1.18,28.27 -1.28,28.27 -1.39,28.27 -1.49,28.24 -1.59,28.21 -1.68,28.14 -1.76,28.08 -1.82,27.99 -1.88,27.91 -1.92,27.81 -1.95,27.70 -1.94,27.60 -1.94,27.49 -1.90,27.39 -1.86,27.29 -1.86,27.29 -1.86,27.29 -1.96,25.88 -2.06,24.46 -2.06,23.75 -2.05,23.03 -2.05,22.32 -2.06,21.60 -2.05,20.88 -2.05,20.17 -2.04,19.43 -2.03,18.69 -1.95,17.85 -1.88,17.00 -1.60,16.08 -1.32,15.16 -1.31,14.42 -1.31,13.68 -1.30,12.80 -1.30,11.92 -1.29,10.79 -1.29,9.65 -1.29,8.94 -1.29,8.23 -1.31,7.51 -1.33,6.80 -1.38,6.06 -1.43,5.33 -1.60,4.26 -1.76,3.19 -1.65,2.51 -1.55,1.82 -1.09,0.84 -0.64,-0.12 -0.61,-0.20 -0.59,-0.27 -0.55,-0.34 -0.51,-0.41 -0.45,-0.46 -0.39,-0.52 -0.32,-0.56 -0.25,-0.60 -0.18,-0.62 -0.10,-0.64 -0.02,-0.65 0.05,-0.65 0.12,-0.63 0.20,-0.62 0.27,-0.59 0.34,-0.55 0.41,-0.50 0.47,-0.45 0.51,-0.39 0.56,-0.33 0.59,-0.25 0.63,-0.18 0.64,-0.10 0.65,-0.02 0.64,0.04 0.64,0.12 0.64,0.12 L 0.64,0.12 Z"/></g><g transform="translate(636.9284577622127 140.37640293239224) rotate(0 12.1396526590093 10.711467496706092)" stroke="none"><path fill="#1e1e1e" d="M 0.56,-0.33 Q 0.56,-0.33 1.39,0.55 2.23,1.45 2.76,2.55 3.29,3.65 3.94,5.12 4.59,6.60 5.11,8.32 5.63,10.03 6.24,11.72 6.86,13.40 7.34,14.98 7.83,16.56 8.23,17.58 8.63,18.60 9.40,17.78 10.18,16.95 11.37,15.16 12.56,13.38 14.23,11.51 15.89,9.64 18.01,7.97 20.13,6.30 21.66,5.00 23.18,3.70 23.27,3.64 23.36,3.58 23.46,3.55 23.56,3.52 23.67,3.53 23.78,3.53 23.87,3.57 23.97,3.61 24.05,3.68 24.14,3.75 24.19,3.84 24.25,3.93 24.27,4.03 24.29,4.14 24.28,4.24 24.27,4.35 24.23,4.44 24.18,4.54 24.11,4.62 24.04,4.70 23.95,4.75 23.85,4.80 23.75,4.82 23.64,4.83 23.54,4.82 23.43,4.80 23.34,4.75 23.24,4.70 23.17,4.63 23.10,4.55 23.05,4.45 23.01,4.36 22.99,4.25 22.98,4.15 23.00,4.04 23.03,3.94 23.08,3.85 23.14,3.75 23.22,3.69 23.30,3.62 23.39,3.58 23.49,3.54 23.60,3.53 23.70,3.52 23.81,3.55 23.91,3.58 24.00,3.64 24.09,3.70 24.15,3.78 24.22,3.86 24.25,3.97 24.29,4.07 24.29,4.17 24.29,4.28 24.25,4.38 24.22,4.48 24.16,4.57 24.09,4.65 24.09,4.65 24.09,4.65 22.73,6.13 21.38,7.60 19.70,9.54 18.03,11.47 16.55,13.27 15.08,15.07 13.73,17.08 12.37,19.09 10.99,20.34 9.60,21.59 8.74,21.63 7.87,21.67 6.88,20.66 5.89,19.64 5.48,18.51 5.07,17.39 4.63,15.86 4.19,14.33 3.59,12.55 2.99,10.78 2.58,9.19 2.16,7.60 1.60,6.13 1.03,4.65 0.63,3.65 0.22,2.65 -0.16,1.49 -0.56,0.33 -0.59,0.26 -0.62,0.19 -0.64,0.11 -0.65,0.03 -0.65,-0.04 -0.64,-0.12 -0.62,-0.19 -0.59,-0.27 -0.55,-0.33 -0.51,-0.40 -0.45,-0.46 -0.40,-0.51 -0.33,-0.55 -0.26,-0.59 -0.19,-0.62 -0.11,-0.64 -0.03,-0.65 0.04,-0.65 0.11,-0.64 0.19,-0.62 0.26,-0.59 0.34,-0.56 0.40,-0.51 0.46,-0.46 0.51,-0.40 0.56,-0.33 0.56,-0.33 L 0.56,-0.33 Z"/></g><g transform="translate(773.3212651595173 136.80588989426838) rotate(0 7.498025815340952 7.498054462407168)" stroke="none"><path fill="#1e1e1e" d="M 0.65,-0.09 Q 0.65,-0.09 1.06,1.31 1.47,2.72 1.99,4.49 2.51,6.25 2.96,8.08 3.41,9.90 3.82,11.70 4.23,13.50 4.60,14.61 4.97,15.73 5.16,16.48 5.35,17.23 5.44,17.73 5.53,18.23 5.55,18.40 5.56,18.56 5.54,18.73 5.51,18.89 5.45,19.05 5.39,19.20 5.29,19.33 5.19,19.47 5.07,19.58 4.94,19.68 4.79,19.76 4.64,19.83 4.48,19.87 4.32,19.90 4.15,19.90 3.98,19.90 3.82,19.85 3.66,19.81 3.52,19.73 3.37,19.65 3.25,19.53 3.13,19.42 3.04,19.28 2.94,19.14 2.89,18.99 2.83,18.83 3.56,17.91 4.29,16.99 4.79,15.52 5.28,14.04 6.21,11.70 7.13,9.35 8.37,6.66 9.62,3.97 10.59,1.86 11.57,-0.24 12.79,-1.98 14.02,-3.72 14.07,-3.81 14.13,-3.89 14.22,-3.96 14.30,-4.02 14.40,-4.06 14.50,-4.09 14.61,-4.09 14.71,-4.10 14.82,-4.06 14.92,-4.03 15.00,-3.97 15.09,-3.90 15.15,-3.81 15.21,-3.73 15.24,-3.62 15.27,-3.52 15.26,-3.42 15.26,-3.31 15.22,-3.21 15.18,-3.11 15.11,-3.03 15.04,-2.95 14.95,-2.89 14.86,-2.84 14.76,-2.81 14.65,-2.79 14.55,-2.80 14.44,-2.81 14.35,-2.86 14.25,-2.90 14.17,-2.97 14.09,-3.05 14.04,-3.14 13.99,-3.23 13.97,-3.34 13.96,-3.44 13.97,-3.55 13.99,-3.65 14.04,-3.75 14.09,-3.84 14.16,-3.91 14.24,-3.99 14.34,-4.03 14.43,-4.08 14.54,-4.09 14.64,-4.10 14.75,-4.08 14.85,-4.06 14.94,-4.00 15.03,-3.95 15.10,-3.87 15.17,-3.79 15.21,-3.69 15.25,-3.59 15.26,-3.49 15.27,-3.38 15.24,-3.28 15.21,-3.18 15.21,-3.18 15.21,-3.18 14.72,-1.13 14.23,0.90 13.34,3.09 12.45,5.29 11.24,7.90 10.02,10.52 9.03,12.92 8.04,15.33 6.94,17.31 5.83,19.29 5.68,18.76 5.53,18.23 5.55,18.40 5.56,18.56 5.54,18.73 5.51,18.89 5.45,19.05 5.39,19.20 5.29,19.33 5.19,19.47 5.07,19.58 4.94,19.68 4.79,19.76 4.64,19.83 4.48,19.87 4.32,19.90 4.15,19.90 3.98,19.90 3.82,19.85 3.66,19.81 3.52,19.73 3.37,19.65 3.25,19.53 3.13,19.42 3.04,19.28 2.94,19.14 2.89,18.99 2.83,18.83 2.79,18.32 2.75,17.81 2.62,17.15 2.50,16.50 2.13,15.26 1.77,14.03 1.42,12.24 1.06,10.44 0.68,8.65 0.29,6.86 -0.17,4.94 -0.65,3.02 -0.65,1.55 -0.65,0.09 -0.65,0.01 -0.65,-0.06 -0.63,-0.14 -0.61,-0.21 -0.58,-0.29 -0.54,-0.36 -0.49,-0.42 -0.44,-0.48 -0.38,-0.52 -0.31,-0.57 -0.24,-0.60 -0.17,-0.63 -0.09,-0.64 -0.01,-0.65 0.06,-0.64 0.14,-0.64 0.21,-0.61 0.29,-0.58 0.35,-0.54 0.42,-0.50 0.47,-0.44 0.53,-0.38 0.57,-0.31 0.60,-0.24 0.62,-0.16 0.65,-0.09 0.65,-0.09 L 0.65,-0.09 Z"/></g><g transform="translate(792.6018866006419 139.66228886594098) rotate(0 5.712797943345208 -0.3570427096925073)" stroke="none"><path fill="#1e1e1e" d="M -0.09,-0.65 Q -0.09,-0.65 1.29,-1.21 2.67,-1.78 4.16,-1.89 5.65,-2.00 8.42,-1.35 11.20,-0.69 11.30,-0.66 11.40,-0.63 11.49,-0.56 11.57,-0.50 11.63,-0.41 11.69,-0.33 11.72,-0.22 11.75,-0.12 11.75,-0.02 11.74,0.08 11.70,0.18 11.66,0.28 11.59,0.36 11.53,0.44 11.44,0.50 11.35,0.55 11.24,0.58 11.14,0.60 11.03,0.59 10.93,0.58 10.83,0.53 10.73,0.49 10.66,0.42 10.58,0.35 10.53,0.25 10.48,0.16 10.46,0.05 10.44,-0.04 10.46,-0.15 10.47,-0.25 10.52,-0.35 10.57,-0.44 10.65,-0.51 10.73,-0.59 10.82,-0.63 10.92,-0.68 11.02,-0.69 11.13,-0.70 11.23,-0.68 11.34,-0.66 11.43,-0.60 11.52,-0.55 11.59,-0.47 11.66,-0.39 11.70,-0.29 11.74,-0.19 11.74,-0.09 11.75,0.01 11.72,0.11 11.70,0.22 11.64,0.30 11.58,0.39 11.49,0.46 11.41,0.52 11.31,0.56 11.21,0.59 11.10,0.59 11.00,0.59 11.00,0.59 11.00,0.59 8.41,0.71 5.82,0.83 4.44,0.90 3.07,0.96 1.58,0.80 0.09,0.65 0.01,0.65 -0.06,0.65 -0.14,0.63 -0.21,0.61 -0.29,0.58 -0.36,0.54 -0.42,0.49 -0.48,0.44 -0.52,0.38 -0.57,0.31 -0.60,0.24 -0.63,0.17 -0.64,0.09 -0.65,0.01 -0.64,-0.06 -0.64,-0.14 -0.61,-0.21 -0.58,-0.29 -0.54,-0.35 -0.50,-0.42 -0.44,-0.47 -0.38,-0.53 -0.31,-0.57 -0.24,-0.60 -0.16,-0.62 -0.09,-0.65 -0.09,-0.65 L -0.09,-0.65 Z"/></g><g transform="translate(797.6005704775358 135.37769040843204) rotate(0 0 6.069840653037772)" stroke="none"><path fill="#1e1e1e" d="M 0.65,0 Q 0.65,0 0.92,1.02 1.19,2.05 1.21,3.10 1.24,4.15 1.19,5.63 1.14,7.10 0.89,9.16 0.65,11.23 0.63,11.33 0.62,11.43 0.57,11.53 0.52,11.62 0.44,11.70 0.36,11.77 0.27,11.81 0.17,11.86 0.07,11.87 -0.03,11.88 -0.13,11.86 -0.24,11.84 -0.33,11.78 -0.42,11.73 -0.49,11.64 -0.56,11.56 -0.60,11.47 -0.64,11.37 -0.64,11.26 -0.65,11.15 -0.62,11.05 -0.59,10.95 -0.53,10.86 -0.47,10.77 -0.39,10.71 -0.30,10.65 -0.20,10.61 -0.10,10.58 0.00,10.58 0.10,10.58 0.20,10.61 0.30,10.65 0.39,10.71 0.47,10.77 0.53,10.86 0.59,10.95 0.62,11.05 0.65,11.15 0.64,11.26 0.64,11.37 0.60,11.47 0.56,11.56 0.49,11.64 0.42,11.73 0.33,11.78 0.24,11.84 0.13,11.86 0.03,11.88 -0.07,11.87 -0.17,11.86 -0.27,11.81 -0.36,11.77 -0.44,11.70 -0.52,11.62 -0.57,11.53 -0.62,11.43 -0.63,11.33 -0.65,11.23 -0.65,11.23 -0.65,11.23 -0.89,9.16 -1.14,7.10 -1.19,5.63 -1.24,4.15 -1.21,3.10 -1.19,2.05 -0.92,1.02 -0.65,0 -0.64,-0.07 -0.63,-0.15 -0.60,-0.23 -0.58,-0.30 -0.53,-0.37 -0.49,-0.43 -0.43,-0.48 -0.37,-0.54 -0.30,-0.57 -0.23,-0.61 -0.15,-0.63 -0.07,-0.65 0.00,-0.65 0.07,-0.65 0.15,-0.63 0.23,-0.61 0.30,-0.57 0.37,-0.54 0.43,-0.48 0.49,-0.43 0.53,-0.37 0.58,-0.30 0.60,-0.23 0.63,-0.15 0.64,-0.07 0.65,0.00 0.65,0.00 L 0.65,0 Z"/></g><g transform="translate(829.021016460067 21.836017490376094) rotate(0 6.426854715664035 30.706245974881284)" stroke="none"><path fill="#1e1e1e" d="M -0.65,0 Q -0.65,0 -0.74,-0.63 -0.83,-1.26 -0.64,-1.71 -0.46,-2.16 -0.44,-2.27 -0.43,-2.37 -0.39,-2.47 -0.36,-2.57 -0.30,-2.65 -0.24,-2.74 -0.16,-2.81 -0.08,-2.88 0.00,-2.93 0.10,-2.98 0.20,-3.00 0.30,-3.03 0.41,-3.03 0.51,-3.03 0.61,-3.00 0.72,-2.98 0.81,-2.93 0.90,-2.88 0.98,-2.81 1.06,-2.74 1.12,-2.65 1.18,-2.57 1.22,-2.47 1.25,-2.37 1.27,-2.27 1.28,-2.16 1.29,-1.27 1.30,-0.39 1.24,0.75 1.18,1.90 1.17,2.79 1.17,3.68 1.17,4.47 1.17,5.26 1.18,6.00 1.18,6.75 1.19,7.48 1.20,8.20 1.20,8.92 1.20,9.64 1.21,10.56 1.21,11.49 1.21,12.08 1.22,12.68 1.22,13.55 1.22,14.42 1.22,15.00 1.22,15.59 1.00,16.42 0.77,17.25 0.68,18.20 0.59,19.15 0.58,19.80 0.57,20.45 0.56,21.14 0.56,21.83 0.56,22.95 0.56,24.07 0.56,25.17 0.57,26.27 0.31,26.98 0.06,27.68 0.02,28.78 -0.00,29.89 0.07,30.44 0.14,30.99 0.29,31.50 0.43,32.02 0.50,32.85 0.57,33.69 0.58,34.43 0.60,35.16 0.62,35.88 0.65,36.60 0.86,37.47 1.07,38.33 1.05,38.50 1.03,38.66 0.97,38.82 0.91,38.97 0.82,39.11 0.72,39.25 0.60,39.36 0.47,39.47 0.33,39.54 0.18,39.62 0.02,39.66 -0.13,39.70 -0.30,39.70 -0.46,39.70 -0.63,39.66 -0.79,39.62 -0.93,39.54 -1.08,39.47 -1.21,39.36 -1.33,39.25 -1.42,39.11 -1.52,38.97 -1.58,38.82 -1.64,38.66 -1.66,38.50 -1.68,38.33 -0.72,39.10 0.23,39.86 -0.45,40.26 -1.14,40.66 -1.83,41.34 -2.52,42.03 -3.36,43.32 -4.20,44.61 -4.57,45.64 -4.93,46.66 -5.08,47.63 -5.23,48.60 -5.31,50.01 -5.38,51.41 -5.22,52.52 -5.05,53.62 -4.97,54.82 -4.90,56.03 -4.69,56.77 -4.48,57.52 -4.20,58.22 -3.93,58.92 -3.48,59.49 -3.04,60.06 -2.60,60.82 -2.15,61.58 -1.59,61.85 -1.03,62.13 -0.49,62.25 0.05,62.38 0.82,62.45 1.59,62.51 2.75,62.16 3.91,61.81 5.47,61.26 7.04,60.71 8.42,59.91 9.81,59.11 11.46,58.14 13.12,57.17 14.10,56.23 15.08,55.30 15.88,54.32 16.69,53.33 17.16,52.40 17.64,51.47 17.80,50.65 17.96,49.83 17.65,48.91 17.34,47.99 16.85,47.00 16.36,46.01 15.61,45.06 14.86,44.11 13.99,43.35 13.12,42.58 12.38,42.07 11.64,41.56 10.81,41.19 9.98,40.81 9.16,40.69 8.33,40.56 7.74,40.48 7.15,40.40 6.34,40.36 5.53,40.32 4.99,40.29 4.45,40.25 3.76,40.49 3.06,40.73 2.40,40.63 1.75,40.53 1.40,39.73 1.05,38.94 1.79,39.02 2.53,39.10 3.07,39.92 3.61,40.74 3.65,41.79 3.70,42.84 3.92,43.94 4.13,45.04 4.24,46.25 4.35,47.46 4.40,49.01 4.45,50.57 4.47,51.83 4.49,53.10 4.50,54.26 4.52,55.41 4.52,56.52 4.53,57.63 4.53,58.30 4.53,58.98 4.22,60.26 3.91,61.53 3.97,61.62 4.03,61.71 4.06,61.81 4.09,61.91 4.08,62.02 4.08,62.12 4.04,62.22 4.00,62.32 3.93,62.40 3.87,62.48 3.78,62.54 3.68,62.60 3.58,62.62 3.48,62.64 3.37,62.63 3.27,62.62 3.17,62.58 3.07,62.53 2.99,62.46 2.92,62.39 2.87,62.30 2.82,62.20 2.80,62.10 2.78,61.99 2.80,61.89 2.81,61.78 2.86,61.69 2.91,61.59 2.99,61.52 3.06,61.45 3.16,61.40 3.26,61.36 3.36,61.34 3.47,61.33 3.57,61.35 3.67,61.38 3.77,61.43 3.86,61.48 3.93,61.56 4.00,61.64 4.04,61.74 4.08,61.84 4.08,61.95 4.09,62.05 4.06,62.16 4.03,62.26 3.98,62.35 3.92,62.44 3.83,62.50 3.75,62.57 3.65,62.60 3.55,62.63 3.44,62.64 3.34,62.64 3.23,62.60 3.13,62.57 3.05,62.51 2.96,62.44 2.96,62.44 2.96,62.44 2.07,60.71 1.17,58.98 1.17,58.31 1.17,57.64 1.17,56.53 1.17,55.43 1.16,54.29 1.16,53.14 1.15,51.90 1.14,50.65 1.11,49.19 1.08,47.72 1.01,46.66 0.94,45.60 0.72,44.26 0.51,42.92 0.95,42.25 1.39,41.58 0.51,40.58 -0.35,39.58 0.20,38.78 0.75,37.97 1.81,37.72 2.86,37.46 3.63,37.18 4.40,36.90 5.03,36.90 5.66,36.90 6.62,36.93 7.59,36.96 8.28,37.04 8.97,37.12 10.20,37.38 11.44,37.63 12.54,38.16 13.64,38.69 14.55,39.34 15.46,39.99 16.54,40.99 17.62,41.99 18.56,43.26 19.50,44.53 20.09,45.85 20.69,47.17 20.99,48.80 21.29,50.44 20.95,51.75 20.62,53.06 19.93,54.26 19.24,55.46 18.27,56.59 17.31,57.71 16.05,58.85 14.78,59.98 13.10,60.97 11.41,61.95 9.77,62.87 8.12,63.78 6.42,64.37 4.73,64.96 3.04,65.35 1.34,65.74 0.25,65.62 -0.84,65.50 -1.80,65.19 -2.76,64.88 -3.80,64.12 -4.84,63.36 -5.26,62.67 -5.69,61.97 -6.33,61.05 -6.96,60.12 -7.30,59.24 -7.64,58.35 -7.90,57.30 -8.16,56.25 -8.23,55.15 -8.30,54.06 -8.47,52.65 -8.65,51.25 -8.56,49.65 -8.47,48.05 -8.24,46.78 -8.01,45.51 -7.47,44.16 -6.94,42.80 -6.36,41.94 -5.78,41.07 -5.26,40.34 -4.75,39.62 -4.28,39.20 -3.81,38.77 -2.56,37.92 -1.31,37.06 -0.12,37.70 1.07,38.33 1.05,38.50 1.03,38.66 0.97,38.82 0.91,38.97 0.82,39.11 0.72,39.25 0.60,39.36 0.47,39.47 0.33,39.54 0.18,39.62 0.02,39.66 -0.13,39.70 -0.30,39.70 -0.46,39.70 -0.63,39.66 -0.79,39.62 -0.93,39.54 -1.08,39.47 -1.21,39.36 -1.33,39.25 -1.42,39.11 -1.52,38.97 -1.58,38.82 -1.64,38.66 -1.66,38.50 -1.68,38.33 -1.77,38.40 -1.86,38.48 -1.97,37.54 -2.08,36.60 -2.06,35.89 -2.03,35.18 -2.04,34.49 -2.04,33.80 -2.10,33.01 -2.15,32.21 -2.39,31.09 -2.63,29.97 -2.39,29.47 -2.16,28.97 -2.35,28.41 -2.55,27.84 -2.27,27.01 -1.99,26.18 -1.99,25.12 -1.98,24.06 -1.97,22.93 -1.96,21.80 -1.96,21.10 -1.95,20.39 -1.93,19.70 -1.91,19.00 -1.86,18.31 -1.81,17.63 -1.52,16.59 -1.22,15.55 -1.22,14.99 -1.22,14.42 -1.22,13.55 -1.22,12.68 -1.21,12.08 -1.21,11.49 -1.21,10.56 -1.20,9.64 -1.20,8.92 -1.19,8.20 -1.18,7.47 -1.18,6.74 -1.17,5.99 -1.16,5.24 -1.14,4.44 -1.13,3.64 -1.11,2.72 -1.09,1.80 -1.05,1.09 -1.01,0.37 -0.91,-0.35 -0.80,-1.08 -0.63,-1.62 -0.46,-2.16 -0.44,-2.27 -0.43,-2.37 -0.39,-2.47 -0.36,-2.57 -0.30,-2.65 -0.24,-2.74 -0.16,-2.81 -0.08,-2.88 0.00,-2.93 0.10,-2.98 0.20,-3.00 0.30,-3.03 0.41,-3.03 0.51,-3.03 0.61,-3.00 0.72,-2.98 0.81,-2.93 0.90,-2.88 0.98,-2.81 1.06,-2.74 1.12,-2.65 1.18,-2.57 1.22,-2.47 1.25,-2.37 1.27,-2.27 1.28,-2.16 1.05,-1.68 0.83,-1.20 0.74,-0.60 0.65,0 0.64,0.07 0.63,0.15 0.60,0.23 0.58,0.30 0.53,0.37 0.49,0.43 0.43,0.48 0.37,0.54 0.30,0.57 0.23,0.61 0.15,0.63 0.07,0.65 -0.00,0.65 -0.07,0.65 -0.15,0.63 -0.23,0.61 -0.30,0.57 -0.37,0.54 -0.43,0.48 -0.49,0.43 -0.53,0.37 -0.58,0.30 -0.60,0.23 -0.63,0.15 -0.64,0.07 -0.65,-0.00 -0.65,-0.00 L -0.65,0 Z"/></g><g transform="translate(704.053690361188 14.695020061194555) rotate(0 0.7140567723188553 6.4268976862633735)" stroke="none"><path fill="#1e1e1e" d="M 0,0.65 Q 0,0.65 -0.81,0.92 -1.63,1.20 -2.20,1.38 -2.77,1.56 -3.76,2.40 -4.75,3.25 -5.05,3.85 -5.34,4.45 -5.47,5.22 -5.60,5.99 -5.67,6.93 -5.75,7.86 -5.61,8.49 -5.47,9.13 -4.92,9.63 -4.38,10.13 -3.45,10.52 -2.52,10.91 -1.77,11.09 -1.01,11.27 -0.03,11.14 0.95,11.01 1.89,10.58 2.83,10.16 3.85,9.58 4.87,9.00 5.46,8.58 6.05,8.16 6.35,7.53 6.64,6.91 6.64,6.20 6.63,5.49 6.40,4.93 6.18,4.37 5.58,3.74 4.98,3.11 3.62,1.96 2.26,0.80 2.17,0.74 2.09,0.67 2.03,0.59 1.97,0.50 1.94,0.40 1.91,0.29 1.92,0.19 1.93,0.08 1.97,-0.01 2.01,-0.11 2.08,-0.19 2.14,-0.27 2.24,-0.32 2.33,-0.38 2.43,-0.40 2.54,-0.42 2.64,-0.41 2.75,-0.40 2.84,-0.35 2.94,-0.31 3.02,-0.23 3.09,-0.16 3.14,-0.06 3.19,0.02 3.21,0.13 3.22,0.23 3.21,0.33 3.19,0.44 3.14,0.53 3.09,0.63 3.01,0.70 2.93,0.77 2.83,0.82 2.74,0.86 2.63,0.87 2.53,0.88 2.42,0.86 2.32,0.83 2.23,0.78 2.14,0.72 2.07,0.64 2.00,0.56 1.96,0.46 1.92,0.36 1.92,0.26 1.91,0.15 1.94,0.05 1.97,-0.04 2.03,-0.13 2.09,-0.22 2.18,-0.28 2.26,-0.35 2.36,-0.38 2.46,-0.41 2.57,-0.41 2.68,-0.41 2.78,-0.38 2.88,-0.34 2.88,-0.34 2.88,-0.34 4.75,0.31 6.62,0.97 7.33,1.53 8.05,2.10 8.45,2.73 8.85,3.36 9.13,4.17 9.42,4.98 9.50,5.94 9.58,6.91 9.31,7.63 9.03,8.34 8.35,9.34 7.67,10.33 6.92,10.84 6.17,11.35 5.00,11.98 3.83,12.61 2.52,13.10 1.22,13.59 -0.18,13.67 -1.59,13.76 -2.60,13.49 -3.61,13.21 -4.91,12.54 -6.21,11.87 -7.05,10.83 -7.88,9.79 -8.08,8.73 -8.27,7.68 -8.18,6.57 -8.08,5.47 -7.80,4.33 -7.53,3.19 -6.87,2.21 -6.21,1.22 -5.64,0.86 -5.07,0.49 -4.30,-0.12 -3.54,-0.74 -2.59,-0.97 -1.65,-1.20 -0.82,-0.92 0,-0.65 0.07,-0.64 0.15,-0.63 0.23,-0.60 0.30,-0.58 0.37,-0.53 0.43,-0.49 0.48,-0.43 0.54,-0.37 0.57,-0.30 0.61,-0.23 0.63,-0.15 0.65,-0.07 0.65,0.00 0.65,0.07 0.63,0.15 0.61,0.23 0.57,0.30 0.54,0.37 0.48,0.43 0.43,0.49 0.37,0.53 0.30,0.58 0.23,0.60 0.15,0.63 0.07,0.64 -0.00,0.65 -0.00,0.65 L 0,0.65 Z"/></g><g transform="translate(829.7350159382535 17.551419032867216) rotate(0 -0.3569997390933395 5.355755233652673)" stroke="none"><path fill="#1e1e1e" d="M 0,0.65 Q 0,0.65 -0.82,0.95 -1.64,1.24 -2.36,1.25 -3.08,1.25 -3.53,1.60 -3.99,1.95 -4.71,2.34 -5.43,2.72 -5.77,3.16 -6.10,3.60 -6.46,4.18 -6.82,4.75 -7.23,5.26 -7.64,5.76 -7.37,6.94 -7.10,8.11 -6.63,8.77 -6.17,9.43 -5.49,9.81 -4.81,10.19 -3.95,10.58 -3.09,10.96 -2.11,10.89 -1.13,10.82 -0.11,10.62 0.91,10.41 1.85,9.96 2.78,9.51 3.48,8.79 4.18,8.08 4.68,7.40 5.18,6.72 5.56,5.90 5.94,5.07 6.33,4.26 6.73,3.45 6.84,2.86 6.96,2.28 6.63,1.47 6.31,0.67 5.96,0.16 5.61,-0.34 4.34,-0.88 3.07,-1.42 2.97,-1.46 2.88,-1.50 2.79,-1.56 2.71,-1.63 2.65,-1.72 2.60,-1.81 2.57,-1.92 2.55,-2.02 2.56,-2.13 2.57,-2.23 2.61,-2.33 2.65,-2.43 2.73,-2.50 2.80,-2.58 2.89,-2.63 2.98,-2.68 3.09,-2.70 3.19,-2.72 3.30,-2.71 3.40,-2.69 3.50,-2.64 3.59,-2.60 3.67,-2.52 3.74,-2.44 3.79,-2.35 3.83,-2.25 3.85,-2.15 3.86,-2.04 3.84,-1.94 3.82,-1.83 3.76,-1.74 3.71,-1.65 3.63,-1.58 3.55,-1.51 3.45,-1.47 3.36,-1.43 3.25,-1.42 3.14,-1.41 3.04,-1.44 2.94,-1.47 2.85,-1.52 2.76,-1.58 2.69,-1.67 2.63,-1.75 2.59,-1.85 2.56,-1.95 2.56,-2.06 2.55,-2.16 2.59,-2.26 2.62,-2.36 2.68,-2.45 2.74,-2.54 2.83,-2.60 2.92,-2.66 3.02,-2.69 3.12,-2.72 3.23,-2.71 3.33,-2.71 3.33,-2.71 3.33,-2.71 5.34,-2.39 7.35,-2.07 8.05,-1.32 8.74,-0.57 9.07,0.11 9.41,0.81 9.54,1.80 9.67,2.80 9.45,3.73 9.23,4.65 8.83,5.46 8.43,6.27 7.91,7.32 7.38,8.38 6.72,9.22 6.07,10.07 5.01,11.01 3.95,11.96 2.68,12.51 1.42,13.06 0.16,13.28 -1.09,13.50 -2.58,13.47 -4.08,13.43 -5.17,12.94 -6.27,12.44 -7.29,11.71 -8.32,10.99 -8.97,10.00 -9.61,9.02 -9.97,7.75 -10.34,6.47 -10.06,5.35 -9.78,4.23 -9.42,3.77 -9.05,3.30 -8.57,2.57 -8.08,1.84 -7.39,1.13 -6.70,0.43 -5.98,0.06 -5.26,-0.31 -4.25,-0.78 -3.24,-1.25 -2.44,-1.25 -1.64,-1.24 -0.82,-0.95 0,-0.65 0.07,-0.64 0.15,-0.63 0.23,-0.60 0.30,-0.58 0.37,-0.53 0.43,-0.49 0.48,-0.43 0.54,-0.37 0.57,-0.30 0.61,-0.23 0.63,-0.15 0.65,-0.07 0.65,0.00 0.65,0.07 0.63,0.15 0.61,0.23 0.57,0.30 0.54,0.37 0.48,0.43 0.43,0.49 0.37,0.53 0.30,0.58 0.23,0.60 0.15,0.63 0.07,0.64 -0.00,0.65 -0.00,0.65 L 0,0.65 Z"/></g><g transform="translate(906.8577308792816 16.123219547030885) rotate(0 4.998683876893892 4.641655490734536)" stroke="none"><path fill="#1e1e1e" d="M 0.29,0.58 Q 0.29,0.58 0.03,1.04 -0.21,1.49 -0.71,2.39 -1.21,3.29 -1.55,3.90 -1.88,4.50 -1.77,5.10 -1.65,5.70 -1.28,6.48 -0.90,7.27 -0.01,8.12 0.86,8.98 1.78,9.51 2.69,10.05 3.76,10.23 4.82,10.41 5.77,10.30 6.72,10.19 7.77,9.59 8.82,9.00 9.57,8.04 10.32,7.09 10.83,6.15 11.34,5.21 11.30,4.44 11.25,3.66 11.09,2.79 10.93,1.92 10.38,1.37 9.82,0.81 9.03,0.14 8.24,-0.52 7.48,-0.72 6.72,-0.93 6.01,-1.06 5.30,-1.20 4.54,-1.09 3.78,-0.97 2.69,-0.95 1.60,-0.93 -0.34,-0.24 -2.28,0.45 -2.39,0.48 -2.49,0.51 -2.59,0.51 -2.70,0.50 -2.80,0.47 -2.90,0.43 -2.98,0.36 -3.06,0.29 -3.12,0.20 -3.18,0.11 -3.20,0.01 -3.23,-0.08 -3.22,-0.19 -3.21,-0.29 -3.16,-0.39 -3.12,-0.49 -3.05,-0.57 -2.98,-0.65 -2.89,-0.70 -2.79,-0.75 -2.69,-0.77 -2.58,-0.79 -2.48,-0.77 -2.37,-0.76 -2.28,-0.71 -2.18,-0.66 -2.11,-0.59 -2.03,-0.51 -1.99,-0.41 -1.94,-0.32 -1.93,-0.21 -1.92,-0.11 -1.94,-0.00 -1.96,0.09 -2.01,0.18 -2.06,0.27 -2.14,0.35 -2.22,0.42 -2.32,0.46 -2.42,0.50 -2.52,0.51 -2.63,0.51 -2.73,0.49 -2.84,0.46 -2.93,0.40 -3.01,0.34 -3.08,0.26 -3.15,0.18 -3.18,0.08 -3.22,-0.01 -3.22,-0.12 -3.22,-0.23 -3.19,-0.33 -3.16,-0.43 -3.09,-0.51 -3.03,-0.60 -2.94,-0.66 -2.86,-0.72 -2.86,-0.72 -2.86,-0.72 -0.71,-2.12 1.43,-3.53 2.40,-3.63 3.37,-3.73 4.55,-3.91 5.74,-4.09 6.70,-3.94 7.66,-3.79 8.91,-3.34 10.15,-2.88 11.18,-1.99 12.21,-1.11 13.04,0.06 13.87,1.24 14.08,2.52 14.28,3.80 14.12,5.17 13.97,6.55 13.24,7.78 12.52,9.01 11.33,10.25 10.15,11.49 8.57,12.20 7.00,12.91 5.64,12.98 4.28,13.04 2.82,12.67 1.35,12.30 0.18,11.55 -0.98,10.79 -2.10,9.56 -3.23,8.34 -3.71,7.12 -4.20,5.90 -4.19,4.70 -4.18,3.49 -3.79,2.74 -3.41,2.00 -3.00,1.31 -2.59,0.63 -2.00,-0.01 -1.42,-0.67 -0.86,-0.63 -0.29,-0.58 -0.21,-0.61 -0.14,-0.64 -0.06,-0.64 0.01,-0.65 0.09,-0.64 0.16,-0.63 0.24,-0.60 0.31,-0.57 0.38,-0.52 0.44,-0.48 0.49,-0.42 0.54,-0.36 0.58,-0.29 0.61,-0.22 0.63,-0.14 0.65,-0.06 0.65,0.01 0.65,0.09 0.62,0.16 0.60,0.24 0.57,0.31 0.53,0.38 0.47,0.44 0.42,0.50 0.35,0.54 0.29,0.58 0.29,0.58 L 0.29,0.58 Z"/></g><g transform="translate(913.2846428890781 26.8347013672701) rotate(0 2.499284644314571 40.34657101897665)" stroke="none"><path fill="#1e1e1e" d="M 0.65,0 Q 0.65,0 0.87,0.82 1.08,1.64 1.10,2.60 1.12,3.57 1.14,4.59 1.15,5.62 1.16,6.46 1.17,7.31 1.38,8.16 1.59,9.02 1.70,9.90 1.81,10.78 1.86,11.58 1.91,12.37 2.12,13.20 2.34,14.02 2.45,14.92 2.56,15.81 2.40,16.75 2.23,17.69 2.37,18.21 2.51,18.73 2.35,19.52 2.20,20.30 2.16,21.00 2.13,21.71 2.10,22.45 2.08,23.19 2.07,24.13 2.06,25.08 2.06,26.04 2.06,27.00 2.07,27.84 2.07,28.69 1.78,29.75 1.49,30.82 1.44,31.60 1.38,32.38 1.38,33.06 1.37,33.75 1.36,34.51 1.36,35.27 1.08,35.92 0.80,36.57 0.45,37.40 0.10,38.23 -0.28,37.57 -0.67,36.90 0.18,36.61 1.04,36.33 1.80,36.30 2.55,36.28 3.34,36.52 4.13,36.76 5.30,37.12 6.47,37.48 7.00,37.86 7.52,38.24 7.94,38.61 8.37,38.99 9.39,39.72 10.42,40.45 10.83,41.32 11.24,42.19 11.72,42.79 12.20,43.39 12.47,43.99 12.74,44.58 12.88,45.53 13.01,46.48 13.03,47.24 13.05,48.00 13.05,48.57 13.05,49.14 13.04,50.03 13.03,50.92 12.74,51.64 12.45,52.35 12.08,53.13 11.72,53.91 11.35,54.65 10.99,55.39 10.62,55.82 10.26,56.24 9.49,57.02 8.72,57.80 7.84,58.14 6.96,58.48 6.42,58.56 5.88,58.65 5.03,58.70 4.17,58.75 3.42,58.75 2.68,58.76 1.79,59.03 0.91,59.30 0.04,59.38 -0.82,59.45 -1.58,59.59 -2.34,59.72 -2.60,60.29 -2.85,60.85 -3.04,61.98 -3.22,63.11 -3.27,63.86 -3.32,64.62 -3.63,65.31 -3.94,66.00 -3.99,66.63 -4.04,67.25 -3.99,68.26 -3.94,69.27 -3.98,70.09 -4.01,70.92 -3.88,71.70 -3.75,72.49 -3.83,73.32 -3.92,74.16 -3.96,74.89 -4.00,75.63 -4.01,76.44 -4.02,77.26 -4.96,79.19 -5.90,81.12 -6.00,81.17 -6.09,81.22 -6.20,81.23 -6.30,81.25 -6.41,81.23 -6.51,81.21 -6.60,81.16 -6.70,81.11 -6.77,81.03 -6.84,80.95 -6.88,80.86 -6.93,80.76 -6.94,80.65 -6.95,80.55 -6.92,80.45 -6.90,80.34 -6.84,80.25 -6.79,80.16 -6.71,80.09 -6.62,80.03 -6.53,79.99 -6.43,79.95 -6.32,79.95 -6.21,79.94 -6.11,79.97 -6.01,80.00 -5.92,80.06 -5.84,80.12 -5.77,80.21 -5.71,80.29 -5.68,80.39 -5.64,80.49 -5.64,80.60 -5.65,80.71 -5.68,80.81 -5.72,80.91 -5.78,80.99 -5.85,81.07 -5.94,81.13 -6.02,81.19 -6.13,81.22 -6.23,81.25 -6.34,81.24 -6.44,81.23 -6.54,81.19 -6.64,81.15 -6.72,81.08 -6.80,81.01 -6.85,80.92 -6.91,80.83 -6.93,80.72 -6.95,80.62 -6.94,80.51 -6.92,80.41 -6.88,80.31 -6.83,80.22 -6.76,80.14 -6.68,80.06 -6.68,80.06 -6.68,80.07 -7.03,78.65 -7.38,77.23 -7.37,76.36 -7.36,75.50 -7.10,74.40 -6.84,73.29 -7.10,72.68 -7.37,72.06 -7.36,71.06 -7.35,70.06 -7.07,69.23 -6.79,68.39 -7.06,67.88 -7.33,67.36 -7.26,66.42 -7.20,65.47 -6.91,64.87 -6.62,64.28 -6.54,63.43 -6.47,62.59 -6.29,62.02 -6.11,61.45 -5.94,60.92 -5.76,60.38 -5.33,59.30 -4.90,58.22 -4.35,57.68 -3.81,57.15 -3.34,56.80 -2.87,56.45 -1.92,56.31 -0.97,56.17 -0.26,56.14 0.44,56.11 1.55,55.79 2.66,55.48 3.36,55.47 4.06,55.47 4.74,55.44 5.41,55.41 6.00,55.40 6.58,55.39 7.19,54.74 7.79,54.09 8.19,53.67 8.58,53.26 8.92,52.57 9.26,51.89 9.54,51.31 9.81,50.73 9.80,49.94 9.78,49.16 9.78,48.60 9.78,48.05 9.77,47.38 9.76,46.71 9.71,46.06 9.67,45.41 9.29,44.95 8.92,44.50 8.55,43.88 8.18,43.26 7.88,42.77 7.59,42.28 6.57,41.55 5.56,40.82 5.05,40.43 4.55,40.03 3.56,39.76 2.58,39.49 1.50,39.56 0.42,39.63 -0.51,39.75 -1.45,39.87 -2.13,39.41 -2.81,38.94 -2.94,38.32 -3.08,37.69 -2.53,36.96 -1.97,36.23 -1.66,35.65 -1.35,35.08 -1.36,34.41 -1.36,33.73 -1.35,32.99 -1.34,32.25 -1.27,31.41 -1.20,30.56 -0.92,29.62 -0.64,28.69 -0.64,27.84 -0.63,26.99 -0.63,26.41 -0.63,25.84 -0.61,25.01 -0.60,24.18 -0.59,23.64 -0.57,23.10 -0.54,22.30 -0.51,21.51 -0.28,20.30 -0.06,19.08 -0.19,18.15 -0.31,17.21 -0.15,16.63 0.00,16.06 -0.06,15.33 -0.14,14.61 -0.36,13.56 -0.59,12.50 -0.61,11.77 -0.64,11.04 -0.70,10.28 -0.77,9.51 -0.97,8.42 -1.17,7.32 -1.16,6.47 -1.15,5.62 -1.14,4.59 -1.12,3.57 -1.10,2.60 -1.08,1.64 -0.87,0.82 -0.65,0 -0.64,-0.07 -0.63,-0.15 -0.60,-0.23 -0.58,-0.30 -0.53,-0.37 -0.49,-0.43 -0.43,-0.48 -0.37,-0.54 -0.30,-0.57 -0.23,-0.61 -0.15,-0.63 -0.07,-0.65 0.00,-0.65 0.07,-0.65 0.15,-0.63 0.23,-0.61 0.30,-0.57 0.37,-0.54 0.43,-0.48 0.49,-0.43 0.53,-0.37 0.58,-0.30 0.60,-0.23 0.63,-0.15 0.64,-0.07 0.65,0.00 0.65,0.00 L 0.65,0 Z"/></g><g transform="translate(890.433451115697 129.66492111215308) rotate(0 12.496709692234958 12.139666982542366)" stroke="none"><path fill="#1e1e1e" d="M 0.63,-0.18 Q 0.63,-0.18 1.32,1.17 2.01,2.53 2.61,4.12 3.20,5.71 3.89,7.86 4.59,10.01 5.28,11.91 5.97,13.82 6.68,15.65 7.39,17.48 7.92,19.12 8.45,20.76 8.85,21.56 9.25,22.35 9.47,23.25 9.69,24.15 9.73,23.12 9.77,22.08 11.06,19.66 12.35,17.24 13.96,14.50 15.57,11.77 17.09,9.20 18.61,6.63 20.01,4.58 21.40,2.53 22.67,0.80 23.95,-0.92 24.02,-1.00 24.08,-1.09 24.17,-1.14 24.26,-1.20 24.37,-1.23 24.47,-1.25 24.58,-1.24 24.68,-1.24 24.78,-1.19 24.88,-1.15 24.96,-1.08 25.04,-1.01 25.09,-0.92 25.14,-0.83 25.16,-0.72 25.18,-0.62 25.17,-0.51 25.15,-0.41 25.11,-0.31 25.06,-0.22 24.98,-0.14 24.91,-0.07 24.81,-0.02 24.72,0.02 24.61,0.03 24.51,0.05 24.40,0.03 24.30,0.01 24.21,-0.03 24.11,-0.08 24.04,-0.16 23.97,-0.24 23.93,-0.34 23.89,-0.44 23.88,-0.54 23.87,-0.65 23.90,-0.75 23.92,-0.86 23.98,-0.95 24.03,-1.03 24.12,-1.10 24.20,-1.17 24.30,-1.21 24.40,-1.24 24.51,-1.25 24.61,-1.25 24.71,-1.22 24.81,-1.19 24.90,-1.12 24.99,-1.06 25.05,-0.98 25.11,-0.89 25.14,-0.79 25.18,-0.69 25.17,-0.58 25.17,-0.48 25.13,-0.38 25.10,-0.28 25.10,-0.28 25.10,-0.28 24.27,1.73 23.44,3.74 22.33,5.94 21.21,8.14 19.74,10.75 18.26,13.36 16.67,16.03 15.08,18.71 13.67,21.29 12.27,23.87 11.16,25.13 10.05,26.39 9.26,26.40 8.46,26.42 7.68,25.67 6.91,24.93 6.78,24.25 6.64,23.57 6.20,22.59 5.76,21.61 5.28,20.04 4.80,18.47 4.10,16.60 3.40,14.74 2.71,12.77 2.02,10.81 1.40,8.69 0.77,6.58 0.20,4.89 -0.36,3.21 -0.50,1.69 -0.63,0.18 -0.64,0.10 -0.65,0.02 -0.64,-0.05 -0.64,-0.13 -0.61,-0.20 -0.59,-0.28 -0.54,-0.35 -0.50,-0.41 -0.44,-0.47 -0.39,-0.52 -0.32,-0.56 -0.25,-0.60 -0.17,-0.62 -0.10,-0.64 -0.02,-0.65 0.05,-0.65 0.13,-0.63 0.21,-0.62 0.28,-0.58 0.35,-0.55 0.41,-0.50 0.47,-0.45 0.52,-0.38 0.56,-0.32 0.60,-0.25 0.63,-0.18 0.63,-0.18 L 0.63,-0.18 Z"/></g><g transform="translate(481.9690284019702 73.25111303928452) rotate(0 5.3557409101194935 0.0000143235330654079)" stroke="none"><path fill="#1e1e1e" d="M 0,0.65 Q 0,0.65 -0.61,1.06 -1.23,1.48 -1.28,1.58 -1.34,1.69 -1.54,1.67 -1.75,1.64 -1.94,1.57 -2.13,1.50 -2.30,1.38 -2.46,1.26 -2.60,1.11 -2.74,0.96 -2.83,0.78 -2.93,0.60 -2.98,0.40 -3.02,0.20 -3.02,-0.00 -3.02,-0.20 -2.98,-0.40 -2.93,-0.60 -2.83,-0.78 -2.74,-0.96 -2.60,-1.11 -2.46,-1.27 -2.30,-1.38 -2.13,-1.50 -1.94,-1.57 -1.75,-1.64 -1.54,-1.67 -1.34,-1.69 -0.54,-1.70 0.24,-1.71 1.40,-1.72 2.56,-1.73 4.29,-1.74 6.01,-1.74 7.46,-1.91 8.90,-2.08 10.48,-1.09 12.06,-0.11 12.14,-0.11 12.21,-0.11 12.29,-0.09 12.37,-0.07 12.44,-0.04 12.51,-0.00 12.57,0.04 12.63,0.09 12.67,0.16 12.72,0.22 12.75,0.30 12.78,0.37 12.79,0.45 12.80,0.53 12.79,0.61 12.78,0.69 12.75,0.76 12.73,0.83 12.68,0.90 12.64,0.97 12.58,1.02 12.52,1.07 12.45,1.11 12.38,1.15 12.30,1.17 12.23,1.19 12.49,0.98 12.75,0.77 12.70,0.86 12.65,0.95 12.57,1.02 12.49,1.09 12.39,1.13 12.29,1.17 12.18,1.18 12.08,1.19 11.98,1.16 11.87,1.13 11.78,1.08 11.70,1.02 11.63,0.93 11.57,0.85 11.53,0.75 11.50,0.65 11.49,0.54 11.49,0.44 11.53,0.34 11.56,0.23 11.62,0.15 11.69,0.06 11.77,0.00 11.86,-0.05 11.96,-0.08 12.06,-0.11 12.17,-0.10 12.28,-0.10 12.38,-0.06 12.47,-0.02 12.56,0.04 12.64,0.10 12.69,0.19 12.75,0.29 12.77,0.39 12.80,0.49 12.79,0.60 12.78,0.70 12.73,0.80 12.69,0.90 12.62,0.98 12.55,1.05 12.45,1.10 12.36,1.16 12.25,1.17 12.15,1.19 12.04,1.18 11.94,1.16 11.84,1.11 11.75,1.06 11.68,0.99 11.60,0.91 11.56,0.81 11.51,0.72 11.50,0.61 11.49,0.51 11.77,0.20 12.06,-0.11 12.14,-0.11 12.21,-0.11 12.29,-0.09 12.37,-0.07 12.44,-0.04 12.51,-0.00 12.57,0.04 12.63,0.09 12.67,0.16 12.72,0.22 12.75,0.30 12.78,0.37 12.79,0.45 12.80,0.53 12.79,0.61 12.78,0.69 12.75,0.76 12.73,0.83 12.68,0.90 12.64,0.97 12.58,1.02 12.52,1.07 12.45,1.11 12.38,1.15 12.30,1.17 12.23,1.19 10.79,1.22 9.34,1.26 7.68,1.50 6.02,1.74 4.29,1.74 2.56,1.73 1.40,1.72 0.24,1.71 -0.54,1.70 -1.34,1.69 -1.54,1.67 -1.75,1.64 -1.94,1.57 -2.13,1.50 -2.30,1.38 -2.46,1.27 -2.60,1.11 -2.74,0.96 -2.83,0.78 -2.93,0.60 -2.98,0.40 -3.02,0.20 -3.02,0.00 -3.02,-0.20 -2.98,-0.40 -2.93,-0.60 -2.83,-0.78 -2.74,-0.96 -2.60,-1.11 -2.46,-1.26 -2.30,-1.38 -2.13,-1.50 -1.94,-1.57 -1.75,-1.64 -1.54,-1.67 -1.34,-1.69 -1.28,-1.58 -1.23,-1.48 -0.61,-1.06 0,-0.65 0.07,-0.64 0.15,-0.63 0.23,-0.60 0.30,-0.58 0.37,-0.53 0.43,-0.49 0.48,-0.43 0.54,-0.37 0.57,-0.30 0.61,-0.23 0.63,-0.15 0.65,-0.07 0.65,0.00 0.65,0.07 0.63,0.15 0.61,0.23 0.57,0.30 0.54,0.37 0.48,0.43 0.43,0.49 0.37,0.53 0.30,0.58 0.23,0.60 0.15,0.63 0.07,0.64 -0.00,0.65 -0.00,0.65 L 0,0.65 Z"/></g><g transform="translate(477.6844585915274 88.24719331703261) rotate(0 7.140968782115351 0.3570427096925073)" stroke="none"><path fill="#1e1e1e" d="M -0.15,-0.63 Q -0.15,-0.63 0.58,-1.17 1.32,-1.70 2.80,-1.91 4.29,-2.11 5.73,-2.20 7.16,-2.28 8.70,-2.06 10.25,-1.83 12.27,-0.58 14.30,0.66 14.38,0.73 14.46,0.80 14.51,0.90 14.57,0.99 14.59,1.09 14.61,1.20 14.59,1.30 14.58,1.41 14.53,1.50 14.49,1.60 14.41,1.67 14.34,1.75 14.24,1.80 14.15,1.84 14.04,1.86 13.94,1.87 13.83,1.85 13.73,1.84 13.64,1.78 13.54,1.73 13.47,1.65 13.40,1.57 13.36,1.48 13.32,1.38 13.31,1.27 13.30,1.17 13.32,1.07 13.35,0.96 13.40,0.87 13.46,0.78 13.54,0.72 13.63,0.65 13.72,0.61 13.82,0.57 13.93,0.57 14.04,0.57 14.14,0.60 14.24,0.63 14.33,0.69 14.41,0.75 14.48,0.84 14.54,0.92 14.57,1.02 14.60,1.13 14.60,1.23 14.60,1.34 14.56,1.44 14.52,1.54 14.46,1.62 14.39,1.70 14.30,1.76 14.21,1.82 14.11,1.85 14.01,1.87 13.90,1.86 13.80,1.86 13.70,1.81 13.60,1.77 13.60,1.77 13.60,1.77 11.72,1.52 9.83,1.27 8.53,1.12 7.24,0.96 5.86,0.95 4.49,0.94 3.22,0.91 1.96,0.88 1.06,0.76 0.15,0.63 0.08,0.64 0.00,0.65 -0.07,0.64 -0.15,0.63 -0.22,0.61 -0.30,0.58 -0.36,0.53 -0.43,0.49 -0.48,0.43 -0.53,0.37 -0.57,0.30 -0.61,0.23 -0.63,0.15 -0.65,0.08 -0.65,0.00 -0.65,-0.07 -0.63,-0.15 -0.61,-0.23 -0.57,-0.30 -0.54,-0.37 -0.48,-0.43 -0.43,-0.49 -0.37,-0.53 -0.30,-0.58 -0.23,-0.60 -0.15,-0.63 -0.15,-0.63 L -0.15,-0.63 Z"/></g></svg>