<svg version="1.1" xmlns="http://www.w3.org/2000/svg" viewBox="0 0 976.4187192210322 234.34534912109365" width="976.4187192210322" height="234.34534912109365" filter="invert(93%) hue-rotate(180deg)" class="excalidraw-svg">
  <!-- svg-source:excalidraw -->
  
  <defs>
    <style class="style-fonts">
      @font-face {
        font-family: "Virgil";
        src: url("https://excalidraw.com/Virgil.woff2");
      }
      @font-face {
        font-family: "Cascadia";
        src: url("https://excalidraw.com/Cascadia.woff2");
      }
      @font-face {
        font-family: "Assistant";
        src: url("https://excalidraw.com/Assistant-Regular.woff2");
      }
    </style>
    
  </defs>
  <rect x="0" y="0" width="976.4187192210322" height="234.34534912109365" fill="#ffffff"/><g stroke-linecap="round"><g transform="translate(61.7293701171875 41.71276702880863) rotate(0 192.46353149414062 0.38036346435546875)"><path d="M0.41 0.73 C64.67 0.78, 320.89 -0.29, 384.98 -0.17 M-0.84 0.06 C63.32 0.28, 319.89 0.98, 384.06 0.87" stroke="#1e1e1e" stroke-width="2" fill="none"/></g></g><mask/><g stroke-linecap="round"><g transform="translate(59.08050935504494 190.9026184407257) rotate(0 192.46353149414062 0.38036346435546875)"><path d="M0.35 -0.02 C64.51 0.13, 321.13 -0.21, 385.11 0.09 M-0.92 -1.08 C63.09 -0.71, 319.64 1.1, 384.25 1.28" stroke="#1e1e1e" stroke-width="2" fill="none"/></g></g><mask/><g stroke-linecap="round"><g transform="translate(248.867919921875 38.66985931396488) rotate(0 0.38037109375 76.07257080078125)"><path d="M-0.6 -0.25 C-0.47 25.28, 1.2 127.06, 1.44 152.54 M1.29 -1.43 C1.27 23.79, 1.04 125.29, 0.85 150.62" stroke="#1e1e1e" stroke-width="2" fill="none"/></g></g><mask/><g transform="translate(249.628662109375 47.798567199707065) rotate(0 -0.38037109375 -7.226890563964844)" stroke="none"><path fill="#1e1e1e" d="M -0.15,0.63 Q -0.15,0.63 -1.07,0.58 -1.99,0.53 -2.87,0.24 -3.75,-0.04 -4.58,-0.37 -5.41,-0.71 -6.30,-1.35 -7.19,-1.99 -7.86,-2.80 -8.53,-3.61 -8.88,-5.01 -9.23,-6.41 -9.12,-7.97 -9.00,-9.53 -8.21,-11.03 -7.41,-12.53 -6.01,-13.49 -4.62,-14.44 -2.54,-14.62 -0.46,-14.81 1.08,-14.62 2.62,-14.44 4.03,-13.88 5.45,-13.33 6.35,-12.79 7.25,-12.26 7.82,-11.08 8.39,-9.91 8.11,-8.52 7.83,-7.13 6.92,-6.01 6.01,-4.89 4.92,-4.01 3.84,-3.12 2.53,-2.71 1.22,-2.29 -1.36,-2.36 -3.94,-2.42 -4.05,-2.43 -4.15,-2.44 -4.25,-2.48 -4.35,-2.53 -4.43,-2.60 -4.50,-2.67 -4.56,-2.77 -4.61,-2.86 -4.63,-2.96 -4.64,-3.07 -4.63,-3.17 -4.61,-3.28 -4.56,-3.37 -4.52,-3.47 -4.44,-3.54 -4.36,-3.62 -4.27,-3.66 -4.17,-3.71 -4.07,-3.72 -3.96,-3.73 -3.86,-3.71 -3.75,-3.69 -3.66,-3.64 -3.57,-3.58 -3.50,-3.50 -3.43,-3.42 -3.39,-3.32 -3.35,-3.23 -3.34,-3.12 -3.33,-3.01 -3.36,-2.91 -3.39,-2.81 -3.45,-2.72 -3.50,-2.63 -3.59,-2.57 -3.67,-2.50 -3.77,-2.47 -3.87,-2.43 -3.98,-2.43 -4.08,-2.43 -4.19,-2.46 -4.29,-2.49 -4.37,-2.56 -4.46,-2.62 -4.52,-2.71 -4.58,-2.79 -4.61,-2.90 -4.64,-3.00 -4.63,-3.10 -4.63,-3.21 -4.59,-3.31 -4.55,-3.41 -4.49,-3.49 -4.42,-3.57 -4.33,-3.63 -4.24,-3.68 -4.13,-3.71 -4.03,-3.73 -4.03,-3.73 -4.03,-3.73 -1.80,-4.27 0.43,-4.80 1.28,-5.07 2.12,-5.34 3.01,-6.07 3.90,-6.80 4.57,-7.41 5.23,-8.03 5.47,-9.18 5.72,-10.33 5.11,-10.66 4.50,-11.00 3.39,-11.47 2.28,-11.94 0.97,-12.11 -0.33,-12.28 -1.87,-12.27 -3.41,-12.25 -4.37,-11.72 -5.32,-11.18 -5.94,-10.20 -6.56,-9.22 -6.68,-8.04 -6.81,-6.86 -6.69,-5.93 -6.58,-5.00 -6.16,-4.44 -5.74,-3.87 -5.09,-3.34 -4.45,-2.81 -3.71,-2.44 -2.97,-2.07 -2.24,-1.74 -1.50,-1.41 -0.67,-1.02 0.15,-0.63 0.23,-0.60 0.30,-0.58 0.37,-0.53 0.43,-0.49 0.48,-0.43 0.54,-0.37 0.57,-0.30 0.61,-0.23 0.63,-0.15 0.65,-0.07 0.65,0.00 0.65,0.08 0.63,0.15 0.61,0.23 0.57,0.30 0.53,0.37 0.48,0.43 0.43,0.49 0.36,0.53 0.30,0.58 0.22,0.61 0.15,0.63 0.07,0.64 -0.00,0.65 -0.08,0.64 -0.15,0.63 -0.15,0.63 L -0.15,0.63 Z"/></g><g transform="translate(254.1929931640625 160.38598480224613) rotate(0 -0.38037109375 27.7664794921875)" stroke="none"><path fill="#1e1e1e" d="M -0.36,0.54 Q -0.36,0.54 -1.12,0.29 -1.89,0.05 -2.64,0.01 -3.40,-0.02 -4.25,0.17 -5.11,0.36 -6.61,0.68 -8.11,0.99 -9.51,1.54 -10.92,2.09 -12.64,2.77 -14.37,3.46 -16.11,4.38 -17.86,5.30 -19.14,6.48 -20.41,7.65 -21.57,9.18 -22.73,10.72 -23.63,12.40 -24.54,14.08 -25.11,16.01 -25.68,17.94 -26.15,19.87 -26.63,21.80 -26.81,23.84 -27.00,25.87 -26.87,28.20 -26.74,30.53 -26.26,32.99 -25.78,35.45 -24.95,37.49 -24.13,39.53 -22.93,41.68 -21.74,43.83 -20.40,45.56 -19.06,47.28 -17.27,48.82 -15.47,50.36 -13.06,51.62 -10.65,52.88 -8.12,53.86 -5.59,54.84 -3.11,55.23 -0.63,55.63 1.37,55.37 3.38,55.12 5.48,54.39 7.57,53.67 9.73,52.52 11.89,51.37 13.83,49.84 15.78,48.31 17.45,46.60 19.13,44.90 20.67,42.71 22.20,40.52 23.27,38.34 24.33,36.16 24.98,34.00 25.62,31.84 25.66,29.32 25.70,26.81 24.88,23.67 24.05,20.54 22.86,17.70 21.66,14.86 20.10,12.41 18.55,9.97 16.44,7.93 14.33,5.88 12.41,4.61 10.49,3.34 8.61,2.37 6.73,1.39 4.52,0.79 2.31,0.19 0.53,-0.08 -1.24,-0.36 -3.28,-0.53 -5.31,-0.70 -7.39,-0.48 -9.47,-0.26 -11.39,0.35 -13.32,0.98 -13.42,1.01 -13.53,1.03 -13.63,1.02 -13.74,1.02 -13.84,0.97 -13.93,0.93 -14.01,0.86 -14.09,0.79 -14.15,0.70 -14.20,0.61 -14.22,0.50 -14.24,0.40 -14.23,0.29 -14.21,0.19 -14.17,0.09 -14.12,0.00 -14.05,-0.07 -13.97,-0.14 -13.88,-0.19 -13.78,-0.24 -13.68,-0.25 -13.57,-0.27 -13.47,-0.25 -13.36,-0.23 -13.27,-0.18 -13.18,-0.13 -13.10,-0.05 -13.03,0.02 -12.99,0.12 -12.95,0.22 -12.94,0.32 -12.93,0.43 -12.95,0.53 -12.98,0.63 -13.04,0.72 -13.09,0.81 -13.18,0.88 -13.26,0.95 -13.36,0.98 -13.46,1.02 -13.56,1.03 -13.67,1.03 -13.77,1.00 -13.87,0.97 -13.96,0.91 -14.05,0.84 -14.11,0.76 -14.17,0.67 -14.20,0.57 -14.23,0.47 -14.23,0.36 -14.23,0.26 -14.19,0.16 -14.16,0.06 -14.09,-0.02 -14.03,-0.10 -13.94,-0.16 -13.85,-0.21 -13.85,-0.21 -13.85,-0.21 -11.85,-1.31 -9.86,-2.40 -7.51,-2.95 -5.17,-3.50 -2.99,-3.44 -0.80,-3.38 1.17,-3.11 3.14,-2.83 5.66,-2.13 8.18,-1.43 10.22,-0.36 12.26,0.69 14.41,2.15 16.56,3.61 18.89,5.93 21.22,8.26 22.90,10.95 24.58,13.63 25.84,16.70 27.11,19.76 27.97,23.31 28.83,26.87 28.72,29.79 28.60,32.72 27.85,35.12 27.11,37.52 25.92,39.91 24.73,42.30 23.03,44.68 21.33,47.06 19.51,48.91 17.68,50.75 15.51,52.43 13.34,54.10 10.96,55.36 8.57,56.61 6.16,57.41 3.75,58.21 1.32,58.46 -1.10,58.72 -3.90,58.25 -6.71,57.78 -9.42,56.73 -12.13,55.68 -14.84,54.23 -17.54,52.78 -19.57,51.01 -21.59,49.24 -23.06,47.31 -24.53,45.39 -25.82,43.05 -27.11,40.72 -28.01,38.39 -28.92,36.06 -29.43,33.38 -29.93,30.70 -30.06,28.14 -30.19,25.57 -29.96,23.30 -29.74,21.04 -29.24,19.02 -28.74,17.00 -28.04,14.79 -27.34,12.57 -26.29,10.67 -25.24,8.78 -23.87,7.04 -22.50,5.31 -20.90,3.93 -19.30,2.55 -17.38,1.59 -15.46,0.62 -13.70,-0.03 -11.93,-0.69 -10.28,-1.25 -8.62,-1.81 -7.04,-2.06 -5.46,-2.30 -4.21,-2.38 -2.96,-2.47 -1.84,-2.13 -0.73,-1.80 -0.18,-1.17 0.36,-0.54 0.42,-0.49 0.48,-0.44 0.53,-0.37 0.57,-0.31 0.60,-0.24 0.63,-0.16 0.64,-0.08 0.65,-0.01 0.64,0.06 0.64,0.14 0.61,0.22 0.58,0.29 0.54,0.36 0.49,0.42 0.44,0.48 0.38,0.53 0.31,0.57 0.24,0.61 0.16,0.63 0.08,0.65 0.01,0.65 -0.06,0.65 -0.14,0.63 -0.22,0.61 -0.29,0.58 -0.36,0.54 -0.36,0.54 L -0.36,0.54 Z"/></g><g transform="translate(281.5791015625 142.12856903076175) rotate(0 -3.423248291015625 4.5643463134765625)" stroke="none"><path fill="#1e1e1e" d="M -0.20,0.62 Q -0.20,0.62 -0.94,0.64 -1.67,0.66 -2.47,0.63 -3.28,0.60 -3.93,0.80 -4.57,1.00 -5.26,1.29 -5.95,1.57 -6.75,2.26 -7.55,2.95 -8.03,3.78 -8.51,4.60 -8.69,5.46 -8.87,6.32 -8.82,6.86 -8.76,7.39 -8.27,7.64 -7.79,7.88 -6.92,8.00 -6.05,8.12 -4.96,7.80 -3.87,7.49 -2.49,7.00 -1.10,6.51 1.04,6.04 3.19,5.57 3.30,5.56 3.40,5.55 3.51,5.57 3.61,5.59 3.70,5.64 3.80,5.70 3.87,5.78 3.94,5.86 3.98,5.96 4.02,6.05 4.03,6.16 4.03,6.27 4.01,6.37 3.98,6.47 3.92,6.56 3.86,6.65 3.78,6.71 3.70,6.78 3.60,6.82 3.50,6.85 3.39,6.85 3.28,6.85 3.18,6.82 3.08,6.79 3.00,6.73 2.91,6.66 2.85,6.58 2.79,6.49 2.76,6.39 2.73,6.29 2.73,6.18 2.74,6.07 2.77,5.97 2.81,5.88 2.88,5.79 2.95,5.71 3.04,5.65 3.13,5.60 3.23,5.57 3.33,5.55 3.44,5.56 3.54,5.57 3.64,5.61 3.74,5.66 3.82,5.73 3.90,5.80 3.95,5.89 4.00,5.99 4.02,6.09 4.04,6.19 4.02,6.30 4.00,6.40 3.96,6.50 3.91,6.59 3.83,6.67 3.76,6.74 3.66,6.79 3.56,6.83 3.56,6.83 3.56,6.83 1.70,7.86 -0.16,8.88 -1.69,9.55 -3.22,10.21 -4.87,10.55 -6.53,10.90 -8.01,10.51 -9.49,10.11 -10.40,9.16 -11.32,8.21 -11.46,6.95 -11.61,5.70 -11.25,4.41 -10.88,3.12 -10.09,1.97 -9.29,0.81 -8.10,-0.05 -6.92,-0.92 -6.02,-1.23 -5.12,-1.53 -4.10,-1.69 -3.07,-1.85 -2.01,-1.69 -0.95,-1.54 -0.37,-1.08 0.20,-0.62 0.27,-0.58 0.35,-0.55 0.41,-0.50 0.47,-0.45 0.52,-0.39 0.56,-0.32 0.59,-0.25 0.63,-0.18 0.64,-0.10 0.65,-0.02 0.64,0.05 0.64,0.13 0.61,0.20 0.59,0.28 0.55,0.34 0.50,0.41 0.45,0.46 0.39,0.52 0.32,0.56 0.25,0.60 0.18,0.62 0.10,0.64 0.02,0.65 -0.05,0.65 -0.13,0.63 -0.20,0.62 -0.20,0.62 L -0.20,0.62 Z"/></g><g transform="translate(292.229248046875 142.12856903076175) rotate(0 3.42327880859375 4.5643463134765625)" stroke="none"><path fill="#1e1e1e" d="M 0.65,0 Q 0.65,0 0.89,1.09 1.12,2.18 0.92,3.82 0.72,5.46 0.64,6.53 0.55,7.59 0.69,8.58 0.83,9.57 0.79,10.28 0.76,11.00 0.77,11.10 0.77,11.21 0.75,11.32 0.73,11.42 0.68,11.52 0.63,11.62 0.57,11.70 0.50,11.78 0.41,11.85 0.33,11.91 0.23,11.95 0.13,11.99 0.02,12.01 -0.07,12.03 -0.18,12.02 -0.29,12.01 -0.39,11.98 -0.49,11.94 -0.58,11.88 -0.67,11.83 -0.75,11.75 -0.82,11.67 -0.88,11.58 -0.93,11.48 -0.96,11.38 -0.99,11.28 -0.87,10.13 -0.76,8.97 -0.75,8.14 -0.74,7.31 -0.74,6.31 -0.75,5.30 -0.97,4.78 -1.19,4.25 -1.33,3.71 -1.47,3.17 -1.55,2.75 -1.63,2.32 -1.63,2.21 -1.64,2.10 -1.62,1.98 -1.60,1.87 -1.56,1.77 -1.51,1.66 -1.44,1.57 -1.37,1.48 -1.28,1.41 -1.19,1.34 -1.09,1.30 -0.98,1.25 -0.87,1.23 -0.76,1.21 -0.64,1.21 -0.53,1.22 -0.42,1.25 -0.31,1.29 -0.21,1.34 -0.12,1.40 -0.04,1.48 0.04,1.56 0.09,1.66 0.15,1.76 0.19,1.87 0.22,1.98 0.25,2.52 0.27,3.07 0.67,3.71 1.07,4.34 1.48,5.13 1.88,5.93 2.44,6.61 3.00,7.29 3.54,7.72 4.09,8.15 4.64,7.72 5.19,7.29 5.51,6.63 5.82,5.98 5.96,4.93 6.09,3.89 6.16,2.77 6.24,1.65 5.99,-0.38 5.73,-2.43 5.68,-2.52 5.63,-2.61 5.60,-2.72 5.58,-2.82 5.60,-2.92 5.61,-3.03 5.65,-3.13 5.70,-3.22 5.77,-3.30 5.85,-3.37 5.94,-3.42 6.04,-3.47 6.14,-3.49 6.25,-3.50 6.35,-3.49 6.45,-3.47 6.55,-3.42 6.64,-3.37 6.71,-3.29 6.79,-3.21 6.83,-3.11 6.87,-3.02 6.88,-2.91 6.89,-2.81 6.87,-2.70 6.85,-2.60 6.79,-2.51 6.73,-2.42 6.65,-2.35 6.57,-2.28 6.47,-2.24 6.37,-2.21 6.27,-2.20 6.16,-2.20 6.06,-2.23 5.96,-2.26 5.87,-2.32 5.78,-2.38 5.72,-2.46 5.66,-2.55 5.62,-2.65 5.59,-2.75 5.59,-2.85 5.59,-2.96 5.63,-3.06 5.66,-3.16 5.73,-3.25 5.79,-3.33 5.88,-3.39 5.97,-3.45 6.07,-3.47 6.17,-3.50 6.28,-3.49 6.39,-3.49 6.48,-3.45 6.58,-3.41 6.66,-3.34 6.74,-3.27 6.74,-3.27 6.74,-3.27 7.72,-0.72 8.70,1.82 8.60,3.06 8.49,4.30 8.20,5.72 7.91,7.15 7.23,8.17 6.56,9.19 5.60,9.70 4.65,10.21 3.81,10.10 2.97,9.99 2.13,9.32 1.28,8.65 0.62,7.78 -0.03,6.90 -0.42,6.10 -0.82,5.29 -1.22,3.81 -1.63,2.32 -1.63,2.21 -1.64,2.10 -1.62,1.98 -1.60,1.87 -1.56,1.77 -1.51,1.66 -1.44,1.57 -1.37,1.48 -1.28,1.41 -1.19,1.34 -1.09,1.30 -0.98,1.25 -0.87,1.23 -0.76,1.21 -0.64,1.21 -0.53,1.22 -0.42,1.25 -0.31,1.29 -0.21,1.34 -0.12,1.40 -0.04,1.48 0.04,1.56 0.09,1.66 0.15,1.76 0.19,1.87 0.22,1.98 0.27,2.86 0.31,3.74 0.52,4.51 0.74,5.28 0.73,6.30 0.72,7.32 0.72,8.16 0.72,9.00 0.74,10.00 0.76,11.00 0.77,11.10 0.77,11.21 0.75,11.32 0.73,11.42 0.68,11.52 0.63,11.62 0.57,11.70 0.50,11.78 0.41,11.85 0.33,11.91 0.23,11.95 0.13,11.99 0.02,12.01 -0.07,12.03 -0.18,12.02 -0.29,12.01 -0.39,11.98 -0.49,11.94 -0.58,11.88 -0.67,11.83 -0.75,11.75 -0.82,11.67 -0.88,11.58 -0.93,11.48 -0.96,11.38 -0.99,11.28 -1.17,10.60 -1.36,9.92 -1.58,8.66 -1.80,7.41 -1.70,6.27 -1.60,5.14 -1.36,3.66 -1.12,2.18 -0.89,1.09 -0.65,0 -0.64,-0.07 -0.63,-0.15 -0.60,-0.23 -0.58,-0.30 -0.53,-0.37 -0.49,-0.43 -0.43,-0.48 -0.37,-0.54 -0.30,-0.57 -0.23,-0.61 -0.15,-0.63 -0.07,-0.65 0.00,-0.65 0.07,-0.65 0.15,-0.63 0.23,-0.61 0.30,-0.57 0.37,-0.54 0.43,-0.48 0.49,-0.43 0.53,-0.37 0.58,-0.30 0.60,-0.23 0.63,-0.15 0.64,-0.07 0.65,0.00 0.65,0.00 L 0.65,0 Z"/></g><g transform="translate(309.72601318359375 144.4107345581055) rotate(0 -1.90185546875 3.42327880859375)" stroke="none"><path fill="#1e1e1e" d="M -0.15,0.63 Q -0.15,0.63 -1.05,0.61 -1.95,0.59 -2.48,1.10 -3.00,1.61 -3.33,2.17 -3.67,2.73 -3.59,3.98 -3.52,5.22 -3.04,5.63 -2.56,6.04 -1.86,5.62 -1.17,5.20 -0.76,4.62 -0.35,4.03 -0.24,3.50 -0.12,2.96 -0.06,2.33 0.00,1.69 -0.97,0.76 -1.94,-0.16 -1.93,-0.24 -1.91,-0.32 -1.88,-0.39 -1.84,-0.46 -1.79,-0.52 -1.74,-0.58 -1.68,-0.63 -1.62,-0.68 -1.54,-0.71 -1.47,-0.74 -1.39,-0.75 -1.32,-0.77 -1.24,-0.76 -1.16,-0.75 -1.08,-0.73 -1.01,-0.71 -0.94,-0.66 -0.87,-0.62 -0.82,-0.56 -0.76,-0.51 -0.72,-0.44 -0.68,-0.37 -0.66,-0.30 -0.64,-0.22 -0.63,-0.14 -0.63,-0.06 -0.91,0.23 -1.19,0.53 -1.30,0.53 -1.41,0.52 -1.51,0.49 -1.61,0.45 -1.69,0.39 -1.77,0.32 -1.83,0.23 -1.89,0.14 -1.91,0.04 -1.94,-0.05 -1.93,-0.16 -1.92,-0.27 -1.88,-0.36 -1.84,-0.46 -1.77,-0.54 -1.70,-0.62 -1.61,-0.67 -1.52,-0.73 -1.41,-0.75 -1.31,-0.77 -1.20,-0.75 -1.10,-0.74 -1.00,-0.69 -0.91,-0.65 -0.83,-0.57 -0.75,-0.50 -0.71,-0.40 -0.66,-0.31 -0.64,-0.20 -0.63,-0.10 -0.65,0.00 -0.67,0.10 -0.72,0.20 -0.77,0.29 -0.85,0.36 -0.93,0.43 -1.03,0.47 -1.12,0.52 -1.23,0.52 -1.34,0.53 -1.44,0.51 -1.54,0.48 -1.63,0.43 -1.72,0.37 -1.79,0.29 -1.86,0.21 -1.89,0.11 -1.93,0.01 -1.93,-0.09 -1.94,-0.20 -1.91,-0.30 -1.88,-0.40 -1.81,-0.49 -1.75,-0.57 -1.67,-0.64 -1.58,-0.70 -1.76,-0.43 -1.94,-0.16 -1.93,-0.24 -1.91,-0.32 -1.88,-0.39 -1.84,-0.46 -1.79,-0.52 -1.74,-0.58 -1.68,-0.63 -1.62,-0.68 -1.54,-0.71 -1.47,-0.74 -1.39,-0.75 -1.32,-0.77 -1.24,-0.76 -1.16,-0.75 -1.08,-0.73 -1.01,-0.71 -0.94,-0.66 -0.87,-0.62 -0.82,-0.56 -0.76,-0.51 -0.72,-0.44 -0.68,-0.37 -0.66,-0.30 -0.64,-0.22 -0.63,-0.14 -0.63,-0.06 1.10,0.37 2.84,0.81 2.80,1.42 2.76,2.04 2.63,2.90 2.50,3.76 2.17,4.69 1.84,5.62 1.19,6.43 0.55,7.24 -0.52,7.93 -1.60,8.62 -2.62,8.50 -3.64,8.38 -4.44,7.86 -5.23,7.35 -5.63,6.49 -6.02,5.62 -6.15,4.43 -6.27,3.24 -6.00,2.34 -5.74,1.44 -5.23,0.70 -4.73,-0.02 -4.00,-0.63 -3.26,-1.23 -2.40,-1.35 -1.54,-1.47 -0.69,-1.05 0.15,-0.63 0.23,-0.60 0.30,-0.58 0.37,-0.53 0.43,-0.49 0.48,-0.43 0.54,-0.37 0.57,-0.30 0.61,-0.23 0.63,-0.15 0.65,-0.07 0.65,0.00 0.65,0.08 0.63,0.15 0.61,0.23 0.57,0.30 0.53,0.37 0.48,0.43 0.43,0.49 0.36,0.53 0.30,0.58 0.22,0.61 0.15,0.63 0.07,0.64 -0.00,0.65 -0.08,0.64 -0.15,0.63 -0.15,0.63 L -0.15,0.63 Z"/></g><g transform="translate(317.33319091796875 142.12856903076175) rotate(0 3.80364990234375 -0.38037109375)" stroke="none"><path fill="#1e1e1e" d="M -0.20,-0.62 Q -0.20,-0.62 0.31,-1.25 0.83,-1.89 1.68,-2.02 2.54,-2.15 3.34,-2.17 4.14,-2.20 6.05,-1.80 7.96,-1.41 8.06,-1.39 8.17,-1.38 8.26,-1.33 8.36,-1.28 8.43,-1.20 8.51,-1.13 8.55,-1.03 8.60,-0.93 8.61,-0.83 8.62,-0.72 8.60,-0.62 8.58,-0.52 8.53,-0.42 8.47,-0.33 8.39,-0.26 8.31,-0.19 8.21,-0.15 8.11,-0.11 8.01,-0.10 7.90,-0.10 7.80,-0.12 7.70,-0.15 7.61,-0.21 7.52,-0.27 7.45,-0.35 7.39,-0.44 7.35,-0.54 7.32,-0.64 7.32,-0.74 7.32,-0.85 7.35,-0.95 7.38,-1.05 7.45,-1.14 7.51,-1.22 7.60,-1.28 7.68,-1.34 7.79,-1.37 7.89,-1.40 7.99,-1.40 8.10,-1.39 8.20,-1.36 8.30,-1.32 8.38,-1.25 8.46,-1.18 8.52,-1.09 8.57,-1.00 8.60,-0.90 8.62,-0.79 8.61,-0.69 8.60,-0.58 8.56,-0.49 8.51,-0.39 8.44,-0.31 8.37,-0.23 8.28,-0.18 8.18,-0.13 8.08,-0.11 7.97,-0.09 7.97,-0.09 7.97,-0.09 6.14,0.34 4.30,0.79 3.62,0.85 2.94,0.90 2.36,0.96 1.79,1.01 0.99,0.82 0.20,0.62 0.13,0.63 0.05,0.65 -0.02,0.65 -0.10,0.64 -0.18,0.62 -0.25,0.60 -0.32,0.56 -0.39,0.52 -0.45,0.46 -0.50,0.41 -0.55,0.34 -0.59,0.28 -0.61,0.20 -0.64,0.13 -0.64,0.05 -0.65,-0.02 -0.64,-0.10 -0.63,-0.18 -0.59,-0.25 -0.56,-0.32 -0.52,-0.39 -0.47,-0.45 -0.41,-0.50 -0.35,-0.55 -0.27,-0.58 -0.20,-0.62 -0.20,-0.62 L -0.20,-0.62 Z"/></g><g transform="translate(320.37615966796875 142.12856903076175) rotate(0 0 6.4661712646484375)" stroke="none"><path fill="#1e1e1e" d="M 0.62,0.20 Q 0.62,0.20 0.57,0.88 0.52,1.57 0.78,3.08 1.05,4.60 1.10,6.12 1.15,7.64 1.25,10.00 1.35,12.36 1.34,12.47 1.34,12.57 1.30,12.67 1.26,12.77 1.20,12.86 1.13,12.94 1.04,12.99 0.95,13.05 0.84,13.07 0.74,13.10 0.64,13.09 0.53,13.08 0.43,13.04 0.34,12.99 0.26,12.92 0.18,12.85 0.13,12.76 0.08,12.66 0.06,12.56 0.04,12.46 0.05,12.35 0.07,12.25 0.12,12.15 0.17,12.06 0.24,11.98 0.32,11.91 0.41,11.86 0.51,11.81 0.61,11.80 0.72,11.79 0.82,11.81 0.93,11.83 1.02,11.88 1.11,11.94 1.18,12.02 1.25,12.10 1.29,12.19 1.33,12.29 1.34,12.40 1.35,12.50 1.32,12.61 1.30,12.71 1.24,12.80 1.18,12.89 1.10,12.95 1.01,13.02 0.91,13.05 0.81,13.09 0.71,13.09 0.60,13.09 0.50,13.06 0.40,13.03 0.31,12.97 0.23,12.90 0.16,12.82 0.10,12.73 0.07,12.63 0.04,12.53 0.04,12.53 0.04,12.53 -0.58,10.11 -1.22,7.68 -1.21,6.20 -1.21,4.72 -1.21,3.82 -1.22,2.92 -1.31,1.98 -1.39,1.05 -1.01,0.42 -0.62,-0.20 -0.58,-0.27 -0.55,-0.35 -0.50,-0.41 -0.45,-0.47 -0.39,-0.52 -0.32,-0.56 -0.25,-0.59 -0.18,-0.63 -0.10,-0.64 -0.02,-0.65 0.05,-0.64 0.13,-0.64 0.20,-0.61 0.28,-0.59 0.34,-0.55 0.41,-0.50 0.46,-0.45 0.52,-0.39 0.56,-0.32 0.60,-0.25 0.62,-0.18 0.64,-0.10 0.65,-0.02 0.65,0.05 0.63,0.13 0.62,0.20 0.62,0.20 L 0.62,0.20 Z"/></g><g transform="translate(249.628662109375 187.01138153076175) rotate(0 1.52142333984375 16.7359619140625)" stroke="none"><path fill="#1e1e1e" d="M 0.65,0 Q 0.65,0 0.84,0.87 1.02,1.74 1.05,2.55 1.08,3.36 1.10,3.93 1.12,4.49 1.15,5.60 1.17,6.71 1.39,7.73 1.61,8.75 1.72,9.72 1.83,10.69 1.88,11.99 1.94,13.30 2.17,14.14 2.40,14.99 2.52,15.92 2.64,16.84 2.70,17.68 2.75,18.51 2.96,19.14 3.18,19.77 3.31,20.64 3.44,21.51 3.49,22.32 3.54,23.14 3.56,23.69 3.59,24.25 3.61,25.35 3.62,26.44 3.63,27.58 3.63,28.71 3.63,30.82 3.63,32.93 3.63,33.04 3.62,33.15 3.59,33.25 3.55,33.35 3.48,33.43 3.42,33.51 3.33,33.57 3.24,33.62 3.13,33.65 3.03,33.67 2.92,33.67 2.82,33.66 2.72,33.61 2.62,33.57 2.54,33.50 2.47,33.43 2.41,33.34 2.36,33.24 2.34,33.14 2.32,33.03 2.34,32.93 2.35,32.82 2.40,32.73 2.45,32.63 2.52,32.56 2.60,32.48 2.69,32.44 2.79,32.39 2.90,32.38 3.00,32.36 3.11,32.38 3.21,32.40 3.30,32.46 3.39,32.51 3.46,32.59 3.53,32.67 3.58,32.77 3.62,32.86 3.63,32.97 3.63,33.08 3.61,33.18 3.58,33.28 3.52,33.37 3.47,33.46 3.38,33.53 3.30,33.59 3.20,33.63 3.10,33.67 2.99,33.67 2.89,33.67 2.79,33.64 2.68,33.61 2.60,33.54 2.51,33.48 2.45,33.39 2.39,33.31 2.36,33.21 2.33,33.10 2.33,33.10 2.33,33.10 1.62,30.91 0.92,28.71 0.92,27.59 0.92,26.46 0.92,25.84 0.92,25.22 0.91,24.25 0.89,23.28 0.86,22.57 0.82,21.85 0.75,21.19 0.67,20.52 0.42,19.60 0.16,18.67 0.13,17.91 0.09,17.14 0.02,16.36 -0.05,15.59 -0.29,14.48 -0.54,13.38 -0.56,12.16 -0.58,10.93 -0.65,10.07 -0.73,9.20 -0.95,7.96 -1.17,6.72 -1.15,5.60 -1.12,4.49 -1.10,3.93 -1.08,3.36 -1.05,2.55 -1.02,1.74 -0.84,0.87 -0.65,0 -0.64,-0.07 -0.63,-0.15 -0.60,-0.23 -0.58,-0.30 -0.53,-0.37 -0.49,-0.43 -0.43,-0.48 -0.37,-0.54 -0.30,-0.57 -0.23,-0.61 -0.15,-0.63 -0.07,-0.65 0.00,-0.65 0.07,-0.65 0.15,-0.63 0.23,-0.61 0.30,-0.57 0.37,-0.54 0.43,-0.48 0.49,-0.43 0.53,-0.37 0.58,-0.30 0.60,-0.23 0.63,-0.15 0.64,-0.07 0.65,0.00 0.65,0.00 L 0.65,0 Z"/></g><g transform="translate(17.6072998046875 54.6451095581055) rotate(0 7.226898193359375 -10.650169372558594)" stroke="none"><path fill="#1e1e1e" d="M -0.60,-0.25 Q -0.60,-0.25 -0.27,-1.93 0.04,-3.60 0.96,-5.79 1.88,-7.98 2.91,-10.64 3.94,-13.30 4.83,-15.34 5.72,-17.39 6.55,-18.95 7.39,-20.52 8.41,-21.63 9.43,-22.74 10.53,-22.52 11.63,-22.29 12.31,-20.72 12.99,-19.16 13.40,-16.97 13.82,-14.79 14.17,-12.11 14.52,-9.43 14.81,-6.99 15.11,-4.55 15.06,-2.07 15.00,0.39 14.99,0.50 14.99,0.60 14.95,0.70 14.90,0.80 14.84,0.88 14.77,0.96 14.67,1.01 14.58,1.07 14.48,1.09 14.37,1.11 14.27,1.10 14.16,1.08 14.07,1.04 13.97,0.99 13.90,0.92 13.82,0.84 13.77,0.75 13.72,0.66 13.71,0.55 13.69,0.45 13.71,0.34 13.73,0.24 13.78,0.14 13.83,0.05 13.91,-0.01 13.98,-0.08 14.08,-0.13 14.18,-0.17 14.28,-0.18 14.39,-0.19 14.49,-0.17 14.60,-0.14 14.69,-0.09 14.78,-0.03 14.85,0.04 14.91,0.12 14.95,0.22 14.99,0.32 14.99,0.43 15.00,0.53 14.97,0.64 14.94,0.74 14.88,0.82 14.82,0.91 14.73,0.97 14.65,1.04 14.55,1.07 14.44,1.10 14.34,1.10 14.23,1.10 14.13,1.07 14.03,1.03 13.95,0.96 13.86,0.90 13.81,0.81 13.75,0.72 13.72,0.62 13.69,0.52 13.69,0.52 13.69,0.52 13.17,-1.82 12.65,-4.16 12.19,-6.59 11.72,-9.02 11.29,-11.63 10.87,-14.24 10.50,-16.26 10.12,-18.28 10.16,-19.31 10.19,-20.35 10.08,-19.74 9.98,-19.12 9.18,-17.67 8.39,-16.21 7.51,-14.23 6.63,-12.25 5.55,-9.55 4.48,-6.86 3.53,-4.69 2.57,-2.51 1.59,-1.13 0.60,0.25 0.56,0.32 0.52,0.39 0.46,0.45 0.41,0.50 0.34,0.55 0.28,0.59 0.20,0.61 0.12,0.64 0.05,0.64 -0.02,0.65 -0.10,0.64 -0.18,0.63 -0.25,0.59 -0.32,0.56 -0.39,0.52 -0.45,0.47 -0.50,0.41 -0.55,0.34 -0.58,0.27 -0.62,0.20 -0.63,0.12 -0.65,0.05 -0.65,-0.02 -0.64,-0.10 -0.62,-0.18 -0.60,-0.25 -0.60,-0.25 L -0.60,-0.25 Z"/></g><g transform="translate(23.693115234375 50.841474914550815) rotate(0 5.7054443359375 -1.1410903930664062)" stroke="none"><path fill="#1e1e1e" d="M -0.15,-0.63 Q -0.15,-0.63 0.64,-1.13 1.44,-1.63 2.68,-1.99 3.91,-2.35 5.33,-2.68 6.75,-3.01 8.70,-2.61 10.65,-2.22 10.76,-2.19 10.86,-2.17 10.95,-2.11 11.04,-2.06 11.11,-1.98 11.18,-1.90 11.22,-1.80 11.26,-1.70 11.27,-1.59 11.27,-1.49 11.24,-1.39 11.21,-1.28 11.15,-1.20 11.09,-1.11 11.01,-1.04 10.93,-0.98 10.82,-0.95 10.72,-0.91 10.62,-0.91 10.51,-0.91 10.41,-0.95 10.31,-0.98 10.23,-1.04 10.14,-1.11 10.08,-1.20 10.02,-1.29 9.99,-1.39 9.97,-1.49 9.97,-1.60 9.98,-1.70 10.02,-1.80 10.06,-1.90 10.13,-1.98 10.19,-2.06 10.29,-2.12 10.38,-2.17 10.48,-2.19 10.58,-2.22 10.69,-2.20 10.80,-2.19 10.89,-2.15 10.99,-2.10 11.06,-2.03 11.14,-1.96 11.19,-1.86 11.24,-1.77 11.26,-1.66 11.28,-1.56 11.26,-1.45 11.24,-1.35 11.19,-1.26 11.14,-1.16 11.06,-1.09 10.99,-1.02 10.89,-0.97 10.79,-0.93 10.69,-0.92 10.58,-0.90 10.58,-0.90 10.58,-0.90 8.96,-0.71 7.34,-0.51 5.95,-0.13 4.56,0.23 3.30,0.49 2.05,0.76 1.10,0.70 0.15,0.63 0.08,0.64 0.00,0.65 -0.07,0.64 -0.15,0.63 -0.22,0.61 -0.30,0.58 -0.36,0.53 -0.43,0.49 -0.48,0.43 -0.53,0.37 -0.57,0.30 -0.61,0.23 -0.63,0.15 -0.65,0.08 -0.65,0.00 -0.65,-0.07 -0.63,-0.15 -0.61,-0.23 -0.57,-0.30 -0.54,-0.37 -0.48,-0.43 -0.43,-0.49 -0.37,-0.53 -0.30,-0.58 -0.23,-0.60 -0.15,-0.63 -0.15,-0.63 L -0.15,-0.63 Z"/></g><g transform="translate(17.6072998046875 196.140104675293) rotate(0 0 9.509048461914062)" stroke="none"><path fill="#1e1e1e" d="M -0.62,0.20 Q -0.62,0.20 -0.97,-0.40 -1.31,-1.01 -1.34,-1.12 -1.36,-1.23 -1.35,-1.34 -1.35,-1.46 -1.32,-1.56 -1.29,-1.67 -1.23,-1.77 -1.18,-1.87 -1.10,-1.95 -1.02,-2.03 -0.93,-2.09 -0.83,-2.15 -0.72,-2.18 -0.62,-2.22 -0.51,-2.23 -0.39,-2.24 -0.28,-2.22 -0.17,-2.20 -0.07,-2.16 0.02,-2.11 0.11,-2.04 0.20,-1.98 0.27,-1.89 0.34,-1.80 0.39,-1.70 0.44,-1.60 0.71,-0.49 0.99,0.61 1.06,2.41 1.13,4.22 1.39,6.89 1.64,9.57 1.73,12.06 1.81,14.56 1.61,17.62 1.40,20.69 1.39,20.80 1.37,20.90 1.32,21.00 1.27,21.09 1.20,21.16 1.12,21.24 1.03,21.29 0.93,21.33 0.83,21.35 0.72,21.36 0.62,21.34 0.51,21.32 0.42,21.26 0.33,21.21 0.26,21.13 0.19,21.05 0.15,20.95 0.11,20.86 0.10,20.75 0.09,20.64 0.12,20.54 0.14,20.44 0.20,20.35 0.26,20.26 0.34,20.19 0.43,20.13 0.53,20.09 0.63,20.06 0.73,20.06 0.84,20.05 0.94,20.08 1.04,20.12 1.13,20.18 1.21,20.24 1.27,20.33 1.33,20.42 1.36,20.52 1.40,20.62 1.39,20.73 1.39,20.83 1.35,20.93 1.31,21.03 1.25,21.11 1.18,21.20 1.09,21.25 1.00,21.31 0.90,21.33 0.79,21.36 0.69,21.35 0.58,21.34 0.48,21.30 0.39,21.25 0.31,21.18 0.23,21.11 0.18,21.02 0.13,20.92 0.11,20.82 0.09,20.72 0.09,20.72 0.09,20.72 -0.25,17.69 -0.60,14.66 -0.71,12.22 -0.83,9.79 -1.06,7.04 -1.29,4.29 -1.32,2.59 -1.36,0.89 -1.34,-0.06 -1.31,-1.01 -1.34,-1.12 -1.36,-1.23 -1.35,-1.34 -1.35,-1.46 -1.32,-1.56 -1.29,-1.67 -1.23,-1.77 -1.18,-1.87 -1.10,-1.95 -1.02,-2.03 -0.93,-2.09 -0.83,-2.15 -0.72,-2.18 -0.62,-2.22 -0.51,-2.23 -0.39,-2.24 -0.28,-2.22 -0.17,-2.20 -0.07,-2.16 0.02,-2.11 0.11,-2.04 0.20,-1.98 0.27,-1.89 0.34,-1.80 0.39,-1.70 0.44,-1.60 0.53,-0.90 0.62,-0.20 0.63,-0.13 0.65,-0.05 0.65,0.02 0.64,0.10 0.62,0.18 0.60,0.25 0.56,0.32 0.52,0.39 0.46,0.45 0.41,0.50 0.34,0.55 0.28,0.59 0.20,0.61 0.13,0.64 0.05,0.64 -0.02,0.65 -0.10,0.64 -0.18,0.63 -0.25,0.59 -0.32,0.56 -0.39,0.52 -0.45,0.47 -0.50,0.41 -0.55,0.35 -0.58,0.27 -0.62,0.20 -0.62,0.20 L -0.62,0.20 Z"/></g><g transform="translate(12.2822265625 194.61865081787113) rotate(0 9.128662109375 6.466156005859375)" stroke="none"><path fill="#1e1e1e" d="M -0.58,0.29 Q -0.58,0.29 -1.13,-0.52 -1.67,-1.34 -2.11,-2.14 -2.56,-2.93 -2.80,-3.83 -3.04,-4.74 -2.90,-5.74 -2.77,-6.75 -2.13,-7.56 -1.50,-8.37 0.24,-8.97 1.98,-9.58 4.05,-9.80 6.11,-10.02 8.15,-9.89 10.19,-9.76 12.07,-9.01 13.96,-8.26 15.29,-7.19 16.63,-6.12 17.30,-4.60 17.97,-3.08 18.00,-1.41 18.03,0.25 17.31,1.78 16.59,3.31 15.82,4.37 15.05,5.44 14.19,6.19 13.34,6.93 12.59,7.19 11.85,7.44 11.72,7.53 11.58,7.62 11.44,7.67 11.29,7.73 11.13,7.74 10.97,7.76 10.81,7.73 10.66,7.71 10.51,7.65 10.36,7.59 10.24,7.50 10.11,7.41 10.01,7.29 9.90,7.17 9.83,7.03 9.76,6.89 9.73,6.73 9.69,6.58 9.69,6.42 9.70,6.26 9.74,6.11 9.78,5.95 9.86,5.82 9.93,5.68 10.04,5.56 10.15,5.44 11.02,5.22 11.90,5.00 13.21,5.17 14.53,5.34 16.00,5.88 17.48,6.42 18.72,7.27 19.96,8.11 20.40,9.80 20.84,11.48 20.48,13.44 20.13,15.40 18.50,17.30 16.87,19.19 14.70,20.18 12.53,21.18 8.35,21.75 4.17,22.32 4.06,22.33 3.96,22.33 3.85,22.30 3.75,22.27 3.66,22.21 3.58,22.15 3.51,22.07 3.45,21.98 3.41,21.88 3.38,21.78 3.38,21.68 3.38,21.57 3.42,21.47 3.45,21.37 3.52,21.29 3.58,21.20 3.67,21.14 3.76,21.08 3.86,21.05 3.96,21.03 4.07,21.03 4.17,21.04 4.27,21.08 4.37,21.12 4.45,21.19 4.53,21.26 4.59,21.35 4.64,21.44 4.66,21.54 4.69,21.65 4.67,21.75 4.66,21.86 4.62,21.96 4.57,22.05 4.50,22.13 4.42,22.21 4.33,22.25 4.24,22.30 4.13,22.32 4.03,22.34 3.92,22.32 3.82,22.30 3.72,22.25 3.63,22.20 3.56,22.12 3.48,22.05 3.44,21.95 3.40,21.85 3.39,21.75 3.37,21.64 3.40,21.54 3.42,21.43 3.48,21.34 3.53,21.25 3.61,21.18 3.69,21.12 3.79,21.08 3.89,21.04 3.89,21.04 3.89,21.04 7.66,19.90 11.43,18.77 13.13,17.98 14.82,17.19 16.11,15.91 17.41,14.62 17.75,13.23 18.08,11.84 18.11,10.78 18.13,9.72 17.35,9.25 16.57,8.79 15.35,8.31 14.13,7.82 12.99,7.63 11.85,7.44 11.72,7.53 11.58,7.62 11.44,7.67 11.29,7.73 11.13,7.74 10.97,7.76 10.82,7.73 10.66,7.71 10.51,7.65 10.36,7.59 10.24,7.50 10.11,7.41 10.01,7.29 9.90,7.17 9.83,7.03 9.76,6.89 9.73,6.73 9.69,6.58 9.69,6.42 9.70,6.26 9.74,6.11 9.78,5.95 9.86,5.82 9.93,5.68 10.04,5.56 10.15,5.44 10.91,5.16 11.67,4.88 12.30,4.36 12.93,3.85 13.59,2.97 14.26,2.08 14.86,1.09 15.46,0.10 15.51,-1.06 15.56,-2.23 15.25,-3.27 14.93,-4.32 13.96,-5.17 12.98,-6.02 11.48,-6.69 9.97,-7.37 8.16,-7.51 6.34,-7.66 4.49,-7.50 2.63,-7.34 0.96,-6.76 -0.70,-6.18 -0.85,-5.65 -1.01,-5.12 -0.90,-4.46 -0.80,-3.80 -0.43,-2.97 -0.07,-2.14 0.25,-1.22 0.58,-0.29 0.61,-0.21 0.64,-0.14 0.64,-0.06 0.65,0.01 0.64,0.09 0.63,0.16 0.60,0.24 0.57,0.31 0.52,0.38 0.48,0.44 0.42,0.49 0.36,0.54 0.29,0.58 0.22,0.61 0.14,0.63 0.06,0.65 -0.01,0.65 -0.09,0.65 -0.16,0.62 -0.24,0.60 -0.31,0.57 -0.38,0.53 -0.44,0.47 -0.50,0.42 -0.54,0.35 -0.58,0.29 -0.58,0.29 L -0.58,0.29 Z"/></g><g transform="translate(494.58233642578125 132.9998458862305) rotate(0 13.69305419921875 -5.3250732421875)" stroke="none"><path fill="#1e1e1e" d="M -0.62,-0.20 Q -0.62,-0.20 -0.54,-0.91 -0.47,-1.62 -0.13,-2.23 0.20,-2.84 0.81,-3.58 1.42,-4.31 2.45,-4.93 3.47,-5.56 4.41,-5.84 5.35,-6.12 6.44,-6.26 7.53,-6.39 8.65,-6.44 9.76,-6.50 11.42,-6.31 13.07,-6.12 14.69,-6.26 16.32,-6.40 17.80,-6.86 19.29,-7.32 20.76,-8.09 22.23,-8.85 24.22,-9.78 26.21,-10.70 26.31,-10.74 26.41,-10.78 26.51,-10.79 26.62,-10.79 26.72,-10.76 26.82,-10.74 26.91,-10.68 27.00,-10.62 27.06,-10.53 27.13,-10.45 27.16,-10.35 27.20,-10.25 27.20,-10.14 27.20,-10.04 27.17,-9.94 27.13,-9.83 27.07,-9.75 27.01,-9.67 26.92,-9.60 26.83,-9.54 26.73,-9.52 26.63,-9.49 26.52,-9.49 26.41,-9.50 26.32,-9.54 26.22,-9.57 26.13,-9.64 26.05,-9.71 26.00,-9.80 25.94,-9.89 25.92,-10.00 25.90,-10.10 25.91,-10.21 25.92,-10.31 25.96,-10.41 26.01,-10.50 26.08,-10.58 26.15,-10.66 26.24,-10.71 26.34,-10.76 26.44,-10.78 26.55,-10.80 26.65,-10.78 26.76,-10.76 26.85,-10.71 26.95,-10.66 27.02,-10.59 27.09,-10.51 27.14,-10.41 27.18,-10.32 27.20,-10.21 27.21,-10.11 27.19,-10.00 27.16,-9.90 27.11,-9.81 27.05,-9.72 26.97,-9.65 26.89,-9.58 26.89,-9.58 26.89,-9.58 25.12,-8.21 23.35,-6.83 21.69,-5.87 20.04,-4.90 18.28,-4.37 16.52,-3.84 14.64,-3.72 12.75,-3.60 11.30,-3.81 9.85,-4.03 8.80,-4.01 7.75,-3.99 6.83,-3.94 5.91,-3.89 5.22,-3.76 4.52,-3.62 3.74,-3.26 2.97,-2.89 2.16,-1.95 1.34,-1.00 0.98,-0.39 0.62,0.20 0.58,0.27 0.55,0.35 0.50,0.41 0.45,0.47 0.39,0.52 0.32,0.56 0.25,0.59 0.18,0.63 0.10,0.64 0.02,0.65 -0.05,0.64 -0.13,0.64 -0.20,0.61 -0.28,0.59 -0.34,0.55 -0.41,0.50 -0.46,0.45 -0.52,0.39 -0.56,0.32 -0.60,0.25 -0.62,0.18 -0.64,0.10 -0.65,0.02 -0.65,-0.05 -0.63,-0.13 -0.62,-0.20 -0.62,-0.20 L -0.62,-0.20 Z"/></g><g stroke-linecap="round"><g transform="translate(580.9070474409824 40.795471223928814) rotate(0 192.46353149414062 0.38036346435546875)"><path d="M0.13 0.01 C64.27 0.05, 321.51 1.17, 385.51 1.21 M-1.26 -1.03 C62.72 -0.84, 320.22 -1.07, 384.87 -0.67" stroke="#1e1e1e" stroke-width="2" fill="none"/></g></g><mask/><g stroke-linecap="round"><g transform="translate(580.0378848498827 201.27333136285193) rotate(0 192.46353149414062 0.38036346435546875)"><path d="M-0.86 -0.47 C63.36 -0.38, 321.7 1.53, 385.99 1.64 M0.88 -1.77 C64.99 -1.48, 321.74 -0.52, 385.59 -0.03" stroke="#1e1e1e" stroke-width="2" fill="none"/></g></g><mask/><g stroke-linecap="round"><g transform="translate(788.2224731445312 44.75564422607425) rotate(0 0.7607421875 77.21366882324219)"><path d="M1.1 -0.79 C1.56 24.99, 2.16 129.21, 2.32 155.1 M0.21 1.41 C0.63 26.8, 1.56 127.57, 1.79 153.33" stroke="#1e1e1e" stroke-width="2" fill="none"/></g></g><mask/><g transform="translate(785.9403686523438 23.45533599853519) rotate(0 7.226806640625 14.453773498535156)" stroke="none"><path fill="#1e1e1e" d="M -0.16,1.30 Q -0.16,1.30 -1.96,1.58 -3.77,1.86 -4.91,2.02 -6.06,2.18 -7.64,2.88 -9.22,3.57 -10.43,4.42 -11.63,5.28 -12.70,6.40 -13.76,7.53 -14.77,9.17 -15.78,10.81 -16.13,12.34 -16.48,13.87 -16.65,15.76 -16.83,17.66 -16.49,19.54 -16.15,21.42 -15.83,22.87 -15.50,24.32 -14.49,25.39 -13.48,26.45 -11.90,27.52 -10.31,28.60 -8.42,29.47 -6.52,30.35 -4.51,30.91 -2.50,31.48 -0.41,32.21 1.67,32.93 3.59,33.17 5.52,33.40 7.42,33.51 9.33,33.62 10.95,33.24 12.56,32.87 14.47,32.48 16.39,32.09 17.89,31.53 19.39,30.98 20.89,30.31 22.39,29.65 23.60,28.97 24.82,28.29 25.83,27.45 26.85,26.61 27.54,25.57 28.23,24.53 29.04,23.36 29.86,22.18 30.40,19.84 30.95,17.50 30.81,15.92 30.67,14.35 30.22,12.74 29.76,11.14 29.34,9.73 28.92,8.33 28.38,7.29 27.83,6.25 27.31,4.97 26.78,3.69 26.10,2.86 25.42,2.04 24.59,1.33 23.77,0.62 22.67,-0.04 21.57,-0.71 20.35,-1.51 19.13,-2.30 17.85,-2.69 16.58,-3.09 15.09,-3.52 13.61,-3.94 12.31,-4.09 11.01,-4.23 9.80,-4.30 8.59,-4.38 7.45,-4.20 6.31,-4.03 4.72,-3.94 3.14,-3.86 2.00,-3.46 0.86,-3.05 -0.41,-2.64 -1.69,-2.23 -2.87,-1.84 -4.05,-1.46 -5.50,-0.35 -6.95,0.75 -8.12,1.42 -9.29,2.09 -9.35,2.29 -9.42,2.50 -9.55,2.67 -9.67,2.84 -9.85,2.96 -10.02,3.08 -10.23,3.14 -10.43,3.20 -10.64,3.19 -10.86,3.18 -11.05,3.10 -11.25,3.02 -11.42,2.89 -11.58,2.75 -11.69,2.57 -11.80,2.39 -11.85,2.18 -11.90,1.98 -11.88,1.76 -11.85,1.55 -11.77,1.36 -11.68,1.17 -11.54,1.01 -11.39,0.85 -11.20,0.75 -11.02,0.65 -10.81,0.61 -10.60,0.58 -10.39,0.61 -10.18,0.64 -9.99,0.74 -9.80,0.84 -9.65,0.99 -9.51,1.14 -9.41,1.34 -9.32,1.53 -9.30,1.74 -9.27,1.95 -9.32,2.16 -9.36,2.37 -9.47,2.55 -9.58,2.73 -9.74,2.87 -9.90,3.01 -10.09,3.09 -10.29,3.17 -10.50,3.19 -10.72,3.20 -10.92,3.14 -11.13,3.09 -11.30,2.97 -11.48,2.85 -11.61,2.69 -11.74,2.52 -11.81,2.32 -11.88,2.12 -11.88,1.90 -11.88,1.69 -11.88,1.69 -11.88,1.69 -10.53,-1.77 -9.17,-5.24 -7.61,-6.28 -6.06,-7.31 -4.83,-7.72 -3.60,-8.13 -2.29,-8.55 -0.98,-8.98 0.89,-9.52 2.76,-10.06 4.14,-10.13 5.52,-10.20 7.24,-10.39 8.96,-10.58 10.37,-10.49 11.78,-10.40 13.56,-10.16 15.34,-9.92 16.97,-9.44 18.60,-8.95 20.54,-8.24 22.48,-7.52 23.69,-6.73 24.90,-5.94 26.41,-4.95 27.93,-3.95 29.15,-2.79 30.36,-1.63 31.41,-0.13 32.45,1.36 32.88,2.48 33.32,3.59 34.01,5.11 34.71,6.62 35.14,8.13 35.56,9.64 36.08,11.80 36.60,13.97 36.69,16.12 36.78,18.27 36.39,20.51 36.00,22.74 35.29,24.12 34.58,25.49 33.70,26.72 32.83,27.95 31.61,29.48 30.39,31.01 28.95,32.10 27.52,33.20 26.07,33.98 24.62,34.77 22.93,35.49 21.24,36.21 19.36,36.85 17.47,37.49 15.54,37.87 13.61,38.24 11.32,38.63 9.03,39.02 6.91,38.87 4.78,38.73 2.35,38.36 -0.07,37.99 -2.03,37.29 -4.00,36.60 -6.40,35.88 -8.79,35.16 -11.09,34.04 -13.39,32.93 -15.48,31.37 -17.58,29.81 -19.07,27.77 -20.56,25.72 -20.97,23.98 -21.37,22.24 -21.73,19.70 -22.08,17.16 -21.82,14.83 -21.56,12.50 -20.89,10.27 -20.22,8.03 -18.83,5.96 -17.44,3.88 -15.95,2.45 -14.45,1.01 -12.72,-0.04 -10.99,-1.10 -8.76,-1.83 -6.53,-2.56 -4.87,-2.64 -3.22,-2.73 -1.53,-2.01 0.16,-1.30 0.31,-1.26 0.47,-1.22 0.60,-1.15 0.74,-1.07 0.86,-0.97 0.98,-0.86 1.07,-0.73 1.16,-0.60 1.22,-0.45 1.27,-0.30 1.29,-0.15 1.31,0.00 1.29,0.16 1.27,0.31 1.21,0.46 1.16,0.61 1.07,0.74 0.97,0.87 0.86,0.97 0.74,1.08 0.60,1.15 0.46,1.22 0.30,1.26 0.15,1.30 -0.00,1.30 -0.16,1.30 -0.16,1.30 L -0.16,1.30 Z"/></g><g transform="translate(792.0260620117188 18.890974426269565) rotate(0 0.38037109375 19.018150329589844)" stroke="none"><path fill="#1e1e1e" d="M 1.30,-0.11 Q 1.30,-0.11 2.17,2.22 3.03,4.57 3.19,7.64 3.35,10.70 3.42,13.97 3.49,17.23 3.53,19.93 3.56,22.63 3.58,25.09 3.60,27.55 3.58,29.69 3.56,31.83 3.51,33.17 3.47,34.52 2.77,36.10 2.07,37.68 2.03,37.89 2.00,38.10 1.90,38.29 1.80,38.48 1.65,38.62 1.49,38.77 1.30,38.86 1.11,38.95 0.90,38.97 0.68,38.99 0.48,38.95 0.27,38.90 0.09,38.79 -0.08,38.68 -0.22,38.52 -0.36,38.36 -0.44,38.16 -0.52,37.97 -0.53,37.75 -0.54,37.54 -0.48,37.34 -0.43,37.13 -0.31,36.96 -0.19,36.78 -0.02,36.65 0.14,36.52 0.34,36.45 0.54,36.39 0.76,36.39 0.97,36.39 1.17,36.45 1.37,36.52 1.54,36.65 1.71,36.78 1.83,36.96 1.95,37.13 2.00,37.34 2.06,37.54 2.05,37.75 2.04,37.96 1.96,38.16 1.88,38.36 1.74,38.52 1.61,38.68 1.42,38.79 1.24,38.90 1.03,38.95 0.83,38.99 0.62,38.97 0.40,38.95 0.21,38.86 0.02,38.77 -0.13,38.62 -0.28,38.48 -0.38,38.29 -0.48,38.10 -0.51,37.89 -0.55,37.68 -0.55,37.68 -0.55,37.68 -1.25,36.10 -1.95,34.52 -2.00,33.18 -2.04,31.83 -2.07,29.70 -2.09,27.56 -2.09,25.11 -2.09,22.66 -2.09,19.98 -2.09,17.30 -2.09,14.09 -2.10,10.87 -2.13,7.96 -2.15,5.04 -1.73,2.58 -1.30,0.11 -1.30,-0.03 -1.29,-0.19 -1.25,-0.35 -1.21,-0.50 -1.13,-0.64 -1.05,-0.77 -0.94,-0.89 -0.84,-1.00 -0.70,-1.09 -0.57,-1.18 -0.42,-1.23 -0.27,-1.28 -0.11,-1.29 0.03,-1.31 0.19,-1.28 0.35,-1.26 0.49,-1.20 0.64,-1.14 0.77,-1.05 0.90,-0.95 1.00,-0.83 1.10,-0.71 1.17,-0.57 1.24,-0.42 1.27,-0.27 1.30,-0.11 1.30,-0.11 L 1.30,-0.11 Z"/></g><g transform="translate(789.7439575195312 195.37933197021488) rotate(0 -0.38043212890625 6.0858154296875)" stroke="none"><path fill="#1e1e1e" d="M -0.92,0.92 Q -0.92,0.92 -1.83,0.57 -2.73,0.21 -4.13,1.60 -5.52,2.99 -6.07,4.87 -6.63,6.76 -6.52,7.91 -6.41,9.05 -5.43,10.34 -4.46,11.62 -2.78,11.68 -1.11,11.73 -0.00,11.33 1.10,10.92 2.35,10.18 3.59,9.44 4.13,8.48 4.67,7.53 5.16,6.47 5.65,5.42 5.33,4.01 5.01,2.61 3.16,1.56 1.30,0.51 1.09,0.49 0.87,0.47 0.68,0.39 0.49,0.30 0.33,0.16 0.17,0.02 0.07,-0.16 -0.02,-0.35 -0.06,-0.56 -0.10,-0.76 -0.07,-0.97 -0.04,-1.18 0.05,-1.37 0.14,-1.56 0.29,-1.71 0.45,-1.86 0.64,-1.95 0.83,-2.05 1.04,-2.07 1.25,-2.10 1.46,-2.06 1.67,-2.02 1.85,-1.91 2.04,-1.80 2.18,-1.64 2.32,-1.49 2.40,-1.29 2.48,-1.09 2.50,-0.88 2.51,-0.67 2.46,-0.46 2.40,-0.26 2.29,-0.08 2.17,0.09 2.01,0.22 1.84,0.35 1.64,0.42 1.44,0.49 1.23,0.50 1.01,0.50 0.81,0.44 0.61,0.37 0.44,0.25 0.27,0.12 0.14,-0.04 0.02,-0.22 -0.03,-0.42 -0.09,-0.62 -0.08,-0.84 -0.07,-1.05 -0.00,-1.25 0.07,-1.45 0.20,-1.61 0.34,-1.77 0.52,-1.89 0.70,-2.00 0.90,-2.05 1.11,-2.10 1.11,-2.10 1.11,-2.10 4.07,-1.79 7.03,-1.49 7.91,-0.35 8.78,0.78 9.39,2.46 10.00,4.14 9.69,5.67 9.37,7.19 8.71,8.51 8.05,9.82 6.92,11.33 5.78,12.85 4.10,13.81 2.42,14.78 0.77,15.30 -0.86,15.82 -2.38,15.85 -3.91,15.87 -5.56,15.27 -7.22,14.67 -8.34,13.49 -9.46,12.30 -10.07,10.90 -10.68,9.51 -10.81,7.78 -10.94,6.05 -10.62,4.41 -10.29,2.78 -9.63,1.53 -8.97,0.27 -8.09,-0.79 -7.22,-1.87 -5.97,-2.79 -4.73,-3.71 -3.41,-3.79 -2.10,-3.88 -0.99,-3.35 0.11,-2.83 0.52,-1.88 0.92,-0.92 1.02,-0.80 1.12,-0.67 1.18,-0.53 1.25,-0.39 1.28,-0.23 1.31,-0.07 1.30,0.07 1.29,0.23 1.24,0.38 1.19,0.53 1.11,0.67 1.03,0.80 0.92,0.92 0.80,1.03 0.67,1.11 0.53,1.19 0.38,1.24 0.23,1.29 0.07,1.30 -0.07,1.31 -0.23,1.28 -0.39,1.25 -0.53,1.18 -0.67,1.12 -0.80,1.02 -0.92,0.92 -0.92,0.92 L -0.92,0.92 Z"/></g><g transform="translate(549.3546142578125 51.60217132568363) rotate(0 4.564361572265625 -10.269783020019531)" stroke="none"><path fill="#1e1e1e" d="M -1.24,-0.41 Q -1.24,-0.41 -0.82,-3.19 -0.40,-5.96 0.35,-8.59 1.12,-11.22 1.64,-13.39 2.16,-15.56 2.61,-17.20 3.07,-18.84 3.56,-19.95 4.05,-21.05 4.20,-21.19 4.35,-21.32 4.50,-21.57 4.66,-21.83 4.87,-22.03 5.08,-22.24 5.34,-22.39 5.59,-22.54 5.88,-22.63 6.16,-22.72 6.45,-22.73 6.75,-22.75 7.04,-22.69 7.33,-22.63 7.60,-22.51 7.87,-22.39 8.10,-22.20 8.34,-22.02 8.52,-21.78 8.70,-21.55 8.82,-21.28 8.94,-21.01 8.99,-20.71 9.04,-20.42 9.02,-20.13 9.00,-19.83 8.91,-19.55 8.82,-19.27 9.83,-17.89 10.85,-16.52 11.08,-13.67 11.30,-10.83 11.29,-8.59 11.29,-6.36 10.85,-3.44 10.42,-0.53 10.38,-0.32 10.35,-0.11 10.26,0.07 10.16,0.26 10.01,0.41 9.86,0.56 9.67,0.65 9.47,0.74 9.26,0.77 9.05,0.80 8.84,0.75 8.64,0.71 8.45,0.61 8.27,0.50 8.13,0.34 7.99,0.18 7.91,-0.01 7.82,-0.20 7.81,-0.41 7.79,-0.63 7.85,-0.83 7.90,-1.04 8.02,-1.22 8.13,-1.39 8.30,-1.52 8.47,-1.66 8.67,-1.73 8.87,-1.80 9.08,-1.80 9.29,-1.81 9.50,-1.74 9.70,-1.68 9.87,-1.55 10.04,-1.42 10.16,-1.25 10.29,-1.08 10.35,-0.87 10.41,-0.67 10.40,-0.46 10.39,-0.24 10.31,-0.05 10.24,0.14 10.10,0.31 9.97,0.47 9.79,0.58 9.61,0.70 9.40,0.75 9.20,0.79 8.98,0.77 8.77,0.76 8.58,0.67 8.38,0.58 8.23,0.44 8.07,0.30 7.97,0.11 7.87,-0.07 7.83,-0.28 7.79,-0.48 7.79,-0.48 7.79,-0.48 7.26,-3.34 6.73,-6.19 6.56,-8.33 6.40,-10.48 6.25,-12.79 6.11,-15.10 5.81,-16.24 5.51,-17.38 4.93,-19.35 4.35,-21.32 4.50,-21.57 4.66,-21.83 4.87,-22.03 5.08,-22.24 5.34,-22.39 5.59,-22.54 5.87,-22.63 6.16,-22.72 6.45,-22.73 6.75,-22.75 7.04,-22.69 7.33,-22.63 7.60,-22.51 7.87,-22.39 8.10,-22.20 8.33,-22.02 8.52,-21.78 8.70,-21.55 8.82,-21.28 8.94,-21.01 8.99,-20.71 9.04,-20.42 9.02,-20.13 9.00,-19.83 8.91,-19.55 8.82,-19.27 8.28,-18.38 7.74,-17.50 7.28,-15.94 6.82,-14.38 6.21,-12.12 5.61,-9.85 4.75,-7.19 3.90,-4.52 2.57,-2.05 1.24,0.41 1.17,0.55 1.11,0.70 1.01,0.82 0.91,0.94 0.78,1.04 0.65,1.13 0.51,1.19 0.36,1.26 0.20,1.28 0.05,1.31 -0.10,1.29 -0.26,1.28 -0.41,1.23 -0.56,1.18 -0.69,1.10 -0.83,1.01 -0.93,0.90 -1.04,0.78 -1.12,0.65 -1.20,0.51 -1.25,0.36 -1.29,0.21 -1.30,0.05 -1.30,-0.10 -1.27,-0.26 -1.24,-0.41 -1.24,-0.41 L -1.24,-0.41 Z"/></g><g transform="translate(550.1153564453125 47.798551940918) rotate(0 4.9447021484375 -1.141082763671875)" stroke="none"><path fill="#1e1e1e" d="M -0.28,-1.28 Q -0.28,-1.28 1.57,-2.21 3.43,-3.14 6.26,-3.30 9.09,-3.46 9.30,-3.46 9.51,-3.47 9.72,-3.41 9.92,-3.35 10.09,-3.23 10.27,-3.11 10.39,-2.93 10.52,-2.76 10.58,-2.56 10.65,-2.36 10.64,-2.15 10.64,-1.93 10.57,-1.73 10.50,-1.53 10.37,-1.37 10.23,-1.20 10.06,-1.08 9.88,-0.97 9.67,-0.91 9.47,-0.86 9.26,-0.88 9.04,-0.89 8.85,-0.97 8.65,-1.06 8.49,-1.20 8.33,-1.34 8.23,-1.52 8.12,-1.70 8.08,-1.91 8.04,-2.12 8.06,-2.33 8.09,-2.54 8.18,-2.73 8.27,-2.93 8.42,-3.08 8.57,-3.23 8.76,-3.32 8.95,-3.42 9.16,-3.45 9.37,-3.48 9.58,-3.44 9.79,-3.41 9.98,-3.30 10.16,-3.20 10.31,-3.04 10.45,-2.89 10.53,-2.69 10.62,-2.50 10.64,-2.29 10.66,-2.07 10.61,-1.87 10.56,-1.66 10.45,-1.48 10.33,-1.30 10.17,-1.17 10.01,-1.03 9.81,-0.96 9.61,-0.88 9.61,-0.88 9.61,-0.88 7.02,0.25 4.44,1.39 2.36,1.33 0.28,1.28 0.12,1.29 -0.03,1.31 -0.18,1.29 -0.34,1.26 -0.49,1.20 -0.63,1.14 -0.76,1.05 -0.89,0.96 -0.99,0.84 -1.09,0.72 -1.16,0.57 -1.23,0.43 -1.27,0.28 -1.30,0.12 -1.30,-0.03 -1.29,-0.18 -1.25,-0.34 -1.21,-0.49 -1.14,-0.63 -1.06,-0.77 -0.95,-0.88 -0.84,-1.00 -0.71,-1.08 -0.58,-1.17 -0.43,-1.22 -0.28,-1.28 -0.28,-1.28 L -0.28,-1.28 Z"/></g><g transform="translate(551.6367797851562 198.42223968505863) rotate(0 0.38037109375 11.410888671875)" stroke="none"><path fill="#1e1e1e" d="M 1.30,-0.13 Q 1.30,-0.13 2.00,2.00 2.70,4.14 2.84,6.89 2.98,9.65 3.01,12.34 3.04,15.03 2.67,17.16 2.31,19.29 1.83,20.77 1.36,22.25 1.31,22.45 1.26,22.66 1.14,22.84 1.03,23.02 0.86,23.15 0.70,23.29 0.50,23.36 0.30,23.43 0.09,23.44 -0.12,23.44 -0.32,23.38 -0.52,23.32 -0.70,23.20 -0.87,23.07 -0.99,22.90 -1.12,22.73 -1.18,22.52 -1.24,22.32 -1.24,22.11 -1.23,21.90 -1.16,21.70 -1.09,21.50 -0.95,21.33 -0.82,21.17 -0.64,21.05 -0.46,20.94 -0.26,20.89 -0.05,20.83 0.15,20.85 0.36,20.87 0.56,20.95 0.75,21.04 0.91,21.18 1.07,21.32 1.18,21.50 1.28,21.69 1.32,21.90 1.36,22.11 1.33,22.32 1.30,22.53 1.21,22.72 1.12,22.91 0.97,23.06 0.82,23.21 0.63,23.30 0.44,23.40 0.23,23.43 0.01,23.46 -0.18,23.42 -0.39,23.38 -0.58,23.27 -0.76,23.17 -0.90,23.01 -1.05,22.85 -1.13,22.66 -1.22,22.46 -1.23,22.25 -1.25,22.04 -1.25,22.04 -1.25,22.04 -1.48,20.46 -1.71,18.88 -1.67,16.99 -1.63,15.10 -1.68,12.45 -1.73,9.81 -1.78,7.20 -1.83,4.60 -1.57,2.36 -1.30,0.13 -1.30,-0.02 -1.30,-0.18 -1.25,-0.33 -1.21,-0.49 -1.14,-0.63 -1.06,-0.76 -0.95,-0.88 -0.84,-1.00 -0.71,-1.08 -0.58,-1.17 -0.43,-1.22 -0.28,-1.28 -0.12,-1.29 0.02,-1.31 0.18,-1.29 0.34,-1.26 0.48,-1.20 0.63,-1.14 0.76,-1.05 0.89,-0.96 0.99,-0.84 1.09,-0.72 1.16,-0.58 1.23,-0.43 1.27,-0.28 1.30,-0.13 1.30,-0.13 L 1.30,-0.13 Z"/></g><g transform="translate(547.0724487304688 199.18298187255863) rotate(0 8.748321533203125 9.128707885742188)" stroke="none"><path fill="#1e1e1e" d="M -1.28,-0.25 Q -1.28,-0.25 -1.36,-1.42 -1.45,-2.60 -0.69,-3.93 0.06,-5.27 1.82,-6.02 3.58,-6.78 5.55,-6.78 7.52,-6.79 9.75,-6.31 11.98,-5.83 13.82,-4.84 15.67,-3.85 16.67,-2.49 17.67,-1.13 18.07,0.38 18.48,1.91 17.87,3.85 17.27,5.79 15.91,7.16 14.55,8.53 13.35,9.46 12.14,10.38 11.17,9.84 10.20,9.29 12.37,9.77 14.54,10.24 16.02,11.18 17.51,12.12 18.11,13.86 18.71,15.60 17.98,17.61 17.25,19.63 14.72,21.02 12.18,22.41 10.24,23.33 8.31,24.25 8.11,24.32 7.91,24.40 7.70,24.41 7.48,24.41 7.28,24.35 7.08,24.29 6.90,24.17 6.73,24.05 6.60,23.88 6.48,23.71 6.41,23.50 6.35,23.30 6.35,23.09 6.36,22.88 6.43,22.68 6.50,22.48 6.63,22.31 6.76,22.14 6.94,22.03 7.12,21.91 7.32,21.86 7.53,21.80 7.74,21.82 7.95,21.83 8.15,21.92 8.34,22.00 8.50,22.14 8.66,22.28 8.77,22.46 8.88,22.65 8.92,22.85 8.96,23.06 8.93,23.27 8.91,23.48 8.81,23.68 8.72,23.87 8.57,24.02 8.42,24.17 8.23,24.27 8.05,24.36 7.83,24.39 7.62,24.42 7.42,24.39 7.21,24.35 7.02,24.25 6.83,24.14 6.69,23.99 6.55,23.83 6.46,23.63 6.38,23.44 6.36,23.23 6.34,23.02 6.39,22.81 6.44,22.60 6.55,22.42 6.66,22.24 6.83,22.11 6.99,21.97 6.99,21.97 6.99,21.97 8.71,20.78 10.43,19.58 11.87,18.51 13.31,17.44 13.32,15.97 13.33,14.49 11.92,14.09 10.51,13.68 8.52,12.28 6.52,10.89 7.98,8.86 9.43,6.83 10.48,6.02 11.53,5.22 12.85,3.84 14.18,2.47 13.75,1.14 13.32,-0.18 12.14,-0.89 10.96,-1.60 9.16,-2.05 7.36,-2.50 6.02,-2.61 4.68,-2.73 3.50,-2.25 2.32,-1.77 1.80,-0.75 1.28,0.25 1.23,0.40 1.18,0.55 1.10,0.69 1.02,0.82 0.90,0.93 0.79,1.04 0.65,1.12 0.51,1.20 0.36,1.25 0.21,1.29 0.05,1.30 -0.10,1.30 -0.25,1.27 -0.41,1.24 -0.55,1.18 -0.69,1.11 -0.82,1.01 -0.94,0.91 -1.03,0.78 -1.13,0.66 -1.19,0.51 -1.26,0.37 -1.28,0.21 -1.31,0.05 -1.29,-0.09 -1.28,-0.25 -1.28,-0.25 L -1.28,-0.25 Z"/></g><g stroke-linecap="round" transform="translate(350.72244554801614 10) rotate(0 30.429028320312483 31.34190673828124)"><path d="M15.21 0 C25.28 0, 35.35 0, 45.64 0 C55.79 0, 60.86 5.07, 60.86 15.21 C60.86 24.73, 60.86 34.24, 60.86 47.47 C60.86 57.61, 55.79 62.68, 45.64 62.68 C33.56 62.68, 21.47 62.68, 15.21 62.68 C5.07 62.68, 0 57.61, 0 47.47 C0 36.25, 0 25.04, 0 15.21 C0 5.07, 5.07 0, 15.21 0" stroke="none" stroke-width="0" fill="#ffffff"/><path d="M15.21 0 C26.43 0, 37.64 0, 45.64 0 M15.21 0 C25.74 0, 36.26 0, 45.64 0 M45.64 0 C55.79 0, 60.86 5.07, 60.86 15.21 M45.64 0 C55.79 0, 60.86 5.07, 60.86 15.21 M60.86 15.21 C60.86 28, 60.86 40.79, 60.86 47.47 M60.86 15.21 C60.86 23.29, 60.86 31.36, 60.86 47.47 M60.86 47.47 C60.86 57.61, 55.79 62.68, 45.64 62.68 M60.86 47.47 C60.86 57.61, 55.79 62.68, 45.64 62.68 M45.64 62.68 C35.78 62.68, 25.92 62.68, 15.21 62.68 M45.64 62.68 C34.3 62.68, 22.95 62.68, 15.21 62.68 M15.21 62.68 C5.07 62.68, 0 57.61, 0 47.47 M15.21 62.68 C5.07 62.68, 0 57.61, 0 47.47 M0 47.47 C0 39.17, 0 30.88, 0 15.21 M0 47.47 C0 39.25, 0 31.03, 0 15.21 M0 15.21 C0 5.07, 5.07 0, 15.21 0 M0 15.21 C0 5.07, 5.07 0, 15.21 0" stroke="#1e1e1e" stroke-width="2" fill="none"/></g><g stroke-linecap="round" transform="translate(113.78155199332863 12.722888183593852) rotate(0 30.429028320312483 31.34190673828124)"><path d="M15.21 0 C25.3 0, 35.39 0, 45.64 0 C55.79 0, 60.86 5.07, 60.86 15.21 C60.86 27.52, 60.86 39.83, 60.86 47.47 C60.86 57.61, 55.79 62.68, 45.64 62.68 C33.68 62.68, 21.72 62.68, 15.21 62.68 C5.07 62.68, 0 57.61, 0 47.47 C0 36.96, 0 26.45, 0 15.21 C0 5.07, 5.07 0, 15.21 0" stroke="none" stroke-width="0" fill="#ffffff"/><path d="M15.21 0 C24.47 0, 33.72 0, 45.64 0 M15.21 0 C26.74 0, 38.26 0, 45.64 0 M45.64 0 C55.79 0, 60.86 5.07, 60.86 15.21 M45.64 0 C55.79 0, 60.86 5.07, 60.86 15.21 M60.86 15.21 C60.86 25.99, 60.86 36.77, 60.86 47.47 M60.86 15.21 C60.86 25.98, 60.86 36.75, 60.86 47.47 M60.86 47.47 C60.86 57.61, 55.79 62.68, 45.64 62.68 M60.86 47.47 C60.86 57.61, 55.79 62.68, 45.64 62.68 M45.64 62.68 C35.08 62.68, 24.51 62.68, 15.21 62.68 M45.64 62.68 C34.19 62.68, 22.74 62.68, 15.21 62.68 M15.21 62.68 C5.07 62.68, 0 57.61, 0 47.47 M15.21 62.68 C5.07 62.68, 0 57.61, 0 47.47 M0 47.47 C0 36.96, 0 26.45, 0 15.21 M0 47.47 C0 36.33, 0 25.19, 0 15.21 M0 15.21 C0 5.07, 5.07 0, 15.21 0 M0 15.21 C0 5.07, 5.07 0, 15.21 0" stroke="#1e1e1e" stroke-width="2" fill="none"/></g><g stroke-linecap="round" transform="translate(107.19410082145365 159.24034423828135) rotate(0 30.429028320312483 31.34190673828124)"><path d="M15.21 0 C23.25 0, 31.28 0, 45.64 0 C55.79 0, 60.86 5.07, 60.86 15.21 C60.86 24.18, 60.86 33.15, 60.86 47.47 C60.86 57.61, 55.79 62.68, 45.64 62.68 C33.83 62.68, 22.01 62.68, 15.21 62.68 C5.07 62.68, 0 57.61, 0 47.47 C0 34.59, 0 21.7, 0 15.21 C0 5.07, 5.07 0, 15.21 0" stroke="none" stroke-width="0" fill="#ffffff"/><path d="M15.21 0 C21.54 0, 27.87 0, 45.64 0 M15.21 0 C23.28 0, 31.34 0, 45.64 0 M45.64 0 C55.79 0, 60.86 5.07, 60.86 15.21 M45.64 0 C55.79 0, 60.86 5.07, 60.86 15.21 M60.86 15.21 C60.86 22.59, 60.86 29.97, 60.86 47.47 M60.86 15.21 C60.86 22.66, 60.86 30.11, 60.86 47.47 M60.86 47.47 C60.86 57.61, 55.79 62.68, 45.64 62.68 M60.86 47.47 C60.86 57.61, 55.79 62.68, 45.64 62.68 M45.64 62.68 C34.49 62.68, 23.33 62.68, 15.21 62.68 M45.64 62.68 C37.34 62.68, 29.05 62.68, 15.21 62.68 M15.21 62.68 C5.07 62.68, 0 57.61, 0 47.47 M15.21 62.68 C5.07 62.68, 0 57.61, 0 47.47 M0 47.47 C0 39.16, 0 30.86, 0 15.21 M0 47.47 C0 34.83, 0 22.19, 0 15.21 M0 15.21 C0 5.07, 5.07 0, 15.21 0 M0 15.21 C0 5.07, 5.07 0, 15.21 0" stroke="#1e1e1e" stroke-width="2" fill="none"/></g><g stroke-linecap="round" transform="translate(351.2005461339536 161.66153564453117) rotate(0 30.429028320312483 31.34190673828124)"><path d="M15.21 0 C23.36 0, 31.5 0, 45.64 0 C55.79 0, 60.86 5.07, 60.86 15.21 C60.86 27.96, 60.86 40.71, 60.86 47.47 C60.86 57.61, 55.79 62.68, 45.64 62.68 C37.16 62.68, 28.68 62.68, 15.21 62.68 C5.07 62.68, 0 57.61, 0 47.47 C0 35.72, 0 23.96, 0 15.21 C0 5.07, 5.07 0, 15.21 0" stroke="none" stroke-width="0" fill="#ffffff"/><path d="M15.21 0 C21.8 0, 28.39 0, 45.64 0 M15.21 0 C26.91 0, 38.61 0, 45.64 0 M45.64 0 C55.79 0, 60.86 5.07, 60.86 15.21 M45.64 0 C55.79 0, 60.86 5.07, 60.86 15.21 M60.86 15.21 C60.86 27.65, 60.86 40.08, 60.86 47.47 M60.86 15.21 C60.86 23.96, 60.86 32.71, 60.86 47.47 M60.86 47.47 C60.86 57.61, 55.79 62.68, 45.64 62.68 M60.86 47.47 C60.86 57.61, 55.79 62.68, 45.64 62.68 M45.64 62.68 C37.4 62.68, 29.17 62.68, 15.21 62.68 M45.64 62.68 C38.22 62.68, 30.8 62.68, 15.21 62.68 M15.21 62.68 C5.07 62.68, 0 57.61, 0 47.47 M15.21 62.68 C5.07 62.68, 0 57.61, 0 47.47 M0 47.47 C0 36.69, 0 25.9, 0 15.21 M0 47.47 C0 34.97, 0 22.47, 0 15.21 M0 15.21 C0 5.07, 5.07 0, 15.21 0 M0 15.21 C0 5.07, 5.07 0, 15.21 0" stroke="#1e1e1e" stroke-width="2" fill="none"/></g><g transform="translate(135.2849455480161 37.99470214843751) rotate(0 0.9128662109375085 12.171606445312477)" stroke="none"><path fill="#1e1e1e" d="M 0.64,-0.10 Q 0.64,-0.10 1.14,0.88 1.64,1.88 1.92,3.92 2.19,5.97 2.31,8.46 2.44,10.94 2.49,13.57 2.55,16.20 2.72,17.94 2.89,19.69 2.67,21.79 2.45,23.89 2.44,24.00 2.43,24.11 2.39,24.20 2.34,24.30 2.27,24.38 2.20,24.45 2.10,24.50 2.01,24.55 1.90,24.57 1.80,24.59 1.69,24.57 1.59,24.55 1.49,24.50 1.40,24.45 1.33,24.38 1.26,24.30 1.21,24.20 1.17,24.11 1.15,24.00 1.14,23.89 1.17,23.79 1.19,23.69 1.24,23.60 1.30,23.50 1.38,23.44 1.46,23.37 1.56,23.33 1.66,23.29 1.76,23.28 1.87,23.28 1.97,23.31 2.07,23.33 2.16,23.39 2.25,23.45 2.31,23.54 2.38,23.62 2.41,23.72 2.45,23.82 2.45,23.93 2.45,24.04 2.41,24.14 2.38,24.24 2.31,24.32 2.25,24.41 2.16,24.47 2.07,24.53 1.97,24.55 1.87,24.58 1.76,24.58 1.66,24.57 1.56,24.53 1.46,24.49 1.38,24.42 1.30,24.35 1.24,24.26 1.19,24.17 1.17,24.07 1.14,23.96 1.14,23.96 1.14,23.96 0.66,21.97 0.17,19.98 -0.03,18.12 -0.25,16.25 -0.28,13.65 -0.32,11.06 -0.41,8.68 -0.49,6.30 -0.72,4.31 -0.94,2.31 -0.79,1.21 -0.64,0.10 -0.65,0.02 -0.65,-0.05 -0.63,-0.12 -0.62,-0.20 -0.59,-0.27 -0.55,-0.34 -0.50,-0.41 -0.45,-0.47 -0.39,-0.51 -0.33,-0.56 -0.25,-0.59 -0.18,-0.63 -0.10,-0.64 -0.02,-0.65 0.04,-0.64 0.12,-0.64 0.20,-0.61 0.27,-0.59 0.34,-0.55 0.41,-0.51 0.46,-0.45 0.52,-0.39 0.56,-0.32 0.60,-0.25 0.62,-0.18 0.64,-0.10 0.64,-0.10 L 0.64,-0.10 Z"/></g><g transform="translate(137.11067796989113 51.99204101562498) rotate(0 5.477221679687489 -0.9128662109374943)" stroke="none"><path fill="#1e1e1e" d="M -0.12,-0.64 Q -0.12,-0.64 0.68,-1.13 1.49,-1.61 2.54,-1.88 3.59,-2.15 4.83,-2.28 6.07,-2.40 8.23,-2.41 10.38,-2.41 10.49,-2.41 10.59,-2.40 10.69,-2.37 10.79,-2.33 10.87,-2.26 10.95,-2.19 11.01,-2.10 11.07,-2.01 11.09,-1.91 11.11,-1.80 11.10,-1.70 11.09,-1.59 11.05,-1.50 11.01,-1.40 10.93,-1.32 10.86,-1.24 10.77,-1.19 10.67,-1.14 10.57,-1.12 10.47,-1.11 10.36,-1.12 10.26,-1.14 10.16,-1.19 10.07,-1.24 9.99,-1.31 9.92,-1.39 9.87,-1.48 9.83,-1.58 9.81,-1.69 9.80,-1.79 9.82,-1.89 9.85,-2.00 9.90,-2.09 9.95,-2.18 10.03,-2.25 10.11,-2.32 10.21,-2.36 10.31,-2.40 10.42,-2.41 10.52,-2.42 10.63,-2.39 10.73,-2.36 10.82,-2.30 10.90,-2.24 10.97,-2.16 11.04,-2.08 11.07,-1.98 11.11,-1.88 11.11,-1.77 11.11,-1.66 11.07,-1.56 11.04,-1.46 10.98,-1.38 10.91,-1.29 10.83,-1.23 10.74,-1.17 10.64,-1.14 10.54,-1.11 10.54,-1.11 10.54,-1.11 8.43,-0.41 6.32,0.28 5.26,0.37 4.19,0.45 3.09,0.68 2.00,0.91 1.06,0.78 0.12,0.64 0.04,0.64 -0.02,0.65 -0.10,0.64 -0.18,0.62 -0.25,0.59 -0.33,0.56 -0.39,0.51 -0.45,0.47 -0.50,0.41 -0.55,0.34 -0.59,0.27 -0.62,0.20 -0.63,0.12 -0.65,0.05 -0.65,-0.02 -0.64,-0.10 -0.62,-0.18 -0.60,-0.25 -0.56,-0.32 -0.52,-0.39 -0.46,-0.45 -0.41,-0.51 -0.34,-0.55 -0.27,-0.59 -0.20,-0.61 -0.12,-0.64 -0.12,-0.64 L -0.12,-0.64 Z"/></g><g transform="translate(147.45652757926612 37.99470214843751) rotate(0 1.2171630859375 10.650158691406233)" stroke="none"><path fill="#1e1e1e" d="M 0.60,-0.24 Q 0.60,-0.24 1.24,0.51 1.88,1.27 2.27,2.78 2.66,4.29 3.00,6.15 3.35,8.01 3.50,10.08 3.65,12.16 3.67,14.08 3.69,16.01 3.38,18.38 3.08,20.76 3.06,20.86 3.05,20.97 3.00,21.06 2.95,21.16 2.87,21.23 2.80,21.31 2.70,21.35 2.61,21.40 2.50,21.41 2.40,21.42 2.29,21.40 2.19,21.38 2.10,21.33 2.00,21.27 1.93,21.19 1.86,21.11 1.82,21.01 1.78,20.92 1.78,20.81 1.77,20.70 1.80,20.60 1.82,20.50 1.88,20.41 1.94,20.32 2.02,20.26 2.11,20.19 2.21,20.15 2.31,20.12 2.42,20.12 2.52,20.12 2.62,20.15 2.72,20.18 2.81,20.25 2.89,20.31 2.95,20.40 3.02,20.48 3.05,20.59 3.07,20.69 3.07,20.79 3.07,20.90 3.03,21.00 2.99,21.10 2.92,21.18 2.85,21.26 2.76,21.32 2.67,21.37 2.57,21.40 2.47,21.42 2.36,21.41 2.25,21.40 2.16,21.36 2.06,21.31 1.98,21.24 1.90,21.17 1.85,21.08 1.80,20.98 1.78,20.88 1.77,20.77 1.77,20.77 1.77,20.77 1.39,18.43 1.01,16.09 0.91,14.22 0.81,12.34 0.70,10.41 0.59,8.48 0.31,6.68 0.03,4.89 -0.22,3.55 -0.48,2.22 -0.54,1.23 -0.60,0.24 -0.63,0.16 -0.65,0.09 -0.65,0.01 -0.65,-0.06 -0.63,-0.14 -0.61,-0.22 -0.58,-0.29 -0.54,-0.36 -0.49,-0.42 -0.44,-0.48 -0.37,-0.52 -0.31,-0.57 -0.24,-0.60 -0.16,-0.63 -0.09,-0.64 -0.01,-0.65 0.06,-0.64 0.14,-0.64 0.22,-0.61 0.29,-0.58 0.36,-0.54 0.42,-0.49 0.48,-0.44 0.53,-0.38 0.57,-0.31 0.60,-0.24 0.60,-0.24 L 0.60,-0.24 Z"/></g><g transform="translate(130.4162932042661 187.09694824218747) rotate(0 1.2171630859375 9.737280273437506)" stroke="none"><path fill="#1e1e1e" d="M 0.65,0 Q 0.65,0 1.06,1.39 1.47,2.79 1.68,4.36 1.88,5.92 2.14,8.19 2.40,10.46 2.64,12.09 2.88,13.71 2.94,16.30 3.00,18.88 3.00,18.99 3.00,19.09 2.96,19.19 2.93,19.29 2.87,19.38 2.80,19.46 2.71,19.52 2.63,19.58 2.52,19.61 2.42,19.64 2.31,19.63 2.21,19.62 2.11,19.59 2.01,19.55 1.93,19.48 1.85,19.41 1.79,19.32 1.74,19.23 1.72,19.12 1.69,19.02 1.71,18.91 1.72,18.81 1.76,18.71 1.81,18.61 1.88,18.54 1.95,18.46 2.05,18.41 2.14,18.36 2.25,18.34 2.35,18.33 2.46,18.34 2.56,18.36 2.66,18.41 2.75,18.46 2.82,18.54 2.90,18.62 2.94,18.71 2.98,18.81 3.00,18.92 3.01,19.02 2.98,19.12 2.96,19.23 2.91,19.32 2.85,19.41 2.77,19.48 2.69,19.55 2.59,19.59 2.49,19.63 2.38,19.63 2.28,19.64 2.18,19.61 2.07,19.58 1.99,19.52 1.90,19.46 1.83,19.37 1.77,19.29 1.74,19.19 1.70,19.09 1.70,19.09 1.70,19.09 0.82,16.65 -0.06,14.21 -0.38,12.51 -0.70,10.80 -0.94,8.52 -1.18,6.25 -1.33,4.52 -1.47,2.80 -1.06,1.40 -0.65,0 -0.64,-0.07 -0.63,-0.15 -0.60,-0.23 -0.58,-0.30 -0.53,-0.37 -0.49,-0.43 -0.43,-0.48 -0.37,-0.54 -0.30,-0.57 -0.23,-0.61 -0.15,-0.63 -0.07,-0.65 0.00,-0.65 0.07,-0.65 0.15,-0.63 0.23,-0.61 0.30,-0.57 0.37,-0.54 0.43,-0.48 0.49,-0.43 0.53,-0.37 0.58,-0.30 0.60,-0.23 0.63,-0.15 0.64,-0.07 0.65,0.00 0.65,0.00 L 0.65,0 Z"/></g><g transform="translate(131.63343187614112 196.83425292968747) rotate(0 7.607250976562497 -1.217187499999966)" stroke="none"><path fill="#1e1e1e" d="M 0.12,-0.64 Q 0.12,-0.64 1.03,-0.65 1.94,-0.66 2.86,-0.80 3.78,-0.95 4.88,-1.18 5.98,-1.41 7.47,-1.86 8.95,-2.30 10.13,-2.62 11.32,-2.95 13.01,-3.27 14.71,-3.59 14.81,-3.60 14.92,-3.61 15.02,-3.58 15.12,-3.56 15.22,-3.50 15.31,-3.44 15.37,-3.36 15.44,-3.28 15.48,-3.18 15.52,-3.08 15.52,-2.97 15.52,-2.87 15.49,-2.77 15.46,-2.66 15.40,-2.58 15.34,-2.49 15.26,-2.43 15.17,-2.37 15.07,-2.33 14.97,-2.30 14.86,-2.30 14.76,-2.30 14.66,-2.34 14.56,-2.37 14.47,-2.44 14.39,-2.51 14.33,-2.59 14.27,-2.68 14.25,-2.79 14.22,-2.89 14.23,-3.00 14.23,-3.10 14.27,-3.20 14.32,-3.30 14.39,-3.38 14.46,-3.46 14.55,-3.51 14.64,-3.56 14.74,-3.59 14.85,-3.61 14.95,-3.59 15.06,-3.58 15.15,-3.53 15.25,-3.49 15.33,-3.41 15.40,-3.34 15.45,-3.24 15.50,-3.15 15.51,-3.04 15.53,-2.94 15.51,-2.83 15.49,-2.73 15.44,-2.64 15.39,-2.54 15.31,-2.47 15.23,-2.40 15.13,-2.36 15.04,-2.31 15.04,-2.31 15.04,-2.31 13.50,-1.58 11.96,-0.84 10.79,-0.44 9.61,-0.03 8.01,0.40 6.41,0.84 5.20,1.04 3.99,1.24 2.77,1.30 1.55,1.36 0.71,1.00 -0.12,0.64 -0.20,0.61 -0.27,0.59 -0.34,0.55 -0.41,0.51 -0.46,0.45 -0.52,0.39 -0.56,0.32 -0.60,0.25 -0.62,0.18 -0.64,0.10 -0.65,0.02 -0.65,-0.05 -0.63,-0.12 -0.62,-0.20 -0.59,-0.27 -0.55,-0.34 -0.50,-0.41 -0.45,-0.47 -0.39,-0.51 -0.33,-0.56 -0.25,-0.59 -0.18,-0.63 -0.10,-0.64 -0.02,-0.65 0.04,-0.64 0.12,-0.64 0.12,-0.64 L 0.12,-0.64 Z"/></g><g transform="translate(144.4136076573911 182.22829589843747) rotate(0 1.8257568359374972 11.258740234375011)" stroke="none"><path fill="#1e1e1e" d="M 0.64,-0.10 Q 0.64,-0.10 1.06,0.90 1.48,1.90 1.77,3.58 2.06,5.25 2.35,7.37 2.64,9.49 3.07,11.75 3.51,14.01 3.71,16.26 3.92,18.51 4.06,20.12 4.20,21.72 4.19,21.83 4.19,21.93 4.16,22.03 4.12,22.13 4.05,22.22 3.99,22.30 3.90,22.36 3.81,22.42 3.71,22.44 3.60,22.47 3.50,22.46 3.39,22.45 3.29,22.41 3.20,22.37 3.12,22.30 3.04,22.23 2.98,22.14 2.93,22.05 2.91,21.94 2.89,21.84 2.90,21.73 2.92,21.63 2.96,21.53 3.01,21.44 3.09,21.36 3.16,21.28 3.25,21.24 3.35,21.19 3.45,21.17 3.56,21.16 3.66,21.18 3.77,21.20 3.86,21.25 3.95,21.30 4.03,21.38 4.10,21.46 4.14,21.55 4.18,21.65 4.19,21.76 4.20,21.86 4.18,21.97 4.15,22.07 4.09,22.16 4.04,22.25 3.96,22.32 3.87,22.38 3.77,22.42 3.67,22.46 3.57,22.46 3.46,22.47 3.36,22.44 3.26,22.41 3.17,22.34 3.09,22.28 3.02,22.20 2.96,22.11 2.93,22.01 2.90,21.91 2.90,21.91 2.90,21.91 2.58,20.35 2.27,18.79 1.72,16.64 1.18,14.49 0.68,12.15 0.17,9.82 -0.09,7.72 -0.36,5.62 -0.57,3.95 -0.78,2.28 -0.71,1.19 -0.64,0.10 -0.65,0.02 -0.65,-0.05 -0.63,-0.12 -0.62,-0.20 -0.59,-0.27 -0.55,-0.34 -0.50,-0.41 -0.45,-0.47 -0.39,-0.51 -0.33,-0.56 -0.25,-0.59 -0.18,-0.62 -0.10,-0.64 -0.02,-0.65 0.04,-0.64 0.12,-0.64 0.20,-0.61 0.27,-0.59 0.34,-0.55 0.41,-0.51 0.46,-0.45 0.52,-0.39 0.56,-0.32 0.60,-0.25 0.62,-0.18 0.64,-0.10 0.64,-0.10 L 0.64,-0.10 Z"/></g><g transform="translate(370.1970060948911 190.13986816406248) rotate(0 1.5214599609375057 7.302929687500011)" stroke="none"><path fill="#1e1e1e" d="M -0.62,-0.20 Q -0.62,-0.20 -0.58,-0.77 -0.54,-1.34 -0.49,-1.45 -0.44,-1.55 -0.37,-1.64 -0.30,-1.73 -0.21,-1.79 -0.12,-1.86 -0.01,-1.91 0.08,-1.95 0.19,-1.97 0.31,-1.99 0.42,-1.98 0.53,-1.97 0.64,-1.94 0.75,-1.90 0.85,-1.84 0.94,-1.78 1.02,-1.70 1.10,-1.61 1.16,-1.51 1.21,-1.42 1.25,-1.31 1.28,-1.20 1.28,-1.08 1.29,-0.97 1.26,-0.86 1.24,-0.75 1.74,0.40 2.24,1.57 2.47,3.34 2.71,5.12 2.98,6.91 3.25,8.70 3.52,10.52 3.78,12.34 3.72,14.17 3.66,16.00 3.65,16.11 3.64,16.22 3.60,16.31 3.56,16.41 3.49,16.49 3.42,16.57 3.33,16.62 3.24,16.68 3.13,16.70 3.03,16.72 2.92,16.71 2.82,16.69 2.72,16.65 2.63,16.60 2.55,16.53 2.48,16.45 2.43,16.36 2.38,16.26 2.36,16.16 2.35,16.05 2.37,15.95 2.39,15.84 2.44,15.75 2.49,15.66 2.57,15.59 2.65,15.51 2.74,15.47 2.84,15.43 2.95,15.42 3.05,15.41 3.16,15.43 3.26,15.46 3.35,15.51 3.44,15.57 3.51,15.65 3.57,15.74 3.61,15.83 3.65,15.93 3.65,16.04 3.66,16.15 3.63,16.25 3.60,16.35 3.53,16.44 3.47,16.52 3.39,16.59 3.30,16.65 3.20,16.68 3.10,16.71 2.99,16.71 2.89,16.71 2.79,16.67 2.69,16.64 2.60,16.57 2.52,16.51 2.46,16.42 2.40,16.33 2.38,16.23 2.35,16.12 2.35,16.12 2.35,16.12 1.89,14.42 1.44,12.71 1.13,10.89 0.81,9.07 0.55,7.24 0.28,5.42 0.08,3.63 -0.12,1.84 -0.14,1.12 -0.17,0.41 -0.36,-0.46 -0.54,-1.34 -0.49,-1.45 -0.44,-1.55 -0.37,-1.64 -0.30,-1.73 -0.21,-1.79 -0.12,-1.86 -0.01,-1.91 0.08,-1.95 0.19,-1.97 0.31,-1.99 0.42,-1.98 0.53,-1.97 0.64,-1.94 0.75,-1.90 0.85,-1.84 0.94,-1.78 1.02,-1.70 1.10,-1.61 1.16,-1.51 1.21,-1.42 1.25,-1.31 1.28,-1.20 1.28,-1.08 1.29,-0.97 1.26,-0.86 1.24,-0.75 0.93,-0.27 0.62,0.20 0.58,0.27 0.55,0.35 0.50,0.41 0.45,0.47 0.39,0.52 0.32,0.56 0.25,0.59 0.18,0.63 0.10,0.64 0.02,0.65 -0.05,0.64 -0.13,0.64 -0.20,0.61 -0.28,0.59 -0.34,0.55 -0.41,0.50 -0.46,0.45 -0.52,0.39 -0.56,0.32 -0.60,0.25 -0.62,0.18 -0.64,0.10 -0.65,0.02 -0.65,-0.05 -0.63,-0.13 -0.62,-0.20 -0.62,-0.20 L -0.62,-0.20 Z"/></g><g transform="translate(372.6313322667661 197.4427978515625) rotate(0 8.824438476562506 -1.2171630859375)" stroke="none"><path fill="#1e1e1e" d="M -0.12,-0.64 Q -0.12,-0.64 0.70,-1.01 1.54,-1.39 2.85,-1.49 4.17,-1.60 5.53,-1.81 6.88,-2.03 8.40,-2.12 9.92,-2.21 11.57,-2.38 13.21,-2.55 14.97,-2.73 16.73,-2.90 16.84,-2.91 16.94,-2.92 17.04,-2.89 17.15,-2.86 17.23,-2.80 17.32,-2.74 17.38,-2.65 17.45,-2.57 17.48,-2.47 17.52,-2.37 17.51,-2.26 17.51,-2.15 17.48,-2.05 17.45,-1.95 17.38,-1.87 17.32,-1.78 17.23,-1.72 17.14,-1.67 17.04,-1.64 16.93,-1.61 16.83,-1.62 16.72,-1.62 16.62,-1.66 16.53,-1.70 16.44,-1.77 16.36,-1.84 16.31,-1.93 16.26,-2.02 16.23,-2.13 16.21,-2.23 16.22,-2.34 16.24,-2.44 16.28,-2.54 16.33,-2.63 16.40,-2.71 16.47,-2.79 16.57,-2.84 16.66,-2.89 16.77,-2.90 16.87,-2.92 16.98,-2.90 17.08,-2.88 17.17,-2.83 17.27,-2.78 17.34,-2.71 17.41,-2.63 17.46,-2.53 17.50,-2.43 17.51,-2.33 17.52,-2.22 17.50,-2.12 17.48,-2.02 17.42,-1.93 17.36,-1.83 17.28,-1.77 17.20,-1.70 17.10,-1.66 17.00,-1.62 17.00,-1.62 17.00,-1.62 15.24,-1.04 13.47,-0.46 11.77,-0.21 10.06,0.04 8.63,0.12 7.21,0.20 5.76,0.40 4.30,0.60 3.13,0.64 1.95,0.69 1.04,0.66 0.12,0.64 0.04,0.64 -0.02,0.65 -0.10,0.64 -0.18,0.62 -0.25,0.59 -0.33,0.56 -0.39,0.51 -0.45,0.47 -0.50,0.41 -0.55,0.34 -0.59,0.27 -0.62,0.20 -0.63,0.12 -0.65,0.05 -0.65,-0.02 -0.64,-0.10 -0.62,-0.18 -0.60,-0.25 -0.56,-0.32 -0.52,-0.39 -0.46,-0.45 -0.41,-0.51 -0.34,-0.55 -0.27,-0.59 -0.20,-0.61 -0.12,-0.64 -0.12,-0.64 L -0.12,-0.64 Z"/></g><g transform="translate(386.0201017980161 184.66262207031247) rotate(0 2.434326171875 10.954443359375034)" stroke="none"><path fill="#1e1e1e" d="M 0.58,-0.29 Q 0.58,-0.29 1.33,0.64 2.09,1.58 2.55,3.56 3.01,5.53 3.35,7.75 3.70,9.97 4.14,12.64 4.59,15.31 4.93,18.22 5.27,21.12 5.27,21.23 5.27,21.34 5.24,21.44 5.21,21.54 5.15,21.63 5.09,21.71 5.00,21.77 4.91,21.84 4.81,21.87 4.71,21.90 4.60,21.90 4.50,21.89 4.40,21.86 4.30,21.82 4.22,21.75 4.13,21.69 4.08,21.60 4.02,21.51 3.99,21.40 3.97,21.30 3.98,21.20 3.98,21.09 4.03,20.99 4.07,20.89 4.14,20.81 4.21,20.74 4.30,20.68 4.40,20.63 4.50,20.61 4.60,20.59 4.71,20.61 4.81,20.62 4.91,20.67 5.00,20.71 5.08,20.79 5.15,20.86 5.20,20.96 5.25,21.06 5.26,21.16 5.28,21.27 5.26,21.37 5.24,21.47 5.19,21.57 5.13,21.66 5.05,21.73 4.97,21.80 4.88,21.84 4.78,21.89 4.67,21.89 4.57,21.90 4.46,21.88 4.36,21.85 4.27,21.79 4.18,21.74 4.12,21.65 4.05,21.57 4.01,21.47 3.98,21.37 3.98,21.37 3.98,21.37 3.22,18.54 2.46,15.71 1.91,13.02 1.36,10.34 1.02,8.19 0.67,6.04 0.34,4.32 0.00,2.61 -0.28,1.45 -0.58,0.29 -0.61,0.21 -0.64,0.14 -0.64,0.06 -0.65,-0.01 -0.64,-0.09 -0.63,-0.16 -0.60,-0.24 -0.57,-0.31 -0.52,-0.38 -0.48,-0.44 -0.42,-0.49 -0.36,-0.54 -0.29,-0.58 -0.22,-0.61 -0.14,-0.63 -0.06,-0.65 0.01,-0.65 0.09,-0.65 0.16,-0.62 0.24,-0.60 0.31,-0.57 0.38,-0.53 0.44,-0.47 0.50,-0.42 0.54,-0.35 0.58,-0.29 0.58,-0.29 L 0.58,-0.29 Z"/></g><g transform="translate(372.6313322667661 32.517480468749966) rotate(0 0.6085937500000114 10.650158691406261)" stroke="none"><path fill="#1e1e1e" d="M 0.65,-0.08 Q 0.65,-0.08 1.07,1.28 1.48,2.65 1.58,4.70 1.68,6.74 1.72,8.82 1.76,10.91 1.75,13.02 1.74,15.13 1.78,17.89 1.82,20.64 1.81,20.75 1.80,20.86 1.76,20.95 1.72,21.05 1.65,21.13 1.57,21.21 1.48,21.26 1.39,21.31 1.29,21.33 1.18,21.35 1.08,21.34 0.97,21.32 0.88,21.28 0.78,21.23 0.71,21.15 0.63,21.08 0.58,20.98 0.54,20.89 0.52,20.78 0.51,20.68 0.53,20.57 0.55,20.47 0.60,20.38 0.65,20.28 0.73,20.21 0.81,20.14 0.91,20.10 1.01,20.06 1.11,20.05 1.22,20.04 1.32,20.07 1.42,20.09 1.51,20.15 1.60,20.21 1.67,20.29 1.74,20.37 1.77,20.47 1.81,20.57 1.81,20.68 1.81,20.79 1.78,20.89 1.75,20.99 1.69,21.07 1.63,21.16 1.54,21.22 1.46,21.28 1.35,21.32 1.25,21.35 1.15,21.34 1.04,21.34 0.94,21.30 0.84,21.27 0.76,21.20 0.67,21.13 0.62,21.04 0.56,20.96 0.53,20.85 0.51,20.75 0.51,20.75 0.51,20.75 -0.02,17.95 -0.57,15.15 -0.60,13.05 -0.64,10.95 -0.66,8.89 -0.68,6.83 -0.73,4.88 -0.78,2.94 -0.72,1.51 -0.65,0.08 -0.65,0.00 -0.65,-0.07 -0.63,-0.15 -0.61,-0.23 -0.57,-0.30 -0.54,-0.37 -0.48,-0.43 -0.43,-0.48 -0.37,-0.53 -0.30,-0.58 -0.23,-0.60 -0.15,-0.63 -0.08,-0.64 -0.00,-0.65 0.07,-0.64 0.15,-0.63 0.22,-0.61 0.30,-0.58 0.36,-0.53 0.43,-0.49 0.48,-0.43 0.53,-0.37 0.57,-0.30 0.61,-0.23 0.63,-0.15 0.65,-0.08 0.65,-0.08 L 0.65,-0.08 Z"/></g><g transform="translate(375.0656584386411 45.90625) rotate(0 5.172949218750006 -1.2171630859375)" stroke="none"><path fill="#1e1e1e" d="M -0.20,-0.62 Q -0.20,-0.62 0.78,-1.13 1.78,-1.64 3.13,-2.01 4.48,-2.39 5.55,-2.69 6.61,-3.00 8.28,-3.02 9.94,-3.05 10.05,-3.04 10.16,-3.04 10.25,-3.00 10.35,-2.96 10.43,-2.89 10.51,-2.82 10.57,-2.73 10.62,-2.64 10.65,-2.53 10.67,-2.43 10.66,-2.32 10.65,-2.22 10.60,-2.12 10.56,-2.03 10.48,-1.95 10.41,-1.87 10.32,-1.82 10.22,-1.77 10.12,-1.75 10.01,-1.74 9.91,-1.75 9.80,-1.77 9.71,-1.82 9.62,-1.87 9.54,-1.95 9.47,-2.03 9.43,-2.12 9.38,-2.22 9.37,-2.32 9.36,-2.43 9.38,-2.53 9.40,-2.64 9.46,-2.73 9.51,-2.82 9.59,-2.89 9.68,-2.96 9.77,-3.00 9.87,-3.04 9.98,-3.04 10.09,-3.05 10.19,-3.02 10.29,-2.99 10.38,-2.93 10.47,-2.87 10.53,-2.79 10.59,-2.70 10.63,-2.60 10.66,-2.50 10.66,-2.39 10.66,-2.29 10.63,-2.19 10.59,-2.09 10.53,-2.00 10.47,-1.92 10.38,-1.86 10.29,-1.80 10.19,-1.77 10.08,-1.74 10.09,-1.74 10.09,-1.74 8.65,-1.34 7.21,-0.94 6.10,-0.62 4.99,-0.30 3.70,-0.02 2.41,0.24 1.31,0.43 0.20,0.62 0.13,0.63 0.05,0.65 -0.02,0.65 -0.10,0.64 -0.18,0.62 -0.25,0.60 -0.32,0.56 -0.39,0.52 -0.45,0.46 -0.50,0.41 -0.55,0.34 -0.59,0.28 -0.61,0.20 -0.64,0.13 -0.64,0.05 -0.65,-0.02 -0.64,-0.10 -0.63,-0.18 -0.59,-0.25 -0.56,-0.32 -0.52,-0.39 -0.47,-0.45 -0.41,-0.50 -0.35,-0.55 -0.27,-0.58 -0.20,-0.62 -0.20,-0.62 L -0.20,-0.62 Z"/></g><g transform="translate(387.2372892980161 31.300317382812466) rotate(0 0.608569335937517 10.954443359375034)" stroke="none"><path fill="#1e1e1e" d="M 0.65,0 Q 0.65,0 0.93,2.27 1.21,4.54 1.36,7.75 1.52,10.96 1.68,13.73 1.84,16.49 1.82,18.95 1.80,21.40 1.79,21.51 1.78,21.61 1.74,21.71 1.69,21.81 1.62,21.88 1.55,21.96 1.45,22.01 1.36,22.06 1.26,22.08 1.15,22.10 1.05,22.08 0.94,22.07 0.85,22.02 0.75,21.97 0.68,21.89 0.60,21.81 0.56,21.72 0.51,21.62 0.50,21.52 0.49,21.41 0.51,21.31 0.53,21.20 0.59,21.11 0.64,21.02 0.72,20.95 0.80,20.88 0.90,20.84 1.00,20.80 1.11,20.79 1.21,20.79 1.31,20.82 1.42,20.84 1.51,20.90 1.59,20.96 1.66,21.05 1.72,21.13 1.76,21.23 1.79,21.33 1.79,21.44 1.79,21.54 1.76,21.64 1.73,21.74 1.66,21.83 1.60,21.91 1.51,21.97 1.43,22.03 1.32,22.06 1.22,22.09 1.12,22.09 1.01,22.08 0.91,22.04 0.81,22.01 0.73,21.94 0.65,21.87 0.59,21.78 0.54,21.69 0.51,21.59 0.49,21.48 0.49,21.48 0.49,21.48 0.17,19.08 -0.14,16.67 -0.48,13.88 -0.82,11.09 -1.01,7.82 -1.21,4.54 -0.93,2.27 -0.65,0 -0.64,-0.07 -0.63,-0.15 -0.60,-0.23 -0.58,-0.30 -0.53,-0.37 -0.49,-0.43 -0.43,-0.48 -0.37,-0.54 -0.30,-0.57 -0.23,-0.61 -0.15,-0.63 -0.07,-0.65 0.00,-0.65 0.07,-0.65 0.15,-0.63 0.23,-0.61 0.30,-0.57 0.37,-0.54 0.43,-0.48 0.49,-0.43 0.53,-0.37 0.58,-0.30 0.60,-0.23 0.63,-0.15 0.64,-0.07 0.65,0.00 0.65,0.00 L 0.65,0 Z"/></g></svg>