<svg version="1.1" xmlns="http://www.w3.org/2000/svg" viewBox="0 0 407.5555114746094 326.2499694824219" width="407.5555114746094" height="326.2499694824219" filter="invert(93%) hue-rotate(180deg)" class="excalidraw-svg">
  <!-- svg-source:excalidraw -->
  
  <defs>
    <style class="style-fonts">
      @font-face {
        font-family: "Virgil";
        src: url("https://excalidraw.com/Virgil.woff2");
      }
      @font-face {
        font-family: "Cascadia";
        src: url("https://excalidraw.com/Cascadia.woff2");
      }
      @font-face {
        font-family: "Assistant";
        src: url("https://excalidraw.com/Assistant-Regular.woff2");
      }
    </style>
    
  </defs>
  <rect x="0" y="0" width="407.5555114746094" height="326.2499694824219" fill="#ffffff"/><g stroke-linecap="round"><g transform="translate(10.055572509765625 75.97221374511719) rotate(0 193.74996948242188 -0.6944427490234375)"><path d="M0 0 C64.58 -0.23, 322.92 -1.16, 387.5 -1.39 M0 0 C64.58 -0.23, 322.92 -1.16, 387.5 -1.39" stroke="#1e1e1e" stroke-width="2" fill="none"/></g></g><mask/><g stroke-linecap="round"><g transform="translate(10 182.47218322753906) rotate(0 193.74996948242188 -0.6944427490234375)"><path d="M0 0 C64.58 -0.23, 322.92 -1.16, 387.5 -1.39 M0 0 C64.58 -0.23, 322.92 -1.16, 387.5 -1.39" stroke="#1e1e1e" stroke-width="2" fill="none"/></g></g><mask/><g stroke-linecap="round" transform="translate(173.94448852539062 148.1944580078125) rotate(0 33.6805419921875 34.375)"><path d="M67.36 34.38 C67.36 36.17, 67.22 37.98, 66.95 39.75 C66.67 41.52, 66.26 43.29, 65.71 45 C65.17 46.7, 64.49 48.38, 63.69 49.98 C62.89 51.58, 61.96 53.13, 60.93 54.58 C59.9 56.03, 58.74 57.41, 57.5 58.68 C56.25 59.95, 54.9 61.13, 53.48 62.18 C52.06 63.24, 50.54 64.19, 48.97 65 C47.41 65.82, 45.76 66.51, 44.09 67.07 C42.42 67.62, 40.68 68.05, 38.95 68.33 C37.21 68.61, 35.44 68.75, 33.68 68.75 C31.92 68.75, 30.15 68.61, 28.41 68.33 C26.68 68.05, 24.94 67.62, 23.27 67.07 C21.6 66.51, 19.95 65.82, 18.39 65 C16.83 64.19, 15.3 63.24, 13.88 62.18 C12.46 61.13, 11.11 59.95, 9.86 58.68 C8.62 57.41, 7.46 56.03, 6.43 54.58 C5.4 53.13, 4.47 51.58, 3.67 49.98 C2.87 48.38, 2.19 46.7, 1.65 45 C1.11 43.29, 0.69 41.52, 0.41 39.75 C0.14 37.98, 0 36.17, 0 34.38 C0 32.58, 0.14 30.77, 0.41 29 C0.69 27.23, 1.11 25.46, 1.65 23.75 C2.19 22.05, 2.87 20.37, 3.67 18.77 C4.47 17.17, 5.4 15.62, 6.43 14.17 C7.46 12.72, 8.62 11.34, 9.86 10.07 C11.11 8.8, 12.46 7.62, 13.88 6.57 C15.3 5.51, 16.83 4.56, 18.39 3.75 C19.95 2.93, 21.6 2.24, 23.27 1.68 C24.94 1.13, 26.68 0.7, 28.41 0.42 C30.15 0.14, 31.92 0, 33.68 0 C35.44 0, 37.21 0.14, 38.95 0.42 C40.68 0.7, 42.42 1.13, 44.09 1.68 C45.76 2.24, 47.41 2.93, 48.97 3.75 C50.54 4.56, 52.06 5.51, 53.48 6.57 C54.9 7.62, 56.25 8.8, 57.5 10.07 C58.74 11.34, 59.9 12.72, 60.93 14.17 C61.96 15.62, 62.89 17.17, 63.69 18.77 C64.49 20.37, 65.17 22.05, 65.71 23.75 C66.26 25.46, 66.67 27.23, 66.95 29 C67.22 30.77, 67.29 33.48, 67.36 34.37 C67.43 35.27, 67.43 33.48, 67.36 34.38" stroke="#1e1e1e" stroke-width="2" fill="none"/></g><g transform="translate(203.11111450195312 69.02777099609375) rotate(0 0.6944580078125 6.25)" stroke="none"><path fill="#1e1e1e" d="M 0.36,0.54 Q 0.36,0.54 -0.13,1.09 -0.62,1.65 -1.03,2.00 -1.44,2.35 -1.88,2.93 -2.33,3.50 -2.97,4.28 -3.61,5.06 -3.94,6.04 -4.27,7.02 -4.07,7.64 -3.86,8.26 -3.55,8.92 -3.23,9.58 -2.55,10.05 -1.88,10.52 -1.23,10.85 -0.58,11.19 0.35,10.99 1.29,10.79 1.96,10.47 2.62,10.15 3.11,9.71 3.61,9.28 4.20,8.79 4.79,8.30 4.89,7.77 4.98,7.24 5.28,6.69 5.57,6.13 5.37,5.36 5.17,4.58 4.83,4.10 4.49,3.63 4.09,3.20 3.69,2.77 1.98,2.74 0.28,2.71 0.17,2.70 0.07,2.70 -0.02,2.66 -0.12,2.62 -0.20,2.55 -0.28,2.48 -0.34,2.39 -0.39,2.29 -0.41,2.19 -0.43,2.09 -0.42,1.98 -0.41,1.87 -0.36,1.78 -0.32,1.68 -0.24,1.61 -0.17,1.53 -0.07,1.48 0.01,1.43 0.11,1.42 0.22,1.40 0.32,1.42 0.43,1.44 0.52,1.49 0.62,1.54 0.69,1.62 0.76,1.69 0.80,1.79 0.85,1.89 0.86,1.99 0.87,2.10 0.84,2.20 0.82,2.31 0.76,2.40 0.71,2.49 0.63,2.56 0.55,2.62 0.45,2.66 0.35,2.70 0.24,2.70 0.14,2.71 0.03,2.68 -0.06,2.65 -0.15,2.59 -0.23,2.53 -0.30,2.44 -0.36,2.36 -0.39,2.26 -0.43,2.16 -0.42,2.05 -0.42,1.94 -0.39,1.84 -0.35,1.74 -0.29,1.66 -0.22,1.58 -0.13,1.52 -0.05,1.46 0.05,1.43 0.15,1.40 0.15,1.40 0.15,1.40 2.30,0.91 4.46,0.42 4.99,0.71 5.53,1.00 5.88,1.40 6.24,1.80 6.53,2.39 6.83,2.97 7.22,3.92 7.62,4.87 7.79,5.54 7.97,6.20 7.80,6.81 7.64,7.41 7.39,8.02 7.14,8.63 6.90,9.16 6.67,9.70 6.10,10.32 5.52,10.94 4.91,11.33 4.30,11.72 3.56,12.07 2.83,12.42 1.98,12.76 1.13,13.10 0.44,13.28 -0.24,13.45 -1.25,13.08 -2.25,12.71 -2.99,12.30 -3.72,11.90 -4.21,11.59 -4.70,11.28 -5.07,10.55 -5.45,9.81 -5.78,9.05 -6.12,8.28 -6.30,7.64 -6.48,7.01 -6.33,6.43 -6.18,5.84 -5.97,5.28 -5.76,4.72 -5.38,4.02 -4.99,3.32 -4.69,2.86 -4.38,2.40 -4.00,1.94 -3.62,1.48 -3.20,1.10 -2.77,0.71 -2.27,0.33 -1.76,-0.05 -1.06,-0.30 -0.36,-0.54 -0.29,-0.58 -0.22,-0.61 -0.14,-0.63 -0.06,-0.65 0.01,-0.65 0.08,-0.65 0.16,-0.63 0.24,-0.61 0.31,-0.57 0.38,-0.53 0.44,-0.48 0.49,-0.42 0.54,-0.36 0.58,-0.29 0.61,-0.22 0.64,-0.14 0.64,-0.06 0.65,0.01 0.64,0.08 0.63,0.16 0.60,0.24 0.57,0.31 0.53,0.37 0.48,0.44 0.42,0.49 0.36,0.54 0.36,0.54 L 0.36,0.54 Z"/></g><g transform="translate(203.80557250976562 79.44444274902344) rotate(0 2.77777099609375 65.97222137451172)" stroke="none"><path fill="#1e1e1e" d="M 0.62,-0.20 Q 0.62,-0.20 0.96,0.34 1.30,0.89 1.47,1.84 1.64,2.79 1.66,3.52 1.69,4.25 1.97,4.87 2.26,5.48 2.31,6.12 2.37,6.76 2.17,7.97 1.97,9.18 1.89,9.90 1.80,10.62 1.79,11.16 1.78,11.69 1.78,12.50 1.77,13.32 1.77,14.23 1.77,15.15 1.77,16.17 1.78,17.19 1.79,18.22 1.79,19.26 1.80,20.30 1.80,21.34 1.80,21.99 1.80,22.64 1.80,23.32 1.81,24.00 1.81,24.68 1.81,25.37 1.81,26.06 1.81,26.75 1.81,27.85 1.81,28.94 1.99,29.45 2.16,29.95 2.27,30.72 2.37,31.49 2.41,32.22 2.45,32.95 2.47,34.07 2.50,35.19 2.50,35.86 2.50,36.52 2.50,37.20 2.50,37.88 2.50,38.57 2.51,39.26 2.51,40.16 2.51,41.06 2.51,41.99 2.51,42.92 2.51,43.94 2.51,44.96 2.50,45.61 2.50,46.26 2.50,47.14 2.50,48.01 2.51,48.74 2.51,49.47 2.51,50.17 2.51,50.87 2.51,51.56 2.51,52.26 2.51,52.95 2.51,53.65 2.51,54.34 2.51,55.04 2.51,55.73 2.51,56.43 2.51,57.12 2.51,57.82 2.52,58.51 2.52,59.20 2.53,59.90 2.53,60.59 2.79,61.18 3.04,61.76 3.12,62.55 3.20,63.34 3.22,64.05 3.23,64.75 3.23,65.45 3.24,66.15 3.23,66.80 3.22,67.46 3.51,68.05 3.79,68.65 3.86,69.46 3.93,70.26 3.95,70.98 3.96,71.69 3.96,72.39 3.96,73.09 3.96,73.75 3.95,74.40 4.23,74.99 4.51,75.59 4.58,76.40 4.65,77.21 4.66,77.92 4.67,78.64 4.67,79.34 4.67,80.04 4.67,80.58 4.67,81.13 4.67,81.95 4.67,82.76 4.67,83.48 4.67,84.19 4.68,84.89 4.68,85.59 4.68,86.14 4.68,86.69 4.68,87.50 4.68,88.32 4.67,89.03 4.67,89.75 4.67,90.62 4.67,91.50 4.94,92.21 5.21,92.92 5.27,93.78 5.32,94.65 5.22,95.25 5.12,95.84 4.96,96.51 4.80,97.17 4.75,98.00 4.69,98.83 4.69,99.51 4.68,100.18 4.68,101.07 4.68,101.97 4.68,102.60 4.68,103.23 4.68,104.29 4.68,105.36 4.68,106.21 4.68,107.05 4.67,107.74 4.66,108.42 4.94,109.01 5.22,109.61 5.28,110.63 5.35,111.65 5.36,112.29 5.37,112.94 5.37,113.81 5.37,114.68 5.37,115.41 5.38,116.13 5.38,116.69 5.38,117.24 5.51,117.78 5.64,118.32 5.83,119.25 6.01,120.18 6.04,121.13 6.06,122.09 6.06,122.71 6.06,123.32 6.34,124.08 6.61,124.85 6.68,125.67 6.74,126.50 6.75,127.22 6.76,127.94 6.49,129.83 6.21,131.72 6.19,131.83 6.17,131.93 6.12,132.02 6.07,132.12 6.00,132.19 5.92,132.26 5.82,132.31 5.73,132.35 5.62,132.37 5.52,132.38 5.41,132.35 5.31,132.33 5.22,132.28 5.13,132.22 5.06,132.14 4.99,132.06 4.95,131.96 4.91,131.86 4.90,131.76 4.90,131.65 4.93,131.55 4.95,131.45 5.01,131.36 5.07,131.27 5.16,131.21 5.24,131.14 5.34,131.11 5.44,131.07 5.55,131.07 5.66,131.07 5.76,131.11 5.86,131.14 5.94,131.21 6.03,131.27 6.09,131.36 6.15,131.45 6.17,131.55 6.20,131.65 6.20,131.76 6.19,131.86 6.15,131.96 6.11,132.06 6.04,132.14 5.98,132.22 5.88,132.28 5.79,132.33 5.69,132.35 5.59,132.38 5.48,132.37 5.37,132.35 5.28,132.31 5.18,132.26 5.10,132.19 5.03,132.12 4.98,132.02 4.93,131.93 4.91,131.83 4.89,131.72 4.89,131.72 4.89,131.72 4.61,130.19 4.33,128.65 4.33,127.96 4.32,127.28 4.30,126.62 4.29,125.96 4.21,125.37 4.14,124.78 3.89,124.09 3.64,123.41 3.63,122.23 3.62,121.06 3.55,120.24 3.48,119.42 3.21,118.33 2.95,117.24 2.95,116.69 2.95,116.14 2.95,115.41 2.95,114.69 2.94,113.82 2.94,112.96 2.93,112.34 2.93,111.72 2.87,110.75 2.81,109.79 2.54,109.18 2.28,108.58 2.27,107.81 2.25,107.05 2.25,106.21 2.25,105.36 2.25,104.29 2.26,103.23 2.26,102.60 2.26,101.96 2.26,101.07 2.26,100.17 2.27,99.46 2.28,98.75 2.32,97.96 2.37,97.18 2.61,96.68 2.85,96.17 2.88,95.10 2.91,94.02 2.84,93.47 2.77,92.91 2.52,92.25 2.27,91.59 2.26,90.67 2.26,89.75 2.26,89.03 2.26,88.32 2.26,87.50 2.26,86.69 2.26,86.14 2.26,85.59 2.26,84.89 2.26,84.19 2.26,83.48 2.26,82.76 2.26,81.95 2.26,81.13 2.26,80.59 2.26,80.04 2.26,79.35 2.26,78.66 2.25,77.99 2.24,77.31 2.18,76.54 2.12,75.76 1.86,75.16 1.59,74.56 1.59,73.83 1.58,73.09 1.58,72.40 1.58,71.71 1.57,71.04 1.57,70.37 1.51,69.58 1.46,68.80 1.19,67.82 0.91,66.84 0.92,66.15 0.92,65.46 0.92,64.78 0.92,64.10 0.90,63.48 0.88,62.86 0.66,62.26 0.43,61.66 0.33,61.13 0.24,60.59 0.24,59.90 0.24,59.20 0.25,58.51 0.26,57.82 0.26,57.12 0.26,56.43 0.26,55.73 0.26,55.04 0.26,54.34 0.26,53.65 0.26,52.95 0.26,52.26 0.26,51.56 0.26,50.87 0.26,50.17 0.26,49.47 0.26,48.74 0.26,48.01 0.26,47.14 0.26,46.26 0.26,45.61 0.26,44.96 0.26,43.94 0.26,42.92 0.26,41.99 0.26,41.06 0.26,40.16 0.26,39.26 0.26,38.57 0.26,37.88 0.26,37.20 0.26,36.53 0.25,35.87 0.25,35.22 0.23,34.14 0.21,33.06 0.18,32.42 0.15,31.77 0.08,31.18 0.01,30.60 -0.20,29.78 -0.42,28.97 -0.42,27.86 -0.42,26.75 -0.42,26.06 -0.42,25.37 -0.42,24.68 -0.42,24.00 -0.42,23.32 -0.42,22.64 -0.41,21.99 -0.41,21.34 -0.41,20.30 -0.40,19.26 -0.40,18.22 -0.39,17.19 -0.38,16.17 -0.38,15.15 -0.38,14.23 -0.37,13.30 -0.36,12.47 -0.35,11.63 -0.33,11.03 -0.31,10.44 -0.16,9.48 -0.01,8.53 0.14,7.71 0.29,6.89 0.24,6.22 0.19,5.54 -0.06,4.97 -0.32,4.41 -0.34,3.69 -0.36,2.98 -0.43,2.24 -0.50,1.49 -0.56,0.85 -0.62,0.20 -0.63,0.13 -0.65,0.05 -0.65,-0.02 -0.64,-0.10 -0.62,-0.18 -0.60,-0.25 -0.56,-0.32 -0.52,-0.39 -0.46,-0.45 -0.41,-0.50 -0.34,-0.55 -0.28,-0.59 -0.20,-0.61 -0.13,-0.64 -0.05,-0.64 0.02,-0.65 0.10,-0.64 0.18,-0.63 0.25,-0.59 0.32,-0.56 0.39,-0.52 0.45,-0.47 0.50,-0.41 0.55,-0.35 0.58,-0.27 0.62,-0.20 0.62,-0.20 L 0.62,-0.20 Z"/></g><g transform="translate(210.05557250976562 209.3055419921875) rotate(0 -0.000030517578125 3.47222900390625)" stroke="none"><path fill="#1e1e1e" d="M 0.62,0.20 Q 0.62,0.20 0.60,0.86 0.57,1.52 0.50,2.21 0.43,2.90 0.84,4.73 1.26,6.57 1.27,6.67 1.29,6.78 1.27,6.88 1.26,6.99 1.21,7.08 1.16,7.17 1.08,7.25 1.00,7.32 0.90,7.36 0.81,7.41 0.70,7.42 0.60,7.43 0.49,7.41 0.39,7.38 0.30,7.33 0.21,7.27 0.14,7.19 0.07,7.11 0.03,7.01 -0.00,6.91 -0.00,6.81 -0.01,6.70 0.01,6.60 0.04,6.50 0.10,6.41 0.16,6.32 0.24,6.26 0.33,6.19 0.43,6.16 0.53,6.13 0.64,6.13 0.74,6.13 0.84,6.16 0.94,6.20 1.03,6.26 1.11,6.32 1.17,6.41 1.23,6.50 1.26,6.60 1.29,6.71 1.28,6.81 1.28,6.92 1.24,7.02 1.20,7.12 1.13,7.20 1.06,7.28 0.97,7.33 0.88,7.39 0.77,7.41 0.67,7.43 0.56,7.42 0.46,7.41 0.36,7.36 0.26,7.32 0.19,7.24 0.11,7.17 0.06,7.08 0.01,6.98 0.01,6.98 0.01,6.98 -0.63,5.55 -1.28,4.12 -1.45,3.01 -1.62,1.90 -1.50,1.39 -1.37,0.87 -0.99,0.33 -0.62,-0.20 -0.58,-0.27 -0.55,-0.35 -0.50,-0.41 -0.45,-0.47 -0.39,-0.52 -0.32,-0.56 -0.25,-0.59 -0.18,-0.63 -0.10,-0.64 -0.02,-0.65 0.05,-0.64 0.13,-0.64 0.20,-0.61 0.28,-0.59 0.34,-0.55 0.41,-0.50 0.46,-0.45 0.52,-0.39 0.56,-0.32 0.60,-0.25 0.62,-0.18 0.64,-0.10 0.65,-0.02 0.65,0.05 0.63,0.13 0.62,0.20 0.62,0.20 L 0.62,0.20 Z"/></g><g stroke-linecap="round" transform="translate(142.69442749023438 10) rotate(0 63.888885498046875 133.6805419921875)"><path d="M31.94 0 C52.9 0, 73.86 0, 95.83 0 M95.83 0 C117.13 0, 127.78 10.65, 127.78 31.94 M127.78 31.94 C127.78 74.95, 127.78 117.96, 127.78 235.42 M127.78 235.42 C127.78 256.71, 117.13 267.36, 95.83 267.36 M95.83 267.36 C71.26 267.36, 46.69 267.36, 31.94 267.36 M31.94 267.36 C10.65 267.36, 0 256.71, 0 235.42 M0 235.42 C0 183.11, 0 130.81, 0 31.94 M0 31.94 C0 10.65, 10.65 0, 31.94 0" stroke="#9c36b5" stroke-width="2.5" fill="none" stroke-dasharray="8 10"/></g><g transform="translate(176.72219848632812 296.8055419921875) rotate(0 -8.33331298828125 7.9860992431640625)" stroke="none"><path fill="#9c36b5" d="M -0.09,0.65 Q -0.09,0.65 -1.52,0.70 -2.95,0.75 -4.11,0.71 -5.26,0.67 -6.22,0.88 -7.19,1.09 -8.41,1.39 -9.62,1.68 -10.61,2.17 -11.59,2.66 -12.52,3.41 -13.45,4.15 -14.20,5.01 -14.95,5.87 -15.62,6.94 -16.29,8.01 -16.32,8.75 -16.35,9.49 -15.87,10.19 -15.39,10.89 -14.65,11.81 -13.91,12.72 -12.75,13.40 -11.60,14.07 -10.43,14.34 -9.27,14.62 -7.81,14.78 -6.36,14.94 -5.02,14.86 -3.68,14.79 -1.14,14.78 1.40,14.78 1.50,14.77 1.61,14.76 1.71,14.78 1.82,14.80 1.91,14.86 2.00,14.91 2.07,14.99 2.14,15.07 2.17,15.17 2.21,15.27 2.22,15.38 2.23,15.48 2.20,15.59 2.17,15.69 2.11,15.78 2.05,15.86 1.97,15.93 1.88,15.99 1.78,16.03 1.68,16.06 1.57,16.06 1.47,16.06 1.37,16.03 1.27,15.99 1.18,15.93 1.10,15.87 1.04,15.78 0.98,15.69 0.95,15.59 0.92,15.48 0.93,15.38 0.93,15.27 0.97,15.17 1.01,15.08 1.08,14.99 1.15,14.91 1.24,14.86 1.33,14.80 1.43,14.78 1.54,14.76 1.64,14.77 1.75,14.78 1.84,14.83 1.94,14.87 2.02,14.94 2.10,15.02 2.15,15.11 2.19,15.20 2.21,15.31 2.23,15.41 2.21,15.52 2.20,15.62 2.15,15.72 2.10,15.81 2.02,15.88 1.94,15.96 1.85,16.00 1.75,16.05 1.75,16.05 1.75,16.05 -0.84,16.80 -3.43,17.55 -5.04,17.74 -6.64,17.93 -8.35,17.79 -10.06,17.64 -11.64,17.20 -13.22,16.75 -14.77,15.73 -16.32,14.70 -17.24,13.51 -18.16,12.32 -18.77,10.88 -19.38,9.44 -19.16,7.96 -18.94,6.48 -18.08,5.15 -17.22,3.82 -16.25,2.79 -15.28,1.75 -14.05,0.86 -12.82,-0.01 -11.52,-0.55 -10.23,-1.08 -8.91,-1.33 -7.59,-1.58 -6.34,-1.70 -5.09,-1.81 -3.86,-1.68 -2.63,-1.54 -1.26,-1.09 0.09,-0.65 0.16,-0.62 0.24,-0.60 0.31,-0.57 0.38,-0.53 0.44,-0.47 0.50,-0.42 0.54,-0.35 0.58,-0.29 0.61,-0.21 0.64,-0.14 0.64,-0.06 0.65,0.01 0.64,0.09 0.63,0.17 0.60,0.24 0.57,0.31 0.52,0.38 0.48,0.44 0.42,0.49 0.36,0.54 0.29,0.58 0.21,0.61 0.14,0.63 0.06,0.65 -0.01,0.65 -0.09,0.65 -0.09,0.65 L -0.09,0.65 Z"/></g><g transform="translate(186.44442749023438 300.9721984863281) rotate(0 0 7.638885498046875)" stroke="none"><path fill="#9c36b5" d="M 0.65,0 Q 0.65,0 0.94,1.59 1.22,3.19 1.23,4.87 1.25,6.54 1.25,8.45 1.26,10.36 0.95,12.56 0.65,14.75 0.63,14.86 0.62,14.96 0.57,15.06 0.52,15.15 0.44,15.22 0.36,15.30 0.27,15.34 0.17,15.38 0.07,15.40 -0.03,15.41 -0.13,15.38 -0.24,15.36 -0.33,15.31 -0.42,15.25 -0.49,15.17 -0.56,15.09 -0.60,14.99 -0.64,14.89 -0.64,14.79 -0.65,14.68 -0.62,14.58 -0.59,14.48 -0.53,14.39 -0.47,14.30 -0.39,14.24 -0.30,14.17 -0.20,14.14 -0.10,14.10 0.00,14.10 0.10,14.10 0.20,14.14 0.30,14.17 0.39,14.24 0.47,14.30 0.53,14.39 0.59,14.48 0.62,14.58 0.65,14.68 0.64,14.79 0.64,14.89 0.60,14.99 0.56,15.09 0.49,15.17 0.42,15.25 0.33,15.31 0.24,15.36 0.13,15.38 0.03,15.41 -0.07,15.40 -0.17,15.38 -0.27,15.34 -0.36,15.30 -0.44,15.22 -0.52,15.15 -0.57,15.06 -0.62,14.96 -0.63,14.86 -0.65,14.75 -0.65,14.75 -0.65,14.75 -0.95,12.56 -1.26,10.36 -1.25,8.45 -1.25,6.54 -1.23,4.87 -1.22,3.19 -0.94,1.59 -0.65,0 -0.64,-0.07 -0.63,-0.15 -0.60,-0.23 -0.58,-0.30 -0.53,-0.37 -0.49,-0.43 -0.43,-0.48 -0.37,-0.54 -0.30,-0.57 -0.23,-0.61 -0.15,-0.63 -0.07,-0.65 0.00,-0.65 0.07,-0.65 0.15,-0.63 0.23,-0.61 0.30,-0.57 0.37,-0.54 0.43,-0.48 0.49,-0.43 0.53,-0.37 0.58,-0.30 0.60,-0.23 0.63,-0.15 0.64,-0.07 0.65,0.00 0.65,0.00 L 0.65,0 Z"/></g><g transform="translate(184.36111450195312 301.6666564941406) rotate(0 6.25 3.125)" stroke="none"><path fill="#9c36b5" d="M 0.57,-0.32 Q 0.57,-0.32 1.56,0.96 2.55,2.24 3.49,3.58 4.43,4.93 5.24,6.11 6.05,7.29 6.72,7.89 7.38,8.49 8.03,8.92 8.68,9.35 9.34,8.96 10.01,8.57 10.09,7.55 10.17,6.53 10.24,5.25 10.31,3.97 10.56,2.35 10.81,0.73 10.99,-1.75 11.17,-4.24 11.18,-4.34 11.20,-4.45 11.24,-4.54 11.29,-4.64 11.36,-4.72 11.43,-4.79 11.53,-4.84 11.62,-4.89 11.73,-4.91 11.83,-4.92 11.94,-4.91 12.04,-4.89 12.14,-4.84 12.23,-4.79 12.30,-4.71 12.37,-4.63 12.42,-4.53 12.46,-4.44 12.47,-4.33 12.48,-4.23 12.46,-4.12 12.43,-4.02 12.38,-3.93 12.32,-3.84 12.24,-3.77 12.16,-3.70 12.06,-3.66 11.96,-3.62 11.86,-3.62 11.75,-3.62 11.65,-3.64 11.55,-3.67 11.46,-3.73 11.37,-3.79 11.31,-3.88 11.24,-3.97 11.21,-4.07 11.18,-4.17 11.18,-4.27 11.18,-4.38 11.22,-4.48 11.25,-4.58 11.31,-4.66 11.38,-4.75 11.47,-4.81 11.56,-4.87 11.66,-4.89 11.76,-4.92 11.87,-4.91 11.97,-4.91 12.07,-4.87 12.17,-4.83 12.25,-4.76 12.33,-4.69 12.39,-4.60 12.44,-4.50 12.46,-4.40 12.48,-4.30 12.48,-4.30 12.48,-4.30 12.98,-1.59 13.48,1.12 13.26,2.63 13.04,4.14 12.95,5.54 12.85,6.94 12.54,8.47 12.23,9.99 11.45,10.85 10.67,11.71 9.63,11.85 8.59,11.98 7.93,11.68 7.26,11.39 6.48,10.82 5.71,10.25 4.89,9.44 4.08,8.63 3.29,7.42 2.51,6.22 1.57,4.78 0.63,3.34 0.03,1.83 -0.57,0.32 -0.60,0.25 -0.63,0.17 -0.64,0.10 -0.65,0.02 -0.64,-0.05 -0.64,-0.13 -0.61,-0.20 -0.59,-0.28 -0.54,-0.35 -0.50,-0.41 -0.44,-0.47 -0.39,-0.52 -0.32,-0.56 -0.25,-0.60 -0.17,-0.62 -0.10,-0.64 -0.02,-0.65 0.05,-0.65 0.13,-0.63 0.21,-0.62 0.28,-0.58 0.35,-0.55 0.41,-0.50 0.47,-0.45 0.52,-0.38 0.57,-0.32 0.57,-0.32 L 0.57,-0.32 Z"/></g><g transform="translate(210.05557250976562 302.361083984375) rotate(0 -0.34722900390625 2.430572509765625)" stroke="none"><path fill="#9c36b5" d="M -0.54,0.36 Q -0.54,0.36 -1.12,-0.09 -1.71,-0.55 -2.43,-0.68 -3.16,-0.81 -3.79,-0.00 -4.42,0.81 -4.71,1.64 -5.00,2.47 -5.14,3.73 -5.27,4.99 -5.15,6.04 -5.02,7.09 -4.10,7.73 -3.18,8.38 -2.41,8.35 -1.65,8.32 -0.90,7.82 -0.15,7.32 0.75,6.39 1.66,5.46 2.64,4.10 3.62,2.74 4.00,1.86 4.37,0.97 4.54,-0.05 4.70,-1.08 4.43,-1.72 4.15,-2.35 3.75,-2.74 3.35,-3.13 2.71,-3.44 2.08,-3.76 0.31,-3.43 -1.44,-3.09 -1.54,-3.05 -1.64,-3.01 -1.74,-3.00 -1.85,-2.99 -1.95,-3.02 -2.06,-3.05 -2.15,-3.10 -2.23,-3.16 -2.30,-3.25 -2.37,-3.33 -2.40,-3.43 -2.44,-3.53 -2.44,-3.64 -2.44,-3.74 -2.41,-3.84 -2.38,-3.94 -2.31,-4.03 -2.25,-4.12 -2.17,-4.18 -2.08,-4.24 -1.98,-4.27 -1.87,-4.30 -1.77,-4.29 -1.66,-4.29 -1.56,-4.25 -1.46,-4.22 -1.38,-4.15 -1.30,-4.08 -1.24,-3.99 -1.19,-3.90 -1.16,-3.80 -1.14,-3.69 -1.15,-3.59 -1.16,-3.48 -1.20,-3.39 -1.24,-3.29 -1.31,-3.21 -1.39,-3.13 -1.48,-3.08 -1.57,-3.03 -1.68,-3.01 -1.78,-2.99 -1.89,-3.01 -1.99,-3.02 -2.08,-3.07 -2.18,-3.12 -2.25,-3.19 -2.33,-3.27 -2.37,-3.36 -2.42,-3.46 -2.43,-3.57 -2.45,-3.67 -2.43,-3.77 -2.41,-3.88 -2.35,-3.97 -2.30,-4.06 -2.22,-4.13 -2.14,-4.20 -2.14,-4.20 -2.14,-4.20 0.49,-5.11 3.13,-6.01 4.15,-5.42 5.17,-4.84 5.84,-4.04 6.50,-3.25 6.87,-2.04 7.23,-0.83 7.02,0.59 6.80,2.01 6.30,3.15 5.79,4.30 4.68,5.83 3.57,7.36 2.39,8.53 1.21,9.70 -0.14,10.38 -1.50,11.07 -2.87,11.01 -4.25,10.96 -5.63,10.17 -7.02,9.38 -7.42,8.38 -7.82,7.38 -7.93,6.01 -8.05,4.64 -7.80,3.02 -7.55,1.40 -6.95,0.16 -6.35,-1.08 -5.72,-1.66 -5.09,-2.25 -4.31,-2.73 -3.53,-3.21 -2.71,-3.16 -1.89,-3.12 -1.38,-2.91 -0.87,-2.69 -0.38,-2.26 0.11,-1.84 0.32,-1.10 0.54,-0.36 0.58,-0.29 0.61,-0.22 0.63,-0.14 0.65,-0.06 0.65,0.01 0.65,0.08 0.63,0.16 0.61,0.24 0.57,0.31 0.53,0.38 0.48,0.44 0.42,0.49 0.36,0.54 0.29,0.58 0.22,0.61 0.14,0.64 0.06,0.64 -0.01,0.65 -0.08,0.64 -0.16,0.63 -0.24,0.60 -0.31,0.57 -0.37,0.53 -0.44,0.48 -0.49,0.42 -0.54,0.36 -0.54,0.36 L -0.54,0.36 Z"/></g><g transform="translate(223.94442749023438 298.1944274902344) rotate(0 5.90277099609375 0.0000152587890625)" stroke="none"><path fill="#9c36b5" d="M -0.10,-0.64 Q -0.10,-0.64 1.03,-1.15 2.18,-1.65 3.34,-1.79 4.50,-1.93 5.40,-1.98 6.30,-2.03 7.42,-1.80 8.54,-1.57 10.07,-0.79 11.60,-0.02 11.70,0.01 11.80,0.05 11.88,0.12 11.96,0.19 12.01,0.28 12.07,0.37 12.09,0.47 12.11,0.58 12.10,0.68 12.09,0.79 12.05,0.89 12.00,0.98 11.93,1.06 11.86,1.14 11.76,1.19 11.67,1.24 11.57,1.25 11.46,1.27 11.36,1.25 11.25,1.24 11.16,1.19 11.06,1.14 10.99,1.06 10.92,0.99 10.87,0.89 10.83,0.79 10.81,0.69 10.80,0.58 10.83,0.48 10.85,0.37 10.90,0.28 10.96,0.19 11.04,0.12 11.12,0.05 11.22,0.01 11.32,-0.02 11.42,-0.02 11.53,-0.03 11.63,-0.00 11.73,0.02 11.82,0.08 11.91,0.14 11.97,0.22 12.04,0.31 12.07,0.41 12.11,0.51 12.11,0.61 12.11,0.72 12.07,0.82 12.04,0.92 11.98,1.01 11.91,1.09 11.82,1.15 11.74,1.21 11.63,1.24 11.53,1.27 11.43,1.26 11.32,1.26 11.32,1.26 11.32,1.26 9.68,1.14 8.04,1.03 7.22,0.89 6.40,0.75 5.55,0.77 4.71,0.80 3.66,0.82 2.60,0.85 1.35,0.75 0.10,0.64 0.02,0.65 -0.05,0.65 -0.12,0.63 -0.20,0.62 -0.27,0.59 -0.34,0.55 -0.41,0.50 -0.47,0.45 -0.51,0.39 -0.56,0.33 -0.59,0.25 -0.63,0.18 -0.64,0.10 -0.65,0.02 -0.64,-0.04 -0.64,-0.12 -0.61,-0.20 -0.59,-0.27 -0.55,-0.34 -0.51,-0.41 -0.45,-0.46 -0.39,-0.52 -0.32,-0.56 -0.25,-0.60 -0.18,-0.62 -0.10,-0.64 -0.10,-0.64 L -0.10,-0.64 Z"/></g><g transform="translate(230.19442749023438 298.1944274902344) rotate(0 -1.041656494140625 7.986114501953125)" stroke="none"><path fill="#9c36b5" d="M 0.63,0.15 Q 0.63,0.15 0.81,1.05 0.98,1.94 0.75,3.26 0.51,4.58 0.23,6.52 -0.04,8.46 -0.22,10.02 -0.40,11.59 -0.90,13.58 -1.41,15.57 -1.43,15.68 -1.45,15.78 -1.50,15.87 -1.56,15.97 -1.63,16.04 -1.71,16.11 -1.81,16.15 -1.91,16.19 -2.02,16.20 -2.12,16.20 -2.23,16.18 -2.33,16.15 -2.42,16.09 -2.51,16.03 -2.57,15.95 -2.64,15.87 -2.67,15.77 -2.71,15.67 -2.71,15.56 -2.71,15.45 -2.68,15.35 -2.65,15.25 -2.59,15.17 -2.52,15.08 -2.44,15.02 -2.35,14.96 -2.25,14.93 -2.14,14.90 -2.04,14.90 -1.93,14.91 -1.83,14.94 -1.73,14.98 -1.65,15.05 -1.57,15.12 -1.51,15.21 -1.46,15.30 -1.43,15.40 -1.41,15.50 -1.42,15.61 -1.43,15.71 -1.47,15.81 -1.51,15.91 -1.58,15.99 -1.66,16.07 -1.75,16.12 -1.84,16.17 -1.95,16.19 -2.05,16.21 -2.16,16.19 -2.26,16.18 -2.36,16.13 -2.45,16.08 -2.53,16.00 -2.60,15.93 -2.65,15.83 -2.69,15.74 -2.71,15.63 -2.72,15.53 -2.72,15.53 -2.72,15.53 -3.04,13.44 -3.36,11.34 -3.26,9.64 -3.17,7.94 -2.81,5.95 -2.45,3.95 -2.12,2.60 -1.78,1.25 -1.21,0.54 -0.63,-0.15 -0.60,-0.23 -0.58,-0.30 -0.53,-0.37 -0.49,-0.43 -0.43,-0.48 -0.37,-0.54 -0.30,-0.57 -0.23,-0.61 -0.15,-0.63 -0.07,-0.65 0.00,-0.65 0.08,-0.65 0.15,-0.63 0.23,-0.61 0.30,-0.57 0.37,-0.53 0.43,-0.48 0.49,-0.43 0.53,-0.36 0.58,-0.30 0.61,-0.22 0.63,-0.15 0.64,-0.07 0.65,0.00 0.64,0.08 0.63,0.15 0.63,0.15 L 0.63,0.15 Z"/></g></svg>