<svg version="1.1" xmlns="http://www.w3.org/2000/svg" viewBox="0 0 406.013916015625 178.3333282470703" width="406.013916015625" height="178.3333282470703" filter="invert(93%) hue-rotate(180deg)" class="excalidraw-svg">
  <!-- svg-source:excalidraw -->
  
  <defs>
    <style class="style-fonts">
      @font-face {
        font-family: "Virgil";
        src: url("https://excalidraw.com/Virgil.woff2");
      }
      @font-face {
        font-family: "Cascadia";
        src: url("https://excalidraw.com/Cascadia.woff2");
      }
      @font-face {
        font-family: "Assistant";
        src: url("https://excalidraw.com/Assistant-Regular.woff2");
      }
    </style>
    
  </defs>
  <rect x="0" y="0" width="406.013916015625" height="178.3333282470703" fill="#ffffff"/><g stroke-linecap="round"><g transform="translate(56.52777099609375 20.416671752929688) rotate(0 168.40277099609375 0)"><path d="M0 0 C56.13 0, 280.67 0, 336.81 0 M0 0 C56.13 0, 280.67 0, 336.81 0" stroke="#1e1e1e" stroke-width="2" fill="none"/></g></g><mask/><g stroke-linecap="round"><g transform="translate(59.2083740234375 118.66670227050781) rotate(0 168.40277099609375 0)"><path d="M0 0 C56.13 0, 280.67 0, 336.81 0 M0 0 C56.13 0, 280.67 0, 336.81 0" stroke="#1e1e1e" stroke-width="2" fill="none"/></g></g><mask/><g transform="translate(226.66668701171875 13.47222900390625) rotate(0 -0.347259521484375 6.5972137451171875)" stroke="none"><path fill="#1e1e1e" d="M -0.15,0.63 Q -0.15,0.63 -0.99,0.58 -1.83,0.54 -2.74,0.67 -3.66,0.80 -4.38,1.05 -5.10,1.31 -5.57,1.75 -6.05,2.19 -6.40,2.71 -6.75,3.23 -7.10,3.85 -7.46,4.47 -8.06,5.22 -8.67,5.96 -8.81,6.48 -8.95,7.01 -9.30,7.60 -9.65,8.19 -9.75,9.39 -9.85,10.59 -9.68,11.19 -9.52,11.78 -8.97,12.80 -8.42,13.81 -7.88,14.17 -7.33,14.54 -6.49,14.62 -5.64,14.70 -4.86,14.72 -4.07,14.74 -3.57,14.40 -3.07,14.07 -2.10,13.67 -1.12,13.28 -0.11,12.91 0.89,12.54 1.67,12.20 2.46,11.87 3.08,11.69 3.71,11.51 4.40,11.10 5.10,10.70 5.77,10.16 6.44,9.61 6.93,9.18 7.42,8.75 7.74,8.26 8.06,7.77 8.39,7.17 8.73,6.57 8.87,5.28 9.00,3.98 9.03,3.24 9.05,2.50 8.88,1.95 8.70,1.41 8.44,0.78 8.18,0.15 7.70,-0.16 7.21,-0.49 6.78,-0.81 6.34,-1.14 5.42,-0.94 4.50,-0.74 4.00,-0.55 3.50,-0.37 2.87,-0.10 2.25,0.16 1.30,0.64 0.34,1.12 -0.35,1.21 -1.06,1.29 -2.63,1.84 -4.21,2.39 -4.30,2.44 -4.39,2.50 -4.49,2.52 -4.60,2.54 -4.70,2.53 -4.81,2.52 -4.90,2.48 -5.00,2.43 -5.08,2.36 -5.16,2.29 -5.21,2.19 -5.26,2.10 -5.27,1.99 -5.29,1.89 -5.27,1.78 -5.26,1.68 -5.21,1.59 -5.16,1.49 -5.08,1.42 -5.00,1.35 -4.91,1.30 -4.81,1.26 -4.70,1.24 -4.60,1.23 -4.49,1.26 -4.39,1.28 -4.30,1.33 -4.21,1.39 -4.14,1.47 -4.07,1.55 -4.03,1.65 -3.99,1.75 -3.99,1.85 -3.98,1.96 -4.01,2.06 -4.04,2.16 -4.10,2.25 -4.16,2.34 -4.24,2.40 -4.33,2.47 -4.43,2.50 -4.53,2.54 -4.63,2.54 -4.74,2.54 -4.84,2.50 -4.94,2.47 -5.03,2.40 -5.11,2.34 -5.17,2.25 -5.23,2.16 -5.26,2.06 -5.29,1.96 -5.28,1.85 -5.27,1.75 -5.24,1.65 -5.20,1.55 -5.13,1.47 -5.06,1.39 -5.06,1.39 -5.06,1.39 -3.23,-0.03 -1.41,-1.47 -0.72,-1.56 -0.03,-1.65 0.56,-2.03 1.15,-2.41 1.90,-2.72 2.65,-3.03 3.50,-3.27 4.34,-3.52 4.94,-3.54 5.53,-3.57 6.89,-3.30 8.25,-3.04 9.04,-2.61 9.83,-2.17 10.26,-1.50 10.69,-0.84 10.99,-0.04 11.29,0.74 11.49,1.65 11.69,2.56 11.65,3.37 11.62,4.18 11.53,5.17 11.44,6.16 11.21,7.00 10.97,7.84 10.55,8.54 10.14,9.25 9.61,9.94 9.09,10.64 8.54,11.11 7.99,11.58 7.16,12.23 6.32,12.88 4.88,13.52 3.44,14.16 2.58,14.52 1.73,14.89 0.76,15.23 -0.21,15.58 -1.07,15.91 -1.94,16.25 -2.96,16.70 -3.98,17.15 -4.88,17.14 -5.79,17.13 -6.45,17.08 -7.11,17.03 -7.63,16.92 -8.15,16.81 -8.93,16.44 -9.70,16.06 -10.13,15.48 -10.56,14.90 -10.87,14.28 -11.18,13.66 -11.50,13.00 -11.83,12.34 -12.02,11.40 -12.20,10.47 -12.14,9.52 -12.07,8.58 -11.62,7.40 -11.16,6.23 -10.82,5.37 -10.49,4.52 -9.97,3.91 -9.44,3.30 -9.02,2.60 -8.60,1.90 -8.07,1.20 -7.54,0.50 -6.88,-0.05 -6.22,-0.60 -5.21,-0.94 -4.20,-1.28 -3.37,-1.43 -2.54,-1.59 -1.95,-1.46 -1.36,-1.34 -0.60,-0.98 0.15,-0.63 0.23,-0.60 0.30,-0.58 0.37,-0.53 0.43,-0.49 0.48,-0.43 0.54,-0.37 0.57,-0.30 0.61,-0.23 0.63,-0.15 0.65,-0.07 0.65,0.00 0.65,0.08 0.63,0.15 0.61,0.23 0.57,0.30 0.53,0.37 0.48,0.43 0.43,0.49 0.36,0.53 0.30,0.58 0.22,0.61 0.15,0.63 0.07,0.64 -0.00,0.65 -0.08,0.64 -0.15,0.63 -0.15,0.63 L -0.15,0.63 Z"/></g><g transform="translate(225.27777099609375 25.277786254882812) rotate(0 0 21.180557250976562)" stroke="none"><path fill="#1e1e1e" d="M 0.65,0 Q 0.65,0 0.87,0.79 1.10,1.59 1.11,2.13 1.12,2.67 1.13,3.52 1.14,4.36 0.88,4.96 0.63,5.56 0.58,6.32 0.54,7.09 0.51,7.76 0.48,8.43 0.77,9.02 1.05,9.61 1.12,10.42 1.20,11.23 1.21,11.95 1.22,12.67 1.22,13.36 1.23,14.06 1.24,14.76 1.25,15.45 1.26,16.15 1.28,16.84 1.29,17.54 1.30,18.23 1.31,18.93 1.32,19.62 1.32,20.32 1.33,21.01 1.33,21.70 1.34,22.40 1.34,23.09 1.35,23.79 1.35,24.48 1.36,25.18 1.36,25.87 1.36,26.57 1.37,27.26 1.37,27.95 1.38,28.65 1.38,29.34 1.38,30.04 1.38,30.73 1.38,31.43 1.38,32.12 1.38,32.82 1.38,33.51 1.63,34.06 1.89,34.60 1.97,35.42 2.05,36.25 2.05,37.01 2.05,37.77 1.70,39.95 1.35,42.14 1.33,42.24 1.31,42.35 1.26,42.44 1.21,42.53 1.14,42.61 1.06,42.68 0.96,42.73 0.87,42.77 0.76,42.78 0.66,42.80 0.55,42.77 0.45,42.75 0.36,42.70 0.27,42.64 0.20,42.56 0.13,42.48 0.09,42.38 0.05,42.28 0.04,42.18 0.04,42.07 0.06,41.97 0.09,41.87 0.15,41.78 0.21,41.69 0.29,41.63 0.38,41.56 0.48,41.53 0.58,41.49 0.69,41.49 0.79,41.49 0.89,41.52 0.99,41.56 1.08,41.62 1.16,41.69 1.22,41.77 1.28,41.86 1.31,41.96 1.34,42.07 1.34,42.17 1.33,42.28 1.29,42.38 1.25,42.48 1.18,42.56 1.12,42.64 1.02,42.69 0.93,42.75 0.83,42.77 0.73,42.80 0.62,42.78 0.52,42.77 0.42,42.73 0.32,42.68 0.24,42.61 0.17,42.54 0.12,42.45 0.07,42.35 0.05,42.25 0.03,42.14 0.03,42.14 0.03,42.14 -0.40,40.40 -0.84,38.65 -0.77,37.83 -0.70,37.02 -0.72,36.41 -0.73,35.81 -0.94,35.23 -1.15,34.66 -1.27,34.08 -1.38,33.51 -1.38,32.82 -1.38,32.12 -1.38,31.43 -1.38,30.73 -1.38,30.04 -1.38,29.34 -1.38,28.65 -1.37,27.95 -1.37,27.26 -1.36,26.57 -1.36,25.87 -1.36,25.18 -1.35,24.48 -1.35,23.79 -1.34,23.09 -1.34,22.40 -1.33,21.70 -1.33,21.01 -1.32,20.32 -1.32,19.62 -1.31,18.93 -1.30,18.23 -1.29,17.54 -1.28,16.84 -1.26,16.15 -1.25,15.45 -1.24,14.76 -1.23,14.07 -1.23,13.38 -1.22,12.69 -1.23,12.01 -1.24,11.34 -1.29,10.55 -1.34,9.77 -1.60,8.74 -1.85,7.71 -1.79,6.83 -1.73,5.94 -1.44,5.08 -1.14,4.22 -1.13,3.45 -1.12,2.67 -1.11,2.13 -1.10,1.59 -0.87,0.79 -0.65,0 -0.64,-0.07 -0.63,-0.15 -0.60,-0.23 -0.58,-0.30 -0.53,-0.37 -0.49,-0.43 -0.43,-0.48 -0.37,-0.54 -0.30,-0.57 -0.23,-0.61 -0.15,-0.63 -0.07,-0.65 0.00,-0.65 0.07,-0.65 0.15,-0.63 0.23,-0.61 0.30,-0.57 0.37,-0.54 0.43,-0.48 0.49,-0.43 0.53,-0.37 0.58,-0.30 0.60,-0.23 0.63,-0.15 0.64,-0.07 0.65,0.00 0.65,0.00 L 0.65,0 Z"/></g><g stroke-linecap="round" transform="translate(173.888916015625 68.33332824707031) rotate(0 52.083343505859375 50)"><path d="M25 0 C40.58 0, 56.16 0, 79.17 0 C95.83 0, 104.17 8.33, 104.17 25 C104.17 44.29, 104.17 63.59, 104.17 75 C104.17 91.67, 95.83 100, 79.17 100 C64.9 100, 50.63 100, 25 100 C8.33 100, 0 91.67, 0 75 C0 62.35, 0 49.71, 0 25 C0 8.33, 8.33 0, 25 0" stroke="none" stroke-width="0" fill="#ffffff"/><path d="M25 0 C43.5 0, 62.01 0, 79.17 0 M25 0 C40.47 0, 55.95 0, 79.17 0 M79.17 0 C95.83 0, 104.17 8.33, 104.17 25 M79.17 0 C95.83 0, 104.17 8.33, 104.17 25 M104.17 25 C104.17 35.05, 104.17 45.1, 104.17 75 M104.17 25 C104.17 42.08, 104.17 59.16, 104.17 75 M104.17 75 C104.17 91.67, 95.83 100, 79.17 100 M104.17 75 C104.17 91.67, 95.83 100, 79.17 100 M79.17 100 C68.18 100, 57.19 100, 25 100 M79.17 100 C67.56 100, 55.94 100, 25 100 M25 100 C8.33 100, 0 91.67, 0 75 M25 100 C8.33 100, 0 91.67, 0 75 M0 75 C0 55.24, 0 35.47, 0 25 M0 75 C0 64.01, 0 53.03, 0 25 M0 25 C0 8.33, 8.33 0, 25 0 M0 25 C0 8.33, 8.33 0, 25 0" stroke="#1e1e1e" stroke-width="2" fill="none"/></g><g transform="translate(13.47222900390625 32.22222900390625) rotate(0 7.291656494140625 -10.763893127441406)" stroke="none"><path fill="#1e1e1e" d="M -0.60,-0.24 Q -0.60,-0.24 -0.00,-2.31 0.60,-4.38 1.54,-6.46 2.48,-8.53 3.47,-10.80 4.46,-13.06 5.27,-15.01 6.09,-16.97 6.64,-18.21 7.19,-19.46 7.66,-20.24 8.12,-21.02 8.46,-21.60 8.80,-22.18 9.61,-22.10 10.41,-22.02 10.76,-21.36 11.10,-20.71 11.23,-19.51 11.37,-18.32 11.61,-16.49 11.85,-14.67 12.15,-12.91 12.45,-11.15 12.96,-9.46 13.47,-7.77 13.90,-6.00 14.32,-4.22 14.72,-2.05 15.12,0.11 15.12,0.21 15.13,0.32 15.10,0.42 15.08,0.53 15.02,0.62 14.96,0.70 14.88,0.77 14.79,0.83 14.69,0.87 14.59,0.91 14.49,0.91 14.38,0.91 14.28,0.88 14.18,0.84 14.09,0.78 14.01,0.72 13.95,0.63 13.89,0.54 13.86,0.44 13.83,0.34 13.83,0.23 13.83,0.13 13.87,0.03 13.91,-0.06 13.98,-0.14 14.04,-0.22 14.13,-0.28 14.22,-0.34 14.33,-0.36 14.43,-0.39 14.54,-0.38 14.64,-0.37 14.74,-0.32 14.84,-0.28 14.92,-0.21 14.99,-0.14 15.04,-0.04 15.10,0.04 15.11,0.15 15.13,0.25 15.12,0.35 15.10,0.46 15.05,0.55 15.01,0.65 14.93,0.72 14.85,0.80 14.76,0.84 14.66,0.89 14.56,0.90 14.45,0.92 14.35,0.89 14.24,0.87 14.15,0.82 14.06,0.77 13.99,0.69 13.92,0.61 13.88,0.51 13.84,0.41 13.84,0.41 13.84,0.41 13.02,-1.64 12.20,-3.70 11.77,-5.42 11.35,-7.13 10.80,-8.95 10.26,-10.78 9.95,-12.58 9.65,-14.38 9.40,-16.25 9.16,-18.11 9.10,-19.02 9.04,-19.92 8.91,-20.45 8.79,-20.98 9.41,-20.43 10.03,-19.89 9.63,-19.22 9.23,-18.55 8.68,-17.33 8.13,-16.11 7.30,-14.14 6.47,-12.17 5.46,-9.90 4.46,-7.63 3.52,-5.61 2.58,-3.59 1.59,-1.67 0.60,0.24 0.57,0.31 0.53,0.38 0.48,0.44 0.42,0.49 0.36,0.54 0.29,0.58 0.22,0.61 0.14,0.64 0.06,0.64 -0.01,0.65 -0.09,0.64 -0.16,0.63 -0.24,0.60 -0.31,0.57 -0.37,0.52 -0.44,0.48 -0.49,0.42 -0.54,0.36 -0.58,0.29 -0.61,0.22 -0.63,0.14 -0.65,0.06 -0.65,-0.01 -0.65,-0.09 -0.63,-0.16 -0.60,-0.24 -0.60,-0.24 L -0.60,-0.24 Z"/></g><g transform="translate(15.5555419921875 23.194442749023438) rotate(0 3.8194580078125 -0.34722137451171875)" stroke="none"><path fill="#1e1e1e" d="M -0.12,-0.64 Q -0.12,-0.64 0.82,-1.06 1.77,-1.49 2.86,-1.59 3.94,-1.69 5.61,-1.51 7.27,-1.34 7.37,-1.32 7.48,-1.31 7.57,-1.26 7.67,-1.21 7.74,-1.14 7.82,-1.06 7.87,-0.97 7.91,-0.87 7.93,-0.77 7.94,-0.66 7.92,-0.56 7.90,-0.45 7.85,-0.36 7.80,-0.27 7.72,-0.20 7.64,-0.13 7.54,-0.08 7.44,-0.04 7.34,-0.03 7.23,-0.03 7.13,-0.05 7.03,-0.08 6.94,-0.13 6.85,-0.19 6.78,-0.27 6.71,-0.36 6.68,-0.46 6.64,-0.56 6.64,-0.66 6.64,-0.77 6.67,-0.87 6.70,-0.97 6.76,-1.06 6.82,-1.14 6.91,-1.21 6.99,-1.27 7.10,-1.30 7.20,-1.33 7.30,-1.33 7.41,-1.32 7.51,-1.29 7.61,-1.25 7.69,-1.19 7.77,-1.12 7.83,-1.03 7.89,-0.94 7.91,-0.84 7.94,-0.73 7.93,-0.63 7.92,-0.52 7.88,-0.42 7.84,-0.33 7.77,-0.25 7.70,-0.17 7.60,-0.12 7.51,-0.06 7.41,-0.04 7.30,-0.02 7.30,-0.02 7.30,-0.02 5.72,0.26 4.13,0.55 3.17,0.62 2.21,0.69 1.17,0.66 0.12,0.64 0.04,0.64 -0.02,0.65 -0.10,0.64 -0.18,0.62 -0.25,0.59 -0.33,0.56 -0.39,0.51 -0.45,0.47 -0.50,0.41 -0.55,0.34 -0.59,0.27 -0.62,0.20 -0.63,0.12 -0.65,0.05 -0.65,-0.02 -0.64,-0.10 -0.62,-0.18 -0.60,-0.25 -0.56,-0.32 -0.52,-0.39 -0.46,-0.45 -0.41,-0.51 -0.34,-0.55 -0.27,-0.59 -0.20,-0.61 -0.12,-0.64 -0.12,-0.64 L -0.12,-0.64 Z"/></g><g transform="translate(14.86114501953125 111.38890075683594) rotate(0 0.347198486328125 9.722213745117188)" stroke="none"><path fill="#1e1e1e" d="M 0.65,0 Q 0.65,0 0.82,0.99 1.00,1.99 1.05,3.01 1.10,4.04 1.13,5.07 1.16,6.11 1.18,7.34 1.19,8.58 1.21,10.11 1.22,11.63 1.41,12.99 1.59,14.36 1.46,16.66 1.32,18.96 1.31,19.06 1.30,19.17 1.25,19.26 1.21,19.36 1.14,19.44 1.06,19.51 0.97,19.56 0.87,19.61 0.77,19.63 0.66,19.65 0.56,19.63 0.45,19.61 0.36,19.56 0.27,19.51 0.19,19.43 0.12,19.36 0.08,19.26 0.03,19.16 0.02,19.06 0.01,18.95 0.03,18.85 0.06,18.74 0.11,18.65 0.17,18.56 0.25,18.49 0.33,18.43 0.43,18.39 0.53,18.35 0.63,18.34 0.74,18.34 0.84,18.37 0.94,18.40 1.03,18.46 1.12,18.51 1.18,18.60 1.25,18.68 1.28,18.79 1.32,18.89 1.31,18.99 1.31,19.10 1.28,19.20 1.25,19.30 1.18,19.38 1.12,19.47 1.03,19.53 0.94,19.59 0.84,19.62 0.74,19.64 0.63,19.64 0.52,19.63 0.42,19.59 0.33,19.55 0.25,19.48 0.16,19.41 0.11,19.32 0.06,19.23 0.03,19.13 0.01,19.02 0.01,19.02 0.01,19.02 -0.39,16.86 -0.79,14.69 -1.01,13.16 -1.22,11.63 -1.21,10.11 -1.19,8.58 -1.18,7.34 -1.16,6.11 -1.13,5.07 -1.10,4.04 -1.05,3.01 -1.00,1.99 -0.82,0.99 -0.65,0 -0.64,-0.07 -0.63,-0.15 -0.60,-0.23 -0.58,-0.30 -0.53,-0.37 -0.49,-0.43 -0.43,-0.48 -0.37,-0.54 -0.30,-0.57 -0.23,-0.61 -0.15,-0.63 -0.07,-0.65 0.00,-0.65 0.07,-0.65 0.15,-0.63 0.23,-0.61 0.30,-0.57 0.37,-0.54 0.43,-0.48 0.49,-0.43 0.53,-0.37 0.58,-0.30 0.60,-0.23 0.63,-0.15 0.64,-0.07 0.65,0.00 0.65,0.00 L 0.65,0 Z"/></g><g transform="translate(10 112.77778625488281) rotate(0 8.333343505859375 7.9860992431640625)" stroke="none"><path fill="#1e1e1e" d="M -0.46,-0.46 Q -0.46,-0.46 -0.19,-0.99 0.06,-1.53 0.72,-1.98 1.38,-2.43 2.41,-2.67 3.43,-2.91 4.55,-2.78 5.68,-2.66 6.75,-2.39 7.82,-2.12 8.80,-1.55 9.78,-0.98 10.45,-0.27 11.12,0.43 11.57,0.89 12.02,1.36 12.33,2.18 12.65,3.00 12.53,3.95 12.41,4.90 11.84,5.64 11.26,6.37 10.87,6.78 10.48,7.19 9.74,7.94 9.00,8.69 8.67,8.83 8.33,8.97 8.21,9.06 8.10,9.15 7.96,9.22 7.83,9.28 7.68,9.30 7.54,9.33 7.39,9.32 7.24,9.31 7.10,9.27 6.96,9.23 6.83,9.15 6.70,9.07 6.60,8.97 6.49,8.86 6.42,8.74 6.34,8.61 6.29,8.47 6.25,8.33 6.24,8.18 6.23,8.03 6.26,7.89 6.28,7.74 6.34,7.61 6.40,7.47 6.50,7.35 6.59,7.24 7.77,7.40 8.95,7.56 9.53,7.60 10.11,7.64 10.96,7.92 11.80,8.19 12.81,8.74 13.83,9.29 14.60,9.69 15.38,10.10 16.02,10.55 16.66,11.01 17.10,11.79 17.53,12.58 17.70,13.39 17.86,14.20 17.70,14.97 17.53,15.75 16.94,16.58 16.35,17.41 15.12,18.08 13.88,18.74 12.69,18.98 11.50,19.22 10.60,19.28 9.70,19.33 7.54,19.01 5.37,18.70 5.27,18.68 5.16,18.67 5.07,18.62 4.97,18.57 4.90,18.50 4.82,18.42 4.78,18.32 4.73,18.23 4.72,18.12 4.71,18.02 4.73,17.91 4.75,17.81 4.80,17.72 4.85,17.63 4.93,17.56 5.01,17.48 5.11,17.44 5.21,17.40 5.31,17.39 5.42,17.39 5.52,17.41 5.63,17.44 5.72,17.50 5.80,17.56 5.87,17.64 5.94,17.72 5.97,17.82 6.01,17.92 6.01,18.03 6.01,18.14 5.98,18.24 5.95,18.34 5.88,18.42 5.82,18.51 5.73,18.57 5.65,18.63 5.55,18.66 5.44,18.69 5.34,18.69 5.23,18.69 5.13,18.65 5.03,18.61 4.95,18.54 4.87,18.48 4.81,18.39 4.76,18.30 4.73,18.19 4.71,18.09 4.72,17.98 4.73,17.88 4.77,17.78 4.81,17.68 4.88,17.60 4.95,17.53 5.05,17.47 5.14,17.42 5.25,17.40 5.35,17.38 5.35,17.38 5.35,17.38 7.39,16.96 9.42,16.53 10.19,16.42 10.95,16.31 11.81,16.16 12.67,16.02 13.77,15.41 14.87,14.80 15.00,14.17 15.12,13.54 14.68,12.91 14.23,12.27 13.43,11.85 12.64,11.43 11.82,10.97 11.01,10.51 10.39,10.29 9.76,10.07 9.05,9.52 8.33,8.97 8.21,9.06 8.10,9.15 7.96,9.22 7.83,9.28 7.68,9.30 7.54,9.33 7.39,9.32 7.24,9.31 7.10,9.27 6.96,9.23 6.83,9.15 6.70,9.07 6.60,8.97 6.49,8.86 6.42,8.74 6.34,8.61 6.29,8.47 6.25,8.33 6.24,8.18 6.23,8.03 6.26,7.89 6.28,7.74 6.34,7.61 6.40,7.47 6.50,7.35 6.59,7.24 6.95,7.08 7.31,6.91 8.02,6.20 8.73,5.49 9.44,4.88 10.16,4.27 10.23,3.55 10.30,2.83 9.88,2.37 9.46,1.91 9.03,1.39 8.60,0.87 7.93,0.42 7.25,-0.01 6.31,-0.26 5.38,-0.50 4.58,-0.65 3.79,-0.79 3.14,-0.71 2.48,-0.63 2.00,-0.34 1.52,-0.06 0.99,0.20 0.46,0.46 0.40,0.51 0.33,0.56 0.26,0.59 0.19,0.62 0.11,0.64 0.03,0.65 -0.03,0.65 -0.11,0.64 -0.19,0.62 -0.26,0.59 -0.33,0.55 -0.40,0.51 -0.46,0.46 -0.51,0.40 -0.55,0.33 -0.59,0.26 -0.62,0.19 -0.64,0.11 -0.65,0.03 -0.65,-0.03 -0.64,-0.11 -0.62,-0.19 -0.59,-0.26 -0.56,-0.33 -0.51,-0.40 -0.46,-0.46 -0.46,-0.46 L -0.46,-0.46 Z"/></g></svg>