<svg version="1.1" xmlns="http://www.w3.org/2000/svg" viewBox="0 0 1037.8447382902632 197.24908447265625" width="1037.8447382902632" height="197.24908447265625" filter="invert(93%) hue-rotate(180deg)" class="excalidraw-svg">
  <!-- svg-source:excalidraw -->
  
  <defs>
    <style class="style-fonts">
      @font-face {
        font-family: "Virgil";
        src: url("https://excalidraw.com/Virgil.woff2");
      }
      @font-face {
        font-family: "Cascadia";
        src: url("https://excalidraw.com/Cascadia.woff2");
      }
      @font-face {
        font-family: "Assistant";
        src: url("https://excalidraw.com/Assistant-Regular.woff2");
      }
    </style>
    
  </defs>
  <rect x="0" y="0" width="1037.8447382902632" height="197.24908447265625" fill="#ffffff"/><g stroke-linecap="round"><g transform="translate(10.925694895340143 26.7359619140625) rotate(0 146.43972778320312 0.38036346435546875)"><path d="M-0.62 -0.02 C48.49 0.03, 245.24 -0.01, 294.04 0.01 M1.26 -1.07 C50.37 -0.86, 245.4 0.79, 293.7 1.16" stroke="#1e1e1e" stroke-width="2" fill="none"/></g></g><mask/><g stroke-linecap="round"><g transform="translate(10.508720137728403 142.53667969946753) rotate(0 146.43972778320312 0.38036346435546875)"><path d="M0.62 -0.29 C49.57 0.08, 244.22 1.7, 292.89 1.9 M-0.51 -1.49 C48.35 -1.4, 243.24 -0.26, 291.95 0.37" stroke="#1e1e1e" stroke-width="2" fill="none"/></g></g><mask/><g stroke-linecap="round"><g transform="translate(517.0548016806972 24.231473400639402) rotate(0 254.46286010742185 -0.38037109375)"><path d="M-0.76 -0.75 C83.87 -1.09, 423.95 -0.74, 508.83 -0.86 M1.05 1.47 C85.42 1.83, 423.41 0.95, 507.83 0.62" stroke="#1e1e1e" stroke-width="2" fill="none"/></g></g><mask/><g stroke-linecap="round"><g transform="translate(521.6661116113793 141.47521883574836) rotate(0 252.56106567382812 0.760711669921875)"><path d="M-1.02 0.31 C83.36 0.54, 422 1.62, 506.18 2.01 M0.65 -0.58 C84.97 -0.77, 421.49 -0.1, 505.79 0.14" stroke="#1e1e1e" stroke-width="2" fill="none"/></g></g><mask/><g transform="translate(394.3315176492464 99.765625) rotate(0 21.300323486328125 -4.183990478515625)" stroke="none"><path fill="#1e1e1e" d="M -0.64,-0.10 Q -0.64,-0.10 -0.61,-1.48 -0.58,-2.86 0.45,-4.31 1.48,-5.77 2.87,-6.85 4.26,-7.93 6.10,-8.45 7.94,-8.97 9.89,-8.96 11.84,-8.94 13.35,-8.72 14.86,-8.50 16.46,-7.96 18.07,-7.42 19.53,-7.01 21.00,-6.59 22.61,-6.44 24.22,-6.30 26.36,-6.43 28.51,-6.57 30.74,-6.78 32.98,-7.00 35.46,-7.33 37.95,-7.66 39.76,-8.18 41.57,-8.70 41.68,-8.71 41.78,-8.73 41.89,-8.72 41.99,-8.70 42.09,-8.65 42.18,-8.61 42.25,-8.53 42.33,-8.45 42.37,-8.36 42.42,-8.26 42.43,-8.16 42.45,-8.05 42.43,-7.95 42.41,-7.84 42.35,-7.75 42.30,-7.66 42.22,-7.59 42.14,-7.52 42.04,-7.48 41.94,-7.44 41.84,-7.43 41.73,-7.42 41.63,-7.45 41.53,-7.48 41.44,-7.54 41.35,-7.59 41.28,-7.68 41.22,-7.76 41.18,-7.86 41.14,-7.96 41.14,-8.07 41.14,-8.17 41.17,-8.27 41.21,-8.38 41.27,-8.46 41.33,-8.55 41.42,-8.61 41.51,-8.67 41.61,-8.70 41.71,-8.73 41.82,-8.72 41.92,-8.72 42.02,-8.68 42.12,-8.65 42.20,-8.58 42.28,-8.51 42.34,-8.42 42.40,-8.33 42.42,-8.23 42.45,-8.12 42.44,-8.02 42.43,-7.91 42.38,-7.81 42.34,-7.72 42.27,-7.64 42.20,-7.56 42.10,-7.51 42.01,-7.46 42.01,-7.46 42.01,-7.46 40.17,-6.68 38.34,-5.90 35.82,-5.13 33.31,-4.35 31.00,-4.00 28.68,-3.66 26.29,-3.52 23.90,-3.39 22.05,-3.62 20.19,-3.85 18.65,-4.33 17.11,-4.81 15.76,-5.35 14.41,-5.89 13.09,-6.14 11.77,-6.40 10.14,-6.48 8.51,-6.56 7.06,-6.27 5.62,-5.98 4.44,-5.15 3.26,-4.32 2.35,-3.35 1.45,-2.38 1.05,-1.14 0.64,0.10 0.62,0.18 0.60,0.25 0.56,0.32 0.52,0.39 0.46,0.45 0.41,0.51 0.34,0.55 0.27,0.59 0.20,0.61 0.12,0.64 0.04,0.64 -0.02,0.65 -0.10,0.64 -0.18,0.62 -0.25,0.59 -0.33,0.56 -0.39,0.51 -0.45,0.47 -0.50,0.41 -0.55,0.34 -0.59,0.27 -0.62,0.20 -0.63,0.12 -0.65,0.05 -0.65,-0.02 -0.64,-0.10 -0.64,-0.10 L -0.64,-0.10 Z"/></g><g stroke-linecap="round" transform="translate(111.34146637971514 102.04782104492188) rotate(0 44.8828125 42.60063171386719)"><path d="M21.3 0 C36.94 0, 52.57 0, 68.47 0 C82.67 0, 89.77 7.1, 89.77 21.3 C89.77 32.55, 89.77 43.79, 89.77 63.9 C89.77 78.1, 82.67 85.2, 68.47 85.2 C54.34 85.2, 40.21 85.2, 21.3 85.2 C7.1 85.2, 0 78.1, 0 63.9 C0 50.54, 0 37.18, 0 21.3 C0 7.1, 7.1 0, 21.3 0" stroke="none" stroke-width="0" fill="#ffffff"/><path d="M21.3 0 C33.59 0, 45.88 0, 68.47 0 M21.3 0 C37.78 0, 54.27 0, 68.47 0 M68.47 0 C82.67 0, 89.77 7.1, 89.77 21.3 M68.47 0 C82.67 0, 89.77 7.1, 89.77 21.3 M89.77 21.3 C89.77 29.96, 89.77 38.62, 89.77 63.9 M89.77 21.3 C89.77 35.97, 89.77 50.64, 89.77 63.9 M89.77 63.9 C89.77 78.1, 82.67 85.2, 68.47 85.2 M89.77 63.9 C89.77 78.1, 82.67 85.2, 68.47 85.2 M68.47 85.2 C57.88 85.2, 47.3 85.2, 21.3 85.2 M68.47 85.2 C56.49 85.2, 44.5 85.2, 21.3 85.2 M21.3 85.2 C7.1 85.2, 0 78.1, 0 63.9 M21.3 85.2 C7.1 85.2, 0 78.1, 0 63.9 M0 63.9 C0 48.74, 0 33.58, 0 21.3 M0 63.9 C0 49.14, 0 34.37, 0 21.3 M0 21.3 C0 7.1, 7.1 0, 21.3 0 M0 21.3 C0 7.1, 7.1 0, 21.3 0" stroke="#1e1e1e" stroke-width="2" fill="none"/></g><g stroke-linecap="round" transform="translate(556.7178091531526 95.03163146972656) rotate(0 44.8828125 42.60063171386719)"><path d="M21.3 0 C32.69 0, 44.09 0, 68.47 0 C82.67 0, 89.77 7.1, 89.77 21.3 C89.77 34.88, 89.77 48.46, 89.77 63.9 C89.77 78.1, 82.67 85.2, 68.47 85.2 C53.65 85.2, 38.83 85.2, 21.3 85.2 C7.1 85.2, 0 78.1, 0 63.9 C0 51.93, 0 39.95, 0 21.3 C0 7.1, 7.1 0, 21.3 0" stroke="none" stroke-width="0" fill="#ffffff"/><path d="M21.3 0 C38.1 0, 54.89 0, 68.47 0 M21.3 0 C34.81 0, 48.31 0, 68.47 0 M68.47 0 C82.67 0, 89.77 7.1, 89.77 21.3 M68.47 0 C82.67 0, 89.77 7.1, 89.77 21.3 M89.77 21.3 C89.77 35.96, 89.77 50.61, 89.77 63.9 M89.77 21.3 C89.77 35.71, 89.77 50.11, 89.77 63.9 M89.77 63.9 C89.77 78.1, 82.67 85.2, 68.47 85.2 M89.77 63.9 C89.77 78.1, 82.67 85.2, 68.47 85.2 M68.47 85.2 C56.38 85.2, 44.3 85.2, 21.3 85.2 M68.47 85.2 C53.86 85.2, 39.26 85.2, 21.3 85.2 M21.3 85.2 C7.1 85.2, 0 78.1, 0 63.9 M21.3 85.2 C7.1 85.2, 0 78.1, 0 63.9 M0 63.9 C0 54.51, 0 45.13, 0 21.3 M0 63.9 C0 53.89, 0 43.88, 0 21.3 M0 21.3 C0 7.1, 7.1 0, 21.3 0 M0 21.3 C0 7.1, 7.1 0, 21.3 0" stroke="#1e1e1e" stroke-width="2" fill="none"/></g><g stroke-linecap="round" transform="translate(726.2775015359651 94.87471008300781) rotate(0 44.8828125 42.60063171386719)"><path d="M21.3 0 C39.71 0, 58.12 0, 68.47 0 C82.67 0, 89.77 7.1, 89.77 21.3 C89.77 34.92, 89.77 48.54, 89.77 63.9 C89.77 78.1, 82.67 85.2, 68.47 85.2 C56.57 85.2, 44.68 85.2, 21.3 85.2 C7.1 85.2, 0 78.1, 0 63.9 C0 49.26, 0 34.61, 0 21.3 C0 7.1, 7.1 0, 21.3 0" stroke="none" stroke-width="0" fill="#ffffff"/><path d="M21.3 0 C38.39 0, 55.48 0, 68.47 0 M21.3 0 C35.69 0, 50.08 0, 68.47 0 M68.47 0 C82.67 0, 89.77 7.1, 89.77 21.3 M68.47 0 C82.67 0, 89.77 7.1, 89.77 21.3 M89.77 21.3 C89.77 30.27, 89.77 39.23, 89.77 63.9 M89.77 21.3 C89.77 35.56, 89.77 49.82, 89.77 63.9 M89.77 63.9 C89.77 78.1, 82.67 85.2, 68.47 85.2 M89.77 63.9 C89.77 78.1, 82.67 85.2, 68.47 85.2 M68.47 85.2 C57.68 85.2, 46.9 85.2, 21.3 85.2 M68.47 85.2 C56.17 85.2, 43.88 85.2, 21.3 85.2 M21.3 85.2 C7.1 85.2, 0 78.1, 0 63.9 M21.3 85.2 C7.1 85.2, 0 78.1, 0 63.9 M0 63.9 C0 53.75, 0 43.59, 0 21.3 M0 63.9 C0 52.89, 0 41.88, 0 21.3 M0 21.3 C0 7.1, 7.1 0, 21.3 0 M0 21.3 C0 7.1, 7.1 0, 21.3 0" stroke="#1e1e1e" stroke-width="2" fill="none"/></g><g stroke-linecap="round" transform="translate(907.8583120828401 97.54301452636719) rotate(0 44.8828125 42.60063171386719)"><path d="M21.3 0 C36.48 0, 51.66 0, 68.47 0 C82.67 0, 89.77 7.1, 89.77 21.3 C89.77 33.09, 89.77 44.88, 89.77 63.9 C89.77 78.1, 82.67 85.2, 68.47 85.2 C58.5 85.2, 48.54 85.2, 21.3 85.2 C7.1 85.2, 0 78.1, 0 63.9 C0 48.26, 0 32.63, 0 21.3 C0 7.1, 7.1 0, 21.3 0" stroke="none" stroke-width="0" fill="#ffffff"/><path d="M21.3 0 C33.95 0, 46.59 0, 68.47 0 M21.3 0 C32.05 0, 42.8 0, 68.47 0 M68.47 0 C82.67 0, 89.77 7.1, 89.77 21.3 M68.47 0 C82.67 0, 89.77 7.1, 89.77 21.3 M89.77 21.3 C89.77 32.17, 89.77 43.04, 89.77 63.9 M89.77 21.3 C89.77 34.64, 89.77 47.98, 89.77 63.9 M89.77 63.9 C89.77 78.1, 82.67 85.2, 68.47 85.2 M89.77 63.9 C89.77 78.1, 82.67 85.2, 68.47 85.2 M68.47 85.2 C52.93 85.2, 37.4 85.2, 21.3 85.2 M68.47 85.2 C51.54 85.2, 34.62 85.2, 21.3 85.2 M21.3 85.2 C7.1 85.2, 0 78.1, 0 63.9 M21.3 85.2 C7.1 85.2, 0 78.1, 0 63.9 M0 63.9 C0 47.73, 0 31.55, 0 21.3 M0 63.9 C0 52.68, 0 41.46, 0 21.3 M0 21.3 C0 7.1, 7.1 0, 21.3 0 M0 21.3 C0 7.1, 7.1 0, 21.3 0" stroke="#1e1e1e" stroke-width="2" fill="none"/></g><g transform="translate(156.2243399148714 13.803634643554688) rotate(0 1.141082763671875 9.509071350097656)" stroke="none"><path fill="#1e1e1e" d="M -0.36,0.54 Q -0.36,0.54 -1.11,0.40 -1.87,0.26 -2.33,0.75 -2.80,1.24 -3.44,1.82 -4.08,2.40 -4.69,3.40 -5.31,4.41 -6.03,5.72 -6.75,7.03 -7.01,8.30 -7.26,9.56 -7.39,10.75 -7.51,11.95 -7.35,12.98 -7.19,14.01 -6.92,15.10 -6.65,16.19 -6.36,16.77 -6.07,17.35 -5.72,18.07 -5.38,18.79 -4.93,19.12 -4.49,19.46 -3.90,19.84 -3.30,20.21 -2.60,20.39 -1.91,20.56 -1.07,20.26 -0.24,19.96 0.40,19.40 1.05,18.85 1.77,18.17 2.49,17.50 3.24,16.77 3.98,16.05 4.91,14.92 5.83,13.79 6.71,12.82 7.58,11.86 8.10,11.11 8.62,10.36 8.77,9.56 8.92,8.77 9.25,7.66 9.58,6.56 9.47,5.68 9.36,4.80 9.13,4.02 8.90,3.25 8.42,2.35 7.93,1.45 7.38,0.95 6.84,0.46 6.21,0.03 5.59,-0.38 4.91,-0.79 4.23,-1.19 3.48,-1.31 2.73,-1.42 2.10,-1.29 1.47,-1.16 0.85,-1.13 0.23,-1.10 -1.06,-0.75 -2.37,-0.40 -2.46,-0.36 -2.56,-0.32 -2.67,-0.31 -2.77,-0.30 -2.88,-0.33 -2.98,-0.36 -3.07,-0.41 -3.16,-0.47 -3.22,-0.55 -3.29,-0.64 -3.33,-0.74 -3.36,-0.84 -3.37,-0.94 -3.37,-1.05 -3.34,-1.15 -3.30,-1.25 -3.24,-1.34 -3.18,-1.42 -3.09,-1.49 -3.01,-1.55 -2.91,-1.58 -2.80,-1.61 -2.70,-1.61 -2.59,-1.60 -2.49,-1.57 -2.39,-1.53 -2.31,-1.46 -2.23,-1.39 -2.17,-1.30 -2.11,-1.22 -2.09,-1.11 -2.06,-1.01 -2.07,-0.90 -2.08,-0.80 -2.12,-0.70 -2.17,-0.60 -2.24,-0.52 -2.31,-0.44 -2.40,-0.39 -2.49,-0.34 -2.60,-0.32 -2.70,-0.30 -2.81,-0.32 -2.91,-0.33 -3.01,-0.38 -3.10,-0.43 -3.18,-0.50 -3.25,-0.58 -3.30,-0.67 -3.35,-0.77 -3.36,-0.87 -3.37,-0.98 -3.35,-1.08 -3.33,-1.19 -3.28,-1.28 -3.23,-1.37 -3.15,-1.44 -3.07,-1.51 -3.07,-1.51 -3.07,-1.51 -1.55,-2.57 -0.04,-3.63 0.49,-3.72 1.03,-3.81 2.11,-3.96 3.18,-4.12 4.37,-3.86 5.57,-3.61 6.38,-3.15 7.19,-2.69 8.00,-2.12 8.82,-1.54 9.61,-0.71 10.41,0.11 11.01,1.29 11.61,2.48 11.89,3.53 12.17,4.58 12.22,5.94 12.28,7.29 11.96,8.36 11.64,9.43 11.30,10.66 10.95,11.89 10.31,12.81 9.66,13.74 8.83,14.66 8.00,15.57 6.97,16.82 5.94,18.06 5.18,18.81 4.41,19.55 3.63,20.28 2.85,21.00 2.03,21.68 1.20,22.36 0.17,22.87 -0.85,23.37 -1.63,23.34 -2.41,23.32 -2.97,23.21 -3.52,23.09 -4.17,22.84 -4.81,22.58 -5.59,22.07 -6.38,21.55 -7.12,20.82 -7.86,20.09 -8.24,19.33 -8.62,18.57 -9.01,17.72 -9.40,16.87 -9.70,15.63 -10.01,14.39 -10.17,13.03 -10.33,11.66 -10.19,10.31 -10.04,8.95 -9.65,7.31 -9.27,5.68 -8.49,4.27 -7.71,2.85 -6.84,1.57 -5.98,0.29 -5.19,-0.37 -4.40,-1.05 -3.45,-1.59 -2.49,-2.13 -1.62,-2.07 -0.75,-2.01 -0.19,-1.28 0.36,-0.54 0.42,-0.49 0.48,-0.44 0.53,-0.37 0.57,-0.31 0.60,-0.24 0.63,-0.16 0.64,-0.08 0.65,-0.01 0.64,0.06 0.64,0.14 0.61,0.22 0.58,0.29 0.54,0.36 0.49,0.42 0.44,0.48 0.38,0.53 0.31,0.57 0.24,0.61 0.16,0.63 0.08,0.65 0.01,0.65 -0.06,0.65 -0.14,0.63 -0.22,0.61 -0.29,0.58 -0.36,0.54 -0.36,0.54 L -0.36,0.54 Z"/></g><g transform="translate(153.94217438752764 35.86468505859375) rotate(0 1.521453857421875 34.23265075683594)" stroke="none"><path fill="#1e1e1e" d="M 0.65,0 Q 0.65,0 1.06,1.09 1.46,2.18 1.47,3.52 1.48,4.86 1.49,6.09 1.49,7.31 1.49,8.71 1.49,10.10 1.71,11.46 1.92,12.83 1.81,14.71 1.69,16.58 1.64,17.94 1.58,19.30 1.56,20.53 1.54,21.76 1.53,22.93 1.52,24.10 1.71,24.65 1.89,25.19 1.78,26.24 1.67,27.30 1.61,28.39 1.54,29.49 1.53,30.61 1.51,31.73 1.70,32.27 1.89,32.81 1.78,33.82 1.67,34.83 1.91,35.61 2.15,36.38 2.19,37.09 2.23,37.79 2.24,38.52 2.26,39.25 2.27,40.21 2.28,41.18 2.28,41.81 2.28,42.43 2.28,43.56 2.29,44.69 2.29,45.61 2.29,46.53 2.58,47.52 2.87,48.52 2.95,49.42 3.03,50.33 3.04,51.12 3.05,51.91 3.06,52.68 3.06,53.44 3.07,54.20 3.07,54.97 3.35,55.94 3.63,56.91 3.72,57.82 3.82,58.72 3.84,59.50 3.86,60.28 3.85,60.99 3.84,61.71 4.15,62.33 4.46,62.95 4.54,63.87 4.63,64.78 3.72,66.84 2.81,68.89 2.71,68.94 2.62,68.98 2.51,69.00 2.41,69.02 2.30,69.00 2.20,68.98 2.10,68.93 2.01,68.88 1.94,68.80 1.87,68.72 1.82,68.62 1.78,68.53 1.77,68.42 1.76,68.31 1.78,68.21 1.81,68.11 1.86,68.02 1.92,67.93 2.00,67.86 2.08,67.79 2.18,67.75 2.28,67.72 2.39,67.71 2.49,67.71 2.60,67.74 2.70,67.77 2.79,67.83 2.87,67.89 2.94,67.97 3.00,68.06 3.03,68.16 3.06,68.26 3.06,68.37 3.06,68.47 3.03,68.57 2.99,68.67 2.93,68.76 2.86,68.84 2.77,68.90 2.68,68.96 2.58,68.99 2.48,69.01 2.37,69.01 2.26,69.00 2.17,68.96 2.07,68.92 1.99,68.85 1.91,68.78 1.85,68.69 1.80,68.59 1.78,68.49 1.76,68.39 1.77,68.28 1.78,68.17 1.83,68.08 1.88,67.98 1.95,67.91 2.02,67.83 2.02,67.83 2.02,67.83 1.71,66.38 1.40,64.93 1.36,64.14 1.32,63.35 1.01,62.21 0.69,61.06 0.69,60.31 0.68,59.57 0.80,58.75 0.92,57.92 0.57,57.46 0.21,57.00 0.08,55.98 -0.03,54.97 -0.03,54.21 -0.02,53.45 -0.02,52.69 -0.02,51.93 -0.03,51.20 -0.04,50.47 -0.09,49.66 -0.14,48.84 -0.45,47.69 -0.77,46.53 -0.77,45.61 -0.76,44.69 -0.76,43.56 -0.76,42.44 -0.76,41.82 -0.76,41.19 -0.77,40.25 -0.77,39.30 -0.79,38.62 -0.80,37.94 -0.86,37.05 -0.93,36.17 -0.97,34.85 -1.01,33.54 -1.26,32.65 -1.50,31.76 -1.49,30.57 -1.47,29.39 -1.45,28.67 -1.42,27.96 -1.21,26.94 -1.01,25.91 -1.25,25.01 -1.49,24.11 -1.48,22.91 -1.47,21.71 -1.45,20.45 -1.43,19.19 -1.37,17.78 -1.32,16.36 -1.18,14.81 -1.05,13.25 -1.27,11.68 -1.49,10.11 -1.49,8.71 -1.49,7.31 -1.49,6.09 -1.48,4.86 -1.47,3.52 -1.46,2.18 -1.06,1.09 -0.65,0 -0.64,-0.07 -0.63,-0.15 -0.60,-0.23 -0.58,-0.30 -0.53,-0.37 -0.49,-0.43 -0.43,-0.48 -0.37,-0.54 -0.30,-0.57 -0.23,-0.61 -0.15,-0.63 -0.07,-0.65 0.00,-0.65 0.07,-0.65 0.15,-0.63 0.23,-0.61 0.30,-0.57 0.37,-0.54 0.43,-0.48 0.49,-0.43 0.53,-0.37 0.58,-0.30 0.60,-0.23 0.63,-0.15 0.64,-0.07 0.65,0.00 0.65,0.00 L 0.65,0 Z"/></g><g transform="translate(145.5741934304964 139.3233642578125) rotate(0 15.5948486328125 7.987640380859375)" stroke="none"><path fill="#1e1e1e" d="M 0.63,0.15 Q 0.63,0.15 0.70,1.10 0.78,2.05 0.47,3.11 0.16,4.17 0.07,5.36 -0.02,6.55 0.14,7.84 0.30,9.14 0.59,11.04 0.87,12.93 1.40,14.51 1.94,16.09 2.76,17.31 3.57,18.53 5.14,19.85 6.71,21.17 7.93,21.69 9.16,22.22 10.54,22.67 11.92,23.13 13.20,23.08 14.48,23.04 15.99,22.42 17.50,21.79 19.26,20.88 21.02,19.96 22.56,18.75 24.10,17.54 25.34,16.00 26.58,14.45 27.53,12.94 28.47,11.42 29.26,9.54 30.06,7.66 30.35,5.46 30.65,3.27 30.78,1.01 30.92,-1.23 30.76,-2.75 30.61,-4.26 30.39,-5.02 30.16,-5.78 29.47,-7.08 28.79,-8.38 28.72,-8.46 28.64,-8.54 28.60,-8.63 28.56,-8.73 28.54,-8.84 28.53,-8.94 28.56,-9.05 28.58,-9.15 28.64,-9.24 28.69,-9.33 28.77,-9.40 28.85,-9.47 28.95,-9.51 29.05,-9.55 29.16,-9.55 29.26,-9.56 29.37,-9.53 29.47,-9.50 29.56,-9.44 29.64,-9.38 29.71,-9.29 29.77,-9.21 29.80,-9.11 29.84,-9.00 29.84,-8.90 29.84,-8.79 29.80,-8.69 29.77,-8.59 29.70,-8.51 29.64,-8.42 29.55,-8.36 29.46,-8.30 29.36,-8.28 29.26,-8.25 29.15,-8.26 29.04,-8.26 28.94,-8.30 28.85,-8.34 28.77,-8.41 28.69,-8.48 28.63,-8.57 28.58,-8.66 28.56,-8.77 28.53,-8.87 28.55,-8.98 28.56,-9.08 28.60,-9.18 28.65,-9.28 28.72,-9.35 28.80,-9.43 28.89,-9.48 28.98,-9.53 29.09,-9.54 29.19,-9.56 29.30,-9.54 29.40,-9.52 29.50,-9.47 29.59,-9.42 29.59,-9.42 29.59,-9.42 31.32,-8.07 33.05,-6.71 33.39,-5.64 33.73,-4.57 33.88,-2.80 34.03,-1.03 33.85,1.35 33.68,3.74 33.23,6.28 32.79,8.83 31.84,10.91 30.90,12.98 29.81,14.61 28.73,16.24 27.25,17.96 25.78,19.69 24.01,21.02 22.25,22.36 20.35,23.32 18.46,24.28 16.51,24.98 14.56,25.68 12.85,25.66 11.14,25.64 9.60,25.14 8.07,24.63 6.54,23.91 5.01,23.19 3.20,21.59 1.38,19.99 0.41,18.47 -0.55,16.94 -1.13,15.13 -1.72,13.33 -2.01,11.38 -2.30,9.44 -2.46,7.87 -2.62,6.30 -2.45,4.87 -2.29,3.43 -1.97,2.44 -1.65,1.44 -1.14,0.64 -0.63,-0.15 -0.60,-0.23 -0.58,-0.30 -0.53,-0.37 -0.49,-0.43 -0.43,-0.48 -0.37,-0.54 -0.30,-0.57 -0.23,-0.61 -0.15,-0.63 -0.07,-0.65 0.00,-0.65 0.08,-0.65 0.15,-0.63 0.23,-0.61 0.30,-0.57 0.37,-0.53 0.43,-0.48 0.49,-0.43 0.53,-0.36 0.58,-0.30 0.61,-0.22 0.63,-0.15 0.64,-0.07 0.65,0.00 0.64,0.08 0.63,0.15 0.63,0.15 L 0.63,0.15 Z"/></g><g transform="translate(602.7702993875276 129.43392944335938) rotate(0 0.00006103515625 13.312713623046875)" stroke="none"><path fill="#1e1e1e" d="M -0.36,0.54 Q -0.36,0.54 -1.10,0.34 -1.83,0.14 -2.48,0.31 -3.13,0.48 -4.29,0.76 -5.46,1.04 -6.48,1.56 -7.50,2.07 -8.91,3.30 -10.32,4.53 -11.47,6.64 -12.63,8.75 -13.11,11.26 -13.58,13.77 -13.59,16.27 -13.60,18.78 -12.62,20.66 -11.64,22.54 -9.91,23.64 -8.18,24.75 -5.90,25.00 -3.63,25.25 -0.56,24.75 2.49,24.26 4.85,23.46 7.22,22.65 9.09,21.77 10.97,20.89 12.93,20.24 14.88,19.60 14.98,19.57 15.08,19.54 15.18,19.54 15.29,19.54 15.39,19.57 15.49,19.61 15.58,19.67 15.66,19.74 15.72,19.83 15.78,19.91 15.80,20.02 15.83,20.12 15.83,20.23 15.82,20.33 15.78,20.43 15.74,20.53 15.67,20.61 15.60,20.69 15.51,20.74 15.42,20.80 15.31,20.82 15.21,20.84 15.10,20.83 15.00,20.82 14.90,20.77 14.81,20.73 14.73,20.65 14.65,20.58 14.60,20.48 14.56,20.39 14.54,20.28 14.52,20.18 14.54,20.07 14.56,19.97 14.61,19.88 14.66,19.78 14.74,19.71 14.82,19.64 14.91,19.59 15.01,19.55 15.11,19.54 15.22,19.53 15.32,19.55 15.43,19.58 15.52,19.63 15.61,19.69 15.68,19.77 15.74,19.85 15.78,19.95 15.82,20.05 15.83,20.16 15.83,20.26 15.80,20.36 15.77,20.47 15.71,20.55 15.65,20.64 15.57,20.70 15.48,20.77 15.48,20.77 15.48,20.77 13.84,21.99 12.21,23.21 10.22,24.38 8.23,25.55 5.61,26.48 2.98,27.41 -0.52,27.92 -4.04,28.42 -6.95,27.92 -9.87,27.43 -12.12,25.76 -14.38,24.09 -15.57,21.49 -16.75,18.90 -16.72,16.02 -16.68,13.14 -16.02,10.18 -15.36,7.23 -13.84,4.72 -12.32,2.21 -10.53,0.79 -8.73,-0.61 -7.36,-1.17 -5.99,-1.73 -4.61,-1.91 -3.22,-2.10 -2.00,-1.99 -0.78,-1.89 -0.21,-1.22 0.36,-0.54 0.42,-0.49 0.48,-0.44 0.53,-0.37 0.57,-0.31 0.60,-0.24 0.63,-0.16 0.64,-0.08 0.65,-0.01 0.64,0.06 0.64,0.14 0.61,0.22 0.58,0.29 0.54,0.36 0.49,0.42 0.44,0.48 0.38,0.53 0.31,0.57 0.24,0.61 0.16,0.63 0.08,0.65 0.01,0.65 -0.06,0.65 -0.14,0.63 -0.22,0.61 -0.29,0.58 -0.36,0.54 -0.36,0.54 L -0.36,0.54 Z"/></g><g transform="translate(769.3692984109651 131.71612548828125) rotate(0 -1.14111328125 12.932327270507812)" stroke="none"><path fill="#1e1e1e" d="M 0.58,0.29 Q 0.58,0.29 0.43,1.29 0.27,2.29 0.19,3.78 0.10,5.26 0.06,7.89 0.02,10.52 0.00,13.18 -0.01,15.84 -0.28,18.13 -0.56,20.43 -1.08,22.91 -1.60,25.39 -1.62,25.49 -1.64,25.59 -1.69,25.69 -1.75,25.78 -1.83,25.85 -1.91,25.91 -2.01,25.95 -2.11,25.99 -2.21,26.00 -2.32,26.01 -2.42,25.98 -2.53,25.95 -2.61,25.89 -2.70,25.83 -2.77,25.75 -2.83,25.66 -2.86,25.56 -2.90,25.46 -2.90,25.35 -2.90,25.25 -2.87,25.15 -2.83,25.05 -2.77,24.96 -2.70,24.88 -2.62,24.82 -2.53,24.76 -2.43,24.73 -2.32,24.70 -2.22,24.71 -2.11,24.71 -2.01,24.75 -1.91,24.79 -1.83,24.86 -1.75,24.93 -1.70,25.02 -1.64,25.11 -1.62,25.21 -1.60,25.32 -1.61,25.42 -1.62,25.53 -1.66,25.62 -1.71,25.72 -1.78,25.80 -1.85,25.87 -1.95,25.92 -2.04,25.97 -2.14,25.99 -2.25,26.01 -2.35,25.99 -2.46,25.98 -2.55,25.93 -2.65,25.88 -2.72,25.80 -2.79,25.72 -2.84,25.63 -2.88,25.53 -2.89,25.42 -2.91,25.32 -2.91,25.32 -2.91,25.32 -3.11,22.73 -3.31,20.14 -3.12,17.97 -2.92,15.81 -2.88,13.12 -2.83,10.44 -2.71,7.70 -2.60,4.96 -2.31,3.08 -2.02,1.20 -1.30,0.45 -0.58,-0.29 -0.54,-0.35 -0.49,-0.42 -0.44,-0.47 -0.38,-0.53 -0.31,-0.57 -0.24,-0.60 -0.16,-0.62 -0.09,-0.65 -0.01,-0.65 0.06,-0.65 0.14,-0.63 0.22,-0.61 0.29,-0.58 0.36,-0.54 0.42,-0.49 0.48,-0.44 0.52,-0.38 0.57,-0.31 0.60,-0.24 0.63,-0.16 0.64,-0.09 0.65,-0.01 0.64,0.06 0.64,0.14 0.61,0.21 0.58,0.29 0.58,0.29 L 0.58,0.29 Z"/></g><g transform="translate(765.5657095437776 131.71612548828125) rotate(0 12.17156982421875 11.030517578125)" stroke="none"><path fill="#1e1e1e" d="M -0.54,0.36 Q -0.54,0.36 -1.12,-0.20 -1.70,-0.76 -1.99,-1.54 -2.27,-2.33 -2.12,-2.86 -1.96,-3.39 -1.35,-4.06 -0.73,-4.73 1.07,-5.13 2.88,-5.52 4.83,-5.85 6.79,-6.18 9.98,-5.89 13.16,-5.60 15.84,-5.03 18.51,-4.45 20.41,-3.73 22.30,-3.00 23.77,-1.36 25.24,0.27 25.44,2.32 25.64,4.37 24.96,6.04 24.27,7.71 23.23,8.91 22.20,10.11 20.81,11.09 19.42,12.07 18.14,12.71 16.85,13.35 15.91,13.82 14.96,14.28 14.35,14.41 13.74,14.53 13.58,14.71 13.42,14.88 13.25,14.92 13.09,14.95 12.92,14.94 12.76,14.93 12.60,14.88 12.44,14.83 12.29,14.75 12.15,14.66 12.03,14.55 11.91,14.43 11.82,14.29 11.73,14.14 11.68,13.98 11.63,13.82 11.62,13.66 11.61,13.49 11.64,13.33 11.67,13.16 11.73,13.01 11.80,12.86 11.90,12.72 12.00,12.59 12.14,12.49 12.27,12.38 12.42,12.31 12.57,12.24 13.83,12.50 15.10,12.75 16.60,13.32 18.11,13.88 19.57,14.86 21.03,15.83 21.82,17.16 22.61,18.49 22.44,20.29 22.27,22.09 20.46,23.91 18.65,25.73 16.41,26.67 14.17,27.61 11.76,27.72 9.34,27.82 6.04,26.59 2.75,25.35 2.65,25.31 2.55,25.26 2.48,25.19 2.40,25.12 2.35,25.02 2.30,24.93 2.28,24.83 2.26,24.72 2.28,24.62 2.29,24.51 2.34,24.42 2.39,24.32 2.47,24.25 2.55,24.17 2.64,24.13 2.74,24.08 2.84,24.07 2.95,24.06 3.05,24.08 3.16,24.10 3.25,24.16 3.34,24.21 3.41,24.29 3.48,24.37 3.52,24.47 3.56,24.57 3.56,24.67 3.57,24.78 3.54,24.88 3.52,24.99 3.46,25.07 3.40,25.16 3.31,25.23 3.23,25.29 3.13,25.33 3.03,25.36 2.92,25.36 2.82,25.36 2.72,25.33 2.62,25.30 2.53,25.23 2.45,25.17 2.38,25.08 2.32,25.00 2.30,24.89 2.27,24.79 2.27,24.69 2.28,24.58 2.31,24.48 2.35,24.38 2.42,24.30 2.49,24.22 2.58,24.16 2.67,24.11 2.77,24.08 2.88,24.06 2.98,24.07 3.09,24.08 3.09,24.08 3.09,24.08 6.15,24.55 9.21,25.02 11.12,24.86 13.03,24.70 14.79,23.99 16.56,23.28 17.98,22.23 19.41,21.18 19.65,20.35 19.89,19.52 19.60,18.78 19.31,18.05 18.22,17.25 17.13,16.44 15.27,15.66 13.42,14.88 13.25,14.92 13.09,14.95 12.92,14.94 12.76,14.93 12.60,14.88 12.44,14.83 12.29,14.75 12.15,14.66 12.03,14.55 11.91,14.43 11.82,14.29 11.73,14.14 11.68,13.98 11.63,13.82 11.62,13.66 11.61,13.49 11.64,13.33 11.67,13.16 11.73,13.01 11.80,12.86 11.90,12.72 12.00,12.59 12.13,12.49 12.27,12.38 12.42,12.31 12.57,12.24 12.50,12.25 12.43,12.25 13.06,11.98 13.69,11.71 14.63,11.23 15.58,10.76 16.68,10.22 17.79,9.69 18.93,8.93 20.08,8.17 20.89,7.33 21.70,6.49 22.27,5.41 22.84,4.34 22.91,3.03 22.98,1.72 22.08,0.60 21.17,-0.52 19.55,-1.15 17.92,-1.78 15.41,-2.34 12.89,-2.89 10.04,-3.21 7.19,-3.53 5.22,-3.23 3.26,-2.93 2.02,-2.88 0.78,-2.83 0.37,-2.34 -0.04,-1.85 0.25,-1.11 0.54,-0.36 0.58,-0.29 0.61,-0.22 0.63,-0.14 0.65,-0.06 0.65,0.01 0.65,0.08 0.63,0.16 0.61,0.24 0.57,0.31 0.53,0.38 0.48,0.44 0.42,0.49 0.36,0.54 0.29,0.58 0.22,0.61 0.14,0.64 0.06,0.64 -0.01,0.65 -0.08,0.64 -0.16,0.63 -0.24,0.60 -0.31,0.57 -0.37,0.53 -0.44,0.48 -0.49,0.42 -0.54,0.36 -0.54,0.36 L -0.54,0.36 Z"/></g><g transform="translate(941.2932486062776 158.34152221679688) rotate(0 11.03057861328125 -12.932327270507812)" stroke="none"><path fill="#1e1e1e" d="M -0.65,0 Q -0.65,0 -0.90,-1.10 -1.16,-2.20 -0.32,-5.05 0.50,-7.90 1.51,-10.80 2.51,-13.70 3.82,-16.53 5.14,-19.36 6.11,-21.61 7.08,-23.86 7.94,-25.72 8.80,-27.57 9.42,-28.64 10.03,-29.71 10.49,-30.13 10.94,-30.55 11.05,-30.70 11.16,-30.84 11.30,-30.96 11.44,-31.07 11.61,-31.15 11.77,-31.22 11.95,-31.26 12.12,-31.29 12.31,-31.29 12.49,-31.28 12.66,-31.23 12.83,-31.17 12.99,-31.08 13.15,-30.99 13.28,-30.87 13.41,-30.74 13.50,-30.59 13.60,-30.43 13.65,-30.26 13.71,-30.09 13.72,-29.91 13.74,-29.73 13.71,-29.55 13.68,-29.37 13.60,-29.20 13.53,-29.04 14.15,-28.93 14.76,-28.83 15.99,-25.90 17.21,-22.96 18.17,-19.27 19.12,-15.57 19.92,-11.83 20.73,-8.09 21.46,-5.21 22.20,-2.34 22.41,0.76 22.62,3.88 22.61,3.98 22.61,4.09 22.58,4.19 22.54,4.29 22.48,4.37 22.41,4.46 22.32,4.52 22.24,4.58 22.13,4.60 22.03,4.63 21.93,4.62 21.82,4.62 21.72,4.58 21.62,4.54 21.54,4.47 21.46,4.40 21.41,4.31 21.35,4.21 21.33,4.11 21.31,4.01 21.32,3.90 21.34,3.80 21.38,3.70 21.43,3.60 21.50,3.53 21.57,3.45 21.67,3.40 21.76,3.35 21.87,3.34 21.97,3.32 22.08,3.34 22.18,3.36 22.28,3.41 22.37,3.46 22.44,3.54 22.51,3.61 22.56,3.71 22.60,3.81 22.61,3.91 22.62,4.02 22.60,4.12 22.57,4.23 22.52,4.32 22.46,4.41 22.38,4.48 22.30,4.54 22.20,4.58 22.10,4.62 22.00,4.62 21.89,4.63 21.79,4.60 21.68,4.57 21.60,4.51 21.51,4.45 21.45,4.36 21.38,4.28 21.35,4.18 21.32,4.08 21.32,4.08 21.32,4.08 20.45,1.22 19.58,-1.63 18.73,-4.54 17.88,-7.45 17.03,-11.13 16.18,-14.82 15.28,-18.31 14.38,-21.80 13.32,-24.46 12.26,-27.11 11.60,-28.83 10.94,-30.55 11.05,-30.70 11.16,-30.84 11.30,-30.96 11.44,-31.07 11.61,-31.15 11.77,-31.22 11.95,-31.26 12.12,-31.29 12.31,-31.29 12.49,-31.28 12.66,-31.23 12.83,-31.17 12.99,-31.08 13.15,-30.99 13.28,-30.87 13.41,-30.74 13.50,-30.59 13.60,-30.43 13.65,-30.26 13.71,-30.09 13.72,-29.91 13.74,-29.73 13.71,-29.55 13.68,-29.37 13.60,-29.20 13.53,-29.04 13.05,-28.61 12.57,-28.18 12.02,-27.25 11.47,-26.32 10.61,-24.51 9.74,-22.69 8.72,-20.41 7.71,-18.14 6.40,-15.46 5.09,-12.78 4.04,-9.93 2.99,-7.08 2.07,-4.62 1.16,-2.16 0.90,-1.08 0.65,0 0.64,0.07 0.63,0.15 0.60,0.23 0.58,0.30 0.53,0.37 0.49,0.43 0.43,0.48 0.37,0.54 0.30,0.57 0.23,0.61 0.15,0.63 0.07,0.65 -0.00,0.65 -0.07,0.65 -0.15,0.63 -0.23,0.61 -0.30,0.57 -0.37,0.54 -0.43,0.48 -0.49,0.43 -0.53,0.37 -0.58,0.30 -0.60,0.23 -0.63,0.15 -0.64,0.07 -0.65,-0.00 -0.65,-0.00 L -0.65,0 Z"/></g><g transform="translate(947.3790640359651 146.93063354492188) rotate(0 8.74835205078125 -0.3803558349609375)" stroke="none"><path fill="#1e1e1e" d="M -0.12,-0.64 Q -0.12,-0.64 0.91,-1.09 1.96,-1.54 3.82,-1.70 5.67,-1.86 7.98,-1.90 10.29,-1.93 13.27,-1.35 16.26,-0.78 16.36,-0.75 16.46,-0.72 16.55,-0.66 16.64,-0.60 16.71,-0.52 16.77,-0.44 16.81,-0.34 16.84,-0.24 16.84,-0.13 16.84,-0.02 16.81,0.07 16.78,0.17 16.71,0.25 16.65,0.34 16.56,0.40 16.48,0.46 16.37,0.49 16.27,0.52 16.17,0.52 16.06,0.51 15.96,0.47 15.86,0.43 15.78,0.37 15.70,0.30 15.64,0.21 15.59,0.12 15.56,0.01 15.54,-0.08 15.55,-0.19 15.56,-0.29 15.60,-0.39 15.65,-0.48 15.72,-0.56 15.79,-0.64 15.88,-0.69 15.98,-0.74 16.08,-0.76 16.19,-0.78 16.29,-0.76 16.40,-0.75 16.49,-0.70 16.59,-0.65 16.66,-0.57 16.73,-0.50 16.78,-0.40 16.83,-0.30 16.84,-0.20 16.85,-0.09 16.83,0.00 16.81,0.10 16.75,0.20 16.70,0.29 16.62,0.36 16.54,0.43 16.44,0.47 16.34,0.51 16.24,0.51 16.13,0.52 16.13,0.52 16.13,0.52 13.23,0.53 10.33,0.53 8.07,0.57 5.80,0.62 4.10,0.64 2.40,0.66 1.26,0.65 0.12,0.64 0.04,0.64 -0.02,0.65 -0.10,0.64 -0.18,0.62 -0.25,0.59 -0.33,0.56 -0.39,0.51 -0.45,0.47 -0.50,0.41 -0.55,0.34 -0.59,0.27 -0.62,0.20 -0.63,0.12 -0.65,0.05 -0.65,-0.02 -0.64,-0.10 -0.62,-0.18 -0.60,-0.25 -0.56,-0.32 -0.52,-0.39 -0.46,-0.45 -0.41,-0.51 -0.34,-0.55 -0.27,-0.59 -0.20,-0.61 -0.12,-0.64 -0.12,-0.64 L -0.12,-0.64 Z"/></g><g transform="translate(687.2108511453401 124.10885620117188) rotate(0 4.18408203125 19.77886962890625)" stroke="none"><path fill="#1e1e1e" d="M -0.24,0.60 Q -0.24,0.60 -1.43,0.42 -2.62,0.24 -3.60,0.12 -4.58,0.00 -5.68,0.38 -6.77,0.75 -8.05,1.50 -9.33,2.24 -10.40,3.74 -11.47,5.23 -12.59,7.57 -13.71,9.91 -14.61,12.61 -15.52,15.31 -15.45,18.90 -15.39,22.49 -15.16,25.37 -14.93,28.25 -14.01,30.84 -13.08,33.44 -11.27,35.50 -9.46,37.56 -7.07,38.82 -4.68,40.07 -2.03,40.60 0.61,41.13 3.80,40.71 6.98,40.30 9.61,39.49 12.25,38.68 14.57,37.30 16.88,35.92 18.62,33.70 20.35,31.48 21.72,28.64 23.10,25.80 23.66,22.96 24.21,20.13 24.03,17.30 23.84,14.46 22.93,11.85 22.02,9.23 20.62,7.36 19.22,5.48 17.57,3.82 15.92,2.15 13.80,0.87 11.68,-0.41 9.81,-0.93 7.94,-1.45 6.29,-1.69 4.65,-1.92 2.97,-1.82 1.28,-1.72 -0.26,-1.49 -1.81,-1.26 -2.92,-0.42 -4.02,0.40 -4.98,1.33 -5.94,2.26 -7.13,5.10 -8.32,7.93 -8.36,8.03 -8.41,8.13 -8.48,8.20 -8.56,8.28 -8.65,8.33 -8.74,8.38 -8.85,8.39 -8.95,8.41 -9.06,8.39 -9.16,8.37 -9.26,8.32 -9.35,8.27 -9.42,8.20 -9.50,8.12 -9.54,8.02 -9.58,7.92 -9.59,7.82 -9.61,7.71 -9.58,7.61 -9.56,7.51 -9.50,7.42 -9.45,7.32 -9.37,7.26 -9.28,7.19 -9.19,7.15 -9.09,7.11 -8.98,7.11 -8.87,7.10 -8.77,7.13 -8.67,7.16 -8.58,7.22 -8.50,7.28 -8.43,7.36 -8.37,7.45 -8.33,7.55 -8.30,7.65 -8.30,7.76 -8.30,7.86 -8.34,7.96 -8.37,8.06 -8.44,8.15 -8.50,8.23 -8.59,8.29 -8.68,8.35 -8.78,8.38 -8.88,8.41 -8.99,8.40 -9.10,8.39 -9.19,8.35 -9.29,8.31 -9.37,8.24 -9.45,8.17 -9.51,8.08 -9.56,7.99 -9.58,7.89 -9.61,7.78 -9.59,7.68 -9.58,7.57 -9.58,7.57 -9.58,7.57 -8.68,4.10 -7.78,0.63 -6.71,-0.58 -5.64,-1.80 -4.03,-2.94 -2.41,-4.08 -0.65,-4.38 1.10,-4.69 3.09,-4.80 5.07,-4.92 6.93,-4.66 8.78,-4.39 11.03,-3.71 13.27,-3.04 15.68,-1.52 18.09,-0.01 19.90,1.83 21.71,3.68 23.30,5.95 24.90,8.22 25.88,11.24 26.87,14.26 27.02,17.49 27.17,20.72 26.47,23.91 25.78,27.10 24.20,30.21 22.62,33.31 20.49,35.82 18.36,38.33 15.72,39.84 13.07,41.35 10.19,42.19 7.31,43.04 3.70,43.43 0.10,43.82 -2.93,43.16 -5.97,42.49 -8.73,40.94 -11.50,39.39 -13.57,36.90 -15.65,34.41 -16.68,31.45 -17.70,28.49 -17.94,25.51 -18.18,22.52 -18.18,18.49 -18.19,14.46 -17.20,11.58 -16.22,8.69 -14.94,6.12 -13.67,3.56 -12.19,1.74 -10.72,-0.07 -9.10,-0.94 -7.48,-1.81 -5.87,-2.15 -4.26,-2.50 -3.00,-2.24 -1.74,-1.99 -0.75,-1.30 0.24,-0.60 0.31,-0.57 0.38,-0.53 0.44,-0.48 0.49,-0.42 0.54,-0.36 0.58,-0.29 0.61,-0.22 0.64,-0.14 0.64,-0.06 0.65,0.01 0.64,0.09 0.63,0.16 0.60,0.24 0.57,0.31 0.52,0.37 0.48,0.44 0.42,0.49 0.36,0.54 0.29,0.58 0.22,0.61 0.14,0.63 0.06,0.65 -0.01,0.65 -0.09,0.65 -0.16,0.63 -0.24,0.60 -0.24,0.60 L -0.24,0.60 Z"/></g><g transform="translate(689.4930777078401 118.0230712890625) rotate(0 2.28216552734375 24.343215942382812)" stroke="none"><path fill="#1e1e1e" d="M 0.65,-0.09 Q 0.65,-0.09 1.08,1.40 1.51,2.90 1.67,5.58 1.82,8.25 1.93,12.66 2.04,17.07 2.31,20.87 2.57,24.67 2.91,28.25 3.24,31.82 3.59,34.87 3.93,37.91 4.25,40.05 4.57,42.20 4.79,45.06 5.01,47.92 5.02,48.03 5.04,48.13 5.02,48.24 5.00,48.34 4.95,48.43 4.90,48.53 4.82,48.60 4.74,48.67 4.64,48.71 4.55,48.76 4.44,48.77 4.33,48.78 4.23,48.75 4.13,48.73 4.04,48.67 3.95,48.62 3.88,48.53 3.81,48.45 3.77,48.35 3.74,48.25 3.73,48.15 3.73,48.04 3.76,47.94 3.79,47.84 3.85,47.75 3.91,47.66 4.00,47.60 4.08,47.54 4.18,47.50 4.28,47.47 4.39,47.47 4.50,47.48 4.60,47.51 4.70,47.55 4.78,47.61 4.86,47.68 4.92,47.77 4.98,47.86 5.01,47.96 5.03,48.06 5.03,48.17 5.02,48.27 4.98,48.37 4.94,48.47 4.87,48.55 4.80,48.63 4.71,48.68 4.61,48.74 4.51,48.76 4.41,48.78 4.30,48.77 4.19,48.75 4.10,48.71 4.00,48.66 3.93,48.59 3.85,48.51 3.80,48.42 3.75,48.32 3.75,48.32 3.75,48.32 2.85,45.48 1.94,42.65 1.52,40.44 1.09,38.24 0.73,35.16 0.37,32.08 0.07,28.46 -0.23,24.84 -0.43,20.97 -0.64,17.09 -0.61,12.72 -0.58,8.34 -0.61,5.77 -0.63,3.21 -0.64,1.65 -0.65,0.09 -0.65,0.01 -0.65,-0.06 -0.63,-0.14 -0.61,-0.21 -0.58,-0.29 -0.54,-0.36 -0.49,-0.42 -0.44,-0.48 -0.38,-0.52 -0.31,-0.57 -0.24,-0.60 -0.17,-0.63 -0.09,-0.64 -0.01,-0.65 0.06,-0.64 0.14,-0.64 0.21,-0.61 0.29,-0.58 0.35,-0.54 0.42,-0.50 0.47,-0.44 0.53,-0.38 0.57,-0.31 0.60,-0.24 0.62,-0.16 0.65,-0.09 0.65,-0.09 L 0.65,-0.09 Z"/></g><g transform="translate(691.0145620828401 120.30523681640625) rotate(0 -4.9447021484375 -55.152618408203125)" stroke="none"><path fill="#1e1e1e" d="M -0.63,-0.15 Q -0.63,-0.15 -0.61,-1.07 -0.59,-1.99 -0.81,-3.50 -1.02,-5.02 -1.11,-6.86 -1.21,-8.69 -1.48,-10.49 -1.75,-12.28 -2.10,-14.59 -2.45,-16.91 -2.82,-18.96 -3.18,-21.02 -3.56,-22.98 -3.93,-24.95 -4.11,-27.41 -4.28,-29.86 -4.36,-32.43 -4.43,-35.00 -4.67,-37.11 -4.91,-39.22 -5.24,-41.43 -5.56,-43.64 -5.70,-45.52 -5.84,-47.39 -5.90,-48.85 -5.96,-50.31 -6.20,-51.46 -6.43,-52.62 -6.54,-53.89 -6.65,-55.16 -6.70,-56.13 -6.75,-57.10 -6.76,-57.96 -6.78,-58.82 -6.79,-59.84 -6.79,-60.87 -6.80,-61.74 -6.80,-62.61 -6.80,-63.20 -6.80,-63.78 -6.80,-64.71 -6.80,-65.63 -6.54,-66.47 -6.27,-67.30 -6.22,-67.85 -6.16,-68.39 -6.13,-69.07 -6.09,-69.75 -5.83,-70.67 -5.56,-71.60 -5.49,-72.23 -5.42,-72.86 -5.36,-73.78 -5.31,-74.70 -5.30,-75.48 -5.28,-76.26 -4.97,-77.38 -4.65,-78.51 -4.60,-79.53 -4.54,-80.55 -4.27,-81.88 -4.00,-83.21 -4.60,-83.36 -5.20,-83.51 -6.12,-83.78 -7.04,-84.05 -7.64,-84.12 -8.24,-84.18 -9.32,-84.47 -10.40,-84.75 -11.33,-85.11 -12.26,-85.47 -13.12,-85.86 -13.97,-86.25 -14.77,-87.02 -15.57,-87.79 -16.15,-88.89 -16.73,-89.98 -17.15,-90.85 -17.56,-91.73 -17.57,-93.52 -17.59,-95.31 -16.84,-97.26 -16.09,-99.21 -15.08,-100.90 -14.07,-102.60 -12.98,-104.19 -11.88,-105.77 -10.95,-106.91 -10.01,-108.06 -8.62,-109.08 -7.22,-110.10 -6.10,-110.57 -4.97,-111.03 -3.52,-111.23 -2.06,-111.43 -0.69,-111.28 0.67,-111.13 1.61,-111.06 2.54,-111.00 3.65,-110.45 4.77,-109.90 5.52,-109.13 6.28,-108.35 6.88,-106.99 7.48,-105.64 7.53,-104.23 7.57,-102.83 7.34,-101.55 7.11,-100.28 6.52,-98.96 5.94,-97.65 4.97,-96.36 3.99,-95.08 2.78,-94.24 1.57,-93.41 -0.09,-92.70 -1.76,-92.00 -3.81,-91.80 -5.87,-91.60 -5.97,-91.59 -6.08,-91.59 -6.18,-91.61 -6.29,-91.64 -6.37,-91.70 -6.46,-91.75 -6.53,-91.84 -6.59,-91.92 -6.63,-92.02 -6.67,-92.12 -6.67,-92.23 -6.67,-92.33 -6.64,-92.44 -6.61,-92.54 -6.54,-92.62 -6.48,-92.71 -6.39,-92.77 -6.31,-92.83 -6.21,-92.86 -6.10,-92.89 -6.00,-92.89 -5.89,-92.88 -5.79,-92.85 -5.69,-92.81 -5.61,-92.74 -5.53,-92.67 -5.47,-92.58 -5.41,-92.49 -5.39,-92.39 -5.37,-92.29 -5.37,-92.18 -5.38,-92.08 -5.43,-91.98 -5.47,-91.88 -5.54,-91.80 -5.61,-91.72 -5.71,-91.67 -5.80,-91.62 -5.90,-91.60 -6.01,-91.58 -6.11,-91.60 -6.22,-91.61 -6.31,-91.66 -6.41,-91.71 -6.48,-91.79 -6.56,-91.86 -6.60,-91.96 -6.65,-92.05 -6.66,-92.16 -6.68,-92.26 -6.66,-92.37 -6.63,-92.47 -6.58,-92.56 -6.53,-92.66 -6.45,-92.73 -6.37,-92.80 -6.27,-92.84 -6.17,-92.88 -6.17,-92.88 -6.17,-92.88 -4.50,-93.57 -2.83,-94.26 -1.44,-95.03 -0.04,-95.80 0.80,-96.37 1.65,-96.95 2.44,-97.94 3.23,-98.94 3.72,-99.91 4.21,-100.88 4.43,-101.88 4.65,-102.89 4.74,-103.77 4.83,-104.66 4.50,-105.59 4.18,-106.52 3.78,-107.01 3.39,-107.51 2.82,-107.89 2.25,-108.27 1.29,-108.33 0.33,-108.39 -0.70,-108.54 -1.73,-108.68 -2.85,-108.56 -3.97,-108.44 -4.78,-108.13 -5.60,-107.82 -6.71,-107.04 -7.81,-106.25 -8.65,-105.20 -9.49,-104.15 -10.51,-102.62 -11.53,-101.10 -12.40,-99.59 -13.28,-98.09 -13.88,-96.62 -14.48,-95.16 -14.58,-94.06 -14.68,-92.97 -14.27,-92.20 -13.86,-91.42 -13.21,-90.30 -12.56,-89.17 -11.82,-88.84 -11.08,-88.52 -10.31,-88.22 -9.54,-87.92 -8.68,-87.68 -7.81,-87.44 -6.92,-87.31 -6.04,-87.17 -5.52,-86.98 -5.01,-86.78 -4.28,-86.74 -3.55,-86.70 -2.67,-86.45 -1.80,-86.20 -1.42,-85.57 -1.04,-84.93 -1.00,-84.18 -0.96,-83.43 -1.08,-82.84 -1.21,-82.25 -1.40,-81.36 -1.59,-80.47 -1.66,-79.33 -1.74,-78.20 -2.04,-77.56 -2.35,-76.92 -2.34,-76.18 -2.33,-75.43 -2.36,-74.53 -2.38,-73.63 -2.43,-73.05 -2.48,-72.47 -2.61,-71.60 -2.73,-70.72 -2.94,-70.14 -3.14,-69.57 -3.18,-68.78 -3.23,-68.00 -3.54,-66.78 -3.84,-65.57 -3.84,-64.68 -3.83,-63.79 -3.83,-63.21 -3.83,-62.62 -3.83,-61.75 -3.82,-60.89 -3.81,-59.89 -3.81,-58.89 -3.79,-58.06 -3.76,-57.24 -3.72,-56.33 -3.68,-55.41 -3.59,-54.30 -3.49,-53.18 -3.24,-51.81 -2.98,-50.43 -2.92,-49.02 -2.87,-47.62 -2.74,-45.84 -2.60,-44.07 -2.28,-41.81 -1.95,-39.55 -1.70,-37.32 -1.45,-35.08 -1.39,-32.57 -1.33,-30.06 -1.19,-27.77 -1.05,-25.49 -0.69,-23.50 -0.32,-21.51 0.01,-19.40 0.36,-17.30 0.65,-14.96 0.94,-12.63 1.15,-10.70 1.37,-8.77 1.38,-6.99 1.39,-5.20 1.43,-3.35 1.47,-1.50 1.05,-0.67 0.63,0.15 0.60,0.23 0.58,0.30 0.53,0.37 0.49,0.43 0.43,0.48 0.37,0.54 0.30,0.57 0.23,0.61 0.15,0.63 0.07,0.65 -0.00,0.65 -0.08,0.65 -0.15,0.63 -0.23,0.61 -0.30,0.57 -0.37,0.53 -0.43,0.48 -0.49,0.43 -0.53,0.36 -0.58,0.30 -0.61,0.22 -0.63,0.15 -0.64,0.07 -0.65,-0.00 -0.64,-0.08 -0.63,-0.15 -0.63,-0.15 L -0.63,-0.15 Z"/></g><g transform="translate(863.6992544656526 123.34814453125) rotate(0 5.3250732421875 18.637771606445312)" stroke="none"><path fill="#1e1e1e" d="M -0.52,0.39 Q -0.52,0.39 -1.23,-0.29 -1.95,-0.98 -2.84,-0.93 -3.73,-0.88 -4.85,-0.51 -5.97,-0.14 -7.61,1.43 -9.26,3.02 -10.81,5.58 -12.35,8.13 -13.43,11.33 -14.50,14.52 -14.73,18.61 -14.95,22.69 -14.41,26.99 -13.87,31.29 -12.38,34.50 -10.90,37.71 -8.66,40.04 -6.42,42.37 -3.53,43.06 -0.64,43.75 2.36,43.02 5.37,42.29 8.94,39.68 12.51,37.06 15.72,32.97 18.93,28.88 21.15,24.37 23.36,19.87 24.27,15.89 25.19,11.91 24.49,7.59 23.80,3.26 22.30,0.48 20.81,-2.29 18.19,-3.99 15.57,-5.68 12.45,-6.19 9.33,-6.71 6.31,-6.56 3.29,-6.40 0.99,-5.75 -1.30,-5.10 -3.16,-4.27 -5.01,-3.45 -6.87,-2.48 -8.73,-1.51 -8.83,-1.46 -8.92,-1.42 -9.03,-1.41 -9.13,-1.39 -9.24,-1.42 -9.34,-1.44 -9.43,-1.49 -9.52,-1.55 -9.59,-1.63 -9.66,-1.71 -9.70,-1.81 -9.74,-1.91 -9.74,-2.01 -9.75,-2.12 -9.72,-2.22 -9.69,-2.33 -9.63,-2.41 -9.57,-2.50 -9.49,-2.57 -9.41,-2.63 -9.30,-2.66 -9.20,-2.70 -9.10,-2.70 -8.99,-2.70 -8.89,-2.66 -8.79,-2.63 -8.71,-2.57 -8.62,-2.50 -8.56,-2.41 -8.50,-2.32 -8.47,-2.22 -8.44,-2.12 -8.45,-2.01 -8.46,-1.91 -8.50,-1.81 -8.54,-1.71 -8.60,-1.63 -8.67,-1.55 -8.76,-1.49 -8.85,-1.44 -8.96,-1.42 -9.06,-1.39 -9.17,-1.41 -9.27,-1.42 -9.37,-1.46 -9.47,-1.51 -9.54,-1.58 -9.62,-1.65 -9.67,-1.75 -9.72,-1.84 -9.74,-1.95 -9.75,-2.05 -9.74,-2.15 -9.72,-2.26 -9.67,-2.35 -9.62,-2.45 -9.54,-2.52 -9.47,-2.59 -9.47,-2.59 -9.47,-2.59 -7.76,-4.04 -6.04,-5.49 -4.07,-6.60 -2.09,-7.71 0.51,-8.52 3.11,-9.32 6.48,-9.53 9.86,-9.73 13.55,-9.02 17.24,-8.31 20.35,-6.10 23.47,-3.89 25.17,-0.56 26.88,2.75 27.54,7.65 28.20,12.54 27.15,16.88 26.10,21.21 23.69,25.98 21.29,30.74 17.75,35.08 14.22,39.42 10.14,42.23 6.07,45.05 2.41,45.77 -1.23,46.50 -4.76,45.46 -8.28,44.43 -10.86,41.67 -13.43,38.91 -15.03,35.29 -16.63,31.66 -17.17,27.09 -17.71,22.52 -17.40,18.09 -17.08,13.66 -15.85,10.20 -14.62,6.73 -12.81,3.92 -11.00,1.11 -8.86,-0.68 -6.72,-2.47 -5.11,-2.84 -3.50,-3.22 -2.08,-2.86 -0.67,-2.51 -0.07,-1.45 0.52,-0.39 0.56,-0.32 0.60,-0.25 0.62,-0.18 0.64,-0.10 0.65,-0.02 0.65,0.05 0.63,0.13 0.62,0.20 0.58,0.28 0.55,0.35 0.50,0.41 0.45,0.47 0.39,0.52 0.32,0.56 0.25,0.59 0.18,0.63 0.10,0.64 0.02,0.65 -0.05,0.64 -0.13,0.64 -0.20,0.61 -0.28,0.59 -0.34,0.55 -0.41,0.50 -0.47,0.45 -0.52,0.39 -0.52,0.39 L -0.52,0.39 Z"/></g><g transform="translate(866.7422232156526 117.2623291015625) rotate(0 1.14105224609375 23.582504272460938)" stroke="none"><path fill="#1e1e1e" d="M 0.63,-0.15 Q 0.63,-0.15 1.15,0.64 1.66,1.44 1.84,3.91 2.01,6.37 2.32,10.63 2.64,14.88 2.78,20.01 2.93,25.14 3.20,29.02 3.48,32.89 3.58,35.90 3.69,38.90 3.68,41.05 3.66,43.20 3.30,45.34 2.93,47.47 2.91,47.58 2.90,47.68 2.85,47.78 2.80,47.87 2.72,47.95 2.65,48.02 2.55,48.07 2.46,48.11 2.35,48.13 2.24,48.14 2.14,48.12 2.04,48.10 1.94,48.04 1.85,47.99 1.78,47.91 1.71,47.83 1.67,47.73 1.63,47.63 1.63,47.53 1.62,47.42 1.65,47.32 1.67,47.21 1.73,47.13 1.79,47.04 1.87,46.97 1.96,46.91 2.06,46.87 2.16,46.84 2.26,46.83 2.37,46.83 2.47,46.87 2.57,46.90 2.66,46.96 2.74,47.02 2.80,47.11 2.86,47.20 2.89,47.30 2.92,47.40 2.92,47.51 2.91,47.62 2.88,47.71 2.84,47.81 2.77,47.90 2.70,47.98 2.61,48.03 2.52,48.09 2.42,48.11 2.32,48.14 2.21,48.13 2.10,48.12 2.01,48.07 1.91,48.03 1.83,47.96 1.75,47.89 1.70,47.79 1.65,47.70 1.63,47.59 1.62,47.49 1.62,47.49 1.62,47.49 1.18,45.38 0.75,43.27 0.64,41.14 0.53,39.02 0.41,36.06 0.29,33.11 0.04,29.16 -0.21,25.20 -0.28,20.14 -0.36,15.07 -0.56,10.77 -0.76,6.48 -0.78,4.26 -0.79,2.05 -0.71,1.10 -0.63,0.15 -0.64,0.08 -0.65,0.00 -0.64,-0.07 -0.63,-0.15 -0.61,-0.22 -0.58,-0.30 -0.53,-0.36 -0.49,-0.43 -0.43,-0.48 -0.37,-0.53 -0.30,-0.57 -0.23,-0.61 -0.15,-0.63 -0.08,-0.65 -0.00,-0.65 0.07,-0.65 0.15,-0.63 0.23,-0.61 0.30,-0.57 0.37,-0.54 0.43,-0.48 0.49,-0.43 0.53,-0.37 0.58,-0.30 0.60,-0.23 0.63,-0.15 0.63,-0.15 L 0.63,-0.15 Z"/></g><g transform="translate(683.4072622781526 35.10395812988281) rotate(0 4.18402099609375 -8.74835205078125)" stroke="none"><path fill="#1e1e1e" d="M -0.46,-0.46 Q -0.46,-0.46 0.05,-1.25 0.57,-2.05 1.03,-2.58 1.48,-3.12 1.89,-3.58 2.29,-4.04 2.98,-4.56 3.68,-5.09 4.25,-5.65 4.83,-6.21 5.27,-7.44 5.71,-8.68 5.79,-9.26 5.87,-9.84 6.18,-10.71 6.49,-11.58 6.60,-12.38 6.70,-13.19 6.59,-15.01 6.48,-16.84 6.44,-16.94 6.40,-17.04 6.39,-17.14 6.38,-17.25 6.40,-17.35 6.43,-17.45 6.48,-17.54 6.54,-17.63 6.62,-17.70 6.70,-17.77 6.80,-17.81 6.90,-17.84 7.01,-17.85 7.12,-17.85 7.22,-17.82 7.32,-17.79 7.41,-17.73 7.49,-17.67 7.56,-17.58 7.62,-17.50 7.65,-17.39 7.68,-17.29 7.68,-17.19 7.68,-17.08 7.64,-16.98 7.61,-16.88 7.54,-16.80 7.47,-16.71 7.38,-16.66 7.30,-16.60 7.19,-16.57 7.09,-16.55 6.98,-16.55 6.88,-16.56 6.78,-16.60 6.68,-16.64 6.60,-16.71 6.52,-16.78 6.47,-16.88 6.42,-16.97 6.40,-17.07 6.38,-17.18 6.39,-17.28 6.40,-17.39 6.45,-17.48 6.50,-17.58 6.57,-17.65 6.64,-17.73 6.74,-17.78 6.83,-17.83 6.94,-17.84 7.04,-17.86 7.15,-17.84 7.25,-17.82 7.35,-17.77 7.44,-17.71 7.51,-17.64 7.58,-17.56 7.58,-17.56 7.58,-17.56 8.63,-15.19 9.67,-12.82 9.54,-11.67 9.40,-10.52 9.15,-9.88 8.90,-9.24 8.69,-8.32 8.47,-7.40 8.12,-6.70 7.76,-5.99 7.27,-5.07 6.78,-4.16 5.95,-3.50 5.13,-2.85 4.58,-2.57 4.03,-2.28 3.58,-1.88 3.12,-1.48 2.58,-1.03 2.05,-0.57 1.25,-0.05 0.46,0.46 0.40,0.51 0.33,0.56 0.26,0.59 0.19,0.62 0.11,0.64 0.03,0.65 -0.03,0.65 -0.11,0.64 -0.19,0.62 -0.26,0.59 -0.33,0.55 -0.40,0.51 -0.46,0.46 -0.51,0.40 -0.55,0.33 -0.59,0.26 -0.62,0.19 -0.64,0.11 -0.65,0.03 -0.65,-0.03 -0.64,-0.11 -0.62,-0.19 -0.59,-0.26 -0.56,-0.33 -0.51,-0.40 -0.46,-0.46 -0.46,-0.46 L -0.46,-0.46 Z"/></g><g transform="translate(867.5028433328401 19.128707885742188) rotate(0 -0.76068115234375 3.8036346435546875)" stroke="none"><path fill="#1e1e1e" d="M -0.54,0.36 Q -0.54,0.36 -1.10,-0.20 -1.65,-0.77 -2.20,-1.14 -2.76,-1.50 -3.42,-1.87 -4.08,-2.24 -5.00,-1.82 -5.92,-1.40 -6.26,-0.50 -6.59,0.38 -6.99,1.85 -7.38,3.32 -7.55,4.98 -7.71,6.64 -7.57,7.91 -7.44,9.18 -6.81,10.18 -6.19,11.19 -5.42,11.52 -4.65,11.84 -3.76,11.99 -2.88,12.15 -1.59,11.80 -0.29,11.45 0.81,10.72 1.92,10.00 2.95,8.49 3.98,6.98 4.65,5.70 5.33,4.42 5.57,3.15 5.81,1.87 5.71,0.56 5.61,-0.74 5.17,-1.84 4.74,-2.94 4.46,-3.56 4.19,-4.18 1.70,-3.80 -0.77,-3.42 -0.88,-3.39 -0.98,-3.36 -1.08,-3.37 -1.19,-3.37 -1.29,-3.41 -1.39,-3.45 -1.47,-3.52 -1.55,-3.59 -1.60,-3.68 -1.66,-3.77 -1.68,-3.87 -1.71,-3.98 -1.70,-4.08 -1.68,-4.19 -1.64,-4.29 -1.60,-4.38 -1.52,-4.46 -1.45,-4.54 -1.36,-4.59 -1.26,-4.64 -1.16,-4.65 -1.05,-4.67 -0.95,-4.66 -0.84,-4.64 -0.75,-4.59 -0.65,-4.54 -0.58,-4.46 -0.51,-4.39 -0.46,-4.29 -0.42,-4.19 -0.41,-4.09 -0.39,-3.98 -0.42,-3.88 -0.44,-3.77 -0.49,-3.68 -0.55,-3.59 -0.63,-3.52 -0.71,-3.45 -0.81,-3.41 -0.91,-3.37 -1.01,-3.37 -1.12,-3.36 -1.22,-3.39 -1.32,-3.42 -1.41,-3.48 -1.50,-3.54 -1.57,-3.62 -1.63,-3.71 -1.66,-3.81 -1.70,-3.91 -1.70,-4.01 -1.70,-4.12 -1.67,-4.22 -1.63,-4.32 -1.57,-4.41 -1.50,-4.49 -1.42,-4.55 -1.33,-4.61 -1.33,-4.61 -1.33,-4.61 1.24,-5.65 3.81,-6.70 4.99,-6.21 6.17,-5.72 6.74,-4.80 7.30,-3.89 7.82,-2.41 8.33,-0.93 8.40,0.74 8.47,2.41 8.08,4.04 7.70,5.67 6.91,7.11 6.12,8.55 4.71,10.34 3.31,12.14 1.80,13.02 0.28,13.89 -1.50,14.23 -3.30,14.56 -4.54,14.26 -5.79,13.96 -6.94,13.22 -8.09,12.48 -8.90,10.99 -9.71,9.49 -9.86,7.95 -10.00,6.42 -9.81,4.57 -9.61,2.72 -9.16,1.08 -8.71,-0.55 -8.07,-1.83 -7.44,-3.11 -6.62,-3.71 -5.81,-4.32 -5.07,-4.45 -4.33,-4.58 -3.65,-4.33 -2.96,-4.08 -2.22,-3.59 -1.48,-3.10 -0.78,-2.47 -0.09,-1.84 0.22,-1.10 0.54,-0.36 0.58,-0.29 0.61,-0.22 0.63,-0.14 0.65,-0.06 0.65,0.01 0.65,0.08 0.63,0.16 0.61,0.24 0.57,0.31 0.53,0.38 0.48,0.44 0.42,0.49 0.36,0.54 0.29,0.58 0.22,0.61 0.14,0.64 0.06,0.64 -0.01,0.65 -0.08,0.64 -0.16,0.63 -0.24,0.60 -0.31,0.57 -0.37,0.53 -0.44,0.48 -0.49,0.42 -0.54,0.36 -0.54,0.36 L -0.54,0.36 Z"/></g><g transform="translate(866.7422232156526 28.257415771484375) rotate(0 1.90179443359375 41.079193115234375)" stroke="none"><path fill="#1e1e1e" d="M 0.64,0.12 Q 0.64,0.12 0.70,1.26 0.75,2.40 0.91,3.34 1.07,4.28 1.14,5.68 1.22,7.07 1.47,8.67 1.73,10.27 1.85,11.90 1.97,13.54 2.23,15.02 2.49,16.49 2.83,18.23 3.17,19.97 3.33,21.66 3.49,23.34 3.76,24.60 4.04,25.86 4.17,27.40 4.31,28.93 4.37,30.23 4.42,31.53 4.66,32.85 4.89,34.17 5.00,35.49 5.11,36.81 5.16,38.04 5.20,39.26 5.43,40.30 5.65,41.34 5.77,42.58 5.88,43.81 5.93,45.00 5.97,46.18 5.76,47.29 5.54,48.39 5.47,49.34 5.40,50.29 5.37,51.15 5.33,52.00 5.32,52.80 5.30,53.59 5.30,54.37 5.29,55.14 5.29,55.70 5.28,56.26 5.03,57.15 4.77,58.04 4.67,58.82 4.57,59.60 4.29,60.41 4.02,61.22 3.92,62.13 3.82,63.04 3.80,64.15 3.78,65.26 3.53,66.17 3.27,67.09 3.21,67.70 3.15,68.32 3.12,69.22 3.09,70.13 3.08,70.96 3.07,71.80 3.06,72.37 3.06,72.95 3.06,74.04 3.06,75.13 3.20,75.71 3.34,76.28 3.50,77.12 3.67,77.97 3.30,79.94 2.93,81.90 2.92,82.01 2.90,82.11 2.85,82.21 2.80,82.30 2.72,82.38 2.65,82.45 2.55,82.50 2.46,82.54 2.35,82.55 2.24,82.57 2.14,82.54 2.04,82.52 1.95,82.47 1.85,82.41 1.78,82.33 1.72,82.25 1.68,82.15 1.64,82.06 1.63,81.95 1.62,81.84 1.65,81.74 1.68,81.64 1.74,81.55 1.80,81.46 1.88,81.40 1.96,81.33 2.06,81.30 2.16,81.26 2.27,81.26 2.38,81.26 2.48,81.29 2.58,81.33 2.66,81.39 2.75,81.45 2.81,81.54 2.87,81.63 2.90,81.73 2.93,81.83 2.92,81.94 2.92,82.05 2.88,82.14 2.84,82.24 2.77,82.33 2.70,82.41 2.61,82.46 2.52,82.52 2.42,82.54 2.32,82.56 2.21,82.55 2.10,82.54 2.01,82.50 1.91,82.46 1.83,82.38 1.76,82.31 1.70,82.22 1.65,82.12 1.64,82.02 1.62,81.91 1.62,81.91 1.62,81.91 1.10,79.78 0.57,77.64 0.28,76.38 -0.01,75.13 -0.00,74.02 0.00,72.91 0.01,72.32 0.02,71.74 0.04,70.87 0.06,70.01 0.11,68.97 0.16,67.94 0.29,67.07 0.42,66.21 0.61,65.70 0.80,65.19 0.83,64.02 0.86,62.85 0.91,62.10 0.97,61.36 1.10,60.77 1.23,60.17 1.47,59.24 1.71,58.32 2.02,57.26 2.32,56.21 2.33,55.66 2.33,55.12 2.33,54.33 2.34,53.54 2.36,52.71 2.37,51.88 2.41,50.97 2.45,50.05 2.55,48.91 2.65,47.76 2.83,47.02 3.02,46.27 2.98,45.17 2.94,44.07 2.85,43.00 2.76,41.93 2.51,40.65 2.27,39.37 2.22,38.21 2.18,37.05 2.09,35.86 2.00,34.66 1.75,33.16 1.51,31.65 1.46,30.41 1.42,29.17 1.32,27.81 1.22,26.45 0.93,25.02 0.65,23.59 0.53,22.04 0.41,20.49 0.09,18.72 -0.22,16.96 -0.49,15.34 -0.75,13.72 -0.84,12.19 -0.92,10.65 -1.15,8.92 -1.38,7.18 -1.41,5.87 -1.44,4.56 -1.53,3.26 -1.63,1.96 -1.13,0.91 -0.64,-0.12 -0.61,-0.20 -0.59,-0.27 -0.55,-0.34 -0.51,-0.41 -0.45,-0.46 -0.39,-0.52 -0.32,-0.56 -0.25,-0.60 -0.18,-0.62 -0.10,-0.64 -0.02,-0.65 0.05,-0.65 0.12,-0.63 0.20,-0.62 0.27,-0.59 0.34,-0.55 0.41,-0.50 0.47,-0.45 0.51,-0.39 0.56,-0.33 0.59,-0.25 0.63,-0.18 0.64,-0.10 0.65,-0.02 0.64,0.04 0.64,0.12 0.64,0.12 L 0.64,0.12 Z"/></g></svg>