<svg version="1.1" xmlns="http://www.w3.org/2000/svg" viewBox="0 0 860.6019287109375 237.5675506591797" width="860.6019287109375" height="237.5675506591797" filter="invert(93%) hue-rotate(180deg)" class="excalidraw-svg">
  <!-- svg-source:excalidraw -->
  
  <defs>
    <style class="style-fonts">
      @font-face {
        font-family: "Virgil";
        src: url("https://excalidraw.com/Virgil.woff2");
      }
      @font-face {
        font-family: "Cascadia";
        src: url("https://excalidraw.com/Cascadia.woff2");
      }
      @font-face {
        font-family: "Assistant";
        src: url("https://excalidraw.com/Assistant-Regular.woff2");
      }
    </style>
    
  </defs>
  <rect x="0" y="0" width="860.6019287109375" height="237.5675506591797" fill="#ffffff"/><g stroke-linecap="round"><g transform="translate(94.4405517578125 60.20790100097656) rotate(0 251.03955078125 0.3803558349609375)"><path d="M0 0 C83.68 0.13, 418.4 0.63, 502.08 0.76 M0 0 C83.68 0.13, 418.4 0.63, 502.08 0.76" stroke="#1e1e1e" stroke-width="2" fill="none"/></g></g><mask/><g stroke-linecap="round"><g transform="translate(97.78759765625 168.92828369140625) rotate(0 251.03955078125 0.3803558349609375)"><path d="M0 0 C83.68 0.13, 418.4 0.63, 502.08 0.76 M0 0 C83.68 0.13, 418.4 0.63, 502.08 0.76" stroke="#1e1e1e" stroke-width="2" fill="none"/></g></g><mask/><g stroke-linecap="round" transform="translate(239.7391357421875 10) rotate(0 114.4892578125 108.78377532958984)"><path d="M32 0 C72.75 0, 113.51 0, 196.98 0 C218.31 0, 228.98 10.67, 228.98 32 C228.98 70.53, 228.98 109.05, 228.98 185.57 C228.98 206.9, 218.31 217.57, 196.98 217.57 C133.66 217.57, 70.33 217.57, 32 217.57 C10.67 217.57, 0 206.9, 0 185.57 C0 153.92, 0 122.27, 0 32 C0 10.67, 10.67 0, 32 0" stroke="none" stroke-width="0" fill="#ffffff"/><path d="M32 0 C78.2 0, 124.39 0, 196.98 0 M32 0 C67.45 0, 102.91 0, 196.98 0 M196.98 0 C218.31 0, 228.98 10.67, 228.98 32 M196.98 0 C218.31 0, 228.98 10.67, 228.98 32 M228.98 32 C228.98 78.41, 228.98 124.83, 228.98 185.57 M228.98 32 C228.98 90.28, 228.98 148.56, 228.98 185.57 M228.98 185.57 C228.98 206.9, 218.31 217.57, 196.98 217.57 M228.98 185.57 C228.98 206.9, 218.31 217.57, 196.98 217.57 M196.98 217.57 C155.88 217.57, 114.78 217.57, 32 217.57 M196.98 217.57 C144.55 217.57, 92.11 217.57, 32 217.57 M32 217.57 C10.67 217.57, 0 206.9, 0 185.57 M32 217.57 C10.67 217.57, 0 206.9, 0 185.57 M0 185.57 C0 132.8, 0 80.03, 0 32 M0 185.57 C0 126.75, 0 67.94, 0 32 M0 32 C0 10.67, 10.67 0, 32 0 M0 32 C0 10.67, 10.67 0, 32 0" stroke="#1e1e1e" stroke-width="2" fill="none"/></g><g stroke-linecap="round" transform="translate(138.5626220703125 29.77886962890625) rotate(0 27.7664794921875 31.57012176513672)"><path d="M13.88 0 C24.28 0, 34.67 0, 41.65 0 C50.91 0, 55.53 4.63, 55.53 13.88 C55.53 26.23, 55.53 38.57, 55.53 49.26 C55.53 58.51, 50.91 63.14, 41.65 63.14 C34.5 63.14, 27.35 63.14, 13.88 63.14 C4.63 63.14, 0 58.51, 0 49.26 C0 40.68, 0 32.1, 0 13.88 C0 4.63, 4.63 0, 13.88 0" stroke="none" stroke-width="0" fill="#ffffff"/><path d="M13.88 0 C22.56 0, 31.24 0, 41.65 0 M13.88 0 C23.53 0, 33.18 0, 41.65 0 M41.65 0 C50.91 0, 55.53 4.63, 55.53 13.88 M41.65 0 C50.91 0, 55.53 4.63, 55.53 13.88 M55.53 13.88 C55.53 22.57, 55.53 31.26, 55.53 49.26 M55.53 13.88 C55.53 23.39, 55.53 32.9, 55.53 49.26 M55.53 49.26 C55.53 58.51, 50.91 63.14, 41.65 63.14 M55.53 49.26 C55.53 58.51, 50.91 63.14, 41.65 63.14 M41.65 63.14 C30.69 63.14, 19.74 63.14, 13.88 63.14 M41.65 63.14 C31.98 63.14, 22.31 63.14, 13.88 63.14 M13.88 63.14 C4.63 63.14, 0 58.51, 0 49.26 M13.88 63.14 C4.63 63.14, 0 58.51, 0 49.26 M0 49.26 C0 38.22, 0 27.19, 0 13.88 M0 49.26 C0 36.83, 0 24.41, 0 13.88 M0 13.88 C0 4.63, 4.63 0, 13.88 0 M0 13.88 C0 4.63, 4.63 0, 13.88 0" stroke="#1e1e1e" stroke-width="2" fill="none"/></g><g stroke-linecap="round" transform="translate(139.62152099609375 138.1312484741211) rotate(0 27.7664794921875 31.57012176513672)"><path d="M13.88 0 C20.34 0, 26.81 0, 41.65 0 C50.91 0, 55.53 4.63, 55.53 13.88 C55.53 27.62, 55.53 41.37, 55.53 49.26 C55.53 58.51, 50.91 63.14, 41.65 63.14 C32.53 63.14, 23.41 63.14, 13.88 63.14 C4.63 63.14, 0 58.51, 0 49.26 C0 40.9, 0 32.54, 0 13.88 C0 4.63, 4.63 0, 13.88 0" stroke="none" stroke-width="0" fill="#ffffff"/><path d="M13.88 0 C23.57 0, 33.26 0, 41.65 0 M13.88 0 C19.89 0, 25.9 0, 41.65 0 M41.65 0 C50.91 0, 55.53 4.63, 55.53 13.88 M41.65 0 C50.91 0, 55.53 4.63, 55.53 13.88 M55.53 13.88 C55.53 22.46, 55.53 31.04, 55.53 49.26 M55.53 13.88 C55.53 27.76, 55.53 41.65, 55.53 49.26 M55.53 49.26 C55.53 58.51, 50.91 63.14, 41.65 63.14 M55.53 49.26 C55.53 58.51, 50.91 63.14, 41.65 63.14 M41.65 63.14 C35.19 63.14, 28.73 63.14, 13.88 63.14 M41.65 63.14 C35.53 63.14, 29.42 63.14, 13.88 63.14 M13.88 63.14 C4.63 63.14, 0 58.51, 0 49.26 M13.88 63.14 C4.63 63.14, 0 58.51, 0 49.26 M0 49.26 C0 40.69, 0 32.11, 0 13.88 M0 49.26 C0 36.77, 0 24.28, 0 13.88 M0 13.88 C0 4.63, 4.63 0, 13.88 0 M0 13.88 C0 4.63, 4.63 0, 13.88 0" stroke="#1e1e1e" stroke-width="2" fill="none"/></g><g stroke-linecap="round" transform="translate(508.39208984375 30.10822296142578) rotate(0 27.7664794921875 31.57012176513672)"><path d="M13.88 0 C20.6 0, 27.31 0, 41.65 0 C50.91 0, 55.53 4.63, 55.53 13.88 C55.53 23.26, 55.53 32.65, 55.53 49.26 C55.53 58.51, 50.91 63.14, 41.65 63.14 C34.47 63.14, 27.3 63.14, 13.88 63.14 C4.63 63.14, 0 58.51, 0 49.26 C0 40.24, 0 31.21, 0 13.88 C0 4.63, 4.63 0, 13.88 0" stroke="none" stroke-width="0" fill="#ffffff"/><path d="M13.88 0 C24.43 0, 34.97 0, 41.65 0 M13.88 0 C24.45 0, 35.01 0, 41.65 0 M41.65 0 C50.91 0, 55.53 4.63, 55.53 13.88 M41.65 0 C50.91 0, 55.53 4.63, 55.53 13.88 M55.53 13.88 C55.53 21.58, 55.53 29.27, 55.53 49.26 M55.53 13.88 C55.53 26.17, 55.53 38.46, 55.53 49.26 M55.53 49.26 C55.53 58.51, 50.91 63.14, 41.65 63.14 M55.53 49.26 C55.53 58.51, 50.91 63.14, 41.65 63.14 M41.65 63.14 C33.67 63.14, 25.69 63.14, 13.88 63.14 M41.65 63.14 C32.53 63.14, 23.4 63.14, 13.88 63.14 M13.88 63.14 C4.63 63.14, 0 58.51, 0 49.26 M13.88 63.14 C4.63 63.14, 0 58.51, 0 49.26 M0 49.26 C0 41.5, 0 33.75, 0 13.88 M0 49.26 C0 36.01, 0 22.77, 0 13.88 M0 13.88 C0 4.63, 4.63 0, 13.88 0 M0 13.88 C0 4.63, 4.63 0, 13.88 0" stroke="#1e1e1e" stroke-width="2" fill="none"/></g><g transform="translate(158.34149169921875 58.68644714355469) rotate(0 -0.38037109375 6.0858001708984375)" stroke="none"><path fill="#1e1e1e" d="M 0.63,0.15 Q 0.63,0.15 0.72,1.10 0.80,2.05 0.75,3.41 0.69,4.76 0.65,6.02 0.62,7.27 0.25,9.02 -0.10,10.76 -0.11,10.84 -0.12,10.92 -0.15,10.99 -0.18,11.07 -0.23,11.13 -0.28,11.19 -0.34,11.25 -0.40,11.30 -0.47,11.33 -0.54,11.36 -0.62,11.38 -0.70,11.40 -0.78,11.40 -0.85,11.39 -0.93,11.37 -1.01,11.35 -1.08,11.31 -1.14,11.27 -1.20,11.22 -1.26,11.16 -1.30,11.10 -1.35,11.03 -1.37,10.96 -1.40,10.88 -1.40,10.80 -1.41,10.72 -1.40,10.63 -1.38,10.54 -1.33,10.45 -1.28,10.35 -1.20,10.28 -1.13,10.20 -1.03,10.16 -0.94,10.11 -0.83,10.10 -0.72,10.09 -0.62,10.11 -0.52,10.13 -0.43,10.19 -0.33,10.24 -0.26,10.32 -0.20,10.40 -0.15,10.50 -0.11,10.60 -0.11,10.70 -0.10,10.81 -0.13,10.91 -0.16,11.01 -0.22,11.10 -0.27,11.19 -0.36,11.26 -0.44,11.32 -0.54,11.36 -0.64,11.39 -0.75,11.39 -0.86,11.39 -0.96,11.36 -1.06,11.33 -1.14,11.26 -1.23,11.20 -1.29,11.11 -1.35,11.02 -1.38,10.92 -1.41,10.82 -1.40,10.71 -1.40,10.61 -1.36,10.51 -1.32,10.41 -1.25,10.33 -1.18,10.25 -1.09,10.19 -1.00,10.14 -0.90,10.11 -0.80,10.09 -0.69,10.10 -0.58,10.11 -0.49,10.15 -0.39,10.20 -0.31,10.27 -0.24,10.34 -0.18,10.44 -0.13,10.53 -0.12,10.63 -0.10,10.74 -0.10,10.75 -0.10,10.76 -0.11,10.84 -0.12,10.92 -0.15,10.99 -0.18,11.07 -0.23,11.13 -0.28,11.19 -0.34,11.25 -0.40,11.30 -0.47,11.33 -0.54,11.36 -0.62,11.38 -0.70,11.40 -0.78,11.40 -0.85,11.39 -0.93,11.37 -1.01,11.35 -1.08,11.31 -1.14,11.27 -1.20,11.22 -1.26,11.16 -1.30,11.10 -1.35,11.03 -1.37,10.96 -1.40,10.88 -1.40,10.80 -1.41,10.72 -1.72,8.96 -2.02,7.19 -1.98,5.89 -1.94,4.59 -1.81,3.01 -1.67,1.44 -1.15,0.64 -0.63,-0.15 -0.60,-0.23 -0.58,-0.30 -0.53,-0.37 -0.49,-0.43 -0.43,-0.48 -0.37,-0.54 -0.30,-0.57 -0.23,-0.61 -0.15,-0.63 -0.07,-0.65 0.00,-0.65 0.08,-0.65 0.15,-0.63 0.23,-0.61 0.30,-0.57 0.37,-0.53 0.43,-0.48 0.49,-0.43 0.53,-0.36 0.58,-0.30 0.61,-0.22 0.63,-0.15 0.64,-0.07 0.65,0.00 0.64,0.08 0.63,0.15 0.63,0.15 L 0.63,0.15 Z"/></g><g transform="translate(158.34149169921875 65.53297424316406) rotate(0 6.4661865234375 0)" stroke="none"><path fill="#1e1e1e" d="M 0,-0.65 Q 0,-0.65 1.31,-0.96 2.62,-1.26 4.05,-1.28 5.48,-1.29 6.88,-1.46 8.28,-1.63 10.37,-1.51 12.47,-1.39 12.57,-1.38 12.68,-1.36 12.77,-1.32 12.87,-1.28 12.95,-1.20 13.03,-1.13 13.08,-1.04 13.13,-0.94 13.14,-0.84 13.16,-0.73 13.14,-0.63 13.13,-0.52 13.08,-0.43 13.03,-0.34 12.95,-0.26 12.88,-0.19 12.78,-0.14 12.68,-0.10 12.58,-0.09 12.47,-0.08 12.37,-0.10 12.26,-0.12 12.17,-0.17 12.08,-0.23 12.01,-0.31 11.94,-0.39 11.90,-0.49 11.86,-0.59 11.86,-0.69 11.85,-0.80 11.88,-0.90 11.91,-1.00 11.97,-1.09 12.03,-1.18 12.11,-1.25 12.19,-1.31 12.30,-1.34 12.40,-1.38 12.50,-1.38 12.61,-1.38 12.71,-1.35 12.81,-1.31 12.89,-1.25 12.98,-1.18 13.04,-1.10 13.10,-1.01 13.13,-0.91 13.16,-0.80 13.15,-0.70 13.15,-0.59 13.11,-0.49 13.07,-0.39 13.00,-0.31 12.93,-0.23 12.84,-0.18 12.75,-0.12 12.65,-0.10 12.54,-0.08 12.54,-0.08 12.54,-0.08 10.59,0.33 8.63,0.76 7.06,1.02 5.49,1.29 4.05,1.28 2.62,1.26 1.31,0.96 0,0.65 -0.07,0.64 -0.15,0.63 -0.23,0.60 -0.30,0.58 -0.37,0.53 -0.43,0.49 -0.48,0.43 -0.54,0.37 -0.57,0.30 -0.61,0.23 -0.63,0.15 -0.65,0.07 -0.65,-0.00 -0.65,-0.07 -0.63,-0.15 -0.61,-0.23 -0.57,-0.30 -0.54,-0.37 -0.48,-0.43 -0.43,-0.49 -0.37,-0.53 -0.30,-0.58 -0.23,-0.60 -0.15,-0.63 -0.07,-0.64 0.00,-0.65 0.00,-0.65 L 0,-0.65 Z"/></g><g transform="translate(171.27386474609375 54.8828125) rotate(0 -0.7607421875 9.889434814453125)" stroke="none"><path fill="#1e1e1e" d="M 0.65,0 Q 0.65,0 0.95,1.31 1.25,2.62 1.27,4.27 1.30,5.92 1.06,8.22 0.83,10.51 0.47,12.73 0.11,14.94 -0.30,16.98 -0.71,19.01 -0.74,19.11 -0.78,19.21 -0.85,19.30 -0.91,19.38 -1.00,19.44 -1.09,19.50 -1.19,19.52 -1.30,19.55 -1.40,19.54 -1.51,19.53 -1.61,19.49 -1.70,19.45 -1.78,19.38 -1.86,19.31 -1.92,19.22 -1.97,19.13 -1.99,19.02 -2.01,18.92 -2.00,18.81 -1.98,18.71 -1.94,18.61 -1.89,18.52 -1.82,18.44 -1.74,18.36 -1.65,18.32 -1.55,18.27 -1.45,18.25 -1.34,18.24 -1.24,18.26 -1.13,18.28 -1.04,18.33 -0.95,18.38 -0.87,18.46 -0.80,18.54 -0.76,18.64 -0.72,18.73 -0.71,18.84 -0.70,18.94 -0.72,19.05 -0.75,19.15 -0.81,19.24 -0.86,19.33 -0.94,19.40 -1.03,19.46 -1.13,19.50 -1.23,19.54 -1.33,19.54 -1.44,19.55 -1.54,19.52 -1.64,19.49 -1.73,19.42 -1.82,19.36 -1.88,19.28 -1.94,19.19 -1.97,19.09 -2.00,18.99 -2.00,18.88 -2.00,18.78 -2.00,18.78 -2.00,18.78 -1.68,16.83 -1.35,14.88 -1.53,12.57 -1.71,10.26 -1.50,8.09 -1.30,5.92 -1.27,4.27 -1.25,2.62 -0.95,1.31 -0.65,0 -0.64,-0.07 -0.63,-0.15 -0.60,-0.23 -0.58,-0.30 -0.53,-0.37 -0.49,-0.43 -0.43,-0.48 -0.37,-0.54 -0.30,-0.57 -0.23,-0.61 -0.15,-0.63 -0.07,-0.65 0.00,-0.65 0.07,-0.65 0.15,-0.63 0.23,-0.61 0.30,-0.57 0.37,-0.54 0.43,-0.48 0.49,-0.43 0.53,-0.37 0.58,-0.30 0.60,-0.23 0.63,-0.15 0.64,-0.07 0.65,0.00 0.65,0.00 L 0.65,0 Z"/></g><g transform="translate(162.9058837890625 160.6237030029297) rotate(0 -0.38037109375 10.269790649414062)" stroke="none"><path fill="#1e1e1e" d="M 0.65,0 Q 0.65,0 0.93,1.53 1.21,3.06 1.03,5.09 0.84,7.13 0.77,8.80 0.70,10.47 0.67,12.05 0.64,13.64 0.59,14.96 0.53,16.29 0.21,18.21 -0.10,20.13 -0.11,20.24 -0.13,20.34 -0.18,20.43 -0.23,20.53 -0.31,20.60 -0.39,20.67 -0.48,20.72 -0.58,20.76 -0.69,20.77 -0.79,20.78 -0.90,20.76 -1.00,20.74 -1.09,20.68 -1.18,20.63 -1.25,20.55 -1.32,20.46 -1.36,20.37 -1.40,20.27 -1.40,20.16 -1.41,20.05 -1.38,19.95 -1.35,19.85 -1.29,19.76 -1.23,19.67 -1.14,19.61 -1.06,19.55 -0.96,19.51 -0.86,19.48 -0.75,19.48 -0.64,19.48 -0.54,19.52 -0.44,19.55 -0.36,19.61 -0.27,19.68 -0.22,19.77 -0.16,19.86 -0.13,19.96 -0.10,20.06 -0.11,20.17 -0.11,20.27 -0.15,20.37 -0.19,20.47 -0.26,20.55 -0.33,20.63 -0.42,20.69 -0.51,20.74 -0.62,20.76 -0.72,20.78 -0.83,20.77 -0.93,20.76 -1.03,20.72 -1.13,20.67 -1.20,20.60 -1.28,20.52 -1.33,20.43 -1.38,20.34 -1.39,20.23 -1.41,20.13 -1.41,20.13 -1.41,20.13 -1.71,18.19 -2.01,16.26 -2.02,14.92 -2.04,13.57 -1.99,11.95 -1.95,10.33 -1.83,8.58 -1.72,6.84 -1.46,4.95 -1.21,3.06 -0.93,1.53 -0.65,0 -0.64,-0.07 -0.63,-0.15 -0.60,-0.23 -0.58,-0.30 -0.53,-0.37 -0.49,-0.43 -0.43,-0.48 -0.37,-0.54 -0.30,-0.57 -0.23,-0.61 -0.15,-0.63 -0.07,-0.65 0.00,-0.65 0.07,-0.65 0.15,-0.63 0.23,-0.61 0.30,-0.57 0.37,-0.54 0.43,-0.48 0.49,-0.43 0.53,-0.37 0.58,-0.30 0.60,-0.23 0.63,-0.15 0.64,-0.07 0.65,0.00 0.65,0.00 L 0.65,0 Z"/></g><g transform="translate(164.42730712890625 172.79530334472656) rotate(0 6.846527099609375 -1.9018096923828125)" stroke="none"><path fill="#1e1e1e" d="M 0,-0.65 Q 0,-0.65 1.31,-1.00 2.62,-1.35 3.71,-1.55 4.81,-1.76 5.94,-2.02 7.07,-2.28 8.30,-2.36 9.53,-2.43 11.07,-3.17 12.62,-3.91 12.72,-3.95 12.82,-3.99 12.92,-4.00 13.03,-4.00 13.13,-3.98 13.23,-3.95 13.32,-3.89 13.41,-3.83 13.48,-3.75 13.54,-3.67 13.58,-3.57 13.61,-3.47 13.62,-3.36 13.62,-3.25 13.58,-3.15 13.55,-3.05 13.49,-2.97 13.43,-2.88 13.34,-2.82 13.25,-2.76 13.15,-2.73 13.05,-2.70 12.94,-2.70 12.84,-2.71 12.74,-2.75 12.64,-2.78 12.56,-2.85 12.47,-2.92 12.42,-3.01 12.36,-3.10 12.34,-3.20 12.31,-3.31 12.32,-3.41 12.33,-3.52 12.38,-3.61 12.42,-3.71 12.49,-3.79 12.56,-3.87 12.66,-3.92 12.75,-3.97 12.85,-3.99 12.96,-4.01 13.06,-3.99 13.17,-3.98 13.26,-3.93 13.36,-3.88 13.43,-3.80 13.51,-3.73 13.55,-3.63 13.60,-3.54 13.61,-3.43 13.62,-3.32 13.60,-3.22 13.58,-3.12 13.53,-3.02 13.47,-2.93 13.39,-2.86 13.31,-2.79 13.31,-2.79 13.31,-2.79 11.59,-1.50 9.87,-0.21 8.79,-0.02 7.72,0.16 6.50,0.52 5.29,0.88 3.95,1.12 2.62,1.35 1.31,1.00 0,0.65 -0.07,0.64 -0.15,0.63 -0.23,0.60 -0.30,0.58 -0.37,0.53 -0.43,0.49 -0.48,0.43 -0.54,0.37 -0.57,0.30 -0.61,0.23 -0.63,0.15 -0.65,0.07 -0.65,-0.00 -0.65,-0.07 -0.63,-0.15 -0.61,-0.23 -0.57,-0.30 -0.54,-0.37 -0.48,-0.43 -0.43,-0.49 -0.37,-0.53 -0.30,-0.58 -0.23,-0.60 -0.15,-0.63 -0.07,-0.64 0.00,-0.65 0.00,-0.65 L 0,-0.65 Z"/></g><g transform="translate(178.120361328125 157.58079528808594) rotate(0 -0.38037109375 11.410888671875)" stroke="none"><path fill="#1e1e1e" d="M 0.65,0.09 Q 0.65,0.09 0.69,1.66 0.74,3.23 0.68,4.70 0.61,6.18 0.59,8.12 0.57,10.05 0.54,12.19 0.51,14.33 0.37,16.33 0.24,18.33 0.06,20.17 -0.10,22.01 -0.11,22.11 -0.13,22.22 -0.18,22.31 -0.23,22.41 -0.31,22.48 -0.39,22.55 -0.48,22.60 -0.58,22.64 -0.69,22.65 -0.79,22.66 -0.89,22.64 -1.00,22.62 -1.09,22.56 -1.18,22.51 -1.25,22.42 -1.32,22.34 -1.36,22.24 -1.40,22.15 -1.40,22.04 -1.41,21.93 -1.38,21.83 -1.35,21.73 -1.29,21.64 -1.23,21.55 -1.14,21.49 -1.06,21.43 -0.96,21.39 -0.86,21.36 -0.75,21.36 -0.65,21.36 -0.55,21.39 -0.44,21.43 -0.36,21.49 -0.28,21.56 -0.22,21.64 -0.16,21.73 -0.13,21.83 -0.10,21.94 -0.11,22.04 -0.11,22.15 -0.15,22.25 -0.19,22.35 -0.26,22.43 -0.33,22.51 -0.42,22.56 -0.51,22.62 -0.62,22.64 -0.72,22.66 -0.83,22.65 -0.93,22.64 -1.03,22.59 -1.12,22.55 -1.20,22.48 -1.28,22.40 -1.33,22.31 -1.38,22.21 -1.39,22.11 -1.41,22.00 -1.41,22.00 -1.41,22.00 -1.57,20.17 -1.74,18.33 -1.86,16.32 -1.98,14.31 -1.98,12.16 -1.98,10.00 -1.92,8.02 -1.86,6.03 -1.74,4.46 -1.62,2.89 -1.13,1.40 -0.65,-0.09 -0.62,-0.16 -0.60,-0.24 -0.57,-0.31 -0.53,-0.38 -0.47,-0.44 -0.42,-0.50 -0.35,-0.54 -0.29,-0.58 -0.21,-0.61 -0.14,-0.64 -0.06,-0.64 0.01,-0.65 0.09,-0.64 0.17,-0.63 0.24,-0.60 0.31,-0.57 0.38,-0.52 0.44,-0.48 0.49,-0.42 0.54,-0.36 0.58,-0.29 0.61,-0.21 0.63,-0.14 0.65,-0.06 0.65,0.01 0.65,0.09 0.65,0.09 L 0.65,0.09 Z"/></g><g transform="translate(529.57568359375 53.361358642578125) rotate(0 -0.7607421875 9.509071350097656)" stroke="none"><path fill="#1e1e1e" d="M 0.64,0.14 Q 0.64,0.14 0.45,2.16 0.27,4.19 0.11,5.84 -0.05,7.48 -0.12,9.48 -0.20,11.48 -0.30,13.21 -0.39,14.93 -0.31,16.55 -0.24,18.16 -0.24,18.27 -0.24,18.37 -0.27,18.47 -0.30,18.58 -0.36,18.66 -0.43,18.75 -0.52,18.81 -0.60,18.87 -0.70,18.90 -0.81,18.93 -0.91,18.92 -1.02,18.92 -1.12,18.88 -1.22,18.84 -1.30,18.77 -1.38,18.70 -1.44,18.61 -1.49,18.52 -1.52,18.42 -1.54,18.31 -1.53,18.21 -1.52,18.10 -1.47,18.01 -1.43,17.91 -1.36,17.83 -1.29,17.75 -1.19,17.70 -1.10,17.65 -0.99,17.63 -0.89,17.62 -0.79,17.63 -0.68,17.65 -0.59,17.70 -0.49,17.75 -0.42,17.82 -0.34,17.90 -0.30,18.00 -0.25,18.09 -0.24,18.20 -0.23,18.30 -0.25,18.41 -0.27,18.51 -0.33,18.60 -0.38,18.69 -0.46,18.76 -0.54,18.83 -0.64,18.87 -0.74,18.91 -0.84,18.92 -0.95,18.93 -1.05,18.90 -1.15,18.87 -1.24,18.81 -1.33,18.75 -1.40,18.67 -1.46,18.59 -1.50,18.49 -1.53,18.39 -1.53,18.39 -1.53,18.39 -2.04,16.64 -2.54,14.90 -2.57,13.14 -2.60,11.39 -2.52,9.31 -2.43,7.23 -2.23,5.45 -2.02,3.68 -1.33,1.76 -0.64,-0.14 -0.61,-0.21 -0.58,-0.29 -0.54,-0.35 -0.50,-0.42 -0.44,-0.47 -0.38,-0.53 -0.31,-0.57 -0.24,-0.60 -0.17,-0.62 -0.09,-0.64 -0.01,-0.65 0.06,-0.65 0.14,-0.63 0.21,-0.61 0.28,-0.58 0.36,-0.54 0.42,-0.49 0.48,-0.44 0.52,-0.38 0.57,-0.31 0.60,-0.24 0.63,-0.17 0.64,-0.09 0.65,-0.01 0.64,0.06 0.64,0.14 0.64,0.14 L 0.64,0.14 Z"/></g><g transform="translate(530.33642578125 63.25079345703125) rotate(0 6.0858154296875 -1.521453857421875)" stroke="none"><path fill="#1e1e1e" d="M -0.15,-0.63 Q -0.15,-0.63 0.65,-1.11 1.46,-1.59 2.57,-1.72 3.69,-1.85 4.94,-2.09 6.19,-2.32 7.12,-2.60 8.06,-2.87 9.77,-3.17 11.48,-3.47 11.58,-3.50 11.69,-3.52 11.79,-3.51 11.90,-3.49 12.00,-3.45 12.09,-3.40 12.17,-3.33 12.25,-3.26 12.29,-3.16 12.34,-3.07 12.36,-2.96 12.38,-2.86 12.36,-2.75 12.34,-2.65 12.29,-2.56 12.24,-2.46 12.16,-2.39 12.09,-2.32 11.99,-2.27 11.89,-2.23 11.79,-2.22 11.68,-2.21 11.58,-2.23 11.47,-2.25 11.38,-2.31 11.29,-2.37 11.22,-2.45 11.16,-2.53 11.12,-2.63 11.08,-2.73 11.07,-2.83 11.07,-2.94 11.10,-3.04 11.13,-3.14 11.19,-3.23 11.25,-3.32 11.33,-3.38 11.42,-3.45 11.52,-3.48 11.62,-3.51 11.72,-3.51 11.83,-3.51 11.93,-3.48 12.03,-3.44 12.12,-3.38 12.20,-3.31 12.26,-3.22 12.32,-3.14 12.35,-3.03 12.37,-2.93 12.37,-2.82 12.36,-2.72 12.32,-2.62 12.28,-2.52 12.21,-2.44 12.14,-2.36 12.05,-2.31 11.96,-2.25 11.96,-2.25 11.96,-2.25 10.37,-1.48 8.77,-0.71 7.71,-0.33 6.66,0.04 5.29,0.32 3.91,0.60 2.97,0.66 2.03,0.72 1.09,0.67 0.15,0.63 0.08,0.64 0.00,0.65 -0.07,0.64 -0.15,0.63 -0.22,0.61 -0.30,0.58 -0.36,0.53 -0.43,0.49 -0.48,0.43 -0.53,0.37 -0.57,0.30 -0.61,0.23 -0.63,0.15 -0.65,0.08 -0.65,0.00 -0.65,-0.07 -0.63,-0.15 -0.61,-0.23 -0.57,-0.30 -0.54,-0.37 -0.48,-0.43 -0.43,-0.49 -0.37,-0.53 -0.30,-0.58 -0.23,-0.60 -0.15,-0.63 -0.15,-0.63 L -0.15,-0.63 Z"/></g><g transform="translate(544.0294189453125 51.07917785644531) rotate(0 0 8.74835205078125)" stroke="none"><path fill="#1e1e1e" d="M 0.65,0 Q 0.65,0 0.95,1.31 1.26,2.62 1.26,4.27 1.27,5.92 1.24,7.50 1.20,9.08 1.02,10.84 0.85,12.60 0.75,14.61 0.65,16.61 0.63,16.71 0.62,16.82 0.57,16.91 0.52,17.01 0.44,17.08 0.36,17.15 0.27,17.20 0.17,17.24 0.07,17.25 -0.03,17.26 -0.13,17.24 -0.24,17.22 -0.33,17.16 -0.42,17.11 -0.49,17.03 -0.56,16.95 -0.60,16.85 -0.64,16.75 -0.64,16.64 -0.65,16.54 -0.62,16.44 -0.59,16.33 -0.53,16.24 -0.47,16.16 -0.39,16.09 -0.30,16.03 -0.20,15.99 -0.10,15.96 0.00,15.96 0.10,15.96 0.20,15.99 0.30,16.03 0.39,16.09 0.47,16.16 0.53,16.25 0.59,16.33 0.62,16.44 0.65,16.54 0.64,16.64 0.64,16.75 0.60,16.85 0.56,16.95 0.49,17.03 0.42,17.11 0.33,17.16 0.24,17.22 0.13,17.24 0.03,17.26 -0.07,17.25 -0.17,17.24 -0.27,17.20 -0.36,17.15 -0.44,17.08 -0.52,17.01 -0.57,16.91 -0.62,16.82 -0.63,16.71 -0.65,16.61 -0.65,16.61 -0.65,16.61 -0.75,14.61 -0.85,12.60 -1.02,10.84 -1.20,9.08 -1.24,7.50 -1.27,5.92 -1.26,4.27 -1.26,2.62 -0.95,1.31 -0.65,0 -0.64,-0.07 -0.63,-0.15 -0.60,-0.23 -0.58,-0.30 -0.53,-0.37 -0.49,-0.43 -0.43,-0.48 -0.37,-0.54 -0.30,-0.57 -0.23,-0.61 -0.15,-0.63 -0.07,-0.65 0.00,-0.65 0.07,-0.65 0.15,-0.63 0.23,-0.61 0.30,-0.57 0.37,-0.54 0.43,-0.48 0.49,-0.43 0.53,-0.37 0.58,-0.30 0.60,-0.23 0.63,-0.15 0.64,-0.07 0.65,0.00 0.65,0.00 L 0.65,0 Z"/></g><g transform="translate(618.58056640625 161.38441467285156) rotate(0 7.22686767578125 9.889434814453125)" stroke="none"><path fill="#1e1e1e" d="M 0.46,-0.46 Q 0.46,-0.46 2.20,0.85 3.95,2.16 5.97,4.60 7.99,7.03 9.67,9.17 11.36,11.31 12.29,12.97 13.22,14.63 13.94,16.65 14.65,18.67 14.68,18.77 14.71,18.87 14.71,18.98 14.70,19.08 14.66,19.18 14.62,19.28 14.56,19.36 14.49,19.44 14.40,19.50 14.31,19.55 14.20,19.58 14.10,19.60 13.99,19.59 13.89,19.58 13.79,19.54 13.69,19.49 13.62,19.42 13.54,19.35 13.49,19.25 13.44,19.16 13.42,19.06 13.40,18.95 13.42,18.85 13.44,18.74 13.48,18.65 13.53,18.55 13.61,18.48 13.69,18.41 13.78,18.36 13.88,18.32 13.98,18.30 14.09,18.29 14.19,18.31 14.30,18.33 14.39,18.39 14.48,18.44 14.55,18.52 14.62,18.60 14.66,18.70 14.70,18.80 14.71,18.91 14.71,19.01 14.68,19.12 14.66,19.22 14.60,19.31 14.54,19.39 14.45,19.46 14.37,19.52 14.27,19.56 14.17,19.59 14.06,19.59 13.96,19.60 13.86,19.56 13.76,19.53 13.67,19.47 13.59,19.40 13.53,19.31 13.46,19.23 13.46,19.23 13.46,19.23 12.41,17.49 11.36,15.76 10.40,14.31 9.45,12.86 7.71,10.77 5.98,8.68 4.07,6.31 2.16,3.95 0.85,2.20 -0.46,0.46 -0.51,0.40 -0.56,0.33 -0.59,0.26 -0.62,0.19 -0.64,0.11 -0.65,0.03 -0.65,-0.03 -0.64,-0.11 -0.62,-0.19 -0.59,-0.26 -0.55,-0.33 -0.51,-0.40 -0.46,-0.46 -0.40,-0.51 -0.33,-0.55 -0.26,-0.59 -0.19,-0.62 -0.11,-0.64 -0.03,-0.65 0.03,-0.65 0.11,-0.64 0.19,-0.62 0.26,-0.59 0.33,-0.56 0.40,-0.51 0.46,-0.46 0.46,-0.46 L 0.46,-0.46 Z"/></g><g transform="translate(622.3841552734375 183.44544982910156) rotate(0 12.17169189453125 -15.214508056640625)" stroke="none"><path fill="#1e1e1e" d="M -0.63,-0.18 Q -0.63,-0.18 -0.52,-1.80 -0.41,-3.43 0.60,-5.95 1.62,-8.46 2.75,-10.45 3.87,-12.43 6.64,-15.71 9.40,-19.00 13.01,-21.93 16.62,-24.86 19.94,-27.35 23.26,-29.84 23.36,-29.89 23.45,-29.94 23.55,-29.96 23.66,-29.97 23.76,-29.96 23.87,-29.94 23.96,-29.89 24.06,-29.84 24.13,-29.77 24.20,-29.69 24.25,-29.59 24.30,-29.50 24.31,-29.39 24.32,-29.29 24.30,-29.18 24.28,-29.08 24.22,-28.99 24.17,-28.90 24.09,-28.83 24.01,-28.76 23.91,-28.72 23.81,-28.68 23.70,-28.67 23.60,-28.66 23.49,-28.69 23.39,-28.72 23.30,-28.78 23.22,-28.84 23.15,-28.92 23.09,-29.01 23.05,-29.11 23.02,-29.21 23.02,-29.31 23.02,-29.42 23.05,-29.52 23.08,-29.62 23.15,-29.71 23.21,-29.79 23.30,-29.85 23.38,-29.91 23.49,-29.94 23.59,-29.97 23.69,-29.96 23.80,-29.96 23.90,-29.92 24.00,-29.88 24.08,-29.81 24.16,-29.75 24.22,-29.66 24.27,-29.56 24.30,-29.46 24.32,-29.36 24.31,-29.25 24.30,-29.15 24.25,-29.05 24.21,-28.95 24.14,-28.88 24.06,-28.80 24.06,-28.80 24.06,-28.80 20.87,-26.26 17.68,-23.73 14.66,-20.44 11.64,-17.14 9.09,-14.00 6.54,-10.86 5.45,-9.06 4.36,-7.25 3.26,-4.97 2.16,-2.69 1.39,-1.25 0.63,0.18 0.60,0.25 0.56,0.32 0.52,0.38 0.47,0.45 0.41,0.50 0.35,0.55 0.28,0.58 0.21,0.62 0.13,0.63 0.05,0.65 -0.02,0.65 -0.10,0.64 -0.17,0.62 -0.25,0.60 -0.32,0.56 -0.39,0.52 -0.44,0.47 -0.50,0.41 -0.54,0.35 -0.59,0.28 -0.61,0.20 -0.64,0.13 -0.64,0.05 -0.65,-0.02 -0.64,-0.10 -0.63,-0.18 -0.63,-0.18 L -0.63,-0.18 Z"/></g><g transform="translate(706.82470703125 175.8382110595703) rotate(0 -6.46612548828125 5.3250732421875)" stroke="none"><path fill="#1e1e1e" d="M 0,0.65 Q 0,0.65 -0.87,0.84 -1.74,1.03 -2.99,1.09 -4.24,1.15 -5.53,1.40 -6.82,1.65 -7.85,2.34 -8.88,3.04 -9.70,3.91 -10.52,4.78 -10.78,5.62 -11.05,6.46 -10.41,7.47 -9.77,8.49 -8.90,8.59 -8.04,8.69 -5.87,7.14 -3.70,5.59 -3.61,5.54 -3.51,5.49 -3.41,5.47 -3.30,5.45 -3.20,5.47 -3.09,5.49 -3.00,5.54 -2.91,5.58 -2.83,5.66 -2.76,5.74 -2.71,5.83 -2.67,5.93 -2.66,6.03 -2.64,6.14 -2.67,6.24 -2.69,6.35 -2.74,6.44 -2.80,6.53 -2.88,6.60 -2.96,6.67 -3.05,6.71 -3.15,6.75 -3.26,6.76 -3.36,6.76 -3.47,6.74 -3.57,6.71 -3.66,6.65 -3.75,6.59 -3.81,6.51 -3.88,6.42 -3.91,6.32 -3.95,6.22 -3.95,6.12 -3.95,6.01 -3.91,5.91 -3.88,5.81 -3.82,5.72 -3.75,5.64 -3.67,5.58 -3.58,5.52 -3.48,5.49 -3.38,5.46 -3.27,5.46 -3.16,5.47 -3.06,5.51 -2.97,5.54 -2.88,5.61 -2.80,5.68 -2.75,5.77 -2.69,5.86 -2.67,5.97 -2.64,6.07 -2.65,6.18 -2.67,6.28 -2.71,6.38 -2.75,6.47 -2.83,6.55 -2.90,6.63 -2.90,6.63 -2.90,6.63 -5.37,8.66 -7.83,10.70 -9.48,10.54 -11.12,10.39 -12.28,9.26 -13.43,8.13 -13.51,6.86 -13.59,5.58 -13.03,4.28 -12.47,2.98 -11.35,1.90 -10.23,0.82 -8.75,0.02 -7.27,-0.77 -5.76,-0.96 -4.24,-1.15 -2.99,-1.09 -1.74,-1.03 -0.87,-0.84 0,-0.65 0.07,-0.64 0.15,-0.63 0.23,-0.60 0.30,-0.58 0.37,-0.53 0.43,-0.49 0.48,-0.43 0.54,-0.37 0.57,-0.30 0.61,-0.23 0.63,-0.15 0.65,-0.07 0.65,0.00 0.65,0.07 0.63,0.15 0.61,0.23 0.57,0.30 0.54,0.37 0.48,0.43 0.43,0.49 0.37,0.53 0.30,0.58 0.23,0.60 0.15,0.63 0.07,0.64 -0.00,0.65 -0.00,0.65 L 0,0.65 Z"/></g><g transform="translate(709.10693359375 155.29859924316406) rotate(0 -0.38031005859375 15.214523315429688)" stroke="none"><path fill="#1e1e1e" d="M 0.62,0.20 Q 0.62,0.20 0.42,1.59 0.22,2.98 -0.13,5.63 -0.49,8.29 -0.87,10.56 -1.26,12.84 -1.40,16.13 -1.55,19.42 -1.42,22.32 -1.30,25.22 -0.99,26.69 -0.69,28.16 0.59,28.84 1.87,29.51 1.96,29.57 2.05,29.63 2.11,29.72 2.17,29.80 2.21,29.90 2.24,30.00 2.24,30.11 2.24,30.21 2.21,30.32 2.17,30.42 2.11,30.50 2.05,30.58 1.96,30.64 1.87,30.70 1.77,30.73 1.67,30.76 1.56,30.76 1.45,30.75 1.35,30.71 1.26,30.67 1.17,30.60 1.09,30.53 1.04,30.44 0.98,30.35 0.96,30.25 0.94,30.14 0.95,30.04 0.96,29.93 1.01,29.84 1.05,29.74 1.12,29.66 1.20,29.59 1.29,29.54 1.38,29.49 1.49,29.47 1.59,29.45 1.70,29.47 1.80,29.49 1.90,29.54 1.99,29.59 2.06,29.66 2.14,29.74 2.18,29.84 2.23,29.93 2.24,30.04 2.25,30.14 2.23,30.25 2.20,30.35 2.15,30.44 2.09,30.53 2.01,30.60 1.93,30.67 1.83,30.71 1.74,30.75 1.63,30.76 1.52,30.76 1.42,30.73 1.32,30.70 1.32,30.70 1.32,30.70 -0.49,29.95 -2.30,29.19 -3.00,27.27 -3.69,25.35 -3.87,22.33 -4.04,19.30 -3.85,15.86 -3.67,12.42 -3.27,10.18 -2.87,7.93 -2.42,5.09 -1.97,2.26 -1.29,1.02 -0.62,-0.20 -0.58,-0.27 -0.55,-0.35 -0.50,-0.41 -0.45,-0.47 -0.39,-0.52 -0.32,-0.56 -0.25,-0.59 -0.18,-0.63 -0.10,-0.64 -0.02,-0.65 0.05,-0.64 0.13,-0.64 0.20,-0.61 0.28,-0.59 0.34,-0.55 0.41,-0.50 0.46,-0.45 0.52,-0.39 0.56,-0.32 0.60,-0.25 0.62,-0.18 0.64,-0.10 0.65,-0.02 0.65,0.05 0.63,0.13 0.62,0.20 0.62,0.20 L 0.62,0.20 Z"/></g><g transform="translate(723.5606689453125 179.64183044433594) rotate(0 5.32513427734375 3.04290771484375)" stroke="none"><path fill="#1e1e1e" d="M -0.12,0.64 Q -0.12,0.64 -1.26,0.63 -2.40,0.62 -3.04,0.57 -3.67,0.52 -4.18,0.70 -4.69,0.88 -5.24,1.33 -5.79,1.77 -6.19,2.31 -6.59,2.86 -6.95,3.64 -7.30,4.42 -7.36,4.97 -7.42,5.53 -6.67,5.90 -5.91,6.27 -5.16,5.89 -4.40,5.51 -3.72,4.64 -3.04,3.78 -2.77,2.93 -2.49,2.08 -2.77,1.27 -3.04,0.46 -3.95,0.13 -4.85,-0.19 -5.62,0.27 -6.38,0.74 -6.53,0.76 -6.67,0.77 -6.82,0.75 -6.96,0.73 -7.10,0.68 -7.24,0.62 -7.36,0.54 -7.48,0.45 -7.57,0.34 -7.67,0.23 -7.73,0.10 -7.80,-0.02 -7.83,-0.17 -7.86,-0.31 -7.86,-0.46 -7.86,-0.60 -7.82,-0.75 -7.78,-0.89 -7.71,-1.02 -7.64,-1.15 -7.54,-1.25 -7.44,-1.36 -7.32,-1.44 -7.20,-1.52 -7.06,-1.57 -6.92,-1.62 -5.68,-1.51 -4.44,-1.39 -3.26,-1.55 -2.09,-1.72 -1.29,-1.79 -0.49,-1.86 0.74,-1.89 1.99,-1.92 3.17,-1.93 4.35,-1.94 5.42,-1.70 6.49,-1.47 7.46,-1.09 8.43,-0.71 9.02,0.06 9.62,0.83 9.77,1.49 9.92,2.16 9.98,2.29 10.04,2.42 10.06,2.56 10.09,2.71 10.09,2.85 10.08,2.99 10.04,3.13 10.00,3.27 9.92,3.39 9.85,3.52 9.75,3.62 9.65,3.73 9.53,3.80 9.41,3.88 9.27,3.92 9.13,3.97 8.99,3.98 8.85,3.99 8.70,3.96 8.56,3.94 8.43,3.88 8.30,3.83 8.18,3.74 8.07,3.65 7.98,3.54 7.89,3.43 8.55,2.27 9.21,1.11 9.62,0.76 10.02,0.42 10.70,0.16 11.37,-0.09 12.11,0.08 12.85,0.25 13.46,0.91 14.07,1.57 14.49,2.28 14.92,2.99 15.24,3.43 15.55,3.87 17.30,4.28 19.04,4.69 19.15,4.70 19.25,4.71 19.35,4.76 19.44,4.81 19.52,4.88 19.60,4.96 19.64,5.05 19.69,5.15 19.71,5.25 19.72,5.36 19.70,5.46 19.68,5.57 19.63,5.66 19.58,5.75 19.50,5.82 19.42,5.89 19.32,5.94 19.23,5.98 19.12,5.99 19.01,6.00 18.91,5.97 18.81,5.95 18.72,5.89 18.63,5.83 18.56,5.75 18.49,5.67 18.46,5.57 18.42,5.47 18.42,5.36 18.41,5.26 18.44,5.16 18.47,5.05 18.54,4.97 18.60,4.88 18.68,4.82 18.77,4.76 18.87,4.72 18.97,4.69 19.08,4.70 19.18,4.70 19.28,4.73 19.38,4.77 19.47,4.84 19.55,4.90 19.61,4.99 19.67,5.08 19.69,5.18 19.72,5.29 19.71,5.39 19.70,5.50 19.66,5.60 19.62,5.69 19.55,5.77 19.48,5.85 19.39,5.91 19.29,5.96 19.19,5.98 19.09,6.00 19.09,6.00 19.09,6.00 17.23,6.15 15.38,6.31 14.56,5.81 13.74,5.30 13.29,4.76 12.85,4.21 12.18,3.21 11.51,2.20 11.06,2.60 10.60,3.01 10.26,2.58 9.92,2.16 9.98,2.29 10.04,2.42 10.06,2.56 10.09,2.71 10.09,2.85 10.08,2.99 10.04,3.13 10.00,3.27 9.92,3.39 9.85,3.52 9.75,3.62 9.65,3.73 9.53,3.80 9.41,3.88 9.27,3.92 9.13,3.97 8.99,3.98 8.85,3.99 8.70,3.96 8.56,3.94 8.43,3.88 8.30,3.83 8.18,3.74 8.07,3.65 7.98,3.54 7.89,3.43 7.62,2.37 7.35,1.31 6.65,1.08 5.95,0.84 5.16,0.65 4.36,0.45 3.20,0.47 2.05,0.49 0.88,0.52 -0.28,0.55 -1.03,0.62 -1.79,0.69 -3.25,0.85 -4.71,1.02 -5.55,0.88 -6.38,0.74 -6.53,0.76 -6.67,0.77 -6.82,0.75 -6.96,0.73 -7.10,0.68 -7.24,0.62 -7.36,0.54 -7.48,0.45 -7.57,0.34 -7.67,0.23 -7.73,0.10 -7.80,-0.02 -7.83,-0.17 -7.86,-0.31 -7.86,-0.46 -7.86,-0.60 -7.82,-0.75 -7.78,-0.89 -7.71,-1.02 -7.64,-1.15 -7.54,-1.25 -7.44,-1.36 -7.32,-1.44 -7.20,-1.52 -7.06,-1.57 -6.92,-1.62 -6.97,-1.78 -7.02,-1.93 -5.85,-2.28 -4.68,-2.62 -3.48,-2.39 -2.29,-2.15 -1.50,-1.17 -0.71,-0.19 -0.44,1.24 -0.17,2.67 -0.67,4.01 -1.17,5.35 -2.33,6.55 -3.48,7.76 -4.98,8.12 -6.48,8.49 -7.93,7.52 -9.39,6.56 -9.51,5.01 -9.62,3.45 -9.09,2.37 -8.55,1.28 -7.88,0.51 -7.21,-0.24 -6.26,-0.83 -5.32,-1.41 -4.37,-1.59 -3.42,-1.76 -2.70,-1.63 -1.97,-1.50 -0.92,-1.07 0.12,-0.64 0.20,-0.61 0.27,-0.59 0.34,-0.55 0.41,-0.51 0.46,-0.45 0.52,-0.39 0.56,-0.32 0.60,-0.25 0.62,-0.18 0.64,-0.10 0.65,-0.02 0.65,0.05 0.63,0.12 0.62,0.20 0.59,0.27 0.55,0.34 0.50,0.41 0.45,0.47 0.39,0.51 0.33,0.56 0.25,0.59 0.18,0.63 0.10,0.64 0.02,0.65 -0.04,0.64 -0.12,0.64 -0.12,0.64 L -0.12,0.64 Z"/></g><g transform="translate(745.621826171875 176.5989227294922) rotate(0 1.90179443359375 -3.0428924560546875)" stroke="none"><path fill="#1e1e1e" d="M -0.60,-0.24 Q -0.60,-0.24 -0.39,-1.42 -0.17,-2.61 1.40,-4.36 2.98,-6.11 3.06,-6.18 3.14,-6.26 3.24,-6.30 3.34,-6.34 3.44,-6.35 3.55,-6.36 3.65,-6.33 3.75,-6.31 3.84,-6.25 3.93,-6.19 4.00,-6.11 4.07,-6.03 4.10,-5.93 4.14,-5.83 4.14,-5.72 4.15,-5.61 4.11,-5.51 4.08,-5.41 4.02,-5.32 3.96,-5.24 3.87,-5.18 3.79,-5.11 3.69,-5.08 3.58,-5.05 3.48,-5.05 3.37,-5.06 3.27,-5.09 3.17,-5.13 3.09,-5.20 3.01,-5.26 2.95,-5.35 2.89,-5.44 2.87,-5.55 2.84,-5.65 2.85,-5.75 2.86,-5.86 2.90,-5.96 2.94,-6.06 3.01,-6.14 3.08,-6.21 3.18,-6.27 3.27,-6.32 3.37,-6.34 3.48,-6.36 3.58,-6.34 3.69,-6.33 3.78,-6.28 3.88,-6.24 3.95,-6.16 4.03,-6.09 4.08,-5.99 4.12,-5.90 4.14,-5.79 4.15,-5.68 4.13,-5.58 4.11,-5.48 4.06,-5.38 4.01,-5.29 4.01,-5.29 4.01,-5.29 2.96,-3.52 1.92,-1.76 1.26,-0.75 0.60,0.24 0.57,0.31 0.53,0.38 0.48,0.44 0.42,0.49 0.36,0.54 0.29,0.58 0.22,0.61 0.14,0.64 0.06,0.64 -0.01,0.65 -0.09,0.64 -0.16,0.63 -0.24,0.60 -0.31,0.57 -0.37,0.52 -0.44,0.48 -0.49,0.42 -0.54,0.36 -0.58,0.29 -0.61,0.22 -0.63,0.14 -0.65,0.06 -0.65,-0.01 -0.65,-0.09 -0.63,-0.16 -0.60,-0.24 -0.60,-0.24 L -0.60,-0.24 Z"/></g><g transform="translate(760.8363037109375 179.64183044433594) rotate(0 0 -14.07342529296875)" stroke="none"><path fill="#1e1e1e" d="M -0.65,-0.07 Q -0.65,-0.07 -0.61,-2.06 -0.57,-4.04 -0.55,-7.25 -0.52,-10.45 -0.45,-14.44 -0.37,-18.43 -0.75,-22.36 -1.14,-26.29 -1.14,-26.39 -1.14,-26.50 -1.10,-26.60 -1.07,-26.70 -1.00,-26.79 -0.94,-26.87 -0.85,-26.93 -0.76,-26.99 -0.66,-27.01 -0.55,-27.04 -0.45,-27.03 -0.34,-27.03 -0.24,-26.98 -0.15,-26.94 -0.07,-26.87 0.00,-26.80 0.06,-26.71 0.11,-26.62 0.13,-26.52 0.15,-26.41 0.14,-26.31 0.13,-26.20 0.08,-26.11 0.04,-26.01 -0.03,-25.93 -0.10,-25.86 -0.20,-25.81 -0.29,-25.76 -0.40,-25.75 -0.50,-25.73 -0.60,-25.75 -0.71,-25.77 -0.80,-25.82 -0.90,-25.87 -0.97,-25.95 -1.04,-26.02 -1.08,-26.12 -1.13,-26.22 -1.14,-26.32 -1.15,-26.43 -1.12,-26.53 -1.10,-26.64 -1.04,-26.73 -0.99,-26.82 -0.90,-26.89 -0.82,-26.95 -0.72,-26.99 -0.62,-27.03 -0.52,-27.03 -0.41,-27.04 -0.31,-27.01 -0.21,-26.98 -0.12,-26.92 -0.03,-26.86 0.02,-26.77 0.08,-26.69 0.12,-26.58 0.15,-26.48 0.15,-26.48 0.15,-26.48 0.96,-22.45 1.77,-18.41 1.77,-14.40 1.77,-10.38 1.61,-7.10 1.45,-3.82 1.05,-1.87 0.65,0.07 0.63,0.14 0.61,0.22 0.58,0.29 0.54,0.36 0.49,0.42 0.44,0.48 0.37,0.53 0.31,0.57 0.23,0.60 0.16,0.63 0.08,0.64 0.00,0.65 -0.07,0.64 -0.15,0.63 -0.22,0.61 -0.29,0.58 -0.36,0.54 -0.43,0.49 -0.48,0.43 -0.53,0.37 -0.57,0.30 -0.61,0.23 -0.63,0.16 -0.65,0.08 -0.65,0.00 -0.65,-0.07 -0.65,-0.07 L -0.65,-0.07 Z"/></g><g transform="translate(757.03271484375 169.7523956298828) rotate(0 6.84649658203125 -1.521453857421875)" stroke="none"><path fill="#1e1e1e" d="M -0.29,-0.58 Q -0.29,-0.58 0.92,-1.43 2.14,-2.28 3.86,-2.85 5.59,-3.42 7.49,-3.57 9.40,-3.71 11.20,-3.36 13.00,-3.01 13.11,-2.98 13.21,-2.95 13.30,-2.89 13.38,-2.84 13.45,-2.75 13.51,-2.67 13.55,-2.57 13.58,-2.47 13.58,-2.36 13.58,-2.25 13.55,-2.15 13.51,-2.05 13.45,-1.97 13.39,-1.88 13.30,-1.82 13.21,-1.76 13.11,-1.73 13.01,-1.71 12.90,-1.71 12.79,-1.72 12.69,-1.76 12.60,-1.80 12.51,-1.86 12.43,-1.93 12.38,-2.02 12.32,-2.11 12.30,-2.22 12.28,-2.32 12.29,-2.43 12.30,-2.53 12.35,-2.63 12.39,-2.73 12.46,-2.80 12.54,-2.88 12.63,-2.93 12.72,-2.98 12.83,-3.00 12.93,-3.01 13.04,-3.00 13.14,-2.98 13.24,-2.93 13.33,-2.88 13.40,-2.80 13.48,-2.73 13.52,-2.63 13.57,-2.53 13.58,-2.43 13.59,-2.32 13.57,-2.22 13.54,-2.12 13.49,-2.02 13.43,-1.93 13.35,-1.86 13.27,-1.80 13.17,-1.76 13.08,-1.72 12.97,-1.71 12.86,-1.71 12.86,-1.71 12.86,-1.71 11.24,-1.72 9.62,-1.74 7.94,-1.46 6.26,-1.18 4.68,-0.76 3.10,-0.34 1.70,0.12 0.29,0.58 0.21,0.61 0.14,0.64 0.06,0.64 -0.01,0.65 -0.09,0.64 -0.16,0.63 -0.24,0.60 -0.31,0.57 -0.38,0.52 -0.44,0.48 -0.49,0.42 -0.54,0.36 -0.58,0.29 -0.61,0.22 -0.63,0.14 -0.65,0.06 -0.65,-0.01 -0.65,-0.09 -0.62,-0.16 -0.60,-0.24 -0.57,-0.31 -0.53,-0.38 -0.47,-0.44 -0.42,-0.50 -0.35,-0.54 -0.29,-0.58 -0.29,-0.58 L -0.29,-0.58 Z"/></g><g transform="translate(799.63330078125 171.2738494873047) rotate(0 20.91998291015625 3.803619384765625)" stroke="none"><path fill="#1e1e1e" d="M 0,0.65 Q 0,0.65 -1.09,0.87 -2.18,1.10 -3.13,1.31 -4.08,1.52 -4.72,2.36 -5.36,3.20 -6.07,4.53 -6.78,5.87 -6.66,6.80 -6.54,7.72 -6.17,8.12 -5.80,8.53 -4.28,8.34 -2.76,8.16 -0.76,7.74 1.24,7.32 2.72,6.73 4.21,6.14 5.27,6.06 6.32,5.97 7.12,6.58 7.92,7.20 7.69,7.93 7.46,8.67 6.54,8.97 5.62,9.28 4.47,8.68 3.32,8.09 3.05,7.20 2.77,6.31 2.95,5.87 3.12,5.44 3.11,5.29 3.11,5.15 3.14,5.01 3.17,4.87 3.23,4.74 3.30,4.61 3.39,4.50 3.48,4.39 3.60,4.31 3.71,4.22 3.84,4.17 3.98,4.12 4.12,4.09 4.26,4.07 4.40,4.09 4.54,4.10 4.68,4.15 4.81,4.19 4.93,4.27 5.05,4.35 5.15,4.45 5.25,4.56 5.32,4.68 5.39,4.81 5.43,4.95 5.47,5.08 6.58,5.44 7.70,5.79 9.09,6.42 10.49,7.04 11.63,7.29 12.77,7.53 13.93,7.22 15.09,6.91 15.89,6.25 16.70,5.59 16.98,4.80 17.25,4.02 17.40,3.33 17.55,2.64 17.08,1.91 16.61,1.19 16.60,1.04 16.60,0.88 16.63,0.73 16.66,0.59 16.72,0.45 16.79,0.31 16.89,0.19 16.98,0.08 17.10,-0.00 17.23,-0.09 17.37,-0.15 17.51,-0.21 17.66,-0.24 17.81,-0.26 17.96,-0.25 18.11,-0.23 18.25,-0.18 18.40,-0.14 18.53,-0.05 18.65,0.02 18.76,0.13 18.86,0.24 18.94,0.37 19.01,0.50 19.06,0.65 19.10,0.79 18.27,0.28 17.44,-0.23 18.26,-0.53 19.08,-0.83 20.17,-0.97 21.26,-1.11 22.24,-1.36 23.22,-1.60 24.55,-1.93 25.87,-2.26 27.31,-2.62 28.75,-2.97 29.58,-3.35 30.41,-3.73 30.56,-3.75 30.71,-3.77 30.87,-3.75 31.02,-3.73 31.16,-3.67 31.31,-3.62 31.43,-3.53 31.56,-3.45 31.66,-3.33 31.77,-3.22 31.84,-3.08 31.91,-2.95 31.95,-2.80 31.98,-2.65 31.99,-2.49 31.99,-2.34 31.95,-2.19 31.91,-2.04 31.84,-1.90 31.77,-1.77 31.67,-1.65 31.57,-1.54 31.44,-1.45 31.31,-1.36 31.17,-1.31 31.03,-1.25 30.56,-0.14 30.08,0.95 29.68,1.89 29.27,2.83 29.11,3.37 28.95,3.92 29.09,4.55 29.23,5.18 30.69,5.53 32.16,5.88 34.07,5.35 35.99,4.81 38.05,3.56 40.12,2.31 41.38,1.46 42.64,0.62 41.99,1.36 41.34,2.10 41.05,2.82 40.76,3.54 41.76,4.98 42.77,6.41 43.99,7.17 45.22,7.92 47.56,8.16 49.90,8.40 50.00,8.42 50.11,8.45 50.20,8.50 50.29,8.56 50.36,8.64 50.42,8.72 50.46,8.82 50.50,8.92 50.51,9.02 50.51,9.13 50.48,9.23 50.45,9.33 50.39,9.42 50.33,9.51 50.25,9.57 50.16,9.64 50.06,9.67 49.96,9.70 49.85,9.70 49.75,9.70 49.65,9.67 49.55,9.63 49.46,9.57 49.38,9.50 49.32,9.41 49.26,9.32 49.23,9.22 49.21,9.12 49.21,9.01 49.22,8.91 49.26,8.81 49.30,8.71 49.37,8.63 49.44,8.55 49.53,8.49 49.62,8.44 49.73,8.42 49.83,8.40 49.94,8.41 50.04,8.42 50.14,8.47 50.23,8.51 50.31,8.59 50.39,8.66 50.43,8.76 50.48,8.85 50.50,8.95 50.52,9.06 50.50,9.16 50.48,9.27 50.43,9.36 50.38,9.46 50.30,9.53 50.22,9.60 50.13,9.64 50.03,9.69 49.92,9.70 49.82,9.71 49.82,9.71 49.82,9.71 47.15,9.63 44.47,9.55 42.57,8.74 40.67,7.94 39.46,5.72 38.24,3.49 38.91,1.77 39.57,0.05 41.11,-0.86 42.64,-1.79 43.47,-1.62 44.29,-1.45 44.41,0.43 44.53,2.33 43.02,3.49 41.50,4.64 39.09,6.04 36.68,7.44 34.24,7.99 31.79,8.55 29.94,8.10 28.09,7.66 27.37,6.70 26.65,5.74 26.52,4.50 26.39,3.26 26.62,2.50 26.85,1.74 27.36,0.63 27.87,-0.47 28.43,-1.32 29.00,-2.17 29.70,-2.95 30.41,-3.73 30.56,-3.75 30.71,-3.77 30.87,-3.75 31.02,-3.73 31.16,-3.67 31.31,-3.62 31.43,-3.53 31.56,-3.45 31.66,-3.33 31.77,-3.22 31.84,-3.08 31.91,-2.95 31.95,-2.80 31.98,-2.65 31.99,-2.49 31.99,-2.34 31.95,-2.19 31.91,-2.04 31.84,-1.90 31.77,-1.77 31.67,-1.65 31.57,-1.54 31.44,-1.45 31.31,-1.36 31.17,-1.31 31.03,-1.25 30.20,-0.89 29.37,-0.52 27.93,-0.16 26.49,0.19 25.16,0.53 23.84,0.86 22.69,1.14 21.54,1.42 20.73,1.49 19.91,1.56 19.31,1.76 18.72,1.95 17.66,1.57 16.61,1.19 16.60,1.04 16.60,0.88 16.63,0.73 16.66,0.59 16.72,0.45 16.79,0.31 16.89,0.19 16.98,0.08 17.10,-0.00 17.23,-0.09 17.37,-0.15 17.51,-0.21 17.66,-0.24 17.81,-0.26 17.96,-0.25 18.11,-0.23 18.25,-0.18 18.40,-0.14 18.53,-0.05 18.65,0.02 18.76,0.13 18.86,0.24 18.94,0.37 19.01,0.50 19.06,0.65 19.10,0.79 19.36,1.21 19.62,1.62 19.77,2.28 19.92,2.93 19.69,3.96 19.47,4.99 18.86,6.19 18.25,7.39 16.98,8.31 15.70,9.23 14.02,9.55 12.35,9.88 10.93,9.56 9.51,9.24 7.98,8.53 6.44,7.83 5.63,7.32 4.82,6.81 3.97,6.13 3.12,5.44 3.11,5.29 3.11,5.15 3.14,5.01 3.17,4.87 3.23,4.74 3.30,4.61 3.39,4.50 3.48,4.39 3.60,4.31 3.71,4.22 3.84,4.17 3.98,4.12 4.12,4.09 4.26,4.07 4.40,4.09 4.54,4.10 4.68,4.15 4.81,4.19 4.93,4.27 5.05,4.35 5.15,4.45 5.25,4.56 5.32,4.68 5.39,4.81 5.43,4.94 5.47,5.08 5.49,6.08 5.52,7.07 5.91,7.47 6.30,7.88 5.60,7.90 4.91,7.92 3.31,8.62 1.71,9.32 -0.45,9.87 -2.62,10.41 -4.76,10.45 -6.89,10.49 -7.91,9.35 -8.92,8.22 -8.98,6.55 -9.03,4.88 -8.08,3.21 -7.14,1.54 -5.95,0.44 -4.76,-0.64 -3.48,-0.87 -2.19,-1.10 -1.09,-0.87 0,-0.65 0.07,-0.64 0.15,-0.63 0.23,-0.60 0.30,-0.58 0.37,-0.53 0.43,-0.49 0.48,-0.43 0.54,-0.37 0.57,-0.30 0.61,-0.23 0.63,-0.15 0.65,-0.07 0.65,0.00 0.65,0.07 0.63,0.15 0.61,0.23 0.57,0.30 0.54,0.37 0.48,0.43 0.43,0.49 0.37,0.53 0.30,0.58 0.23,0.60 0.15,0.63 0.07,0.64 -0.00,0.65 -0.00,0.65 L 0,0.65 Z"/></g><g transform="translate(331.0262451171875 104.32997131347656) rotate(0 10.269775390625 8.74835205078125)" stroke="none"><path fill="#1e1e1e" d="M 0,0.65 Q 0,0.65 -0.49,0.75 -0.99,0.85 -1.20,1.41 -1.41,1.97 -1.76,2.79 -2.11,3.61 -2.01,5.31 -1.91,7.01 -1.66,9.53 -1.41,12.05 -0.46,14.52 0.48,16.98 1.47,18.61 2.45,20.23 4.17,20.99 5.89,21.74 8.15,21.45 10.41,21.16 12.76,19.41 15.10,17.65 17.14,14.61 19.18,11.57 20.25,7.98 21.31,4.39 21.78,1.99 22.25,-0.41 21.93,-2.94 21.61,-5.47 21.63,-5.55 21.66,-5.62 21.70,-5.69 21.74,-5.76 21.80,-5.81 21.86,-5.87 21.92,-5.91 21.99,-5.95 22.07,-5.97 22.14,-5.99 22.22,-5.99 22.30,-6.00 22.38,-5.98 22.46,-5.97 22.53,-5.93 22.60,-5.90 22.66,-5.85 22.72,-5.80 22.77,-5.74 22.82,-5.67 22.85,-5.60 22.88,-5.53 22.90,-5.45 22.91,-5.37 22.90,-5.29 22.90,-5.21 22.51,-4.96 22.12,-4.70 22.02,-4.74 21.92,-4.78 21.84,-4.85 21.76,-4.91 21.70,-5.01 21.64,-5.10 21.62,-5.20 21.60,-5.30 21.61,-5.41 21.62,-5.51 21.66,-5.61 21.71,-5.71 21.78,-5.79 21.85,-5.86 21.95,-5.91 22.04,-5.96 22.14,-5.98 22.25,-6.00 22.35,-5.98 22.46,-5.97 22.55,-5.92 22.65,-5.87 22.72,-5.79 22.79,-5.71 22.84,-5.62 22.88,-5.52 22.90,-5.42 22.91,-5.31 22.89,-5.21 22.86,-5.10 22.81,-5.01 22.76,-4.92 22.68,-4.85 22.59,-4.78 22.50,-4.74 22.40,-4.70 22.29,-4.70 22.19,-4.69 22.08,-4.72 21.98,-4.75 21.89,-4.80 21.80,-4.86 21.74,-4.95 21.67,-5.03 21.64,-5.13 21.61,-5.23 21.60,-5.34 21.60,-5.45 21.64,-5.55 21.67,-5.65 21.73,-5.73 21.80,-5.82 21.89,-5.88 21.97,-5.94 22.08,-5.97 22.18,-6.00 21.89,-5.73 21.61,-5.47 21.63,-5.55 21.66,-5.62 21.70,-5.69 21.74,-5.76 21.80,-5.81 21.86,-5.87 21.92,-5.91 21.99,-5.95 22.07,-5.97 22.14,-5.99 22.22,-5.99 22.30,-6.00 22.38,-5.98 22.46,-5.97 22.53,-5.93 22.60,-5.90 22.66,-5.85 22.72,-5.80 22.77,-5.74 22.82,-5.67 22.85,-5.60 22.88,-5.53 22.90,-5.45 22.91,-5.37 22.90,-5.29 22.90,-5.21 23.93,-2.55 24.97,0.11 24.45,2.66 23.94,5.20 22.69,9.14 21.43,13.08 19.05,16.42 16.66,19.77 13.74,21.72 10.82,23.67 7.89,23.86 4.97,24.06 2.71,22.88 0.46,21.69 -0.69,19.77 -1.84,17.86 -2.84,15.08 -3.84,12.29 -4.05,9.67 -4.27,7.06 -4.24,4.90 -4.21,2.75 -3.70,1.69 -3.19,0.64 -2.41,-0.10 -1.63,-0.85 -0.81,-0.75 0,-0.65 0.07,-0.64 0.15,-0.63 0.23,-0.60 0.30,-0.58 0.37,-0.53 0.43,-0.49 0.48,-0.43 0.54,-0.37 0.57,-0.30 0.61,-0.23 0.63,-0.15 0.65,-0.07 0.65,0.00 0.65,0.07 0.63,0.15 0.61,0.23 0.57,0.30 0.54,0.37 0.48,0.43 0.43,0.49 0.37,0.53 0.30,0.58 0.23,0.60 0.15,0.63 0.07,0.64 -0.00,0.65 -0.00,0.65 L 0,0.65 Z"/></g><g transform="translate(359.933837890625 137.0411834716797) rotate(0 8.367950439453125 -5.3250732421875)" stroke="none"><path fill="#1e1e1e" d="M -0.15,-0.63 Q -0.15,-0.63 0.65,-1.03 1.46,-1.43 2.49,-2.35 3.52,-3.28 4.81,-4.93 6.09,-6.59 7.04,-8.35 7.99,-10.10 8.83,-11.94 9.67,-13.77 9.99,-14.92 10.32,-16.06 10.49,-16.58 10.66,-17.11 10.24,-16.61 9.81,-16.12 9.17,-14.67 8.54,-13.23 8.26,-11.81 7.99,-10.39 7.87,-8.51 7.75,-6.62 7.69,-4.72 7.64,-2.81 7.83,-0.77 8.03,1.27 8.31,2.52 8.60,3.77 8.13,5.86 7.66,7.95 6.98,8.04 6.29,8.13 5.05,7.68 3.81,7.23 2.62,6.87 1.44,6.51 0.41,6.11 -0.60,5.71 -1.33,5.60 -2.06,5.48 -2.64,5.42 -3.22,5.36 -3.39,5.31 -3.56,5.25 -3.71,5.16 -3.87,5.06 -3.99,4.94 -4.12,4.81 -4.21,4.65 -4.30,4.50 -4.35,4.33 -4.40,4.16 -4.41,3.98 -4.42,3.80 -4.39,3.62 -4.35,3.45 -4.28,3.29 -4.20,3.12 -4.09,2.98 -3.98,2.84 -3.84,2.73 -3.70,2.62 -3.53,2.55 -3.37,2.48 -3.19,2.45 -3.02,2.42 -2.84,2.43 -2.66,2.44 -1.98,2.38 -1.30,2.32 1.13,1.90 3.58,1.47 7.55,0.98 11.52,0.49 15.16,-0.27 18.79,-1.03 18.90,-1.04 19.00,-1.05 19.11,-1.02 19.21,-0.99 19.30,-0.93 19.38,-0.87 19.45,-0.79 19.51,-0.70 19.55,-0.60 19.58,-0.50 19.58,-0.40 19.59,-0.29 19.55,-0.19 19.52,-0.09 19.46,-0.00 19.39,0.07 19.30,0.13 19.22,0.19 19.11,0.22 19.01,0.25 18.91,0.25 18.80,0.24 18.70,0.20 18.60,0.16 18.52,0.09 18.44,0.03 18.38,-0.05 18.33,-0.14 18.30,-0.25 18.28,-0.35 18.29,-0.46 18.30,-0.56 18.35,-0.66 18.39,-0.76 18.46,-0.83 18.54,-0.91 18.63,-0.96 18.72,-1.01 18.83,-1.03 18.93,-1.05 19.04,-1.03 19.14,-1.02 19.24,-0.97 19.33,-0.92 19.40,-0.84 19.48,-0.76 19.52,-0.67 19.57,-0.57 19.58,-0.47 19.59,-0.36 19.57,-0.26 19.55,-0.15 19.49,-0.06 19.44,0.02 19.36,0.09 19.28,0.16 19.18,0.20 19.08,0.24 19.08,0.24 19.08,0.24 15.47,1.12 11.85,2.01 7.98,3.21 4.10,4.42 1.45,4.89 -1.19,5.36 -2.21,5.36 -3.22,5.36 -3.39,5.31 -3.56,5.25 -3.71,5.16 -3.87,5.06 -3.99,4.94 -4.12,4.81 -4.21,4.65 -4.30,4.50 -4.35,4.33 -4.40,4.16 -4.41,3.98 -4.42,3.80 -4.39,3.62 -4.35,3.45 -4.28,3.29 -4.21,3.12 -4.09,2.98 -3.98,2.84 -3.84,2.73 -3.70,2.62 -3.53,2.55 -3.37,2.48 -3.19,2.45 -3.02,2.42 -2.84,2.43 -2.66,2.44 -2.08,2.52 -1.50,2.60 -0.53,2.81 0.44,3.02 1.36,3.39 2.29,3.76 3.63,4.18 4.96,4.60 6.06,4.87 7.16,5.14 6.44,4.78 5.72,4.41 5.40,2.98 5.09,1.54 4.90,-0.68 4.70,-2.90 4.77,-4.87 4.83,-6.83 5.00,-8.91 5.16,-10.99 5.55,-12.72 5.94,-14.44 6.88,-16.28 7.81,-18.12 8.86,-18.93 9.92,-19.74 11.11,-19.40 12.30,-19.05 12.75,-18.13 13.20,-17.20 13.06,-16.24 12.91,-15.28 12.49,-13.96 12.07,-12.64 11.16,-10.74 10.24,-8.83 9.12,-6.94 8.00,-5.04 6.48,-3.25 4.95,-1.46 3.49,-0.45 2.03,0.56 1.09,0.60 0.15,0.63 0.08,0.64 0.00,0.65 -0.07,0.64 -0.15,0.63 -0.22,0.61 -0.30,0.58 -0.36,0.53 -0.43,0.49 -0.48,0.43 -0.53,0.37 -0.57,0.30 -0.61,0.23 -0.63,0.15 -0.65,0.08 -0.65,0.00 -0.65,-0.07 -0.63,-0.15 -0.61,-0.23 -0.57,-0.30 -0.54,-0.37 -0.48,-0.43 -0.43,-0.49 -0.37,-0.53 -0.30,-0.58 -0.23,-0.60 -0.15,-0.63 -0.15,-0.63 L -0.15,-0.63 Z"/></g><g transform="translate(86.833251953125 49.5577392578125) rotate(0 6.4661865234375 -6.8465423583984375)" stroke="none"><path fill="#1e1e1e" d="M -0.62,-0.20 Q -0.62,-0.20 -0.39,-1.58 -0.16,-2.97 0.44,-4.65 1.05,-6.32 1.51,-7.87 1.97,-9.42 2.39,-10.75 2.80,-12.09 3.24,-12.98 3.67,-13.87 5.06,-14.32 6.44,-14.77 7.28,-13.83 8.12,-12.89 9.41,-10.88 10.71,-8.88 11.48,-7.09 12.26,-5.30 12.54,-2.52 12.82,0.24 12.80,0.35 12.79,0.45 12.74,0.55 12.69,0.64 12.61,0.72 12.54,0.79 12.44,0.84 12.34,0.88 12.24,0.89 12.13,0.91 12.03,0.88 11.92,0.86 11.83,0.81 11.74,0.75 11.67,0.67 11.60,0.59 11.56,0.50 11.52,0.40 11.52,0.29 11.51,0.19 11.54,0.08 11.56,-0.01 11.62,-0.10 11.68,-0.19 11.76,-0.25 11.85,-0.32 11.95,-0.35 12.05,-0.39 12.16,-0.39 12.26,-0.39 12.36,-0.36 12.46,-0.32 12.55,-0.26 12.63,-0.20 12.69,-0.11 12.76,-0.02 12.78,0.07 12.81,0.17 12.81,0.28 12.80,0.39 12.77,0.48 12.73,0.58 12.66,0.67 12.59,0.75 12.50,0.80 12.41,0.86 12.31,0.88 12.20,0.91 12.10,0.90 11.99,0.88 11.90,0.84 11.80,0.80 11.72,0.73 11.64,0.65 11.59,0.56 11.54,0.47 11.52,0.36 11.51,0.26 11.51,0.26 11.51,0.26 10.70,-2.00 9.89,-4.27 9.19,-5.88 8.49,-7.48 7.33,-9.35 6.18,-11.22 5.37,-12.18 4.57,-13.14 5.18,-12.93 5.79,-12.71 5.43,-12.04 5.06,-11.36 4.63,-10.05 4.20,-8.73 3.69,-7.13 3.18,-5.52 2.55,-3.90 1.91,-2.27 1.26,-1.03 0.62,0.20 0.58,0.27 0.55,0.35 0.50,0.41 0.45,0.47 0.39,0.52 0.32,0.56 0.25,0.59 0.18,0.63 0.10,0.64 0.02,0.65 -0.05,0.64 -0.13,0.64 -0.20,0.61 -0.28,0.59 -0.34,0.55 -0.41,0.50 -0.46,0.45 -0.52,0.39 -0.56,0.32 -0.60,0.25 -0.62,0.18 -0.64,0.10 -0.65,0.02 -0.65,-0.05 -0.63,-0.13 -0.62,-0.20 -0.62,-0.20 L -0.62,-0.20 Z"/></g><g transform="translate(89.87615966796875 46.51483154296875) rotate(0 5.7054443359375 -1.1410903930664062)" stroke="none"><path fill="#1e1e1e" d="M -0.36,-0.54 Q -0.36,-0.54 0.16,-1.18 0.68,-1.82 1.69,-2.31 2.71,-2.81 4.61,-2.94 6.51,-3.07 8.61,-2.34 10.70,-1.62 10.80,-1.58 10.90,-1.53 10.98,-1.46 11.05,-1.39 11.11,-1.30 11.16,-1.20 11.18,-1.10 11.19,-0.99 11.18,-0.89 11.16,-0.78 11.11,-0.69 11.07,-0.59 10.99,-0.52 10.91,-0.45 10.82,-0.40 10.72,-0.35 10.62,-0.34 10.51,-0.33 10.41,-0.35 10.30,-0.37 10.21,-0.43 10.12,-0.48 10.05,-0.56 9.98,-0.64 9.94,-0.74 9.90,-0.84 9.89,-0.94 9.88,-1.05 9.91,-1.15 9.94,-1.25 10.00,-1.34 10.05,-1.43 10.14,-1.50 10.22,-1.56 10.32,-1.60 10.42,-1.63 10.53,-1.63 10.63,-1.63 10.74,-1.60 10.84,-1.57 10.92,-1.51 11.01,-1.44 11.07,-1.36 11.13,-1.27 11.16,-1.17 11.19,-1.06 11.18,-0.96 11.18,-0.85 11.14,-0.75 11.10,-0.65 11.04,-0.57 10.97,-0.49 10.88,-0.43 10.79,-0.38 10.68,-0.35 10.58,-0.33 10.48,-0.34 10.37,-0.35 10.37,-0.35 10.37,-0.35 8.52,-0.66 6.68,-0.98 5.16,-0.76 3.65,-0.55 2.79,-0.24 1.93,0.07 1.15,0.30 0.36,0.54 0.29,0.58 0.22,0.61 0.14,0.63 0.06,0.65 -0.01,0.65 -0.08,0.65 -0.16,0.63 -0.24,0.61 -0.31,0.57 -0.38,0.53 -0.44,0.48 -0.49,0.42 -0.54,0.36 -0.58,0.29 -0.61,0.22 -0.64,0.14 -0.64,0.06 -0.65,-0.01 -0.64,-0.08 -0.63,-0.16 -0.60,-0.24 -0.57,-0.31 -0.53,-0.37 -0.48,-0.44 -0.42,-0.49 -0.36,-0.54 -0.36,-0.54 L -0.36,-0.54 Z"/></g><g transform="translate(12.28216552734375 50.318450927734375) rotate(0 0.760711669921875 9.128715515136719)" stroke="none"><path fill="#1e1e1e" d="M 0.65,0 Q 0.65,0 0.97,1.53 1.29,3.06 1.52,4.49 1.75,5.92 1.85,7.72 1.94,9.52 2.13,11.08 2.32,12.63 2.21,14.93 2.10,17.23 2.09,17.33 2.08,17.44 2.04,17.53 2.00,17.63 1.92,17.71 1.85,17.79 1.76,17.84 1.67,17.89 1.56,17.91 1.46,17.93 1.35,17.91 1.25,17.90 1.15,17.85 1.06,17.80 0.98,17.72 0.91,17.65 0.86,17.55 0.82,17.46 0.80,17.35 0.79,17.25 0.81,17.14 0.83,17.04 0.89,16.95 0.94,16.85 1.02,16.78 1.10,16.71 1.20,16.67 1.30,16.63 1.40,16.63 1.51,16.62 1.61,16.64 1.71,16.67 1.80,16.73 1.89,16.79 1.96,16.87 2.02,16.95 2.06,17.05 2.09,17.16 2.10,17.26 2.10,17.37 2.06,17.47 2.03,17.57 1.97,17.66 1.91,17.74 1.82,17.80 1.73,17.86 1.63,17.89 1.53,17.92 1.42,17.92 1.32,17.91 1.22,17.88 1.12,17.84 1.04,17.77 0.95,17.70 0.90,17.61 0.84,17.52 0.82,17.42 0.79,17.32 0.79,17.32 0.79,17.32 0.37,15.16 -0.04,13.01 -0.37,11.34 -0.69,9.66 -0.79,7.98 -0.88,6.30 -1.09,4.68 -1.29,3.06 -0.97,1.53 -0.65,0 -0.64,-0.07 -0.63,-0.15 -0.60,-0.23 -0.58,-0.30 -0.53,-0.37 -0.49,-0.43 -0.43,-0.48 -0.37,-0.54 -0.30,-0.57 -0.23,-0.61 -0.15,-0.63 -0.07,-0.65 0.00,-0.65 0.07,-0.65 0.15,-0.63 0.23,-0.61 0.30,-0.57 0.37,-0.54 0.43,-0.48 0.49,-0.43 0.53,-0.37 0.58,-0.30 0.60,-0.23 0.63,-0.15 0.64,-0.07 0.65,0.00 0.65,0.00 L 0.65,0 Z"/></g><g transform="translate(29.77886962890625 58.68644714355469) rotate(0 -0.7607421875 2.2821731567382812)" stroke="none"><path fill="#1e1e1e" d="M -0.65,0 Q -0.65,0 -0.80,-0.41 -0.95,-0.83 -1.50,-0.83 -2.05,-0.82 -2.95,-0.34 -3.86,0.12 -4.25,1.19 -4.63,2.25 -4.41,3.36 -4.19,4.48 -3.63,5.42 -3.08,6.37 -2.50,6.45 -1.92,6.53 -0.80,6.02 0.32,5.52 1.37,4.58 2.42,3.64 2.76,2.39 3.10,1.13 2.89,0.21 2.67,-0.71 2.09,-1.15 1.50,-1.58 1.06,-2.01 0.62,-2.45 -0.89,-1.57 -2.40,-0.69 -2.46,-0.75 -2.52,-0.80 -2.56,-0.87 -2.61,-0.93 -2.63,-1.01 -2.66,-1.08 -2.67,-1.16 -2.67,-1.24 -2.66,-1.32 -2.65,-1.40 -2.62,-1.47 -2.59,-1.54 -2.54,-1.61 -2.50,-1.67 -2.44,-1.72 -2.38,-1.77 -2.30,-1.81 -2.23,-1.84 -2.16,-1.86 -2.08,-1.88 -2.00,-1.87 -1.92,-1.87 -1.84,-1.85 -1.77,-1.83 -1.70,-1.79 -1.63,-1.75 -1.60,-1.24 -1.58,-0.74 -1.66,-0.68 -1.75,-0.62 -1.86,-0.59 -1.96,-0.57 -2.07,-0.58 -2.17,-0.58 -2.27,-0.63 -2.37,-0.67 -2.45,-0.74 -2.53,-0.81 -2.58,-0.90 -2.63,-0.99 -2.65,-1.10 -2.67,-1.20 -2.66,-1.31 -2.65,-1.41 -2.60,-1.51 -2.55,-1.60 -2.48,-1.68 -2.40,-1.75 -2.31,-1.80 -2.21,-1.85 -2.11,-1.86 -2.00,-1.88 -1.90,-1.86 -1.79,-1.84 -1.70,-1.79 -1.61,-1.74 -1.54,-1.66 -1.47,-1.58 -1.42,-1.48 -1.38,-1.38 -1.37,-1.28 -1.36,-1.17 -1.39,-1.07 -1.41,-0.97 -1.47,-0.88 -1.53,-0.79 -1.61,-0.72 -1.69,-0.65 -1.79,-0.62 -1.89,-0.58 -2.00,-0.57 -2.10,-0.57 -2.20,-0.60 -2.31,-0.63 -2.39,-0.69 -2.48,-0.76 -2.54,-0.84 -2.60,-0.93 -2.64,-1.03 -2.67,-1.13 -2.66,-1.24 -2.66,-1.34 -2.63,-1.44 -2.59,-1.54 -2.50,-1.12 -2.40,-0.69 -2.46,-0.75 -2.52,-0.80 -2.56,-0.87 -2.61,-0.93 -2.63,-1.01 -2.66,-1.08 -2.67,-1.16 -2.67,-1.24 -2.66,-1.32 -2.65,-1.40 -2.62,-1.47 -2.59,-1.54 -2.54,-1.61 -2.50,-1.67 -2.44,-1.72 -2.38,-1.77 -2.30,-1.81 -2.23,-1.84 -2.16,-1.86 -2.08,-1.88 -2.00,-1.87 -1.92,-1.87 -1.84,-1.85 -1.77,-1.83 -1.70,-1.79 -1.63,-1.75 -0.01,-3.40 1.60,-5.05 2.66,-4.38 3.72,-3.71 4.63,-2.59 5.53,-1.47 5.72,0.24 5.91,1.95 5.15,3.81 4.39,5.67 2.85,6.93 1.31,8.18 -0.56,8.71 -2.45,9.24 -3.80,8.68 -5.16,8.11 -6.07,6.51 -6.98,4.91 -7.12,3.11 -7.26,1.31 -6.43,-0.34 -5.60,-2.00 -4.29,-2.76 -2.99,-3.52 -2.15,-3.45 -1.31,-3.38 -0.75,-3.17 -0.19,-2.96 0.38,-2.37 0.95,-1.78 0.80,-0.89 0.65,0 0.64,0.07 0.63,0.15 0.60,0.23 0.58,0.30 0.53,0.37 0.49,0.43 0.43,0.48 0.37,0.54 0.30,0.57 0.23,0.61 0.15,0.63 0.07,0.65 -0.00,0.65 -0.07,0.65 -0.15,0.63 -0.23,0.61 -0.30,0.57 -0.37,0.54 -0.43,0.48 -0.49,0.43 -0.53,0.37 -0.58,0.30 -0.60,0.23 -0.63,0.15 -0.64,0.07 -0.65,-0.00 -0.65,-0.00 L -0.65,0 Z"/></g><g transform="translate(38.90753173828125 51.83990478515625) rotate(0 4.564361572265625 8.74835205078125)" stroke="none"><path fill="#1e1e1e" d="M 0.39,-0.52 Q 0.39,-0.52 1.40,-0.05 2.41,0.41 3.45,1.09 4.48,1.76 5.42,2.51 6.36,3.26 7.24,3.99 8.11,4.72 8.82,5.65 9.54,6.58 9.27,8.27 8.99,9.96 8.06,11.38 7.14,12.81 6.22,13.76 5.31,14.71 3.80,16.08 2.29,17.45 2.23,17.54 2.16,17.62 2.07,17.68 1.98,17.73 1.88,17.76 1.77,17.78 1.67,17.77 1.56,17.77 1.46,17.72 1.37,17.68 1.29,17.61 1.21,17.54 1.16,17.45 1.11,17.35 1.09,17.25 1.07,17.14 1.08,17.04 1.10,16.93 1.14,16.84 1.19,16.74 1.27,16.67 1.34,16.59 1.44,16.55 1.53,16.50 1.64,16.49 1.74,16.47 1.85,16.49 1.95,16.51 2.04,16.57 2.14,16.62 2.21,16.70 2.28,16.78 2.32,16.88 2.36,16.97 2.37,17.08 2.38,17.18 2.35,17.29 2.33,17.39 2.27,17.48 2.21,17.57 2.13,17.64 2.04,17.70 1.94,17.74 1.84,17.77 1.74,17.78 1.63,17.78 1.53,17.75 1.43,17.72 1.34,17.65 1.26,17.59 1.20,17.51 1.13,17.42 1.10,17.32 1.07,17.22 1.08,17.11 1.08,17.00 1.12,16.90 1.15,16.80 1.15,16.80 1.15,16.80 2.13,14.84 3.11,12.89 3.78,11.93 4.45,10.97 5.19,9.96 5.93,8.95 6.08,7.84 6.23,6.74 5.48,5.96 4.73,5.18 3.93,4.45 3.12,3.72 2.10,2.96 1.07,2.20 0.34,1.36 -0.39,0.52 -0.45,0.47 -0.50,0.41 -0.55,0.34 -0.59,0.28 -0.61,0.20 -0.64,0.13 -0.64,0.05 -0.65,-0.02 -0.64,-0.10 -0.63,-0.18 -0.59,-0.25 -0.56,-0.32 -0.52,-0.39 -0.47,-0.45 -0.41,-0.50 -0.35,-0.55 -0.27,-0.58 -0.20,-0.62 -0.13,-0.63 -0.05,-0.65 0.02,-0.65 0.10,-0.64 0.18,-0.62 0.25,-0.60 0.32,-0.56 0.39,-0.52 0.39,-0.52 L 0.39,-0.52 Z"/></g><g transform="translate(46.51483154296875 76.18313598632812) rotate(0 4.9447021484375 -4.183990478515625)" stroke="none"><path fill="#1e1e1e" d="M -0.62,-0.20 Q -0.62,-0.20 -0.65,-0.95 -0.69,-1.70 -0.11,-2.60 0.46,-3.50 1.09,-4.46 1.72,-5.42 2.46,-6.33 3.21,-7.24 3.74,-7.84 4.27,-8.45 4.73,-8.94 5.19,-9.43 5.94,-9.78 6.70,-10.13 7.58,-9.94 8.47,-9.75 9.15,-8.78 9.84,-7.81 10.05,-6.88 10.26,-5.96 10.44,-4.99 10.63,-4.03 10.23,-2.01 9.84,0.00 9.81,0.10 9.79,0.20 9.73,0.29 9.68,0.38 9.59,0.45 9.51,0.52 9.41,0.55 9.31,0.59 9.21,0.59 9.10,0.60 9.00,0.57 8.90,0.54 8.81,0.48 8.72,0.41 8.66,0.33 8.60,0.24 8.57,0.14 8.53,0.04 8.54,-0.06 8.54,-0.16 8.57,-0.26 8.61,-0.36 8.68,-0.45 8.74,-0.53 8.83,-0.59 8.92,-0.64 9.02,-0.67 9.13,-0.70 9.23,-0.69 9.34,-0.68 9.44,-0.64 9.53,-0.60 9.61,-0.53 9.69,-0.46 9.75,-0.37 9.80,-0.27 9.82,-0.17 9.84,-0.07 9.83,0.03 9.81,0.14 9.77,0.23 9.72,0.33 9.65,0.40 9.57,0.48 9.48,0.53 9.38,0.57 9.28,0.59 9.17,0.60 9.07,0.58 8.96,0.56 8.87,0.51 8.78,0.46 8.70,0.38 8.63,0.30 8.59,0.21 8.55,0.11 8.54,0.00 8.53,-0.09 8.53,-0.09 8.53,-0.09 8.41,-1.74 8.29,-3.40 7.90,-4.37 7.50,-5.35 7.34,-6.40 7.19,-7.45 6.76,-7.01 6.34,-6.57 5.82,-6.02 5.30,-5.46 4.61,-4.68 3.92,-3.90 3.22,-2.94 2.52,-1.98 2.04,-1.44 1.56,-0.91 1.09,-0.35 0.62,0.20 0.58,0.27 0.55,0.35 0.50,0.41 0.45,0.47 0.39,0.52 0.32,0.56 0.25,0.59 0.18,0.63 0.10,0.64 0.02,0.65 -0.05,0.64 -0.13,0.64 -0.20,0.61 -0.28,0.59 -0.34,0.55 -0.41,0.50 -0.46,0.45 -0.52,0.39 -0.56,0.32 -0.60,0.25 -0.62,0.18 -0.64,0.10 -0.65,0.02 -0.65,-0.05 -0.63,-0.13 -0.62,-0.20 -0.62,-0.20 L -0.62,-0.20 Z"/></g><g transform="translate(48.0362548828125 73.90095520019531) rotate(0 4.944732666015625 -0.7607269287109375)" stroke="none"><path fill="#1e1e1e" d="M -0.24,-0.60 Q -0.24,-0.60 0.73,-1.33 1.72,-2.05 2.96,-2.31 4.20,-2.57 6.89,-1.71 9.57,-0.85 9.66,-0.79 9.75,-0.73 9.82,-0.65 9.88,-0.57 9.92,-0.47 9.95,-0.37 9.96,-0.26 9.96,-0.15 9.93,-0.05 9.89,0.04 9.83,0.12 9.77,0.21 9.68,0.27 9.59,0.33 9.49,0.36 9.39,0.39 9.28,0.39 9.18,0.39 9.08,0.35 8.98,0.31 8.90,0.24 8.81,0.18 8.76,0.09 8.70,0.00 8.68,-0.10 8.65,-0.20 8.66,-0.31 8.67,-0.41 8.71,-0.51 8.76,-0.61 8.83,-0.69 8.90,-0.76 8.99,-0.82 9.09,-0.87 9.19,-0.89 9.29,-0.91 9.40,-0.89 9.51,-0.87 9.60,-0.83 9.69,-0.78 9.77,-0.70 9.84,-0.63 9.89,-0.53 9.94,-0.44 9.95,-0.33 9.96,-0.23 9.94,-0.12 9.92,-0.02 9.87,0.06 9.82,0.16 9.74,0.23 9.66,0.30 9.56,0.34 9.46,0.38 9.35,0.39 9.25,0.40 9.15,0.37 9.04,0.34 9.04,0.34 9.04,0.34 6.84,0.21 4.64,0.08 3.65,0.19 2.65,0.30 1.44,0.45 0.24,0.60 0.16,0.63 0.09,0.65 0.01,0.65 -0.06,0.65 -0.14,0.63 -0.22,0.61 -0.29,0.58 -0.36,0.54 -0.42,0.49 -0.48,0.44 -0.52,0.37 -0.57,0.31 -0.60,0.24 -0.63,0.16 -0.64,0.09 -0.65,0.01 -0.64,-0.06 -0.64,-0.14 -0.61,-0.22 -0.58,-0.29 -0.54,-0.36 -0.49,-0.42 -0.44,-0.48 -0.38,-0.53 -0.31,-0.57 -0.24,-0.60 -0.24,-0.60 L -0.24,-0.60 Z"/></g><g transform="translate(10 160.6237030029297) rotate(0 0.760711669921875 11.410873413085938)" stroke="none"><path fill="#1e1e1e" d="M 0.65,0 Q 0.65,0 0.91,1.96 1.17,3.93 1.41,6.02 1.65,8.11 1.76,9.92 1.87,11.74 1.91,13.61 1.95,15.48 2.11,17.08 2.27,18.68 2.19,20.36 2.11,22.04 2.10,22.15 2.09,22.25 2.05,22.35 2.01,22.45 1.94,22.53 1.87,22.61 1.78,22.66 1.68,22.71 1.58,22.73 1.48,22.75 1.37,22.74 1.26,22.73 1.17,22.68 1.07,22.63 1.00,22.56 0.92,22.48 0.87,22.39 0.83,22.29 0.81,22.19 0.80,22.08 0.82,21.98 0.84,21.88 0.89,21.78 0.94,21.69 1.02,21.62 1.10,21.55 1.19,21.50 1.29,21.46 1.40,21.45 1.50,21.44 1.61,21.47 1.71,21.49 1.80,21.55 1.89,21.61 1.96,21.69 2.02,21.77 2.06,21.87 2.10,21.97 2.10,22.08 2.10,22.18 2.07,22.28 2.04,22.39 1.98,22.47 1.92,22.56 1.83,22.62 1.75,22.68 1.65,22.72 1.55,22.75 1.44,22.75 1.33,22.74 1.23,22.71 1.13,22.67 1.05,22.61 0.97,22.54 0.91,22.45 0.85,22.36 0.83,22.26 0.80,22.16 0.80,22.16 0.80,22.16 0.43,20.57 0.07,18.99 -0.23,17.27 -0.54,15.54 -0.58,13.71 -0.62,11.87 -0.70,10.11 -0.78,8.35 -0.97,6.14 -1.17,3.93 -0.91,1.96 -0.65,0 -0.64,-0.07 -0.63,-0.15 -0.60,-0.23 -0.58,-0.30 -0.53,-0.37 -0.49,-0.43 -0.43,-0.48 -0.37,-0.54 -0.30,-0.57 -0.23,-0.61 -0.15,-0.63 -0.07,-0.65 0.00,-0.65 0.07,-0.65 0.15,-0.63 0.23,-0.61 0.30,-0.57 0.37,-0.54 0.43,-0.48 0.49,-0.43 0.53,-0.37 0.58,-0.30 0.60,-0.23 0.63,-0.15 0.64,-0.07 0.65,0.00 0.65,0.00 L 0.65,0 Z"/></g><g transform="translate(95.96197509765625 144.64845275878906) rotate(0 0.7607421875 4.9447174072265625)" stroke="none"><path fill="#1e1e1e" d="M 0.63,-0.15 Q 0.63,-0.15 1.09,0.65 1.55,1.46 1.86,2.20 2.17,2.94 2.35,4.07 2.53,5.20 2.34,7.28 2.16,9.36 2.14,9.47 2.13,9.57 2.08,9.67 2.04,9.76 1.96,9.84 1.89,9.91 1.79,9.96 1.70,10.01 1.59,10.02 1.49,10.04 1.38,10.02 1.28,10.00 1.18,9.94 1.09,9.89 1.02,9.81 0.95,9.73 0.91,9.64 0.86,9.54 0.86,9.43 0.85,9.33 0.87,9.22 0.90,9.12 0.95,9.03 1.01,8.94 1.09,8.88 1.18,8.81 1.28,8.77 1.38,8.73 1.48,8.73 1.59,8.73 1.69,8.76 1.79,8.79 1.88,8.85 1.96,8.91 2.03,9.00 2.09,9.09 2.12,9.19 2.15,9.29 2.15,9.40 2.15,9.50 2.11,9.60 2.07,9.70 2.01,9.78 1.94,9.87 1.85,9.92 1.76,9.98 1.66,10.01 1.56,10.03 1.45,10.03 1.34,10.02 1.25,9.98 1.15,9.93 1.07,9.86 0.99,9.79 0.94,9.70 0.89,9.61 0.87,9.50 0.85,9.40 0.85,9.40 0.85,9.40 0.48,7.46 0.12,5.52 0.03,4.65 -0.04,3.78 -0.36,2.90 -0.67,2.03 -0.65,1.09 -0.63,0.15 -0.64,0.08 -0.65,0.00 -0.64,-0.07 -0.63,-0.15 -0.61,-0.22 -0.58,-0.30 -0.53,-0.36 -0.49,-0.43 -0.43,-0.48 -0.37,-0.53 -0.30,-0.57 -0.23,-0.61 -0.15,-0.63 -0.08,-0.65 -0.00,-0.65 0.07,-0.65 0.15,-0.63 0.23,-0.61 0.30,-0.57 0.37,-0.54 0.43,-0.48 0.49,-0.43 0.53,-0.37 0.58,-0.30 0.60,-0.23 0.63,-0.15 0.63,-0.15 L 0.63,-0.15 Z"/></g><g transform="translate(91.39764404296875 143.1269989013672) rotate(0 8.36798095703125 5.3250732421875)" stroke="none"><path fill="#1e1e1e" d="M -0.62,-0.20 Q -0.62,-0.20 -0.61,-0.96 -0.60,-1.72 0.07,-2.45 0.75,-3.17 1.61,-3.51 2.47,-3.85 3.53,-3.97 4.59,-4.09 5.80,-3.91 7.01,-3.73 8.19,-3.43 9.37,-3.12 10.30,-2.44 11.23,-1.75 11.70,-0.87 12.16,0.01 12.35,0.91 12.53,1.81 12.35,2.62 12.17,3.44 11.79,4.07 11.41,4.71 11.10,4.87 10.79,5.04 10.68,5.17 10.57,5.29 10.44,5.39 10.30,5.49 10.15,5.55 9.99,5.62 9.83,5.64 9.66,5.66 9.50,5.65 9.33,5.63 9.17,5.58 9.02,5.52 8.88,5.43 8.74,5.34 8.62,5.22 8.51,5.10 8.43,4.95 8.35,4.80 8.30,4.64 8.26,4.48 8.26,4.32 8.25,4.15 8.29,3.99 8.32,3.82 8.40,3.67 8.47,3.52 9.67,3.30 10.87,3.08 11.82,3.35 12.78,3.62 13.66,3.96 14.54,4.31 15.22,4.72 15.89,5.13 16.47,5.58 17.04,6.04 17.41,7.14 17.79,8.24 17.11,9.59 16.44,10.94 14.80,11.71 13.16,12.48 8.73,13.19 4.30,13.89 4.19,13.90 4.08,13.91 3.98,13.88 3.88,13.85 3.79,13.79 3.70,13.73 3.63,13.65 3.57,13.57 3.53,13.47 3.50,13.37 3.50,13.26 3.50,13.15 3.53,13.05 3.56,12.95 3.62,12.87 3.69,12.78 3.78,12.72 3.86,12.66 3.96,12.63 4.07,12.60 4.17,12.60 4.28,12.61 4.38,12.65 4.48,12.68 4.56,12.75 4.64,12.82 4.70,12.91 4.75,13.00 4.78,13.10 4.80,13.21 4.79,13.31 4.78,13.42 4.74,13.52 4.69,13.61 4.62,13.69 4.55,13.77 4.46,13.82 4.36,13.87 4.26,13.89 4.15,13.91 4.05,13.89 3.94,13.88 3.85,13.83 3.75,13.78 3.68,13.70 3.61,13.63 3.56,13.53 3.52,13.44 3.50,13.33 3.49,13.22 3.51,13.12 3.53,13.02 3.59,12.92 3.64,12.83 3.72,12.76 3.80,12.69 3.90,12.65 4.00,12.61 4.00,12.61 4.00,12.61 8.04,11.34 12.08,10.06 13.12,9.62 14.16,9.19 14.27,8.34 14.39,7.50 13.94,7.19 13.49,6.89 12.75,6.58 12.01,6.27 11.40,5.66 10.79,5.04 10.68,5.17 10.57,5.29 10.44,5.39 10.30,5.49 10.15,5.55 9.99,5.62 9.83,5.64 9.66,5.66 9.50,5.65 9.33,5.63 9.17,5.58 9.02,5.52 8.88,5.43 8.74,5.34 8.62,5.22 8.51,5.10 8.43,4.95 8.35,4.80 8.30,4.64 8.26,4.48 8.26,4.32 8.25,4.15 8.29,3.99 8.32,3.82 8.40,3.67 8.47,3.52 8.84,3.31 9.22,3.10 9.57,2.61 9.91,2.12 9.73,1.11 9.55,0.09 9.10,-0.35 8.66,-0.79 7.63,-1.07 6.60,-1.35 5.70,-1.54 4.80,-1.72 3.98,-1.66 3.17,-1.60 2.32,-1.25 1.47,-0.89 1.04,-0.34 0.62,0.20 0.58,0.27 0.55,0.35 0.50,0.41 0.45,0.47 0.39,0.52 0.32,0.56 0.25,0.59 0.18,0.63 0.10,0.64 0.02,0.65 -0.05,0.64 -0.13,0.64 -0.20,0.61 -0.28,0.59 -0.34,0.55 -0.41,0.50 -0.46,0.45 -0.52,0.39 -0.56,0.32 -0.60,0.25 -0.62,0.18 -0.64,0.10 -0.65,0.02 -0.65,-0.05 -0.63,-0.13 -0.62,-0.20 -0.62,-0.20 L -0.62,-0.20 Z"/></g><g transform="translate(22.17156982421875 172.79530334472656) rotate(0 4.944732666015625 -2.2821807861328125)" stroke="none"><path fill="#1e1e1e" d="M 0.58,-0.29 Q 0.58,-0.29 0.68,-0.14 0.78,-0.00 1.44,-0.56 2.10,-1.12 2.91,-2.10 3.71,-3.09 4.33,-3.77 4.95,-4.46 5.55,-5.53 6.16,-6.59 6.62,-7.68 7.07,-8.76 7.25,-9.39 7.42,-10.02 7.50,-10.55 7.58,-11.08 7.65,-11.24 7.72,-11.40 7.83,-11.54 7.94,-11.68 8.08,-11.79 8.22,-11.90 8.38,-11.97 8.54,-12.05 8.72,-12.08 8.89,-12.11 9.07,-12.10 9.25,-12.09 9.42,-12.04 9.59,-11.99 9.74,-11.89 9.89,-11.80 10.02,-11.68 10.15,-11.55 10.24,-11.40 10.33,-11.25 10.38,-11.08 10.44,-10.91 10.45,-10.73 10.46,-10.55 10.43,-10.38 10.40,-10.20 9.89,-9.56 9.39,-8.91 9.38,-7.55 9.37,-6.19 9.29,-4.41 9.20,-2.63 9.36,-1.33 9.52,-0.02 9.75,1.42 9.97,2.87 10.13,4.42 10.29,5.97 10.31,6.07 10.32,6.18 10.31,6.28 10.29,6.39 10.24,6.48 10.19,6.57 10.11,6.65 10.03,6.72 9.93,6.76 9.84,6.81 9.73,6.82 9.62,6.83 9.52,6.80 9.42,6.78 9.33,6.72 9.24,6.67 9.17,6.58 9.10,6.50 9.06,6.40 9.02,6.30 9.02,6.20 9.02,6.09 9.05,5.99 9.07,5.89 9.14,5.80 9.20,5.71 9.28,5.65 9.37,5.59 9.47,5.55 9.57,5.52 9.68,5.52 9.78,5.52 9.88,5.56 9.98,5.59 10.07,5.66 10.15,5.72 10.21,5.81 10.27,5.90 10.29,6.00 10.32,6.11 10.31,6.21 10.31,6.32 10.27,6.42 10.23,6.52 10.16,6.60 10.09,6.68 9.99,6.73 9.90,6.78 9.80,6.81 9.69,6.83 9.59,6.81 9.48,6.80 9.39,6.76 9.29,6.71 9.22,6.64 9.14,6.56 9.09,6.47 9.04,6.37 9.04,6.37 9.04,6.37 8.22,4.88 7.39,3.39 7.02,1.87 6.65,0.35 6.43,-1.19 6.21,-2.74 6.27,-4.61 6.33,-6.48 6.95,-8.78 7.58,-11.08 7.65,-11.24 7.72,-11.40 7.83,-11.54 7.94,-11.68 8.08,-11.79 8.22,-11.90 8.38,-11.97 8.54,-12.05 8.72,-12.08 8.89,-12.11 9.07,-12.10 9.25,-12.09 9.42,-12.04 9.59,-11.99 9.74,-11.89 9.89,-11.80 10.02,-11.68 10.15,-11.55 10.24,-11.40 10.33,-11.25 10.38,-11.08 10.44,-10.91 10.45,-10.73 10.46,-10.55 10.43,-10.38 10.40,-10.20 10.29,-9.69 10.17,-9.17 9.91,-8.39 9.65,-7.61 9.07,-6.40 8.50,-5.18 7.71,-3.93 6.91,-2.67 6.29,-2.02 5.68,-1.36 4.60,-0.21 3.53,0.93 2.59,1.45 1.65,1.97 0.87,1.86 0.08,1.75 -0.25,1.02 -0.58,0.29 -0.61,0.21 -0.64,0.14 -0.64,0.06 -0.65,-0.01 -0.64,-0.09 -0.63,-0.16 -0.60,-0.24 -0.57,-0.31 -0.52,-0.38 -0.48,-0.44 -0.42,-0.49 -0.36,-0.54 -0.29,-0.58 -0.22,-0.61 -0.14,-0.63 -0.06,-0.65 0.01,-0.65 0.09,-0.65 0.16,-0.62 0.24,-0.60 0.31,-0.57 0.38,-0.53 0.44,-0.47 0.50,-0.42 0.54,-0.35 0.58,-0.29 0.58,-0.29 L 0.58,-0.29 Z"/></g><g transform="translate(42.711181640625 161.38441467285156) rotate(0 4.944732666015625 11.030517578125)" stroke="none"><path fill="#1e1e1e" d="M 0.51,-0.41 Q 0.51,-0.41 1.68,0.44 2.85,1.30 3.80,2.10 4.75,2.90 5.81,3.68 6.86,4.46 7.82,5.27 8.77,6.08 9.51,6.95 10.25,7.83 10.66,9.17 11.06,10.52 10.50,12.25 9.94,13.98 8.69,15.42 7.44,16.86 6.05,18.22 4.65,19.59 2.72,20.85 0.79,22.10 0.71,22.17 0.63,22.25 0.54,22.29 0.44,22.34 0.33,22.35 0.23,22.36 0.12,22.34 0.02,22.31 -0.06,22.26 -0.15,22.20 -0.22,22.12 -0.29,22.04 -0.33,21.94 -0.37,21.84 -0.37,21.74 -0.38,21.63 -0.35,21.53 -0.32,21.43 -0.26,21.34 -0.20,21.25 -0.12,21.19 -0.03,21.12 0.06,21.09 0.16,21.05 0.27,21.05 0.37,21.05 0.47,21.09 0.57,21.12 0.66,21.19 0.74,21.25 0.80,21.34 0.86,21.43 0.89,21.53 0.92,21.63 0.91,21.74 0.91,21.85 0.87,21.94 0.83,22.04 0.76,22.12 0.69,22.20 0.60,22.26 0.51,22.31 0.40,22.34 0.30,22.36 0.19,22.35 0.09,22.34 -0.00,22.29 -0.10,22.25 -0.17,22.17 -0.25,22.10 -0.30,22.01 -0.35,21.91 -0.37,21.81 -0.38,21.70 -0.36,21.60 -0.35,21.49 -0.30,21.40 -0.25,21.30 -0.25,21.30 -0.25,21.30 1.05,19.34 2.36,17.37 3.66,15.97 4.95,14.56 5.92,13.59 6.89,12.62 7.42,11.76 7.95,10.91 7.84,10.28 7.74,9.66 7.27,8.99 6.81,8.32 5.96,7.56 5.11,6.80 3.98,5.93 2.85,5.07 1.75,4.07 0.64,3.07 0.06,1.74 -0.51,0.41 -0.55,0.34 -0.59,0.27 -0.62,0.20 -0.64,0.12 -0.65,0.04 -0.65,-0.03 -0.64,-0.11 -0.62,-0.18 -0.59,-0.26 -0.56,-0.33 -0.51,-0.39 -0.46,-0.45 -0.40,-0.50 -0.34,-0.55 -0.27,-0.59 -0.20,-0.62 -0.12,-0.63 -0.04,-0.65 0.03,-0.65 0.11,-0.64 0.18,-0.62 0.26,-0.60 0.33,-0.56 0.39,-0.52 0.45,-0.46 0.51,-0.41 0.51,-0.41 L 0.51,-0.41 Z"/></g><g transform="translate(58.6864013671875 180.40257263183594) rotate(0 0.38037109375 4.5643463134765625)" stroke="none"><path fill="#1e1e1e" d="M 0.65,0 Q 0.65,0 0.96,1.31 1.27,2.62 1.28,3.83 1.29,5.05 1.25,5.97 1.21,6.88 0.99,6.70 0.76,6.53 0.75,6.60 0.75,6.68 0.72,6.76 0.69,6.83 0.64,6.90 0.60,6.96 0.54,7.01 0.48,7.07 0.41,7.10 0.34,7.14 0.26,7.16 0.19,7.18 0.11,7.18 0.03,7.18 -0.04,7.16 -0.12,7.14 -0.19,7.10 -0.26,7.07 -0.31,7.01 -0.37,6.96 -0.42,6.90 -0.46,6.83 -0.49,6.76 -0.52,6.68 -0.53,6.60 -0.54,6.53 -0.54,6.50 -0.54,6.48 -0.51,6.37 -0.49,6.27 -0.43,6.18 -0.37,6.09 -0.29,6.02 -0.21,5.96 -0.11,5.92 -0.01,5.88 0.09,5.88 0.19,5.88 0.30,5.91 0.40,5.94 0.48,6.00 0.57,6.06 0.63,6.15 0.69,6.23 0.73,6.33 0.76,6.43 0.76,6.54 0.75,6.65 0.72,6.75 0.68,6.85 0.61,6.93 0.55,7.01 0.46,7.07 0.37,7.13 0.27,7.15 0.16,7.18 0.06,7.17 -0.04,7.16 -0.14,7.12 -0.23,7.08 -0.31,7.01 -0.39,6.94 -0.45,6.85 -0.50,6.75 -0.52,6.65 -0.54,6.55 -0.52,6.44 -0.51,6.34 -0.46,6.24 -0.42,6.14 -0.34,6.07 -0.27,5.99 -0.17,5.95 -0.08,5.90 0.02,5.88 0.12,5.87 0.23,5.89 0.33,5.91 0.42,5.96 0.52,6.01 0.59,6.09 0.66,6.17 0.70,6.27 0.74,6.37 0.75,6.45 0.76,6.53 0.75,6.60 0.75,6.68 0.72,6.76 0.69,6.83 0.64,6.90 0.60,6.96 0.54,7.01 0.48,7.07 0.41,7.10 0.34,7.14 0.26,7.16 0.19,7.18 0.11,7.18 0.03,7.18 -0.04,7.16 -0.12,7.14 -0.19,7.10 -0.26,7.07 -0.31,7.01 -0.37,6.96 -0.42,6.90 -0.46,6.83 -0.49,6.76 -0.52,6.68 -0.53,6.60 -0.54,6.53 -0.88,6.78 -1.21,7.02 -1.25,6.04 -1.29,5.05 -1.28,3.83 -1.27,2.62 -0.96,1.31 -0.65,0 -0.64,-0.07 -0.63,-0.15 -0.60,-0.23 -0.58,-0.30 -0.53,-0.37 -0.49,-0.43 -0.43,-0.48 -0.37,-0.54 -0.30,-0.57 -0.23,-0.61 -0.15,-0.63 -0.07,-0.65 0.00,-0.65 0.07,-0.65 0.15,-0.63 0.23,-0.61 0.30,-0.57 0.37,-0.54 0.43,-0.48 0.49,-0.43 0.53,-0.37 0.58,-0.30 0.60,-0.23 0.63,-0.15 0.64,-0.07 0.65,0.00 0.65,0.00 L 0.65,0 Z"/></g><g transform="translate(57.92572021484375 184.96690368652344) rotate(0 4.564361572265625 -1.5214385986328125)" stroke="none"><path fill="#1e1e1e" d="M -0.58,0.29 Q -0.58,0.29 -1.08,-0.54 -1.58,-1.39 -1.99,-1.93 -2.39,-2.46 -2.65,-3.27 -2.92,-4.08 -3.03,-4.67 -3.13,-5.26 -2.90,-5.98 -2.67,-6.69 -2.21,-7.08 -1.75,-7.46 -0.89,-7.83 -0.02,-8.19 0.73,-8.54 1.50,-8.89 2.94,-8.88 4.38,-8.87 5.47,-8.61 6.56,-8.35 7.48,-7.59 8.40,-6.82 8.60,-5.79 8.80,-4.75 8.32,-3.70 7.84,-2.65 7.09,-1.95 6.34,-1.25 5.71,-0.94 5.09,-0.62 4.66,-0.30 4.24,0.00 4.08,0.05 3.92,0.10 3.76,0.12 3.60,0.13 3.44,0.10 3.27,0.07 3.12,0.01 2.97,-0.05 2.84,-0.15 2.71,-0.25 2.61,-0.37 2.51,-0.50 2.44,-0.65 2.37,-0.80 2.34,-0.96 2.31,-1.12 2.31,-1.28 2.32,-1.45 2.37,-1.60 2.42,-1.76 2.50,-1.90 2.58,-2.04 2.70,-2.16 2.81,-2.28 2.95,-2.37 3.09,-2.45 4.37,-2.64 5.65,-2.82 6.65,-2.84 7.65,-2.86 8.60,-2.86 9.55,-2.87 10.55,-2.28 11.55,-1.68 11.94,-0.16 12.33,1.36 11.42,2.49 10.50,3.62 8.76,4.23 7.02,4.84 4.80,5.30 2.59,5.75 2.48,5.76 2.38,5.77 2.27,5.74 2.17,5.71 2.08,5.65 2.00,5.59 1.93,5.51 1.87,5.42 1.83,5.32 1.80,5.22 1.80,5.11 1.80,5.01 1.83,4.91 1.86,4.81 1.93,4.72 1.99,4.64 2.08,4.58 2.17,4.52 2.27,4.49 2.37,4.46 2.48,4.47 2.58,4.47 2.68,4.51 2.78,4.55 2.86,4.62 2.94,4.69 3.00,4.78 3.05,4.87 3.08,4.97 3.10,5.08 3.09,5.18 3.08,5.29 3.03,5.38 2.99,5.48 2.92,5.56 2.84,5.63 2.75,5.68 2.66,5.73 2.55,5.75 2.45,5.77 2.34,5.75 2.24,5.74 2.14,5.69 2.05,5.64 1.98,5.56 1.90,5.48 1.86,5.39 1.81,5.29 1.80,5.18 1.79,5.08 1.81,4.98 1.83,4.87 1.89,4.78 1.94,4.69 2.02,4.62 2.11,4.55 2.20,4.51 2.30,4.47 2.30,4.47 2.30,4.47 4.30,3.99 6.30,3.51 7.40,2.57 8.50,1.63 8.86,0.74 9.22,-0.14 8.46,-0.14 7.69,-0.13 6.73,-0.12 5.77,-0.11 5.01,-0.05 4.24,0.00 4.08,0.05 3.92,0.10 3.76,0.12 3.60,0.13 3.44,0.10 3.27,0.07 3.12,0.01 2.97,-0.05 2.84,-0.15 2.71,-0.25 2.61,-0.37 2.51,-0.50 2.44,-0.65 2.37,-0.80 2.34,-0.96 2.31,-1.12 2.31,-1.28 2.32,-1.45 2.37,-1.60 2.42,-1.76 2.50,-1.90 2.58,-2.04 2.70,-2.16 2.81,-2.28 2.95,-2.37 3.09,-2.45 3.84,-2.89 4.60,-3.33 5.43,-4.08 6.27,-4.82 6.05,-5.45 5.84,-6.07 5.04,-6.31 4.23,-6.55 3.26,-6.68 2.30,-6.81 1.52,-6.47 0.75,-6.14 -0.08,-5.92 -0.92,-5.70 -1.02,-5.12 -1.12,-4.53 -1.05,-3.96 -0.97,-3.39 -0.56,-2.75 -0.15,-2.10 0.21,-1.20 0.58,-0.29 0.61,-0.21 0.64,-0.14 0.64,-0.06 0.65,0.01 0.64,0.09 0.63,0.16 0.60,0.24 0.57,0.31 0.52,0.38 0.48,0.44 0.42,0.49 0.36,0.54 0.29,0.58 0.22,0.61 0.14,0.63 0.06,0.65 -0.01,0.65 -0.09,0.65 -0.16,0.62 -0.24,0.60 -0.31,0.57 -0.38,0.53 -0.44,0.47 -0.50,0.42 -0.54,0.35 -0.58,0.29 -0.58,0.29 L -0.58,0.29 Z"/></g><g transform="translate(602.6053466796875 44.993377685546875) rotate(0 0.76068115234375 17.49669647216797)" stroke="none"><path fill="#1e1e1e" d="M 0.65,0 Q 0.65,0 1.01,1.31 1.36,2.62 1.38,4.27 1.41,5.92 1.63,7.17 1.85,8.41 1.96,10.15 2.08,11.90 2.12,13.28 2.17,14.67 2.19,16.36 2.22,18.04 2.23,20.07 2.25,22.10 2.47,23.97 2.69,25.84 2.79,27.59 2.89,29.34 2.93,30.52 2.98,31.70 2.89,32.64 2.79,33.58 2.79,33.66 2.78,33.74 2.75,33.81 2.73,33.89 2.69,33.95 2.64,34.02 2.59,34.08 2.53,34.13 2.46,34.17 2.39,34.21 2.32,34.23 2.24,34.25 2.16,34.25 2.08,34.26 2.00,34.24 1.93,34.22 1.85,34.19 1.78,34.16 1.72,34.10 1.66,34.05 1.61,33.99 1.57,33.93 1.54,33.85 1.51,33.78 1.49,33.70 1.48,33.63 1.67,33.32 1.85,33.01 1.96,32.98 2.06,32.95 2.16,32.96 2.27,32.96 2.37,33.00 2.47,33.04 2.55,33.10 2.63,33.17 2.69,33.26 2.74,33.35 2.77,33.45 2.79,33.56 2.78,33.66 2.77,33.77 2.73,33.87 2.69,33.96 2.61,34.04 2.54,34.12 2.45,34.17 2.36,34.22 2.25,34.24 2.15,34.26 2.04,34.24 1.94,34.23 1.84,34.18 1.75,34.13 1.67,34.05 1.60,33.98 1.55,33.88 1.51,33.79 1.49,33.68 1.48,33.58 1.50,33.47 1.52,33.37 1.58,33.28 1.63,33.18 1.71,33.11 1.79,33.04 1.89,33.00 1.99,32.96 2.09,32.96 2.20,32.95 2.30,32.98 2.41,33.00 2.49,33.06 2.58,33.12 2.65,33.20 2.71,33.29 2.75,33.39 2.78,33.49 2.79,33.59 2.79,33.70 2.75,33.80 2.72,33.90 2.66,33.99 2.60,34.07 2.69,33.83 2.79,33.58 2.79,33.66 2.78,33.74 2.75,33.81 2.73,33.89 2.69,33.95 2.64,34.02 2.59,34.08 2.53,34.13 2.46,34.17 2.39,34.21 2.32,34.23 2.24,34.25 2.16,34.25 2.08,34.26 2.00,34.24 1.93,34.22 1.85,34.19 1.78,34.16 1.72,34.11 1.66,34.05 1.61,33.99 1.57,33.93 1.54,33.85 1.51,33.78 1.49,33.70 1.48,33.63 0.71,32.71 -0.05,31.80 -0.09,30.65 -0.13,29.51 -0.22,27.85 -0.30,26.19 -0.53,24.15 -0.75,22.11 -0.75,20.09 -0.75,18.07 -0.76,16.41 -0.76,14.75 -0.80,13.41 -0.83,12.06 -0.90,10.46 -0.97,8.86 -1.19,7.39 -1.41,5.92 -1.38,4.27 -1.36,2.62 -1.01,1.31 -0.65,0 -0.64,-0.07 -0.63,-0.15 -0.60,-0.23 -0.58,-0.30 -0.53,-0.37 -0.49,-0.43 -0.43,-0.48 -0.37,-0.54 -0.30,-0.57 -0.23,-0.61 -0.15,-0.63 -0.07,-0.65 0.00,-0.65 0.07,-0.65 0.15,-0.63 0.23,-0.61 0.30,-0.57 0.37,-0.54 0.43,-0.48 0.49,-0.43 0.53,-0.37 0.58,-0.30 0.60,-0.23 0.63,-0.15 0.64,-0.07 0.65,0.00 0.65,0.00 L 0.65,0 Z"/></g><g transform="translate(598.041015625 42.71119689941406) rotate(0 16.3555908203125 17.877052307128906)" stroke="none"><path fill="#1e1e1e" d="M 0,-0.65 Q 0,-0.65 1.31,-0.95 2.62,-1.25 3.84,-1.26 5.06,-1.27 6.83,-0.83 8.61,-0.38 10.63,0.23 12.65,0.85 14.24,1.58 15.83,2.31 17.55,3.03 19.26,3.75 21.20,4.99 23.13,6.23 25.27,7.85 27.41,9.48 28.99,10.84 30.57,12.20 31.77,13.75 32.98,15.30 33.56,16.99 34.15,18.67 34.40,20.32 34.64,21.96 34.28,23.55 33.92,25.13 32.80,26.80 31.69,28.47 30.29,29.86 28.90,31.24 26.67,32.56 24.43,33.89 22.40,34.87 20.37,35.85 18.33,36.52 16.30,37.19 14.47,37.47 12.65,37.75 11.42,37.79 10.19,37.83 8.25,36.81 6.30,35.78 6.21,35.73 6.12,35.67 6.05,35.59 5.98,35.51 5.94,35.41 5.90,35.32 5.90,35.21 5.89,35.10 5.92,35.00 5.95,34.90 6.01,34.81 6.07,34.72 6.15,34.66 6.24,34.59 6.34,34.56 6.44,34.52 6.54,34.52 6.65,34.52 6.75,34.56 6.85,34.59 6.94,34.65 7.02,34.72 7.08,34.81 7.14,34.89 7.17,35.00 7.20,35.10 7.19,35.20 7.19,35.31 7.15,35.41 7.11,35.51 7.04,35.59 6.97,35.67 6.88,35.73 6.79,35.78 6.69,35.80 6.58,35.83 6.48,35.82 6.37,35.80 6.28,35.76 6.18,35.72 6.10,35.64 6.02,35.57 5.97,35.48 5.92,35.38 5.91,35.28 5.89,35.17 5.91,35.07 5.92,34.96 5.97,34.87 6.02,34.78 6.10,34.70 6.18,34.63 6.27,34.58 6.37,34.54 6.47,34.53 6.58,34.52 6.68,34.54 6.79,34.56 6.79,34.56 6.79,34.56 8.37,34.71 9.96,34.86 11.05,34.67 12.14,34.49 13.71,34.24 15.28,34.00 17.11,33.43 18.95,32.85 20.88,31.95 22.81,31.04 24.75,29.98 26.69,28.92 27.92,27.78 29.15,26.64 30.08,25.46 31.02,24.27 31.36,23.27 31.71,22.26 31.56,20.89 31.41,19.52 31.06,18.23 30.72,16.94 29.74,15.61 28.76,14.27 27.25,12.96 25.74,11.65 23.70,10.08 21.65,8.51 19.93,7.37 18.20,6.23 16.45,5.48 14.70,4.73 13.28,4.06 11.86,3.38 9.89,2.75 7.92,2.13 6.48,1.70 5.04,1.27 3.83,1.26 2.62,1.25 1.31,0.95 0,0.65 -0.07,0.64 -0.15,0.63 -0.23,0.60 -0.30,0.58 -0.37,0.53 -0.43,0.49 -0.48,0.43 -0.54,0.37 -0.57,0.30 -0.61,0.23 -0.63,0.15 -0.65,0.07 -0.65,-0.00 -0.65,-0.07 -0.63,-0.15 -0.61,-0.23 -0.57,-0.30 -0.54,-0.37 -0.48,-0.43 -0.43,-0.49 -0.37,-0.53 -0.30,-0.58 -0.23,-0.60 -0.15,-0.63 -0.07,-0.64 0.00,-0.65 0.00,-0.65 L 0,-0.65 Z"/></g><g transform="translate(603.3660888671875 55.64353942871094) rotate(0 4.9447021484375 -4.9447174072265625)" stroke="none"><path fill="#1e1e1e" d="M -0.60,-0.24 Q -0.60,-0.24 -0.42,-1.44 -0.24,-2.63 0.62,-4.09 1.48,-5.54 2.59,-6.66 3.69,-7.77 4.66,-8.43 5.64,-9.08 7.59,-9.44 9.54,-9.79 9.65,-9.77 9.75,-9.75 9.84,-9.70 9.94,-9.65 10.01,-9.57 10.08,-9.49 10.12,-9.39 10.17,-9.29 10.18,-9.19 10.19,-9.08 10.16,-8.98 10.14,-8.88 10.08,-8.79 10.03,-8.70 9.94,-8.63 9.86,-8.56 9.76,-8.52 9.66,-8.49 9.56,-8.48 9.45,-8.48 9.35,-8.51 9.25,-8.54 9.16,-8.60 9.07,-8.66 9.01,-8.75 8.95,-8.83 8.91,-8.93 8.88,-9.03 8.88,-9.14 8.89,-9.25 8.92,-9.35 8.96,-9.45 9.02,-9.53 9.09,-9.61 9.18,-9.67 9.27,-9.73 9.37,-9.76 9.47,-9.78 9.58,-9.78 9.68,-9.77 9.78,-9.73 9.88,-9.69 9.96,-9.62 10.04,-9.55 10.09,-9.45 10.15,-9.36 10.17,-9.26 10.19,-9.15 10.17,-9.05 10.16,-8.94 10.12,-8.85 10.07,-8.75 9.99,-8.68 9.92,-8.60 9.83,-8.55 9.73,-8.50 9.63,-8.49 9.52,-8.47 9.52,-8.47 9.52,-8.47 8.26,-7.86 7.00,-7.25 6.24,-6.61 5.47,-5.98 4.55,-5.08 3.62,-4.18 2.81,-2.95 1.99,-1.73 1.30,-0.74 0.60,0.24 0.57,0.31 0.53,0.38 0.48,0.44 0.42,0.49 0.36,0.54 0.29,0.58 0.22,0.61 0.14,0.64 0.06,0.64 -0.01,0.65 -0.09,0.64 -0.16,0.63 -0.24,0.60 -0.31,0.57 -0.37,0.52 -0.44,0.48 -0.49,0.42 -0.54,0.36 -0.58,0.29 -0.61,0.22 -0.63,0.14 -0.65,0.06 -0.65,-0.01 -0.65,-0.09 -0.63,-0.16 -0.60,-0.24 -0.60,-0.24 L -0.60,-0.24 Z"/></g><g transform="translate(607.169677734375 65.53297424316406) rotate(0 6.8465576171875 -7.607261657714844)" stroke="none"><path fill="#1e1e1e" d="M -0.58,-0.29 Q -0.58,-0.29 -0.23,-1.75 0.12,-3.22 1.06,-4.74 2.00,-6.26 3.32,-7.82 4.64,-9.38 6.42,-10.86 8.19,-12.33 10.31,-13.69 12.43,-15.05 12.52,-15.10 12.62,-15.15 12.72,-15.17 12.82,-15.19 12.93,-15.17 13.03,-15.16 13.13,-15.11 13.22,-15.06 13.30,-14.99 13.37,-14.91 13.42,-14.82 13.47,-14.72 13.48,-14.62 13.50,-14.51 13.48,-14.41 13.46,-14.30 13.40,-14.21 13.35,-14.12 13.27,-14.05 13.19,-13.98 13.09,-13.94 13.00,-13.89 12.89,-13.89 12.78,-13.88 12.68,-13.90 12.58,-13.93 12.49,-13.99 12.40,-14.05 12.33,-14.13 12.27,-14.21 12.23,-14.31 12.19,-14.41 12.19,-14.52 12.19,-14.62 12.22,-14.73 12.25,-14.83 12.31,-14.91 12.38,-15.00 12.46,-15.06 12.55,-15.12 12.65,-15.15 12.75,-15.18 12.86,-15.18 12.97,-15.18 13.07,-15.14 13.17,-15.10 13.25,-15.04 13.33,-14.97 13.39,-14.88 13.44,-14.79 13.47,-14.69 13.49,-14.58 13.49,-14.48 13.48,-14.37 13.43,-14.27 13.39,-14.18 13.32,-14.10 13.25,-14.02 13.25,-14.02 13.25,-14.02 11.52,-12.31 9.79,-10.59 8.30,-9.06 6.80,-7.52 5.58,-6.12 4.36,-4.71 3.43,-3.37 2.50,-2.02 1.54,-0.86 0.58,0.29 0.54,0.35 0.49,0.42 0.44,0.47 0.38,0.53 0.31,0.57 0.24,0.60 0.16,0.62 0.09,0.65 0.01,0.65 -0.06,0.65 -0.14,0.63 -0.22,0.61 -0.29,0.58 -0.36,0.54 -0.42,0.49 -0.48,0.44 -0.52,0.38 -0.57,0.31 -0.60,0.24 -0.63,0.16 -0.64,0.09 -0.65,0.01 -0.64,-0.06 -0.64,-0.14 -0.61,-0.21 -0.58,-0.29 -0.58,-0.29 L -0.58,-0.29 Z"/></g><g transform="translate(608.691162109375 75.42240905761719) rotate(0 8.74835205078125 -7.226898193359375)" stroke="none"><path fill="#1e1e1e" d="M -0.52,-0.39 Q -0.52,-0.39 -0.07,-1.42 0.38,-2.44 1.09,-3.32 1.81,-4.19 2.71,-5.41 3.62,-6.63 4.75,-7.68 5.88,-8.72 7.47,-10.00 9.06,-11.27 10.72,-12.20 12.38,-13.12 14.38,-13.88 16.38,-14.64 16.48,-14.67 16.59,-14.70 16.69,-14.70 16.80,-14.69 16.90,-14.66 17.00,-14.62 17.08,-14.55 17.16,-14.48 17.22,-14.39 17.28,-14.30 17.30,-14.20 17.33,-14.10 17.32,-13.99 17.31,-13.89 17.26,-13.79 17.22,-13.69 17.15,-13.61 17.08,-13.53 16.99,-13.48 16.89,-13.43 16.79,-13.41 16.68,-13.39 16.58,-13.41 16.47,-13.42 16.38,-13.47 16.28,-13.52 16.21,-13.59 16.13,-13.67 16.09,-13.77 16.04,-13.86 16.03,-13.97 16.01,-14.07 16.04,-14.18 16.06,-14.28 16.11,-14.37 16.16,-14.46 16.24,-14.53 16.32,-14.61 16.42,-14.65 16.52,-14.69 16.62,-14.70 16.73,-14.70 16.83,-14.68 16.93,-14.65 17.02,-14.59 17.11,-14.53 17.18,-14.45 17.24,-14.37 17.28,-14.27 17.32,-14.17 17.32,-14.06 17.32,-13.96 17.29,-13.85 17.26,-13.75 17.19,-13.67 17.13,-13.58 17.04,-13.52 16.96,-13.46 16.96,-13.46 16.96,-13.46 15.24,-12.40 13.51,-11.35 12.11,-10.31 10.71,-9.28 9.20,-7.99 7.70,-6.70 6.70,-5.84 5.70,-4.97 4.69,-3.76 3.67,-2.54 2.96,-1.79 2.24,-1.05 1.38,-0.32 0.52,0.39 0.47,0.45 0.41,0.50 0.34,0.55 0.28,0.59 0.20,0.61 0.13,0.64 0.05,0.64 -0.02,0.65 -0.10,0.64 -0.18,0.63 -0.25,0.59 -0.32,0.56 -0.39,0.52 -0.45,0.47 -0.50,0.41 -0.55,0.35 -0.58,0.27 -0.62,0.20 -0.63,0.13 -0.65,0.05 -0.65,-0.02 -0.64,-0.10 -0.62,-0.18 -0.60,-0.25 -0.56,-0.32 -0.52,-0.39 -0.52,-0.39 L -0.52,-0.39 Z"/></g><g transform="translate(634.5557861328125 63.25079345703125) rotate(0 4.18402099609375 1.1410903930664062)" stroke="none"><path fill="#1e1e1e" d="M 0.36,0.54 Q 0.36,0.54 -0.23,1.07 -0.83,1.59 -1.42,0.99 -2.01,0.39 -0.78,0.02 0.44,-0.34 1.63,-0.41 2.82,-0.48 3.35,-0.49 3.88,-0.49 4.57,-0.23 5.26,0.03 6.33,0.07 7.40,0.12 8.74,0.80 10.08,1.48 10.15,1.50 10.23,1.51 10.31,1.54 10.38,1.58 10.44,1.62 10.50,1.67 10.55,1.73 10.60,1.80 10.63,1.87 10.67,1.94 10.68,2.02 10.70,2.10 10.69,2.18 10.69,2.25 10.66,2.33 10.64,2.41 10.60,2.47 10.56,2.54 10.50,2.60 10.45,2.65 10.38,2.70 10.31,2.74 10.24,2.76 10.16,2.78 10.08,2.79 10.00,2.79 10.15,2.77 10.30,2.74 10.19,2.77 10.09,2.79 9.98,2.78 9.88,2.78 9.78,2.73 9.68,2.69 9.60,2.62 9.53,2.55 9.47,2.45 9.42,2.36 9.40,2.26 9.38,2.15 9.40,2.05 9.41,1.94 9.46,1.85 9.51,1.75 9.59,1.68 9.66,1.60 9.76,1.56 9.85,1.51 9.96,1.50 10.06,1.48 10.17,1.50 10.27,1.52 10.36,1.58 10.46,1.63 10.53,1.71 10.60,1.79 10.64,1.89 10.68,1.98 10.69,2.09 10.69,2.20 10.67,2.30 10.64,2.40 10.58,2.49 10.53,2.58 10.44,2.65 10.36,2.71 10.26,2.75 10.16,2.78 10.05,2.79 9.95,2.79 9.85,2.76 9.74,2.73 9.66,2.66 9.57,2.60 9.51,2.51 9.45,2.43 9.42,2.32 9.39,2.22 9.39,2.12 9.40,2.01 9.43,1.91 9.47,1.81 9.54,1.73 9.61,1.65 9.84,1.57 10.08,1.48 10.15,1.50 10.23,1.51 10.31,1.54 10.38,1.58 10.44,1.62 10.50,1.67 10.55,1.73 10.60,1.80 10.63,1.87 10.67,1.94 10.68,2.02 10.70,2.10 10.69,2.18 10.69,2.25 10.66,2.33 10.64,2.41 10.60,2.47 10.56,2.54 10.50,2.60 10.45,2.65 10.38,2.70 10.31,2.74 10.24,2.76 10.16,2.78 10.08,2.79 10.00,2.79 8.63,2.80 7.25,2.80 6.49,2.75 5.73,2.69 4.93,2.53 4.12,2.37 3.50,2.21 2.88,2.05 2.28,2.06 1.67,2.06 0.80,2.11 -0.06,2.16 -0.74,2.41 -1.41,2.65 -1.98,2.53 -2.56,2.41 -2.85,1.73 -3.14,1.06 -2.46,0.60 -1.78,0.14 -1.07,-0.19 -0.36,-0.54 -0.29,-0.58 -0.22,-0.61 -0.14,-0.63 -0.06,-0.65 0.01,-0.65 0.08,-0.65 0.16,-0.63 0.24,-0.61 0.31,-0.57 0.38,-0.53 0.44,-0.48 0.49,-0.42 0.54,-0.36 0.58,-0.29 0.61,-0.22 0.64,-0.14 0.64,-0.06 0.65,0.01 0.64,0.08 0.63,0.16 0.60,0.24 0.57,0.31 0.53,0.37 0.48,0.44 0.42,0.49 0.36,0.54 0.36,0.54 L 0.36,0.54 Z"/></g><g transform="translate(667.2669677734375 67.05442810058594) rotate(0 19.3985595703125 0.7607192993164062)" stroke="none"><path fill="#1e1e1e" d="M -0.56,-0.33 Q -0.56,-0.33 -0.12,-1.56 0.32,-2.79 1.12,-3.59 1.93,-4.40 2.56,-4.96 3.20,-5.51 4.41,-5.62 5.63,-5.73 6.27,-5.43 6.92,-5.13 7.68,-4.24 8.44,-3.35 8.80,-2.43 9.16,-1.50 9.31,-0.40 9.46,0.69 9.52,1.35 9.58,2.01 9.61,2.50 9.63,2.98 9.62,3.14 9.62,3.30 9.57,3.45 9.53,3.60 9.45,3.73 9.37,3.87 9.26,3.98 9.15,4.09 9.02,4.17 8.88,4.26 8.73,4.31 8.58,4.35 8.43,4.37 8.27,4.38 8.12,4.35 7.96,4.32 7.82,4.26 7.67,4.20 7.55,4.10 7.42,4.01 7.33,3.89 7.23,3.76 7.16,3.62 7.10,3.48 7.07,3.32 7.04,3.17 7.45,2.44 7.86,1.72 8.55,0.76 9.23,-0.19 10.11,-0.56 10.99,-0.92 12.00,-0.77 13.01,-0.62 13.58,-0.18 14.15,0.24 14.94,-0.34 15.72,-0.93 16.35,-1.23 16.99,-1.54 18.23,-1.93 19.47,-2.33 20.18,-1.84 20.90,-1.35 21.23,-0.25 21.56,0.84 21.43,2.05 21.29,3.27 21.22,3.99 21.14,4.71 21.68,4.96 22.23,5.22 23.01,4.87 23.80,4.53 25.00,3.79 26.21,3.06 27.09,2.17 27.98,1.27 28.54,0.54 29.11,-0.18 28.74,0.55 28.37,1.28 28.43,2.24 28.49,3.19 29.07,3.44 29.65,3.69 30.31,3.77 30.96,3.85 31.75,3.71 32.55,3.57 33.32,3.35 34.09,3.13 35.98,1.91 37.87,0.69 37.96,0.63 38.05,0.57 38.16,0.55 38.26,0.53 38.37,0.54 38.47,0.55 38.57,0.59 38.67,0.63 38.74,0.71 38.82,0.78 38.87,0.87 38.92,0.96 38.94,1.07 38.96,1.17 38.94,1.28 38.93,1.38 38.88,1.48 38.83,1.57 38.75,1.65 38.68,1.72 38.58,1.77 38.49,1.81 38.38,1.82 38.28,1.84 38.17,1.82 38.07,1.79 37.98,1.74 37.88,1.69 37.81,1.61 37.74,1.53 37.70,1.43 37.66,1.33 37.66,1.22 37.65,1.12 37.68,1.01 37.70,0.91 37.76,0.82 37.82,0.73 37.91,0.67 37.99,0.60 38.09,0.57 38.19,0.53 38.30,0.53 38.40,0.53 38.50,0.56 38.60,0.60 38.69,0.66 38.78,0.72 38.84,0.81 38.90,0.90 38.93,1.00 38.96,1.10 38.95,1.21 38.95,1.31 38.91,1.41 38.87,1.51 38.80,1.59 38.73,1.68 38.73,1.68 38.73,1.68 36.81,3.51 34.88,5.34 33.94,5.70 33.00,6.07 31.83,6.29 30.66,6.51 29.78,6.40 28.90,6.28 27.84,5.83 26.78,5.37 26.31,4.56 25.84,3.75 25.70,2.73 25.56,1.72 25.81,0.80 26.07,-0.12 26.55,-0.87 27.04,-1.61 27.79,-2.24 28.54,-2.88 29.40,-2.87 30.26,-2.87 30.96,-2.00 31.66,-1.12 31.50,0.03 31.34,1.20 30.60,2.19 29.87,3.18 28.73,4.28 27.58,5.37 26.08,6.23 24.57,7.10 23.08,7.41 21.60,7.72 20.64,7.27 19.69,6.82 19.14,5.86 18.60,4.90 18.64,3.89 18.69,2.88 18.86,2.09 19.02,1.30 19.05,0.62 19.09,-0.04 18.18,0.48 17.27,1.01 16.48,1.64 15.68,2.27 14.70,2.60 13.72,2.93 12.66,2.20 11.60,1.48 11.06,1.84 10.52,2.20 10.08,2.59 9.63,2.98 9.62,3.14 9.62,3.30 9.57,3.45 9.53,3.60 9.45,3.73 9.37,3.87 9.26,3.98 9.15,4.09 9.02,4.17 8.88,4.26 8.73,4.31 8.58,4.35 8.43,4.37 8.27,4.38 8.12,4.35 7.96,4.32 7.82,4.26 7.67,4.20 7.55,4.10 7.43,4.01 7.33,3.89 7.23,3.76 7.16,3.62 7.10,3.48 7.07,3.32 7.04,3.17 7.02,2.68 7.01,2.19 6.98,1.58 6.95,0.97 6.88,0.12 6.82,-0.73 6.67,-1.31 6.53,-1.90 5.99,-2.64 5.46,-3.39 4.92,-3.51 4.38,-3.62 3.96,-3.16 3.55,-2.70 2.93,-2.14 2.30,-1.57 1.43,-0.62 0.56,0.33 0.51,0.40 0.46,0.46 0.40,0.51 0.34,0.56 0.26,0.59 0.19,0.62 0.11,0.64 0.04,0.65 -0.03,0.65 -0.11,0.64 -0.19,0.62 -0.26,0.59 -0.33,0.55 -0.40,0.51 -0.45,0.46 -0.51,0.40 -0.55,0.33 -0.59,0.27 -0.62,0.19 -0.64,0.12 -0.65,0.04 -0.65,-0.03 -0.64,-0.11 -0.62,-0.19 -0.59,-0.26 -0.56,-0.33 -0.56,-0.33 L -0.56,-0.33 Z"/></g><g transform="translate(710.62841796875 67.05442810058594) rotate(0 52.49005126953125 1.5214462280273438)" stroke="none"><path fill="#1e1e1e" d="M -0.29,0.58 Q -0.29,0.58 -1.23,0.28 -2.18,-0.00 -3.00,-0.37 -3.83,-0.75 -4.83,-1.18 -5.82,-1.61 -6.23,-0.99 -6.64,-0.37 -6.75,0.33 -6.86,1.04 -6.52,1.82 -6.18,2.60 -5.94,3.09 -5.70,3.58 -4.81,3.34 -3.93,3.09 -3.11,2.40 -2.29,1.71 -2.03,1.12 -1.77,0.54 -1.66,-0.26 -1.55,-1.06 -1.49,-1.70 -1.42,-2.33 -1.38,-2.49 -1.33,-2.64 -1.25,-2.78 -1.16,-2.92 -1.05,-3.03 -0.93,-3.15 -0.80,-3.23 -0.66,-3.32 -0.50,-3.36 -0.35,-3.41 -0.19,-3.42 -0.03,-3.43 0.12,-3.40 0.28,-3.37 0.43,-3.31 0.57,-3.24 0.70,-3.14 0.83,-3.04 0.93,-2.92 1.03,-2.79 1.09,-2.64 1.16,-2.50 1.19,-2.34 1.22,-2.18 1.21,-2.02 1.20,-1.86 0.87,-1.41 0.55,-0.96 0.60,0.35 0.66,1.66 0.64,2.25 0.63,2.85 1.50,3.05 2.37,3.26 2.90,2.89 3.43,2.52 4.05,1.79 4.66,1.07 5.15,0.35 5.64,-0.37 6.02,-1.26 6.40,-2.15 6.59,-2.80 6.77,-3.44 6.86,-3.59 6.95,-3.74 7.08,-3.86 7.20,-3.98 7.35,-4.07 7.50,-4.16 7.66,-4.21 7.83,-4.26 8.00,-4.27 8.17,-4.28 8.34,-4.25 8.51,-4.22 8.67,-4.14 8.82,-4.07 8.96,-3.97 9.10,-3.86 9.20,-3.72 9.31,-3.59 9.38,-3.43 9.45,-3.27 9.48,-3.10 9.51,-2.93 9.50,-2.76 9.49,-2.59 9.43,-2.42 9.38,-2.26 10.05,-1.56 10.72,-0.87 11.22,-0.28 11.71,0.29 12.23,1.11 12.75,1.93 13.03,2.88 13.31,3.83 13.42,4.73 13.52,5.62 13.28,6.50 13.04,7.37 12.33,8.10 11.63,8.83 11.20,9.23 10.76,9.62 10.32,9.74 9.89,9.86 9.76,9.96 9.62,10.05 9.47,10.11 9.32,10.18 9.16,10.20 9.00,10.22 8.83,10.21 8.67,10.19 8.52,10.14 8.36,10.09 8.23,10.00 8.09,9.91 7.98,9.79 7.86,9.67 7.78,9.53 7.70,9.38 7.66,9.22 7.62,9.07 7.61,8.90 7.61,8.74 7.64,8.58 7.68,8.42 7.75,8.27 7.82,8.12 7.93,8.00 8.03,7.87 8.84,7.21 9.64,6.54 10.42,6.08 11.20,5.62 12.29,4.64 13.38,3.66 14.30,2.79 15.22,1.91 15.73,1.01 16.23,0.11 16.43,-0.62 16.62,-1.35 16.54,-2.35 16.46,-3.35 16.51,-3.50 16.56,-3.65 16.64,-3.78 16.72,-3.91 16.83,-4.03 16.95,-4.14 17.08,-4.22 17.22,-4.30 17.37,-4.34 17.52,-4.39 17.67,-4.40 17.83,-4.41 17.99,-4.38 18.14,-4.35 18.28,-4.28 18.43,-4.22 18.55,-4.12 18.67,-4.02 18.77,-3.90 18.87,-3.77 18.93,-3.63 18.99,-3.49 19.02,-3.33 19.05,-3.18 19.04,-3.02 19.03,-2.86 18.66,-1.98 18.30,-1.10 18.45,-0.29 18.61,0.51 18.86,1.55 19.11,2.59 19.39,3.15 19.66,3.70 20.39,3.69 21.12,3.67 22.03,2.13 22.94,0.59 23.45,-0.39 23.96,-1.38 24.12,-2.11 24.29,-2.84 24.44,-3.48 24.59,-4.13 24.56,-4.04 24.53,-3.96 24.57,-4.11 24.62,-4.25 24.69,-4.39 24.77,-4.52 24.88,-4.64 24.98,-4.75 25.11,-4.83 25.25,-4.91 25.39,-4.96 25.54,-5.01 25.69,-5.03 25.85,-5.04 26.00,-5.02 26.15,-4.99 26.30,-4.93 26.44,-4.87 26.56,-4.78 26.69,-4.69 26.79,-4.57 26.89,-4.45 26.95,-4.31 27.02,-4.17 27.05,-4.01 27.08,-3.86 27.08,-3.71 27.07,-3.55 27.10,-2.80 27.12,-2.06 27.12,-1.26 27.13,-0.46 27.55,0.20 27.98,0.88 28.30,1.51 28.63,2.14 29.28,2.04 29.93,1.94 30.41,1.57 30.88,1.19 31.23,0.52 31.59,-0.14 31.74,-0.79 31.90,-1.44 32.66,-2.78 33.42,-4.13 34.01,-4.25 34.60,-4.36 35.14,-4.35 35.68,-4.35 36.35,-4.34 37.01,-4.34 37.56,-4.53 38.11,-4.72 38.95,-4.83 39.79,-4.93 40.34,-5.20 40.88,-5.46 41.04,-5.46 41.20,-5.46 41.35,-5.42 41.50,-5.38 41.63,-5.31 41.77,-5.24 41.89,-5.14 42.00,-5.03 42.09,-4.91 42.18,-4.78 42.24,-4.63 42.29,-4.49 42.31,-4.33 42.33,-4.18 42.31,-4.03 42.29,-3.87 42.24,-3.73 42.18,-3.58 42.10,-3.45 42.01,-3.33 41.89,-3.22 41.78,-3.12 41.64,-3.05 41.50,-2.98 41.35,-2.94 41.20,-2.90 41.72,-3.33 42.24,-3.76 41.69,-2.95 41.15,-2.14 40.81,-1.60 40.48,-1.06 40.39,-0.34 40.30,0.37 40.23,1.15 40.16,1.92 40.04,2.46 39.91,3.01 40.79,2.83 41.68,2.66 43.02,2.02 44.36,1.38 45.55,0.51 46.74,-0.35 47.36,-1.45 47.98,-2.56 48.27,-3.21 48.55,-3.85 48.03,-2.68 47.52,-1.51 47.36,-0.24 47.21,1.03 47.23,1.77 47.25,2.51 48.38,2.54 49.51,2.58 51.09,2.14 52.67,1.71 53.78,1.32 54.90,0.92 55.83,0.53 56.76,0.15 57.87,0.29 58.97,0.44 59.52,1.08 60.08,1.73 60.25,2.29 60.42,2.85 60.49,3.58 60.56,4.31 60.58,4.79 60.59,5.27 60.58,5.43 60.58,5.58 60.53,5.73 60.49,5.88 60.41,6.02 60.33,6.15 60.22,6.26 60.12,6.38 59.98,6.46 59.85,6.54 59.70,6.59 59.56,6.64 59.40,6.65 59.25,6.66 59.09,6.64 58.94,6.61 58.79,6.55 58.65,6.49 58.53,6.39 58.40,6.30 58.31,6.18 58.21,6.06 58.14,5.92 58.08,5.78 58.04,5.62 58.01,5.47 58.66,4.50 59.32,3.54 59.89,3.23 60.47,2.92 61.74,2.48 63.01,2.03 63.61,2.26 64.20,2.49 65.03,2.19 65.86,1.89 66.72,1.45 67.57,1.00 68.44,0.98 69.30,0.96 70.06,1.35 70.83,1.74 71.24,2.53 71.66,3.32 72.22,3.85 72.78,4.37 73.57,4.22 74.36,4.08 75.13,3.86 75.91,3.64 77.08,3.13 78.25,2.62 79.19,2.19 80.14,1.76 80.80,1.04 81.47,0.33 81.70,-0.27 81.93,-0.88 82.58,-1.34 83.23,-1.80 82.83,-1.25 82.43,-0.71 82.11,0.20 81.78,1.12 81.63,2.11 81.48,3.09 81.60,3.76 81.72,4.44 82.30,4.35 82.88,4.27 83.59,4.00 84.30,3.74 85.65,3.00 87.00,2.27 88.25,1.52 89.49,0.77 91.01,0.19 92.53,-0.39 93.57,-0.61 94.60,-0.84 95.57,-0.40 96.53,0.03 97.00,0.86 97.46,1.69 97.62,2.76 97.77,3.84 99.15,2.95 100.52,2.07 101.54,1.75 102.56,1.42 103.63,1.47 104.70,1.52 105.22,2.01 105.73,2.50 106.13,3.43 106.52,4.35 106.94,4.94 107.37,5.53 108.18,5.75 108.98,5.97 110.77,6.41 112.56,6.86 112.67,6.89 112.77,6.92 112.86,6.98 112.94,7.03 113.01,7.12 113.07,7.20 113.11,7.30 113.14,7.40 113.14,7.51 113.14,7.62 113.11,7.72 113.08,7.82 113.01,7.90 112.95,7.99 112.86,8.05 112.77,8.11 112.67,8.14 112.57,8.17 112.46,8.16 112.36,8.15 112.26,8.12 112.16,8.08 112.08,8.01 112.00,7.94 111.94,7.85 111.89,7.76 111.86,7.65 111.84,7.55 111.85,7.45 111.86,7.34 111.91,7.24 111.95,7.15 112.02,7.07 112.10,6.99 112.19,6.94 112.28,6.89 112.39,6.87 112.49,6.86 112.60,6.87 112.70,6.89 112.80,6.94 112.89,6.99 112.96,7.07 113.04,7.14 113.08,7.24 113.13,7.34 113.14,7.44 113.15,7.55 113.13,7.65 113.11,7.75 113.05,7.85 113.00,7.94 112.92,8.01 112.83,8.07 112.74,8.11 112.64,8.15 112.53,8.16 112.43,8.17 112.43,8.17 112.43,8.17 110.37,8.21 108.31,8.25 106.88,7.80 105.44,7.35 104.72,6.37 103.99,5.38 103.65,4.64 103.30,3.91 102.58,4.11 101.86,4.31 100.80,4.96 99.74,5.60 98.59,6.09 97.45,6.57 96.85,6.45 96.25,6.33 95.69,5.23 95.14,4.13 95.09,3.40 95.04,2.67 94.85,2.10 94.67,1.53 94.06,1.76 93.46,2.00 92.15,2.51 90.85,3.01 89.56,3.81 88.27,4.60 86.75,5.43 85.23,6.25 84.33,6.57 83.43,6.90 82.26,6.97 81.09,7.04 80.12,6.03 79.14,5.01 78.99,3.85 78.84,2.68 79.07,1.40 79.31,0.13 79.90,-1.18 80.49,-2.50 81.20,-3.10 81.91,-3.71 83.10,-3.31 84.30,-2.92 84.51,-2.08 84.72,-1.23 84.53,-0.51 84.35,0.20 83.86,1.18 83.37,2.16 82.33,3.14 81.29,4.12 80.29,4.58 79.28,5.05 77.93,5.62 76.58,6.18 75.53,6.44 74.48,6.70 73.04,6.64 71.60,6.58 70.80,5.99 70.00,5.40 69.63,4.80 69.25,4.21 68.91,3.74 68.56,3.28 67.86,3.68 67.15,4.08 66.19,4.62 65.23,5.16 64.54,5.18 63.86,5.20 63.19,4.86 62.52,4.51 61.55,4.89 60.59,5.27 60.58,5.43 60.58,5.58 60.53,5.73 60.49,5.88 60.41,6.02 60.33,6.15 60.22,6.26 60.12,6.38 59.98,6.46 59.85,6.54 59.70,6.59 59.56,6.64 59.40,6.65 59.25,6.66 59.09,6.64 58.94,6.61 58.79,6.55 58.65,6.49 58.53,6.39 58.40,6.30 58.31,6.18 58.21,6.06 58.14,5.92 58.08,5.78 58.04,5.62 58.01,5.47 57.99,4.99 57.96,4.51 57.79,3.52 57.62,2.53 56.68,2.92 55.74,3.32 54.53,3.75 53.31,4.17 51.45,4.63 49.59,5.10 48.34,5.04 47.08,4.98 46.14,4.22 45.19,3.46 44.97,2.06 44.75,0.67 45.06,-1.02 45.36,-2.71 46.05,-3.80 46.73,-4.89 47.81,-5.55 48.88,-6.22 49.64,-5.92 50.40,-5.62 50.64,-4.32 50.88,-3.01 50.50,-2.14 50.13,-1.26 49.20,0.18 48.27,1.63 46.83,2.66 45.40,3.68 43.66,4.43 41.91,5.17 40.52,5.15 39.13,5.13 38.45,4.45 37.77,3.77 37.70,2.73 37.63,1.70 37.71,0.80 37.79,-0.08 38.04,-1.21 38.30,-2.35 39.09,-3.25 39.88,-4.15 40.38,-4.81 40.88,-5.46 41.04,-5.46 41.19,-5.46 41.35,-5.42 41.50,-5.38 41.63,-5.31 41.77,-5.24 41.89,-5.14 42.00,-5.03 42.09,-4.91 42.18,-4.78 42.24,-4.63 42.29,-4.49 42.31,-4.33 42.33,-4.18 42.31,-4.03 42.29,-3.87 42.24,-3.73 42.18,-3.58 42.10,-3.45 42.01,-3.33 41.89,-3.22 41.78,-3.12 41.64,-3.05 41.50,-2.98 41.35,-2.94 41.20,-2.90 40.67,-2.65 40.15,-2.39 39.50,-2.32 38.84,-2.24 37.94,-2.00 37.03,-1.75 36.33,-1.76 35.63,-1.76 35.11,-1.86 34.59,-1.97 34.48,-1.36 34.37,-0.74 34.08,0.21 33.79,1.17 33.08,2.21 32.37,3.26 31.39,3.85 30.41,4.44 29.40,4.51 28.38,4.58 27.50,4.09 26.62,3.59 26.24,2.96 25.86,2.33 25.48,1.75 25.10,1.17 24.84,0.39 24.57,-0.38 24.56,-1.19 24.55,-2.01 24.54,-2.98 24.53,-3.96 24.57,-4.10 24.62,-4.25 24.69,-4.39 24.77,-4.52 24.88,-4.64 24.98,-4.75 25.11,-4.83 25.25,-4.91 25.39,-4.96 25.54,-5.01 25.69,-5.03 25.85,-5.04 26.00,-5.02 26.15,-4.99 26.30,-4.93 26.44,-4.87 26.56,-4.78 26.69,-4.69 26.79,-4.57 26.89,-4.45 26.95,-4.31 27.02,-4.17 27.05,-4.01 27.08,-3.86 27.08,-3.71 27.07,-3.55 26.93,-2.88 26.78,-2.21 26.51,-1.22 26.25,-0.22 25.73,0.78 25.21,1.78 24.38,3.27 23.56,4.76 22.70,5.43 21.85,6.10 20.59,6.25 19.32,6.40 18.35,5.64 17.38,4.88 16.99,4.04 16.61,3.20 16.32,1.99 16.04,0.78 15.97,-0.61 15.90,-2.00 16.18,-2.67 16.46,-3.35 16.51,-3.50 16.56,-3.65 16.64,-3.78 16.72,-3.91 16.83,-4.03 16.94,-4.14 17.08,-4.22 17.22,-4.30 17.37,-4.34 17.52,-4.39 17.67,-4.40 17.83,-4.41 17.99,-4.38 18.14,-4.35 18.28,-4.28 18.43,-4.22 18.55,-4.12 18.67,-4.02 18.77,-3.90 18.87,-3.77 18.93,-3.63 18.99,-3.49 19.02,-3.33 19.05,-3.18 19.04,-3.02 19.03,-2.86 19.19,-2.44 19.36,-2.02 19.23,-1.31 19.10,-0.61 18.77,0.40 18.44,1.41 17.71,2.58 16.98,3.74 16.02,4.64 15.07,5.55 13.79,6.68 12.51,7.81 11.84,8.22 11.17,8.62 10.53,9.24 9.89,9.86 9.76,9.96 9.62,10.05 9.47,10.11 9.32,10.18 9.16,10.20 9.00,10.22 8.83,10.21 8.67,10.19 8.52,10.14 8.36,10.09 8.23,10.00 8.09,9.91 7.98,9.79 7.86,9.67 7.78,9.53 7.70,9.38 7.66,9.22 7.62,9.07 7.61,8.90 7.61,8.74 7.64,8.58 7.68,8.42 7.75,8.27 7.82,8.13 7.93,8.00 8.03,7.87 8.41,7.65 8.78,7.42 9.22,6.99 9.66,6.57 10.11,6.20 10.57,5.83 10.50,5.20 10.44,4.58 10.33,4.03 10.22,3.47 9.81,2.81 9.40,2.15 8.74,1.30 8.08,0.46 7.75,-0.19 7.43,-0.85 7.17,-1.35 6.92,-1.86 6.85,-2.65 6.77,-3.44 6.86,-3.59 6.95,-3.74 7.08,-3.86 7.20,-3.98 7.35,-4.07 7.50,-4.16 7.66,-4.21 7.83,-4.26 8.00,-4.27 8.17,-4.28 8.34,-4.25 8.51,-4.22 8.67,-4.14 8.82,-4.07 8.96,-3.97 9.10,-3.86 9.20,-3.72 9.31,-3.59 9.38,-3.43 9.45,-3.27 9.48,-3.10 9.51,-2.93 9.50,-2.76 9.49,-2.59 9.43,-2.42 9.38,-2.26 9.18,-1.62 8.98,-0.98 8.46,0.11 7.94,1.20 7.32,2.08 6.71,2.95 5.76,3.93 4.81,4.90 3.72,5.44 2.62,5.97 1.36,5.91 0.10,5.84 -0.71,5.15 -1.53,4.45 -1.82,3.67 -2.10,2.89 -2.09,2.23 -2.08,1.56 -2.05,0.55 -2.01,-0.46 -1.72,-1.40 -1.42,-2.33 -1.38,-2.49 -1.33,-2.64 -1.25,-2.78 -1.16,-2.92 -1.05,-3.03 -0.94,-3.15 -0.80,-3.23 -0.66,-3.32 -0.51,-3.36 -0.35,-3.41 -0.19,-3.42 -0.03,-3.43 0.12,-3.40 0.28,-3.37 0.43,-3.31 0.57,-3.24 0.70,-3.14 0.83,-3.04 0.93,-2.92 1.03,-2.79 1.09,-2.64 1.16,-2.50 1.19,-2.34 1.22,-2.18 1.21,-2.02 1.20,-1.86 1.11,-1.22 1.03,-0.59 0.78,0.57 0.53,1.74 -0.04,2.70 -0.62,3.66 -1.78,4.55 -2.94,5.44 -4.07,5.76 -5.20,6.09 -6.37,5.58 -7.55,5.08 -8.04,4.23 -8.54,3.38 -8.90,2.04 -9.25,0.70 -8.95,-0.49 -8.65,-1.68 -7.87,-2.55 -7.09,-3.42 -5.63,-3.23 -4.17,-3.04 -3.53,-2.83 -2.90,-2.61 -2.11,-2.17 -1.31,-1.74 -0.51,-1.16 0.29,-0.58 0.35,-0.54 0.42,-0.49 0.47,-0.44 0.53,-0.38 0.57,-0.31 0.60,-0.24 0.62,-0.16 0.65,-0.09 0.65,-0.01 0.65,0.06 0.63,0.14 0.61,0.22 0.58,0.29 0.54,0.36 0.49,0.42 0.44,0.48 0.38,0.52 0.31,0.57 0.24,0.60 0.16,0.63 0.09,0.64 0.01,0.65 -0.06,0.64 -0.14,0.64 -0.21,0.61 -0.29,0.58 -0.29,0.58 L -0.29,0.58 Z"/></g><g transform="translate(829.3016357421875 76.94386291503906) rotate(0 2.66253662109375 -20.15923309326172)" stroke="none"><path fill="#1e1e1e" d="M -0.65,-0.05 Q -0.65,-0.05 -0.68,-2.69 -0.71,-5.34 -0.44,-7.59 -0.17,-9.84 0.32,-13.85 0.81,-17.86 1.49,-22.20 2.17,-26.53 2.93,-30.29 3.69,-34.04 4.11,-36.64 4.53,-39.24 4.56,-39.34 4.59,-39.44 4.65,-39.53 4.71,-39.62 4.80,-39.68 4.88,-39.74 4.98,-39.78 5.08,-39.81 5.19,-39.81 5.30,-39.81 5.40,-39.77 5.50,-39.74 5.58,-39.67 5.67,-39.61 5.72,-39.52 5.78,-39.43 5.81,-39.33 5.84,-39.23 5.83,-39.12 5.82,-39.01 5.78,-38.91 5.74,-38.82 5.67,-38.74 5.61,-38.66 5.51,-38.60 5.42,-38.55 5.32,-38.53 5.21,-38.50 5.11,-38.52 5.00,-38.53 4.91,-38.57 4.81,-38.62 4.73,-38.69 4.66,-38.77 4.61,-38.86 4.56,-38.96 4.54,-39.06 4.53,-39.17 4.55,-39.27 4.56,-39.37 4.61,-39.47 4.67,-39.56 4.74,-39.63 4.82,-39.71 4.92,-39.75 5.01,-39.79 5.12,-39.80 5.23,-39.82 5.33,-39.79 5.43,-39.77 5.52,-39.71 5.61,-39.66 5.68,-39.57 5.75,-39.49 5.79,-39.39 5.83,-39.30 5.83,-39.19 5.84,-39.08 5.84,-39.08 5.84,-39.08 5.64,-36.45 5.45,-33.81 5.20,-29.95 4.94,-26.10 4.26,-21.78 3.58,-17.47 2.93,-13.48 2.29,-9.49 1.94,-7.32 1.59,-5.15 1.12,-2.54 0.65,0.05 0.63,0.13 0.62,0.20 0.58,0.28 0.55,0.35 0.50,0.41 0.45,0.47 0.39,0.52 0.32,0.56 0.25,0.60 0.18,0.63 0.10,0.64 0.02,0.65 -0.05,0.64 -0.13,0.64 -0.20,0.61 -0.28,0.59 -0.34,0.55 -0.41,0.50 -0.47,0.45 -0.52,0.39 -0.56,0.32 -0.60,0.25 -0.62,0.17 -0.64,0.10 -0.65,0.02 -0.65,-0.05 -0.65,-0.05 L -0.65,-0.05 Z"/></g><g transform="translate(823.2158203125 57.16499328613281) rotate(0 10.650146484375 0.38036346435546875)" stroke="none"><path fill="#1e1e1e" d="M 0.29,-0.58 Q 0.29,-0.58 1.26,-0.42 2.24,-0.25 3.44,-0.41 4.64,-0.57 6.96,-0.80 9.28,-1.03 11.37,-1.24 13.45,-1.44 16.69,-1.07 19.93,-0.70 20.04,-0.68 20.14,-0.66 20.23,-0.61 20.33,-0.55 20.40,-0.48 20.47,-0.40 20.51,-0.30 20.55,-0.20 20.56,-0.09 20.56,0.00 20.54,0.11 20.51,0.21 20.45,0.30 20.39,0.39 20.31,0.45 20.23,0.52 20.13,0.55 20.03,0.59 19.92,0.59 19.81,0.59 19.71,0.56 19.61,0.53 19.53,0.46 19.44,0.40 19.38,0.31 19.32,0.23 19.29,0.13 19.26,0.02 19.26,-0.07 19.27,-0.18 19.30,-0.28 19.34,-0.38 19.41,-0.46 19.48,-0.54 19.57,-0.60 19.66,-0.65 19.76,-0.68 19.86,-0.70 19.97,-0.69 20.08,-0.68 20.17,-0.64 20.27,-0.60 20.35,-0.53 20.43,-0.45 20.48,-0.36 20.53,-0.27 20.55,-0.16 20.57,-0.06 20.55,0.04 20.54,0.14 20.49,0.24 20.44,0.33 20.36,0.41 20.29,0.48 20.19,0.53 20.10,0.57 19.99,0.59 19.88,0.60 19.88,0.60 19.88,0.60 16.84,0.73 13.79,0.86 11.68,1.29 9.56,1.72 7.13,1.95 4.71,2.18 2.98,2.09 1.25,2.00 0.48,1.29 -0.29,0.58 -0.35,0.54 -0.42,0.49 -0.47,0.44 -0.53,0.38 -0.57,0.31 -0.60,0.24 -0.62,0.16 -0.65,0.09 -0.65,0.01 -0.65,-0.06 -0.63,-0.14 -0.61,-0.22 -0.58,-0.29 -0.54,-0.36 -0.49,-0.42 -0.44,-0.48 -0.38,-0.52 -0.31,-0.57 -0.24,-0.60 -0.16,-0.63 -0.09,-0.64 -0.01,-0.65 0.06,-0.64 0.14,-0.64 0.21,-0.61 0.29,-0.58 0.29,-0.58 L 0.29,-0.58 Z"/></g></svg>