<svg version="1.1" xmlns="http://www.w3.org/2000/svg" viewBox="0 0 423.56298789978024 297.7777557373047" width="423.56298789978024" height="297.7777557373047" filter="invert(93%) hue-rotate(180deg)" class="excalidraw-svg">
  <!-- svg-source:excalidraw -->
  
  <defs>
    <style class="style-fonts">
      @font-face {
        font-family: "Virgil";
        src: url("https://excalidraw.com/Virgil.woff2");
      }
      @font-face {
        font-family: "Cascadia";
        src: url("https://excalidraw.com/Cascadia.woff2");
      }
      @font-face {
        font-family: "Assistant";
        src: url("https://excalidraw.com/Assistant-Regular.woff2");
      }
    </style>
    
  </defs>
  <rect x="0" y="0" width="423.56298789978024" height="297.7777557373047" fill="#ffffff"/><g stroke-linecap="round"><g transform="translate(10.132980234590377 28.0555419921875) rotate(0 199.65280151367188 -0.34722137451171875)"><path d="M0.96 -0.5 C67.33 -0.81, 332.32 -1.16, 398.73 -1.34 M0.01 -1.81 C66.13 -2.02, 331.02 -0.32, 397.48 -0.13" stroke="#1e1e1e" stroke-width="2" fill="none"/></g></g><mask/><g stroke-linecap="round"><g transform="translate(12.124459588527714 62.03537345998694) rotate(0 199.65280151367188 -0.34722137451171875)"><path d="M-0.16 -0.37 C66.6 -0.75, 333.21 -1.65, 399.94 -1.81 M-1.71 -1.62 C65.01 -1.92, 332.39 -1.07, 399.33 -0.85" stroke="#1e1e1e" stroke-width="2" fill="none"/></g></g><mask/><g stroke-linecap="round"><g transform="translate(10.485604608058935 99.61871696584632) rotate(0 199.65280151367188 -0.34722137451171875)"><path d="M-0.49 0.18 C65.72 0.02, 331.88 -1.02, 398.37 -1.02 M1.46 -0.77 C67.93 -0.75, 334.01 0.5, 400.59 0.35" stroke="#1e1e1e" stroke-width="2" fill="none"/></g></g><mask/><g stroke-linecap="round"><g transform="translate(12.096566522121435 192.92425895803387) rotate(0 199.65280151367188 -0.34722137451171875)"><path d="M1.14 -0.47 C67.73 -0.58, 332.62 0.03, 398.88 0.15 M0.28 -1.76 C66.73 -2.28, 331.49 -1.56, 397.7 -1.53" stroke="#1e1e1e" stroke-width="2" fill="none"/></g></g><mask/><g stroke-linecap="round"><g transform="translate(14.513314568996407 258.06314445608075) rotate(0 199.65280151367188 -0.34722137451171875)"><path d="M0.78 -1.1 C67.15 -1.57, 332.69 -2.04, 399.05 -1.88 M-0.27 0.94 C65.85 0.49, 331.6 -0.45, 397.97 -0.96" stroke="#1e1e1e" stroke-width="2" fill="none"/></g></g><mask/><g stroke-linecap="round"><g transform="translate(212.21629322287163 26.666656494140625) rotate(0 3.125 114.93054962158203)"><path d="M0 0 C1.04 38.31, 5.21 191.55, 6.25 229.86 M0 0 C1.04 38.31, 5.21 191.55, 6.25 229.86" stroke="#1e1e1e" stroke-width="2" fill="none"/></g></g><mask/><g stroke-linecap="round" transform="translate(191.38298023459038 225.9722137451172) rotate(0 27.777801513671875 30.555557250976562)"><path d="M13.89 0 C24.54 0, 35.19 0, 41.67 0 C50.93 0, 55.56 4.63, 55.56 13.89 C55.56 20.57, 55.56 27.26, 55.56 47.22 C55.56 56.48, 50.93 61.11, 41.67 61.11 C33.48 61.11, 25.29 61.11, 13.89 61.11 C4.63 61.11, 0 56.48, 0 47.22 C0 38.01, 0 28.79, 0 13.89 C0 4.63, 4.63 0, 13.89 0" stroke="none" stroke-width="0" fill="#ffffff"/><path d="M13.89 0 C20.97 0, 28.05 0, 41.67 0 M13.89 0 C20.46 0, 27.03 0, 41.67 0 M41.67 0 C50.93 0, 55.56 4.63, 55.56 13.89 M41.67 0 C50.93 0, 55.56 4.63, 55.56 13.89 M55.56 13.89 C55.56 23.38, 55.56 32.87, 55.56 47.22 M55.56 13.89 C55.56 23.8, 55.56 33.71, 55.56 47.22 M55.56 47.22 C55.56 56.48, 50.93 61.11, 41.67 61.11 M55.56 47.22 C55.56 56.48, 50.93 61.11, 41.67 61.11 M41.67 61.11 C32.86 61.11, 24.06 61.11, 13.89 61.11 M41.67 61.11 C35.69 61.11, 29.71 61.11, 13.89 61.11 M13.89 61.11 C4.63 61.11, 0 56.48, 0 47.22 M13.89 61.11 C4.63 61.11, 0 56.48, 0 47.22 M0 47.22 C0 36.15, 0 25.07, 0 13.89 M0 47.22 C0 35.82, 0 24.41, 0 13.89 M0 13.89 C0 4.63, 4.63 0, 13.89 0 M0 13.89 C0 4.63, 4.63 0, 13.89 0" stroke="#1e1e1e" stroke-width="2" fill="none"/></g><g transform="translate(212.21629322287163 252.36109924316406) rotate(0 11.80560302734375 4.861114501953125)" stroke="none"><path fill="#1e1e1e" d="M -0.46,-0.46 Q -0.46,-0.46 -0.08,-1.28 0.30,-2.10 1.46,-2.85 2.62,-3.61 3.97,-4.15 5.32,-4.69 6.92,-5.12 8.51,-5.55 10.26,-5.75 12.00,-5.94 13.33,-6.02 14.67,-6.10 15.84,-6.14 17.01,-6.18 17.77,-6.19 18.54,-6.20 19.38,-5.34 20.22,-4.47 20.03,-3.36 19.85,-2.24 19.07,-0.90 18.29,0.42 17.33,1.61 16.37,2.79 15.40,4.04 14.43,5.29 13.21,6.83 11.99,8.37 11.06,9.45 10.12,10.53 9.58,11.31 9.04,12.09 8.79,12.76 8.53,13.42 9.76,13.20 10.99,12.98 12.31,12.81 13.64,12.64 15.10,12.56 16.57,12.48 17.89,12.28 19.21,12.07 21.19,12.32 23.17,12.56 23.28,12.57 23.38,12.58 23.48,12.62 23.58,12.67 23.65,12.74 23.73,12.81 23.78,12.90 23.83,13.00 23.85,13.10 23.87,13.21 23.86,13.31 23.84,13.42 23.79,13.51 23.74,13.61 23.67,13.68 23.59,13.75 23.49,13.80 23.40,13.85 23.29,13.86 23.19,13.87 23.08,13.85 22.98,13.83 22.89,13.77 22.80,13.72 22.73,13.64 22.66,13.56 22.62,13.46 22.58,13.36 22.57,13.26 22.56,13.15 22.59,13.05 22.62,12.95 22.67,12.86 22.73,12.77 22.82,12.70 22.90,12.64 23.00,12.60 23.10,12.57 23.21,12.57 23.31,12.57 23.41,12.60 23.52,12.63 23.60,12.69 23.69,12.76 23.75,12.85 23.81,12.93 23.84,13.03 23.87,13.14 23.86,13.24 23.86,13.35 23.82,13.45 23.78,13.55 23.71,13.63 23.65,13.71 23.56,13.77 23.47,13.82 23.36,13.85 23.26,13.87 23.26,13.87 23.26,13.87 21.47,14.43 19.69,14.99 18.21,15.24 16.73,15.50 15.36,15.57 13.99,15.64 12.40,15.81 10.80,15.98 9.59,15.88 8.38,15.79 7.41,15.36 6.45,14.94 6.06,13.99 5.66,13.05 5.80,12.41 5.95,11.76 6.26,11.08 6.58,10.39 7.22,9.48 7.86,8.57 8.75,7.54 9.65,6.52 10.86,4.99 12.08,3.46 13.07,2.18 14.07,0.90 14.92,-0.10 15.76,-1.11 16.41,-2.12 17.06,-3.13 17.43,-3.78 17.80,-4.42 18.05,-3.95 18.31,-3.48 17.69,-3.46 17.08,-3.44 15.95,-3.42 14.82,-3.39 13.55,-3.33 12.28,-3.26 10.73,-3.12 9.18,-2.97 7.72,-2.60 6.26,-2.22 5.12,-1.81 3.98,-1.39 3.04,-0.84 2.09,-0.29 1.27,0.08 0.46,0.46 0.40,0.51 0.33,0.56 0.26,0.59 0.19,0.62 0.11,0.64 0.03,0.65 -0.03,0.65 -0.11,0.64 -0.19,0.62 -0.26,0.59 -0.33,0.55 -0.40,0.51 -0.46,0.46 -0.51,0.40 -0.55,0.33 -0.59,0.26 -0.62,0.19 -0.64,0.11 -0.65,0.03 -0.65,-0.03 -0.64,-0.11 -0.62,-0.19 -0.59,-0.26 -0.56,-0.33 -0.51,-0.40 -0.46,-0.46 -0.46,-0.46 L -0.46,-0.46 Z"/></g><g transform="translate(218.46629322287163 257.2222137451172) rotate(0 6.25 -0.34722900390625)" stroke="none"><path fill="#1e1e1e" d="M -0.15,-0.63 Q -0.15,-0.63 0.55,-1.17 1.27,-1.71 2.93,-1.87 4.59,-2.03 6.06,-2.06 7.53,-2.10 9.57,-1.72 11.60,-1.34 11.70,-1.32 11.81,-1.30 11.90,-1.26 12.00,-1.21 12.07,-1.13 12.15,-1.05 12.19,-0.96 12.24,-0.86 12.25,-0.76 12.26,-0.65 12.24,-0.55 12.22,-0.44 12.16,-0.35 12.11,-0.26 12.03,-0.19 11.95,-0.12 11.85,-0.08 11.75,-0.04 11.65,-0.03 11.54,-0.03 11.44,-0.05 11.34,-0.08 11.25,-0.14 11.16,-0.20 11.09,-0.28 11.03,-0.37 10.99,-0.47 10.96,-0.57 10.96,-0.67 10.96,-0.78 10.99,-0.88 11.02,-0.98 11.09,-1.07 11.15,-1.15 11.24,-1.21 11.32,-1.27 11.43,-1.30 11.53,-1.33 11.63,-1.33 11.74,-1.32 11.84,-1.28 11.94,-1.25 12.02,-1.18 12.10,-1.11 12.16,-1.02 12.21,-0.93 12.24,-0.83 12.26,-0.72 12.25,-0.62 12.24,-0.51 12.20,-0.41 12.15,-0.32 12.08,-0.24 12.01,-0.16 11.92,-0.11 11.82,-0.06 11.72,-0.04 11.61,-0.02 11.61,-0.02 11.61,-0.02 9.61,0.39 7.61,0.82 6.18,0.85 4.75,0.89 3.33,0.90 1.92,0.92 1.04,0.77 0.15,0.63 0.08,0.64 0.00,0.65 -0.07,0.64 -0.15,0.63 -0.22,0.61 -0.30,0.58 -0.36,0.53 -0.43,0.49 -0.48,0.43 -0.53,0.37 -0.57,0.30 -0.61,0.23 -0.63,0.15 -0.65,0.08 -0.65,0.00 -0.65,-0.07 -0.63,-0.15 -0.61,-0.23 -0.57,-0.30 -0.54,-0.37 -0.48,-0.43 -0.43,-0.49 -0.37,-0.53 -0.30,-0.58 -0.23,-0.60 -0.15,-0.63 -0.15,-0.63 L -0.15,-0.63 Z"/></g><g transform="translate(362.9107512306841 124.58332824707031) rotate(0 0 1.736114501953125)" stroke="none"><path fill="#1e1e1e" d="M 0.65,0 Q 0.65,0 0.65,1.42 0.65,2.84 0.63,2.94 0.62,3.05 0.57,3.14 0.52,3.24 0.44,3.31 0.36,3.38 0.27,3.43 0.17,3.47 0.07,3.48 -0.03,3.50 -0.13,3.47 -0.24,3.45 -0.33,3.40 -0.42,3.34 -0.49,3.26 -0.56,3.18 -0.60,3.08 -0.64,2.98 -0.64,2.88 -0.65,2.77 -0.62,2.67 -0.59,2.56 -0.53,2.48 -0.47,2.39 -0.39,2.32 -0.30,2.26 -0.20,2.23 -0.10,2.19 0.00,2.19 0.10,2.19 0.20,2.23 0.30,2.26 0.39,2.32 0.47,2.39 0.53,2.48 0.59,2.56 0.62,2.67 0.65,2.77 0.64,2.88 0.64,2.98 0.60,3.08 0.56,3.18 0.49,3.26 0.42,3.34 0.33,3.40 0.24,3.45 0.13,3.47 0.03,3.50 -0.07,3.48 -0.17,3.47 -0.27,3.43 -0.36,3.38 -0.44,3.31 -0.52,3.24 -0.57,3.14 -0.62,3.05 -0.63,2.94 -0.65,2.84 -0.65,2.84 -0.65,2.84 -0.65,1.42 -0.65,0 -0.64,-0.07 -0.63,-0.15 -0.60,-0.23 -0.58,-0.30 -0.53,-0.37 -0.49,-0.43 -0.43,-0.48 -0.37,-0.54 -0.30,-0.57 -0.23,-0.61 -0.15,-0.63 -0.07,-0.65 0.00,-0.65 0.07,-0.65 0.15,-0.63 0.23,-0.61 0.30,-0.57 0.37,-0.54 0.43,-0.48 0.49,-0.43 0.53,-0.37 0.58,-0.30 0.60,-0.23 0.63,-0.15 0.64,-0.07 0.65,0.00 0.65,0.00 L 0.65,0 Z"/></g><g transform="translate(360.8274992775591 147.49998474121094) rotate(0 0.34716796875 1.736114501953125)" stroke="none"><path fill="#1e1e1e" d="M 0.63,-0.15 Q 0.63,-0.15 0.96,1.43 1.28,3.03 1.28,3.13 1.28,3.24 1.25,3.34 1.21,3.44 1.15,3.52 1.08,3.61 1.00,3.67 0.91,3.73 0.81,3.75 0.70,3.78 0.60,3.78 0.49,3.77 0.39,3.73 0.29,3.69 0.21,3.62 0.13,3.55 0.08,3.46 0.02,3.37 0.00,3.26 -0.01,3.16 -0.00,3.05 0.00,2.95 0.05,2.85 0.09,2.76 0.17,2.68 0.24,2.60 0.34,2.55 0.43,2.50 0.54,2.49 0.64,2.47 0.75,2.49 0.85,2.51 0.94,2.56 1.04,2.61 1.11,2.69 1.18,2.76 1.23,2.86 1.27,2.96 1.28,3.06 1.29,3.17 1.27,3.27 1.24,3.38 1.19,3.47 1.13,3.56 1.05,3.63 0.97,3.69 0.87,3.73 0.77,3.77 0.67,3.78 0.56,3.78 0.46,3.75 0.36,3.72 0.27,3.66 0.18,3.60 0.12,3.52 0.05,3.43 0.02,3.33 -0.00,3.23 -0.00,3.23 -0.00,3.23 -0.32,1.69 -0.63,0.15 -0.64,0.08 -0.65,0.00 -0.64,-0.07 -0.63,-0.15 -0.61,-0.22 -0.58,-0.30 -0.53,-0.36 -0.49,-0.43 -0.43,-0.48 -0.37,-0.53 -0.30,-0.57 -0.23,-0.61 -0.15,-0.63 -0.08,-0.65 -0.00,-0.65 0.07,-0.65 0.15,-0.63 0.23,-0.61 0.30,-0.57 0.37,-0.54 0.43,-0.48 0.49,-0.43 0.53,-0.37 0.58,-0.30 0.60,-0.23 0.63,-0.15 0.63,-0.15 L 0.63,-0.15 Z"/></g><g transform="translate(362.9107512306841 160.69444274902344) rotate(0 -0.34722900390625 1.388885498046875)" stroke="none"><path fill="#1e1e1e" d="M 0.62,0.20 Q 0.62,0.20 -0.01,1.52 -0.65,2.84 -0.72,2.92 -0.79,3.00 -0.88,3.05 -0.97,3.10 -1.08,3.12 -1.18,3.14 -1.29,3.13 -1.39,3.12 -1.49,3.07 -1.58,3.02 -1.66,2.95 -1.74,2.88 -1.78,2.78 -1.83,2.69 -1.85,2.58 -1.86,2.48 -1.84,2.37 -1.82,2.27 -1.77,2.17 -1.72,2.08 -1.64,2.01 -1.56,1.94 -1.47,1.89 -1.37,1.85 -1.26,1.84 -1.16,1.83 -1.05,1.86 -0.95,1.88 -0.86,1.94 -0.77,1.99 -0.70,2.08 -0.64,2.16 -0.60,2.26 -0.56,2.36 -0.56,2.46 -0.55,2.57 -0.58,2.67 -0.61,2.77 -0.68,2.86 -0.74,2.95 -0.82,3.01 -0.91,3.07 -1.01,3.11 -1.11,3.14 -1.22,3.14 -1.32,3.13 -1.42,3.10 -1.52,3.06 -1.61,3.00 -1.69,2.93 -1.75,2.84 -1.81,2.75 -1.83,2.65 -1.86,2.55 -1.85,2.44 -1.84,2.33 -1.80,2.24 -1.76,2.14 -1.76,2.14 -1.76,2.14 -1.19,0.96 -0.62,-0.20 -0.58,-0.27 -0.55,-0.35 -0.50,-0.41 -0.45,-0.47 -0.39,-0.52 -0.32,-0.56 -0.25,-0.59 -0.18,-0.63 -0.10,-0.64 -0.02,-0.65 0.05,-0.64 0.13,-0.64 0.20,-0.61 0.28,-0.59 0.34,-0.55 0.41,-0.50 0.46,-0.45 0.52,-0.39 0.56,-0.32 0.60,-0.25 0.62,-0.18 0.64,-0.10 0.65,-0.02 0.65,0.05 0.63,0.13 0.62,0.20 0.62,0.20 L 0.62,0.20 Z"/></g><g transform="translate(42.77189625021538 122.49998474121094) rotate(0 0.6944580078125 0.6944580078125)" stroke="none"><path fill="#1e1e1e" d="M 0.54,-0.36 Q 0.54,-0.36 1.11,0.48 1.68,1.34 1.72,1.43 1.77,1.53 1.78,1.64 1.79,1.74 1.76,1.85 1.74,1.95 1.69,2.04 1.63,2.13 1.55,2.20 1.47,2.27 1.37,2.31 1.27,2.34 1.16,2.35 1.06,2.35 0.95,2.33 0.85,2.30 0.77,2.24 0.68,2.18 0.61,2.09 0.55,2.01 0.52,1.90 0.48,1.80 0.49,1.70 0.49,1.59 0.52,1.49 0.56,1.39 0.62,1.31 0.69,1.22 0.77,1.16 0.86,1.10 0.96,1.08 1.07,1.05 1.17,1.06 1.28,1.06 1.38,1.10 1.48,1.14 1.56,1.21 1.64,1.28 1.69,1.37 1.74,1.46 1.77,1.57 1.79,1.67 1.78,1.78 1.76,1.88 1.72,1.98 1.67,2.07 1.60,2.15 1.53,2.23 1.43,2.28 1.34,2.33 1.23,2.34 1.13,2.36 1.02,2.34 0.92,2.32 0.82,2.27 0.73,2.22 0.66,2.14 0.59,2.07 0.59,2.07 0.59,2.07 0.02,1.21 -0.54,0.36 -0.58,0.29 -0.61,0.22 -0.63,0.14 -0.65,0.06 -0.65,-0.01 -0.65,-0.08 -0.63,-0.16 -0.61,-0.24 -0.57,-0.31 -0.53,-0.38 -0.48,-0.44 -0.42,-0.49 -0.36,-0.54 -0.29,-0.58 -0.22,-0.61 -0.14,-0.64 -0.06,-0.64 0.01,-0.65 0.08,-0.64 0.16,-0.63 0.24,-0.60 0.31,-0.57 0.37,-0.53 0.44,-0.48 0.49,-0.42 0.54,-0.36 0.54,-0.36 L 0.54,-0.36 Z"/></g><g transform="translate(46.24412525412163 146.11109924316406) rotate(0 -0.6944580078125 2.77777099609375)" stroke="none"><path fill="#1e1e1e" d="M 0.65,0 Q 0.65,0 1.24,0.72 1.84,1.45 1.53,2.17 1.21,2.89 0.27,4.03 -0.67,5.17 -0.70,5.28 -0.73,5.38 -0.79,5.46 -0.86,5.55 -0.94,5.61 -1.03,5.67 -1.13,5.71 -1.23,5.74 -1.34,5.73 -1.44,5.73 -1.54,5.69 -1.64,5.66 -1.73,5.59 -1.81,5.52 -1.87,5.44 -1.92,5.35 -1.95,5.24 -1.98,5.14 -1.97,5.03 -1.96,4.93 -1.92,4.83 -1.87,4.73 -1.80,4.65 -1.73,4.57 -1.64,4.52 -1.55,4.47 -1.44,4.45 -1.34,4.43 -1.23,4.44 -1.13,4.46 -1.03,4.51 -0.94,4.55 -0.86,4.63 -0.79,4.70 -0.74,4.80 -0.69,4.89 -0.68,5.00 -0.66,5.10 -0.68,5.21 -0.70,5.31 -0.76,5.40 -0.81,5.50 -0.89,5.57 -0.97,5.64 -1.06,5.68 -1.16,5.72 -1.27,5.73 -1.37,5.74 -1.48,5.71 -1.58,5.69 -1.67,5.63 -1.76,5.57 -1.83,5.49 -1.89,5.41 -1.93,5.31 -1.97,5.21 -1.97,5.10 -1.97,5.00 -1.97,5.00 -1.97,5.00 -1.90,2.97 -1.84,0.94 -1.24,0.47 -0.65,0 -0.64,-0.07 -0.63,-0.15 -0.60,-0.23 -0.58,-0.30 -0.53,-0.37 -0.49,-0.43 -0.43,-0.48 -0.37,-0.54 -0.30,-0.57 -0.23,-0.61 -0.15,-0.63 -0.07,-0.65 0.00,-0.65 0.07,-0.65 0.15,-0.63 0.23,-0.61 0.30,-0.57 0.37,-0.54 0.43,-0.48 0.49,-0.43 0.53,-0.37 0.58,-0.30 0.60,-0.23 0.63,-0.15 0.64,-0.07 0.65,0.00 0.65,0.00 L 0.65,0 Z"/></g><g transform="translate(42.77189625021538 172.49998474121094) rotate(0 0.34722900390625 1.388885498046875)" stroke="none"><path fill="#1e1e1e" d="M 0.65,0 Q 0.65,0 0.96,1.20 1.27,2.40 1.28,2.51 1.29,2.62 1.27,2.72 1.25,2.82 1.19,2.91 1.14,3.01 1.05,3.07 0.97,3.14 0.87,3.18 0.78,3.22 0.67,3.23 0.56,3.23 0.46,3.20 0.36,3.17 0.27,3.12 0.18,3.06 0.12,2.97 0.06,2.89 0.02,2.79 -0.00,2.68 -0.00,2.58 -0.00,2.47 0.02,2.37 0.06,2.27 0.12,2.19 0.19,2.10 0.27,2.04 0.36,1.98 0.46,1.95 0.57,1.93 0.67,1.93 0.78,1.94 0.88,1.98 0.98,2.02 1.06,2.09 1.14,2.16 1.19,2.25 1.25,2.34 1.27,2.44 1.29,2.55 1.28,2.65 1.27,2.76 1.22,2.85 1.18,2.95 1.11,3.03 1.03,3.10 0.94,3.15 0.84,3.20 0.74,3.22 0.63,3.24 0.53,3.22 0.43,3.20 0.33,3.15 0.24,3.10 0.16,3.02 0.09,2.95 0.05,2.85 0.00,2.75 0.00,2.75 0.00,2.75 -0.32,1.37 -0.65,0 -0.64,-0.07 -0.63,-0.15 -0.60,-0.23 -0.58,-0.30 -0.53,-0.37 -0.49,-0.43 -0.43,-0.48 -0.37,-0.54 -0.30,-0.57 -0.23,-0.61 -0.15,-0.63 -0.07,-0.65 0.00,-0.65 0.07,-0.65 0.15,-0.63 0.23,-0.61 0.30,-0.57 0.37,-0.54 0.43,-0.48 0.49,-0.43 0.53,-0.37 0.58,-0.30 0.60,-0.23 0.63,-0.15 0.64,-0.07 0.65,0.00 0.65,0.00 L 0.65,0 Z"/></g><g transform="translate(110.82743824240288 234.99998474121094) rotate(0 5.208343505859375 18.0555419921875)" stroke="none"><path fill="#1e1e1e" d="M 0,0.65 Q 0,0.65 -1.19,0.81 -2.39,0.96 -3.40,1.19 -4.41,1.41 -5.51,2.07 -6.62,2.73 -7.86,3.77 -9.09,4.82 -9.94,6.16 -10.78,7.50 -11.53,9.42 -12.28,11.34 -12.79,13.33 -13.31,15.32 -13.52,17.69 -13.73,20.06 -13.43,22.17 -13.14,24.27 -12.07,26.43 -11.01,28.59 -8.89,30.19 -6.77,31.78 -4.52,32.88 -2.26,33.97 0.37,34.40 3.01,34.84 5.65,34.63 8.29,34.43 10.58,33.95 12.88,33.48 14.78,32.70 16.67,31.92 18.19,30.84 19.71,29.76 20.72,28.75 21.73,27.73 22.47,26.41 23.22,25.08 23.49,23.48 23.76,21.88 23.50,20.54 23.25,19.21 22.57,17.49 21.90,15.78 20.69,14.15 19.48,12.53 17.97,10.83 16.47,9.13 14.73,7.89 12.99,6.65 11.11,5.75 9.23,4.84 7.65,4.26 6.07,3.68 4.44,3.24 2.81,2.80 1.21,2.62 -0.39,2.45 -1.78,2.56 -3.16,2.67 -4.22,3.05 -5.28,3.43 -6.03,4.03 -6.77,4.63 -7.52,6.29 -8.27,7.96 -8.31,8.06 -8.35,8.16 -8.42,8.24 -8.49,8.32 -8.58,8.38 -8.67,8.44 -8.77,8.46 -8.88,8.48 -8.98,8.47 -9.09,8.46 -9.18,8.42 -9.28,8.37 -9.36,8.30 -9.44,8.23 -9.49,8.14 -9.54,8.04 -9.56,7.94 -9.57,7.83 -9.56,7.73 -9.54,7.62 -9.49,7.53 -9.44,7.44 -9.37,7.36 -9.29,7.29 -9.19,7.24 -9.10,7.20 -8.99,7.18 -8.89,7.17 -8.78,7.19 -8.68,7.22 -8.59,7.27 -8.50,7.32 -8.43,7.40 -8.36,7.48 -8.32,7.58 -8.28,7.68 -8.27,7.79 -8.26,7.89 -8.29,8.00 -8.32,8.10 -8.38,8.19 -8.44,8.28 -8.52,8.34 -8.60,8.41 -8.71,8.44 -8.81,8.48 -8.91,8.48 -9.02,8.48 -9.12,8.44 -9.22,8.41 -9.30,8.35 -9.39,8.28 -9.45,8.20 -9.51,8.11 -9.54,8.01 -9.57,7.90 -9.56,7.80 -9.56,7.69 -9.56,7.69 -9.56,7.69 -9.04,5.22 -8.52,2.75 -7.41,1.77 -6.30,0.79 -4.86,0.27 -3.42,-0.24 -1.74,-0.36 -0.07,-0.48 1.75,-0.26 3.58,-0.05 5.34,0.42 7.11,0.90 8.82,1.55 10.52,2.19 12.62,3.23 14.71,4.26 16.69,5.72 18.66,7.17 20.25,8.99 21.84,10.81 23.23,12.77 24.61,14.73 25.34,16.74 26.07,18.76 26.30,20.57 26.53,22.38 26.06,24.41 25.60,26.44 24.61,28.03 23.62,29.63 22.42,30.78 21.22,31.93 19.44,33.13 17.65,34.33 15.52,35.16 13.40,35.99 10.93,36.47 8.46,36.96 5.52,37.13 2.59,37.30 -0.37,36.75 -3.33,36.19 -5.81,34.96 -8.28,33.72 -10.71,31.72 -13.14,29.73 -14.33,27.18 -15.52,24.63 -15.82,22.24 -16.13,19.85 -15.88,17.28 -15.63,14.71 -15.05,12.58 -14.48,10.46 -13.61,8.34 -12.73,6.22 -11.64,4.64 -10.56,3.06 -9.11,1.93 -7.67,0.80 -6.24,0.09 -4.81,-0.61 -3.60,-0.79 -2.39,-0.96 -1.19,-0.81 0,-0.65 0.07,-0.64 0.15,-0.63 0.23,-0.60 0.30,-0.58 0.37,-0.53 0.43,-0.49 0.48,-0.43 0.54,-0.37 0.57,-0.30 0.61,-0.23 0.63,-0.15 0.65,-0.07 0.65,0.00 0.65,0.07 0.63,0.15 0.61,0.23 0.57,0.30 0.54,0.37 0.48,0.43 0.43,0.49 0.37,0.53 0.30,0.58 0.23,0.60 0.15,0.63 0.07,0.64 -0.00,0.65 -0.00,0.65 L 0,0.65 Z"/></g><g transform="translate(114.99412525412163 236.3888702392578) rotate(0 1.736114501953125 18.750015258789062)" stroke="none"><path fill="#1e1e1e" d="M 0.65,0.08 Q 0.65,0.08 0.73,1.71 0.82,3.34 0.99,5.71 1.16,8.08 1.45,12.11 1.74,16.15 2.24,20.42 2.73,24.70 3.29,27.89 3.84,31.09 4.17,33.94 4.51,36.80 4.52,36.91 4.53,37.01 4.50,37.12 4.47,37.22 4.41,37.31 4.35,37.40 4.27,37.46 4.19,37.53 4.09,37.56 3.99,37.60 3.88,37.60 3.77,37.60 3.67,37.57 3.57,37.53 3.49,37.47 3.40,37.41 3.34,37.32 3.28,37.23 3.25,37.13 3.22,37.03 3.22,36.92 3.23,36.82 3.27,36.72 3.31,36.62 3.37,36.54 3.44,36.46 3.53,36.40 3.62,36.34 3.73,36.32 3.83,36.30 3.93,36.31 4.04,36.32 4.14,36.36 4.23,36.40 4.31,36.47 4.39,36.55 4.44,36.64 4.49,36.73 4.51,36.84 4.53,36.94 4.51,37.05 4.50,37.15 4.45,37.25 4.40,37.34 4.32,37.42 4.25,37.49 4.15,37.53 4.06,37.58 3.95,37.59 3.84,37.61 3.74,37.58 3.64,37.56 3.55,37.51 3.45,37.46 3.38,37.38 3.31,37.30 3.27,37.20 3.23,37.10 3.23,37.10 3.23,37.10 2.26,34.34 1.28,31.57 0.61,28.30 -0.06,25.03 -0.57,20.68 -1.09,16.32 -1.29,12.26 -1.50,8.20 -1.56,5.62 -1.62,3.04 -1.13,1.48 -0.65,-0.08 -0.63,-0.15 -0.61,-0.23 -0.57,-0.30 -0.53,-0.37 -0.48,-0.43 -0.43,-0.49 -0.36,-0.53 -0.30,-0.58 -0.22,-0.61 -0.15,-0.63 -0.07,-0.64 0.00,-0.65 0.08,-0.64 0.15,-0.63 0.23,-0.60 0.30,-0.58 0.37,-0.53 0.43,-0.48 0.48,-0.43 0.54,-0.37 0.57,-0.30 0.61,-0.23 0.63,-0.15 0.65,-0.07 0.65,0.00 0.65,0.08 0.65,0.08 L 0.65,0.08 Z"/></g><g transform="translate(342.0774992775591 241.24998474121094) rotate(0 5.20831298828125 20.486114501953125)" stroke="none"><path fill="#1e1e1e" d="M 0,0.65 Q 0,0.65 -0.79,0.85 -1.59,1.04 -2.32,1.09 -3.05,1.13 -3.96,1.53 -4.88,1.93 -6.03,2.66 -7.17,3.39 -8.15,4.60 -9.13,5.80 -9.90,7.80 -10.67,9.80 -11.20,12.20 -11.74,14.61 -11.57,17.50 -11.40,20.38 -10.37,23.30 -9.33,26.22 -7.56,28.77 -5.79,31.33 -3.52,33.36 -1.25,35.39 1.57,36.58 4.40,37.78 7.08,38.09 9.75,38.40 12.30,37.57 14.86,36.74 16.64,35.48 18.43,34.22 19.66,31.87 20.90,29.52 21.23,26.67 21.55,23.83 21.12,20.30 20.70,16.76 19.56,13.77 18.43,10.78 16.64,8.63 14.86,6.49 13.01,5.23 11.16,3.97 9.55,3.45 7.93,2.94 6.46,3.27 4.99,3.60 3.58,4.27 2.18,4.93 1.23,5.72 0.28,6.51 -1.19,8.08 -2.67,9.66 -2.74,9.74 -2.81,9.82 -2.90,9.88 -2.99,9.93 -3.09,9.96 -3.20,9.98 -3.30,9.97 -3.41,9.96 -3.50,9.92 -3.60,9.88 -3.68,9.80 -3.76,9.73 -3.81,9.64 -3.86,9.55 -3.88,9.44 -3.90,9.34 -3.88,9.23 -3.87,9.13 -3.82,9.03 -3.77,8.94 -3.69,8.86 -3.62,8.79 -3.52,8.74 -3.42,8.70 -3.32,8.68 -3.21,8.67 -3.11,8.69 -3.01,8.71 -2.91,8.77 -2.82,8.82 -2.75,8.90 -2.68,8.98 -2.64,9.08 -2.60,9.18 -2.59,9.28 -2.59,9.39 -2.61,9.49 -2.64,9.60 -2.70,9.68 -2.76,9.77 -2.84,9.84 -2.92,9.90 -3.03,9.94 -3.13,9.97 -3.23,9.98 -3.34,9.98 -3.44,9.94 -3.54,9.91 -3.63,9.85 -3.71,9.79 -3.77,9.70 -3.83,9.61 -3.86,9.51 -3.89,9.41 -3.89,9.30 -3.88,9.20 -3.85,9.10 -3.81,9.00 -3.81,9.00 -3.81,9.00 -2.56,6.83 -1.31,4.66 -0.14,3.62 1.02,2.58 2.73,1.75 4.44,0.92 6.54,0.55 8.64,0.19 10.72,0.87 12.81,1.54 14.97,3.08 17.13,4.61 19.14,7.16 21.16,9.71 22.38,13.06 23.60,16.41 24.01,20.30 24.43,24.19 23.93,27.52 23.42,30.86 21.76,33.65 20.10,36.45 17.89,37.91 15.69,39.37 12.60,40.23 9.51,41.09 6.43,40.68 3.35,40.27 0.17,38.84 -3.01,37.41 -5.51,35.13 -8.00,32.86 -9.93,29.98 -11.86,27.11 -12.95,23.83 -14.05,20.54 -14.19,17.30 -14.33,14.05 -13.71,11.43 -13.10,8.81 -12.10,6.48 -11.11,4.16 -9.80,2.71 -8.50,1.27 -7.11,0.46 -5.71,-0.34 -4.40,-0.73 -3.09,-1.13 -2.34,-1.09 -1.59,-1.04 -0.79,-0.85 0,-0.65 0.07,-0.64 0.15,-0.63 0.23,-0.60 0.30,-0.58 0.37,-0.53 0.43,-0.49 0.48,-0.43 0.54,-0.37 0.57,-0.30 0.61,-0.23 0.63,-0.15 0.65,-0.07 0.65,0.00 0.65,0.07 0.63,0.15 0.61,0.23 0.57,0.30 0.54,0.37 0.48,0.43 0.43,0.49 0.37,0.53 0.30,0.58 0.23,0.60 0.15,0.63 0.07,0.64 -0.00,0.65 -0.00,0.65 L 0,0.65 Z"/></g><g transform="translate(346.2441252541216 245.41664123535156) rotate(0 2.77777099609375 21.180557250976562)" stroke="none"><path fill="#1e1e1e" d="M 0.65,0 Q 0.65,0 0.93,2.39 1.22,4.79 1.47,9.37 1.73,13.95 2.23,18.87 2.72,23.79 3.66,28.22 4.59,32.65 5.20,36.58 5.80,40.50 5.80,40.61 5.81,40.72 5.78,40.82 5.76,40.92 5.70,41.01 5.64,41.10 5.55,41.16 5.47,41.23 5.37,41.26 5.27,41.30 5.16,41.30 5.06,41.30 4.96,41.27 4.86,41.24 4.77,41.17 4.68,41.11 4.62,41.02 4.56,40.93 4.53,40.83 4.50,40.73 4.51,40.62 4.51,40.52 4.55,40.42 4.59,40.32 4.66,40.24 4.73,40.16 4.82,40.10 4.91,40.04 5.01,40.02 5.11,40.00 5.22,40.01 5.33,40.02 5.42,40.06 5.52,40.11 5.60,40.18 5.68,40.25 5.73,40.34 5.78,40.44 5.80,40.54 5.81,40.65 5.80,40.75 5.78,40.86 5.73,40.95 5.68,41.04 5.61,41.12 5.53,41.19 5.43,41.24 5.34,41.28 5.23,41.30 5.13,41.31 5.02,41.29 4.92,41.26 4.83,41.21 4.74,41.16 4.67,41.08 4.60,41.00 4.56,40.90 4.52,40.80 4.52,40.80 4.52,40.80 3.33,37.00 2.15,33.20 1.08,28.63 0.00,24.05 -0.46,19.06 -0.93,14.07 -1.07,9.43 -1.22,4.79 -0.93,2.39 -0.65,0 -0.64,-0.07 -0.63,-0.15 -0.60,-0.23 -0.58,-0.30 -0.53,-0.37 -0.49,-0.43 -0.43,-0.48 -0.37,-0.54 -0.30,-0.57 -0.23,-0.61 -0.15,-0.63 -0.07,-0.65 0.00,-0.65 0.07,-0.65 0.15,-0.63 0.23,-0.61 0.30,-0.57 0.37,-0.54 0.43,-0.48 0.49,-0.43 0.53,-0.37 0.58,-0.30 0.60,-0.23 0.63,-0.15 0.64,-0.07 0.65,0.00 0.65,0.00 L 0.65,0 Z"/></g><g transform="translate(99.71635425802788 176.66664123535156) rotate(0 2.777740478515625 17.361114501953125)" stroke="none"><path fill="#1e1e1e" d="M 0.24,0.60 Q 0.24,0.60 -0.68,1.18 -1.61,1.75 -2.77,2.37 -3.94,2.99 -5.53,4.22 -7.12,5.45 -8.74,7.13 -10.37,8.80 -11.76,11.58 -13.15,14.36 -13.93,17.65 -14.71,20.93 -14.66,23.18 -14.61,25.42 -13.08,27.94 -11.56,30.46 -9.47,32.06 -7.37,33.65 -4.47,34.29 -1.56,34.93 1.43,35.04 4.43,35.15 6.97,34.62 9.52,34.10 12.03,32.37 14.54,30.64 16.17,28.79 17.80,26.94 18.84,24.87 19.88,22.80 20.10,19.92 20.31,17.03 19.65,13.90 18.98,10.78 17.94,8.30 16.89,5.82 15.89,4.24 14.89,2.65 13.60,1.71 12.32,0.77 11.23,0.16 10.15,-0.44 9.13,-0.48 8.11,-0.52 6.72,-0.34 5.32,-0.16 3.79,0.11 2.26,0.40 2.15,0.41 2.05,0.43 1.94,0.41 1.84,0.39 1.74,0.34 1.65,0.29 1.58,0.22 1.51,0.14 1.46,0.04 1.42,-0.04 1.41,-0.15 1.39,-0.25 1.42,-0.36 1.44,-0.46 1.50,-0.55 1.55,-0.64 1.63,-0.71 1.71,-0.78 1.81,-0.82 1.91,-0.86 2.02,-0.86 2.12,-0.87 2.23,-0.84 2.33,-0.81 2.42,-0.75 2.50,-0.69 2.57,-0.61 2.63,-0.52 2.67,-0.42 2.70,-0.32 2.70,-0.21 2.70,-0.11 2.66,-0.01 2.63,0.08 2.56,0.17 2.50,0.25 2.41,0.31 2.32,0.37 2.22,0.40 2.12,0.43 2.01,0.42 1.91,0.41 1.81,0.37 1.71,0.33 1.63,0.27 1.55,0.20 1.49,0.10 1.44,0.01 1.42,-0.08 1.39,-0.18 1.41,-0.29 1.42,-0.40 1.46,-0.49 1.51,-0.59 1.58,-0.66 1.66,-0.74 1.75,-0.79 1.84,-0.84 1.84,-0.84 1.84,-0.84 3.33,-1.56 4.83,-2.29 6.55,-2.83 8.27,-3.37 9.88,-3.24 11.49,-3.10 12.83,-2.36 14.18,-1.61 15.79,-0.30 17.40,1.01 18.52,2.84 19.64,4.67 20.77,7.43 21.89,10.18 22.58,13.72 23.27,17.26 22.90,20.67 22.54,24.08 21.27,26.49 20.01,28.89 18.10,30.99 16.19,33.09 13.18,35.02 10.17,36.95 7.25,37.52 4.33,38.08 1.04,37.93 -2.24,37.79 -5.66,36.89 -9.09,36.00 -11.56,33.98 -14.04,31.96 -15.74,28.79 -17.44,25.63 -17.46,22.95 -17.48,20.27 -16.56,16.68 -15.64,13.08 -13.97,10.00 -12.29,6.92 -10.46,5.15 -8.63,3.37 -6.78,2.12 -4.93,0.88 -3.65,0.35 -2.38,-0.16 -1.31,-0.38 -0.24,-0.60 -0.16,-0.63 -0.09,-0.65 -0.01,-0.65 0.06,-0.65 0.14,-0.63 0.22,-0.61 0.29,-0.58 0.36,-0.54 0.42,-0.49 0.48,-0.44 0.52,-0.37 0.57,-0.31 0.60,-0.24 0.63,-0.16 0.64,-0.09 0.65,-0.01 0.64,0.06 0.64,0.14 0.61,0.22 0.58,0.29 0.54,0.36 0.49,0.42 0.44,0.48 0.38,0.53 0.31,0.57 0.24,0.60 0.24,0.60 L 0.24,0.60 Z"/></g><g transform="translate(101.10520923849663 173.8888702392578) rotate(0 0.6944580078125 20.138900756835938)" stroke="none"><path fill="#1e1e1e" d="M 0.60,-0.24 Q 0.60,-0.24 1.32,0.64 2.03,1.52 2.30,4.33 2.57,7.14 2.49,11.91 2.41,16.69 2.57,21.04 2.73,25.39 2.74,29.07 2.75,32.75 2.39,36.11 2.02,39.48 2.01,39.58 1.99,39.69 1.94,39.78 1.89,39.88 1.82,39.95 1.74,40.03 1.65,40.07 1.55,40.12 1.44,40.13 1.34,40.14 1.24,40.12 1.13,40.10 1.04,40.05 0.95,39.99 0.88,39.91 0.81,39.83 0.77,39.73 0.73,39.64 0.72,39.53 0.71,39.42 0.74,39.32 0.77,39.22 0.83,39.13 0.89,39.04 0.97,38.98 1.05,38.91 1.15,38.88 1.25,38.84 1.36,38.84 1.47,38.84 1.57,38.87 1.67,38.90 1.75,38.97 1.84,39.03 1.90,39.12 1.96,39.20 1.99,39.31 2.02,39.41 2.01,39.51 2.01,39.62 1.97,39.72 1.93,39.82 1.87,39.90 1.80,39.98 1.71,40.04 1.62,40.09 1.51,40.12 1.41,40.14 1.30,40.13 1.20,40.12 1.10,40.08 1.00,40.03 0.93,39.96 0.85,39.89 0.80,39.80 0.75,39.70 0.73,39.60 0.71,39.49 0.71,39.49 0.71,39.49 0.27,36.14 -0.15,32.80 -0.27,29.14 -0.38,25.49 -0.51,21.05 -0.64,16.61 -0.47,11.97 -0.29,7.32 -0.36,4.89 -0.43,2.46 -0.52,1.35 -0.60,0.24 -0.63,0.16 -0.65,0.09 -0.65,0.01 -0.65,-0.06 -0.63,-0.14 -0.61,-0.22 -0.58,-0.29 -0.54,-0.36 -0.49,-0.42 -0.44,-0.48 -0.37,-0.52 -0.31,-0.57 -0.24,-0.60 -0.16,-0.63 -0.09,-0.64 -0.01,-0.65 0.06,-0.64 0.14,-0.64 0.22,-0.61 0.29,-0.58 0.36,-0.54 0.42,-0.49 0.48,-0.44 0.53,-0.38 0.57,-0.31 0.60,-0.24 0.60,-0.24 L 0.60,-0.24 Z"/></g><g transform="translate(337.9107512306841 178.74998474121094) rotate(0 7.638916015625 17.361114501953125)" stroke="none"><path fill="#1e1e1e" d="M -0.36,0.54 Q -0.36,0.54 -1.04,0.39 -1.73,0.24 -2.28,0.38 -2.82,0.52 -3.55,0.90 -4.28,1.27 -5.09,2.12 -5.90,2.97 -7.01,5.03 -8.12,7.09 -8.78,10.05 -9.45,13.01 -9.76,16.45 -10.07,19.89 -9.81,23.27 -9.56,26.66 -8.71,28.74 -7.87,30.83 -6.54,31.95 -5.21,33.07 -2.25,32.95 0.70,32.82 3.74,32.04 6.79,31.25 10.03,29.74 13.27,28.24 15.60,26.63 17.93,25.02 19.70,23.55 21.47,22.07 22.70,20.16 23.92,18.24 24.38,16.42 24.84,14.59 24.07,12.47 23.30,10.36 21.89,8.54 20.48,6.73 18.80,5.63 17.13,4.54 15.32,3.89 13.50,3.24 11.23,2.97 8.96,2.69 7.36,2.54 5.76,2.39 4.69,2.31 3.62,2.22 2.78,2.12 1.93,2.02 0.55,1.95 -0.83,1.88 -0.93,1.90 -1.03,1.92 -1.14,1.90 -1.24,1.89 -1.34,1.84 -1.43,1.80 -1.51,1.72 -1.59,1.65 -1.63,1.55 -1.68,1.46 -1.70,1.35 -1.71,1.25 -1.69,1.14 -1.67,1.04 -1.62,0.94 -1.57,0.85 -1.49,0.78 -1.41,0.71 -1.31,0.67 -1.21,0.62 -1.11,0.62 -1.00,0.61 -0.90,0.63 -0.80,0.66 -0.71,0.71 -0.62,0.77 -0.55,0.85 -0.48,0.94 -0.45,1.04 -0.41,1.14 -0.41,1.24 -0.40,1.35 -0.43,1.45 -0.46,1.55 -0.53,1.64 -0.59,1.72 -0.67,1.79 -0.76,1.85 -0.86,1.88 -0.96,1.91 -1.07,1.91 -1.18,1.91 -1.28,1.87 -1.37,1.83 -1.46,1.77 -1.54,1.70 -1.60,1.61 -1.66,1.52 -1.68,1.42 -1.71,1.32 -1.70,1.21 -1.69,1.10 -1.65,1.01 -1.61,0.91 -1.54,0.83 -1.47,0.75 -1.37,0.70 -1.28,0.65 -1.28,0.65 -1.28,0.65 0.36,0.04 2.00,-0.56 2.89,-0.61 3.77,-0.66 4.89,-0.63 6.01,-0.61 7.68,-0.49 9.35,-0.37 11.96,-0.02 14.57,0.32 16.72,1.16 18.86,1.99 20.87,3.43 22.88,4.88 24.50,7.16 26.12,9.44 26.85,12.28 27.58,15.11 26.87,17.41 26.17,19.71 24.64,21.86 23.11,24.02 21.23,25.55 19.34,27.08 16.82,28.78 14.31,30.47 10.85,32.05 7.39,33.62 4.06,34.45 0.73,35.27 -2.84,35.18 -6.42,35.09 -8.26,33.47 -10.10,31.85 -11.08,29.37 -12.06,26.88 -12.34,23.28 -12.63,19.67 -12.32,16.05 -12.02,12.43 -11.24,9.12 -10.47,5.81 -9.12,3.45 -7.78,1.08 -6.57,-0.00 -5.37,-1.10 -4.17,-1.55 -2.98,-2.00 -1.82,-1.92 -0.66,-1.84 -0.14,-1.19 0.36,-0.54 0.42,-0.49 0.48,-0.44 0.53,-0.37 0.57,-0.31 0.60,-0.24 0.63,-0.16 0.64,-0.08 0.65,-0.01 0.64,0.06 0.64,0.14 0.61,0.22 0.58,0.29 0.54,0.36 0.49,0.42 0.44,0.48 0.38,0.53 0.31,0.57 0.24,0.61 0.16,0.63 0.08,0.65 0.01,0.65 -0.06,0.65 -0.14,0.63 -0.22,0.61 -0.29,0.58 -0.36,0.54 -0.36,0.54 L -0.36,0.54 Z"/></g><g transform="translate(341.3830412697466 177.36109924316406) rotate(0 1.736083984375 19.097213745117188)" stroke="none"><path fill="#1e1e1e" d="M 0.65,-0.08 Q 0.65,-0.08 1.07,1.48 1.50,3.05 1.67,5.98 1.85,8.90 2.32,12.25 2.79,15.60 3.19,19.67 3.59,23.74 3.91,27.05 4.23,30.37 4.13,33.56 4.03,36.76 4.02,36.86 4.01,36.97 3.96,37.06 3.92,37.16 3.85,37.24 3.78,37.32 3.68,37.37 3.59,37.42 3.48,37.44 3.38,37.46 3.28,37.44 3.17,37.43 3.08,37.38 2.98,37.33 2.91,37.25 2.83,37.18 2.79,37.08 2.74,36.99 2.73,36.88 2.71,36.78 2.74,36.67 2.76,36.57 2.81,36.48 2.86,36.38 2.94,36.31 3.02,36.24 3.12,36.20 3.22,36.16 3.33,36.16 3.43,36.15 3.53,36.17 3.64,36.20 3.73,36.26 3.81,36.32 3.88,36.40 3.95,36.49 3.98,36.59 4.02,36.69 4.02,36.79 4.02,36.90 3.99,37.00 3.96,37.10 3.89,37.19 3.83,37.27 3.74,37.33 3.66,37.39 3.55,37.42 3.45,37.45 3.35,37.45 3.24,37.45 3.14,37.41 3.04,37.37 2.96,37.30 2.88,37.23 2.82,37.14 2.76,37.05 2.74,36.95 2.72,36.85 2.72,36.85 2.72,36.85 2.18,33.75 1.64,30.65 1.23,27.33 0.82,24.00 0.45,19.98 0.08,15.95 -0.31,12.46 -0.71,8.98 -0.71,6.15 -0.70,3.33 -0.67,1.70 -0.65,0.08 -0.65,0.00 -0.65,-0.07 -0.63,-0.15 -0.61,-0.23 -0.57,-0.30 -0.54,-0.37 -0.48,-0.43 -0.43,-0.48 -0.37,-0.53 -0.30,-0.58 -0.23,-0.60 -0.15,-0.63 -0.08,-0.64 -0.00,-0.65 0.07,-0.64 0.15,-0.63 0.22,-0.61 0.30,-0.58 0.36,-0.53 0.43,-0.49 0.48,-0.43 0.53,-0.37 0.57,-0.30 0.61,-0.23 0.63,-0.15 0.65,-0.08 0.65,-0.08 L 0.65,-0.08 Z"/></g><g transform="translate(89.99412525412163 92.63887023925781) rotate(0 3.472198486328125 6.9444580078125)" stroke="none"><path fill="#1e1e1e" d="M -0.29,0.58 Q -0.29,0.58 -1.19,0.39 -2.08,0.20 -2.72,0.14 -3.35,0.08 -3.95,0.06 -4.56,0.04 -5.16,0.41 -5.76,0.77 -6.64,1.30 -7.53,1.83 -8.37,2.76 -9.21,3.68 -9.92,4.96 -10.63,6.23 -10.88,8.38 -11.14,10.52 -10.71,12.46 -10.28,14.41 -9.01,16.07 -7.74,17.74 -6.13,19.00 -4.51,20.26 -2.24,20.73 0.03,21.20 2.08,21.04 4.14,20.88 6.30,20.07 8.45,19.25 10.29,17.97 12.12,16.70 13.86,15.03 15.59,13.36 16.40,11.06 17.21,8.77 17.39,6.90 17.56,5.04 16.89,2.85 16.21,0.67 14.85,-0.91 13.49,-2.51 11.79,-3.76 10.09,-5.02 8.24,-5.93 6.39,-6.84 4.90,-7.21 3.42,-7.57 2.06,-7.76 0.69,-7.96 -0.05,-7.74 -0.81,-7.52 -2.59,-6.57 -4.38,-5.61 -4.47,-5.57 -4.56,-5.52 -4.67,-5.50 -4.77,-5.48 -4.88,-5.50 -4.98,-5.52 -5.08,-5.57 -5.17,-5.62 -5.24,-5.69 -5.32,-5.77 -5.36,-5.87 -5.41,-5.96 -5.42,-6.07 -5.43,-6.18 -5.40,-6.28 -5.38,-6.38 -5.33,-6.47 -5.27,-6.57 -5.19,-6.63 -5.11,-6.70 -5.01,-6.74 -4.91,-6.78 -4.81,-6.79 -4.70,-6.79 -4.60,-6.76 -4.50,-6.73 -4.41,-6.67 -4.32,-6.61 -4.26,-6.53 -4.19,-6.44 -4.16,-6.34 -4.12,-6.24 -4.12,-6.14 -4.12,-6.03 -4.16,-5.93 -4.19,-5.83 -4.26,-5.74 -4.32,-5.66 -4.41,-5.60 -4.50,-5.54 -4.60,-5.51 -4.70,-5.49 -4.81,-5.49 -4.92,-5.50 -5.01,-5.54 -5.11,-5.58 -5.19,-5.65 -5.27,-5.72 -5.33,-5.81 -5.38,-5.90 -5.41,-6.00 -5.43,-6.11 -5.42,-6.21 -5.40,-6.32 -5.36,-6.41 -5.31,-6.51 -5.24,-6.59 -5.17,-6.66 -5.17,-6.66 -5.17,-6.66 -3.42,-8.38 -1.67,-10.10 -0.36,-10.52 0.94,-10.95 2.57,-10.78 4.20,-10.62 5.99,-10.14 7.78,-9.67 9.88,-8.60 11.99,-7.54 13.96,-6.02 15.93,-4.50 17.56,-2.39 19.19,-0.27 19.93,2.50 20.67,5.28 20.40,7.58 20.14,9.87 18.98,12.69 17.82,15.50 15.85,17.38 13.88,19.27 11.71,20.72 9.54,22.17 6.95,23.07 4.37,23.98 1.86,24.10 -0.64,24.23 -3.48,23.48 -6.32,22.74 -8.28,21.15 -10.24,19.56 -11.75,17.34 -13.26,15.12 -13.73,12.63 -14.19,10.13 -13.74,7.46 -13.30,4.78 -12.34,3.18 -11.38,1.58 -10.19,0.44 -9.00,-0.70 -7.92,-1.28 -6.84,-1.86 -5.64,-2.23 -4.44,-2.61 -3.61,-2.48 -2.79,-2.36 -1.95,-2.08 -1.10,-1.79 -0.40,-1.19 0.29,-0.58 0.35,-0.54 0.42,-0.49 0.47,-0.44 0.53,-0.38 0.57,-0.31 0.60,-0.24 0.62,-0.16 0.65,-0.09 0.65,-0.01 0.65,0.06 0.63,0.14 0.61,0.22 0.58,0.29 0.54,0.36 0.49,0.42 0.44,0.48 0.38,0.52 0.31,0.57 0.24,0.60 0.16,0.63 0.09,0.64 0.01,0.65 -0.06,0.64 -0.14,0.64 -0.21,0.61 -0.29,0.58 -0.29,0.58 L -0.29,0.58 Z"/></g><g transform="translate(89.99412525412163 88.47221374511719) rotate(0 1.388885498046875 14.583328247070312)" stroke="none"><path fill="#1e1e1e" d="M 0.58,-0.29 Q 0.58,-0.29 1.52,0.76 2.45,1.82 2.63,4.19 2.80,6.56 2.87,9.87 2.94,13.17 3.16,16.12 3.38,19.06 3.43,21.77 3.47,24.47 3.42,27.20 3.36,29.94 3.36,30.04 3.35,30.15 3.31,30.25 3.28,30.35 3.21,30.43 3.14,30.51 3.05,30.57 2.96,30.62 2.85,30.65 2.75,30.67 2.65,30.66 2.54,30.65 2.44,30.61 2.35,30.56 2.27,30.49 2.19,30.42 2.14,30.32 2.09,30.23 2.07,30.13 2.05,30.02 2.07,29.92 2.09,29.81 2.13,29.72 2.18,29.62 2.26,29.55 2.34,29.48 2.43,29.43 2.53,29.38 2.63,29.37 2.74,29.36 2.84,29.38 2.95,29.40 3.04,29.46 3.13,29.51 3.20,29.59 3.27,29.67 3.31,29.77 3.35,29.87 3.36,29.97 3.36,30.08 3.34,30.18 3.31,30.29 3.25,30.37 3.19,30.46 3.11,30.53 3.02,30.59 2.92,30.63 2.82,30.66 2.72,30.66 2.61,30.66 2.51,30.63 2.41,30.60 2.32,30.53 2.24,30.47 2.18,30.38 2.12,30.30 2.09,30.19 2.06,30.09 2.06,30.09 2.06,30.09 1.24,27.33 0.42,24.57 0.29,21.93 0.16,19.29 -0.03,16.24 -0.23,13.20 -0.21,9.92 -0.19,6.64 -0.12,4.80 -0.06,2.96 -0.32,1.62 -0.58,0.29 -0.61,0.21 -0.64,0.14 -0.64,0.06 -0.65,-0.01 -0.64,-0.09 -0.63,-0.16 -0.60,-0.24 -0.57,-0.31 -0.52,-0.38 -0.48,-0.44 -0.42,-0.49 -0.36,-0.54 -0.29,-0.58 -0.22,-0.61 -0.14,-0.63 -0.06,-0.65 0.01,-0.65 0.09,-0.65 0.16,-0.62 0.24,-0.60 0.31,-0.57 0.38,-0.53 0.44,-0.47 0.50,-0.42 0.54,-0.35 0.58,-0.29 0.58,-0.29 L 0.58,-0.29 Z"/></g><g transform="translate(213.60520923849663 196.11109924316406) rotate(0 3.47222900390625 -4.513885498046875)" stroke="none"><path fill="#1e1e1e" d="M -0.62,0.20 Q -0.62,0.20 -1.07,-0.34 -1.52,-0.89 -1.44,-1.80 -1.37,-2.71 -1.33,-3.54 -1.29,-4.37 -0.81,-5.39 -0.33,-6.40 0.51,-7.43 1.35,-8.47 2.18,-9.15 3.00,-9.84 3.91,-10.19 4.82,-10.55 6.20,-10.48 7.58,-10.41 8.51,-9.88 9.44,-9.36 10.23,-8.68 11.02,-8.00 11.50,-6.65 11.98,-5.30 11.73,-3.76 11.48,-2.21 10.91,-1.09 10.34,0.01 9.59,0.96 8.85,1.90 7.27,2.45 5.69,3.00 4.29,2.96 2.89,2.91 1.29,1.99 -0.30,1.07 -1.56,-0.18 -2.83,-1.43 -3.61,-2.65 -4.39,-3.88 -4.75,-5.14 -5.11,-6.41 -4.94,-7.67 -4.78,-8.92 -3.53,-10.01 -2.28,-11.09 -0.60,-11.49 1.06,-11.89 3.69,-11.81 6.32,-11.72 6.43,-11.71 6.54,-11.70 6.63,-11.66 6.73,-11.62 6.81,-11.54 6.88,-11.47 6.94,-11.38 6.99,-11.29 7.00,-11.18 7.02,-11.08 7.01,-10.97 6.99,-10.87 6.94,-10.77 6.89,-10.68 6.82,-10.60 6.74,-10.53 6.64,-10.48 6.55,-10.44 6.44,-10.43 6.34,-10.41 6.23,-10.44 6.13,-10.46 6.04,-10.51 5.95,-10.56 5.88,-10.65 5.81,-10.73 5.77,-10.82 5.73,-10.92 5.72,-11.03 5.71,-11.13 5.74,-11.24 5.77,-11.34 5.83,-11.43 5.88,-11.52 5.97,-11.58 6.05,-11.65 6.15,-11.68 6.25,-11.72 6.36,-11.72 6.47,-11.72 6.57,-11.69 6.67,-11.65 6.75,-11.59 6.84,-11.53 6.90,-11.44 6.96,-11.35 6.99,-11.25 7.02,-11.15 7.01,-11.04 7.01,-10.93 6.97,-10.84 6.93,-10.74 6.86,-10.65 6.80,-10.57 6.70,-10.52 6.61,-10.46 6.51,-10.44 6.41,-10.41 6.41,-10.41 6.41,-10.41 4.02,-9.89 1.63,-9.36 0.43,-9.12 -0.76,-8.87 -1.55,-7.99 -2.35,-7.11 -2.13,-6.25 -1.91,-5.40 -1.32,-4.45 -0.73,-3.50 0.29,-2.46 1.31,-1.41 2.27,-0.69 3.23,0.02 4.10,0.09 4.97,0.16 5.92,0.03 6.86,-0.08 7.35,-0.73 7.85,-1.37 8.31,-2.11 8.77,-2.85 9.07,-3.79 9.37,-4.73 9.27,-5.48 9.17,-6.22 8.60,-6.72 8.02,-7.21 7.62,-7.56 7.22,-7.91 5.89,-7.88 4.56,-7.84 3.92,-7.34 3.28,-6.84 2.57,-6.02 1.86,-5.19 1.50,-4.66 1.15,-4.14 0.93,-2.82 0.72,-1.50 0.67,-0.85 0.62,-0.20 0.63,-0.13 0.65,-0.05 0.65,0.02 0.64,0.10 0.62,0.18 0.60,0.25 0.56,0.32 0.52,0.39 0.46,0.45 0.41,0.50 0.34,0.55 0.28,0.59 0.20,0.61 0.13,0.64 0.05,0.64 -0.02,0.65 -0.10,0.64 -0.18,0.63 -0.25,0.59 -0.32,0.56 -0.39,0.52 -0.45,0.47 -0.50,0.41 -0.55,0.35 -0.58,0.27 -0.62,0.20 -0.62,0.20 L -0.62,0.20 Z"/></g><g transform="translate(211.52183521505913 103.05555725097656) rotate(0 1.73614501953125 -5.9027862548828125)" stroke="none"><path fill="#1e1e1e" d="M 0.20,0.62 Q 0.20,0.62 -0.32,1.03 -0.85,1.45 -1.59,1.61 -2.34,1.78 -3.02,1.79 -3.69,1.80 -4.65,1.11 -5.61,0.42 -6.20,-0.58 -6.79,-1.58 -7.07,-2.95 -7.34,-4.32 -7.23,-5.61 -7.12,-6.90 -6.40,-8.41 -5.67,-9.92 -4.41,-11.07 -3.15,-12.23 -1.22,-12.76 0.70,-13.30 2.59,-13.29 4.48,-13.28 5.85,-12.80 7.23,-12.33 8.40,-11.12 9.57,-9.90 9.90,-8.14 10.23,-6.39 9.88,-4.91 9.53,-3.44 8.66,-2.08 7.78,-0.73 5.97,0.13 4.16,1.00 2.27,1.05 0.39,1.09 -1.84,0.28 -4.07,-0.52 -4.17,-0.56 -4.27,-0.60 -4.35,-0.67 -4.43,-0.74 -4.48,-0.83 -4.53,-0.93 -4.55,-1.03 -4.57,-1.13 -4.56,-1.24 -4.55,-1.35 -4.50,-1.44 -4.45,-1.54 -4.38,-1.61 -4.30,-1.69 -4.21,-1.73 -4.11,-1.78 -4.01,-1.80 -3.90,-1.81 -3.80,-1.79 -3.69,-1.77 -3.60,-1.72 -3.51,-1.67 -3.44,-1.59 -3.36,-1.51 -3.32,-1.42 -3.28,-1.32 -3.27,-1.21 -3.26,-1.11 -3.29,-1.00 -3.31,-0.90 -3.37,-0.81 -3.43,-0.72 -3.51,-0.65 -3.59,-0.59 -3.69,-0.55 -3.79,-0.51 -3.90,-0.51 -4.00,-0.50 -4.10,-0.54 -4.20,-0.57 -4.29,-0.63 -4.38,-0.69 -4.44,-0.77 -4.50,-0.86 -4.53,-0.96 -4.57,-1.06 -4.56,-1.17 -4.56,-1.28 -4.53,-1.38 -4.49,-1.48 -4.42,-1.56 -4.36,-1.64 -4.27,-1.70 -4.18,-1.76 -4.08,-1.78 -3.97,-1.81 -3.87,-1.80 -3.76,-1.79 -3.76,-1.79 -3.76,-1.79 -1.73,-1.57 0.29,-1.34 1.68,-1.47 3.08,-1.60 4.29,-2.07 5.50,-2.54 6.10,-3.40 6.70,-4.26 7.00,-5.19 7.31,-6.11 7.29,-7.18 7.27,-8.24 6.69,-8.98 6.11,-9.71 5.24,-10.06 4.37,-10.41 2.86,-10.46 1.35,-10.51 -0.03,-10.25 -1.41,-10.00 -2.29,-9.28 -3.18,-8.56 -3.75,-7.54 -4.32,-6.53 -4.45,-5.64 -4.57,-4.75 -4.46,-3.80 -4.35,-2.85 -4.03,-2.16 -3.71,-1.48 -3.18,-1.06 -2.66,-0.64 -2.10,-0.64 -1.54,-0.65 -0.87,-0.63 -0.20,-0.62 -0.13,-0.63 -0.05,-0.65 0.02,-0.65 0.10,-0.64 0.18,-0.62 0.25,-0.60 0.32,-0.56 0.39,-0.52 0.45,-0.46 0.50,-0.41 0.55,-0.34 0.59,-0.28 0.61,-0.20 0.64,-0.13 0.64,-0.05 0.65,0.02 0.64,0.10 0.63,0.18 0.59,0.25 0.56,0.32 0.52,0.39 0.47,0.45 0.41,0.50 0.35,0.55 0.27,0.58 0.20,0.62 0.20,0.62 L 0.20,0.62 Z"/></g><g transform="translate(210.13304126974663 66.94444274902344) rotate(0 0.69439697265625 -6.9444427490234375)" stroke="none"><path fill="#1e1e1e" d="M 0.20,0.62 Q 0.20,0.62 -0.92,1.25 -2.05,1.88 -3.18,1.93 -4.30,1.98 -5.37,1.50 -6.44,1.03 -7.21,0.05 -7.98,-0.91 -8.32,-2.50 -8.66,-4.08 -8.36,-5.88 -8.06,-7.68 -7.28,-9.50 -6.50,-11.33 -5.25,-12.63 -4.00,-13.94 -2.73,-14.72 -1.45,-15.50 0.33,-15.47 2.13,-15.44 3.71,-14.95 5.29,-14.47 6.52,-13.55 7.74,-12.64 8.54,-11.29 9.35,-9.93 9.50,-8.56 9.65,-7.19 9.24,-5.86 8.83,-4.54 7.76,-3.08 6.70,-1.63 5.27,-0.76 3.85,0.10 1.89,0.36 -0.06,0.61 -2.06,0.31 -4.06,0.00 -4.16,-0.01 -4.26,-0.04 -4.36,-0.09 -4.45,-0.15 -4.52,-0.23 -4.58,-0.31 -4.62,-0.41 -4.66,-0.50 -4.67,-0.61 -4.68,-0.72 -4.65,-0.82 -4.62,-0.92 -4.56,-1.01 -4.50,-1.10 -4.42,-1.16 -4.33,-1.23 -4.23,-1.26 -4.13,-1.29 -4.03,-1.29 -3.92,-1.30 -3.82,-1.26 -3.72,-1.23 -3.63,-1.16 -3.55,-1.10 -3.49,-1.01 -3.43,-0.92 -3.40,-0.82 -3.37,-0.72 -3.38,-0.61 -3.38,-0.51 -3.42,-0.41 -3.46,-0.31 -3.53,-0.23 -3.60,-0.15 -3.69,-0.09 -3.78,-0.04 -3.88,-0.01 -3.99,0.00 -4.09,-0.00 -4.20,-0.01 -4.29,-0.06 -4.39,-0.10 -4.47,-0.18 -4.54,-0.25 -4.59,-0.34 -4.64,-0.44 -4.66,-0.54 -4.68,-0.65 -4.66,-0.75 -4.65,-0.85 -4.60,-0.95 -4.55,-1.04 -4.47,-1.12 -4.39,-1.19 -4.30,-1.23 -4.20,-1.28 -4.10,-1.29 -3.99,-1.30 -3.99,-1.30 -3.99,-1.30 -2.21,-1.42 -0.43,-1.53 1.02,-1.90 2.48,-2.26 3.47,-2.85 4.46,-3.44 5.30,-4.48 6.14,-5.53 6.48,-6.32 6.82,-7.11 6.83,-7.90 6.85,-8.69 6.40,-9.60 5.96,-10.52 5.18,-11.18 4.40,-11.85 3.15,-12.26 1.90,-12.67 0.79,-12.87 -0.31,-13.06 -1.18,-12.51 -2.04,-11.95 -3.01,-11.04 -3.97,-10.14 -4.65,-8.64 -5.32,-7.13 -5.63,-5.81 -5.94,-4.48 -5.82,-3.42 -5.71,-2.35 -5.41,-1.77 -5.11,-1.20 -4.61,-0.85 -4.11,-0.50 -3.42,-0.39 -2.73,-0.28 -1.46,-0.45 -0.20,-0.62 -0.13,-0.63 -0.05,-0.65 0.02,-0.65 0.10,-0.64 0.18,-0.62 0.25,-0.60 0.32,-0.56 0.39,-0.52 0.45,-0.46 0.50,-0.41 0.55,-0.34 0.59,-0.28 0.61,-0.20 0.64,-0.13 0.64,-0.05 0.65,0.02 0.64,0.10 0.63,0.18 0.59,0.25 0.56,0.32 0.52,0.39 0.47,0.45 0.41,0.50 0.35,0.55 0.27,0.58 0.20,0.62 0.20,0.62 L 0.20,0.62 Z"/></g><g transform="translate(212.21629322287163 31.52777099609375) rotate(0 2.77783203125 -5.902778625488281)" stroke="none"><path fill="#1e1e1e" d="M -0.33,0.56 Q -0.33,0.56 -1.53,0.27 -2.72,-0.00 -3.72,-0.98 -4.71,-1.96 -5.23,-3.40 -5.74,-4.83 -5.72,-6.55 -5.71,-8.28 -5.24,-9.73 -4.78,-11.18 -3.86,-12.34 -2.94,-13.50 -1.57,-14.27 -0.21,-15.04 1.76,-15.16 3.74,-15.29 5.29,-14.88 6.84,-14.47 8.05,-13.57 9.27,-12.67 10.07,-11.34 10.86,-10.01 11.21,-8.72 11.55,-7.43 11.27,-5.83 10.98,-4.23 9.95,-2.64 8.91,-1.04 7.36,0.25 5.80,1.55 3.97,2.29 2.13,3.03 -0.50,2.57 -3.15,2.10 -3.25,2.08 -3.36,2.06 -3.45,2.00 -3.54,1.95 -3.61,1.86 -3.68,1.78 -3.71,1.68 -3.75,1.59 -3.76,1.48 -3.76,1.37 -3.73,1.27 -3.70,1.17 -3.64,1.08 -3.58,0.99 -3.50,0.93 -3.41,0.87 -3.31,0.83 -3.21,0.80 -3.10,0.80 -3.00,0.80 -2.90,0.84 -2.80,0.87 -2.71,0.94 -2.63,1.00 -2.57,1.09 -2.51,1.18 -2.48,1.28 -2.46,1.38 -2.46,1.49 -2.47,1.60 -2.51,1.69 -2.55,1.79 -2.62,1.87 -2.69,1.95 -2.78,2.01 -2.87,2.06 -2.98,2.08 -3.08,2.11 -3.19,2.09 -3.29,2.08 -3.39,2.04 -3.48,1.99 -3.56,1.92 -3.64,1.84 -3.69,1.75 -3.73,1.65 -3.75,1.55 -3.77,1.44 -3.75,1.34 -3.73,1.23 -3.68,1.14 -3.63,1.05 -3.55,0.98 -3.47,0.90 -3.38,0.86 -3.28,0.82 -3.17,0.80 -3.07,0.79 -3.07,0.79 -3.07,0.79 -0.95,0.63 1.16,0.46 2.51,-0.18 3.85,-0.83 5.08,-1.86 6.30,-2.89 7.11,-3.96 7.92,-5.03 8.21,-5.94 8.51,-6.85 8.34,-7.71 8.17,-8.58 7.75,-9.49 7.34,-10.40 6.64,-11.02 5.94,-11.64 4.86,-11.98 3.79,-12.32 2.41,-12.35 1.03,-12.37 0.14,-11.95 -0.74,-11.54 -1.37,-10.85 -2.01,-10.16 -2.39,-9.15 -2.77,-8.14 -2.85,-6.88 -2.94,-5.62 -2.75,-4.73 -2.56,-3.84 -1.91,-3.11 -1.26,-2.39 -0.46,-1.47 0.33,-0.56 0.40,-0.51 0.46,-0.46 0.51,-0.40 0.56,-0.34 0.59,-0.26 0.62,-0.19 0.64,-0.11 0.65,-0.04 0.65,0.03 0.64,0.11 0.62,0.19 0.59,0.26 0.55,0.33 0.51,0.40 0.46,0.45 0.40,0.51 0.33,0.55 0.27,0.59 0.19,0.62 0.12,0.64 0.04,0.65 -0.03,0.65 -0.11,0.64 -0.19,0.62 -0.26,0.59 -0.33,0.56 -0.33,0.56 L -0.33,0.56 Z"/></g><g transform="translate(74.71635425802788 47.49998474121094) rotate(0 11.8055419921875 11.805557250976562)" stroke="none"><path fill="#1e1e1e" d="M -0.36,0.54 Q -0.36,0.54 -1.05,0.27 -1.73,0.00 -2.24,-0.35 -2.75,-0.72 -3.40,-0.29 -4.05,0.14 -4.35,0.64 -4.66,1.14 -4.93,2.60 -5.20,4.06 -4.93,6.98 -4.67,9.90 -3.98,12.29 -3.30,14.68 -2.08,16.57 -0.86,18.47 1.34,20.19 3.55,21.91 5.98,22.82 8.41,23.72 10.73,23.90 13.04,24.09 15.07,23.40 17.10,22.72 19.11,21.48 21.12,20.23 22.53,18.95 23.95,17.66 25.10,16.17 26.25,14.67 27.08,12.93 27.92,11.18 28.03,9.83 28.15,8.48 27.65,7.08 27.15,5.69 26.24,4.39 25.32,3.08 23.88,2.23 22.45,1.39 20.83,0.59 19.21,-0.20 17.86,-0.50 16.51,-0.80 14.71,-0.54 12.92,-0.28 11.15,0.18 9.39,0.66 7.63,1.22 5.87,1.79 4.57,2.36 3.26,2.93 1.30,4.06 -0.66,5.18 -0.75,5.22 -0.85,5.26 -0.96,5.27 -1.07,5.27 -1.17,5.25 -1.27,5.22 -1.36,5.16 -1.45,5.10 -1.51,5.02 -1.58,4.93 -1.61,4.83 -1.65,4.73 -1.65,4.62 -1.65,4.52 -1.61,4.42 -1.58,4.32 -1.52,4.23 -1.45,4.15 -1.36,4.09 -1.28,4.03 -1.17,4.00 -1.07,3.97 -0.97,3.97 -0.86,3.98 -0.76,4.02 -0.66,4.06 -0.58,4.13 -0.50,4.19 -0.44,4.28 -0.39,4.38 -0.37,4.48 -0.34,4.58 -0.35,4.69 -0.36,4.79 -0.41,4.89 -0.45,4.99 -0.53,5.06 -0.60,5.14 -0.69,5.19 -0.79,5.24 -0.89,5.26 -0.99,5.28 -1.10,5.26 -1.20,5.24 -1.30,5.20 -1.39,5.15 -1.47,5.07 -1.54,4.99 -1.58,4.90 -1.63,4.80 -1.64,4.69 -1.65,4.59 -1.63,4.48 -1.61,4.38 -1.55,4.29 -1.50,4.20 -1.42,4.13 -1.34,4.06 -1.34,4.06 -1.34,4.06 0.39,2.36 2.14,0.67 3.55,-0.07 4.97,-0.82 6.80,-1.49 8.62,-2.15 10.59,-2.68 12.56,-3.22 14.84,-3.45 17.13,-3.69 18.82,-3.27 20.51,-2.86 22.27,-1.97 24.03,-1.09 25.86,0.14 27.68,1.37 28.80,3.09 29.92,4.80 30.45,6.76 30.99,8.72 30.71,10.55 30.44,12.38 29.42,14.37 28.40,16.35 27.06,18.00 25.73,19.65 24.11,21.07 22.48,22.48 20.18,23.83 17.88,25.18 15.38,25.90 12.89,26.63 10.20,26.37 7.52,26.10 4.76,25.01 2.00,23.92 -0.48,21.88 -2.97,19.85 -4.34,17.62 -5.71,15.38 -6.43,12.74 -7.16,10.10 -7.38,6.83 -7.60,3.56 -7.14,1.72 -6.69,-0.11 -6.22,-0.80 -5.75,-1.49 -5.06,-2.07 -4.37,-2.66 -3.49,-2.76 -2.60,-2.86 -2.03,-2.60 -1.46,-2.35 -1.06,-1.97 -0.65,-1.60 -0.14,-1.07 0.36,-0.54 0.42,-0.49 0.48,-0.44 0.53,-0.37 0.57,-0.31 0.60,-0.24 0.63,-0.16 0.64,-0.08 0.65,-0.01 0.64,0.06 0.64,0.14 0.61,0.22 0.58,0.29 0.54,0.36 0.49,0.42 0.44,0.48 0.38,0.53 0.31,0.57 0.24,0.61 0.16,0.63 0.08,0.65 0.01,0.65 -0.06,0.65 -0.14,0.63 -0.22,0.61 -0.29,0.58 -0.36,0.54 -0.36,0.54 L -0.36,0.54 Z"/></g><g transform="translate(83.04966724630913 46.11109924316406) rotate(0 0.34722900390625 12.5)" stroke="none"><path fill="#1e1e1e" d="M 0.64,-0.12 Q 0.64,-0.12 1.01,0.83 1.39,1.79 1.56,3.48 1.73,5.17 1.84,7.68 1.95,10.19 1.99,12.85 2.03,15.51 2.00,17.64 1.96,19.76 1.65,21.91 1.34,24.05 1.33,24.15 1.31,24.26 1.26,24.35 1.21,24.45 1.13,24.52 1.06,24.59 0.96,24.64 0.86,24.68 0.76,24.70 0.65,24.71 0.55,24.68 0.45,24.66 0.35,24.61 0.26,24.55 0.19,24.47 0.13,24.39 0.09,24.29 0.05,24.19 0.04,24.09 0.03,23.98 0.06,23.88 0.09,23.78 0.15,23.69 0.21,23.60 0.29,23.54 0.38,23.47 0.48,23.44 0.58,23.40 0.69,23.40 0.79,23.40 0.89,23.44 0.99,23.47 1.08,23.53 1.16,23.60 1.22,23.69 1.28,23.77 1.31,23.88 1.34,23.98 1.33,24.09 1.33,24.19 1.29,24.29 1.25,24.39 1.18,24.47 1.11,24.55 1.02,24.61 0.93,24.66 0.83,24.68 0.72,24.71 0.62,24.70 0.51,24.68 0.42,24.64 0.32,24.60 0.24,24.52 0.17,24.45 0.12,24.36 0.07,24.26 0.05,24.16 0.03,24.05 0.03,24.05 0.03,24.05 -0.28,21.91 -0.59,19.77 -0.64,17.65 -0.69,15.52 -0.68,12.88 -0.67,10.23 -0.63,7.76 -0.59,5.30 -0.59,3.74 -0.59,2.19 -0.61,1.16 -0.64,0.12 -0.64,0.04 -0.65,-0.02 -0.64,-0.10 -0.62,-0.18 -0.59,-0.25 -0.56,-0.33 -0.51,-0.39 -0.47,-0.45 -0.41,-0.50 -0.34,-0.55 -0.27,-0.59 -0.20,-0.62 -0.12,-0.63 -0.05,-0.65 0.02,-0.65 0.10,-0.64 0.18,-0.62 0.25,-0.60 0.32,-0.56 0.39,-0.52 0.45,-0.46 0.51,-0.41 0.55,-0.34 0.59,-0.27 0.61,-0.20 0.64,-0.12 0.64,-0.12 L 0.64,-0.12 Z"/></g><g transform="translate(89.29966724630913 39.166656494140625) rotate(0 -0.694427490234375 -12.15277099609375)" stroke="none"><path fill="#1e1e1e" d="M 0.20,0.62 Q 0.20,0.62 -0.92,1.23 -2.05,1.84 -3.46,2.08 -4.87,2.32 -6.64,2.02 -8.40,1.71 -10.46,0.52 -12.53,-0.66 -14.23,-2.21 -15.93,-3.77 -17.31,-5.70 -18.68,-7.63 -19.50,-9.54 -20.32,-11.45 -20.48,-13.63 -20.64,-15.82 -20.05,-17.70 -19.46,-19.59 -17.49,-21.91 -15.52,-24.23 -12.56,-25.86 -9.60,-27.49 -5.85,-28.38 -2.10,-29.27 1.41,-29.04 4.94,-28.81 7.78,-27.63 10.62,-26.46 12.96,-23.83 15.30,-21.20 16.68,-18.62 18.07,-16.04 18.50,-13.58 18.94,-11.12 18.29,-8.11 17.65,-5.10 16.31,-2.54 14.97,0.01 12.81,1.84 10.65,3.66 7.48,4.21 4.30,4.76 -0.43,2.71 -5.16,0.67 -5.25,0.61 -5.35,0.56 -5.42,0.48 -5.49,0.40 -5.53,0.30 -5.57,0.21 -5.58,0.10 -5.59,-0.00 -5.56,-0.10 -5.53,-0.20 -5.48,-0.29 -5.42,-0.38 -5.34,-0.45 -5.25,-0.51 -5.15,-0.55 -5.05,-0.59 -4.95,-0.59 -4.84,-0.59 -4.74,-0.56 -4.64,-0.53 -4.55,-0.46 -4.47,-0.40 -4.40,-0.32 -4.34,-0.23 -4.31,-0.13 -4.28,-0.03 -4.28,0.07 -4.29,0.18 -4.32,0.28 -4.36,0.38 -4.43,0.46 -4.50,0.54 -4.59,0.60 -4.68,0.65 -4.78,0.68 -4.88,0.70 -4.99,0.70 -5.09,0.69 -5.19,0.64 -5.29,0.60 -5.37,0.53 -5.45,0.46 -5.50,0.37 -5.55,0.27 -5.57,0.17 -5.59,0.06 -5.57,-0.03 -5.56,-0.14 -5.51,-0.23 -5.46,-0.33 -5.39,-0.40 -5.31,-0.48 -5.22,-0.52 -5.12,-0.57 -5.02,-0.58 -4.91,-0.60 -4.81,-0.58 -4.70,-0.56 -4.70,-0.56 -4.70,-0.56 -0.33,0.79 4.03,2.14 6.50,1.72 8.96,1.31 10.68,-0.07 12.40,-1.45 13.61,-3.62 14.81,-5.79 15.47,-8.28 16.13,-10.76 15.86,-12.77 15.59,-14.79 14.39,-17.10 13.19,-19.41 11.31,-21.71 9.44,-24.01 7.07,-25.04 4.69,-26.08 1.58,-26.33 -1.51,-26.59 -4.92,-25.82 -8.32,-25.05 -10.91,-23.71 -13.49,-22.36 -15.19,-20.50 -16.88,-18.64 -17.39,-17.27 -17.89,-15.90 -17.83,-14.18 -17.76,-12.46 -17.10,-10.82 -16.43,-9.18 -15.26,-7.46 -14.08,-5.73 -12.61,-4.32 -11.14,-2.91 -9.48,-1.83 -7.83,-0.74 -6.48,-0.39 -5.14,-0.05 -3.94,-0.14 -2.73,-0.24 -1.47,-0.43 -0.20,-0.62 -0.13,-0.63 -0.05,-0.65 0.02,-0.65 0.10,-0.64 0.18,-0.62 0.25,-0.60 0.32,-0.56 0.39,-0.52 0.45,-0.46 0.50,-0.41 0.55,-0.34 0.59,-0.28 0.61,-0.20 0.64,-0.13 0.64,-0.05 0.65,0.02 0.64,0.10 0.63,0.18 0.59,0.25 0.56,0.32 0.52,0.39 0.47,0.45 0.41,0.50 0.35,0.55 0.27,0.58 0.20,0.62 0.20,0.62 L 0.20,0.62 Z"/></g><g transform="translate(83.74412525412163 10.694442749023438) rotate(0 0.694427490234375 15.625)" stroke="none"><path fill="#1e1e1e" d="M 0.65,-0.09 Q 0.65,-0.09 1.14,1.26 1.63,2.61 1.97,4.81 2.31,7.00 2.27,10.43 2.24,13.86 2.34,17.42 2.44,20.99 1.93,25.21 1.43,29.43 1.40,29.54 1.38,29.64 1.33,29.73 1.28,29.82 1.20,29.89 1.11,29.96 1.02,30.00 0.92,30.04 0.81,30.05 0.71,30.06 0.60,30.03 0.50,30.00 0.41,29.94 0.32,29.88 0.26,29.80 0.19,29.72 0.16,29.62 0.12,29.52 0.12,29.41 0.12,29.30 0.15,29.20 0.19,29.10 0.25,29.02 0.31,28.93 0.40,28.87 0.49,28.81 0.59,28.78 0.69,28.75 0.80,28.76 0.91,28.76 1.00,28.80 1.10,28.84 1.19,28.90 1.27,28.97 1.32,29.06 1.38,29.15 1.40,29.26 1.43,29.36 1.42,29.47 1.40,29.57 1.36,29.67 1.32,29.77 1.25,29.84 1.17,29.92 1.08,29.97 0.99,30.02 0.88,30.04 0.78,30.06 0.67,30.04 0.57,30.03 0.47,29.98 0.38,29.93 0.30,29.85 0.23,29.78 0.19,29.68 0.14,29.58 0.13,29.48 0.11,29.37 0.11,29.37 0.11,29.37 -0.02,25.24 -0.16,21.11 -0.39,17.45 -0.61,13.79 -0.49,10.57 -0.37,7.34 -0.60,5.16 -0.83,2.97 -0.74,1.53 -0.65,0.09 -0.65,0.01 -0.65,-0.06 -0.63,-0.14 -0.61,-0.21 -0.58,-0.29 -0.54,-0.36 -0.49,-0.42 -0.44,-0.48 -0.38,-0.52 -0.31,-0.57 -0.24,-0.60 -0.17,-0.63 -0.09,-0.64 -0.01,-0.65 0.06,-0.64 0.14,-0.64 0.21,-0.61 0.29,-0.58 0.35,-0.54 0.42,-0.50 0.47,-0.44 0.53,-0.38 0.57,-0.31 0.60,-0.24 0.62,-0.16 0.65,-0.09 0.65,-0.09 L 0.65,-0.09 Z"/></g><g transform="translate(329.5774992775591 16.944442749023438) rotate(0 13.88885498046875 10.069442749023438)" stroke="none"><path fill="#1e1e1e" d="M 0.15,0.63 Q 0.15,0.63 -0.55,1.12 -1.25,1.60 -1.97,2.19 -2.68,2.78 -3.32,3.90 -3.95,5.02 -4.43,6.43 -4.91,7.84 -4.92,9.69 -4.93,11.54 -4.39,13.43 -3.84,15.31 -2.50,16.99 -1.16,18.67 0.70,19.94 2.58,21.21 5.28,22.13 7.99,23.06 10.68,23.45 13.38,23.85 15.82,23.62 18.27,23.40 20.79,22.33 23.31,21.27 25.36,20.03 27.41,18.80 28.99,17.33 30.57,15.86 31.32,14.21 32.08,12.55 32.19,10.63 32.30,8.71 31.61,7.08 30.93,5.46 29.33,3.43 27.72,1.41 25.93,0.00 24.14,-1.40 22.12,-2.15 20.10,-2.90 18.14,-3.24 16.18,-3.58 14.37,-2.98 12.55,-2.38 10.34,-1.36 8.13,-0.34 6.39,0.62 4.65,1.60 2.43,3.21 0.22,4.82 0.14,4.89 0.05,4.95 -0.04,4.99 -0.14,5.02 -0.24,5.03 -0.35,5.03 -0.45,5.00 -0.55,4.97 -0.64,4.90 -0.72,4.84 -0.78,4.75 -0.85,4.67 -0.88,4.57 -0.91,4.46 -0.90,4.36 -0.90,4.25 -0.86,4.15 -0.83,4.05 -0.76,3.97 -0.69,3.89 -0.60,3.83 -0.51,3.77 -0.41,3.75 -0.31,3.72 -0.20,3.73 -0.09,3.74 -0.00,3.79 0.09,3.83 0.17,3.90 0.25,3.97 0.30,4.06 0.35,4.16 0.37,4.26 0.39,4.37 0.38,4.47 0.36,4.58 0.31,4.67 0.26,4.77 0.19,4.84 0.11,4.91 0.02,4.96 -0.07,5.01 -0.17,5.02 -0.28,5.04 -0.38,5.01 -0.49,4.99 -0.58,4.94 -0.67,4.89 -0.74,4.81 -0.81,4.73 -0.85,4.63 -0.89,4.53 -0.90,4.43 -0.91,4.32 -0.88,4.22 -0.86,4.12 -0.80,4.03 -0.74,3.94 -0.74,3.94 -0.74,3.94 1.30,1.69 3.36,-0.55 5.17,-1.68 6.97,-2.82 9.35,-3.95 11.72,-5.07 14.12,-5.76 16.52,-6.44 18.84,-6.06 21.16,-5.68 23.57,-4.72 25.98,-3.76 28.03,-2.09 30.08,-0.41 31.88,1.99 33.68,4.40 34.42,6.62 35.17,8.85 34.89,11.29 34.61,13.74 33.52,15.79 32.42,17.83 30.58,19.43 28.74,21.04 26.50,22.33 24.26,23.62 21.38,24.73 18.51,25.85 15.77,26.07 13.03,26.28 10.11,25.83 7.18,25.39 4.18,24.32 1.19,23.26 -0.95,21.73 -3.11,20.21 -4.66,18.13 -6.22,16.05 -6.84,13.80 -7.47,11.54 -7.42,9.28 -7.37,7.03 -6.78,5.34 -6.18,3.66 -5.22,2.20 -4.26,0.74 -3.09,-0.03 -1.93,-0.80 -1.04,-0.72 -0.15,-0.63 -0.08,-0.64 -0.00,-0.65 0.07,-0.64 0.15,-0.63 0.22,-0.61 0.30,-0.58 0.36,-0.53 0.43,-0.49 0.48,-0.43 0.53,-0.37 0.57,-0.30 0.61,-0.23 0.63,-0.15 0.65,-0.08 0.65,-0.00 0.65,0.07 0.63,0.15 0.61,0.23 0.57,0.30 0.54,0.37 0.48,0.43 0.43,0.49 0.37,0.53 0.30,0.58 0.23,0.60 0.15,0.63 0.15,0.63 L 0.15,0.63 Z"/></g><g transform="translate(346.9385832619341 12.083328247070312) rotate(0 -0.6944580078125 13.194442749023438)" stroke="none"><path fill="#1e1e1e" d="M 0.65,0.08 Q 0.65,0.08 0.73,1.71 0.82,3.34 0.78,5.57 0.74,7.79 0.53,10.59 0.32,13.39 0.18,16.12 0.04,18.86 -0.33,22.30 -0.72,25.74 -0.73,25.85 -0.75,25.95 -0.81,26.04 -0.86,26.14 -0.94,26.21 -1.01,26.28 -1.11,26.32 -1.21,26.37 -1.31,26.38 -1.42,26.39 -1.52,26.36 -1.63,26.34 -1.72,26.28 -1.81,26.22 -1.87,26.14 -1.94,26.06 -1.98,25.96 -2.02,25.86 -2.02,25.75 -2.02,25.65 -1.99,25.55 -1.96,25.44 -1.90,25.36 -1.84,25.27 -1.76,25.21 -1.67,25.15 -1.57,25.11 -1.47,25.08 -1.36,25.08 -1.25,25.08 -1.15,25.12 -1.05,25.16 -0.97,25.22 -0.89,25.29 -0.83,25.38 -0.77,25.47 -0.75,25.57 -0.72,25.67 -0.73,25.78 -0.73,25.88 -0.77,25.98 -0.82,26.08 -0.89,26.16 -0.96,26.24 -1.05,26.29 -1.14,26.34 -1.24,26.37 -1.35,26.39 -1.45,26.37 -1.56,26.36 -1.65,26.31 -1.75,26.27 -1.83,26.19 -1.90,26.12 -1.95,26.02 -2.00,25.93 -2.01,25.82 -2.03,25.72 -2.03,25.72 -2.03,25.72 -2.27,22.24 -2.52,18.77 -2.46,15.96 -2.40,13.15 -2.14,10.42 -1.87,7.69 -1.74,5.36 -1.61,3.04 -1.13,1.48 -0.65,-0.08 -0.63,-0.15 -0.61,-0.23 -0.57,-0.30 -0.53,-0.37 -0.48,-0.43 -0.43,-0.49 -0.36,-0.53 -0.30,-0.58 -0.22,-0.61 -0.15,-0.63 -0.07,-0.64 0.00,-0.65 0.08,-0.64 0.15,-0.63 0.23,-0.60 0.30,-0.58 0.37,-0.53 0.43,-0.48 0.48,-0.43 0.54,-0.37 0.57,-0.30 0.61,-0.23 0.63,-0.15 0.65,-0.07 0.65,0.00 0.65,0.08 0.65,0.08 L 0.65,0.08 Z"/></g><g transform="translate(344.1607512306841 80.83332824707031) rotate(0 1.73614501953125 -17.708335876464844)" stroke="none"><path fill="#1e1e1e" d="M -0.32,0.57 Q -0.32,0.57 -1.79,-0.10 -3.25,-0.78 -4.88,-1.68 -6.50,-2.58 -8.28,-3.98 -10.06,-5.38 -11.65,-7.00 -13.23,-8.62 -14.77,-11.19 -16.32,-13.77 -17.20,-16.33 -18.08,-18.89 -18.26,-21.09 -18.44,-23.29 -18.08,-25.15 -17.72,-27.02 -16.26,-28.98 -14.80,-30.94 -12.46,-32.42 -10.12,-33.89 -7.03,-34.72 -3.94,-35.56 -0.57,-35.71 2.80,-35.85 5.44,-35.70 8.08,-35.56 10.52,-34.87 12.95,-34.18 15.07,-33.04 17.19,-31.90 18.61,-30.29 20.04,-28.69 20.90,-26.46 21.75,-24.24 21.73,-21.54 21.70,-18.84 21.06,-16.42 20.42,-13.99 19.07,-11.83 17.71,-9.66 15.41,-7.85 13.10,-6.03 10.20,-4.87 7.31,-3.71 4.15,-3.47 1.00,-3.23 -3.12,-3.69 -7.25,-4.14 -7.36,-4.17 -7.46,-4.19 -7.55,-4.24 -7.65,-4.29 -7.72,-4.37 -7.79,-4.45 -7.83,-4.55 -7.87,-4.65 -7.88,-4.75 -7.89,-4.86 -7.86,-4.96 -7.83,-5.06 -7.78,-5.15 -7.72,-5.24 -7.64,-5.31 -7.55,-5.37 -7.45,-5.41 -7.35,-5.45 -7.25,-5.45 -7.14,-5.45 -7.04,-5.42 -6.94,-5.39 -6.85,-5.33 -6.77,-5.26 -6.70,-5.18 -6.64,-5.09 -6.61,-4.99 -6.58,-4.89 -6.58,-4.78 -6.59,-4.68 -6.63,-4.58 -6.66,-4.48 -6.73,-4.39 -6.80,-4.31 -6.89,-4.25 -6.98,-4.20 -7.08,-4.17 -7.18,-4.15 -7.29,-4.16 -7.39,-4.16 -7.49,-4.21 -7.59,-4.25 -7.67,-4.32 -7.75,-4.39 -7.80,-4.48 -7.85,-4.58 -7.87,-4.68 -7.89,-4.79 -7.87,-4.89 -7.86,-5.00 -7.81,-5.09 -7.76,-5.19 -7.69,-5.26 -7.61,-5.34 -7.52,-5.38 -7.42,-5.43 -7.32,-5.44 -7.21,-5.46 -7.21,-5.46 -7.21,-5.46 -3.22,-5.67 0.76,-5.88 3.50,-6.17 6.24,-6.45 8.75,-7.47 11.26,-8.49 13.23,-9.93 15.19,-11.37 16.38,-13.11 17.57,-14.84 18.20,-16.90 18.83,-18.96 18.99,-21.17 19.15,-23.38 18.55,-25.19 17.96,-27.00 16.91,-28.31 15.86,-29.61 14.03,-30.63 12.21,-31.65 10.06,-32.29 7.91,-32.92 5.41,-33.07 2.90,-33.22 -0.19,-33.11 -3.29,-33.01 -6.03,-32.32 -8.78,-31.63 -10.77,-30.46 -12.77,-29.28 -13.99,-27.83 -15.21,-26.38 -15.53,-24.92 -15.84,-23.45 -15.73,-21.57 -15.62,-19.69 -14.88,-17.36 -14.14,-15.02 -12.80,-12.65 -11.46,-10.28 -10.02,-8.71 -8.59,-7.15 -7.02,-5.75 -5.45,-4.36 -3.89,-3.38 -2.33,-2.40 -1.00,-1.48 0.32,-0.57 0.38,-0.52 0.45,-0.47 0.50,-0.41 0.55,-0.35 0.58,-0.28 0.62,-0.21 0.63,-0.13 0.65,-0.05 0.65,0.02 0.64,0.10 0.62,0.17 0.60,0.25 0.56,0.32 0.52,0.39 0.47,0.44 0.41,0.50 0.35,0.54 0.28,0.59 0.20,0.61 0.13,0.64 0.05,0.64 -0.02,0.65 -0.10,0.64 -0.17,0.63 -0.25,0.60 -0.32,0.57 -0.32,0.57 L -0.32,0.57 Z"/></g><g transform="translate(346.2441252541216 44.72221374511719) rotate(0 0.34722900390625 13.541671752929688)" stroke="none"><path fill="#1e1e1e" d="M 0.65,0 Q 0.65,0 0.82,1.59 1.00,3.19 1.08,6.06 1.17,8.94 1.23,12.36 1.28,15.78 1.46,18.38 1.63,20.98 1.46,23.47 1.29,25.96 1.28,26.07 1.27,26.17 1.22,26.27 1.18,26.37 1.10,26.44 1.03,26.52 0.94,26.57 0.84,26.62 0.74,26.63 0.63,26.65 0.53,26.63 0.42,26.62 0.33,26.57 0.24,26.52 0.16,26.44 0.09,26.36 0.05,26.26 0.00,26.17 -0.00,26.06 -0.01,25.96 0.00,25.85 0.03,25.75 0.08,25.66 0.14,25.57 0.22,25.50 0.30,25.43 0.40,25.39 0.50,25.35 0.60,25.35 0.71,25.34 0.81,25.37 0.91,25.40 1.00,25.46 1.09,25.52 1.15,25.60 1.22,25.69 1.25,25.79 1.28,25.89 1.28,26.00 1.28,26.10 1.25,26.20 1.21,26.30 1.15,26.39 1.09,26.47 1.00,26.53 0.91,26.59 0.81,26.62 0.70,26.65 0.60,26.64 0.49,26.63 0.39,26.60 0.29,26.56 0.21,26.49 0.13,26.42 0.08,26.33 0.02,26.23 0.00,26.13 -0.01,26.03 -0.01,26.03 -0.01,26.03 -0.42,23.60 -0.83,21.17 -1.06,18.47 -1.28,15.78 -1.23,12.36 -1.17,8.94 -1.08,6.06 -1.00,3.19 -0.82,1.59 -0.65,0 -0.64,-0.07 -0.63,-0.15 -0.60,-0.23 -0.58,-0.30 -0.53,-0.37 -0.49,-0.43 -0.43,-0.48 -0.37,-0.54 -0.30,-0.57 -0.23,-0.61 -0.15,-0.63 -0.07,-0.65 0.00,-0.65 0.07,-0.65 0.15,-0.63 0.23,-0.61 0.30,-0.57 0.37,-0.54 0.43,-0.48 0.49,-0.43 0.53,-0.37 0.58,-0.30 0.60,-0.23 0.63,-0.15 0.64,-0.07 0.65,0.00 0.65,0.00 L 0.65,0 Z"/></g><g transform="translate(352.4941252541216 93.33332824707031) rotate(0 -6.59722900390625 9.722213745117188)" stroke="none"><path fill="#1e1e1e" d="M -0.39,0.52 Q -0.39,0.52 -1.28,0.05 -2.18,-0.41 -3.47,-0.95 -4.76,-1.49 -6.26,-1.90 -7.75,-2.30 -9.39,-2.66 -11.02,-3.02 -12.96,-2.94 -14.90,-2.87 -16.60,-2.27 -18.29,-1.67 -19.50,-0.93 -20.70,-0.19 -21.46,1.89 -22.21,3.98 -22.38,6.36 -22.55,8.75 -21.87,11.42 -21.18,14.09 -19.78,16.10 -18.38,18.10 -16.73,19.48 -15.07,20.87 -12.62,21.18 -10.16,21.50 -7.27,20.71 -4.37,19.92 -2.01,18.46 0.34,17.01 2.70,14.84 5.07,12.67 6.43,10.82 7.78,8.96 8.51,7.47 9.25,5.99 9.14,4.46 9.02,2.94 8.14,1.69 7.25,0.44 5.66,-0.43 4.08,-1.31 1.93,-1.72 -0.21,-2.13 -2.29,-2.16 -4.37,-2.20 -5.84,-2.12 -7.31,-2.04 -8.79,-1.83 -10.27,-1.62 -10.38,-1.61 -10.48,-1.60 -10.59,-1.63 -10.69,-1.65 -10.78,-1.70 -10.87,-1.76 -10.94,-1.84 -11.01,-1.92 -11.05,-2.02 -11.09,-2.12 -11.09,-2.23 -11.10,-2.33 -11.07,-2.43 -11.04,-2.54 -10.98,-2.62 -10.92,-2.71 -10.83,-2.78 -10.75,-2.84 -10.65,-2.87 -10.55,-2.91 -10.44,-2.91 -10.33,-2.90 -10.23,-2.87 -10.13,-2.84 -10.05,-2.77 -9.97,-2.71 -9.91,-2.62 -9.85,-2.53 -9.82,-2.43 -9.79,-2.32 -9.80,-2.22 -9.80,-2.11 -9.84,-2.01 -9.88,-1.92 -9.95,-1.83 -10.02,-1.75 -10.11,-1.70 -10.21,-1.65 -10.31,-1.62 -10.41,-1.60 -10.52,-1.61 -10.62,-1.63 -10.72,-1.67 -10.82,-1.72 -10.89,-1.79 -10.97,-1.86 -11.02,-1.96 -11.07,-2.05 -11.08,-2.16 -11.10,-2.26 -11.08,-2.37 -11.07,-2.47 -11.02,-2.56 -10.97,-2.66 -10.89,-2.73 -10.81,-2.80 -10.71,-2.85 -10.62,-2.89 -10.62,-2.89 -10.62,-2.89 -9.10,-3.49 -7.58,-4.10 -5.98,-4.42 -4.37,-4.75 -2.04,-4.80 0.29,-4.84 2.89,-4.33 5.49,-3.82 7.57,-2.54 9.65,-1.26 10.80,0.69 11.95,2.64 11.95,4.90 11.94,7.15 11.03,8.93 10.13,10.70 8.58,12.75 7.03,14.81 4.44,17.14 1.84,19.48 -0.89,21.10 -3.62,22.72 -7.08,23.54 -10.53,24.35 -13.63,23.76 -16.73,23.16 -18.74,21.45 -20.76,19.73 -22.35,17.28 -23.94,14.82 -24.67,11.69 -25.39,8.55 -25.11,5.74 -24.83,2.92 -23.60,0.29 -22.37,-2.34 -20.76,-3.31 -19.16,-4.29 -17.07,-4.92 -14.97,-5.54 -12.71,-5.52 -10.44,-5.50 -8.74,-5.06 -7.05,-4.61 -5.41,-4.06 -3.78,-3.51 -2.39,-2.74 -1.01,-1.98 -0.30,-1.25 0.39,-0.52 0.45,-0.47 0.50,-0.41 0.55,-0.34 0.59,-0.28 0.61,-0.20 0.64,-0.13 0.64,-0.05 0.65,0.02 0.64,0.10 0.63,0.18 0.59,0.25 0.56,0.32 0.52,0.39 0.47,0.45 0.41,0.50 0.35,0.55 0.27,0.58 0.20,0.62 0.13,0.63 0.05,0.65 -0.02,0.65 -0.10,0.64 -0.18,0.62 -0.25,0.60 -0.32,0.56 -0.39,0.52 -0.39,0.52 L -0.39,0.52 Z"/></g><g transform="translate(344.1607512306841 91.24998474121094) rotate(0 -0.6944580078125 11.111114501953125)" stroke="none"><path fill="#1e1e1e" d="M 0.64,0.10 Q 0.64,0.10 0.89,1.38 1.13,2.65 0.89,4.73 0.65,6.82 0.73,9.38 0.81,11.94 0.66,14.50 0.50,17.06 -0.05,19.21 -0.62,21.37 -0.65,21.47 -0.68,21.57 -0.74,21.66 -0.80,21.75 -0.88,21.81 -0.97,21.87 -1.07,21.91 -1.17,21.94 -1.28,21.94 -1.38,21.93 -1.48,21.90 -1.58,21.86 -1.67,21.80 -1.75,21.73 -1.81,21.64 -1.87,21.55 -1.89,21.45 -1.92,21.35 -1.91,21.24 -1.91,21.14 -1.87,21.04 -1.82,20.94 -1.75,20.86 -1.68,20.78 -1.59,20.73 -1.50,20.67 -1.40,20.65 -1.29,20.63 -1.19,20.64 -1.08,20.66 -0.99,20.70 -0.89,20.75 -0.81,20.82 -0.74,20.90 -0.69,20.99 -0.64,21.09 -0.63,21.19 -0.61,21.30 -0.63,21.40 -0.65,21.51 -0.70,21.60 -0.75,21.69 -0.83,21.77 -0.91,21.84 -1.01,21.88 -1.10,21.92 -1.21,21.93 -1.31,21.94 -1.42,21.92 -1.52,21.89 -1.61,21.84 -1.70,21.78 -1.77,21.70 -1.84,21.62 -1.87,21.52 -1.91,21.42 -1.91,21.31 -1.92,21.21 -1.92,21.21 -1.92,21.21 -1.95,19.15 -1.99,17.09 -2.21,14.56 -2.43,12.04 -2.51,9.21 -2.59,6.39 -2.26,4.26 -1.93,2.13 -1.29,1.01 -0.64,-0.10 -0.62,-0.18 -0.60,-0.25 -0.56,-0.32 -0.52,-0.39 -0.46,-0.45 -0.41,-0.51 -0.34,-0.55 -0.27,-0.59 -0.20,-0.61 -0.12,-0.64 -0.04,-0.64 0.02,-0.65 0.10,-0.64 0.18,-0.62 0.25,-0.59 0.33,-0.56 0.39,-0.51 0.45,-0.47 0.50,-0.41 0.55,-0.34 0.59,-0.27 0.62,-0.20 0.63,-0.12 0.65,-0.05 0.65,0.02 0.64,0.10 0.64,0.10 L 0.64,0.10 Z"/></g></svg>