<svg version="1.1" xmlns="http://www.w3.org/2000/svg" viewBox="0 0 699.7957669418697 240.61045837402344" width="699.7957669418697" height="240.61045837402344" filter="invert(93%) hue-rotate(180deg)" class="excalidraw-svg">
  <!-- svg-source:excalidraw -->
  
  <defs>
    <style class="style-fonts">
      @font-face {
        font-family: "Virgil";
        src: url("https://excalidraw.com/Virgil.woff2");
      }
      @font-face {
        font-family: "Cascadia";
        src: url("https://excalidraw.com/Cascadia.woff2");
      }
      @font-face {
        font-family: "Assistant";
        src: url("https://excalidraw.com/Assistant-Regular.woff2");
      }
    </style>
    
  </defs>
  <rect x="0" y="0" width="699.7957669418697" height="240.61045837402344" fill="#ffffff"/><g stroke-linecap="round"><g transform="translate(59.98815064645265 39.668304443359375) rotate(0 275.7630920410156 0.00000762939453125)"><path d="M0 0 C91.92 0, 459.61 0, 551.53 0 M0 0 C91.92 0, 459.61 0, 551.53 0" stroke="#1e1e1e" stroke-width="2" fill="none"/></g></g><mask/><g stroke-linecap="round"><g transform="translate(60.31630616403078 63.132102966308594) rotate(0 275.7630920410156 0.00000762939453125)"><path d="M0 0 C91.92 0, 459.61 0, 551.53 0 M0 0 C91.92 0, 459.61 0, 551.53 0" stroke="#1e1e1e" stroke-width="2" fill="none"/></g></g><mask/><g stroke-linecap="round"><g transform="translate(61.04390626168703 84.96541595458984) rotate(0 275.7630920410156 0.00000762939453125)"><path d="M0 0 C91.92 0, 459.61 0, 551.53 0 M0 0 C91.92 0, 459.61 0, 551.53 0" stroke="#1e1e1e" stroke-width="2" fill="none"/></g></g><mask/><g stroke-linecap="round"><g transform="translate(62.339118053679215 165.1667823791504) rotate(0 218.06083345734527 1.1483130016742535)"><path d="M0 0 C72.69 0.38, 363.43 1.91, 436.12 2.3 M0 0 C72.69 0.38, 363.43 1.91, 436.12 2.3" stroke="#1e1e1e" stroke-width="2" fill="none"/></g></g><mask/><g stroke-linecap="round" transform="translate(265.38414674020265 10) rotate(0 80.256591796875 110.30522918701172)"><path d="M32 0 C58.23 0, 84.47 0, 128.51 0 C149.85 0, 160.51 10.67, 160.51 32 C160.51 93.86, 160.51 155.71, 160.51 188.61 C160.51 209.94, 149.85 220.61, 128.51 220.61 C96.16 220.61, 63.81 220.61, 32 220.61 C10.67 220.61, 0 209.94, 0 188.61 C0 145.78, 0 102.95, 0 32 C0 10.67, 10.67 0, 32 0" stroke="none" stroke-width="0" fill="#ffffff"/><path d="M32 0 C56.56 0, 81.12 0, 128.51 0 M32 0 C54.12 0, 76.24 0, 128.51 0 M128.51 0 C149.85 0, 160.51 10.67, 160.51 32 M128.51 0 C149.85 0, 160.51 10.67, 160.51 32 M160.51 32 C160.51 91.33, 160.51 150.65, 160.51 188.61 M160.51 32 C160.51 77.64, 160.51 123.29, 160.51 188.61 M160.51 188.61 C160.51 209.94, 149.85 220.61, 128.51 220.61 M160.51 188.61 C160.51 209.94, 149.85 220.61, 128.51 220.61 M128.51 220.61 C93.2 220.61, 57.88 220.61, 32 220.61 M128.51 220.61 C90.23 220.61, 51.94 220.61, 32 220.61 M32 220.61 C10.67 220.61, 0 209.94, 0 188.61 M32 220.61 C10.67 220.61, 0 209.94, 0 188.61 M0 188.61 C0 149.17, 0 109.72, 0 32 M0 188.61 C0 143.35, 0 98.09, 0 32 M0 32 C0 10.67, 10.67 0, 32 0 M0 32 C0 10.67, 10.67 0, 32 0" stroke="#1e1e1e" stroke-width="2" fill="none"/></g><g transform="translate(314.8313513300464 105.09071350097656) rotate(0 13.312713623046875 13.69305419921875)" stroke="none"><path fill="#1e1e1e" d="M 0.60,0.24 Q 0.60,0.24 0.37,1.41 0.13,2.58 -0.21,4.70 -0.56,6.81 -0.71,9.01 -0.87,11.20 -0.71,13.61 -0.55,16.02 -0.05,18.53 0.43,21.03 1.70,23.51 2.96,25.98 4.69,27.80 6.42,29.62 8.44,30.08 10.46,30.55 12.64,29.72 14.82,28.89 17.37,26.25 19.93,23.60 21.65,20.60 23.37,17.60 24.51,12.95 25.65,8.30 25.97,4.84 26.29,1.38 25.89,-1.60 25.49,-4.58 25.46,-4.69 25.43,-4.79 25.43,-4.89 25.43,-5.00 25.47,-5.10 25.51,-5.20 25.57,-5.28 25.64,-5.36 25.73,-5.42 25.82,-5.48 25.92,-5.50 26.03,-5.53 26.13,-5.52 26.24,-5.51 26.34,-5.47 26.43,-5.43 26.51,-5.36 26.59,-5.29 26.64,-5.19 26.70,-5.10 26.72,-5.00 26.74,-4.89 26.72,-4.79 26.71,-4.68 26.66,-4.59 26.61,-4.49 26.54,-4.42 26.46,-4.34 26.37,-4.29 26.27,-4.25 26.17,-4.23 26.06,-4.22 25.96,-4.24 25.85,-4.26 25.76,-4.31 25.67,-4.36 25.60,-4.44 25.53,-4.52 25.48,-4.62 25.44,-4.72 25.43,-4.82 25.43,-4.93 25.45,-5.03 25.48,-5.14 25.53,-5.23 25.59,-5.31 25.67,-5.38 25.76,-5.45 25.86,-5.48 25.96,-5.52 26.06,-5.52 26.17,-5.53 26.27,-5.49 26.37,-5.46 26.46,-5.40 26.54,-5.34 26.61,-5.25 26.67,-5.17 26.67,-5.17 26.67,-5.17 27.88,-1.78 29.10,1.60 28.81,5.31 28.53,9.02 27.22,14.04 25.91,19.06 23.92,22.34 21.93,25.62 18.85,28.49 15.76,31.36 12.90,32.18 10.04,33.01 7.41,32.22 4.78,31.43 2.78,29.26 0.78,27.09 -0.56,24.30 -1.91,21.51 -2.41,18.84 -2.91,16.17 -3.04,13.60 -3.18,11.03 -2.99,8.72 -2.80,6.41 -2.34,4.10 -1.88,1.78 -1.24,0.77 -0.60,-0.24 -0.57,-0.31 -0.53,-0.38 -0.48,-0.44 -0.42,-0.49 -0.36,-0.54 -0.29,-0.58 -0.22,-0.61 -0.14,-0.64 -0.06,-0.64 0.01,-0.65 0.09,-0.64 0.16,-0.63 0.24,-0.60 0.31,-0.57 0.37,-0.52 0.44,-0.48 0.49,-0.42 0.54,-0.36 0.58,-0.29 0.61,-0.22 0.63,-0.14 0.65,-0.06 0.65,0.01 0.65,0.09 0.63,0.16 0.60,0.24 0.60,0.24 L 0.60,0.24 Z"/></g><g transform="translate(346.02110963082765 144.64845275878906) rotate(0 8.36798095703125 -3.4232635498046875)" stroke="none"><path fill="#1e1e1e" d="M 0,-0.65 Q 0,-0.65 0.80,-0.84 1.60,-1.02 2.99,-2.29 4.38,-3.55 5.86,-5.35 7.34,-7.15 8.35,-9.36 9.36,-11.56 9.79,-13.02 10.22,-14.48 9.88,-15.17 9.54,-15.86 8.99,-15.07 8.44,-14.27 7.96,-12.76 7.48,-11.25 7.25,-8.27 7.03,-5.29 7.14,-2.72 7.25,-0.16 7.30,2.06 7.35,4.30 7.37,5.90 7.39,7.50 7.60,8.27 7.81,9.05 7.25,10.31 6.69,11.56 5.86,11.68 5.02,11.79 4.04,11.03 3.05,10.26 1.72,9.15 0.40,8.05 -1.18,7.23 -2.76,6.40 -3.81,6.09 -4.86,5.78 -5.57,5.63 -6.28,5.47 -6.45,5.39 -6.61,5.31 -6.75,5.20 -6.89,5.08 -7.00,4.93 -7.11,4.79 -7.17,4.62 -7.24,4.45 -7.27,4.27 -7.30,4.10 -7.28,3.91 -7.27,3.73 -7.21,3.56 -7.15,3.39 -7.05,3.24 -6.95,3.09 -6.82,2.96 -6.69,2.84 -6.53,2.75 -6.38,2.66 -6.20,2.61 -6.03,2.56 -5.85,2.55 -5.66,2.55 -5.49,2.58 -5.31,2.62 -3.92,2.50 -2.53,2.37 -0.11,2.13 2.29,1.88 6.59,1.30 10.89,0.72 14.53,0.43 18.18,0.15 19.70,-0.07 21.23,-0.30 21.33,-0.30 21.44,-0.30 21.54,-0.27 21.64,-0.23 21.72,-0.17 21.81,-0.10 21.86,-0.01 21.92,0.07 21.95,0.17 21.98,0.27 21.97,0.38 21.96,0.49 21.92,0.58 21.88,0.68 21.81,0.76 21.74,0.84 21.65,0.90 21.56,0.95 21.45,0.97 21.35,0.99 21.25,0.98 21.14,0.97 21.04,0.92 20.95,0.87 20.87,0.80 20.80,0.73 20.75,0.63 20.70,0.54 20.68,0.43 20.67,0.33 20.69,0.22 20.70,0.12 20.75,0.03 20.81,-0.06 20.88,-0.13 20.96,-0.20 21.06,-0.25 21.16,-0.29 21.26,-0.30 21.37,-0.31 21.47,-0.29 21.57,-0.26 21.66,-0.21 21.75,-0.15 21.82,-0.07 21.89,0.00 21.93,0.10 21.97,0.20 21.97,0.31 21.98,0.42 21.95,0.52 21.92,0.62 21.86,0.71 21.79,0.79 21.71,0.86 21.62,0.92 21.52,0.95 21.42,0.99 21.42,0.99 21.42,0.99 19.90,1.22 18.37,1.45 14.84,2.25 11.30,3.05 6.95,3.99 2.60,4.93 0.10,5.18 -2.40,5.44 -4.34,5.45 -6.28,5.47 -6.45,5.39 -6.61,5.31 -6.75,5.20 -6.89,5.08 -7.00,4.93 -7.11,4.79 -7.17,4.62 -7.24,4.45 -7.27,4.27 -7.30,4.10 -7.28,3.91 -7.27,3.73 -7.21,3.56 -7.15,3.39 -7.05,3.24 -6.95,3.09 -6.82,2.96 -6.69,2.84 -6.53,2.75 -6.38,2.66 -6.20,2.61 -6.03,2.56 -5.85,2.55 -5.66,2.55 -5.49,2.58 -5.31,2.62 -4.61,2.80 -3.90,2.98 -2.65,3.45 -1.40,3.93 0.35,4.96 2.12,5.98 3.53,7.17 4.93,8.36 5.07,8.97 5.21,9.59 4.96,8.57 4.72,7.55 4.70,5.95 4.68,4.35 4.64,2.15 4.59,-0.05 4.48,-2.78 4.38,-5.51 4.67,-8.81 4.97,-12.11 5.71,-14.06 6.46,-16.01 7.65,-17.07 8.85,-18.12 10.21,-17.70 11.57,-17.28 12.14,-15.70 12.71,-14.12 12.20,-12.29 11.68,-10.46 10.46,-8.01 9.24,-5.56 7.55,-3.63 5.85,-1.69 3.86,-0.33 1.88,1.02 0.94,0.84 0,0.65 -0.07,0.64 -0.15,0.63 -0.23,0.60 -0.30,0.58 -0.37,0.53 -0.43,0.49 -0.48,0.43 -0.54,0.37 -0.57,0.30 -0.61,0.23 -0.63,0.15 -0.65,0.07 -0.65,-0.00 -0.65,-0.07 -0.63,-0.15 -0.61,-0.23 -0.57,-0.30 -0.54,-0.37 -0.48,-0.43 -0.43,-0.49 -0.37,-0.53 -0.30,-0.58 -0.23,-0.60 -0.15,-0.63 -0.07,-0.64 0.00,-0.65 0.00,-0.65 L 0,-0.65 Z"/></g><g stroke-linecap="round" transform="translate(129.42357445386824 27.65672621311711) rotate(0 37.319867016833825 35.597408958414235)"><path d="M17.8 0 C32.86 0, 47.93 0, 56.84 0 C68.71 0, 74.64 5.93, 74.64 17.8 C74.64 29.17, 74.64 40.55, 74.64 53.4 C74.64 65.26, 68.71 71.19, 56.84 71.19 C47.62 71.19, 38.39 71.19, 17.8 71.19 C5.93 71.19, 0 65.26, 0 53.4 C0 39.64, 0 25.88, 0 17.8 C0 5.93, 5.93 0, 17.8 0" stroke="none" stroke-width="0" fill="#ffffff"/><path d="M17.8 0 C31.67 0, 45.54 0, 56.84 0 M17.8 0 C31.7 0, 45.6 0, 56.84 0 M56.84 0 C68.71 0, 74.64 5.93, 74.64 17.8 M56.84 0 C68.71 0, 74.64 5.93, 74.64 17.8 M74.64 17.8 C74.64 25.35, 74.64 32.9, 74.64 53.4 M74.64 17.8 C74.64 27.5, 74.64 37.21, 74.64 53.4 M74.64 53.4 C74.64 65.26, 68.71 71.19, 56.84 71.19 M74.64 53.4 C74.64 65.26, 68.71 71.19, 56.84 71.19 M56.84 71.19 C45.1 71.19, 33.35 71.19, 17.8 71.19 M56.84 71.19 C48.25 71.19, 39.65 71.19, 17.8 71.19 M17.8 71.19 C5.93 71.19, 0 65.26, 0 53.4 M17.8 71.19 C5.93 71.19, 0 65.26, 0 53.4 M0 53.4 C0 43.18, 0 32.96, 0 17.8 M0 53.4 C0 44.92, 0 36.45, 0 17.8 M0 17.8 C0 5.93, 5.93 0, 17.8 0 M0 17.8 C0 5.93, 5.93 0, 17.8 0" stroke="#1e1e1e" stroke-width="0.5" fill="none"/></g><g stroke-linecap="round" transform="translate(483.5073536999704 27.877289290941803) rotate(0 37.319867016833825 35.597408958414235)"><path d="M17.8 0 C25.98 0, 34.15 0, 56.84 0 C68.71 0, 74.64 5.93, 74.64 17.8 C74.64 30.76, 74.64 43.72, 74.64 53.4 C74.64 65.26, 68.71 71.19, 56.84 71.19 C46.27 71.19, 35.69 71.19, 17.8 71.19 C5.93 71.19, 0 65.26, 0 53.4 C0 45.75, 0 38.11, 0 17.8 C0 5.93, 5.93 0, 17.8 0" stroke="none" stroke-width="0" fill="#ffffff"/><path d="M17.8 0 C27.91 0, 38.02 0, 56.84 0 M17.8 0 C31.76 0, 45.73 0, 56.84 0 M56.84 0 C68.71 0, 74.64 5.93, 74.64 17.8 M56.84 0 C68.71 0, 74.64 5.93, 74.64 17.8 M74.64 17.8 C74.64 31.05, 74.64 44.29, 74.64 53.4 M74.64 17.8 C74.64 26.06, 74.64 34.33, 74.64 53.4 M74.64 53.4 C74.64 65.26, 68.71 71.19, 56.84 71.19 M74.64 53.4 C74.64 65.26, 68.71 71.19, 56.84 71.19 M56.84 71.19 C46.12 71.19, 35.4 71.19, 17.8 71.19 M56.84 71.19 C42.73 71.19, 28.62 71.19, 17.8 71.19 M17.8 71.19 C5.93 71.19, 0 65.26, 0 53.4 M17.8 71.19 C5.93 71.19, 0 65.26, 0 53.4 M0 53.4 C0 45.58, 0 37.77, 0 17.8 M0 53.4 C0 39.25, 0 25.1, 0 17.8 M0 17.8 C0 5.93, 5.93 0, 17.8 0 M0 17.8 C0 5.93, 5.93 0, 17.8 0" stroke="#1e1e1e" stroke-width="0.5" fill="none"/></g><g stroke-linecap="round" transform="translate(129.60818317032232 130.2394943103078) rotate(0 37.319867016833825 35.597408958414235)"><path d="M17.8 0 C30.71 0, 43.62 0, 56.84 0 C68.71 0, 74.64 5.93, 74.64 17.8 C74.64 31.88, 74.64 45.97, 74.64 53.4 C74.64 65.26, 68.71 71.19, 56.84 71.19 C46.96 71.19, 37.08 71.19, 17.8 71.19 C5.93 71.19, 0 65.26, 0 53.4 C0 44.32, 0 35.25, 0 17.8 C0 5.93, 5.93 0, 17.8 0" stroke="none" stroke-width="0" fill="#ffffff"/><path d="M17.8 0 C28.12 0, 38.44 0, 56.84 0 M17.8 0 C30.8 0, 43.8 0, 56.84 0 M56.84 0 C68.71 0, 74.64 5.93, 74.64 17.8 M56.84 0 C68.71 0, 74.64 5.93, 74.64 17.8 M74.64 17.8 C74.64 30.94, 74.64 44.09, 74.64 53.4 M74.64 17.8 C74.64 25.85, 74.64 33.9, 74.64 53.4 M74.64 53.4 C74.64 65.26, 68.71 71.19, 56.84 71.19 M74.64 53.4 C74.64 65.26, 68.71 71.19, 56.84 71.19 M56.84 71.19 C48.1 71.19, 39.37 71.19, 17.8 71.19 M56.84 71.19 C47.81 71.19, 38.78 71.19, 17.8 71.19 M17.8 71.19 C5.93 71.19, 0 65.26, 0 53.4 M17.8 71.19 C5.93 71.19, 0 65.26, 0 53.4 M0 53.4 C0 45.63, 0 37.87, 0 17.8 M0 53.4 C0 44.16, 0 34.93, 0 17.8 M0 17.8 C0 5.93, 5.93 0, 17.8 0 M0 17.8 C0 5.93, 5.93 0, 17.8 0" stroke="#1e1e1e" stroke-width="0.5" fill="none"/></g><g transform="translate(156.98285732277583 56.36432597075583) rotate(0 -0.8612232709840839 8.612278775646502)" stroke="none"><path fill="#1e1e1e" d="M 0.65,0 Q 0.65,0 0.90,1.32 1.15,2.64 1.00,4.41 0.85,6.18 0.79,7.55 0.73,8.91 0.54,10.38 0.35,11.85 -0.30,14.34 -0.95,16.82 -0.99,16.92 -1.03,17.02 -1.10,17.10 -1.17,17.18 -1.26,17.23 -1.35,17.29 -1.46,17.31 -1.56,17.33 -1.67,17.32 -1.77,17.31 -1.87,17.26 -1.97,17.21 -2.04,17.14 -2.12,17.07 -2.17,16.97 -2.22,16.88 -2.23,16.77 -2.25,16.67 -2.23,16.56 -2.21,16.46 -2.16,16.37 -2.11,16.27 -2.03,16.20 -1.95,16.13 -1.86,16.08 -1.76,16.04 -1.65,16.03 -1.55,16.02 -1.45,16.04 -1.34,16.07 -1.25,16.12 -1.16,16.18 -1.09,16.26 -1.03,16.34 -0.99,16.44 -0.95,16.54 -0.94,16.65 -0.94,16.75 -0.97,16.86 -1.00,16.96 -1.06,17.04 -1.12,17.13 -1.21,17.20 -1.29,17.26 -1.39,17.29 -1.49,17.32 -1.60,17.32 -1.70,17.32 -1.81,17.29 -1.91,17.25 -1.99,17.19 -2.07,17.12 -2.13,17.03 -2.19,16.94 -2.22,16.84 -2.25,16.74 -2.24,16.63 -2.23,16.53 -2.23,16.53 -2.23,16.53 -2.15,14.02 -2.07,11.51 -1.87,10.15 -1.67,8.79 -1.59,7.37 -1.51,5.96 -1.33,4.30 -1.15,2.64 -0.90,1.32 -0.65,0 -0.64,-0.07 -0.63,-0.15 -0.60,-0.23 -0.58,-0.30 -0.53,-0.37 -0.49,-0.43 -0.43,-0.48 -0.37,-0.54 -0.30,-0.57 -0.23,-0.61 -0.15,-0.63 -0.07,-0.65 0.00,-0.65 0.07,-0.65 0.15,-0.63 0.23,-0.61 0.30,-0.57 0.37,-0.54 0.43,-0.48 0.49,-0.43 0.53,-0.37 0.58,-0.30 0.60,-0.23 0.63,-0.15 0.64,-0.07 0.65,0.00 0.65,0.00 L 0.65,0 Z"/></g><g transform="translate(157.55702152536713 64.97660474640236) rotate(0 7.1768913020711125 -0.28707634306994123)" stroke="none"><path fill="#1e1e1e" d="M 0,-0.65 Q 0,-0.65 1.15,-0.92 2.31,-1.19 3.46,-1.22 4.61,-1.24 5.92,-1.25 7.24,-1.27 8.37,-1.42 9.51,-1.57 11.78,-1.39 14.04,-1.22 14.15,-1.20 14.25,-1.19 14.35,-1.14 14.44,-1.09 14.52,-1.02 14.59,-0.94 14.64,-0.85 14.69,-0.75 14.70,-0.65 14.72,-0.54 14.70,-0.44 14.68,-0.34 14.62,-0.24 14.57,-0.15 14.49,-0.08 14.41,-0.01 14.32,0.02 14.22,0.07 14.11,0.07 14.01,0.08 13.90,0.06 13.80,0.03 13.71,-0.02 13.62,-0.07 13.56,-0.15 13.49,-0.24 13.45,-0.34 13.42,-0.44 13.41,-0.54 13.41,-0.65 13.44,-0.75 13.47,-0.85 13.53,-0.94 13.60,-1.03 13.68,-1.09 13.77,-1.15 13.87,-1.18 13.97,-1.21 14.08,-1.21 14.18,-1.21 14.28,-1.17 14.38,-1.13 14.47,-1.07 14.55,-1.00 14.61,-0.91 14.66,-0.82 14.69,-0.72 14.72,-0.61 14.71,-0.51 14.70,-0.40 14.66,-0.31 14.61,-0.21 14.54,-0.13 14.47,-0.05 14.38,-0.00 14.29,0.05 14.18,0.07 14.08,0.09 14.08,0.09 14.08,0.09 11.96,0.50 9.84,0.91 8.54,1.09 7.24,1.27 5.92,1.25 4.61,1.24 3.46,1.22 2.31,1.19 1.15,0.92 0,0.65 -0.07,0.64 -0.15,0.63 -0.23,0.60 -0.30,0.58 -0.37,0.53 -0.43,0.49 -0.48,0.43 -0.54,0.37 -0.57,0.30 -0.61,0.23 -0.63,0.15 -0.65,0.07 -0.65,-0.00 -0.65,-0.07 -0.63,-0.15 -0.61,-0.23 -0.57,-0.30 -0.54,-0.37 -0.48,-0.43 -0.43,-0.49 -0.37,-0.53 -0.30,-0.58 -0.23,-0.60 -0.15,-0.63 -0.07,-0.64 0.00,-0.65 0.00,-0.65 L 0,-0.65 Z"/></g><g transform="translate(172.48496833210066 53.49357405650795) rotate(0 -1.1483053722797365 8.899349360490703)" stroke="none"><path fill="#1e1e1e" d="M 0.65,0 Q 0.65,0 0.92,1.32 1.19,2.64 0.87,4.32 0.55,6.00 0.43,7.41 0.31,8.83 0.04,10.63 -0.23,12.43 -0.90,14.88 -1.57,17.33 -1.60,17.44 -1.63,17.54 -1.69,17.63 -1.75,17.71 -1.84,17.77 -1.93,17.84 -2.03,17.87 -2.13,17.90 -2.23,17.90 -2.34,17.90 -2.44,17.86 -2.54,17.83 -2.62,17.76 -2.71,17.69 -2.77,17.60 -2.82,17.52 -2.85,17.41 -2.88,17.31 -2.87,17.20 -2.86,17.10 -2.82,17.00 -2.78,16.90 -2.71,16.82 -2.64,16.74 -2.55,16.69 -2.45,16.64 -2.35,16.62 -2.24,16.60 -2.14,16.61 -2.03,16.62 -1.94,16.67 -1.84,16.72 -1.77,16.79 -1.69,16.86 -1.64,16.96 -1.60,17.05 -1.58,17.16 -1.57,17.26 -1.58,17.37 -1.60,17.47 -1.66,17.57 -1.71,17.66 -1.79,17.73 -1.86,17.80 -1.96,17.84 -2.06,17.89 -2.16,17.90 -2.27,17.91 -2.37,17.88 -2.48,17.86 -2.57,17.80 -2.66,17.74 -2.72,17.66 -2.79,17.58 -2.83,17.48 -2.87,17.38 -2.87,17.27 -2.87,17.17 -2.87,17.17 -2.87,17.17 -2.71,14.65 -2.54,12.14 -2.37,10.36 -2.20,8.59 -2.03,7.04 -1.87,5.48 -1.53,4.06 -1.19,2.63 -0.92,1.31 -0.65,0 -0.64,-0.07 -0.63,-0.15 -0.60,-0.23 -0.58,-0.30 -0.53,-0.37 -0.49,-0.43 -0.43,-0.48 -0.37,-0.54 -0.30,-0.57 -0.23,-0.61 -0.15,-0.63 -0.07,-0.65 0.00,-0.65 0.07,-0.65 0.15,-0.63 0.23,-0.61 0.30,-0.57 0.37,-0.54 0.43,-0.48 0.49,-0.43 0.53,-0.37 0.58,-0.30 0.60,-0.23 0.63,-0.15 0.64,-0.07 0.65,0.00 0.65,0.00 L 0.65,0 Z"/></g><g transform="translate(155.26041078080766 163.73070553213842) rotate(0 -0.2870590683927503 4.306139387823251)" stroke="none"><path fill="#1e1e1e" d="M -0.65,0 Q -0.65,0 -0.79,-0.66 -0.94,-1.32 -0.97,-2.14 -1.00,-2.97 -0.81,-3.50 -0.61,-4.03 -0.61,-4.52 -0.62,-5.00 -0.57,-5.13 -0.52,-5.27 -0.44,-5.39 -0.36,-5.51 -0.25,-5.60 -0.15,-5.70 -0.02,-5.77 0.09,-5.83 0.23,-5.87 0.37,-5.90 0.51,-5.91 0.65,-5.91 0.79,-5.88 0.93,-5.84 1.06,-5.78 1.19,-5.71 1.29,-5.62 1.40,-5.53 1.49,-5.41 1.57,-5.29 1.62,-5.16 1.67,-5.03 1.69,-4.89 1.71,-4.74 1.69,-4.60 1.68,-4.46 1.75,-3.24 1.83,-2.03 1.67,-0.70 1.50,0.62 1.44,2.08 1.39,3.55 1.19,5.23 1.00,6.92 0.91,8.23 0.82,9.55 0.18,11.51 -0.44,13.47 -0.47,13.58 -0.50,13.68 -0.56,13.76 -0.63,13.85 -0.71,13.91 -0.80,13.97 -0.90,14.00 -1.00,14.04 -1.11,14.03 -1.21,14.03 -1.31,13.99 -1.41,13.96 -1.50,13.89 -1.58,13.82 -1.64,13.73 -1.69,13.64 -1.72,13.54 -1.74,13.44 -1.74,13.33 -1.73,13.23 -1.68,13.13 -1.64,13.03 -1.57,12.95 -1.50,12.87 -1.41,12.82 -1.32,12.77 -1.21,12.75 -1.11,12.73 -1.00,12.74 -0.90,12.76 -0.80,12.80 -0.71,12.85 -0.63,12.93 -0.56,13.00 -0.51,13.10 -0.46,13.19 -0.45,13.30 -0.43,13.40 -0.45,13.51 -0.47,13.61 -0.53,13.70 -0.58,13.80 -0.66,13.87 -0.74,13.94 -0.83,13.98 -0.93,14.02 -1.04,14.03 -1.14,14.04 -1.25,14.01 -1.35,13.99 -1.44,13.93 -1.53,13.87 -1.60,13.79 -1.66,13.71 -1.70,13.61 -1.73,13.51 -1.74,13.40 -1.74,13.30 -1.74,13.30 -1.74,13.30 -1.73,11.35 -1.72,9.40 -1.65,8.00 -1.57,6.61 -1.38,5.02 -1.18,3.43 -1.10,1.86 -1.02,0.29 -0.86,-0.86 -0.70,-2.02 -0.66,-3.51 -0.62,-5.00 -0.57,-5.13 -0.52,-5.27 -0.44,-5.39 -0.36,-5.51 -0.25,-5.60 -0.15,-5.70 -0.02,-5.77 0.09,-5.83 0.23,-5.87 0.37,-5.90 0.51,-5.91 0.65,-5.91 0.79,-5.88 0.93,-5.84 1.06,-5.78 1.19,-5.71 1.29,-5.62 1.40,-5.53 1.49,-5.41 1.57,-5.29 1.62,-5.16 1.67,-5.03 1.69,-4.89 1.71,-4.74 1.69,-4.60 1.68,-4.46 1.61,-4.18 1.54,-3.90 1.27,-3.38 1.00,-2.86 0.97,-2.09 0.94,-1.32 0.79,-0.66 0.65,0 0.64,0.07 0.63,0.15 0.60,0.23 0.58,0.30 0.53,0.37 0.49,0.43 0.43,0.48 0.37,0.54 0.30,0.57 0.23,0.61 0.15,0.63 0.07,0.65 -0.00,0.65 -0.07,0.65 -0.15,0.63 -0.23,0.61 -0.30,0.57 -0.37,0.54 -0.43,0.48 -0.49,0.43 -0.53,0.37 -0.58,0.30 -0.60,0.23 -0.63,0.15 -0.64,0.07 -0.65,-0.00 -0.65,-0.00 L -0.65,0 Z"/></g><g transform="translate(156.40869312018452 167.74978585156887) rotate(0 8.325219707253723 -0.8612347874355066)" stroke="none"><path fill="#1e1e1e" d="M 0,-0.65 Q 0,-0.65 1.15,-0.85 2.31,-1.05 3.79,-1.07 5.27,-1.10 6.39,-1.11 7.52,-1.12 8.75,-1.29 9.98,-1.47 11.23,-1.50 12.48,-1.54 14.10,-1.83 15.71,-2.12 15.82,-2.13 15.92,-2.15 16.03,-2.13 16.13,-2.11 16.23,-2.06 16.32,-2.00 16.39,-1.92 16.46,-1.84 16.50,-1.75 16.54,-1.65 16.55,-1.54 16.56,-1.44 16.54,-1.33 16.51,-1.23 16.45,-1.14 16.39,-1.05 16.31,-0.99 16.23,-0.92 16.13,-0.88 16.03,-0.85 15.92,-0.84 15.82,-0.84 15.72,-0.87 15.61,-0.90 15.53,-0.97 15.44,-1.03 15.38,-1.11 15.32,-1.20 15.29,-1.30 15.26,-1.40 15.26,-1.51 15.26,-1.62 15.30,-1.72 15.34,-1.82 15.40,-1.90 15.47,-1.98 15.56,-2.04 15.65,-2.09 15.75,-2.12 15.85,-2.15 15.96,-2.14 16.07,-2.13 16.16,-2.09 16.26,-2.04 16.34,-1.97 16.42,-1.90 16.47,-1.81 16.52,-1.72 16.54,-1.61 16.56,-1.51 16.55,-1.40 16.53,-1.30 16.49,-1.20 16.44,-1.11 16.36,-1.03 16.29,-0.96 16.19,-0.91 16.10,-0.86 16.10,-0.86 16.10,-0.86 14.36,-0.13 12.62,0.60 11.45,0.70 10.27,0.81 8.89,0.96 7.52,1.12 6.39,1.11 5.27,1.10 3.79,1.07 2.31,1.05 1.15,0.85 0,0.65 -0.07,0.64 -0.15,0.63 -0.23,0.60 -0.30,0.58 -0.37,0.53 -0.43,0.49 -0.48,0.43 -0.54,0.37 -0.57,0.30 -0.61,0.23 -0.63,0.15 -0.65,0.07 -0.65,-0.00 -0.65,-0.07 -0.63,-0.15 -0.61,-0.23 -0.57,-0.30 -0.54,-0.37 -0.48,-0.43 -0.43,-0.49 -0.37,-0.53 -0.30,-0.58 -0.23,-0.60 -0.15,-0.63 -0.07,-0.64 0.00,-0.65 0.00,-0.65 L 0,-0.65 Z"/></g><g transform="translate(175.92986141603694 153.39598021452377) rotate(0 -1.7224465419681394 11.770112791190016)" stroke="none"><path fill="#1e1e1e" d="M 0.64,0.11 Q 0.64,0.11 0.57,1.97 0.49,3.84 0.22,6.55 -0.04,9.27 -0.50,11.80 -0.95,14.34 -1.17,16.33 -1.39,18.32 -2.06,20.67 -2.72,23.02 -2.75,23.12 -2.78,23.23 -2.84,23.31 -2.90,23.40 -2.98,23.46 -3.07,23.53 -3.17,23.56 -3.27,23.60 -3.38,23.60 -3.48,23.60 -3.58,23.56 -3.68,23.53 -3.77,23.46 -3.85,23.40 -3.91,23.31 -3.97,23.22 -4.00,23.12 -4.03,23.02 -4.02,22.91 -4.01,22.80 -3.97,22.71 -3.93,22.61 -3.87,22.53 -3.80,22.45 -3.71,22.39 -3.61,22.34 -3.51,22.31 -3.41,22.29 -3.30,22.30 -3.20,22.32 -3.10,22.36 -3.00,22.41 -2.93,22.48 -2.85,22.55 -2.80,22.65 -2.75,22.74 -2.73,22.85 -2.72,22.95 -2.73,23.06 -2.75,23.16 -2.80,23.25 -2.85,23.35 -2.93,23.42 -3.01,23.49 -3.10,23.54 -3.20,23.58 -3.31,23.59 -3.41,23.60 -3.52,23.58 -3.62,23.56 -3.71,23.50 -3.80,23.45 -3.87,23.36 -3.94,23.28 -3.98,23.18 -4.02,23.09 -4.02,22.98 -4.03,22.87 -4.03,22.87 -4.03,22.87 -3.89,20.48 -3.76,18.10 -3.59,15.99 -3.42,13.88 -2.96,11.44 -2.49,9.00 -2.15,6.21 -1.81,3.42 -1.23,1.65 -0.64,-0.11 -0.62,-0.19 -0.59,-0.26 -0.55,-0.33 -0.51,-0.40 -0.46,-0.46 -0.40,-0.51 -0.33,-0.55 -0.27,-0.59 -0.19,-0.62 -0.11,-0.64 -0.04,-0.65 0.03,-0.65 0.11,-0.64 0.19,-0.62 0.26,-0.59 0.33,-0.56 0.40,-0.51 0.46,-0.46 0.51,-0.40 0.56,-0.34 0.59,-0.26 0.62,-0.19 0.64,-0.11 0.65,-0.04 0.65,0.03 0.64,0.11 0.64,0.11 L 0.64,0.11 Z"/></g><g transform="translate(515.2535346185748 52.345268684228245) rotate(0 -2.0095286432638204 9.76058414792621)" stroke="none"><path fill="#1e1e1e" d="M 0.63,0.15 Q 0.63,0.15 0.55,1.54 0.47,2.92 0.02,4.96 -0.41,7.00 -0.94,8.89 -1.47,10.79 -1.69,12.16 -1.90,13.54 -2.60,16.27 -3.29,19.00 -3.32,19.10 -3.35,19.20 -3.41,19.29 -3.47,19.38 -3.56,19.44 -3.64,19.51 -3.74,19.54 -3.84,19.57 -3.95,19.57 -4.06,19.57 -4.16,19.54 -4.26,19.50 -4.34,19.44 -4.43,19.37 -4.48,19.28 -4.54,19.19 -4.57,19.09 -4.60,18.99 -4.59,18.88 -4.58,18.78 -4.54,18.68 -4.50,18.58 -4.43,18.50 -4.37,18.42 -4.27,18.37 -4.18,18.31 -4.08,18.29 -3.97,18.27 -3.87,18.28 -3.76,18.29 -3.67,18.34 -3.57,18.38 -3.49,18.46 -3.42,18.53 -3.37,18.63 -3.32,18.72 -3.30,18.82 -3.29,18.93 -3.31,19.03 -3.32,19.14 -3.37,19.23 -3.43,19.33 -3.50,19.40 -3.58,19.47 -3.68,19.51 -3.77,19.56 -3.88,19.57 -3.99,19.58 -4.09,19.56 -4.19,19.53 -4.28,19.48 -4.37,19.42 -4.44,19.34 -4.51,19.26 -4.55,19.16 -4.59,19.06 -4.59,18.95 -4.60,18.85 -4.60,18.85 -4.60,18.85 -4.45,16.01 -4.31,13.17 -4.08,11.64 -3.84,10.11 -3.31,8.29 -2.78,6.46 -2.28,4.41 -1.79,2.35 -1.21,1.09 -0.63,-0.15 -0.60,-0.23 -0.58,-0.30 -0.53,-0.37 -0.49,-0.43 -0.43,-0.48 -0.37,-0.54 -0.30,-0.57 -0.23,-0.61 -0.15,-0.63 -0.07,-0.65 0.00,-0.65 0.08,-0.65 0.15,-0.63 0.23,-0.61 0.30,-0.57 0.37,-0.53 0.43,-0.48 0.49,-0.43 0.53,-0.36 0.58,-0.30 0.61,-0.22 0.63,-0.15 0.64,-0.07 0.65,0.00 0.64,0.08 0.63,0.15 0.63,0.15 L 0.63,0.15 Z"/></g><g transform="translate(514.1052983450038 62.679994001842886) rotate(0 7.17686826916821 -0.28707634306994123)" stroke="none"><path fill="#1e1e1e" d="M 0,-0.65 Q 0,-0.65 1.15,-0.95 2.31,-1.25 3.13,-1.26 3.95,-1.28 5.12,-1.30 6.30,-1.31 7.54,-1.45 8.79,-1.59 11.29,-1.40 13.79,-1.21 13.90,-1.19 14.00,-1.18 14.10,-1.13 14.19,-1.09 14.27,-1.01 14.35,-0.94 14.39,-0.84 14.44,-0.75 14.46,-0.64 14.47,-0.54 14.45,-0.43 14.43,-0.33 14.38,-0.24 14.33,-0.14 14.25,-0.07 14.17,-0.00 14.08,0.03 13.98,0.08 13.87,0.09 13.77,0.09 13.66,0.07 13.56,0.04 13.47,-0.00 13.38,-0.06 13.31,-0.14 13.25,-0.22 13.21,-0.32 13.17,-0.42 13.17,-0.53 13.16,-0.63 13.19,-0.74 13.22,-0.84 13.29,-0.92 13.35,-1.01 13.43,-1.07 13.52,-1.14 13.62,-1.17 13.72,-1.20 13.83,-1.20 13.93,-1.20 14.03,-1.16 14.13,-1.12 14.22,-1.06 14.30,-0.99 14.36,-0.90 14.42,-0.81 14.44,-0.71 14.47,-0.61 14.46,-0.50 14.45,-0.40 14.41,-0.30 14.37,-0.20 14.30,-0.12 14.23,-0.04 14.14,0.00 14.05,0.05 13.94,0.08 13.84,0.10 13.84,0.10 13.84,0.10 11.47,0.51 9.10,0.93 7.70,1.12 6.30,1.31 5.12,1.30 3.95,1.28 3.13,1.26 2.31,1.25 1.15,0.95 0,0.65 -0.07,0.64 -0.15,0.63 -0.23,0.60 -0.30,0.58 -0.37,0.53 -0.43,0.49 -0.48,0.43 -0.54,0.37 -0.57,0.30 -0.61,0.23 -0.63,0.15 -0.65,0.07 -0.65,-0.00 -0.65,-0.07 -0.63,-0.15 -0.61,-0.23 -0.57,-0.30 -0.54,-0.37 -0.48,-0.43 -0.43,-0.49 -0.37,-0.53 -0.30,-0.58 -0.23,-0.60 -0.15,-0.63 -0.07,-0.64 0.00,-0.65 0.00,-0.65 L 0,-0.65 Z"/></g><g transform="translate(532.4780921698678 50.622810625808654) rotate(0 -1.1482823393768626 10.04765473277044)" stroke="none"><path fill="#1e1e1e" d="M 0.64,0.12 Q 0.64,0.12 0.61,1.84 0.58,3.55 0.30,5.38 0.02,7.22 -0.10,8.78 -0.22,10.34 -0.34,12.15 -0.46,13.96 -0.99,16.73 -1.52,19.51 -1.55,19.61 -1.57,19.72 -1.63,19.80 -1.69,19.89 -1.78,19.96 -1.86,20.02 -1.96,20.06 -2.06,20.09 -2.17,20.09 -2.27,20.10 -2.37,20.06 -2.47,20.03 -2.56,19.97 -2.64,19.90 -2.71,19.82 -2.77,19.73 -2.80,19.63 -2.83,19.53 -2.82,19.42 -2.82,19.31 -2.78,19.21 -2.74,19.11 -2.67,19.03 -2.60,18.95 -2.51,18.90 -2.42,18.84 -2.32,18.82 -2.22,18.79 -2.11,18.80 -2.00,18.81 -1.91,18.86 -1.81,18.90 -1.73,18.97 -1.65,19.04 -1.60,19.14 -1.55,19.23 -1.53,19.33 -1.52,19.44 -1.53,19.54 -1.55,19.65 -1.60,19.74 -1.65,19.84 -1.72,19.91 -1.80,19.99 -1.89,20.03 -1.99,20.08 -2.10,20.09 -2.20,20.10 -2.31,20.08 -2.41,20.06 -2.50,20.01 -2.59,19.95 -2.66,19.87 -2.73,19.79 -2.77,19.69 -2.81,19.60 -2.82,19.49 -2.83,19.38 -2.83,19.38 -2.83,19.38 -2.82,16.64 -2.81,13.89 -2.82,12.01 -2.83,10.13 -2.70,8.47 -2.56,6.80 -2.23,4.92 -1.90,3.05 -1.27,1.46 -0.64,-0.12 -0.61,-0.20 -0.59,-0.27 -0.55,-0.34 -0.51,-0.41 -0.45,-0.46 -0.39,-0.52 -0.32,-0.56 -0.25,-0.60 -0.18,-0.62 -0.10,-0.64 -0.02,-0.65 0.05,-0.65 0.12,-0.63 0.20,-0.62 0.27,-0.59 0.34,-0.55 0.41,-0.50 0.47,-0.45 0.51,-0.39 0.56,-0.33 0.59,-0.25 0.63,-0.18 0.64,-0.10 0.65,-0.02 0.64,0.04 0.64,0.12 0.64,0.12 L 0.64,0.12 Z"/></g><g transform="translate(612.8594221636426 28.80504310184824) rotate(0 1.1482823393768626 32.152504358026476)" stroke="none"><path fill="#1e1e1e" d="M 0.64,-0.10 Q 0.64,-0.10 1.01,0.84 1.38,1.80 1.48,2.76 1.57,3.72 1.61,4.97 1.66,6.21 1.70,7.73 1.73,9.24 1.92,10.98 2.11,12.73 2.36,14.45 2.61,16.18 2.72,17.63 2.83,19.07 2.88,20.35 2.93,21.63 2.95,22.67 2.97,23.71 2.98,24.65 3.00,25.59 3.01,26.65 3.01,27.71 3.02,28.82 3.04,29.93 2.87,31.16 2.70,32.39 2.64,33.63 2.58,34.88 2.55,36.08 2.53,37.27 2.52,38.44 2.51,39.61 2.51,40.60 2.51,41.59 2.51,42.67 2.52,43.75 2.53,44.54 2.54,45.33 2.71,46.39 2.88,47.46 2.96,48.32 3.04,49.18 3.08,49.89 3.11,50.60 3.14,51.58 3.17,52.56 3.40,53.15 3.64,53.74 3.69,54.32 3.75,54.90 3.78,55.79 3.81,56.68 3.82,57.54 3.83,58.41 3.58,59.45 3.34,60.49 2.86,62.30 2.38,64.11 2.36,64.21 2.34,64.32 2.29,64.41 2.24,64.50 2.16,64.58 2.08,64.65 1.99,64.69 1.89,64.74 1.78,64.75 1.68,64.76 1.57,64.74 1.47,64.71 1.38,64.66 1.29,64.60 1.22,64.52 1.15,64.44 1.12,64.34 1.08,64.24 1.07,64.13 1.07,64.03 1.10,63.93 1.12,63.82 1.19,63.74 1.25,63.65 1.33,63.58 1.42,63.52 1.52,63.49 1.62,63.45 1.72,63.46 1.83,63.46 1.93,63.49 2.03,63.53 2.11,63.59 2.20,63.66 2.26,63.74 2.32,63.83 2.34,63.93 2.37,64.04 2.37,64.14 2.36,64.25 2.32,64.35 2.28,64.45 2.21,64.53 2.14,64.61 2.05,64.66 1.96,64.72 1.85,64.74 1.75,64.76 1.64,64.75 1.54,64.73 1.44,64.69 1.35,64.64 1.27,64.57 1.19,64.50 1.14,64.40 1.09,64.31 1.08,64.20 1.06,64.10 1.06,64.10 1.06,64.10 0.69,62.08 0.31,60.06 0.53,59.24 0.75,58.41 0.75,57.56 0.75,56.71 0.75,55.90 0.74,55.09 0.71,54.53 0.69,53.97 0.47,53.33 0.25,52.68 0.24,51.70 0.24,50.73 0.21,50.08 0.18,49.42 0.12,48.64 0.07,47.85 -0.08,46.59 -0.24,45.33 -0.23,44.54 -0.21,43.75 -0.20,42.66 -0.19,41.58 -0.19,40.58 -0.18,39.58 -0.16,38.39 -0.14,37.21 -0.11,35.97 -0.08,34.74 -0.00,33.37 0.07,32.01 0.23,30.97 0.40,29.93 0.40,28.83 0.41,27.72 0.41,26.67 0.42,25.61 0.41,24.69 0.41,23.76 0.39,22.74 0.38,21.72 0.34,20.49 0.31,19.25 0.22,17.88 0.13,16.52 -0.09,14.74 -0.32,12.96 -0.47,11.11 -0.62,9.26 -0.61,7.76 -0.60,6.27 -0.61,5.08 -0.62,3.89 -0.67,3.02 -0.72,2.15 -0.68,1.13 -0.64,0.10 -0.65,0.02 -0.65,-0.05 -0.63,-0.12 -0.62,-0.20 -0.59,-0.27 -0.55,-0.34 -0.50,-0.41 -0.45,-0.47 -0.39,-0.51 -0.33,-0.56 -0.25,-0.59 -0.18,-0.63 -0.10,-0.64 -0.02,-0.65 0.04,-0.64 0.12,-0.64 0.20,-0.61 0.27,-0.59 0.34,-0.55 0.41,-0.51 0.46,-0.45 0.52,-0.39 0.56,-0.32 0.60,-0.25 0.62,-0.18 0.64,-0.10 0.64,-0.10 L 0.64,-0.10 Z"/></g><g transform="translate(608.840364877115 30.527501160267775) rotate(0 23.25314348108435 31.86542225673091)" stroke="none"><path fill="#1e1e1e" d="M -0.10,-0.64 Q -0.10,-0.64 0.84,-1.05 1.80,-1.47 3.02,-1.41 4.24,-1.35 5.58,-1.16 6.91,-0.97 8.37,-0.55 9.83,-0.13 11.42,0.36 13.00,0.85 14.53,1.40 16.05,1.94 17.72,2.68 19.39,3.42 21.47,4.56 23.55,5.71 25.67,6.65 27.80,7.58 29.73,8.48 31.67,9.38 33.21,10.29 34.76,11.20 36.34,12.65 37.93,14.10 39.09,15.38 40.26,16.67 41.15,18.13 42.05,19.60 42.74,20.86 43.43,22.12 44.06,23.31 44.69,24.50 45.29,25.67 45.89,26.84 46.31,27.67 46.74,28.50 46.99,29.53 47.24,30.57 47.47,31.37 47.70,32.17 47.84,33.15 47.97,34.13 48.03,35.22 48.09,36.30 48.11,37.42 48.14,38.54 47.98,39.65 47.81,40.76 47.56,41.61 47.30,42.47 47.03,43.29 46.77,44.11 46.27,45.08 45.78,46.05 45.05,47.15 44.33,48.24 43.49,49.25 42.65,50.26 41.63,51.35 40.61,52.44 39.68,53.39 38.76,54.35 37.65,55.30 36.55,56.26 35.57,57.01 34.59,57.76 33.25,58.48 31.90,59.20 30.72,59.82 29.53,60.43 27.88,60.92 26.23,61.41 25.12,61.75 24.01,62.10 22.56,62.57 21.10,63.05 19.68,63.29 18.26,63.52 17.29,63.76 16.32,64.00 15.42,64.25 14.52,64.51 13.64,64.77 12.76,65.03 11.93,65.16 11.10,65.28 9.03,64.86 6.96,64.43 6.86,64.39 6.77,64.34 6.69,64.27 6.62,64.19 6.57,64.10 6.52,64.00 6.51,63.90 6.49,63.79 6.51,63.69 6.53,63.58 6.58,63.49 6.63,63.40 6.71,63.33 6.79,63.25 6.89,63.21 6.99,63.17 7.09,63.16 7.20,63.15 7.30,63.18 7.40,63.20 7.49,63.26 7.58,63.31 7.65,63.40 7.72,63.48 7.76,63.58 7.79,63.68 7.80,63.78 7.80,63.89 7.77,63.99 7.74,64.09 7.68,64.18 7.62,64.27 7.53,64.33 7.44,64.39 7.34,64.42 7.24,64.46 7.13,64.45 7.03,64.45 6.93,64.41 6.83,64.38 6.75,64.31 6.66,64.25 6.60,64.16 6.55,64.07 6.52,63.97 6.49,63.86 6.50,63.76 6.51,63.65 6.55,63.55 6.59,63.45 6.66,63.38 6.73,63.30 6.83,63.24 6.92,63.19 7.02,63.17 7.13,63.15 7.23,63.16 7.34,63.18 7.34,63.18 7.34,63.18 8.92,62.50 10.51,61.82 11.10,61.70 11.69,61.59 12.60,61.29 13.50,60.99 14.48,60.70 15.46,60.41 16.57,60.15 17.68,59.88 18.83,59.72 19.98,59.55 21.46,59.07 22.95,58.60 24.10,58.25 25.25,57.91 26.58,57.56 27.92,57.21 29.10,56.63 30.27,56.04 31.38,55.50 32.49,54.96 33.39,54.29 34.30,53.62 35.29,52.78 36.29,51.94 37.20,51.01 38.11,50.08 39.07,49.06 40.04,48.04 40.77,47.19 41.51,46.35 42.15,45.41 42.79,44.47 43.18,43.77 43.57,43.06 43.83,42.26 44.09,41.46 44.30,40.84 44.51,40.21 44.66,39.40 44.81,38.59 44.80,37.52 44.79,36.44 44.76,35.48 44.73,34.52 44.66,33.78 44.59,33.04 44.34,32.13 44.09,31.23 43.99,30.57 43.88,29.91 43.48,29.09 43.07,28.27 42.48,27.11 41.90,25.95 41.30,24.78 40.70,23.60 40.05,22.39 39.39,21.18 38.68,19.94 37.97,18.70 36.91,17.50 35.85,16.30 34.53,15.03 33.22,13.75 31.81,12.89 30.41,12.03 28.52,11.11 26.62,10.19 24.40,9.17 22.17,8.15 20.22,7.03 18.28,5.91 16.70,5.19 15.12,4.47 13.66,3.92 12.19,3.38 10.63,2.86 9.07,2.34 7.79,1.93 6.51,1.51 5.27,1.29 4.03,1.07 3.09,0.94 2.16,0.80 1.13,0.72 0.10,0.64 0.02,0.65 -0.05,0.65 -0.12,0.63 -0.20,0.62 -0.27,0.59 -0.34,0.55 -0.41,0.50 -0.47,0.45 -0.51,0.39 -0.56,0.33 -0.59,0.25 -0.62,0.18 -0.64,0.10 -0.65,0.02 -0.64,-0.04 -0.64,-0.12 -0.61,-0.20 -0.59,-0.27 -0.55,-0.34 -0.51,-0.41 -0.45,-0.46 -0.39,-0.52 -0.32,-0.56 -0.25,-0.60 -0.18,-0.62 -0.10,-0.64 -0.10,-0.64 L -0.10,-0.64 Z"/></g><g transform="translate(612.8594221636426 41.4363791640223) rotate(0 4.880257524608794 -5.454439001877262)" stroke="none"><path fill="#1e1e1e" d="M -0.46,-0.46 Q -0.46,-0.46 -0.21,-1.20 0.03,-1.94 0.69,-2.69 1.35,-3.44 2.21,-4.67 3.08,-5.90 4.22,-7.13 5.36,-8.37 7.47,-9.76 9.58,-11.16 9.67,-11.21 9.77,-11.26 9.87,-11.27 9.98,-11.29 10.08,-11.27 10.18,-11.26 10.28,-11.21 10.37,-11.16 10.44,-11.08 10.52,-11.00 10.56,-10.90 10.61,-10.81 10.62,-10.70 10.63,-10.60 10.60,-10.49 10.58,-10.39 10.53,-10.30 10.47,-10.21 10.39,-10.14 10.31,-10.07 10.21,-10.03 10.11,-9.99 10.01,-9.99 9.90,-9.98 9.80,-10.01 9.69,-10.04 9.61,-10.10 9.52,-10.16 9.46,-10.24 9.39,-10.33 9.36,-10.43 9.32,-10.53 9.32,-10.64 9.32,-10.74 9.36,-10.84 9.39,-10.94 9.46,-11.03 9.52,-11.11 9.61,-11.17 9.70,-11.23 9.80,-11.26 9.90,-11.29 10.01,-11.28 10.12,-11.28 10.21,-11.24 10.31,-11.20 10.39,-11.13 10.47,-11.06 10.53,-10.97 10.58,-10.88 10.61,-10.77 10.63,-10.67 10.62,-10.56 10.60,-10.46 10.56,-10.36 10.51,-10.26 10.44,-10.19 10.37,-10.11 10.37,-10.11 10.37,-10.11 8.96,-8.27 7.55,-6.42 6.56,-5.24 5.56,-4.05 4.50,-2.70 3.44,-1.36 2.69,-0.69 1.94,-0.03 1.20,0.21 0.46,0.46 0.40,0.51 0.33,0.56 0.26,0.59 0.19,0.62 0.11,0.64 0.03,0.65 -0.03,0.65 -0.11,0.64 -0.19,0.62 -0.26,0.59 -0.33,0.55 -0.40,0.51 -0.46,0.46 -0.51,0.40 -0.55,0.33 -0.59,0.26 -0.62,0.19 -0.64,0.11 -0.65,0.03 -0.65,-0.03 -0.64,-0.11 -0.62,-0.19 -0.59,-0.26 -0.56,-0.33 -0.51,-0.40 -0.46,-0.46 -0.46,-0.46 L -0.46,-0.46 Z"/></g><g transform="translate(613.4334942346225 55.790173284616) rotate(0 9.473525079533431 -10.334731075840352)" stroke="none"><path fill="#1e1e1e" d="M -0.49,-0.43 Q -0.49,-0.43 0.46,-1.92 1.41,-3.42 2.36,-4.64 3.31,-5.86 4.50,-7.54 5.70,-9.23 7.60,-11.30 9.51,-13.36 11.80,-15.25 14.10,-17.14 15.91,-18.76 17.72,-20.39 17.80,-20.45 17.89,-20.51 17.99,-20.54 18.09,-20.57 18.20,-20.57 18.31,-20.56 18.40,-20.52 18.50,-20.48 18.59,-20.42 18.67,-20.35 18.72,-20.26 18.78,-20.17 18.80,-20.06 18.83,-19.96 18.82,-19.86 18.81,-19.75 18.76,-19.65 18.72,-19.56 18.65,-19.48 18.58,-19.40 18.48,-19.35 18.39,-19.30 18.28,-19.28 18.18,-19.26 18.07,-19.28 17.97,-19.29 17.88,-19.34 17.78,-19.39 17.71,-19.47 17.63,-19.54 17.59,-19.64 17.54,-19.73 17.53,-19.84 17.52,-19.95 17.54,-20.05 17.56,-20.15 17.61,-20.25 17.67,-20.34 17.75,-20.41 17.83,-20.48 17.93,-20.52 18.02,-20.56 18.13,-20.56 18.24,-20.57 18.34,-20.54 18.44,-20.52 18.53,-20.46 18.62,-20.40 18.68,-20.32 18.75,-20.23 18.78,-20.13 18.82,-20.03 18.82,-19.93 18.82,-19.82 18.79,-19.72 18.76,-19.62 18.69,-19.53 18.63,-19.45 18.63,-19.45 18.63,-19.45 16.95,-17.68 15.26,-15.92 13.34,-13.77 11.42,-11.62 9.63,-9.63 7.84,-7.63 6.55,-5.96 5.25,-4.29 4.23,-3.07 3.20,-1.85 1.84,-0.71 0.49,0.43 0.43,0.48 0.37,0.53 0.30,0.57 0.23,0.61 0.15,0.63 0.08,0.65 0.00,0.65 -0.07,0.65 -0.15,0.63 -0.22,0.61 -0.29,0.57 -0.36,0.54 -0.42,0.49 -0.48,0.43 -0.53,0.37 -0.57,0.30 -0.60,0.23 -0.63,0.16 -0.64,0.08 -0.65,0.00 -0.64,-0.07 -0.63,-0.15 -0.61,-0.22 -0.58,-0.30 -0.53,-0.36 -0.49,-0.43 -0.49,-0.43 L -0.49,-0.43 Z"/></g><g transform="translate(616.3043152475789 66.12491011868201) rotate(0 12.344253960878461 -14.353794120593648)" stroke="none"><path fill="#1e1e1e" d="M -0.53,-0.37 Q -0.53,-0.37 0.45,-2.13 1.45,-3.89 3.23,-6.30 5.00,-8.72 7.23,-11.57 9.46,-14.42 11.58,-16.95 13.71,-19.47 16.00,-21.84 18.29,-24.20 19.68,-25.32 21.07,-26.43 22.38,-27.54 23.68,-28.65 23.77,-28.71 23.86,-28.77 23.96,-28.80 24.06,-28.83 24.17,-28.83 24.27,-28.82 24.37,-28.78 24.47,-28.74 24.55,-28.68 24.63,-28.61 24.69,-28.52 24.75,-28.43 24.77,-28.32 24.79,-28.22 24.78,-28.11 24.77,-28.01 24.73,-27.91 24.68,-27.81 24.61,-27.74 24.54,-27.66 24.44,-27.61 24.35,-27.56 24.24,-27.54 24.14,-27.52 24.03,-27.54 23.93,-27.56 23.83,-27.61 23.74,-27.66 23.67,-27.73 23.59,-27.81 23.55,-27.91 23.50,-28.00 23.49,-28.11 23.48,-28.21 23.50,-28.32 23.53,-28.42 23.58,-28.51 23.63,-28.60 23.71,-28.67 23.80,-28.74 23.89,-28.78 23.99,-28.82 24.10,-28.83 24.20,-28.83 24.31,-28.80 24.41,-28.78 24.50,-28.72 24.59,-28.66 24.65,-28.57 24.72,-28.49 24.75,-28.39 24.78,-28.29 24.78,-28.18 24.78,-28.08 24.75,-27.98 24.72,-27.87 24.65,-27.79 24.59,-27.70 24.59,-27.70 24.59,-27.70 23.41,-26.45 22.23,-25.19 21.08,-23.94 19.92,-22.69 17.78,-20.27 15.63,-17.86 13.53,-15.35 11.42,-12.85 9.14,-10.07 6.86,-7.29 5.01,-4.99 3.16,-2.70 1.85,-1.16 0.53,0.37 0.48,0.43 0.43,0.49 0.36,0.53 0.30,0.58 0.22,0.61 0.15,0.63 0.07,0.64 -0.00,0.65 -0.08,0.64 -0.16,0.63 -0.23,0.60 -0.30,0.57 -0.37,0.53 -0.43,0.48 -0.49,0.42 -0.54,0.36 -0.57,0.29 -0.61,0.22 -0.63,0.15 -0.65,0.07 -0.65,-0.00 -0.65,-0.08 -0.63,-0.16 -0.61,-0.23 -0.57,-0.30 -0.53,-0.37 -0.53,-0.37 L -0.53,-0.37 Z"/></g><g transform="translate(615.1559868423965 82.77530346738376) rotate(0 14.353782604142225 -16.076246420787555)" stroke="none"><path fill="#1e1e1e" d="M -0.54,-0.36 Q -0.54,-0.36 -0.01,-1.44 0.50,-2.52 1.56,-4.14 2.63,-5.76 4.10,-7.49 5.57,-9.22 8.16,-12.09 10.76,-14.97 12.68,-17.16 14.61,-19.35 17.16,-21.90 19.70,-24.45 23.22,-27.77 26.74,-31.09 26.83,-31.15 26.92,-31.21 27.02,-31.24 27.12,-31.28 27.22,-31.28 27.33,-31.27 27.43,-31.24 27.53,-31.20 27.61,-31.14 27.70,-31.07 27.76,-30.98 27.81,-30.89 27.84,-30.79 27.87,-30.69 27.86,-30.58 27.85,-30.48 27.81,-30.38 27.77,-30.28 27.70,-30.20 27.63,-30.12 27.54,-30.07 27.45,-30.01 27.34,-29.99 27.24,-29.97 27.13,-29.98 27.03,-30.00 26.93,-30.04 26.84,-30.09 26.76,-30.16 26.68,-30.24 26.64,-30.33 26.59,-30.43 26.57,-30.53 26.56,-30.64 26.58,-30.74 26.59,-30.85 26.65,-30.94 26.70,-31.03 26.78,-31.11 26.85,-31.18 26.95,-31.22 27.05,-31.26 27.15,-31.27 27.26,-31.28 27.36,-31.26 27.47,-31.23 27.56,-31.18 27.65,-31.12 27.71,-31.04 27.78,-30.96 27.82,-30.86 27.86,-30.76 27.86,-30.65 27.86,-30.55 27.83,-30.44 27.80,-30.34 27.74,-30.25 27.68,-30.17 27.68,-30.17 27.68,-30.17 24.45,-26.59 21.21,-23.01 18.81,-20.39 16.41,-17.77 14.48,-15.55 12.55,-13.34 9.94,-10.51 7.33,-7.68 5.88,-6.09 4.43,-4.50 3.28,-2.96 2.13,-1.43 1.34,-0.53 0.54,0.36 0.49,0.42 0.44,0.48 0.37,0.53 0.31,0.57 0.24,0.60 0.16,0.63 0.08,0.64 0.01,0.65 -0.06,0.64 -0.14,0.64 -0.22,0.61 -0.29,0.58 -0.36,0.54 -0.42,0.49 -0.48,0.44 -0.53,0.38 -0.57,0.31 -0.61,0.24 -0.63,0.16 -0.65,0.08 -0.65,0.01 -0.65,-0.06 -0.63,-0.14 -0.61,-0.22 -0.58,-0.29 -0.54,-0.36 -0.54,-0.36 L -0.54,-0.36 Z"/></g><g transform="translate(623.1941014154515 89.66513570106207) rotate(0 13.205500264765362 -15.215023149803471)" stroke="none"><path fill="#1e1e1e" d="M -0.50,-0.42 Q -0.50,-0.42 0.14,-1.55 0.79,-2.69 2.08,-4.32 3.37,-5.95 5.21,-8.29 7.05,-10.64 8.99,-13.11 10.93,-15.59 13.29,-18.28 15.66,-20.98 18.19,-23.43 20.71,-25.88 22.87,-27.93 25.02,-29.98 25.11,-30.04 25.19,-30.11 25.29,-30.14 25.40,-30.17 25.50,-30.16 25.61,-30.16 25.71,-30.12 25.81,-30.08 25.89,-30.02 25.97,-29.95 26.03,-29.86 26.08,-29.77 26.11,-29.67 26.13,-29.56 26.12,-29.46 26.12,-29.35 26.07,-29.25 26.03,-29.16 25.96,-29.08 25.89,-29.00 25.79,-28.95 25.70,-28.90 25.60,-28.88 25.49,-28.86 25.39,-28.87 25.28,-28.89 25.19,-28.94 25.09,-28.98 25.02,-29.06 24.94,-29.14 24.90,-29.23 24.85,-29.33 24.84,-29.43 24.82,-29.54 24.84,-29.64 24.86,-29.75 24.92,-29.84 24.97,-29.93 25.05,-30.00 25.13,-30.07 25.23,-30.11 25.33,-30.15 25.43,-30.16 25.54,-30.17 25.64,-30.14 25.74,-30.12 25.83,-30.06 25.92,-30.00 25.99,-29.92 26.05,-29.83 26.09,-29.73 26.13,-29.63 26.13,-29.53 26.13,-29.42 26.10,-29.32 26.06,-29.22 26.00,-29.13 25.94,-29.05 25.94,-29.05 25.94,-29.05 23.89,-26.97 21.84,-24.89 19.75,-22.07 17.67,-19.25 15.40,-16.55 13.13,-13.84 11.15,-11.37 9.17,-8.90 7.23,-6.61 5.29,-4.31 3.89,-2.79 2.50,-1.27 1.50,-0.42 0.50,0.42 0.44,0.47 0.38,0.52 0.32,0.56 0.25,0.60 0.17,0.62 0.09,0.64 0.01,0.65 -0.05,0.65 -0.13,0.63 -0.21,0.62 -0.28,0.58 -0.35,0.55 -0.41,0.50 -0.47,0.45 -0.52,0.38 -0.57,0.32 -0.60,0.24 -0.63,0.17 -0.64,0.09 -0.65,0.01 -0.64,-0.05 -0.64,-0.13 -0.61,-0.21 -0.59,-0.28 -0.54,-0.35 -0.50,-0.42 -0.50,-0.42 L -0.50,-0.42 Z"/></g><g transform="translate(635.8254374776257 87.3685249565026) rotate(0 8.61227877564653 -10.334731075840352)" stroke="none"><path fill="#1e1e1e" d="M -0.54,-0.36 Q -0.54,-0.36 0.27,-1.96 1.09,-3.56 2.63,-5.73 4.18,-7.91 6.58,-10.60 8.99,-13.30 12.19,-16.48 15.39,-19.66 15.48,-19.73 15.56,-19.79 15.66,-19.83 15.76,-19.86 15.87,-19.86 15.97,-19.86 16.07,-19.83 16.18,-19.80 16.26,-19.73 16.35,-19.67 16.41,-19.58 16.47,-19.50 16.50,-19.39 16.53,-19.29 16.52,-19.19 16.52,-19.08 16.48,-18.98 16.44,-18.88 16.37,-18.80 16.30,-18.72 16.21,-18.66 16.12,-18.61 16.02,-18.58 15.92,-18.56 15.81,-18.57 15.70,-18.58 15.61,-18.62 15.51,-18.67 15.43,-18.74 15.36,-18.81 15.30,-18.90 15.25,-19.00 15.24,-19.10 15.22,-19.21 15.23,-19.31 15.25,-19.42 15.30,-19.51 15.35,-19.61 15.42,-19.68 15.50,-19.75 15.60,-19.80 15.69,-19.84 15.80,-19.86 15.90,-19.87 16.01,-19.85 16.11,-19.83 16.20,-19.77 16.29,-19.72 16.36,-19.64 16.43,-19.56 16.47,-19.46 16.51,-19.36 16.52,-19.26 16.53,-19.15 16.50,-19.05 16.47,-18.94 16.41,-18.86 16.36,-18.77 16.36,-18.77 16.36,-18.77 13.45,-15.36 10.55,-11.96 8.32,-9.23 6.08,-6.49 4.47,-4.43 2.86,-2.37 1.70,-1.00 0.54,0.36 0.49,0.42 0.44,0.48 0.37,0.53 0.31,0.57 0.24,0.60 0.16,0.63 0.08,0.64 0.01,0.65 -0.06,0.64 -0.14,0.64 -0.22,0.61 -0.29,0.58 -0.36,0.54 -0.42,0.49 -0.48,0.44 -0.53,0.38 -0.57,0.31 -0.61,0.24 -0.63,0.16 -0.65,0.08 -0.65,0.01 -0.65,-0.06 -0.63,-0.14 -0.61,-0.22 -0.58,-0.29 -0.54,-0.36 -0.54,-0.36 L -0.54,-0.36 Z"/></g><g transform="translate(658.2173807206289 64.40245206026248) rotate(0 14.92794680673353 1.7224523001938792)" stroke="none"><path fill="#1e1e1e" d="M 0.20,0.62 Q 0.20,0.62 -0.20,1.02 -0.62,1.42 -0.76,1.45 -0.89,1.47 -1.03,1.47 -1.17,1.46 -1.30,1.42 -1.44,1.39 -1.56,1.32 -1.68,1.25 -1.78,1.15 -1.88,1.05 -1.95,0.94 -2.03,0.82 -2.07,0.69 -2.12,0.56 -2.13,0.42 -2.14,0.28 -2.12,0.14 -2.09,0.00 -2.04,-0.11 -1.98,-0.24 -1.90,-0.35 -1.82,-0.46 -1.71,-0.55 -1.60,-0.64 -1.48,-0.70 -1.35,-0.76 -0.70,-0.80 -0.06,-0.83 0.48,-0.91 1.03,-0.98 2.28,-1.00 3.52,-1.03 4.32,-1.04 5.13,-1.06 5.96,-1.07 6.80,-1.09 7.87,-1.12 8.94,-1.15 9.51,-1.16 10.07,-1.17 10.64,-1.18 11.21,-1.19 12.12,-1.20 13.03,-1.22 13.57,-1.23 14.12,-1.23 14.85,-1.25 15.57,-1.26 16.74,-1.27 17.91,-1.28 18.56,-1.27 19.21,-1.27 19.95,-1.06 20.68,-0.84 21.68,-1.02 22.68,-1.20 23.42,-1.25 24.17,-1.30 25.01,-1.31 25.86,-1.32 26.52,-1.32 27.17,-1.33 28.29,-1.34 29.42,-1.35 30.00,0.51 30.59,2.38 30.67,2.39 30.75,2.40 30.82,2.43 30.90,2.46 30.96,2.50 31.03,2.55 31.08,2.61 31.13,2.67 31.17,2.74 31.21,2.81 31.22,2.88 31.24,2.96 31.24,3.04 31.24,3.12 31.22,3.20 31.21,3.27 31.17,3.34 31.13,3.41 31.08,3.47 31.03,3.53 30.96,3.58 30.90,3.62 30.82,3.65 30.75,3.68 30.67,3.69 30.59,3.70 30.84,3.59 31.09,3.47 31.00,3.54 30.92,3.61 30.82,3.65 30.72,3.68 30.62,3.69 30.51,3.69 30.41,3.66 30.31,3.63 30.22,3.57 30.13,3.51 30.07,3.42 30.01,3.34 29.97,3.24 29.94,3.14 29.94,3.03 29.95,2.92 29.98,2.82 30.02,2.72 30.08,2.64 30.15,2.56 30.24,2.50 30.33,2.44 30.43,2.41 30.53,2.39 30.64,2.39 30.74,2.40 30.84,2.44 30.94,2.48 31.02,2.55 31.10,2.62 31.15,2.72 31.21,2.81 31.23,2.91 31.25,3.02 31.23,3.12 31.22,3.23 31.18,3.32 31.13,3.42 31.05,3.49 30.98,3.57 30.89,3.62 30.79,3.67 30.69,3.68 30.58,3.70 30.48,3.68 30.37,3.66 30.28,3.61 30.19,3.56 30.11,3.48 30.04,3.40 30.00,3.30 29.96,3.21 29.95,3.10 29.94,2.99 29.96,2.89 29.99,2.79 30.29,2.59 30.59,2.38 30.67,2.39 30.75,2.40 30.82,2.43 30.90,2.46 30.96,2.50 31.03,2.55 31.08,2.61 31.13,2.67 31.17,2.74 31.21,2.81 31.22,2.88 31.24,2.96 31.24,3.04 31.24,3.12 31.22,3.20 31.21,3.27 31.17,3.34 31.13,3.41 31.08,3.47 31.03,3.53 30.96,3.58 30.90,3.62 30.82,3.65 30.75,3.68 30.67,3.69 30.59,3.70 30.00,3.10 29.42,2.50 28.29,2.49 27.17,2.48 26.17,2.48 25.17,2.47 24.46,2.48 23.75,2.49 23.18,2.54 22.60,2.60 21.72,2.75 20.85,2.89 19.99,2.66 19.12,2.42 18.52,2.42 17.91,2.42 16.74,2.41 15.57,2.41 14.85,2.39 14.12,2.38 13.57,2.37 13.03,2.37 12.12,2.35 11.21,2.34 10.64,2.33 10.07,2.31 9.50,2.30 8.94,2.29 7.87,2.26 6.80,2.24 5.96,2.22 5.12,2.21 4.32,2.19 3.51,2.17 2.78,2.15 2.05,2.13 1.50,2.11 0.95,2.09 0.16,1.76 -0.62,1.42 -0.76,1.45 -0.89,1.47 -1.03,1.47 -1.17,1.46 -1.30,1.42 -1.44,1.39 -1.56,1.32 -1.68,1.25 -1.78,1.15 -1.88,1.05 -1.95,0.94 -2.03,0.82 -2.07,0.69 -2.12,0.56 -2.13,0.42 -2.14,0.28 -2.12,0.14 -2.09,0.00 -2.04,-0.11 -1.98,-0.24 -1.90,-0.35 -1.82,-0.46 -1.71,-0.55 -1.60,-0.64 -1.48,-0.70 -1.35,-0.76 -0.78,-0.69 -0.20,-0.62 -0.13,-0.63 -0.05,-0.65 0.02,-0.65 0.10,-0.64 0.18,-0.62 0.25,-0.60 0.32,-0.56 0.39,-0.52 0.45,-0.46 0.50,-0.41 0.55,-0.34 0.59,-0.28 0.61,-0.20 0.64,-0.13 0.64,-0.05 0.65,0.02 0.64,0.10 0.63,0.18 0.59,0.25 0.56,0.32 0.52,0.39 0.47,0.45 0.41,0.50 0.35,0.55 0.27,0.58 0.20,0.62 0.20,0.62 L 0.20,0.62 Z"/></g><g transform="translate(11.722446541968168 52.91942137036813) rotate(0 0 8.612273017420762)" stroke="none"><path fill="#1e1e1e" d="M 0.65,0 Q 0.65,0 0.90,1.32 1.15,2.64 1.17,4.35 1.19,6.07 1.19,7.46 1.20,8.85 1.21,10.43 1.22,12.01 0.94,14.48 0.65,16.94 0.63,17.04 0.62,17.15 0.57,17.24 0.52,17.34 0.44,17.41 0.36,17.48 0.27,17.53 0.17,17.57 0.07,17.58 -0.03,17.60 -0.13,17.57 -0.24,17.55 -0.33,17.49 -0.42,17.44 -0.49,17.36 -0.56,17.28 -0.60,17.18 -0.64,17.08 -0.64,16.97 -0.65,16.87 -0.62,16.77 -0.59,16.66 -0.53,16.58 -0.47,16.49 -0.39,16.42 -0.30,16.36 -0.20,16.33 -0.10,16.29 0.00,16.29 0.10,16.29 0.20,16.33 0.30,16.36 0.39,16.42 0.47,16.49 0.53,16.58 0.59,16.66 0.62,16.77 0.65,16.87 0.64,16.97 0.64,17.08 0.60,17.18 0.56,17.28 0.49,17.36 0.42,17.44 0.33,17.49 0.24,17.55 0.13,17.57 0.03,17.60 -0.07,17.58 -0.17,17.57 -0.27,17.53 -0.36,17.48 -0.44,17.41 -0.52,17.34 -0.57,17.24 -0.62,17.15 -0.63,17.04 -0.65,16.94 -0.65,16.94 -0.65,16.94 -0.94,14.48 -1.22,12.01 -1.21,10.43 -1.20,8.85 -1.19,7.46 -1.19,6.07 -1.17,4.35 -1.15,2.64 -0.90,1.32 -0.65,0 -0.64,-0.07 -0.63,-0.15 -0.60,-0.23 -0.58,-0.30 -0.53,-0.37 -0.49,-0.43 -0.43,-0.48 -0.37,-0.54 -0.30,-0.57 -0.23,-0.61 -0.15,-0.63 -0.07,-0.65 0.00,-0.65 0.07,-0.65 0.15,-0.63 0.23,-0.61 0.30,-0.57 0.37,-0.54 0.43,-0.48 0.49,-0.43 0.53,-0.37 0.58,-0.30 0.60,-0.23 0.63,-0.15 0.64,-0.07 0.65,0.00 0.65,0.00 L 0.65,0 Z"/></g><g transform="translate(18.612278775646473 60.95754745987472) rotate(0 1.1483053722797365 1.7224523001938792)" stroke="none"><path fill="#1e1e1e" d="M -0.62,-0.20 Q -0.62,-0.20 -0.65,-0.66 -0.68,-1.12 -0.30,-0.73 0.08,-0.33 -0.46,0.15 -1.01,0.64 -1.42,1.03 -1.82,1.42 -2.04,2.04 -2.25,2.67 -2.19,3.42 -2.13,4.17 -1.86,4.68 -1.58,5.19 -0.82,5.53 -0.07,5.87 0.49,5.96 1.05,6.05 1.87,5.35 2.68,4.65 3.35,3.78 4.02,2.92 4.24,2.05 4.45,1.19 4.41,0.33 4.36,-0.51 3.94,-0.99 3.52,-1.47 2.44,-1.89 1.36,-2.32 -0.38,-1.19 -2.14,-0.05 -2.19,0.03 -2.25,0.12 -2.33,0.19 -2.41,0.26 -2.51,0.30 -2.60,0.34 -2.71,0.34 -2.82,0.35 -2.92,0.32 -3.02,0.29 -3.11,0.23 -3.20,0.17 -3.26,0.09 -3.33,0.00 -3.36,-0.09 -3.39,-0.19 -3.39,-0.29 -3.39,-0.40 -3.36,-0.50 -3.33,-0.60 -3.26,-0.69 -3.20,-0.77 -3.11,-0.83 -3.02,-0.89 -2.92,-0.92 -2.82,-0.95 -2.71,-0.94 -2.61,-0.94 -2.51,-0.90 -2.41,-0.86 -2.33,-0.79 -2.25,-0.72 -2.19,-0.63 -2.14,-0.54 -2.11,-0.44 -2.09,-0.33 -2.10,-0.23 -2.11,-0.12 -2.16,-0.02 -2.20,0.06 -2.28,0.14 -2.35,0.22 -2.44,0.27 -2.54,0.32 -2.64,0.33 -2.75,0.35 -2.85,0.33 -2.96,0.32 -3.05,0.27 -3.14,0.22 -3.22,0.14 -3.29,0.06 -3.33,-0.02 -3.38,-0.12 -3.39,-0.22 -3.40,-0.33 -3.38,-0.43 -3.36,-0.54 -3.36,-0.54 -3.36,-0.54 -1.87,-2.50 -0.39,-4.47 0.68,-4.77 1.75,-5.07 3.16,-4.73 4.57,-4.39 5.28,-3.71 5.99,-3.03 6.57,-1.90 7.16,-0.76 7.15,0.62 7.13,2.00 6.65,3.30 6.17,4.61 5.19,5.73 4.21,6.86 2.70,7.73 1.19,8.61 0.17,8.52 -0.83,8.44 -1.78,8.07 -2.73,7.71 -3.36,7.01 -4.00,6.32 -4.39,5.30 -4.78,4.29 -4.75,3.00 -4.72,1.71 -4.21,0.64 -3.70,-0.42 -2.81,-1.20 -1.92,-1.98 -1.40,-2.24 -0.88,-2.51 -0.34,-2.49 0.19,-2.48 0.77,-1.67 1.35,-0.85 0.98,-0.32 0.62,0.20 0.58,0.27 0.55,0.35 0.50,0.41 0.45,0.47 0.39,0.52 0.32,0.56 0.25,0.59 0.18,0.63 0.10,0.64 0.02,0.65 -0.05,0.64 -0.13,0.64 -0.20,0.61 -0.28,0.59 -0.34,0.55 -0.41,0.50 -0.46,0.45 -0.52,0.39 -0.56,0.32 -0.60,0.25 -0.62,0.18 -0.64,0.10 -0.65,0.02 -0.65,-0.05 -0.63,-0.13 -0.62,-0.20 -0.62,-0.20 L -0.62,-0.20 Z"/></g><g transform="translate(25.50211100932478 56.93847865689571) rotate(0 4.593221489118889 7.176897060296824)" stroke="none"><path fill="#1e1e1e" d="M 0.32,-0.57 Q 0.32,-0.57 1.64,-0.18 2.95,0.19 3.65,0.66 4.35,1.13 5.13,1.64 5.90,2.15 6.74,2.68 7.57,3.22 8.40,3.91 9.23,4.60 9.56,5.89 9.89,7.18 9.41,8.58 8.93,9.98 7.92,11.10 6.91,12.21 4.72,13.40 2.52,14.59 2.43,14.64 2.33,14.68 2.23,14.69 2.12,14.71 2.02,14.68 1.91,14.66 1.82,14.61 1.73,14.55 1.66,14.47 1.59,14.39 1.55,14.29 1.51,14.19 1.51,14.09 1.50,13.98 1.53,13.88 1.56,13.78 1.62,13.69 1.67,13.60 1.76,13.54 1.84,13.47 1.94,13.44 2.04,13.40 2.15,13.40 2.26,13.40 2.36,13.44 2.46,13.47 2.54,13.53 2.63,13.60 2.69,13.68 2.75,13.77 2.78,13.87 2.81,13.98 2.80,14.08 2.80,14.19 2.76,14.29 2.72,14.39 2.65,14.47 2.58,14.55 2.49,14.60 2.40,14.66 2.30,14.68 2.19,14.71 2.09,14.69 1.98,14.68 1.88,14.64 1.79,14.60 1.71,14.52 1.63,14.45 1.58,14.36 1.53,14.26 1.51,14.16 1.50,14.05 1.51,13.95 1.53,13.84 1.58,13.75 1.63,13.66 1.71,13.58 1.78,13.51 1.78,13.51 1.78,13.51 3.28,11.89 4.77,10.27 5.46,9.51 6.15,8.74 6.63,7.55 7.12,6.35 6.59,5.91 6.06,5.47 5.24,4.91 4.43,4.35 3.66,3.82 2.88,3.29 2.27,2.87 1.66,2.44 0.67,1.50 -0.32,0.57 -0.38,0.52 -0.45,0.47 -0.50,0.41 -0.55,0.35 -0.58,0.28 -0.62,0.21 -0.63,0.13 -0.65,0.05 -0.65,-0.02 -0.64,-0.10 -0.62,-0.17 -0.60,-0.25 -0.56,-0.32 -0.52,-0.39 -0.47,-0.44 -0.41,-0.50 -0.35,-0.54 -0.28,-0.59 -0.20,-0.61 -0.13,-0.64 -0.05,-0.64 0.02,-0.65 0.10,-0.64 0.17,-0.63 0.25,-0.60 0.32,-0.57 0.32,-0.57 L 0.32,-0.57 Z"/></g><g transform="translate(28.947004093261114 43.15883722244189) rotate(0 1.1483053722797365 2.2966049863337332)" stroke="none"><path fill="#1e1e1e" d="M 0,0.65 Q 0,0.65 -0.29,0.97 -0.58,1.29 -0.66,1.97 -0.73,2.65 -0.78,3.29 -0.83,3.94 -0.21,4.83 0.40,5.73 1.12,5.63 1.83,5.53 2.21,4.94 2.59,4.35 2.74,3.74 2.89,3.13 2.80,2.34 2.71,1.56 2.54,0.77 2.37,-0.02 1.61,-0.54 0.85,-1.06 -0.43,-1.19 -1.71,-1.32 -1.81,-1.28 -1.91,-1.23 -2.01,-1.21 -2.12,-1.20 -2.22,-1.22 -2.32,-1.24 -2.42,-1.29 -2.51,-1.35 -2.58,-1.43 -2.65,-1.51 -2.69,-1.60 -2.73,-1.70 -2.74,-1.81 -2.75,-1.91 -2.72,-2.02 -2.70,-2.12 -2.64,-2.21 -2.58,-2.30 -2.50,-2.36 -2.42,-2.43 -2.32,-2.47 -2.22,-2.50 -2.11,-2.50 -2.00,-2.51 -1.90,-2.48 -1.80,-2.44 -1.71,-2.38 -1.63,-2.32 -1.57,-2.23 -1.51,-2.15 -1.48,-2.04 -1.44,-1.94 -1.45,-1.84 -1.45,-1.73 -1.49,-1.63 -1.53,-1.53 -1.59,-1.45 -1.66,-1.37 -1.75,-1.31 -1.84,-1.25 -1.94,-1.23 -2.05,-1.20 -2.15,-1.21 -2.26,-1.22 -2.35,-1.26 -2.45,-1.31 -2.53,-1.38 -2.61,-1.45 -2.66,-1.54 -2.71,-1.63 -2.73,-1.74 -2.75,-1.84 -2.74,-1.95 -2.72,-2.05 -2.67,-2.15 -2.63,-2.24 -2.55,-2.32 -2.48,-2.39 -2.48,-2.39 -2.48,-2.39 -0.10,-2.94 2.27,-3.48 3.14,-2.91 4.00,-2.33 4.53,-1.50 5.07,-0.68 5.27,0.36 5.48,1.42 5.49,2.66 5.50,3.90 5.12,4.95 4.73,5.99 3.85,6.96 2.98,7.92 1.91,8.26 0.84,8.59 0.06,8.38 -0.71,8.16 -1.23,7.75 -1.74,7.33 -2.28,6.56 -2.81,5.80 -3.15,4.80 -3.48,3.81 -3.14,2.26 -2.80,0.71 -2.43,0.04 -2.07,-0.62 -1.40,-0.96 -0.73,-1.29 -0.36,-0.97 0,-0.65 0.07,-0.64 0.15,-0.63 0.23,-0.60 0.30,-0.58 0.37,-0.53 0.43,-0.49 0.48,-0.43 0.54,-0.37 0.57,-0.30 0.61,-0.23 0.63,-0.15 0.65,-0.07 0.65,0.00 0.65,0.07 0.63,0.15 0.61,0.23 0.57,0.30 0.54,0.37 0.48,0.43 0.43,0.49 0.37,0.53 0.30,0.58 0.23,0.60 0.15,0.63 0.07,0.64 -0.00,0.65 -0.00,0.65 L 0,0.65 Z"/></g><g transform="translate(27.224557551293003 42.58468453630201) rotate(0 2.5836928458550688 2.5836813294036745)" stroke="none"><path fill="#1e1e1e" d="M 0.39,-0.52 Q 0.39,-0.52 1.20,-0.22 2.00,0.08 2.56,0.70 3.12,1.31 4.20,2.83 5.29,4.35 5.35,4.44 5.41,4.52 5.44,4.62 5.47,4.73 5.46,4.83 5.46,4.94 5.42,5.04 5.38,5.14 5.32,5.22 5.25,5.30 5.16,5.36 5.07,5.41 4.96,5.44 4.86,5.46 4.75,5.45 4.65,5.44 4.55,5.40 4.45,5.35 4.38,5.28 4.30,5.21 4.25,5.12 4.20,5.02 4.18,4.92 4.16,4.81 4.18,4.71 4.19,4.60 4.24,4.51 4.29,4.41 4.37,4.34 4.44,4.27 4.54,4.22 4.63,4.17 4.74,4.16 4.84,4.15 4.95,4.17 5.05,4.19 5.14,4.25 5.24,4.30 5.31,4.38 5.37,4.46 5.42,4.56 5.46,4.66 5.46,4.76 5.47,4.87 5.44,4.97 5.42,5.07 5.36,5.16 5.30,5.25 5.21,5.32 5.13,5.38 5.03,5.42 4.93,5.45 4.82,5.45 4.72,5.45 4.62,5.42 4.52,5.39 4.43,5.33 4.34,5.26 4.34,5.26 4.34,5.26 2.82,4.04 1.29,2.82 0.96,2.36 0.63,1.89 0.11,1.21 -0.39,0.52 -0.45,0.47 -0.50,0.41 -0.55,0.34 -0.59,0.28 -0.61,0.20 -0.64,0.13 -0.64,0.05 -0.65,-0.02 -0.64,-0.10 -0.63,-0.18 -0.59,-0.25 -0.56,-0.32 -0.52,-0.39 -0.47,-0.45 -0.41,-0.50 -0.35,-0.55 -0.27,-0.58 -0.20,-0.62 -0.13,-0.63 -0.05,-0.65 0.02,-0.65 0.10,-0.64 0.18,-0.62 0.25,-0.60 0.32,-0.56 0.39,-0.52 0.39,-0.52 L 0.39,-0.52 Z"/></g><g transform="translate(27.224557551293003 48.32619988124918) rotate(0 2.0095286432637636 -2.296604986333705)" stroke="none"><path fill="#1e1e1e" d="M -0.51,-0.41 Q -0.51,-0.41 0.00,-1.35 0.51,-2.29 1.86,-3.49 3.21,-4.69 3.30,-4.76 3.38,-4.82 3.48,-4.86 3.58,-4.89 3.69,-4.89 3.79,-4.89 3.89,-4.86 3.99,-4.82 4.08,-4.76 4.16,-4.70 4.22,-4.61 4.28,-4.52 4.31,-4.42 4.34,-4.31 4.33,-4.21 4.33,-4.10 4.29,-4.00 4.25,-3.90 4.18,-3.82 4.11,-3.74 4.02,-3.69 3.93,-3.63 3.83,-3.61 3.72,-3.59 3.62,-3.60 3.51,-3.61 3.42,-3.65 3.32,-3.70 3.24,-3.77 3.17,-3.85 3.12,-3.94 3.07,-4.03 3.05,-4.14 3.03,-4.24 3.05,-4.35 3.07,-4.45 3.11,-4.55 3.16,-4.64 3.24,-4.71 3.32,-4.79 3.42,-4.83 3.51,-4.88 3.62,-4.89 3.72,-4.90 3.83,-4.88 3.93,-4.85 4.02,-4.80 4.11,-4.74 4.18,-4.66 4.25,-4.58 4.29,-4.48 4.33,-4.38 4.33,-4.28 4.34,-4.17 4.31,-4.07 4.28,-3.97 4.22,-3.88 4.16,-3.79 4.16,-3.79 4.16,-3.79 3.14,-2.40 2.12,-1.00 1.31,-0.29 0.51,0.41 0.45,0.46 0.39,0.52 0.33,0.56 0.26,0.60 0.18,0.62 0.11,0.64 0.03,0.65 -0.04,0.65 -0.12,0.63 -0.20,0.62 -0.27,0.59 -0.34,0.55 -0.40,0.50 -0.46,0.45 -0.51,0.39 -0.56,0.33 -0.59,0.26 -0.62,0.18 -0.64,0.11 -0.65,0.03 -0.65,-0.04 -0.64,-0.12 -0.62,-0.20 -0.59,-0.27 -0.55,-0.34 -0.51,-0.41 -0.51,-0.41 L -0.51,-0.41 Z"/></g><g transform="translate(34.11438978497131 49.474505253528946) rotate(0 6.028585929791376 -2.009528643263792)" stroke="none"><path fill="#1e1e1e" d="M -0.58,-0.29 Q -0.58,-0.29 -0.38,-1.01 -0.17,-1.74 0.32,-2.44 0.81,-3.14 1.18,-3.60 1.54,-4.06 2.00,-4.49 2.47,-4.93 3.29,-5.00 4.11,-5.07 4.78,-4.58 5.45,-4.10 5.76,-3.23 6.06,-2.36 6.14,-1.73 6.21,-1.10 6.43,-0.80 6.64,-0.50 6.64,-0.36 6.63,-0.21 6.60,-0.08 6.56,0.05 6.49,0.18 6.42,0.31 6.33,0.41 6.23,0.52 6.11,0.60 5.99,0.68 5.86,0.73 5.72,0.78 5.58,0.79 5.44,0.81 5.29,0.79 5.15,0.77 5.02,0.72 4.88,0.67 4.77,0.58 4.65,0.50 4.56,0.39 4.46,0.28 4.40,0.15 4.33,0.03 4.30,-0.10 4.27,-0.24 4.70,-0.95 5.13,-1.65 5.42,-2.14 5.71,-2.62 5.94,-2.72 6.18,-2.81 6.27,-2.91 6.37,-3.01 6.49,-3.08 6.60,-3.15 6.73,-3.19 6.86,-3.24 7.00,-3.25 7.14,-3.26 7.27,-3.23 7.41,-3.21 7.53,-3.16 7.66,-3.10 7.77,-3.02 7.88,-2.94 7.96,-2.83 8.05,-2.72 8.11,-2.60 8.17,-2.47 8.19,-2.34 8.22,-2.20 8.21,-2.07 8.21,-1.93 8.17,-1.80 8.13,-1.67 8.06,-1.55 7.99,-1.43 8.56,-1.32 9.12,-1.21 10.34,-0.89 11.56,-0.57 11.66,-0.57 11.77,-0.57 11.87,-0.54 11.97,-0.51 12.06,-0.45 12.15,-0.39 12.21,-0.30 12.27,-0.22 12.30,-0.11 12.33,-0.01 12.33,0.08 12.33,0.19 12.29,0.29 12.25,0.39 12.19,0.47 12.12,0.55 12.03,0.61 11.94,0.67 11.84,0.70 11.73,0.72 11.63,0.71 11.52,0.70 11.43,0.66 11.33,0.62 11.25,0.55 11.17,0.48 11.12,0.39 11.07,0.29 11.05,0.19 11.03,0.08 11.04,-0.01 11.05,-0.12 11.10,-0.21 11.15,-0.31 11.22,-0.38 11.30,-0.46 11.39,-0.50 11.49,-0.55 11.59,-0.57 11.70,-0.58 11.80,-0.56 11.91,-0.54 12.00,-0.49 12.09,-0.44 12.16,-0.36 12.23,-0.28 12.28,-0.18 12.32,-0.08 12.33,0.01 12.34,0.12 12.31,0.22 12.28,0.33 12.23,0.42 12.17,0.50 12.09,0.57 12.00,0.64 11.90,0.67 11.81,0.71 11.81,0.71 11.81,0.71 9.57,0.54 7.34,0.37 6.78,-0.38 6.21,-1.13 6.20,-1.97 6.18,-2.81 6.27,-2.91 6.37,-3.01 6.49,-3.08 6.60,-3.15 6.73,-3.19 6.86,-3.24 7.00,-3.25 7.14,-3.26 7.27,-3.23 7.41,-3.21 7.53,-3.16 7.66,-3.10 7.77,-3.02 7.88,-2.94 7.96,-2.83 8.05,-2.72 8.11,-2.60 8.17,-2.47 8.19,-2.34 8.22,-2.20 8.21,-2.07 8.21,-1.93 8.17,-1.80 8.13,-1.67 8.06,-1.55 7.99,-1.43 7.31,-0.97 6.64,-0.50 6.64,-0.36 6.63,-0.21 6.60,-0.08 6.56,0.05 6.49,0.18 6.42,0.31 6.33,0.41 6.23,0.52 6.11,0.60 5.99,0.68 5.86,0.73 5.72,0.78 5.58,0.79 5.44,0.81 5.29,0.79 5.15,0.77 5.02,0.72 4.88,0.67 4.77,0.58 4.65,0.50 4.56,0.39 4.46,0.28 4.40,0.15 4.33,0.03 4.30,-0.10 4.27,-0.24 4.09,-0.46 3.92,-0.67 3.86,-1.24 3.80,-1.82 3.46,-2.26 3.11,-2.71 2.75,-2.32 2.38,-1.93 1.94,-1.41 1.49,-0.89 1.04,-0.30 0.58,0.29 0.54,0.35 0.49,0.42 0.44,0.47 0.38,0.53 0.31,0.57 0.24,0.60 0.16,0.62 0.09,0.65 0.01,0.65 -0.06,0.65 -0.14,0.63 -0.22,0.61 -0.29,0.58 -0.36,0.54 -0.42,0.49 -0.48,0.44 -0.52,0.38 -0.57,0.31 -0.60,0.24 -0.63,0.16 -0.64,0.09 -0.65,0.01 -0.64,-0.06 -0.64,-0.14 -0.61,-0.21 -0.58,-0.29 -0.58,-0.29 L -0.58,-0.29 Z"/></g><g transform="translate(33.54022558238 78.18210501116766) rotate(0 4.019057286527612 -4.3061509042746025)" stroke="none"><path fill="#1e1e1e" d="M -0.61,-0.23 Q -0.61,-0.23 -0.41,-1.66 -0.21,-3.09 0.33,-4.35 0.87,-5.61 1.43,-6.81 1.99,-8.00 2.43,-8.73 2.86,-9.46 3.24,-9.97 3.63,-10.49 4.94,-10.67 6.25,-10.85 6.61,-10.42 6.97,-9.98 7.35,-8.98 7.72,-7.99 7.87,-7.20 8.02,-6.41 8.24,-5.31 8.46,-4.20 8.69,-3.27 8.93,-2.34 8.80,-0.44 8.68,1.45 8.66,1.56 8.65,1.66 8.61,1.76 8.56,1.85 8.49,1.93 8.42,2.01 8.32,2.06 8.23,2.11 8.13,2.12 8.02,2.14 7.92,2.12 7.81,2.11 7.72,2.06 7.62,2.01 7.55,1.93 7.48,1.85 7.43,1.76 7.39,1.66 7.38,1.55 7.37,1.45 7.39,1.35 7.41,1.24 7.47,1.15 7.52,1.06 7.60,0.99 7.68,0.92 7.78,0.88 7.88,0.84 7.99,0.84 8.09,0.83 8.19,0.86 8.30,0.89 8.38,0.95 8.47,1.01 8.54,1.09 8.60,1.18 8.63,1.28 8.67,1.38 8.67,1.49 8.67,1.59 8.63,1.69 8.60,1.79 8.54,1.88 8.47,1.96 8.38,2.02 8.30,2.08 8.19,2.11 8.09,2.14 7.99,2.13 7.88,2.13 7.78,2.09 7.68,2.05 7.60,1.98 7.52,1.91 7.47,1.82 7.41,1.73 7.39,1.62 7.36,1.52 7.36,1.52 7.36,1.52 6.87,-0.07 6.37,-1.66 6.10,-2.67 5.82,-3.69 5.60,-4.81 5.38,-5.94 5.28,-6.52 5.19,-7.11 4.75,-8.18 4.31,-9.25 4.72,-8.67 5.13,-8.08 4.75,-7.48 4.38,-6.87 3.82,-5.71 3.26,-4.55 2.73,-3.37 2.19,-2.18 1.40,-0.97 0.61,0.23 0.57,0.30 0.54,0.37 0.48,0.43 0.43,0.48 0.37,0.53 0.30,0.58 0.23,0.60 0.15,0.63 0.08,0.64 0.00,0.65 -0.07,0.64 -0.15,0.63 -0.22,0.61 -0.30,0.58 -0.36,0.53 -0.43,0.49 -0.48,0.43 -0.53,0.37 -0.57,0.30 -0.61,0.23 -0.63,0.15 -0.65,0.08 -0.65,0.00 -0.65,-0.07 -0.63,-0.15 -0.61,-0.23 -0.61,-0.23 L -0.61,-0.23 Z"/></g><g transform="translate(35.26267212434817 75.88549426660825) rotate(0 2.8707749471507213 0.5741526861398825)" stroke="none"><path fill="#1e1e1e" d="M 0,-0.65 Q 0,-0.65 0.82,-0.83 1.65,-1.01 3.78,-0.28 5.92,0.44 5.99,0.52 6.06,0.60 6.09,0.70 6.13,0.80 6.14,0.90 6.15,1.01 6.12,1.11 6.09,1.21 6.03,1.30 5.97,1.39 5.88,1.45 5.80,1.52 5.70,1.55 5.60,1.58 5.49,1.58 5.39,1.58 5.29,1.55 5.18,1.52 5.10,1.45 5.02,1.39 4.96,1.30 4.90,1.21 4.87,1.11 4.84,1.01 4.85,0.90 4.85,0.79 4.89,0.70 4.93,0.60 5.00,0.52 5.07,0.44 5.16,0.38 5.25,0.33 5.35,0.30 5.46,0.28 5.56,0.29 5.67,0.30 5.77,0.35 5.86,0.39 5.94,0.47 6.02,0.54 6.07,0.63 6.12,0.73 6.13,0.83 6.15,0.94 6.13,1.04 6.11,1.15 6.06,1.24 6.02,1.33 5.94,1.41 5.86,1.48 5.76,1.52 5.67,1.57 5.56,1.58 5.46,1.59 5.35,1.57 5.25,1.55 5.16,1.49 5.07,1.44 5.07,1.44 5.07,1.44 3.36,1.22 1.65,1.01 0.82,0.83 0,0.65 -0.07,0.64 -0.15,0.63 -0.23,0.60 -0.30,0.58 -0.37,0.53 -0.43,0.49 -0.48,0.43 -0.54,0.37 -0.57,0.30 -0.61,0.23 -0.63,0.15 -0.65,0.07 -0.65,-0.00 -0.65,-0.07 -0.63,-0.15 -0.61,-0.23 -0.57,-0.30 -0.54,-0.37 -0.48,-0.43 -0.43,-0.49 -0.37,-0.53 -0.30,-0.58 -0.23,-0.60 -0.15,-0.63 -0.07,-0.64 0.00,-0.65 0.00,-0.65 L 0,-0.65 Z"/></g><g transform="translate(10 158.5633428733311) rotate(0 0.5741642025912768 8.038126089506633)" stroke="none"><path fill="#1e1e1e" d="M 0.63,-0.15 Q 0.63,-0.15 1.15,1.11 1.67,2.38 1.83,3.50 1.99,4.61 2.07,6.26 2.15,7.92 2.16,9.44 2.17,10.95 1.98,13.29 1.80,15.62 1.78,15.72 1.76,15.83 1.71,15.92 1.67,16.01 1.59,16.09 1.51,16.16 1.42,16.21 1.32,16.25 1.21,16.26 1.11,16.28 1.01,16.25 0.90,16.23 0.81,16.18 0.72,16.12 0.65,16.04 0.58,15.96 0.54,15.86 0.50,15.77 0.49,15.66 0.49,15.55 0.51,15.45 0.54,15.35 0.60,15.26 0.66,15.17 0.75,15.11 0.83,15.04 0.93,15.01 1.03,14.97 1.14,14.97 1.24,14.97 1.34,15.00 1.44,15.04 1.53,15.10 1.61,15.17 1.67,15.25 1.73,15.34 1.76,15.44 1.79,15.55 1.79,15.65 1.78,15.76 1.74,15.86 1.71,15.96 1.64,16.04 1.57,16.12 1.48,16.17 1.39,16.23 1.28,16.25 1.18,16.28 1.07,16.26 0.97,16.25 0.87,16.21 0.78,16.17 0.70,16.09 0.62,16.02 0.57,15.93 0.52,15.83 0.50,15.73 0.48,15.62 0.48,15.62 0.48,15.62 0.26,13.31 0.04,10.99 0.00,9.49 -0.03,8.00 -0.07,6.44 -0.11,4.89 -0.23,3.89 -0.35,2.89 -0.49,1.52 -0.63,0.15 -0.64,0.08 -0.65,0.00 -0.64,-0.07 -0.63,-0.15 -0.61,-0.22 -0.58,-0.30 -0.53,-0.36 -0.49,-0.43 -0.43,-0.48 -0.37,-0.53 -0.30,-0.57 -0.23,-0.61 -0.15,-0.63 -0.08,-0.65 -0.00,-0.65 0.07,-0.65 0.15,-0.63 0.23,-0.61 0.30,-0.57 0.37,-0.54 0.43,-0.48 0.49,-0.43 0.53,-0.37 0.58,-0.30 0.60,-0.23 0.63,-0.15 0.63,-0.15 L 0.63,-0.15 Z"/></g><g transform="translate(17.46399643626961 167.1756216489776) rotate(0 2.870751914247876 -2.5836813294036745)" stroke="none"><path fill="#1e1e1e" d="M -0.36,-0.54 Q -0.36,-0.54 0.00,-1.04 0.38,-1.55 0.80,-2.10 1.22,-2.65 1.74,-3.39 2.26,-4.13 2.78,-5.07 3.31,-6.01 3.69,-6.75 4.08,-7.50 4.24,-7.99 4.41,-8.48 4.49,-8.60 4.58,-8.72 4.69,-8.81 4.80,-8.91 4.93,-8.98 5.06,-9.04 5.21,-9.08 5.35,-9.11 5.50,-9.11 5.65,-9.10 5.79,-9.07 5.93,-9.03 6.06,-8.96 6.19,-8.89 6.30,-8.79 6.41,-8.69 6.49,-8.57 6.57,-8.45 6.62,-8.31 6.67,-8.17 6.69,-8.02 6.70,-7.88 6.68,-7.73 6.66,-7.58 6.61,-7.45 6.56,-7.31 6.32,-6.59 6.08,-5.88 5.78,-4.34 5.49,-2.80 5.09,0.02 4.70,2.86 4.68,2.96 4.65,3.07 4.60,3.16 4.55,3.25 4.47,3.32 4.39,3.39 4.29,3.43 4.19,3.47 4.08,3.47 3.98,3.48 3.87,3.45 3.77,3.43 3.68,3.37 3.59,3.31 3.53,3.22 3.46,3.14 3.43,3.04 3.40,2.94 3.39,2.83 3.39,2.73 3.43,2.63 3.46,2.52 3.52,2.44 3.59,2.35 3.68,2.29 3.76,2.23 3.86,2.20 3.97,2.18 4.07,2.18 4.18,2.19 4.28,2.22 4.38,2.26 4.46,2.33 4.54,2.40 4.60,2.49 4.65,2.58 4.67,2.68 4.70,2.79 4.69,2.89 4.68,3.00 4.63,3.10 4.59,3.19 4.52,3.27 4.44,3.35 4.35,3.40 4.26,3.45 4.15,3.47 4.05,3.48 3.94,3.47 3.84,3.45 3.74,3.40 3.65,3.35 3.58,3.28 3.50,3.20 3.46,3.10 3.41,3.01 3.40,2.90 3.39,2.80 3.39,2.80 3.39,2.80 3.34,-0.17 3.28,-3.14 3.49,-4.85 3.70,-6.56 4.05,-7.52 4.41,-8.48 4.49,-8.60 4.58,-8.72 4.69,-8.81 4.80,-8.91 4.93,-8.98 5.06,-9.04 5.21,-9.08 5.35,-9.11 5.50,-9.11 5.65,-9.10 5.79,-9.07 5.93,-9.03 6.06,-8.96 6.19,-8.89 6.30,-8.79 6.41,-8.69 6.49,-8.57 6.57,-8.45 6.62,-8.31 6.67,-8.17 6.69,-8.02 6.70,-7.88 6.68,-7.73 6.66,-7.58 6.61,-7.45 6.56,-7.31 6.37,-6.83 6.19,-6.36 5.76,-5.60 5.34,-4.84 4.73,-3.81 4.11,-2.78 3.52,-1.99 2.92,-1.20 2.26,-0.48 1.59,0.23 0.98,0.38 0.36,0.54 0.29,0.58 0.22,0.61 0.14,0.63 0.06,0.65 -0.01,0.65 -0.08,0.65 -0.16,0.63 -0.24,0.61 -0.31,0.57 -0.38,0.53 -0.44,0.48 -0.49,0.42 -0.54,0.36 -0.58,0.29 -0.61,0.22 -0.64,0.14 -0.64,0.06 -0.65,-0.01 -0.64,-0.08 -0.63,-0.16 -0.60,-0.24 -0.57,-0.31 -0.53,-0.37 -0.48,-0.44 -0.42,-0.49 -0.36,-0.54 -0.36,-0.54 L -0.36,-0.54 Z"/></g><g transform="translate(26.076275211916084 155.69259095908322) rotate(0 4.593198456216044 8.612278775646487)" stroke="none"><path fill="#1e1e1e" d="M 0.52,-0.39 Q 0.52,-0.39 1.19,0.12 1.85,0.63 2.44,0.93 3.02,1.22 3.83,1.73 4.64,2.24 5.49,2.78 6.33,3.32 7.27,4.09 8.21,4.86 8.90,6.05 9.60,7.25 9.55,8.66 9.51,10.08 8.50,11.75 7.49,13.42 5.25,15.16 3.02,16.90 2.93,16.96 2.84,17.02 2.74,17.04 2.64,17.07 2.53,17.07 2.43,17.06 2.33,17.02 2.23,16.98 2.15,16.91 2.07,16.84 2.02,16.75 1.96,16.66 1.94,16.55 1.92,16.45 1.93,16.35 1.94,16.24 1.99,16.14 2.03,16.05 2.10,15.97 2.18,15.89 2.27,15.84 2.37,15.80 2.47,15.78 2.58,15.76 2.68,15.78 2.79,15.80 2.88,15.85 2.97,15.90 3.05,15.98 3.12,16.05 3.16,16.15 3.21,16.25 3.22,16.35 3.23,16.46 3.20,16.56 3.18,16.66 3.13,16.76 3.07,16.85 2.99,16.91 2.91,16.98 2.81,17.02 2.71,17.06 2.60,17.07 2.50,17.07 2.40,17.04 2.29,17.01 2.21,16.95 2.12,16.89 2.05,16.81 1.99,16.72 1.96,16.62 1.92,16.52 1.92,16.41 1.92,16.31 1.96,16.21 1.99,16.11 2.06,16.02 2.12,15.94 2.12,15.94 2.12,15.94 3.77,14.04 5.41,12.15 6.14,10.93 6.88,9.71 7.04,8.98 7.21,8.25 6.85,7.50 6.50,6.76 5.73,6.07 4.97,5.38 4.15,4.81 3.33,4.25 2.55,3.72 1.78,3.19 0.95,2.60 0.12,2.00 -0.20,1.19 -0.52,0.39 -0.56,0.32 -0.60,0.25 -0.62,0.18 -0.64,0.10 -0.65,0.02 -0.65,-0.05 -0.63,-0.13 -0.62,-0.20 -0.58,-0.28 -0.55,-0.35 -0.50,-0.41 -0.45,-0.47 -0.39,-0.52 -0.32,-0.56 -0.25,-0.59 -0.18,-0.63 -0.10,-0.64 -0.02,-0.65 0.05,-0.64 0.13,-0.64 0.20,-0.61 0.28,-0.59 0.34,-0.55 0.41,-0.50 0.47,-0.45 0.52,-0.39 0.52,-0.39 L 0.52,-0.39 Z"/></g><g transform="translate(36.98516473212203 170.62053776581675) rotate(0 -0.28708210129562417 4.306139387823251)" stroke="none"><path fill="#1e1e1e" d="M 0.65,0 Q 0.65,0 0.85,0.82 1.05,1.65 1.06,2.49 1.08,3.34 1.06,4.19 1.05,5.05 0.60,6.76 0.15,8.47 0.10,8.56 0.06,8.66 -0.01,8.73 -0.08,8.81 -0.18,8.86 -0.28,8.90 -0.38,8.92 -0.49,8.93 -0.59,8.91 -0.69,8.89 -0.79,8.84 -0.88,8.78 -0.95,8.71 -1.02,8.63 -1.06,8.53 -1.10,8.43 -1.11,8.32 -1.12,8.22 -1.09,8.12 -1.07,8.01 -1.01,7.92 -0.95,7.83 -0.87,7.77 -0.79,7.70 -0.69,7.67 -0.59,7.63 -0.48,7.63 -0.37,7.62 -0.27,7.66 -0.17,7.69 -0.09,7.75 -0.00,7.81 0.05,7.90 0.11,7.99 0.14,8.09 0.18,8.19 0.17,8.29 0.17,8.40 0.13,8.50 0.09,8.60 0.03,8.68 -0.03,8.77 -0.12,8.82 -0.21,8.88 -0.31,8.90 -0.41,8.93 -0.52,8.92 -0.63,8.91 -0.72,8.87 -0.82,8.83 -0.90,8.75 -0.98,8.68 -1.03,8.59 -1.08,8.50 -1.10,8.39 -1.12,8.29 -1.11,8.18 -1.09,8.08 -1.09,8.08 -1.09,8.08 -1.07,6.56 -1.05,5.05 -1.06,4.19 -1.08,3.34 -1.06,2.49 -1.05,1.65 -0.85,0.82 -0.65,0 -0.64,-0.07 -0.63,-0.15 -0.60,-0.23 -0.58,-0.30 -0.53,-0.37 -0.49,-0.43 -0.43,-0.48 -0.37,-0.54 -0.30,-0.57 -0.23,-0.61 -0.15,-0.63 -0.07,-0.65 0.00,-0.65 0.07,-0.65 0.15,-0.63 0.23,-0.61 0.30,-0.57 0.37,-0.54 0.43,-0.48 0.49,-0.43 0.53,-0.37 0.58,-0.30 0.60,-0.23 0.63,-0.15 0.64,-0.07 0.65,0.00 0.65,0.00 L 0.65,0 Z"/></g><g transform="translate(34.11438978497131 171.76884313809649) rotate(0 4.880280557511668 4.306139387823237)" stroke="none"><path fill="#1e1e1e" d="M -0.24,-0.60 Q -0.24,-0.60 0.49,-1.15 1.24,-1.69 2.20,-1.88 3.16,-2.06 4.18,-1.97 5.19,-1.88 5.99,-1.65 6.78,-1.43 7.36,-1.14 7.94,-0.85 8.41,-0.49 8.89,-0.14 9.23,0.54 9.57,1.22 9.60,1.90 9.62,2.57 9.22,3.22 8.83,3.86 8.25,4.26 7.67,4.66 7.16,4.79 6.65,4.91 6.51,4.98 6.37,5.05 6.21,5.08 6.06,5.12 5.91,5.11 5.75,5.11 5.60,5.07 5.45,5.02 5.31,4.95 5.18,4.87 5.06,4.77 4.95,4.66 4.86,4.53 4.78,4.40 4.73,4.25 4.67,4.10 4.66,3.95 4.64,3.79 4.67,3.64 4.69,3.48 4.75,3.34 4.81,3.19 4.90,3.07 4.99,2.94 5.11,2.84 5.23,2.74 6.07,3.08 6.91,3.42 7.85,3.54 8.79,3.67 9.29,3.86 9.78,4.06 10.24,4.64 10.69,5.22 10.73,5.95 10.77,6.69 9.99,7.63 9.22,8.56 6.66,9.28 4.10,9.99 3.99,10.01 3.89,10.04 3.78,10.02 3.68,10.01 3.58,9.96 3.48,9.92 3.41,9.84 3.33,9.77 3.29,9.67 3.24,9.58 3.22,9.47 3.21,9.37 3.23,9.26 3.25,9.16 3.30,9.07 3.35,8.97 3.43,8.90 3.51,8.83 3.60,8.79 3.70,8.74 3.81,8.73 3.91,8.72 4.01,8.75 4.12,8.77 4.21,8.83 4.30,8.89 4.37,8.97 4.43,9.05 4.47,9.15 4.51,9.25 4.51,9.36 4.51,9.46 4.48,9.56 4.45,9.67 4.39,9.75 4.33,9.84 4.25,9.90 4.16,9.97 4.06,10.00 3.96,10.03 3.85,10.03 3.74,10.03 3.64,9.99 3.54,9.95 3.46,9.89 3.38,9.82 3.32,9.73 3.26,9.64 3.24,9.54 3.21,9.44 3.22,9.33 3.22,9.23 3.27,9.13 3.31,9.03 3.38,8.95 3.45,8.87 3.54,8.82 3.63,8.76 3.63,8.77 3.63,8.77 5.60,7.77 7.56,6.78 8.05,6.40 8.54,6.01 7.78,5.85 7.02,5.70 6.21,5.40 5.40,5.11 6.02,5.01 6.65,4.91 6.51,4.98 6.37,5.05 6.21,5.08 6.06,5.12 5.91,5.11 5.75,5.11 5.60,5.07 5.45,5.02 5.31,4.95 5.18,4.87 5.06,4.77 4.95,4.66 4.86,4.53 4.78,4.40 4.73,4.25 4.67,4.10 4.66,3.95 4.64,3.79 4.67,3.64 4.69,3.48 4.75,3.34 4.81,3.19 4.90,3.07 4.99,2.94 5.11,2.84 5.23,2.74 5.77,2.61 6.31,2.48 6.78,2.05 7.26,1.62 6.67,1.22 6.09,0.81 5.50,0.61 4.90,0.42 4.21,0.30 3.51,0.18 2.78,0.27 2.05,0.37 1.15,0.49 0.24,0.60 0.16,0.63 0.09,0.65 0.01,0.65 -0.06,0.65 -0.14,0.63 -0.22,0.61 -0.29,0.58 -0.36,0.54 -0.42,0.49 -0.48,0.44 -0.52,0.37 -0.57,0.31 -0.60,0.24 -0.63,0.16 -0.64,0.09 -0.65,0.01 -0.64,-0.06 -0.64,-0.14 -0.61,-0.22 -0.58,-0.29 -0.54,-0.36 -0.49,-0.42 -0.44,-0.48 -0.38,-0.53 -0.31,-0.57 -0.24,-0.60 -0.24,-0.60 L -0.24,-0.60 Z"/></g><g transform="translate(537.645477861578 159.1375070759224) rotate(0 6.60275013238271 10.047643216318988)" stroke="none"><path fill="#1e1e1e" d="M 0.51,-0.41 Q 0.51,-0.41 1.44,0.19 2.37,0.80 3.37,2.15 4.37,3.51 5.59,5.02 6.82,6.53 7.69,7.70 8.57,8.87 9.73,10.33 10.89,11.79 11.85,13.14 12.81,14.48 13.53,17.21 14.25,19.95 14.26,20.05 14.27,20.16 14.25,20.26 14.23,20.37 14.18,20.46 14.13,20.55 14.05,20.62 13.97,20.69 13.87,20.73 13.77,20.77 13.66,20.78 13.56,20.79 13.46,20.76 13.35,20.74 13.26,20.68 13.17,20.62 13.11,20.54 13.04,20.45 13.01,20.35 12.97,20.25 12.97,20.15 12.97,20.04 13.00,19.94 13.03,19.84 13.09,19.75 13.16,19.67 13.24,19.60 13.33,19.54 13.43,19.51 13.53,19.48 13.64,19.49 13.75,19.49 13.85,19.53 13.95,19.57 14.03,19.63 14.11,19.70 14.17,19.79 14.22,19.88 14.25,19.98 14.27,20.09 14.26,20.19 14.25,20.30 14.21,20.40 14.17,20.49 14.10,20.57 14.02,20.65 13.93,20.70 13.84,20.75 13.73,20.77 13.63,20.79 13.52,20.78 13.42,20.76 13.32,20.71 13.23,20.66 13.15,20.59 13.08,20.51 13.03,20.42 12.99,20.32 12.99,20.32 12.99,20.32 11.81,18.23 10.64,16.15 9.60,14.91 8.55,13.67 7.34,12.16 6.13,10.66 5.31,9.51 4.48,8.37 3.25,6.76 2.02,5.15 1.14,3.82 0.26,2.49 -0.12,1.45 -0.51,0.41 -0.55,0.34 -0.59,0.27 -0.62,0.20 -0.64,0.12 -0.65,0.04 -0.65,-0.03 -0.64,-0.11 -0.62,-0.18 -0.59,-0.26 -0.56,-0.33 -0.51,-0.39 -0.46,-0.45 -0.40,-0.50 -0.34,-0.55 -0.27,-0.59 -0.20,-0.62 -0.12,-0.63 -0.04,-0.65 0.03,-0.65 0.11,-0.64 0.18,-0.62 0.26,-0.60 0.33,-0.56 0.39,-0.52 0.45,-0.46 0.51,-0.41 0.51,-0.41 L 0.51,-0.41 Z"/></g><g transform="translate(537.0713136589866 178.65865233887195) rotate(0 12.057217925388557 -12.631336062174086)" stroke="none"><path fill="#1e1e1e" d="M -0.63,-0.18 Q -0.63,-0.18 -0.49,-1.39 -0.36,-2.61 1.23,-5.57 2.83,-8.54 5.20,-11.49 7.57,-14.44 10.32,-16.84 13.06,-19.24 15.32,-20.79 17.57,-22.34 20.13,-23.75 22.69,-25.17 22.79,-25.21 22.88,-25.25 22.99,-25.25 23.10,-25.26 23.20,-25.23 23.30,-25.20 23.39,-25.14 23.48,-25.08 23.54,-25.00 23.61,-24.91 23.64,-24.81 23.67,-24.71 23.67,-24.61 23.67,-24.50 23.64,-24.40 23.61,-24.30 23.54,-24.21 23.48,-24.13 23.39,-24.07 23.30,-24.01 23.20,-23.98 23.10,-23.95 22.99,-23.96 22.88,-23.96 22.79,-24.00 22.69,-24.04 22.61,-24.11 22.53,-24.18 22.47,-24.27 22.42,-24.36 22.39,-24.47 22.37,-24.57 22.38,-24.68 22.39,-24.78 22.44,-24.88 22.48,-24.97 22.56,-25.05 22.63,-25.13 22.72,-25.18 22.82,-25.23 22.92,-25.25 23.03,-25.26 23.13,-25.25 23.24,-25.23 23.33,-25.18 23.42,-25.13 23.50,-25.05 23.57,-24.97 23.61,-24.88 23.66,-24.78 23.67,-24.68 23.68,-24.57 23.66,-24.47 23.64,-24.36 23.58,-24.27 23.53,-24.18 23.45,-24.11 23.36,-24.04 23.36,-24.04 23.36,-24.04 21.01,-22.50 18.65,-20.96 16.68,-19.18 14.70,-17.40 12.16,-15.07 9.61,-12.75 7.30,-10.02 4.98,-7.28 3.33,-4.64 1.68,-2.01 1.15,-0.91 0.63,0.18 0.60,0.25 0.56,0.32 0.52,0.38 0.47,0.45 0.41,0.50 0.35,0.55 0.28,0.58 0.21,0.62 0.13,0.63 0.05,0.65 -0.02,0.65 -0.10,0.64 -0.17,0.62 -0.25,0.60 -0.32,0.56 -0.39,0.52 -0.44,0.47 -0.50,0.41 -0.54,0.35 -0.59,0.28 -0.61,0.20 -0.64,0.13 -0.64,0.05 -0.65,-0.02 -0.64,-0.10 -0.63,-0.18 -0.63,-0.18 L -0.63,-0.18 Z"/></g></svg>