<svg version="1.1" xmlns="http://www.w3.org/2000/svg" viewBox="0 0 563.158203125 198.77053833007812" width="563.158203125" height="198.77053833007812" filter="invert(93%) hue-rotate(180deg)" class="excalidraw-svg">
  <!-- svg-source:excalidraw -->
  
  <defs>
    <style class="style-fonts">
      @font-face {
        font-family: "Virgil";
        src: url("https://excalidraw.com/Virgil.woff2");
      }
      @font-face {
        font-family: "Cascadia";
        src: url("https://excalidraw.com/Cascadia.woff2");
      }
      @font-face {
        font-family: "Assistant";
        src: url("https://excalidraw.com/Assistant-Regular.woff2");
      }
    </style>
    
  </defs>
  <rect x="0" y="0" width="563.158203125" height="198.77053833007812" fill="#ffffff"/><g stroke-linecap="round"><g transform="translate(83.02972412109375 34.34324645996094) rotate(0 183.71527099609375 0.38036346435546875)"><path d="M0 0 C61.24 0.13, 306.19 0.63, 367.43 0.76 M0 0 C61.24 0.13, 306.19 0.63, 367.43 0.76" stroke="#1e1e1e" stroke-width="4" fill="none"/></g></g><mask/><g stroke-linecap="round"><g transform="translate(85.26361083984375 96.7632827758789) rotate(0 183.71527099609375 0.38036346435546875)"><path d="M0 0 C61.24 0.13, 306.19 0.63, 367.43 0.76 M0 0 C61.24 0.13, 306.19 0.63, 367.43 0.76" stroke="#1e1e1e" stroke-width="4" fill="none"/></g></g><mask/><g stroke-linecap="round"><g transform="translate(83.9384765625 65.81281280517578) rotate(0 183.71527099609375 0.38036346435546875)"><path d="M0 0 C61.24 0.13, 306.19 0.63, 367.43 0.76 M0 0 C61.24 0.13, 306.19 0.63, 367.43 0.76" stroke="#1e1e1e" stroke-width="4" fill="none"/></g></g><mask/><g stroke-linecap="round"><g transform="translate(84.8328857421875 156.97782135009766) rotate(0 183.71527099609375 0.38036346435546875)"><path d="M0 0 C61.24 0.13, 306.19 0.63, 367.43 0.76 M0 0 C61.24 0.13, 306.19 0.63, 367.43 0.76" stroke="#1e1e1e" stroke-width="4" fill="none"/></g></g><mask/><g stroke-linecap="round" transform="translate(211.59234619140625 10) rotate(0 66.18313598632812 89.38526916503906)"><path d="M32 0 C58.06 0, 84.11 0, 100.37 0 C121.7 0, 132.37 10.67, 132.37 32 C132.37 58.05, 132.37 84.11, 132.37 146.77 C132.37 168.1, 121.7 178.77, 100.37 178.77 C74.03 178.77, 47.69 178.77, 32 178.77 C10.67 178.77, 0 168.1, 0 146.77 C0 113.75, 0 80.74, 0 32 C0 10.67, 10.67 0, 32 0" stroke="none" stroke-width="0" fill="#ffffff"/><path d="M32 0 C58.33 0, 84.67 0, 100.37 0 M32 0 C53.09 0, 74.17 0, 100.37 0 M100.37 0 C121.7 0, 132.37 10.67, 132.37 32 M100.37 0 C121.7 0, 132.37 10.67, 132.37 32 M132.37 32 C132.37 64.92, 132.37 97.85, 132.37 146.77 M132.37 32 C132.37 74.63, 132.37 117.25, 132.37 146.77 M132.37 146.77 C132.37 168.1, 121.7 178.77, 100.37 178.77 M132.37 146.77 C132.37 168.1, 121.7 178.77, 100.37 178.77 M100.37 178.77 C83.14 178.77, 65.92 178.77, 32 178.77 M100.37 178.77 C84.25 178.77, 68.13 178.77, 32 178.77 M32 178.77 C10.67 178.77, 0 168.1, 0 146.77 M32 178.77 C10.67 178.77, 0 168.1, 0 146.77 M0 146.77 C0 109.29, 0 71.81, 0 32 M0 146.77 C0 115.45, 0 84.14, 0 32 M0 32 C0 10.67, 10.67 0, 32 0 M0 32 C0 10.67, 10.67 0, 32 0" stroke="#1e1e1e" stroke-width="4" fill="none"/></g><g transform="translate(69.33660888671875 26.7359619140625) rotate(0 -11.410888671875 77.59403228759766)" stroke="none"><path fill="#1e1e1e" d="M -0.39,0.52 Q -0.39,0.52 -1.41,0.08 -2.44,-0.35 -3.10,-0.52 -3.76,-0.69 -4.44,-0.77 -5.12,-0.85 -6.04,-0.88 -6.97,-0.90 -7.59,-0.92 -8.21,-0.93 -8.96,-0.73 -9.72,-0.54 -10.33,-0.11 -10.94,0.30 -11.53,1.42 -12.12,2.55 -12.88,3.95 -13.64,5.36 -14.37,7.21 -15.10,9.06 -15.39,11.04 -15.67,13.03 -15.80,15.40 -15.94,17.77 -15.99,20.10 -16.05,22.42 -15.86,24.88 -15.67,27.34 -15.37,29.47 -15.07,31.60 -14.94,33.66 -14.80,35.73 -14.75,37.70 -14.69,39.68 -14.67,41.39 -14.64,43.10 -14.86,44.80 -15.07,46.49 -15.38,48.09 -15.70,49.69 -16.06,51.05 -16.42,52.41 -17.03,53.93 -17.64,55.45 -18.12,56.51 -18.60,57.58 -19.00,58.65 -19.40,59.71 -19.84,60.49 -20.28,61.27 -20.40,61.86 -20.52,62.45 -20.94,63.01 -21.36,63.57 -20.75,64.29 -20.13,65.01 -19.45,66.27 -18.77,67.53 -18.24,68.77 -17.72,70.01 -17.46,71.77 -17.20,73.53 -16.89,75.74 -16.58,77.94 -16.66,81.40 -16.74,84.85 -16.77,88.45 -16.81,92.05 -17.05,96.24 -17.28,100.43 -17.60,104.40 -17.92,108.37 -18.28,112.89 -18.63,117.41 -19.00,121.10 -19.37,124.79 -19.75,129.61 -20.12,134.44 -20.28,138.22 -20.44,142.00 -20.07,145.27 -19.71,148.53 -19.14,150.49 -18.57,152.46 -17.85,153.56 -17.12,154.66 -16.52,154.89 -15.92,155.13 -14.24,154.34 -12.55,153.54 -12.45,153.51 -12.35,153.47 -12.25,153.47 -12.14,153.47 -12.04,153.50 -11.94,153.53 -11.85,153.60 -11.77,153.66 -11.70,153.75 -11.64,153.83 -11.61,153.94 -11.58,154.04 -11.59,154.14 -11.59,154.25 -11.63,154.35 -11.67,154.45 -11.73,154.53 -11.80,154.61 -11.89,154.67 -11.98,154.73 -12.08,154.75 -12.19,154.77 -12.29,154.76 -12.40,154.75 -12.50,154.71 -12.59,154.67 -12.67,154.60 -12.75,154.53 -12.80,154.43 -12.85,154.34 -12.87,154.24 -12.89,154.13 -12.88,154.03 -12.86,153.92 -12.81,153.83 -12.76,153.73 -12.69,153.66 -12.61,153.58 -12.52,153.54 -12.42,153.49 -12.32,153.48 -12.21,153.46 -12.11,153.48 -12.00,153.51 -11.91,153.56 -11.82,153.61 -11.75,153.69 -11.68,153.77 -11.64,153.87 -11.60,153.97 -11.59,154.07 -11.58,154.18 -11.61,154.28 -11.63,154.38 -11.69,154.47 -11.75,154.56 -11.83,154.63 -11.92,154.69 -11.92,154.69 -11.92,154.69 -13.99,155.98 -16.06,157.26 -17.54,156.81 -19.03,156.36 -20.12,154.81 -21.21,153.26 -21.83,151.05 -22.45,148.84 -22.83,145.36 -23.20,141.89 -23.04,138.06 -22.88,134.23 -22.50,129.37 -22.13,124.51 -21.76,120.86 -21.39,117.20 -21.04,112.67 -20.69,108.15 -20.37,104.21 -20.05,100.27 -19.82,96.15 -19.59,92.02 -19.55,88.40 -19.51,84.78 -19.41,81.55 -19.32,78.32 -19.62,76.11 -19.93,73.89 -20.09,72.47 -20.26,71.05 -20.72,69.94 -21.19,68.82 -21.81,67.64 -22.44,66.46 -22.99,65.57 -23.54,64.68 -23.74,63.94 -23.93,63.20 -23.51,62.43 -23.10,61.66 -22.88,60.80 -22.66,59.93 -22.31,59.34 -21.95,58.74 -21.52,57.60 -21.09,56.47 -20.63,55.44 -20.17,54.41 -19.61,53.06 -19.05,51.71 -18.72,50.44 -18.38,49.16 -18.08,47.65 -17.78,46.14 -17.57,44.64 -17.37,43.14 -17.39,41.44 -17.41,39.75 -17.46,37.83 -17.52,35.90 -17.64,33.93 -17.76,31.97 -18.06,29.76 -18.37,27.55 -18.56,24.95 -18.76,22.36 -18.70,19.99 -18.64,17.62 -18.49,15.12 -18.35,12.62 -17.98,10.35 -17.62,8.07 -16.82,6.08 -16.02,4.08 -15.23,2.62 -14.44,1.16 -13.45,-0.35 -12.46,-1.86 -11.41,-2.49 -10.35,-3.12 -9.25,-3.34 -8.15,-3.56 -7.49,-3.53 -6.84,-3.50 -5.79,-3.43 -4.74,-3.36 -3.85,-3.20 -2.96,-3.04 -2.01,-2.65 -1.05,-2.26 -0.33,-1.39 0.39,-0.52 0.45,-0.47 0.50,-0.41 0.55,-0.34 0.59,-0.28 0.61,-0.20 0.64,-0.13 0.64,-0.05 0.65,0.02 0.64,0.10 0.63,0.18 0.59,0.25 0.56,0.32 0.52,0.39 0.47,0.45 0.41,0.50 0.35,0.55 0.27,0.58 0.20,0.62 0.13,0.63 0.05,0.65 -0.02,0.65 -0.10,0.64 -0.18,0.62 -0.25,0.60 -0.32,0.56 -0.39,0.52 -0.39,0.52 L -0.39,0.52 Z"/></g><g transform="translate(10 92.91909790039062) rotate(0 12.171600341796875 0.7607269287109375)" stroke="none"><path fill="#1e1e1e" d="M -0.54,-0.36 Q -0.54,-0.36 -0.32,-1.16 -0.10,-1.96 0.32,-2.51 0.74,-3.06 1.37,-3.76 1.99,-4.45 2.61,-5.02 3.23,-5.59 4.44,-5.72 5.66,-5.84 6.80,-5.26 7.94,-4.69 8.52,-3.56 9.11,-2.44 9.09,-1.36 9.07,-0.29 9.05,0.45 9.03,1.19 9.03,1.74 9.02,2.28 8.99,2.45 8.96,2.62 8.90,2.77 8.83,2.93 8.73,3.06 8.63,3.19 8.50,3.30 8.37,3.41 8.22,3.48 8.06,3.55 7.90,3.59 7.73,3.62 7.57,3.61 7.40,3.61 7.24,3.56 7.07,3.51 6.93,3.43 6.78,3.34 6.66,3.23 6.54,3.11 6.45,2.97 6.36,2.83 6.31,2.67 6.25,2.51 6.24,2.34 6.23,2.17 6.65,1.49 7.07,0.80 7.90,0.21 8.73,-0.37 9.43,-0.98 10.13,-1.59 10.79,-2.12 11.46,-2.66 12.29,-2.78 13.12,-2.90 13.86,-2.57 14.61,-2.25 15.05,-1.56 15.49,-0.87 15.41,0.08 15.34,1.03 15.32,1.80 15.30,2.56 15.50,3.41 15.70,4.25 16.46,4.45 17.22,4.65 20.01,3.81 22.80,2.96 22.90,2.94 23.01,2.92 23.11,2.93 23.22,2.94 23.31,2.98 23.41,3.02 23.49,3.09 23.57,3.17 23.62,3.26 23.67,3.35 23.69,3.46 23.71,3.56 23.69,3.67 23.68,3.77 23.63,3.87 23.58,3.96 23.50,4.04 23.43,4.11 23.33,4.16 23.23,4.20 23.13,4.21 23.02,4.23 22.92,4.21 22.82,4.18 22.72,4.13 22.63,4.08 22.56,4.00 22.49,3.92 22.45,3.82 22.41,3.72 22.40,3.61 22.40,3.51 22.42,3.41 22.45,3.30 22.51,3.21 22.57,3.13 22.65,3.06 22.74,2.99 22.84,2.96 22.94,2.92 23.04,2.92 23.15,2.92 23.25,2.95 23.35,2.99 23.44,3.05 23.52,3.11 23.58,3.20 23.64,3.29 23.67,3.39 23.70,3.49 23.70,3.60 23.69,3.70 23.66,3.80 23.62,3.90 23.55,3.98 23.48,4.07 23.39,4.12 23.30,4.18 23.30,4.18 23.30,4.18 20.25,5.75 17.20,7.33 15.63,7.17 14.07,7.01 13.35,5.92 12.63,4.84 12.44,3.61 12.25,2.38 12.53,0.97 12.80,-0.42 12.39,0.03 11.97,0.50 11.16,1.21 10.35,1.92 9.68,2.10 9.02,2.28 8.99,2.45 8.96,2.62 8.90,2.77 8.83,2.93 8.73,3.06 8.63,3.19 8.50,3.30 8.37,3.41 8.22,3.48 8.06,3.55 7.90,3.59 7.73,3.62 7.57,3.61 7.40,3.61 7.24,3.56 7.07,3.51 6.93,3.43 6.78,3.34 6.66,3.23 6.54,3.11 6.45,2.97 6.36,2.83 6.31,2.67 6.25,2.51 6.24,2.34 6.23,2.17 6.24,1.62 6.26,1.07 6.31,0.26 6.36,-0.54 6.48,-1.05 6.61,-1.57 6.51,-2.13 6.42,-2.69 5.45,-3.14 4.48,-3.59 4.14,-3.17 3.81,-2.75 3.21,-2.14 2.61,-1.54 2.23,-1.10 1.85,-0.65 1.20,-0.14 0.54,0.36 0.49,0.42 0.44,0.48 0.37,0.53 0.31,0.57 0.24,0.60 0.16,0.63 0.08,0.64 0.01,0.65 -0.06,0.64 -0.14,0.64 -0.22,0.61 -0.29,0.58 -0.36,0.54 -0.42,0.49 -0.48,0.44 -0.53,0.38 -0.57,0.31 -0.61,0.24 -0.63,0.16 -0.65,0.08 -0.65,0.01 -0.65,-0.06 -0.63,-0.14 -0.61,-0.22 -0.58,-0.29 -0.54,-0.36 -0.54,-0.36 L -0.54,-0.36 Z"/></g><g transform="translate(143.12701416015625 118.78378295898438) rotate(0 0 1.141082763671875)" stroke="none"><path fill="#1e1e1e" d="M 0.62,0.20 Q 0.62,0.20 0.31,1.14 -0.00,2.07 -0.04,2.17 -0.09,2.26 -0.17,2.33 -0.25,2.41 -0.34,2.45 -0.44,2.50 -0.55,2.51 -0.65,2.52 -0.76,2.50 -0.86,2.48 -0.95,2.42 -1.04,2.37 -1.11,2.29 -1.18,2.21 -1.22,2.11 -1.26,2.01 -1.27,1.90 -1.27,1.80 -1.24,1.69 -1.22,1.59 -1.16,1.50 -1.10,1.41 -1.01,1.35 -0.93,1.29 -0.83,1.25 -0.73,1.22 -0.62,1.22 -0.51,1.22 -0.41,1.25 -0.31,1.28 -0.23,1.35 -0.14,1.41 -0.08,1.50 -0.02,1.59 0.00,1.69 0.02,1.79 0.02,1.90 0.01,2.00 -0.02,2.10 -0.05,2.20 -0.12,2.28 -0.19,2.36 -0.28,2.42 -0.37,2.47 -0.48,2.50 -0.58,2.52 -0.69,2.51 -0.79,2.50 -0.89,2.45 -0.99,2.41 -1.06,2.34 -1.14,2.26 -1.19,2.17 -1.24,2.08 -1.26,1.97 -1.27,1.87 -1.26,1.76 -1.24,1.66 -1.24,1.66 -1.24,1.66 -0.93,0.72 -0.62,-0.20 -0.58,-0.27 -0.55,-0.35 -0.50,-0.41 -0.45,-0.47 -0.39,-0.52 -0.32,-0.56 -0.25,-0.59 -0.18,-0.63 -0.10,-0.64 -0.02,-0.65 0.05,-0.64 0.13,-0.64 0.20,-0.61 0.28,-0.59 0.34,-0.55 0.41,-0.50 0.46,-0.45 0.52,-0.39 0.56,-0.32 0.60,-0.25 0.62,-0.18 0.64,-0.10 0.65,-0.02 0.65,0.05 0.63,0.13 0.62,0.20 0.62,0.20 L 0.62,0.20 Z"/></g><g transform="translate(140.0841064453125 133.23757934570312) rotate(0 1.141082763671875 -0.38037109375)" stroke="none"><path fill="#1e1e1e" d="M -0.20,-0.62 Q -0.20,-0.62 0.22,-0.97 0.65,-1.32 0.73,-1.34 0.80,-1.35 0.88,-1.35 0.96,-1.35 1.04,-1.32 1.11,-1.30 1.18,-1.26 1.25,-1.22 1.31,-1.17 1.36,-1.11 1.41,-1.05 1.45,-0.98 1.47,-0.90 1.50,-0.83 1.51,-0.75 1.51,-0.67 1.50,-0.59 1.49,-0.51 1.45,-0.44 1.42,-0.37 1.38,-0.31 1.33,-0.24 1.27,-0.19 1.21,-0.14 1.13,-0.11 1.06,-0.07 0.71,-0.17 0.36,-0.27 0.30,-0.36 0.25,-0.45 0.22,-0.55 0.20,-0.65 0.21,-0.76 0.22,-0.87 0.26,-0.96 0.31,-1.06 0.38,-1.14 0.45,-1.22 0.55,-1.27 0.64,-1.32 0.74,-1.34 0.85,-1.35 0.95,-1.34 1.06,-1.32 1.15,-1.27 1.25,-1.22 1.32,-1.15 1.39,-1.07 1.44,-0.98 1.49,-0.88 1.50,-0.77 1.51,-0.67 1.49,-0.57 1.47,-0.46 1.41,-0.37 1.36,-0.28 1.28,-0.21 1.20,-0.14 1.10,-0.10 1.00,-0.06 0.90,-0.05 0.79,-0.04 0.69,-0.07 0.59,-0.10 0.50,-0.16 0.41,-0.22 0.34,-0.30 0.28,-0.38 0.24,-0.48 0.21,-0.58 0.21,-0.69 0.21,-0.80 0.24,-0.90 0.27,-1.00 0.34,-1.08 0.40,-1.17 0.49,-1.23 0.57,-1.29 0.68,-1.32 0.78,-1.35 0.88,-1.34 0.99,-1.34 1.09,-1.30 1.19,-1.26 0.92,-1.29 0.65,-1.32 0.73,-1.34 0.80,-1.35 0.88,-1.35 0.96,-1.35 1.04,-1.32 1.11,-1.30 1.18,-1.26 1.25,-1.22 1.31,-1.17 1.36,-1.11 1.41,-1.05 1.45,-0.98 1.47,-0.90 1.50,-0.83 1.51,-0.75 1.51,-0.67 1.50,-0.59 1.49,-0.51 1.45,-0.44 1.42,-0.37 1.38,-0.31 1.33,-0.24 1.27,-0.19 1.21,-0.14 1.13,-0.11 1.06,-0.07 0.63,0.27 0.20,0.62 0.13,0.63 0.05,0.65 -0.02,0.65 -0.10,0.64 -0.18,0.62 -0.25,0.60 -0.32,0.56 -0.39,0.52 -0.45,0.46 -0.50,0.41 -0.55,0.34 -0.59,0.28 -0.61,0.20 -0.64,0.13 -0.64,0.05 -0.65,-0.02 -0.64,-0.10 -0.63,-0.18 -0.59,-0.25 -0.56,-0.32 -0.52,-0.39 -0.47,-0.45 -0.41,-0.50 -0.35,-0.55 -0.27,-0.58 -0.20,-0.62 -0.20,-0.62 L -0.20,-0.62 Z"/></g><g transform="translate(140.0841064453125 140.84481811523438) rotate(0 0.380340576171875 1.521453857421875)" stroke="none"><path fill="#1e1e1e" d="M 0.46,-0.46 Q 0.46,-0.46 1.10,-0.02 1.75,0.40 0.88,1.45 0.01,2.50 0.06,2.56 0.11,2.62 0.14,2.69 0.17,2.76 0.19,2.84 0.20,2.92 0.19,3.00 0.19,3.08 0.17,3.15 0.14,3.23 0.10,3.30 0.06,3.37 0.01,3.42 -0.04,3.48 -0.11,3.52 -0.18,3.56 -0.25,3.58 -0.33,3.61 -0.41,3.61 -0.49,3.62 -0.56,3.60 -0.64,3.59 -0.71,3.55 -0.79,3.52 -0.85,3.47 -0.91,3.42 -0.70,3.52 -0.50,3.61 -0.60,3.59 -0.70,3.56 -0.79,3.51 -0.88,3.45 -0.95,3.37 -1.02,3.28 -1.05,3.18 -1.09,3.09 -1.09,2.98 -1.10,2.87 -1.07,2.77 -1.03,2.67 -0.97,2.58 -0.91,2.50 -0.83,2.43 -0.74,2.37 -0.64,2.34 -0.54,2.31 -0.43,2.31 -0.32,2.31 -0.22,2.35 -0.12,2.39 -0.04,2.45 0.03,2.52 0.09,2.61 0.15,2.70 0.17,2.80 0.20,2.91 0.19,3.01 0.18,3.12 0.14,3.21 0.10,3.31 0.03,3.39 -0.03,3.47 -0.13,3.52 -0.22,3.58 -0.32,3.60 -0.43,3.62 -0.53,3.60 -0.64,3.59 -0.73,3.54 -0.83,3.49 -0.90,3.42 -0.98,3.34 -1.03,3.25 -1.07,3.15 -1.09,3.05 -1.10,2.94 -1.08,2.84 -1.06,2.73 -1.01,2.64 -0.96,2.55 -0.88,2.48 -0.80,2.41 -0.70,2.37 -0.61,2.32 -0.29,2.41 0.01,2.50 0.06,2.56 0.11,2.62 0.14,2.69 0.17,2.76 0.19,2.84 0.20,2.92 0.19,3.00 0.19,3.08 0.17,3.15 0.14,3.23 0.10,3.30 0.06,3.36 0.01,3.42 -0.04,3.48 -0.11,3.52 -0.18,3.56 -0.25,3.58 -0.33,3.61 -0.41,3.61 -0.49,3.62 -0.56,3.60 -0.64,3.59 -0.71,3.55 -0.79,3.52 -0.85,3.47 -0.91,3.42 -0.45,2.38 -0.00,1.34 -0.23,0.90 -0.46,0.46 -0.51,0.40 -0.56,0.33 -0.59,0.26 -0.62,0.19 -0.64,0.11 -0.65,0.03 -0.65,-0.03 -0.64,-0.11 -0.62,-0.19 -0.59,-0.26 -0.55,-0.33 -0.51,-0.40 -0.46,-0.46 -0.40,-0.51 -0.33,-0.55 -0.26,-0.59 -0.19,-0.62 -0.11,-0.64 -0.03,-0.65 0.03,-0.65 0.11,-0.64 0.19,-0.62 0.26,-0.59 0.33,-0.56 0.40,-0.51 0.46,-0.46 0.46,-0.46 L 0.46,-0.46 Z"/></g><g transform="translate(257.23583984375 84.55111694335938) rotate(0 -1.141082763671875 14.07342529296875)" stroke="none"><path fill="#1e1e1e" d="M 0.64,0.14 Q 0.64,0.14 0.52,2.18 0.40,4.22 0.02,6.97 -0.35,9.73 -0.50,12.84 -0.66,15.94 -0.76,18.57 -0.85,21.21 -0.93,24.30 -1.00,27.39 -1.00,27.50 -0.99,27.61 -1.02,27.71 -1.05,27.81 -1.11,27.90 -1.17,27.98 -1.26,28.05 -1.34,28.11 -1.44,28.14 -1.55,28.18 -1.65,28.18 -1.76,28.17 -1.86,28.14 -1.96,28.11 -2.04,28.04 -2.13,27.97 -2.19,27.89 -2.24,27.80 -2.27,27.70 -2.30,27.59 -2.29,27.49 -2.29,27.38 -2.25,27.28 -2.20,27.18 -2.14,27.10 -2.07,27.02 -1.97,26.97 -1.88,26.92 -1.78,26.89 -1.67,26.87 -1.57,26.88 -1.46,26.90 -1.37,26.94 -1.27,26.99 -1.20,27.06 -1.12,27.14 -1.07,27.23 -1.02,27.32 -1.01,27.43 -0.99,27.53 -1.01,27.64 -1.03,27.74 -1.08,27.84 -1.13,27.93 -1.20,28.00 -1.28,28.07 -1.38,28.12 -1.48,28.16 -1.58,28.17 -1.69,28.18 -1.79,28.16 -1.89,28.14 -1.98,28.08 -2.08,28.02 -2.14,27.94 -2.21,27.86 -2.25,27.76 -2.29,27.66 -2.29,27.66 -2.29,27.66 -2.89,24.40 -3.49,21.14 -3.44,18.46 -3.39,15.79 -3.20,12.57 -3.01,9.35 -2.58,6.50 -2.15,3.65 -1.39,1.75 -0.64,-0.14 -0.61,-0.21 -0.58,-0.29 -0.54,-0.35 -0.50,-0.42 -0.44,-0.47 -0.38,-0.53 -0.31,-0.57 -0.24,-0.60 -0.17,-0.62 -0.09,-0.64 -0.01,-0.65 0.06,-0.65 0.14,-0.63 0.21,-0.61 0.28,-0.58 0.36,-0.54 0.42,-0.49 0.48,-0.44 0.52,-0.38 0.57,-0.31 0.60,-0.24 0.63,-0.17 0.64,-0.09 0.65,-0.01 0.64,0.06 0.64,0.14 0.64,0.14 L 0.64,0.14 Z"/></g><g transform="translate(257.23583984375 103.56927490234375) rotate(0 11.030548095703125 0.3803558349609375)" stroke="none"><path fill="#1e1e1e" d="M 0.07,-0.65 Q 0.07,-0.65 2.07,-0.75 4.08,-0.85 6.18,-0.77 8.29,-0.69 10.43,-0.85 12.58,-1.01 14.43,-1.03 16.27,-1.06 18.86,-0.85 21.45,-0.64 21.55,-0.63 21.66,-0.61 21.75,-0.56 21.85,-0.51 21.92,-0.44 22.00,-0.36 22.04,-0.27 22.09,-0.17 22.10,-0.07 22.11,0.03 22.09,0.13 22.07,0.24 22.02,0.33 21.96,0.42 21.88,0.49 21.80,0.56 21.71,0.60 21.61,0.64 21.50,0.65 21.40,0.66 21.29,0.63 21.19,0.60 21.10,0.55 21.01,0.49 20.95,0.40 20.88,0.32 20.85,0.22 20.81,0.12 20.81,0.01 20.81,-0.08 20.84,-0.18 20.87,-0.29 20.94,-0.37 21.00,-0.46 21.09,-0.52 21.17,-0.58 21.28,-0.61 21.38,-0.64 21.48,-0.63 21.59,-0.63 21.69,-0.59 21.79,-0.55 21.87,-0.49 21.95,-0.42 22.01,-0.33 22.06,-0.24 22.09,-0.13 22.11,-0.03 22.10,0.06 22.09,0.17 22.05,0.27 22.01,0.36 21.93,0.44 21.86,0.52 21.77,0.57 21.68,0.62 21.57,0.64 21.47,0.66 21.47,0.66 21.47,0.66 18.92,0.97 16.37,1.28 14.58,1.41 12.78,1.54 10.48,1.74 8.17,1.94 5.98,1.83 3.79,1.73 1.86,1.19 -0.07,0.65 -0.14,0.63 -0.22,0.61 -0.29,0.58 -0.36,0.54 -0.42,0.49 -0.48,0.44 -0.53,0.37 -0.57,0.31 -0.60,0.23 -0.63,0.16 -0.64,0.08 -0.65,0.00 -0.64,-0.07 -0.63,-0.15 -0.61,-0.22 -0.58,-0.29 -0.54,-0.36 -0.49,-0.43 -0.43,-0.48 -0.37,-0.53 -0.30,-0.57 -0.23,-0.61 -0.16,-0.63 -0.08,-0.65 -0.00,-0.65 0.07,-0.65 0.07,-0.65 L 0.07,-0.65 Z"/></g><g transform="translate(279.29693603515625 89.87619018554688) rotate(0 0.760711669921875 9.509078979492188)" stroke="none"><path fill="#1e1e1e" d="M -0.62,-0.20 Q -0.62,-0.20 -0.51,-0.97 -0.41,-1.73 -0.48,-1.78 -0.56,-1.82 -0.49,-1.96 -0.43,-2.09 -0.33,-2.21 -0.24,-2.33 -0.12,-2.42 -0.00,-2.51 0.13,-2.57 0.27,-2.63 0.42,-2.65 0.57,-2.68 0.72,-2.66 0.87,-2.65 1.01,-2.60 1.15,-2.56 1.28,-2.48 1.41,-2.40 1.51,-2.29 1.62,-2.18 1.69,-2.05 1.77,-1.92 1.81,-1.77 1.85,-1.63 1.86,-1.48 1.86,-1.33 1.83,-1.18 1.80,-1.03 1.91,0.47 2.02,1.98 2.05,4.47 2.09,6.97 2.08,9.12 2.08,11.27 2.03,13.49 1.97,15.72 2.00,17.96 2.03,20.20 2.03,20.31 2.02,20.41 1.99,20.51 1.95,20.61 1.88,20.69 1.82,20.78 1.73,20.83 1.64,20.89 1.54,20.92 1.43,20.94 1.33,20.93 1.22,20.93 1.12,20.88 1.03,20.84 0.95,20.77 0.87,20.70 0.81,20.61 0.76,20.52 0.74,20.41 0.72,20.31 0.74,20.20 0.75,20.10 0.80,20.00 0.84,19.91 0.92,19.83 0.99,19.76 1.09,19.71 1.18,19.66 1.29,19.65 1.40,19.63 1.50,19.65 1.60,19.67 1.70,19.72 1.79,19.78 1.86,19.86 1.93,19.93 1.97,20.03 2.02,20.13 2.02,20.24 2.03,20.34 2.01,20.44 1.98,20.55 1.92,20.64 1.87,20.73 1.78,20.79 1.70,20.86 1.60,20.90 1.50,20.93 1.40,20.94 1.29,20.94 1.19,20.91 1.09,20.88 1.00,20.82 0.91,20.75 0.85,20.67 0.79,20.58 0.76,20.48 0.73,20.38 0.73,20.38 0.73,20.38 0.13,18.05 -0.45,15.73 -0.52,13.50 -0.58,11.28 -0.60,9.13 -0.61,6.98 -0.61,4.51 -0.61,2.04 -0.58,0.10 -0.56,-1.82 -0.49,-1.96 -0.43,-2.09 -0.33,-2.21 -0.24,-2.33 -0.12,-2.42 -0.00,-2.51 0.13,-2.57 0.27,-2.63 0.42,-2.65 0.57,-2.68 0.72,-2.66 0.87,-2.65 1.01,-2.60 1.15,-2.56 1.28,-2.48 1.41,-2.40 1.51,-2.29 1.62,-2.18 1.69,-2.05 1.77,-1.92 1.81,-1.77 1.85,-1.63 1.86,-1.48 1.86,-1.33 1.83,-1.18 1.80,-1.03 1.54,-0.96 1.28,-0.88 0.95,-0.33 0.62,0.20 0.58,0.27 0.55,0.35 0.50,0.41 0.45,0.47 0.39,0.52 0.32,0.56 0.25,0.59 0.18,0.63 0.10,0.64 0.02,0.65 -0.05,0.64 -0.13,0.64 -0.20,0.61 -0.28,0.59 -0.34,0.55 -0.41,0.50 -0.46,0.45 -0.52,0.39 -0.56,0.32 -0.60,0.25 -0.62,0.18 -0.64,0.10 -0.65,0.02 -0.65,-0.05 -0.63,-0.13 -0.62,-0.20 -0.62,-0.20 L -0.62,-0.20 Z"/></g><g transform="translate(398.7308349609375 114.21942138671875) rotate(0 0.7607421875 0.7607269287109375)" stroke="none"><path fill="#1e1e1e" d="M 0,-0.65 Q 0,-0.65 0.59,-0.85 1.19,-1.05 1.71,-0.68 2.22,-0.32 2.30,-0.04 2.38,0.22 2.47,0.35 2.56,0.48 2.61,0.63 2.66,0.77 2.68,0.93 2.69,1.08 2.67,1.24 2.65,1.39 2.59,1.54 2.53,1.68 2.44,1.81 2.35,1.93 2.23,2.03 2.11,2.13 1.97,2.20 1.83,2.27 1.68,2.31 1.53,2.34 1.37,2.34 1.22,2.34 1.07,2.30 0.92,2.25 0.78,2.18 0.64,2.10 0.53,2.00 0.41,1.89 1.44,0.97 2.46,0.04 2.55,0.17 2.63,0.30 2.68,0.45 2.74,0.60 2.75,0.75 2.77,0.91 2.75,1.07 2.72,1.22 2.67,1.37 2.61,1.51 2.51,1.64 2.42,1.77 2.30,1.87 2.18,1.97 2.04,2.04 1.90,2.11 1.75,2.14 1.60,2.18 1.44,2.18 1.28,2.17 1.13,2.13 0.98,2.09 0.84,2.01 0.71,1.94 0.59,1.83 0.47,1.73 0.92,1.83 1.36,1.93 1.36,2.03 1.36,2.14 1.33,2.24 1.30,2.34 1.24,2.43 1.18,2.51 1.09,2.58 1.00,2.64 0.90,2.67 0.80,2.70 0.69,2.70 0.59,2.69 0.49,2.66 0.39,2.62 0.31,2.55 0.22,2.49 0.17,2.40 0.11,2.31 0.08,2.20 0.06,2.10 0.07,2.00 0.07,1.89 0.12,1.79 0.16,1.69 0.23,1.62 0.30,1.54 0.39,1.48 0.49,1.43 0.59,1.41 0.69,1.39 0.80,1.41 0.91,1.42 1.00,1.47 1.10,1.52 1.17,1.59 1.25,1.67 1.29,1.76 1.34,1.86 1.35,1.96 1.37,2.07 1.35,2.17 1.33,2.28 1.28,2.37 1.22,2.46 1.14,2.53 1.07,2.60 0.97,2.64 0.87,2.69 0.76,2.69 0.66,2.70 0.55,2.68 0.45,2.65 0.36,2.59 0.27,2.54 0.21,2.45 0.14,2.37 0.10,2.27 0.07,2.17 0.07,2.17 0.07,2.17 1.26,1.11 2.46,0.04 2.55,0.17 2.63,0.30 2.68,0.45 2.74,0.60 2.75,0.75 2.77,0.91 2.75,1.07 2.72,1.22 2.67,1.37 2.61,1.51 2.52,1.64 2.42,1.77 2.30,1.87 2.18,1.97 2.04,2.04 1.90,2.11 1.75,2.14 1.60,2.18 1.44,2.18 1.28,2.17 1.13,2.13 0.98,2.09 0.84,2.01 0.71,1.94 0.59,1.83 0.48,1.73 1.43,0.97 2.38,0.22 2.47,0.35 2.56,0.48 2.61,0.63 2.66,0.77 2.68,0.93 2.69,1.08 2.67,1.24 2.65,1.39 2.59,1.54 2.53,1.68 2.44,1.81 2.35,1.93 2.23,2.03 2.11,2.13 1.97,2.20 1.83,2.27 1.68,2.31 1.53,2.34 1.37,2.34 1.22,2.34 1.07,2.30 0.92,2.25 0.78,2.18 0.64,2.10 0.53,2.00 0.41,1.89 0.48,1.47 0.55,1.05 0.27,0.85 0,0.65 -0.07,0.64 -0.15,0.63 -0.23,0.60 -0.30,0.58 -0.37,0.53 -0.43,0.49 -0.48,0.43 -0.54,0.37 -0.57,0.30 -0.61,0.23 -0.63,0.15 -0.65,0.07 -0.65,-0.00 -0.65,-0.07 -0.63,-0.15 -0.61,-0.23 -0.57,-0.30 -0.54,-0.37 -0.48,-0.43 -0.43,-0.49 -0.37,-0.53 -0.30,-0.58 -0.23,-0.60 -0.15,-0.63 -0.07,-0.64 0.00,-0.65 0.00,-0.65 L 0,-0.65 Z"/></g><g transform="translate(399.4915771484375 125.63031005859375) rotate(0 1.141082763671875 2.2821807861328125)" stroke="none"><path fill="#1e1e1e" d="M 0.46,-0.46 Q 0.46,-0.46 1.07,-0.20 1.69,0.05 2.11,0.46 2.53,0.87 1.59,2.80 0.65,4.73 0.59,4.81 0.52,4.90 0.43,4.95 0.34,5.01 0.24,5.03 0.13,5.06 0.03,5.05 -0.07,5.04 -0.17,5.00 -0.26,4.95 -0.34,4.88 -0.42,4.81 -0.47,4.72 -0.52,4.62 -0.54,4.52 -0.56,4.41 -0.55,4.31 -0.53,4.20 -0.48,4.11 -0.43,4.01 -0.36,3.94 -0.28,3.87 -0.19,3.82 -0.09,3.77 0.00,3.76 0.11,3.75 0.21,3.77 0.32,3.79 0.41,3.84 0.50,3.90 0.57,3.98 0.64,4.06 0.68,4.15 0.72,4.25 0.73,4.36 0.74,4.46 0.71,4.57 0.69,4.67 0.63,4.76 0.57,4.85 0.49,4.91 0.40,4.98 0.30,5.01 0.20,5.05 0.10,5.05 -0.00,5.05 -0.10,5.02 -0.20,4.99 -0.29,4.93 -0.37,4.86 -0.43,4.78 -0.50,4.69 -0.53,4.59 -0.56,4.49 -0.55,4.38 -0.55,4.27 -0.51,4.17 -0.47,4.07 -0.47,4.07 -0.47,4.07 0.17,3.28 0.83,2.49 0.44,2.09 0.05,1.69 -0.20,1.07 -0.46,0.46 -0.51,0.40 -0.56,0.33 -0.59,0.26 -0.62,0.19 -0.64,0.11 -0.65,0.03 -0.65,-0.03 -0.64,-0.11 -0.62,-0.19 -0.59,-0.26 -0.55,-0.33 -0.51,-0.40 -0.46,-0.46 -0.40,-0.51 -0.33,-0.55 -0.26,-0.59 -0.19,-0.62 -0.11,-0.64 -0.03,-0.65 0.03,-0.65 0.11,-0.64 0.19,-0.62 0.26,-0.59 0.33,-0.56 0.40,-0.51 0.46,-0.46 0.46,-0.46 L 0.46,-0.46 Z"/></g><g transform="translate(400.2523193359375 140.0841064453125) rotate(0 2.28216552734375 2.2821807861328125)" stroke="none"><path fill="#1e1e1e" d="M 0.15,-0.63 Q 0.15,-0.63 1.10,-0.69 2.04,-0.74 2.59,-0.66 3.14,-0.58 4.00,0.05 4.86,0.70 5.00,1.35 5.14,2.00 4.61,2.91 4.08,3.83 2.38,3.70 0.68,3.58 0.62,3.64 0.57,3.70 0.50,3.74 0.43,3.78 0.36,3.80 0.28,3.83 0.20,3.83 0.12,3.84 0.05,3.82 -0.02,3.81 -0.10,3.78 -0.17,3.75 -0.23,3.70 -0.29,3.65 -0.34,3.59 -0.39,3.52 -0.42,3.45 -0.46,3.38 -0.47,3.30 -0.49,3.23 -0.48,3.15 -0.48,3.07 -0.46,2.99 -0.43,2.92 -0.39,2.85 -0.35,2.78 -0.38,3.15 -0.40,3.51 -0.44,3.41 -0.48,3.31 -0.48,3.21 -0.48,3.10 -0.45,3.00 -0.42,2.90 -0.36,2.81 -0.30,2.72 -0.22,2.66 -0.13,2.60 -0.03,2.56 0.06,2.53 0.17,2.53 0.27,2.53 0.37,2.57 0.48,2.61 0.56,2.67 0.64,2.74 0.70,2.83 0.76,2.92 0.79,3.02 0.81,3.12 0.80,3.23 0.80,3.33 0.76,3.43 0.72,3.53 0.65,3.61 0.57,3.69 0.48,3.74 0.39,3.79 0.29,3.82 0.18,3.84 0.08,3.82 -0.02,3.81 -0.11,3.76 -0.21,3.72 -0.29,3.64 -0.36,3.57 -0.41,3.48 -0.46,3.38 -0.47,3.28 -0.49,3.17 -0.47,3.07 -0.45,2.96 -0.40,2.87 -0.35,2.78 -0.27,2.70 -0.19,2.63 -0.09,2.59 -0.00,2.55 0.10,2.54 0.20,2.53 0.31,2.55 0.41,2.58 0.50,2.63 0.59,2.69 0.63,3.13 0.68,3.58 0.62,3.64 0.57,3.70 0.50,3.74 0.43,3.78 0.36,3.80 0.28,3.83 0.20,3.83 0.12,3.84 0.05,3.82 -0.02,3.81 -0.10,3.78 -0.17,3.75 -0.23,3.70 -0.29,3.65 -0.34,3.59 -0.39,3.52 -0.42,3.45 -0.46,3.38 -0.47,3.30 -0.49,3.23 -0.48,3.15 -0.48,3.07 -0.46,2.99 -0.43,2.92 -0.39,2.85 -0.35,2.78 1.17,2.31 2.71,1.83 2.08,1.72 1.45,1.61 0.64,1.12 -0.15,0.63 -0.23,0.60 -0.30,0.58 -0.37,0.53 -0.43,0.49 -0.48,0.43 -0.54,0.37 -0.57,0.30 -0.61,0.23 -0.63,0.15 -0.65,0.07 -0.65,-0.00 -0.65,-0.08 -0.63,-0.15 -0.61,-0.23 -0.57,-0.30 -0.53,-0.37 -0.48,-0.43 -0.43,-0.49 -0.36,-0.53 -0.30,-0.58 -0.22,-0.61 -0.15,-0.63 -0.07,-0.64 0.00,-0.65 0.08,-0.64 0.15,-0.63 0.15,-0.63 L 0.15,-0.63 Z"/></g><g transform="translate(472.521240234375 28.257415771484375) rotate(0 13.69305419921875 66.18314361572266)" stroke="none"><path fill="#1e1e1e" d="M -0.33,-0.56 Q -0.33,-0.56 0.66,-1.36 1.67,-2.16 2.57,-2.70 3.48,-3.23 4.81,-3.73 6.14,-4.23 7.19,-4.44 8.25,-4.66 9.91,-4.55 11.57,-4.44 13.16,-4.17 14.74,-3.89 16.91,-2.61 19.08,-1.33 20.49,0.15 21.90,1.65 22.99,3.68 24.08,5.71 24.55,7.54 25.03,9.37 25.01,11.35 25.00,13.33 24.76,15.05 24.53,16.78 24.22,18.60 23.91,20.41 23.79,21.99 23.67,23.56 23.40,25.20 23.12,26.83 22.77,28.02 22.43,29.22 22.09,30.54 21.75,31.87 21.36,32.94 20.98,34.01 20.85,34.77 20.73,35.52 20.39,36.29 20.04,37.07 19.70,37.75 19.36,38.44 19.28,38.99 19.20,39.53 18.89,40.39 18.57,41.25 18.49,42.05 18.42,42.85 18.58,43.71 18.75,44.58 19.02,45.62 19.30,46.65 19.63,47.75 19.97,48.85 20.30,49.69 20.63,50.53 21.29,51.12 21.95,51.71 22.73,52.50 23.51,53.28 24.06,53.84 24.61,54.39 25.06,54.84 25.52,55.29 26.14,55.92 26.76,56.54 27.30,57.07 27.84,57.60 28.01,58.30 28.18,59.00 27.85,59.70 27.53,60.39 27.15,60.86 26.77,61.32 26.49,61.81 26.22,62.30 25.80,62.85 25.37,63.40 25.10,64.09 24.82,64.78 24.40,66.19 23.99,67.60 23.90,68.69 23.81,69.79 23.77,71.16 23.72,72.52 23.70,73.98 23.68,75.43 23.68,77.15 23.67,78.86 23.88,80.58 24.09,82.31 24.19,84.46 24.28,86.60 24.53,88.75 24.79,90.89 24.90,93.41 25.02,95.93 25.28,98.24 25.54,100.55 25.66,103.13 25.78,105.72 25.60,108.21 25.43,110.69 24.91,113.54 24.40,116.40 23.50,119.01 22.60,121.62 21.34,124.30 20.07,126.97 18.86,129.02 17.64,131.08 16.15,132.70 14.66,134.33 13.21,135.26 11.76,136.18 9.33,135.43 6.90,134.68 6.82,134.61 6.74,134.55 6.68,134.45 6.63,134.36 6.60,134.26 6.58,134.16 6.59,134.05 6.60,133.95 6.65,133.85 6.69,133.75 6.77,133.67 6.84,133.60 6.93,133.55 7.03,133.50 7.13,133.48 7.23,133.46 7.34,133.48 7.44,133.50 7.54,133.55 7.63,133.60 7.71,133.67 7.78,133.75 7.82,133.85 7.87,133.94 7.88,134.05 7.89,134.15 7.87,134.26 7.85,134.36 7.79,134.45 7.74,134.54 7.66,134.61 7.58,134.68 7.48,134.72 7.38,134.76 7.27,134.77 7.17,134.77 7.06,134.74 6.96,134.72 6.87,134.66 6.79,134.60 6.72,134.51 6.66,134.43 6.62,134.33 6.59,134.23 6.59,134.12 6.59,134.01 6.62,133.91 6.66,133.81 6.72,133.73 6.78,133.64 6.87,133.58 6.96,133.52 7.06,133.50 7.16,133.47 7.27,133.47 7.38,133.48 7.48,133.52 7.57,133.56 7.57,133.56 7.57,133.56 8.87,133.59 10.16,133.62 11.19,132.84 12.23,132.06 13.50,130.70 14.76,129.33 15.92,127.43 17.08,125.53 18.30,123.03 19.53,120.54 20.37,118.17 21.22,115.81 21.73,113.13 22.23,110.46 22.40,108.16 22.57,105.86 22.46,103.38 22.35,100.90 22.08,98.49 21.81,96.08 21.71,93.67 21.61,91.26 21.34,89.00 21.08,86.74 21.00,84.72 20.91,82.69 20.69,80.76 20.47,78.84 20.48,77.11 20.49,75.39 20.52,73.89 20.54,72.40 20.60,70.95 20.66,69.49 20.81,68.07 20.97,66.65 21.25,65.78 21.53,64.90 21.73,64.21 21.92,63.52 22.71,62.10 23.50,60.69 24.06,59.71 24.62,58.73 23.98,58.10 23.34,57.46 22.89,57.01 22.44,56.55 21.88,56.00 21.33,55.44 20.55,54.65 19.76,53.85 18.80,52.79 17.84,51.73 17.44,50.74 17.05,49.74 16.70,48.58 16.35,47.42 16.04,46.24 15.74,45.05 15.57,43.78 15.40,42.51 15.56,41.36 15.72,40.21 15.97,39.57 16.21,38.94 16.42,38.03 16.63,37.11 17.19,36.03 17.76,34.94 17.96,33.96 18.15,32.98 18.51,32.04 18.87,31.09 19.25,29.73 19.63,28.37 19.96,27.35 20.29,26.33 20.56,24.83 20.84,23.32 21.00,21.62 21.15,19.92 21.48,18.16 21.81,16.39 22.04,14.83 22.28,13.26 22.35,11.62 22.42,9.99 22.07,8.45 21.71,6.91 20.85,5.14 19.98,3.36 18.86,2.08 17.73,0.79 15.98,-0.34 14.24,-1.49 12.79,-1.77 11.35,-2.05 10.00,-2.22 8.65,-2.40 7.76,-2.25 6.87,-2.10 5.68,-1.74 4.49,-1.38 3.59,-0.91 2.70,-0.45 1.51,0.05 0.33,0.56 0.26,0.59 0.19,0.62 0.11,0.64 0.03,0.65 -0.04,0.65 -0.12,0.64 -0.19,0.62 -0.27,0.59 -0.33,0.55 -0.40,0.51 -0.46,0.45 -0.51,0.40 -0.55,0.33 -0.59,0.26 -0.62,0.19 -0.64,0.11 -0.65,0.03 -0.65,-0.04 -0.64,-0.11 -0.62,-0.19 -0.59,-0.26 -0.56,-0.34 -0.51,-0.40 -0.46,-0.46 -0.40,-0.51 -0.33,-0.56 -0.33,-0.56 L -0.33,-0.56 Z"/></g><g transform="translate(525.7720947265625 90.63693237304688) rotate(0 13.69305419921875 -0.7607269287109375)" stroke="none"><path fill="#1e1e1e" d="M -0.52,-0.39 Q -0.52,-0.39 0.00,-1.35 0.54,-2.32 1.04,-2.96 1.54,-3.60 2.17,-3.98 2.80,-4.37 3.71,-4.32 4.62,-4.27 5.28,-3.95 5.94,-3.64 6.54,-2.95 7.14,-2.27 7.41,-1.68 7.68,-1.09 7.80,-0.32 7.92,0.44 7.15,0.80 6.39,1.16 7.39,0.34 8.39,-0.46 9.11,-0.86 9.82,-1.26 10.64,-1.44 11.47,-1.62 12.01,-1.43 12.56,-1.23 13.21,-0.38 13.85,0.46 15.72,0.50 17.59,0.54 21.51,-0.51 25.42,-1.57 25.52,-1.59 25.63,-1.61 25.73,-1.59 25.84,-1.57 25.93,-1.52 26.03,-1.47 26.10,-1.39 26.17,-1.31 26.21,-1.21 26.26,-1.12 26.27,-1.01 26.28,-0.91 26.25,-0.80 26.23,-0.70 26.17,-0.61 26.12,-0.52 26.03,-0.45 25.95,-0.38 25.85,-0.34 25.75,-0.31 25.65,-0.30 25.54,-0.30 25.44,-0.33 25.34,-0.36 25.25,-0.42 25.16,-0.48 25.10,-0.56 25.04,-0.65 25.00,-0.75 24.97,-0.85 24.97,-0.96 24.97,-1.06 25.01,-1.16 25.05,-1.27 25.11,-1.35 25.18,-1.43 25.26,-1.49 25.35,-1.55 25.46,-1.58 25.56,-1.60 25.67,-1.60 25.77,-1.59 25.87,-1.55 25.97,-1.51 26.05,-1.44 26.13,-1.37 26.18,-1.28 26.23,-1.18 26.26,-1.08 26.28,-0.98 26.26,-0.87 26.25,-0.77 26.21,-0.67 26.16,-0.57 26.09,-0.50 26.01,-0.42 25.92,-0.37 25.82,-0.32 25.82,-0.32 25.82,-0.32 21.75,1.18 17.68,2.68 15.41,2.76 13.13,2.83 12.05,1.84 10.97,0.84 10.33,1.20 9.69,1.55 8.91,2.16 8.13,2.78 6.92,2.33 5.70,1.88 5.62,1.30 5.54,0.73 5.41,-0.07 5.29,-0.87 4.74,-1.50 4.19,-2.13 3.63,-2.19 3.07,-2.25 2.57,-1.71 2.08,-1.17 1.30,-0.38 0.52,0.39 0.47,0.45 0.41,0.50 0.34,0.55 0.28,0.59 0.20,0.61 0.13,0.64 0.05,0.64 -0.02,0.65 -0.10,0.64 -0.18,0.63 -0.25,0.59 -0.32,0.56 -0.39,0.52 -0.45,0.47 -0.50,0.41 -0.55,0.35 -0.58,0.27 -0.62,0.20 -0.63,0.13 -0.65,0.05 -0.65,-0.02 -0.64,-0.10 -0.62,-0.18 -0.60,-0.25 -0.56,-0.32 -0.52,-0.39 -0.52,-0.39 L -0.52,-0.39 Z"/></g></svg>