<svg version="1.1" xmlns="http://www.w3.org/2000/svg" viewBox="0 0 716.5277099609375 270.0865592956543" width="716.5277099609375" height="270.0865592956543" filter="invert(93%) hue-rotate(180deg)" class="excalidraw-svg">
  <!-- svg-source:excalidraw -->
  
  <defs>
    <style class="style-fonts">
      @font-face {
        font-family: "Virgil";
        src: url("https://excalidraw.com/Virgil.woff2");
      }
      @font-face {
        font-family: "Cascadia";
        src: url("https://excalidraw.com/Cascadia.woff2");
      }
      @font-face {
        font-family: "Assistant";
        src: url("https://excalidraw.com/Assistant-Regular.woff2");
      }
    </style>
    
  </defs>
  <rect x="0" y="0" width="716.5277099609375" height="270.0865592956543" fill="#ffffff"/><g stroke-linecap="round"><g transform="translate(51.35295867919922 39.668304443359375) rotate(0 275.7630920410156 0.00000762939453125)"><path d="M0 0 C91.92 0, 459.61 0, 551.53 0 M0 0 C91.92 0, 459.61 0, 551.53 0" stroke="#1e1e1e" stroke-width="2" fill="none"/></g></g><mask/><g stroke-linecap="round"><g transform="translate(51.681114196777344 63.132102966308594) rotate(0 275.7630920410156 0.00000762939453125)"><path d="M0 0 C91.92 0, 459.61 0, 551.53 0 M0 0 C91.92 0, 459.61 0, 551.53 0" stroke="#1e1e1e" stroke-width="2" fill="none"/></g></g><mask/><g stroke-linecap="round"><g transform="translate(52.408714294433594 84.96541595458984) rotate(0 275.7630920410156 0.00000762939453125)"><path d="M0 0 C91.92 0, 459.61 0, 551.53 0 M0 0 C91.92 0, 459.61 0, 551.53 0" stroke="#1e1e1e" stroke-width="2" fill="none"/></g></g><mask/><g stroke-linecap="round"><g transform="translate(53.70392608642578 165.1667823791504) rotate(0 275.7630920410156 0.00000762939453125)"><path d="M0 0 C91.92 0, 459.61 0, 551.53 0 M0 0 C91.92 0, 459.61 0, 551.53 0" stroke="#1e1e1e" stroke-width="2" fill="none"/></g></g><mask/><g stroke-linecap="round" transform="translate(256.7489547729492 10) rotate(0 80.256591796875 110.30522918701172)"><path d="M32 0 C58.23 0, 84.47 0, 128.51 0 C149.85 0, 160.51 10.67, 160.51 32 C160.51 93.86, 160.51 155.71, 160.51 188.61 C160.51 209.94, 149.85 220.61, 128.51 220.61 C96.16 220.61, 63.81 220.61, 32 220.61 C10.67 220.61, 0 209.94, 0 188.61 C0 145.78, 0 102.95, 0 32 C0 10.67, 10.67 0, 32 0" stroke="none" stroke-width="0" fill="#ffffff"/><path d="M32 0 C56.56 0, 81.12 0, 128.51 0 M32 0 C54.12 0, 76.24 0, 128.51 0 M128.51 0 C149.85 0, 160.51 10.67, 160.51 32 M128.51 0 C149.85 0, 160.51 10.67, 160.51 32 M160.51 32 C160.51 91.33, 160.51 150.65, 160.51 188.61 M160.51 32 C160.51 77.64, 160.51 123.29, 160.51 188.61 M160.51 188.61 C160.51 209.94, 149.85 220.61, 128.51 220.61 M160.51 188.61 C160.51 209.94, 149.85 220.61, 128.51 220.61 M128.51 220.61 C93.2 220.61, 57.88 220.61, 32 220.61 M128.51 220.61 C90.23 220.61, 51.94 220.61, 32 220.61 M32 220.61 C10.67 220.61, 0 209.94, 0 188.61 M32 220.61 C10.67 220.61, 0 209.94, 0 188.61 M0 188.61 C0 149.17, 0 109.72, 0 32 M0 188.61 C0 143.35, 0 98.09, 0 32 M0 32 C0 10.67, 10.67 0, 32 0 M0 32 C0 10.67, 10.67 0, 32 0" stroke="#1e1e1e" stroke-width="2" fill="none"/></g><g transform="translate(306.19615936279297 105.09071350097656) rotate(0 13.312713623046875 13.69305419921875)" stroke="none"><path fill="#1e1e1e" d="M 0.60,0.24 Q 0.60,0.24 0.37,1.41 0.13,2.58 -0.21,4.70 -0.56,6.81 -0.71,9.01 -0.87,11.20 -0.71,13.61 -0.55,16.02 -0.05,18.53 0.43,21.03 1.70,23.51 2.96,25.98 4.69,27.80 6.42,29.62 8.44,30.08 10.46,30.55 12.64,29.72 14.82,28.89 17.37,26.25 19.93,23.60 21.65,20.60 23.37,17.60 24.51,12.95 25.65,8.30 25.97,4.84 26.29,1.38 25.89,-1.60 25.49,-4.58 25.46,-4.69 25.43,-4.79 25.43,-4.89 25.43,-5.00 25.47,-5.10 25.51,-5.20 25.57,-5.28 25.64,-5.36 25.73,-5.42 25.82,-5.48 25.92,-5.50 26.03,-5.53 26.13,-5.52 26.24,-5.51 26.34,-5.47 26.43,-5.43 26.51,-5.36 26.59,-5.29 26.64,-5.19 26.70,-5.10 26.72,-5.00 26.74,-4.89 26.72,-4.79 26.71,-4.68 26.66,-4.59 26.61,-4.49 26.54,-4.42 26.46,-4.34 26.37,-4.29 26.27,-4.25 26.17,-4.23 26.06,-4.22 25.96,-4.24 25.85,-4.26 25.76,-4.31 25.67,-4.36 25.60,-4.44 25.53,-4.52 25.48,-4.62 25.44,-4.72 25.43,-4.82 25.43,-4.93 25.45,-5.03 25.48,-5.14 25.53,-5.23 25.59,-5.31 25.67,-5.38 25.76,-5.45 25.86,-5.48 25.96,-5.52 26.06,-5.52 26.17,-5.53 26.27,-5.49 26.37,-5.46 26.46,-5.40 26.54,-5.34 26.61,-5.25 26.67,-5.17 26.67,-5.17 26.67,-5.17 27.88,-1.78 29.10,1.60 28.81,5.31 28.53,9.02 27.22,14.04 25.91,19.06 23.92,22.34 21.93,25.62 18.85,28.49 15.76,31.36 12.90,32.18 10.04,33.01 7.41,32.22 4.78,31.43 2.78,29.26 0.78,27.09 -0.56,24.30 -1.91,21.51 -2.41,18.84 -2.91,16.17 -3.04,13.60 -3.18,11.03 -2.99,8.72 -2.80,6.41 -2.34,4.10 -1.88,1.78 -1.24,0.77 -0.60,-0.24 -0.57,-0.31 -0.53,-0.38 -0.48,-0.44 -0.42,-0.49 -0.36,-0.54 -0.29,-0.58 -0.22,-0.61 -0.14,-0.64 -0.06,-0.64 0.01,-0.65 0.09,-0.64 0.16,-0.63 0.24,-0.60 0.31,-0.57 0.37,-0.52 0.44,-0.48 0.49,-0.42 0.54,-0.36 0.58,-0.29 0.61,-0.22 0.63,-0.14 0.65,-0.06 0.65,0.01 0.65,0.09 0.63,0.16 0.60,0.24 0.60,0.24 L 0.60,0.24 Z"/></g><g transform="translate(337.3859176635742 144.64845275878906) rotate(0 8.36798095703125 -3.4232635498046875)" stroke="none"><path fill="#1e1e1e" d="M 0,-0.65 Q 0,-0.65 0.80,-0.84 1.60,-1.02 2.99,-2.29 4.38,-3.55 5.86,-5.35 7.34,-7.15 8.35,-9.36 9.36,-11.56 9.79,-13.02 10.22,-14.48 9.88,-15.17 9.54,-15.86 8.99,-15.07 8.44,-14.27 7.96,-12.76 7.48,-11.25 7.25,-8.27 7.03,-5.29 7.14,-2.72 7.25,-0.16 7.30,2.06 7.35,4.30 7.37,5.90 7.39,7.50 7.60,8.27 7.81,9.05 7.25,10.31 6.69,11.56 5.86,11.68 5.02,11.79 4.04,11.03 3.05,10.26 1.72,9.15 0.40,8.05 -1.18,7.23 -2.76,6.40 -3.81,6.09 -4.86,5.78 -5.57,5.63 -6.28,5.47 -6.45,5.39 -6.61,5.31 -6.75,5.20 -6.89,5.08 -7.00,4.93 -7.11,4.79 -7.17,4.62 -7.24,4.45 -7.27,4.27 -7.30,4.10 -7.28,3.91 -7.27,3.73 -7.21,3.56 -7.15,3.39 -7.05,3.24 -6.95,3.09 -6.82,2.96 -6.69,2.84 -6.53,2.75 -6.38,2.66 -6.20,2.61 -6.03,2.56 -5.85,2.55 -5.66,2.55 -5.49,2.58 -5.31,2.62 -3.92,2.50 -2.53,2.37 -0.11,2.13 2.29,1.88 6.59,1.30 10.89,0.72 14.53,0.43 18.18,0.15 19.70,-0.07 21.23,-0.30 21.33,-0.30 21.44,-0.30 21.54,-0.27 21.64,-0.23 21.72,-0.17 21.81,-0.10 21.86,-0.01 21.92,0.07 21.95,0.17 21.98,0.27 21.97,0.38 21.96,0.49 21.92,0.58 21.88,0.68 21.81,0.76 21.74,0.84 21.65,0.90 21.56,0.95 21.45,0.97 21.35,0.99 21.25,0.98 21.14,0.97 21.04,0.92 20.95,0.87 20.87,0.80 20.80,0.73 20.75,0.63 20.70,0.54 20.68,0.43 20.67,0.33 20.69,0.22 20.70,0.12 20.75,0.03 20.81,-0.06 20.88,-0.13 20.96,-0.20 21.06,-0.25 21.16,-0.29 21.26,-0.30 21.37,-0.31 21.47,-0.29 21.57,-0.26 21.66,-0.21 21.75,-0.15 21.82,-0.07 21.89,0.00 21.93,0.10 21.97,0.20 21.97,0.31 21.98,0.42 21.95,0.52 21.92,0.62 21.86,0.71 21.79,0.79 21.71,0.86 21.62,0.92 21.52,0.95 21.42,0.99 21.42,0.99 21.42,0.99 19.90,1.22 18.37,1.45 14.84,2.25 11.30,3.05 6.95,3.99 2.60,4.93 0.10,5.18 -2.40,5.44 -4.34,5.45 -6.28,5.47 -6.45,5.39 -6.61,5.31 -6.75,5.20 -6.89,5.08 -7.00,4.93 -7.11,4.79 -7.17,4.62 -7.24,4.45 -7.27,4.27 -7.30,4.10 -7.28,3.91 -7.27,3.73 -7.21,3.56 -7.15,3.39 -7.05,3.24 -6.95,3.09 -6.82,2.96 -6.69,2.84 -6.53,2.75 -6.38,2.66 -6.20,2.61 -6.03,2.56 -5.85,2.55 -5.66,2.55 -5.49,2.58 -5.31,2.62 -4.61,2.80 -3.90,2.98 -2.65,3.45 -1.40,3.93 0.35,4.96 2.12,5.98 3.53,7.17 4.93,8.36 5.07,8.97 5.21,9.59 4.96,8.57 4.72,7.55 4.70,5.95 4.68,4.35 4.64,2.15 4.59,-0.05 4.48,-2.78 4.38,-5.51 4.67,-8.81 4.97,-12.11 5.71,-14.06 6.46,-16.01 7.65,-17.07 8.85,-18.12 10.21,-17.70 11.57,-17.28 12.14,-15.70 12.71,-14.12 12.20,-12.29 11.68,-10.46 10.46,-8.01 9.24,-5.56 7.55,-3.63 5.85,-1.69 3.86,-0.33 1.88,1.02 0.94,0.84 0,0.65 -0.07,0.64 -0.15,0.63 -0.23,0.60 -0.30,0.58 -0.37,0.53 -0.43,0.49 -0.48,0.43 -0.54,0.37 -0.57,0.30 -0.61,0.23 -0.63,0.15 -0.65,0.07 -0.65,-0.00 -0.65,-0.07 -0.63,-0.15 -0.61,-0.23 -0.57,-0.30 -0.54,-0.37 -0.48,-0.43 -0.43,-0.49 -0.37,-0.53 -0.30,-0.58 -0.23,-0.60 -0.15,-0.63 -0.07,-0.64 0.00,-0.65 0.00,-0.65 L 0,-0.65 Z"/></g><g transform="translate(79.01352838960702 25.329730094281445) rotate(0 5.23024483343724 -5.230222747373887)" stroke="none"><path fill="#1e1e1e" d="M -0.58,-0.29 Q -0.58,-0.29 -0.33,-1.35 -0.08,-2.41 0.42,-3.45 0.93,-4.49 1.62,-5.89 2.31,-7.28 3.27,-8.73 4.24,-10.18 4.97,-11.12 5.71,-12.07 6.16,-12.45 6.62,-12.84 6.72,-12.94 6.83,-13.05 6.95,-13.12 7.08,-13.20 7.22,-13.24 7.36,-13.28 7.50,-13.29 7.65,-13.30 7.79,-13.27 7.94,-13.25 8.07,-13.19 8.20,-13.13 8.32,-13.04 8.43,-12.95 8.52,-12.83 8.61,-12.71 8.67,-12.58 8.73,-12.45 8.76,-12.30 8.78,-12.16 8.77,-12.01 8.76,-11.87 8.72,-11.73 8.68,-11.59 8.60,-11.46 8.53,-11.34 9.45,-9.67 10.38,-8.01 10.74,-6.05 11.09,-4.09 11.11,-1.22 11.13,1.63 11.11,1.74 11.09,1.84 11.04,1.94 10.98,2.03 10.90,2.10 10.82,2.17 10.73,2.21 10.63,2.25 10.52,2.26 10.42,2.27 10.31,2.24 10.21,2.22 10.12,2.16 10.03,2.10 9.97,2.02 9.90,1.94 9.86,1.84 9.83,1.74 9.82,1.63 9.82,1.53 9.85,1.42 9.88,1.32 9.95,1.24 10.01,1.15 10.10,1.09 10.18,1.03 10.28,1.00 10.38,0.97 10.49,0.97 10.60,0.97 10.70,1.01 10.80,1.04 10.88,1.11 10.96,1.18 11.02,1.27 11.08,1.36 11.10,1.46 11.13,1.56 11.12,1.67 11.11,1.78 11.07,1.87 11.02,1.97 10.95,2.05 10.88,2.13 10.79,2.18 10.70,2.23 10.59,2.25 10.49,2.27 10.38,2.26 10.28,2.24 10.18,2.20 10.09,2.15 10.01,2.07 9.94,2.00 9.89,1.90 9.84,1.81 9.83,1.70 9.82,1.60 9.82,1.60 9.82,1.60 9.29,-1.02 8.77,-3.65 8.41,-5.45 8.04,-7.25 7.60,-8.64 7.16,-10.02 6.89,-11.43 6.62,-12.84 6.72,-12.94 6.83,-13.05 6.95,-13.12 7.08,-13.20 7.22,-13.24 7.36,-13.28 7.50,-13.29 7.65,-13.30 7.79,-13.27 7.94,-13.25 8.07,-13.19 8.20,-13.13 8.32,-13.04 8.43,-12.95 8.52,-12.83 8.61,-12.72 8.67,-12.58 8.73,-12.45 8.76,-12.30 8.78,-12.16 8.77,-12.01 8.77,-11.87 8.72,-11.73 8.68,-11.59 8.60,-11.46 8.53,-11.34 8.06,-10.96 7.59,-10.57 6.91,-9.71 6.22,-8.85 5.33,-7.53 4.43,-6.22 3.73,-4.83 3.03,-3.44 2.51,-2.41 1.98,-1.38 1.28,-0.54 0.58,0.29 0.54,0.35 0.49,0.42 0.44,0.47 0.38,0.53 0.31,0.57 0.24,0.60 0.16,0.62 0.09,0.65 0.01,0.65 -0.06,0.65 -0.14,0.63 -0.22,0.61 -0.29,0.58 -0.36,0.54 -0.42,0.49 -0.48,0.44 -0.52,0.38 -0.57,0.31 -0.60,0.24 -0.63,0.16 -0.64,0.09 -0.65,0.01 -0.64,-0.06 -0.64,-0.14 -0.61,-0.21 -0.58,-0.29 -0.58,-0.29 L -0.58,-0.29 Z"/></g><g transform="translate(82.86736975523092 22.576967330781486) rotate(0 4.129122059186614 0.5505613871253843)" stroke="none"><path fill="#1e1e1e" d="M -0.09,-0.65 Q -0.09,-0.65 0.98,-1.01 2.07,-1.38 3.14,-1.22 4.21,-1.07 5.98,-0.17 7.76,0.72 7.85,0.78 7.94,0.84 8.01,0.92 8.08,1.00 8.11,1.10 8.15,1.20 8.15,1.31 8.15,1.41 8.12,1.51 8.09,1.62 8.03,1.70 7.97,1.79 7.88,1.85 7.80,1.91 7.69,1.94 7.59,1.97 7.49,1.97 7.38,1.97 7.28,1.93 7.18,1.90 7.10,1.83 7.01,1.76 6.96,1.67 6.90,1.58 6.87,1.48 6.85,1.38 6.86,1.27 6.87,1.17 6.91,1.07 6.95,0.97 7.02,0.89 7.09,0.81 7.18,0.76 7.28,0.71 7.38,0.69 7.49,0.67 7.59,0.68 7.70,0.70 7.79,0.74 7.89,0.79 7.96,0.87 8.04,0.94 8.08,1.04 8.13,1.13 8.15,1.24 8.16,1.34 8.14,1.45 8.12,1.55 8.07,1.64 8.02,1.74 7.94,1.81 7.86,1.88 7.76,1.92 7.66,1.96 7.56,1.97 7.45,1.98 7.35,1.95 7.24,1.93 7.24,1.93 7.24,1.93 5.62,1.36 4.00,0.80 3.18,0.77 2.36,0.75 1.22,0.70 0.09,0.65 0.01,0.65 -0.06,0.65 -0.14,0.63 -0.21,0.61 -0.29,0.58 -0.36,0.54 -0.42,0.49 -0.48,0.44 -0.52,0.38 -0.57,0.31 -0.60,0.24 -0.63,0.17 -0.64,0.09 -0.65,0.01 -0.64,-0.06 -0.64,-0.14 -0.61,-0.21 -0.58,-0.29 -0.54,-0.35 -0.50,-0.42 -0.44,-0.47 -0.38,-0.53 -0.31,-0.57 -0.24,-0.60 -0.16,-0.62 -0.09,-0.65 -0.09,-0.65 L -0.09,-0.65 Z"/></g><g transform="translate(115.90034622872366 200.9550137843662) rotate(0 -0.2752806935626779 6.056042741998539)" stroke="none"><path fill="#1e1e1e" d="M 0.65,0 Q 0.65,0 0.83,0.79 1.02,1.58 1.04,2.71 1.06,3.83 0.91,5.17 0.76,6.51 0.68,7.80 0.61,9.09 0.36,10.68 0.11,12.28 0.09,12.38 0.07,12.49 0.02,12.58 -0.02,12.67 -0.10,12.74 -0.18,12.82 -0.28,12.86 -0.37,12.90 -0.48,12.91 -0.59,12.92 -0.69,12.90 -0.79,12.87 -0.88,12.81 -0.97,12.76 -1.04,12.68 -1.11,12.59 -1.14,12.49 -1.18,12.39 -1.19,12.29 -1.19,12.18 -1.16,12.08 -1.13,11.98 -1.07,11.89 -1.01,11.80 -0.92,11.74 -0.83,11.68 -0.73,11.65 -0.63,11.62 -0.53,11.62 -0.42,11.62 -0.32,11.66 -0.22,11.69 -0.14,11.76 -0.05,11.82 0.00,11.91 0.05,12.00 0.08,12.10 0.11,12.21 0.10,12.31 0.09,12.42 0.05,12.52 0.01,12.61 -0.05,12.69 -0.12,12.77 -0.21,12.83 -0.31,12.88 -0.41,12.90 -0.52,12.92 -0.62,12.91 -0.73,12.89 -0.82,12.85 -0.92,12.80 -0.99,12.73 -1.07,12.65 -1.12,12.56 -1.16,12.46 -1.18,12.36 -1.19,12.25 -1.19,12.25 -1.19,12.25 -1.35,10.62 -1.51,8.98 -1.45,7.61 -1.39,6.24 -1.22,5.04 -1.06,3.83 -1.04,2.71 -1.02,1.58 -0.83,0.79 -0.65,0 -0.64,-0.07 -0.63,-0.15 -0.60,-0.23 -0.58,-0.30 -0.53,-0.37 -0.49,-0.43 -0.43,-0.48 -0.37,-0.54 -0.30,-0.57 -0.23,-0.61 -0.15,-0.63 -0.07,-0.65 0.00,-0.65 0.07,-0.65 0.15,-0.63 0.23,-0.61 0.30,-0.57 0.37,-0.54 0.43,-0.48 0.49,-0.43 0.53,-0.37 0.58,-0.30 0.60,-0.23 0.63,-0.15 0.64,-0.07 0.65,0.00 0.65,0.00 L 0.65,0 Z"/></g><g transform="translate(112.59706625022505 203.70777654786616) rotate(0 7.432424123748547 4.954919967747884)" stroke="none"><path fill="#1e1e1e" d="M -0.64,-0.12 Q -0.64,-0.12 -0.61,-0.97 -0.58,-1.81 0.09,-2.71 0.78,-3.60 2.66,-4.04 4.54,-4.48 6.00,-4.45 7.46,-4.43 8.94,-3.70 10.42,-2.97 11.16,-1.69 11.90,-0.41 12.02,0.57 12.13,1.56 11.81,2.61 11.49,3.67 10.94,4.36 10.40,5.04 10.03,5.44 9.67,5.83 9.20,6.12 8.73,6.40 8.44,6.46 8.16,6.53 8.02,6.58 7.87,6.63 7.72,6.65 7.57,6.67 7.42,6.65 7.27,6.63 7.12,6.58 6.98,6.52 6.86,6.43 6.73,6.34 6.63,6.23 6.53,6.11 6.46,5.98 6.39,5.84 6.35,5.69 6.32,5.55 6.32,5.39 6.32,5.24 6.36,5.09 6.40,4.94 6.47,4.81 6.54,4.67 6.64,4.56 6.74,4.45 6.87,4.36 7.00,4.27 8.39,4.02 9.78,3.77 11.10,4.08 12.43,4.39 13.49,5.04 14.55,5.69 14.94,7.07 15.32,8.44 14.46,10.05 13.61,11.65 11.23,12.49 8.84,13.34 5.69,13.76 2.54,14.19 2.44,14.19 2.33,14.19 2.23,14.15 2.13,14.12 2.05,14.05 1.96,13.99 1.90,13.90 1.84,13.81 1.81,13.71 1.78,13.61 1.79,13.50 1.80,13.40 1.84,13.30 1.87,13.20 1.94,13.12 2.01,13.04 2.10,12.98 2.19,12.93 2.30,12.90 2.40,12.88 2.51,12.89 2.61,12.90 2.71,12.95 2.81,12.99 2.88,13.07 2.96,13.14 3.01,13.23 3.06,13.33 3.08,13.43 3.09,13.54 3.08,13.64 3.06,13.75 3.01,13.84 2.96,13.93 2.88,14.01 2.81,14.08 2.71,14.13 2.61,14.17 2.51,14.18 2.40,14.19 2.30,14.17 2.20,14.15 2.10,14.09 2.01,14.04 1.94,13.96 1.88,13.88 1.84,13.78 1.80,13.68 1.79,13.57 1.78,13.47 1.81,13.36 1.84,13.26 1.90,13.17 1.96,13.09 2.05,13.02 2.13,12.96 2.23,12.92 2.33,12.89 2.33,12.89 2.33,12.89 5.27,12.31 8.20,11.73 9.91,10.91 11.62,10.10 12.20,9.28 12.77,8.47 12.79,7.89 12.82,7.31 12.29,7.08 11.77,6.85 10.84,6.57 9.92,6.30 9.04,6.41 8.16,6.53 8.02,6.58 7.87,6.63 7.72,6.65 7.57,6.67 7.42,6.65 7.27,6.63 7.12,6.58 6.98,6.52 6.86,6.43 6.73,6.34 6.63,6.23 6.53,6.11 6.46,5.98 6.39,5.84 6.35,5.69 6.32,5.55 6.32,5.39 6.32,5.24 6.36,5.09 6.40,4.94 6.47,4.81 6.54,4.67 6.64,4.56 6.74,4.45 6.87,4.36 7.00,4.27 7.43,4.17 7.86,4.07 8.52,3.42 9.18,2.76 9.44,2.21 9.70,1.66 9.71,1.11 9.71,0.56 9.42,-0.29 9.14,-1.15 8.22,-1.72 7.29,-2.29 6.09,-2.34 4.88,-2.40 3.45,-2.28 2.02,-2.16 1.62,-1.75 1.22,-1.34 0.93,-0.60 0.64,0.12 0.61,0.20 0.59,0.27 0.55,0.34 0.51,0.41 0.45,0.46 0.39,0.52 0.32,0.56 0.25,0.60 0.18,0.62 0.10,0.64 0.02,0.65 -0.05,0.65 -0.12,0.63 -0.20,0.62 -0.27,0.59 -0.34,0.55 -0.41,0.50 -0.47,0.45 -0.51,0.39 -0.56,0.33 -0.59,0.25 -0.63,0.18 -0.64,0.10 -0.65,0.02 -0.64,-0.04 -0.64,-0.12 -0.64,-0.12 L -0.64,-0.12 Z"/></g><g transform="translate(14.513885498046875 160.08658981323242) rotate(0 -0.6944427490234375 7.1180419921875)" stroke="none"><path fill="#1e1e1e" d="M 0.64,0.12 Q 0.64,0.12 0.76,1.19 0.87,2.25 0.73,3.82 0.59,5.39 0.43,6.98 0.27,8.57 -0.07,11.10 -0.42,13.63 -0.43,13.73 -0.44,13.84 -0.49,13.94 -0.53,14.03 -0.60,14.11 -0.67,14.19 -0.76,14.24 -0.86,14.29 -0.96,14.31 -1.06,14.33 -1.17,14.32 -1.27,14.30 -1.37,14.26 -1.46,14.21 -1.54,14.13 -1.61,14.06 -1.66,13.96 -1.71,13.87 -1.72,13.76 -1.74,13.66 -1.71,13.55 -1.69,13.45 -1.64,13.35 -1.59,13.26 -1.51,13.19 -1.43,13.12 -1.33,13.08 -1.23,13.04 -1.13,13.03 -1.02,13.02 -0.92,13.05 -0.82,13.07 -0.73,13.13 -0.64,13.19 -0.57,13.27 -0.51,13.36 -0.47,13.46 -0.43,13.56 -0.43,13.66 -0.43,13.77 -0.46,13.87 -0.49,13.97 -0.55,14.06 -0.62,14.14 -0.70,14.20 -0.79,14.27 -0.89,14.30 -0.99,14.33 -1.10,14.32 -1.21,14.32 -1.31,14.28 -1.41,14.25 -1.49,14.18 -1.57,14.11 -1.63,14.02 -1.68,13.93 -1.71,13.83 -1.73,13.73 -1.73,13.73 -1.73,13.73 -2.13,10.99 -2.52,8.25 -2.33,6.67 -2.13,5.08 -1.90,3.41 -1.67,1.74 -1.16,0.80 -0.64,-0.12 -0.61,-0.20 -0.59,-0.27 -0.55,-0.34 -0.51,-0.41 -0.45,-0.46 -0.39,-0.52 -0.32,-0.56 -0.25,-0.60 -0.18,-0.62 -0.10,-0.64 -0.02,-0.65 0.05,-0.65 0.12,-0.63 0.20,-0.62 0.27,-0.59 0.34,-0.55 0.41,-0.50 0.47,-0.45 0.51,-0.39 0.56,-0.33 0.59,-0.25 0.63,-0.18 0.64,-0.10 0.65,-0.02 0.64,0.04 0.64,0.12 0.64,0.12 L 0.64,0.12 Z"/></g><g transform="translate(17.638885498046875 168.76713180541992) rotate(0 2.2569427490234375 -1.21527099609375)" stroke="none"><path fill="#1e1e1e" d="M -0.49,-0.43 Q -0.49,-0.43 0.03,-1.38 0.55,-2.33 1.09,-3.14 1.64,-3.94 2.11,-4.53 2.58,-5.12 3.58,-5.69 4.59,-6.26 4.88,-4.87 5.17,-3.48 5.13,-2.58 5.10,-1.68 4.79,0.76 4.47,3.20 4.46,3.31 4.44,3.41 4.39,3.51 4.34,3.60 4.26,3.67 4.18,3.75 4.08,3.79 3.99,3.83 3.88,3.84 3.78,3.86 3.67,3.83 3.57,3.81 3.48,3.75 3.39,3.70 3.32,3.62 3.25,3.53 3.21,3.44 3.17,3.34 3.17,3.23 3.16,3.12 3.19,3.02 3.22,2.92 3.28,2.83 3.34,2.74 3.43,2.68 3.51,2.62 3.61,2.58 3.71,2.55 3.82,2.55 3.93,2.55 4.03,2.59 4.13,2.62 4.21,2.69 4.30,2.75 4.36,2.84 4.41,2.93 4.44,3.03 4.47,3.13 4.46,3.24 4.46,3.35 4.42,3.44 4.38,3.54 4.31,3.62 4.24,3.70 4.15,3.76 4.05,3.81 3.95,3.83 3.85,3.86 3.74,3.84 3.64,3.83 3.54,3.79 3.44,3.74 3.37,3.67 3.29,3.59 3.24,3.50 3.19,3.41 3.18,3.30 3.16,3.20 3.16,3.20 3.16,3.20 2.90,0.70 2.64,-1.78 2.68,-2.77 2.72,-3.75 2.94,-4.31 3.15,-4.87 3.78,-4.26 4.40,-3.64 3.97,-3.12 3.53,-2.60 2.88,-1.73 2.24,-0.86 1.36,-0.21 0.49,0.43 0.43,0.48 0.37,0.53 0.30,0.57 0.23,0.61 0.15,0.63 0.08,0.65 0.00,0.65 -0.07,0.65 -0.15,0.63 -0.22,0.61 -0.29,0.57 -0.36,0.54 -0.42,0.49 -0.48,0.43 -0.53,0.37 -0.57,0.30 -0.60,0.23 -0.63,0.16 -0.64,0.08 -0.65,0.00 -0.64,-0.07 -0.63,-0.15 -0.61,-0.22 -0.58,-0.30 -0.53,-0.36 -0.49,-0.43 -0.49,-0.43 L -0.49,-0.43 Z"/></g><g transform="translate(23.194442749023438 161.82270431518555) rotate(0 3.8194427490234375 5.90277099609375)" stroke="none"><path fill="#1e1e1e" d="M 0.42,-0.50 Q 0.42,-0.50 1.92,0.35 3.42,1.21 4.49,2.05 5.55,2.89 6.39,3.83 7.24,4.76 7.78,5.78 8.32,6.80 8.46,7.81 8.59,8.82 7.28,10.40 5.96,11.97 5.87,12.04 5.79,12.10 5.69,12.13 5.58,12.16 5.48,12.16 5.37,12.15 5.27,12.12 5.17,12.08 5.09,12.01 5.01,11.94 4.95,11.85 4.89,11.76 4.87,11.66 4.84,11.56 4.85,11.45 4.86,11.35 4.90,11.25 4.95,11.15 5.02,11.07 5.09,10.99 5.18,10.94 5.28,10.89 5.38,10.87 5.48,10.85 5.59,10.87 5.69,10.88 5.79,10.93 5.88,10.98 5.96,11.05 6.03,11.13 6.08,11.22 6.13,11.32 6.14,11.42 6.16,11.53 6.13,11.63 6.11,11.74 6.06,11.83 6.01,11.92 5.93,11.99 5.85,12.06 5.75,12.10 5.65,12.15 5.55,12.15 5.44,12.16 5.34,12.14 5.24,12.11 5.15,12.05 5.06,11.99 4.99,11.91 4.93,11.83 4.89,11.73 4.85,11.63 4.85,11.52 4.85,11.42 4.88,11.31 4.91,11.21 4.97,11.13 5.04,11.04 5.04,11.04 5.04,11.04 5.37,9.51 5.71,7.99 5.42,7.27 5.12,6.55 4.48,5.75 3.84,4.95 2.80,4.07 1.76,3.18 0.66,1.84 -0.42,0.50 -0.47,0.44 -0.53,0.38 -0.57,0.31 -0.60,0.24 -0.62,0.17 -0.64,0.09 -0.65,0.01 -0.65,-0.06 -0.63,-0.14 -0.61,-0.21 -0.58,-0.28 -0.54,-0.36 -0.49,-0.42 -0.44,-0.48 -0.38,-0.52 -0.31,-0.57 -0.24,-0.60 -0.17,-0.63 -0.09,-0.64 -0.01,-0.65 0.06,-0.64 0.14,-0.64 0.21,-0.61 0.29,-0.58 0.35,-0.54 0.42,-0.50 0.42,-0.50 L 0.42,-0.50 Z"/></g><g transform="translate(31.180557250976562 175.01713180541992) rotate(0 0 3.298614501953125)" stroke="none"><path fill="#1e1e1e" d="M 0.65,0 Q 0.65,0 0.88,1.09 1.10,2.19 0.88,4.28 0.65,6.37 0.63,6.47 0.62,6.58 0.57,6.67 0.52,6.76 0.44,6.84 0.36,6.91 0.27,6.95 0.17,7.00 0.07,7.01 -0.03,7.02 -0.13,7.00 -0.24,6.98 -0.33,6.92 -0.42,6.87 -0.49,6.79 -0.56,6.71 -0.60,6.61 -0.64,6.51 -0.64,6.40 -0.65,6.30 -0.62,6.19 -0.59,6.09 -0.53,6.00 -0.47,5.91 -0.39,5.85 -0.30,5.79 -0.20,5.75 -0.10,5.72 0.00,5.72 0.10,5.72 0.20,5.75 0.30,5.79 0.39,5.85 0.47,5.92 0.53,6.00 0.59,6.09 0.62,6.19 0.65,6.30 0.64,6.40 0.64,6.51 0.60,6.61 0.56,6.71 0.49,6.79 0.42,6.87 0.33,6.92 0.24,6.98 0.13,7.00 0.03,7.02 -0.07,7.01 -0.17,7.00 -0.27,6.95 -0.36,6.91 -0.44,6.84 -0.52,6.76 -0.57,6.67 -0.62,6.58 -0.63,6.47 -0.65,6.37 -0.65,6.37 -0.65,6.37 -0.88,4.28 -1.10,2.19 -0.88,1.09 -0.65,0 -0.64,-0.07 -0.63,-0.15 -0.60,-0.23 -0.58,-0.30 -0.53,-0.37 -0.49,-0.43 -0.43,-0.48 -0.37,-0.54 -0.30,-0.57 -0.23,-0.61 -0.15,-0.63 -0.07,-0.65 0.00,-0.65 0.07,-0.65 0.15,-0.63 0.23,-0.61 0.30,-0.57 0.37,-0.54 0.43,-0.48 0.49,-0.43 0.53,-0.37 0.58,-0.30 0.60,-0.23 0.63,-0.15 0.64,-0.07 0.65,0.00 0.65,0.00 L 0.65,0 Z"/></g><g transform="translate(29.791671752929688 175.71158981323242) rotate(0 3.4722213745117188 3.298583984375)" stroke="none"><path fill="#1e1e1e" d="M -0.29,-0.58 Q -0.29,-0.58 0.41,-1.20 1.11,-1.82 2.04,-1.95 2.96,-2.09 3.82,-2.02 4.67,-1.95 5.43,-1.54 6.18,-1.12 6.67,-0.50 7.16,0.12 7.30,0.88 7.43,1.63 7.32,2.24 7.21,2.85 6.86,3.37 6.50,3.89 6.12,3.35 5.74,2.81 6.74,3.46 7.74,4.11 7.84,4.98 7.95,5.85 7.68,6.57 7.41,7.29 5.39,7.90 3.36,8.52 3.26,8.53 3.15,8.53 3.05,8.50 2.95,8.48 2.86,8.42 2.77,8.36 2.70,8.28 2.64,8.19 2.60,8.09 2.57,7.99 2.57,7.89 2.57,7.78 2.60,7.68 2.63,7.58 2.70,7.49 2.76,7.41 2.85,7.35 2.93,7.29 3.04,7.26 3.14,7.23 3.24,7.23 3.35,7.24 3.45,7.27 3.55,7.31 3.63,7.38 3.71,7.45 3.77,7.54 3.82,7.63 3.85,7.73 3.87,7.84 3.86,7.94 3.85,8.05 3.81,8.14 3.76,8.24 3.69,8.32 3.62,8.40 3.53,8.45 3.43,8.50 3.33,8.52 3.22,8.54 3.12,8.52 3.01,8.50 2.92,8.45 2.82,8.41 2.75,8.33 2.68,8.25 2.63,8.16 2.58,8.06 2.57,7.96 2.56,7.85 2.58,7.75 2.60,7.64 2.66,7.55 2.71,7.46 2.79,7.39 2.87,7.32 2.97,7.28 3.07,7.24 3.07,7.24 3.07,7.24 4.02,6.62 4.98,6.01 5.29,5.53 5.59,5.05 5.11,4.80 4.62,4.54 4.37,3.80 4.11,3.05 4.61,2.20 5.10,1.35 4.71,0.85 4.32,0.36 3.75,0.28 3.17,0.21 2.62,0.21 2.07,0.22 1.18,0.40 0.29,0.58 0.21,0.61 0.14,0.64 0.06,0.64 -0.01,0.65 -0.09,0.64 -0.16,0.63 -0.24,0.60 -0.31,0.57 -0.38,0.52 -0.44,0.48 -0.49,0.42 -0.54,0.36 -0.58,0.29 -0.61,0.22 -0.63,0.14 -0.65,0.06 -0.65,-0.01 -0.65,-0.09 -0.62,-0.16 -0.60,-0.24 -0.57,-0.31 -0.53,-0.38 -0.47,-0.44 -0.42,-0.50 -0.35,-0.54 -0.29,-0.58 -0.29,-0.58 L -0.29,-0.58 Z"/></g><g stroke-linecap="round" transform="translate(100.97222900390625 139.25324630737305) rotate(0 26.736099243164062 26.041671752929688)"><path d="M13.02 0 C23.76 0, 34.49 0, 40.45 0 C49.13 0, 53.47 4.34, 53.47 13.02 C53.47 20.7, 53.47 28.37, 53.47 39.06 C53.47 47.74, 49.13 52.08, 40.45 52.08 C31.69 52.08, 22.94 52.08, 13.02 52.08 C4.34 52.08, 0 47.74, 0 39.06 C0 30.81, 0 22.55, 0 13.02 C0 4.34, 4.34 0, 13.02 0" stroke="none" stroke-width="0" fill="#ffffff"/><path d="M13.02 0 C18.7 0, 24.38 0, 40.45 0 M13.02 0 C20.58 0, 28.14 0, 40.45 0 M40.45 0 C49.13 0, 53.47 4.34, 53.47 13.02 M40.45 0 C49.13 0, 53.47 4.34, 53.47 13.02 M53.47 13.02 C53.47 21.43, 53.47 29.85, 53.47 39.06 M53.47 13.02 C53.47 19.25, 53.47 25.48, 53.47 39.06 M53.47 39.06 C53.47 47.74, 49.13 52.08, 40.45 52.08 M53.47 39.06 C53.47 47.74, 49.13 52.08, 40.45 52.08 M40.45 52.08 C32.99 52.08, 25.54 52.08, 13.02 52.08 M40.45 52.08 C31.91 52.08, 23.37 52.08, 13.02 52.08 M13.02 52.08 C4.34 52.08, 0 47.74, 0 39.06 M13.02 52.08 C4.34 52.08, 0 47.74, 0 39.06 M0 39.06 C0 32.17, 0 25.27, 0 13.02 M0 39.06 C0 31.95, 0 24.84, 0 13.02 M0 13.02 C0 4.34, 4.34 0, 13.02 0 M0 13.02 C0 4.34, 4.34 0, 13.02 0" stroke="#1e1e1e" stroke-width="2" fill="none"/></g><g transform="translate(117.98611450195312 161.12824630737305) rotate(0 -0.6944580078125 7.1180572509765625)" stroke="none"><path fill="#1e1e1e" d="M 0.65,0 Q 0.65,0 0.88,0.89 1.11,1.79 0.95,3.17 0.79,4.54 0.63,5.78 0.47,7.02 0.30,8.25 0.12,9.47 -0.45,11.66 -1.03,13.85 -1.06,13.95 -1.09,14.05 -1.15,14.14 -1.21,14.23 -1.29,14.29 -1.37,14.36 -1.47,14.39 -1.57,14.43 -1.68,14.43 -1.79,14.43 -1.89,14.39 -1.99,14.36 -2.07,14.30 -2.16,14.23 -2.22,14.15 -2.28,14.06 -2.31,13.96 -2.34,13.85 -2.33,13.75 -2.33,13.64 -2.29,13.54 -2.25,13.44 -2.18,13.36 -2.11,13.28 -2.02,13.23 -1.93,13.17 -1.83,13.15 -1.72,13.12 -1.62,13.14 -1.51,13.15 -1.41,13.19 -1.32,13.23 -1.24,13.31 -1.16,13.38 -1.11,13.47 -1.06,13.57 -1.05,13.67 -1.03,13.78 -1.04,13.88 -1.06,13.99 -1.11,14.08 -1.16,14.17 -1.24,14.25 -1.31,14.32 -1.41,14.37 -1.51,14.41 -1.61,14.42 -1.72,14.44 -1.82,14.41 -1.92,14.39 -2.02,14.34 -2.11,14.28 -2.18,14.20 -2.25,14.12 -2.29,14.02 -2.32,13.92 -2.33,13.82 -2.34,13.71 -2.34,13.71 -2.34,13.71 -2.35,11.41 -2.37,9.11 -2.19,7.88 -2.01,6.65 -1.80,5.41 -1.59,4.17 -1.35,2.98 -1.11,1.79 -0.88,0.89 -0.65,0 -0.64,-0.07 -0.63,-0.15 -0.60,-0.23 -0.58,-0.30 -0.53,-0.37 -0.49,-0.43 -0.43,-0.48 -0.37,-0.54 -0.30,-0.57 -0.23,-0.61 -0.15,-0.63 -0.07,-0.65 0.00,-0.65 0.07,-0.65 0.15,-0.63 0.23,-0.61 0.30,-0.57 0.37,-0.54 0.43,-0.48 0.49,-0.43 0.53,-0.37 0.58,-0.30 0.60,-0.23 0.63,-0.15 0.64,-0.07 0.65,0.00 0.65,0.00 L 0.65,0 Z"/></g><g transform="translate(118.6805419921875 168.07267379760742) rotate(0 4.513885498046875 0.0000152587890625)" stroke="none"><path fill="#1e1e1e" d="M 0,-0.65 Q 0,-0.65 0.99,-0.89 1.99,-1.12 2.96,-1.24 3.92,-1.36 6.33,-1.18 8.74,-0.99 8.84,-0.98 8.95,-0.96 9.04,-0.92 9.14,-0.87 9.21,-0.79 9.28,-0.72 9.33,-0.62 9.38,-0.52 9.39,-0.42 9.40,-0.31 9.38,-0.21 9.36,-0.10 9.31,-0.01 9.26,0.07 9.18,0.14 9.10,0.21 9.00,0.25 8.90,0.29 8.79,0.30 8.69,0.31 8.58,0.28 8.48,0.25 8.39,0.20 8.30,0.14 8.24,0.05 8.17,-0.02 8.14,-0.12 8.10,-0.22 8.10,-0.33 8.10,-0.43 8.13,-0.53 8.16,-0.63 8.22,-0.72 8.29,-0.81 8.37,-0.87 8.46,-0.93 8.56,-0.96 8.67,-0.99 8.77,-0.98 8.88,-0.98 8.98,-0.94 9.08,-0.91 9.16,-0.84 9.24,-0.77 9.30,-0.68 9.35,-0.59 9.38,-0.49 9.40,-0.38 9.39,-0.28 9.38,-0.17 9.34,-0.08 9.30,0.01 9.23,0.09 9.15,0.17 9.06,0.22 8.97,0.27 8.86,0.29 8.76,0.31 8.76,0.31 8.76,0.31 6.46,0.63 4.15,0.96 3.07,1.04 1.99,1.12 0.99,0.89 0,0.65 -0.07,0.64 -0.15,0.63 -0.23,0.60 -0.30,0.58 -0.37,0.53 -0.43,0.49 -0.48,0.43 -0.54,0.37 -0.57,0.30 -0.61,0.23 -0.63,0.15 -0.65,0.07 -0.65,-0.00 -0.65,-0.07 -0.63,-0.15 -0.61,-0.23 -0.57,-0.30 -0.54,-0.37 -0.48,-0.43 -0.43,-0.49 -0.37,-0.53 -0.30,-0.58 -0.23,-0.60 -0.15,-0.63 -0.07,-0.64 0.00,-0.65 0.00,-0.65 L 0,-0.65 Z"/></g><g transform="translate(129.09722900390625 160.43378829956055) rotate(0 -0.0000152587890625 4.5139007568359375)" stroke="none"><path fill="#1e1e1e" d="M -0.64,-0.10 Q -0.64,-0.10 -0.69,-0.73 -0.73,-1.35 -0.73,-1.71 -0.73,-2.07 -0.69,-2.19 -0.66,-2.31 -0.59,-2.42 -0.53,-2.52 -0.44,-2.61 -0.36,-2.70 -0.25,-2.77 -0.15,-2.83 -0.03,-2.87 0.08,-2.91 0.20,-2.92 0.33,-2.93 0.45,-2.91 0.57,-2.89 0.68,-2.84 0.80,-2.79 0.90,-2.72 1.00,-2.64 1.07,-2.54 1.15,-2.45 1.20,-2.34 1.26,-2.22 1.28,-2.10 1.31,-1.98 1.30,-1.86 1.29,-1.73 1.44,-0.28 1.58,1.15 1.35,3.28 1.12,5.40 0.74,7.88 0.36,10.37 0.33,10.47 0.31,10.58 0.26,10.67 0.20,10.76 0.12,10.83 0.04,10.90 -0.05,10.94 -0.14,10.98 -0.25,10.99 -0.36,10.99 -0.46,10.96 -0.56,10.94 -0.65,10.88 -0.74,10.82 -0.80,10.73 -0.87,10.65 -0.90,10.55 -0.94,10.45 -0.94,10.34 -0.94,10.24 -0.91,10.14 -0.87,10.04 -0.81,9.95 -0.74,9.87 -0.66,9.81 -0.57,9.74 -0.47,9.72 -0.37,9.69 -0.26,9.69 -0.15,9.70 -0.05,9.74 0.03,9.77 0.12,9.84 0.20,9.91 0.25,10.00 0.31,10.09 0.33,10.20 0.36,10.30 0.34,10.40 0.33,10.51 0.29,10.61 0.25,10.70 0.17,10.78 0.10,10.86 0.01,10.91 -0.08,10.96 -0.18,10.98 -0.29,11.00 -0.39,10.98 -0.50,10.96 -0.59,10.91 -0.68,10.86 -0.76,10.79 -0.83,10.71 -0.88,10.61 -0.92,10.52 -0.93,10.41 -0.95,10.31 -0.95,10.31 -0.95,10.31 -1.09,7.74 -1.23,5.17 -1.07,3.17 -0.91,1.17 -0.89,0.10 -0.88,-0.96 -0.80,-1.51 -0.73,-2.07 -0.69,-2.19 -0.66,-2.31 -0.59,-2.42 -0.53,-2.52 -0.44,-2.61 -0.36,-2.70 -0.25,-2.77 -0.15,-2.83 -0.03,-2.87 0.08,-2.91 0.20,-2.92 0.32,-2.93 0.45,-2.91 0.57,-2.89 0.68,-2.84 0.80,-2.79 0.90,-2.72 1.00,-2.64 1.07,-2.54 1.15,-2.45 1.20,-2.34 1.26,-2.22 1.28,-2.10 1.31,-1.98 1.30,-1.86 1.29,-1.73 1.21,-1.38 1.13,-1.04 0.89,-0.46 0.64,0.10 0.62,0.18 0.60,0.25 0.56,0.32 0.52,0.39 0.46,0.45 0.41,0.51 0.34,0.55 0.27,0.59 0.20,0.61 0.12,0.64 0.04,0.64 -0.02,0.65 -0.10,0.64 -0.18,0.62 -0.25,0.59 -0.33,0.56 -0.39,0.51 -0.45,0.47 -0.50,0.41 -0.55,0.34 -0.59,0.27 -0.62,0.20 -0.63,0.12 -0.65,0.05 -0.65,-0.02 -0.64,-0.10 -0.64,-0.10 L -0.64,-0.10 Z"/></g><g transform="translate(192.98611450195312 206.96158981323242) rotate(0 1.388885498046875 -13.020843505859375)" stroke="none"><path fill="#1e1e1e" d="M -0.65,0 Q -0.65,0 -0.77,-1.19 -0.89,-2.39 -0.82,-3.64 -0.75,-4.89 -0.57,-7.31 -0.40,-9.74 -0.14,-11.79 0.11,-13.85 0.30,-15.89 0.49,-17.93 0.67,-19.41 0.86,-20.90 1.18,-22.99 1.50,-25.07 1.42,-25.13 1.33,-25.20 1.28,-25.29 1.22,-25.38 1.19,-25.48 1.17,-25.59 1.18,-25.69 1.19,-25.80 1.23,-25.89 1.27,-25.99 1.34,-26.07 1.41,-26.15 1.51,-26.20 1.60,-26.25 1.70,-26.27 1.81,-26.29 1.91,-26.28 2.02,-26.26 2.11,-26.22 2.21,-26.17 2.28,-26.09 2.36,-26.02 2.40,-25.92 2.45,-25.83 2.47,-25.72 2.48,-25.62 2.46,-25.51 2.44,-25.41 2.39,-25.32 2.33,-25.22 2.25,-25.15 2.18,-25.08 2.08,-25.04 1.98,-25.00 1.87,-24.99 1.77,-24.98 1.67,-25.01 1.56,-25.03 1.47,-25.09 1.38,-25.15 1.32,-25.23 1.25,-25.32 1.21,-25.42 1.18,-25.52 1.18,-25.62 1.17,-25.73 1.20,-25.83 1.24,-25.93 1.30,-26.02 1.36,-26.10 1.45,-26.16 1.53,-26.23 1.63,-26.26 1.74,-26.29 1.84,-26.28 1.95,-26.28 2.05,-26.24 2.15,-26.21 2.15,-26.21 2.15,-26.21 2.78,-23.39 3.41,-20.56 3.20,-19.11 2.99,-17.65 2.72,-15.57 2.45,-13.50 2.11,-11.51 1.77,-9.52 1.46,-7.12 1.14,-4.73 1.02,-3.56 0.89,-2.39 0.77,-1.19 0.65,0 0.64,0.07 0.63,0.15 0.60,0.23 0.58,0.30 0.53,0.37 0.49,0.43 0.43,0.48 0.37,0.54 0.30,0.57 0.23,0.61 0.15,0.63 0.07,0.65 -0.00,0.65 -0.07,0.65 -0.15,0.63 -0.23,0.61 -0.30,0.57 -0.37,0.54 -0.43,0.48 -0.49,0.43 -0.53,0.37 -0.58,0.30 -0.60,0.23 -0.63,0.15 -0.64,0.07 -0.65,-0.00 -0.65,-0.00 L -0.65,0 Z"/></g><g transform="translate(190.90277099609375 188.55878829956055) rotate(0 4.6875 -2.951385498046875)" stroke="none"><path fill="#1e1e1e" d="M -0.58,-0.29 Q -0.58,-0.29 -0.27,-1.38 0.04,-2.47 0.50,-3.59 0.96,-4.72 1.38,-5.54 1.79,-6.36 2.07,-6.92 2.35,-7.47 3.00,-7.94 3.66,-8.40 4.47,-8.35 5.28,-8.30 6.12,-7.62 6.96,-6.94 7.87,-5.34 8.79,-3.75 9.33,-1.31 9.88,1.11 9.89,1.22 9.90,1.32 9.88,1.42 9.86,1.53 9.80,1.62 9.75,1.71 9.67,1.78 9.58,1.85 9.49,1.89 9.39,1.93 9.28,1.93 9.17,1.94 9.07,1.91 8.97,1.88 8.88,1.82 8.79,1.76 8.73,1.67 8.67,1.59 8.63,1.49 8.60,1.39 8.60,1.28 8.60,1.18 8.63,1.07 8.67,0.97 8.73,0.89 8.80,0.81 8.89,0.75 8.97,0.69 9.08,0.66 9.18,0.63 9.28,0.64 9.39,0.64 9.49,0.68 9.59,0.72 9.67,0.79 9.75,0.86 9.80,0.95 9.86,1.04 9.88,1.15 9.90,1.25 9.89,1.36 9.88,1.46 9.83,1.56 9.79,1.65 9.72,1.73 9.64,1.81 9.55,1.86 9.45,1.91 9.35,1.92 9.25,1.94 9.14,1.92 9.04,1.91 8.94,1.86 8.85,1.81 8.78,1.73 8.70,1.65 8.66,1.55 8.61,1.46 8.61,1.46 8.61,1.46 7.68,-0.54 6.75,-2.55 5.97,-3.81 5.19,-5.08 4.83,-5.65 4.46,-6.23 4.19,-5.72 3.91,-5.22 3.49,-4.49 3.07,-3.76 2.51,-2.64 1.94,-1.52 1.26,-0.61 0.58,0.29 0.54,0.35 0.49,0.42 0.44,0.47 0.38,0.53 0.31,0.57 0.24,0.60 0.16,0.62 0.09,0.65 0.01,0.65 -0.06,0.65 -0.14,0.63 -0.22,0.61 -0.29,0.58 -0.36,0.54 -0.42,0.49 -0.48,0.44 -0.52,0.38 -0.57,0.31 -0.60,0.24 -0.63,0.16 -0.64,0.09 -0.65,0.01 -0.64,-0.06 -0.64,-0.14 -0.61,-0.21 -0.58,-0.29 -0.58,-0.29 L -0.58,-0.29 Z"/></g><g transform="translate(156.52777099609375 241.68378829956055) rotate(0 30.381942749023438 1.04168701171875)" stroke="none"><path fill="#1e1e1e" d="M -0.08,-0.65 Q -0.08,-0.65 0.69,-0.90 1.47,-1.15 2.24,-1.24 3.01,-1.32 3.84,-1.38 4.67,-1.44 5.88,-1.41 7.08,-1.38 8.39,-1.28 9.70,-1.17 11.15,-1.04 12.59,-0.91 14.49,-0.77 16.39,-0.63 18.60,-0.49 20.80,-0.34 22.51,-0.28 24.23,-0.23 26.30,-0.31 28.38,-0.40 30.50,-0.44 32.62,-0.49 34.52,-0.51 36.42,-0.53 38.37,-0.44 40.32,-0.36 42.05,-0.22 43.78,-0.08 45.37,-0.03 46.96,0.02 48.58,0.14 50.21,0.27 51.79,0.42 53.38,0.57 54.61,0.64 55.84,0.70 58.18,1.23 60.52,1.77 60.63,1.78 60.73,1.80 60.82,1.85 60.92,1.90 60.99,1.98 61.06,2.06 61.11,2.16 61.15,2.25 61.16,2.36 61.17,2.47 61.14,2.57 61.12,2.67 61.06,2.76 61.01,2.85 60.93,2.92 60.85,2.99 60.75,3.03 60.65,3.07 60.54,3.07 60.43,3.07 60.33,3.04 60.23,3.01 60.14,2.95 60.06,2.89 59.99,2.81 59.93,2.72 59.90,2.62 59.86,2.52 59.87,2.41 59.87,2.31 59.90,2.21 59.94,2.11 60.00,2.02 60.07,1.94 60.16,1.88 60.25,1.82 60.35,1.80 60.45,1.77 60.56,1.78 60.66,1.78 60.76,1.82 60.86,1.86 60.94,1.93 61.02,2.00 61.07,2.10 61.13,2.19 61.15,2.29 61.17,2.40 61.16,2.50 61.14,2.61 61.10,2.70 61.05,2.80 60.98,2.87 60.90,2.95 60.81,3.00 60.72,3.05 60.61,3.06 60.51,3.08 60.51,3.08 60.51,3.08 58.09,3.52 55.68,3.96 54.37,3.89 53.07,3.83 51.51,3.67 49.95,3.52 48.39,3.39 46.84,3.27 45.18,3.20 43.52,3.14 41.84,3.00 40.16,2.85 38.30,2.75 36.44,2.65 34.56,2.65 32.67,2.66 30.58,2.67 28.48,2.69 26.29,2.74 24.10,2.79 22.34,2.70 20.57,2.61 18.36,2.42 16.14,2.22 14.22,2.03 12.29,1.83 10.85,1.64 9.41,1.45 8.15,1.28 6.88,1.11 5.80,0.95 4.72,0.80 3.92,0.78 3.13,0.75 2.42,0.75 1.71,0.75 0.89,0.70 0.08,0.65 0.00,0.65 -0.07,0.65 -0.15,0.63 -0.23,0.61 -0.30,0.57 -0.37,0.54 -0.43,0.48 -0.48,0.43 -0.53,0.37 -0.58,0.30 -0.60,0.23 -0.63,0.15 -0.64,0.08 -0.65,0.00 -0.64,-0.07 -0.63,-0.15 -0.61,-0.22 -0.58,-0.30 -0.53,-0.36 -0.49,-0.43 -0.43,-0.48 -0.37,-0.53 -0.30,-0.57 -0.23,-0.61 -0.15,-0.63 -0.08,-0.65 -0.08,-0.65 L -0.08,-0.65 Z"/></g><g transform="translate(164.51388549804688 222.93378829956055) rotate(0 -0.34722900390625 6.59722900390625)" stroke="none"><path fill="#1e1e1e" d="M 0.63,0.15 Q 0.63,0.15 0.60,0.99 0.57,1.83 0.52,2.89 0.48,3.95 0.47,5.40 0.46,6.86 0.44,8.18 0.42,9.50 0.19,11.19 -0.03,12.87 -0.05,12.98 -0.07,13.08 -0.12,13.18 -0.17,13.27 -0.24,13.34 -0.32,13.41 -0.42,13.46 -0.52,13.50 -0.62,13.51 -0.73,13.52 -0.83,13.50 -0.93,13.48 -1.02,13.42 -1.12,13.37 -1.18,13.29 -1.25,13.20 -1.29,13.11 -1.33,13.01 -1.33,12.90 -1.34,12.79 -1.31,12.69 -1.28,12.59 -1.22,12.50 -1.16,12.42 -1.08,12.35 -0.99,12.29 -0.89,12.25 -0.79,12.22 -0.68,12.22 -0.58,12.22 -0.48,12.26 -0.38,12.29 -0.29,12.36 -0.21,12.42 -0.15,12.51 -0.09,12.60 -0.06,12.70 -0.03,12.80 -0.04,12.91 -0.05,13.01 -0.09,13.11 -0.13,13.21 -0.20,13.29 -0.27,13.37 -0.36,13.43 -0.45,13.48 -0.55,13.50 -0.66,13.53 -0.76,13.51 -0.87,13.50 -0.96,13.46 -1.06,13.41 -1.14,13.34 -1.21,13.26 -1.26,13.17 -1.31,13.08 -1.33,12.97 -1.34,12.87 -1.34,12.87 -1.34,12.87 -1.55,11.17 -1.76,9.48 -1.75,8.14 -1.74,6.81 -1.68,5.30 -1.62,3.79 -1.49,2.57 -1.37,1.35 -1.00,0.59 -0.63,-0.15 -0.60,-0.23 -0.58,-0.30 -0.53,-0.37 -0.49,-0.43 -0.43,-0.48 -0.37,-0.54 -0.30,-0.57 -0.23,-0.61 -0.15,-0.63 -0.07,-0.65 0.00,-0.65 0.08,-0.65 0.15,-0.63 0.23,-0.61 0.30,-0.57 0.37,-0.53 0.43,-0.48 0.49,-0.43 0.53,-0.36 0.58,-0.30 0.61,-0.22 0.63,-0.15 0.64,-0.07 0.65,0.00 0.64,0.08 0.63,0.15 0.63,0.15 L 0.63,0.15 Z"/></g><g transform="translate(169.02777099609375 228.48936080932617) rotate(0 0.1735992431640625 1.0416717529296875)" stroke="none"><path fill="#1e1e1e" d="M 0,0.65 Q 0,0.65 -0.31,0.87 -0.63,1.09 -0.62,1.82 -0.60,2.56 -0.21,2.96 0.17,3.35 0.53,2.48 0.90,1.60 0.97,1.05 1.05,0.50 -0.03,-0.74 -1.12,-1.99 -1.13,-2.07 -1.14,-2.15 -1.12,-2.23 -1.11,-2.31 -1.08,-2.38 -1.05,-2.45 -1.01,-2.52 -0.96,-2.58 -0.90,-2.63 -0.84,-2.68 -0.77,-2.72 -0.70,-2.75 -0.62,-2.77 -0.54,-2.79 -0.46,-2.78 -0.38,-2.78 -0.31,-2.76 -0.23,-2.74 -0.16,-2.70 -0.09,-2.66 -0.03,-2.61 0.01,-2.55 0.06,-2.49 0.10,-2.42 0.13,-2.35 0.15,-2.27 -0.18,-1.87 -0.53,-1.48 -0.63,-1.50 -0.73,-1.53 -0.82,-1.58 -0.91,-1.64 -0.98,-1.72 -1.05,-1.80 -1.09,-1.90 -1.12,-2.00 -1.13,-2.11 -1.13,-2.21 -1.10,-2.32 -1.07,-2.42 -1.01,-2.51 -0.95,-2.59 -0.86,-2.66 -0.78,-2.72 -0.68,-2.75 -0.58,-2.78 -0.47,-2.78 -0.36,-2.78 -0.26,-2.74 -0.16,-2.71 -0.08,-2.64 -0.00,-2.58 0.05,-2.49 0.11,-2.40 0.14,-2.30 0.16,-2.19 0.16,-2.09 0.15,-1.98 0.11,-1.88 0.07,-1.78 0.00,-1.70 -0.06,-1.62 -0.16,-1.57 -0.25,-1.52 -0.35,-1.50 -0.46,-1.48 -0.56,-1.49 -0.67,-1.50 -0.76,-1.55 -0.86,-1.60 -0.93,-1.67 -1.01,-1.74 -1.06,-1.84 -1.11,-1.93 -1.12,-2.04 -1.14,-2.14 -1.12,-2.25 -1.10,-2.35 -1.05,-2.45 -1.00,-2.54 -0.92,-2.61 -0.84,-2.68 -0.74,-2.73 -0.64,-2.77 -0.88,-2.38 -1.12,-1.99 -1.13,-2.07 -1.14,-2.15 -1.12,-2.23 -1.11,-2.31 -1.08,-2.38 -1.05,-2.45 -1.01,-2.52 -0.96,-2.58 -0.90,-2.63 -0.84,-2.68 -0.77,-2.72 -0.70,-2.75 -0.62,-2.77 -0.54,-2.79 -0.46,-2.78 -0.38,-2.78 -0.31,-2.76 -0.23,-2.74 -0.16,-2.70 -0.09,-2.66 -0.03,-2.61 0.01,-2.55 0.06,-2.49 0.10,-2.42 0.13,-2.35 0.15,-2.27 1.65,-1.62 3.15,-0.97 3.31,-0.06 3.46,0.83 3.30,1.66 3.15,2.49 2.76,3.35 2.37,4.21 1.68,4.79 0.99,5.37 0.11,5.39 -0.76,5.41 -1.46,4.89 -2.16,4.38 -2.56,3.61 -2.96,2.83 -2.97,2.08 -2.99,1.33 -2.67,0.56 -2.34,-0.21 -1.65,-0.65 -0.96,-1.09 -0.48,-0.87 0,-0.65 0.07,-0.64 0.15,-0.63 0.23,-0.60 0.30,-0.58 0.37,-0.53 0.43,-0.49 0.48,-0.43 0.54,-0.37 0.57,-0.30 0.61,-0.23 0.63,-0.15 0.65,-0.07 0.65,0.00 0.65,0.07 0.63,0.15 0.61,0.23 0.57,0.30 0.54,0.37 0.48,0.43 0.43,0.49 0.37,0.53 0.30,0.58 0.23,0.60 0.15,0.63 0.07,0.64 -0.00,0.65 -0.00,0.65 L 0,0.65 Z"/></g><g transform="translate(174.58331298828125 224.32267379760742) rotate(0 1.3889007568359375 5.208343505859375)" stroke="none"><path fill="#1e1e1e" d="M 0.61,-0.23 Q 0.61,-0.23 1.19,0.46 1.78,1.15 2.08,1.72 2.38,2.29 2.82,3.03 3.25,3.77 3.58,4.46 3.91,5.15 4.00,5.98 4.09,6.80 3.86,7.52 3.63,8.24 2.16,9.44 0.68,10.64 0.60,10.70 0.51,10.77 0.41,10.80 0.31,10.84 0.21,10.84 0.10,10.84 0.00,10.80 -0.09,10.77 -0.18,10.71 -0.26,10.64 -0.32,10.55 -0.38,10.47 -0.41,10.36 -0.44,10.26 -0.43,10.15 -0.43,10.05 -0.39,9.95 -0.35,9.85 -0.28,9.77 -0.21,9.69 -0.12,9.63 -0.03,9.58 0.07,9.56 0.17,9.53 0.28,9.54 0.38,9.56 0.48,9.60 0.57,9.65 0.65,9.72 0.73,9.79 0.78,9.89 0.83,9.98 0.85,10.08 0.86,10.19 0.85,10.29 0.83,10.40 0.78,10.49 0.73,10.59 0.65,10.66 0.57,10.73 0.48,10.78 0.38,10.82 0.28,10.83 0.17,10.84 0.07,10.82 -0.03,10.80 -0.12,10.74 -0.21,10.69 -0.28,10.61 -0.35,10.53 -0.39,10.43 -0.43,10.33 -0.43,10.22 -0.44,10.12 -0.41,10.02 -0.38,9.91 -0.32,9.83 -0.26,9.74 -0.26,9.74 -0.26,9.74 0.61,7.96 1.49,6.18 1.24,5.61 1.00,5.05 0.55,4.25 0.11,3.45 -0.23,2.74 -0.58,2.04 -0.60,1.13 -0.61,0.23 -0.63,0.15 -0.65,0.07 -0.65,-0.00 -0.65,-0.08 -0.63,-0.15 -0.61,-0.23 -0.57,-0.30 -0.53,-0.37 -0.48,-0.43 -0.43,-0.49 -0.36,-0.53 -0.30,-0.58 -0.22,-0.61 -0.15,-0.63 -0.07,-0.64 0.00,-0.65 0.08,-0.64 0.15,-0.63 0.23,-0.60 0.30,-0.58 0.37,-0.53 0.43,-0.48 0.48,-0.43 0.54,-0.37 0.57,-0.30 0.61,-0.23 0.61,-0.23 L 0.61,-0.23 Z"/></g><g transform="translate(177.70831298828125 234.39213180541992) rotate(0 0 2.6041717529296875)" stroke="none"><path fill="#1e1e1e" d="M 0.65,0 Q 0.65,0 0.85,0.79 1.04,1.59 0.85,3.30 0.65,5.00 0.63,5.11 0.62,5.21 0.57,5.31 0.52,5.40 0.44,5.47 0.36,5.55 0.27,5.59 0.17,5.64 0.07,5.65 -0.03,5.66 -0.13,5.64 -0.24,5.61 -0.33,5.56 -0.42,5.50 -0.49,5.42 -0.56,5.34 -0.60,5.24 -0.64,5.14 -0.64,5.04 -0.65,4.93 -0.62,4.83 -0.59,4.73 -0.53,4.64 -0.47,4.55 -0.39,4.49 -0.30,4.42 -0.20,4.39 -0.10,4.36 0.00,4.36 0.10,4.36 0.20,4.39 0.30,4.42 0.39,4.49 0.47,4.55 0.53,4.64 0.59,4.73 0.62,4.83 0.65,4.93 0.64,5.04 0.64,5.14 0.60,5.24 0.56,5.34 0.49,5.42 0.42,5.50 0.33,5.56 0.24,5.61 0.13,5.64 0.03,5.66 -0.07,5.65 -0.17,5.64 -0.27,5.59 -0.36,5.55 -0.44,5.47 -0.52,5.40 -0.57,5.31 -0.62,5.21 -0.63,5.11 -0.65,5.00 -0.65,5.00 -0.65,5.00 -0.85,3.30 -1.04,1.59 -0.85,0.79 -0.65,0 -0.64,-0.07 -0.63,-0.15 -0.60,-0.23 -0.58,-0.30 -0.53,-0.37 -0.49,-0.43 -0.43,-0.48 -0.37,-0.54 -0.30,-0.57 -0.23,-0.61 -0.15,-0.63 -0.07,-0.65 0.00,-0.65 0.07,-0.65 0.15,-0.63 0.23,-0.61 0.30,-0.57 0.37,-0.54 0.43,-0.48 0.49,-0.43 0.53,-0.37 0.58,-0.30 0.60,-0.23 0.63,-0.15 0.64,-0.07 0.65,0.00 0.65,0.00 L 0.65,0 Z"/></g><g transform="translate(176.31942749023438 234.04490280151367) rotate(0 2.4305572509765625 2.430572509765625)" stroke="none"><path fill="#1e1e1e" d="M -0.20,-0.62 Q -0.20,-0.62 0.34,-0.99 0.89,-1.36 1.61,-1.39 2.33,-1.42 2.88,-1.42 3.42,-1.43 4.07,-1.18 4.72,-0.94 5.24,0.06 5.77,1.06 5.54,1.59 5.31,2.12 4.53,2.58 3.74,3.04 3.52,2.09 3.31,1.13 3.87,1.40 4.44,1.67 4.84,2.05 5.24,2.43 5.39,3.01 5.53,3.59 3.58,4.81 1.63,6.03 1.52,6.05 1.42,6.07 1.31,6.06 1.21,6.04 1.11,6.00 1.02,5.95 0.94,5.88 0.87,5.80 0.82,5.70 0.77,5.61 0.76,5.50 0.74,5.40 0.76,5.29 0.78,5.19 0.84,5.10 0.89,5.01 0.97,4.93 1.05,4.86 1.14,4.82 1.24,4.78 1.35,4.77 1.45,4.76 1.56,4.79 1.66,4.81 1.75,4.87 1.84,4.93 1.91,5.01 1.97,5.09 2.01,5.19 2.05,5.29 2.05,5.40 2.05,5.51 2.02,5.61 1.99,5.71 1.93,5.80 1.86,5.88 1.78,5.94 1.69,6.01 1.59,6.04 1.49,6.07 1.38,6.06 1.28,6.06 1.18,6.03 1.08,5.99 0.99,5.92 0.91,5.86 0.85,5.77 0.80,5.68 0.77,5.57 0.75,5.47 0.75,5.36 0.76,5.26 0.81,5.16 0.85,5.06 0.92,4.98 0.99,4.91 1.08,4.85 1.17,4.80 1.17,4.80 1.17,4.80 2.20,4.11 3.22,3.41 2.77,3.11 2.31,2.81 2.11,2.10 1.92,1.40 2.62,1.06 3.32,0.71 2.41,0.64 1.49,0.56 0.85,0.59 0.20,0.62 0.13,0.63 0.05,0.65 -0.02,0.65 -0.10,0.64 -0.18,0.62 -0.25,0.60 -0.32,0.56 -0.39,0.52 -0.45,0.46 -0.50,0.41 -0.55,0.34 -0.59,0.28 -0.61,0.20 -0.64,0.13 -0.64,0.05 -0.65,-0.02 -0.64,-0.10 -0.63,-0.18 -0.59,-0.25 -0.56,-0.32 -0.52,-0.39 -0.47,-0.45 -0.41,-0.50 -0.35,-0.55 -0.27,-0.58 -0.20,-0.62 -0.20,-0.62 L -0.20,-0.62 Z"/></g><g transform="translate(185 231.61436080932617) rotate(0 2.77777099609375 -0.173614501953125)" stroke="none"><path fill="#1e1e1e" d="M -0.06,-0.65 Q -0.06,-0.65 0.91,-0.97 1.88,-1.29 3.52,-1.14 5.15,-0.99 5.25,-0.97 5.36,-0.96 5.46,-0.91 5.55,-0.87 5.63,-0.79 5.70,-0.72 5.75,-0.62 5.80,-0.53 5.81,-0.42 5.83,-0.31 5.81,-0.21 5.79,-0.11 5.73,-0.01 5.68,0.07 5.60,0.14 5.52,0.21 5.43,0.25 5.33,0.30 5.22,0.30 5.12,0.31 5.01,0.29 4.91,0.26 4.82,0.21 4.73,0.15 4.67,0.07 4.60,-0.01 4.56,-0.11 4.52,-0.21 4.52,-0.31 4.52,-0.42 4.55,-0.52 4.58,-0.62 4.64,-0.71 4.70,-0.79 4.79,-0.86 4.88,-0.92 4.98,-0.95 5.08,-0.98 5.19,-0.98 5.29,-0.98 5.39,-0.94 5.49,-0.90 5.57,-0.84 5.66,-0.77 5.71,-0.68 5.77,-0.59 5.80,-0.49 5.82,-0.39 5.82,-0.28 5.81,-0.17 5.77,-0.08 5.72,0.01 5.65,0.09 5.58,0.17 5.49,0.22 5.40,0.27 5.29,0.30 5.19,0.32 5.19,0.32 5.19,0.32 3.64,0.60 2.10,0.89 1.08,0.77 0.06,0.65 -0.01,0.65 -0.09,0.65 -0.16,0.62 -0.24,0.60 -0.31,0.57 -0.38,0.53 -0.44,0.47 -0.50,0.42 -0.54,0.35 -0.58,0.29 -0.61,0.21 -0.64,0.14 -0.64,0.06 -0.65,-0.01 -0.64,-0.09 -0.63,-0.17 -0.60,-0.24 -0.57,-0.31 -0.52,-0.38 -0.48,-0.44 -0.42,-0.49 -0.36,-0.54 -0.29,-0.58 -0.21,-0.61 -0.14,-0.63 -0.06,-0.65 -0.06,-0.65 L -0.06,-0.65 Z"/></g><g transform="translate(196.11111450195312 225.36436080932617) rotate(0 0.1735992431640625 4.861114501953125)" stroke="none"><path fill="#1e1e1e" d="M 0.65,-0.05 Q 0.65,-0.05 0.95,1.12 1.25,2.30 1.32,3.64 1.39,4.97 1.19,7.12 0.99,9.28 0.98,9.38 0.96,9.49 0.91,9.58 0.86,9.68 0.79,9.75 0.71,9.82 0.62,9.87 0.52,9.91 0.41,9.93 0.31,9.94 0.21,9.92 0.10,9.90 0.01,9.84 -0.07,9.79 -0.14,9.71 -0.21,9.63 -0.25,9.53 -0.29,9.43 -0.30,9.33 -0.31,9.22 -0.28,9.12 -0.25,9.01 -0.19,8.93 -0.13,8.84 -0.05,8.77 0.02,8.71 0.12,8.67 0.22,8.64 0.33,8.64 0.44,8.63 0.54,8.67 0.64,8.70 0.72,8.76 0.81,8.83 0.87,8.91 0.93,9.00 0.96,9.10 0.99,9.21 0.98,9.31 0.98,9.42 0.94,9.52 0.90,9.62 0.84,9.70 0.77,9.78 0.68,9.84 0.59,9.89 0.48,9.91 0.38,9.94 0.27,9.93 0.17,9.92 0.07,9.87 -0.02,9.83 -0.09,9.76 -0.17,9.69 -0.22,9.59 -0.27,9.50 -0.29,9.40 -0.31,9.29 -0.31,9.29 -0.31,9.29 -0.56,7.17 -0.82,5.04 -0.83,3.76 -0.85,2.48 -0.75,1.26 -0.65,0.05 -0.65,-0.02 -0.64,-0.10 -0.62,-0.17 -0.60,-0.25 -0.56,-0.32 -0.52,-0.39 -0.47,-0.45 -0.41,-0.50 -0.34,-0.55 -0.28,-0.59 -0.20,-0.61 -0.13,-0.64 -0.05,-0.64 0.02,-0.65 0.10,-0.64 0.18,-0.63 0.25,-0.60 0.32,-0.56 0.39,-0.52 0.45,-0.47 0.50,-0.41 0.55,-0.35 0.58,-0.28 0.62,-0.20 0.63,-0.13 0.65,-0.05 0.65,-0.05 L 0.65,-0.05 Z"/></g><g transform="translate(200.27777099609375 230.91990280151367) rotate(0 2.77777099609375 -2.77777099609375)" stroke="none"><path fill="#1e1e1e" d="M -0.46,-0.46 Q -0.46,-0.46 0.40,-1.59 1.27,-2.71 1.85,-3.43 2.42,-4.14 2.85,-4.74 3.28,-5.34 3.77,-6.11 4.26,-6.88 4.35,-7.12 4.43,-7.36 4.54,-7.46 4.64,-7.57 4.77,-7.65 4.89,-7.72 5.03,-7.77 5.18,-7.82 5.32,-7.83 5.47,-7.84 5.62,-7.81 5.76,-7.79 5.90,-7.73 6.04,-7.67 6.15,-7.58 6.27,-7.49 6.36,-7.37 6.46,-7.25 6.52,-7.12 6.58,-6.98 6.61,-6.84 6.64,-6.69 6.63,-6.54 6.62,-6.40 6.58,-6.25 6.54,-6.11 6.46,-5.98 6.38,-5.86 6.28,-4.72 6.18,-3.58 5.84,-1.25 5.50,1.08 5.49,1.18 5.47,1.29 5.43,1.38 5.38,1.48 5.31,1.56 5.24,1.63 5.14,1.68 5.05,1.73 4.94,1.75 4.84,1.76 4.73,1.74 4.63,1.73 4.53,1.68 4.44,1.62 4.37,1.55 4.30,1.47 4.25,1.37 4.21,1.28 4.20,1.17 4.19,1.06 4.21,0.96 4.24,0.86 4.29,0.77 4.35,0.68 4.43,0.61 4.51,0.54 4.61,0.50 4.71,0.46 4.82,0.46 4.92,0.45 5.02,0.48 5.13,0.51 5.21,0.57 5.30,0.63 5.36,0.72 5.43,0.81 5.46,0.91 5.49,1.01 5.49,1.11 5.49,1.22 5.46,1.32 5.42,1.42 5.36,1.50 5.29,1.59 5.20,1.65 5.11,1.71 5.01,1.73 4.91,1.76 4.80,1.75 4.70,1.75 4.60,1.71 4.50,1.67 4.42,1.60 4.34,1.53 4.29,1.43 4.23,1.34 4.21,1.24 4.19,1.13 4.19,1.13 4.19,1.13 3.96,-1.30 3.73,-3.74 3.83,-4.99 3.93,-6.24 4.18,-6.80 4.43,-7.36 4.54,-7.46 4.64,-7.57 4.77,-7.65 4.89,-7.72 5.03,-7.77 5.18,-7.82 5.32,-7.83 5.47,-7.84 5.62,-7.81 5.76,-7.79 5.90,-7.73 6.04,-7.67 6.15,-7.58 6.27,-7.49 6.36,-7.37 6.46,-7.25 6.52,-7.12 6.58,-6.98 6.61,-6.84 6.64,-6.69 6.63,-6.54 6.62,-6.40 6.58,-6.25 6.54,-6.11 6.46,-5.98 6.38,-5.86 6.06,-5.40 5.74,-4.93 5.40,-4.45 5.06,-3.97 4.56,-3.35 4.06,-2.73 3.38,-2.00 2.71,-1.27 1.59,-0.40 0.46,0.46 0.40,0.51 0.33,0.56 0.26,0.59 0.19,0.62 0.11,0.64 0.03,0.65 -0.03,0.65 -0.11,0.64 -0.19,0.62 -0.26,0.59 -0.33,0.55 -0.40,0.51 -0.46,0.46 -0.51,0.40 -0.55,0.33 -0.59,0.26 -0.62,0.19 -0.64,0.11 -0.65,0.03 -0.65,-0.03 -0.64,-0.11 -0.62,-0.19 -0.59,-0.26 -0.56,-0.33 -0.51,-0.40 -0.46,-0.46 -0.46,-0.46 L -0.46,-0.46 Z"/></g><g transform="translate(208.61111450195312 222.93378829956055) rotate(0 2.2569427490234375 5.3819427490234375)" stroke="none"><path fill="#1e1e1e" d="M 0.46,-0.46 Q 0.46,-0.46 1.41,0.17 2.37,0.82 3.03,1.43 3.70,2.05 4.30,2.91 4.90,3.77 5.21,4.78 5.51,5.79 5.43,6.78 5.35,7.77 4.11,9.30 2.88,10.82 2.80,10.89 2.72,10.96 2.62,11.00 2.52,11.04 2.41,11.05 2.31,11.06 2.21,11.03 2.10,11.01 2.01,10.95 1.92,10.89 1.86,10.81 1.79,10.72 1.76,10.62 1.72,10.52 1.72,10.42 1.72,10.31 1.75,10.21 1.78,10.11 1.85,10.02 1.91,9.94 2.00,9.88 2.08,9.81 2.19,9.78 2.29,9.75 2.39,9.76 2.50,9.76 2.60,9.80 2.70,9.84 2.78,9.91 2.86,9.97 2.92,10.06 2.97,10.15 3.00,10.26 3.02,10.36 3.01,10.47 3.00,10.57 2.96,10.67 2.92,10.77 2.85,10.84 2.77,10.92 2.68,10.97 2.59,11.02 2.48,11.04 2.38,11.06 2.27,11.05 2.17,11.03 2.07,10.98 1.98,10.93 1.91,10.86 1.83,10.78 1.79,10.69 1.74,10.59 1.73,10.49 1.71,10.38 1.73,10.28 1.76,10.17 1.81,10.08 1.86,9.99 1.86,9.99 1.86,9.99 2.39,8.16 2.91,6.34 2.82,5.70 2.73,5.05 2.38,4.37 2.04,3.69 1.43,3.03 0.82,2.37 0.17,1.41 -0.46,0.46 -0.51,0.40 -0.56,0.33 -0.59,0.26 -0.62,0.19 -0.64,0.11 -0.65,0.03 -0.65,-0.03 -0.64,-0.11 -0.62,-0.19 -0.59,-0.26 -0.55,-0.33 -0.51,-0.40 -0.46,-0.46 -0.40,-0.51 -0.33,-0.55 -0.26,-0.59 -0.19,-0.62 -0.11,-0.64 -0.03,-0.65 0.03,-0.65 0.11,-0.64 0.19,-0.62 0.26,-0.59 0.33,-0.56 0.40,-0.51 0.46,-0.46 0.46,-0.46 L 0.46,-0.46 Z"/></g><g transform="translate(215.20831298828125 231.96158981323242) rotate(0 -0.1735992431640625 3.2985992431640625)" stroke="none"><path fill="#1e1e1e" d="M 0.65,0 Q 0.65,0 0.84,0.69 1.04,1.39 0.97,2.26 0.91,3.12 0.61,4.68 0.32,6.23 0.30,6.33 0.27,6.43 0.22,6.53 0.17,6.62 0.09,6.69 0.01,6.76 -0.08,6.80 -0.17,6.84 -0.28,6.85 -0.39,6.86 -0.49,6.84 -0.59,6.81 -0.68,6.75 -0.77,6.69 -0.84,6.61 -0.90,6.53 -0.94,6.43 -0.98,6.33 -0.98,6.22 -0.98,6.12 -0.95,6.02 -0.92,5.91 -0.86,5.83 -0.79,5.74 -0.71,5.68 -0.62,5.62 -0.52,5.59 -0.42,5.56 -0.31,5.56 -0.21,5.56 -0.11,5.60 -0.01,5.64 0.07,5.70 0.15,5.77 0.21,5.86 0.26,5.95 0.29,6.05 0.31,6.16 0.30,6.26 0.30,6.37 0.25,6.46 0.21,6.56 0.14,6.64 0.07,6.72 -0.01,6.77 -0.11,6.82 -0.21,6.84 -0.31,6.86 -0.42,6.85 -0.53,6.83 -0.62,6.79 -0.72,6.74 -0.79,6.66 -0.87,6.59 -0.91,6.49 -0.96,6.40 -0.97,6.29 -0.99,6.19 -0.99,6.19 -0.99,6.19 -1.15,4.52 -1.31,2.85 -1.17,2.12 -1.04,1.39 -0.84,0.69 -0.65,0 -0.64,-0.07 -0.63,-0.15 -0.60,-0.23 -0.58,-0.30 -0.53,-0.37 -0.49,-0.43 -0.43,-0.48 -0.37,-0.54 -0.30,-0.57 -0.23,-0.61 -0.15,-0.63 -0.07,-0.65 0.00,-0.65 0.07,-0.65 0.15,-0.63 0.23,-0.61 0.30,-0.57 0.37,-0.54 0.43,-0.48 0.49,-0.43 0.53,-0.37 0.58,-0.30 0.60,-0.23 0.63,-0.15 0.64,-0.07 0.65,0.00 0.65,0.00 L 0.65,0 Z"/></g><g transform="translate(214.51388549804688 233.00324630737305) rotate(0 2.951385498046875 1.7360992431640625)" stroke="none"><path fill="#1e1e1e" d="M -0.60,-0.24 Q -0.60,-0.24 -0.57,-0.82 -0.53,-1.39 -0.13,-1.89 0.26,-2.39 1.00,-2.66 1.73,-2.94 2.34,-3.02 2.94,-3.10 3.51,-3.03 4.09,-2.95 4.62,-2.75 5.15,-2.55 5.54,-2.11 5.94,-1.67 5.99,-0.69 6.04,0.28 5.68,0.74 5.31,1.20 4.82,1.54 4.32,1.89 4.25,1.04 4.18,0.19 4.72,0.55 5.26,0.91 5.94,1.51 6.62,2.11 6.80,2.67 6.98,3.23 6.80,3.97 6.63,4.71 4.38,5.43 2.14,6.16 2.03,6.16 1.92,6.15 1.82,6.12 1.72,6.08 1.64,6.01 1.56,5.95 1.50,5.86 1.44,5.77 1.42,5.66 1.39,5.56 1.40,5.45 1.41,5.35 1.45,5.25 1.49,5.15 1.57,5.07 1.64,5.00 1.73,4.94 1.82,4.89 1.93,4.87 2.03,4.85 2.13,4.87 2.24,4.88 2.34,4.93 2.43,4.97 2.51,5.05 2.58,5.12 2.63,5.22 2.68,5.31 2.69,5.42 2.70,5.53 2.68,5.63 2.66,5.73 2.61,5.83 2.56,5.92 2.48,5.99 2.40,6.06 2.30,6.10 2.21,6.14 2.10,6.15 1.99,6.16 1.89,6.14 1.79,6.11 1.70,6.05 1.61,6.00 1.54,5.91 1.48,5.83 1.44,5.73 1.40,5.63 1.40,5.52 1.40,5.42 1.43,5.32 1.46,5.22 1.52,5.13 1.58,5.04 1.67,4.98 1.76,4.92 1.86,4.89 1.96,4.86 1.96,4.86 1.96,4.86 3.30,4.09 4.64,3.33 3.81,2.75 2.98,2.18 3.07,0.64 3.15,-0.89 2.24,-0.74 1.33,-0.59 0.97,-0.17 0.60,0.24 0.57,0.31 0.53,0.38 0.48,0.44 0.42,0.49 0.36,0.54 0.29,0.58 0.22,0.61 0.14,0.64 0.06,0.64 -0.01,0.65 -0.09,0.64 -0.16,0.63 -0.24,0.60 -0.31,0.57 -0.37,0.52 -0.44,0.48 -0.49,0.42 -0.54,0.36 -0.58,0.29 -0.61,0.22 -0.63,0.14 -0.65,0.06 -0.65,-0.01 -0.65,-0.09 -0.63,-0.16 -0.60,-0.24 -0.60,-0.24 L -0.60,-0.24 Z"/></g><g transform="translate(175.625 250.71158981323242) rotate(0 11.805557250976562 1.2152557373046875)" stroke="none"><path fill="#1e1e1e" d="M 0.60,-0.25 Q 0.60,-0.25 1.25,0.88 1.89,2.02 2.41,2.98 2.92,3.95 3.32,4.52 3.72,5.08 3.66,4.45 3.60,3.82 3.53,2.98 3.47,2.15 3.34,1.08 3.22,0.01 3.16,-0.77 3.10,-1.56 3.25,-2.57 3.40,-3.57 4.14,-4.14 4.88,-4.71 5.89,-4.93 6.91,-5.15 8.08,-5.32 9.24,-5.50 10.92,-5.49 12.61,-5.47 14.47,-5.47 16.33,-5.47 17.77,-5.36 19.21,-5.26 21.28,-4.56 23.34,-3.86 23.44,-3.82 23.54,-3.78 23.62,-3.71 23.70,-3.64 23.75,-3.54 23.80,-3.45 23.82,-3.35 23.85,-3.24 23.83,-3.14 23.82,-3.03 23.77,-2.94 23.72,-2.84 23.65,-2.77 23.57,-2.69 23.48,-2.64 23.39,-2.59 23.28,-2.58 23.17,-2.56 23.07,-2.58 22.97,-2.60 22.87,-2.66 22.78,-2.71 22.71,-2.79 22.64,-2.86 22.60,-2.96 22.55,-3.06 22.54,-3.17 22.53,-3.27 22.56,-3.37 22.58,-3.48 22.64,-3.57 22.70,-3.66 22.78,-3.72 22.86,-3.79 22.96,-3.83 23.06,-3.87 23.17,-3.87 23.27,-3.87 23.38,-3.84 23.48,-3.81 23.56,-3.75 23.65,-3.69 23.71,-3.60 23.78,-3.52 23.81,-3.41 23.84,-3.31 23.84,-3.21 23.83,-3.10 23.80,-3.00 23.76,-2.90 23.70,-2.82 23.63,-2.73 23.54,-2.68 23.45,-2.62 23.35,-2.59 23.25,-2.57 23.14,-2.58 23.03,-2.58 23.03,-2.58 23.03,-2.58 21.02,-2.63 19.02,-2.68 17.67,-2.79 16.31,-2.90 14.43,-2.92 12.55,-2.95 11.06,-3.00 9.57,-3.05 8.44,-2.91 7.30,-2.77 6.66,-2.72 6.02,-2.67 5.70,-2.19 5.37,-1.72 5.42,-0.98 5.47,-0.24 5.59,0.88 5.72,2.01 5.77,3.05 5.82,4.09 5.66,5.06 5.50,6.03 5.10,6.59 4.69,7.16 3.71,7.15 2.73,7.15 2.35,6.70 1.98,6.24 1.55,5.56 1.11,4.87 0.60,3.82 0.10,2.76 -0.25,1.51 -0.60,0.25 -0.62,0.17 -0.64,0.10 -0.65,0.02 -0.65,-0.05 -0.63,-0.13 -0.62,-0.21 -0.58,-0.28 -0.55,-0.35 -0.50,-0.41 -0.45,-0.47 -0.38,-0.52 -0.32,-0.57 -0.25,-0.60 -0.17,-0.63 -0.09,-0.64 -0.02,-0.65 0.05,-0.64 0.13,-0.64 0.21,-0.61 0.28,-0.59 0.35,-0.54 0.41,-0.50 0.47,-0.44 0.52,-0.39 0.56,-0.32 0.60,-0.25 0.60,-0.25 L 0.60,-0.25 Z"/></g><g transform="translate(185.69442749023438 253.14213180541992) rotate(0 3.9930572509765625 2.77777099609375)" stroke="none"><path fill="#1e1e1e" d="M -0.46,-0.46 Q -0.46,-0.46 -0.15,-0.98 0.14,-1.50 0.81,-1.80 1.49,-2.11 2.25,-2.00 3.01,-1.90 3.62,-1.54 4.24,-1.18 4.62,-0.40 4.99,0.36 4.88,1.16 4.77,1.96 4.35,2.67 3.92,3.37 3.40,3.90 2.88,4.44 2.44,4.78 2.00,5.13 1.66,4.57 1.33,4.02 2.35,4.31 3.37,4.60 5.46,5.39 7.55,6.18 7.65,6.22 7.75,6.26 7.83,6.32 7.91,6.39 7.97,6.48 8.02,6.57 8.05,6.68 8.07,6.78 8.06,6.88 8.05,6.99 8.01,7.09 7.97,7.18 7.89,7.26 7.82,7.34 7.73,7.39 7.64,7.44 7.53,7.46 7.43,7.48 7.32,7.46 7.22,7.45 7.12,7.40 7.03,7.35 6.95,7.28 6.88,7.20 6.83,7.10 6.79,7.01 6.77,6.90 6.76,6.80 6.78,6.69 6.80,6.59 6.86,6.50 6.91,6.41 6.99,6.34 7.07,6.27 7.17,6.23 7.27,6.18 7.37,6.18 7.48,6.17 7.58,6.20 7.69,6.22 7.77,6.28 7.86,6.34 7.93,6.42 7.99,6.51 8.03,6.61 8.06,6.71 8.07,6.81 8.07,6.92 8.03,7.02 8.00,7.12 7.94,7.21 7.88,7.29 7.79,7.36 7.70,7.42 7.60,7.45 7.50,7.48 7.39,7.47 7.29,7.47 7.29,7.47 7.29,7.47 4.95,7.34 2.61,7.21 1.64,6.89 0.68,6.57 0.18,6.11 -0.30,5.65 0.11,4.36 0.54,3.07 1.25,2.55 1.97,2.03 2.42,1.23 2.87,0.43 2.16,0.17 1.45,-0.09 0.95,0.18 0.46,0.46 0.40,0.51 0.33,0.56 0.26,0.59 0.19,0.62 0.11,0.64 0.03,0.65 -0.03,0.65 -0.11,0.64 -0.19,0.62 -0.26,0.59 -0.33,0.55 -0.40,0.51 -0.46,0.46 -0.51,0.40 -0.55,0.33 -0.59,0.26 -0.62,0.19 -0.64,0.11 -0.65,0.03 -0.65,-0.03 -0.64,-0.11 -0.62,-0.19 -0.59,-0.26 -0.56,-0.33 -0.51,-0.40 -0.46,-0.46 -0.46,-0.46 L -0.46,-0.46 Z"/></g><g transform="translate(10.347213745117188 59.044918060302734) rotate(0 -0.17360687255859375 5.3819427490234375)" stroke="none"><path fill="#1e1e1e" d="M 0.65,0.06 Q 0.65,0.06 0.84,1.09 1.02,2.11 1.00,3.20 0.98,4.29 0.96,5.45 0.94,6.61 0.78,8.54 0.62,10.46 0.62,10.57 0.61,10.68 0.57,10.78 0.54,10.87 0.47,10.96 0.40,11.04 0.31,11.09 0.22,11.15 0.11,11.17 0.01,11.20 -0.08,11.19 -0.19,11.18 -0.29,11.13 -0.38,11.09 -0.46,11.02 -0.54,10.94 -0.59,10.85 -0.64,10.76 -0.66,10.65 -0.68,10.55 -0.66,10.44 -0.64,10.34 -0.60,10.24 -0.55,10.15 -0.47,10.07 -0.39,10.00 -0.30,9.96 -0.20,9.91 -0.10,9.90 0.00,9.88 0.10,9.91 0.21,9.93 0.30,9.98 0.39,10.04 0.46,10.12 0.53,10.20 0.57,10.30 0.61,10.39 0.62,10.50 0.62,10.61 0.60,10.71 0.57,10.81 0.51,10.90 0.45,10.99 0.37,11.05 0.28,11.12 0.18,11.15 0.08,11.19 -0.01,11.19 -0.12,11.19 -0.22,11.16 -0.32,11.12 -0.41,11.06 -0.49,11.00 -0.55,10.91 -0.61,10.82 -0.64,10.72 -0.67,10.62 -0.67,10.62 -0.67,10.62 -1.13,8.59 -1.58,6.57 -1.56,5.38 -1.54,4.19 -1.48,3.03 -1.42,1.87 -1.04,0.90 -0.65,-0.06 -0.63,-0.14 -0.61,-0.21 -0.58,-0.29 -0.54,-0.36 -0.49,-0.42 -0.44,-0.48 -0.38,-0.52 -0.31,-0.57 -0.24,-0.60 -0.17,-0.63 -0.09,-0.64 -0.01,-0.65 0.06,-0.64 0.14,-0.64 0.21,-0.61 0.29,-0.58 0.35,-0.54 0.42,-0.50 0.47,-0.44 0.53,-0.38 0.57,-0.31 0.60,-0.24 0.62,-0.16 0.65,-0.09 0.65,-0.01 0.65,0.06 0.65,0.06 L 0.65,0.06 Z"/></g><g transform="translate(13.472213745117188 64.6004753112793) rotate(0 2.4305572509765625 3.2986068725585938)" stroke="none"><path fill="#1e1e1e" d="M 0.55,-0.34 Q 0.55,-0.34 1.23,0.33 1.91,1.02 2.43,1.72 2.94,2.43 4.04,4.19 5.13,5.95 5.19,6.03 5.26,6.12 5.29,6.22 5.33,6.32 5.33,6.42 5.33,6.53 5.30,6.63 5.27,6.73 5.20,6.82 5.14,6.90 5.05,6.96 4.97,7.02 4.86,7.05 4.76,7.08 4.66,7.08 4.55,7.07 4.45,7.04 4.35,7.00 4.27,6.93 4.19,6.86 4.13,6.77 4.07,6.68 4.05,6.58 4.03,6.48 4.04,6.37 4.05,6.26 4.09,6.17 4.13,6.07 4.20,5.99 4.28,5.91 4.37,5.86 4.46,5.81 4.57,5.79 4.67,5.77 4.78,5.79 4.88,5.81 4.98,5.85 5.07,5.90 5.15,5.98 5.22,6.06 5.27,6.15 5.31,6.25 5.32,6.35 5.34,6.46 5.32,6.56 5.29,6.67 5.24,6.76 5.19,6.85 5.11,6.92 5.03,6.99 4.93,7.03 4.83,7.07 4.73,7.08 4.62,7.09 4.52,7.06 4.41,7.03 4.33,6.97 4.24,6.91 4.24,6.91 4.24,6.91 2.66,5.31 1.09,3.71 0.58,2.94 0.07,2.17 -0.24,1.26 -0.55,0.34 -0.59,0.27 -0.62,0.20 -0.63,0.12 -0.65,0.04 -0.65,-0.02 -0.64,-0.10 -0.62,-0.18 -0.60,-0.26 -0.56,-0.32 -0.52,-0.39 -0.46,-0.45 -0.41,-0.51 -0.34,-0.55 -0.27,-0.59 -0.20,-0.61 -0.12,-0.64 -0.04,-0.65 0.02,-0.65 0.10,-0.64 0.18,-0.62 0.25,-0.59 0.33,-0.56 0.39,-0.51 0.45,-0.47 0.50,-0.40 0.55,-0.34 0.55,-0.34 L 0.55,-0.34 Z"/></g><g transform="translate(13.125 69.80880355834961) rotate(0 4.340278625488281 -3.4722213745117188)" stroke="none"><path fill="#1e1e1e" d="M -0.57,-0.32 Q -0.57,-0.32 -0.37,-1.14 -0.18,-1.97 0.53,-2.80 1.25,-3.64 2.44,-4.43 3.63,-5.22 5.78,-6.23 7.94,-7.24 8.04,-7.28 8.13,-7.33 8.24,-7.34 8.34,-7.35 8.45,-7.32 8.55,-7.30 8.64,-7.24 8.73,-7.19 8.80,-7.11 8.87,-7.03 8.91,-6.93 8.95,-6.83 8.95,-6.72 8.96,-6.62 8.93,-6.51 8.90,-6.41 8.84,-6.32 8.78,-6.24 8.69,-6.17 8.61,-6.11 8.51,-6.08 8.40,-6.04 8.30,-6.04 8.19,-6.04 8.09,-6.08 7.99,-6.11 7.91,-6.18 7.82,-6.24 7.76,-6.33 7.71,-6.42 7.68,-6.52 7.65,-6.63 7.66,-6.73 7.66,-6.84 7.70,-6.94 7.74,-7.03 7.81,-7.11 7.88,-7.20 7.97,-7.25 8.07,-7.30 8.17,-7.33 8.27,-7.35 8.38,-7.33 8.48,-7.32 8.58,-7.28 8.68,-7.23 8.75,-7.16 8.83,-7.08 8.88,-6.99 8.93,-6.90 8.94,-6.79 8.96,-6.69 8.94,-6.58 8.92,-6.48 8.87,-6.38 8.82,-6.29 8.75,-6.22 8.67,-6.14 8.67,-6.14 8.67,-6.14 6.82,-4.64 4.97,-3.13 3.99,-2.53 3.01,-1.93 2.40,-1.37 1.78,-0.82 1.17,-0.24 0.57,0.32 0.52,0.38 0.47,0.45 0.41,0.50 0.35,0.55 0.28,0.58 0.21,0.62 0.13,0.63 0.05,0.65 -0.02,0.65 -0.10,0.64 -0.17,0.62 -0.25,0.60 -0.32,0.56 -0.39,0.52 -0.44,0.47 -0.50,0.41 -0.54,0.35 -0.59,0.28 -0.61,0.20 -0.64,0.13 -0.64,0.05 -0.65,-0.02 -0.64,-0.10 -0.63,-0.17 -0.60,-0.25 -0.57,-0.32 -0.57,-0.32 L -0.57,-0.32 Z"/></g><g transform="translate(23.194442749023438 59.73936080932617) rotate(0 3.4722213745117188 6.770835876464844)" stroke="none"><path fill="#1e1e1e" d="M 0.43,-0.49 Q 0.43,-0.49 1.39,0.02 2.35,0.53 3.20,1.19 4.05,1.84 5.09,2.86 6.13,3.87 6.75,4.79 7.37,5.71 7.68,6.69 7.99,7.67 7.68,8.95 7.37,10.22 5.50,11.91 3.63,13.60 3.55,13.66 3.46,13.72 3.36,13.76 3.26,13.79 3.15,13.79 3.05,13.78 2.95,13.75 2.85,13.71 2.76,13.65 2.68,13.58 2.62,13.49 2.56,13.40 2.54,13.30 2.51,13.20 2.52,13.09 2.53,12.98 2.57,12.89 2.61,12.79 2.68,12.71 2.75,12.63 2.84,12.58 2.93,12.52 3.04,12.50 3.14,12.48 3.25,12.50 3.35,12.51 3.45,12.56 3.54,12.60 3.62,12.68 3.70,12.75 3.74,12.85 3.79,12.94 3.81,13.05 3.82,13.15 3.80,13.25 3.78,13.36 3.73,13.45 3.68,13.55 3.60,13.62 3.52,13.69 3.43,13.73 3.33,13.77 3.22,13.78 3.12,13.79 3.01,13.77 2.91,13.74 2.82,13.69 2.73,13.63 2.66,13.55 2.60,13.47 2.56,13.37 2.52,13.27 2.52,13.16 2.51,13.05 2.54,12.95 2.57,12.85 2.64,12.76 2.70,12.68 2.70,12.68 2.70,12.68 3.67,10.98 4.65,9.28 4.83,8.20 5.01,7.13 4.62,6.40 4.23,5.68 3.36,4.70 2.49,3.73 1.66,2.99 0.84,2.25 0.20,1.37 -0.43,0.49 -0.48,0.43 -0.53,0.37 -0.57,0.30 -0.61,0.23 -0.63,0.15 -0.65,0.08 -0.65,0.00 -0.65,-0.07 -0.63,-0.15 -0.61,-0.22 -0.57,-0.29 -0.54,-0.36 -0.49,-0.42 -0.43,-0.48 -0.37,-0.53 -0.30,-0.57 -0.23,-0.60 -0.16,-0.63 -0.08,-0.64 -0.00,-0.65 0.07,-0.64 0.15,-0.63 0.22,-0.61 0.30,-0.58 0.36,-0.53 0.43,-0.49 0.43,-0.49 L 0.43,-0.49 Z"/></g><g transform="translate(28.40277099609375 79.18380355834961) rotate(0 2.9513931274414062 -2.7777786254882812)" stroke="none"><path fill="#1e1e1e" d="M -0.55,-0.35 Q -0.55,-0.35 -0.01,-1.55 0.51,-2.75 1.00,-3.53 1.48,-4.31 1.91,-4.89 2.35,-5.48 2.91,-5.85 3.46,-6.22 4.23,-6.23 5.00,-6.23 5.56,-5.76 6.13,-5.29 6.18,-3.10 6.23,-0.91 6.20,-0.81 6.18,-0.70 6.12,-0.61 6.06,-0.53 5.98,-0.46 5.89,-0.39 5.79,-0.36 5.69,-0.32 5.59,-0.32 5.48,-0.32 5.38,-0.35 5.28,-0.38 5.19,-0.44 5.11,-0.50 5.05,-0.59 4.98,-0.68 4.95,-0.78 4.92,-0.88 4.93,-0.99 4.93,-1.09 4.97,-1.19 5.00,-1.29 5.07,-1.37 5.14,-1.46 5.23,-1.51 5.32,-1.57 5.42,-1.60 5.52,-1.62 5.63,-1.61 5.74,-1.60 5.83,-1.56 5.93,-1.52 6.01,-1.45 6.09,-1.37 6.14,-1.28 6.19,-1.19 6.21,-1.08 6.23,-0.98 6.22,-0.88 6.20,-0.77 6.15,-0.68 6.11,-0.58 6.03,-0.51 5.95,-0.43 5.86,-0.38 5.76,-0.34 5.66,-0.32 5.55,-0.31 5.45,-0.33 5.34,-0.35 5.25,-0.40 5.16,-0.46 5.09,-0.54 5.02,-0.62 4.98,-0.71 4.94,-0.81 4.93,-0.92 4.92,-1.02 4.92,-1.02 4.92,-1.02 4.49,-2.55 4.06,-4.07 3.68,-3.60 3.29,-3.13 2.78,-2.38 2.27,-1.63 1.41,-0.64 0.55,0.35 0.50,0.41 0.45,0.47 0.39,0.52 0.32,0.56 0.25,0.60 0.18,0.63 0.10,0.64 0.02,0.65 -0.05,0.64 -0.13,0.64 -0.20,0.61 -0.28,0.59 -0.35,0.54 -0.41,0.50 -0.47,0.45 -0.52,0.39 -0.56,0.32 -0.60,0.25 -0.62,0.17 -0.64,0.10 -0.65,0.02 -0.65,-0.05 -0.63,-0.13 -0.62,-0.20 -0.58,-0.28 -0.55,-0.35 -0.55,-0.35 L -0.55,-0.35 Z"/></g><g transform="translate(30.486114501953125 76.75324630737305) rotate(0 1.9097213745117188 0)" stroke="none"><path fill="#1e1e1e" d="M 0,-0.65 Q 0,-0.65 1.74,-0.65 3.49,-0.65 3.59,-0.63 3.69,-0.62 3.79,-0.57 3.88,-0.52 3.96,-0.44 4.03,-0.36 4.07,-0.27 4.12,-0.17 4.13,-0.07 4.14,0.03 4.12,0.13 4.10,0.24 4.04,0.33 3.99,0.42 3.90,0.49 3.82,0.56 3.72,0.60 3.63,0.64 3.52,0.64 3.41,0.65 3.31,0.62 3.21,0.59 3.12,0.53 3.03,0.47 2.97,0.39 2.90,0.30 2.87,0.20 2.84,0.10 2.84,-0.00 2.84,-0.10 2.87,-0.20 2.91,-0.30 2.97,-0.39 3.03,-0.47 3.12,-0.53 3.21,-0.59 3.31,-0.62 3.41,-0.65 3.52,-0.64 3.63,-0.64 3.73,-0.60 3.82,-0.56 3.90,-0.49 3.99,-0.42 4.04,-0.33 4.10,-0.24 4.12,-0.13 4.14,-0.03 4.13,0.07 4.12,0.17 4.07,0.27 4.03,0.36 3.96,0.44 3.88,0.52 3.79,0.57 3.69,0.62 3.59,0.63 3.48,0.65 3.49,0.65 3.49,0.65 1.74,0.65 0,0.65 -0.07,0.64 -0.15,0.63 -0.23,0.60 -0.30,0.58 -0.37,0.53 -0.43,0.49 -0.48,0.43 -0.54,0.37 -0.57,0.30 -0.61,0.23 -0.63,0.15 -0.65,0.07 -0.65,-0.00 -0.65,-0.07 -0.63,-0.15 -0.61,-0.23 -0.57,-0.30 -0.54,-0.37 -0.48,-0.43 -0.43,-0.49 -0.37,-0.53 -0.30,-0.58 -0.23,-0.60 -0.15,-0.63 -0.07,-0.64 0.00,-0.65 0.00,-0.65 L 0,-0.65 Z"/></g><g transform="translate(13.472213745117188 59.044918060302734) rotate(0 2.0833358764648438 0.17360687255859375)" stroke="none"><path fill="#1e1e1e" d="M 0,-0.65 Q 0,-0.65 2.01,-0.49 4.02,-0.33 4.13,-0.30 4.23,-0.27 4.31,-0.21 4.40,-0.15 4.46,-0.06 4.53,0.02 4.56,0.12 4.59,0.22 4.59,0.32 4.59,0.43 4.55,0.53 4.52,0.63 4.45,0.71 4.39,0.80 4.30,0.86 4.21,0.92 4.11,0.94 4.01,0.97 3.90,0.96 3.79,0.95 3.70,0.91 3.60,0.87 3.52,0.80 3.44,0.73 3.38,0.64 3.33,0.55 3.31,0.45 3.29,0.34 3.30,0.24 3.31,0.13 3.36,0.04 3.41,-0.05 3.48,-0.13 3.55,-0.20 3.65,-0.25 3.74,-0.30 3.85,-0.32 3.95,-0.33 4.06,-0.31 4.16,-0.29 4.25,-0.24 4.35,-0.19 4.42,-0.11 4.49,-0.04 4.54,0.05 4.58,0.15 4.59,0.25 4.60,0.36 4.57,0.46 4.55,0.57 4.49,0.66 4.44,0.75 4.36,0.82 4.27,0.88 4.18,0.92 4.08,0.96 3.97,0.96 3.86,0.97 3.86,0.97 3.86,0.97 1.93,0.81 0,0.65 -0.07,0.64 -0.15,0.63 -0.23,0.60 -0.30,0.58 -0.37,0.53 -0.43,0.49 -0.48,0.43 -0.54,0.37 -0.57,0.30 -0.61,0.23 -0.63,0.15 -0.65,0.07 -0.65,-0.00 -0.65,-0.07 -0.63,-0.15 -0.61,-0.23 -0.57,-0.30 -0.54,-0.37 -0.48,-0.43 -0.43,-0.49 -0.37,-0.53 -0.30,-0.58 -0.23,-0.60 -0.15,-0.63 -0.07,-0.64 0.00,-0.65 0.00,-0.65 L 0,-0.65 Z"/></g><g transform="translate(18.333328247070312 56.61436080932617) rotate(0 1.2152786254882812 2.7777786254882812)" stroke="none"><path fill="#1e1e1e" d="M 0.46,-0.46 Q 0.46,-0.46 1.24,-0.04 2.01,0.38 2.45,0.87 2.89,1.35 3.15,1.92 3.42,2.49 2.22,4.15 1.03,5.82 0.94,5.88 0.85,5.93 0.74,5.96 0.64,5.98 0.54,5.98 0.43,5.97 0.33,5.93 0.23,5.88 0.16,5.81 0.08,5.74 0.02,5.65 -0.02,5.56 -0.04,5.45 -0.06,5.35 -0.04,5.24 -0.03,5.14 0.01,5.04 0.05,4.95 0.13,4.87 0.20,4.80 0.30,4.75 0.39,4.70 0.50,4.69 0.61,4.67 0.71,4.69 0.81,4.71 0.91,4.77 1.00,4.82 1.07,4.90 1.14,4.98 1.18,5.07 1.23,5.17 1.23,5.28 1.24,5.38 1.22,5.49 1.19,5.59 1.13,5.68 1.08,5.77 0.99,5.84 0.91,5.90 0.81,5.94 0.71,5.98 0.61,5.98 0.50,5.98 0.40,5.95 0.30,5.92 0.21,5.86 0.12,5.79 0.06,5.71 0.00,5.62 -0.02,5.52 -0.05,5.42 -0.05,5.31 -0.05,5.21 -0.01,5.11 0.02,5.01 0.08,4.92 0.15,4.84 0.15,4.84 0.15,4.84 0.57,4.06 0.99,3.29 0.68,2.65 0.38,2.01 -0.04,1.23 -0.46,0.46 -0.51,0.40 -0.56,0.33 -0.59,0.26 -0.62,0.19 -0.64,0.11 -0.65,0.03 -0.65,-0.03 -0.64,-0.11 -0.62,-0.19 -0.59,-0.26 -0.55,-0.33 -0.51,-0.40 -0.46,-0.46 -0.40,-0.51 -0.33,-0.55 -0.26,-0.59 -0.19,-0.62 -0.11,-0.64 -0.03,-0.65 0.03,-0.65 0.11,-0.64 0.19,-0.62 0.26,-0.59 0.33,-0.56 0.40,-0.51 0.46,-0.46 0.46,-0.46 L 0.46,-0.46 Z"/></g><g transform="translate(627.7083129882812 52.44770431518555) rotate(0 -2.2569580078125 8.333328247070312)" stroke="none"><path fill="#1e1e1e" d="M 0.46,0.46 Q 0.46,0.46 -0.08,1.29 -0.63,2.13 -1.21,3.40 -1.79,4.68 -2.24,6.10 -2.69,7.52 -2.78,9.21 -2.86,10.90 -2.74,13.43 -2.63,15.97 -2.61,16.08 -2.60,16.18 -2.63,16.29 -2.65,16.39 -2.71,16.48 -2.76,16.57 -2.84,16.64 -2.93,16.71 -3.02,16.75 -3.12,16.78 -3.23,16.79 -3.34,16.79 -3.44,16.76 -3.54,16.74 -3.63,16.67 -3.72,16.61 -3.78,16.53 -3.84,16.44 -3.88,16.34 -3.91,16.24 -3.91,16.14 -3.91,16.03 -3.87,15.93 -3.84,15.83 -3.77,15.75 -3.71,15.66 -3.62,15.60 -3.53,15.54 -3.43,15.52 -3.32,15.49 -3.22,15.50 -3.11,15.50 -3.01,15.54 -2.92,15.58 -2.84,15.65 -2.76,15.72 -2.70,15.81 -2.65,15.90 -2.63,16.01 -2.60,16.11 -2.62,16.22 -2.63,16.32 -2.67,16.42 -2.72,16.52 -2.79,16.59 -2.87,16.67 -2.96,16.72 -3.06,16.77 -3.16,16.78 -3.27,16.80 -3.37,16.78 -3.47,16.76 -3.57,16.71 -3.66,16.66 -3.73,16.58 -3.81,16.51 -3.85,16.41 -3.89,16.31 -3.89,16.31 -3.89,16.31 -4.51,13.54 -5.13,10.76 -5.00,8.79 -4.86,6.82 -4.32,5.25 -3.78,3.69 -2.97,2.17 -2.15,0.66 -1.31,0.09 -0.46,-0.46 -0.40,-0.51 -0.33,-0.56 -0.26,-0.59 -0.19,-0.62 -0.11,-0.64 -0.03,-0.65 0.03,-0.65 0.11,-0.64 0.19,-0.62 0.26,-0.59 0.33,-0.55 0.40,-0.51 0.46,-0.46 0.51,-0.40 0.55,-0.33 0.59,-0.26 0.62,-0.19 0.64,-0.11 0.65,-0.03 0.65,0.03 0.64,0.11 0.62,0.19 0.59,0.26 0.56,0.33 0.51,0.40 0.46,0.46 0.46,0.46 L 0.46,0.46 Z"/></g><g transform="translate(628.0555419921875 63.90603256225586) rotate(0 1.736114501953125 0.173614501953125)" stroke="none"><path fill="#1e1e1e" d="M 0.08,-0.65 Q 0.08,-0.65 1.63,-0.49 3.18,-0.33 3.28,-0.30 3.39,-0.28 3.48,-0.22 3.57,-0.16 3.63,-0.08 3.70,-0.00 3.74,0.09 3.77,0.19 3.78,0.30 3.78,0.40 3.75,0.50 3.72,0.61 3.66,0.69 3.59,0.78 3.51,0.84 3.42,0.90 3.32,0.93 3.22,0.97 3.11,0.96 3.01,0.96 2.91,0.92 2.81,0.89 2.72,0.82 2.64,0.76 2.58,0.67 2.53,0.58 2.50,0.47 2.47,0.37 2.48,0.26 2.49,0.16 2.53,0.06 2.57,-0.03 2.65,-0.11 2.72,-0.19 2.81,-0.24 2.90,-0.29 3.00,-0.31 3.11,-0.33 3.21,-0.32 3.32,-0.30 3.42,-0.26 3.51,-0.21 3.59,-0.13 3.66,-0.06 3.71,0.03 3.76,0.12 3.77,0.23 3.79,0.33 3.77,0.44 3.75,0.54 3.69,0.63 3.64,0.73 3.56,0.80 3.48,0.87 3.39,0.91 3.29,0.95 3.18,0.96 3.08,0.97 3.08,0.97 3.08,0.97 1.50,0.81 -0.08,0.65 -0.15,0.63 -0.23,0.61 -0.30,0.57 -0.37,0.53 -0.43,0.48 -0.49,0.43 -0.53,0.36 -0.58,0.30 -0.61,0.22 -0.63,0.15 -0.64,0.07 -0.65,-0.00 -0.64,-0.08 -0.63,-0.15 -0.60,-0.23 -0.58,-0.30 -0.53,-0.37 -0.48,-0.43 -0.43,-0.48 -0.37,-0.54 -0.30,-0.57 -0.23,-0.61 -0.15,-0.63 -0.07,-0.65 0.00,-0.65 0.08,-0.65 0.08,-0.65 L 0.08,-0.65 Z"/></g><g transform="translate(633.9583129882812 61.4754753112793) rotate(0 1.90972900390625 0)" stroke="none"><path fill="#1e1e1e" d="M -0.42,-0.49 Q -0.42,-0.49 0.14,-1.24 0.72,-1.98 1.15,-2.50 1.58,-3.02 1.94,-3.54 2.31,-4.06 2.46,-4.40 2.62,-4.74 2.72,-4.84 2.82,-4.95 2.94,-5.02 3.06,-5.10 3.20,-5.14 3.33,-5.18 3.47,-5.19 3.62,-5.20 3.76,-5.18 3.90,-5.15 4.03,-5.10 4.16,-5.04 4.27,-4.95 4.38,-4.87 4.47,-4.76 4.56,-4.64 4.62,-4.52 4.68,-4.39 4.71,-4.25 4.73,-4.11 4.72,-3.97 4.72,-3.82 4.68,-3.69 4.64,-3.55 4.56,-3.43 4.49,-3.31 4.38,-2.78 4.26,-2.26 4.10,-1.19 3.94,-0.13 3.52,2.07 3.09,4.28 3.07,4.38 3.05,4.49 3.00,4.58 2.94,4.67 2.86,4.74 2.78,4.81 2.69,4.85 2.59,4.89 2.48,4.90 2.38,4.91 2.27,4.88 2.17,4.85 2.08,4.80 1.99,4.74 1.93,4.65 1.86,4.57 1.82,4.47 1.79,4.37 1.79,4.27 1.78,4.16 1.82,4.06 1.85,3.96 1.91,3.87 1.97,3.79 2.06,3.72 2.15,3.66 2.25,3.63 2.35,3.60 2.46,3.61 2.56,3.61 2.66,3.65 2.76,3.68 2.85,3.75 2.93,3.82 2.98,3.91 3.04,4.00 3.06,4.10 3.09,4.21 3.08,4.31 3.07,4.42 3.03,4.51 2.98,4.61 2.91,4.69 2.84,4.77 2.75,4.82 2.66,4.87 2.55,4.89 2.45,4.91 2.34,4.89 2.24,4.88 2.14,4.83 2.05,4.78 1.97,4.71 1.90,4.63 1.85,4.54 1.81,4.44 1.79,4.34 1.78,4.23 1.78,4.23 1.78,4.23 1.62,1.85 1.47,-0.53 1.69,-1.79 1.90,-3.05 2.26,-3.90 2.62,-4.74 2.72,-4.84 2.82,-4.95 2.94,-5.02 3.06,-5.10 3.20,-5.14 3.33,-5.18 3.47,-5.19 3.62,-5.20 3.76,-5.18 3.90,-5.15 4.03,-5.10 4.16,-5.04 4.27,-4.95 4.38,-4.87 4.47,-4.76 4.56,-4.64 4.62,-4.52 4.68,-4.39 4.71,-4.25 4.73,-4.11 4.72,-3.97 4.72,-3.82 4.68,-3.69 4.64,-3.55 4.56,-3.43 4.49,-3.31 4.30,-3.00 4.11,-2.68 3.65,-2.13 3.19,-1.58 2.63,-0.99 2.07,-0.41 1.25,0.04 0.42,0.49 0.36,0.54 0.29,0.58 0.22,0.61 0.14,0.64 0.06,0.64 -0.01,0.65 -0.08,0.64 -0.16,0.63 -0.24,0.60 -0.31,0.57 -0.37,0.53 -0.44,0.48 -0.49,0.42 -0.54,0.36 -0.58,0.29 -0.61,0.22 -0.63,0.14 -0.65,0.06 -0.65,-0.01 -0.65,-0.08 -0.63,-0.16 -0.61,-0.24 -0.57,-0.31 -0.53,-0.38 -0.48,-0.44 -0.42,-0.49 -0.42,-0.49 L -0.42,-0.49 Z"/></g><g transform="translate(640.5555419921875 52.1004753112793) rotate(0 0.694427490234375 9.027778625488281)" stroke="none"><path fill="#1e1e1e" d="M 0.61,-0.22 Q 0.61,-0.22 1.17,0.81 1.73,1.85 2.17,3.24 2.61,4.63 2.82,6.30 3.03,7.96 2.93,9.64 2.83,11.32 2.46,12.98 2.09,14.63 1.07,16.32 0.05,18.02 -0.00,18.11 -0.07,18.19 -0.15,18.25 -0.24,18.32 -0.34,18.35 -0.44,18.38 -0.55,18.38 -0.65,18.38 -0.75,18.34 -0.85,18.30 -0.94,18.24 -1.02,18.17 -1.08,18.08 -1.13,17.99 -1.16,17.89 -1.19,17.79 -1.18,17.68 -1.17,17.58 -1.13,17.48 -1.09,17.38 -1.02,17.30 -0.95,17.22 -0.86,17.17 -0.76,17.12 -0.66,17.09 -0.55,17.07 -0.45,17.09 -0.34,17.10 -0.25,17.15 -0.15,17.19 -0.08,17.27 -0.00,17.34 0.04,17.44 0.08,17.53 0.10,17.64 0.11,17.74 0.09,17.85 0.07,17.95 0.02,18.05 -0.02,18.14 -0.10,18.21 -0.18,18.28 -0.27,18.32 -0.37,18.37 -0.48,18.38 -0.58,18.39 -0.69,18.36 -0.79,18.33 -0.88,18.28 -0.97,18.22 -1.04,18.14 -1.10,18.06 -1.14,17.96 -1.18,17.86 -1.18,17.75 -1.18,17.65 -1.15,17.54 -1.12,17.44 -1.12,17.44 -1.12,17.44 -0.73,15.75 -0.35,14.07 -0.00,12.59 0.34,11.11 0.50,9.65 0.66,8.19 0.56,6.70 0.45,5.21 0.16,3.87 -0.13,2.53 -0.37,1.38 -0.61,0.22 -0.63,0.14 -0.65,0.07 -0.65,-0.00 -0.65,-0.08 -0.63,-0.16 -0.61,-0.24 -0.57,-0.31 -0.53,-0.38 -0.48,-0.43 -0.42,-0.49 -0.36,-0.54 -0.29,-0.58 -0.22,-0.61 -0.14,-0.63 -0.06,-0.64 0.00,-0.65 0.08,-0.64 0.16,-0.63 0.23,-0.60 0.31,-0.57 0.37,-0.53 0.44,-0.48 0.49,-0.42 0.54,-0.36 0.58,-0.29 0.61,-0.22 0.61,-0.22 L 0.61,-0.22 Z"/></g><g transform="translate(648.1943969726562 50.71158981323242) rotate(0 0.173614501953125 -2.0833358764648438)" stroke="none"><path fill="#1e1e1e" d="M -0.53,-0.38 Q -0.53,-0.38 -0.13,-1.14 0.27,-1.91 0.62,-2.67 0.97,-3.42 1.29,-4.50 1.61,-5.57 1.74,-6.57 1.87,-7.57 1.81,-8.44 1.76,-9.30 1.64,-9.81 1.51,-10.32 1.53,-10.45 1.54,-10.58 1.58,-10.70 1.62,-10.83 1.69,-10.94 1.76,-11.04 1.86,-11.13 1.95,-11.22 2.06,-11.29 2.18,-11.35 2.30,-11.39 2.43,-11.42 2.56,-11.43 2.69,-11.43 2.81,-11.40 2.94,-11.38 3.06,-11.32 3.18,-11.26 3.28,-11.18 3.38,-11.10 3.45,-10.99 3.53,-10.89 3.58,-10.77 3.63,-10.65 3.65,-10.52 3.67,-10.39 3.12,-9.82 2.57,-9.25 2.09,-7.57 1.61,-5.89 1.27,-4.06 0.92,-2.22 0.78,-0.67 0.64,0.86 0.58,2.12 0.52,3.37 0.49,4.20 0.46,5.04 0.44,5.78 0.42,6.53 0.40,6.67 0.38,6.80 0.33,6.92 0.28,7.05 0.20,7.15 0.12,7.26 0.02,7.35 -0.07,7.44 -0.19,7.50 -0.31,7.55 -0.45,7.58 -0.58,7.61 -0.71,7.61 -0.84,7.61 -0.97,7.57 -1.10,7.53 -1.22,7.47 -1.34,7.40 -1.44,7.31 -1.53,7.22 -1.61,7.11 -1.68,7.00 -1.72,6.87 -1.77,6.74 -1.78,6.61 -1.79,6.48 -2.45,5.77 -3.10,5.06 -3.64,4.65 -4.19,4.24 -4.29,4.07 -4.40,3.90 -4.49,3.80 -4.58,3.70 -4.64,3.58 -4.70,3.46 -4.74,3.33 -4.77,3.20 -4.77,3.06 -4.78,2.93 -4.74,2.80 -4.71,2.67 -4.65,2.55 -4.59,2.43 -4.50,2.32 -4.41,2.22 -4.30,2.14 -4.19,2.07 -4.07,2.02 -3.94,1.97 -3.81,1.95 -3.67,1.93 -3.54,1.95 -3.41,1.96 -3.28,2.01 -3.15,2.06 -3.04,2.13 -2.93,2.21 -1.94,2.05 -0.94,1.90 1.28,2.04 3.52,2.18 3.62,2.19 3.73,2.19 3.83,2.23 3.93,2.27 4.01,2.34 4.09,2.41 4.14,2.50 4.20,2.59 4.22,2.70 4.24,2.80 4.23,2.91 4.22,3.01 4.18,3.11 4.13,3.20 4.06,3.28 3.99,3.36 3.89,3.41 3.80,3.46 3.69,3.47 3.59,3.49 3.48,3.47 3.38,3.46 3.28,3.41 3.19,3.36 3.12,3.28 3.04,3.20 3.00,3.11 2.96,3.01 2.94,2.91 2.93,2.80 2.96,2.70 2.98,2.59 3.03,2.50 3.09,2.41 3.17,2.34 3.25,2.27 3.35,2.23 3.45,2.19 3.55,2.19 3.66,2.18 3.76,2.21 3.86,2.24 3.95,2.30 4.04,2.36 4.10,2.44 4.17,2.53 4.20,2.63 4.24,2.73 4.24,2.84 4.24,2.94 4.20,3.04 4.17,3.14 4.10,3.23 4.04,3.31 3.95,3.37 3.86,3.43 3.76,3.46 3.66,3.49 3.66,3.49 3.66,3.49 1.35,3.91 -0.95,4.33 -1.84,4.31 -2.73,4.29 -3.56,4.10 -4.40,3.90 -4.49,3.80 -4.58,3.70 -4.64,3.58 -4.70,3.46 -4.74,3.33 -4.77,3.20 -4.77,3.06 -4.78,2.93 -4.74,2.80 -4.71,2.67 -4.65,2.55 -4.59,2.43 -4.50,2.32 -4.41,2.22 -4.30,2.14 -4.19,2.07 -4.07,2.02 -3.94,1.97 -3.81,1.95 -3.67,1.93 -3.54,1.95 -3.41,1.96 -3.28,2.01 -3.15,2.06 -3.04,2.13 -2.93,2.21 -2.62,2.61 -2.32,3.01 -1.91,3.34 -1.50,3.68 -0.86,4.50 -0.22,5.32 0.09,5.93 0.42,6.53 0.40,6.67 0.38,6.80 0.33,6.92 0.28,7.05 0.20,7.15 0.12,7.26 0.02,7.35 -0.07,7.44 -0.19,7.49 -0.31,7.55 -0.45,7.58 -0.58,7.61 -0.71,7.61 -0.84,7.61 -0.97,7.57 -1.10,7.53 -1.22,7.47 -1.34,7.40 -1.44,7.31 -1.53,7.22 -1.61,7.11 -1.68,7.00 -1.72,6.87 -1.77,6.74 -1.78,6.61 -1.79,6.48 -1.78,5.72 -1.77,4.96 -1.74,4.11 -1.71,3.26 -1.64,1.96 -1.58,0.65 -1.41,-0.98 -1.25,-2.63 -0.88,-4.55 -0.51,-6.47 -0.07,-7.98 0.36,-9.50 0.94,-9.91 1.51,-10.32 1.53,-10.45 1.54,-10.58 1.58,-10.70 1.62,-10.83 1.69,-10.93 1.76,-11.04 1.86,-11.13 1.95,-11.22 2.06,-11.29 2.18,-11.35 2.30,-11.39 2.43,-11.42 2.56,-11.43 2.69,-11.43 2.81,-11.40 2.94,-11.38 3.06,-11.32 3.18,-11.26 3.28,-11.18 3.38,-11.10 3.45,-10.99 3.53,-10.89 3.58,-10.77 3.63,-10.65 3.65,-10.52 3.67,-10.39 3.78,-9.89 3.88,-9.38 3.89,-8.33 3.90,-7.28 3.71,-6.11 3.52,-4.95 3.09,-3.75 2.67,-2.55 2.19,-1.71 1.72,-0.87 1.12,-0.24 0.53,0.38 0.48,0.44 0.42,0.49 0.36,0.54 0.29,0.58 0.22,0.61 0.14,0.64 0.06,0.64 -0.01,0.65 -0.08,0.64 -0.16,0.63 -0.24,0.60 -0.31,0.57 -0.37,0.53 -0.44,0.48 -0.49,0.42 -0.54,0.36 -0.58,0.29 -0.61,0.22 -0.63,0.14 -0.65,0.06 -0.65,-0.01 -0.65,-0.08 -0.63,-0.16 -0.61,-0.24 -0.57,-0.31 -0.53,-0.38 -0.53,-0.38 L -0.53,-0.38 Z"/></g><g transform="translate(658.2638549804688 40.98936080932617) rotate(0 -2.083343505859375 6.59722900390625)" stroke="none"><path fill="#1e1e1e" d="M 0.55,0.34 Q 0.55,0.34 -0.03,1.76 -0.63,3.18 -1.23,4.40 -1.82,5.62 -2.15,6.67 -2.47,7.72 -2.50,8.64 -2.53,9.57 -1.96,11.07 -1.40,12.57 -1.34,12.66 -1.29,12.75 -1.26,12.86 -1.24,12.96 -1.25,13.07 -1.26,13.17 -1.30,13.27 -1.35,13.36 -1.42,13.44 -1.49,13.52 -1.58,13.57 -1.68,13.62 -1.78,13.64 -1.89,13.66 -1.99,13.64 -2.10,13.63 -2.19,13.58 -2.28,13.53 -2.36,13.45 -2.43,13.38 -2.48,13.28 -2.52,13.19 -2.54,13.08 -2.55,12.98 -2.53,12.87 -2.51,12.77 -2.45,12.68 -2.40,12.58 -2.32,12.51 -2.24,12.44 -2.14,12.40 -2.04,12.36 -1.94,12.36 -1.83,12.35 -1.73,12.38 -1.63,12.40 -1.54,12.46 -1.45,12.52 -1.38,12.60 -1.32,12.69 -1.28,12.79 -1.25,12.89 -1.25,13.00 -1.24,13.10 -1.28,13.20 -1.31,13.30 -1.37,13.39 -1.44,13.47 -1.52,13.53 -1.61,13.60 -1.71,13.63 -1.81,13.65 -1.92,13.65 -2.03,13.65 -2.13,13.61 -2.23,13.57 -2.31,13.50 -2.39,13.43 -2.39,13.43 -2.39,13.43 -3.66,11.44 -4.93,9.46 -4.84,8.22 -4.76,6.99 -4.34,5.77 -3.92,4.56 -3.24,3.28 -2.56,2.00 -1.55,0.82 -0.55,-0.34 -0.50,-0.40 -0.46,-0.46 -0.39,-0.51 -0.33,-0.56 -0.26,-0.59 -0.19,-0.62 -0.11,-0.64 -0.03,-0.65 0.04,-0.65 0.12,-0.64 0.19,-0.62 0.27,-0.59 0.34,-0.55 0.40,-0.51 0.46,-0.45 0.52,-0.40 0.56,-0.33 0.60,-0.26 0.62,-0.18 0.64,-0.11 0.65,-0.03 0.65,0.04 0.64,0.12 0.62,0.20 0.59,0.27 0.55,0.34 0.55,0.34 L 0.55,0.34 Z"/></g><g transform="translate(658.9583129882812 48.62826156616211) rotate(0 1.5625 2.4305496215820312)" stroke="none"><path fill="#1e1e1e" d="M 0.55,-0.34 Q 0.55,-0.34 1.27,0.31 1.98,0.98 2.70,2.56 3.42,4.15 3.46,4.24 3.51,4.34 3.53,4.44 3.54,4.55 3.52,4.65 3.50,4.76 3.45,4.85 3.40,4.94 3.32,5.01 3.24,5.08 3.15,5.13 3.05,5.17 2.94,5.18 2.84,5.19 2.73,5.16 2.63,5.14 2.54,5.08 2.45,5.03 2.38,4.94 2.32,4.86 2.28,4.76 2.24,4.66 2.24,4.56 2.23,4.45 2.26,4.35 2.29,4.25 2.36,4.16 2.42,4.07 2.50,4.01 2.59,3.95 2.69,3.92 2.79,3.88 2.90,3.89 3.00,3.89 3.10,3.92 3.20,3.96 3.29,4.03 3.37,4.09 3.43,4.18 3.49,4.27 3.51,4.37 3.54,4.48 3.53,4.58 3.52,4.69 3.48,4.79 3.44,4.88 3.37,4.96 3.30,5.04 3.21,5.10 3.12,5.15 3.01,5.17 2.91,5.19 2.80,5.18 2.70,5.16 2.60,5.12 2.51,5.07 2.43,4.99 2.35,4.92 2.35,4.92 2.35,4.92 1.18,3.56 0.01,2.21 -0.27,1.28 -0.55,0.34 -0.59,0.27 -0.62,0.20 -0.63,0.12 -0.65,0.04 -0.65,-0.02 -0.64,-0.10 -0.62,-0.18 -0.60,-0.26 -0.56,-0.32 -0.52,-0.39 -0.46,-0.45 -0.41,-0.51 -0.34,-0.55 -0.27,-0.59 -0.20,-0.61 -0.12,-0.64 -0.04,-0.65 0.02,-0.65 0.10,-0.64 0.18,-0.62 0.25,-0.59 0.33,-0.56 0.39,-0.51 0.45,-0.47 0.50,-0.40 0.55,-0.34 0.55,-0.34 L 0.55,-0.34 Z"/></g><g transform="translate(658.2638549804688 52.44770431518555) rotate(0 2.604156494140625 -1.736114501953125)" stroke="none"><path fill="#1e1e1e" d="M -0.42,-0.49 Q -0.42,-0.49 0.11,-1.27 0.66,-2.05 2.65,-2.97 4.63,-3.90 4.73,-3.94 4.83,-3.97 4.94,-3.97 5.04,-3.98 5.14,-3.94 5.25,-3.91 5.33,-3.85 5.42,-3.78 5.48,-3.70 5.54,-3.61 5.57,-3.51 5.60,-3.41 5.59,-3.30 5.59,-3.19 5.55,-3.09 5.51,-2.99 5.44,-2.91 5.38,-2.83 5.29,-2.78 5.20,-2.72 5.09,-2.70 4.99,-2.67 4.88,-2.68 4.78,-2.69 4.68,-2.73 4.58,-2.78 4.51,-2.85 4.43,-2.92 4.38,-3.02 4.33,-3.11 4.31,-3.21 4.29,-3.32 4.30,-3.42 4.32,-3.53 4.37,-3.62 4.42,-3.72 4.49,-3.79 4.57,-3.87 4.67,-3.91 4.76,-3.96 4.87,-3.97 4.97,-3.98 5.08,-3.96 5.18,-3.94 5.27,-3.89 5.36,-3.83 5.43,-3.75 5.50,-3.67 5.54,-3.57 5.59,-3.48 5.59,-3.37 5.60,-3.26 5.57,-3.16 5.54,-3.06 5.49,-2.97 5.43,-2.88 5.34,-2.82 5.26,-2.75 5.26,-2.75 5.26,-2.75 3.69,-1.54 2.12,-0.34 1.27,0.07 0.42,0.49 0.36,0.54 0.29,0.58 0.22,0.61 0.14,0.64 0.06,0.64 -0.01,0.65 -0.08,0.64 -0.16,0.63 -0.24,0.60 -0.31,0.57 -0.37,0.53 -0.44,0.48 -0.49,0.42 -0.54,0.36 -0.58,0.29 -0.61,0.22 -0.63,0.14 -0.65,0.06 -0.65,-0.01 -0.65,-0.08 -0.63,-0.16 -0.61,-0.24 -0.57,-0.31 -0.53,-0.38 -0.48,-0.44 -0.42,-0.49 -0.42,-0.49 L -0.42,-0.49 Z"/></g><g transform="translate(659.6527709960938 44.11436080932617) rotate(0 2.256927490234375 0.5208358764648438)" stroke="none"><path fill="#1e1e1e" d="M 0.15,-0.63 Q 0.15,-0.63 2.29,-0.13 4.43,0.36 4.53,0.39 4.63,0.43 4.72,0.49 4.81,0.55 4.87,0.63 4.93,0.72 4.97,0.82 5.00,0.92 4.99,1.03 4.99,1.14 4.96,1.24 4.92,1.34 4.85,1.42 4.79,1.50 4.70,1.56 4.61,1.62 4.51,1.64 4.40,1.67 4.30,1.66 4.19,1.65 4.09,1.61 4.00,1.57 3.92,1.50 3.84,1.43 3.78,1.34 3.73,1.25 3.71,1.14 3.69,1.04 3.70,0.93 3.72,0.83 3.76,0.73 3.81,0.64 3.89,0.56 3.96,0.48 4.06,0.44 4.15,0.39 4.26,0.37 4.36,0.36 4.46,0.38 4.57,0.40 4.66,0.45 4.76,0.50 4.83,0.58 4.90,0.66 4.94,0.76 4.98,0.85 4.99,0.96 5.00,1.06 4.98,1.17 4.95,1.27 4.90,1.36 4.84,1.45 4.76,1.52 4.67,1.59 4.57,1.62 4.47,1.66 4.37,1.66 4.26,1.67 4.26,1.67 4.26,1.67 2.05,1.15 -0.15,0.63 -0.23,0.60 -0.30,0.58 -0.37,0.53 -0.43,0.49 -0.48,0.43 -0.54,0.37 -0.57,0.30 -0.61,0.23 -0.63,0.15 -0.65,0.07 -0.65,-0.00 -0.65,-0.08 -0.63,-0.15 -0.61,-0.23 -0.57,-0.30 -0.53,-0.37 -0.48,-0.43 -0.43,-0.49 -0.36,-0.53 -0.30,-0.58 -0.22,-0.61 -0.15,-0.63 -0.07,-0.64 0.00,-0.65 0.08,-0.64 0.15,-0.63 0.15,-0.63 L 0.15,-0.63 Z"/></g><g transform="translate(663.47216796875 42.7254753112793) rotate(0 1.04168701171875 3.125)" stroke="none"><path fill="#1e1e1e" d="M 0.46,-0.46 Q 0.46,-0.46 1.04,-0.24 1.62,-0.02 1.96,0.40 2.29,0.83 2.72,1.73 3.15,2.64 2.06,4.59 0.97,6.54 0.89,6.60 0.80,6.67 0.70,6.70 0.60,6.73 0.49,6.73 0.39,6.73 0.29,6.70 0.19,6.66 0.10,6.60 0.02,6.54 -0.03,6.45 -0.09,6.36 -0.12,6.26 -0.15,6.16 -0.14,6.05 -0.14,5.94 -0.10,5.84 -0.06,5.75 0.00,5.66 0.07,5.58 0.16,5.53 0.25,5.47 0.36,5.45 0.46,5.43 0.57,5.44 0.67,5.45 0.77,5.50 0.86,5.54 0.94,5.61 1.02,5.69 1.07,5.78 1.12,5.88 1.13,5.98 1.15,6.09 1.13,6.19 1.12,6.30 1.07,6.39 1.02,6.48 0.94,6.56 0.86,6.63 0.77,6.67 0.67,6.72 0.56,6.73 0.46,6.74 0.35,6.72 0.25,6.69 0.16,6.64 0.07,6.58 0.00,6.50 -0.06,6.42 -0.10,6.32 -0.14,6.23 -0.14,6.12 -0.15,6.01 -0.12,5.91 -0.09,5.81 -0.03,5.72 0.02,5.63 0.02,5.63 0.02,5.63 0.37,4.24 0.72,2.86 0.34,2.24 -0.02,1.62 -0.24,1.04 -0.46,0.46 -0.51,0.40 -0.56,0.33 -0.59,0.26 -0.62,0.19 -0.64,0.11 -0.65,0.03 -0.65,-0.03 -0.64,-0.11 -0.62,-0.19 -0.59,-0.26 -0.55,-0.33 -0.51,-0.40 -0.46,-0.46 -0.40,-0.51 -0.33,-0.55 -0.26,-0.59 -0.19,-0.62 -0.11,-0.64 -0.03,-0.65 0.03,-0.65 0.11,-0.64 0.19,-0.62 0.26,-0.59 0.33,-0.56 0.40,-0.51 0.46,-0.46 0.46,-0.46 L 0.46,-0.46 Z"/></g><g transform="translate(668.6805419921875 39.25326156616211) rotate(0 -0.173614501953125 9.375)" stroke="none"><path fill="#1e1e1e" d="M 0.61,-0.23 Q 0.61,-0.23 1.44,1.28 2.28,2.79 2.69,4.54 3.10,6.29 3.19,7.81 3.27,9.34 2.79,11.41 2.32,13.49 1.50,15.00 0.69,16.51 -0.57,17.59 -1.84,18.68 -1.92,18.74 -2.00,18.81 -2.10,18.85 -2.20,18.89 -2.31,18.89 -2.42,18.90 -2.52,18.87 -2.62,18.84 -2.71,18.78 -2.79,18.71 -2.86,18.63 -2.92,18.54 -2.95,18.44 -2.98,18.34 -2.98,18.23 -2.98,18.13 -2.95,18.03 -2.91,17.93 -2.84,17.84 -2.78,17.76 -2.69,17.70 -2.60,17.64 -2.50,17.62 -2.40,17.59 -2.29,17.60 -2.18,17.61 -2.09,17.65 -1.99,17.69 -1.91,17.76 -1.83,17.83 -1.77,17.92 -1.72,18.01 -1.70,18.11 -1.68,18.22 -1.69,18.32 -1.70,18.43 -1.75,18.53 -1.80,18.62 -1.87,18.70 -1.95,18.77 -2.04,18.82 -2.13,18.87 -2.24,18.89 -2.34,18.90 -2.45,18.88 -2.55,18.86 -2.65,18.81 -2.74,18.76 -2.81,18.68 -2.88,18.60 -2.93,18.51 -2.97,18.41 -2.98,18.30 -2.99,18.20 -2.97,18.10 -2.94,17.99 -2.88,17.90 -2.83,17.81 -2.83,17.81 -2.83,17.81 -2.11,16.63 -1.39,15.44 -0.80,14.14 -0.21,12.84 0.26,11.12 0.74,9.40 0.72,8.10 0.70,6.79 0.41,5.19 0.11,3.59 -0.24,1.91 -0.61,0.23 -0.63,0.15 -0.65,0.07 -0.65,-0.00 -0.65,-0.08 -0.63,-0.15 -0.61,-0.23 -0.57,-0.30 -0.53,-0.37 -0.48,-0.43 -0.43,-0.49 -0.36,-0.53 -0.30,-0.58 -0.22,-0.61 -0.15,-0.63 -0.07,-0.64 0.00,-0.65 0.08,-0.64 0.15,-0.63 0.23,-0.60 0.30,-0.58 0.37,-0.53 0.43,-0.48 0.48,-0.43 0.54,-0.37 0.57,-0.30 0.61,-0.23 0.61,-0.23 L 0.61,-0.23 Z"/></g><g transform="translate(676.6666259765625 54.87826156616211) rotate(0 0 6.423606872558594)" stroke="none"><path fill="#1e1e1e" d="M 0.65,0.03 Q 0.65,0.03 0.82,1.84 1.00,3.66 0.96,5.30 0.93,6.94 0.62,9.79 0.31,12.64 0.29,12.75 0.27,12.85 0.22,12.94 0.17,13.04 0.09,13.11 0.02,13.18 -0.07,13.23 -0.17,13.27 -0.27,13.28 -0.38,13.29 -0.48,13.27 -0.59,13.24 -0.68,13.19 -0.77,13.13 -0.83,13.05 -0.90,12.97 -0.94,12.87 -0.98,12.77 -0.98,12.66 -0.99,12.56 -0.96,12.46 -0.93,12.35 -0.87,12.27 -0.81,12.18 -0.73,12.12 -0.64,12.05 -0.54,12.02 -0.44,11.99 -0.33,11.99 -0.23,11.99 -0.13,12.02 -0.02,12.06 0.05,12.12 0.13,12.19 0.19,12.28 0.25,12.37 0.28,12.47 0.31,12.57 0.30,12.68 0.29,12.78 0.25,12.88 0.21,12.98 0.14,13.06 0.07,13.14 -0.01,13.19 -0.10,13.25 -0.20,13.27 -0.31,13.29 -0.41,13.28 -0.52,13.27 -0.61,13.22 -0.71,13.18 -0.79,13.10 -0.86,13.03 -0.91,12.93 -0.96,12.84 -0.98,12.73 -0.99,12.63 -0.99,12.63 -0.99,12.63 -1.24,9.76 -1.49,6.88 -1.44,5.20 -1.39,3.52 -1.02,1.74 -0.65,-0.03 -0.64,-0.11 -0.62,-0.19 -0.59,-0.26 -0.56,-0.33 -0.51,-0.39 -0.46,-0.46 -0.40,-0.51 -0.34,-0.56 -0.27,-0.59 -0.19,-0.62 -0.12,-0.64 -0.04,-0.65 0.03,-0.65 0.11,-0.64 0.19,-0.62 0.26,-0.60 0.33,-0.55 0.40,-0.51 0.45,-0.46 0.51,-0.40 0.55,-0.33 0.59,-0.27 0.62,-0.19 0.64,-0.12 0.65,-0.04 0.65,0.03 0.65,0.03 L 0.65,0.03 Z"/></g><g transform="translate(682.9166259765625 58.69770431518555) rotate(0 2.2569580078125 3.125)" stroke="none"><path fill="#1e1e1e" d="M 0.49,-0.43 Q 0.49,-0.43 1.39,0.19 2.29,0.81 2.91,1.56 3.53,2.30 4.29,4.06 5.04,5.81 5.06,5.91 5.09,6.01 5.07,6.12 5.06,6.23 5.02,6.32 4.97,6.42 4.90,6.49 4.82,6.57 4.73,6.62 4.64,6.67 4.53,6.68 4.43,6.70 4.32,6.68 4.22,6.66 4.12,6.61 4.03,6.56 3.96,6.49 3.88,6.41 3.84,6.31 3.80,6.21 3.79,6.11 3.78,6.00 3.80,5.90 3.82,5.80 3.88,5.71 3.93,5.61 4.02,5.55 4.10,5.48 4.20,5.44 4.30,5.40 4.40,5.40 4.51,5.39 4.61,5.42 4.71,5.45 4.80,5.51 4.89,5.57 4.95,5.66 5.01,5.74 5.05,5.84 5.08,5.94 5.08,6.05 5.08,6.16 5.04,6.26 5.01,6.36 4.94,6.44 4.88,6.52 4.79,6.58 4.70,6.64 4.60,6.67 4.50,6.70 4.39,6.69 4.28,6.68 4.19,6.64 4.09,6.60 4.01,6.53 3.93,6.46 3.87,6.37 3.82,6.28 3.82,6.28 3.82,6.28 2.73,5.06 1.64,3.83 1.07,3.11 0.50,2.38 0.00,1.40 -0.49,0.43 -0.53,0.36 -0.58,0.30 -0.61,0.22 -0.63,0.15 -0.64,0.07 -0.65,-0.00 -0.64,-0.08 -0.63,-0.16 -0.60,-0.23 -0.57,-0.30 -0.53,-0.37 -0.48,-0.43 -0.42,-0.49 -0.36,-0.54 -0.29,-0.57 -0.22,-0.61 -0.15,-0.63 -0.07,-0.65 0.00,-0.65 0.08,-0.65 0.15,-0.63 0.23,-0.61 0.30,-0.57 0.37,-0.53 0.43,-0.48 0.49,-0.43 0.49,-0.43 L 0.49,-0.43 Z"/></g><g transform="translate(681.8749389648438 64.6004753112793) rotate(0 4.340301513671875 -2.7777786254882812)" stroke="none"><path fill="#1e1e1e" d="M -0.43,-0.49 Q -0.43,-0.49 0.32,-1.44 1.09,-2.39 1.99,-3.08 2.90,-3.77 3.85,-4.26 4.79,-4.76 6.28,-5.29 7.77,-5.82 7.87,-5.85 7.97,-5.89 8.07,-5.88 8.18,-5.88 8.28,-5.85 8.38,-5.81 8.46,-5.75 8.55,-5.68 8.61,-5.59 8.67,-5.51 8.69,-5.40 8.72,-5.30 8.71,-5.19 8.71,-5.09 8.67,-4.99 8.62,-4.89 8.55,-4.81 8.49,-4.73 8.39,-4.68 8.30,-4.62 8.20,-4.60 8.09,-4.58 7.99,-4.59 7.88,-4.61 7.79,-4.65 7.69,-4.70 7.61,-4.77 7.54,-4.85 7.49,-4.94 7.44,-5.03 7.43,-5.14 7.41,-5.24 7.43,-5.35 7.45,-5.45 7.50,-5.55 7.55,-5.64 7.63,-5.71 7.70,-5.78 7.80,-5.83 7.90,-5.87 8.00,-5.88 8.11,-5.89 8.21,-5.87 8.32,-5.84 8.41,-5.79 8.50,-5.73 8.56,-5.65 8.63,-5.57 8.67,-5.47 8.71,-5.37 8.71,-5.26 8.72,-5.16 8.69,-5.06 8.66,-4.95 8.60,-4.87 8.54,-4.78 8.45,-4.72 8.37,-4.65 8.37,-4.65 8.37,-4.65 7.09,-3.76 5.81,-2.87 5.01,-2.42 4.21,-1.97 3.35,-1.38 2.50,-0.80 1.46,-0.15 0.43,0.49 0.37,0.53 0.30,0.58 0.23,0.60 0.15,0.63 0.07,0.64 0.00,0.65 -0.07,0.64 -0.15,0.63 -0.23,0.60 -0.30,0.58 -0.36,0.53 -0.43,0.49 -0.48,0.43 -0.53,0.37 -0.57,0.30 -0.61,0.23 -0.63,0.15 -0.65,0.08 -0.65,0.00 -0.65,-0.07 -0.63,-0.15 -0.61,-0.23 -0.57,-0.30 -0.54,-0.37 -0.48,-0.43 -0.43,-0.49 -0.43,-0.49 L -0.43,-0.49 Z"/></g><g transform="translate(681.1805419921875 55.2254753112793) rotate(0 4.166656494140625 0.34722137451171875)" stroke="none"><path fill="#1e1e1e" d="M 0.14,-0.64 Q 0.14,-0.64 1.08,-0.64 2.02,-0.64 2.84,-0.59 3.66,-0.55 4.33,-0.62 5.01,-0.70 6.67,-0.34 8.34,0.00 8.43,0.05 8.53,0.10 8.60,0.18 8.68,0.25 8.72,0.35 8.77,0.44 8.78,0.55 8.80,0.65 8.78,0.76 8.75,0.86 8.70,0.95 8.65,1.05 8.57,1.12 8.49,1.19 8.39,1.23 8.29,1.27 8.19,1.28 8.08,1.28 7.98,1.26 7.88,1.23 7.79,1.17 7.70,1.11 7.63,1.03 7.57,0.95 7.53,0.85 7.49,0.75 7.49,0.64 7.49,0.53 7.52,0.43 7.56,0.33 7.62,0.25 7.68,0.16 7.77,0.10 7.86,0.04 7.96,0.01 8.06,-0.01 8.17,-0.01 8.27,-0.00 8.37,0.02 8.47,0.06 8.55,0.13 8.63,0.20 8.69,0.29 8.75,0.38 8.77,0.48 8.80,0.58 8.79,0.69 8.78,0.80 8.73,0.89 8.69,0.99 8.62,1.07 8.55,1.15 8.45,1.20 8.36,1.25 8.26,1.27 8.15,1.29 8.05,1.27 7.94,1.26 7.94,1.26 7.94,1.26 6.57,1.42 5.20,1.58 4.32,1.63 3.45,1.69 2.50,1.56 1.56,1.44 0.71,1.04 -0.14,0.64 -0.21,0.61 -0.29,0.58 -0.35,0.54 -0.42,0.50 -0.47,0.44 -0.53,0.38 -0.57,0.31 -0.60,0.24 -0.62,0.17 -0.64,0.09 -0.65,0.01 -0.65,-0.06 -0.63,-0.14 -0.61,-0.21 -0.58,-0.28 -0.54,-0.36 -0.49,-0.42 -0.44,-0.48 -0.38,-0.52 -0.31,-0.57 -0.24,-0.60 -0.17,-0.63 -0.09,-0.64 -0.01,-0.65 0.06,-0.64 0.14,-0.64 0.14,-0.64 L 0.14,-0.64 Z"/></g><g transform="translate(688.1249389648438 52.1004753112793) rotate(0 1.388885498046875 3.298614501953125)" stroke="none"><path fill="#1e1e1e" d="M 0.55,-0.34 Q 0.55,-0.34 1.26,0.31 1.97,0.98 2.36,1.47 2.75,1.96 2.12,4.32 1.48,6.67 1.40,6.74 1.32,6.81 1.22,6.85 1.12,6.89 1.02,6.90 0.91,6.90 0.81,6.87 0.70,6.85 0.62,6.79 0.53,6.73 0.46,6.64 0.40,6.56 0.37,6.46 0.33,6.36 0.33,6.25 0.33,6.14 0.37,6.04 0.40,5.94 0.46,5.86 0.53,5.77 0.62,5.71 0.70,5.65 0.81,5.63 0.91,5.60 1.02,5.60 1.12,5.61 1.22,5.65 1.32,5.69 1.40,5.76 1.48,5.82 1.54,5.92 1.59,6.01 1.61,6.11 1.64,6.21 1.62,6.32 1.61,6.43 1.57,6.52 1.52,6.62 1.45,6.70 1.38,6.77 1.28,6.82 1.19,6.87 1.09,6.89 0.98,6.91 0.88,6.89 0.77,6.87 0.68,6.82 0.58,6.77 0.51,6.70 0.44,6.62 0.39,6.52 0.35,6.43 0.34,6.32 0.32,6.21 0.35,6.11 0.37,6.01 0.43,5.92 0.48,5.82 0.48,5.82 0.48,5.82 0.68,4.60 0.88,3.38 0.45,2.79 0.01,2.20 -0.26,1.27 -0.55,0.34 -0.59,0.27 -0.62,0.20 -0.63,0.12 -0.65,0.04 -0.65,-0.02 -0.64,-0.10 -0.62,-0.18 -0.60,-0.26 -0.56,-0.32 -0.52,-0.39 -0.46,-0.45 -0.41,-0.51 -0.34,-0.55 -0.27,-0.59 -0.20,-0.61 -0.12,-0.64 -0.04,-0.65 0.02,-0.65 0.10,-0.64 0.18,-0.62 0.25,-0.59 0.33,-0.56 0.39,-0.51 0.45,-0.47 0.50,-0.40 0.55,-0.34 0.55,-0.34 L 0.55,-0.34 Z"/></g><g transform="translate(694.72216796875 56.61436080932617) rotate(0 2.951385498046875 6.423614501953125)" stroke="none"><path fill="#1e1e1e" d="M 0.51,-0.40 Q 0.51,-0.40 1.44,0.31 2.37,1.03 3.22,1.84 4.07,2.66 4.72,3.19 5.37,3.73 5.96,4.37 6.56,5.00 6.83,5.96 7.10,6.92 6.82,7.92 6.55,8.92 5.80,9.80 5.05,10.67 3.24,11.73 1.43,12.79 1.34,12.84 1.25,12.89 1.14,12.92 1.04,12.94 0.93,12.93 0.83,12.92 0.73,12.87 0.64,12.83 0.56,12.75 0.48,12.68 0.43,12.58 0.38,12.49 0.37,12.39 0.35,12.28 0.37,12.18 0.38,12.07 0.43,11.98 0.49,11.88 0.56,11.81 0.64,11.74 0.74,11.69 0.83,11.65 0.94,11.64 1.04,11.63 1.15,11.65 1.25,11.67 1.34,11.73 1.43,11.79 1.50,11.87 1.57,11.95 1.61,12.05 1.65,12.15 1.65,12.25 1.66,12.36 1.63,12.46 1.60,12.56 1.54,12.65 1.48,12.74 1.40,12.80 1.31,12.87 1.21,12.90 1.11,12.93 1.00,12.93 0.90,12.93 0.80,12.90 0.70,12.86 0.61,12.80 0.53,12.73 0.47,12.64 0.41,12.56 0.38,12.45 0.35,12.35 0.36,12.25 0.37,12.14 0.41,12.04 0.45,11.94 0.51,11.86 0.58,11.78 0.58,11.78 0.58,11.78 1.78,10.30 2.98,8.82 3.45,8.34 3.91,7.85 4.20,7.21 4.49,6.57 4.10,6.13 3.72,5.68 3.01,5.06 2.30,4.45 1.36,3.50 0.42,2.55 -0.04,1.48 -0.51,0.40 -0.55,0.33 -0.59,0.26 -0.62,0.19 -0.64,0.11 -0.65,0.03 -0.65,-0.04 -0.64,-0.11 -0.62,-0.19 -0.59,-0.26 -0.56,-0.34 -0.51,-0.40 -0.46,-0.46 -0.40,-0.51 -0.33,-0.56 -0.26,-0.59 -0.19,-0.62 -0.11,-0.64 -0.03,-0.65 0.04,-0.65 0.12,-0.64 0.19,-0.62 0.27,-0.59 0.33,-0.55 0.40,-0.51 0.46,-0.45 0.51,-0.40 0.51,-0.40 L 0.51,-0.40 Z"/></g><g transform="translate(698.8888549804688 78.14214706420898) rotate(0 2.951385498046875 -3.8194427490234375)" stroke="none"><path fill="#1e1e1e" d="M -0.59,-0.27 Q -0.59,-0.27 -0.35,-1.48 -0.11,-2.70 0.40,-3.70 0.91,-4.71 1.31,-5.59 1.70,-6.48 2.26,-7.20 2.81,-7.92 3.14,-8.34 3.47,-8.75 3.56,-8.88 3.66,-9.00 3.78,-9.10 3.90,-9.20 4.04,-9.26 4.18,-9.33 4.33,-9.36 4.48,-9.39 4.64,-9.38 4.79,-9.38 4.94,-9.33 5.09,-9.29 5.22,-9.21 5.36,-9.13 5.47,-9.03 5.58,-8.92 5.66,-8.79 5.74,-8.66 5.79,-8.51 5.84,-8.36 5.85,-8.21 5.87,-8.05 5.84,-7.90 5.82,-7.75 5.75,-7.61 5.69,-7.46 6.12,-6.74 6.55,-6.02 6.71,-5.15 6.87,-4.29 6.55,-1.90 6.22,0.48 6.20,0.59 6.17,0.69 6.12,0.78 6.06,0.87 5.98,0.94 5.90,1.01 5.80,1.04 5.70,1.08 5.59,1.09 5.49,1.09 5.38,1.06 5.28,1.03 5.20,0.97 5.11,0.91 5.05,0.82 4.98,0.73 4.95,0.63 4.92,0.53 4.92,0.43 4.92,0.32 4.96,0.22 4.99,0.12 5.06,0.04 5.13,-0.04 5.21,-0.10 5.30,-0.15 5.41,-0.18 5.51,-0.21 5.62,-0.20 5.72,-0.19 5.82,-0.15 5.92,-0.11 6.00,-0.04 6.08,0.02 6.13,0.11 6.18,0.21 6.20,0.31 6.23,0.41 6.21,0.52 6.20,0.62 6.15,0.72 6.11,0.82 6.03,0.89 5.96,0.97 5.86,1.02 5.77,1.06 5.66,1.08 5.56,1.09 5.45,1.07 5.35,1.06 5.25,1.00 5.16,0.95 5.09,0.87 5.02,0.80 4.98,0.70 4.93,0.60 4.92,0.50 4.91,0.39 4.91,0.39 4.91,0.39 4.66,-1.69 4.41,-3.79 4.22,-4.64 4.03,-5.49 3.91,-6.17 3.80,-6.85 3.63,-7.80 3.47,-8.75 3.56,-8.88 3.66,-9.00 3.78,-9.10 3.90,-9.20 4.04,-9.26 4.18,-9.33 4.33,-9.36 4.48,-9.39 4.64,-9.38 4.79,-9.38 4.94,-9.33 5.09,-9.29 5.22,-9.21 5.36,-9.14 5.47,-9.03 5.58,-8.92 5.66,-8.79 5.74,-8.66 5.79,-8.51 5.84,-8.36 5.85,-8.21 5.87,-8.05 5.84,-7.90 5.82,-7.75 5.75,-7.61 5.69,-7.46 5.25,-6.89 4.80,-6.31 4.40,-5.86 4.00,-5.40 3.56,-4.47 3.12,-3.54 2.61,-2.61 2.10,-1.69 1.35,-0.70 0.59,0.27 0.55,0.33 0.51,0.40 0.45,0.46 0.40,0.51 0.33,0.55 0.26,0.59 0.19,0.62 0.11,0.64 0.03,0.65 -0.04,0.65 -0.11,0.64 -0.19,0.62 -0.26,0.59 -0.34,0.56 -0.40,0.51 -0.46,0.46 -0.51,0.40 -0.56,0.33 -0.59,0.26 -0.62,0.19 -0.64,0.11 -0.65,0.03 -0.65,-0.04 -0.64,-0.12 -0.62,-0.19 -0.59,-0.27 -0.59,-0.27 L -0.59,-0.27 Z"/></g><g transform="translate(701.6666259765625 75.01714706420898) rotate(0 2.4305419921875 -0.173614501953125)" stroke="none"><path fill="#1e1e1e" d="M -0.05,-0.65 Q -0.05,-0.65 2.17,-0.81 4.40,-0.97 4.51,-0.96 4.62,-0.95 4.71,-0.91 4.81,-0.86 4.89,-0.79 4.97,-0.72 5.02,-0.63 5.07,-0.53 5.09,-0.43 5.10,-0.32 5.09,-0.22 5.07,-0.11 5.02,-0.02 4.97,0.07 4.90,0.14 4.82,0.21 4.73,0.26 4.63,0.31 4.52,0.32 4.42,0.33 4.31,0.31 4.21,0.29 4.12,0.23 4.03,0.18 3.96,0.10 3.89,0.02 3.85,-0.07 3.81,-0.17 3.80,-0.27 3.79,-0.38 3.82,-0.48 3.85,-0.58 3.91,-0.67 3.97,-0.76 4.05,-0.83 4.13,-0.89 4.23,-0.93 4.33,-0.96 4.44,-0.96 4.55,-0.96 4.65,-0.93 4.75,-0.90 4.83,-0.84 4.92,-0.77 4.98,-0.68 5.04,-0.60 5.07,-0.50 5.10,-0.39 5.09,-0.29 5.09,-0.18 5.05,-0.08 5.01,0.01 4.95,0.09 4.88,0.17 4.79,0.23 4.70,0.28 4.59,0.31 4.49,0.33 4.49,0.33 4.49,0.33 2.27,0.49 0.05,0.65 -0.02,0.65 -0.10,0.64 -0.18,0.62 -0.25,0.60 -0.32,0.56 -0.39,0.52 -0.45,0.46 -0.51,0.41 -0.55,0.34 -0.59,0.27 -0.61,0.20 -0.64,0.12 -0.64,0.04 -0.65,-0.02 -0.64,-0.10 -0.63,-0.18 -0.59,-0.25 -0.56,-0.33 -0.51,-0.39 -0.47,-0.45 -0.41,-0.50 -0.34,-0.55 -0.27,-0.59 -0.20,-0.62 -0.12,-0.63 -0.05,-0.65 -0.05,-0.65 L -0.05,-0.65 Z"/></g></svg>