<svg version="1.1" xmlns="http://www.w3.org/2000/svg" viewBox="0 0 428.8901062011719 370.1656150817871" width="428.8901062011719" height="370.1656150817871" filter="invert(93%) hue-rotate(180deg)" class="excalidraw-svg">
  <!-- svg-source:excalidraw -->
  
  <defs>
    <style class="style-fonts">
      @font-face {
        font-family: "Virgil";
        src: url("https://excalidraw.com/Virgil.woff2");
      }
      @font-face {
        font-family: "Cascadia";
        src: url("https://excalidraw.com/Cascadia.woff2");
      }
      @font-face {
        font-family: "Assistant";
        src: url("https://excalidraw.com/Assistant-Regular.woff2");
      }
    </style>
    
  </defs>
  <rect x="0" y="0" width="428.8901062011719" height="370.1656150817871" fill="#ffffff"/><g stroke-linecap="round"><g transform="translate(207.75604248046875 264.3141746520996) rotate(0 -1.901824951171875 -121.71611022949219)"><path d="M0 0 C-1.14 -72.95, -2.28 -145.91, -3.8 -243.43 M0 0 C-1.42 -90.58, -2.83 -181.16, -3.8 -243.43" stroke="#1e1e1e" stroke-width="2" fill="none"/></g><g transform="translate(207.75604248046875 264.3141746520996) rotate(0 -1.901824951171875 -121.71611022949219)"><path d="M5.11 -220.08 C2.44 -227.08, -0.23 -234.08, -3.8 -243.43 M5.11 -220.08 C1.79 -228.77, -1.52 -237.46, -3.8 -243.43" stroke="#1e1e1e" stroke-width="2" fill="none"/></g><g transform="translate(207.75604248046875 264.3141746520996) rotate(0 -1.901824951171875 -121.71611022949219)"><path d="M-11.99 -219.81 C-9.53 -226.89, -7.08 -233.97, -3.8 -243.43 M-11.99 -219.81 C-8.94 -228.6, -5.9 -237.39, -3.8 -243.43" stroke="#1e1e1e" stroke-width="2" fill="none"/></g></g><mask/><g stroke-linecap="round"><g transform="translate(206.99530029296875 263.55349349975586) rotate(0 103.83905029296875 34.993377685546875)"><path d="M0 0 C68.01 22.92, 136.02 45.84, 207.68 69.99 M0 0 C44.44 14.98, 88.89 29.96, 207.68 69.99" stroke="#1e1e1e" stroke-width="2" fill="none"/></g><g transform="translate(206.99530029296875 263.55349349975586) rotate(0 103.83905029296875 34.993377685546875)"><path d="M182.69 70.59 C190.87 70.39, 199.05 70.19, 207.68 69.99 M182.69 70.59 C188.03 70.46, 193.38 70.33, 207.68 69.99" stroke="#1e1e1e" stroke-width="2" fill="none"/></g><g transform="translate(206.99530029296875 263.55349349975586) rotate(0 103.83905029296875 34.993377685546875)"><path d="M188.15 54.38 C194.54 59.49, 200.94 64.6, 207.68 69.99 M188.15 54.38 C192.33 57.72, 196.51 61.06, 207.68 69.99" stroke="#1e1e1e" stroke-width="2" fill="none"/></g></g><mask/><g stroke-linecap="round"><g transform="translate(206.99530029296875 263.55349349975586) rotate(0 -89.00491333007812 48.306060791015625)"><path d="M0 0 C-69.57 37.76, -139.14 75.52, -178.01 96.61 M0 0 C-57.12 31, -114.23 62, -178.01 96.61" stroke="#1e1e1e" stroke-width="2" fill="none"/></g><g transform="translate(206.99530029296875 263.55349349975586) rotate(0 -89.00491333007812 48.306060791015625)"><path d="M-161.44 77.89 C-167.92 85.21, -174.39 92.52, -178.01 96.61 M-161.44 77.89 C-166.76 83.9, -172.07 89.9, -178.01 96.61" stroke="#1e1e1e" stroke-width="2" fill="none"/></g><g transform="translate(206.99530029296875 263.55349349975586) rotate(0 -89.00491333007812 48.306060791015625)"><path d="M-153.28 92.92 C-162.95 94.36, -172.61 95.81, -178.01 96.61 M-153.28 92.92 C-161.22 94.11, -169.15 95.29, -178.01 96.61" stroke="#1e1e1e" stroke-width="2" fill="none"/></g></g><mask/><g stroke-linecap="round"><g transform="translate(61.69671630859375 339.6260643005371) rotate(0 -2.282196044921875 -89.00491333007812)"><path d="M0 0 C-1.03 -40.3, -2.07 -80.6, -4.56 -178.01" stroke="#1e1e1e" stroke-width="2.5" fill="none" stroke-dasharray="1.5 8"/></g></g><mask/><g stroke-linecap="round"><g transform="translate(54.85015869140625 166.94131088256836) rotate(0 73.0296630859375 -34.99339294433594)"><path d="M0 0 C50.29 -24.1, 100.59 -48.2, 146.06 -69.99" stroke="#1e1e1e" stroke-width="2.5" fill="none" stroke-dasharray="1.5 8"/></g></g><mask/><g stroke-linecap="round"><g transform="translate(204.713134765625 262.79275131225586) rotate(0 -49.447174072265625 -32.330841064453125)"><path d="M0 0 C-39.19 -25.62, -78.38 -51.25, -98.89 -64.66 M0 0 C-35.83 -23.42, -71.65 -46.85, -98.89 -64.66" stroke="#1e1e1e" stroke-width="1" fill="none"/></g><g transform="translate(204.713134765625 262.79275131225586) rotate(0 -49.447174072265625 -32.330841064453125)"><path d="M-74.55 -58.96 C-84.2 -61.22, -93.84 -63.48, -98.89 -64.66 M-74.55 -58.96 C-83.37 -61.03, -92.19 -63.09, -98.89 -64.66" stroke="#1e1e1e" stroke-width="1" fill="none"/></g><g transform="translate(204.713134765625 262.79275131225586) rotate(0 -49.447174072265625 -32.330841064453125)"><path d="M-83.91 -44.65 C-89.85 -52.58, -95.79 -60.51, -98.89 -64.66 M-83.91 -44.65 C-89.34 -51.9, -94.77 -59.15, -98.89 -64.66" stroke="#1e1e1e" stroke-width="1" fill="none"/></g></g><mask/><g transform="translate(125.59765625 185.19872665405273) rotate(0 11.410888671875 -2.6625518798828125)" stroke="none"><path fill="#1e1e1e" d="M 0.29,0.58 Q 0.29,0.58 -0.05,1.00 -0.39,1.41 -1.47,1.32 -2.55,1.24 -2.95,0.74 -3.34,0.25 -3.25,-0.93 -3.16,-2.11 -2.58,-3.15 -1.99,-4.20 -1.06,-5.29 -0.13,-6.38 0.96,-7.32 2.07,-8.26 3.02,-8.90 3.97,-9.54 5.17,-9.38 6.37,-9.21 7.23,-8.23 8.08,-7.25 8.42,-6.02 8.75,-4.79 8.64,-3.06 8.54,-1.34 8.48,-0.28 8.43,0.76 8.41,1.42 8.39,2.09 8.38,2.59 8.37,3.10 8.34,3.28 8.31,3.46 8.24,3.63 8.17,3.80 8.06,3.94 7.95,4.09 7.81,4.21 7.67,4.32 7.51,4.40 7.34,4.48 7.17,4.52 6.99,4.56 6.81,4.55 6.62,4.54 6.45,4.50 6.27,4.45 6.11,4.36 5.96,4.27 5.82,4.14 5.69,4.02 5.59,3.86 5.49,3.71 5.43,3.54 5.38,3.36 5.36,3.18 5.34,3.00 5.60,2.13 5.85,1.25 6.41,0.02 6.98,-1.20 7.71,-2.25 8.45,-3.30 8.98,-3.94 9.52,-4.59 9.98,-5.08 10.43,-5.56 11.35,-6.32 12.27,-7.07 13.15,-6.79 14.02,-6.50 14.42,-5.67 14.83,-4.84 14.68,-3.87 14.53,-2.91 14.48,-2.29 14.43,-1.68 14.40,-1.16 14.37,-0.64 14.34,-0.47 14.30,-0.30 14.23,-0.15 14.15,-0.00 14.04,0.12 13.93,0.25 13.80,0.35 13.66,0.45 13.50,0.52 13.34,0.58 13.18,0.61 13.01,0.63 12.84,0.62 12.67,0.60 12.51,0.55 12.35,0.49 12.21,0.40 12.06,0.30 11.95,0.18 11.83,0.06 11.75,-0.08 11.67,-0.23 11.62,-0.39 11.58,-0.56 11.57,-0.73 11.57,-0.90 12.37,-1.67 13.17,-2.45 13.65,-2.89 14.13,-3.32 14.51,-3.86 14.88,-4.41 15.35,-4.96 15.82,-5.51 16.42,-5.88 17.01,-6.25 18.25,-6.05 19.48,-5.86 19.79,-5.39 20.10,-4.92 20.23,-4.13 20.36,-3.34 20.41,-2.59 20.46,-1.85 20.47,-1.14 20.49,-0.44 21.09,0.00 21.69,0.44 23.08,0.38 24.46,0.31 24.57,0.28 24.67,0.26 24.78,0.27 24.88,0.28 24.98,0.32 25.08,0.37 25.15,0.44 25.23,0.51 25.28,0.60 25.33,0.70 25.35,0.80 25.37,0.91 25.36,1.01 25.34,1.12 25.29,1.21 25.24,1.30 25.17,1.38 25.09,1.45 25.00,1.50 24.90,1.55 24.80,1.56 24.69,1.57 24.59,1.55 24.48,1.53 24.39,1.48 24.30,1.42 24.23,1.34 24.16,1.26 24.12,1.16 24.08,1.07 24.07,0.96 24.06,0.85 24.09,0.75 24.12,0.65 24.17,0.56 24.23,0.47 24.32,0.41 24.40,0.34 24.50,0.30 24.60,0.27 24.71,0.27 24.81,0.27 24.91,0.30 25.01,0.33 25.10,0.39 25.19,0.46 25.25,0.54 25.31,0.63 25.34,0.73 25.37,0.83 25.36,0.94 25.36,1.05 25.32,1.15 25.28,1.25 25.22,1.33 25.15,1.41 25.06,1.47 24.97,1.52 24.97,1.52 24.97,1.52 22.77,2.35 20.57,3.17 19.62,2.61 18.66,2.04 18.08,0.92 17.50,-0.19 17.49,-0.96 17.48,-1.72 17.69,-2.68 17.91,-3.65 17.53,-3.20 17.16,-2.75 16.57,-1.97 15.98,-1.19 15.18,-0.91 14.37,-0.64 14.34,-0.47 14.30,-0.30 14.23,-0.15 14.15,-0.00 14.04,0.12 13.93,0.25 13.80,0.35 13.66,0.45 13.50,0.52 13.34,0.58 13.18,0.61 13.01,0.63 12.84,0.62 12.67,0.60 12.51,0.55 12.35,0.49 12.21,0.40 12.06,0.30 11.95,0.18 11.83,0.06 11.75,-0.08 11.67,-0.23 11.62,-0.39 11.58,-0.56 11.57,-0.73 11.57,-0.90 11.59,-1.42 11.62,-1.94 11.87,-3.09 12.12,-4.23 12.61,-4.50 13.11,-4.76 12.87,-4.21 12.62,-3.66 12.22,-3.19 11.81,-2.72 11.35,-2.14 10.88,-1.56 10.29,-0.75 9.71,0.05 9.04,1.58 8.37,3.10 8.34,3.28 8.31,3.46 8.24,3.63 8.17,3.80 8.06,3.94 7.95,4.09 7.81,4.21 7.67,4.32 7.51,4.40 7.34,4.48 7.17,4.52 6.99,4.56 6.81,4.55 6.62,4.54 6.45,4.50 6.27,4.45 6.11,4.36 5.96,4.27 5.82,4.14 5.69,4.02 5.59,3.86 5.49,3.71 5.43,3.54 5.38,3.36 5.36,3.18 5.34,3.00 5.35,2.49 5.36,1.99 5.39,1.30 5.41,0.61 5.46,-0.48 5.52,-1.58 5.66,-2.87 5.80,-4.15 5.69,-4.86 5.58,-5.57 5.16,-6.28 4.74,-6.98 4.38,-6.45 4.02,-5.93 3.08,-5.15 2.13,-4.38 1.33,-3.48 0.52,-2.59 0.10,-2.06 -0.30,-1.52 -0.83,-1.03 -1.35,-0.53 -0.82,-0.56 -0.29,-0.58 -0.21,-0.61 -0.14,-0.64 -0.06,-0.64 0.01,-0.65 0.09,-0.64 0.16,-0.63 0.24,-0.60 0.31,-0.57 0.38,-0.52 0.44,-0.48 0.49,-0.42 0.54,-0.36 0.58,-0.29 0.61,-0.22 0.63,-0.14 0.65,-0.06 0.65,0.01 0.65,0.09 0.62,0.16 0.60,0.24 0.57,0.31 0.53,0.38 0.47,0.44 0.42,0.50 0.35,0.54 0.29,0.58 0.29,0.58 L 0.29,0.58 Z"/></g><g transform="translate(133.20489501953125 166.94131088256836) rotate(0 6.846527099609375 -5.3250885009765625)" stroke="none"><path fill="#1e1e1e" d="M -0.39,-0.52 Q -0.39,-0.52 0.30,-1.41 1.00,-2.30 1.96,-3.22 2.92,-4.14 3.71,-5.15 4.51,-6.15 5.28,-7.23 6.05,-8.31 6.62,-9.04 7.19,-9.76 7.71,-10.37 8.23,-10.98 9.03,-11.06 9.83,-11.15 10.54,-10.54 11.26,-9.93 11.88,-9.05 12.50,-8.17 12.98,-7.31 13.46,-6.45 13.83,-4.27 14.21,-2.09 14.22,-1.99 14.23,-1.88 14.21,-1.78 14.19,-1.68 14.13,-1.58 14.08,-1.49 14.00,-1.43 13.91,-1.36 13.82,-1.32 13.72,-1.28 13.61,-1.27 13.51,-1.27 13.40,-1.30 13.30,-1.32 13.21,-1.38 13.12,-1.44 13.06,-1.53 13.00,-1.61 12.96,-1.71 12.93,-1.81 12.93,-1.92 12.93,-2.03 12.96,-2.13 13.00,-2.23 13.06,-2.31 13.13,-2.40 13.21,-2.46 13.30,-2.52 13.40,-2.54 13.51,-2.57 13.61,-2.57 13.72,-2.56 13.82,-2.52 13.92,-2.48 14.00,-2.41 14.08,-2.34 14.13,-2.25 14.19,-2.16 14.21,-2.06 14.23,-1.95 14.22,-1.85 14.21,-1.74 14.16,-1.65 14.12,-1.55 14.05,-1.47 13.97,-1.40 13.88,-1.35 13.79,-1.30 13.68,-1.28 13.58,-1.26 13.47,-1.28 13.37,-1.30 13.27,-1.35 13.18,-1.40 13.11,-1.47 13.03,-1.55 12.99,-1.65 12.94,-1.74 12.94,-1.74 12.94,-1.74 11.98,-3.38 11.01,-5.02 10.55,-5.75 10.09,-6.48 9.74,-7.23 9.40,-7.98 8.84,-7.32 8.29,-6.67 7.44,-5.54 6.59,-4.42 5.64,-3.32 4.68,-2.21 3.59,-1.26 2.49,-0.31 1.44,0.10 0.39,0.52 0.32,0.56 0.25,0.60 0.18,0.62 0.10,0.64 0.02,0.65 -0.05,0.65 -0.13,0.63 -0.20,0.62 -0.28,0.58 -0.35,0.55 -0.41,0.50 -0.47,0.45 -0.52,0.39 -0.56,0.32 -0.59,0.25 -0.63,0.18 -0.64,0.10 -0.65,0.02 -0.64,-0.05 -0.64,-0.13 -0.61,-0.20 -0.59,-0.28 -0.55,-0.34 -0.50,-0.41 -0.45,-0.47 -0.39,-0.52 -0.39,-0.52 L -0.39,-0.52 Z"/></g><g transform="translate(172.001953125 242.2531394958496) rotate(0 16.7359619140625 -13.69305419921875)" stroke="none"><path fill="#1e1e1e" d="M -0.64,-0.12 Q -0.64,-0.12 -0.83,-1.31 -1.01,-2.50 -0.21,-4.05 0.59,-5.61 1.76,-7.73 2.94,-9.85 4.35,-11.90 5.76,-13.96 7.26,-15.74 8.76,-17.53 10.54,-19.21 12.31,-20.88 13.95,-22.26 15.59,-23.63 17.30,-24.52 19.01,-25.41 20.11,-25.96 21.21,-26.51 22.66,-27.01 24.11,-27.51 25.07,-27.90 26.04,-28.29 27.05,-28.51 28.06,-28.73 28.71,-28.81 29.35,-28.88 30.09,-28.83 30.83,-28.78 31.40,-28.44 31.96,-28.10 32.12,-26.95 32.29,-25.80 32.36,-25.77 32.44,-25.74 32.50,-25.69 32.56,-25.64 32.61,-25.58 32.66,-25.52 32.70,-25.45 32.73,-25.38 32.75,-25.30 32.76,-25.22 32.76,-25.14 32.76,-25.06 32.74,-24.99 32.71,-24.91 32.67,-24.84 32.63,-24.78 32.58,-24.72 32.53,-24.66 32.46,-24.62 32.39,-24.58 32.32,-24.55 32.24,-24.53 32.16,-24.52 32.08,-24.51 32.01,-24.53 31.93,-24.54 32.04,-24.53 32.16,-24.51 32.05,-24.52 31.95,-24.53 31.85,-24.57 31.75,-24.62 31.67,-24.69 31.60,-24.76 31.54,-24.85 31.49,-24.94 31.47,-25.05 31.45,-25.15 31.47,-25.26 31.48,-25.36 31.53,-25.46 31.58,-25.55 31.65,-25.63 31.73,-25.70 31.82,-25.75 31.92,-25.80 32.02,-25.81 32.13,-25.82 32.23,-25.80 32.34,-25.78 32.43,-25.73 32.52,-25.68 32.59,-25.60 32.66,-25.52 32.71,-25.42 32.75,-25.32 32.76,-25.22 32.76,-25.11 32.74,-25.01 32.71,-24.91 32.65,-24.82 32.60,-24.73 32.51,-24.66 32.43,-24.60 32.33,-24.56 32.23,-24.52 32.12,-24.52 32.02,-24.52 31.92,-24.55 31.82,-24.58 31.73,-24.64 31.64,-24.71 31.58,-24.79 31.52,-24.88 31.49,-24.98 31.46,-25.08 31.46,-25.19 31.46,-25.30 31.50,-25.39 31.54,-25.49 31.61,-25.58 31.67,-25.66 31.76,-25.72 31.85,-25.77 32.07,-25.79 32.29,-25.80 32.36,-25.77 32.44,-25.74 32.50,-25.69 32.56,-25.64 32.61,-25.58 32.66,-25.52 32.70,-25.45 32.73,-25.38 32.75,-25.30 32.76,-25.22 32.76,-25.14 32.76,-25.06 32.74,-24.99 32.71,-24.91 32.67,-24.84 32.63,-24.78 32.58,-24.72 32.53,-24.66 32.46,-24.62 32.39,-24.58 32.32,-24.55 32.24,-24.53 32.16,-24.52 32.08,-24.51 32.01,-24.53 31.93,-24.54 31.49,-24.87 31.06,-25.20 30.41,-25.43 29.76,-25.66 29.23,-25.59 28.71,-25.52 27.99,-25.39 27.27,-25.25 26.22,-24.82 25.16,-24.39 23.93,-23.98 22.69,-23.57 21.60,-23.02 20.50,-22.46 19.10,-21.78 17.69,-21.09 16.12,-19.79 14.56,-18.48 12.90,-16.95 11.25,-15.41 9.83,-13.76 8.40,-12.11 7.05,-10.19 5.70,-8.28 4.48,-6.19 3.27,-4.11 2.58,-2.99 1.89,-1.87 1.26,-0.87 0.64,0.12 0.61,0.20 0.59,0.27 0.55,0.34 0.51,0.41 0.45,0.46 0.39,0.52 0.32,0.56 0.25,0.60 0.18,0.62 0.10,0.64 0.02,0.65 -0.05,0.65 -0.12,0.63 -0.20,0.62 -0.27,0.59 -0.34,0.55 -0.41,0.50 -0.47,0.45 -0.51,0.39 -0.56,0.33 -0.59,0.25 -0.63,0.18 -0.64,0.10 -0.65,0.02 -0.64,-0.04 -0.64,-0.12 -0.64,-0.12 L -0.64,-0.12 Z"/></g><g transform="translate(156.02667236328125 201.93468856811523) rotate(0 6.8465576171875 -1.141082763671875)" stroke="none"><path fill="#1e1e1e" d="M -0.18,-0.63 Q -0.18,-0.63 1.26,-1.36 2.71,-2.08 4.33,-2.31 5.95,-2.54 7.18,-2.84 8.42,-3.15 11.25,-3.03 14.09,-2.92 14.19,-2.91 14.30,-2.89 14.39,-2.85 14.49,-2.80 14.57,-2.73 14.64,-2.65 14.69,-2.56 14.74,-2.47 14.76,-2.36 14.77,-2.26 14.75,-2.15 14.74,-2.05 14.68,-1.95 14.63,-1.86 14.56,-1.79 14.48,-1.72 14.38,-1.67 14.28,-1.63 14.18,-1.62 14.07,-1.61 13.97,-1.63 13.87,-1.66 13.78,-1.71 13.68,-1.77 13.62,-1.85 13.55,-1.93 13.51,-2.03 13.47,-2.13 13.47,-2.24 13.46,-2.34 13.49,-2.44 13.52,-2.55 13.58,-2.63 13.64,-2.72 13.73,-2.78 13.81,-2.85 13.92,-2.88 14.02,-2.91 14.12,-2.91 14.23,-2.91 14.33,-2.87 14.43,-2.84 14.51,-2.77 14.60,-2.71 14.66,-2.62 14.71,-2.53 14.74,-2.43 14.77,-2.33 14.76,-2.22 14.76,-2.11 14.71,-2.02 14.67,-1.92 14.60,-1.84 14.54,-1.76 14.44,-1.70 14.35,-1.65 14.25,-1.63 14.14,-1.61 14.14,-1.61 14.14,-1.61 11.58,-1.07 9.01,-0.53 7.64,-0.24 6.27,0.05 4.83,0.19 3.40,0.33 1.79,0.48 0.18,0.63 0.10,0.64 0.02,0.65 -0.05,0.64 -0.13,0.64 -0.20,0.61 -0.28,0.59 -0.35,0.54 -0.41,0.50 -0.47,0.44 -0.52,0.39 -0.56,0.32 -0.60,0.25 -0.62,0.17 -0.64,0.10 -0.65,0.02 -0.65,-0.05 -0.63,-0.13 -0.62,-0.21 -0.58,-0.28 -0.55,-0.35 -0.50,-0.41 -0.45,-0.47 -0.38,-0.52 -0.32,-0.56 -0.25,-0.60 -0.18,-0.63 -0.18,-0.63 L -0.18,-0.63 Z"/></g><g transform="translate(161.35174560546875 201.17397689819336) rotate(0 0 3.803619384765625)" stroke="none"><path fill="#1e1e1e" d="M 0.65,0 Q 0.65,0 0.93,0.87 1.20,1.74 1.23,2.55 1.25,3.36 0.95,5.34 0.65,7.32 0.63,7.42 0.62,7.53 0.57,7.62 0.52,7.72 0.44,7.79 0.36,7.86 0.27,7.91 0.17,7.95 0.07,7.96 -0.03,7.97 -0.13,7.95 -0.24,7.93 -0.33,7.87 -0.42,7.82 -0.49,7.74 -0.56,7.66 -0.60,7.56 -0.64,7.46 -0.64,7.35 -0.65,7.25 -0.62,7.14 -0.59,7.04 -0.53,6.95 -0.47,6.87 -0.39,6.80 -0.30,6.74 -0.20,6.70 -0.10,6.67 0.00,6.67 0.10,6.67 0.20,6.70 0.30,6.74 0.39,6.80 0.47,6.87 0.53,6.95 0.59,7.04 0.62,7.14 0.65,7.25 0.64,7.35 0.64,7.46 0.60,7.56 0.56,7.66 0.49,7.74 0.42,7.82 0.33,7.87 0.24,7.93 0.13,7.95 0.03,7.97 -0.07,7.96 -0.17,7.95 -0.27,7.91 -0.36,7.86 -0.44,7.79 -0.52,7.72 -0.57,7.62 -0.62,7.53 -0.63,7.42 -0.65,7.32 -0.65,7.32 -0.65,7.32 -0.95,5.34 -1.25,3.36 -1.23,2.55 -1.20,1.74 -0.93,0.87 -0.65,0 -0.64,-0.07 -0.63,-0.15 -0.60,-0.23 -0.58,-0.30 -0.53,-0.37 -0.49,-0.43 -0.43,-0.48 -0.37,-0.54 -0.30,-0.57 -0.23,-0.61 -0.15,-0.63 -0.07,-0.65 0.00,-0.65 0.07,-0.65 0.15,-0.63 0.23,-0.61 0.30,-0.57 0.37,-0.54 0.43,-0.48 0.49,-0.43 0.53,-0.37 0.58,-0.30 0.60,-0.23 0.63,-0.15 0.64,-0.07 0.65,0.00 0.65,0.00 L 0.65,0 Z"/></g><g transform="translate(164.3946533203125 198.89178085327148) rotate(0 0.38037109375 4.9447174072265625)" stroke="none"><path fill="#1e1e1e" d="M 0.63,-0.15 Q 0.63,-0.15 1.14,0.64 1.64,1.44 1.78,2.33 1.93,3.21 1.98,4.04 2.04,4.86 1.73,7.22 1.41,9.57 1.39,9.68 1.38,9.78 1.33,9.88 1.28,9.97 1.20,10.04 1.13,10.12 1.03,10.16 0.93,10.21 0.83,10.22 0.72,10.23 0.62,10.21 0.51,10.19 0.42,10.13 0.33,10.08 0.26,10.00 0.19,9.92 0.15,9.82 0.11,9.72 0.11,9.62 0.10,9.51 0.13,9.41 0.16,9.30 0.22,9.22 0.27,9.13 0.36,9.06 0.44,9.00 0.54,8.96 0.64,8.93 0.75,8.93 0.86,8.93 0.96,8.96 1.06,8.99 1.14,9.06 1.23,9.12 1.29,9.21 1.35,9.30 1.38,9.40 1.41,9.50 1.40,9.61 1.40,9.71 1.36,9.81 1.32,9.91 1.25,9.99 1.18,10.07 1.09,10.13 1.00,10.19 0.90,10.21 0.79,10.23 0.69,10.22 0.58,10.21 0.49,10.17 0.39,10.12 0.31,10.05 0.23,9.98 0.18,9.88 0.13,9.79 0.11,9.69 0.10,9.58 0.10,9.58 0.10,9.58 -0.27,7.29 -0.64,4.99 -0.66,4.25 -0.68,3.51 -0.72,2.78 -0.76,2.04 -0.70,1.10 -0.63,0.15 -0.64,0.08 -0.65,0.00 -0.64,-0.07 -0.63,-0.15 -0.61,-0.22 -0.58,-0.30 -0.53,-0.36 -0.49,-0.43 -0.43,-0.48 -0.37,-0.53 -0.30,-0.57 -0.23,-0.61 -0.15,-0.63 -0.08,-0.65 -0.00,-0.65 0.07,-0.65 0.15,-0.63 0.23,-0.61 0.30,-0.57 0.37,-0.54 0.43,-0.48 0.49,-0.43 0.53,-0.37 0.58,-0.30 0.60,-0.23 0.63,-0.15 0.63,-0.15 L 0.63,-0.15 Z"/></g><g transform="translate(161.35174560546875 220.1921043395996) rotate(0 9.50909423828125 -12.171615600585938)" stroke="none"><path fill="#1e1e1e" d="M -0.46,-0.46 Q -0.46,-0.46 0.29,-1.45 1.05,-2.44 2.22,-3.91 3.39,-5.39 5.17,-7.79 6.94,-10.18 8.57,-12.31 10.21,-14.44 11.74,-16.64 13.28,-18.84 14.42,-20.23 15.57,-21.62 16.90,-23.00 18.22,-24.38 18.30,-24.45 18.38,-24.53 18.47,-24.57 18.57,-24.62 18.67,-24.63 18.78,-24.64 18.88,-24.62 18.99,-24.60 19.08,-24.54 19.17,-24.49 19.24,-24.41 19.31,-24.33 19.35,-24.23 19.39,-24.13 19.40,-24.03 19.40,-23.92 19.38,-23.82 19.35,-23.72 19.29,-23.63 19.23,-23.54 19.15,-23.47 19.06,-23.41 18.96,-23.37 18.86,-23.34 18.75,-23.34 18.65,-23.34 18.55,-23.37 18.45,-23.40 18.36,-23.47 18.28,-23.53 18.22,-23.62 18.16,-23.71 18.13,-23.81 18.10,-23.91 18.10,-24.02 18.11,-24.12 18.15,-24.22 18.18,-24.32 18.25,-24.40 18.32,-24.48 18.41,-24.54 18.50,-24.59 18.61,-24.62 18.71,-24.64 18.82,-24.63 18.92,-24.62 19.02,-24.58 19.11,-24.53 19.19,-24.46 19.27,-24.39 19.32,-24.29 19.37,-24.20 19.39,-24.10 19.41,-23.99 19.39,-23.89 19.37,-23.78 19.32,-23.69 19.28,-23.59 19.28,-23.59 19.28,-23.59 18.47,-21.77 17.66,-19.95 16.59,-18.59 15.51,-17.23 13.89,-15.02 12.27,-12.81 10.59,-10.73 8.90,-8.66 6.99,-6.31 5.08,-3.96 3.76,-2.51 2.44,-1.05 1.45,-0.29 0.46,0.46 0.40,0.51 0.33,0.56 0.26,0.59 0.19,0.62 0.11,0.64 0.03,0.65 -0.03,0.65 -0.11,0.64 -0.19,0.62 -0.26,0.59 -0.33,0.55 -0.40,0.51 -0.46,0.46 -0.51,0.40 -0.55,0.33 -0.59,0.26 -0.62,0.19 -0.64,0.11 -0.65,0.03 -0.65,-0.03 -0.64,-0.11 -0.62,-0.19 -0.59,-0.26 -0.56,-0.33 -0.51,-0.40 -0.46,-0.46 -0.46,-0.46 L -0.46,-0.46 Z"/></g><g transform="translate(176.5662841796875 216.38845443725586) rotate(0 0.760711669921875 -5.7054290771484375)" stroke="none"><path fill="#1e1e1e" d="M -0.62,-0.20 Q -0.62,-0.20 -0.75,-0.98 -0.88,-1.75 -0.37,-2.99 0.14,-4.23 0.53,-5.53 0.93,-6.82 1.32,-8.06 1.71,-9.30 1.85,-10.11 1.99,-10.92 2.02,-10.23 2.05,-9.54 1.11,-8.69 0.18,-7.84 -0.94,-6.98 -2.07,-6.12 -2.93,-5.36 -3.78,-4.61 -4.32,-4.17 -4.86,-3.72 -4.94,-3.39 -5.03,-3.06 -5.17,-2.96 -5.31,-2.85 -5.48,-2.79 -5.64,-2.72 -5.82,-2.69 -6.00,-2.67 -6.17,-2.69 -6.35,-2.70 -6.52,-2.76 -6.69,-2.82 -6.84,-2.92 -6.98,-3.02 -7.11,-3.15 -7.23,-3.28 -7.31,-3.44 -7.40,-3.59 -7.44,-3.77 -7.49,-3.94 -7.49,-4.12 -7.50,-4.29 -7.46,-4.47 -7.42,-4.64 -7.34,-4.80 -7.26,-4.96 -7.15,-5.10 -7.03,-5.23 -5.77,-5.54 -4.51,-5.85 -2.98,-5.91 -1.44,-5.97 0.42,-6.16 2.29,-6.36 4.77,-6.13 7.26,-5.91 7.36,-5.90 7.47,-5.89 7.57,-5.85 7.66,-5.80 7.74,-5.73 7.82,-5.66 7.87,-5.56 7.92,-5.47 7.94,-5.36 7.95,-5.26 7.94,-5.15 7.92,-5.05 7.87,-4.96 7.82,-4.86 7.75,-4.79 7.67,-4.71 7.57,-4.67 7.48,-4.62 7.37,-4.61 7.27,-4.60 7.16,-4.62 7.06,-4.64 6.97,-4.70 6.88,-4.75 6.81,-4.83 6.74,-4.91 6.70,-5.01 6.66,-5.11 6.65,-5.22 6.64,-5.32 6.67,-5.43 6.70,-5.53 6.76,-5.62 6.82,-5.70 6.90,-5.77 6.99,-5.83 7.09,-5.87 7.19,-5.90 7.29,-5.90 7.40,-5.90 7.50,-5.87 7.60,-5.84 7.69,-5.77 7.77,-5.71 7.83,-5.62 7.89,-5.54 7.92,-5.43 7.95,-5.33 7.94,-5.22 7.94,-5.12 7.90,-5.02 7.86,-4.92 7.79,-4.84 7.73,-4.76 7.63,-4.70 7.54,-4.65 7.44,-4.62 7.34,-4.60 7.34,-4.60 7.34,-4.60 4.99,-4.09 2.64,-3.57 0.64,-3.29 -1.34,-3.00 -3.18,-3.03 -5.03,-3.06 -5.17,-2.96 -5.31,-2.85 -5.48,-2.79 -5.64,-2.72 -5.82,-2.69 -6.00,-2.67 -6.17,-2.69 -6.35,-2.70 -6.52,-2.76 -6.69,-2.82 -6.84,-2.92 -6.98,-3.02 -7.11,-3.15 -7.23,-3.28 -7.31,-3.44 -7.40,-3.59 -7.44,-3.77 -7.49,-3.94 -7.49,-4.12 -7.50,-4.29 -7.46,-4.47 -7.42,-4.64 -7.34,-4.80 -7.26,-4.96 -7.15,-5.10 -7.03,-5.23 -7.04,-5.37 -7.06,-5.51 -6.40,-6.17 -5.73,-6.83 -4.80,-7.65 -3.87,-8.47 -2.85,-9.26 -1.83,-10.04 -0.79,-11.00 0.23,-11.95 1.31,-12.56 2.40,-13.17 3.49,-12.72 4.59,-12.26 4.84,-11.42 5.10,-10.57 4.89,-9.45 4.68,-8.33 4.26,-7.10 3.84,-5.87 3.34,-4.43 2.84,-3.00 2.30,-1.93 1.76,-0.86 1.19,-0.33 0.62,0.20 0.58,0.27 0.55,0.35 0.50,0.41 0.45,0.47 0.39,0.52 0.32,0.56 0.25,0.59 0.18,0.63 0.10,0.64 0.02,0.65 -0.05,0.64 -0.13,0.64 -0.20,0.61 -0.28,0.59 -0.34,0.55 -0.41,0.50 -0.46,0.45 -0.52,0.39 -0.56,0.32 -0.60,0.25 -0.62,0.18 -0.64,0.10 -0.65,0.02 -0.65,-0.05 -0.63,-0.13 -0.62,-0.20 -0.62,-0.20 L -0.62,-0.20 Z"/></g><g transform="translate(11.521453857421875 333.3084487915039) rotate(0 6.2759857177734375 4.3741607666015625)" stroke="none"><path fill="#1e1e1e" d="M 0.38,-0.53 Q 0.38,-0.53 1.41,-0.36 2.45,-0.19 3.51,0.73 4.58,1.66 5.85,2.65 7.11,3.64 8.19,4.53 9.27,5.42 10.94,6.93 12.60,8.43 12.69,8.49 12.78,8.55 12.85,8.63 12.91,8.71 12.95,8.82 12.98,8.92 12.98,9.02 12.98,9.13 12.95,9.23 12.92,9.33 12.85,9.42 12.79,9.50 12.70,9.56 12.61,9.62 12.51,9.65 12.41,9.68 12.30,9.67 12.20,9.67 12.10,9.63 12.00,9.59 11.92,9.52 11.84,9.46 11.78,9.37 11.73,9.28 11.70,9.17 11.68,9.07 11.69,8.96 11.70,8.86 11.74,8.76 11.79,8.66 11.86,8.59 11.93,8.51 12.03,8.46 12.12,8.41 12.22,8.39 12.33,8.37 12.43,8.39 12.54,8.40 12.63,8.45 12.73,8.50 12.80,8.58 12.87,8.65 12.92,8.75 12.97,8.85 12.98,8.95 12.99,9.06 12.97,9.16 12.95,9.27 12.89,9.36 12.84,9.45 12.76,9.52 12.68,9.59 12.58,9.63 12.48,9.67 12.37,9.67 12.27,9.68 12.17,9.65 12.06,9.63 12.06,9.63 12.06,9.63 9.66,8.79 7.26,7.95 6.15,7.09 5.03,6.23 3.71,5.15 2.39,4.07 1.50,3.22 0.61,2.37 0.11,1.45 -0.38,0.53 -0.44,0.48 -0.49,0.42 -0.54,0.36 -0.58,0.29 -0.61,0.22 -0.64,0.14 -0.64,0.06 -0.65,-0.01 -0.64,-0.08 -0.63,-0.16 -0.60,-0.24 -0.57,-0.31 -0.53,-0.37 -0.48,-0.44 -0.42,-0.49 -0.36,-0.54 -0.29,-0.58 -0.22,-0.61 -0.14,-0.63 -0.06,-0.65 0.01,-0.65 0.08,-0.65 0.16,-0.63 0.24,-0.61 0.31,-0.57 0.38,-0.53 0.38,-0.53 L 0.38,-0.53 Z"/></g><g transform="translate(11.901824951171875 343.9585952758789) rotate(0 5.8956298828125 -7.226898193359375)" stroke="none"><path fill="#1e1e1e" d="M -0.55,-0.35 Q -0.55,-0.35 0.14,-2.07 0.83,-3.79 1.90,-5.27 2.98,-6.75 4.23,-8.32 5.49,-9.89 7.93,-11.91 10.37,-13.93 10.46,-14.00 10.54,-14.06 10.64,-14.09 10.74,-14.12 10.85,-14.12 10.96,-14.12 11.06,-14.09 11.16,-14.05 11.24,-13.99 11.32,-13.92 11.38,-13.83 11.44,-13.74 11.47,-13.64 11.50,-13.54 11.49,-13.43 11.48,-13.33 11.44,-13.23 11.40,-13.13 11.33,-13.05 11.26,-12.97 11.17,-12.92 11.08,-12.86 10.97,-12.84 10.87,-12.82 10.76,-12.83 10.66,-12.85 10.56,-12.89 10.47,-12.94 10.39,-13.01 10.31,-13.08 10.27,-13.18 10.22,-13.27 10.20,-13.38 10.19,-13.48 10.20,-13.59 10.22,-13.69 10.27,-13.79 10.32,-13.88 10.40,-13.95 10.48,-14.02 10.58,-14.07 10.67,-14.11 10.78,-14.12 10.89,-14.13 10.99,-14.11 11.09,-14.08 11.18,-14.03 11.27,-13.97 11.34,-13.89 11.41,-13.81 11.45,-13.71 11.48,-13.61 11.49,-13.50 11.49,-13.40 11.46,-13.29 11.43,-13.19 11.37,-13.11 11.31,-13.02 11.31,-13.02 11.31,-13.02 9.47,-10.63 7.63,-8.24 6.44,-6.63 5.24,-5.03 4.17,-3.68 3.10,-2.33 1.82,-0.98 0.55,0.35 0.50,0.41 0.45,0.47 0.38,0.52 0.32,0.57 0.25,0.60 0.17,0.63 0.09,0.64 0.02,0.65 -0.05,0.64 -0.13,0.64 -0.21,0.61 -0.28,0.59 -0.35,0.54 -0.41,0.50 -0.47,0.44 -0.52,0.39 -0.56,0.32 -0.60,0.25 -0.62,0.17 -0.64,0.10 -0.65,0.02 -0.65,-0.05 -0.63,-0.13 -0.62,-0.21 -0.58,-0.28 -0.55,-0.35 -0.55,-0.35 L -0.55,-0.35 Z"/></g><g transform="translate(10 321.5171890258789) rotate(0 3.8036346435546875 -1.9018096923828125)" stroke="none"><path fill="#1e1e1e" d="M -0.50,-0.42 Q -0.50,-0.42 -0.18,-1.26 0.13,-2.10 0.58,-2.64 1.02,-3.18 1.36,-3.64 1.70,-4.09 2.49,-4.38 3.28,-4.67 4.16,-4.33 5.03,-3.99 6.38,-2.35 7.72,-0.71 7.80,-0.64 7.87,-0.56 7.92,-0.47 7.97,-0.37 7.99,-0.27 8.00,-0.16 7.98,-0.06 7.97,0.03 7.91,0.13 7.86,0.22 7.79,0.29 7.71,0.36 7.61,0.41 7.51,0.45 7.41,0.46 7.30,0.47 7.20,0.45 7.09,0.42 7.00,0.37 6.91,0.31 6.85,0.23 6.78,0.15 6.74,0.05 6.70,-0.04 6.70,-0.15 6.69,-0.25 6.72,-0.36 6.75,-0.46 6.81,-0.54 6.88,-0.63 6.96,-0.69 7.05,-0.76 7.15,-0.79 7.25,-0.82 7.36,-0.82 7.46,-0.82 7.56,-0.78 7.66,-0.75 7.75,-0.68 7.83,-0.62 7.89,-0.53 7.95,-0.44 7.97,-0.34 8.00,-0.24 7.99,-0.13 7.99,-0.02 7.94,0.06 7.90,0.16 7.83,0.24 7.76,0.32 7.67,0.38 7.58,0.43 7.48,0.45 7.37,0.47 7.27,0.46 7.16,0.45 7.07,0.40 6.97,0.35 6.97,0.35 6.97,0.35 4.96,-0.53 2.96,-1.43 2.50,-0.97 2.04,-0.51 1.27,-0.04 0.50,0.42 0.44,0.47 0.38,0.52 0.32,0.56 0.25,0.60 0.17,0.62 0.09,0.64 0.01,0.65 -0.05,0.65 -0.13,0.63 -0.21,0.62 -0.28,0.58 -0.35,0.55 -0.41,0.50 -0.47,0.45 -0.52,0.38 -0.57,0.32 -0.60,0.24 -0.63,0.17 -0.64,0.09 -0.65,0.01 -0.64,-0.05 -0.64,-0.13 -0.61,-0.21 -0.59,-0.28 -0.54,-0.35 -0.50,-0.42 -0.50,-0.42 L -0.50,-0.42 Z"/></g><g transform="translate(221.48175048828125 20.650161743164062) rotate(0 5.325103759765625 6.656352996826172)" stroke="none"><path fill="#1e1e1e" d="M 0.06,-0.65 Q 0.06,-0.65 1.18,-0.77 2.29,-0.90 3.38,-0.87 4.47,-0.83 5.27,-0.82 6.06,-0.81 6.64,-0.81 7.22,-0.81 7.96,-0.02 8.71,0.75 8.21,1.98 7.71,3.22 6.95,4.10 6.18,4.98 5.43,5.78 4.68,6.58 4.07,7.31 3.46,8.05 3.14,8.59 2.83,9.14 3.15,9.63 3.47,10.13 4.23,10.53 5.00,10.93 5.92,11.22 6.85,11.51 8.74,11.92 10.64,12.34 10.75,12.33 10.85,12.33 10.95,12.36 11.06,12.39 11.14,12.45 11.23,12.51 11.29,12.60 11.35,12.68 11.39,12.78 11.42,12.88 11.42,12.99 11.41,13.10 11.38,13.20 11.34,13.30 11.28,13.38 11.21,13.46 11.12,13.52 11.03,13.58 10.93,13.61 10.83,13.63 10.72,13.63 10.62,13.62 10.52,13.58 10.42,13.54 10.34,13.46 10.26,13.39 10.21,13.30 10.15,13.21 10.13,13.11 10.11,13.00 10.13,12.90 10.14,12.79 10.19,12.70 10.23,12.60 10.31,12.52 10.38,12.45 10.48,12.40 10.57,12.35 10.68,12.34 10.78,12.32 10.89,12.34 10.99,12.36 11.08,12.41 11.18,12.46 11.25,12.54 11.32,12.62 11.36,12.72 11.40,12.82 11.41,12.92 11.42,13.03 11.40,13.13 11.37,13.23 11.32,13.32 11.26,13.41 11.18,13.48 11.10,13.55 11.00,13.59 10.90,13.62 10.90,13.62 10.90,13.62 8.45,13.84 5.99,14.06 4.80,13.64 3.61,13.22 2.50,12.46 1.38,11.71 0.87,10.77 0.37,9.84 0.47,8.89 0.57,7.94 1.02,7.17 1.47,6.40 2.15,5.61 2.82,4.81 3.54,4.05 4.27,3.29 4.92,2.57 5.57,1.86 6.06,1.14 6.55,0.43 6.82,0.99 7.09,1.54 6.55,1.53 6.00,1.51 5.19,1.48 4.38,1.45 3.22,1.40 2.07,1.34 1.00,0.99 -0.06,0.65 -0.14,0.63 -0.21,0.61 -0.29,0.58 -0.36,0.54 -0.42,0.49 -0.48,0.44 -0.52,0.38 -0.57,0.31 -0.60,0.24 -0.63,0.17 -0.64,0.09 -0.65,0.01 -0.64,-0.06 -0.64,-0.14 -0.61,-0.21 -0.58,-0.29 -0.54,-0.35 -0.50,-0.42 -0.44,-0.47 -0.38,-0.53 -0.31,-0.57 -0.24,-0.60 -0.16,-0.62 -0.09,-0.65 -0.01,-0.65 0.06,-0.65 0.06,-0.65 L 0.06,-0.65 Z"/></g><g transform="translate(221.86212158203125 29.018142700195312) rotate(0 3.9938201904296875 -0.38036346435546875)" stroke="none"><path fill="#1e1e1e" d="M -0.20,-0.62 Q -0.20,-0.62 0.36,-1.08 0.94,-1.55 1.88,-1.73 2.81,-1.91 3.64,-1.95 4.47,-1.99 6.05,-1.70 7.63,-1.41 7.74,-1.39 7.84,-1.38 7.94,-1.33 8.03,-1.28 8.10,-1.20 8.18,-1.13 8.22,-1.03 8.27,-0.94 8.28,-0.83 8.30,-0.72 8.27,-0.62 8.25,-0.52 8.20,-0.42 8.14,-0.33 8.06,-0.26 7.98,-0.19 7.89,-0.15 7.79,-0.11 7.68,-0.10 7.58,-0.10 7.47,-0.12 7.37,-0.15 7.28,-0.21 7.19,-0.27 7.13,-0.35 7.06,-0.44 7.03,-0.54 6.99,-0.64 6.99,-0.74 6.99,-0.85 7.02,-0.95 7.05,-1.05 7.12,-1.14 7.18,-1.22 7.27,-1.28 7.36,-1.34 7.46,-1.37 7.56,-1.40 7.67,-1.40 7.77,-1.39 7.87,-1.36 7.97,-1.32 8.05,-1.25 8.13,-1.18 8.19,-1.09 8.25,-1.00 8.27,-0.90 8.29,-0.80 8.28,-0.69 8.27,-0.58 8.23,-0.49 8.19,-0.39 8.12,-0.31 8.04,-0.23 7.95,-0.18 7.86,-0.13 7.75,-0.11 7.65,-0.09 7.65,-0.09 7.65,-0.09 6.12,0.24 4.60,0.58 3.85,0.62 3.10,0.66 2.39,0.67 1.67,0.68 0.94,0.65 0.20,0.62 0.13,0.63 0.05,0.65 -0.02,0.65 -0.10,0.64 -0.18,0.62 -0.25,0.60 -0.32,0.56 -0.39,0.52 -0.45,0.46 -0.50,0.41 -0.55,0.34 -0.59,0.28 -0.61,0.20 -0.64,0.13 -0.64,0.05 -0.65,-0.02 -0.64,-0.10 -0.63,-0.18 -0.59,-0.25 -0.56,-0.32 -0.52,-0.39 -0.47,-0.45 -0.41,-0.50 -0.35,-0.55 -0.27,-0.58 -0.20,-0.62 -0.20,-0.62 L -0.20,-0.62 Z"/></g><g transform="translate(220.34066772460938 14.183990478515625) rotate(0 4.9447174072265625 -1.9018135070800781)" stroke="none"><path fill="#1e1e1e" d="M -0.50,-0.42 Q -0.50,-0.42 -0.17,-1.25 0.15,-2.09 0.72,-2.73 1.28,-3.38 1.74,-3.89 2.21,-4.39 2.79,-4.73 3.37,-5.07 3.95,-5.18 4.53,-5.28 5.34,-4.94 6.16,-4.61 6.68,-4.26 7.21,-3.92 8.68,-2.11 10.16,-0.30 10.22,-0.21 10.27,-0.12 10.30,-0.01 10.32,0.08 10.31,0.19 10.30,0.29 10.26,0.39 10.21,0.49 10.14,0.56 10.07,0.64 9.98,0.69 9.88,0.74 9.78,0.76 9.68,0.78 9.57,0.77 9.47,0.75 9.37,0.70 9.28,0.65 9.20,0.58 9.13,0.50 9.08,0.41 9.04,0.31 9.02,0.21 9.01,0.10 9.03,0.00 9.05,-0.10 9.11,-0.19 9.16,-0.28 9.24,-0.35 9.32,-0.42 9.42,-0.46 9.52,-0.50 9.62,-0.51 9.73,-0.52 9.83,-0.49 9.93,-0.46 10.02,-0.41 10.11,-0.35 10.18,-0.26 10.24,-0.18 10.28,-0.08 10.31,0.01 10.31,0.12 10.32,0.22 10.28,0.32 10.25,0.42 10.19,0.51 10.12,0.60 10.04,0.66 9.95,0.72 9.85,0.75 9.75,0.78 9.64,0.77 9.53,0.77 9.43,0.73 9.34,0.69 9.25,0.63 9.17,0.56 9.17,0.56 9.17,0.56 7.44,-0.54 5.70,-1.65 4.87,-2.10 4.04,-2.56 3.59,-2.11 3.14,-1.66 2.58,-1.09 2.02,-0.53 1.26,-0.05 0.50,0.42 0.44,0.47 0.38,0.52 0.32,0.56 0.25,0.60 0.17,0.62 0.09,0.64 0.01,0.65 -0.05,0.65 -0.13,0.63 -0.21,0.62 -0.28,0.58 -0.35,0.55 -0.41,0.50 -0.47,0.45 -0.52,0.38 -0.57,0.32 -0.60,0.24 -0.63,0.17 -0.64,0.09 -0.65,0.01 -0.64,-0.05 -0.64,-0.13 -0.61,-0.21 -0.59,-0.28 -0.54,-0.35 -0.50,-0.42 -0.50,-0.42 L -0.50,-0.42 Z"/></g><g transform="translate(407.8595886230469 306.6830520629883) rotate(0 5.3250732421875 2.8527069091796875)" stroke="none"><path fill="#1e1e1e" d="M -0.65,0 Q -0.65,0 -0.81,-0.98 -0.97,-1.96 -1.02,-2.60 -1.07,-3.23 -1.24,-3.72 -1.40,-4.22 -1.38,-4.36 -1.37,-4.50 -1.31,-4.63 -1.26,-4.77 -1.18,-4.89 -1.10,-5.00 -0.99,-5.10 -0.89,-5.19 -0.76,-5.26 -0.63,-5.33 -0.50,-5.36 -0.36,-5.39 -0.21,-5.39 -0.07,-5.39 0.06,-5.36 0.20,-5.33 0.32,-5.26 0.45,-5.19 0.56,-5.10 0.66,-5.00 0.75,-4.89 0.83,-4.77 0.88,-4.63 0.93,-4.50 0.95,-4.36 0.96,-4.22 1.31,-3.58 1.65,-2.95 2.07,-2.06 2.49,-1.18 2.98,-0.28 3.48,0.61 3.79,1.22 4.10,1.82 4.44,1.29 4.77,0.77 5.56,-0.10 6.35,-0.98 7.13,-2.10 7.90,-3.21 8.35,-3.92 8.79,-4.62 9.08,-5.05 9.36,-5.48 9.47,-5.61 9.58,-5.75 9.72,-5.85 9.86,-5.95 10.02,-6.02 10.18,-6.09 10.35,-6.11 10.52,-6.14 10.70,-6.13 10.87,-6.11 11.03,-6.05 11.20,-6.00 11.34,-5.91 11.49,-5.81 11.61,-5.69 11.73,-5.56 11.81,-5.41 11.90,-5.26 11.95,-5.09 11.99,-4.92 12.00,-4.75 12.00,-4.58 11.97,-4.41 11.93,-4.24 11.86,-4.08 11.78,-3.93 11.02,-2.77 10.26,-1.62 9.31,-0.06 8.37,1.49 7.52,3.25 6.67,5.02 5.27,7.85 3.87,10.68 3.82,10.77 3.77,10.86 3.69,10.93 3.61,11.00 3.51,11.04 3.41,11.08 3.30,11.09 3.20,11.10 3.10,11.07 2.99,11.04 2.90,10.98 2.82,10.93 2.75,10.84 2.68,10.76 2.65,10.66 2.61,10.56 2.61,10.45 2.61,10.35 2.64,10.24 2.68,10.14 2.74,10.06 2.80,9.97 2.89,9.91 2.98,9.85 3.08,9.82 3.18,9.79 3.29,9.80 3.39,9.80 3.49,9.84 3.59,9.88 3.67,9.94 3.75,10.01 3.81,10.10 3.87,10.19 3.89,10.29 3.92,10.40 3.91,10.50 3.90,10.61 3.85,10.71 3.81,10.80 3.74,10.88 3.67,10.96 3.57,11.01 3.48,11.06 3.37,11.08 3.27,11.10 3.16,11.08 3.06,11.07 2.97,11.02 2.87,10.97 2.80,10.89 2.72,10.82 2.68,10.72 2.63,10.63 2.62,10.52 2.60,10.42 2.63,10.31 2.65,10.21 2.65,10.21 2.65,10.21 3.41,7.05 4.17,3.90 5.01,1.93 5.85,-0.03 6.80,-1.61 7.76,-3.18 8.56,-4.33 9.36,-5.48 9.47,-5.61 9.58,-5.75 9.72,-5.85 9.86,-5.95 10.02,-6.02 10.18,-6.09 10.35,-6.11 10.52,-6.14 10.70,-6.13 10.87,-6.11 11.03,-6.05 11.20,-6.00 11.34,-5.91 11.49,-5.81 11.61,-5.69 11.73,-5.56 11.81,-5.41 11.90,-5.26 11.95,-5.09 11.99,-4.93 12.00,-4.75 12.00,-4.58 11.97,-4.41 11.93,-4.24 11.86,-4.08 11.78,-3.93 11.46,-3.52 11.13,-3.12 10.64,-2.37 10.16,-1.63 9.26,-0.37 8.36,0.89 7.28,2.00 6.20,3.11 4.98,3.64 3.76,4.18 2.76,3.68 1.77,3.19 1.42,2.55 1.08,1.92 0.55,0.93 0.03,-0.04 -0.41,-1.01 -0.85,-1.99 -1.13,-3.10 -1.40,-4.22 -1.38,-4.36 -1.37,-4.50 -1.31,-4.63 -1.26,-4.77 -1.18,-4.89 -1.10,-5.00 -0.99,-5.10 -0.89,-5.19 -0.76,-5.26 -0.63,-5.33 -0.50,-5.36 -0.36,-5.39 -0.21,-5.39 -0.07,-5.39 0.06,-5.36 0.20,-5.33 0.32,-5.26 0.45,-5.19 0.56,-5.10 0.66,-5.00 0.75,-4.89 0.83,-4.77 0.88,-4.63 0.93,-4.50 0.95,-4.36 0.96,-4.22 1.02,-3.73 1.07,-3.24 1.02,-2.60 0.97,-1.96 0.81,-0.98 0.65,0 0.64,0.07 0.63,0.15 0.60,0.23 0.58,0.30 0.53,0.37 0.49,0.43 0.43,0.48 0.37,0.54 0.30,0.57 0.23,0.61 0.15,0.63 0.07,0.65 -0.00,0.65 -0.07,0.65 -0.15,0.63 -0.23,0.61 -0.30,0.57 -0.37,0.54 -0.43,0.48 -0.49,0.43 -0.53,0.37 -0.58,0.30 -0.60,0.23 -0.63,0.15 -0.64,0.07 -0.65,-0.00 -0.65,-0.00 L -0.65,0 Z"/></g><g transform="translate(409.7613830566406 292.9899673461914) rotate(0 4.183990478515625 -3.0428924560546875)" stroke="none"><path fill="#1e1e1e" d="M -0.57,-0.31 Q -0.57,-0.31 -0.15,-1.37 0.26,-2.43 0.79,-3.34 1.33,-4.25 1.76,-5.02 2.20,-5.79 2.94,-6.05 3.68,-6.32 4.59,-5.86 5.51,-5.40 6.92,-3.88 8.34,-2.37 8.41,-2.29 8.48,-2.21 8.53,-2.12 8.57,-2.02 8.58,-1.91 8.59,-1.81 8.56,-1.70 8.54,-1.60 8.48,-1.51 8.43,-1.42 8.34,-1.35 8.26,-1.29 8.16,-1.25 8.06,-1.21 7.96,-1.21 7.85,-1.20 7.75,-1.24 7.65,-1.27 7.56,-1.33 7.47,-1.39 7.41,-1.47 7.35,-1.56 7.32,-1.66 7.28,-1.76 7.29,-1.87 7.29,-1.97 7.32,-2.07 7.36,-2.17 7.42,-2.26 7.49,-2.34 7.58,-2.40 7.67,-2.46 7.77,-2.48 7.87,-2.51 7.98,-2.50 8.09,-2.49 8.18,-2.45 8.28,-2.41 8.36,-2.34 8.44,-2.27 8.49,-2.18 8.55,-2.09 8.57,-1.98 8.59,-1.88 8.58,-1.77 8.56,-1.67 8.52,-1.57 8.47,-1.48 8.40,-1.40 8.32,-1.33 8.23,-1.28 8.13,-1.23 8.03,-1.21 7.92,-1.20 7.82,-1.22 7.71,-1.24 7.62,-1.29 7.53,-1.34 7.53,-1.34 7.53,-1.34 5.83,-2.37 4.14,-3.40 3.88,-3.86 3.61,-4.33 3.35,-3.71 3.09,-3.10 2.51,-2.30 1.92,-1.50 1.24,-0.59 0.57,0.31 0.52,0.38 0.48,0.44 0.42,0.49 0.36,0.54 0.28,0.58 0.21,0.61 0.14,0.63 0.06,0.65 -0.01,0.65 -0.09,0.64 -0.17,0.62 -0.24,0.60 -0.31,0.56 -0.38,0.53 -0.44,0.47 -0.50,0.42 -0.54,0.35 -0.58,0.29 -0.61,0.21 -0.64,0.14 -0.64,0.06 -0.65,-0.01 -0.64,-0.09 -0.63,-0.17 -0.60,-0.24 -0.57,-0.31 -0.57,-0.31 L -0.57,-0.31 Z"/></g></svg>