<svg version="1.1" xmlns="http://www.w3.org/2000/svg" viewBox="0 0 450.5555419921875 353.3333435058594" width="450.5555419921875" height="353.3333435058594" filter="invert(93%) hue-rotate(180deg)" class="excalidraw-svg">
  <!-- svg-source:excalidraw -->
  
  <defs>
    <style class="style-fonts">
      @font-face {
        font-family: "Virgil";
        src: url("https://excalidraw.com/Virgil.woff2");
      }
      @font-face {
        font-family: "Cascadia";
        src: url("https://excalidraw.com/Cascadia.woff2");
      }
      @font-face {
        font-family: "Assistant";
        src: url("https://excalidraw.com/Assistant-Regular.woff2");
      }
    </style>
    
  </defs>
  <rect x="0" y="0" width="450.5555419921875" height="353.3333435058594" fill="#ffffff"/><g stroke-linecap="round"><g transform="translate(42.63897705078125 343.3333435058594) rotate(0 2.430572509765625 -166.6666717529297)"><path d="M0 0 C0.81 -55.56, 4.05 -277.78, 4.86 -333.33 M0 0 C0.81 -55.56, 4.05 -277.78, 4.86 -333.33" stroke="#1e1e1e" stroke-width="2" fill="none"/></g><g transform="translate(42.63897705078125 343.3333435058594) rotate(0 2.430572509765625 -166.6666717529297)"><path d="M13.07 -309.72 C10.1 -318.27, 7.13 -326.82, 4.86 -333.33 M13.07 -309.72 C9.92 -318.77, 6.77 -327.83, 4.86 -333.33" stroke="#1e1e1e" stroke-width="2" fill="none"/></g><g transform="translate(42.63897705078125 343.3333435058594) rotate(0 2.430572509765625 -166.6666717529297)"><path d="M-4.03 -309.97 C-0.81 -318.43, 2.41 -326.89, 4.86 -333.33 M-4.03 -309.97 C-0.62 -318.93, 2.79 -327.88, 4.86 -333.33" stroke="#1e1e1e" stroke-width="2" fill="none"/></g></g><mask/><g stroke-linecap="round"><g transform="translate(10 219.02777099609375) rotate(0 215.27777099609375 -1.0416717529296875)"><path d="M0 0 C71.76 -0.35, 358.8 -1.74, 430.56 -2.08 M0 0 C71.76 -0.35, 358.8 -1.74, 430.56 -2.08" stroke="#1e1e1e" stroke-width="2" fill="none"/></g><g transform="translate(10 219.02777099609375) rotate(0 215.27777099609375 -1.0416717529296875)"><path d="M407.1 6.58 C414.33 3.91, 421.55 1.24, 430.56 -2.08 M407.1 6.58 C413.35 4.27, 419.59 1.97, 430.56 -2.08" stroke="#1e1e1e" stroke-width="2" fill="none"/></g><g transform="translate(10 219.02777099609375) rotate(0 215.27777099609375 -1.0416717529296875)"><path d="M407.02 -10.52 C414.27 -7.92, 421.52 -5.32, 430.56 -2.08 M407.02 -10.52 C413.29 -8.27, 419.55 -6.03, 430.56 -2.08" stroke="#1e1e1e" stroke-width="2" fill="none"/></g></g><mask/><g stroke-linecap="round"><g transform="translate(13.47222900390625 282.9166564941406) rotate(0 211.80557250976562 -1.388885498046875)"><path d="M0 0 C70.6 -0.46, 353.01 -2.31, 423.61 -2.78" stroke="#343a40" stroke-width="1.5" fill="none" stroke-dasharray="1.5 7"/></g></g><mask/><g transform="translate(44.02777099609375 278.0555419921875) rotate(0 53.819427490234375 -78.47222137451172)" stroke="none"><path fill="#6741d9" d="M -0.58,-0.29 Q -0.58,-0.29 0.16,-2.41 0.90,-4.53 1.65,-7.10 2.39,-9.67 3.50,-13.02 4.61,-16.38 5.46,-19.74 6.31,-23.10 7.48,-26.79 8.64,-30.48 10.14,-34.65 11.64,-38.83 13.29,-42.45 14.95,-46.06 16.45,-49.01 17.96,-51.95 19.43,-54.25 20.89,-56.55 22.10,-58.49 23.30,-60.43 24.49,-61.76 25.69,-63.10 27.02,-64.28 28.35,-65.46 29.96,-66.59 31.56,-67.72 33.01,-68.77 34.45,-69.81 36.16,-70.72 37.87,-71.63 39.36,-72.39 40.85,-73.15 42.52,-73.89 44.19,-74.63 45.89,-75.35 47.60,-76.06 48.85,-76.73 50.11,-77.40 51.47,-78.10 52.84,-78.80 54.09,-79.81 55.34,-80.83 56.55,-81.71 57.76,-82.59 59.24,-83.75 60.72,-84.90 62.12,-86.16 63.51,-87.41 64.87,-88.91 66.22,-90.40 67.37,-91.99 68.51,-93.58 69.81,-95.47 71.10,-97.36 72.23,-99.31 73.35,-101.27 74.23,-102.90 75.11,-104.53 76.08,-106.42 77.06,-108.30 78.07,-110.30 79.09,-112.30 79.89,-114.47 80.69,-116.63 81.67,-118.66 82.66,-120.68 83.44,-122.65 84.22,-124.63 85.19,-126.55 86.16,-128.47 86.93,-130.40 87.70,-132.33 88.46,-134.01 89.21,-135.68 89.95,-137.03 90.69,-138.38 91.84,-140.00 92.99,-141.62 94.06,-143.09 95.13,-144.55 96.22,-145.82 97.31,-147.08 98.82,-148.46 100.33,-149.84 101.58,-150.83 102.84,-151.83 103.73,-152.59 104.62,-153.36 105.77,-155.06 106.92,-156.76 106.96,-156.86 107.00,-156.96 107.07,-157.04 107.14,-157.12 107.23,-157.18 107.32,-157.23 107.42,-157.25 107.53,-157.28 107.63,-157.27 107.74,-157.26 107.83,-157.21 107.93,-157.17 108.01,-157.10 108.09,-157.02 108.14,-156.93 108.19,-156.84 108.21,-156.73 108.22,-156.63 108.21,-156.52 108.19,-156.42 108.14,-156.32 108.09,-156.23 108.02,-156.16 107.94,-156.08 107.84,-156.04 107.75,-155.99 107.64,-155.98 107.54,-155.97 107.43,-155.99 107.33,-156.01 107.24,-156.07 107.15,-156.12 107.08,-156.20 107.01,-156.28 106.97,-156.38 106.93,-156.48 106.92,-156.58 106.91,-156.69 106.94,-156.79 106.97,-156.89 107.03,-156.98 107.09,-157.07 107.17,-157.14 107.25,-157.20 107.36,-157.24 107.46,-157.27 107.56,-157.27 107.67,-157.27 107.77,-157.24 107.87,-157.21 107.95,-157.14 108.04,-157.08 108.10,-156.99 108.16,-156.90 108.19,-156.80 108.22,-156.70 108.21,-156.59 108.21,-156.49 108.21,-156.49 108.21,-156.49 107.38,-153.84 106.55,-151.19 105.61,-150.34 104.68,-149.50 103.50,-148.57 102.33,-147.65 100.95,-146.39 99.56,-145.14 98.55,-143.97 97.53,-142.79 96.47,-141.35 95.41,-139.90 94.36,-138.42 93.30,-136.94 92.62,-135.70 91.93,-134.45 91.20,-132.84 90.48,-131.22 89.65,-129.17 88.83,-127.13 87.92,-125.33 87.00,-123.53 86.18,-121.45 85.35,-119.37 84.43,-117.48 83.51,-115.59 82.65,-113.26 81.79,-110.93 80.78,-108.92 79.77,-106.91 78.79,-104.99 77.81,-103.08 76.91,-101.41 76.01,-99.74 74.82,-97.68 73.63,-95.62 72.31,-93.70 70.99,-91.79 69.74,-90.06 68.49,-88.34 67.03,-86.74 65.56,-85.14 64.08,-83.81 62.61,-82.48 61.09,-81.30 59.57,-80.12 58.41,-79.27 57.25,-78.43 55.75,-77.25 54.25,-76.08 52.89,-75.38 51.54,-74.69 50.16,-73.96 48.78,-73.23 47.11,-72.53 45.43,-71.83 43.84,-71.13 42.25,-70.42 40.77,-69.67 39.29,-68.91 37.77,-68.12 36.25,-67.33 34.78,-66.27 33.32,-65.20 31.85,-64.18 30.38,-63.16 29.17,-62.10 27.96,-61.04 26.93,-59.92 25.90,-58.80 24.68,-56.85 23.47,-54.89 22.07,-52.72 20.67,-50.55 19.19,-47.67 17.71,-44.79 16.09,-41.30 14.48,-37.80 12.98,-33.68 11.48,-29.57 10.30,-25.97 9.12,-22.37 8.19,-18.92 7.26,-15.46 6.08,-12.18 4.89,-8.89 3.98,-6.17 3.08,-3.45 1.83,-1.57 0.58,0.29 0.54,0.35 0.49,0.42 0.44,0.47 0.38,0.53 0.31,0.57 0.24,0.60 0.16,0.62 0.09,0.65 0.01,0.65 -0.06,0.65 -0.14,0.63 -0.22,0.61 -0.29,0.58 -0.36,0.54 -0.42,0.49 -0.48,0.44 -0.52,0.38 -0.57,0.31 -0.60,0.24 -0.63,0.16 -0.64,0.09 -0.65,0.01 -0.64,-0.06 -0.64,-0.14 -0.61,-0.21 -0.58,-0.29 -0.58,-0.29 L -0.58,-0.29 Z"/></g><g transform="translate(154.62509155273438 279.83333587646484) rotate(0 53.819427490234375 -78.47222137451172)" stroke="none"><path fill="#6741d9" d="M -0.58,-0.29 Q -0.58,-0.29 0.16,-2.41 0.90,-4.53 1.65,-7.10 2.39,-9.67 3.50,-13.02 4.61,-16.38 5.46,-19.74 6.31,-23.10 7.48,-26.79 8.64,-30.48 10.14,-34.65 11.64,-38.83 13.29,-42.45 14.95,-46.06 16.45,-49.01 17.96,-51.95 19.43,-54.25 20.89,-56.55 22.10,-58.49 23.30,-60.43 24.49,-61.76 25.69,-63.10 27.02,-64.28 28.35,-65.46 29.96,-66.59 31.56,-67.72 33.01,-68.77 34.45,-69.81 36.16,-70.72 37.87,-71.63 39.36,-72.39 40.85,-73.15 42.52,-73.89 44.19,-74.63 45.89,-75.35 47.60,-76.06 48.85,-76.73 50.11,-77.40 51.47,-78.10 52.84,-78.80 54.09,-79.81 55.34,-80.83 56.55,-81.71 57.76,-82.59 59.24,-83.75 60.72,-84.90 62.12,-86.16 63.51,-87.41 64.87,-88.91 66.22,-90.40 67.37,-91.99 68.51,-93.58 69.81,-95.47 71.10,-97.36 72.23,-99.31 73.35,-101.27 74.23,-102.90 75.11,-104.53 76.08,-106.42 77.06,-108.30 78.07,-110.30 79.09,-112.30 79.89,-114.47 80.69,-116.63 81.67,-118.66 82.66,-120.68 83.44,-122.65 84.22,-124.63 85.19,-126.55 86.16,-128.47 86.93,-130.40 87.70,-132.33 88.46,-134.01 89.21,-135.68 89.95,-137.03 90.69,-138.38 91.84,-140.00 92.99,-141.62 94.06,-143.09 95.13,-144.55 96.22,-145.82 97.31,-147.08 98.82,-148.46 100.33,-149.84 101.58,-150.83 102.84,-151.83 103.73,-152.59 104.62,-153.36 105.77,-155.06 106.92,-156.76 106.96,-156.86 107.00,-156.96 107.07,-157.04 107.14,-157.12 107.23,-157.18 107.32,-157.23 107.42,-157.25 107.53,-157.28 107.63,-157.27 107.74,-157.26 107.83,-157.21 107.93,-157.17 108.01,-157.10 108.09,-157.02 108.14,-156.93 108.19,-156.84 108.21,-156.73 108.22,-156.63 108.21,-156.52 108.19,-156.42 108.14,-156.32 108.09,-156.23 108.02,-156.16 107.94,-156.08 107.84,-156.04 107.75,-155.99 107.64,-155.98 107.54,-155.97 107.43,-155.99 107.33,-156.01 107.24,-156.07 107.15,-156.12 107.08,-156.20 107.01,-156.28 106.97,-156.38 106.93,-156.48 106.92,-156.58 106.91,-156.69 106.94,-156.79 106.97,-156.89 107.03,-156.98 107.09,-157.07 107.17,-157.14 107.25,-157.20 107.36,-157.24 107.46,-157.27 107.56,-157.27 107.67,-157.27 107.77,-157.24 107.87,-157.21 107.95,-157.14 108.04,-157.08 108.10,-156.99 108.16,-156.90 108.19,-156.80 108.22,-156.70 108.21,-156.59 108.21,-156.49 108.21,-156.49 108.21,-156.49 107.38,-153.84 106.55,-151.19 105.61,-150.34 104.68,-149.50 103.50,-148.57 102.33,-147.65 100.95,-146.39 99.56,-145.14 98.55,-143.97 97.53,-142.79 96.47,-141.35 95.41,-139.90 94.36,-138.42 93.30,-136.94 92.62,-135.70 91.93,-134.45 91.20,-132.84 90.48,-131.22 89.65,-129.17 88.83,-127.13 87.92,-125.33 87.00,-123.53 86.18,-121.45 85.35,-119.37 84.43,-117.48 83.51,-115.59 82.65,-113.26 81.79,-110.93 80.78,-108.92 79.77,-106.91 78.79,-104.99 77.81,-103.08 76.91,-101.41 76.01,-99.74 74.82,-97.68 73.63,-95.62 72.31,-93.70 70.99,-91.79 69.74,-90.06 68.49,-88.34 67.03,-86.74 65.56,-85.14 64.08,-83.81 62.61,-82.48 61.09,-81.30 59.57,-80.12 58.41,-79.27 57.25,-78.43 55.75,-77.25 54.25,-76.08 52.89,-75.38 51.54,-74.69 50.16,-73.96 48.78,-73.23 47.11,-72.53 45.43,-71.83 43.84,-71.13 42.25,-70.42 40.77,-69.67 39.29,-68.91 37.77,-68.12 36.25,-67.33 34.78,-66.27 33.32,-65.20 31.85,-64.18 30.38,-63.16 29.17,-62.10 27.96,-61.04 26.93,-59.92 25.90,-58.80 24.68,-56.85 23.47,-54.89 22.07,-52.72 20.67,-50.55 19.19,-47.67 17.71,-44.79 16.09,-41.30 14.48,-37.80 12.98,-33.68 11.48,-29.57 10.30,-25.97 9.12,-22.37 8.19,-18.92 7.26,-15.46 6.08,-12.18 4.89,-8.89 3.98,-6.17 3.08,-3.45 1.83,-1.57 0.58,0.29 0.54,0.35 0.49,0.42 0.44,0.47 0.38,0.53 0.31,0.57 0.24,0.60 0.16,0.62 0.09,0.65 0.01,0.65 -0.06,0.65 -0.14,0.63 -0.22,0.61 -0.29,0.58 -0.36,0.54 -0.42,0.49 -0.48,0.44 -0.52,0.38 -0.57,0.31 -0.60,0.24 -0.63,0.16 -0.64,0.09 -0.65,0.01 -0.64,-0.06 -0.64,-0.14 -0.61,-0.21 -0.58,-0.29 -0.58,-0.29 L -0.58,-0.29 Z"/></g><g transform="translate(267.0417175292969 280.6111068725586) rotate(0 53.819427490234375 -78.47222137451172)" stroke="none"><path fill="#6741d9" d="M -0.58,-0.29 Q -0.58,-0.29 0.16,-2.41 0.90,-4.53 1.65,-7.10 2.39,-9.67 3.50,-13.02 4.61,-16.38 5.46,-19.74 6.31,-23.10 7.48,-26.79 8.64,-30.48 10.14,-34.65 11.64,-38.83 13.29,-42.45 14.95,-46.06 16.45,-49.01 17.96,-51.95 19.43,-54.25 20.89,-56.55 22.10,-58.49 23.30,-60.43 24.49,-61.76 25.69,-63.10 27.02,-64.28 28.35,-65.46 29.96,-66.59 31.56,-67.72 33.01,-68.77 34.45,-69.81 36.16,-70.72 37.87,-71.63 39.36,-72.39 40.85,-73.15 42.52,-73.89 44.19,-74.63 45.89,-75.35 47.60,-76.06 48.85,-76.73 50.11,-77.40 51.47,-78.10 52.84,-78.80 54.09,-79.81 55.34,-80.83 56.55,-81.71 57.76,-82.59 59.24,-83.75 60.72,-84.90 62.12,-86.16 63.51,-87.41 64.87,-88.91 66.22,-90.40 67.37,-91.99 68.51,-93.58 69.81,-95.47 71.10,-97.36 72.23,-99.31 73.35,-101.27 74.23,-102.90 75.11,-104.53 76.08,-106.42 77.06,-108.30 78.07,-110.30 79.09,-112.30 79.89,-114.47 80.69,-116.63 81.67,-118.66 82.66,-120.68 83.44,-122.65 84.22,-124.63 85.19,-126.55 86.16,-128.47 86.93,-130.40 87.70,-132.33 88.46,-134.01 89.21,-135.68 89.95,-137.03 90.69,-138.38 91.84,-140.00 92.99,-141.62 94.06,-143.09 95.13,-144.55 96.22,-145.82 97.31,-147.08 98.82,-148.46 100.33,-149.84 101.58,-150.83 102.84,-151.83 103.73,-152.59 104.62,-153.36 105.77,-155.06 106.92,-156.76 106.96,-156.86 107.00,-156.96 107.07,-157.04 107.14,-157.12 107.23,-157.18 107.32,-157.23 107.42,-157.25 107.53,-157.28 107.63,-157.27 107.74,-157.26 107.83,-157.21 107.93,-157.17 108.01,-157.10 108.09,-157.02 108.14,-156.93 108.19,-156.84 108.21,-156.73 108.22,-156.63 108.21,-156.52 108.19,-156.42 108.14,-156.32 108.09,-156.23 108.02,-156.16 107.94,-156.08 107.84,-156.04 107.75,-155.99 107.64,-155.98 107.54,-155.97 107.43,-155.99 107.33,-156.01 107.24,-156.07 107.15,-156.12 107.08,-156.20 107.01,-156.28 106.97,-156.38 106.93,-156.48 106.92,-156.58 106.91,-156.69 106.94,-156.79 106.97,-156.89 107.03,-156.98 107.09,-157.07 107.17,-157.14 107.25,-157.20 107.36,-157.24 107.46,-157.27 107.56,-157.27 107.67,-157.27 107.77,-157.24 107.87,-157.21 107.95,-157.14 108.04,-157.08 108.10,-156.99 108.16,-156.90 108.19,-156.80 108.22,-156.70 108.21,-156.59 108.21,-156.49 108.21,-156.49 108.21,-156.49 107.38,-153.84 106.55,-151.19 105.61,-150.34 104.68,-149.50 103.50,-148.57 102.33,-147.65 100.95,-146.39 99.56,-145.14 98.55,-143.97 97.53,-142.79 96.47,-141.35 95.41,-139.90 94.36,-138.42 93.30,-136.94 92.62,-135.70 91.93,-134.45 91.20,-132.84 90.48,-131.22 89.65,-129.17 88.83,-127.13 87.92,-125.33 87.00,-123.53 86.18,-121.45 85.35,-119.37 84.43,-117.48 83.51,-115.59 82.65,-113.26 81.79,-110.93 80.78,-108.92 79.77,-106.91 78.79,-104.99 77.81,-103.08 76.91,-101.41 76.01,-99.74 74.82,-97.68 73.63,-95.62 72.31,-93.70 70.99,-91.79 69.74,-90.06 68.49,-88.34 67.03,-86.74 65.56,-85.14 64.08,-83.81 62.61,-82.48 61.09,-81.30 59.57,-80.12 58.41,-79.27 57.25,-78.43 55.75,-77.25 54.25,-76.08 52.89,-75.38 51.54,-74.69 50.16,-73.96 48.78,-73.23 47.11,-72.53 45.43,-71.83 43.84,-71.13 42.25,-70.42 40.77,-69.67 39.29,-68.91 37.77,-68.12 36.25,-67.33 34.78,-66.27 33.32,-65.20 31.85,-64.18 30.38,-63.16 29.17,-62.10 27.96,-61.04 26.93,-59.92 25.90,-58.80 24.68,-56.85 23.47,-54.89 22.07,-52.72 20.67,-50.55 19.19,-47.67 17.71,-44.79 16.09,-41.30 14.48,-37.80 12.98,-33.68 11.48,-29.57 10.30,-25.97 9.12,-22.37 8.19,-18.92 7.26,-15.46 6.08,-12.18 4.89,-8.89 3.98,-6.17 3.08,-3.45 1.83,-1.57 0.58,0.29 0.54,0.35 0.49,0.42 0.44,0.47 0.38,0.53 0.31,0.57 0.24,0.60 0.16,0.62 0.09,0.65 0.01,0.65 -0.06,0.65 -0.14,0.63 -0.22,0.61 -0.29,0.58 -0.36,0.54 -0.42,0.49 -0.48,0.44 -0.52,0.38 -0.57,0.31 -0.60,0.24 -0.63,0.16 -0.64,0.09 -0.65,0.01 -0.64,-0.06 -0.64,-0.14 -0.61,-0.21 -0.58,-0.29 -0.58,-0.29 L -0.58,-0.29 Z"/></g></svg>