<svg version="1.1" xmlns="http://www.w3.org/2000/svg" viewBox="0 0 652.5813404477296 240.61045837402344" width="652.5813404477296" height="240.61045837402344" filter="invert(93%) hue-rotate(180deg)" class="excalidraw-svg">
  <!-- svg-source:excalidraw -->
  
  <defs>
    <style class="style-fonts">
      @font-face {
        font-family: "Virgil";
        src: url("https://excalidraw.com/Virgil.woff2");
      }
      @font-face {
        font-family: "Cascadia";
        src: url("https://excalidraw.com/Cascadia.woff2");
      }
      @font-face {
        font-family: "Assistant";
        src: url("https://excalidraw.com/Assistant-Regular.woff2");
      }
    </style>
    
  </defs>
  <rect x="0" y="0" width="652.5813404477296" height="240.61045837402344" fill="#ffffff"/><g stroke-linecap="round"><g transform="translate(70.97787004319588 39.668304443359375) rotate(0 275.7630920410156 0.00000762939453125)"><path d="M0 0 C91.92 0, 459.61 0, 551.53 0 M0 0 C91.92 0, 459.61 0, 551.53 0" stroke="#1e1e1e" stroke-width="2" fill="none"/></g></g><mask/><g stroke-linecap="round"><g transform="translate(71.306025560774 63.132102966308594) rotate(0 275.7630920410156 0.00000762939453125)"><path d="M0 0 C91.92 0, 459.61 0, 551.53 0 M0 0 C91.92 0, 459.61 0, 551.53 0" stroke="#1e1e1e" stroke-width="2" fill="none"/></g></g><mask/><g stroke-linecap="round"><g transform="translate(72.03362565843025 84.96541595458984) rotate(0 275.7630920410156 0.00000762939453125)"><path d="M0 0 C91.92 0, 459.61 0, 551.53 0 M0 0 C91.92 0, 459.61 0, 551.53 0" stroke="#1e1e1e" stroke-width="2" fill="none"/></g></g><mask/><g stroke-linecap="round"><g transform="translate(73.00068193284432 141.70298385620117) rotate(0 275.7630920410156 0.00000762939453125)"><path d="M0 0 C91.92 0, 459.61 0, 551.53 0 M0 0 C91.92 0, 459.61 0, 551.53 0" stroke="#1e1e1e" stroke-width="2" fill="none"/></g></g><mask/><g stroke-linecap="round"><g transform="translate(73.32883745042244 165.1667823791504) rotate(0 275.7630920410156 0.00000762939453125)"><path d="M0 0 C91.92 0, 459.61 0, 551.53 0 M0 0 C91.92 0, 459.61 0, 551.53 0" stroke="#1e1e1e" stroke-width="2" fill="none"/></g></g><mask/><g stroke-linecap="round"><g transform="translate(74.05643754807869 187.00009536743164) rotate(0 275.7630920410156 0.00000762939453125)"><path d="M0 0 C91.92 0, 459.61 0, 551.53 0 M0 0 C91.92 0, 459.61 0, 551.53 0" stroke="#1e1e1e" stroke-width="2" fill="none"/></g></g><mask/><g stroke-linecap="round" transform="translate(276.3738661369459 10) rotate(0 80.256591796875 110.30522918701172)"><path d="M32 0 C58.23 0, 84.47 0, 128.51 0 C149.85 0, 160.51 10.67, 160.51 32 C160.51 93.86, 160.51 155.71, 160.51 188.61 C160.51 209.94, 149.85 220.61, 128.51 220.61 C96.16 220.61, 63.81 220.61, 32 220.61 C10.67 220.61, 0 209.94, 0 188.61 C0 145.78, 0 102.95, 0 32 C0 10.67, 10.67 0, 32 0" stroke="none" stroke-width="0" fill="#ffffff"/><path d="M32 0 C56.56 0, 81.12 0, 128.51 0 M32 0 C54.12 0, 76.24 0, 128.51 0 M128.51 0 C149.85 0, 160.51 10.67, 160.51 32 M128.51 0 C149.85 0, 160.51 10.67, 160.51 32 M160.51 32 C160.51 91.33, 160.51 150.65, 160.51 188.61 M160.51 32 C160.51 77.64, 160.51 123.29, 160.51 188.61 M160.51 188.61 C160.51 209.94, 149.85 220.61, 128.51 220.61 M160.51 188.61 C160.51 209.94, 149.85 220.61, 128.51 220.61 M128.51 220.61 C93.2 220.61, 57.88 220.61, 32 220.61 M128.51 220.61 C90.23 220.61, 51.94 220.61, 32 220.61 M32 220.61 C10.67 220.61, 0 209.94, 0 188.61 M32 220.61 C10.67 220.61, 0 209.94, 0 188.61 M0 188.61 C0 149.17, 0 109.72, 0 32 M0 188.61 C0 143.35, 0 98.09, 0 32 M0 32 C0 10.67, 10.67 0, 32 0 M0 32 C0 10.67, 10.67 0, 32 0" stroke="#1e1e1e" stroke-width="2" fill="none"/></g><g transform="translate(325.8210707267896 105.09071350097656) rotate(0 13.312713623046875 13.69305419921875)" stroke="none"><path fill="#1e1e1e" d="M 0.60,0.24 Q 0.60,0.24 0.37,1.41 0.13,2.58 -0.21,4.70 -0.56,6.81 -0.71,9.01 -0.87,11.20 -0.71,13.61 -0.55,16.02 -0.05,18.53 0.43,21.03 1.70,23.51 2.96,25.98 4.69,27.80 6.42,29.62 8.44,30.08 10.46,30.55 12.64,29.72 14.82,28.89 17.37,26.25 19.93,23.60 21.65,20.60 23.37,17.60 24.51,12.95 25.65,8.30 25.97,4.84 26.29,1.38 25.89,-1.60 25.49,-4.58 25.46,-4.69 25.43,-4.79 25.43,-4.89 25.43,-5.00 25.47,-5.10 25.51,-5.20 25.57,-5.28 25.64,-5.36 25.73,-5.42 25.82,-5.48 25.92,-5.50 26.03,-5.53 26.13,-5.52 26.24,-5.51 26.34,-5.47 26.43,-5.43 26.51,-5.36 26.59,-5.29 26.64,-5.19 26.70,-5.10 26.72,-5.00 26.74,-4.89 26.72,-4.79 26.71,-4.68 26.66,-4.59 26.61,-4.49 26.54,-4.42 26.46,-4.34 26.37,-4.29 26.27,-4.25 26.17,-4.23 26.06,-4.22 25.96,-4.24 25.85,-4.26 25.76,-4.31 25.67,-4.36 25.60,-4.44 25.53,-4.52 25.48,-4.62 25.44,-4.72 25.43,-4.82 25.43,-4.93 25.45,-5.03 25.48,-5.14 25.53,-5.23 25.59,-5.31 25.67,-5.38 25.76,-5.45 25.86,-5.48 25.96,-5.52 26.06,-5.52 26.17,-5.53 26.27,-5.49 26.37,-5.46 26.46,-5.40 26.54,-5.34 26.61,-5.25 26.67,-5.17 26.67,-5.17 26.67,-5.17 27.88,-1.78 29.10,1.60 28.81,5.31 28.53,9.02 27.22,14.04 25.91,19.06 23.92,22.34 21.93,25.62 18.85,28.49 15.76,31.36 12.90,32.18 10.04,33.01 7.41,32.22 4.78,31.43 2.78,29.26 0.78,27.09 -0.56,24.30 -1.91,21.51 -2.41,18.84 -2.91,16.17 -3.04,13.60 -3.18,11.03 -2.99,8.72 -2.80,6.41 -2.34,4.10 -1.88,1.78 -1.24,0.77 -0.60,-0.24 -0.57,-0.31 -0.53,-0.38 -0.48,-0.44 -0.42,-0.49 -0.36,-0.54 -0.29,-0.58 -0.22,-0.61 -0.14,-0.64 -0.06,-0.64 0.01,-0.65 0.09,-0.64 0.16,-0.63 0.24,-0.60 0.31,-0.57 0.37,-0.52 0.44,-0.48 0.49,-0.42 0.54,-0.36 0.58,-0.29 0.61,-0.22 0.63,-0.14 0.65,-0.06 0.65,0.01 0.65,0.09 0.63,0.16 0.60,0.24 0.60,0.24 L 0.60,0.24 Z"/></g><g transform="translate(357.0108290275709 144.64845275878906) rotate(0 8.36798095703125 -3.4232635498046875)" stroke="none"><path fill="#1e1e1e" d="M 0,-0.65 Q 0,-0.65 0.80,-0.84 1.60,-1.02 2.99,-2.29 4.38,-3.55 5.86,-5.35 7.34,-7.15 8.35,-9.36 9.36,-11.56 9.79,-13.02 10.22,-14.48 9.88,-15.17 9.54,-15.86 8.99,-15.07 8.44,-14.27 7.96,-12.76 7.48,-11.25 7.25,-8.27 7.03,-5.29 7.14,-2.72 7.25,-0.16 7.30,2.06 7.35,4.30 7.37,5.90 7.39,7.50 7.60,8.27 7.81,9.05 7.25,10.31 6.69,11.56 5.86,11.68 5.02,11.79 4.04,11.03 3.05,10.26 1.72,9.15 0.40,8.05 -1.18,7.23 -2.76,6.40 -3.81,6.09 -4.86,5.78 -5.57,5.63 -6.28,5.47 -6.45,5.39 -6.61,5.31 -6.75,5.20 -6.89,5.08 -7.00,4.93 -7.11,4.79 -7.17,4.62 -7.24,4.45 -7.27,4.27 -7.30,4.10 -7.28,3.91 -7.27,3.73 -7.21,3.56 -7.15,3.39 -7.05,3.24 -6.95,3.09 -6.82,2.96 -6.69,2.84 -6.53,2.75 -6.38,2.66 -6.20,2.61 -6.03,2.56 -5.85,2.55 -5.66,2.55 -5.49,2.58 -5.31,2.62 -3.92,2.50 -2.53,2.37 -0.11,2.13 2.29,1.88 6.59,1.30 10.89,0.72 14.53,0.43 18.18,0.15 19.70,-0.07 21.23,-0.30 21.33,-0.30 21.44,-0.30 21.54,-0.27 21.64,-0.23 21.72,-0.17 21.81,-0.10 21.86,-0.01 21.92,0.07 21.95,0.17 21.98,0.27 21.97,0.38 21.96,0.49 21.92,0.58 21.88,0.68 21.81,0.76 21.74,0.84 21.65,0.90 21.56,0.95 21.45,0.97 21.35,0.99 21.25,0.98 21.14,0.97 21.04,0.92 20.95,0.87 20.87,0.80 20.80,0.73 20.75,0.63 20.70,0.54 20.68,0.43 20.67,0.33 20.69,0.22 20.70,0.12 20.75,0.03 20.81,-0.06 20.88,-0.13 20.96,-0.20 21.06,-0.25 21.16,-0.29 21.26,-0.30 21.37,-0.31 21.47,-0.29 21.57,-0.26 21.66,-0.21 21.75,-0.15 21.82,-0.07 21.89,0.00 21.93,0.10 21.97,0.20 21.97,0.31 21.98,0.42 21.95,0.52 21.92,0.62 21.86,0.71 21.79,0.79 21.71,0.86 21.62,0.92 21.52,0.95 21.42,0.99 21.42,0.99 21.42,0.99 19.90,1.22 18.37,1.45 14.84,2.25 11.30,3.05 6.95,3.99 2.60,4.93 0.10,5.18 -2.40,5.44 -4.34,5.45 -6.28,5.47 -6.45,5.39 -6.61,5.31 -6.75,5.20 -6.89,5.08 -7.00,4.93 -7.11,4.79 -7.17,4.62 -7.24,4.45 -7.27,4.27 -7.30,4.10 -7.28,3.91 -7.27,3.73 -7.21,3.56 -7.15,3.39 -7.05,3.24 -6.95,3.09 -6.82,2.96 -6.69,2.84 -6.53,2.75 -6.38,2.66 -6.20,2.61 -6.03,2.56 -5.85,2.55 -5.66,2.55 -5.49,2.58 -5.31,2.62 -4.61,2.80 -3.90,2.98 -2.65,3.45 -1.40,3.93 0.35,4.96 2.12,5.98 3.53,7.17 4.93,8.36 5.07,8.97 5.21,9.59 4.96,8.57 4.72,7.55 4.70,5.95 4.68,4.35 4.64,2.15 4.59,-0.05 4.48,-2.78 4.38,-5.51 4.67,-8.81 4.97,-12.11 5.71,-14.06 6.46,-16.01 7.65,-17.07 8.85,-18.12 10.21,-17.70 11.57,-17.28 12.14,-15.70 12.71,-14.12 12.20,-12.29 11.68,-10.46 10.46,-8.01 9.24,-5.56 7.55,-3.63 5.85,-1.69 3.86,-0.33 1.88,1.02 0.94,0.84 0,0.65 -0.07,0.64 -0.15,0.63 -0.23,0.60 -0.30,0.58 -0.37,0.53 -0.43,0.49 -0.48,0.43 -0.54,0.37 -0.57,0.30 -0.61,0.23 -0.63,0.15 -0.65,0.07 -0.65,-0.00 -0.65,-0.07 -0.63,-0.15 -0.61,-0.23 -0.57,-0.30 -0.54,-0.37 -0.48,-0.43 -0.43,-0.49 -0.37,-0.53 -0.30,-0.58 -0.23,-0.60 -0.15,-0.63 -0.07,-0.64 0.00,-0.65 0.00,-0.65 L 0,-0.65 Z"/></g><g stroke-linecap="round" transform="translate(137.72745896909493 22.576967330781486) rotate(0 42.39232128005324 40.465389554209594)"><path d="M20.23 0 C35.49 0, 50.75 0, 64.55 0 C78.04 0, 84.78 6.74, 84.78 20.23 C84.78 31.66, 84.78 43.09, 84.78 60.7 C84.78 74.19, 78.04 80.93, 64.55 80.93 C49.21 80.93, 33.86 80.93, 20.23 80.93 C6.74 80.93, 0 74.19, 0 60.7 C0 44.97, 0 29.24, 0 20.23 C0 6.74, 6.74 0, 20.23 0" stroke="none" stroke-width="0" fill="#ffffff"/><path d="M20.23 0 C36.7 0, 53.17 0, 64.55 0 M20.23 0 C31.33 0, 42.42 0, 64.55 0 M64.55 0 C78.04 0, 84.78 6.74, 84.78 20.23 M64.55 0 C78.04 0, 84.78 6.74, 84.78 20.23 M84.78 20.23 C84.78 29.56, 84.78 38.89, 84.78 60.7 M84.78 20.23 C84.78 36.37, 84.78 52.5, 84.78 60.7 M84.78 60.7 C84.78 74.19, 78.04 80.93, 64.55 80.93 M84.78 60.7 C84.78 74.19, 78.04 80.93, 64.55 80.93 M64.55 80.93 C55.53 80.93, 46.51 80.93, 20.23 80.93 M64.55 80.93 C48.82 80.93, 33.08 80.93, 20.23 80.93 M20.23 80.93 C6.74 80.93, 0 74.19, 0 60.7 M20.23 80.93 C6.74 80.93, 0 74.19, 0 60.7 M0 60.7 C0 49.55, 0 38.4, 0 20.23 M0 60.7 C0 47.61, 0 34.53, 0 20.23 M0 20.23 C0 6.74, 6.74 0, 20.23 0 M0 20.23 C0 6.74, 6.74 0, 20.23 0" stroke="#1e1e1e" stroke-width="0.5" fill="none"/></g><g stroke-linecap="round" transform="translate(493.55467831006047 22.537113029471016) rotate(0 42.39232128005324 40.465389554209594)"><path d="M20.23 0 C35.42 0, 50.62 0, 64.55 0 C78.04 0, 84.78 6.74, 84.78 20.23 C84.78 33.93, 84.78 47.64, 84.78 60.7 C84.78 74.19, 78.04 80.93, 64.55 80.93 C53.01 80.93, 41.46 80.93, 20.23 80.93 C6.74 80.93, 0 74.19, 0 60.7 C0 46.79, 0 32.89, 0 20.23 C0 6.74, 6.74 0, 20.23 0" stroke="none" stroke-width="0" fill="#ffffff"/><path d="M20.23 0 C35.8 0, 51.37 0, 64.55 0 M20.23 0 C32.27 0, 44.3 0, 64.55 0 M64.55 0 C78.04 0, 84.78 6.74, 84.78 20.23 M64.55 0 C78.04 0, 84.78 6.74, 84.78 20.23 M84.78 20.23 C84.78 33.63, 84.78 47.04, 84.78 60.7 M84.78 20.23 C84.78 29.59, 84.78 38.95, 84.78 60.7 M84.78 60.7 C84.78 74.19, 78.04 80.93, 64.55 80.93 M84.78 60.7 C84.78 74.19, 78.04 80.93, 64.55 80.93 M64.55 80.93 C49.61 80.93, 34.66 80.93, 20.23 80.93 M64.55 80.93 C55.1 80.93, 45.65 80.93, 20.23 80.93 M20.23 80.93 C6.74 80.93, 0 74.19, 0 60.7 M20.23 80.93 C6.74 80.93, 0 74.19, 0 60.7 M0 60.7 C0 45.34, 0 29.98, 0 20.23 M0 60.7 C0 44.52, 0 28.34, 0 20.23 M0 20.23 C0 6.74, 6.74 0, 20.23 0 M0 20.23 C0 6.74, 6.74 0, 20.23 0" stroke="#1e1e1e" stroke-width="0.5" fill="none"/></g><g transform="translate(624.4131680496073 34.689074900842) rotate(0 -0.8257979085613556 5.505492397904874)" stroke="none"><path fill="#1e1e1e" d="M 0.63,0.18 Q 0.63,0.18 0.57,1.36 0.51,2.54 0.40,3.40 0.29,4.27 0.25,5.10 0.21,5.94 0.20,6.76 0.18,7.59 -0.36,8.81 -0.91,10.03 -0.93,10.11 -0.94,10.19 -0.97,10.26 -1.00,10.33 -1.05,10.40 -1.09,10.46 -1.15,10.51 -1.21,10.56 -1.28,10.60 -1.36,10.63 -1.43,10.65 -1.51,10.66 -1.59,10.66 -1.67,10.66 -1.75,10.64 -1.82,10.62 -1.89,10.58 -1.96,10.54 -2.02,10.49 -2.07,10.43 -2.12,10.37 -2.16,10.30 -2.19,10.22 -2.21,10.15 -2.22,10.07 -2.23,9.99 -2.21,10.10 -2.20,10.20 -2.21,10.10 -2.23,9.99 -2.21,9.89 -2.19,9.78 -2.13,9.69 -2.08,9.60 -2.00,9.53 -1.92,9.46 -1.83,9.41 -1.73,9.37 -1.62,9.36 -1.52,9.36 -1.41,9.38 -1.31,9.41 -1.22,9.47 -1.13,9.52 -1.06,9.61 -1.00,9.69 -0.96,9.79 -0.93,9.89 -0.92,10.00 -0.92,10.10 -0.95,10.20 -0.98,10.30 -1.05,10.39 -1.11,10.48 -1.19,10.54 -1.28,10.60 -1.38,10.63 -1.48,10.66 -1.59,10.66 -1.70,10.66 -1.80,10.62 -1.90,10.58 -1.98,10.51 -2.06,10.45 -2.12,10.36 -2.18,10.27 -2.20,10.17 -2.23,10.06 -2.22,9.96 -2.21,9.85 -2.17,9.75 -2.12,9.66 -2.05,9.58 -1.98,9.50 -1.89,9.45 -1.80,9.39 -1.69,9.37 -1.59,9.35 -1.48,9.37 -1.38,9.38 -1.28,9.43 -1.19,9.48 -1.11,9.55 -1.04,9.63 -0.98,9.83 -0.91,10.03 -0.93,10.11 -0.94,10.19 -0.97,10.26 -1.00,10.33 -1.05,10.40 -1.09,10.46 -1.15,10.51 -1.21,10.56 -1.28,10.60 -1.36,10.63 -1.43,10.65 -1.51,10.66 -1.59,10.66 -1.67,10.66 -1.75,10.64 -1.82,10.62 -1.89,10.58 -1.96,10.54 -2.02,10.49 -2.07,10.43 -2.12,10.37 -2.16,10.30 -2.19,10.22 -2.21,10.15 -2.22,10.07 -2.23,9.99 -2.27,8.75 -2.31,7.52 -2.28,6.65 -2.24,5.78 -2.17,4.85 -2.10,3.93 -1.94,2.91 -1.77,1.89 -1.20,0.85 -0.63,-0.18 -0.60,-0.25 -0.56,-0.32 -0.52,-0.38 -0.47,-0.45 -0.41,-0.50 -0.35,-0.55 -0.28,-0.58 -0.21,-0.62 -0.13,-0.63 -0.05,-0.65 0.02,-0.65 0.10,-0.64 0.17,-0.62 0.25,-0.60 0.32,-0.56 0.39,-0.52 0.44,-0.47 0.50,-0.41 0.54,-0.35 0.59,-0.28 0.61,-0.20 0.64,-0.13 0.64,-0.05 0.65,0.02 0.64,0.10 0.63,0.18 0.63,0.18 L 0.63,0.18 Z"/></g><g transform="translate(621.6604494582339 35.23961420190392) rotate(0 6.331323435561217 4.679672403280279)" stroke="none"><path fill="#1e1e1e" d="M -0.65,0 Q -0.65,0 -0.79,-0.77 -0.94,-1.55 -0.39,-2.14 0.14,-2.72 1.03,-2.79 1.93,-2.85 2.48,-2.83 3.04,-2.82 4.01,-2.65 4.97,-2.48 6.08,-2.07 7.19,-1.65 8.34,-0.97 9.49,-0.29 10.31,0.33 11.14,0.95 11.86,1.75 12.58,2.55 13.07,3.25 13.56,3.94 13.85,5.04 14.15,6.15 14.08,7.06 14.02,7.98 13.43,9.02 12.84,10.07 11.96,10.74 11.09,11.40 9.60,11.71 8.11,12.02 6.97,12.23 5.83,12.44 3.69,12.31 1.54,12.18 1.44,12.17 1.33,12.16 1.23,12.12 1.14,12.08 1.06,12.01 0.98,11.93 0.93,11.84 0.88,11.75 0.86,11.64 0.84,11.54 0.86,11.43 0.87,11.33 0.92,11.23 0.97,11.14 1.04,11.07 1.12,10.99 1.22,10.94 1.31,10.90 1.42,10.89 1.52,10.87 1.63,10.89 1.73,10.91 1.82,10.97 1.91,11.02 1.98,11.10 2.05,11.18 2.09,11.28 2.14,11.38 2.14,11.48 2.15,11.59 2.12,11.69 2.10,11.80 2.04,11.88 1.98,11.97 1.90,12.04 1.81,12.10 1.71,12.14 1.61,12.17 1.51,12.18 1.40,12.18 1.30,12.15 1.20,12.11 1.11,12.05 1.03,11.99 0.97,11.90 0.90,11.81 0.87,11.71 0.84,11.61 0.85,11.50 0.85,11.40 0.89,11.30 0.93,11.20 1.00,11.12 1.06,11.03 1.15,10.98 1.24,10.92 1.35,10.90 1.45,10.87 1.45,10.87 1.45,10.87 3.38,10.41 5.30,9.95 6.49,9.66 7.67,9.38 8.67,9.27 9.66,9.17 10.17,8.87 10.68,8.56 11.20,7.58 11.73,6.60 11.65,5.91 11.58,5.22 11.21,4.66 10.83,4.10 10.27,3.45 9.71,2.80 9.00,2.25 8.28,1.70 7.31,1.11 6.34,0.51 5.44,0.15 4.53,-0.20 3.75,-0.36 2.96,-0.53 1.95,-0.75 0.94,-0.97 0.79,-0.48 0.65,0 0.64,0.07 0.63,0.15 0.60,0.23 0.58,0.30 0.53,0.37 0.49,0.43 0.43,0.48 0.37,0.54 0.30,0.57 0.23,0.61 0.15,0.63 0.07,0.65 -0.00,0.65 -0.07,0.65 -0.15,0.63 -0.23,0.61 -0.30,0.57 -0.37,0.54 -0.43,0.48 -0.49,0.43 -0.53,0.37 -0.58,0.30 -0.60,0.23 -0.63,0.15 -0.64,0.07 -0.65,-0.00 -0.65,-0.00 L -0.65,0 Z"/></g><g transform="translate(626.6154135981085 35.23961420190392) rotate(0 -5.684341886080802e-14 3.5785717150929486)" stroke="none"><path d="M0 0 C-0.55 1.19, -3.85 6.79, -3.3 7.16 C-2.75 7.52, 2.66 2.29, 3.3 2.2 C3.95 2.11, 0.64 5.96, 0.55 6.61 C0.46 7.25, 2.39 6.15, 2.75 6.06" stroke="none" stroke-width="0" fill="#ffffff" fill-rule="evenodd"/><path fill="#1e1e1e" d="M 0.60,0.24 Q 0.60,0.24 0.43,1.09 0.26,1.94 -0.19,2.81 -0.66,3.69 -1.00,4.34 -1.33,5.00 -1.63,5.59 -1.93,6.18 -2.18,6.66 -2.43,7.14 -2.35,7.01 -2.26,6.88 -2.31,6.99 -2.36,7.10 -2.44,7.19 -2.51,7.29 -2.61,7.36 -2.70,7.44 -2.81,7.49 -2.92,7.53 -3.04,7.56 -3.16,7.58 -3.28,7.57 -3.40,7.56 -3.52,7.52 -3.63,7.49 -3.73,7.43 -3.84,7.36 -3.92,7.28 -4.01,7.19 -4.07,7.09 -4.13,6.98 -4.17,6.87 -4.20,6.75 -4.21,6.63 -4.22,6.51 -4.19,6.39 -4.17,6.27 -3.31,5.68 -2.45,5.08 -1.79,4.55 -1.13,4.02 -0.30,3.46 0.52,2.90 1.19,2.52 1.86,2.14 1.94,2.09 2.03,2.04 2.12,2.02 2.22,1.99 2.31,1.99 2.41,1.98 2.51,2.01 2.60,2.03 2.69,2.07 2.78,2.11 2.85,2.18 2.93,2.24 2.99,2.32 3.04,2.40 3.08,2.49 3.12,2.58 3.13,2.67 3.15,2.77 3.14,2.87 3.13,2.97 3.10,3.06 3.06,3.15 3.01,3.23 2.96,3.31 2.89,3.38 2.81,3.45 2.76,4.03 2.70,4.60 2.46,5.15 2.21,5.70 2.61,6.05 3.02,6.40 2.97,6.46 2.93,6.53 2.88,6.59 2.82,6.64 2.75,6.68 2.68,6.72 2.61,6.75 2.53,6.77 2.45,6.77 2.37,6.78 2.30,6.76 2.22,6.75 2.15,6.71 2.08,6.68 2.01,6.63 1.95,6.58 1.90,6.52 1.85,6.46 1.82,6.38 1.79,6.31 1.78,6.23 1.76,6.16 1.77,6.08 1.77,6.00 1.80,5.92 1.82,5.85 2.16,5.66 2.49,5.47 2.59,5.50 2.70,5.53 2.78,5.59 2.87,5.65 2.94,5.73 3.00,5.82 3.03,5.92 3.07,6.02 3.07,6.12 3.07,6.23 3.03,6.33 3.00,6.43 2.93,6.52 2.87,6.60 2.78,6.66 2.69,6.72 2.59,6.75 2.49,6.78 2.38,6.77 2.28,6.76 2.18,6.72 2.08,6.68 2.00,6.61 1.92,6.55 1.86,6.45 1.81,6.36 1.79,6.26 1.76,6.16 1.78,6.05 1.79,5.94 1.83,5.85 1.88,5.75 1.95,5.67 2.02,5.60 2.12,5.55 2.21,5.50 2.32,5.48 2.42,5.47 2.53,5.48 2.63,5.50 2.73,5.55 2.82,5.60 2.89,5.68 2.96,5.76 3.01,5.85 3.05,5.95 3.06,6.05 3.08,6.16 3.05,6.26 3.03,6.37 2.97,6.46 2.92,6.55 2.84,6.62 2.76,6.69 2.66,6.72 2.56,6.76 2.79,6.58 3.02,6.40 2.97,6.46 2.93,6.53 2.88,6.59 2.82,6.64 2.75,6.68 2.68,6.72 2.61,6.75 2.53,6.77 2.45,6.77 2.37,6.78 2.30,6.76 2.22,6.75 2.15,6.71 2.08,6.68 2.01,6.63 1.95,6.58 1.90,6.52 1.85,6.46 1.82,6.38 1.79,6.31 1.78,6.23 1.76,6.16 1.77,6.08 1.77,6.00 1.80,5.92 1.82,5.85 1.25,5.38 0.67,4.91 1.05,4.10 1.43,3.29 1.65,2.71 1.86,2.14 1.94,2.09 2.03,2.04 2.12,2.02 2.22,1.99 2.31,1.99 2.41,1.98 2.51,2.01 2.60,2.03 2.69,2.07 2.78,2.11 2.85,2.18 2.93,2.24 2.99,2.32 3.04,2.40 3.08,2.49 3.12,2.58 3.13,2.67 3.15,2.77 3.14,2.87 3.13,2.97 3.10,3.06 3.06,3.15 3.01,3.23 2.96,3.31 2.89,3.38 2.81,3.45 2.18,3.87 1.55,4.30 0.80,4.88 0.06,5.47 -1.10,6.17 -2.26,6.88 -2.31,6.99 -2.36,7.10 -2.44,7.19 -2.51,7.29 -2.61,7.36 -2.70,7.44 -2.81,7.48 -2.92,7.53 -3.04,7.56 -3.16,7.58 -3.28,7.57 -3.40,7.56 -3.52,7.52 -3.63,7.49 -3.73,7.43 -3.84,7.36 -3.92,7.28 -4.01,7.19 -4.07,7.09 -4.13,6.98 -4.17,6.87 -4.20,6.75 -4.21,6.63 -4.22,6.51 -4.19,6.39 -4.17,6.27 -3.96,5.76 -3.76,5.25 -3.44,4.65 -3.13,4.05 -2.76,3.38 -2.40,2.71 -1.97,1.97 -1.53,1.22 -1.07,0.48 -0.60,-0.24 -0.57,-0.31 -0.53,-0.38 -0.48,-0.44 -0.42,-0.49 -0.36,-0.54 -0.29,-0.58 -0.22,-0.61 -0.14,-0.64 -0.06,-0.64 0.01,-0.65 0.09,-0.64 0.16,-0.63 0.24,-0.60 0.31,-0.57 0.37,-0.52 0.44,-0.48 0.49,-0.42 0.54,-0.36 0.58,-0.29 0.61,-0.22 0.63,-0.14 0.65,-0.06 0.65,0.01 0.65,0.09 0.63,0.16 0.60,0.24 0.60,0.24 L 0.60,0.24 Z"/></g><g transform="translate(624.4131680496073 56.16050519139958) rotate(0 0 5.780762048435889)" stroke="none"><path fill="#1e1e1e" d="M 0.65,0 Q 0.65,0 0.89,1.10 1.12,2.21 1.13,3.31 1.14,4.42 1.15,5.52 1.16,6.62 0.91,8.81 0.65,11.01 0.63,11.11 0.62,11.22 0.57,11.31 0.52,11.40 0.44,11.48 0.36,11.55 0.27,11.59 0.17,11.64 0.07,11.65 -0.03,11.66 -0.13,11.64 -0.24,11.62 -0.33,11.56 -0.42,11.51 -0.49,11.43 -0.56,11.34 -0.60,11.25 -0.64,11.15 -0.64,11.04 -0.65,10.94 -0.62,10.83 -0.59,10.73 -0.53,10.64 -0.47,10.55 -0.39,10.49 -0.30,10.43 -0.20,10.39 -0.10,10.36 0.00,10.36 0.10,10.36 0.20,10.39 0.30,10.43 0.39,10.49 0.47,10.55 0.53,10.64 0.59,10.73 0.62,10.83 0.65,10.94 0.64,11.04 0.64,11.15 0.60,11.25 0.56,11.34 0.49,11.43 0.42,11.51 0.33,11.56 0.24,11.62 0.13,11.64 0.03,11.66 -0.07,11.65 -0.17,11.64 -0.27,11.59 -0.36,11.55 -0.44,11.48 -0.52,11.40 -0.57,11.31 -0.62,11.22 -0.63,11.11 -0.65,11.01 -0.65,11.01 -0.65,11.01 -0.91,8.81 -1.16,6.62 -1.15,5.52 -1.14,4.42 -1.13,3.31 -1.12,2.21 -0.89,1.10 -0.65,0 -0.64,-0.07 -0.63,-0.15 -0.60,-0.23 -0.58,-0.30 -0.53,-0.37 -0.49,-0.43 -0.43,-0.48 -0.37,-0.54 -0.30,-0.57 -0.23,-0.61 -0.15,-0.63 -0.07,-0.65 0.00,-0.65 0.07,-0.65 0.15,-0.63 0.23,-0.61 0.30,-0.57 0.37,-0.54 0.43,-0.48 0.49,-0.43 0.53,-0.37 0.58,-0.30 0.60,-0.23 0.63,-0.15 0.64,-0.07 0.65,0.00 0.65,0.00 L 0.65,0 Z"/></g><g transform="translate(623.8626950067353 57.26158379352353) rotate(0 7.157121344122515 6.606604129123895)" stroke="none"><path fill="#1e1e1e" d="M 0,-0.65 Q 0,-0.65 0.79,-0.92 1.58,-1.19 2.51,-1.04 3.44,-0.88 4.18,-0.64 4.92,-0.40 6.29,-0.00 7.66,0.38 8.94,0.89 10.22,1.39 11.48,2.11 12.74,2.83 13.57,3.75 14.41,4.66 14.83,6.09 15.26,7.51 14.90,8.81 14.54,10.12 13.85,11.29 13.17,12.46 12.20,13.26 11.23,14.07 9.62,14.23 8.02,14.39 5.90,14.12 3.78,13.85 3.68,13.84 3.57,13.82 3.48,13.78 3.38,13.73 3.31,13.65 3.23,13.58 3.19,13.48 3.14,13.39 3.13,13.28 3.11,13.18 3.13,13.07 3.15,12.97 3.20,12.88 3.26,12.78 3.34,12.71 3.42,12.64 3.51,12.60 3.61,12.56 3.72,12.55 3.82,12.54 3.93,12.57 4.03,12.60 4.12,12.65 4.21,12.71 4.27,12.79 4.34,12.88 4.38,12.98 4.41,13.08 4.42,13.18 4.42,13.29 4.39,13.39 4.35,13.49 4.29,13.58 4.23,13.66 4.14,13.73 4.06,13.79 3.96,13.82 3.85,13.85 3.75,13.84 3.64,13.84 3.54,13.80 3.44,13.77 3.36,13.70 3.28,13.63 3.22,13.54 3.16,13.45 3.14,13.35 3.11,13.25 3.12,13.14 3.13,13.04 3.17,12.94 3.22,12.84 3.29,12.76 3.36,12.68 3.45,12.63 3.54,12.58 3.65,12.56 3.75,12.54 3.75,12.54 3.75,12.54 5.79,12.14 7.82,11.74 8.75,11.71 9.67,11.68 10.18,11.29 10.70,10.89 11.27,9.99 11.84,9.09 12.19,8.49 12.55,7.89 12.42,7.09 12.29,6.28 11.83,5.66 11.37,5.04 10.32,4.40 9.27,3.75 8.11,3.27 6.94,2.79 5.53,2.37 4.12,1.94 3.54,1.73 2.96,1.52 2.27,1.35 1.57,1.19 0.78,0.92 0,0.65 -0.07,0.64 -0.15,0.63 -0.23,0.60 -0.30,0.58 -0.37,0.53 -0.43,0.49 -0.48,0.43 -0.54,0.37 -0.57,0.30 -0.61,0.23 -0.63,0.15 -0.65,0.07 -0.65,-0.00 -0.65,-0.07 -0.63,-0.15 -0.61,-0.23 -0.57,-0.30 -0.54,-0.37 -0.48,-0.43 -0.43,-0.49 -0.37,-0.53 -0.30,-0.58 -0.23,-0.60 -0.15,-0.63 -0.07,-0.64 0.00,-0.65 0.00,-0.65 L 0,-0.65 Z"/></g><g transform="translate(627.7165363723591 62.76708723446012) rotate(0 1.6515958171225975 -0.550550344093665)" stroke="none"><path d="M0 0 C-0.37 0.09, -2.57 1.28, -2.2 0.55 C-1.84 -0.18, 1.47 -4.04, 2.2 -4.4 C2.94 -4.77, 2.57 -2.84, 2.2 -1.65 C1.84 -0.46, -0.55 2.39, 0 2.75 C0.55 3.12, 4.77 0.46, 5.51 0.55 C6.24 0.64, 4.59 2.84, 4.4 3.3" stroke="none" stroke-width="0" fill="#ffffff" fill-rule="evenodd"/><path fill="#1e1e1e" d="M 0.20,0.62 Q 0.20,0.62 -0.21,0.93 -0.64,1.24 -0.99,1.33 -1.34,1.43 -1.46,1.45 -1.58,1.48 -1.71,1.47 -1.83,1.47 -1.95,1.43 -2.07,1.40 -2.18,1.33 -2.29,1.27 -2.38,1.19 -2.47,1.10 -2.53,0.99 -2.60,0.89 -2.64,0.77 -2.68,0.65 -2.69,0.53 -2.70,0.40 -2.68,0.28 -2.66,0.16 -2.61,0.04 -2.56,-0.06 -2.49,-0.16 -2.41,-0.26 -2.31,-0.34 -2.22,-0.42 -2.10,-0.47 -1.99,-0.52 -1.70,-1.31 -1.41,-2.09 -1.12,-2.59 -0.82,-3.08 -0.26,-3.59 0.29,-4.10 0.74,-4.45 1.20,-4.80 2.29,-4.33 3.38,-3.86 3.38,-3.20 3.39,-2.53 3.04,-1.46 2.69,-0.38 2.21,0.55 1.73,1.49 1.20,1.62 0.68,1.75 1.48,1.40 2.27,1.06 2.90,0.79 3.53,0.52 3.91,1.40 4.28,2.29 4.35,2.27 4.43,2.24 4.51,2.24 4.59,2.23 4.67,2.25 4.74,2.26 4.82,2.30 4.89,2.33 4.95,2.38 5.01,2.43 5.06,2.49 5.11,2.55 5.14,2.62 5.18,2.69 5.19,2.77 5.20,2.85 5.20,2.93 5.19,3.01 5.17,3.08 5.15,3.16 5.11,3.23 5.07,3.30 5.01,3.35 4.95,3.41 4.89,3.45 4.82,3.49 4.94,3.40 5.06,3.30 4.98,3.37 4.90,3.44 4.81,3.49 4.71,3.53 4.60,3.54 4.50,3.54 4.39,3.52 4.29,3.49 4.20,3.44 4.11,3.38 4.04,3.30 3.98,3.21 3.94,3.11 3.90,3.01 3.90,2.91 3.90,2.80 3.93,2.70 3.96,2.60 4.02,2.51 4.08,2.43 4.17,2.36 4.26,2.30 4.36,2.27 4.46,2.24 4.57,2.24 4.67,2.25 4.77,2.28 4.87,2.32 4.95,2.39 5.04,2.45 5.09,2.54 5.15,2.63 5.18,2.73 5.20,2.84 5.19,2.94 5.19,3.05 5.14,3.15 5.10,3.24 5.03,3.32 4.96,3.40 4.87,3.45 4.78,3.51 4.67,3.53 4.57,3.55 4.46,3.53 4.36,3.52 4.26,3.47 4.17,3.42 4.09,3.35 4.02,3.27 3.97,3.18 3.92,3.08 3.91,2.98 3.89,2.87 3.91,2.77 3.93,2.66 4.11,2.48 4.28,2.29 4.35,2.27 4.43,2.24 4.51,2.24 4.59,2.23 4.67,2.25 4.74,2.26 4.82,2.30 4.89,2.33 4.95,2.38 5.01,2.43 5.06,2.49 5.11,2.55 5.14,2.62 5.18,2.69 5.19,2.77 5.20,2.85 5.20,2.93 5.19,3.01 5.17,3.08 5.15,3.16 5.11,3.23 5.07,3.30 5.01,3.35 4.95,3.41 4.89,3.45 4.82,3.49 4.63,3.01 4.45,2.54 3.78,2.85 3.12,3.16 1.65,3.44 0.18,3.72 -0.32,2.69 -0.84,1.65 -0.61,1.01 -0.38,0.37 0.04,-0.41 0.47,-1.19 0.78,-1.92 1.09,-2.66 1.15,-3.28 1.21,-3.90 1.68,-3.47 2.15,-3.04 1.56,-2.50 0.97,-1.95 0.30,-1.00 -0.35,-0.06 -0.85,0.68 -1.34,1.43 -1.46,1.45 -1.58,1.48 -1.71,1.47 -1.83,1.47 -1.95,1.43 -2.07,1.40 -2.18,1.33 -2.29,1.27 -2.38,1.19 -2.47,1.10 -2.53,0.99 -2.60,0.89 -2.64,0.77 -2.68,0.65 -2.69,0.53 -2.70,0.40 -2.68,0.28 -2.66,0.16 -2.61,0.04 -2.56,-0.06 -2.49,-0.16 -2.41,-0.26 -2.31,-0.34 -2.22,-0.42 -2.10,-0.47 -1.99,-0.52 -1.62,-0.57 -1.25,-0.61 -0.73,-0.61 -0.20,-0.62 -0.13,-0.63 -0.05,-0.65 0.02,-0.65 0.10,-0.64 0.18,-0.62 0.25,-0.60 0.32,-0.56 0.39,-0.52 0.45,-0.46 0.50,-0.41 0.55,-0.34 0.59,-0.28 0.61,-0.20 0.64,-0.13 0.64,-0.05 0.65,0.02 0.64,0.10 0.63,0.18 0.59,0.25 0.56,0.32 0.52,0.39 0.47,0.45 0.41,0.50 0.35,0.55 0.27,0.58 0.20,0.62 0.20,0.62 L 0.20,0.62 Z"/></g><g transform="translate(626.6154135981085 80.38467615939379) rotate(0 0 5.780773091467552)" stroke="none"><path fill="#1e1e1e" d="M 0.65,0 Q 0.65,0 0.89,1.42 1.12,2.84 1.13,4.08 1.14,5.32 1.14,6.32 1.15,7.32 0.90,9.22 0.65,11.12 0.63,11.22 0.62,11.33 0.57,11.42 0.52,11.51 0.44,11.59 0.36,11.66 0.27,11.71 0.17,11.75 0.07,11.76 -0.03,11.77 -0.13,11.75 -0.24,11.73 -0.33,11.67 -0.42,11.62 -0.49,11.54 -0.56,11.46 -0.60,11.36 -0.64,11.26 -0.64,11.15 -0.65,11.05 -0.62,10.94 -0.59,10.84 -0.53,10.75 -0.47,10.67 -0.39,10.60 -0.30,10.54 -0.20,10.50 -0.10,10.47 0.00,10.47 0.10,10.47 0.20,10.50 0.30,10.54 0.39,10.60 0.47,10.67 0.53,10.75 0.59,10.84 0.62,10.94 0.65,11.05 0.64,11.15 0.64,11.26 0.60,11.36 0.56,11.46 0.49,11.54 0.42,11.62 0.33,11.67 0.24,11.73 0.13,11.75 0.03,11.77 -0.07,11.76 -0.17,11.75 -0.27,11.71 -0.36,11.66 -0.44,11.59 -0.52,11.51 -0.57,11.42 -0.62,11.33 -0.63,11.22 -0.65,11.12 -0.65,11.12 -0.65,11.12 -0.90,9.22 -1.15,7.32 -1.14,6.32 -1.14,5.32 -1.13,4.08 -1.12,2.84 -0.89,1.42 -0.65,0 -0.64,-0.07 -0.63,-0.15 -0.60,-0.23 -0.58,-0.30 -0.53,-0.37 -0.49,-0.43 -0.43,-0.48 -0.37,-0.54 -0.30,-0.57 -0.23,-0.61 -0.15,-0.63 -0.07,-0.65 0.00,-0.65 0.07,-0.65 0.15,-0.63 0.23,-0.61 0.30,-0.57 0.37,-0.54 0.43,-0.48 0.49,-0.43 0.53,-0.37 0.58,-0.30 0.60,-0.23 0.63,-0.15 0.64,-0.07 0.65,0.00 0.65,0.00 L 0.65,0 Z"/></g><g transform="translate(623.8626950067353 80.93521546045577) rotate(0 8.53348063980917 5.505503440936565)" stroke="none"><path fill="#1e1e1e" d="M -0.39,-0.52 Q -0.39,-0.52 0.16,-1.19 0.72,-1.85 2.03,-2.01 3.35,-2.16 4.74,-1.86 6.14,-1.56 7.79,-1.12 9.45,-0.68 11.16,-0.00 12.88,0.67 14.16,1.48 15.44,2.28 16.25,3.20 17.06,4.13 17.46,5.37 17.86,6.60 17.50,7.97 17.15,9.34 16.41,10.44 15.68,11.54 14.21,12.25 12.74,12.95 9.96,12.88 7.17,12.80 7.06,12.78 6.96,12.75 6.87,12.70 6.78,12.64 6.71,12.56 6.64,12.48 6.60,12.38 6.56,12.28 6.56,12.17 6.55,12.07 6.58,11.97 6.61,11.86 6.67,11.78 6.73,11.69 6.82,11.63 6.90,11.56 7.00,11.53 7.11,11.50 7.21,11.50 7.32,11.50 7.42,11.53 7.52,11.57 7.60,11.63 7.69,11.70 7.75,11.78 7.80,11.87 7.83,11.98 7.86,12.08 7.85,12.18 7.85,12.29 7.81,12.39 7.77,12.49 7.70,12.57 7.63,12.65 7.54,12.70 7.45,12.76 7.34,12.78 7.24,12.80 7.13,12.79 7.03,12.78 6.93,12.73 6.83,12.69 6.76,12.61 6.68,12.54 6.63,12.44 6.58,12.35 6.57,12.24 6.55,12.14 6.57,12.03 6.59,11.93 6.64,11.84 6.69,11.74 6.76,11.67 6.84,11.60 6.94,11.55 7.04,11.51 7.14,11.50 7.25,11.49 7.25,11.49 7.25,11.49 9.50,11.12 11.76,10.74 12.73,10.35 13.69,9.95 14.21,9.22 14.72,8.48 15.08,7.76 15.44,7.03 15.28,6.33 15.12,5.62 14.62,4.95 14.11,4.28 13.05,3.57 11.98,2.87 10.41,2.22 8.83,1.57 7.21,1.12 5.60,0.68 4.51,0.38 3.42,0.09 2.61,0.02 1.81,-0.04 1.10,0.24 0.39,0.52 0.32,0.56 0.25,0.60 0.18,0.62 0.10,0.64 0.02,0.65 -0.05,0.65 -0.13,0.63 -0.20,0.62 -0.28,0.58 -0.35,0.55 -0.41,0.50 -0.47,0.45 -0.52,0.39 -0.56,0.32 -0.59,0.25 -0.63,0.18 -0.64,0.10 -0.65,0.02 -0.64,-0.05 -0.64,-0.13 -0.61,-0.20 -0.59,-0.28 -0.55,-0.34 -0.50,-0.41 -0.45,-0.47 -0.39,-0.52 -0.39,-0.52 L -0.39,-0.52 Z"/></g><g transform="translate(627.1659749852338 89.74402096595429) rotate(0 6.606604129123866 -4.404402752749263)" stroke="none"><path fill="#1e1e1e" d="M -0.57,-0.32 Q -0.57,-0.32 -0.08,-1.51 0.40,-2.70 0.82,-3.48 1.24,-4.27 2.10,-5.32 2.96,-6.38 3.63,-7.13 4.31,-7.88 4.83,-8.27 5.35,-8.65 6.09,-8.95 6.83,-9.25 7.35,-9.07 7.86,-8.90 8.32,-8.30 8.79,-7.70 8.85,-6.46 8.92,-5.22 8.74,-4.25 8.56,-3.28 8.50,-2.64 8.43,-1.99 8.40,-1.54 8.36,-1.09 8.33,-0.95 8.30,-0.81 8.24,-0.69 8.17,-0.56 8.08,-0.46 7.99,-0.35 7.87,-0.27 7.76,-0.18 7.63,-0.13 7.50,-0.08 7.36,-0.06 7.22,-0.04 7.08,-0.06 6.93,-0.07 6.80,-0.12 6.67,-0.17 6.55,-0.25 6.43,-0.33 6.34,-0.43 6.24,-0.53 6.18,-0.66 6.11,-0.78 6.07,-0.92 6.04,-1.06 6.03,-1.20 6.03,-1.34 7.12,-1.96 8.20,-2.59 8.80,-2.90 9.41,-3.21 10.99,-4.01 12.58,-4.81 12.68,-4.84 12.78,-4.88 12.89,-4.88 13.00,-4.88 13.10,-4.85 13.20,-4.81 13.28,-4.75 13.37,-4.69 13.43,-4.60 13.49,-4.51 13.52,-4.41 13.55,-4.31 13.55,-4.20 13.54,-4.10 13.50,-4.00 13.46,-3.90 13.40,-3.82 13.33,-3.73 13.24,-3.68 13.15,-3.62 13.04,-3.60 12.94,-3.58 12.84,-3.59 12.73,-3.60 12.63,-3.64 12.54,-3.68 12.46,-3.76 12.38,-3.83 12.33,-3.92 12.28,-4.01 12.26,-4.12 12.24,-4.22 12.26,-4.33 12.27,-4.43 12.32,-4.53 12.37,-4.62 12.45,-4.70 12.52,-4.77 12.62,-4.82 12.72,-4.86 12.82,-4.87 12.93,-4.89 13.03,-4.87 13.13,-4.84 13.23,-4.79 13.32,-4.74 13.39,-4.66 13.46,-4.58 13.50,-4.48 13.54,-4.38 13.54,-4.27 13.55,-4.17 13.52,-4.06 13.50,-3.96 13.44,-3.87 13.38,-3.78 13.30,-3.72 13.21,-3.65 13.21,-3.65 13.21,-3.65 11.82,-2.42 10.42,-1.20 9.39,-1.14 8.36,-1.09 8.33,-0.95 8.30,-0.81 8.24,-0.69 8.17,-0.56 8.08,-0.46 7.99,-0.35 7.87,-0.27 7.76,-0.18 7.63,-0.13 7.50,-0.08 7.36,-0.06 7.22,-0.04 7.08,-0.06 6.93,-0.07 6.80,-0.12 6.67,-0.17 6.55,-0.25 6.43,-0.33 6.34,-0.43 6.24,-0.53 6.18,-0.66 6.11,-0.78 6.07,-0.92 6.04,-1.06 6.03,-1.20 6.03,-1.34 6.06,-1.79 6.09,-2.24 6.17,-2.99 6.26,-3.73 6.43,-4.52 6.59,-5.31 6.52,-6.41 6.45,-7.50 6.14,-6.99 5.84,-6.47 5.18,-5.77 4.53,-5.06 3.76,-4.18 2.99,-3.31 2.56,-2.51 2.12,-1.72 1.34,-0.70 0.57,0.32 0.52,0.38 0.47,0.45 0.41,0.50 0.35,0.55 0.28,0.58 0.21,0.62 0.13,0.63 0.05,0.65 -0.02,0.65 -0.10,0.64 -0.17,0.62 -0.25,0.60 -0.32,0.56 -0.39,0.52 -0.44,0.47 -0.50,0.41 -0.54,0.35 -0.59,0.28 -0.61,0.20 -0.64,0.13 -0.64,0.05 -0.65,-0.02 -0.64,-0.10 -0.63,-0.17 -0.60,-0.25 -0.57,-0.32 -0.57,-0.32 L -0.57,-0.32 Z"/></g><g transform="translate(625.5142908238579 138.19238498800604) rotate(0 0.8258420806880054 4.679639274185206)" stroke="none"><path fill="#1e1e1e" d="M -0.58,-0.29 Q -0.58,-0.29 -0.67,-0.73 -0.75,-1.17 -0.67,-1.29 -0.59,-1.41 -0.49,-1.51 -0.38,-1.60 -0.25,-1.67 -0.13,-1.74 0.00,-1.78 0.14,-1.82 0.29,-1.82 0.43,-1.82 0.57,-1.79 0.72,-1.76 0.85,-1.70 0.97,-1.63 1.09,-1.54 1.20,-1.44 1.28,-1.33 1.36,-1.21 1.42,-1.07 1.47,-0.94 1.49,-0.80 1.51,-0.65 1.50,-0.51 1.48,-0.36 1.44,-0.23 1.39,-0.09 1.71,1.25 2.03,2.61 2.12,3.75 2.21,4.90 2.39,5.94 2.57,6.97 2.42,8.79 2.28,10.61 2.27,10.72 2.26,10.83 2.22,10.92 2.17,11.02 2.10,11.10 2.03,11.18 1.93,11.23 1.84,11.28 1.73,11.29 1.63,11.31 1.53,11.30 1.42,11.28 1.33,11.23 1.23,11.18 1.16,11.10 1.08,11.03 1.04,10.93 0.99,10.84 0.98,10.73 0.97,10.62 0.99,10.52 1.01,10.42 1.07,10.33 1.12,10.23 1.20,10.16 1.28,10.10 1.38,10.06 1.48,10.02 1.58,10.01 1.69,10.00 1.79,10.03 1.90,10.06 1.98,10.12 2.07,10.18 2.14,10.26 2.20,10.34 2.24,10.44 2.27,10.54 2.27,10.65 2.27,10.76 2.24,10.86 2.21,10.96 2.14,11.04 2.08,11.13 1.99,11.19 1.91,11.25 1.80,11.28 1.70,11.31 1.59,11.30 1.49,11.30 1.39,11.26 1.29,11.22 1.21,11.15 1.13,11.08 1.07,10.99 1.02,10.90 0.99,10.80 0.97,10.70 0.97,10.70 0.97,10.70 0.56,9.05 0.16,7.39 -0.04,6.24 -0.24,5.08 -0.31,4.06 -0.38,3.03 -0.57,1.91 -0.76,0.80 -0.76,-0.18 -0.75,-1.17 -0.67,-1.29 -0.59,-1.41 -0.49,-1.51 -0.38,-1.60 -0.25,-1.67 -0.13,-1.74 0.00,-1.78 0.14,-1.82 0.29,-1.82 0.43,-1.82 0.57,-1.79 0.72,-1.76 0.85,-1.70 0.97,-1.63 1.09,-1.54 1.20,-1.44 1.28,-1.33 1.36,-1.21 1.42,-1.07 1.47,-0.94 1.49,-0.80 1.51,-0.65 1.50,-0.51 1.48,-0.36 1.44,-0.23 1.39,-0.09 0.98,0.09 0.58,0.29 0.54,0.35 0.49,0.42 0.44,0.47 0.38,0.53 0.31,0.57 0.24,0.60 0.16,0.62 0.09,0.65 0.01,0.65 -0.06,0.65 -0.14,0.63 -0.22,0.61 -0.29,0.58 -0.36,0.54 -0.42,0.49 -0.48,0.44 -0.52,0.38 -0.57,0.31 -0.60,0.24 -0.63,0.16 -0.64,0.09 -0.65,0.01 -0.64,-0.06 -0.64,-0.14 -0.61,-0.21 -0.58,-0.29 -0.58,-0.29 L -0.58,-0.29 Z"/></g><g transform="translate(624.4131680496073 135.43962222450608) rotate(0 8.53352481193582 5.7807841344992426)" stroke="none"><path fill="#1e1e1e" d="M -0.33,-0.56 Q -0.33,-0.56 0.35,-1.20 1.05,-1.84 1.81,-2.10 2.57,-2.37 3.76,-2.50 4.94,-2.63 6.79,-2.36 8.65,-2.10 10.24,-1.66 11.83,-1.22 13.20,-0.69 14.56,-0.16 15.65,0.98 16.73,2.13 17.21,3.26 17.68,4.39 17.39,6.04 17.10,7.68 16.43,9.04 15.75,10.39 14.36,11.54 12.97,12.70 11.46,13.14 9.95,13.58 7.91,13.66 5.88,13.75 5.78,13.74 5.67,13.74 5.57,13.70 5.47,13.67 5.39,13.60 5.31,13.53 5.25,13.44 5.19,13.35 5.17,13.25 5.14,13.15 5.15,13.04 5.16,12.94 5.20,12.84 5.24,12.74 5.32,12.66 5.39,12.58 5.48,12.53 5.57,12.48 5.68,12.46 5.78,12.44 5.89,12.45 5.99,12.47 6.09,12.52 6.18,12.56 6.26,12.64 6.33,12.72 6.38,12.81 6.42,12.91 6.44,13.01 6.45,13.12 6.43,13.22 6.41,13.33 6.36,13.42 6.31,13.51 6.23,13.58 6.15,13.65 6.05,13.69 5.95,13.73 5.85,13.74 5.74,13.75 5.64,13.72 5.53,13.70 5.44,13.64 5.36,13.58 5.29,13.50 5.22,13.42 5.19,13.32 5.15,13.22 5.15,13.11 5.15,13.01 5.18,12.90 5.21,12.80 5.27,12.72 5.33,12.63 5.42,12.57 5.51,12.51 5.61,12.48 5.71,12.45 5.71,12.45 5.71,12.45 7.51,12.02 9.32,11.60 10.41,11.20 11.51,10.81 12.54,9.99 13.57,9.18 14.12,8.13 14.67,7.08 15.01,6.06 15.36,5.04 15.11,4.37 14.85,3.69 14.21,2.84 13.58,1.98 12.38,1.51 11.18,1.03 9.73,0.60 8.28,0.17 6.69,-0.12 5.10,-0.41 4.15,-0.37 3.19,-0.33 2.65,-0.19 2.11,-0.05 1.22,0.25 0.33,0.56 0.26,0.59 0.19,0.62 0.11,0.64 0.03,0.65 -0.04,0.65 -0.12,0.64 -0.19,0.62 -0.27,0.59 -0.33,0.55 -0.40,0.51 -0.46,0.45 -0.51,0.40 -0.55,0.33 -0.59,0.26 -0.62,0.19 -0.64,0.11 -0.65,0.03 -0.65,-0.04 -0.64,-0.11 -0.62,-0.19 -0.59,-0.26 -0.56,-0.34 -0.51,-0.40 -0.46,-0.46 -0.40,-0.51 -0.33,-0.56 -0.33,-0.56 L -0.33,-0.56 Z"/></g><g transform="translate(626.6154135981085 146.4506291063792) rotate(0 6.05604274199851 -4.9549641398745905)" stroke="none"><path fill="#1e1e1e" d="M -0.57,-0.31 Q -0.57,-0.31 0.06,-1.82 0.69,-3.34 1.37,-4.31 2.04,-5.29 2.98,-6.36 3.92,-7.44 4.63,-8.21 5.33,-8.97 6.03,-9.54 6.72,-10.10 7.80,-9.86 8.88,-9.62 9.04,-9.09 9.21,-8.56 8.93,-7.46 8.66,-6.36 8.21,-5.32 7.76,-4.28 7.42,-3.39 7.08,-2.50 7.01,-2.38 6.94,-2.25 6.84,-2.15 6.74,-2.05 6.62,-1.98 6.50,-1.90 6.36,-1.86 6.23,-1.82 6.09,-1.81 5.95,-1.80 5.81,-1.82 5.67,-1.84 5.54,-1.90 5.41,-1.96 5.30,-2.04 5.18,-2.13 5.10,-2.24 5.01,-2.35 4.95,-2.48 4.89,-2.61 4.86,-2.75 4.84,-2.88 4.84,-3.03 4.85,-3.17 4.89,-3.30 4.93,-3.44 5.64,-3.84 6.34,-4.25 6.84,-4.55 7.33,-4.85 9.55,-5.75 11.78,-6.65 11.88,-6.66 11.99,-6.66 12.09,-6.63 12.19,-6.60 12.28,-6.54 12.37,-6.48 12.43,-6.40 12.50,-6.31 12.53,-6.21 12.56,-6.11 12.56,-6.00 12.56,-5.90 12.52,-5.80 12.49,-5.70 12.42,-5.61 12.36,-5.53 12.27,-5.47 12.18,-5.41 12.08,-5.38 11.98,-5.36 11.87,-5.36 11.76,-5.37 11.66,-5.41 11.57,-5.45 11.49,-5.52 11.41,-5.59 11.35,-5.68 11.30,-5.77 11.28,-5.88 11.26,-5.98 11.27,-6.09 11.28,-6.19 11.33,-6.29 11.37,-6.39 11.45,-6.46 11.52,-6.54 11.62,-6.59 11.71,-6.64 11.81,-6.65 11.92,-6.67 12.02,-6.65 12.13,-6.63 12.22,-6.58 12.32,-6.53 12.39,-6.45 12.46,-6.37 12.50,-6.28 12.55,-6.18 12.56,-6.07 12.57,-5.97 12.54,-5.86 12.52,-5.76 12.46,-5.67 12.41,-5.58 12.33,-5.51 12.24,-5.44 12.14,-5.41 12.05,-5.37 12.05,-5.37 12.05,-5.37 10.25,-4.13 8.46,-2.90 7.77,-2.70 7.08,-2.50 7.01,-2.38 6.94,-2.25 6.84,-2.15 6.74,-2.05 6.62,-1.98 6.50,-1.90 6.36,-1.86 6.23,-1.82 6.09,-1.81 5.95,-1.80 5.81,-1.82 5.67,-1.84 5.54,-1.90 5.41,-1.96 5.30,-2.04 5.18,-2.13 5.10,-2.24 5.01,-2.35 4.95,-2.48 4.89,-2.61 4.86,-2.75 4.84,-2.88 4.84,-3.03 4.85,-3.17 4.89,-3.30 4.93,-3.44 5.27,-4.33 5.61,-5.22 6.03,-6.15 6.44,-7.08 6.65,-8.02 6.85,-8.96 7.41,-8.63 7.96,-8.30 7.43,-7.90 6.89,-7.51 6.19,-6.77 5.49,-6.04 4.61,-5.07 3.73,-4.09 3.09,-3.22 2.46,-2.35 1.52,-1.01 0.57,0.31 0.52,0.38 0.48,0.44 0.42,0.49 0.36,0.54 0.28,0.58 0.21,0.61 0.14,0.63 0.06,0.65 -0.01,0.65 -0.09,0.64 -0.17,0.62 -0.24,0.60 -0.31,0.56 -0.38,0.53 -0.44,0.47 -0.50,0.42 -0.54,0.35 -0.58,0.29 -0.61,0.21 -0.64,0.14 -0.64,0.06 -0.65,-0.01 -0.64,-0.09 -0.63,-0.17 -0.60,-0.24 -0.57,-0.31 -0.57,-0.31 L -0.57,-0.31 Z"/></g><g transform="translate(626.6154135981085 158.56271459037634) rotate(0 -5.684341886080802e-14 4.954942053811237)" stroke="none"><path fill="#1e1e1e" d="M 0.65,0 Q 0.65,0 0.90,1.42 1.15,2.84 1.16,4.08 1.17,5.32 0.65,7.52 0.14,9.72 0.10,9.82 0.07,9.93 0.01,10.01 -0.05,10.10 -0.13,10.16 -0.22,10.22 -0.32,10.25 -0.42,10.28 -0.53,10.27 -0.64,10.27 -0.74,10.23 -0.83,10.19 -0.92,10.12 -1.00,10.06 -1.05,9.97 -1.11,9.88 -1.13,9.77 -1.16,9.67 -1.15,9.56 -1.14,9.46 -1.09,9.36 -1.05,9.26 -0.98,9.19 -0.91,9.11 -0.81,9.06 -0.72,9.01 -0.62,8.99 -0.51,8.97 -0.41,8.98 -0.30,9.00 -0.21,9.05 -0.11,9.10 -0.04,9.17 0.03,9.25 0.07,9.35 0.12,9.44 0.13,9.55 0.14,9.65 0.12,9.76 0.10,9.86 0.05,9.95 -0.00,10.04 -0.08,10.11 -0.16,10.18 -0.26,10.22 -0.35,10.26 -0.46,10.27 -0.57,10.28 -0.67,10.25 -0.77,10.22 -0.86,10.17 -0.95,10.11 -1.01,10.02 -1.08,9.94 -1.11,9.84 -1.15,9.74 -1.15,9.63 -1.15,9.53 -1.15,9.53 -1.15,9.53 -1.16,7.42 -1.17,5.32 -1.16,4.08 -1.15,2.84 -0.90,1.42 -0.65,0 -0.64,-0.07 -0.63,-0.15 -0.60,-0.23 -0.58,-0.30 -0.53,-0.37 -0.49,-0.43 -0.43,-0.48 -0.37,-0.54 -0.30,-0.57 -0.23,-0.61 -0.15,-0.63 -0.07,-0.65 0.00,-0.65 0.07,-0.65 0.15,-0.63 0.23,-0.61 0.30,-0.57 0.37,-0.54 0.43,-0.48 0.49,-0.43 0.53,-0.37 0.58,-0.30 0.60,-0.23 0.63,-0.15 0.64,-0.07 0.65,0.00 0.65,0.00 L 0.65,0 Z"/></g><g transform="translate(625.5142908238579 159.11323180537494) rotate(0 8.533524811935877 5.505525526999946)" stroke="none"><path fill="#1e1e1e" d="M 0,-0.65 Q 0,-0.65 1.26,-0.93 2.53,-1.21 4.08,-1.06 5.63,-0.91 6.71,-0.85 7.79,-0.78 8.97,-0.59 10.14,-0.40 11.35,0.01 12.56,0.43 13.70,0.92 14.85,1.42 15.78,2.06 16.72,2.70 17.26,3.99 17.80,5.27 17.81,6.42 17.82,7.56 17.25,8.71 16.69,9.85 15.67,10.72 14.65,11.59 12.93,11.97 11.20,12.35 9.81,12.29 8.42,12.22 6.55,11.95 4.67,11.67 4.57,11.65 4.46,11.64 4.37,11.58 4.28,11.53 4.21,11.46 4.13,11.38 4.09,11.28 4.05,11.18 4.04,11.08 4.03,10.97 4.05,10.87 4.07,10.77 4.13,10.68 4.19,10.58 4.27,10.52 4.35,10.45 4.45,10.41 4.55,10.37 4.65,10.37 4.76,10.36 4.86,10.39 4.96,10.42 5.05,10.48 5.14,10.54 5.20,10.63 5.26,10.71 5.30,10.82 5.33,10.92 5.33,11.02 5.33,11.13 5.29,11.23 5.26,11.33 5.19,11.41 5.13,11.50 5.04,11.56 4.95,11.61 4.85,11.64 4.74,11.67 4.64,11.66 4.53,11.66 4.43,11.61 4.34,11.57 4.26,11.50 4.18,11.43 4.12,11.34 4.07,11.25 4.05,11.15 4.03,11.04 4.04,10.94 4.05,10.83 4.10,10.74 4.14,10.64 4.22,10.56 4.29,10.49 4.38,10.44 4.48,10.39 4.58,10.37 4.69,10.36 4.69,10.36 4.69,10.36 6.59,10.13 8.49,9.89 9.61,9.90 10.73,9.90 11.94,9.70 13.14,9.51 13.80,9.01 14.45,8.52 14.85,7.94 15.25,7.37 15.29,6.70 15.33,6.04 15.21,5.29 15.08,4.55 14.45,4.15 13.82,3.74 12.76,3.27 11.70,2.80 10.71,2.43 9.71,2.05 8.68,1.87 7.64,1.69 6.51,1.61 5.37,1.54 3.95,1.37 2.53,1.21 1.26,0.93 0,0.65 -0.07,0.64 -0.15,0.63 -0.23,0.60 -0.30,0.58 -0.37,0.53 -0.43,0.49 -0.48,0.43 -0.54,0.37 -0.57,0.30 -0.61,0.23 -0.63,0.15 -0.65,0.07 -0.65,-0.00 -0.65,-0.07 -0.63,-0.15 -0.61,-0.23 -0.57,-0.30 -0.54,-0.37 -0.48,-0.43 -0.43,-0.49 -0.37,-0.53 -0.30,-0.58 -0.23,-0.60 -0.15,-0.63 -0.07,-0.64 0.00,-0.65 0.00,-0.65 L 0,-0.65 Z"/></g><g transform="translate(628.8175708023564 167.37147592374816) rotate(0 4.954964139874619 -3.303279978498608)" stroke="none"><path fill="#1e1e1e" d="M -0.57,-0.32 Q -0.57,-0.32 -0.09,-1.52 0.38,-2.72 1.19,-3.61 2.00,-4.49 2.63,-5.15 3.27,-5.81 3.70,-6.26 4.13,-6.71 4.58,-6.99 5.04,-7.28 5.71,-7.36 6.38,-7.43 6.87,-7.04 7.36,-6.65 7.37,-5.67 7.37,-4.69 7.17,-3.72 6.96,-2.76 6.88,-2.11 6.80,-1.45 6.74,-0.99 6.69,-0.54 6.65,-0.40 6.62,-0.27 6.56,-0.15 6.49,-0.03 6.40,0.07 6.31,0.17 6.20,0.25 6.08,0.32 5.96,0.37 5.83,0.42 5.69,0.44 5.55,0.46 5.42,0.44 5.28,0.42 5.15,0.37 5.02,0.33 4.91,0.25 4.80,0.17 4.71,0.07 4.62,-0.03 4.55,-0.15 4.49,-0.27 4.46,-0.40 4.42,-0.54 4.42,-0.67 4.42,-0.81 5.08,-1.35 5.75,-1.90 7.81,-2.85 9.87,-3.79 9.98,-3.81 10.08,-3.83 10.18,-3.81 10.29,-3.79 10.38,-3.74 10.48,-3.69 10.55,-3.62 10.62,-3.54 10.67,-3.44 10.71,-3.35 10.72,-3.24 10.74,-3.14 10.71,-3.03 10.69,-2.93 10.63,-2.84 10.58,-2.75 10.50,-2.68 10.42,-2.61 10.32,-2.57 10.22,-2.53 10.11,-2.52 10.01,-2.52 9.91,-2.55 9.80,-2.58 9.72,-2.64 9.63,-2.70 9.56,-2.78 9.50,-2.87 9.47,-2.97 9.43,-3.07 9.43,-3.17 9.43,-3.28 9.47,-3.38 9.50,-3.48 9.56,-3.56 9.63,-3.65 9.72,-3.71 9.80,-3.77 9.91,-3.80 10.01,-3.82 10.12,-3.82 10.22,-3.81 10.32,-3.77 10.42,-3.73 10.50,-3.67 10.58,-3.60 10.64,-3.51 10.69,-3.41 10.71,-3.31 10.74,-3.21 10.72,-3.10 10.71,-3.00 10.67,-2.90 10.62,-2.80 10.55,-2.73 10.48,-2.65 10.38,-2.60 10.29,-2.55 10.29,-2.55 10.29,-2.55 8.49,-1.54 6.69,-0.54 6.65,-0.40 6.62,-0.27 6.56,-0.15 6.49,-0.03 6.40,0.07 6.31,0.17 6.20,0.25 6.08,0.32 5.96,0.37 5.83,0.42 5.69,0.44 5.55,0.46 5.42,0.44 5.28,0.42 5.15,0.37 5.02,0.33 4.91,0.25 4.80,0.17 4.71,0.07 4.62,-0.03 4.55,-0.15 4.49,-0.27 4.46,-0.40 4.42,-0.54 4.42,-0.67 4.42,-0.81 4.44,-1.27 4.45,-1.74 4.54,-2.50 4.64,-3.27 5.12,-4.24 5.61,-5.21 5.19,-4.79 4.76,-4.36 4.13,-3.72 3.50,-3.08 2.82,-2.39 2.14,-1.70 1.35,-0.68 0.57,0.32 0.52,0.38 0.47,0.45 0.41,0.50 0.35,0.55 0.28,0.58 0.21,0.62 0.13,0.63 0.05,0.65 -0.02,0.65 -0.10,0.64 -0.17,0.62 -0.25,0.60 -0.32,0.56 -0.39,0.52 -0.44,0.47 -0.50,0.41 -0.54,0.35 -0.59,0.28 -0.61,0.20 -0.64,0.13 -0.64,0.05 -0.65,-0.02 -0.64,-0.10 -0.63,-0.17 -0.60,-0.25 -0.57,-0.32 -0.57,-0.32 L -0.57,-0.32 Z"/></g><g transform="translate(627.1659749852338 182.2363241712452) rotate(0 0.2752806935626495 4.679661360248588)" stroke="none"><path fill="#1e1e1e" d="M 0.65,-0.08 Q 0.65,-0.08 1.05,1.15 1.45,2.39 1.53,3.59 1.62,4.80 1.11,7.23 0.60,9.66 0.52,9.73 0.44,9.80 0.34,9.84 0.24,9.88 0.13,9.88 0.03,9.89 -0.07,9.86 -0.17,9.84 -0.26,9.78 -0.34,9.72 -0.41,9.63 -0.47,9.55 -0.51,9.45 -0.54,9.35 -0.54,9.24 -0.55,9.14 -0.51,9.04 -0.48,8.93 -0.42,8.85 -0.35,8.76 -0.27,8.70 -0.18,8.64 -0.08,8.61 0.02,8.58 0.12,8.59 0.23,8.59 0.33,8.63 0.43,8.67 0.51,8.74 0.59,8.81 0.65,8.90 0.70,8.99 0.72,9.09 0.75,9.20 0.74,9.30 0.73,9.41 0.68,9.50 0.64,9.60 0.57,9.68 0.49,9.76 0.40,9.81 0.31,9.86 0.20,9.88 0.10,9.89 -0.00,9.88 -0.10,9.86 -0.20,9.81 -0.29,9.76 -0.36,9.69 -0.44,9.61 -0.48,9.51 -0.53,9.42 -0.54,9.31 -0.55,9.21 -0.53,9.10 -0.51,9.00 -0.45,8.91 -0.40,8.82 -0.40,8.82 -0.40,8.82 -0.56,6.88 -0.72,4.94 -0.77,3.80 -0.82,2.67 -0.73,1.37 -0.65,0.08 -0.65,0.00 -0.65,-0.07 -0.63,-0.15 -0.61,-0.23 -0.57,-0.30 -0.54,-0.37 -0.48,-0.43 -0.43,-0.48 -0.37,-0.53 -0.30,-0.58 -0.23,-0.60 -0.15,-0.63 -0.08,-0.64 -0.00,-0.65 0.07,-0.64 0.15,-0.63 0.22,-0.61 0.30,-0.58 0.36,-0.53 0.43,-0.49 0.48,-0.43 0.53,-0.37 0.57,-0.30 0.61,-0.23 0.63,-0.15 0.65,-0.08 0.65,-0.08 L 0.65,-0.08 Z"/></g><g transform="translate(625.5142908238579 181.6857627841199) rotate(0 7.4324462098118715 7.707704817311196)" stroke="none"><path fill="#1e1e1e" d="M 0.10,-0.64 Q 0.10,-0.64 1.09,-0.74 2.09,-0.83 3.30,-0.62 4.51,-0.41 5.67,-0.16 6.83,0.08 7.82,0.35 8.82,0.62 9.93,1.07 11.04,1.52 11.91,2.07 12.77,2.62 13.47,3.19 14.17,3.76 14.70,4.41 15.24,5.07 15.54,6.17 15.85,7.28 15.79,8.46 15.73,9.64 15.36,10.86 14.99,12.07 14.45,12.99 13.90,13.92 12.72,14.76 11.54,15.60 10.48,15.95 9.41,16.29 8.11,16.39 6.81,16.49 4.56,15.54 2.31,14.60 2.23,14.53 2.15,14.46 2.10,14.37 2.04,14.28 2.02,14.17 2.00,14.07 2.01,13.96 2.03,13.86 2.07,13.76 2.12,13.67 2.19,13.59 2.27,13.52 2.36,13.47 2.46,13.42 2.56,13.40 2.67,13.39 2.77,13.41 2.87,13.42 2.97,13.48 3.06,13.53 3.13,13.61 3.20,13.68 3.25,13.78 3.29,13.88 3.30,13.98 3.31,14.09 3.29,14.19 3.26,14.30 3.21,14.39 3.15,14.48 3.07,14.54 2.99,14.61 2.89,14.65 2.79,14.69 2.68,14.69 2.58,14.70 2.47,14.67 2.37,14.64 2.28,14.57 2.20,14.51 2.13,14.43 2.07,14.34 2.04,14.24 2.01,14.14 2.01,14.03 2.01,13.93 2.04,13.83 2.08,13.73 2.15,13.64 2.21,13.56 2.30,13.50 2.39,13.44 2.49,13.42 2.59,13.39 2.70,13.40 2.81,13.40 2.90,13.45 3.00,13.49 3.00,13.49 3.00,13.49 4.78,13.74 6.56,13.99 7.60,13.86 8.64,13.72 9.37,13.52 10.09,13.32 10.89,12.88 11.69,12.44 12.08,11.83 12.47,11.22 12.80,10.32 13.13,9.41 13.23,8.60 13.33,7.78 13.27,7.15 13.21,6.53 12.89,6.11 12.56,5.68 11.98,5.19 11.40,4.70 10.75,4.25 10.09,3.81 9.12,3.40 8.16,2.99 7.23,2.72 6.30,2.46 5.18,2.20 4.06,1.94 2.88,1.70 1.70,1.46 0.79,1.05 -0.10,0.64 -0.18,0.62 -0.25,0.60 -0.32,0.56 -0.39,0.52 -0.45,0.46 -0.51,0.41 -0.55,0.34 -0.59,0.27 -0.61,0.20 -0.64,0.12 -0.64,0.04 -0.65,-0.02 -0.64,-0.10 -0.62,-0.18 -0.59,-0.25 -0.56,-0.33 -0.51,-0.39 -0.47,-0.45 -0.41,-0.50 -0.34,-0.55 -0.27,-0.59 -0.20,-0.62 -0.12,-0.63 -0.05,-0.65 0.02,-0.65 0.10,-0.64 0.10,-0.64 L 0.10,-0.64 Z"/></g><g transform="translate(627.1659749852338 191.59564689174238) rotate(0 4.679639274185206 -2.477459983873956)" stroke="none"><path fill="#1e1e1e" d="M -0.51,-0.41 Q -0.51,-0.41 -0.01,-1.31 0.48,-2.21 1.04,-3.00 1.60,-3.80 2.16,-4.61 2.72,-5.42 3.32,-6.11 3.93,-6.81 4.55,-7.17 5.18,-7.54 5.91,-7.04 6.65,-6.55 6.35,-5.44 6.05,-4.32 5.82,-3.63 5.59,-2.94 5.34,-2.03 5.10,-1.13 4.84,-0.24 4.57,0.63 4.30,1.16 4.03,1.69 3.99,1.79 3.94,1.89 3.87,1.98 3.81,2.07 3.72,2.14 3.63,2.21 3.53,2.25 3.43,2.30 3.32,2.32 3.21,2.34 3.10,2.33 2.99,2.33 2.88,2.29 2.77,2.26 2.68,2.20 2.58,2.15 2.50,2.07 2.42,1.99 2.37,1.89 2.31,1.80 2.28,1.69 2.24,1.59 2.23,1.47 2.23,1.36 2.25,1.25 2.27,1.14 3.17,0.92 4.08,0.69 4.90,-0.16 5.72,-1.03 7.49,-1.67 9.27,-2.31 9.38,-2.29 9.48,-2.26 9.57,-2.20 9.66,-2.14 9.72,-2.06 9.79,-1.97 9.82,-1.87 9.85,-1.77 9.86,-1.67 9.86,-1.56 9.82,-1.46 9.79,-1.36 9.73,-1.27 9.66,-1.19 9.58,-1.13 9.49,-1.07 9.39,-1.04 9.28,-1.01 9.18,-1.01 9.07,-1.02 8.97,-1.06 8.87,-1.10 8.79,-1.16 8.71,-1.23 8.65,-1.32 8.60,-1.41 8.58,-1.52 8.55,-1.62 8.56,-1.73 8.57,-1.83 8.62,-1.93 8.66,-2.03 8.73,-2.10 8.81,-2.18 8.90,-2.23 8.99,-2.28 9.10,-2.30 9.20,-2.32 9.31,-2.30 9.41,-2.29 9.51,-2.24 9.60,-2.19 9.67,-2.11 9.75,-2.03 9.79,-1.94 9.84,-1.84 9.85,-1.74 9.86,-1.63 9.84,-1.53 9.82,-1.42 9.77,-1.33 9.71,-1.24 9.63,-1.17 9.55,-1.10 9.45,-1.06 9.35,-1.02 9.25,-1.01 9.14,-1.01 9.14,-1.01 9.14,-1.01 8.06,-0.34 6.98,0.32 6.42,0.85 5.85,1.37 4.94,1.53 4.03,1.69 3.99,1.79 3.94,1.89 3.87,1.98 3.81,2.07 3.72,2.14 3.63,2.21 3.53,2.25 3.43,2.30 3.32,2.32 3.21,2.34 3.10,2.33 2.99,2.33 2.88,2.29 2.77,2.26 2.68,2.20 2.58,2.15 2.50,2.07 2.42,1.99 2.37,1.89 2.31,1.80 2.28,1.69 2.24,1.59 2.23,1.47 2.23,1.36 2.25,1.25 2.27,1.14 2.54,0.61 2.82,0.09 3.09,-0.76 3.37,-1.61 3.65,-2.56 3.93,-3.52 4.18,-4.22 4.43,-4.93 4.69,-5.85 4.96,-6.76 5.19,-6.15 5.43,-5.53 4.92,-4.89 4.41,-4.26 3.83,-3.43 3.26,-2.60 2.65,-1.78 2.05,-0.95 1.28,-0.27 0.51,0.41 0.45,0.46 0.39,0.52 0.33,0.56 0.26,0.60 0.18,0.62 0.11,0.64 0.03,0.65 -0.04,0.65 -0.12,0.63 -0.20,0.62 -0.27,0.59 -0.34,0.55 -0.40,0.50 -0.46,0.45 -0.51,0.39 -0.56,0.33 -0.59,0.26 -0.62,0.18 -0.64,0.11 -0.65,0.03 -0.65,-0.04 -0.64,-0.12 -0.62,-0.20 -0.59,-0.27 -0.55,-0.34 -0.51,-0.41 -0.51,-0.41 L -0.51,-0.41 Z"/></g><g transform="translate(170.20987405546236 56.71104449246155) rotate(0 -0.2752806935626779 6.881873779654882)" stroke="none"><path fill="#1e1e1e" d="M 0.64,0.12 Q 0.64,0.12 0.77,0.97 0.91,1.81 1.02,3.10 1.13,4.39 1.18,5.97 1.23,7.56 1.24,8.71 1.26,9.85 0.96,11.96 0.65,14.06 0.63,14.16 0.62,14.27 0.57,14.36 0.52,14.45 0.44,14.53 0.36,14.60 0.27,14.65 0.17,14.69 0.07,14.70 -0.03,14.71 -0.13,14.69 -0.24,14.67 -0.33,14.62 -0.42,14.56 -0.49,14.48 -0.56,14.40 -0.60,14.30 -0.64,14.20 -0.64,14.10 -0.65,13.99 -0.62,13.89 -0.59,13.78 -0.53,13.70 -0.47,13.61 -0.39,13.54 -0.31,13.48 -0.20,13.45 -0.10,13.41 -0.00,13.41 0.10,13.41 0.20,13.44 0.30,13.48 0.38,13.54 0.47,13.61 0.53,13.69 0.59,13.78 0.62,13.88 0.65,13.99 0.64,14.09 0.64,14.20 0.60,14.30 0.56,14.40 0.49,14.48 0.42,14.56 0.33,14.61 0.24,14.67 0.14,14.69 0.03,14.71 -0.06,14.70 -0.17,14.69 -0.27,14.65 -0.36,14.60 -0.44,14.53 -0.52,14.46 -0.57,14.36 -0.62,14.27 -0.63,14.17 -0.65,14.06 -0.65,14.06 -0.65,14.06 -0.98,11.98 -1.31,9.89 -1.33,8.76 -1.34,7.63 -1.37,6.09 -1.40,4.55 -1.47,2.94 -1.54,1.34 -1.09,0.60 -0.64,-0.12 -0.61,-0.20 -0.59,-0.27 -0.55,-0.34 -0.51,-0.41 -0.45,-0.46 -0.39,-0.52 -0.32,-0.56 -0.25,-0.60 -0.18,-0.62 -0.10,-0.64 -0.02,-0.65 0.05,-0.65 0.12,-0.63 0.20,-0.62 0.27,-0.59 0.34,-0.55 0.41,-0.50 0.47,-0.45 0.51,-0.39 0.56,-0.33 0.59,-0.25 0.63,-0.18 0.64,-0.10 0.65,-0.02 0.64,0.04 0.64,0.12 0.64,0.12 L 0.64,0.12 Z"/></g><g transform="translate(172.41207543183697 65.5198279118967) rotate(0 7.432424123748518 -1.1010896451556391)" stroke="none"><path fill="#1e1e1e" d="M -0.15,-0.63 Q -0.15,-0.63 1.02,-1.28 2.20,-1.92 3.72,-2.25 5.24,-2.57 6.83,-2.87 8.42,-3.16 9.45,-3.28 10.48,-3.39 12.67,-2.87 14.85,-2.35 14.94,-2.30 15.04,-2.25 15.11,-2.17 15.18,-2.09 15.22,-1.99 15.26,-1.89 15.26,-1.78 15.27,-1.68 15.24,-1.57 15.22,-1.47 15.16,-1.38 15.10,-1.29 15.01,-1.23 14.93,-1.16 14.83,-1.13 14.73,-1.09 14.62,-1.09 14.52,-1.09 14.42,-1.12 14.32,-1.16 14.23,-1.22 14.15,-1.28 14.08,-1.37 14.02,-1.46 13.99,-1.56 13.96,-1.66 13.97,-1.77 13.97,-1.87 14.01,-1.97 14.05,-2.07 14.12,-2.15 14.19,-2.24 14.28,-2.29 14.37,-2.35 14.47,-2.37 14.57,-2.40 14.68,-2.39 14.78,-2.37 14.88,-2.33 14.98,-2.29 15.06,-2.22 15.13,-2.14 15.19,-2.05 15.24,-1.96 15.25,-1.85 15.27,-1.75 15.26,-1.64 15.24,-1.54 15.19,-1.44 15.14,-1.35 15.07,-1.27 14.99,-1.20 14.90,-1.16 14.80,-1.11 14.69,-1.10 14.59,-1.08 14.48,-1.11 14.38,-1.13 14.38,-1.13 14.38,-1.13 12.60,-0.89 10.81,-0.65 9.86,-0.52 8.91,-0.40 7.34,-0.13 5.77,0.14 4.31,0.40 2.85,0.66 1.50,0.64 0.15,0.63 0.08,0.64 0.00,0.65 -0.07,0.64 -0.15,0.63 -0.22,0.61 -0.30,0.58 -0.36,0.53 -0.43,0.49 -0.48,0.43 -0.53,0.37 -0.57,0.30 -0.61,0.23 -0.63,0.15 -0.65,0.08 -0.65,0.00 -0.65,-0.07 -0.63,-0.15 -0.61,-0.23 -0.57,-0.30 -0.54,-0.37 -0.48,-0.43 -0.43,-0.49 -0.37,-0.53 -0.30,-0.58 -0.23,-0.60 -0.15,-0.63 -0.15,-0.63 L -0.15,-0.63 Z"/></g><g transform="translate(185.62528369008476 52.30664173971229) rotate(0 -0.5505613871253559 9.084075156029513)" stroke="none"><path fill="#1e1e1e" d="M 0.65,0.06 Q 0.65,0.06 0.81,1.68 0.98,3.29 0.78,5.55 0.58,7.81 0.47,9.52 0.36,11.24 0.25,12.87 0.15,14.50 0.33,15.94 0.51,17.38 0.51,17.49 0.52,17.60 0.49,17.70 0.45,17.80 0.39,17.89 0.33,17.97 0.25,18.04 0.16,18.10 0.06,18.13 -0.03,18.16 -0.14,18.16 -0.24,18.16 -0.34,18.12 -0.44,18.09 -0.53,18.02 -0.61,17.95 -0.67,17.87 -0.73,17.78 -0.75,17.67 -0.78,17.57 -0.77,17.47 -0.76,17.36 -0.72,17.26 -0.68,17.16 -0.61,17.08 -0.54,17.00 -0.45,16.95 -0.36,16.90 -0.25,16.88 -0.15,16.86 -0.04,16.87 0.05,16.88 0.15,16.93 0.24,16.98 0.32,17.05 0.39,17.12 0.44,17.22 0.49,17.31 0.51,17.42 0.52,17.52 0.50,17.63 0.48,17.73 0.43,17.83 0.38,17.92 0.30,17.99 0.22,18.06 0.13,18.11 0.03,18.15 -0.07,18.16 -0.17,18.17 -0.28,18.14 -0.38,18.12 -0.47,18.06 -0.56,18.00 -0.63,17.92 -0.69,17.84 -0.73,17.74 -0.77,17.64 -0.77,17.64 -0.77,17.64 -1.18,16.13 -1.60,14.62 -1.94,12.86 -2.28,11.10 -2.20,9.32 -2.12,7.54 -1.86,5.28 -1.61,3.03 -1.13,1.48 -0.65,-0.06 -0.63,-0.14 -0.61,-0.21 -0.58,-0.29 -0.54,-0.36 -0.49,-0.42 -0.44,-0.48 -0.38,-0.52 -0.31,-0.57 -0.24,-0.60 -0.17,-0.63 -0.09,-0.64 -0.01,-0.65 0.06,-0.64 0.14,-0.64 0.21,-0.61 0.29,-0.58 0.35,-0.54 0.42,-0.50 0.47,-0.44 0.53,-0.38 0.57,-0.31 0.60,-0.24 0.62,-0.16 0.65,-0.09 0.65,-0.01 0.65,0.06 0.65,0.06 L 0.65,0.06 Z"/></g><g transform="translate(526.9659227905049 54.50884311608695) rotate(0 0 8.808794462466835)" stroke="none"><path fill="#1e1e1e" d="M 0.65,0 Q 0.65,0 0.97,1.74 1.29,3.48 1.31,4.69 1.32,5.91 1.35,7.69 1.38,9.47 1.39,11.02 1.39,12.57 1.02,14.87 0.65,17.17 0.63,17.27 0.62,17.38 0.57,17.47 0.52,17.57 0.44,17.64 0.36,17.71 0.27,17.76 0.17,17.80 0.07,17.81 -0.03,17.82 -0.13,17.80 -0.24,17.78 -0.33,17.72 -0.42,17.67 -0.49,17.59 -0.56,17.51 -0.60,17.41 -0.64,17.31 -0.64,17.20 -0.65,17.10 -0.62,16.99 -0.59,16.89 -0.53,16.80 -0.47,16.72 -0.39,16.65 -0.30,16.59 -0.20,16.55 -0.10,16.52 0.00,16.52 0.10,16.52 0.20,16.55 0.30,16.59 0.39,16.65 0.47,16.72 0.53,16.80 0.59,16.89 0.62,17.00 0.65,17.10 0.64,17.20 0.64,17.31 0.60,17.41 0.56,17.51 0.49,17.59 0.42,17.67 0.33,17.72 0.24,17.78 0.13,17.80 0.03,17.82 -0.07,17.81 -0.17,17.80 -0.27,17.76 -0.36,17.71 -0.44,17.64 -0.52,17.57 -0.57,17.47 -0.62,17.38 -0.63,17.27 -0.65,17.17 -0.65,17.17 -0.65,17.17 -1.02,14.87 -1.39,12.57 -1.39,11.02 -1.38,9.47 -1.35,7.69 -1.32,5.91 -1.31,4.69 -1.29,3.48 -0.97,1.74 -0.65,0 -0.64,-0.07 -0.63,-0.15 -0.60,-0.23 -0.58,-0.30 -0.53,-0.37 -0.49,-0.43 -0.43,-0.48 -0.37,-0.54 -0.30,-0.57 -0.23,-0.61 -0.15,-0.63 -0.07,-0.65 0.00,-0.65 0.07,-0.65 0.15,-0.63 0.23,-0.61 0.30,-0.57 0.37,-0.54 0.43,-0.48 0.49,-0.43 0.53,-0.37 0.58,-0.30 0.60,-0.23 0.63,-0.15 0.64,-0.07 0.65,0.00 0.65,0.00 L 0.65,0 Z"/></g><g transform="translate(528.0670455647557 64.96928861083472) rotate(0 8.53352481193582 0.27526965053098706)" stroke="none"><path fill="#1e1e1e" d="M 0.12,-0.64 Q 0.12,-0.64 0.96,-0.77 1.80,-0.89 2.43,-1.03 3.05,-1.17 3.75,-1.23 4.44,-1.28 5.86,-1.33 7.28,-1.37 8.67,-1.37 10.06,-1.37 13.28,-0.78 16.51,-0.19 16.61,-0.16 16.71,-0.13 16.80,-0.06 16.88,-0.00 16.94,0.08 17.00,0.16 17.03,0.27 17.06,0.37 17.06,0.47 17.05,0.58 17.02,0.68 16.98,0.78 16.91,0.86 16.84,0.94 16.75,1.00 16.66,1.05 16.56,1.08 16.45,1.10 16.35,1.09 16.24,1.08 16.15,1.04 16.05,0.99 15.97,0.92 15.89,0.85 15.84,0.76 15.79,0.66 15.77,0.56 15.75,0.45 15.77,0.35 15.79,0.24 15.83,0.15 15.88,0.06 15.96,-0.01 16.04,-0.08 16.13,-0.13 16.23,-0.17 16.33,-0.19 16.44,-0.20 16.54,-0.18 16.65,-0.16 16.74,-0.10 16.83,-0.05 16.90,0.02 16.97,0.10 17.01,0.20 17.05,0.30 17.06,0.40 17.06,0.51 17.04,0.61 17.01,0.72 16.95,0.80 16.89,0.89 16.81,0.96 16.73,1.02 16.62,1.06 16.52,1.09 16.42,1.09 16.31,1.10 16.31,1.10 16.31,1.10 13.19,1.24 10.07,1.39 8.69,1.41 7.32,1.42 5.96,1.41 4.60,1.40 3.97,1.42 3.35,1.44 2.35,1.48 1.35,1.53 0.61,1.08 -0.12,0.64 -0.20,0.61 -0.27,0.59 -0.34,0.55 -0.41,0.51 -0.46,0.45 -0.52,0.39 -0.56,0.32 -0.60,0.25 -0.62,0.18 -0.64,0.10 -0.65,0.02 -0.65,-0.05 -0.63,-0.12 -0.62,-0.20 -0.59,-0.27 -0.55,-0.34 -0.50,-0.41 -0.45,-0.47 -0.39,-0.51 -0.33,-0.56 -0.25,-0.59 -0.18,-0.63 -0.10,-0.64 -0.02,-0.65 0.04,-0.64 0.12,-0.64 0.12,-0.64 L 0.12,-0.64 Z"/></g><g transform="translate(545.6846565757528 52.30664173971229) rotate(0 0.5505172149985924 11.286265489372454)" stroke="none"><path fill="#1e1e1e" d="M 0.63,-0.18 Q 0.63,-0.18 1.26,0.84 1.89,1.86 2.09,4.04 2.29,6.23 2.36,7.75 2.43,9.28 2.30,11.26 2.18,13.24 2.06,15.13 1.94,17.02 1.35,19.33 0.76,21.63 0.73,21.73 0.70,21.84 0.64,21.92 0.58,22.01 0.50,22.08 0.41,22.14 0.31,22.17 0.21,22.21 0.11,22.21 0.00,22.21 -0.09,22.17 -0.19,22.14 -0.28,22.07 -0.36,22.01 -0.42,21.92 -0.48,21.83 -0.51,21.73 -0.53,21.63 -0.53,21.52 -0.52,21.41 -0.48,21.32 -0.44,21.22 -0.37,21.14 -0.30,21.06 -0.21,21.00 -0.12,20.95 -0.02,20.92 0.08,20.90 0.18,20.91 0.29,20.93 0.38,20.97 0.48,21.02 0.56,21.09 0.63,21.16 0.68,21.26 0.73,21.35 0.75,21.46 0.77,21.56 0.75,21.67 0.73,21.77 0.68,21.86 0.63,21.96 0.55,22.03 0.48,22.10 0.38,22.15 0.28,22.19 0.18,22.20 0.07,22.21 -0.02,22.19 -0.13,22.17 -0.22,22.11 -0.31,22.06 -0.38,21.98 -0.44,21.89 -0.48,21.79 -0.52,21.70 -0.53,21.59 -0.53,21.48 -0.53,21.48 -0.53,21.48 -0.60,19.21 -0.67,16.94 -0.67,14.99 -0.68,13.04 -0.54,11.21 -0.39,9.38 -0.44,7.90 -0.48,6.41 -0.55,4.49 -0.62,2.56 -0.62,1.37 -0.63,0.18 -0.64,0.10 -0.65,0.02 -0.64,-0.05 -0.64,-0.13 -0.61,-0.20 -0.59,-0.28 -0.54,-0.35 -0.50,-0.41 -0.44,-0.47 -0.39,-0.52 -0.32,-0.56 -0.25,-0.60 -0.17,-0.62 -0.10,-0.64 -0.02,-0.65 0.05,-0.65 0.13,-0.63 0.21,-0.62 0.28,-0.58 0.35,-0.55 0.41,-0.50 0.47,-0.45 0.52,-0.38 0.56,-0.32 0.60,-0.25 0.63,-0.18 0.63,-0.18 L 0.63,-0.18 Z"/></g><g transform="translate(98.63843975360368 25.329730094281445) rotate(0 5.23024483343724 -5.230222747373887)" stroke="none"><path fill="#1e1e1e" d="M -0.58,-0.29 Q -0.58,-0.29 -0.33,-1.35 -0.08,-2.41 0.42,-3.45 0.93,-4.49 1.62,-5.89 2.31,-7.28 3.27,-8.73 4.24,-10.18 4.97,-11.12 5.71,-12.07 6.16,-12.45 6.62,-12.84 6.72,-12.94 6.83,-13.05 6.95,-13.12 7.08,-13.20 7.22,-13.24 7.36,-13.28 7.50,-13.29 7.65,-13.30 7.79,-13.27 7.94,-13.25 8.07,-13.19 8.20,-13.13 8.32,-13.04 8.43,-12.95 8.52,-12.83 8.61,-12.71 8.67,-12.58 8.73,-12.45 8.76,-12.30 8.78,-12.16 8.77,-12.01 8.76,-11.87 8.72,-11.73 8.68,-11.59 8.60,-11.46 8.53,-11.34 9.45,-9.67 10.38,-8.01 10.74,-6.05 11.09,-4.09 11.11,-1.22 11.13,1.63 11.11,1.74 11.09,1.84 11.04,1.94 10.98,2.03 10.90,2.10 10.82,2.17 10.73,2.21 10.63,2.25 10.52,2.26 10.42,2.27 10.31,2.24 10.21,2.22 10.12,2.16 10.03,2.10 9.97,2.02 9.90,1.94 9.86,1.84 9.83,1.74 9.82,1.63 9.82,1.53 9.85,1.42 9.88,1.32 9.95,1.24 10.01,1.15 10.10,1.09 10.18,1.03 10.28,1.00 10.38,0.97 10.49,0.97 10.60,0.97 10.70,1.01 10.80,1.04 10.88,1.11 10.96,1.18 11.02,1.27 11.08,1.36 11.10,1.46 11.13,1.56 11.12,1.67 11.11,1.78 11.07,1.87 11.02,1.97 10.95,2.05 10.88,2.13 10.79,2.18 10.70,2.23 10.59,2.25 10.49,2.27 10.38,2.26 10.28,2.24 10.18,2.20 10.09,2.15 10.01,2.07 9.94,2.00 9.89,1.90 9.84,1.81 9.83,1.70 9.82,1.60 9.82,1.60 9.82,1.60 9.29,-1.02 8.77,-3.65 8.41,-5.45 8.04,-7.25 7.60,-8.64 7.16,-10.02 6.89,-11.43 6.62,-12.84 6.72,-12.94 6.83,-13.05 6.95,-13.12 7.08,-13.20 7.22,-13.24 7.36,-13.28 7.50,-13.29 7.65,-13.30 7.79,-13.27 7.94,-13.25 8.07,-13.19 8.20,-13.13 8.32,-13.04 8.43,-12.95 8.52,-12.83 8.61,-12.72 8.67,-12.58 8.73,-12.45 8.76,-12.30 8.78,-12.16 8.77,-12.01 8.77,-11.87 8.72,-11.73 8.68,-11.59 8.60,-11.46 8.53,-11.34 8.06,-10.96 7.59,-10.57 6.91,-9.71 6.22,-8.85 5.33,-7.53 4.43,-6.22 3.73,-4.83 3.03,-3.44 2.51,-2.41 1.98,-1.38 1.28,-0.54 0.58,0.29 0.54,0.35 0.49,0.42 0.44,0.47 0.38,0.53 0.31,0.57 0.24,0.60 0.16,0.62 0.09,0.65 0.01,0.65 -0.06,0.65 -0.14,0.63 -0.22,0.61 -0.29,0.58 -0.36,0.54 -0.42,0.49 -0.48,0.44 -0.52,0.38 -0.57,0.31 -0.60,0.24 -0.63,0.16 -0.64,0.09 -0.65,0.01 -0.64,-0.06 -0.64,-0.14 -0.61,-0.21 -0.58,-0.29 -0.58,-0.29 L -0.58,-0.29 Z"/></g><g transform="translate(102.49228111922758 22.576967330781486) rotate(0 4.129122059186614 0.5505613871253843)" stroke="none"><path fill="#1e1e1e" d="M -0.09,-0.65 Q -0.09,-0.65 0.98,-1.01 2.07,-1.38 3.14,-1.22 4.21,-1.07 5.98,-0.17 7.76,0.72 7.85,0.78 7.94,0.84 8.01,0.92 8.08,1.00 8.11,1.10 8.15,1.20 8.15,1.31 8.15,1.41 8.12,1.51 8.09,1.62 8.03,1.70 7.97,1.79 7.88,1.85 7.80,1.91 7.69,1.94 7.59,1.97 7.49,1.97 7.38,1.97 7.28,1.93 7.18,1.90 7.10,1.83 7.01,1.76 6.96,1.67 6.90,1.58 6.87,1.48 6.85,1.38 6.86,1.27 6.87,1.17 6.91,1.07 6.95,0.97 7.02,0.89 7.09,0.81 7.18,0.76 7.28,0.71 7.38,0.69 7.49,0.67 7.59,0.68 7.70,0.70 7.79,0.74 7.89,0.79 7.96,0.87 8.04,0.94 8.08,1.04 8.13,1.13 8.15,1.24 8.16,1.34 8.14,1.45 8.12,1.55 8.07,1.64 8.02,1.74 7.94,1.81 7.86,1.88 7.76,1.92 7.66,1.96 7.56,1.97 7.45,1.98 7.35,1.95 7.24,1.93 7.24,1.93 7.24,1.93 5.62,1.36 4.00,0.80 3.18,0.77 2.36,0.75 1.22,0.70 0.09,0.65 0.01,0.65 -0.06,0.65 -0.14,0.63 -0.21,0.61 -0.29,0.58 -0.36,0.54 -0.42,0.49 -0.48,0.44 -0.52,0.38 -0.57,0.31 -0.60,0.24 -0.63,0.17 -0.64,0.09 -0.65,0.01 -0.64,-0.06 -0.64,-0.14 -0.61,-0.21 -0.58,-0.29 -0.54,-0.35 -0.50,-0.42 -0.44,-0.47 -0.38,-0.53 -0.31,-0.57 -0.24,-0.60 -0.16,-0.62 -0.09,-0.65 -0.09,-0.65 L -0.09,-0.65 Z"/></g><g transform="translate(135.52525759272032 200.9550137843662) rotate(0 -0.2752806935626779 6.056042741998539)" stroke="none"><path fill="#1e1e1e" d="M 0.65,0 Q 0.65,0 0.83,0.79 1.02,1.58 1.04,2.71 1.06,3.83 0.91,5.17 0.76,6.51 0.68,7.80 0.61,9.09 0.36,10.68 0.11,12.28 0.09,12.38 0.07,12.49 0.02,12.58 -0.02,12.67 -0.10,12.74 -0.18,12.82 -0.28,12.86 -0.37,12.90 -0.48,12.91 -0.59,12.92 -0.69,12.90 -0.79,12.87 -0.88,12.81 -0.97,12.76 -1.04,12.68 -1.11,12.59 -1.14,12.49 -1.18,12.39 -1.19,12.29 -1.19,12.18 -1.16,12.08 -1.13,11.98 -1.07,11.89 -1.01,11.80 -0.92,11.74 -0.83,11.68 -0.73,11.65 -0.63,11.62 -0.53,11.62 -0.42,11.62 -0.32,11.66 -0.22,11.69 -0.14,11.76 -0.05,11.82 0.00,11.91 0.05,12.00 0.08,12.10 0.11,12.21 0.10,12.31 0.09,12.42 0.05,12.52 0.01,12.61 -0.05,12.69 -0.12,12.77 -0.21,12.83 -0.31,12.88 -0.41,12.90 -0.52,12.92 -0.62,12.91 -0.73,12.89 -0.82,12.85 -0.92,12.80 -0.99,12.73 -1.07,12.65 -1.12,12.56 -1.16,12.46 -1.18,12.36 -1.19,12.25 -1.19,12.25 -1.19,12.25 -1.35,10.62 -1.51,8.98 -1.45,7.61 -1.39,6.24 -1.22,5.04 -1.06,3.83 -1.04,2.71 -1.02,1.58 -0.83,0.79 -0.65,0 -0.64,-0.07 -0.63,-0.15 -0.60,-0.23 -0.58,-0.30 -0.53,-0.37 -0.49,-0.43 -0.43,-0.48 -0.37,-0.54 -0.30,-0.57 -0.23,-0.61 -0.15,-0.63 -0.07,-0.65 0.00,-0.65 0.07,-0.65 0.15,-0.63 0.23,-0.61 0.30,-0.57 0.37,-0.54 0.43,-0.48 0.49,-0.43 0.53,-0.37 0.58,-0.30 0.60,-0.23 0.63,-0.15 0.64,-0.07 0.65,0.00 0.65,0.00 L 0.65,0 Z"/></g><g transform="translate(132.22197761422171 203.70777654786616) rotate(0 7.432424123748547 4.954919967747884)" stroke="none"><path fill="#1e1e1e" d="M -0.64,-0.12 Q -0.64,-0.12 -0.61,-0.97 -0.58,-1.81 0.09,-2.71 0.78,-3.60 2.66,-4.04 4.54,-4.48 6.00,-4.45 7.46,-4.43 8.94,-3.70 10.42,-2.97 11.16,-1.69 11.90,-0.41 12.02,0.57 12.13,1.56 11.81,2.61 11.49,3.67 10.94,4.36 10.40,5.04 10.03,5.44 9.67,5.83 9.20,6.12 8.73,6.40 8.44,6.46 8.16,6.53 8.02,6.58 7.87,6.63 7.72,6.65 7.57,6.67 7.42,6.65 7.27,6.63 7.12,6.58 6.98,6.52 6.86,6.43 6.73,6.34 6.63,6.23 6.53,6.11 6.46,5.98 6.39,5.84 6.35,5.69 6.32,5.55 6.32,5.39 6.32,5.24 6.36,5.09 6.40,4.94 6.47,4.81 6.54,4.67 6.64,4.56 6.74,4.45 6.87,4.36 7.00,4.27 8.39,4.02 9.78,3.77 11.10,4.08 12.43,4.39 13.49,5.04 14.55,5.69 14.94,7.07 15.32,8.44 14.46,10.05 13.61,11.65 11.23,12.49 8.84,13.34 5.69,13.76 2.54,14.19 2.44,14.19 2.33,14.19 2.23,14.15 2.13,14.12 2.05,14.05 1.96,13.99 1.90,13.90 1.84,13.81 1.81,13.71 1.78,13.61 1.79,13.50 1.80,13.40 1.84,13.30 1.87,13.20 1.94,13.12 2.01,13.04 2.10,12.98 2.19,12.93 2.30,12.90 2.40,12.88 2.51,12.89 2.61,12.90 2.71,12.95 2.81,12.99 2.88,13.07 2.96,13.14 3.01,13.23 3.06,13.33 3.08,13.43 3.09,13.54 3.08,13.64 3.06,13.75 3.01,13.84 2.96,13.93 2.88,14.01 2.81,14.08 2.71,14.13 2.61,14.17 2.51,14.18 2.40,14.19 2.30,14.17 2.20,14.15 2.10,14.09 2.01,14.04 1.94,13.96 1.88,13.88 1.84,13.78 1.80,13.68 1.79,13.57 1.78,13.47 1.81,13.36 1.84,13.26 1.90,13.17 1.96,13.09 2.05,13.02 2.13,12.96 2.23,12.92 2.33,12.89 2.33,12.89 2.33,12.89 5.27,12.31 8.20,11.73 9.91,10.91 11.62,10.10 12.20,9.28 12.77,8.47 12.79,7.89 12.82,7.31 12.29,7.08 11.77,6.85 10.84,6.57 9.92,6.30 9.04,6.41 8.16,6.53 8.02,6.58 7.87,6.63 7.72,6.65 7.57,6.67 7.42,6.65 7.27,6.63 7.12,6.58 6.98,6.52 6.86,6.43 6.73,6.34 6.63,6.23 6.53,6.11 6.46,5.98 6.39,5.84 6.35,5.69 6.32,5.55 6.32,5.39 6.32,5.24 6.36,5.09 6.40,4.94 6.47,4.81 6.54,4.67 6.64,4.56 6.74,4.45 6.87,4.36 7.00,4.27 7.43,4.17 7.86,4.07 8.52,3.42 9.18,2.76 9.44,2.21 9.70,1.66 9.71,1.11 9.71,0.56 9.42,-0.29 9.14,-1.15 8.22,-1.72 7.29,-2.29 6.09,-2.34 4.88,-2.40 3.45,-2.28 2.02,-2.16 1.62,-1.75 1.22,-1.34 0.93,-0.60 0.64,0.12 0.61,0.20 0.59,0.27 0.55,0.34 0.51,0.41 0.45,0.46 0.39,0.52 0.32,0.56 0.25,0.60 0.18,0.62 0.10,0.64 0.02,0.65 -0.05,0.65 -0.12,0.63 -0.20,0.62 -0.27,0.59 -0.34,0.55 -0.41,0.50 -0.47,0.45 -0.51,0.39 -0.56,0.33 -0.59,0.25 -0.63,0.18 -0.64,0.10 -0.65,0.02 -0.64,-0.04 -0.64,-0.12 -0.64,-0.12 L -0.64,-0.12 Z"/></g><g transform="translate(12.202201376374603 56.71104449246155) rotate(0 -0.2752806935626495 7.157143430185869)" stroke="none"><path fill="#1e1e1e" d="M 0.65,0 Q 0.65,0 0.90,0.94 1.15,1.89 1.16,2.93 1.17,3.97 1.17,4.88 1.17,5.80 1.18,6.82 1.19,7.85 1.03,9.00 0.87,10.15 0.79,10.89 0.72,11.62 0.41,13.14 0.10,14.65 0.09,14.76 0.07,14.86 0.02,14.96 -0.03,15.05 -0.10,15.12 -0.18,15.19 -0.28,15.24 -0.38,15.28 -0.48,15.29 -0.59,15.30 -0.69,15.28 -0.79,15.25 -0.88,15.20 -0.97,15.14 -1.04,15.06 -1.11,14.98 -1.15,14.88 -1.19,14.78 -1.19,14.67 -1.19,14.56 -1.16,14.46 -1.13,14.36 -1.07,14.27 -1.01,14.19 -0.93,14.12 -0.84,14.06 -0.74,14.03 -0.64,14.00 -0.53,14.00 -0.43,14.00 -0.33,14.03 -0.23,14.07 -0.14,14.14 -0.06,14.20 -0.00,14.29 0.05,14.38 0.07,14.48 0.10,14.58 0.09,14.69 0.09,14.80 0.05,14.89 0.01,14.99 -0.05,15.07 -0.12,15.15 -0.22,15.21 -0.31,15.26 -0.41,15.28 -0.52,15.30 -0.62,15.29 -0.73,15.28 -0.82,15.23 -0.92,15.18 -1.00,15.11 -1.07,15.03 -1.12,14.94 -1.17,14.85 -1.18,14.74 -1.20,14.63 -1.20,14.64 -1.20,14.64 -1.41,13.03 -1.62,11.42 -1.56,10.61 -1.50,9.80 -1.34,8.82 -1.19,7.84 -1.18,6.82 -1.17,5.80 -1.17,4.88 -1.17,3.97 -1.16,2.93 -1.15,1.89 -0.90,0.94 -0.65,0 -0.64,-0.07 -0.63,-0.15 -0.60,-0.23 -0.58,-0.30 -0.53,-0.37 -0.49,-0.43 -0.43,-0.48 -0.37,-0.54 -0.30,-0.57 -0.23,-0.61 -0.15,-0.63 -0.07,-0.65 0.00,-0.65 0.07,-0.65 0.15,-0.63 0.23,-0.61 0.30,-0.57 0.37,-0.54 0.43,-0.48 0.49,-0.43 0.53,-0.37 0.58,-0.30 0.60,-0.23 0.63,-0.15 0.64,-0.07 0.65,0.00 0.65,0.00 L 0.65,0 Z"/></g><g transform="translate(19.35932272049712 62.76708723446012) rotate(0 0.5505613871253843 3.028032414030946)" stroke="none"><path d="M0 0 C-0.09 -0.18, -0.28 -1.01, -0.55 -1.1 C-0.83 -1.19, -1.19 -1.19, -1.65 -0.55 C-2.11 0.09, -3.12 1.56, -3.3 2.75 C-3.49 3.95, -3.3 5.78, -2.75 6.61 C-2.2 7.43, -1.19 8.07, 0 7.71 C1.19 7.34, 3.67 5.6, 4.4 4.4 C5.14 3.21, 4.77 1.56, 4.4 0.55 C4.04 -0.46, 3.03 -1.28, 2.2 -1.65 C1.38 -2.02, 0.09 -2.02, -0.55 -1.65 C-1.19 -1.28, -1.47 0.18, -1.65 0.55" stroke="none" stroke-width="0" fill="#ffffff" fill-rule="evenodd"/><path fill="#1e1e1e" d="M 0,0.65 Q 0,0.65 -0.62,0.90 -1.24,1.15 -1.48,1.68 -1.73,2.22 -1.83,2.84 -1.92,3.46 -1.83,4.23 -1.73,5.01 -1.06,5.55 -0.38,6.09 0.64,5.75 1.67,5.42 2.12,4.94 2.58,4.46 2.70,3.93 2.82,3.40 2.90,2.63 2.97,1.85 2.42,0.96 1.86,0.08 0.47,0.38 -0.92,0.68 -1.00,0.75 -1.07,0.82 -1.17,0.87 -1.27,0.91 -1.37,0.92 -1.48,0.93 -1.58,0.91 -1.69,0.88 -1.78,0.83 -1.87,0.77 -1.93,0.69 -2.00,0.61 -2.04,0.51 -2.08,0.41 -2.08,0.30 -2.09,0.20 -2.06,0.10 -2.03,-0.00 -1.97,-0.08 -1.91,-0.17 -1.83,-0.23 -1.74,-0.30 -1.64,-0.33 -1.54,-0.36 -1.43,-0.36 -1.33,-0.36 -1.23,-0.33 -1.12,-0.29 -1.04,-0.23 -0.96,-0.16 -0.90,-0.07 -0.84,0.00 -0.81,0.11 -0.78,0.21 -0.79,0.32 -0.80,0.42 -0.84,0.52 -0.88,0.62 -0.95,0.70 -1.02,0.78 -1.11,0.83 -1.20,0.89 -1.30,0.91 -1.41,0.93 -1.51,0.92 -1.62,0.91 -1.71,0.86 -1.81,0.82 -1.89,0.74 -1.96,0.67 -2.01,0.57 -2.06,0.48 -2.08,0.37 -2.09,0.27 -2.08,0.16 -2.06,0.06 -2.01,-0.02 -1.96,-0.12 -1.96,-0.12 -1.96,-0.12 0.01,-1.27 1.98,-2.42 2.89,-1.98 3.80,-1.54 4.35,-0.74 4.89,0.05 5.19,1.04 5.48,2.03 5.32,3.15 5.16,4.26 4.72,5.20 4.29,6.14 3.44,6.87 2.59,7.60 1.58,7.96 0.57,8.31 -0.44,8.22 -1.47,8.14 -2.30,7.56 -3.14,6.98 -3.59,6.17 -4.05,5.35 -4.15,4.20 -4.25,3.05 -4.05,2.13 -3.86,1.21 -3.28,0.29 -2.70,-0.61 -1.99,-0.88 -1.29,-1.15 -0.64,-0.90 0,-0.65 0.07,-0.64 0.15,-0.63 0.23,-0.60 0.30,-0.58 0.37,-0.53 0.43,-0.49 0.48,-0.43 0.54,-0.37 0.57,-0.30 0.61,-0.23 0.63,-0.15 0.65,-0.07 0.65,0.00 0.65,0.07 0.63,0.15 0.61,0.23 0.57,0.30 0.54,0.37 0.48,0.43 0.43,0.49 0.37,0.53 0.30,0.58 0.23,0.60 0.15,0.63 0.07,0.64 -0.00,0.65 -0.00,0.65 L 0,0.65 Z"/></g><g transform="translate(26.516488236746397 58.91324586883616) rotate(0 3.30327997849858 7.157143430185869)" stroke="none"><path fill="#1e1e1e" d="M 0.46,-0.46 Q 0.46,-0.46 1.10,-0.15 1.75,0.14 2.51,0.72 3.26,1.30 3.85,1.78 4.43,2.27 4.91,2.55 5.39,2.83 5.86,3.17 6.32,3.51 6.84,4.33 7.36,5.15 7.42,6.21 7.48,7.27 6.94,8.50 6.40,9.72 5.82,10.53 5.24,11.35 3.79,12.85 2.35,14.35 2.29,14.44 2.23,14.53 2.15,14.59 2.06,14.66 1.96,14.69 1.86,14.73 1.76,14.73 1.65,14.73 1.55,14.70 1.45,14.66 1.36,14.60 1.28,14.54 1.22,14.45 1.16,14.36 1.13,14.26 1.10,14.16 1.10,14.05 1.11,13.95 1.15,13.85 1.18,13.75 1.25,13.67 1.32,13.58 1.41,13.53 1.50,13.47 1.60,13.45 1.71,13.42 1.81,13.43 1.92,13.44 2.02,13.49 2.11,13.53 2.19,13.60 2.27,13.68 2.32,13.77 2.37,13.86 2.39,13.97 2.41,14.07 2.39,14.18 2.37,14.28 2.33,14.38 2.28,14.47 2.20,14.54 2.12,14.62 2.03,14.66 1.93,14.71 1.83,14.72 1.72,14.74 1.62,14.71 1.51,14.69 1.42,14.64 1.33,14.58 1.26,14.50 1.19,14.42 1.15,14.33 1.11,14.23 1.10,14.12 1.10,14.02 1.12,13.91 1.15,13.81 1.15,13.81 1.15,13.81 2.03,11.73 2.90,9.65 3.37,9.02 3.83,8.40 4.36,7.33 4.89,6.26 4.46,5.60 4.02,4.93 3.43,4.52 2.84,4.10 2.39,3.69 1.94,3.28 1.04,2.51 0.14,1.75 -0.15,1.10 -0.46,0.46 -0.51,0.40 -0.56,0.33 -0.59,0.26 -0.62,0.19 -0.64,0.11 -0.65,0.03 -0.65,-0.03 -0.64,-0.11 -0.62,-0.19 -0.59,-0.26 -0.55,-0.33 -0.51,-0.40 -0.46,-0.46 -0.40,-0.51 -0.33,-0.55 -0.26,-0.59 -0.19,-0.62 -0.11,-0.64 -0.03,-0.65 0.03,-0.65 0.11,-0.64 0.19,-0.62 0.26,-0.59 0.33,-0.56 0.40,-0.51 0.46,-0.46 0.46,-0.46 L 0.46,-0.46 Z"/></g><g transform="translate(31.471408204494253 47.35169968590105) rotate(0 1.10110068818733 1.10110068818733)" stroke="none"><path d="M0 0 C-0.28 -0.09, -1.1 -0.64, -1.65 -0.55 C-2.2 -0.46, -3.4 -0.46, -3.3 0.55 C-3.21 1.56, -2.11 4.68, -1.1 5.51 C-0.09 6.33, 1.74 5.78, 2.75 5.51 C3.76 5.23, 4.59 5.05, 4.95 3.85 C5.32 2.66, 5.96 -0.46, 4.95 -1.65 C3.95 -2.84, 0.09 -3.4, -1.1 -3.3 C-2.29 -3.21, -2.02 -1.47, -2.2 -1.1" stroke="none" stroke-width="0" fill="#ffffff" fill-rule="evenodd"/><path fill="#1e1e1e" d="M -0.20,0.62 Q -0.20,0.62 -0.70,0.67 -1.19,0.72 -1.54,1.18 -1.89,1.64 -1.64,2.22 -1.39,2.79 -1.11,3.27 -0.82,3.75 -0.25,3.84 0.30,3.93 0.96,4.03 1.62,4.13 2.29,3.75 2.97,3.37 3.32,2.88 3.68,2.39 3.78,1.71 3.89,1.03 3.85,0.46 3.82,-0.10 3.29,-0.46 2.77,-0.82 2.27,-1.20 1.77,-1.57 0.20,-1.29 -1.36,-1.01 -1.45,-0.95 -1.53,-0.89 -1.63,-0.86 -1.73,-0.82 -1.84,-0.82 -1.95,-0.83 -2.05,-0.86 -2.15,-0.90 -2.23,-0.96 -2.31,-1.03 -2.37,-1.12 -2.43,-1.20 -2.46,-1.31 -2.48,-1.41 -2.48,-1.52 -2.47,-1.62 -2.43,-1.72 -2.39,-1.82 -2.32,-1.90 -2.25,-1.98 -2.16,-2.03 -2.07,-2.09 -1.96,-2.11 -1.86,-2.13 -1.75,-2.12 -1.65,-2.10 -1.55,-2.06 -1.46,-2.01 -1.38,-1.94 -1.30,-1.86 -1.25,-1.77 -1.21,-1.67 -1.19,-1.57 -1.17,-1.46 -1.19,-1.36 -1.21,-1.25 -1.26,-1.16 -1.31,-1.07 -1.39,-1.00 -1.47,-0.92 -1.57,-0.88 -1.66,-0.84 -1.77,-0.83 -1.88,-0.82 -1.98,-0.84 -2.08,-0.87 -2.17,-0.92 -2.26,-0.98 -2.33,-1.06 -2.40,-1.14 -2.44,-1.24 -2.47,-1.34 -2.48,-1.45 -2.48,-1.55 -2.45,-1.65 -2.42,-1.76 -2.36,-1.84 -2.30,-1.93 -2.30,-1.93 -2.30,-1.93 -0.45,-3.07 1.38,-4.21 2.33,-3.95 3.28,-3.70 3.97,-3.18 4.67,-2.65 5.46,-1.65 6.25,-0.65 6.32,0.50 6.39,1.65 6.01,2.80 5.62,3.94 4.83,4.76 4.03,5.58 2.74,6.04 1.46,6.51 0.47,6.36 -0.50,6.21 -1.55,5.71 -2.60,5.22 -3.14,4.33 -3.69,3.43 -3.90,2.27 -4.12,1.10 -3.69,0.25 -3.26,-0.58 -2.60,-0.90 -1.94,-1.22 -1.32,-1.29 -0.70,-1.35 -0.24,-0.99 0.20,-0.62 0.27,-0.58 0.35,-0.55 0.41,-0.50 0.47,-0.45 0.52,-0.39 0.56,-0.32 0.59,-0.25 0.63,-0.18 0.64,-0.10 0.65,-0.02 0.64,0.05 0.64,0.13 0.61,0.20 0.59,0.28 0.55,0.34 0.50,0.41 0.45,0.46 0.39,0.52 0.32,0.56 0.25,0.60 0.18,0.62 0.10,0.64 0.02,0.65 -0.05,0.65 -0.13,0.63 -0.20,0.62 -0.20,0.62 L -0.20,0.62 Z"/></g><g transform="translate(29.269206828119593 46.80116038483908) rotate(0 3.3033020645619615 3.0280213709992836)" stroke="none"><path fill="#1e1e1e" d="M 0.29,-0.58 Q 0.29,-0.58 1.03,-0.48 1.77,-0.38 2.47,0.10 3.16,0.58 3.88,1.06 4.59,1.53 5.09,1.93 5.59,2.33 6.40,4.04 7.21,5.75 7.21,5.85 7.22,5.96 7.19,6.06 7.16,6.16 7.10,6.25 7.03,6.34 6.95,6.40 6.86,6.46 6.76,6.49 6.66,6.53 6.55,6.52 6.45,6.52 6.35,6.49 6.25,6.45 6.16,6.38 6.08,6.32 6.02,6.23 5.97,6.14 5.94,6.04 5.91,5.93 5.92,5.83 5.93,5.72 5.97,5.63 6.01,5.53 6.08,5.45 6.15,5.37 6.24,5.31 6.33,5.26 6.44,5.24 6.54,5.22 6.65,5.23 6.75,5.25 6.85,5.29 6.95,5.34 7.02,5.41 7.10,5.49 7.14,5.58 7.19,5.68 7.21,5.78 7.22,5.89 7.20,5.99 7.18,6.10 7.13,6.19 7.08,6.28 7.00,6.35 6.92,6.43 6.83,6.47 6.73,6.51 6.62,6.52 6.52,6.53 6.42,6.51 6.31,6.48 6.22,6.42 6.13,6.37 6.06,6.29 6.00,6.20 5.96,6.10 5.92,6.01 5.92,6.01 5.92,6.01 4.98,5.13 4.04,4.26 3.60,3.91 3.17,3.56 2.44,3.02 1.70,2.48 1.23,2.06 0.75,1.64 0.23,1.11 -0.29,0.58 -0.35,0.54 -0.42,0.49 -0.47,0.44 -0.53,0.38 -0.57,0.31 -0.60,0.24 -0.62,0.16 -0.65,0.09 -0.65,0.01 -0.65,-0.06 -0.63,-0.14 -0.61,-0.22 -0.58,-0.29 -0.54,-0.36 -0.49,-0.42 -0.44,-0.48 -0.38,-0.52 -0.31,-0.57 -0.24,-0.60 -0.16,-0.63 -0.09,-0.64 -0.01,-0.65 0.06,-0.64 0.14,-0.64 0.21,-0.61 0.29,-0.58 0.29,-0.58 L 0.29,-0.58 Z"/></g><g transform="translate(30.920846817368954 52.30664173971229) rotate(0 3.0280213709992836 -3.0280213709992836)" stroke="none"><path fill="#1e1e1e" d="M -0.58,-0.29 Q -0.58,-0.29 -0.28,-1.33 0.00,-2.38 0.75,-3.23 1.50,-4.08 3.45,-5.25 5.39,-6.42 5.49,-6.46 5.59,-6.50 5.69,-6.50 5.80,-6.51 5.90,-6.48 6.00,-6.45 6.09,-6.39 6.18,-6.33 6.24,-6.24 6.30,-6.16 6.33,-6.05 6.37,-5.95 6.36,-5.85 6.36,-5.74 6.33,-5.64 6.29,-5.54 6.23,-5.46 6.16,-5.37 6.07,-5.32 5.98,-5.26 5.88,-5.23 5.78,-5.20 5.67,-5.21 5.57,-5.22 5.47,-5.26 5.37,-5.30 5.29,-5.37 5.21,-5.44 5.16,-5.53 5.10,-5.62 5.08,-5.73 5.06,-5.83 5.07,-5.94 5.09,-6.04 5.13,-6.14 5.18,-6.23 5.25,-6.31 5.33,-6.39 5.42,-6.43 5.52,-6.48 5.62,-6.50 5.73,-6.51 5.83,-6.49 5.94,-6.48 6.03,-6.42 6.12,-6.37 6.19,-6.30 6.27,-6.22 6.31,-6.12 6.35,-6.02 6.36,-5.92 6.37,-5.81 6.35,-5.71 6.32,-5.60 6.27,-5.51 6.21,-5.42 6.13,-5.36 6.05,-5.29 6.05,-5.29 6.05,-5.29 4.57,-3.94 3.09,-2.59 2.49,-2.00 1.88,-1.41 1.23,-0.56 0.58,0.29 0.54,0.35 0.49,0.42 0.44,0.47 0.38,0.53 0.31,0.57 0.24,0.60 0.16,0.62 0.09,0.65 0.01,0.65 -0.06,0.65 -0.14,0.63 -0.22,0.61 -0.29,0.58 -0.36,0.54 -0.42,0.49 -0.48,0.44 -0.52,0.38 -0.57,0.31 -0.60,0.24 -0.63,0.16 -0.64,0.09 -0.65,0.01 -0.64,-0.06 -0.64,-0.14 -0.61,-0.21 -0.58,-0.29 -0.58,-0.29 L -0.58,-0.29 Z"/></g><g transform="translate(38.628573720743475 52.30664173971229) rotate(0 6.606582043060541 -2.7527406774366057)" stroke="none"><path fill="#1e1e1e" d="M -0.60,-0.25 Q -0.60,-0.25 -0.39,-1.48 -0.18,-2.70 0.19,-3.40 0.58,-4.09 0.92,-4.58 1.26,-5.06 1.78,-5.71 2.30,-6.36 3.06,-6.40 3.83,-6.45 4.41,-6.04 4.99,-5.63 5.24,-4.95 5.48,-4.26 5.55,-3.66 5.62,-3.06 4.87,-2.86 4.13,-2.65 4.44,-3.19 4.75,-3.74 5.30,-4.11 5.84,-4.48 6.93,-4.79 8.01,-5.11 8.53,-4.85 9.05,-4.59 9.51,-4.05 9.96,-3.50 10.35,-3.08 10.74,-2.65 11.96,-1.68 13.18,-0.70 13.28,-0.65 13.37,-0.60 13.44,-0.52 13.51,-0.44 13.56,-0.35 13.60,-0.25 13.61,-0.14 13.62,-0.04 13.60,0.06 13.58,0.16 13.52,0.25 13.46,0.34 13.38,0.41 13.30,0.48 13.20,0.52 13.10,0.55 13.00,0.56 12.89,0.56 12.79,0.53 12.69,0.51 12.60,0.44 12.51,0.38 12.45,0.30 12.38,0.21 12.35,0.11 12.32,0.01 12.32,-0.08 12.32,-0.19 12.36,-0.29 12.39,-0.39 12.45,-0.48 12.52,-0.56 12.61,-0.62 12.70,-0.68 12.80,-0.70 12.90,-0.73 13.01,-0.73 13.11,-0.72 13.21,-0.68 13.31,-0.64 13.39,-0.57 13.47,-0.50 13.53,-0.41 13.58,-0.32 13.60,-0.21 13.62,-0.11 13.61,-0.00 13.60,0.09 13.55,0.19 13.51,0.28 13.43,0.36 13.36,0.44 13.27,0.49 13.17,0.54 13.07,0.55 12.96,0.57 12.86,0.55 12.75,0.53 12.75,0.53 12.75,0.53 10.82,-0.21 8.89,-0.97 8.04,-1.68 7.20,-2.40 6.68,-1.97 6.15,-1.53 5.72,-1.19 5.28,-0.84 4.42,-0.99 3.55,-1.15 3.30,-1.98 3.04,-2.82 3.35,-3.63 3.65,-4.43 3.20,-3.64 2.75,-2.85 2.42,-2.28 2.08,-1.72 1.34,-0.73 0.60,0.25 0.56,0.32 0.52,0.39 0.46,0.45 0.41,0.50 0.34,0.55 0.28,0.59 0.20,0.61 0.12,0.64 0.05,0.64 -0.02,0.65 -0.10,0.64 -0.18,0.63 -0.25,0.59 -0.32,0.56 -0.39,0.52 -0.45,0.47 -0.50,0.41 -0.55,0.34 -0.58,0.27 -0.62,0.20 -0.63,0.12 -0.65,0.05 -0.65,-0.02 -0.64,-0.10 -0.62,-0.18 -0.60,-0.25 -0.60,-0.25 L -0.60,-0.25 Z"/></g><g transform="translate(33.67360958086891 83.68797822395572) rotate(0 3.5785827581245826 -4.67967240328025)" stroke="none"><path d="M0 0 C0.83 -1.56, 3.95 -7.89, 4.95 -9.36 C5.96 -10.83, 5.69 -10.37, 6.06 -8.81 C6.42 -7.25, 6.97 -1.47, 7.16 0" stroke="none" stroke-width="0" fill="#ffffff" fill-rule="evenodd"/><path fill="#1e1e1e" d="M -0.60,-0.24 Q -0.60,-0.24 -0.40,-1.08 -0.20,-1.91 0.05,-2.72 0.31,-3.53 0.93,-4.61 1.54,-5.69 2.08,-6.72 2.62,-7.76 3.14,-8.48 3.66,-9.20 4.85,-9.26 6.05,-9.32 6.59,-8.49 7.13,-7.67 7.34,-6.74 7.55,-5.80 7.63,-5.10 7.71,-4.39 7.75,-2.31 7.80,-0.23 7.79,-0.12 7.77,-0.02 7.73,0.07 7.68,0.16 7.61,0.24 7.53,0.32 7.44,0.36 7.35,0.41 7.24,0.43 7.14,0.45 7.03,0.43 6.93,0.41 6.83,0.36 6.74,0.31 6.67,0.23 6.60,0.15 6.55,0.05 6.51,-0.03 6.50,-0.14 6.49,-0.24 6.51,-0.35 6.54,-0.45 6.59,-0.54 6.65,-0.63 6.73,-0.70 6.81,-0.77 6.91,-0.81 7.01,-0.84 7.12,-0.85 7.22,-0.85 7.32,-0.82 7.43,-0.79 7.51,-0.73 7.60,-0.67 7.66,-0.59 7.73,-0.50 7.76,-0.40 7.79,-0.30 7.79,-0.19 7.79,-0.09 7.75,0.00 7.72,0.10 7.65,0.19 7.59,0.27 7.50,0.33 7.41,0.39 7.31,0.41 7.21,0.44 7.10,0.44 7.00,0.43 6.90,0.39 6.80,0.35 6.72,0.28 6.64,0.21 6.58,0.12 6.53,0.03 6.51,-0.07 6.49,-0.17 6.49,-0.17 6.49,-0.17 5.89,-2.16 5.30,-4.14 5.25,-4.74 5.19,-5.34 5.09,-6.00 4.99,-6.65 5.03,-7.19 5.06,-7.73 4.77,-7.24 4.49,-6.75 3.88,-5.69 3.28,-4.62 2.70,-3.75 2.12,-2.87 1.79,-2.06 1.46,-1.24 1.03,-0.50 0.60,0.24 0.57,0.31 0.53,0.38 0.48,0.44 0.42,0.49 0.36,0.54 0.29,0.58 0.22,0.61 0.14,0.64 0.06,0.64 -0.01,0.65 -0.09,0.64 -0.16,0.63 -0.24,0.60 -0.31,0.57 -0.37,0.52 -0.44,0.48 -0.49,0.42 -0.54,0.36 -0.58,0.29 -0.61,0.22 -0.63,0.14 -0.65,0.06 -0.65,-0.01 -0.65,-0.09 -0.63,-0.16 -0.60,-0.24 -0.60,-0.24 L -0.60,-0.24 Z"/></g><g transform="translate(35.875810957243516 81.48577684758106) rotate(0 2.7527406774366057 -0.5505503440936366)" stroke="none"><path d="M0 0 C0.46 -0.18, 1.84 -1.1, 2.75 -1.1 C3.67 -1.1, 5.05 -0.18, 5.51 0" stroke="none" stroke-width="0" fill="#ffffff" fill-rule="evenodd"/><path fill="#1e1e1e" d="M -0.24,-0.60 Q -0.24,-0.60 0.48,-1.08 1.21,-1.55 3.37,-1.13 5.53,-0.71 5.62,-0.65 5.70,-0.59 5.77,-0.50 5.83,-0.42 5.86,-0.31 5.89,-0.21 5.89,-0.11 5.89,-0.00 5.85,0.09 5.82,0.19 5.75,0.27 5.68,0.36 5.59,0.41 5.50,0.47 5.40,0.50 5.30,0.52 5.19,0.51 5.09,0.51 4.99,0.47 4.89,0.42 4.81,0.35 4.73,0.28 4.68,0.19 4.63,0.10 4.61,-0.00 4.59,-0.10 4.60,-0.21 4.61,-0.31 4.66,-0.41 4.71,-0.50 4.78,-0.58 4.86,-0.65 4.95,-0.70 5.05,-0.75 5.15,-0.76 5.26,-0.78 5.36,-0.76 5.47,-0.74 5.56,-0.69 5.65,-0.64 5.72,-0.56 5.79,-0.48 5.84,-0.38 5.88,-0.28 5.89,-0.18 5.90,-0.07 5.87,0.02 5.85,0.13 5.79,0.22 5.73,0.30 5.65,0.37 5.57,0.44 5.47,0.48 5.37,0.51 5.26,0.52 5.16,0.52 5.06,0.49 4.95,0.46 4.95,0.46 4.95,0.46 3.45,0.37 1.94,0.28 1.09,0.44 0.24,0.60 0.16,0.63 0.09,0.65 0.01,0.65 -0.06,0.65 -0.14,0.63 -0.22,0.61 -0.29,0.58 -0.36,0.54 -0.42,0.49 -0.48,0.44 -0.52,0.37 -0.57,0.31 -0.60,0.24 -0.63,0.16 -0.64,0.09 -0.65,0.01 -0.64,-0.06 -0.64,-0.14 -0.61,-0.22 -0.58,-0.29 -0.54,-0.36 -0.49,-0.42 -0.44,-0.48 -0.38,-0.53 -0.31,-0.57 -0.24,-0.60 -0.24,-0.60 L -0.24,-0.60 Z"/></g><g transform="translate(10 156.36051321400168) rotate(0 0.5505393010620026 6.331301349497892)" stroke="none"><path fill="#1e1e1e" d="M 0.65,-0.09 Q 0.65,-0.09 1.11,0.97 1.58,2.03 1.65,3.02 1.73,4.01 1.77,5.07 1.80,6.14 1.82,7.22 1.83,8.30 1.72,10.50 1.62,12.70 1.63,12.81 1.65,12.91 1.64,13.02 1.62,13.12 1.57,13.22 1.52,13.31 1.45,13.39 1.37,13.46 1.27,13.50 1.18,13.55 1.07,13.56 0.97,13.57 0.86,13.55 0.76,13.53 0.67,13.48 0.57,13.42 0.51,13.34 0.44,13.26 0.40,13.16 0.36,13.06 0.35,12.96 0.34,12.85 0.37,12.75 0.40,12.65 0.46,12.56 0.52,12.47 0.60,12.41 0.68,12.34 0.78,12.31 0.88,12.27 0.99,12.27 1.10,12.27 1.20,12.30 1.30,12.34 1.38,12.40 1.47,12.46 1.53,12.55 1.59,12.64 1.62,12.74 1.65,12.84 1.64,12.95 1.64,13.05 1.60,13.15 1.56,13.25 1.49,13.33 1.42,13.42 1.33,13.47 1.24,13.53 1.14,13.55 1.04,13.57 0.93,13.56 0.83,13.55 0.73,13.51 0.63,13.46 0.55,13.39 0.48,13.32 0.43,13.23 0.38,13.13 0.38,13.13 0.38,13.13 -0.19,10.73 -0.77,8.33 -0.78,7.27 -0.79,6.21 -0.81,5.20 -0.83,4.19 -0.89,3.29 -0.94,2.39 -0.79,1.24 -0.65,0.09 -0.65,0.01 -0.65,-0.06 -0.63,-0.14 -0.61,-0.21 -0.58,-0.29 -0.54,-0.36 -0.49,-0.42 -0.44,-0.48 -0.38,-0.52 -0.31,-0.57 -0.24,-0.60 -0.17,-0.63 -0.09,-0.64 -0.01,-0.65 0.06,-0.64 0.14,-0.64 0.21,-0.61 0.29,-0.58 0.35,-0.54 0.42,-0.50 0.47,-0.44 0.53,-0.38 0.57,-0.31 0.60,-0.24 0.62,-0.16 0.65,-0.09 0.65,-0.09 L 0.65,-0.09 Z"/></g><g transform="translate(17.157121344122515 159.6637931925003) rotate(0 3.028043457062637 4.404402752749235)" stroke="none"><path d="M0 0 C0.09 -0.09, 0.73 -0.73, 0.55 -0.55 C0.37 -0.37, -0.83 0.09, -1.1 1.1 C-1.38 2.11, -1.38 4.22, -1.1 5.51 C-0.83 6.79, 0 8.17, 0.55 8.81 C1.1 9.45, 1.38 9.54, 2.2 9.36 C3.03 9.18, 4.68 8.53, 5.51 7.71 C6.33 6.88, 7.34 5.69, 7.16 4.4 C6.97 3.12, 5.23 0.73, 4.4 0 C3.58 -0.73, 2.75 -0.46, 2.2 0 C1.65 0.46, 1.28 2.29, 1.1 2.75" stroke="none" stroke-width="0" fill="#ffffff" fill-rule="evenodd"/><path fill="#1e1e1e" d="M 0.60,0.24 Q 0.60,0.24 0.50,1.12 0.40,1.99 0.26,3.16 0.12,4.32 0.26,5.03 0.39,5.73 0.70,6.39 1.02,7.05 1.81,7.15 2.59,7.24 3.27,7.08 3.95,6.92 4.35,6.34 4.75,5.76 5.12,5.25 5.49,4.74 5.41,4.13 5.34,3.52 5.07,2.89 4.79,2.26 4.17,1.87 3.55,1.48 2.28,2.31 1.02,3.13 0.94,3.11 0.87,3.08 0.80,3.04 0.73,3.00 0.67,2.95 0.62,2.89 0.58,2.82 0.54,2.76 0.51,2.68 0.49,2.60 0.48,2.53 0.48,2.45 0.49,2.37 0.50,2.29 0.54,2.22 0.57,2.15 0.62,2.08 0.67,2.02 0.73,1.97 0.79,1.92 0.86,1.89 0.93,1.86 1.01,1.84 1.09,1.83 1.17,1.83 1.25,1.84 1.48,2.31 1.72,2.78 1.66,2.86 1.60,2.95 1.51,3.01 1.42,3.07 1.32,3.10 1.22,3.13 1.11,3.13 1.01,3.13 0.91,3.09 0.81,3.05 0.73,2.99 0.64,2.92 0.59,2.83 0.53,2.74 0.50,2.64 0.48,2.54 0.49,2.43 0.50,2.32 0.54,2.23 0.58,2.13 0.65,2.05 0.72,1.97 0.81,1.92 0.91,1.87 1.01,1.85 1.12,1.83 1.22,1.84 1.33,1.86 1.42,1.90 1.52,1.95 1.59,2.03 1.67,2.10 1.71,2.20 1.76,2.29 1.77,2.40 1.79,2.50 1.77,2.61 1.75,2.71 1.70,2.80 1.64,2.90 1.56,2.97 1.49,3.04 1.39,3.08 1.29,3.12 1.18,3.13 1.08,3.14 0.98,3.11 0.87,3.09 0.78,3.03 0.69,2.97 0.63,2.89 0.56,2.81 0.52,2.71 0.49,2.61 0.48,2.50 0.48,2.39 0.75,2.76 1.02,3.13 0.94,3.11 0.87,3.08 0.80,3.04 0.73,3.00 0.67,2.95 0.62,2.89 0.58,2.82 0.54,2.76 0.51,2.68 0.49,2.61 0.48,2.53 0.48,2.45 0.49,2.37 0.50,2.29 0.54,2.22 0.57,2.15 0.62,2.08 0.67,2.02 0.73,1.97 0.79,1.92 0.86,1.89 0.93,1.86 1.01,1.84 1.09,1.83 1.17,1.83 1.25,1.84 2.19,0.37 3.14,-1.08 3.84,-0.95 4.55,-0.82 5.26,-0.45 5.97,-0.07 6.54,0.64 7.11,1.37 7.45,2.45 7.79,3.53 7.66,4.72 7.53,5.90 7.02,6.63 6.52,7.36 5.62,8.22 4.72,9.08 3.81,9.32 2.91,9.56 1.85,9.57 0.80,9.59 -0.10,8.85 -1.02,8.10 -1.45,7.11 -1.89,6.11 -2.02,5.15 -2.16,4.18 -2.07,3.23 -1.99,2.27 -1.83,1.72 -1.67,1.16 -1.14,0.46 -0.60,-0.24 -0.57,-0.31 -0.53,-0.38 -0.48,-0.44 -0.42,-0.49 -0.36,-0.54 -0.29,-0.58 -0.22,-0.61 -0.14,-0.64 -0.06,-0.64 0.01,-0.65 0.09,-0.64 0.16,-0.63 0.24,-0.60 0.31,-0.57 0.37,-0.52 0.44,-0.48 0.49,-0.42 0.54,-0.36 0.58,-0.29 0.61,-0.22 0.63,-0.14 0.65,-0.06 0.65,0.01 0.65,0.09 0.63,0.16 0.60,0.24 0.60,0.24 L 0.60,0.24 Z"/></g><g transform="translate(26.516488236746397 158.56271459037634) rotate(0 3.30327997849858 6.056042741998539)" stroke="none"><path fill="#1e1e1e" d="M 0.52,-0.39 Q 0.52,-0.39 1.22,0.06 1.91,0.52 2.34,0.84 2.77,1.15 3.56,1.58 4.34,2.02 4.84,2.48 5.34,2.94 6.28,3.74 7.22,4.55 7.53,5.52 7.84,6.50 7.59,7.61 7.34,8.72 5.67,10.51 4.00,12.29 3.92,12.36 3.84,12.43 3.74,12.47 3.64,12.51 3.54,12.52 3.43,12.53 3.33,12.50 3.22,12.48 3.13,12.42 3.05,12.36 2.98,12.28 2.91,12.19 2.88,12.09 2.84,11.99 2.84,11.89 2.84,11.78 2.87,11.68 2.90,11.58 2.96,11.49 3.03,11.41 3.11,11.35 3.20,11.28 3.30,11.25 3.40,11.22 3.51,11.23 3.62,11.23 3.72,11.27 3.82,11.31 3.90,11.37 3.98,11.44 4.04,11.53 4.09,11.62 4.12,11.72 4.14,11.83 4.13,11.93 4.12,12.04 4.08,12.14 4.04,12.23 3.97,12.31 3.90,12.39 3.80,12.44 3.71,12.49 3.60,12.51 3.50,12.53 3.40,12.52 3.29,12.50 3.20,12.45 3.10,12.40 3.03,12.33 2.95,12.25 2.91,12.16 2.86,12.06 2.85,11.96 2.83,11.85 2.85,11.75 2.87,11.64 2.93,11.55 2.98,11.46 2.98,11.46 2.98,11.46 3.94,9.20 4.91,6.94 4.75,6.26 4.59,5.59 3.81,4.90 3.03,4.21 2.11,3.64 1.19,3.08 0.58,2.54 -0.01,2.00 -0.27,1.19 -0.52,0.39 -0.56,0.32 -0.60,0.25 -0.62,0.18 -0.64,0.10 -0.65,0.02 -0.65,-0.05 -0.63,-0.13 -0.62,-0.20 -0.58,-0.28 -0.55,-0.35 -0.50,-0.41 -0.45,-0.47 -0.39,-0.52 -0.32,-0.56 -0.25,-0.59 -0.18,-0.63 -0.10,-0.64 -0.02,-0.65 0.05,-0.64 0.13,-0.64 0.20,-0.61 0.28,-0.59 0.34,-0.55 0.41,-0.50 0.47,-0.45 0.52,-0.39 0.52,-0.39 L 0.52,-0.39 Z"/></g><g transform="translate(33.12304819374356 147.55170770850322) rotate(0 2.4774820699373095 1.9269427688752785)" stroke="none"><path d="M0 0 C-0.37 0.28, -1.84 1.01, -2.2 1.65 C-2.57 2.29, -2.57 3.03, -2.2 3.85 C-1.84 4.68, -0.83 6.06, 0 6.61 C0.83 7.16, 1.65 7.43, 2.75 7.16 C3.85 6.88, 5.87 6.15, 6.61 4.95 C7.34 3.76, 7.34 1.28, 7.16 0 C6.97 -1.28, 6.33 -2.29, 5.51 -2.75 C4.68 -3.21, 3.03 -3.03, 2.2 -2.75 C1.38 -2.48, 0.83 -1.38, 0.55 -1.1" stroke="none" stroke-width="0" fill="#ffffff" fill-rule="evenodd"/><path fill="#1e1e1e" d="M 0.39,0.52 Q 0.39,0.52 -0.10,1.11 -0.59,1.70 -0.78,2.52 -0.98,3.33 -0.37,4.16 0.22,4.99 0.97,5.23 1.73,5.46 2.39,5.44 3.06,5.41 3.81,5.00 4.57,4.58 4.95,4.08 5.33,3.57 5.45,2.58 5.57,1.59 5.50,0.91 5.44,0.24 5.16,-0.37 4.88,-0.98 3.03,-0.86 1.18,-0.73 1.08,-0.68 0.98,-0.64 0.88,-0.63 0.77,-0.62 0.67,-0.64 0.56,-0.67 0.47,-0.72 0.38,-0.78 0.31,-0.86 0.25,-0.94 0.21,-1.04 0.17,-1.14 0.17,-1.25 0.16,-1.35 0.19,-1.45 0.22,-1.56 0.28,-1.64 0.34,-1.73 0.43,-1.79 0.51,-1.86 0.61,-1.89 0.71,-1.92 0.82,-1.92 0.93,-1.92 1.03,-1.89 1.13,-1.85 1.21,-1.78 1.30,-1.72 1.35,-1.63 1.41,-1.54 1.44,-1.44 1.47,-1.34 1.46,-1.23 1.45,-1.12 1.41,-1.03 1.37,-0.93 1.30,-0.85 1.23,-0.77 1.14,-0.71 1.05,-0.66 0.95,-0.64 0.84,-0.62 0.74,-0.63 0.63,-0.64 0.53,-0.69 0.44,-0.73 0.36,-0.81 0.29,-0.88 0.24,-0.98 0.19,-1.07 0.17,-1.18 0.16,-1.28 0.18,-1.39 0.19,-1.49 0.24,-1.58 0.30,-1.68 0.37,-1.75 0.45,-1.82 0.45,-1.82 0.45,-1.82 2.94,-2.69 5.43,-3.55 6.28,-2.80 7.12,-2.05 7.52,-1.00 7.92,0.04 7.96,1.05 8.00,2.06 7.62,3.54 7.23,5.02 6.44,5.86 5.64,6.70 4.38,7.22 3.11,7.74 2.00,7.68 0.88,7.62 -0.30,7.03 -1.49,6.44 -2.01,5.69 -2.53,4.95 -2.81,4.00 -3.08,3.05 -2.94,2.48 -2.80,1.90 -2.37,1.04 -1.93,0.18 -1.16,-0.16 -0.39,-0.52 -0.32,-0.56 -0.25,-0.60 -0.18,-0.62 -0.10,-0.64 -0.02,-0.65 0.05,-0.65 0.13,-0.63 0.20,-0.62 0.28,-0.58 0.35,-0.55 0.41,-0.50 0.47,-0.45 0.52,-0.39 0.56,-0.32 0.59,-0.25 0.63,-0.18 0.64,-0.10 0.65,-0.02 0.64,0.05 0.64,0.13 0.61,0.20 0.59,0.28 0.55,0.34 0.50,0.41 0.45,0.47 0.39,0.52 0.39,0.52 L 0.39,0.52 Z"/></g><g transform="translate(33.67360958086891 147.00114632137786) rotate(0 1.651639989249304 3.0280213709992836)" stroke="none"><path fill="#1e1e1e" d="M 0.60,-0.25 Q 0.60,-0.25 1.28,0.76 1.95,1.78 2.85,3.64 3.75,5.51 3.78,5.61 3.82,5.71 3.82,5.81 3.82,5.92 3.79,6.02 3.76,6.12 3.69,6.21 3.63,6.29 3.54,6.35 3.45,6.41 3.35,6.44 3.25,6.47 3.14,6.47 3.04,6.46 2.94,6.42 2.84,6.39 2.76,6.32 2.68,6.25 2.62,6.16 2.57,6.07 2.54,5.97 2.52,5.86 2.53,5.76 2.54,5.65 2.58,5.55 2.63,5.46 2.70,5.38 2.77,5.30 2.86,5.25 2.96,5.20 3.06,5.18 3.17,5.16 3.27,5.18 3.38,5.20 3.47,5.24 3.57,5.29 3.64,5.37 3.71,5.45 3.76,5.54 3.80,5.64 3.82,5.74 3.83,5.85 3.81,5.95 3.79,6.06 3.73,6.15 3.68,6.24 3.60,6.31 3.52,6.38 3.42,6.42 3.32,6.46 3.21,6.47 3.11,6.47 3.01,6.45 2.90,6.42 2.81,6.36 2.73,6.30 2.66,6.22 2.60,6.13 2.60,6.13 2.60,6.13 1.27,4.39 -0.06,2.64 -0.33,1.45 -0.60,0.25 -0.62,0.18 -0.64,0.10 -0.65,0.02 -0.65,-0.05 -0.63,-0.12 -0.62,-0.20 -0.58,-0.27 -0.55,-0.34 -0.50,-0.41 -0.45,-0.47 -0.39,-0.52 -0.32,-0.56 -0.25,-0.59 -0.18,-0.63 -0.10,-0.64 -0.02,-0.65 0.05,-0.64 0.13,-0.64 0.20,-0.61 0.28,-0.59 0.34,-0.55 0.41,-0.50 0.46,-0.45 0.52,-0.39 0.56,-0.32 0.60,-0.25 0.60,-0.25 L 0.60,-0.25 Z"/></g><g transform="translate(31.471408204494253 151.40554907412712) rotate(0 2.752740677436634 -2.2022013763746315)" stroke="none"><path fill="#1e1e1e" d="M -0.39,-0.52 Q -0.39,-0.52 0.12,-1.14 0.64,-1.77 1.13,-2.39 1.61,-3.01 3.21,-3.87 4.80,-4.74 4.90,-4.78 5.00,-4.82 5.10,-4.83 5.21,-4.83 5.31,-4.81 5.42,-4.78 5.51,-4.72 5.59,-4.67 5.66,-4.58 5.73,-4.50 5.76,-4.40 5.80,-4.30 5.80,-4.19 5.80,-4.09 5.77,-3.98 5.74,-3.88 5.67,-3.80 5.61,-3.71 5.52,-3.65 5.44,-3.59 5.33,-3.56 5.23,-3.53 5.13,-3.53 5.02,-3.54 4.92,-3.58 4.82,-3.61 4.74,-3.68 4.66,-3.75 4.60,-3.84 4.54,-3.93 4.52,-4.03 4.50,-4.13 4.51,-4.24 4.52,-4.35 4.56,-4.44 4.60,-4.54 4.67,-4.62 4.74,-4.70 4.84,-4.75 4.93,-4.80 5.04,-4.82 5.14,-4.84 5.24,-4.82 5.35,-4.81 5.44,-4.76 5.54,-4.71 5.61,-4.63 5.69,-4.56 5.73,-4.46 5.78,-4.37 5.79,-4.26 5.81,-4.16 5.79,-4.05 5.76,-3.95 5.71,-3.86 5.66,-3.76 5.58,-3.69 5.50,-3.62 5.50,-3.62 5.50,-3.62 4.37,-2.60 3.25,-1.58 2.57,-0.85 1.89,-0.12 1.14,0.19 0.39,0.52 0.32,0.56 0.25,0.60 0.18,0.62 0.10,0.64 0.02,0.65 -0.05,0.65 -0.13,0.63 -0.20,0.62 -0.28,0.58 -0.35,0.55 -0.41,0.50 -0.47,0.45 -0.52,0.39 -0.56,0.32 -0.59,0.25 -0.63,0.18 -0.64,0.10 -0.65,0.02 -0.64,-0.05 -0.64,-0.13 -0.61,-0.20 -0.59,-0.28 -0.55,-0.34 -0.50,-0.41 -0.45,-0.47 -0.39,-0.52 -0.39,-0.52 L -0.39,-0.52 Z"/></g><g transform="translate(39.72965232286748 149.75390908487782) rotate(0 6.881862736623191 -0.825819994624652)" stroke="none"><path fill="#1e1e1e" d="M -0.46,-0.46 Q -0.46,-0.46 -0.11,-1.05 0.24,-1.65 0.53,-2.11 0.83,-2.58 1.46,-3.09 2.09,-3.61 2.88,-3.72 3.66,-3.83 4.33,-3.56 5.00,-3.29 5.38,-2.70 5.77,-2.10 6.07,-1.39 6.38,-0.68 6.39,-0.53 6.40,-0.39 6.38,-0.25 6.36,-0.11 6.30,0.01 6.25,0.14 6.16,0.26 6.08,0.37 5.97,0.46 5.86,0.55 5.73,0.61 5.61,0.67 5.47,0.70 5.33,0.73 5.19,0.73 5.04,0.72 4.91,0.69 4.77,0.65 4.65,0.58 4.52,0.51 4.42,0.41 4.32,0.31 4.24,0.19 4.16,0.07 4.12,-0.05 4.07,-0.19 4.48,-0.89 4.89,-1.59 5.12,-2.22 5.35,-2.85 6.01,-3.31 6.67,-3.78 7.42,-3.51 8.17,-3.24 8.52,-2.70 8.87,-2.16 9.16,-1.68 9.45,-1.19 9.72,-0.69 9.98,-0.19 11.57,-0.09 13.15,0.00 13.26,0.00 13.36,-0.00 13.46,0.02 13.57,0.05 13.65,0.11 13.74,0.17 13.80,0.26 13.87,0.34 13.90,0.44 13.93,0.54 13.93,0.65 13.93,0.76 13.90,0.86 13.86,0.96 13.80,1.04 13.73,1.13 13.64,1.18 13.56,1.24 13.45,1.27 13.35,1.30 13.24,1.29 13.14,1.29 13.04,1.25 12.94,1.20 12.86,1.14 12.78,1.07 12.73,0.97 12.67,0.88 12.65,0.78 12.63,0.67 12.64,0.57 12.65,0.46 12.70,0.37 12.75,0.27 12.82,0.20 12.89,0.12 12.99,0.07 13.08,0.02 13.19,0.00 13.29,-0.00 13.40,0.01 13.50,0.02 13.59,0.08 13.69,0.13 13.76,0.20 13.83,0.28 13.88,0.38 13.92,0.48 13.93,0.58 13.94,0.69 13.92,0.79 13.89,0.89 13.84,0.98 13.78,1.08 13.70,1.14 13.62,1.21 13.52,1.25 13.42,1.29 13.42,1.29 13.42,1.29 11.34,1.67 9.25,2.04 8.60,1.48 7.95,0.93 7.70,0.43 7.44,-0.06 7.35,-0.86 7.26,-1.67 6.82,-1.17 6.38,-0.68 6.39,-0.53 6.40,-0.39 6.38,-0.25 6.36,-0.11 6.30,0.01 6.25,0.14 6.17,0.25 6.08,0.37 5.97,0.46 5.86,0.55 5.73,0.61 5.61,0.67 5.47,0.70 5.33,0.73 5.19,0.73 5.04,0.72 4.91,0.69 4.77,0.65 4.65,0.58 4.52,0.51 4.42,0.41 4.32,0.31 4.24,0.19 4.16,0.07 4.12,-0.05 4.07,-0.19 3.84,-0.92 3.61,-1.66 3.06,-1.52 2.50,-1.38 2.08,-0.81 1.65,-0.24 1.06,0.10 0.46,0.46 0.40,0.51 0.33,0.56 0.26,0.59 0.19,0.62 0.11,0.64 0.03,0.65 -0.03,0.65 -0.11,0.64 -0.19,0.62 -0.26,0.59 -0.33,0.55 -0.40,0.51 -0.46,0.46 -0.51,0.40 -0.55,0.33 -0.59,0.26 -0.62,0.19 -0.64,0.11 -0.65,0.03 -0.65,-0.03 -0.64,-0.11 -0.62,-0.19 -0.59,-0.26 -0.56,-0.33 -0.51,-0.40 -0.46,-0.46 -0.46,-0.46 L -0.46,-0.46 Z"/></g><g transform="translate(36.97688955936752 172.32644006362273) rotate(0 -0.2752586074993246 3.5785606720612577)" stroke="none"><path fill="#1e1e1e" d="M 0.64,0.12 Q 0.64,0.12 0.70,0.96 0.75,1.79 0.71,2.54 0.67,3.29 0.38,5.13 0.10,6.97 0.08,7.07 0.07,7.17 0.02,7.27 -0.02,7.36 -0.10,7.43 -0.18,7.51 -0.28,7.55 -0.37,7.59 -0.48,7.61 -0.58,7.62 -0.69,7.59 -0.79,7.57 -0.88,7.51 -0.97,7.46 -1.04,7.38 -1.11,7.30 -1.15,7.20 -1.19,7.10 -1.19,6.99 -1.20,6.88 -1.17,6.78 -1.14,6.68 -1.08,6.59 -1.02,6.51 -0.93,6.44 -0.85,6.38 -0.75,6.34 -0.65,6.31 -0.54,6.31 -0.43,6.31 -0.33,6.35 -0.23,6.38 -0.15,6.45 -0.06,6.51 -0.01,6.60 0.04,6.69 0.07,6.79 0.10,6.89 0.09,7.00 0.09,7.11 0.05,7.20 0.01,7.30 -0.05,7.38 -0.12,7.46 -0.21,7.52 -0.31,7.57 -0.41,7.59 -0.51,7.62 -0.62,7.60 -0.72,7.59 -0.82,7.55 -0.92,7.50 -0.99,7.43 -1.07,7.35 -1.12,7.26 -1.17,7.17 -1.18,7.06 -1.20,6.96 -1.20,6.96 -1.20,6.96 -1.38,5.03 -1.57,3.11 -1.48,2.24 -1.39,1.36 -1.01,0.61 -0.64,-0.12 -0.61,-0.20 -0.59,-0.27 -0.55,-0.34 -0.51,-0.41 -0.45,-0.46 -0.39,-0.52 -0.32,-0.56 -0.25,-0.60 -0.18,-0.62 -0.10,-0.64 -0.02,-0.65 0.05,-0.65 0.12,-0.63 0.20,-0.62 0.27,-0.59 0.34,-0.55 0.41,-0.50 0.47,-0.45 0.51,-0.39 0.56,-0.33 0.59,-0.25 0.63,-0.18 0.64,-0.10 0.65,-0.02 0.64,0.04 0.64,0.12 0.64,0.12 L 0.64,0.12 Z"/></g><g transform="translate(34.22417096799421 172.32644006362273) rotate(0 4.679661360248588 3.303302064561933)" stroke="none"><path fill="#1e1e1e" d="M -0.39,-0.52 Q -0.39,-0.52 0.18,-1.15 0.75,-1.78 1.89,-1.93 3.02,-2.07 3.99,-1.94 4.96,-1.81 5.73,-1.60 6.49,-1.39 7.19,-0.89 7.89,-0.39 8.11,0.43 8.33,1.27 8.30,1.82 8.27,2.37 7.84,3.03 7.40,3.69 6.94,3.96 6.47,4.23 6.19,4.29 5.91,4.34 5.77,4.39 5.63,4.44 5.48,4.45 5.33,4.46 5.18,4.44 5.03,4.42 4.89,4.36 4.75,4.30 4.63,4.21 4.50,4.12 4.41,4.01 4.31,3.89 4.24,3.75 4.18,3.62 4.15,3.47 4.12,3.32 4.12,3.17 4.13,3.02 4.17,2.87 4.21,2.73 4.28,2.60 4.36,2.46 4.46,2.35 4.57,2.24 4.69,2.16 4.82,2.08 5.65,2.05 6.49,2.02 7.07,2.24 7.65,2.46 8.36,2.77 9.08,3.09 9.56,3.72 10.04,4.35 10.12,5.32 10.20,6.30 9.90,7.03 9.60,7.76 7.07,8.28 4.54,8.81 4.43,8.81 4.32,8.81 4.22,8.77 4.12,8.74 4.04,8.67 3.96,8.61 3.90,8.52 3.84,8.43 3.81,8.33 3.78,8.23 3.79,8.12 3.80,8.02 3.84,7.92 3.88,7.82 3.95,7.74 4.01,7.66 4.11,7.60 4.20,7.55 4.30,7.53 4.41,7.51 4.51,7.52 4.62,7.53 4.71,7.58 4.81,7.62 4.88,7.70 4.96,7.77 5.01,7.86 5.06,7.96 5.08,8.06 5.09,8.17 5.07,8.27 5.06,8.38 5.01,8.47 4.95,8.56 4.88,8.64 4.80,8.71 4.70,8.75 4.61,8.80 4.50,8.81 4.39,8.82 4.29,8.79 4.19,8.77 4.10,8.71 4.01,8.66 3.94,8.58 3.87,8.50 3.83,8.40 3.79,8.30 3.79,8.19 3.78,8.09 3.81,7.98 3.84,7.88 3.90,7.79 3.96,7.71 4.05,7.64 4.13,7.58 4.23,7.55 4.33,7.51 4.33,7.51 4.33,7.51 5.92,6.81 7.51,6.10 7.50,5.52 7.48,4.95 6.70,4.64 5.91,4.34 5.77,4.39 5.63,4.44 5.48,4.45 5.33,4.46 5.18,4.44 5.03,4.42 4.89,4.36 4.75,4.30 4.63,4.21 4.50,4.12 4.41,4.01 4.31,3.89 4.24,3.75 4.18,3.62 4.15,3.47 4.12,3.32 4.12,3.17 4.13,3.02 4.17,2.87 4.21,2.73 4.28,2.60 4.36,2.46 4.46,2.35 4.57,2.24 4.69,2.16 4.82,2.08 5.41,2.00 5.99,1.93 5.89,1.34 5.80,0.75 5.20,0.52 4.61,0.30 3.86,0.15 3.11,0.00 2.44,-0.05 1.77,-0.11 1.08,0.20 0.39,0.52 0.32,0.56 0.25,0.60 0.18,0.62 0.10,0.64 0.02,0.65 -0.05,0.65 -0.13,0.63 -0.20,0.62 -0.28,0.58 -0.35,0.55 -0.41,0.50 -0.47,0.45 -0.52,0.39 -0.56,0.32 -0.59,0.25 -0.63,0.18 -0.64,0.10 -0.65,0.02 -0.64,-0.05 -0.64,-0.13 -0.61,-0.20 -0.59,-0.28 -0.55,-0.34 -0.50,-0.41 -0.45,-0.47 -0.39,-0.52 -0.39,-0.52 L -0.39,-0.52 Z"/></g></svg>