<svg version="1.1" xmlns="http://www.w3.org/2000/svg" viewBox="0 0 779.5954100393361 243.35929443797545" width="779.5954100393361" height="243.35929443797545" filter="invert(93%) hue-rotate(180deg)" class="excalidraw-svg">
  <!-- svg-source:excalidraw -->
  
  <defs>
    <style class="style-fonts">
      @font-face {
        font-family: "Virgil";
        src: url("https://excalidraw.com/Virgil.woff2");
      }
      @font-face {
        font-family: "Cascadia";
        src: url("https://excalidraw.com/Cascadia.woff2");
      }
      @font-face {
        font-family: "Assistant";
        src: url("https://excalidraw.com/Assistant-Regular.woff2");
      }
    </style>
    
  </defs>
  <rect x="0" y="0" width="779.5954100393361" height="243.35929443797545" fill="#ffffff"/><g stroke-linecap="round"><g transform="translate(120.61422836698307 42.41714050731139) rotate(0 275.7630920410156 0.00000762939453125)"><path d="M0 0 C91.92 0, 459.61 0, 551.53 0 M0 0 C91.92 0, 459.61 0, 551.53 0" stroke="#1e1e1e" stroke-width="2" fill="none"/></g></g><mask/><g stroke-linecap="round"><g transform="translate(120.9423838845612 65.8809390302606) rotate(0 275.7630920410156 0.00000762939453125)"><path d="M0 0 C91.92 0, 459.61 0, 551.53 0 M0 0 C91.92 0, 459.61 0, 551.53 0" stroke="#1e1e1e" stroke-width="2" fill="none"/></g></g><mask/><g stroke-linecap="round"><g transform="translate(121.66998398221745 87.71425201854186) rotate(0 275.7630920410156 0.00000762939453125)"><path d="M0 0 C91.92 0, 459.61 0, 551.53 0 M0 0 C91.92 0, 459.61 0, 551.53 0" stroke="#1e1e1e" stroke-width="2" fill="none"/></g></g><mask/><g stroke-linecap="round"><g transform="translate(122.63704025663151 144.45181992015318) rotate(0 275.7630920410156 0.00000762939453125)"><path d="M0 0 C91.92 0, 459.61 0, 551.53 0 M0 0 C91.92 0, 459.61 0, 551.53 0" stroke="#1e1e1e" stroke-width="2" fill="none"/></g></g><mask/><g stroke-linecap="round"><g transform="translate(122.96519577420963 167.9156184431024) rotate(0 275.7630920410156 0.00000762939453125)"><path d="M0 0 C91.92 0, 459.61 0, 551.53 0 M0 0 C91.92 0, 459.61 0, 551.53 0" stroke="#1e1e1e" stroke-width="2" fill="none"/></g></g><mask/><g stroke-linecap="round"><g transform="translate(123.69279587186588 189.74893143138365) rotate(0 275.7630920410156 0.00000762939453125)"><path d="M0 0 C91.92 0, 459.61 0, 551.53 0 M0 0 C91.92 0, 459.61 0, 551.53 0" stroke="#1e1e1e" stroke-width="2" fill="none"/></g></g><mask/><g stroke-linecap="round" transform="translate(326.01022446073307 12.748836063952012) rotate(0 80.256591796875 110.30522918701172)"><path d="M32 0 C58.23 0, 84.47 0, 128.51 0 C149.85 0, 160.51 10.67, 160.51 32 C160.51 93.86, 160.51 155.71, 160.51 188.61 C160.51 209.94, 149.85 220.61, 128.51 220.61 C96.16 220.61, 63.81 220.61, 32 220.61 C10.67 220.61, 0 209.94, 0 188.61 C0 145.78, 0 102.95, 0 32 C0 10.67, 10.67 0, 32 0" stroke="none" stroke-width="0" fill="#ffffff"/><path d="M32 0 C56.56 0, 81.12 0, 128.51 0 M32 0 C54.12 0, 76.24 0, 128.51 0 M128.51 0 C149.85 0, 160.51 10.67, 160.51 32 M128.51 0 C149.85 0, 160.51 10.67, 160.51 32 M160.51 32 C160.51 91.33, 160.51 150.65, 160.51 188.61 M160.51 32 C160.51 77.64, 160.51 123.29, 160.51 188.61 M160.51 188.61 C160.51 209.94, 149.85 220.61, 128.51 220.61 M160.51 188.61 C160.51 209.94, 149.85 220.61, 128.51 220.61 M128.51 220.61 C93.2 220.61, 57.88 220.61, 32 220.61 M128.51 220.61 C90.23 220.61, 51.94 220.61, 32 220.61 M32 220.61 C10.67 220.61, 0 209.94, 0 188.61 M32 220.61 C10.67 220.61, 0 209.94, 0 188.61 M0 188.61 C0 149.17, 0 109.72, 0 32 M0 188.61 C0 143.35, 0 98.09, 0 32 M0 32 C0 10.67, 10.67 0, 32 0 M0 32 C0 10.67, 10.67 0, 32 0" stroke="#1e1e1e" stroke-width="2" fill="none"/></g><g transform="translate(375.4574290505768 107.83954956492857) rotate(0 13.312713623046875 13.69305419921875)" stroke="none"><path fill="#1e1e1e" d="M 0.60,0.24 Q 0.60,0.24 0.37,1.41 0.13,2.58 -0.21,4.70 -0.56,6.81 -0.71,9.01 -0.87,11.20 -0.71,13.61 -0.55,16.02 -0.05,18.53 0.43,21.03 1.70,23.51 2.96,25.98 4.69,27.80 6.42,29.62 8.44,30.08 10.46,30.55 12.64,29.72 14.82,28.89 17.37,26.25 19.93,23.60 21.65,20.60 23.37,17.60 24.51,12.95 25.65,8.30 25.97,4.84 26.29,1.38 25.89,-1.60 25.49,-4.58 25.46,-4.69 25.43,-4.79 25.43,-4.89 25.43,-5.00 25.47,-5.10 25.51,-5.20 25.57,-5.28 25.64,-5.36 25.73,-5.42 25.82,-5.48 25.92,-5.50 26.03,-5.53 26.13,-5.52 26.24,-5.51 26.34,-5.47 26.43,-5.43 26.51,-5.36 26.59,-5.29 26.64,-5.19 26.70,-5.10 26.72,-5.00 26.74,-4.89 26.72,-4.79 26.71,-4.68 26.66,-4.59 26.61,-4.49 26.54,-4.42 26.46,-4.34 26.37,-4.29 26.27,-4.25 26.17,-4.23 26.06,-4.22 25.96,-4.24 25.85,-4.26 25.76,-4.31 25.67,-4.36 25.60,-4.44 25.53,-4.52 25.48,-4.62 25.44,-4.72 25.43,-4.82 25.43,-4.93 25.45,-5.03 25.48,-5.14 25.53,-5.23 25.59,-5.31 25.67,-5.38 25.76,-5.45 25.86,-5.48 25.96,-5.52 26.06,-5.52 26.17,-5.53 26.27,-5.49 26.37,-5.46 26.46,-5.40 26.54,-5.34 26.61,-5.25 26.67,-5.17 26.67,-5.17 26.67,-5.17 27.88,-1.78 29.10,1.60 28.81,5.31 28.53,9.02 27.22,14.04 25.91,19.06 23.92,22.34 21.93,25.62 18.85,28.49 15.76,31.36 12.90,32.18 10.04,33.01 7.41,32.22 4.78,31.43 2.78,29.26 0.78,27.09 -0.56,24.30 -1.91,21.51 -2.41,18.84 -2.91,16.17 -3.04,13.60 -3.18,11.03 -2.99,8.72 -2.80,6.41 -2.34,4.10 -1.88,1.78 -1.24,0.77 -0.60,-0.24 -0.57,-0.31 -0.53,-0.38 -0.48,-0.44 -0.42,-0.49 -0.36,-0.54 -0.29,-0.58 -0.22,-0.61 -0.14,-0.64 -0.06,-0.64 0.01,-0.65 0.09,-0.64 0.16,-0.63 0.24,-0.60 0.31,-0.57 0.37,-0.52 0.44,-0.48 0.49,-0.42 0.54,-0.36 0.58,-0.29 0.61,-0.22 0.63,-0.14 0.65,-0.06 0.65,0.01 0.65,0.09 0.63,0.16 0.60,0.24 0.60,0.24 L 0.60,0.24 Z"/></g><g transform="translate(406.64718735135807 147.39728882274107) rotate(0 8.36798095703125 -3.4232635498046875)" stroke="none"><path fill="#1e1e1e" d="M 0,-0.65 Q 0,-0.65 0.80,-0.84 1.60,-1.02 2.99,-2.29 4.38,-3.55 5.86,-5.35 7.34,-7.15 8.35,-9.36 9.36,-11.56 9.79,-13.02 10.22,-14.48 9.88,-15.17 9.54,-15.86 8.99,-15.07 8.44,-14.27 7.96,-12.76 7.48,-11.25 7.25,-8.27 7.03,-5.29 7.14,-2.72 7.25,-0.16 7.30,2.06 7.35,4.30 7.37,5.90 7.39,7.50 7.60,8.27 7.81,9.05 7.25,10.31 6.69,11.56 5.86,11.68 5.02,11.79 4.04,11.03 3.05,10.26 1.72,9.15 0.40,8.05 -1.18,7.23 -2.76,6.40 -3.81,6.09 -4.86,5.78 -5.57,5.63 -6.28,5.47 -6.45,5.39 -6.61,5.31 -6.75,5.20 -6.89,5.08 -7.00,4.93 -7.11,4.79 -7.17,4.62 -7.24,4.45 -7.27,4.27 -7.30,4.10 -7.28,3.91 -7.27,3.73 -7.21,3.56 -7.15,3.39 -7.05,3.24 -6.95,3.09 -6.82,2.96 -6.69,2.84 -6.53,2.75 -6.38,2.66 -6.20,2.61 -6.03,2.56 -5.85,2.55 -5.66,2.55 -5.49,2.58 -5.31,2.62 -3.92,2.50 -2.53,2.37 -0.11,2.13 2.29,1.88 6.59,1.30 10.89,0.72 14.53,0.43 18.18,0.15 19.70,-0.07 21.23,-0.30 21.33,-0.30 21.44,-0.30 21.54,-0.27 21.64,-0.23 21.72,-0.17 21.81,-0.10 21.86,-0.01 21.92,0.07 21.95,0.17 21.98,0.27 21.97,0.38 21.96,0.49 21.92,0.58 21.88,0.68 21.81,0.76 21.74,0.84 21.65,0.90 21.56,0.95 21.45,0.97 21.35,0.99 21.25,0.98 21.14,0.97 21.04,0.92 20.95,0.87 20.87,0.80 20.80,0.73 20.75,0.63 20.70,0.54 20.68,0.43 20.67,0.33 20.69,0.22 20.70,0.12 20.75,0.03 20.81,-0.06 20.88,-0.13 20.96,-0.20 21.06,-0.25 21.16,-0.29 21.26,-0.30 21.37,-0.31 21.47,-0.29 21.57,-0.26 21.66,-0.21 21.75,-0.15 21.82,-0.07 21.89,0.00 21.93,0.10 21.97,0.20 21.97,0.31 21.98,0.42 21.95,0.52 21.92,0.62 21.86,0.71 21.79,0.79 21.71,0.86 21.62,0.92 21.52,0.95 21.42,0.99 21.42,0.99 21.42,0.99 19.90,1.22 18.37,1.45 14.84,2.25 11.30,3.05 6.95,3.99 2.60,4.93 0.10,5.18 -2.40,5.44 -4.34,5.45 -6.28,5.47 -6.45,5.39 -6.61,5.31 -6.75,5.20 -6.89,5.08 -7.00,4.93 -7.11,4.79 -7.17,4.62 -7.24,4.45 -7.27,4.27 -7.30,4.10 -7.28,3.91 -7.27,3.73 -7.21,3.56 -7.15,3.39 -7.05,3.24 -6.95,3.09 -6.82,2.96 -6.69,2.84 -6.53,2.75 -6.38,2.66 -6.20,2.61 -6.03,2.56 -5.85,2.55 -5.66,2.55 -5.49,2.58 -5.31,2.62 -4.61,2.80 -3.90,2.98 -2.65,3.45 -1.40,3.93 0.35,4.96 2.12,5.98 3.53,7.17 4.93,8.36 5.07,8.97 5.21,9.59 4.96,8.57 4.72,7.55 4.70,5.95 4.68,4.35 4.64,2.15 4.59,-0.05 4.48,-2.78 4.38,-5.51 4.67,-8.81 4.97,-12.11 5.71,-14.06 6.46,-16.01 7.65,-17.07 8.85,-18.12 10.21,-17.70 11.57,-17.28 12.14,-15.70 12.71,-14.12 12.20,-12.29 11.68,-10.46 10.46,-8.01 9.24,-5.56 7.55,-3.63 5.85,-1.69 3.86,-0.33 1.88,1.02 0.94,0.84 0,0.65 -0.07,0.64 -0.15,0.63 -0.23,0.60 -0.30,0.58 -0.37,0.53 -0.43,0.49 -0.48,0.43 -0.54,0.37 -0.57,0.30 -0.61,0.23 -0.63,0.15 -0.65,0.07 -0.65,-0.00 -0.65,-0.07 -0.63,-0.15 -0.61,-0.23 -0.57,-0.30 -0.54,-0.37 -0.48,-0.43 -0.43,-0.49 -0.37,-0.53 -0.30,-0.58 -0.23,-0.60 -0.15,-0.63 -0.07,-0.64 0.00,-0.65 0.00,-0.65 L 0,-0.65 Z"/></g><g transform="translate(204.98276098906643 28.541299163149915) rotate(0 5.382956273567032 -8.672541995962717)" stroke="none"><path fill="#1e1e1e" d="M -0.62,-0.18 Q -0.62,-0.18 -0.36,-1.98 -0.09,-3.77 0.82,-5.95 1.74,-8.12 2.63,-10.22 3.52,-12.33 4.25,-13.92 4.98,-15.52 5.46,-16.55 5.94,-17.58 6.81,-18.26 7.67,-18.94 8.54,-18.76 9.42,-18.59 10.07,-17.60 10.72,-16.62 11.11,-14.59 11.51,-12.55 11.82,-10.90 12.14,-9.25 12.27,-7.45 12.40,-5.65 12.42,-4.37 12.45,-3.10 11.97,-1.10 11.50,0.89 11.46,0.98 11.42,1.08 11.35,1.16 11.28,1.24 11.19,1.30 11.10,1.35 11.00,1.37 10.89,1.40 10.79,1.38 10.68,1.37 10.59,1.33 10.49,1.28 10.41,1.21 10.34,1.14 10.29,1.04 10.24,0.95 10.22,0.84 10.21,0.74 10.22,0.63 10.24,0.53 10.29,0.43 10.34,0.34 10.42,0.27 10.50,0.20 10.59,0.15 10.69,0.11 10.80,0.10 10.90,0.09 11.01,0.11 11.11,0.13 11.20,0.19 11.29,0.24 11.36,0.32 11.43,0.41 11.47,0.50 11.50,0.60 11.51,0.71 11.51,0.82 11.49,0.92 11.46,1.02 11.40,1.11 11.34,1.20 11.25,1.26 11.17,1.32 11.07,1.36 10.97,1.39 10.86,1.39 10.75,1.39 10.65,1.35 10.55,1.32 10.47,1.25 10.38,1.19 10.32,1.10 10.26,1.01 10.24,0.91 10.21,0.81 10.22,0.70 10.22,0.60 10.22,0.60 10.22,0.60 10.16,-1.19 10.10,-2.99 10.01,-4.22 9.93,-5.45 9.79,-7.12 9.65,-8.78 9.34,-10.44 9.02,-12.10 8.60,-14.30 8.17,-16.49 7.70,-15.49 7.22,-14.49 6.49,-12.93 5.77,-11.36 4.86,-9.27 3.95,-7.17 3.05,-5.13 2.15,-3.10 1.39,-1.45 0.62,0.18 0.59,0.26 0.56,0.33 0.51,0.39 0.46,0.45 0.40,0.50 0.34,0.55 0.27,0.59 0.20,0.62 0.12,0.63 0.04,0.65 -0.03,0.65 -0.11,0.64 -0.18,0.62 -0.26,0.60 -0.33,0.56 -0.39,0.52 -0.45,0.46 -0.51,0.41 -0.55,0.34 -0.59,0.27 -0.62,0.20 -0.64,0.12 -0.65,0.04 -0.65,-0.03 -0.64,-0.11 -0.62,-0.18 -0.62,-0.18 L -0.62,-0.18 Z"/></g><g transform="translate(207.37519133151528 24.354558060807335) rotate(0 4.186741102342609 0.00001199694281694974)" stroke="none"><path fill="#1e1e1e" d="M -0.12,-0.64 Q -0.12,-0.64 0.68,-1.04 1.50,-1.44 2.44,-1.49 3.39,-1.54 5.71,-0.88 8.03,-0.22 8.13,-0.17 8.22,-0.12 8.29,-0.04 8.36,0.03 8.40,0.13 8.44,0.23 8.45,0.33 8.46,0.44 8.44,0.54 8.41,0.65 8.35,0.74 8.29,0.82 8.21,0.89 8.13,0.96 8.03,0.99 7.93,1.03 7.82,1.03 7.72,1.04 7.62,1.00 7.51,0.97 7.43,0.91 7.34,0.85 7.28,0.76 7.22,0.68 7.19,0.57 7.16,0.47 7.16,0.37 7.16,0.26 7.20,0.16 7.24,0.06 7.30,-0.01 7.37,-0.09 7.46,-0.15 7.55,-0.21 7.65,-0.23 7.75,-0.26 7.86,-0.25 7.97,-0.24 8.06,-0.20 8.16,-0.16 8.24,-0.09 8.32,-0.01 8.37,0.07 8.42,0.16 8.44,0.26 8.46,0.37 8.45,0.47 8.43,0.58 8.39,0.67 8.34,0.77 8.26,0.84 8.19,0.92 8.09,0.97 8.00,1.01 7.89,1.03 7.79,1.04 7.68,1.02 7.58,1.00 7.58,1.00 7.58,1.00 5.57,0.78 3.56,0.56 2.75,0.65 1.93,0.75 1.03,0.69 0.12,0.64 0.04,0.64 -0.02,0.65 -0.10,0.64 -0.18,0.62 -0.25,0.59 -0.33,0.56 -0.39,0.51 -0.45,0.47 -0.50,0.41 -0.55,0.34 -0.59,0.27 -0.62,0.20 -0.63,0.12 -0.65,0.05 -0.65,-0.02 -0.64,-0.10 -0.62,-0.18 -0.60,-0.25 -0.56,-0.32 -0.52,-0.39 -0.46,-0.45 -0.41,-0.51 -0.34,-0.55 -0.27,-0.59 -0.20,-0.61 -0.12,-0.64 -0.12,-0.64 L -0.12,-0.64 Z"/></g><g transform="translate(203.7865698117277 209.16950209140896) rotate(0 -0.2990597912775286 6.280135647399675)" stroke="none"><path fill="#1e1e1e" d="M 0.65,0 Q 0.65,0 0.89,1.54 1.12,3.09 1.13,4.78 1.14,6.47 1.13,7.87 1.11,9.28 0.64,10.41 0.16,11.53 0.15,11.61 0.14,11.69 0.11,11.76 0.09,11.84 0.04,11.90 0.00,11.97 -0.05,12.02 -0.11,12.07 -0.18,12.11 -0.25,12.14 -0.33,12.16 -0.41,12.18 -0.49,12.18 -0.56,12.18 -0.64,12.16 -0.72,12.14 -0.79,12.11 -0.86,12.07 -0.92,12.02 -0.98,11.97 -1.02,11.90 -1.07,11.84 -1.09,11.76 -1.12,11.69 -1.13,11.61 -1.14,11.53 -1.13,11.61 -1.12,11.68 -1.13,11.58 -1.14,11.47 -1.11,11.37 -1.09,11.27 -1.03,11.18 -0.97,11.09 -0.89,11.02 -0.80,10.96 -0.70,10.92 -0.60,10.88 -0.50,10.88 -0.39,10.88 -0.29,10.91 -0.19,10.94 -0.10,11.01 -0.02,11.07 0.03,11.16 0.10,11.24 0.13,11.34 0.16,11.45 0.15,11.55 0.15,11.66 0.11,11.76 0.07,11.86 0.01,11.94 -0.05,12.02 -0.14,12.08 -0.23,12.14 -0.33,12.16 -0.44,12.19 -0.54,12.18 -0.65,12.17 -0.74,12.12 -0.84,12.08 -0.92,12.01 -1.00,11.94 -1.05,11.85 -1.10,11.75 -1.12,11.65 -1.14,11.54 -1.13,11.44 -1.11,11.33 -1.06,11.24 -1.02,11.14 -0.94,11.07 -0.86,10.99 -0.77,10.95 -0.67,10.90 -0.57,10.89 -0.46,10.87 -0.36,10.89 -0.25,10.92 -0.16,10.97 -0.07,11.02 -0.00,11.10 0.06,11.18 0.11,11.36 0.16,11.53 0.15,11.61 0.14,11.69 0.11,11.76 0.09,11.84 0.04,11.90 0.00,11.97 -0.05,12.02 -0.11,12.07 -0.18,12.11 -0.25,12.14 -0.33,12.16 -0.41,12.18 -0.49,12.18 -0.56,12.18 -0.64,12.16 -0.72,12.14 -0.79,12.11 -0.86,12.07 -0.92,12.02 -0.98,11.97 -1.02,11.90 -1.07,11.84 -1.09,11.76 -1.12,11.69 -1.13,11.61 -1.14,11.53 -1.13,10.41 -1.11,9.28 -1.13,7.87 -1.14,6.47 -1.13,4.78 -1.12,3.09 -0.89,1.54 -0.65,0 -0.64,-0.07 -0.63,-0.15 -0.60,-0.23 -0.58,-0.30 -0.53,-0.37 -0.49,-0.43 -0.43,-0.48 -0.37,-0.54 -0.30,-0.57 -0.23,-0.61 -0.15,-0.63 -0.07,-0.65 0.00,-0.65 0.07,-0.65 0.15,-0.63 0.23,-0.61 0.30,-0.57 0.37,-0.54 0.43,-0.48 0.49,-0.43 0.53,-0.37 0.58,-0.30 0.60,-0.23 0.63,-0.15 0.64,-0.07 0.65,0.00 0.65,0.00 L 0.65,0 Z"/></g><g transform="translate(199.00170912683 208.57143049662534) rotate(0 7.177267033460822 8.373482204685217)" stroke="none"><path fill="#1e1e1e" d="M -0.62,0.20 Q -0.62,0.20 -0.91,-0.30 -1.20,-0.82 -0.97,-1.60 -0.74,-2.37 -0.01,-2.74 0.72,-3.10 1.66,-3.03 2.61,-2.95 3.88,-2.56 5.16,-2.16 6.64,-1.85 8.13,-1.53 9.39,-1.03 10.65,-0.52 11.79,0.25 12.92,1.02 13.67,1.99 14.43,2.96 14.63,4.07 14.82,5.19 14.68,6.41 14.54,7.63 13.87,8.68 13.19,9.74 12.28,10.39 11.37,11.04 10.78,11.31 10.19,11.58 9.49,11.71 8.79,11.83 8.56,11.05 8.34,10.26 9.08,10.36 9.82,10.46 10.94,10.93 12.06,11.41 13.19,12.09 14.31,12.77 14.77,14.16 15.23,15.54 14.84,16.78 14.44,18.02 12.86,18.72 11.28,19.41 7.61,19.29 3.94,19.16 3.83,19.15 3.73,19.13 3.63,19.09 3.54,19.04 3.46,18.96 3.39,18.89 3.34,18.79 3.30,18.69 3.28,18.59 3.27,18.48 3.29,18.38 3.31,18.28 3.36,18.18 3.42,18.09 3.50,18.02 3.58,17.95 3.67,17.91 3.77,17.87 3.88,17.86 3.98,17.85 4.09,17.88 4.19,17.91 4.28,17.96 4.37,18.02 4.43,18.11 4.50,18.19 4.53,18.29 4.57,18.39 4.57,18.49 4.57,18.60 4.54,18.70 4.51,18.80 4.45,18.89 4.39,18.98 4.30,19.04 4.21,19.10 4.11,19.13 4.01,19.16 3.90,19.15 3.80,19.15 3.70,19.11 3.60,19.08 3.51,19.01 3.43,18.94 3.38,18.85 3.32,18.76 3.29,18.66 3.27,18.55 3.28,18.45 3.29,18.34 3.33,18.25 3.37,18.15 3.45,18.07 3.52,17.99 3.61,17.94 3.70,17.89 3.81,17.87 3.91,17.85 3.91,17.85 3.91,17.85 7.21,17.59 10.52,17.34 11.64,16.63 12.77,15.92 12.75,15.13 12.74,14.34 11.93,13.95 11.13,13.57 10.15,13.14 9.16,12.71 8.18,12.30 7.21,11.90 6.94,11.24 6.68,10.57 7.54,10.00 8.39,9.42 9.20,9.20 10.00,8.98 10.61,8.61 11.22,8.25 11.70,7.71 12.17,7.18 12.30,6.29 12.43,5.40 12.46,4.79 12.49,4.17 12.04,3.49 11.59,2.82 10.70,2.14 9.81,1.47 8.74,1.00 7.66,0.54 6.08,0.18 4.50,-0.17 3.42,-0.55 2.33,-0.92 1.42,-1.08 0.51,-1.23 0.56,-0.72 0.62,-0.20 0.63,-0.13 0.65,-0.05 0.65,0.02 0.64,0.10 0.62,0.18 0.60,0.25 0.56,0.32 0.52,0.39 0.46,0.45 0.41,0.50 0.34,0.55 0.28,0.59 0.20,0.61 0.13,0.64 0.05,0.64 -0.02,0.65 -0.10,0.64 -0.18,0.63 -0.25,0.59 -0.32,0.56 -0.39,0.52 -0.45,0.47 -0.50,0.41 -0.55,0.35 -0.58,0.27 -0.62,0.20 -0.62,0.20 L -0.62,0.20 Z"/></g><g transform="translate(91.34248767994643 30.933729505598762) rotate(0 -5.682016064844561 32.89586922090015)" stroke="none"><path fill="#1e1e1e" d="M 0,0.65 Q 0,0.65 -0.85,0.89 -1.71,1.12 -2.48,1.29 -3.25,1.46 -4.01,1.84 -4.76,2.22 -5.55,2.85 -6.33,3.48 -6.97,4.22 -7.62,4.95 -8.02,5.68 -8.41,6.41 -8.38,7.22 -8.35,8.03 -8.04,8.99 -7.72,9.95 -7.24,11.25 -6.76,12.56 -6.36,14.04 -5.95,15.52 -5.77,17.25 -5.58,18.98 -5.50,20.23 -5.43,21.47 -5.75,23.02 -6.07,24.56 -6.56,25.92 -7.05,27.28 -7.46,28.06 -7.86,28.85 -8.19,29.50 -8.51,30.14 -8.88,30.68 -9.25,31.22 -9.54,31.39 -9.83,31.57 -9.94,31.69 -10.04,31.81 -10.17,31.90 -10.30,31.98 -10.45,32.04 -10.60,32.09 -10.76,32.11 -10.92,32.13 -11.07,32.11 -11.23,32.09 -11.38,32.03 -11.53,31.98 -11.66,31.89 -11.79,31.79 -11.89,31.68 -12.00,31.56 -12.07,31.41 -12.14,31.27 -12.18,31.12 -12.22,30.97 -12.21,30.81 -12.21,30.65 -12.17,30.49 -12.13,30.34 -12.06,30.20 -11.99,30.06 -11.01,29.90 -10.03,29.75 -8.90,30.24 -7.77,30.73 -7.02,31.95 -6.26,33.18 -5.95,35.02 -5.63,36.87 -5.86,39.95 -6.10,43.02 -6.54,46.03 -6.98,49.04 -7.34,51.34 -7.70,53.64 -8.03,55.48 -8.35,57.33 -8.48,58.58 -8.62,59.82 -8.51,61.10 -8.40,62.38 -8.18,63.03 -7.97,63.68 -6.57,64.10 -5.16,64.53 -5.06,64.55 -4.95,64.57 -4.86,64.62 -4.77,64.67 -4.69,64.74 -4.62,64.82 -4.57,64.92 -4.53,65.01 -4.52,65.12 -4.51,65.22 -4.53,65.33 -4.55,65.43 -4.61,65.52 -4.66,65.61 -4.74,65.68 -4.82,65.75 -4.92,65.79 -5.02,65.83 -5.13,65.84 -5.23,65.84 -5.33,65.81 -5.44,65.79 -5.52,65.73 -5.61,65.67 -5.68,65.58 -5.74,65.50 -5.78,65.40 -5.81,65.30 -5.81,65.19 -5.81,65.08 -5.78,64.98 -5.74,64.88 -5.68,64.80 -5.61,64.71 -5.53,64.65 -5.44,64.59 -5.34,64.57 -5.23,64.54 -5.13,64.54 -5.02,64.55 -4.92,64.59 -4.82,64.63 -4.74,64.69 -4.66,64.76 -4.61,64.85 -4.55,64.95 -4.53,65.05 -4.51,65.15 -4.52,65.26 -4.53,65.36 -4.57,65.46 -4.62,65.56 -4.69,65.63 -4.76,65.71 -4.86,65.76 -4.95,65.81 -5.06,65.83 -5.16,65.85 -5.16,65.85 -5.16,65.85 -7.54,65.48 -9.93,65.11 -10.50,63.87 -11.07,62.63 -11.18,61.09 -11.30,59.55 -11.15,58.20 -11.01,56.86 -10.68,55.04 -10.36,53.22 -9.99,50.93 -9.63,48.64 -9.18,45.73 -8.73,42.81 -8.48,40.02 -8.23,37.24 -8.40,35.82 -8.57,34.40 -9.18,33.36 -9.80,32.32 -10.36,32.26 -10.93,32.21 -10.38,31.89 -9.83,31.57 -9.94,31.69 -10.04,31.81 -10.17,31.90 -10.30,31.98 -10.45,32.04 -10.60,32.09 -10.76,32.11 -10.92,32.13 -11.07,32.11 -11.23,32.09 -11.38,32.03 -11.53,31.98 -11.66,31.89 -11.79,31.79 -11.89,31.68 -12.00,31.56 -12.07,31.42 -12.14,31.27 -12.18,31.12 -12.22,30.97 -12.21,30.81 -12.21,30.65 -12.17,30.50 -12.14,30.34 -12.06,30.20 -11.99,30.06 -11.41,29.50 -10.83,28.95 -10.49,28.30 -10.16,27.65 -9.81,27.01 -9.47,26.37 -9.00,25.18 -8.54,23.99 -8.23,22.79 -7.92,21.58 -7.98,20.40 -8.05,19.22 -8.18,17.68 -8.31,16.13 -8.66,14.75 -9.01,13.37 -9.50,11.99 -9.99,10.61 -10.34,9.30 -10.69,7.99 -10.59,6.69 -10.49,5.39 -9.93,4.40 -9.37,3.41 -8.57,2.52 -7.76,1.64 -6.76,0.88 -5.75,0.13 -4.73,-0.32 -3.70,-0.77 -2.71,-0.95 -1.72,-1.12 -0.86,-0.89 0,-0.65 0.07,-0.64 0.15,-0.63 0.23,-0.60 0.30,-0.58 0.37,-0.53 0.43,-0.49 0.48,-0.43 0.54,-0.37 0.57,-0.30 0.61,-0.23 0.63,-0.15 0.65,-0.07 0.65,0.00 0.65,0.07 0.63,0.15 0.61,0.23 0.57,0.30 0.54,0.37 0.48,0.43 0.43,0.49 0.37,0.53 0.30,0.58 0.23,0.60 0.15,0.63 0.07,0.64 -0.00,0.65 -0.00,0.65 L 0,0.65 Z"/></g><g transform="translate(89.54817692005258 60.83906079843791) rotate(0 0.299059791277557 4.485812890562983)" stroke="none"><path fill="#1e1e1e" d="M 0.65,0 Q 0.65,0 0.95,1.20 1.25,2.40 1.42,3.13 1.59,3.86 1.68,4.81 1.77,5.77 1.51,7.54 1.25,9.32 1.23,9.42 1.21,9.53 1.17,9.62 1.12,9.72 1.04,9.79 0.97,9.87 0.87,9.91 0.77,9.96 0.67,9.97 0.56,9.99 0.46,9.96 0.36,9.94 0.26,9.89 0.17,9.84 0.10,9.76 0.03,9.68 -0.00,9.58 -0.04,9.48 -0.05,9.37 -0.05,9.27 -0.03,9.17 -0.00,9.06 0.05,8.97 0.11,8.88 0.19,8.82 0.27,8.75 0.37,8.72 0.47,8.68 0.58,8.68 0.69,8.68 0.79,8.71 0.89,8.74 0.97,8.81 1.06,8.87 1.12,8.96 1.18,9.04 1.21,9.15 1.24,9.25 1.24,9.35 1.23,9.46 1.20,9.56 1.16,9.66 1.09,9.74 1.02,9.82 0.93,9.88 0.84,9.94 0.74,9.96 0.63,9.98 0.53,9.97 0.42,9.96 0.33,9.92 0.23,9.88 0.15,9.81 0.07,9.73 0.02,9.64 -0.02,9.55 -0.04,9.44 -0.06,9.34 -0.06,9.34 -0.06,9.34 -0.42,7.66 -0.79,5.98 -0.85,5.17 -0.90,4.36 -1.08,3.39 -1.25,2.41 -0.95,1.20 -0.65,0 -0.64,-0.07 -0.63,-0.15 -0.60,-0.23 -0.58,-0.30 -0.53,-0.37 -0.49,-0.43 -0.43,-0.48 -0.37,-0.54 -0.30,-0.57 -0.23,-0.61 -0.15,-0.63 -0.07,-0.65 0.00,-0.65 0.07,-0.65 0.15,-0.63 0.23,-0.61 0.30,-0.57 0.37,-0.54 0.43,-0.48 0.49,-0.43 0.53,-0.37 0.58,-0.30 0.60,-0.23 0.63,-0.15 0.64,-0.07 0.65,0.00 0.65,0.00 L 0.65,0 Z"/></g><g transform="translate(95.52922878228901 62.03527596966228) rotate(0 2.0933705511713185 2.990537928061059)" stroke="none"><path fill="#1e1e1e" d="M 0.54,-0.36 Q 0.54,-0.36 1.51,0.47 2.49,1.31 3.49,3.31 4.50,5.31 4.55,5.40 4.60,5.49 4.61,5.60 4.63,5.70 4.62,5.81 4.60,5.91 4.55,6.01 4.50,6.10 4.42,6.18 4.35,6.25 4.25,6.29 4.15,6.34 4.05,6.35 3.94,6.36 3.84,6.34 3.73,6.32 3.64,6.26 3.55,6.21 3.48,6.13 3.41,6.05 3.37,5.95 3.33,5.85 3.33,5.75 3.32,5.64 3.35,5.54 3.38,5.43 3.44,5.35 3.50,5.26 3.58,5.19 3.66,5.13 3.77,5.09 3.87,5.06 3.97,5.06 4.08,5.06 4.18,5.09 4.28,5.13 4.36,5.19 4.45,5.25 4.51,5.34 4.57,5.43 4.60,5.53 4.63,5.63 4.62,5.74 4.62,5.85 4.58,5.94 4.54,6.04 4.47,6.12 4.40,6.21 4.31,6.26 4.22,6.32 4.12,6.34 4.01,6.36 3.91,6.35 3.80,6.34 3.71,6.30 3.61,6.25 3.53,6.18 3.45,6.11 3.45,6.11 3.45,6.11 1.85,4.46 0.25,2.80 -0.14,1.58 -0.54,0.36 -0.58,0.29 -0.61,0.22 -0.63,0.14 -0.65,0.06 -0.65,-0.01 -0.65,-0.08 -0.63,-0.16 -0.61,-0.24 -0.57,-0.31 -0.53,-0.38 -0.48,-0.44 -0.42,-0.49 -0.36,-0.54 -0.29,-0.58 -0.22,-0.61 -0.14,-0.64 -0.06,-0.64 0.01,-0.65 0.08,-0.64 0.16,-0.63 0.24,-0.60 0.31,-0.57 0.37,-0.53 0.44,-0.48 0.49,-0.42 0.54,-0.36 0.54,-0.36 L 0.54,-0.36 Z"/></g><g transform="translate(93.13679843984016 67.41823224322934) rotate(0 3.289585722395742 -3.2895857223957137)" stroke="none"><path fill="#1e1e1e" d="M -0.52,-0.39 Q -0.52,-0.39 -0.19,-1.22 0.14,-2.04 0.94,-2.78 1.74,-3.52 2.38,-4.12 3.03,-4.71 4.41,-5.68 5.79,-6.66 5.87,-6.73 5.95,-6.80 6.05,-6.84 6.15,-6.88 6.26,-6.89 6.36,-6.90 6.47,-6.87 6.57,-6.84 6.66,-6.78 6.75,-6.73 6.81,-6.64 6.88,-6.56 6.91,-6.46 6.95,-6.36 6.95,-6.25 6.95,-6.14 6.92,-6.04 6.88,-5.94 6.82,-5.86 6.76,-5.77 6.67,-5.71 6.58,-5.65 6.48,-5.62 6.38,-5.59 6.27,-5.60 6.17,-5.60 6.07,-5.64 5.97,-5.68 5.89,-5.74 5.80,-5.81 5.75,-5.90 5.69,-5.99 5.67,-6.09 5.64,-6.20 5.65,-6.30 5.66,-6.41 5.71,-6.51 5.75,-6.60 5.82,-6.68 5.90,-6.76 5.99,-6.81 6.08,-6.86 6.19,-6.88 6.29,-6.90 6.40,-6.88 6.50,-6.87 6.60,-6.82 6.69,-6.77 6.76,-6.69 6.84,-6.62 6.88,-6.52 6.93,-6.43 6.94,-6.32 6.96,-6.22 6.93,-6.11 6.91,-6.01 6.86,-5.92 6.81,-5.82 6.81,-5.82 6.81,-5.82 5.70,-4.43 4.59,-3.04 3.92,-2.40 3.26,-1.76 2.59,-1.23 1.92,-0.70 1.22,-0.15 0.52,0.39 0.47,0.45 0.41,0.50 0.34,0.55 0.28,0.59 0.20,0.61 0.13,0.64 0.05,0.64 -0.02,0.65 -0.10,0.64 -0.18,0.63 -0.25,0.59 -0.32,0.56 -0.39,0.52 -0.45,0.47 -0.50,0.41 -0.55,0.35 -0.58,0.27 -0.62,0.20 -0.63,0.13 -0.65,0.05 -0.65,-0.02 -0.64,-0.10 -0.62,-0.18 -0.60,-0.25 -0.56,-0.32 -0.52,-0.39 -0.52,-0.39 L -0.52,-0.39 Z"/></g><g transform="translate(103.30463939219061 59.64284562721343) rotate(0 1.7943107598937615 4.485800893620166)" stroke="none"><path fill="#1e1e1e" d="M 0.39,-0.52 Q 0.39,-0.52 1.24,-0.22 2.08,0.08 2.69,0.42 3.29,0.76 3.80,1.11 4.31,1.47 4.73,1.80 5.16,2.14 5.46,2.93 5.77,3.71 5.48,4.56 5.18,5.40 4.38,6.09 3.59,6.77 1.65,7.90 -0.27,9.03 -0.36,9.08 -0.45,9.14 -0.55,9.16 -0.65,9.19 -0.76,9.18 -0.87,9.17 -0.96,9.13 -1.06,9.09 -1.14,9.01 -1.22,8.94 -1.27,8.85 -1.32,8.76 -1.34,8.65 -1.36,8.55 -1.34,8.44 -1.33,8.34 -1.28,8.24 -1.23,8.15 -1.16,8.07 -1.08,8.00 -0.99,7.95 -0.89,7.91 -0.79,7.89 -0.68,7.88 -0.58,7.90 -0.47,7.92 -0.38,7.97 -0.29,8.03 -0.22,8.11 -0.15,8.18 -0.11,8.28 -0.06,8.38 -0.06,8.49 -0.05,8.59 -0.08,8.70 -0.10,8.80 -0.16,8.89 -0.22,8.98 -0.30,9.04 -0.38,9.11 -0.48,9.14 -0.58,9.18 -0.69,9.18 -0.80,9.18 -0.90,9.15 -1.00,9.12 -1.08,9.06 -1.17,9.00 -1.23,8.91 -1.29,8.82 -1.32,8.72 -1.35,8.62 -1.35,8.51 -1.35,8.41 -1.31,8.31 -1.27,8.21 -1.21,8.13 -1.14,8.04 -1.14,8.04 -1.14,8.04 0.36,6.40 1.87,4.77 2.60,4.43 3.34,4.09 2.67,3.48 2.00,2.86 1.33,2.42 0.66,1.97 0.13,1.25 -0.39,0.52 -0.45,0.47 -0.50,0.41 -0.55,0.34 -0.59,0.28 -0.61,0.20 -0.64,0.13 -0.64,0.05 -0.65,-0.02 -0.64,-0.10 -0.63,-0.18 -0.59,-0.25 -0.56,-0.32 -0.52,-0.39 -0.47,-0.45 -0.41,-0.50 -0.35,-0.55 -0.27,-0.58 -0.20,-0.62 -0.13,-0.63 -0.05,-0.65 0.02,-0.65 0.10,-0.64 0.18,-0.62 0.25,-0.60 0.32,-0.56 0.39,-0.52 0.39,-0.52 L 0.39,-0.52 Z"/></g><g transform="translate(22.56022330702791 63.23149114088676) rotate(0 6.280135647399618 0.8971553799468666)" stroke="none"><path fill="#1e1e1e" d="M -0.62,0.20 Q -0.62,0.20 -0.98,-0.29 -1.34,-0.79 -1.14,-1.57 -0.94,-2.35 -0.28,-2.75 0.36,-3.15 1.00,-3.07 1.63,-2.99 2.11,-2.69 2.60,-2.38 2.91,-1.93 3.22,-1.48 3.34,-0.85 3.46,-0.21 3.51,0.50 3.56,1.23 3.55,1.37 3.54,1.51 3.50,1.65 3.46,1.79 3.38,1.91 3.31,2.03 3.21,2.13 3.11,2.24 2.99,2.31 2.87,2.38 2.73,2.43 2.59,2.47 2.45,2.48 2.31,2.49 2.17,2.46 2.03,2.44 1.89,2.38 1.76,2.32 1.65,2.24 1.54,2.15 1.45,2.04 1.36,1.92 1.30,1.79 1.24,1.66 1.21,1.52 1.19,1.38 1.67,0.87 2.15,0.35 2.44,-0.57 2.73,-1.50 3.16,-1.92 3.59,-2.34 4.72,-2.76 5.86,-3.17 6.46,-2.79 7.07,-2.40 7.37,-1.50 7.66,-0.60 7.75,0.44 7.84,1.49 8.92,1.64 10.01,1.79 11.36,0.89 12.71,-0.00 12.81,-0.05 12.90,-0.10 13.00,-0.12 13.11,-0.14 13.21,-0.13 13.32,-0.12 13.41,-0.07 13.51,-0.02 13.58,0.04 13.66,0.12 13.71,0.21 13.76,0.30 13.77,0.41 13.79,0.52 13.77,0.62 13.75,0.72 13.70,0.82 13.64,0.91 13.57,0.98 13.49,1.05 13.39,1.10 13.29,1.14 13.19,1.15 13.08,1.16 12.98,1.13 12.87,1.11 12.78,1.05 12.69,0.99 12.63,0.91 12.56,0.83 12.52,0.73 12.49,0.63 12.48,0.52 12.48,0.42 12.51,0.32 12.54,0.21 12.60,0.13 12.66,0.04 12.75,-0.01 12.83,-0.07 12.94,-0.11 13.04,-0.14 13.14,-0.14 13.25,-0.13 13.35,-0.10 13.45,-0.06 13.53,-0.00 13.62,0.06 13.67,0.15 13.73,0.24 13.76,0.34 13.78,0.44 13.78,0.55 13.77,0.66 13.73,0.75 13.69,0.85 13.62,0.93 13.54,1.01 13.54,1.01 13.55,1.01 12.08,2.41 10.61,3.81 9.22,4.23 7.84,4.65 6.96,4.29 6.09,3.93 5.62,2.79 5.15,1.65 5.13,0.77 5.11,-0.09 5.42,-0.59 5.73,-1.09 5.27,-0.74 4.82,-0.39 4.19,0.41 3.56,1.23 3.55,1.37 3.54,1.51 3.50,1.65 3.46,1.79 3.38,1.91 3.31,2.03 3.21,2.13 3.11,2.24 2.99,2.31 2.87,2.38 2.73,2.43 2.59,2.47 2.45,2.48 2.31,2.49 2.17,2.46 2.03,2.44 1.89,2.38 1.76,2.32 1.65,2.24 1.54,2.15 1.45,2.04 1.36,1.92 1.30,1.79 1.24,1.66 1.22,1.52 1.19,1.38 1.17,0.72 1.15,0.06 0.90,-0.60 0.65,-1.27 0.64,-0.73 0.62,-0.20 0.63,-0.13 0.65,-0.05 0.65,0.02 0.64,0.10 0.62,0.18 0.60,0.25 0.56,0.32 0.52,0.39 0.46,0.45 0.41,0.50 0.34,0.55 0.28,0.59 0.20,0.61 0.13,0.64 0.05,0.64 -0.02,0.65 -0.10,0.64 -0.18,0.63 -0.25,0.59 -0.32,0.56 -0.39,0.52 -0.45,0.47 -0.50,0.41 -0.55,0.35 -0.58,0.27 -0.62,0.20 -0.62,0.20 L -0.62,0.20 Z"/></g><g transform="translate(52.465578593752696 62.03527596966228) rotate(0 -3.289585722395742 5.981063859179244)" stroke="none"><path fill="#1e1e1e" d="M -0.62,0.20 Q -0.62,0.20 -0.89,-0.17 -1.16,-0.55 -2.05,-0.57 -2.95,-0.59 -3.46,-0.36 -3.97,-0.13 -4.40,0.40 -4.83,0.94 -4.96,1.53 -5.08,2.11 -4.89,2.66 -4.70,3.20 -4.37,2.72 -4.04,2.25 -3.76,1.67 -3.48,1.09 -3.39,0.42 -3.29,-0.23 -3.16,-0.90 -3.03,-1.57 -3.26,-1.91 -3.49,-2.25 -3.46,-2.40 -3.43,-2.56 -3.36,-2.71 -3.29,-2.86 -3.19,-2.98 -3.08,-3.11 -2.96,-3.20 -2.83,-3.30 -2.68,-3.37 -2.53,-3.43 -2.37,-3.46 -2.21,-3.48 -2.05,-3.47 -1.89,-3.46 -1.73,-3.40 -1.58,-3.35 -1.44,-3.27 -1.30,-3.18 -1.19,-3.06 -1.08,-2.95 -1.00,-2.81 -0.92,-2.67 -0.87,-2.51 -0.83,-2.36 -0.82,-2.19 -0.81,-2.03 -0.90,-0.31 -0.98,1.40 -0.99,3.06 -1.00,4.72 -0.84,6.57 -0.67,8.41 -0.64,11.06 -0.60,13.70 -0.61,13.81 -0.61,13.92 -0.65,14.02 -0.69,14.11 -0.76,14.20 -0.83,14.28 -0.92,14.33 -1.01,14.39 -1.11,14.41 -1.22,14.43 -1.32,14.42 -1.43,14.41 -1.53,14.37 -1.62,14.32 -1.70,14.25 -1.78,14.18 -1.83,14.09 -1.88,13.99 -1.90,13.89 -1.91,13.78 -1.90,13.68 -1.88,13.57 -1.83,13.48 -1.78,13.38 -1.70,13.31 -1.63,13.24 -1.53,13.19 -1.43,13.15 -1.33,13.13 -1.22,13.12 -1.12,13.15 -1.02,13.17 -0.92,13.22 -0.83,13.28 -0.76,13.36 -0.69,13.44 -0.66,13.54 -0.62,13.63 -0.61,13.74 -0.60,13.85 -0.63,13.95 -0.66,14.05 -0.72,14.14 -0.78,14.23 -0.86,14.29 -0.95,14.36 -1.05,14.39 -1.15,14.43 -1.25,14.43 -1.36,14.43 -1.46,14.39 -1.56,14.36 -1.65,14.30 -1.73,14.23 -1.79,14.14 -1.85,14.06 -1.88,13.95 -1.91,13.85 -1.91,13.85 -1.91,13.85 -2.65,11.25 -3.40,8.65 -3.57,6.68 -3.74,4.70 -3.72,3.03 -3.71,1.35 -3.60,-0.44 -3.49,-2.25 -3.46,-2.40 -3.43,-2.56 -3.36,-2.71 -3.29,-2.86 -3.19,-2.98 -3.08,-3.11 -2.96,-3.20 -2.83,-3.30 -2.68,-3.37 -2.53,-3.43 -2.37,-3.46 -2.21,-3.48 -2.05,-3.47 -1.89,-3.46 -1.73,-3.40 -1.58,-3.35 -1.44,-3.27 -1.30,-3.18 -1.19,-3.06 -1.08,-2.95 -1.00,-2.81 -0.92,-2.67 -0.87,-2.51 -0.83,-2.36 -0.82,-2.19 -0.81,-2.03 -0.73,-2.03 -0.64,-2.03 -0.63,-1.43 -0.61,-0.83 -0.71,-0.27 -0.80,0.28 -1.05,1.27 -1.31,2.26 -1.85,3.14 -2.38,4.02 -3.26,4.64 -4.13,5.25 -5.05,5.12 -5.97,5.00 -6.60,4.20 -7.22,3.40 -7.29,2.45 -7.36,1.50 -7.02,0.50 -6.67,-0.50 -5.98,-1.28 -5.29,-2.05 -4.03,-2.46 -2.76,-2.87 -1.72,-2.64 -0.68,-2.42 -0.10,-1.96 0.47,-1.50 0.54,-0.85 0.62,-0.20 0.63,-0.13 0.65,-0.05 0.65,0.02 0.64,0.10 0.62,0.18 0.60,0.25 0.56,0.32 0.52,0.39 0.46,0.45 0.41,0.50 0.34,0.55 0.28,0.59 0.20,0.61 0.13,0.64 0.05,0.64 -0.02,0.65 -0.10,0.64 -0.18,0.63 -0.25,0.59 -0.32,0.56 -0.39,0.52 -0.45,0.47 -0.50,0.41 -0.55,0.35 -0.58,0.27 -0.62,0.20 -0.62,0.20 L -0.62,0.20 Z"/></g><g transform="translate(54.85800893620154 47.08262232018558) rotate(0 2.3924063485631564 8.971589790297458)" stroke="none"><path fill="#1e1e1e" d="M 0.65,0 Q 0.65,0 0.79,1.37 0.94,2.75 0.95,4.02 0.97,5.29 0.99,6.69 1.01,8.09 1.03,9.55 1.05,11.00 1.06,12.32 1.07,13.63 0.88,14.34 0.69,15.04 0.61,15.89 0.54,16.74 1.03,16.26 1.52,15.79 2.04,15.31 2.56,14.83 2.96,14.44 3.35,14.06 2.52,13.87 1.68,13.69 1.58,13.70 1.47,13.72 1.37,13.70 1.26,13.68 1.17,13.63 1.08,13.58 1.00,13.50 0.93,13.42 0.89,13.32 0.85,13.23 0.84,13.12 0.83,13.02 0.85,12.91 0.87,12.81 0.93,12.72 0.99,12.63 1.07,12.56 1.15,12.49 1.25,12.45 1.35,12.42 1.46,12.41 1.56,12.41 1.66,12.44 1.77,12.47 1.85,12.53 1.94,12.59 2.00,12.68 2.07,12.76 2.10,12.86 2.13,12.96 2.13,13.07 2.13,13.18 2.09,13.28 2.06,13.38 1.99,13.46 1.93,13.54 1.84,13.60 1.75,13.66 1.65,13.69 1.54,13.71 1.44,13.71 1.33,13.70 1.23,13.66 1.13,13.62 1.05,13.55 0.97,13.48 0.92,13.39 0.87,13.29 0.85,13.19 0.83,13.09 0.84,12.98 0.85,12.88 0.90,12.78 0.94,12.68 1.02,12.61 1.09,12.53 1.19,12.48 1.28,12.43 1.28,12.43 1.28,12.43 3.57,12.35 5.86,12.26 6.09,13.07 6.32,13.88 5.65,14.83 4.98,15.79 4.55,16.18 4.12,16.57 3.50,17.11 2.88,17.65 2.15,18.12 1.43,18.59 0.67,18.65 -0.09,18.71 -0.63,18.34 -1.17,17.96 -1.37,16.86 -1.58,15.75 -1.32,14.67 -1.07,13.60 -1.06,12.30 -1.05,11.00 -1.03,9.55 -1.01,8.09 -0.99,6.69 -0.97,5.29 -0.95,4.02 -0.94,2.75 -0.79,1.37 -0.65,0 -0.64,-0.07 -0.63,-0.15 -0.60,-0.23 -0.58,-0.30 -0.53,-0.37 -0.49,-0.43 -0.43,-0.48 -0.37,-0.54 -0.30,-0.57 -0.23,-0.61 -0.15,-0.63 -0.07,-0.65 0.00,-0.65 0.07,-0.65 0.15,-0.63 0.23,-0.61 0.30,-0.57 0.37,-0.54 0.43,-0.48 0.49,-0.43 0.53,-0.37 0.58,-0.30 0.60,-0.23 0.63,-0.15 0.64,-0.07 0.65,0.00 0.65,0.00 L 0.65,0 Z"/></g><g transform="translate(85.95955540026506 134.40618585625407) rotate(0 -4.485824887505856 27.811960741667775)" stroke="none"><path fill="#1e1e1e" d="M -0.54,-0.36 Q -0.54,-0.36 -0.37,-0.99 -0.20,-1.62 -0.48,-2.28 -0.76,-2.95 -1.59,-3.16 -2.41,-3.36 -3.12,-3.14 -3.83,-2.93 -4.62,-2.01 -5.42,-1.09 -5.70,-0.50 -5.99,0.09 -6.09,1.05 -6.19,2.02 -6.08,3.06 -5.98,4.11 -5.77,5.61 -5.56,7.11 -5.46,8.85 -5.36,10.59 -5.16,12.29 -4.95,14.00 -4.85,15.64 -4.76,17.29 -4.89,18.93 -5.03,20.56 -5.27,21.80 -5.50,23.05 -5.78,24.25 -6.05,25.46 -6.37,26.25 -6.69,27.04 -7.01,27.71 -7.32,28.38 -7.77,28.87 -8.23,29.35 -7.87,29.86 -7.51,30.36 -7.34,31.29 -7.17,32.22 -7.11,33.28 -7.06,34.35 -7.21,36.24 -7.36,38.12 -7.43,39.55 -7.49,40.97 -7.69,42.84 -7.89,44.70 -7.98,46.13 -8.06,47.55 -7.93,48.93 -7.79,50.31 -7.57,51.57 -7.35,52.83 -6.95,53.77 -6.55,54.70 -6.20,55.48 -5.86,56.27 -5.44,57.06 -5.03,57.86 -3.81,58.75 -2.58,59.64 -2.49,59.69 -2.39,59.74 -2.32,59.82 -2.25,59.90 -2.21,59.99 -2.16,60.09 -2.15,60.20 -2.14,60.30 -2.17,60.41 -2.19,60.51 -2.25,60.60 -2.30,60.69 -2.38,60.76 -2.47,60.83 -2.56,60.87 -2.66,60.90 -2.77,60.91 -2.88,60.91 -2.98,60.88 -3.08,60.85 -3.17,60.79 -3.25,60.73 -3.32,60.65 -3.38,60.56 -3.41,60.46 -3.45,60.36 -3.45,60.25 -3.44,60.15 -3.41,60.05 -3.37,59.95 -3.31,59.86 -3.24,59.78 -3.16,59.72 -3.07,59.66 -2.96,59.63 -2.86,59.61 -2.76,59.61 -2.65,59.62 -2.55,59.66 -2.45,59.70 -2.37,59.77 -2.29,59.84 -2.24,59.93 -2.18,60.02 -2.16,60.13 -2.14,60.23 -2.15,60.34 -2.17,60.44 -2.21,60.54 -2.26,60.64 -2.33,60.71 -2.41,60.79 -2.50,60.84 -2.59,60.89 -2.70,60.90 -2.80,60.92 -2.91,60.90 -3.01,60.88 -3.01,60.88 -3.01,60.88 -5.10,60.05 -7.20,59.22 -7.77,58.30 -8.35,57.39 -8.73,56.57 -9.10,55.75 -9.58,54.53 -10.07,53.32 -10.30,51.94 -10.54,50.57 -10.68,48.98 -10.82,47.40 -10.73,45.90 -10.65,44.40 -10.45,42.63 -10.25,40.85 -10.19,39.37 -10.12,37.89 -9.97,36.18 -9.81,34.47 -9.85,33.55 -9.89,32.62 -10.17,31.65 -10.45,30.67 -10.72,30.10 -10.98,29.52 -10.93,28.93 -10.88,28.33 -10.31,27.75 -9.75,27.16 -9.47,26.57 -9.20,25.98 -8.94,25.42 -8.69,24.85 -8.43,23.69 -8.16,22.53 -7.94,21.43 -7.72,20.33 -7.59,18.88 -7.46,17.44 -7.54,15.88 -7.63,14.32 -7.84,12.53 -8.05,10.74 -8.14,9.11 -8.22,7.48 -8.44,5.91 -8.66,4.33 -8.76,3.00 -8.86,1.66 -8.62,0.27 -8.39,-1.11 -7.89,-2.01 -7.39,-2.92 -6.88,-3.45 -6.38,-3.98 -5.79,-4.61 -5.21,-5.23 -4.31,-5.64 -3.41,-6.05 -2.75,-6.03 -2.09,-6.02 -1.44,-5.91 -0.78,-5.80 -0.27,-5.56 0.23,-5.33 0.82,-4.80 1.41,-4.26 1.68,-3.69 1.96,-3.11 2.01,-2.31 2.05,-1.51 1.82,-0.97 1.58,-0.44 1.06,-0.03 0.54,0.36 0.49,0.42 0.44,0.48 0.37,0.53 0.31,0.57 0.24,0.60 0.16,0.63 0.08,0.64 0.01,0.65 -0.06,0.64 -0.14,0.64 -0.22,0.61 -0.29,0.58 -0.36,0.54 -0.42,0.49 -0.48,0.44 -0.53,0.38 -0.57,0.31 -0.61,0.24 -0.63,0.16 -0.65,0.08 -0.65,0.01 -0.65,-0.06 -0.63,-0.14 -0.61,-0.22 -0.58,-0.29 -0.54,-0.36 -0.54,-0.36 L -0.54,-0.36 Z"/></g><g transform="translate(87.1557465776038 163.7134215604238) rotate(0 0 3.887693308007954)" stroke="none"><path fill="#1e1e1e" d="M 0.65,0 Q 0.65,0 0.98,0.51 1.30,1.03 1.31,2.11 1.33,3.19 1.14,4.28 0.96,5.36 0.52,7.01 0.07,8.65 0.05,8.75 0.03,8.85 -0.02,8.94 -0.07,9.04 -0.15,9.10 -0.24,9.17 -0.33,9.21 -0.43,9.25 -0.54,9.26 -0.64,9.26 -0.75,9.23 -0.85,9.21 -0.94,9.15 -1.03,9.09 -1.09,9.00 -1.15,8.92 -1.19,8.82 -1.22,8.72 -1.22,8.61 -1.22,8.50 -1.19,8.40 -1.15,8.30 -1.09,8.22 -1.02,8.13 -0.94,8.07 -0.85,8.01 -0.75,7.99 -0.64,7.96 -0.54,7.96 -0.43,7.97 -0.33,8.01 -0.23,8.05 -0.15,8.12 -0.07,8.19 -0.02,8.28 0.03,8.37 0.05,8.47 0.07,8.58 0.06,8.68 0.05,8.79 0.00,8.88 -0.03,8.98 -0.10,9.06 -0.18,9.13 -0.27,9.18 -0.36,9.23 -0.47,9.25 -0.57,9.27 -0.68,9.25 -0.78,9.23 -0.88,9.18 -0.97,9.13 -1.04,9.06 -1.12,8.98 -1.16,8.88 -1.21,8.79 -1.22,8.68 -1.23,8.57 -1.23,8.57 -1.23,8.57 -1.44,6.74 -1.65,4.90 -1.49,4.04 -1.33,3.18 -1.31,2.10 -1.30,1.03 -0.98,0.51 -0.65,0 -0.64,-0.07 -0.63,-0.15 -0.60,-0.23 -0.58,-0.30 -0.53,-0.37 -0.49,-0.43 -0.43,-0.48 -0.37,-0.54 -0.30,-0.57 -0.23,-0.61 -0.15,-0.63 -0.07,-0.65 0.00,-0.65 0.07,-0.65 0.15,-0.63 0.23,-0.61 0.30,-0.57 0.37,-0.54 0.43,-0.48 0.49,-0.43 0.53,-0.37 0.58,-0.30 0.60,-0.23 0.63,-0.15 0.64,-0.07 0.65,0.00 0.65,0.00 L 0.65,0 Z"/></g><g transform="translate(94.33303760495028 166.10582790898695) rotate(0 -0.29905979127750015 2.9905259311182135)" stroke="none"><path d="M0 0 C-0.3 0, -1.4 -0.2, -1.79 0 C-2.19 0.2, -2.19 0.2, -2.39 1.2 C-2.59 2.19, -3.09 4.98, -2.99 5.98 C-2.89 6.98, -2.49 7.18, -1.79 7.18 C-1.1 7.18, 0.5 6.88, 1.2 5.98 C1.89 5.08, 2.19 2.79, 2.39 1.79 C2.59 0.8, 2.69 0.5, 2.39 0 C2.09 -0.5, 1.2 -1.2, 0.6 -1.2 C0 -1.2, -0.9 -0.2, -1.2 0" stroke="none" stroke-width="0" fill="#ffffff" fill-rule="evenodd"/><path fill="#1e1e1e" d="M 0.29,0.58 Q 0.29,0.58 -0.26,1.15 -0.82,1.72 -1.11,2.54 -1.41,3.37 -1.50,4.08 -1.60,4.78 -1.01,4.97 -0.43,5.16 0.10,3.94 0.65,2.71 0.78,2.00 0.92,1.28 0.11,0.88 -0.68,0.48 -0.79,0.51 -0.89,0.54 -0.99,0.53 -1.10,0.53 -1.20,0.49 -1.30,0.45 -1.38,0.38 -1.46,0.31 -1.51,0.22 -1.57,0.13 -1.59,0.03 -1.61,-0.07 -1.60,-0.17 -1.59,-0.28 -1.55,-0.38 -1.50,-0.47 -1.43,-0.55 -1.36,-0.63 -1.26,-0.68 -1.17,-0.72 -1.06,-0.74 -0.96,-0.76 -0.85,-0.74 -0.75,-0.72 -0.65,-0.67 -0.56,-0.62 -0.49,-0.55 -0.41,-0.47 -0.37,-0.37 -0.33,-0.28 -0.31,-0.17 -0.30,-0.07 -0.33,0.03 -0.35,0.13 -0.40,0.22 -0.46,0.31 -0.54,0.38 -0.62,0.45 -0.72,0.49 -0.82,0.53 -0.92,0.53 -1.03,0.54 -1.13,0.51 -1.24,0.48 -1.32,0.42 -1.41,0.36 -1.48,0.28 -1.54,0.19 -1.57,0.09 -1.61,-0.00 -1.61,-0.10 -1.61,-0.21 -1.57,-0.31 -1.54,-0.41 -1.47,-0.50 -1.41,-0.58 -1.32,-0.64 -1.23,-0.70 -1.23,-0.70 -1.23,-0.70 0.74,-0.51 2.73,-0.32 3.05,0.55 3.36,1.43 3.16,2.54 2.97,3.66 2.47,4.77 1.98,5.87 1.20,6.65 0.42,7.43 -0.74,7.59 -1.90,7.76 -2.62,7.19 -3.34,6.62 -3.67,5.61 -4.00,4.61 -3.85,3.58 -3.69,2.56 -3.27,1.55 -2.85,0.55 -2.38,0.10 -1.92,-0.34 -1.10,-0.46 -0.29,-0.58 -0.21,-0.61 -0.14,-0.64 -0.06,-0.64 0.01,-0.65 0.09,-0.64 0.16,-0.63 0.24,-0.60 0.31,-0.57 0.38,-0.52 0.44,-0.48 0.49,-0.42 0.54,-0.36 0.58,-0.29 0.61,-0.22 0.63,-0.14 0.65,-0.06 0.65,0.01 0.65,0.09 0.62,0.16 0.60,0.24 0.57,0.31 0.53,0.38 0.47,0.44 0.42,0.50 0.35,0.54 0.29,0.58 0.29,0.58 L 0.29,0.58 Z"/></g><g transform="translate(99.71596988463165 164.31151714909316) rotate(0 2.392430342448847 5.682004067901715)" stroke="none"><path fill="#1e1e1e" d="M 0.58,-0.29 Q 0.58,-0.29 1.17,0.25 1.75,0.81 2.70,1.65 3.64,2.49 4.26,3.05 4.88,3.62 5.29,4.51 5.70,5.39 5.47,6.55 5.23,7.70 4.41,8.55 3.59,9.39 2.27,10.35 0.95,11.31 0.87,11.38 0.78,11.44 0.68,11.47 0.58,11.51 0.48,11.50 0.37,11.50 0.27,11.47 0.17,11.43 0.09,11.37 0.00,11.30 -0.05,11.21 -0.11,11.12 -0.13,11.02 -0.16,10.92 -0.15,10.81 -0.15,10.71 -0.10,10.61 -0.06,10.51 0.00,10.43 0.07,10.35 0.16,10.30 0.25,10.24 0.35,10.22 0.46,10.20 0.56,10.21 0.67,10.23 0.76,10.27 0.86,10.32 0.94,10.39 1.01,10.47 1.06,10.56 1.11,10.65 1.12,10.76 1.14,10.86 1.12,10.97 1.10,11.07 1.05,11.17 1.00,11.26 0.92,11.33 0.85,11.40 0.75,11.45 0.65,11.49 0.55,11.50 0.44,11.51 0.34,11.49 0.23,11.46 0.14,11.41 0.05,11.35 -0.01,11.27 -0.07,11.19 -0.11,11.09 -0.15,10.99 -0.15,10.88 -0.16,10.78 -0.13,10.67 -0.10,10.57 -0.04,10.49 0.01,10.40 0.01,10.40 0.01,10.40 0.91,9.08 1.82,7.76 2.23,7.26 2.64,6.77 2.80,6.11 2.97,5.44 2.43,4.86 1.89,4.27 1.35,3.73 0.82,3.19 0.21,2.56 -0.38,1.93 -0.48,1.11 -0.58,0.29 -0.61,0.21 -0.64,0.14 -0.64,0.06 -0.65,-0.01 -0.64,-0.09 -0.63,-0.16 -0.60,-0.24 -0.57,-0.31 -0.52,-0.38 -0.48,-0.44 -0.42,-0.49 -0.36,-0.54 -0.29,-0.58 -0.22,-0.61 -0.14,-0.63 -0.06,-0.65 0.01,-0.65 0.09,-0.65 0.16,-0.62 0.24,-0.60 0.31,-0.57 0.38,-0.53 0.44,-0.47 0.50,-0.42 0.54,-0.35 0.58,-0.29 0.58,-0.29 L 0.58,-0.29 Z"/></g><g transform="translate(10.598095588669366 166.10582790898695) rotate(0 8.971613784183148 -0.5980955886693664)" stroke="none"><path fill="#1e1e1e" d="M -0.62,0.20 Q -0.62,0.20 -0.94,-0.26 -1.25,-0.72 -1.10,-1.89 -0.95,-3.07 -0.35,-3.41 0.25,-3.76 1.21,-3.83 2.17,-3.90 2.76,-3.46 3.35,-3.03 3.72,-2.47 4.10,-1.91 4.45,-1.11 4.80,-0.31 4.96,0.23 5.12,0.78 5.19,1.15 5.25,1.53 5.27,1.67 5.29,1.81 5.28,1.95 5.26,2.10 5.21,2.23 5.17,2.37 5.09,2.48 5.01,2.60 4.90,2.70 4.80,2.80 4.67,2.87 4.54,2.94 4.41,2.97 4.27,3.01 4.12,3.01 3.98,3.02 3.84,2.98 3.70,2.95 3.57,2.89 3.44,2.82 3.34,2.73 3.23,2.64 3.14,2.52 3.06,2.40 3.01,2.27 2.95,2.14 3.14,1.12 3.33,0.11 3.61,-0.59 3.89,-1.29 4.41,-2.03 4.94,-2.78 5.81,-3.59 6.67,-4.40 7.37,-4.45 8.07,-4.49 8.70,-4.08 9.33,-3.68 9.76,-2.87 10.18,-2.06 10.35,-1.53 10.52,-0.99 10.57,-0.63 10.63,-0.27 10.65,-0.13 10.67,0.01 10.66,0.15 10.65,0.29 10.61,0.43 10.56,0.57 10.48,0.69 10.41,0.81 10.31,0.91 10.20,1.01 10.08,1.08 9.95,1.15 9.82,1.19 9.68,1.23 9.53,1.24 9.39,1.25 9.25,1.22 9.11,1.19 8.98,1.13 8.85,1.07 8.74,0.98 8.62,0.89 8.54,0.77 8.45,0.66 8.39,0.53 8.34,0.39 8.60,-0.42 8.86,-1.25 9.44,-1.75 10.01,-2.24 10.49,-2.57 10.97,-2.90 11.62,-2.95 12.27,-3.01 12.81,-2.74 13.36,-2.48 13.84,-1.91 14.33,-1.34 14.54,-0.84 14.75,-0.35 16.42,0.10 18.10,0.56 18.20,0.57 18.31,0.58 18.40,0.63 18.50,0.67 18.58,0.74 18.66,0.82 18.70,0.91 18.75,1.00 18.77,1.11 18.79,1.21 18.77,1.32 18.75,1.42 18.71,1.52 18.66,1.61 18.58,1.68 18.50,1.76 18.40,1.80 18.31,1.85 18.20,1.86 18.10,1.87 17.99,1.85 17.89,1.82 17.80,1.77 17.71,1.71 17.64,1.63 17.57,1.55 17.53,1.45 17.49,1.35 17.49,1.25 17.48,1.14 17.51,1.04 17.54,0.94 17.60,0.85 17.66,0.76 17.74,0.70 17.82,0.63 17.93,0.60 18.03,0.57 18.13,0.57 18.24,0.57 18.34,0.60 18.44,0.63 18.52,0.70 18.61,0.76 18.67,0.85 18.73,0.94 18.76,1.04 18.79,1.14 18.78,1.25 18.77,1.35 18.73,1.45 18.70,1.55 18.63,1.63 18.56,1.71 18.47,1.77 18.38,1.82 18.27,1.85 18.17,1.87 18.17,1.87 18.17,1.87 16.32,2.25 14.46,2.63 13.73,2.18 12.99,1.74 12.64,0.91 12.28,0.08 12.09,-0.43 11.90,-0.95 11.26,-0.61 10.63,-0.27 10.65,-0.13 10.67,0.01 10.66,0.15 10.65,0.29 10.61,0.43 10.56,0.57 10.49,0.69 10.41,0.81 10.31,0.91 10.20,1.01 10.08,1.08 9.95,1.15 9.82,1.19 9.68,1.23 9.53,1.24 9.39,1.25 9.25,1.22 9.11,1.19 8.98,1.13 8.85,1.07 8.74,0.98 8.63,0.89 8.54,0.77 8.45,0.66 8.39,0.53 8.34,0.39 8.18,-0.32 8.03,-1.04 7.82,-1.63 7.61,-2.22 7.24,-1.80 6.87,-1.37 6.49,-0.88 6.11,-0.39 5.68,0.56 5.25,1.53 5.27,1.67 5.29,1.81 5.28,1.95 5.26,2.09 5.21,2.23 5.17,2.36 5.09,2.48 5.01,2.60 4.90,2.70 4.80,2.80 4.67,2.87 4.54,2.94 4.41,2.97 4.27,3.01 4.12,3.01 3.98,3.02 3.84,2.98 3.70,2.95 3.57,2.89 3.44,2.82 3.34,2.73 3.23,2.64 3.14,2.52 3.06,2.41 3.01,2.27 2.95,2.14 2.81,1.35 2.67,0.57 2.42,-0.07 2.18,-0.72 1.92,-1.36 1.67,-2.00 1.12,-1.66 0.57,-1.33 0.59,-0.77 0.62,-0.20 0.63,-0.13 0.65,-0.05 0.65,0.02 0.64,0.10 0.62,0.18 0.60,0.25 0.56,0.32 0.52,0.39 0.46,0.45 0.41,0.50 0.34,0.55 0.28,0.59 0.20,0.61 0.13,0.64 0.05,0.64 -0.02,0.65 -0.10,0.64 -0.18,0.63 -0.25,0.59 -0.32,0.56 -0.39,0.52 -0.45,0.47 -0.50,0.41 -0.55,0.35 -0.58,0.27 -0.62,0.20 -0.62,0.20 L -0.62,0.20 Z"/></g><g transform="translate(46.484478743744944 164.31151714909316) rotate(0 -2.9905259311182135 7.775398612958725)" stroke="none"><path fill="#1e1e1e" d="M -0.24,0.60 Q -0.24,0.60 -1.15,0.46 -2.07,0.31 -2.81,0.53 -3.55,0.75 -4.00,1.60 -4.45,2.45 -4.35,3.18 -4.25,3.90 -3.66,3.84 -3.06,3.78 -2.68,3.35 -2.30,2.92 -1.99,2.31 -1.67,1.71 -1.56,1.03 -1.45,0.36 -1.38,-0.51 -1.30,-1.40 -1.26,-1.54 -1.22,-1.69 -1.14,-1.83 -1.07,-1.96 -0.96,-2.07 -0.86,-2.18 -0.73,-2.26 -0.60,-2.35 -0.46,-2.40 -0.31,-2.45 -0.16,-2.46 -0.01,-2.47 0.14,-2.45 0.29,-2.43 0.43,-2.37 0.57,-2.31 0.69,-2.22 0.82,-2.13 0.91,-2.01 1.01,-1.89 1.08,-1.76 1.15,-1.62 1.18,-1.47 1.21,-1.32 1.20,-1.16 1.20,-1.01 1.01,-0.50 0.82,0.00 0.79,1.56 0.75,3.12 0.74,4.63 0.74,6.14 0.73,7.81 0.73,9.48 0.71,10.88 0.69,12.28 0.37,14.63 0.05,16.97 0.04,17.08 0.02,17.18 -0.02,17.28 -0.07,17.37 -0.15,17.44 -0.22,17.52 -0.32,17.56 -0.42,17.60 -0.52,17.62 -0.63,17.63 -0.73,17.60 -0.84,17.58 -0.93,17.53 -1.02,17.47 -1.09,17.39 -1.16,17.31 -1.20,17.21 -1.23,17.11 -1.24,17.01 -1.25,16.90 -1.22,16.80 -1.19,16.70 -1.13,16.61 -1.07,16.52 -0.98,16.46 -0.90,16.39 -0.80,16.36 -0.70,16.32 -0.59,16.32 -0.49,16.32 -0.39,16.36 -0.29,16.39 -0.20,16.46 -0.12,16.52 -0.06,16.61 -0.00,16.70 0.02,16.80 0.05,16.90 0.04,17.01 0.04,17.11 0.00,17.21 -0.03,17.31 -0.10,17.39 -0.17,17.47 -0.26,17.53 -0.35,17.58 -0.45,17.60 -0.56,17.63 -0.66,17.62 -0.77,17.60 -0.87,17.56 -0.96,17.51 -1.04,17.44 -1.12,17.37 -1.17,17.27 -1.22,17.18 -1.23,17.08 -1.25,16.97 -1.25,16.97 -1.25,16.97 -1.56,14.62 -1.88,12.28 -1.89,10.88 -1.91,9.47 -1.90,7.80 -1.90,6.12 -1.88,4.59 -1.87,3.06 -1.83,1.87 -1.80,0.68 -1.55,-0.35 -1.30,-1.40 -1.26,-1.54 -1.22,-1.69 -1.14,-1.83 -1.07,-1.96 -0.96,-2.07 -0.86,-2.18 -0.73,-2.26 -0.60,-2.35 -0.46,-2.40 -0.31,-2.45 -0.16,-2.46 -0.01,-2.47 0.14,-2.45 0.29,-2.43 0.43,-2.37 0.57,-2.31 0.69,-2.22 0.82,-2.13 0.91,-2.01 1.01,-1.89 1.08,-1.76 1.15,-1.62 1.18,-1.47 1.21,-1.32 1.20,-1.17 1.20,-1.01 1.15,-0.62 1.11,-0.23 1.00,0.33 0.89,0.90 0.62,1.89 0.35,2.88 -0.22,3.77 -0.79,4.66 -1.71,5.31 -2.63,5.96 -3.67,5.98 -4.71,6.00 -5.42,5.52 -6.14,5.04 -6.49,4.08 -6.84,3.13 -6.66,2.30 -6.47,1.46 -6.02,0.63 -5.57,-0.19 -4.95,-0.74 -4.32,-1.29 -3.59,-1.50 -2.85,-1.72 -2.10,-1.70 -1.36,-1.68 -0.55,-1.14 0.24,-0.60 0.31,-0.57 0.38,-0.53 0.44,-0.48 0.49,-0.42 0.54,-0.36 0.58,-0.29 0.61,-0.22 0.64,-0.14 0.64,-0.06 0.65,0.01 0.64,0.09 0.63,0.16 0.60,0.24 0.57,0.31 0.52,0.37 0.48,0.44 0.42,0.49 0.36,0.54 0.29,0.58 0.22,0.61 0.14,0.63 0.06,0.65 -0.01,0.65 -0.09,0.65 -0.16,0.63 -0.24,0.60 -0.24,0.60 L -0.24,0.60 Z"/></g><g transform="translate(50.07314825130385 152.94748501940404) rotate(0 2.691466139840685 9.868769164130043)" stroke="none"><path fill="#1e1e1e" d="M 0.65,0 Q 0.65,0 0.87,1.71 1.09,3.43 1.10,4.85 1.11,6.27 1.12,7.73 1.13,9.20 1.14,10.68 1.15,12.16 1.15,13.48 1.16,14.79 1.17,15.70 1.17,16.60 1.18,17.33 1.18,18.06 1.95,17.18 2.72,16.31 3.32,15.52 3.91,14.74 2.69,14.49 1.46,14.24 1.45,14.17 1.44,14.09 1.45,14.01 1.45,13.93 1.48,13.86 1.50,13.78 1.55,13.71 1.59,13.65 1.65,13.59 1.70,13.54 1.77,13.50 1.84,13.46 1.92,13.44 1.99,13.42 2.07,13.41 2.15,13.41 2.23,13.43 2.31,13.44 2.38,13.48 2.45,13.51 2.51,13.56 2.57,13.61 2.62,13.67 2.67,13.74 2.70,13.81 2.73,13.88 2.55,14.27 2.37,14.66 2.26,14.69 2.16,14.72 2.06,14.71 1.95,14.70 1.85,14.66 1.75,14.62 1.67,14.55 1.59,14.48 1.54,14.39 1.48,14.30 1.46,14.20 1.44,14.09 1.45,13.99 1.46,13.88 1.51,13.79 1.55,13.69 1.63,13.61 1.70,13.54 1.80,13.49 1.89,13.44 2.00,13.42 2.10,13.41 2.21,13.43 2.31,13.44 2.40,13.49 2.50,13.54 2.57,13.62 2.64,13.70 2.69,13.80 2.73,13.89 2.74,14.00 2.75,14.10 2.73,14.21 2.70,14.31 2.65,14.40 2.59,14.49 2.51,14.56 2.43,14.63 2.33,14.67 2.23,14.71 2.13,14.71 2.02,14.72 1.92,14.69 1.82,14.66 1.73,14.60 1.64,14.54 1.58,14.45 1.51,14.37 1.48,14.27 1.45,14.16 1.45,14.06 1.45,13.95 1.48,13.85 1.52,13.75 1.58,13.67 1.65,13.58 1.56,13.91 1.46,14.24 1.45,14.17 1.44,14.09 1.45,14.01 1.45,13.93 1.48,13.86 1.50,13.78 1.55,13.71 1.59,13.65 1.65,13.59 1.70,13.54 1.77,13.50 1.84,13.46 1.92,13.44 1.99,13.42 2.07,13.41 2.15,13.41 2.23,13.43 2.31,13.44 2.38,13.48 2.45,13.51 2.51,13.56 2.57,13.61 2.62,13.67 2.67,13.74 2.70,13.81 2.73,13.88 4.44,13.57 6.15,13.25 6.29,14.00 6.43,14.75 5.80,15.89 5.17,17.03 4.26,17.91 3.34,18.79 2.79,19.37 2.25,19.96 1.44,20.21 0.63,20.47 -0.13,20.00 -0.90,19.52 -1.04,18.79 -1.18,18.06 -1.18,17.33 -1.17,16.60 -1.17,15.70 -1.16,14.79 -1.15,13.48 -1.15,12.16 -1.14,10.68 -1.13,9.20 -1.12,7.73 -1.11,6.27 -1.10,4.85 -1.09,3.43 -0.87,1.71 -0.65,0 -0.64,-0.07 -0.63,-0.15 -0.60,-0.23 -0.58,-0.30 -0.53,-0.37 -0.49,-0.43 -0.43,-0.48 -0.37,-0.54 -0.30,-0.57 -0.23,-0.61 -0.15,-0.63 -0.07,-0.65 0.00,-0.65 0.07,-0.65 0.15,-0.63 0.23,-0.61 0.30,-0.57 0.37,-0.54 0.43,-0.48 0.49,-0.43 0.53,-0.37 0.58,-0.30 0.60,-0.23 0.63,-0.15 0.64,-0.07 0.65,0.00 0.65,0.00 L 0.65,0 Z"/></g><g transform="translate(707.9904366937642 57.8485348673197) rotate(0 -0.5981195825550571 5.981063859179244)" stroke="none"><path fill="#1e1e1e" d="M 0.65,0.08 Q 0.65,0.08 0.74,1.49 0.84,2.89 0.79,4.13 0.73,5.36 0.70,6.57 0.67,7.78 0.33,9.66 -0.01,11.54 -0.01,11.64 -0.00,11.75 -0.03,11.85 -0.06,11.96 -0.12,12.04 -0.18,12.13 -0.26,12.20 -0.35,12.26 -0.45,12.29 -0.55,12.33 -0.66,12.33 -0.76,12.33 -0.86,12.29 -0.96,12.26 -1.05,12.19 -1.13,12.13 -1.19,12.04 -1.25,11.95 -1.28,11.85 -1.31,11.75 -1.30,11.64 -1.29,11.54 -1.26,11.44 -1.22,11.34 -1.15,11.26 -1.08,11.18 -0.99,11.12 -0.90,11.07 -0.79,11.05 -0.69,11.02 -0.58,11.03 -0.48,11.05 -0.38,11.09 -0.28,11.14 -0.21,11.21 -0.13,11.28 -0.08,11.38 -0.03,11.47 -0.01,11.58 -0.00,11.68 -0.01,11.79 -0.03,11.89 -0.08,11.98 -0.13,12.08 -0.21,12.15 -0.29,12.22 -0.38,12.27 -0.48,12.31 -0.59,12.32 -0.69,12.33 -0.79,12.31 -0.90,12.29 -0.99,12.23 -1.08,12.18 -1.15,12.10 -1.22,12.02 -1.26,11.92 -1.30,11.82 -1.30,11.82 -1.30,11.82 -1.54,9.77 -1.78,7.72 -1.75,6.47 -1.71,5.22 -1.62,3.91 -1.53,2.60 -1.09,1.26 -0.65,-0.08 -0.63,-0.15 -0.61,-0.23 -0.57,-0.30 -0.53,-0.37 -0.48,-0.43 -0.43,-0.49 -0.36,-0.53 -0.30,-0.58 -0.22,-0.61 -0.15,-0.63 -0.07,-0.64 0.00,-0.65 0.08,-0.64 0.15,-0.63 0.23,-0.60 0.30,-0.58 0.37,-0.53 0.43,-0.48 0.48,-0.43 0.54,-0.37 0.57,-0.30 0.61,-0.23 0.63,-0.15 0.65,-0.07 0.65,0.00 0.65,0.08 0.65,0.08 L 0.65,0.08 Z"/></g><g transform="translate(713.971536543772 60.83906079843791) rotate(0 2.3924303424487903 4.186753099285454)" stroke="none"><path fill="#1e1e1e" d="M 0.63,-0.18 Q 0.63,-0.18 1.17,0.96 1.71,2.10 2.16,2.84 2.61,3.57 3.13,4.21 3.64,4.84 4.25,6.53 4.85,8.21 4.83,8.31 4.80,8.42 4.75,8.51 4.69,8.60 4.61,8.66 4.52,8.73 4.42,8.77 4.32,8.81 4.22,8.81 4.11,8.81 4.01,8.78 3.91,8.75 3.82,8.69 3.74,8.63 3.67,8.54 3.61,8.46 3.58,8.35 3.55,8.25 3.55,8.15 3.55,8.04 3.59,7.94 3.62,7.84 3.69,7.76 3.76,7.67 3.85,7.62 3.94,7.56 4.04,7.53 4.14,7.51 4.25,7.51 4.35,7.52 4.45,7.56 4.55,7.61 4.63,7.68 4.71,7.75 4.76,7.84 4.81,7.93 4.83,8.04 4.85,8.14 4.84,8.25 4.83,8.35 4.78,8.45 4.73,8.54 4.66,8.62 4.58,8.69 4.49,8.74 4.39,8.79 4.29,8.80 4.18,8.82 4.08,8.80 3.97,8.78 3.88,8.73 3.79,8.67 3.72,8.60 3.65,8.52 3.60,8.42 3.56,8.32 3.55,8.22 3.54,8.11 3.54,8.11 3.54,8.11 2.72,7.16 1.89,6.21 1.30,5.44 0.71,4.66 0.19,3.68 -0.33,2.70 -0.48,1.44 -0.63,0.18 -0.64,0.10 -0.65,0.02 -0.64,-0.05 -0.64,-0.13 -0.61,-0.20 -0.59,-0.28 -0.54,-0.35 -0.50,-0.41 -0.44,-0.47 -0.39,-0.52 -0.32,-0.56 -0.25,-0.60 -0.17,-0.62 -0.10,-0.64 -0.02,-0.65 0.05,-0.65 0.13,-0.63 0.21,-0.62 0.28,-0.58 0.35,-0.55 0.41,-0.50 0.47,-0.45 0.52,-0.38 0.56,-0.32 0.60,-0.25 0.63,-0.18 0.63,-0.18 L 0.63,-0.18 Z"/></g><g transform="translate(713.3734169612169 68.61444741445376) rotate(0 3.58862151978758 -3.8876933080079255)" stroke="none"><path fill="#1e1e1e" d="M -0.58,-0.29 Q -0.58,-0.29 -0.39,-1.05 -0.20,-1.82 0.46,-2.88 1.12,-3.94 1.99,-4.79 2.86,-5.63 4.66,-6.86 6.47,-8.09 6.57,-8.14 6.67,-8.18 6.77,-8.19 6.88,-8.20 6.98,-8.18 7.08,-8.15 7.17,-8.10 7.27,-8.04 7.33,-7.96 7.40,-7.88 7.44,-7.78 7.48,-7.68 7.48,-7.58 7.49,-7.47 7.46,-7.37 7.43,-7.27 7.37,-7.18 7.31,-7.09 7.22,-7.03 7.14,-6.96 7.04,-6.93 6.94,-6.90 6.83,-6.90 6.72,-6.90 6.62,-6.93 6.52,-6.97 6.44,-7.03 6.36,-7.10 6.30,-7.19 6.24,-7.28 6.21,-7.38 6.18,-7.48 6.19,-7.59 6.20,-7.69 6.24,-7.79 6.28,-7.89 6.35,-7.97 6.42,-8.05 6.51,-8.10 6.60,-8.16 6.70,-8.18 6.81,-8.20 6.91,-8.19 7.02,-8.18 7.11,-8.13 7.21,-8.09 7.29,-8.01 7.36,-7.94 7.41,-7.85 7.46,-7.75 7.48,-7.65 7.49,-7.54 7.47,-7.44 7.46,-7.33 7.41,-7.24 7.36,-7.14 7.28,-7.07 7.20,-7.00 7.20,-7.00 7.20,-7.00 5.77,-5.53 4.35,-4.07 3.62,-3.40 2.90,-2.72 2.23,-1.82 1.57,-0.92 1.08,-0.31 0.58,0.29 0.54,0.35 0.49,0.42 0.44,0.47 0.38,0.53 0.31,0.57 0.24,0.60 0.16,0.62 0.09,0.65 0.01,0.65 -0.06,0.65 -0.14,0.63 -0.22,0.61 -0.29,0.58 -0.36,0.54 -0.42,0.49 -0.48,0.44 -0.52,0.38 -0.57,0.31 -0.60,0.24 -0.63,0.16 -0.64,0.09 -0.65,0.01 -0.64,-0.06 -0.64,-0.14 -0.61,-0.21 -0.58,-0.29 -0.58,-0.29 L -0.58,-0.29 Z"/></g><g transform="translate(724.1393774961224 58.446630455989066) rotate(0 3.88768131106508 6.579183441734301)" stroke="none"><path fill="#1e1e1e" d="M 0.42,-0.50 Q 0.42,-0.50 1.62,0.14 2.83,0.79 3.64,1.50 4.45,2.22 5.27,2.82 6.08,3.42 6.84,4.07 7.61,4.72 8.08,5.55 8.55,6.38 8.52,7.36 8.48,8.35 7.30,9.45 6.12,10.56 4.77,11.80 3.42,13.03 3.33,13.10 3.25,13.16 3.15,13.19 3.04,13.23 2.94,13.23 2.83,13.22 2.73,13.19 2.63,13.15 2.55,13.09 2.46,13.02 2.41,12.93 2.35,12.85 2.32,12.74 2.29,12.64 2.30,12.53 2.31,12.43 2.35,12.33 2.39,12.23 2.46,12.15 2.53,12.07 2.62,12.02 2.71,11.96 2.81,11.94 2.92,11.92 3.02,11.93 3.13,11.95 3.23,11.99 3.32,12.04 3.40,12.11 3.47,12.19 3.52,12.28 3.57,12.38 3.59,12.48 3.60,12.59 3.58,12.69 3.57,12.79 3.51,12.89 3.46,12.98 3.39,13.05 3.31,13.13 3.21,13.17 3.11,13.21 3.01,13.22 2.90,13.23 2.80,13.21 2.70,13.18 2.61,13.13 2.51,13.07 2.45,12.99 2.38,12.91 2.34,12.81 2.30,12.71 2.30,12.60 2.29,12.50 2.32,12.40 2.35,12.29 2.41,12.21 2.47,12.12 2.47,12.12 2.47,12.12 3.66,10.75 4.85,9.37 5.42,8.59 5.99,7.80 5.92,7.20 5.85,6.60 5.20,6.02 4.56,5.43 3.68,4.74 2.79,4.05 2.04,3.34 1.29,2.64 0.43,1.57 -0.42,0.50 -0.47,0.44 -0.52,0.38 -0.56,0.32 -0.60,0.25 -0.62,0.17 -0.64,0.09 -0.65,0.01 -0.65,-0.05 -0.63,-0.13 -0.62,-0.21 -0.58,-0.28 -0.55,-0.35 -0.50,-0.41 -0.45,-0.47 -0.38,-0.52 -0.32,-0.57 -0.24,-0.60 -0.17,-0.63 -0.09,-0.64 -0.01,-0.65 0.05,-0.64 0.13,-0.64 0.21,-0.61 0.28,-0.59 0.35,-0.54 0.42,-0.50 0.42,-0.50 L 0.42,-0.50 Z"/></g><g transform="translate(706.1961739216417 163.11530197786874) rotate(0 0.2990118035061755 7.775398612958725)" stroke="none"><path fill="#1e1e1e" d="M 0.64,-0.10 Q 0.64,-0.10 1.06,0.88 1.47,1.87 1.57,3.41 1.66,4.94 1.71,6.61 1.75,8.29 1.76,9.69 1.77,11.09 1.23,13.39 0.69,15.69 0.67,15.79 0.64,15.89 0.58,15.98 0.53,16.07 0.44,16.14 0.36,16.21 0.26,16.24 0.16,16.28 0.05,16.28 -0.04,16.28 -0.14,16.25 -0.25,16.22 -0.33,16.16 -0.42,16.09 -0.48,16.01 -0.54,15.92 -0.57,15.82 -0.60,15.72 -0.60,15.61 -0.59,15.50 -0.56,15.41 -0.52,15.31 -0.45,15.22 -0.39,15.14 -0.30,15.08 -0.21,15.03 -0.10,15.00 -0.00,14.98 0.10,14.99 0.20,15.00 0.30,15.04 0.40,15.08 0.47,15.15 0.55,15.22 0.61,15.32 0.66,15.41 0.68,15.51 0.70,15.62 0.68,15.72 0.67,15.83 0.62,15.92 0.57,16.02 0.50,16.09 0.42,16.17 0.32,16.21 0.23,16.26 0.12,16.27 0.02,16.29 -0.08,16.27 -0.18,16.25 -0.27,16.19 -0.36,16.14 -0.44,16.06 -0.51,15.98 -0.55,15.88 -0.59,15.79 -0.60,15.68 -0.60,15.58 -0.60,15.58 -0.60,15.58 -0.61,13.34 -0.61,11.10 -0.63,9.72 -0.65,8.33 -0.67,6.70 -0.68,5.06 -0.73,3.65 -0.78,2.25 -0.71,1.17 -0.64,0.10 -0.65,0.02 -0.65,-0.05 -0.63,-0.12 -0.62,-0.20 -0.59,-0.27 -0.55,-0.34 -0.50,-0.41 -0.45,-0.47 -0.39,-0.51 -0.33,-0.56 -0.25,-0.59 -0.18,-0.63 -0.10,-0.64 -0.02,-0.65 0.04,-0.64 0.12,-0.64 0.20,-0.61 0.27,-0.59 0.34,-0.55 0.41,-0.51 0.46,-0.45 0.52,-0.39 0.56,-0.32 0.60,-0.25 0.62,-0.18 0.64,-0.10 0.64,-0.10 L 0.64,-0.10 Z"/></g><g transform="translate(715.7657993158944 177.46988403256177) rotate(0 5.083968463946633 -5.981087853064906)" stroke="none"><path fill="#1e1e1e" d="M -0.24,-0.60 Q -0.24,-0.60 0.52,-1.14 1.30,-1.68 2.36,-2.64 3.43,-3.59 4.22,-4.49 5.02,-5.38 6.00,-6.92 6.99,-8.46 7.91,-10.29 8.83,-12.13 9.36,-13.85 9.89,-15.58 9.78,-16.59 9.68,-17.61 8.73,-15.77 7.78,-13.92 7.29,-11.28 6.79,-8.63 6.58,-5.47 6.36,-2.30 6.26,-0.08 6.17,2.13 5.95,3.65 5.73,5.18 5.63,6.13 5.53,7.09 4.57,7.95 3.61,8.82 3.08,8.66 2.55,8.49 1.66,7.59 0.77,6.69 0.14,6.04 -0.48,5.38 -1.06,4.97 -1.63,4.57 -1.72,4.43 -1.81,4.29 -1.92,4.18 -2.03,4.08 -2.11,3.95 -2.20,3.82 -2.25,3.68 -2.29,3.53 -2.31,3.38 -2.32,3.23 -2.30,3.08 -2.28,2.93 -2.22,2.79 -2.16,2.65 -2.07,2.53 -1.98,2.40 -1.86,2.31 -1.74,2.21 -1.61,2.14 -1.47,2.08 -1.32,2.04 -1.17,2.01 -1.02,2.02 -0.87,2.02 -0.72,2.06 -0.57,2.10 -0.44,2.18 -0.31,2.25 0.90,2.01 2.11,1.76 3.05,1.78 3.99,1.80 5.19,1.80 6.40,1.81 8.13,1.55 9.86,1.30 9.97,1.30 10.08,1.29 10.18,1.32 10.28,1.35 10.37,1.41 10.45,1.48 10.52,1.56 10.58,1.65 10.61,1.75 10.64,1.85 10.64,1.96 10.64,2.06 10.60,2.16 10.57,2.26 10.50,2.35 10.44,2.43 10.35,2.49 10.26,2.55 10.16,2.57 10.05,2.60 9.95,2.59 9.84,2.58 9.74,2.54 9.65,2.50 9.57,2.43 9.49,2.36 9.43,2.27 9.38,2.18 9.36,2.07 9.34,1.97 9.35,1.86 9.36,1.76 9.41,1.66 9.46,1.57 9.53,1.49 9.61,1.42 9.70,1.37 9.79,1.32 9.90,1.30 10.01,1.29 10.11,1.31 10.21,1.33 10.31,1.38 10.40,1.43 10.47,1.51 10.54,1.59 10.59,1.68 10.63,1.78 10.64,1.89 10.65,1.99 10.62,2.09 10.60,2.20 10.54,2.29 10.49,2.38 10.41,2.45 10.32,2.51 10.22,2.55 10.12,2.59 10.12,2.59 10.12,2.59 8.38,3.04 6.64,3.50 5.33,3.86 4.03,4.22 3.12,4.26 2.21,4.31 1.30,4.34 0.39,4.37 -0.70,4.33 -1.81,4.29 -1.92,4.18 -2.03,4.08 -2.11,3.95 -2.20,3.82 -2.25,3.68 -2.29,3.53 -2.31,3.38 -2.32,3.23 -2.30,3.08 -2.28,2.93 -2.22,2.79 -2.16,2.65 -2.07,2.53 -1.98,2.40 -1.86,2.31 -1.74,2.21 -1.61,2.14 -1.47,2.08 -1.32,2.04 -1.17,2.01 -1.02,2.02 -0.87,2.02 -0.72,2.06 -0.57,2.10 -0.44,2.18 -0.31,2.25 -0.21,2.50 -0.12,2.75 0.53,3.25 1.18,3.76 1.84,4.43 2.49,5.11 3.33,5.90 4.18,6.70 3.64,6.75 3.10,6.79 3.18,5.81 3.26,4.83 3.47,3.42 3.67,2.02 3.77,-0.22 3.86,-2.48 4.09,-5.79 4.32,-9.10 4.88,-11.98 5.45,-14.86 6.51,-17.17 7.57,-19.47 8.54,-19.90 9.51,-20.33 10.82,-19.18 12.13,-18.03 12.22,-16.45 12.31,-14.88 11.67,-12.94 11.04,-11.00 10.03,-9.06 9.02,-7.12 7.90,-5.45 6.77,-3.78 5.84,-2.79 4.90,-1.80 3.52,-0.74 2.13,0.31 1.19,0.46 0.24,0.60 0.16,0.63 0.09,0.65 0.01,0.65 -0.06,0.65 -0.14,0.63 -0.22,0.61 -0.29,0.58 -0.36,0.54 -0.42,0.49 -0.48,0.44 -0.52,0.37 -0.57,0.31 -0.60,0.24 -0.63,0.16 -0.64,0.09 -0.65,0.01 -0.64,-0.06 -0.64,-0.14 -0.61,-0.22 -0.58,-0.29 -0.54,-0.36 -0.49,-0.42 -0.44,-0.48 -0.38,-0.53 -0.31,-0.57 -0.24,-0.60 -0.24,-0.60 L -0.24,-0.60 Z"/></g><g transform="translate(736.1014812205951 164.31151714909316) rotate(0 -2.09337055117129 6.579171444791456)" stroke="none"><path fill="#1e1e1e" d="M 0.41,0.51 Q 0.41,0.51 -0.23,1.40 -0.88,2.30 -1.40,3.76 -1.93,5.21 -2.21,6.80 -2.49,8.39 -1.79,10.64 -1.08,12.89 -1.03,12.98 -0.97,13.07 -0.94,13.17 -0.92,13.27 -0.93,13.38 -0.94,13.48 -0.98,13.58 -1.02,13.68 -1.09,13.76 -1.16,13.84 -1.26,13.89 -1.35,13.94 -1.45,13.96 -1.56,13.98 -1.66,13.97 -1.77,13.95 -1.86,13.90 -1.96,13.86 -2.03,13.78 -2.11,13.71 -2.15,13.61 -2.20,13.52 -2.22,13.41 -2.23,13.31 -2.21,13.20 -2.19,13.10 -2.14,13.00 -2.08,12.91 -2.00,12.84 -1.93,12.77 -1.83,12.73 -1.73,12.69 -1.62,12.68 -1.52,12.67 -1.42,12.70 -1.31,12.72 -1.22,12.78 -1.13,12.84 -1.07,12.92 -1.00,13.00 -0.96,13.10 -0.93,13.20 -0.93,13.31 -0.92,13.41 -0.95,13.52 -0.99,13.62 -1.05,13.70 -1.11,13.79 -1.20,13.85 -1.28,13.91 -1.38,13.94 -1.49,13.98 -1.59,13.97 -1.70,13.97 -1.80,13.93 -1.90,13.90 -1.98,13.83 -2.06,13.76 -2.06,13.76 -2.06,13.76 -3.52,10.88 -4.98,7.99 -4.66,6.10 -4.34,4.20 -3.45,2.32 -2.55,0.44 -1.48,-0.03 -0.41,-0.51 -0.34,-0.55 -0.27,-0.59 -0.20,-0.62 -0.12,-0.64 -0.04,-0.65 0.03,-0.65 0.11,-0.64 0.18,-0.62 0.26,-0.59 0.33,-0.56 0.39,-0.51 0.45,-0.46 0.50,-0.40 0.55,-0.34 0.59,-0.27 0.62,-0.20 0.63,-0.12 0.65,-0.04 0.65,0.03 0.64,0.11 0.62,0.18 0.60,0.26 0.56,0.33 0.52,0.39 0.46,0.45 0.41,0.51 0.41,0.51 L 0.41,0.51 Z"/></g><g transform="translate(740.2882223229378 168.4982582514358) rotate(0 2.392430342448847 4.485812890562983)" stroke="none"><path fill="#1e1e1e" d="M 0.60,-0.24 Q 0.60,-0.24 1.12,0.54 1.63,1.33 1.96,2.01 2.30,2.69 2.74,3.22 3.18,3.76 3.59,4.41 4.01,5.07 4.66,6.79 5.32,8.51 5.34,8.61 5.35,8.72 5.34,8.82 5.32,8.93 5.27,9.02 5.22,9.12 5.14,9.19 5.06,9.26 4.97,9.31 4.87,9.35 4.77,9.36 4.66,9.37 4.56,9.35 4.45,9.33 4.36,9.27 4.27,9.22 4.20,9.14 4.13,9.06 4.09,8.96 4.05,8.86 4.05,8.75 4.04,8.65 4.07,8.54 4.10,8.44 4.16,8.35 4.22,8.27 4.31,8.20 4.39,8.14 4.49,8.10 4.59,8.07 4.70,8.07 4.80,8.07 4.90,8.10 5.00,8.14 5.09,8.20 5.17,8.27 5.23,8.35 5.29,8.44 5.32,8.55 5.35,8.65 5.34,8.75 5.34,8.86 5.30,8.96 5.26,9.06 5.19,9.14 5.12,9.22 5.03,9.27 4.94,9.33 4.83,9.35 4.73,9.37 4.63,9.36 4.52,9.35 4.42,9.31 4.33,9.26 4.25,9.19 4.17,9.11 4.12,9.02 4.07,8.93 4.07,8.93 4.07,8.93 3.06,7.59 2.05,6.25 1.71,5.67 1.38,5.09 0.86,4.33 0.34,3.58 0.04,2.84 -0.26,2.09 -0.43,1.17 -0.60,0.24 -0.63,0.16 -0.65,0.09 -0.65,0.01 -0.65,-0.06 -0.63,-0.14 -0.61,-0.22 -0.58,-0.29 -0.54,-0.36 -0.49,-0.42 -0.44,-0.48 -0.37,-0.52 -0.31,-0.57 -0.24,-0.60 -0.16,-0.63 -0.09,-0.64 -0.01,-0.65 0.06,-0.64 0.14,-0.64 0.22,-0.61 0.29,-0.58 0.36,-0.54 0.42,-0.49 0.48,-0.44 0.53,-0.38 0.57,-0.31 0.60,-0.24 0.60,-0.24 L 0.60,-0.24 Z"/></g><g transform="translate(739.6901027403827 175.07745369011297) rotate(0 3.58862151978758 -4.1867530992854824)" stroke="none"><path fill="#1e1e1e" d="M -0.54,-0.36 Q -0.54,-0.36 -0.04,-1.51 0.46,-2.67 1.08,-3.64 1.70,-4.60 2.58,-5.43 3.47,-6.25 4.98,-7.44 6.50,-8.63 6.59,-8.69 6.67,-8.75 6.77,-8.78 6.87,-8.81 6.98,-8.81 7.09,-8.80 7.19,-8.77 7.29,-8.73 7.37,-8.66 7.45,-8.60 7.51,-8.51 7.57,-8.42 7.59,-8.31 7.62,-8.21 7.61,-8.10 7.60,-8.00 7.56,-7.90 7.51,-7.80 7.44,-7.72 7.37,-7.65 7.28,-7.59 7.18,-7.54 7.08,-7.52 6.98,-7.50 6.87,-7.52 6.77,-7.53 6.67,-7.58 6.58,-7.63 6.50,-7.70 6.43,-7.78 6.38,-7.87 6.33,-7.97 6.32,-8.07 6.30,-8.18 6.33,-8.28 6.35,-8.39 6.40,-8.48 6.45,-8.57 6.53,-8.64 6.61,-8.71 6.71,-8.76 6.81,-8.80 6.91,-8.80 7.02,-8.81 7.12,-8.79 7.22,-8.76 7.31,-8.70 7.40,-8.65 7.47,-8.56 7.53,-8.48 7.57,-8.38 7.61,-8.28 7.61,-8.17 7.61,-8.07 7.58,-7.97 7.55,-7.86 7.49,-7.78 7.42,-7.69 7.42,-7.69 7.42,-7.69 6.19,-6.19 4.96,-4.68 4.27,-4.01 3.59,-3.33 2.94,-2.39 2.29,-1.45 1.41,-0.54 0.54,0.36 0.49,0.42 0.44,0.48 0.37,0.53 0.31,0.57 0.24,0.60 0.16,0.63 0.08,0.64 0.01,0.65 -0.06,0.64 -0.14,0.64 -0.22,0.61 -0.29,0.58 -0.36,0.54 -0.42,0.49 -0.48,0.44 -0.53,0.38 -0.57,0.31 -0.61,0.24 -0.63,0.16 -0.65,0.08 -0.65,0.01 -0.65,-0.06 -0.63,-0.14 -0.61,-0.22 -0.58,-0.29 -0.54,-0.36 -0.54,-0.36 L -0.54,-0.36 Z"/></g><g transform="translate(752.2503260474106 165.5077323203176) rotate(0 0.2991077790489385 7.1772790304036675)" stroke="none"><path fill="#1e1e1e" d="M 0.46,-0.46 Q 0.46,-0.46 1.15,-0.10 1.85,0.25 2.38,1.32 2.90,2.39 3.14,3.96 3.39,5.53 3.30,6.95 3.22,8.37 2.81,9.60 2.40,10.83 1.83,12.00 1.26,13.16 0.07,14.47 -1.10,15.78 -1.19,15.84 -1.27,15.91 -1.37,15.94 -1.47,15.97 -1.58,15.97 -1.69,15.97 -1.79,15.94 -1.89,15.90 -1.97,15.84 -2.06,15.77 -2.12,15.69 -2.17,15.60 -2.20,15.49 -2.23,15.39 -2.22,15.29 -2.22,15.18 -2.18,15.08 -2.14,14.98 -2.07,14.90 -2.00,14.82 -1.91,14.77 -1.82,14.71 -1.71,14.69 -1.61,14.67 -1.50,14.68 -1.40,14.69 -1.30,14.74 -1.21,14.78 -1.13,14.86 -1.05,14.93 -1.00,15.02 -0.95,15.12 -0.94,15.22 -0.92,15.33 -0.94,15.43 -0.96,15.54 -1.01,15.63 -1.06,15.72 -1.13,15.80 -1.21,15.87 -1.31,15.91 -1.41,15.96 -1.51,15.97 -1.62,15.98 -1.72,15.96 -1.82,15.93 -1.91,15.88 -2.01,15.82 -2.07,15.74 -2.14,15.66 -2.18,15.56 -2.22,15.46 -2.22,15.36 -2.23,15.25 -2.20,15.15 -2.17,15.05 -2.11,14.96 -2.05,14.87 -2.05,14.87 -2.05,14.87 -1.50,13.52 -0.95,12.17 -0.51,11.05 -0.06,9.93 0.29,9.04 0.66,8.14 0.78,6.98 0.90,5.82 0.81,4.56 0.72,3.30 0.46,2.55 0.20,1.81 -0.12,1.13 -0.46,0.46 -0.51,0.40 -0.56,0.33 -0.59,0.26 -0.62,0.19 -0.64,0.11 -0.65,0.03 -0.65,-0.03 -0.64,-0.11 -0.62,-0.19 -0.59,-0.26 -0.55,-0.33 -0.51,-0.40 -0.46,-0.46 -0.40,-0.51 -0.33,-0.55 -0.26,-0.59 -0.19,-0.62 -0.11,-0.64 -0.03,-0.65 0.03,-0.65 0.11,-0.64 0.19,-0.62 0.26,-0.59 0.33,-0.56 0.40,-0.51 0.46,-0.46 0.46,-0.46 L 0.46,-0.46 Z"/></g><g transform="translate(761.221927834651 163.11530197786874) rotate(0 4.18674110234258 7.177291027346513)" stroke="none"><path fill="#1e1e1e" d="M 0.29,-0.58 Q 0.29,-0.58 1.42,-0.26 2.54,0.05 3.33,0.44 4.12,0.82 5.01,1.34 5.90,1.86 6.64,2.25 7.38,2.64 8.10,3.69 8.83,4.75 8.95,5.91 9.07,7.07 8.52,8.56 7.97,10.05 7.29,10.99 6.62,11.92 5.29,13.07 3.96,14.22 3.88,14.29 3.80,14.36 3.70,14.40 3.60,14.44 3.49,14.44 3.39,14.45 3.28,14.42 3.18,14.39 3.09,14.33 3.01,14.27 2.94,14.19 2.88,14.10 2.84,14.00 2.81,13.90 2.81,13.79 2.81,13.69 2.84,13.59 2.88,13.49 2.94,13.40 3.01,13.32 3.10,13.26 3.18,13.20 3.29,13.17 3.39,13.14 3.49,13.15 3.60,13.15 3.70,13.19 3.80,13.23 3.88,13.30 3.96,13.37 4.01,13.46 4.07,13.55 4.09,13.66 4.11,13.76 4.10,13.86 4.09,13.97 4.05,14.07 4.00,14.16 3.93,14.24 3.86,14.32 3.76,14.37 3.67,14.42 3.56,14.43 3.46,14.45 3.35,14.43 3.25,14.42 3.15,14.37 3.06,14.32 2.99,14.24 2.91,14.16 2.87,14.07 2.83,13.97 2.81,13.86 2.80,13.76 2.83,13.65 2.85,13.55 2.90,13.46 2.96,13.37 2.96,13.37 2.96,13.37 3.78,11.99 4.59,10.62 5.03,9.82 5.47,9.02 5.93,8.04 6.39,7.07 6.45,6.47 6.51,5.88 6.30,5.23 6.08,4.58 5.41,4.19 4.74,3.80 3.93,3.30 3.13,2.80 2.35,2.40 1.57,2.00 0.64,1.29 -0.29,0.58 -0.35,0.54 -0.42,0.49 -0.47,0.44 -0.53,0.38 -0.57,0.31 -0.60,0.24 -0.62,0.16 -0.65,0.09 -0.65,0.01 -0.65,-0.06 -0.63,-0.14 -0.61,-0.22 -0.58,-0.29 -0.54,-0.36 -0.49,-0.42 -0.44,-0.48 -0.38,-0.52 -0.31,-0.57 -0.24,-0.60 -0.16,-0.63 -0.09,-0.64 -0.01,-0.65 0.06,-0.64 0.14,-0.64 0.21,-0.61 0.29,-0.58 0.29,-0.58 L 0.29,-0.58 Z"/></g></svg>