<svg version="1.1" xmlns="http://www.w3.org/2000/svg" viewBox="0 0 593.90283203125 422.125" width="593.90283203125" height="422.125" filter="invert(93%) hue-rotate(180deg)" class="excalidraw-svg">
  <!-- svg-source:excalidraw -->
  
  <defs>
    <style class="style-fonts">
      @font-face {
        font-family: "Virgil";
        src: url("https://excalidraw.com/Virgil.woff2");
      }
      @font-face {
        font-family: "Cascadia";
        src: url("https://excalidraw.com/Cascadia.woff2");
      }
      @font-face {
        font-family: "Assistant";
        src: url("https://excalidraw.com/Assistant-Regular.woff2");
      }
    </style>
    
  </defs>
  <rect x="0" y="0" width="593.90283203125" height="422.125" fill="#ffffff"/><g stroke-linecap="round" transform="translate(10 22.499969482421875) rotate(0 75.34722900390625 73.95834350585938)"><path d="M32 0 C53.83 0, 75.67 0, 118.69 0 M32 0 C63.54 0, 95.09 0, 118.69 0 M118.69 0 C140.03 0, 150.69 10.67, 150.69 32 M118.69 0 C140.03 0, 150.69 10.67, 150.69 32 M150.69 32 C150.69 59.81, 150.69 87.63, 150.69 115.92 M150.69 32 C150.69 60.87, 150.69 89.74, 150.69 115.92 M150.69 115.92 C150.69 137.25, 140.03 147.92, 118.69 147.92 M150.69 115.92 C150.69 137.25, 140.03 147.92, 118.69 147.92 M118.69 147.92 C90.92 147.92, 63.15 147.92, 32 147.92 M118.69 147.92 C92.69 147.92, 66.68 147.92, 32 147.92 M32 147.92 C10.67 147.92, 0 137.25, 0 115.92 M32 147.92 C10.67 147.92, 0 137.25, 0 115.92 M0 115.92 C0 96.86, 0 77.81, 0 32 M0 115.92 C0 94.68, 0 73.44, 0 32 M0 32 C0 10.67, 10.67 0, 32 0 M0 32 C0 10.67, 10.67 0, 32 0" stroke="#6741d9" stroke-width="2" fill="none"/></g><g stroke-linecap="round" transform="translate(433.2083740234375 17.98614501953125) rotate(0 75.34722900390625 73.95834350585938)"><path d="M32 0 C55.98 0, 79.97 0, 118.69 0 M32 0 C63.62 0, 95.23 0, 118.69 0 M118.69 0 C140.03 0, 150.69 10.67, 150.69 32 M118.69 0 C140.03 0, 150.69 10.67, 150.69 32 M150.69 32 C150.69 51.34, 150.69 70.68, 150.69 115.92 M150.69 32 C150.69 64.97, 150.69 97.95, 150.69 115.92 M150.69 115.92 C150.69 137.25, 140.03 147.92, 118.69 147.92 M150.69 115.92 C150.69 137.25, 140.03 147.92, 118.69 147.92 M118.69 147.92 C97.13 147.92, 75.56 147.92, 32 147.92 M118.69 147.92 C91.75 147.92, 64.81 147.92, 32 147.92 M32 147.92 C10.67 147.92, 0 137.25, 0 115.92 M32 147.92 C10.67 147.92, 0 137.25, 0 115.92 M0 115.92 C0 92.29, 0 68.67, 0 32 M0 115.92 C0 94.6, 0 73.28, 0 32 M0 32 C0 10.67, 10.67 0, 32 0 M0 32 C0 10.67, 10.67 0, 32 0" stroke="#6741d9" stroke-width="2" fill="none"/></g><g stroke-linecap="round"><g transform="translate(166.94451904296875 96.11111450195312) rotate(0 130.5555419921875 -1.736114501953125)"><path d="M0 0 C43.52 -0.58, 217.59 -2.89, 261.11 -3.47" stroke="#6741d9" stroke-width="2.5" fill="none" stroke-dasharray="8 10"/></g></g><mask/><g stroke-linecap="round"><g transform="translate(300.27783203125 94.02777099609375) rotate(0 11.458343505859375 86.11112976074219)"><path d="M0 0 C3.82 9.61, 20.37 28.94, 22.92 57.64 C25.46 86.34, 16.55 153.13, 15.28 172.22" stroke="#099268" stroke-width="2.5" fill="none" stroke-dasharray="8 10"/></g></g><mask/><g stroke-linecap="round" transform="translate(238.73614501953125 264.20831298828125) rotate(0 75.34722900390625 73.95834350585938)"><path d="M32 0 C61.34 0, 90.68 0, 118.69 0 M32 0 C65.55 0, 99.1 0, 118.69 0 M118.69 0 C140.03 0, 150.69 10.67, 150.69 32 M118.69 0 C140.03 0, 150.69 10.67, 150.69 32 M150.69 32 C150.69 65.17, 150.69 98.33, 150.69 115.92 M150.69 32 C150.69 56.24, 150.69 80.48, 150.69 115.92 M150.69 115.92 C150.69 137.25, 140.03 147.92, 118.69 147.92 M150.69 115.92 C150.69 137.25, 140.03 147.92, 118.69 147.92 M118.69 147.92 C91.56 147.92, 64.42 147.92, 32 147.92 M118.69 147.92 C99.41 147.92, 80.13 147.92, 32 147.92 M32 147.92 C10.67 147.92, 0 137.25, 0 115.92 M32 147.92 C10.67 147.92, 0 137.25, 0 115.92 M0 115.92 C0 88.72, 0 61.52, 0 32 M0 115.92 C0 90.41, 0 64.89, 0 32 M0 32 C0 10.67, 10.67 0, 32 0 M0 32 C0 10.67, 10.67 0, 32 0" stroke="#099268" stroke-width="2" fill="none"/></g><g transform="translate(23.19451904296875 113.47222900390625) rotate(0 8.333328247070312 -13.888900756835938)" stroke="none"><path fill="#1e1e1e" d="M -0.61,-0.23 Q -0.61,-0.23 -0.11,-1.86 0.39,-3.49 1.01,-5.55 1.63,-7.62 2.48,-10.50 3.33,-13.38 4.29,-16.41 5.25,-19.44 6.06,-22.12 6.86,-24.80 7.60,-26.96 8.35,-29.11 8.87,-30.44 9.39,-31.77 9.80,-32.53 10.21,-33.29 10.27,-33.40 10.33,-33.51 10.42,-33.60 10.50,-33.70 10.60,-33.77 10.71,-33.84 10.83,-33.88 10.95,-33.92 11.07,-33.93 11.20,-33.95 11.32,-33.93 11.44,-33.91 11.56,-33.87 11.68,-33.82 11.78,-33.75 11.88,-33.68 11.96,-33.58 12.05,-33.49 12.10,-33.37 12.16,-33.26 12.19,-33.14 12.22,-33.02 12.22,-32.89 12.21,-32.77 12.18,-32.64 12.15,-32.52 12.75,-30.49 13.36,-28.45 13.63,-25.49 13.90,-22.53 14.42,-18.29 14.93,-14.06 15.52,-9.66 16.12,-5.26 16.34,-2.37 16.56,0.52 16.84,2.81 17.11,5.10 17.11,5.21 17.12,5.32 17.09,5.42 17.05,5.52 16.99,5.61 16.93,5.69 16.84,5.75 16.76,5.82 16.66,5.85 16.55,5.88 16.45,5.88 16.34,5.87 16.24,5.84 16.14,5.80 16.06,5.73 15.98,5.67 15.92,5.58 15.86,5.49 15.84,5.38 15.81,5.28 15.82,5.18 15.83,5.07 15.87,4.97 15.91,4.87 15.98,4.80 16.05,4.72 16.15,4.66 16.24,4.61 16.34,4.59 16.45,4.57 16.55,4.59 16.66,4.60 16.75,4.65 16.85,4.69 16.92,4.77 17.00,4.84 17.05,4.94 17.09,5.04 17.11,5.14 17.12,5.25 17.10,5.35 17.08,5.45 17.03,5.55 16.98,5.64 16.90,5.71 16.82,5.78 16.72,5.82 16.62,5.87 16.52,5.87 16.41,5.88 16.31,5.86 16.21,5.83 16.12,5.77 16.03,5.72 15.96,5.63 15.89,5.55 15.86,5.45 15.82,5.35 15.82,5.35 15.82,5.35 15.21,3.03 14.59,0.70 14.29,-2.13 13.99,-4.97 13.35,-9.38 12.71,-13.79 12.20,-18.06 11.69,-22.33 11.42,-25.29 11.16,-28.25 11.10,-29.81 11.04,-31.37 10.63,-32.33 10.21,-33.29 10.27,-33.40 10.33,-33.51 10.42,-33.60 10.50,-33.70 10.60,-33.77 10.71,-33.84 10.83,-33.88 10.95,-33.92 11.07,-33.93 11.20,-33.95 11.32,-33.93 11.44,-33.91 11.56,-33.87 11.68,-33.82 11.78,-33.75 11.88,-33.68 11.96,-33.58 12.05,-33.49 12.10,-33.37 12.16,-33.26 12.19,-33.14 12.22,-33.02 12.22,-32.89 12.21,-32.77 12.18,-32.64 12.15,-32.52 11.73,-31.77 11.30,-31.02 10.79,-29.73 10.27,-28.44 9.53,-26.33 8.79,-24.21 7.96,-21.52 7.14,-18.84 6.16,-15.83 5.17,-12.82 4.27,-9.94 3.37,-7.07 2.68,-4.98 2.00,-2.89 1.30,-1.33 0.61,0.23 0.57,0.30 0.54,0.37 0.48,0.43 0.43,0.48 0.37,0.53 0.30,0.58 0.23,0.60 0.15,0.63 0.08,0.64 0.00,0.65 -0.07,0.64 -0.15,0.63 -0.22,0.61 -0.30,0.58 -0.36,0.53 -0.43,0.49 -0.48,0.43 -0.53,0.37 -0.57,0.30 -0.61,0.23 -0.63,0.15 -0.65,0.08 -0.65,0.00 -0.65,-0.07 -0.63,-0.15 -0.61,-0.23 -0.61,-0.23 L -0.61,-0.23 Z"/></g><g transform="translate(28.750091552734375 103.75) rotate(0 4.8610992431640625 0)" stroke="none"><path fill="#1e1e1e" d="M 0,-0.65 Q 0,-0.65 0.79,-0.80 1.59,-0.94 2.93,-0.94 4.27,-0.94 6.50,-0.80 8.73,-0.65 8.84,-0.63 8.94,-0.62 9.04,-0.57 9.13,-0.52 9.20,-0.44 9.28,-0.36 9.32,-0.27 9.37,-0.17 9.38,-0.07 9.39,0.03 9.37,0.13 9.34,0.24 9.29,0.33 9.23,0.42 9.15,0.49 9.07,0.56 8.97,0.60 8.87,0.64 8.77,0.64 8.66,0.65 8.56,0.62 8.46,0.59 8.37,0.53 8.28,0.47 8.22,0.39 8.15,0.30 8.12,0.20 8.08,0.10 8.08,-0.00 8.08,-0.10 8.12,-0.20 8.15,-0.30 8.22,-0.39 8.28,-0.47 8.37,-0.53 8.46,-0.59 8.56,-0.62 8.66,-0.65 8.77,-0.64 8.87,-0.64 8.97,-0.60 9.07,-0.56 9.15,-0.49 9.23,-0.42 9.29,-0.33 9.34,-0.24 9.37,-0.13 9.39,-0.03 9.38,0.07 9.37,0.17 9.32,0.27 9.28,0.36 9.20,0.44 9.13,0.52 9.04,0.57 8.94,0.62 8.84,0.63 8.73,0.65 8.73,0.65 8.73,0.65 6.50,0.80 4.27,0.94 2.93,0.94 1.59,0.94 0.79,0.80 0,0.65 -0.07,0.64 -0.15,0.63 -0.23,0.60 -0.30,0.58 -0.37,0.53 -0.43,0.49 -0.48,0.43 -0.54,0.37 -0.57,0.30 -0.61,0.23 -0.63,0.15 -0.65,0.07 -0.65,-0.00 -0.65,-0.07 -0.63,-0.15 -0.61,-0.23 -0.57,-0.30 -0.54,-0.37 -0.48,-0.43 -0.43,-0.49 -0.37,-0.53 -0.30,-0.58 -0.23,-0.60 -0.15,-0.63 -0.07,-0.64 0.00,-0.65 0.00,-0.65 L 0,-0.65 Z"/></g><g transform="translate(39.861175537109375 116.25) rotate(0 12.5 -20.138885498046875)" stroke="none"><path fill="#1e1e1e" d="M -0.46,-0.46 Q -0.46,-0.46 0.23,-1.36 0.93,-2.25 2.17,-4.15 3.42,-6.05 5.14,-9.05 6.85,-12.05 8.15,-15.46 9.45,-18.87 10.81,-22.73 12.17,-26.59 12.73,-29.55 13.29,-32.51 13.55,-34.55 13.82,-36.58 14.12,-37.14 14.42,-37.69 13.82,-37.61 13.22,-37.52 12.53,-36.42 11.84,-35.32 11.11,-33.31 10.37,-31.29 9.44,-27.84 8.51,-24.38 8.13,-21.16 7.75,-17.94 7.79,-15.40 7.83,-12.87 8.24,-10.65 8.66,-8.43 9.22,-6.93 9.78,-5.44 10.38,-4.47 10.99,-3.50 11.71,-3.00 12.43,-2.50 13.15,-2.51 13.88,-2.52 14.68,-2.85 15.48,-3.19 16.34,-4.05 17.20,-4.90 17.97,-6.03 18.73,-7.15 19.29,-7.88 19.86,-8.62 20.31,-9.25 20.75,-9.88 20.83,-10.00 20.90,-10.11 21.00,-10.21 21.09,-10.30 21.21,-10.37 21.33,-10.44 21.46,-10.47 21.59,-10.51 21.72,-10.52 21.86,-10.52 21.99,-10.50 22.13,-10.47 22.25,-10.41 22.37,-10.36 22.48,-10.27 22.58,-10.19 22.67,-10.08 22.75,-9.97 22.80,-9.84 22.85,-9.72 22.88,-9.59 22.90,-9.45 22.89,-9.32 22.88,-9.18 22.84,-9.05 22.79,-8.92 23.22,-8.32 23.65,-7.71 24.33,-6.64 25.02,-5.56 25.11,-5.51 25.20,-5.45 25.26,-5.36 25.33,-5.28 25.36,-5.18 25.40,-5.08 25.40,-4.97 25.40,-4.87 25.37,-4.76 25.33,-4.66 25.27,-4.58 25.21,-4.49 25.12,-4.43 25.03,-4.37 24.93,-4.34 24.83,-4.31 24.72,-4.32 24.61,-4.33 24.51,-4.36 24.42,-4.40 24.33,-4.47 24.25,-4.54 24.20,-4.63 24.14,-4.72 24.12,-4.82 24.10,-4.93 24.11,-5.03 24.12,-5.14 24.16,-5.24 24.20,-5.33 24.28,-5.41 24.35,-5.49 24.44,-5.54 24.54,-5.59 24.64,-5.61 24.75,-5.62 24.85,-5.61 24.96,-5.59 25.05,-5.54 25.14,-5.49 25.22,-5.42 25.29,-5.34 25.34,-5.24 25.38,-5.15 25.39,-5.04 25.41,-4.94 25.38,-4.83 25.36,-4.73 25.31,-4.64 25.25,-4.55 25.17,-4.48 25.09,-4.41 24.99,-4.37 24.90,-4.33 24.79,-4.32 24.68,-4.31 24.58,-4.34 24.48,-4.37 24.48,-4.37 24.48,-4.37 22.95,-5.65 21.43,-6.94 21.20,-7.64 20.96,-8.34 20.86,-9.11 20.75,-9.88 20.83,-10.00 20.90,-10.11 21.00,-10.21 21.09,-10.30 21.21,-10.37 21.33,-10.44 21.46,-10.47 21.59,-10.51 21.72,-10.52 21.86,-10.52 21.99,-10.50 22.13,-10.47 22.25,-10.41 22.37,-10.36 22.48,-10.27 22.58,-10.19 22.67,-10.08 22.75,-9.97 22.80,-9.84 22.85,-9.72 22.88,-9.59 22.90,-9.45 22.89,-9.32 22.88,-9.18 22.84,-9.05 22.79,-8.92 22.45,-8.69 22.11,-8.46 21.82,-7.89 21.54,-7.32 21.00,-6.63 20.46,-5.95 19.55,-4.66 18.63,-3.38 17.44,-2.33 16.24,-1.27 15.02,-0.88 13.80,-0.48 12.58,-0.65 11.37,-0.82 10.35,-1.62 9.32,-2.43 8.64,-3.60 7.96,-4.77 7.37,-6.43 6.78,-8.09 6.37,-10.46 5.96,-12.84 5.93,-15.50 5.91,-18.15 6.32,-21.50 6.73,-24.85 7.67,-28.40 8.61,-31.94 9.44,-34.19 10.27,-36.43 11.40,-37.85 12.52,-39.26 13.37,-39.44 14.22,-39.63 15.11,-38.01 16.00,-36.39 15.76,-34.24 15.53,-32.09 14.93,-28.96 14.32,-25.83 12.94,-21.94 11.55,-18.06 10.15,-14.50 8.75,-10.95 6.93,-7.92 5.12,-4.88 3.69,-2.90 2.26,-0.93 1.36,-0.23 0.46,0.46 0.40,0.51 0.33,0.56 0.26,0.59 0.19,0.62 0.11,0.64 0.03,0.65 -0.03,0.65 -0.11,0.64 -0.19,0.62 -0.26,0.59 -0.33,0.55 -0.40,0.51 -0.46,0.46 -0.51,0.40 -0.55,0.33 -0.59,0.26 -0.62,0.19 -0.64,0.11 -0.65,0.03 -0.65,-0.03 -0.64,-0.11 -0.62,-0.19 -0.59,-0.26 -0.56,-0.33 -0.51,-0.40 -0.46,-0.46 -0.46,-0.46 L -0.46,-0.46 Z"/></g><g transform="translate(65.55563354492188 92.63888549804688) rotate(0 -0.6944427490234375 0.6944427490234375)" stroke="none"><path fill="#1e1e1e" d="M -0.67,1.60 Q -0.67,1.60 -0.75,1.66 -0.84,1.72 -0.94,1.75 -1.04,1.78 -1.15,1.78 -1.26,1.78 -1.36,1.74 -1.46,1.70 -1.54,1.64 -1.62,1.57 -1.68,1.48 -1.74,1.39 -1.76,1.29 -1.79,1.19 -1.78,1.08 -1.77,0.97 -1.73,0.88 -1.69,0.78 -1.62,0.70 -1.54,0.62 -1.45,0.57 -1.36,0.52 -1.26,0.50 -1.15,0.48 -1.05,0.49 -0.94,0.51 -0.85,0.55 -0.75,0.60 -0.67,0.67 -0.60,0.75 -0.55,0.85 -0.51,0.94 -0.49,1.05 -0.48,1.15 -0.50,1.26 -0.52,1.36 -0.57,1.45 -0.62,1.54 -0.70,1.62 -0.78,1.69 -0.88,1.73 -0.97,1.77 -1.08,1.78 -1.19,1.79 -1.29,1.76 -1.39,1.74 -1.48,1.68 -1.57,1.62 -1.64,1.54 -1.70,1.46 -1.74,1.36 -1.78,1.26 -1.78,1.15 -1.78,1.04 -1.75,0.94 -1.72,0.84 -1.66,0.75 -1.60,0.67 -1.60,0.67 -1.60,0.67 -1.65,0.47 -1.71,0.27 -1.72,0.06 -1.73,-0.14 -1.68,-0.35 -1.64,-0.55 -1.55,-0.74 -1.46,-0.93 -1.33,-1.09 -1.19,-1.25 -1.02,-1.38 -0.86,-1.50 -0.66,-1.59 -0.47,-1.67 -0.26,-1.70 -0.06,-1.73 0.14,-1.71 0.35,-1.70 0.55,-1.63 0.75,-1.56 0.92,-1.45 1.10,-1.34 1.25,-1.18 1.39,-1.03 1.49,-0.85 1.60,-0.67 0.46,0.46 L -0.67,1.60 Z"/></g><g transform="translate(79.44451904296875 100.97222900390625) rotate(0 5.9027862548828125 6.25)" stroke="none"><path fill="#1e1e1e" d="M -0.10,0.64 Q -0.10,0.64 -1.33,0.62 -2.56,0.61 -3.60,0.57 -4.64,0.53 -5.27,0.87 -5.89,1.21 -6.72,1.90 -7.55,2.60 -8.26,3.43 -8.97,4.26 -9.19,5.23 -9.41,6.20 -9.33,7.11 -9.25,8.02 -9.07,8.94 -8.89,9.85 -8.15,10.44 -7.41,11.02 -6.58,11.49 -5.75,11.95 -4.81,11.92 -3.86,11.89 -2.36,11.34 -0.86,10.79 0.33,10.00 1.53,9.22 2.87,8.28 4.21,7.33 5.34,6.37 6.47,5.40 7.32,4.44 8.16,3.48 8.70,2.70 9.25,1.93 9.36,1.22 9.47,0.52 9.02,0.19 8.57,-0.12 7.66,0.56 6.75,1.25 6.11,2.21 5.47,3.18 5.24,4.08 5.01,4.99 5.13,6.45 5.24,7.92 5.62,9.01 5.99,10.10 6.72,10.57 7.45,11.05 9.54,10.91 11.64,10.77 16.13,9.00 20.62,7.24 20.72,7.21 20.83,7.18 20.93,7.19 21.04,7.20 21.14,7.24 21.23,7.28 21.31,7.35 21.39,7.42 21.45,7.51 21.50,7.61 21.52,7.71 21.54,7.81 21.53,7.92 21.52,8.02 21.47,8.12 21.43,8.22 21.35,8.29 21.28,8.37 21.18,8.42 21.09,8.46 20.98,8.48 20.88,8.50 20.77,8.48 20.67,8.46 20.58,8.41 20.48,8.36 20.41,8.28 20.34,8.20 20.30,8.10 20.25,8.00 20.24,7.90 20.23,7.79 20.26,7.69 20.28,7.59 20.34,7.50 20.39,7.41 20.48,7.34 20.56,7.27 20.66,7.23 20.76,7.20 20.86,7.19 20.97,7.19 21.07,7.22 21.17,7.25 21.26,7.31 21.35,7.37 21.41,7.45 21.47,7.54 21.50,7.64 21.54,7.74 21.54,7.85 21.53,7.96 21.50,8.06 21.46,8.16 21.40,8.24 21.33,8.32 21.24,8.38 21.15,8.44 21.15,8.44 21.15,8.44 16.46,10.75 11.78,13.07 9.04,13.09 6.31,13.11 5.08,12.08 3.85,11.05 3.37,9.54 2.89,8.04 2.88,6.21 2.88,4.38 3.28,3.17 3.69,1.97 4.57,0.79 5.45,-0.38 6.48,-1.13 7.52,-1.87 8.38,-1.96 9.23,-2.06 9.84,-1.76 10.46,-1.45 11.04,-0.74 11.63,-0.03 11.74,0.93 11.84,1.89 11.54,2.60 11.25,3.31 10.63,4.21 10.01,5.10 9.05,6.19 8.09,7.29 6.87,8.33 5.64,9.38 4.26,10.35 2.87,11.33 1.41,12.24 -0.04,13.15 -1.96,13.76 -3.89,14.37 -5.37,14.26 -6.86,14.15 -7.98,13.49 -9.11,12.83 -10.16,11.71 -11.20,10.59 -11.46,9.37 -11.73,8.15 -11.75,6.85 -11.78,5.56 -11.31,4.15 -10.84,2.74 -9.93,1.73 -9.02,0.72 -7.91,-0.08 -6.80,-0.89 -5.69,-1.28 -4.58,-1.66 -3.40,-1.53 -2.22,-1.40 -1.05,-1.02 0.10,-0.64 0.18,-0.62 0.25,-0.60 0.32,-0.56 0.39,-0.52 0.45,-0.46 0.51,-0.41 0.55,-0.34 0.59,-0.27 0.61,-0.20 0.64,-0.12 0.64,-0.04 0.65,0.02 0.64,0.10 0.62,0.18 0.59,0.25 0.56,0.33 0.51,0.39 0.47,0.45 0.41,0.50 0.34,0.55 0.27,0.59 0.20,0.62 0.12,0.63 0.05,0.65 -0.02,0.65 -0.10,0.64 -0.10,0.64 L -0.10,0.64 Z"/></g><g transform="translate(469.7222900390625 77.36111450195312) rotate(0 -1.041656494140625 17.013885498046875)" stroke="none"><path fill="#1e1e1e" d="M 0.65,0 Q 0.65,0 0.84,2.19 1.02,4.39 0.85,6.96 0.68,9.53 0.41,12.61 0.14,15.70 -0.19,19.39 -0.54,23.09 -1.01,26.06 -1.49,29.03 -1.76,31.10 -2.03,33.17 -2.06,33.27 -2.08,33.37 -2.14,33.46 -2.20,33.55 -2.29,33.62 -2.37,33.68 -2.47,33.72 -2.57,33.75 -2.68,33.75 -2.78,33.75 -2.88,33.72 -2.98,33.69 -3.07,33.62 -3.15,33.56 -3.22,33.47 -3.28,33.39 -3.31,33.28 -3.34,33.18 -3.33,33.08 -3.33,32.97 -3.29,32.87 -3.25,32.77 -3.18,32.69 -3.11,32.61 -3.02,32.55 -2.93,32.50 -2.83,32.47 -2.73,32.45 -2.62,32.46 -2.51,32.47 -2.42,32.51 -2.32,32.56 -2.24,32.63 -2.16,32.70 -2.11,32.79 -2.06,32.89 -2.04,32.99 -2.03,33.10 -2.04,33.20 -2.06,33.31 -2.11,33.40 -2.16,33.50 -2.23,33.57 -2.31,33.64 -2.40,33.69 -2.50,33.73 -2.61,33.75 -2.71,33.76 -2.82,33.74 -2.92,33.72 -3.01,33.66 -3.10,33.61 -3.17,33.53 -3.24,33.45 -3.28,33.35 -3.32,33.25 -3.33,33.15 -3.34,33.04 -3.34,33.04 -3.34,33.04 -3.20,30.94 -3.07,28.85 -2.87,25.88 -2.67,22.90 -2.37,19.20 -2.08,15.49 -1.78,12.43 -1.48,9.36 -1.25,6.88 -1.02,4.39 -0.84,2.19 -0.65,0 -0.64,-0.07 -0.63,-0.15 -0.60,-0.23 -0.58,-0.30 -0.53,-0.37 -0.49,-0.43 -0.43,-0.48 -0.37,-0.54 -0.30,-0.57 -0.23,-0.61 -0.15,-0.63 -0.07,-0.65 0.00,-0.65 0.07,-0.65 0.15,-0.63 0.23,-0.61 0.30,-0.57 0.37,-0.54 0.43,-0.48 0.49,-0.43 0.53,-0.37 0.58,-0.30 0.60,-0.23 0.63,-0.15 0.64,-0.07 0.65,0.00 0.65,0.00 L 0.65,0 Z"/></g><g transform="translate(458.61114501953125 80.13888549804688) rotate(0 18.055572509765625 14.930557250976562)" stroke="none"><path fill="#1e1e1e" d="M -0.42,-0.50 Q -0.42,-0.50 0.69,-1.61 1.80,-2.72 4.02,-3.64 6.24,-4.56 8.35,-5.33 10.45,-6.10 12.84,-6.45 15.23,-6.81 17.36,-6.54 19.48,-6.28 21.13,-5.29 22.77,-4.30 23.74,-2.94 24.71,-1.59 24.93,0.53 25.16,2.67 24.81,4.62 24.47,6.58 23.64,7.94 22.82,9.30 21.37,10.35 19.91,11.39 18.61,11.85 17.31,12.30 16.23,12.29 15.15,12.27 14.58,12.26 14.01,12.24 13.97,12.23 13.92,12.23 13.79,12.21 13.66,12.19 13.53,12.14 13.41,12.09 13.30,12.01 13.19,11.93 13.11,11.82 13.02,11.72 12.96,11.60 12.90,11.48 12.87,11.35 12.85,11.22 12.85,11.09 12.85,10.95 12.89,10.82 12.92,10.69 12.99,10.58 13.06,10.46 13.15,10.36 13.24,10.26 13.35,10.19 13.46,10.12 13.59,10.07 13.72,10.03 13.85,10.02 13.98,10.01 15.34,10.00 16.71,10.00 18.49,10.00 20.28,10.00 22.34,10.41 24.41,10.82 26.71,11.61 29.01,12.40 30.88,13.59 32.75,14.77 34.06,16.42 35.37,18.07 35.58,20.38 35.79,22.69 35.01,24.81 34.22,26.92 32.39,28.92 30.55,30.91 27.46,32.59 24.38,34.26 21.41,35.13 18.43,35.99 14.30,36.26 10.18,36.53 10.07,36.52 9.96,36.52 9.86,36.48 9.76,36.45 9.68,36.38 9.60,36.31 9.54,36.22 9.49,36.13 9.46,36.03 9.44,35.93 9.44,35.82 9.45,35.71 9.50,35.62 9.54,35.52 9.61,35.44 9.68,35.36 9.77,35.31 9.87,35.26 9.97,35.24 10.08,35.22 10.18,35.23 10.29,35.25 10.38,35.30 10.48,35.34 10.55,35.42 10.63,35.50 10.67,35.59 10.72,35.69 10.73,35.79 10.75,35.90 10.73,36.00 10.71,36.11 10.65,36.20 10.60,36.29 10.52,36.36 10.44,36.43 10.34,36.47 10.25,36.51 10.14,36.52 10.03,36.53 9.93,36.50 9.83,36.48 9.74,36.42 9.65,36.36 9.58,36.28 9.52,36.20 9.48,36.10 9.44,36.00 9.44,35.89 9.44,35.78 9.47,35.68 9.50,35.58 9.57,35.49 9.63,35.41 9.72,35.35 9.80,35.29 9.90,35.26 10.01,35.22 10.01,35.22 10.01,35.22 13.87,34.45 17.74,33.68 20.45,32.81 23.16,31.95 25.93,30.51 28.69,29.07 30.30,27.49 31.91,25.90 32.65,24.30 33.39,22.70 33.43,20.96 33.47,19.23 32.49,17.92 31.52,16.61 29.90,15.55 28.28,14.48 26.12,13.74 23.96,12.99 22.12,12.60 20.27,12.22 18.49,12.22 16.71,12.22 15.32,12.22 13.92,12.23 13.79,12.21 13.66,12.19 13.53,12.14 13.41,12.09 13.30,12.01 13.19,11.93 13.11,11.82 13.02,11.72 12.96,11.60 12.90,11.48 12.87,11.35 12.85,11.22 12.85,11.09 12.85,10.95 12.89,10.82 12.92,10.69 12.99,10.58 13.06,10.46 13.15,10.36 13.24,10.26 13.35,10.19 13.46,10.12 13.59,10.07 13.72,10.03 13.85,10.02 13.98,10.01 14.03,10.01 14.08,10.02 14.66,10.03 15.25,10.05 15.96,10.11 16.66,10.18 17.67,9.87 18.69,9.56 19.86,8.82 21.03,8.07 21.69,7.10 22.36,6.13 22.68,4.47 23.01,2.81 22.95,1.14 22.89,-0.52 22.23,-1.53 21.58,-2.55 20.35,-3.38 19.13,-4.21 17.31,-4.48 15.50,-4.74 13.31,-4.46 11.13,-4.17 9.05,-3.44 6.97,-2.71 4.97,-1.99 2.98,-1.26 1.70,-0.38 0.42,0.50 0.35,0.54 0.28,0.59 0.21,0.61 0.13,0.64 0.05,0.64 -0.01,0.65 -0.09,0.64 -0.17,0.63 -0.24,0.60 -0.32,0.57 -0.38,0.52 -0.45,0.47 -0.50,0.41 -0.55,0.35 -0.58,0.28 -0.62,0.21 -0.63,0.13 -0.65,0.05 -0.65,-0.01 -0.64,-0.09 -0.62,-0.17 -0.60,-0.25 -0.56,-0.32 -0.52,-0.38 -0.47,-0.44 -0.42,-0.50 -0.42,-0.50 L -0.42,-0.50 Z"/></g><g transform="translate(505.8333740234375 99.58334350585938) rotate(0 -2.4305419921875 6.2499847412109375)" stroke="none"><path fill="#1e1e1e" d="M 0.18,0.63 Q 0.18,0.63 -1.16,1.20 -2.50,1.78 -3.78,2.52 -5.06,3.26 -6.36,4.35 -7.66,5.44 -8.58,6.46 -9.49,7.48 -10.00,8.74 -10.51,10.00 -9.92,10.95 -9.33,11.90 -8.34,11.88 -7.35,11.85 -5.99,11.51 -4.62,11.18 -3.32,10.51 -2.02,9.83 -1.37,8.88 -0.72,7.93 -0.22,6.84 0.27,5.75 -0.09,4.51 -0.46,3.27 -1.30,2.43 -2.15,1.60 -3.22,1.07 -4.28,0.54 -5.60,0.28 -6.93,0.01 -7.04,-0.06 -7.15,-0.14 -7.24,-0.24 -7.33,-0.34 -7.39,-0.47 -7.45,-0.59 -7.48,-0.72 -7.51,-0.85 -7.51,-0.99 -7.51,-1.12 -7.48,-1.26 -7.44,-1.39 -7.38,-1.51 -7.31,-1.63 -7.22,-1.73 -7.13,-1.83 -7.02,-1.91 -6.91,-1.98 -6.78,-2.03 -6.65,-2.08 -6.52,-2.09 -6.38,-2.11 -6.24,-2.09 -6.11,-2.07 -5.98,-2.02 -5.86,-1.97 -4.88,-1.45 -3.91,-0.94 -2.70,-0.62 -1.49,-0.30 -0.27,-0.17 0.95,-0.04 2.40,-0.08 3.85,-0.12 5.33,-0.29 6.81,-0.47 6.92,-0.48 7.02,-0.49 7.13,-0.46 7.23,-0.43 7.32,-0.38 7.41,-0.32 7.47,-0.24 7.54,-0.15 7.58,-0.05 7.61,0.04 7.61,0.14 7.62,0.25 7.59,0.35 7.55,0.45 7.49,0.54 7.43,0.62 7.34,0.69 7.26,0.75 7.15,0.78 7.05,0.81 6.95,0.81 6.84,0.80 6.74,0.76 6.64,0.73 6.56,0.66 6.48,0.59 6.42,0.50 6.36,0.41 6.34,0.31 6.31,0.21 6.32,0.10 6.33,0.00 6.37,-0.09 6.42,-0.19 6.49,-0.27 6.56,-0.35 6.65,-0.40 6.74,-0.45 6.85,-0.47 6.95,-0.49 7.06,-0.47 7.16,-0.46 7.26,-0.41 7.35,-0.36 7.43,-0.29 7.50,-0.21 7.55,-0.12 7.60,-0.02 7.61,0.07 7.62,0.18 7.60,0.28 7.58,0.39 7.53,0.48 7.48,0.57 7.40,0.64 7.32,0.71 7.22,0.75 7.12,0.80 7.12,0.80 7.12,0.80 5.58,1.36 4.03,1.92 2.36,2.16 0.69,2.39 -0.72,2.24 -2.14,2.08 -3.39,1.73 -4.64,1.38 -5.78,0.69 -6.93,0.01 -7.04,-0.06 -7.15,-0.14 -7.24,-0.24 -7.33,-0.34 -7.39,-0.47 -7.45,-0.59 -7.48,-0.72 -7.51,-0.85 -7.51,-0.99 -7.51,-1.12 -7.48,-1.26 -7.44,-1.39 -7.38,-1.51 -7.32,-1.63 -7.22,-1.73 -7.13,-1.83 -7.02,-1.91 -6.91,-1.98 -6.78,-2.03 -6.65,-2.08 -6.52,-2.09 -6.38,-2.11 -6.24,-2.09 -6.11,-2.07 -5.98,-2.02 -5.86,-1.97 -4.56,-1.69 -3.26,-1.41 -1.92,-0.64 -0.58,0.12 0.48,1.39 1.54,2.66 1.91,4.50 2.27,6.34 1.68,7.79 1.08,9.24 0.10,10.53 -0.88,11.81 -2.48,12.63 -4.09,13.46 -5.81,13.82 -7.53,14.18 -9.09,13.92 -10.66,13.65 -11.53,12.61 -12.41,11.56 -12.53,10.43 -12.65,9.30 -11.91,7.64 -11.18,5.99 -10.12,4.86 -9.05,3.72 -7.57,2.56 -6.09,1.40 -4.58,0.60 -3.08,-0.18 -1.63,-0.40 -0.18,-0.63 -0.10,-0.64 -0.02,-0.65 0.05,-0.64 0.13,-0.64 0.20,-0.61 0.28,-0.59 0.35,-0.54 0.41,-0.50 0.47,-0.44 0.52,-0.39 0.56,-0.32 0.60,-0.25 0.62,-0.17 0.64,-0.10 0.65,-0.02 0.65,0.05 0.63,0.13 0.62,0.21 0.58,0.28 0.55,0.35 0.50,0.41 0.45,0.47 0.38,0.52 0.32,0.56 0.25,0.60 0.18,0.63 0.18,0.63 L 0.18,0.63 Z"/></g><g transform="translate(517.6389770507812 78.75) rotate(0 4.166656494140625 18.40277099609375)" stroke="none"><path fill="#1e1e1e" d="M 0.65,-0.08 Q 0.65,-0.08 1.14,1.47 1.64,3.04 1.54,5.82 1.44,8.60 0.80,13.19 0.16,17.79 -0.10,21.27 -0.37,24.75 -0.69,27.28 -1.00,29.80 -1.14,31.62 -1.27,33.45 -1.16,34.26 -1.04,35.08 -0.13,35.48 0.78,35.89 1.68,35.42 2.58,34.96 4.21,33.99 5.85,33.03 7.11,32.05 8.37,31.07 9.04,30.33 9.71,29.58 9.91,28.89 10.11,28.20 9.85,27.53 9.58,26.86 9.04,26.29 8.50,25.73 6.87,25.33 5.24,24.92 3.54,24.66 1.84,24.39 -0.25,24.57 -2.36,24.76 -2.47,24.76 -2.57,24.76 -2.67,24.73 -2.78,24.70 -2.86,24.64 -2.95,24.58 -3.01,24.49 -3.07,24.40 -3.10,24.30 -3.13,24.20 -3.13,24.09 -3.13,23.99 -3.09,23.89 -3.05,23.79 -2.99,23.71 -2.92,23.62 -2.83,23.57 -2.74,23.51 -2.64,23.48 -2.54,23.46 -2.43,23.47 -2.32,23.48 -2.23,23.52 -2.13,23.56 -2.05,23.63 -1.97,23.70 -1.92,23.79 -1.87,23.89 -1.85,23.99 -1.83,24.09 -1.84,24.20 -1.86,24.31 -1.90,24.40 -1.95,24.50 -2.03,24.57 -2.10,24.65 -2.20,24.69 -2.29,24.74 -2.40,24.75 -2.50,24.77 -2.61,24.75 -2.71,24.73 -2.80,24.68 -2.90,24.62 -2.97,24.54 -3.04,24.47 -3.08,24.37 -3.12,24.27 -3.13,24.16 -3.14,24.06 -3.11,23.96 -3.09,23.85 -3.03,23.76 -2.97,23.67 -2.89,23.61 -2.81,23.54 -2.71,23.50 -2.61,23.47 -2.61,23.47 -2.61,23.47 -0.25,22.80 2.10,22.12 4.01,22.33 5.92,22.53 8.09,23.23 10.26,23.92 11.14,25.01 12.01,26.10 12.27,27.44 12.53,28.78 12.08,30.00 11.63,31.21 10.77,32.14 9.92,33.06 8.52,34.14 7.12,35.21 5.32,36.26 3.52,37.31 1.98,37.82 0.44,38.33 -0.90,37.88 -2.24,37.44 -2.89,36.52 -3.54,35.59 -3.71,34.43 -3.87,33.27 -3.74,31.37 -3.61,29.47 -3.29,27.01 -2.98,24.55 -2.69,20.98 -2.41,17.42 -1.76,12.95 -1.10,8.48 -0.97,5.91 -0.84,3.34 -0.75,1.71 -0.65,0.08 -0.65,0.00 -0.65,-0.07 -0.63,-0.15 -0.61,-0.23 -0.57,-0.30 -0.54,-0.37 -0.48,-0.43 -0.43,-0.48 -0.37,-0.53 -0.30,-0.58 -0.23,-0.60 -0.15,-0.63 -0.08,-0.64 -0.00,-0.65 0.07,-0.64 0.15,-0.63 0.22,-0.61 0.30,-0.58 0.36,-0.53 0.43,-0.49 0.48,-0.43 0.53,-0.37 0.57,-0.30 0.61,-0.23 0.63,-0.15 0.65,-0.08 0.65,-0.08 L 0.65,-0.08 Z"/></g><g transform="translate(272.50006103515625 323.1944274902344) rotate(0 3.47222900390625 17.013885498046875)" stroke="none"><path fill="#1e1e1e" d="M 0.64,0.10 Q 0.64,0.10 0.68,1.34 0.72,2.58 0.24,4.35 -0.24,6.12 -1.03,8.86 -1.83,11.59 -2.76,14.37 -3.70,17.15 -4.69,19.93 -5.68,22.72 -6.29,24.67 -6.89,26.62 -7.13,27.96 -7.37,29.29 -7.20,29.89 -7.03,30.50 -5.93,30.81 -4.83,31.13 -2.62,31.51 -0.42,31.89 1.83,31.85 4.09,31.82 6.44,31.63 8.79,31.45 10.29,31.06 11.79,30.67 13.42,30.43 15.05,30.19 15.16,30.17 15.26,30.15 15.37,30.16 15.47,30.18 15.57,30.22 15.66,30.27 15.74,30.35 15.81,30.42 15.86,30.52 15.91,30.61 15.92,30.72 15.94,30.82 15.92,30.92 15.90,31.03 15.85,31.12 15.80,31.21 15.72,31.29 15.64,31.36 15.54,31.40 15.44,31.44 15.34,31.45 15.23,31.46 15.13,31.43 15.02,31.41 14.94,31.35 14.85,31.30 14.78,31.21 14.71,31.13 14.67,31.03 14.64,30.93 14.63,30.83 14.63,30.72 14.66,30.62 14.69,30.52 14.75,30.43 14.82,30.34 14.90,30.28 14.99,30.22 15.09,30.19 15.19,30.15 15.30,30.16 15.40,30.16 15.50,30.20 15.60,30.23 15.69,30.30 15.77,30.36 15.83,30.45 15.88,30.54 15.91,30.65 15.94,30.75 15.93,30.86 15.92,30.96 15.88,31.06 15.84,31.16 15.77,31.24 15.70,31.32 15.60,31.37 15.51,31.42 15.51,31.42 15.51,31.42 14.03,32.33 12.56,33.25 10.80,33.83 9.05,34.41 6.57,34.63 4.09,34.84 1.55,34.81 -0.98,34.78 -3.50,34.22 -6.01,33.67 -7.55,32.72 -9.09,31.78 -9.49,30.36 -9.89,28.95 -9.60,27.40 -9.31,25.86 -8.67,23.87 -8.02,21.87 -7.01,19.12 -6.00,16.36 -5.06,13.64 -4.12,10.91 -3.30,8.20 -2.49,5.49 -2.00,3.84 -1.52,2.20 -1.08,1.04 -0.64,-0.10 -0.62,-0.18 -0.60,-0.25 -0.56,-0.32 -0.52,-0.39 -0.46,-0.45 -0.41,-0.51 -0.34,-0.55 -0.27,-0.59 -0.20,-0.61 -0.12,-0.64 -0.04,-0.64 0.02,-0.65 0.10,-0.64 0.18,-0.62 0.25,-0.59 0.33,-0.56 0.39,-0.51 0.45,-0.47 0.50,-0.41 0.55,-0.34 0.59,-0.27 0.62,-0.20 0.63,-0.12 0.65,-0.05 0.65,0.02 0.64,0.10 0.64,0.10 L 0.64,0.10 Z"/></g><g transform="translate(268.3333740234375 346.1111145019531) rotate(0 5.902801513671875 -2.430572509765625)" stroke="none"><path fill="#1e1e1e" d="M -0.26,-0.60 Q -0.26,-0.60 1.39,-1.69 3.05,-2.79 4.37,-3.51 5.68,-4.23 8.38,-4.79 11.08,-5.36 11.19,-5.37 11.29,-5.37 11.40,-5.35 11.50,-5.32 11.59,-5.26 11.68,-5.21 11.74,-5.12 11.81,-5.04 11.84,-4.94 11.88,-4.84 11.88,-4.73 11.89,-4.63 11.85,-4.53 11.82,-4.42 11.76,-4.34 11.70,-4.25 11.61,-4.19 11.52,-4.13 11.42,-4.10 11.32,-4.07 11.21,-4.07 11.11,-4.07 11.01,-4.11 10.91,-4.15 10.83,-4.22 10.74,-4.28 10.69,-4.37 10.63,-4.46 10.61,-4.57 10.58,-4.67 10.59,-4.78 10.60,-4.88 10.64,-4.98 10.68,-5.08 10.76,-5.15 10.83,-5.23 10.92,-5.28 11.01,-5.34 11.12,-5.36 11.22,-5.38 11.33,-5.36 11.43,-5.35 11.53,-5.30 11.62,-5.25 11.70,-5.17 11.77,-5.10 11.82,-5.00 11.86,-4.91 11.88,-4.80 11.89,-4.70 11.87,-4.59 11.85,-4.49 11.80,-4.40 11.74,-4.30 11.66,-4.23 11.59,-4.16 11.49,-4.12 11.39,-4.08 11.39,-4.08 11.39,-4.08 9.17,-2.99 6.94,-1.91 5.53,-1.15 4.12,-0.39 2.19,0.10 0.26,0.60 0.19,0.62 0.11,0.64 0.03,0.65 -0.04,0.65 -0.12,0.64 -0.19,0.62 -0.27,0.59 -0.34,0.56 -0.40,0.51 -0.46,0.46 -0.51,0.39 -0.56,0.33 -0.59,0.26 -0.62,0.19 -0.64,0.11 -0.65,0.03 -0.65,-0.04 -0.64,-0.12 -0.62,-0.19 -0.59,-0.27 -0.55,-0.33 -0.51,-0.40 -0.45,-0.46 -0.40,-0.51 -0.33,-0.55 -0.26,-0.60 -0.26,-0.60 L -0.26,-0.60 Z"/></g><g transform="translate(267.63897705078125 325.2777404785156) rotate(0 10.763885498046875 -1.388885498046875)" stroke="none"><path fill="#1e1e1e" d="M -0.05,-0.65 Q -0.05,-0.65 2.11,-1.09 4.28,-1.52 6.33,-2.03 8.38,-2.54 10.29,-2.96 12.20,-3.38 14.71,-3.39 17.21,-3.39 18.96,-3.39 20.72,-3.38 20.82,-3.37 20.93,-3.36 21.02,-3.32 21.12,-3.27 21.20,-3.20 21.28,-3.13 21.33,-3.03 21.38,-2.94 21.39,-2.84 21.41,-2.73 21.39,-2.63 21.38,-2.52 21.33,-2.43 21.28,-2.33 21.20,-2.26 21.13,-2.19 21.03,-2.14 20.93,-2.10 20.83,-2.08 20.72,-2.07 20.62,-2.09 20.52,-2.12 20.42,-2.17 20.33,-2.22 20.26,-2.30 20.19,-2.39 20.15,-2.48 20.11,-2.58 20.11,-2.69 20.10,-2.79 20.13,-2.90 20.16,-3.00 20.22,-3.09 20.28,-3.18 20.36,-3.24 20.44,-3.31 20.54,-3.34 20.65,-3.37 20.75,-3.37 20.86,-3.38 20.96,-3.34 21.06,-3.31 21.14,-3.24 21.23,-3.18 21.29,-3.09 21.35,-3.01 21.38,-2.90 21.41,-2.80 21.40,-2.70 21.40,-2.59 21.36,-2.49 21.32,-2.39 21.25,-2.31 21.18,-2.23 21.09,-2.17 21.00,-2.12 20.90,-2.09 20.79,-2.07 20.79,-2.07 20.79,-2.07 19.06,-1.86 17.33,-1.65 15.02,-1.31 12.71,-0.96 10.82,-0.58 8.92,-0.19 6.70,0.26 4.49,0.72 2.27,0.69 0.05,0.65 -0.01,0.65 -0.09,0.64 -0.17,0.62 -0.25,0.60 -0.32,0.56 -0.38,0.52 -0.44,0.47 -0.50,0.42 -0.54,0.35 -0.59,0.28 -0.61,0.21 -0.64,0.13 -0.64,0.05 -0.65,-0.01 -0.64,-0.09 -0.63,-0.17 -0.60,-0.24 -0.57,-0.32 -0.52,-0.38 -0.47,-0.45 -0.41,-0.50 -0.35,-0.55 -0.28,-0.58 -0.21,-0.62 -0.13,-0.63 -0.05,-0.65 -0.05,-0.65 L -0.05,-0.65 Z"/></g><g transform="translate(292.63897705078125 339.8611145019531) rotate(0 9.02777099609375 6.944427490234375)" stroke="none"><path fill="#1e1e1e" d="M 0.60,-0.26 Q 0.60,-0.26 1.67,1.40 2.75,3.08 3.51,4.84 4.27,6.61 4.99,8.13 5.71,9.65 6.20,10.44 6.69,11.23 7.40,10.61 8.12,9.98 9.42,8.28 10.71,6.57 11.92,5.05 13.12,3.52 14.99,1.94 16.87,0.35 16.95,0.29 17.03,0.22 17.13,0.18 17.23,0.14 17.33,0.14 17.44,0.13 17.54,0.16 17.64,0.19 17.73,0.25 17.82,0.31 17.88,0.40 17.94,0.49 17.98,0.59 18.01,0.69 18.01,0.79 18.01,0.90 17.97,1.00 17.94,1.10 17.87,1.18 17.81,1.27 17.72,1.33 17.63,1.38 17.52,1.41 17.42,1.44 17.32,1.43 17.21,1.42 17.11,1.38 17.01,1.34 16.93,1.27 16.85,1.20 16.80,1.11 16.75,1.02 16.73,0.92 16.70,0.81 16.72,0.71 16.73,0.60 16.78,0.50 16.82,0.41 16.90,0.33 16.97,0.26 17.06,0.21 17.16,0.16 17.26,0.14 17.37,0.13 17.47,0.15 17.58,0.17 17.67,0.22 17.77,0.27 17.84,0.35 17.91,0.42 17.95,0.52 18.00,0.62 18.01,0.72 18.02,0.83 17.99,0.93 17.97,1.04 17.91,1.13 17.85,1.22 17.85,1.22 17.85,1.22 16.60,3.21 15.34,5.21 14.19,6.79 13.04,8.36 11.63,10.19 10.21,12.01 9.08,13.04 7.95,14.06 7.06,14.14 6.17,14.21 5.24,13.41 4.32,12.62 3.80,11.69 3.28,10.77 2.57,9.19 1.87,7.62 1.15,5.86 0.44,4.10 -0.07,2.18 -0.60,0.26 -0.62,0.19 -0.64,0.11 -0.65,0.03 -0.65,-0.04 -0.64,-0.12 -0.62,-0.19 -0.59,-0.27 -0.56,-0.34 -0.51,-0.40 -0.46,-0.46 -0.39,-0.51 -0.33,-0.56 -0.26,-0.59 -0.19,-0.62 -0.11,-0.64 -0.03,-0.65 0.04,-0.65 0.12,-0.64 0.19,-0.62 0.27,-0.59 0.33,-0.55 0.40,-0.51 0.46,-0.45 0.51,-0.40 0.55,-0.33 0.60,-0.26 0.60,-0.26 L 0.60,-0.26 Z"/></g><g transform="translate(310.00006103515625 350.2777404785156) rotate(0 16.3194580078125 -5.555511474609375)" stroke="none"><path fill="#1e1e1e" d="M 0,-0.65 Q 0,-0.65 1.59,-0.94 3.18,-1.23 4.71,-1.64 6.24,-2.05 7.60,-2.78 8.96,-3.52 10.47,-4.77 11.98,-6.03 12.73,-7.24 13.49,-8.45 13.80,-9.40 14.11,-10.36 12.98,-9.70 11.85,-9.05 11.29,-7.23 10.72,-5.41 10.77,-3.94 10.83,-2.47 12.01,-1.65 13.20,-0.84 15.24,-0.84 17.28,-0.84 20.92,-2.13 24.56,-3.43 27.76,-4.80 30.96,-6.17 31.06,-6.20 31.16,-6.23 31.27,-6.23 31.37,-6.22 31.47,-6.18 31.57,-6.15 31.65,-6.08 31.73,-6.01 31.79,-5.92 31.85,-5.83 31.87,-5.73 31.89,-5.62 31.88,-5.52 31.87,-5.41 31.83,-5.31 31.79,-5.22 31.71,-5.14 31.64,-5.06 31.55,-5.01 31.45,-4.96 31.35,-4.94 31.25,-4.92 31.14,-4.94 31.04,-4.96 30.94,-5.00 30.85,-5.05 30.77,-5.13 30.70,-5.21 30.65,-5.30 30.61,-5.40 30.59,-5.50 30.58,-5.61 30.60,-5.71 30.63,-5.82 30.68,-5.91 30.73,-6.00 30.81,-6.07 30.89,-6.14 30.99,-6.18 31.09,-6.22 31.20,-6.23 31.30,-6.23 31.40,-6.21 31.51,-6.18 31.60,-6.12 31.68,-6.06 31.75,-5.98 31.82,-5.89 31.85,-5.79 31.89,-5.69 31.89,-5.59 31.89,-5.48 31.85,-5.38 31.82,-5.28 31.76,-5.19 31.70,-5.11 31.61,-5.05 31.52,-4.99 31.52,-4.99 31.52,-4.99 28.39,-3.34 25.26,-1.70 21.26,0.10 17.26,1.90 14.49,1.68 11.72,1.46 10.05,-0.11 8.37,-1.69 8.26,-3.98 8.15,-6.26 9.09,-8.59 10.02,-10.92 11.68,-12.15 13.34,-13.38 14.54,-13.03 15.73,-12.68 16.21,-11.22 16.70,-9.76 16.25,-8.36 15.79,-6.96 14.76,-5.45 13.72,-3.93 11.95,-2.54 10.18,-1.14 8.51,-0.34 6.85,0.45 5.02,0.84 3.20,1.23 1.60,0.94 0,0.65 -0.07,0.64 -0.15,0.63 -0.23,0.60 -0.30,0.58 -0.37,0.53 -0.43,0.49 -0.48,0.43 -0.54,0.37 -0.57,0.30 -0.61,0.23 -0.63,0.15 -0.65,0.07 -0.65,-0.00 -0.65,-0.07 -0.63,-0.15 -0.61,-0.23 -0.57,-0.30 -0.54,-0.37 -0.48,-0.43 -0.43,-0.49 -0.37,-0.53 -0.30,-0.58 -0.23,-0.60 -0.15,-0.63 -0.07,-0.64 0.00,-0.65 0.00,-0.65 L 0,-0.65 Z"/></g><g transform="translate(221.1112060546875 41.9444580078125) rotate(0 -4.16668701171875 4.8610992431640625)" stroke="none"><path fill="#1e1e1e" d="M -0.54,0.36 Q -0.54,0.36 -1.09,-0.04 -1.63,-0.45 -2.84,-0.37 -4.04,-0.29 -4.85,0.10 -5.66,0.50 -6.79,1.24 -7.92,1.98 -8.78,2.67 -9.64,3.36 -10.09,4.12 -10.55,4.89 -10.73,5.46 -10.91,6.03 -10.64,6.60 -10.36,7.18 -9.41,7.91 -8.45,8.65 -7.16,9.16 -5.86,9.67 -4.26,9.70 -2.66,9.73 0.39,9.45 3.46,9.17 3.56,9.17 3.67,9.17 3.77,9.20 3.87,9.24 3.95,9.30 4.04,9.36 4.10,9.45 4.16,9.54 4.19,9.64 4.22,9.74 4.21,9.85 4.20,9.96 4.16,10.06 4.13,10.15 4.06,10.24 3.99,10.32 3.90,10.37 3.81,10.43 3.70,10.45 3.60,10.47 3.49,10.46 3.39,10.45 3.29,10.40 3.19,10.36 3.12,10.29 3.04,10.21 2.99,10.12 2.94,10.03 2.92,9.92 2.91,9.82 2.92,9.71 2.94,9.61 2.99,9.51 3.04,9.42 3.12,9.35 3.19,9.27 3.29,9.23 3.39,9.18 3.49,9.17 3.60,9.16 3.70,9.18 3.80,9.21 3.90,9.26 3.99,9.32 4.06,9.40 4.12,9.48 4.16,9.58 4.20,9.67 4.21,9.78 4.22,9.89 4.19,9.99 4.16,10.09 4.10,10.18 4.04,10.27 3.96,10.33 3.87,10.40 3.77,10.43 3.67,10.46 3.67,10.46 3.67,10.46 0.47,11.37 -2.73,12.28 -4.77,12.19 -6.82,12.09 -8.48,11.35 -10.14,10.62 -11.43,9.37 -12.71,8.11 -13.03,6.82 -13.34,5.53 -13.02,4.53 -12.70,3.52 -11.97,2.46 -11.25,1.41 -10.27,0.63 -9.29,-0.13 -7.98,-0.96 -6.68,-1.79 -5.50,-2.27 -4.32,-2.75 -3.16,-2.80 -1.99,-2.86 -0.97,-2.40 0.04,-1.93 0.29,-1.15 0.54,-0.36 0.58,-0.29 0.61,-0.22 0.63,-0.14 0.65,-0.06 0.65,0.01 0.65,0.08 0.63,0.16 0.61,0.24 0.57,0.31 0.53,0.38 0.48,0.44 0.42,0.49 0.36,0.54 0.29,0.58 0.22,0.61 0.14,0.64 0.06,0.64 -0.01,0.65 -0.08,0.64 -0.16,0.63 -0.24,0.60 -0.31,0.57 -0.37,0.53 -0.44,0.48 -0.49,0.42 -0.54,0.36 -0.54,0.36 L -0.54,0.36 Z"/></g><g transform="translate(232.2222900390625 44.72222900390625) rotate(0 35.069427490234375 1.041656494140625)" stroke="none"><path fill="#1e1e1e" d="M -0.20,0.62 Q -0.20,0.62 -0.85,0.59 -1.51,0.55 -2.25,0.52 -3.00,0.49 -3.78,0.65 -4.57,0.81 -5.15,1.38 -5.72,1.96 -6.62,2.80 -7.52,3.65 -7.79,4.37 -8.06,5.08 -7.26,5.56 -6.47,6.04 -5.47,6.16 -4.48,6.28 -3.26,5.59 -2.04,4.89 -1.14,4.06 -0.23,3.23 0.31,2.57 0.86,1.91 0.82,1.29 0.79,0.66 0.49,0.16 0.20,-0.34 -0.37,-0.67 -0.95,-1.00 -1.93,-1.36 -2.90,-1.71 -3.57,-1.66 -4.23,-1.61 -4.97,-1.62 -5.70,-1.62 -4.85,-1.85 -4.00,-2.07 -3.05,-2.03 -2.10,-1.98 -1.00,-2.16 0.10,-2.34 1.38,-2.61 2.66,-2.88 3.88,-3.01 5.10,-3.14 6.02,-3.20 6.94,-3.25 7.75,-3.28 8.56,-3.30 9.35,-3.05 10.14,-2.80 10.63,-2.32 11.12,-1.84 11.34,-1.06 11.56,-0.27 11.40,0.77 11.25,1.82 10.96,2.66 10.67,3.51 10.30,4.14 9.94,4.78 9.61,5.23 9.29,5.69 9.22,5.84 9.16,5.99 9.06,6.11 8.96,6.24 8.83,6.34 8.70,6.44 8.55,6.50 8.40,6.57 8.25,6.60 8.09,6.63 7.93,6.61 7.76,6.60 7.61,6.56 7.46,6.51 7.32,6.42 7.18,6.34 7.07,6.22 6.95,6.11 6.87,5.97 6.79,5.83 6.74,5.68 6.69,5.52 6.68,5.36 6.68,5.20 6.71,5.04 6.74,4.88 7.36,3.94 7.98,3.00 8.83,2.06 9.67,1.12 10.42,0.34 11.17,-0.43 11.72,-0.98 12.26,-1.52 13.15,-1.89 14.04,-2.26 14.98,-2.03 15.92,-1.80 16.39,-1.13 16.86,-0.46 17.00,0.52 17.14,1.51 16.96,2.29 16.78,3.06 16.71,3.49 16.64,3.92 16.58,4.07 16.51,4.21 16.41,4.34 16.32,4.46 16.19,4.56 16.07,4.66 15.92,4.73 15.78,4.79 15.62,4.82 15.46,4.85 15.30,4.84 15.14,4.84 14.99,4.79 14.84,4.74 14.70,4.66 14.56,4.58 14.45,4.46 14.34,4.35 14.25,4.22 14.17,4.08 14.12,3.93 14.07,3.77 14.06,3.62 14.05,3.46 14.08,3.30 14.11,3.14 14.94,2.20 15.76,1.25 16.32,0.51 16.88,-0.22 17.57,-1.00 18.26,-1.78 18.76,-2.30 19.26,-2.83 19.81,-3.16 20.36,-3.49 21.20,-3.73 22.04,-3.97 22.59,-3.68 23.15,-3.38 23.47,-2.78 23.79,-2.18 23.70,-1.33 23.60,-0.49 23.57,0.04 23.54,0.57 23.52,1.20 23.51,1.84 23.49,2.67 23.47,3.50 23.95,3.06 24.43,2.62 24.90,2.21 25.37,1.80 25.99,1.22 26.62,0.64 27.28,-0.00 27.95,-0.65 28.36,-1.24 28.77,-1.83 29.29,-2.74 29.81,-3.66 30.28,-3.95 30.75,-4.25 31.33,-4.57 31.90,-4.89 32.48,-4.64 33.06,-4.40 33.39,-3.73 33.72,-3.06 33.89,-1.66 34.07,-0.27 34.03,0.60 34.00,1.47 33.76,2.40 33.52,3.34 33.22,4.07 32.93,4.81 32.87,4.95 32.81,5.10 32.72,5.22 32.63,5.35 32.51,5.45 32.39,5.55 32.25,5.62 32.11,5.69 31.95,5.73 31.80,5.76 31.64,5.75 31.49,5.75 31.33,5.71 31.18,5.67 31.05,5.59 30.91,5.51 30.79,5.41 30.68,5.30 30.59,5.17 30.51,5.04 30.46,4.89 30.40,4.74 30.39,4.59 30.37,4.43 30.40,4.27 30.42,4.12 31.02,3.70 31.62,3.29 32.29,2.10 32.97,0.91 33.41,0.41 33.86,-0.09 34.44,-0.57 35.02,-1.06 35.85,-1.07 36.67,-1.07 37.13,-0.67 37.58,-0.26 37.75,0.46 37.92,1.19 37.71,2.33 37.49,3.46 37.41,3.83 37.32,4.19 37.24,4.31 37.16,4.43 37.05,4.53 36.94,4.63 36.81,4.70 36.68,4.78 36.54,4.81 36.39,4.85 36.24,4.85 36.10,4.86 35.95,4.82 35.81,4.79 35.67,4.72 35.54,4.66 35.43,4.56 35.32,4.46 35.23,4.34 35.14,4.22 35.09,4.08 35.03,3.95 35.01,3.80 34.99,3.65 35.01,3.51 35.03,3.36 35.08,3.22 35.13,3.08 35.58,2.52 36.03,1.97 36.70,1.48 37.37,0.99 37.90,0.33 38.43,-0.31 39.19,-0.92 39.96,-1.52 40.43,-1.93 40.89,-2.33 41.55,-2.60 42.20,-2.87 42.95,-2.71 43.70,-2.55 44.10,-2.10 44.50,-1.65 44.70,-0.52 44.89,0.60 44.67,1.26 44.45,1.93 44.33,2.60 44.22,3.27 44.89,2.86 45.56,2.46 45.98,2.08 46.41,1.71 46.98,1.17 47.55,0.62 48.14,-0.14 48.73,-0.91 49.17,-1.62 49.61,-2.32 50.10,-3.28 50.59,-4.25 50.70,-4.64 50.82,-5.03 50.92,-5.15 51.02,-5.27 51.15,-5.36 51.28,-5.45 51.43,-5.51 51.58,-5.56 51.73,-5.58 51.89,-5.60 52.04,-5.59 52.20,-5.57 52.35,-5.51 52.50,-5.46 52.63,-5.37 52.76,-5.28 52.86,-5.16 52.97,-5.05 53.04,-4.91 53.12,-4.77 53.16,-4.62 53.20,-4.46 53.20,-4.31 53.20,-4.15 53.16,-4.00 53.12,-3.84 53.05,-3.70 52.98,-3.56 52.59,-3.12 52.20,-2.68 51.95,-2.02 51.69,-1.35 51.60,-0.57 51.51,0.20 51.46,1.14 51.41,2.07 51.38,2.88 51.36,3.68 51.82,3.23 52.27,2.78 52.89,1.98 53.51,1.17 54.17,0.22 54.84,-0.71 55.28,-1.63 55.71,-2.55 56.12,-3.38 56.53,-4.22 56.78,-4.80 57.03,-5.39 56.98,-5.30 56.94,-5.21 57.01,-5.35 57.08,-5.50 57.18,-5.63 57.28,-5.75 57.40,-5.85 57.53,-5.95 57.68,-6.02 57.82,-6.08 57.98,-6.11 58.14,-6.14 58.30,-6.13 58.46,-6.12 58.62,-6.07 58.77,-6.02 58.91,-5.94 59.05,-5.86 59.16,-5.74 59.28,-5.63 59.36,-5.49 59.44,-5.35 59.49,-5.20 59.54,-5.04 59.55,-4.88 59.56,-4.72 59.53,-4.56 59.50,-4.40 59.06,-3.08 58.63,-1.75 58.32,-0.55 58.01,0.63 57.89,1.45 57.77,2.28 58.75,1.83 59.74,1.38 60.55,0.84 61.36,0.31 61.83,-0.05 62.30,-0.43 63.07,-0.86 63.83,-1.29 64.88,-1.14 65.93,-0.99 66.40,-0.30 66.88,0.37 66.80,1.27 66.73,2.18 66.58,2.71 66.43,3.25 66.70,3.62 66.97,3.99 66.94,4.14 66.92,4.29 66.85,4.43 66.79,4.58 66.70,4.70 66.60,4.82 66.48,4.92 66.36,5.01 66.22,5.08 66.08,5.14 65.92,5.17 65.77,5.20 65.62,5.19 65.46,5.18 65.31,5.14 65.16,5.09 65.03,5.01 64.90,4.94 64.79,4.83 64.68,4.72 64.60,4.59 64.52,4.45 64.47,4.31 64.42,4.16 64.41,4.00 64.40,3.85 64.84,3.14 65.28,2.43 65.83,1.87 66.38,1.31 67.10,0.80 67.82,0.30 68.42,-0.08 69.03,-0.48 69.86,-0.22 70.69,0.02 70.97,0.62 71.25,1.22 71.82,1.41 72.39,1.61 73.27,1.09 74.15,0.57 74.67,0.12 75.20,-0.33 75.66,-0.74 76.12,-1.15 76.64,-1.40 77.16,-1.66 77.39,-1.99 77.61,-2.31 77.78,-2.37 77.95,-2.42 78.13,-2.43 78.30,-2.44 78.48,-2.41 78.65,-2.38 78.81,-2.30 78.98,-2.23 79.11,-2.12 79.25,-2.01 79.36,-1.87 79.47,-1.73 79.54,-1.57 79.62,-1.41 79.65,-1.24 79.68,-1.06 79.67,-0.89 79.66,-0.71 79.61,-0.54 79.55,-0.37 79.46,-0.22 79.37,-0.07 79.24,0.05 79.12,0.17 78.97,0.26 78.82,0.35 79.32,-0.21 79.83,-0.78 79.89,-0.12 79.95,0.53 80.01,1.67 80.06,2.82 80.14,2.89 80.22,2.96 80.27,3.06 80.33,3.15 80.34,3.25 80.36,3.36 80.35,3.46 80.33,3.57 80.29,3.66 80.24,3.76 80.16,3.83 80.09,3.91 79.99,3.95 79.90,4.00 79.79,4.01 79.69,4.03 79.58,4.01 79.48,3.99 79.39,3.93 79.29,3.88 79.22,3.80 79.15,3.72 79.11,3.62 79.07,3.53 79.06,3.42 79.05,3.31 79.08,3.21 79.11,3.11 79.16,3.02 79.22,2.93 79.30,2.86 79.39,2.80 79.49,2.76 79.59,2.73 79.69,2.72 79.80,2.72 79.90,2.75 80.00,2.78 80.09,2.85 80.17,2.91 80.24,3.00 80.30,3.08 80.33,3.18 80.36,3.29 80.36,3.39 80.35,3.50 80.31,3.60 80.28,3.70 80.21,3.78 80.14,3.86 80.05,3.92 79.96,3.98 79.86,4.00 79.76,4.03 79.65,4.02 79.55,4.01 79.45,3.96 79.35,3.92 79.35,3.92 79.35,3.92 78.12,1.94 76.89,-0.04 77.25,-1.18 77.61,-2.31 77.78,-2.37 77.95,-2.42 78.13,-2.43 78.30,-2.44 78.48,-2.41 78.65,-2.38 78.81,-2.30 78.98,-2.23 79.11,-2.12 79.25,-2.01 79.36,-1.87 79.47,-1.73 79.54,-1.57 79.62,-1.41 79.65,-1.24 79.68,-1.06 79.67,-0.89 79.66,-0.71 79.61,-0.54 79.55,-0.37 79.46,-0.22 79.37,-0.07 79.24,0.05 79.12,0.17 78.97,0.26 78.82,0.35 78.42,0.69 78.02,1.02 77.52,1.46 77.03,1.90 76.25,2.50 75.48,3.11 74.90,3.40 74.32,3.70 73.67,4.02 73.03,4.34 72.10,4.45 71.18,4.56 70.36,4.17 69.55,3.77 69.17,3.08 68.79,2.39 68.89,1.82 69.00,1.25 69.12,1.80 69.23,2.35 68.71,2.70 68.18,3.05 67.58,3.52 66.97,3.99 66.94,4.14 66.92,4.29 66.85,4.43 66.79,4.58 66.70,4.70 66.60,4.82 66.48,4.92 66.36,5.01 66.22,5.08 66.08,5.14 65.92,5.17 65.77,5.20 65.62,5.19 65.46,5.18 65.31,5.14 65.17,5.09 65.03,5.01 64.90,4.94 64.79,4.83 64.68,4.72 64.60,4.59 64.52,4.45 64.47,4.31 64.42,4.16 64.41,4.00 64.40,3.85 64.29,3.89 64.18,3.92 64.11,3.30 64.05,2.67 64.46,1.84 64.88,1.01 64.41,1.32 63.93,1.63 63.37,2.08 62.80,2.52 62.12,2.97 61.43,3.42 60.43,4.20 59.43,4.99 58.68,5.25 57.93,5.50 57.32,5.35 56.72,5.21 56.08,4.42 55.44,3.62 55.28,2.79 55.12,1.96 55.27,0.96 55.41,-0.03 55.73,-1.25 56.05,-2.48 56.50,-3.84 56.94,-5.21 57.01,-5.35 57.08,-5.50 57.18,-5.63 57.28,-5.75 57.40,-5.85 57.53,-5.95 57.68,-6.02 57.82,-6.08 57.98,-6.11 58.14,-6.14 58.30,-6.13 58.46,-6.12 58.62,-6.07 58.77,-6.02 58.91,-5.94 59.05,-5.86 59.16,-5.74 59.27,-5.63 59.36,-5.49 59.44,-5.35 59.49,-5.20 59.54,-5.04 59.55,-4.88 59.56,-4.72 59.53,-4.56 59.50,-4.40 59.21,-3.72 58.92,-3.05 58.51,-2.22 58.10,-1.39 57.56,-0.29 57.01,0.80 56.31,1.79 55.61,2.79 54.88,3.72 54.16,4.66 53.22,5.45 52.29,6.25 51.32,6.32 50.34,6.39 49.68,5.85 49.01,5.31 48.86,4.46 48.70,3.60 48.72,2.76 48.75,1.92 48.81,0.87 48.87,-0.17 49.05,-1.24 49.22,-2.32 49.59,-3.21 49.95,-4.09 50.38,-4.56 50.82,-5.03 50.92,-5.15 51.02,-5.27 51.15,-5.36 51.28,-5.45 51.43,-5.51 51.58,-5.56 51.73,-5.58 51.89,-5.60 52.04,-5.59 52.20,-5.57 52.35,-5.51 52.50,-5.46 52.63,-5.37 52.76,-5.28 52.86,-5.16 52.97,-5.05 53.04,-4.91 53.12,-4.77 53.16,-4.62 53.20,-4.46 53.20,-4.31 53.20,-4.15 53.16,-4.00 53.13,-3.84 53.05,-3.70 52.98,-3.56 52.62,-2.90 52.26,-2.23 52.00,-1.61 51.75,-0.99 51.23,-0.18 50.72,0.62 50.00,1.53 49.29,2.44 48.67,3.03 48.05,3.61 47.56,4.04 47.07,4.46 46.27,5.01 45.48,5.57 44.63,5.69 43.78,5.82 43.16,5.25 42.54,4.69 42.26,4.21 41.98,3.74 41.96,3.09 41.94,2.44 42.23,1.52 42.51,0.61 42.45,0.01 42.39,-0.58 41.89,-0.13 41.39,0.30 40.81,0.74 40.23,1.19 39.49,2.06 38.76,2.93 38.04,3.56 37.32,4.19 37.24,4.31 37.16,4.43 37.05,4.53 36.94,4.63 36.81,4.70 36.68,4.78 36.54,4.81 36.39,4.85 36.24,4.85 36.10,4.86 35.95,4.82 35.81,4.79 35.67,4.72 35.54,4.66 35.43,4.56 35.32,4.46 35.23,4.34 35.14,4.22 35.09,4.08 35.03,3.95 35.01,3.80 34.99,3.65 35.01,3.51 35.03,3.36 35.08,3.22 35.13,3.08 35.41,2.30 35.70,1.52 35.29,1.98 34.89,2.45 34.43,3.01 33.97,3.58 33.45,4.19 32.93,4.81 32.87,4.95 32.81,5.10 32.72,5.22 32.63,5.35 32.51,5.45 32.39,5.55 32.25,5.62 32.11,5.69 31.95,5.73 31.80,5.76 31.64,5.75 31.49,5.75 31.34,5.71 31.18,5.67 31.05,5.59 30.91,5.52 30.79,5.41 30.68,5.30 30.59,5.17 30.51,5.04 30.46,4.89 30.40,4.74 30.39,4.59 30.37,4.43 30.40,4.27 30.42,4.12 30.71,3.38 31.00,2.65 31.20,2.00 31.39,1.34 31.61,-0.05 31.82,-1.45 31.70,-2.04 31.57,-2.62 31.50,-2.08 31.44,-1.54 31.16,-0.93 30.89,-0.32 30.32,0.44 29.76,1.20 29.07,1.87 28.37,2.54 27.68,3.17 26.99,3.81 26.25,4.39 25.50,4.96 24.79,5.23 24.09,5.50 23.14,5.40 22.20,5.30 21.59,4.46 20.97,3.62 20.99,2.68 21.00,1.74 21.03,1.04 21.07,0.35 21.02,-0.42 20.98,-1.19 20.53,-0.69 20.07,-0.19 19.45,0.51 18.84,1.22 18.20,2.10 17.56,2.97 17.10,3.44 16.64,3.92 16.58,4.07 16.51,4.21 16.42,4.34 16.32,4.46 16.19,4.56 16.07,4.66 15.92,4.73 15.78,4.79 15.62,4.82 15.46,4.85 15.30,4.84 15.14,4.84 14.99,4.79 14.84,4.74 14.70,4.66 14.56,4.58 14.45,4.46 14.34,4.35 14.25,4.22 14.17,4.08 14.12,3.93 14.07,3.77 14.06,3.62 14.05,3.46 14.08,3.30 14.11,3.14 14.33,2.42 14.54,1.70 14.27,1.01 14.00,0.31 13.52,0.82 13.04,1.33 12.32,2.09 11.61,2.85 10.88,3.66 10.16,4.47 9.72,5.08 9.29,5.69 9.22,5.84 9.16,5.99 9.06,6.11 8.96,6.24 8.83,6.34 8.70,6.44 8.55,6.50 8.40,6.57 8.25,6.60 8.09,6.63 7.93,6.61 7.76,6.60 7.61,6.56 7.46,6.51 7.32,6.42 7.18,6.34 7.07,6.22 6.95,6.11 6.87,5.97 6.79,5.83 6.74,5.68 6.69,5.52 6.68,5.36 6.68,5.20 6.71,5.04 6.74,4.88 7.04,4.63 7.35,4.38 7.76,3.49 8.17,2.60 8.41,1.96 8.65,1.31 8.61,0.25 8.57,-0.80 7.82,-0.78 7.08,-0.76 6.21,-0.71 5.35,-0.67 4.25,-0.57 3.16,-0.47 1.80,-0.19 0.44,0.08 -0.89,0.25 -2.23,0.42 -3.29,0.35 -4.34,0.28 -5.54,0.01 -6.75,-0.25 -7.18,-0.80 -7.62,-1.36 -7.38,-2.33 -7.15,-3.31 -6.52,-3.63 -5.90,-3.94 -5.09,-3.97 -4.28,-3.99 -3.20,-3.97 -2.11,-3.96 -0.85,-3.46 0.41,-2.96 1.34,-2.21 2.27,-1.47 2.71,-0.38 3.15,0.70 2.97,1.94 2.80,3.18 2.06,4.09 1.33,5.01 0.16,6.00 -0.99,6.99 -2.77,7.77 -4.55,8.55 -5.92,8.38 -7.28,8.21 -8.39,7.63 -9.49,7.05 -9.84,5.79 -10.19,4.53 -9.66,3.30 -9.13,2.06 -8.14,1.14 -7.16,0.23 -6.12,-0.53 -5.08,-1.29 -3.94,-1.46 -2.80,-1.63 -1.84,-1.49 -0.88,-1.35 -0.33,-0.99 0.20,-0.62 0.27,-0.58 0.35,-0.55 0.41,-0.50 0.47,-0.45 0.52,-0.39 0.56,-0.32 0.59,-0.25 0.63,-0.18 0.64,-0.10 0.65,-0.02 0.64,0.05 0.64,0.13 0.61,0.20 0.59,0.28 0.55,0.34 0.50,0.41 0.45,0.46 0.39,0.52 0.32,0.56 0.25,0.60 0.18,0.62 0.10,0.64 0.02,0.65 -0.05,0.65 -0.13,0.63 -0.20,0.62 -0.20,0.62 L -0.20,0.62 Z"/></g><g transform="translate(310.00006103515625 34.3055419921875) rotate(0 -0.34722900390625 -0.3472137451171875)" stroke="none"><path fill="#1e1e1e" d="M -0.86,0.06 Q -0.86,0.06 -0.92,-0.02 -0.98,-0.10 -1.01,-0.20 -1.04,-0.31 -1.04,-0.41 -1.04,-0.52 -1.00,-0.62 -0.97,-0.72 -0.90,-0.80 -0.83,-0.88 -0.74,-0.94 -0.65,-1.00 -0.55,-1.02 -0.45,-1.05 -0.34,-1.04 -0.24,-1.03 -0.14,-0.99 -0.04,-0.95 0.03,-0.88 0.11,-0.81 0.16,-0.71 0.21,-0.62 0.23,-0.52 0.25,-0.41 0.24,-0.31 0.22,-0.20 0.18,-0.11 0.13,-0.01 0.05,0.05 -0.01,0.13 -0.11,0.18 -0.20,0.22 -0.31,0.24 -0.41,0.25 -0.52,0.23 -0.62,0.21 -0.71,0.16 -0.81,0.11 -0.88,0.03 -0.95,-0.04 -0.99,-0.14 -1.03,-0.24 -1.04,-0.34 -1.05,-0.45 -1.02,-0.55 -1.00,-0.65 -0.94,-0.74 -0.88,-0.83 -0.80,-0.90 -0.72,-0.97 -0.62,-1.00 -0.52,-1.04 -0.41,-1.04 -0.31,-1.04 -0.20,-1.01 -0.10,-0.98 -0.02,-0.92 0.06,-0.86 0.06,-0.86 0.06,-0.86 0.16,-0.84 0.26,-0.82 0.36,-0.77 0.45,-0.73 0.54,-0.66 0.62,-0.60 0.68,-0.52 0.74,-0.43 0.78,-0.34 0.83,-0.24 0.84,-0.14 0.86,-0.03 0.85,0.06 0.84,0.16 0.81,0.26 0.78,0.36 0.72,0.45 0.67,0.54 0.59,0.61 0.52,0.68 0.43,0.74 0.34,0.79 0.24,0.82 0.14,0.85 0.03,0.85 -0.06,0.86 -0.46,0.46 L -0.86,0.06 Z"/></g><g transform="translate(324.5833740234375 40.5555419921875) rotate(0 -4.861083984375 3.4722442626953125)" stroke="none"><path fill="#1e1e1e" d="M -0.46,0.46 Q -0.46,0.46 -1.19,0.02 -1.92,-0.41 -2.88,-0.21 -3.84,-0.01 -4.59,0.79 -5.35,1.61 -6.30,2.75 -7.25,3.89 -7.58,4.67 -7.91,5.45 -7.54,5.95 -7.16,6.44 -6.69,6.81 -6.23,7.18 -4.61,7.13 -2.99,7.08 -2.88,7.09 -2.78,7.09 -2.68,7.13 -2.58,7.17 -2.50,7.23 -2.42,7.30 -2.36,7.39 -2.30,7.48 -2.28,7.59 -2.26,7.69 -2.27,7.80 -2.28,7.90 -2.32,8.00 -2.37,8.10 -2.44,8.17 -2.51,8.25 -2.60,8.30 -2.70,8.35 -2.80,8.37 -2.91,8.39 -3.01,8.37 -3.12,8.36 -3.21,8.31 -3.30,8.26 -3.38,8.18 -3.45,8.11 -3.50,8.01 -3.54,7.91 -3.56,7.81 -3.57,7.70 -3.55,7.60 -3.52,7.50 -3.47,7.40 -3.42,7.31 -3.34,7.24 -3.26,7.17 -3.16,7.13 -3.06,7.09 -2.95,7.09 -2.85,7.08 -2.75,7.11 -2.64,7.13 -2.55,7.19 -2.47,7.25 -2.40,7.34 -2.34,7.42 -2.30,7.52 -2.27,7.62 -2.26,7.73 -2.26,7.83 -2.30,7.93 -2.33,8.03 -2.39,8.12 -2.46,8.21 -2.54,8.27 -2.63,8.33 -2.73,8.36 -2.84,8.38 -2.84,8.38 -2.84,8.38 -5.00,8.79 -7.17,9.19 -8.25,8.42 -9.34,7.64 -9.79,6.40 -10.25,5.17 -9.72,3.73 -9.19,2.30 -8.12,1.06 -7.05,-0.17 -5.86,-1.20 -4.67,-2.23 -3.47,-2.50 -2.26,-2.77 -1.36,-2.37 -0.47,-1.97 -0.00,-1.22 0.46,-0.46 0.51,-0.40 0.56,-0.33 0.59,-0.26 0.62,-0.19 0.64,-0.11 0.65,-0.03 0.65,0.03 0.64,0.11 0.62,0.19 0.59,0.26 0.55,0.33 0.51,0.40 0.46,0.46 0.40,0.51 0.33,0.55 0.26,0.59 0.19,0.62 0.11,0.64 0.03,0.65 -0.03,0.65 -0.11,0.64 -0.19,0.62 -0.26,0.59 -0.33,0.56 -0.40,0.51 -0.46,0.46 -0.46,0.46 L -0.46,0.46 Z"/></g><g transform="translate(330.8333740234375 48.1944580078125) rotate(0 4.513916015625 -3.8194580078125)" stroke="none"><path fill="#1e1e1e" d="M 0,0.65 Q 0,0.65 -0.87,0.83 -1.74,1.02 -2.82,0.27 -3.90,-0.47 -4.19,-1.39 -4.47,-2.32 -4.33,-3.40 -4.19,-4.47 -3.68,-5.61 -3.16,-6.74 -2.46,-7.52 -1.75,-8.29 -0.50,-8.53 0.74,-8.77 1.27,-8.25 1.80,-7.74 2.27,-6.57 2.74,-5.39 3.10,-4.36 3.47,-3.33 3.95,-2.64 4.43,-1.96 5.48,-1.84 6.53,-1.72 7.61,-2.27 8.70,-2.82 10.39,-3.82 12.07,-4.82 12.17,-4.87 12.26,-4.92 12.37,-4.94 12.47,-4.96 12.58,-4.94 12.68,-4.93 12.77,-4.88 12.87,-4.83 12.94,-4.75 13.02,-4.68 13.06,-4.58 13.11,-4.49 13.12,-4.38 13.13,-4.27 13.11,-4.17 13.09,-4.07 13.04,-3.97 12.98,-3.88 12.90,-3.81 12.82,-3.74 12.73,-3.70 12.63,-3.66 12.52,-3.65 12.42,-3.65 12.31,-3.67 12.21,-3.70 12.12,-3.76 12.03,-3.82 11.97,-3.90 11.90,-3.99 11.87,-4.09 11.83,-4.19 11.83,-4.29 11.83,-4.40 11.86,-4.50 11.89,-4.60 11.96,-4.69 12.02,-4.77 12.11,-4.83 12.20,-4.89 12.30,-4.92 12.40,-4.95 12.51,-4.95 12.61,-4.94 12.71,-4.91 12.81,-4.87 12.89,-4.80 12.97,-4.73 13.03,-4.64 13.09,-4.55 13.11,-4.45 13.13,-4.35 13.12,-4.24 13.11,-4.13 13.07,-4.04 13.03,-3.94 12.95,-3.86 12.88,-3.78 12.88,-3.78 12.88,-3.78 11.35,-2.27 9.81,-0.75 8.39,0.03 6.97,0.82 5.55,0.89 4.13,0.97 3.20,0.23 2.27,-0.50 1.65,-1.49 1.03,-2.47 0.68,-3.49 0.33,-4.52 0.16,-5.53 -0.00,-6.55 -0.49,-6.10 -0.97,-5.65 -1.39,-4.84 -1.80,-4.04 -2.02,-2.98 -2.24,-1.92 -1.84,-1.47 -1.44,-1.02 -0.72,-0.83 0,-0.65 0.07,-0.64 0.15,-0.63 0.23,-0.60 0.30,-0.58 0.37,-0.53 0.43,-0.49 0.48,-0.43 0.54,-0.37 0.57,-0.30 0.61,-0.23 0.63,-0.15 0.65,-0.07 0.65,0.00 0.65,0.07 0.63,0.15 0.61,0.23 0.57,0.30 0.54,0.37 0.48,0.43 0.43,0.49 0.37,0.53 0.30,0.58 0.23,0.60 0.15,0.63 0.07,0.64 -0.00,0.65 -0.00,0.65 L 0,0.65 Z"/></g><g transform="translate(347.50006103515625 48.888885498046875) rotate(0 1.736114501953125 -19.444442749023438)" stroke="none"><path fill="#1e1e1e" d="M -0.65,0.05 Q -0.65,0.05 -1.16,-2.10 -1.67,-4.27 -1.63,-7.88 -1.60,-11.49 -0.95,-16.46 -0.30,-21.42 0.65,-25.54 1.61,-29.66 2.44,-33.46 3.28,-37.26 3.31,-37.36 3.34,-37.46 3.40,-37.55 3.46,-37.63 3.55,-37.69 3.64,-37.76 3.74,-37.79 3.84,-37.82 3.95,-37.82 4.05,-37.81 4.15,-37.78 4.25,-37.74 4.33,-37.67 4.42,-37.61 4.47,-37.52 4.53,-37.43 4.56,-37.32 4.58,-37.22 4.57,-37.12 4.57,-37.01 4.52,-36.91 4.48,-36.81 4.41,-36.74 4.34,-36.66 4.25,-36.60 4.15,-36.55 4.05,-36.53 3.95,-36.51 3.84,-36.53 3.74,-36.54 3.64,-36.59 3.55,-36.63 3.47,-36.71 3.39,-36.79 3.35,-36.88 3.30,-36.98 3.29,-37.08 3.27,-37.19 3.29,-37.29 3.31,-37.39 3.36,-37.49 3.42,-37.58 3.50,-37.65 3.57,-37.72 3.67,-37.76 3.77,-37.81 3.88,-37.81 3.98,-37.82 4.08,-37.80 4.19,-37.77 4.28,-37.71 4.37,-37.66 4.43,-37.57 4.50,-37.49 4.54,-37.39 4.57,-37.29 4.58,-37.19 4.58,-37.08 4.58,-37.08 4.58,-37.08 4.35,-33.10 4.13,-29.12 3.34,-25.08 2.55,-21.04 1.90,-16.22 1.26,-11.40 1.06,-7.95 0.87,-4.50 0.76,-2.28 0.65,-0.05 0.65,0.01 0.64,0.09 0.62,0.17 0.60,0.25 0.56,0.32 0.52,0.38 0.47,0.44 0.42,0.50 0.35,0.54 0.28,0.59 0.21,0.61 0.13,0.64 0.05,0.64 -0.01,0.65 -0.09,0.64 -0.17,0.63 -0.24,0.60 -0.32,0.57 -0.38,0.52 -0.45,0.47 -0.50,0.41 -0.55,0.35 -0.58,0.28 -0.62,0.21 -0.63,0.13 -0.65,0.05 -0.65,0.05 L -0.65,0.05 Z"/></g><g transform="translate(340.55560302734375 35.6944580078125) rotate(0 6.59722900390625 -0.6944580078125)" stroke="none"><path fill="#1e1e1e" d="M -0.05,-0.65 Q -0.05,-0.65 2.11,-1.04 4.29,-1.44 5.99,-1.72 7.68,-2.00 9.89,-2.26 12.09,-2.52 12.20,-2.52 12.30,-2.53 12.41,-2.50 12.51,-2.47 12.59,-2.41 12.68,-2.35 12.75,-2.26 12.81,-2.18 12.84,-2.08 12.87,-1.98 12.87,-1.87 12.87,-1.76 12.84,-1.66 12.80,-1.56 12.74,-1.48 12.67,-1.40 12.58,-1.34 12.49,-1.28 12.39,-1.25 12.29,-1.22 12.18,-1.23 12.08,-1.24 11.98,-1.28 11.88,-1.32 11.80,-1.39 11.72,-1.46 11.67,-1.55 11.61,-1.64 11.59,-1.74 11.57,-1.85 11.58,-1.95 11.59,-2.06 11.64,-2.16 11.69,-2.25 11.76,-2.33 11.83,-2.40 11.93,-2.45 12.02,-2.50 12.13,-2.52 12.23,-2.53 12.34,-2.52 12.44,-2.50 12.54,-2.45 12.63,-2.40 12.70,-2.32 12.77,-2.24 12.82,-2.14 12.86,-2.05 12.87,-1.94 12.88,-1.83 12.86,-1.73 12.83,-1.63 12.78,-1.54 12.72,-1.45 12.64,-1.38 12.56,-1.31 12.46,-1.27 12.36,-1.23 12.36,-1.23 12.36,-1.23 10.19,-0.58 8.02,0.07 6.25,0.35 4.48,0.64 2.27,0.64 0.05,0.65 -0.01,0.65 -0.09,0.64 -0.17,0.62 -0.25,0.60 -0.32,0.56 -0.38,0.52 -0.44,0.47 -0.50,0.42 -0.54,0.35 -0.59,0.28 -0.61,0.21 -0.64,0.13 -0.64,0.05 -0.65,-0.01 -0.64,-0.09 -0.63,-0.17 -0.60,-0.24 -0.57,-0.32 -0.52,-0.38 -0.47,-0.45 -0.41,-0.50 -0.35,-0.55 -0.28,-0.58 -0.21,-0.62 -0.13,-0.63 -0.05,-0.65 -0.05,-0.65 L -0.05,-0.65 Z"/></g><g transform="translate(350.27783203125 43.333343505859375) rotate(0 6.59722900390625 -1.7361297607421875)" stroke="none"><path fill="#1e1e1e" d="M 0.46,-0.46 Q 0.46,-0.46 1.02,-0.11 1.59,0.24 2.13,-0.02 2.67,-0.30 3.63,-0.91 4.59,-1.52 5.59,-2.35 6.59,-3.18 7.42,-3.94 8.25,-4.70 8.87,-5.28 9.49,-5.85 10.76,-5.50 12.03,-5.14 12.19,-4.52 12.35,-3.89 13.00,-3.01 13.65,-2.14 13.65,-2.06 13.65,-1.98 13.64,-1.90 13.62,-1.82 13.59,-1.75 13.56,-1.68 13.51,-1.62 13.46,-1.56 13.40,-1.51 13.33,-1.46 13.26,-1.43 13.19,-1.40 13.11,-1.38 13.03,-1.37 12.95,-1.38 12.87,-1.38 12.80,-1.41 12.72,-1.43 12.66,-1.47 12.59,-1.51 12.53,-1.57 12.48,-1.63 12.44,-1.69 12.40,-1.76 12.37,-1.84 12.35,-1.91 12.69,-2.30 13.04,-2.68 13.14,-2.66 13.24,-2.64 13.33,-2.58 13.42,-2.53 13.49,-2.44 13.56,-2.36 13.60,-2.26 13.64,-2.17 13.65,-2.06 13.65,-1.95 13.62,-1.85 13.59,-1.75 13.53,-1.66 13.48,-1.57 13.39,-1.51 13.31,-1.45 13.21,-1.41 13.10,-1.38 13.00,-1.38 12.89,-1.38 12.79,-1.41 12.69,-1.45 12.61,-1.51 12.52,-1.57 12.46,-1.66 12.40,-1.75 12.37,-1.85 12.35,-1.96 12.35,-2.06 12.36,-2.17 12.40,-2.27 12.44,-2.37 12.51,-2.45 12.57,-2.53 12.67,-2.58 12.76,-2.64 12.86,-2.66 12.96,-2.68 13.07,-2.67 13.18,-2.66 13.27,-2.61 13.37,-2.57 13.45,-2.50 13.52,-2.42 13.57,-2.33 13.62,-2.23 13.64,-2.13 13.66,-2.02 13.64,-1.92 13.62,-1.82 13.57,-1.72 13.52,-1.63 13.44,-1.55 13.37,-1.48 13.27,-1.44 13.17,-1.39 13.41,-1.77 13.65,-2.14 13.65,-2.06 13.65,-1.98 13.64,-1.90 13.62,-1.82 13.59,-1.75 13.56,-1.68 13.51,-1.62 13.46,-1.56 13.40,-1.51 13.33,-1.46 13.26,-1.43 13.19,-1.40 13.11,-1.38 13.03,-1.37 12.95,-1.38 12.87,-1.38 12.80,-1.41 12.72,-1.43 12.66,-1.47 12.59,-1.51 12.53,-1.57 12.48,-1.63 12.44,-1.69 12.40,-1.76 12.37,-1.84 12.35,-1.91 10.95,-2.65 9.56,-3.39 9.51,-3.95 9.47,-4.50 10.26,-4.09 11.05,-3.69 10.53,-3.21 10.02,-2.73 9.12,-1.94 8.23,-1.15 7.04,-0.22 5.86,0.70 4.50,1.41 3.13,2.11 1.97,2.13 0.80,2.15 0.17,1.30 -0.46,0.46 -0.51,0.40 -0.56,0.33 -0.59,0.26 -0.62,0.19 -0.64,0.11 -0.65,0.03 -0.65,-0.03 -0.64,-0.11 -0.62,-0.19 -0.59,-0.26 -0.55,-0.33 -0.51,-0.40 -0.46,-0.46 -0.40,-0.51 -0.33,-0.55 -0.26,-0.59 -0.19,-0.62 -0.11,-0.64 -0.03,-0.65 0.03,-0.65 0.11,-0.64 0.19,-0.62 0.26,-0.59 0.33,-0.56 0.40,-0.51 0.46,-0.46 0.46,-0.46 L 0.46,-0.46 Z"/></g><g transform="translate(364.166748046875 28.0555419921875) rotate(0 -0.34722900390625 -1.041656494140625)" stroke="none"><path fill="#1e1e1e" d="M -0.58,0.29 Q -0.58,0.29 -0.90,0.22 -1.22,0.14 -1.25,0.07 -1.28,0.00 -1.28,-0.07 -1.29,-0.15 -1.28,-0.23 -1.27,-0.31 -1.24,-0.38 -1.21,-0.46 -1.17,-0.52 -1.12,-0.58 -1.06,-0.64 -1.00,-0.69 -0.93,-0.72 -0.86,-0.76 -0.78,-0.78 -0.70,-0.79 -0.62,-0.79 -0.54,-0.79 -0.47,-0.77 -0.39,-0.75 -0.32,-0.71 -0.25,-0.67 -0.19,-0.62 -0.14,-0.56 -0.09,-0.50 -0.05,-0.43 -0.09,-0.08 -0.13,0.26 -0.20,0.33 -0.28,0.40 -0.38,0.45 -0.48,0.49 -0.58,0.50 -0.69,0.51 -0.79,0.48 -0.90,0.45 -0.99,0.40 -1.08,0.34 -1.14,0.26 -1.21,0.17 -1.24,0.07 -1.28,-0.02 -1.28,-0.12 -1.29,-0.23 -1.26,-0.33 -1.22,-0.43 -1.16,-0.52 -1.10,-0.60 -1.01,-0.67 -0.93,-0.73 -0.83,-0.76 -0.72,-0.79 -0.62,-0.79 -0.51,-0.78 -0.41,-0.75 -0.31,-0.71 -0.23,-0.64 -0.15,-0.58 -0.09,-0.49 -0.03,-0.40 -0.01,-0.29 0.01,-0.19 0.00,-0.09 -0.00,0.01 -0.04,0.11 -0.08,0.21 -0.15,0.28 -0.23,0.36 -0.32,0.42 -0.41,0.47 -0.52,0.49 -0.62,0.51 -0.73,0.49 -0.83,0.48 -0.93,0.43 -1.02,0.38 -1.10,0.31 -1.17,0.23 -1.22,0.14 -1.26,0.04 -1.28,-0.05 -1.29,-0.16 -1.27,-0.26 -1.25,-0.37 -1.24,-0.11 -1.22,0.14 -1.25,0.07 -1.28,0.00 -1.28,-0.07 -1.29,-0.15 -1.28,-0.23 -1.27,-0.31 -1.24,-0.38 -1.21,-0.46 -1.17,-0.52 -1.12,-0.58 -1.06,-0.64 -1.00,-0.69 -0.93,-0.72 -0.86,-0.76 -0.78,-0.78 -0.70,-0.79 -0.62,-0.79 -0.54,-0.79 -0.47,-0.77 -0.39,-0.75 -0.32,-0.71 -0.25,-0.67 -0.19,-0.62 -0.14,-0.56 -0.09,-0.50 -0.05,-0.43 0.26,-0.36 0.58,-0.29 0.61,-0.21 0.64,-0.14 0.64,-0.06 0.65,0.01 0.64,0.09 0.63,0.16 0.60,0.24 0.57,0.31 0.52,0.38 0.48,0.44 0.42,0.49 0.36,0.54 0.29,0.58 0.22,0.61 0.14,0.63 0.06,0.65 -0.01,0.65 -0.09,0.65 -0.16,0.62 -0.24,0.60 -0.31,0.57 -0.38,0.53 -0.44,0.47 -0.50,0.42 -0.54,0.35 -0.58,0.29 -0.58,0.29 L -0.58,0.29 Z"/></g><g transform="translate(366.94451904296875 39.861114501953125) rotate(0 9.722198486328125 1.388885498046875)" stroke="none"><path fill="#1e1e1e" d="M -0.12,-0.64 Q -0.12,-0.64 0.81,-1.00 1.75,-1.36 2.16,-1.79 2.58,-2.22 3.00,-2.62 3.42,-3.03 4.20,-2.72 4.99,-2.41 4.40,-2.35 3.81,-2.28 3.17,-1.92 2.54,-1.56 1.55,-0.50 0.56,0.54 -0.01,1.70 -0.60,2.86 -1.08,3.77 -1.56,4.68 -1.02,4.53 -0.49,4.37 0.54,3.46 1.58,2.55 2.16,1.66 2.75,0.77 3.21,0.01 3.68,-0.73 3.04,-1.20 2.40,-1.67 2.31,-1.79 2.22,-1.91 2.17,-2.05 2.12,-2.19 2.10,-2.34 2.08,-2.48 2.09,-2.63 2.11,-2.78 2.16,-2.92 2.21,-3.06 2.29,-3.19 2.38,-3.31 2.49,-3.41 2.60,-3.51 2.73,-3.58 2.86,-3.65 3.01,-3.69 3.15,-3.73 3.30,-3.73 3.45,-3.73 3.60,-3.70 3.74,-3.66 3.88,-3.60 4.01,-3.53 4.12,-3.43 4.23,-3.33 3.51,-3.46 2.78,-3.58 3.67,-3.79 4.56,-4.00 5.31,-4.20 6.05,-4.40 6.90,-4.51 7.74,-4.61 8.33,-4.65 8.92,-4.69 9.72,-4.35 10.52,-4.02 10.95,-3.24 11.38,-2.47 11.30,-1.37 11.21,-0.28 10.93,0.56 10.66,1.41 10.56,1.93 10.45,2.45 10.38,2.59 10.31,2.74 10.21,2.86 10.10,2.99 9.98,3.08 9.85,3.18 9.70,3.24 9.55,3.30 9.39,3.33 9.23,3.35 9.07,3.34 8.90,3.33 8.75,3.27 8.60,3.22 8.46,3.13 8.33,3.05 8.21,2.93 8.10,2.81 8.02,2.67 7.94,2.53 7.90,2.38 7.86,2.22 7.85,2.06 7.84,1.90 7.88,1.74 7.91,1.58 8.62,1.20 9.33,0.83 10.22,-0.18 11.11,-1.19 11.85,-1.91 12.58,-2.62 13.04,-3.25 13.49,-3.88 14.05,-4.32 14.62,-4.76 14.99,-4.89 15.36,-5.01 15.49,-5.09 15.63,-5.16 15.78,-5.20 15.92,-5.24 16.08,-5.24 16.23,-5.25 16.38,-5.21 16.54,-5.18 16.67,-5.11 16.81,-5.04 16.93,-4.94 17.05,-4.84 17.14,-4.72 17.23,-4.59 17.28,-4.45 17.34,-4.30 17.36,-4.15 17.39,-4.00 17.37,-3.84 17.35,-3.69 17.30,-3.54 17.25,-3.40 17.16,-3.27 17.08,-3.14 16.97,-3.04 16.85,-2.93 16.85,-1.80 16.85,-0.67 16.57,0.24 16.28,1.15 16.19,1.84 16.10,2.52 16.05,3.13 16.00,3.74 16.35,3.34 16.70,2.94 17.26,2.71 17.82,2.47 19.73,1.74 21.64,1.01 21.61,0.91 21.58,0.81 21.59,0.70 21.60,0.59 21.63,0.49 21.67,0.40 21.74,0.31 21.81,0.23 21.90,0.18 21.99,0.12 22.10,0.10 22.20,0.08 22.30,0.09 22.41,0.10 22.51,0.14 22.60,0.19 22.68,0.26 22.76,0.33 22.81,0.43 22.86,0.52 22.88,0.62 22.89,0.73 22.88,0.83 22.86,0.94 22.81,1.03 22.76,1.13 22.68,1.20 22.61,1.27 22.51,1.32 22.42,1.36 22.31,1.38 22.20,1.39 22.10,1.37 22.00,1.34 21.91,1.29 21.81,1.23 21.74,1.15 21.68,1.07 21.64,0.97 21.60,0.88 21.59,0.77 21.58,0.66 21.61,0.56 21.64,0.46 21.70,0.37 21.76,0.28 21.84,0.22 21.93,0.15 22.03,0.12 22.13,0.08 22.23,0.08 22.34,0.08 22.44,0.12 22.54,0.15 22.63,0.21 22.71,0.28 22.77,0.37 22.83,0.45 22.83,0.45 22.83,0.45 21.66,2.18 20.49,3.91 19.73,4.57 18.98,5.23 18.13,5.52 17.28,5.81 16.20,5.88 15.13,5.96 14.52,5.57 13.91,5.19 13.61,4.50 13.31,3.81 13.37,2.95 13.42,2.10 13.58,1.22 13.74,0.33 14.03,-0.54 14.33,-1.43 14.53,-2.00 14.73,-2.56 15.04,-3.79 15.36,-5.01 15.49,-5.09 15.63,-5.16 15.78,-5.20 15.92,-5.24 16.08,-5.24 16.23,-5.25 16.38,-5.21 16.53,-5.18 16.67,-5.11 16.81,-5.04 16.93,-4.94 17.05,-4.84 17.14,-4.72 17.23,-4.59 17.28,-4.45 17.34,-4.30 17.36,-4.15 17.39,-4.00 17.37,-3.84 17.35,-3.69 17.30,-3.54 17.25,-3.40 17.17,-3.27 17.08,-3.14 16.97,-3.04 16.85,-2.93 16.20,-2.64 15.54,-2.35 14.97,-1.57 14.39,-0.78 13.65,-0.05 12.91,0.68 12.09,1.47 11.27,2.27 10.46,2.77 9.65,3.28 10.05,2.86 10.45,2.45 10.38,2.59 10.31,2.74 10.21,2.86 10.11,2.99 9.98,3.08 9.85,3.18 9.70,3.24 9.55,3.30 9.39,3.33 9.23,3.35 9.07,3.34 8.90,3.33 8.75,3.27 8.60,3.22 8.46,3.13 8.33,3.05 8.21,2.93 8.10,2.81 8.02,2.67 7.94,2.53 7.90,2.38 7.86,2.22 7.85,2.06 7.84,1.90 7.88,1.74 7.91,1.58 8.02,1.07 8.13,0.55 8.36,-0.06 8.59,-0.69 8.32,-1.37 8.04,-2.05 7.36,-1.98 6.67,-1.90 5.35,-1.82 4.03,-1.73 3.21,-1.70 2.40,-1.67 2.31,-1.79 2.22,-1.91 2.17,-2.05 2.12,-2.19 2.10,-2.34 2.08,-2.48 2.09,-2.63 2.11,-2.78 2.16,-2.92 2.21,-3.06 2.29,-3.19 2.38,-3.31 2.49,-3.41 2.60,-3.51 2.73,-3.58 2.86,-3.65 3.01,-3.69 3.15,-3.73 3.30,-3.73 3.45,-3.73 3.60,-3.70 3.74,-3.66 3.88,-3.60 4.01,-3.53 4.12,-3.43 4.23,-3.33 4.59,-3.16 4.95,-2.99 5.49,-2.23 6.02,-1.48 5.99,-0.52 5.96,0.42 5.44,1.33 4.92,2.24 4.11,3.39 3.31,4.54 2.03,5.61 0.75,6.68 -0.43,7.13 -1.63,7.58 -2.68,6.95 -3.73,6.33 -3.82,4.97 -3.91,3.60 -3.40,2.62 -2.90,1.63 -2.09,0.19 -1.29,-1.24 0.04,-2.54 1.38,-3.84 2.46,-4.31 3.55,-4.79 4.18,-4.82 4.82,-4.86 5.37,-3.64 5.92,-2.42 5.42,-1.87 4.92,-1.31 4.41,-0.91 3.90,-0.51 3.07,0.02 2.23,0.56 1.18,0.60 0.12,0.64 0.04,0.64 -0.02,0.65 -0.10,0.64 -0.18,0.62 -0.25,0.59 -0.33,0.56 -0.39,0.51 -0.45,0.47 -0.50,0.41 -0.55,0.34 -0.59,0.27 -0.62,0.20 -0.63,0.12 -0.65,0.05 -0.65,-0.02 -0.64,-0.10 -0.62,-0.18 -0.60,-0.25 -0.56,-0.32 -0.52,-0.39 -0.46,-0.45 -0.41,-0.51 -0.34,-0.55 -0.27,-0.59 -0.20,-0.61 -0.12,-0.64 -0.12,-0.64 L -0.12,-0.64 Z"/></g><g transform="translate(305.13897705078125 73.19442749023438) rotate(0 13.88885498046875 -8.33331298828125)" stroke="none"><path fill="#1e1e1e" d="M 0.58,0.29 Q 0.58,0.29 0.18,0.54 -0.20,0.79 0.53,0.26 1.28,-0.27 2.77,-1.98 4.25,-3.69 6.14,-5.86 8.03,-8.03 9.36,-10.45 10.68,-12.86 11.46,-14.49 12.23,-16.11 12.55,-16.61 12.87,-17.10 12.05,-16.53 11.23,-15.96 10.09,-14.76 8.95,-13.56 7.90,-11.91 6.85,-10.26 6.23,-8.63 5.61,-7.00 5.56,-5.86 5.51,-4.72 5.84,-4.00 6.17,-3.28 6.57,-2.89 6.98,-2.49 7.57,-2.40 8.17,-2.30 9.37,-2.23 10.58,-2.15 11.97,-2.50 13.35,-2.84 14.50,-3.36 15.65,-3.87 16.90,-4.66 18.15,-5.45 19.24,-6.36 20.34,-7.26 21.84,-8.09 23.33,-8.92 23.98,-8.71 24.63,-8.50 25.03,-7.94 25.42,-7.38 25.57,-6.63 25.72,-5.87 25.84,-6.41 25.96,-6.94 27.08,-8.17 28.19,-9.40 28.26,-9.48 28.33,-9.56 28.42,-9.61 28.51,-9.67 28.62,-9.69 28.72,-9.71 28.83,-9.70 28.93,-9.68 29.03,-9.64 29.12,-9.59 29.20,-9.52 29.28,-9.44 29.33,-9.35 29.37,-9.25 29.39,-9.15 29.40,-9.04 29.39,-8.94 29.37,-8.83 29.32,-8.74 29.26,-8.65 29.19,-8.58 29.11,-8.50 29.01,-8.46 28.91,-8.42 28.81,-8.41 28.70,-8.40 28.60,-8.42 28.50,-8.45 28.40,-8.50 28.31,-8.56 28.25,-8.64 28.18,-8.72 28.14,-8.82 28.10,-8.92 28.10,-9.03 28.10,-9.13 28.13,-9.24 28.16,-9.34 28.22,-9.43 28.28,-9.51 28.36,-9.58 28.45,-9.64 28.55,-9.67 28.65,-9.70 28.76,-9.70 28.86,-9.70 28.96,-9.66 29.06,-9.63 29.15,-9.56 29.23,-9.50 29.29,-9.41 29.35,-9.32 29.37,-9.22 29.40,-9.11 29.39,-9.01 29.39,-8.90 29.35,-8.80 29.30,-8.71 29.30,-8.71 29.31,-8.71 28.54,-6.92 27.78,-5.14 26.87,-4.32 25.96,-3.49 25.03,-3.55 24.09,-3.61 23.38,-4.51 22.68,-5.41 22.65,-6.07 22.62,-6.74 22.33,-5.97 22.03,-5.19 20.79,-4.19 19.56,-3.19 18.13,-2.31 16.71,-1.44 15.32,-0.86 13.93,-0.27 12.17,0.08 10.41,0.44 8.91,0.29 7.41,0.14 6.34,-0.27 5.26,-0.70 4.56,-1.52 3.87,-2.35 3.47,-3.57 3.07,-4.79 3.20,-6.32 3.33,-7.85 4.06,-9.71 4.80,-11.56 5.99,-13.40 7.19,-15.24 8.52,-16.62 9.86,-18.00 11.19,-18.71 12.53,-19.42 13.50,-18.96 14.48,-18.50 14.52,-16.78 14.56,-15.05 13.74,-13.33 12.92,-11.62 11.43,-8.99 9.94,-6.37 8.02,-4.19 6.10,-2.01 4.25,-0.07 2.41,1.87 0.99,2.38 -0.42,2.90 -0.90,2.64 -1.38,2.39 -0.98,1.05 -0.58,-0.29 -0.54,-0.35 -0.49,-0.42 -0.44,-0.47 -0.38,-0.53 -0.31,-0.57 -0.24,-0.60 -0.16,-0.62 -0.09,-0.65 -0.01,-0.65 0.06,-0.65 0.14,-0.63 0.22,-0.61 0.29,-0.58 0.36,-0.54 0.42,-0.49 0.48,-0.44 0.52,-0.38 0.57,-0.31 0.60,-0.24 0.63,-0.16 0.64,-0.09 0.65,-0.01 0.64,0.06 0.64,0.14 0.61,0.21 0.58,0.29 0.58,0.29 L 0.58,0.29 Z"/></g><g transform="translate(333.6112060546875 55.833343505859375) rotate(0 -0.6944580078125 -0.0000152587890625)" stroke="none"><path fill="#1e1e1e" d="M -0.84,1.15 Q -0.84,1.15 -0.94,1.18 -1.04,1.21 -1.15,1.21 -1.25,1.21 -1.35,1.17 -1.45,1.14 -1.54,1.07 -1.62,1.00 -1.68,0.91 -1.74,0.83 -1.76,0.72 -1.79,0.62 -1.78,0.51 -1.77,0.41 -1.73,0.31 -1.69,0.21 -1.62,0.13 -1.55,0.05 -1.45,0.00 -1.36,-0.04 -1.26,-0.06 -1.15,-0.08 -1.05,-0.07 -0.94,-0.05 -0.85,-0.01 -0.75,0.03 -0.68,0.10 -0.60,0.18 -0.55,0.27 -0.51,0.37 -0.49,0.47 -0.48,0.58 -0.50,0.68 -0.52,0.79 -0.57,0.88 -0.62,0.97 -0.70,1.05 -0.78,1.12 -0.88,1.16 -0.97,1.20 -1.08,1.21 -1.18,1.22 -1.29,1.19 -1.39,1.17 -1.48,1.11 -1.57,1.05 -1.64,0.97 -1.70,0.89 -1.74,0.79 -1.78,0.69 -1.78,0.58 -1.78,0.48 -1.75,0.38 -1.72,0.27 -1.66,0.19 -1.60,0.10 -1.51,0.04 -1.43,-0.01 -1.43,-0.01 -1.43,-0.01 -1.40,-0.18 -1.38,-0.36 -1.32,-0.52 -1.25,-0.68 -1.15,-0.82 -1.05,-0.96 -0.92,-1.07 -0.79,-1.18 -0.64,-1.26 -0.49,-1.34 -0.32,-1.38 -0.15,-1.42 0.01,-1.42 0.19,-1.41 0.35,-1.37 0.52,-1.33 0.67,-1.24 0.82,-1.16 0.95,-1.05 1.08,-0.93 1.18,-0.79 1.27,-0.64 1.33,-0.48 1.39,-0.32 1.41,-0.15 1.43,0.01 0.29,0.58 L -0.84,1.15 Z"/></g><g transform="translate(330.8333740234375 66.94442749023438) rotate(0 19.79168701171875 -0.347198486328125)" stroke="none"><path fill="#1e1e1e" d="M 0.36,-0.54 Q 0.36,-0.54 1.11,-0.37 1.85,-0.20 2.45,-0.10 3.06,-0.00 4.45,-0.81 5.84,-1.61 6.93,-2.29 8.02,-2.96 8.79,-3.30 9.55,-3.64 10.73,-3.70 11.90,-3.76 12.60,-3.05 13.30,-2.35 13.33,-1.62 13.35,-0.89 13.13,-0.07 12.90,0.73 13.47,0.13 14.04,-0.46 15.06,-0.94 16.09,-1.42 16.81,-1.63 17.53,-1.84 18.55,-1.70 19.57,-1.56 20.36,-0.94 21.15,-0.31 21.45,0.21 21.74,0.74 22.69,0.66 23.63,0.58 24.29,0.22 24.95,-0.13 25.99,-0.66 27.03,-1.20 27.57,-1.56 28.12,-1.92 28.48,-2.69 28.83,-3.46 28.42,-3.05 28.00,-2.64 27.77,-1.86 27.55,-1.09 27.67,-0.21 27.79,0.67 29.20,1.22 30.61,1.78 34.23,1.97 37.86,2.15 37.96,2.17 38.07,2.18 38.16,2.23 38.26,2.28 38.33,2.35 38.41,2.43 38.45,2.52 38.50,2.62 38.51,2.73 38.53,2.83 38.51,2.93 38.48,3.04 38.43,3.13 38.38,3.22 38.30,3.29 38.22,3.36 38.12,3.41 38.02,3.45 37.92,3.46 37.81,3.46 37.71,3.44 37.61,3.41 37.52,3.35 37.43,3.30 37.36,3.21 37.30,3.13 37.26,3.03 37.22,2.93 37.22,2.82 37.22,2.72 37.25,2.62 37.28,2.51 37.35,2.43 37.41,2.34 37.49,2.28 37.58,2.22 37.68,2.19 37.78,2.16 37.89,2.16 38.00,2.16 38.10,2.20 38.20,2.24 38.28,2.31 38.36,2.37 38.42,2.46 38.47,2.55 38.50,2.66 38.52,2.76 38.52,2.87 38.51,2.97 38.46,3.07 38.42,3.17 38.35,3.24 38.28,3.32 38.18,3.38 38.09,3.43 37.99,3.45 37.88,3.47 37.88,3.47 37.88,3.47 33.75,3.82 29.62,4.17 27.63,3.11 25.63,2.06 25.26,0.10 24.89,-1.85 25.38,-3.07 25.87,-4.29 26.50,-4.93 27.13,-5.57 27.89,-5.78 28.64,-5.99 29.47,-5.76 30.30,-5.52 30.74,-4.97 31.19,-4.42 31.27,-3.52 31.35,-2.62 30.98,-1.67 30.62,-0.72 30.19,-0.17 29.76,0.38 29.06,0.86 28.36,1.34 27.42,1.84 26.48,2.35 25.87,2.70 25.25,3.05 24.42,3.27 23.59,3.49 22.51,3.45 21.43,3.40 20.91,3.25 20.38,3.10 19.85,2.68 19.32,2.26 19.05,1.73 18.78,1.19 18.06,1.23 17.33,1.27 16.55,1.62 15.77,1.98 14.88,2.59 13.99,3.20 12.86,3.41 11.73,3.62 10.85,2.88 9.97,2.14 9.98,0.99 9.99,-0.16 10.32,-0.60 10.65,-1.04 10.07,-0.80 9.48,-0.56 8.32,0.12 7.16,0.82 5.78,1.52 4.41,2.23 3.56,2.40 2.72,2.57 2.19,2.44 1.66,2.31 1.10,2.05 0.53,1.79 0.08,1.17 -0.36,0.54 -0.42,0.49 -0.48,0.44 -0.53,0.37 -0.57,0.31 -0.60,0.24 -0.63,0.16 -0.64,0.08 -0.65,0.01 -0.64,-0.06 -0.64,-0.14 -0.61,-0.22 -0.58,-0.29 -0.54,-0.36 -0.49,-0.42 -0.44,-0.48 -0.38,-0.53 -0.31,-0.57 -0.24,-0.61 -0.16,-0.63 -0.08,-0.65 -0.01,-0.65 0.06,-0.65 0.14,-0.63 0.22,-0.61 0.29,-0.58 0.36,-0.54 0.36,-0.54 L 0.36,-0.54 Z"/></g></svg>