<svg version="1.1" xmlns="http://www.w3.org/2000/svg" viewBox="0 0 767.6377563476562 585.8627014160156" width="767.6377563476562" height="585.8627014160156" filter="invert(93%) hue-rotate(180deg)" class="excalidraw-svg">
  <!-- svg-source:excalidraw -->
  
  <defs>
    <style class="style-fonts">
      @font-face {
        font-family: "Virgil";
        src: url("https://excalidraw.com/Virgil.woff2");
      }
      @font-face {
        font-family: "Cascadia";
        src: url("https://excalidraw.com/Cascadia.woff2");
      }
      @font-face {
        font-family: "Assistant";
        src: url("https://excalidraw.com/Assistant-Regular.woff2");
      }
    </style>
    
  </defs>
  <rect x="0" y="0" width="767.6377563476562" height="585.8627014160156" fill="#ffffff"/><g transform="translate(224.72442626953125 15.7060546875) rotate(0 -0.956695556640625 21.564437866210938)" stroke="none"><path fill="#1e1e1e" d="M 2.61,0.24 Q 2.61,0.24 3.07,2.93 3.53,5.61 3.41,8.08 3.29,10.55 3.26,13.01 3.22,15.47 3.15,17.77 3.08,20.07 3.04,22.85 3.00,25.62 2.92,27.97 2.85,30.32 2.70,34.06 2.56,37.81 1.78,40.50 1.00,43.18 1.05,43.61 1.09,44.03 1.00,44.44 0.91,44.86 0.69,45.22 0.47,45.59 0.15,45.86 -0.17,46.14 -0.56,46.29 -0.96,46.45 -1.38,46.47 -1.81,46.50 -2.22,46.38 -2.63,46.27 -2.98,46.03 -3.33,45.79 -3.59,45.45 -3.84,45.11 -3.98,44.71 -4.11,44.31 -4.11,43.88 -4.11,43.46 -3.98,43.05 -3.84,42.65 -3.58,42.31 -3.32,41.98 -2.97,41.74 -2.62,41.50 -2.21,41.39 -1.80,41.27 -1.38,41.30 -0.95,41.32 -0.56,41.48 -0.16,41.64 0.15,41.91 0.47,42.19 0.69,42.55 0.91,42.92 1.00,43.33 1.09,43.75 1.05,44.17 1.00,44.59 0.82,44.98 0.64,45.36 0.35,45.67 0.06,45.98 -0.31,46.18 -0.68,46.37 -1.10,46.44 -1.52,46.51 -1.94,46.44 -2.36,46.37 -2.74,46.17 -3.11,45.97 -3.40,45.66 -3.70,45.36 -3.87,44.97 -4.05,44.58 -4.05,44.58 -4.05,44.58 -5.14,41.06 -6.22,37.53 -6.09,33.74 -5.97,29.95 -5.85,27.66 -5.73,25.36 -5.60,22.53 -5.48,19.70 -5.35,17.43 -5.22,15.16 -5.08,12.58 -4.93,10.01 -4.72,7.43 -4.51,4.86 -3.56,2.31 -2.61,-0.24 -2.54,-0.55 -2.48,-0.86 -2.34,-1.14 -2.20,-1.43 -1.99,-1.67 -1.79,-1.91 -1.54,-2.10 -1.28,-2.29 -0.99,-2.41 -0.69,-2.53 -0.38,-2.57 -0.07,-2.62 0.24,-2.59 0.55,-2.56 0.85,-2.46 1.15,-2.35 1.42,-2.18 1.68,-2.01 1.90,-1.78 2.11,-1.55 2.27,-1.27 2.42,-0.99 2.51,-0.69 2.59,-0.38 2.60,-0.07 2.61,0.24 2.61,0.24 L 2.61,0.24 Z"/></g><g transform="translate(217.56695556640625 19.188980102539062) rotate(0 15.059051513671875 5.9654083251953125)" stroke="none"><path fill="#1e1e1e" d="M -2.38,-1.10 Q -2.38,-1.10 -2.06,-2.82 -1.74,-4.55 -0.29,-6.62 1.16,-8.69 3.00,-9.96 4.84,-11.24 7.17,-12.03 9.50,-12.82 12.56,-12.63 15.62,-12.44 18.15,-11.70 20.67,-10.96 23.06,-10.04 25.46,-9.11 27.57,-7.86 29.68,-6.60 31.44,-4.56 33.19,-2.53 33.80,0.55 34.42,3.64 33.92,7.25 33.41,10.85 31.40,14.27 29.39,17.68 27.44,19.40 25.50,21.13 22.55,22.76 19.60,24.40 14.91,23.37 10.22,22.34 9.87,22.10 9.52,21.86 9.26,21.52 9.01,21.19 8.87,20.78 8.74,20.38 8.74,19.95 8.74,19.53 8.88,19.13 9.02,18.73 9.27,18.39 9.53,18.05 9.88,17.81 10.24,17.58 10.65,17.46 11.06,17.35 11.48,17.38 11.91,17.40 12.30,17.56 12.69,17.72 13.02,17.99 13.34,18.27 13.56,18.63 13.78,19.00 13.87,19.41 13.96,19.83 13.91,20.25 13.86,20.67 13.68,21.06 13.50,21.44 13.21,21.75 12.92,22.06 12.54,22.26 12.16,22.45 11.74,22.52 11.32,22.59 10.90,22.52 10.49,22.45 10.11,22.25 9.74,22.05 9.44,21.74 9.15,21.43 8.98,21.04 8.80,20.66 8.75,20.23 8.71,19.81 8.80,19.40 8.90,18.98 9.12,18.62 9.34,18.26 9.66,17.98 9.99,17.71 10.38,17.55 10.78,17.40 11.20,17.37 11.63,17.35 12.03,17.47 12.44,17.58 12.44,17.58 12.44,17.58 14.82,16.24 17.19,14.90 19.48,13.35 21.77,11.79 23.51,9.12 25.25,6.46 25.61,4.05 25.98,1.65 24.14,-0.01 22.30,-1.68 20.23,-2.54 18.16,-3.39 15.42,-4.22 12.68,-5.04 10.43,-4.80 8.18,-4.57 6.39,-3.07 4.60,-1.58 3.49,-0.23 2.38,1.10 2.21,1.37 2.04,1.64 1.82,1.86 1.59,2.08 1.32,2.24 1.04,2.40 0.74,2.49 0.44,2.58 0.12,2.60 -0.19,2.61 -0.50,2.55 -0.81,2.49 -1.09,2.36 -1.38,2.23 -1.63,2.03 -1.88,1.83 -2.07,1.58 -2.26,1.33 -2.39,1.04 -2.51,0.75 -2.57,0.43 -2.62,0.12 -2.60,-0.18 -2.57,-0.50 -2.47,-0.80 -2.38,-1.10 -2.38,-1.10 L -2.38,-1.10 Z"/></g><g transform="translate(257.53546142578125 22.671890258789062) rotate(0 -0.03546142578125 17.19226837158203)" stroke="none"><path fill="#1e1e1e" d="M 2.62,-0.15 Q 2.62,-0.15 3.50,2.55 4.38,5.25 4.45,8.21 4.53,11.17 4.49,14.68 4.46,18.19 4.44,20.79 4.42,23.38 4.26,26.95 4.10,30.51 3.05,32.64 1.99,34.78 1.91,35.20 1.83,35.62 1.62,35.98 1.41,36.35 1.09,36.64 0.77,36.92 0.38,37.09 -0.00,37.25 -0.42,37.29 -0.84,37.32 -1.26,37.22 -1.67,37.11 -2.03,36.88 -2.38,36.65 -2.65,36.32 -2.91,35.99 -3.06,35.59 -3.21,35.19 -3.22,34.77 -3.23,34.34 -3.10,33.94 -2.97,33.53 -2.73,33.19 -2.48,32.84 -2.13,32.59 -1.79,32.35 -1.38,32.22 -0.97,32.10 -0.55,32.11 -0.12,32.12 0.27,32.27 0.66,32.42 0.99,32.69 1.33,32.95 1.55,33.31 1.78,33.67 1.88,34.08 1.98,34.50 1.95,34.92 1.91,35.34 1.74,35.73 1.57,36.12 1.29,36.44 1.01,36.75 0.63,36.96 0.26,37.17 -0.14,37.25 -0.56,37.33 -0.98,37.27 -1.40,37.21 -1.78,37.02 -2.16,36.83 -2.46,36.53 -2.76,36.23 -2.95,35.85 -3.14,35.47 -3.19,35.05 -3.25,34.62 -3.25,34.62 -3.25,34.63 -4.16,32.23 -5.08,29.84 -4.85,26.48 -4.62,23.13 -4.49,20.50 -4.37,17.87 -4.15,14.50 -3.93,11.13 -3.83,8.43 -3.73,5.73 -3.17,2.94 -2.62,0.15 -2.60,-0.16 -2.58,-0.47 -2.48,-0.77 -2.39,-1.08 -2.22,-1.35 -2.06,-1.62 -1.84,-1.84 -1.61,-2.06 -1.34,-2.23 -1.07,-2.39 -0.77,-2.49 -0.47,-2.58 -0.15,-2.60 0.16,-2.62 0.47,-2.56 0.78,-2.50 1.07,-2.37 1.36,-2.24 1.61,-2.05 1.85,-1.85 2.05,-1.60 2.24,-1.35 2.37,-1.06 2.50,-0.77 2.56,-0.46 2.62,-0.15 2.62,-0.15 L 2.62,-0.15 Z"/></g><g transform="translate(252.64569091796875 19.855911254882812) rotate(0 17.53936767578125 13.820510864257812)" stroke="none"><path fill="#1e1e1e" d="M -2.10,-1.57 Q -2.10,-1.57 -1.27,-3.41 -0.44,-5.25 1.50,-7.34 3.45,-9.43 5.77,-10.74 8.09,-12.05 11.16,-12.35 14.22,-12.65 17.05,-11.41 19.87,-10.18 21.81,-8.07 23.75,-5.96 24.86,-3.28 25.96,-0.59 26.04,2.34 26.11,5.27 24.53,8.87 22.94,12.47 20.85,15.15 18.75,17.83 16.80,19.60 14.84,21.38 12.94,22.38 11.05,23.38 8.87,23.71 6.70,24.04 4.16,22.15 1.62,20.26 1.92,17.91 2.21,15.57 4.91,14.12 7.60,12.67 10.02,13.31 12.43,13.95 15.17,16.39 17.91,18.83 19.71,21.29 21.52,23.75 23.22,25.96 24.92,28.17 26.59,29.76 28.26,31.34 30.46,31.58 32.65,31.83 33.04,31.66 33.44,31.50 33.86,31.47 34.28,31.45 34.69,31.55 35.11,31.66 35.46,31.90 35.82,32.13 36.08,32.47 36.34,32.80 36.48,33.20 36.62,33.60 36.62,34.03 36.63,34.45 36.50,34.86 36.37,35.26 36.12,35.60 35.86,35.94 35.51,36.19 35.17,36.43 34.76,36.55 34.35,36.67 33.92,36.65 33.50,36.63 33.10,36.48 32.71,36.33 32.38,36.06 32.05,35.79 31.83,35.42 31.60,35.06 31.51,34.65 31.41,34.23 31.45,33.81 31.49,33.39 31.67,33.00 31.84,32.61 32.13,32.30 32.42,31.99 32.79,31.79 33.16,31.58 33.58,31.51 34.00,31.43 34.42,31.50 34.84,31.56 35.22,31.76 35.60,31.95 35.89,32.25 36.19,32.56 36.37,32.94 36.55,33.33 36.61,33.75 36.66,34.17 36.57,34.59 36.48,35.00 36.27,35.37 36.06,35.74 35.73,36.02 35.41,36.29 35.41,36.29 35.41,36.29 33.65,37.58 31.89,38.87 28.62,39.74 25.34,40.61 22.87,39.40 20.40,38.20 18.64,36.39 16.87,34.59 15.01,32.04 13.15,29.48 11.73,27.40 10.31,25.32 9.72,22.90 9.14,20.49 9.59,16.74 10.05,12.99 11.62,11.32 13.19,9.65 14.75,7.50 16.31,5.34 16.65,2.89 17.00,0.45 15.58,-1.77 14.15,-3.99 11.91,-4.13 9.66,-4.27 7.41,-2.66 5.16,-1.05 3.63,0.26 2.10,1.57 1.88,1.80 1.66,2.03 1.39,2.20 1.12,2.37 0.82,2.47 0.52,2.57 0.21,2.59 -0.10,2.62 -0.41,2.57 -0.72,2.52 -1.01,2.40 -1.31,2.27 -1.56,2.08 -1.81,1.89 -2.01,1.65 -2.21,1.40 -2.35,1.12 -2.49,0.83 -2.55,0.52 -2.61,0.21 -2.60,-0.10 -2.59,-0.41 -2.50,-0.72 -2.41,-1.02 -2.25,-1.30 -2.10,-1.57 -2.10,-1.57 L -2.10,-1.57 Z"/></g><g transform="translate(366.45672607421875 17.92919921875) rotate(0 0.9212646484375 15.080284118652344)" stroke="none"><path fill="#1e1e1e" d="M -2.49,-0.82 Q -2.49,-0.82 -2.61,-2.02 -2.74,-3.22 -2.42,-4.20 -2.11,-5.18 -1.90,-5.59 -1.69,-5.99 -1.39,-6.34 -1.09,-6.69 -0.72,-6.95 -0.35,-7.21 0.07,-7.38 0.49,-7.55 0.94,-7.61 1.40,-7.67 1.85,-7.62 2.30,-7.57 2.73,-7.42 3.16,-7.26 3.54,-7.00 3.92,-6.75 4.23,-6.41 4.53,-6.07 4.75,-5.67 4.97,-5.27 5.08,-4.83 5.20,-4.39 5.21,-3.93 5.21,-3.47 5.11,-3.03 5.00,-2.58 5.65,0.43 6.29,3.45 6.26,5.61 6.24,7.77 6.21,10.07 6.18,12.37 6.24,14.50 6.30,16.63 6.32,19.93 6.34,23.24 6.23,26.23 6.13,29.23 4.83,31.72 3.54,34.21 3.48,34.63 3.42,35.05 3.23,35.43 3.04,35.81 2.74,36.11 2.44,36.41 2.06,36.60 1.68,36.79 1.26,36.85 0.84,36.91 0.42,36.83 0.00,36.75 -0.36,36.54 -0.73,36.33 -1.01,36.01 -1.29,35.69 -1.46,35.30 -1.63,34.91 -1.66,34.49 -1.70,34.07 -1.60,33.65 -1.49,33.24 -1.26,32.88 -1.03,32.53 -0.70,32.26 -0.37,31.99 0.02,31.85 0.42,31.70 0.84,31.69 1.27,31.68 1.67,31.80 2.08,31.93 2.42,32.18 2.77,32.42 3.02,32.77 3.26,33.11 3.39,33.52 3.51,33.93 3.50,34.35 3.49,34.78 3.34,35.18 3.20,35.57 2.93,35.91 2.66,36.24 2.30,36.47 1.95,36.69 1.53,36.80 1.12,36.90 0.70,36.86 0.27,36.83 -0.11,36.66 -0.50,36.49 -0.81,36.21 -1.13,35.93 -1.34,35.56 -1.55,35.19 -1.63,34.77 -1.71,34.35 -1.71,34.35 -1.71,34.35 -2.72,31.58 -3.74,28.81 -3.64,25.97 -3.54,23.14 -3.46,19.92 -3.38,16.71 -3.35,14.43 -3.33,12.15 -3.25,9.78 -3.17,7.42 -2.95,3.81 -2.72,0.21 -2.41,-2.48 -2.11,-5.18 -1.90,-5.59 -1.69,-5.99 -1.39,-6.34 -1.09,-6.69 -0.72,-6.95 -0.35,-7.21 0.06,-7.38 0.49,-7.55 0.94,-7.61 1.40,-7.67 1.85,-7.62 2.30,-7.57 2.73,-7.42 3.16,-7.26 3.54,-7.01 3.92,-6.75 4.23,-6.41 4.53,-6.07 4.75,-5.67 4.97,-5.27 5.08,-4.83 5.20,-4.39 5.21,-3.93 5.21,-3.47 5.11,-3.03 5.00,-2.58 4.56,-1.76 4.12,-0.94 3.31,-0.06 2.49,0.82 2.35,1.11 2.22,1.39 2.02,1.64 1.82,1.89 1.57,2.08 1.31,2.27 1.02,2.39 0.73,2.52 0.42,2.57 0.11,2.62 -0.20,2.59 -0.52,2.57 -0.82,2.47 -1.12,2.37 -1.38,2.20 -1.65,2.03 -1.87,1.80 -2.09,1.58 -2.25,1.30 -2.41,1.03 -2.50,0.72 -2.59,0.42 -2.60,0.10 -2.61,-0.20 -2.55,-0.51 -2.49,-0.82 -2.49,-0.82 L -2.49,-0.82 Z"/></g><g transform="translate(360.8582763671875 21.412109375) rotate(0 14.740142822265625 12.745994567871094)" stroke="none"><path fill="#1e1e1e" d="M -2.62,-0.16 Q -2.62,-0.16 -2.98,-1.50 -3.35,-2.85 -2.36,-5.29 -1.36,-7.74 1.16,-9.61 3.69,-11.49 6.86,-12.32 10.02,-13.16 13.45,-13.06 16.88,-12.97 20.23,-11.98 23.57,-10.99 25.83,-9.73 28.08,-8.48 29.65,-6.62 31.21,-4.76 31.42,-2.03 31.64,0.68 30.71,2.83 29.77,4.98 28.25,6.66 26.74,8.35 24.61,9.76 22.48,11.18 20.07,12.33 17.67,13.48 15.57,14.14 13.48,14.81 12.95,14.91 12.42,15.00 11.88,14.97 11.34,14.94 10.82,14.78 10.31,14.62 9.85,14.34 9.39,14.06 9.00,13.68 8.62,13.30 8.34,12.84 8.06,12.38 7.90,11.86 7.74,11.35 7.71,10.81 7.67,10.27 7.77,9.74 7.87,9.21 8.09,8.72 8.31,8.23 8.64,7.80 8.97,7.38 9.40,7.04 9.82,6.71 10.31,6.49 10.81,6.27 13.21,6.35 15.61,6.44 18.29,6.98 20.97,7.52 23.34,8.39 25.71,9.26 27.86,10.60 30.01,11.94 31.67,13.82 33.33,15.71 33.94,19.25 34.56,22.80 33.54,25.97 32.51,29.14 30.45,31.80 28.38,34.46 25.94,36.29 23.50,38.11 20.70,38.92 17.89,39.72 14.91,38.85 11.93,37.98 10.35,36.42 8.76,34.86 8.44,34.59 8.11,34.32 7.88,33.96 7.66,33.60 7.56,33.19 7.46,32.77 7.50,32.35 7.54,31.93 7.71,31.54 7.88,31.15 8.17,30.84 8.46,30.52 8.83,30.32 9.20,30.11 9.62,30.04 10.04,29.96 10.46,30.02 10.88,30.09 11.26,30.28 11.64,30.47 11.93,30.77 12.23,31.08 12.41,31.46 12.60,31.84 12.65,32.27 12.71,32.69 12.62,33.10 12.54,33.52 12.32,33.89 12.11,34.26 11.79,34.54 11.47,34.82 11.08,34.98 10.69,35.14 10.26,35.17 9.84,35.20 9.43,35.10 9.02,34.99 8.66,34.76 8.31,34.52 8.04,34.19 7.78,33.86 7.64,33.46 7.50,33.06 7.49,32.63 7.48,32.21 7.61,31.80 7.74,31.40 7.99,31.05 8.24,30.71 8.59,30.47 8.94,30.22 9.35,30.10 9.75,29.98 10.18,30.00 10.60,30.01 11.00,30.16 11.40,30.32 11.40,30.32 11.40,30.32 12.72,30.25 14.04,30.18 16.13,29.64 18.23,29.10 20.38,27.57 22.54,26.05 23.85,24.12 25.16,22.18 24.49,20.02 23.82,17.86 21.40,16.77 18.97,15.69 16.23,15.25 13.48,14.81 12.95,14.91 12.42,15.00 11.88,14.97 11.34,14.94 10.82,14.78 10.31,14.62 9.85,14.34 9.39,14.06 9.00,13.68 8.62,13.30 8.34,12.84 8.06,12.38 7.90,11.86 7.74,11.35 7.71,10.81 7.67,10.27 7.77,9.74 7.87,9.21 8.09,8.72 8.31,8.23 8.64,7.80 8.97,7.38 9.40,7.04 9.82,6.71 10.31,6.49 10.81,6.27 11.48,6.04 12.16,5.82 14.46,4.94 16.76,4.06 18.76,2.99 20.75,1.91 21.48,-0.30 22.21,-2.51 20.16,-3.35 18.11,-4.20 15.64,-4.80 13.17,-5.41 10.27,-5.01 7.38,-4.62 5.53,-3.48 3.68,-2.34 3.15,-1.09 2.62,0.16 2.56,0.47 2.50,0.78 2.37,1.07 2.24,1.36 2.04,1.61 1.85,1.86 1.60,2.05 1.35,2.25 1.06,2.38 0.77,2.50 0.46,2.56 0.15,2.62 -0.16,2.60 -0.47,2.58 -0.78,2.48 -1.08,2.39 -1.35,2.22 -1.62,2.06 -1.84,1.83 -2.07,1.61 -2.23,1.34 -2.39,1.07 -2.49,0.77 -2.58,0.46 -2.60,0.15 -2.62,-0.16 -2.62,-0.16 L -2.62,-0.16 Z"/></g><g transform="translate(418.401611328125 23.190628051757812) rotate(0 -0.708709716796875 12.523674011230469)" stroke="none"><path fill="#1e1e1e" d="M 0.80,2.49 Q 0.80,2.49 -1.04,3.66 -2.90,4.83 -4.83,6.67 -6.77,8.52 -8.30,11.15 -9.83,13.78 -10.58,17.20 -11.34,20.61 -10.51,22.60 -9.67,24.59 -6.40,23.43 -3.13,22.28 -0.88,20.44 1.37,18.59 3.37,15.95 5.38,13.31 6.95,10.19 8.52,7.07 9.03,4.09 9.54,1.12 6.82,0.88 4.09,0.64 1.81,1.53 -0.47,2.43 -0.85,2.61 -1.23,2.80 -1.65,2.86 -2.07,2.91 -2.49,2.83 -2.91,2.75 -3.28,2.54 -3.65,2.33 -3.93,2.01 -4.21,1.69 -4.38,1.30 -4.54,0.91 -4.58,0.49 -4.61,0.06 -4.50,-0.34 -4.40,-0.75 -4.17,-1.11 -3.94,-1.47 -3.61,-1.73 -3.27,-1.99 -2.87,-2.14 -2.47,-2.28 -2.05,-2.29 -1.62,-2.30 -1.22,-2.18 -0.81,-2.05 -0.47,-1.80 -0.13,-1.55 0.11,-1.20 0.36,-0.86 0.48,-0.45 0.60,-0.04 0.59,0.37 0.58,0.79 0.43,1.19 0.28,1.59 0.01,1.92 -0.25,2.25 -0.61,2.48 -0.96,2.71 -1.38,2.81 -1.79,2.91 -2.21,2.87 -2.64,2.83 -3.03,2.66 -3.42,2.49 -3.73,2.21 -4.05,1.92 -4.25,1.55 -4.46,1.18 -4.54,0.76 -4.62,0.35 -4.56,-0.06 -4.50,-0.49 -4.31,-0.87 -4.12,-1.24 -3.82,-1.54 -3.51,-1.84 -3.51,-1.84 -3.51,-1.84 -0.95,-4.00 1.61,-6.15 4.92,-7.20 8.23,-8.24 11.67,-7.49 15.12,-6.73 16.98,-3.94 18.83,-1.14 18.74,2.35 18.65,5.85 17.99,8.40 17.33,10.95 16.42,12.96 15.52,14.98 14.40,16.90 13.29,18.82 12.00,20.62 10.71,22.42 9.23,24.08 7.74,25.75 6.00,27.23 4.26,28.72 2.17,29.95 0.09,31.19 -2.30,31.98 -4.70,32.78 -8.35,32.99 -12.00,33.21 -15.05,31.05 -18.10,28.89 -19.08,25.73 -20.06,22.58 -19.53,18.76 -18.99,14.93 -18.10,12.39 -17.20,9.85 -14.77,6.38 -12.35,2.92 -10.75,1.47 -9.16,0.02 -7.20,-1.08 -5.24,-2.18 -3.02,-2.34 -0.80,-2.49 -0.49,-2.55 -0.18,-2.61 0.12,-2.60 0.44,-2.58 0.74,-2.49 1.05,-2.40 1.32,-2.24 1.59,-2.08 1.82,-1.86 2.04,-1.64 2.21,-1.37 2.38,-1.10 2.48,-0.80 2.57,-0.50 2.60,-0.18 2.62,0.12 2.56,0.44 2.51,0.75 2.38,1.04 2.26,1.33 2.07,1.58 1.87,1.83 1.63,2.03 1.38,2.23 1.09,2.36 0.80,2.49 0.80,2.49 L 0.80,2.49 Z"/></g><g transform="translate(442 26.895843505859375) rotate(0 8.6102294921875 14.598602294921875)" stroke="none"><path fill="#1e1e1e" d="M 2.12,-1.54 Q 2.12,-1.54 4.53,0.38 6.94,2.30 8.39,4.18 9.83,6.05 12.20,9.33 14.57,12.61 15.80,14.42 17.03,16.23 18.45,18.91 19.87,21.59 19.71,25.19 19.55,28.79 19.49,29.21 19.43,29.63 19.23,30.01 19.04,30.39 18.73,30.68 18.43,30.98 18.04,31.16 17.66,31.34 17.24,31.39 16.82,31.45 16.40,31.36 15.98,31.27 15.62,31.06 15.25,30.84 14.97,30.52 14.69,30.20 14.53,29.81 14.37,29.42 14.34,28.99 14.31,28.57 14.42,28.16 14.53,27.75 14.76,27.39 15.00,27.04 15.33,26.78 15.67,26.52 16.07,26.37 16.47,26.23 16.90,26.23 17.32,26.22 17.73,26.36 18.13,26.49 18.47,26.74 18.81,26.99 19.06,27.34 19.30,27.69 19.42,28.10 19.54,28.51 19.52,28.93 19.50,29.35 19.35,29.75 19.19,30.15 18.92,30.48 18.65,30.80 18.29,31.03 17.93,31.25 17.51,31.35 17.10,31.44 16.68,31.40 16.26,31.36 15.87,31.19 15.48,31.01 15.17,30.72 14.86,30.44 14.65,30.06 14.45,29.69 14.37,29.27 14.30,28.85 14.30,28.85 14.30,28.85 12.72,27.60 11.14,26.34 9.72,24.01 8.30,21.67 7.20,19.75 6.11,17.83 4.23,14.49 2.35,11.16 1.20,9.24 0.06,7.32 -1.03,4.43 -2.12,1.54 -2.27,1.26 -2.43,0.99 -2.51,0.68 -2.59,0.38 -2.60,0.06 -2.61,-0.25 -2.54,-0.56 -2.47,-0.86 -2.33,-1.15 -2.19,-1.43 -1.99,-1.67 -1.79,-1.92 -1.53,-2.10 -1.27,-2.29 -0.98,-2.41 -0.69,-2.53 -0.37,-2.57 -0.06,-2.62 0.24,-2.59 0.56,-2.56 0.86,-2.46 1.16,-2.35 1.42,-2.18 1.69,-2.00 1.90,-1.77 2.12,-1.54 2.12,-1.54 L 2.12,-1.54 Z"/></g><g transform="translate(440.5118408203125 50.831634521484375) rotate(0 13.1102294921875 -12.894195556640625)" stroke="none"><path fill="#1e1e1e" d="M -2.01,-1.68 Q -2.01,-1.68 -0.86,-4.07 0.28,-6.47 2.38,-8.98 4.49,-11.49 6.45,-13.53 8.41,-15.57 10.35,-17.39 12.28,-19.21 13.99,-20.65 15.69,-22.10 19.51,-24.35 23.32,-26.60 23.67,-26.85 24.01,-27.10 24.42,-27.22 24.82,-27.35 25.25,-27.34 25.67,-27.33 26.07,-27.18 26.47,-27.03 26.80,-26.77 27.13,-26.50 27.36,-26.15 27.59,-25.79 27.70,-25.38 27.80,-24.96 27.77,-24.54 27.73,-24.12 27.56,-23.73 27.40,-23.34 27.11,-23.02 26.83,-22.70 26.46,-22.49 26.09,-22.28 25.68,-22.20 25.26,-22.12 24.84,-22.18 24.42,-22.23 24.03,-22.42 23.65,-22.61 23.35,-22.91 23.05,-23.21 22.86,-23.59 22.67,-23.97 22.61,-24.39 22.56,-24.81 22.64,-25.23 22.71,-25.65 22.92,-26.02 23.13,-26.39 23.45,-26.67 23.76,-26.96 24.15,-27.13 24.54,-27.29 24.97,-27.33 25.39,-27.36 25.80,-27.26 26.22,-27.16 26.57,-26.93 26.93,-26.70 27.20,-26.37 27.47,-26.04 27.61,-25.64 27.76,-25.25 27.77,-24.82 27.79,-24.40 27.66,-23.99 27.54,-23.58 27.29,-23.24 27.04,-22.89 27.04,-22.89 27.04,-22.89 24.46,-18.97 21.87,-15.05 20.23,-13.56 18.59,-12.07 16.69,-10.49 14.78,-8.91 12.78,-7.17 10.78,-5.42 8.54,-3.43 6.31,-1.44 4.16,0.11 2.01,1.68 1.78,1.89 1.55,2.11 1.28,2.27 1.00,2.42 0.70,2.51 0.39,2.59 0.07,2.60 -0.23,2.61 -0.54,2.54 -0.85,2.48 -1.14,2.34 -1.42,2.20 -1.66,2.00 -1.91,1.80 -2.09,1.54 -2.28,1.29 -2.40,0.99 -2.53,0.70 -2.57,0.39 -2.62,0.07 -2.59,-0.23 -2.56,-0.55 -2.46,-0.85 -2.36,-1.14 -2.18,-1.41 -2.01,-1.68 -2.01,-1.68 L -2.01,-1.68 Z"/></g><g stroke-linecap="round" transform="translate(106.590576171875 254.24871826171875) rotate(0 94.00393676757812 95.81724548339844)"><path d="M32 0 C76.5 -1.48, 117.93 1.64, 156.01 0 M32 0 C58.69 0.91, 88.08 0.61, 156.01 0 M156.01 0 C176.95 1.49, 186.44 9.59, 188.01 32 M156.01 0 C176.96 -1.32, 187.13 9.15, 188.01 32 M188.01 32 C189.28 68.73, 186.49 108.73, 188.01 159.63 M188.01 32 C187.82 65.61, 187.7 97.79, 188.01 159.63 M188.01 159.63 C188.84 180.88, 175.69 189.66, 156.01 191.63 M188.01 159.63 C187.51 181.98, 179.53 191.4, 156.01 191.63 M156.01 191.63 C105.91 189.99, 60.26 190.79, 32 191.63 M156.01 191.63 C127.16 191.41, 96.58 190.45, 32 191.63 M32 191.63 C9.34 191.17, -0.03 179.97, 0 159.63 M32 191.63 C12.5 193.84, -0.2 178.86, 0 159.63 M0 159.63 C-1.19 132.72, 1.32 107.86, 0 32 M0 159.63 C-0.53 118.97, -1.71 80.11, 0 32 M0 32 C-0.73 11.89, 12.39 -1.63, 32 0 M0 32 C-0.49 11.84, 12.23 -2, 32 0" stroke="#1e1e1e" stroke-width="2" fill="none"/></g><g stroke-linecap="round" transform="translate(475.6260070800781 252.0081024169922) rotate(0 94.00393676757812 95.81724548339844)"><path d="M32 0 C72.48 1.57, 111.16 -0.81, 156.01 0 M32 0 C81 0.06, 130.93 -1.05, 156.01 0 M156.01 0 C176.93 1.87, 188.65 12.56, 188.01 32 M156.01 0 C176.55 -0.74, 188.14 10.03, 188.01 32 M188.01 32 C187.43 65.86, 189.02 97.61, 188.01 159.63 M188.01 32 C187.75 81.63, 185.98 131.72, 188.01 159.63 M188.01 159.63 C189.38 180.47, 178.98 189.94, 156.01 191.63 M188.01 159.63 C186.82 183.17, 178.7 193.71, 156.01 191.63 M156.01 191.63 C109.45 192.49, 64.44 191.35, 32 191.63 M156.01 191.63 C111.73 191.14, 67.79 191.46, 32 191.63 M32 191.63 C12.14 193.55, -1.47 181.91, 0 159.63 M32 191.63 C10.31 191.35, 0.81 182.61, 0 159.63 M0 159.63 C2.49 116.14, 0.07 76.79, 0 32 M0 159.63 C0.31 130.17, 1.83 101.22, 0 32 M0 32 C-1.44 11.7, 10.67 0.77, 32 0 M0 32 C-1.07 12.93, 10.77 0.82, 32 0" stroke="#1e1e1e" stroke-width="2" fill="none"/></g><g stroke-linecap="round"><g transform="translate(478.3543701171875 341.6180725097656) rotate(0 -92.40945434570312 0.0740966796875)"><path d="M0.66 -0.65 C-29.94 -0.6, -152.82 -0.02, -183.71 0.31 M-0.45 1.62 C-31.1 1.89, -153.25 2.27, -184.07 1.92" stroke="#1e1e1e" stroke-width="2" fill="none"/></g></g><mask/><g stroke-linecap="round"><g transform="translate(201.83465576171875 178.29153442382812) rotate(0 -1.4527587890625 36.274200439453125)"><path d="M0.35 -0.96 C-0.15 10.88, -1.59 59.61, -1.94 72 M-0.92 1.15 C-1.59 13.06, -2.21 61.53, -2.38 73.25" stroke="#1e1e1e" stroke-width="2" fill="none"/></g></g><mask/><g stroke-linecap="round"><g transform="translate(194.67718505859375 451.1446838378906) rotate(0 0.106292724609375 32.19842529296875)"><path d="M-0.68 -0.2 C-0.47 10.61, 0.84 54.6, 0.92 65.44 M1.16 -1.36 C1.31 9.1, 0.74 53.19, 0.34 63.87" stroke="#1e1e1e" stroke-width="2" fill="none"/></g></g><mask/><g stroke-linecap="round"><g transform="translate(567.0078735351562 178.43975830078125) rotate(0 0.6732177734375 35.236724853515625)"><path d="M-0.33 -1.19 C-0.24 10.59, 0.3 58.08, 0.43 70.1 M1.7 0.81 C2.17 12.8, 2.47 60.11, 2.66 71.45" stroke="#1e1e1e" stroke-width="2" fill="none"/></g></g><mask/><g stroke-linecap="round"><g transform="translate(570.5512084960938 446.6242980957031) rotate(0 0.248046875 38.31207275390625)"><path d="M0.98 -0.95 C0.89 12.14, -0.38 64.9, -0.58 77.68 M0.03 1.17 C0.31 14.02, 1.19 63.54, 1.56 76.11" stroke="#1e1e1e" stroke-width="2" fill="none"/></g></g><mask/><g transform="translate(221.251953125 221.79092407226562) rotate(0 6.838592529296875 -3.7052154541015625)" stroke="none"><path fill="#1e1e1e" d="M -0.32,-0.57 Q -0.32,-0.57 0.44,-1.16 1.21,-1.75 1.76,-2.20 2.31,-2.66 2.84,-3.15 3.37,-3.65 3.85,-4.14 4.32,-4.63 4.73,-5.08 5.15,-5.54 5.50,-5.99 5.86,-6.45 6.32,-7.04 6.78,-7.64 7.06,-8.02 7.34,-8.41 7.44,-8.52 7.54,-8.63 7.66,-8.71 7.78,-8.79 7.92,-8.85 8.06,-8.90 8.20,-8.92 8.35,-8.93 8.49,-8.91 8.64,-8.90 8.78,-8.84 8.92,-8.79 9.04,-8.71 9.16,-8.62 9.26,-8.51 9.35,-8.40 9.42,-8.27 9.49,-8.14 9.52,-8.00 9.56,-7.85 9.56,-7.70 9.56,-7.56 9.52,-7.41 9.49,-7.27 9.42,-7.14 9.35,-7.01 9.87,-6.76 10.39,-6.51 10.53,-5.94 10.67,-5.38 11.00,-4.51 11.32,-3.65 11.61,-3.15 11.90,-2.66 12.40,-3.79 12.89,-4.92 12.93,-5.02 12.96,-5.13 13.03,-5.21 13.09,-5.29 13.18,-5.35 13.27,-5.41 13.38,-5.44 13.48,-5.46 13.58,-5.46 13.69,-5.45 13.79,-5.41 13.89,-5.37 13.97,-5.30 14.05,-5.23 14.10,-5.14 14.15,-5.04 14.17,-4.94 14.20,-4.84 14.18,-4.73 14.17,-4.63 14.12,-4.53 14.08,-4.43 14.00,-4.36 13.93,-4.28 13.84,-4.23 13.74,-4.18 13.64,-4.17 13.53,-4.15 13.43,-4.17 13.32,-4.19 13.23,-4.24 13.14,-4.29 13.06,-4.37 12.99,-4.45 12.95,-4.55 12.90,-4.64 12.89,-4.75 12.88,-4.85 12.91,-4.96 12.93,-5.06 12.99,-5.15 13.05,-5.24 13.13,-5.31 13.21,-5.38 13.31,-5.41 13.41,-5.45 13.51,-5.46 13.62,-5.46 13.72,-5.43 13.82,-5.40 13.91,-5.34 14.00,-5.28 14.06,-5.19 14.12,-5.11 14.16,-5.01 14.19,-4.91 14.19,-4.80 14.19,-4.69 14.19,-4.69 14.19,-4.69 13.58,-2.71 12.97,-0.73 12.30,-0.43 11.63,-0.13 11.03,-0.23 10.43,-0.34 9.79,-0.98 9.15,-1.62 8.74,-2.60 8.32,-3.58 8.13,-4.14 7.94,-4.71 7.74,-5.50 7.54,-6.28 7.44,-7.35 7.34,-8.41 7.44,-8.52 7.54,-8.63 7.66,-8.71 7.78,-8.79 7.92,-8.85 8.06,-8.90 8.20,-8.92 8.35,-8.93 8.49,-8.91 8.64,-8.90 8.78,-8.84 8.92,-8.79 9.04,-8.71 9.16,-8.62 9.26,-8.51 9.35,-8.40 9.42,-8.27 9.49,-8.14 9.52,-8.00 9.56,-7.85 9.56,-7.70 9.56,-7.56 9.52,-7.41 9.49,-7.27 9.42,-7.14 9.35,-7.01 8.99,-6.62 8.62,-6.23 8.10,-5.63 7.58,-5.03 7.15,-4.54 6.72,-4.05 6.26,-3.58 5.79,-3.10 5.25,-2.61 4.72,-2.12 4.11,-1.62 3.50,-1.11 2.81,-0.62 2.12,-0.12 1.22,0.22 0.32,0.57 0.24,0.60 0.17,0.63 0.09,0.64 0.01,0.65 -0.06,0.64 -0.13,0.64 -0.21,0.61 -0.28,0.58 -0.35,0.54 -0.42,0.50 -0.47,0.44 -0.52,0.38 -0.56,0.31 -0.60,0.24 -0.62,0.17 -0.64,0.09 -0.65,0.01 -0.65,-0.06 -0.63,-0.13 -0.62,-0.21 -0.58,-0.28 -0.55,-0.35 -0.49,-0.41 -0.44,-0.47 -0.38,-0.52 -0.32,-0.57 -0.32,-0.57 L -0.32,-0.57 Z"/></g><g transform="translate(231.45672607421875 198.5220947265625) rotate(0 -0.212615966796875 -0.4446258544921875)" stroke="none"><path fill="#1e1e1e" d="M -0.83,-0.22 Q -0.83,-0.22 -0.86,-0.33 -0.89,-0.43 -0.89,-0.53 -0.88,-0.64 -0.84,-0.74 -0.81,-0.84 -0.74,-0.92 -0.67,-1.00 -0.58,-1.06 -0.49,-1.11 -0.39,-1.14 -0.28,-1.16 -0.18,-1.15 -0.07,-1.14 0.02,-1.10 0.11,-1.05 0.19,-0.98 0.27,-0.91 0.32,-0.82 0.37,-0.72 0.39,-0.62 0.41,-0.51 0.39,-0.41 0.38,-0.30 0.33,-0.21 0.28,-0.12 0.20,-0.04 0.13,0.02 0.03,0.07 -0.06,0.11 -0.16,0.13 -0.27,0.14 -0.37,0.12 -0.47,0.10 -0.57,0.04 -0.66,-0.00 -0.73,-0.08 -0.80,-0.16 -0.84,-0.26 -0.88,-0.36 -0.89,-0.46 -0.89,-0.57 -0.87,-0.67 -0.84,-0.77 -0.78,-0.86 -0.72,-0.95 -0.64,-1.02 -0.55,-1.08 -0.45,-1.12 -0.35,-1.15 -0.25,-1.15 -0.14,-1.16 -0.04,-1.12 0.05,-1.09 0.14,-1.03 0.22,-0.96 0.28,-0.88 0.34,-0.79 0.34,-0.79 0.34,-0.79 0.43,-0.74 0.52,-0.68 0.60,-0.61 0.67,-0.54 0.73,-0.45 0.78,-0.36 0.81,-0.26 0.85,-0.16 0.85,-0.06 0.86,0.04 0.84,0.14 0.83,0.24 0.78,0.34 0.74,0.44 0.68,0.52 0.61,0.60 0.53,0.67 0.45,0.73 0.36,0.78 0.26,0.82 0.16,0.84 0.06,0.86 -0.04,0.86 -0.14,0.85 -0.24,0.82 -0.34,0.79 -0.59,0.28 L -0.83,-0.22 Z"/></g><g transform="translate(234.14959716796875 220.67938232421875) rotate(0 12.08270263671875 -4.9650115966796875)" stroke="none"><path fill="#1e1e1e" d="M -0.52,-0.39 Q -0.52,-0.39 -0.30,-1.11 -0.07,-1.84 0.74,-2.71 1.56,-3.57 2.08,-4.01 2.60,-4.45 3.13,-4.87 3.65,-5.30 4.14,-5.72 4.63,-6.13 5.14,-6.55 5.66,-6.96 6.25,-7.34 6.84,-7.72 7.55,-8.18 8.27,-8.63 9.14,-8.88 10.02,-9.13 10.59,-8.86 11.16,-8.60 11.41,-8.12 11.66,-7.64 11.65,-7.09 11.63,-6.55 11.48,-5.94 11.33,-5.33 11.03,-4.44 10.73,-3.54 10.52,-2.95 10.31,-2.36 10.15,-1.95 9.99,-1.54 9.92,-1.40 9.85,-1.27 9.75,-1.16 9.65,-1.05 9.52,-0.96 9.40,-0.88 9.26,-0.82 9.11,-0.77 8.96,-0.75 8.81,-0.74 8.66,-0.76 8.51,-0.78 8.37,-0.83 8.23,-0.89 8.11,-0.97 7.98,-1.06 7.88,-1.18 7.78,-1.29 7.72,-1.43 7.65,-1.56 7.61,-1.71 7.58,-1.85 7.58,-2.01 7.58,-2.16 7.62,-2.30 7.66,-2.45 8.12,-3.10 8.58,-3.76 9.22,-4.67 9.85,-5.58 10.24,-6.11 10.62,-6.64 11.07,-7.13 11.52,-7.63 12.12,-8.38 12.73,-9.12 13.21,-9.61 13.70,-10.09 14.67,-10.04 15.63,-9.98 15.95,-9.10 16.27,-8.22 16.08,-7.16 15.88,-6.10 15.71,-5.25 15.54,-4.39 15.43,-3.82 15.33,-3.25 15.30,-2.70 15.27,-2.15 15.56,-2.69 15.85,-3.23 16.36,-3.50 16.86,-3.77 17.37,-4.09 17.87,-4.42 18.57,-4.92 19.27,-5.43 19.87,-5.85 20.48,-6.27 21.83,-7.21 23.19,-8.15 23.27,-8.21 23.36,-8.28 23.46,-8.31 23.56,-8.35 23.67,-8.35 23.77,-8.35 23.87,-8.31 23.97,-8.28 24.06,-8.21 24.14,-8.15 24.20,-8.06 24.26,-7.97 24.29,-7.87 24.32,-7.77 24.31,-7.66 24.31,-7.56 24.27,-7.46 24.23,-7.36 24.16,-7.28 24.09,-7.20 24.00,-7.14 23.91,-7.09 23.81,-7.07 23.70,-7.04 23.60,-7.05 23.49,-7.07 23.39,-7.11 23.30,-7.15 23.22,-7.23 23.14,-7.30 23.09,-7.39 23.04,-7.49 23.03,-7.59 23.01,-7.70 23.03,-7.80 23.04,-7.91 23.09,-8.00 23.14,-8.10 23.22,-8.17 23.30,-8.24 23.39,-8.29 23.49,-8.33 23.60,-8.34 23.70,-8.35 23.81,-8.33 23.91,-8.31 24.00,-8.25 24.09,-8.20 24.16,-8.12 24.23,-8.04 24.27,-7.94 24.31,-7.84 24.31,-7.73 24.32,-7.63 24.29,-7.53 24.26,-7.42 24.20,-7.33 24.14,-7.25 24.14,-7.25 24.14,-7.25 22.99,-5.84 21.84,-4.43 21.26,-3.97 20.68,-3.51 19.93,-2.95 19.18,-2.38 18.59,-2.00 17.99,-1.63 17.44,-1.34 16.89,-1.05 15.84,-0.71 14.79,-0.38 14.24,-0.55 13.69,-0.72 13.33,-1.18 12.97,-1.64 12.94,-2.34 12.92,-3.03 13.03,-3.68 13.13,-4.33 13.33,-5.10 13.52,-5.87 13.73,-6.75 13.94,-7.63 14.45,-8.05 14.96,-8.48 14.42,-7.74 13.89,-7.01 13.56,-6.57 13.23,-6.13 12.87,-5.71 12.51,-5.30 12.16,-4.78 11.81,-4.27 11.43,-3.68 11.05,-3.09 10.52,-2.31 9.99,-1.54 9.92,-1.40 9.85,-1.27 9.75,-1.16 9.65,-1.05 9.52,-0.96 9.40,-0.88 9.26,-0.82 9.11,-0.77 8.96,-0.75 8.81,-0.74 8.66,-0.76 8.51,-0.78 8.37,-0.83 8.23,-0.89 8.11,-0.97 7.98,-1.06 7.88,-1.18 7.78,-1.29 7.72,-1.43 7.65,-1.56 7.61,-1.71 7.58,-1.85 7.58,-2.01 7.58,-2.16 7.62,-2.30 7.66,-2.45 7.91,-3.09 8.16,-3.73 8.40,-4.42 8.65,-5.11 9.14,-5.85 9.63,-6.59 8.89,-6.12 8.14,-5.65 7.66,-5.35 7.17,-5.05 6.68,-4.67 6.20,-4.29 5.67,-3.85 5.15,-3.41 4.64,-3.01 4.13,-2.61 3.66,-2.22 3.18,-1.83 2.48,-1.14 1.79,-0.45 1.15,-0.03 0.52,0.39 0.47,0.44 0.41,0.50 0.35,0.54 0.28,0.59 0.20,0.61 0.13,0.64 0.05,0.64 -0.02,0.65 -0.10,0.64 -0.17,0.63 -0.25,0.60 -0.32,0.57 -0.38,0.52 -0.45,0.47 -0.50,0.41 -0.55,0.35 -0.58,0.28 -0.62,0.21 -0.63,0.13 -0.65,0.05 -0.65,-0.02 -0.64,-0.10 -0.62,-0.17 -0.60,-0.25 -0.56,-0.32 -0.52,-0.39 -0.52,-0.39 L -0.52,-0.39 Z"/></g><g transform="translate(263.7008056640625 208.22979736328125) rotate(0 -3.18896484375 12.523681640625)" stroke="none"><path fill="#1e1e1e" d="M 0.57,0.31 Q 0.57,0.31 0.37,1.12 0.17,1.92 -0.06,2.56 -0.30,3.20 -0.45,4.00 -0.59,4.80 -0.87,6.17 -1.15,7.53 -1.38,8.52 -1.60,9.51 -1.92,11.09 -2.24,12.67 -2.54,14.13 -2.84,15.60 -3.03,16.83 -3.23,18.07 -3.42,19.18 -3.60,20.30 -3.77,21.17 -3.93,22.03 -4.72,23.13 -5.51,24.23 -5.54,24.31 -5.56,24.38 -5.60,24.45 -5.64,24.52 -5.70,24.57 -5.76,24.63 -5.82,24.67 -5.89,24.71 -5.97,24.73 -6.04,24.76 -6.12,24.76 -6.20,24.76 -6.28,24.75 -6.36,24.73 -6.43,24.70 -6.50,24.67 -6.56,24.62 -6.62,24.57 -6.67,24.51 -6.72,24.44 -6.75,24.37 -6.78,24.30 -6.80,24.22 -6.81,24.14 -6.81,24.06 -6.80,23.99 -6.80,24.13 -6.79,24.28 -6.80,24.17 -6.81,24.07 -6.79,23.96 -6.76,23.86 -6.71,23.77 -6.65,23.68 -6.57,23.61 -6.49,23.54 -6.39,23.50 -6.29,23.47 -6.19,23.46 -6.08,23.46 -5.98,23.49 -5.88,23.52 -5.79,23.58 -5.70,23.64 -5.64,23.72 -5.57,23.81 -5.54,23.91 -5.51,24.01 -5.51,24.11 -5.51,24.22 -5.54,24.32 -5.58,24.42 -5.64,24.51 -5.71,24.59 -5.80,24.65 -5.89,24.71 -5.99,24.73 -6.09,24.76 -6.20,24.76 -6.30,24.75 -6.40,24.71 -6.50,24.67 -6.58,24.60 -6.66,24.53 -6.71,24.44 -6.77,24.35 -6.79,24.24 -6.81,24.14 -6.80,24.03 -6.79,23.93 -6.74,23.83 -6.70,23.73 -6.62,23.66 -6.55,23.58 -6.45,23.53 -6.36,23.48 -6.26,23.47 -6.15,23.45 -6.05,23.47 -5.94,23.49 -5.85,23.54 -5.75,23.59 -5.68,23.67 -5.61,23.75 -5.56,23.99 -5.51,24.23 -5.54,24.31 -5.56,24.38 -5.60,24.45 -5.64,24.52 -5.70,24.57 -5.76,24.63 -5.82,24.67 -5.89,24.71 -5.97,24.73 -6.04,24.76 -6.12,24.76 -6.20,24.76 -6.28,24.75 -6.36,24.73 -6.43,24.70 -6.50,24.67 -6.56,24.62 -6.62,24.57 -6.67,24.51 -6.72,24.44 -6.75,24.37 -6.78,24.30 -6.80,24.22 -6.81,24.14 -6.81,24.06 -6.80,23.99 -6.72,22.75 -6.63,21.52 -6.47,20.68 -6.31,19.83 -6.11,18.72 -5.91,17.62 -5.68,16.33 -5.45,15.04 -5.13,13.58 -4.81,12.12 -4.44,10.52 -4.07,8.92 -3.83,7.95 -3.59,6.97 -3.25,5.62 -2.90,4.27 -2.65,3.30 -2.39,2.33 -2.05,1.61 -1.71,0.88 -1.14,0.28 -0.57,-0.31 -0.52,-0.38 -0.48,-0.44 -0.42,-0.49 -0.36,-0.54 -0.29,-0.58 -0.22,-0.61 -0.14,-0.63 -0.06,-0.65 0.01,-0.65 0.09,-0.65 0.16,-0.62 0.24,-0.60 0.31,-0.57 0.38,-0.53 0.44,-0.47 0.50,-0.42 0.54,-0.35 0.58,-0.29 0.61,-0.21 0.64,-0.14 0.64,-0.06 0.65,0.01 0.64,0.09 0.63,0.16 0.60,0.24 0.57,0.31 0.57,0.31 L 0.57,0.31 Z"/></g><g transform="translate(254.13385009765625 208.74853515625) rotate(0 7.157501220703125 3.44586181640625)" stroke="none"><path fill="#1e1e1e" d="M -0.57,-0.31 Q -0.57,-0.31 -0.43,-0.98 -0.29,-1.65 0.29,-2.16 0.88,-2.67 1.64,-2.97 2.41,-3.27 3.18,-3.39 3.96,-3.51 4.81,-3.54 5.67,-3.57 6.59,-3.52 7.51,-3.47 8.33,-3.36 9.15,-3.25 9.94,-3.07 10.73,-2.89 11.58,-2.56 12.43,-2.23 13.10,-1.88 13.76,-1.52 14.33,-0.94 14.89,-0.35 15.22,0.34 15.56,1.04 15.63,1.89 15.70,2.75 15.53,3.56 15.37,4.38 14.98,5.25 14.59,6.12 14.15,6.85 13.70,7.58 13.26,8.15 12.82,8.72 12.26,9.20 11.69,9.67 11.04,9.97 10.39,10.26 9.81,10.36 9.24,10.46 8.21,8.99 7.17,7.51 7.10,7.52 7.02,7.52 6.94,7.51 6.86,7.49 6.79,7.46 6.72,7.43 6.65,7.38 6.59,7.33 6.54,7.27 6.49,7.20 6.46,7.13 6.43,7.06 6.41,6.98 6.40,6.90 6.41,6.82 6.41,6.75 6.43,6.67 6.46,6.59 6.50,6.53 6.54,6.46 6.60,6.40 6.65,6.35 6.72,6.31 6.79,6.27 6.86,6.24 6.94,6.22 6.76,6.31 6.59,6.40 6.68,6.34 6.76,6.28 6.87,6.24 6.97,6.21 7.07,6.22 7.18,6.22 7.28,6.26 7.38,6.29 7.46,6.36 7.54,6.43 7.60,6.51 7.66,6.60 7.68,6.71 7.71,6.81 7.70,6.92 7.69,7.02 7.65,7.12 7.61,7.22 7.54,7.30 7.47,7.38 7.38,7.43 7.28,7.48 7.18,7.50 7.07,7.52 6.97,7.51 6.86,7.49 6.77,7.45 6.67,7.40 6.60,7.32 6.52,7.25 6.48,7.15 6.43,7.06 6.41,6.95 6.40,6.85 6.42,6.74 6.44,6.64 6.49,6.55 6.54,6.45 6.62,6.38 6.70,6.31 6.80,6.27 6.90,6.23 7.00,6.22 7.11,6.21 7.21,6.24 7.32,6.26 7.40,6.32 7.49,6.38 7.56,6.46 7.63,6.54 7.66,6.64 7.70,6.74 7.70,6.85 7.71,6.95 7.68,7.05 7.64,7.16 7.41,7.33 7.17,7.51 7.10,7.52 7.02,7.52 6.94,7.51 6.86,7.49 6.79,7.46 6.72,7.43 6.65,7.38 6.59,7.33 6.54,7.27 6.49,7.20 6.46,7.13 6.43,7.06 6.41,6.98 6.40,6.90 6.41,6.82 6.41,6.75 6.43,6.67 6.46,6.59 6.50,6.53 6.54,6.46 6.60,6.40 6.65,6.35 6.72,6.31 6.79,6.27 6.86,6.24 6.94,6.22 8.15,7.06 9.36,7.90 10.05,7.49 10.74,7.09 11.11,6.63 11.47,6.17 11.85,5.59 12.23,5.00 12.55,4.38 12.87,3.76 13.05,2.86 13.24,1.96 12.89,1.26 12.55,0.57 12.04,0.28 11.53,-0.00 10.85,-0.29 10.18,-0.58 9.50,-0.75 8.82,-0.92 8.08,-1.03 7.35,-1.13 6.53,-1.20 5.72,-1.26 4.99,-1.26 4.25,-1.25 3.68,-1.20 3.11,-1.14 2.31,-0.85 1.51,-0.56 1.04,-0.12 0.57,0.31 0.52,0.38 0.48,0.44 0.42,0.49 0.36,0.54 0.29,0.58 0.22,0.61 0.14,0.63 0.06,0.65 -0.01,0.65 -0.09,0.65 -0.16,0.62 -0.24,0.60 -0.31,0.57 -0.38,0.53 -0.44,0.47 -0.50,0.42 -0.54,0.35 -0.58,0.29 -0.61,0.21 -0.64,0.14 -0.64,0.06 -0.65,-0.01 -0.64,-0.09 -0.63,-0.17 -0.60,-0.24 -0.57,-0.31 -0.57,-0.31 L -0.57,-0.31 Z"/></g><g transform="translate(274.61419677734375 207.11822509765625) rotate(0 2.622039794921875 4.6315460205078125)" stroke="none"><path fill="#1e1e1e" d="M 0.29,0.58 Q 0.29,0.58 -0.10,1.02 -0.50,1.46 -0.94,2.30 -1.38,3.14 -1.62,3.74 -1.85,4.34 -2.08,5.10 -2.31,5.86 -2.45,6.57 -2.59,7.29 -2.69,7.98 -2.79,8.67 -2.78,9.21 -2.77,9.74 -2.49,10.31 -2.21,10.88 -1.43,10.79 -0.66,10.70 -0.06,10.41 0.52,10.12 1.20,9.64 1.88,9.17 2.55,8.53 3.23,7.88 3.99,6.92 4.75,5.96 5.30,5.08 5.85,4.20 6.29,3.39 6.73,2.59 7.05,1.88 7.38,1.17 7.57,0.60 7.77,0.02 8.11,-1.24 8.46,-2.52 8.40,-2.60 8.34,-2.69 8.30,-2.79 8.27,-2.89 8.27,-2.99 8.27,-3.10 8.31,-3.20 8.34,-3.30 8.41,-3.38 8.47,-3.47 8.56,-3.53 8.65,-3.59 8.75,-3.61 8.85,-3.64 8.96,-3.64 9.06,-3.63 9.16,-3.59 9.26,-3.55 9.34,-3.48 9.42,-3.41 9.48,-3.32 9.53,-3.23 9.55,-3.12 9.57,-3.02 9.56,-2.91 9.55,-2.81 9.50,-2.71 9.46,-2.62 9.38,-2.54 9.31,-2.46 9.22,-2.41 9.12,-2.36 9.02,-2.35 8.91,-2.33 8.81,-2.35 8.70,-2.37 8.61,-2.42 8.52,-2.47 8.44,-2.55 8.37,-2.62 8.33,-2.72 8.28,-2.82 8.27,-2.92 8.26,-3.03 8.29,-3.13 8.31,-3.24 8.37,-3.33 8.42,-3.42 8.50,-3.49 8.58,-3.55 8.68,-3.59 8.78,-3.63 8.89,-3.64 8.99,-3.64 9.10,-3.61 9.20,-3.58 9.29,-3.52 9.37,-3.46 9.37,-3.46 9.37,-3.46 9.85,-1.31 10.33,0.84 10.11,1.56 9.90,2.28 9.55,3.10 9.20,3.92 8.72,4.81 8.24,5.71 7.60,6.72 6.95,7.74 6.05,8.83 5.15,9.93 4.30,10.71 3.44,11.49 2.56,12.07 1.67,12.65 0.79,13.02 -0.08,13.40 -0.96,13.53 -1.85,13.67 -2.61,13.47 -3.38,13.26 -3.91,12.83 -4.44,12.39 -4.82,11.71 -5.20,11.03 -5.31,10.38 -5.42,9.72 -5.39,9.00 -5.37,8.27 -5.24,7.50 -5.11,6.73 -4.90,5.91 -4.70,5.08 -4.41,4.22 -4.11,3.37 -3.79,2.67 -3.46,1.97 -3.06,1.32 -2.66,0.66 -2.10,0.11 -1.53,-0.44 -0.91,-0.51 -0.29,-0.58 -0.22,-0.61 -0.14,-0.64 -0.06,-0.64 0.01,-0.65 0.09,-0.64 0.16,-0.63 0.24,-0.60 0.31,-0.57 0.37,-0.52 0.44,-0.48 0.49,-0.42 0.54,-0.36 0.58,-0.29 0.61,-0.22 0.63,-0.14 0.65,-0.06 0.65,0.01 0.65,0.09 0.62,0.16 0.60,0.24 0.57,0.31 0.53,0.38 0.47,0.44 0.42,0.49 0.36,0.54 0.29,0.58 0.29,0.58 L 0.29,0.58 Z"/></g><g transform="translate(282.55120849609375 209.78598022460938) rotate(0 2.97637939453125 4.4092254638671875)" stroke="none"><path fill="#1e1e1e" d="M 0.58,0.30 Q 0.58,0.30 0.46,1.08 0.35,1.87 0.13,2.37 -0.09,2.88 -0.24,3.58 -0.38,4.27 -0.32,4.97 -0.25,5.66 0.05,6.13 0.35,6.60 1.06,6.95 1.77,7.31 2.57,7.06 3.38,6.81 4.99,5.72 6.61,4.62 6.69,4.56 6.78,4.50 6.88,4.47 6.98,4.44 7.09,4.44 7.19,4.44 7.29,4.48 7.39,4.52 7.48,4.58 7.56,4.65 7.62,4.74 7.67,4.83 7.70,4.93 7.72,5.04 7.71,5.14 7.71,5.25 7.66,5.35 7.62,5.44 7.55,5.52 7.48,5.60 7.39,5.65 7.29,5.70 7.19,5.72 7.08,5.74 6.98,5.73 6.87,5.71 6.78,5.67 6.68,5.62 6.61,5.54 6.53,5.47 6.49,5.37 6.44,5.28 6.43,5.17 6.41,5.07 6.43,4.96 6.45,4.86 6.51,4.77 6.56,4.67 6.64,4.60 6.72,4.53 6.81,4.49 6.91,4.45 7.02,4.44 7.12,4.43 7.23,4.46 7.33,4.49 7.42,4.54 7.51,4.60 7.58,4.68 7.64,4.77 7.68,4.87 7.71,4.97 7.72,5.07 7.72,5.18 7.69,5.28 7.66,5.38 7.59,5.47 7.53,5.55 7.53,5.55 7.53,5.55 5.94,7.30 4.35,9.05 3.63,9.39 2.90,9.73 2.07,9.85 1.24,9.96 0.52,9.77 -0.19,9.58 -0.77,9.18 -1.36,8.78 -1.68,8.34 -1.99,7.90 -2.41,7.06 -2.83,6.21 -2.92,5.59 -3.01,4.97 -2.96,4.43 -2.90,3.89 -2.59,2.85 -2.28,1.82 -2.01,1.29 -1.74,0.77 -1.16,0.23 -0.58,-0.30 -0.53,-0.37 -0.49,-0.43 -0.43,-0.48 -0.37,-0.54 -0.30,-0.57 -0.23,-0.61 -0.15,-0.63 -0.07,-0.65 -0.00,-0.65 0.07,-0.65 0.15,-0.63 0.23,-0.61 0.30,-0.57 0.37,-0.54 0.43,-0.48 0.49,-0.43 0.53,-0.37 0.58,-0.30 0.60,-0.23 0.63,-0.15 0.64,-0.07 0.65,-0.00 0.64,0.07 0.63,0.15 0.60,0.23 0.58,0.30 0.58,0.30 L 0.58,0.30 Z"/></g><g transform="translate(294.9527587890625 189.3331298828125) rotate(0 0.17718505859375 16.451217651367188)" stroke="none"><path fill="#1e1e1e" d="M 0.65,-0.07 Q 0.65,-0.07 1.07,1.69 1.49,3.45 1.63,5.11 1.77,6.77 1.85,8.44 1.92,10.12 1.95,11.84 1.97,13.56 1.95,15.26 1.93,16.95 1.87,18.60 1.81,20.25 1.75,21.61 1.69,22.97 1.65,24.17 1.60,25.38 1.50,26.70 1.40,28.02 0.83,30.33 0.27,32.64 0.24,32.74 0.21,32.84 0.14,32.93 0.08,33.01 -0.00,33.07 -0.08,33.13 -0.18,33.17 -0.29,33.20 -0.39,33.19 -0.50,33.19 -0.60,33.15 -0.70,33.11 -0.78,33.05 -0.86,32.98 -0.92,32.89 -0.97,32.80 -1.00,32.70 -1.02,32.59 -1.02,32.49 -1.01,32.38 -0.96,32.29 -0.92,32.19 -0.85,32.11 -0.78,32.03 -0.69,31.98 -0.59,31.93 -0.49,31.91 -0.38,31.89 -0.28,31.90 -0.17,31.92 -0.08,31.97 0.01,32.01 0.08,32.09 0.16,32.16 0.20,32.26 0.25,32.36 0.26,32.46 0.28,32.57 0.26,32.67 0.23,32.77 0.18,32.87 0.13,32.96 0.05,33.03 -0.02,33.10 -0.12,33.14 -0.22,33.18 -0.32,33.19 -0.43,33.20 -0.53,33.17 -0.63,33.15 -0.72,33.09 -0.81,33.03 -0.88,32.95 -0.94,32.86 -0.98,32.76 -1.02,32.66 -1.02,32.56 -1.02,32.45 -1.02,32.45 -1.02,32.45 -1.16,30.15 -1.29,27.84 -1.23,26.55 -1.17,25.26 -1.11,24.04 -1.05,22.82 -0.96,21.47 -0.87,20.12 -0.77,18.51 -0.68,16.89 -0.62,15.22 -0.55,13.56 -0.53,11.87 -0.50,10.18 -0.51,8.55 -0.53,6.92 -0.60,5.31 -0.67,3.70 -0.66,1.88 -0.65,0.07 -0.65,-0.00 -0.65,-0.08 -0.63,-0.16 -0.61,-0.23 -0.57,-0.30 -0.53,-0.37 -0.48,-0.43 -0.43,-0.49 -0.36,-0.53 -0.30,-0.58 -0.22,-0.61 -0.15,-0.63 -0.07,-0.64 0.00,-0.65 0.08,-0.64 0.16,-0.63 0.23,-0.60 0.30,-0.57 0.37,-0.53 0.43,-0.48 0.49,-0.42 0.54,-0.36 0.57,-0.29 0.61,-0.22 0.63,-0.15 0.65,-0.07 0.65,-0.07 L 0.65,-0.07 Z"/></g><g transform="translate(288.220458984375 207.26644897460938) rotate(0 7.0157470703125 -0.4075927734375)" stroke="none"><path fill="#1e1e1e" d="M -0.12,-0.64 Q -0.12,-0.64 0.64,-0.96 1.40,-1.29 2.14,-1.47 2.89,-1.65 3.64,-1.73 4.39,-1.82 5.19,-1.92 5.99,-2.03 6.98,-2.10 7.98,-2.17 8.90,-2.15 9.81,-2.13 11.69,-1.46 13.57,-0.79 13.66,-0.73 13.75,-0.68 13.82,-0.60 13.89,-0.52 13.94,-0.43 13.98,-0.33 13.99,-0.22 14.00,-0.12 13.97,-0.01 13.95,0.08 13.89,0.17 13.83,0.26 13.75,0.33 13.67,0.39 13.57,0.43 13.47,0.47 13.36,0.47 13.26,0.47 13.16,0.44 13.05,0.41 12.97,0.35 12.88,0.29 12.82,0.20 12.76,0.12 12.72,0.02 12.69,-0.08 12.70,-0.18 12.70,-0.29 12.73,-0.39 12.77,-0.49 12.84,-0.57 12.90,-0.65 12.99,-0.71 13.08,-0.77 13.18,-0.80 13.29,-0.82 13.39,-0.81 13.50,-0.81 13.60,-0.76 13.69,-0.72 13.77,-0.65 13.85,-0.58 13.91,-0.49 13.96,-0.40 13.98,-0.29 14.00,-0.19 13.99,-0.08 13.97,0.01 13.93,0.11 13.88,0.20 13.80,0.28 13.73,0.35 13.63,0.40 13.54,0.45 13.43,0.46 13.33,0.48 13.22,0.46 13.12,0.44 13.12,0.44 13.12,0.44 11.46,0.47 9.80,0.49 8.94,0.50 8.09,0.51 7.11,0.52 6.13,0.53 5.35,0.51 4.57,0.50 3.92,0.52 3.26,0.54 2.52,0.62 1.77,0.69 0.94,0.66 0.12,0.64 0.04,0.65 -0.03,0.65 -0.11,0.64 -0.19,0.62 -0.26,0.59 -0.33,0.56 -0.39,0.51 -0.46,0.46 -0.51,0.40 -0.56,0.34 -0.59,0.27 -0.62,0.19 -0.64,0.12 -0.65,0.04 -0.65,-0.03 -0.64,-0.11 -0.62,-0.19 -0.59,-0.26 -0.55,-0.33 -0.51,-0.40 -0.46,-0.45 -0.40,-0.51 -0.33,-0.55 -0.27,-0.59 -0.19,-0.62 -0.12,-0.64 -0.12,-0.64 L -0.12,-0.64 Z"/></g><g transform="translate(606.9763793945312 212.2314453125) rotate(0 -2.76373291015625 3.0012359619140625)" stroke="none"><path fill="#1e1e1e" d="M -0.64,0.09 Q -0.64,0.09 -0.90,-0.42 -1.16,-0.94 -1.80,-1.39 -2.44,-1.85 -3.13,-1.97 -3.82,-2.10 -4.64,-1.90 -5.46,-1.70 -5.97,-1.45 -6.48,-1.21 -7.01,-0.82 -7.54,-0.43 -8.14,0.22 -8.74,0.89 -9.15,1.48 -9.55,2.07 -9.80,2.60 -10.04,3.14 -10.06,4.04 -10.08,4.94 -9.65,5.74 -9.22,6.55 -8.66,6.92 -8.10,7.29 -7.47,7.52 -6.85,7.75 -6.18,7.85 -5.51,7.94 -4.84,7.88 -4.17,7.82 -3.52,7.68 -2.88,7.55 -2.30,7.32 -1.71,7.09 -1.05,6.68 -0.39,6.28 0.14,5.88 0.68,5.49 1.06,5.11 1.45,4.73 1.73,4.11 2.01,3.48 1.68,2.67 1.35,1.86 0.80,1.27 0.25,0.67 -0.33,0.28 -0.92,-0.11 -1.45,-0.32 -1.98,-0.53 -2.25,-0.62 -2.53,-0.70 -2.66,-0.76 -2.80,-0.83 -2.91,-0.92 -3.03,-1.01 -3.12,-1.13 -3.21,-1.25 -3.26,-1.39 -3.32,-1.52 -3.35,-1.67 -3.37,-1.81 -3.36,-1.96 -3.35,-2.11 -3.30,-2.25 -3.26,-2.39 -3.18,-2.52 -3.10,-2.64 -2.99,-2.75 -2.89,-2.85 -2.76,-2.92 -2.63,-3.00 -2.49,-3.04 -2.35,-3.08 -2.20,-3.09 -2.05,-3.10 -1.91,-3.07 -1.76,-3.04 -1.27,-2.80 -0.77,-2.57 0.13,-2.35 1.05,-2.13 1.59,-2.02 2.13,-1.90 3.84,-1.24 5.56,-0.58 5.65,-0.54 5.75,-0.49 5.83,-0.42 5.90,-0.35 5.95,-0.25 6.00,-0.16 6.02,-0.05 6.04,0.04 6.02,0.15 6.01,0.25 5.96,0.34 5.91,0.44 5.83,0.51 5.75,0.59 5.66,0.63 5.56,0.68 5.46,0.69 5.35,0.70 5.25,0.68 5.14,0.66 5.05,0.60 4.96,0.55 4.89,0.47 4.82,0.39 4.78,0.29 4.74,0.19 4.74,0.08 4.73,-0.01 4.76,-0.12 4.79,-0.22 4.84,-0.31 4.90,-0.39 4.99,-0.46 5.07,-0.52 5.17,-0.56 5.27,-0.59 5.38,-0.59 5.49,-0.59 5.59,-0.56 5.69,-0.53 5.77,-0.46 5.86,-0.40 5.92,-0.31 5.98,-0.22 6.01,-0.12 6.04,-0.02 6.03,0.08 6.02,0.18 5.99,0.28 5.95,0.38 5.88,0.46 5.81,0.54 5.72,0.60 5.63,0.65 5.53,0.68 5.42,0.70 5.32,0.69 5.21,0.68 5.21,0.68 5.21,0.68 2.94,0.47 0.67,0.26 -0.35,0.03 -1.37,-0.20 -1.95,-0.45 -2.53,-0.70 -2.66,-0.76 -2.80,-0.83 -2.91,-0.92 -3.03,-1.01 -3.12,-1.13 -3.21,-1.25 -3.26,-1.39 -3.32,-1.52 -3.35,-1.67 -3.37,-1.81 -3.36,-1.96 -3.35,-2.11 -3.30,-2.25 -3.26,-2.39 -3.18,-2.52 -3.10,-2.64 -2.99,-2.75 -2.89,-2.85 -2.76,-2.92 -2.63,-3.00 -2.49,-3.04 -2.35,-3.08 -2.20,-3.09 -2.05,-3.10 -1.91,-3.07 -1.76,-3.04 -1.11,-2.83 -0.45,-2.61 0.27,-2.20 1.01,-1.78 1.49,-1.44 1.97,-1.09 2.40,-0.66 2.84,-0.23 3.19,0.24 3.54,0.73 3.80,1.23 4.05,1.73 4.26,2.50 4.46,3.26 4.37,3.83 4.29,4.40 4.08,4.90 3.86,5.40 3.51,5.94 3.16,6.48 2.64,6.97 2.12,7.47 1.48,7.92 0.85,8.38 0.00,8.87 -0.85,9.36 -1.62,9.65 -2.39,9.93 -3.20,10.09 -4.01,10.25 -4.95,10.30 -5.89,10.34 -6.81,10.17 -7.73,10.01 -8.63,9.62 -9.53,9.24 -10.37,8.58 -11.20,7.91 -11.62,7.24 -12.03,6.56 -12.24,5.85 -12.45,5.14 -12.48,4.38 -12.52,3.62 -12.35,2.88 -12.17,2.14 -11.83,1.43 -11.48,0.73 -10.97,0.01 -10.46,-0.70 -9.67,-1.52 -8.89,-2.33 -8.17,-2.82 -7.45,-3.31 -6.76,-3.62 -6.06,-3.92 -5.41,-4.08 -4.77,-4.24 -4.12,-4.29 -3.47,-4.34 -2.45,-4.07 -1.42,-3.80 -0.95,-3.52 -0.48,-3.25 -0.04,-2.78 0.40,-2.31 0.62,-1.79 0.83,-1.26 0.74,-0.68 0.64,-0.09 0.65,-0.01 0.65,0.06 0.63,0.13 0.61,0.21 0.58,0.28 0.54,0.35 0.49,0.41 0.44,0.48 0.38,0.52 0.31,0.57 0.24,0.60 0.17,0.63 0.09,0.64 0.01,0.65 -0.06,0.64 -0.14,0.64 -0.21,0.61 -0.29,0.58 -0.35,0.54 -0.42,0.50 -0.47,0.44 -0.53,0.38 -0.56,0.31 -0.60,0.24 -0.62,0.17 -0.64,0.09 -0.64,0.09 L -0.64,0.09 Z"/></g><g transform="translate(614.7716674804688 211.34219360351562) rotate(0 9.46063232421875 4.07574462890625)" stroke="none"><path fill="#1e1e1e" d="M 0.65,0 Q 0.65,0 0.87,0.74 1.09,1.49 1.06,2.16 1.02,2.83 1.01,3.83 1.00,4.83 1.10,5.50 1.20,6.17 1.58,6.77 1.96,7.37 2.69,7.01 3.41,6.66 4.20,5.89 4.98,5.13 5.34,4.67 5.70,4.21 6.03,3.74 6.36,3.26 6.86,2.24 7.37,1.23 7.57,0.58 7.77,-0.05 7.87,-0.65 7.97,-1.26 8.03,-1.40 8.09,-1.53 8.19,-1.65 8.29,-1.77 8.41,-1.87 8.53,-1.96 8.67,-2.02 8.81,-2.08 8.96,-2.11 9.11,-2.14 9.26,-2.13 9.41,-2.12 9.56,-2.07 9.70,-2.02 9.83,-1.94 9.96,-1.86 10.07,-1.76 10.18,-1.65 10.26,-1.52 10.34,-1.38 10.38,-1.24 10.42,-1.09 10.43,-0.94 10.44,-0.79 10.41,-0.64 10.38,-0.49 10.12,0.00 9.85,0.49 9.57,1.34 9.30,2.20 9.18,2.75 9.06,3.30 9.00,3.85 8.93,4.39 8.95,5.06 8.96,5.74 9.19,6.59 9.43,7.44 9.91,7.70 10.39,7.97 11.22,7.64 12.06,7.31 12.74,6.95 13.41,6.59 14.15,6.13 14.88,5.66 16.46,4.48 18.04,3.30 18.13,3.24 18.21,3.17 18.31,3.14 18.41,3.10 18.52,3.10 18.63,3.10 18.73,3.14 18.83,3.17 18.91,3.23 19.00,3.30 19.06,3.38 19.12,3.47 19.15,3.57 19.18,3.68 19.17,3.78 19.17,3.89 19.13,3.99 19.09,4.09 19.02,4.17 18.95,4.25 18.86,4.30 18.77,4.36 18.67,4.38 18.56,4.41 18.46,4.40 18.35,4.38 18.25,4.34 18.16,4.30 18.08,4.22 18.00,4.15 17.95,4.06 17.90,3.96 17.88,3.86 17.87,3.75 17.88,3.65 17.90,3.54 17.95,3.45 18.00,3.36 18.08,3.28 18.15,3.21 18.25,3.16 18.35,3.12 18.45,3.11 18.56,3.10 18.66,3.12 18.76,3.14 18.86,3.19 18.95,3.25 19.02,3.33 19.08,3.41 19.12,3.51 19.16,3.61 19.17,3.71 19.18,3.82 19.15,3.92 19.12,4.02 19.06,4.11 19.00,4.20 19.00,4.20 19.00,4.20 17.59,5.84 16.18,7.48 15.41,8.09 14.63,8.70 13.86,9.18 13.09,9.65 12.19,10.04 11.28,10.43 10.55,10.49 9.81,10.55 9.18,10.34 8.55,10.14 8.06,9.74 7.57,9.34 7.25,8.83 6.93,8.32 6.74,7.74 6.55,7.15 6.43,6.46 6.31,5.77 6.31,4.91 6.32,4.05 6.40,3.39 6.49,2.73 6.65,2.06 6.80,1.39 6.99,0.82 7.17,0.26 7.57,-0.49 7.97,-1.26 8.03,-1.40 8.09,-1.53 8.19,-1.65 8.28,-1.77 8.41,-1.87 8.53,-1.96 8.67,-2.02 8.81,-2.08 8.96,-2.11 9.11,-2.14 9.26,-2.13 9.41,-2.12 9.56,-2.07 9.70,-2.02 9.83,-1.94 9.96,-1.86 10.07,-1.76 10.18,-1.65 10.26,-1.52 10.34,-1.38 10.38,-1.24 10.42,-1.09 10.43,-0.94 10.44,-0.79 10.41,-0.64 10.38,-0.49 10.24,0.04 10.10,0.57 9.81,1.42 9.51,2.26 9.22,2.86 8.93,3.46 8.62,4.04 8.31,4.61 7.92,5.16 7.54,5.71 7.09,6.25 6.64,6.80 6.19,7.23 5.75,7.67 5.25,8.13 4.75,8.58 4.10,8.99 3.45,9.41 2.93,9.54 2.41,9.68 1.39,9.36 0.36,9.05 -0.00,8.65 -0.36,8.26 -0.70,7.45 -1.04,6.63 -1.15,5.72 -1.26,4.80 -1.22,3.75 -1.19,2.69 -1.14,2.09 -1.09,1.49 -0.87,0.74 -0.65,0 -0.64,-0.07 -0.63,-0.15 -0.60,-0.23 -0.58,-0.30 -0.53,-0.37 -0.49,-0.43 -0.43,-0.48 -0.37,-0.54 -0.30,-0.57 -0.23,-0.61 -0.15,-0.63 -0.07,-0.65 0.00,-0.65 0.07,-0.65 0.15,-0.63 0.23,-0.61 0.30,-0.57 0.37,-0.54 0.43,-0.48 0.49,-0.43 0.53,-0.37 0.58,-0.30 0.60,-0.23 0.63,-0.15 0.64,-0.07 0.65,0.00 0.65,0.00 L 0.65,0 Z"/></g><g transform="translate(634.8268432617188 216.97415161132812) rotate(0 1.594482421875 -14.524505615234375)" stroke="none"><path fill="#1e1e1e" d="M -0.64,-0.12 Q -0.64,-0.12 -0.68,-1.31 -0.73,-2.49 -0.57,-3.54 -0.41,-4.60 -0.28,-5.39 -0.15,-6.18 -0.02,-7.85 0.11,-9.53 0.22,-10.73 0.33,-11.92 0.52,-13.95 0.72,-15.98 0.92,-17.86 1.11,-19.74 1.32,-21.29 1.53,-22.85 1.63,-24.17 1.73,-25.50 1.74,-27.01 1.76,-28.51 1.71,-28.61 1.67,-28.71 1.66,-28.81 1.65,-28.92 1.67,-29.02 1.69,-29.13 1.75,-29.22 1.80,-29.31 1.88,-29.38 1.96,-29.44 2.06,-29.48 2.16,-29.52 2.27,-29.53 2.37,-29.53 2.48,-29.50 2.58,-29.48 2.67,-29.42 2.75,-29.36 2.82,-29.27 2.88,-29.19 2.92,-29.09 2.95,-28.98 2.95,-28.88 2.95,-28.77 2.92,-28.67 2.88,-28.57 2.82,-28.49 2.75,-28.40 2.66,-28.34 2.58,-28.28 2.47,-28.26 2.37,-28.23 2.26,-28.23 2.16,-28.24 2.06,-28.28 1.96,-28.32 1.88,-28.39 1.80,-28.46 1.75,-28.55 1.69,-28.64 1.67,-28.74 1.65,-28.85 1.66,-28.95 1.67,-29.06 1.71,-29.15 1.76,-29.25 1.83,-29.33 1.91,-29.40 2.00,-29.45 2.09,-29.50 2.20,-29.52 2.30,-29.54 2.41,-29.52 2.51,-29.50 2.61,-29.45 2.70,-29.40 2.77,-29.32 2.85,-29.25 2.85,-29.25 2.85,-29.25 3.59,-27.32 4.33,-25.39 4.31,-23.96 4.30,-22.52 4.14,-20.98 3.97,-19.45 3.79,-17.56 3.60,-15.68 3.37,-13.66 3.14,-11.64 3.01,-10.44 2.88,-9.24 2.65,-7.47 2.42,-5.71 2.26,-4.92 2.10,-4.13 1.86,-3.07 1.62,-2.02 1.13,-0.94 0.64,0.12 0.61,0.20 0.59,0.27 0.55,0.34 0.51,0.41 0.45,0.46 0.39,0.52 0.32,0.56 0.26,0.60 0.18,0.62 0.10,0.64 0.02,0.65 -0.04,0.65 -0.12,0.63 -0.20,0.62 -0.27,0.59 -0.34,0.55 -0.40,0.50 -0.47,0.45 -0.51,0.39 -0.56,0.33 -0.59,0.25 -0.62,0.18 -0.64,0.10 -0.65,0.02 -0.65,-0.04 -0.64,-0.12 -0.64,-0.12 L -0.64,-0.12 Z"/></g><g transform="translate(627.8818969726562 205.71023559570312) rotate(0 9.779541015625 -2.7048187255859375)" stroke="none"><path fill="#1e1e1e" d="M -0.34,-0.55 Q -0.34,-0.55 0.14,-1.00 0.62,-1.44 1.48,-2.03 2.34,-2.61 3.29,-3.14 4.24,-3.67 5.31,-4.14 6.37,-4.61 7.45,-5.00 8.52,-5.39 9.57,-5.69 10.61,-6.00 11.87,-6.21 13.12,-6.42 14.22,-6.39 15.32,-6.36 17.29,-5.61 19.26,-4.86 19.34,-4.80 19.43,-4.74 19.49,-4.66 19.56,-4.57 19.59,-4.47 19.63,-4.37 19.63,-4.26 19.63,-4.16 19.59,-4.06 19.56,-3.96 19.49,-3.87 19.43,-3.79 19.34,-3.73 19.25,-3.67 19.15,-3.64 19.05,-3.61 18.94,-3.62 18.84,-3.62 18.74,-3.66 18.64,-3.70 18.56,-3.77 18.48,-3.84 18.42,-3.93 18.37,-4.02 18.34,-4.13 18.32,-4.23 18.33,-4.34 18.35,-4.44 18.39,-4.54 18.44,-4.63 18.51,-4.71 18.58,-4.79 18.68,-4.84 18.77,-4.89 18.87,-4.90 18.98,-4.92 19.08,-4.90 19.19,-4.89 19.28,-4.84 19.38,-4.79 19.45,-4.71 19.52,-4.63 19.57,-4.54 19.61,-4.44 19.62,-4.33 19.63,-4.23 19.61,-4.12 19.59,-4.02 19.53,-3.93 19.48,-3.84 19.40,-3.77 19.32,-3.70 19.22,-3.66 19.12,-3.62 19.01,-3.62 18.91,-3.61 18.80,-3.64 18.70,-3.67 18.70,-3.67 18.70,-3.67 17.01,-3.76 15.32,-3.85 14.44,-3.82 13.56,-3.79 12.44,-3.60 11.31,-3.41 10.33,-3.16 9.34,-2.92 8.31,-2.61 7.29,-2.31 6.28,-1.95 5.28,-1.60 4.34,-1.18 3.40,-0.77 2.48,-0.34 1.57,0.08 0.95,0.31 0.34,0.55 0.27,0.59 0.20,0.62 0.12,0.63 0.04,0.65 -0.03,0.65 -0.11,0.64 -0.18,0.62 -0.26,0.60 -0.33,0.56 -0.39,0.52 -0.45,0.46 -0.51,0.41 -0.55,0.34 -0.59,0.27 -0.62,0.20 -0.64,0.12 -0.65,0.04 -0.65,-0.03 -0.64,-0.11 -0.62,-0.18 -0.59,-0.26 -0.56,-0.33 -0.51,-0.39 -0.46,-0.45 -0.40,-0.50 -0.34,-0.55 -0.34,-0.55 L -0.34,-0.55 Z"/></g><g transform="translate(648.8583374023438 208.97085571289062) rotate(0 0.106201171875 9.003707885742188)" stroke="none"><path fill="#1e1e1e" d="M 0.64,-0.12 Q 0.64,-0.12 0.97,0.64 1.30,1.42 1.38,2.25 1.47,3.09 1.54,4.39 1.62,5.69 1.63,6.85 1.65,8.02 1.66,9.08 1.67,10.14 1.72,11.07 1.77,12.01 1.77,12.85 1.76,13.69 1.04,15.89 0.31,18.09 0.24,18.17 0.16,18.24 0.07,18.29 -0.02,18.34 -0.12,18.35 -0.23,18.36 -0.33,18.34 -0.44,18.32 -0.53,18.27 -0.62,18.22 -0.69,18.14 -0.76,18.06 -0.80,17.96 -0.85,17.87 -0.85,17.76 -0.86,17.65 -0.84,17.55 -0.81,17.45 -0.75,17.36 -0.70,17.27 -0.61,17.20 -0.53,17.14 -0.43,17.10 -0.33,17.06 -0.23,17.06 -0.12,17.06 -0.02,17.09 0.07,17.12 0.16,17.18 0.25,17.24 0.31,17.33 0.37,17.42 0.40,17.52 0.43,17.62 0.43,17.73 0.43,17.83 0.39,17.93 0.35,18.03 0.29,18.11 0.22,18.20 0.13,18.25 0.04,18.31 -0.05,18.34 -0.16,18.36 -0.26,18.35 -0.37,18.35 -0.46,18.30 -0.56,18.26 -0.64,18.19 -0.72,18.12 -0.77,18.03 -0.83,17.93 -0.85,17.83 -0.87,17.73 -0.85,17.62 -0.84,17.52 -0.79,17.42 -0.74,17.32 -0.74,17.32 -0.74,17.32 -0.68,15.50 -0.62,13.68 -0.62,12.90 -0.61,12.11 -0.64,11.12 -0.68,10.13 -0.66,9.07 -0.65,8.01 -0.63,6.89 -0.61,5.76 -0.61,4.49 -0.62,3.22 -0.63,2.52 -0.65,1.81 -0.64,0.97 -0.64,0.12 -0.64,0.05 -0.65,-0.02 -0.64,-0.10 -0.63,-0.18 -0.59,-0.25 -0.56,-0.32 -0.52,-0.39 -0.47,-0.45 -0.41,-0.50 -0.34,-0.55 -0.27,-0.58 -0.20,-0.62 -0.12,-0.63 -0.05,-0.65 0.02,-0.65 0.10,-0.64 0.18,-0.62 0.25,-0.60 0.32,-0.56 0.39,-0.52 0.45,-0.46 0.50,-0.41 0.55,-0.34 0.59,-0.27 0.61,-0.20 0.64,-0.12 0.64,-0.12 L 0.64,-0.12 Z"/></g><g transform="translate(646.1653442382812 211.0457763671875) rotate(0 5.9527587890625 0.03704833984375)" stroke="none"><path fill="#1e1e1e" d="M -0.65,-0.06 Q -0.65,-0.06 -0.70,-0.69 -0.74,-1.32 -0.69,-2.12 -0.63,-2.93 -0.18,-3.72 0.26,-4.52 1.27,-5.24 2.28,-5.96 2.96,-6.16 3.64,-6.36 4.39,-6.41 5.14,-6.46 5.87,-6.34 6.60,-6.22 7.30,-5.98 7.99,-5.75 8.64,-5.41 9.29,-5.07 9.88,-4.64 10.48,-4.20 11.12,-3.51 11.76,-2.83 12.14,-2.31 12.51,-1.79 12.76,-1.10 13.02,-0.41 13.06,0.82 13.10,2.07 12.90,2.72 12.70,3.37 12.45,3.89 12.19,4.40 11.80,4.89 11.41,5.38 10.76,5.80 10.12,6.23 9.57,6.42 9.02,6.61 7.16,6.10 5.30,5.59 5.21,5.53 5.12,5.47 5.05,5.39 4.99,5.30 4.95,5.20 4.92,5.10 4.91,5.00 4.91,4.89 4.94,4.79 4.98,4.69 5.04,4.60 5.10,4.52 5.19,4.46 5.28,4.39 5.38,4.36 5.48,4.33 5.59,4.34 5.69,4.34 5.79,4.38 5.89,4.42 5.97,4.49 6.06,4.55 6.11,4.64 6.17,4.73 6.19,4.84 6.22,4.94 6.21,5.05 6.20,5.15 6.15,5.25 6.11,5.35 6.04,5.42 5.97,5.50 5.88,5.55 5.78,5.61 5.68,5.62 5.57,5.64 5.47,5.63 5.36,5.61 5.27,5.56 5.17,5.52 5.10,5.44 5.02,5.36 4.98,5.27 4.93,5.17 4.92,5.07 4.91,4.96 4.93,4.86 4.95,4.75 5.00,4.66 5.05,4.57 5.13,4.50 5.21,4.43 5.31,4.39 5.41,4.35 5.52,4.34 5.62,4.33 5.73,4.36 5.83,4.39 5.83,4.39 5.83,4.39 7.19,4.05 8.56,3.71 9.06,3.35 9.56,2.98 9.89,2.33 10.21,1.69 10.27,1.03 10.33,0.38 10.03,-0.33 9.74,-1.05 9.30,-1.58 8.86,-2.12 8.45,-2.46 8.04,-2.79 7.57,-3.07 7.10,-3.35 6.60,-3.55 6.10,-3.76 5.15,-3.90 4.21,-4.04 3.33,-3.76 2.45,-3.49 1.87,-3.00 1.30,-2.51 1.14,-1.83 0.99,-1.14 0.82,-0.54 0.65,0.06 0.63,0.14 0.61,0.21 0.58,0.29 0.54,0.36 0.49,0.42 0.44,0.48 0.38,0.52 0.31,0.57 0.24,0.60 0.17,0.63 0.09,0.64 0.01,0.65 -0.06,0.64 -0.14,0.64 -0.21,0.61 -0.29,0.58 -0.35,0.54 -0.42,0.50 -0.47,0.44 -0.53,0.38 -0.57,0.31 -0.60,0.24 -0.62,0.16 -0.64,0.09 -0.65,0.01 -0.65,-0.06 -0.65,-0.06 L -0.65,-0.06 Z"/></g><g transform="translate(662.6062622070312 208.30389404296875) rotate(0 10.20477294921875 4.099151611328125)" stroke="none"><path fill="#1e1e1e" d="M 0.60,0.26 Q 0.60,0.26 0.52,1.06 0.45,1.86 0.35,2.41 0.24,2.95 0.18,3.51 0.11,4.07 0.10,4.63 0.08,5.18 0.16,6.05 0.24,6.92 0.48,7.49 0.72,8.06 1.49,8.09 2.26,8.13 3.03,7.64 3.80,7.16 4.22,6.79 4.64,6.41 5.09,5.77 5.53,5.12 5.92,4.56 6.30,4.00 6.59,3.53 6.88,3.05 7.14,2.42 7.41,1.79 7.56,1.04 7.70,0.29 7.77,0.13 7.84,-0.01 7.94,-0.15 8.04,-0.28 8.18,-0.39 8.31,-0.50 8.47,-0.57 8.62,-0.64 8.79,-0.67 8.95,-0.71 9.12,-0.70 9.29,-0.69 9.46,-0.64 9.62,-0.59 9.77,-0.51 9.92,-0.42 10.04,-0.30 10.16,-0.18 10.25,-0.04 10.34,0.10 10.39,0.26 10.44,0.42 10.46,0.59 10.47,0.76 10.44,0.93 10.41,1.10 9.91,1.58 9.42,2.06 9.39,2.85 9.36,3.64 9.45,4.47 9.53,5.30 9.75,5.97 9.96,6.63 10.58,6.85 11.20,7.07 11.72,6.83 12.25,6.59 12.94,6.16 13.63,5.74 14.41,5.18 15.19,4.61 15.90,3.97 16.61,3.32 17.26,2.67 17.91,2.02 19.58,0.26 21.26,-1.50 21.36,-1.49 21.47,-1.49 21.57,-1.46 21.67,-1.42 21.75,-1.35 21.84,-1.29 21.89,-1.20 21.95,-1.11 21.98,-1.01 22.00,-0.91 22.00,-0.80 21.99,-0.69 21.95,-0.60 21.91,-0.50 21.84,-0.42 21.76,-0.34 21.67,-0.29 21.58,-0.23 21.48,-0.21 21.37,-0.19 21.27,-0.20 21.16,-0.22 21.07,-0.26 20.97,-0.31 20.89,-0.39 20.82,-0.46 20.77,-0.55 20.72,-0.65 20.71,-0.75 20.69,-0.86 20.71,-0.96 20.73,-1.07 20.78,-1.16 20.83,-1.25 20.91,-1.33 20.99,-1.40 21.09,-1.44 21.19,-1.48 21.29,-1.49 21.40,-1.50 21.50,-1.48 21.60,-1.45 21.69,-1.40 21.78,-1.34 21.85,-1.26 21.92,-1.17 21.96,-1.07 21.99,-0.98 22.00,-0.87 22.00,-0.76 21.97,-0.66 21.94,-0.56 21.88,-0.47 21.82,-0.39 21.73,-0.32 21.65,-0.26 21.54,-0.23 21.44,-0.20 21.44,-0.20 21.44,-0.20 20.65,1.79 19.85,3.79 19.20,4.57 18.55,5.35 17.73,6.15 16.91,6.96 16.03,7.62 15.14,8.28 14.21,8.81 13.29,9.35 12.30,9.68 11.31,10.00 10.03,9.71 8.76,9.42 8.36,9.05 7.96,8.69 7.46,7.76 6.96,6.84 6.78,5.68 6.59,4.52 6.56,3.82 6.54,3.13 6.71,2.32 6.88,1.50 7.29,0.90 7.70,0.29 7.77,0.13 7.84,-0.01 7.94,-0.15 8.04,-0.28 8.18,-0.39 8.31,-0.50 8.47,-0.57 8.62,-0.64 8.79,-0.67 8.95,-0.71 9.12,-0.70 9.29,-0.69 9.46,-0.64 9.62,-0.59 9.77,-0.51 9.92,-0.42 10.04,-0.30 10.16,-0.18 10.25,-0.04 10.34,0.10 10.39,0.26 10.44,0.42 10.46,0.59 10.47,0.76 10.44,0.93 10.41,1.10 10.20,1.94 9.98,2.79 9.59,3.64 9.20,4.49 8.86,5.02 8.53,5.54 8.12,6.13 7.71,6.72 7.05,7.57 6.40,8.43 5.86,8.89 5.32,9.34 4.78,9.71 4.23,10.07 3.62,10.36 3.00,10.65 2.32,10.81 1.64,10.98 0.95,10.88 0.26,10.79 -0.35,10.40 -0.97,10.02 -1.47,9.16 -1.97,8.30 -2.12,7.78 -2.27,7.27 -2.33,6.73 -2.39,6.19 -2.39,5.61 -2.38,5.04 -2.33,4.39 -2.27,3.74 -2.17,3.08 -2.07,2.41 -1.87,1.68 -1.67,0.94 -1.13,0.34 -0.60,-0.26 -0.56,-0.33 -0.52,-0.39 -0.46,-0.45 -0.41,-0.51 -0.34,-0.55 -0.27,-0.59 -0.20,-0.61 -0.12,-0.64 -0.04,-0.65 0.03,-0.65 0.10,-0.64 0.18,-0.62 0.25,-0.59 0.33,-0.56 0.39,-0.51 0.45,-0.47 0.50,-0.40 0.55,-0.34 0.59,-0.27 0.62,-0.20 0.63,-0.12 0.65,-0.04 0.65,0.03 0.64,0.11 0.62,0.18 0.60,0.26 0.60,0.26 L 0.60,0.26 Z"/></g><g transform="translate(685.3543090820312 216.9000244140625) rotate(0 0.779541015625 -17.007003784179688)" stroke="none"><path fill="#1e1e1e" d="M -0.64,-0.12 Q -0.64,-0.12 -0.59,-1.18 -0.54,-2.23 -0.42,-3.17 -0.31,-4.12 -0.22,-5.16 -0.13,-6.20 -0.07,-7.58 -0.01,-8.96 0.01,-10.63 0.05,-12.30 0.11,-14.46 0.18,-16.62 0.21,-19.27 0.24,-21.92 0.25,-24.02 0.25,-26.12 0.27,-27.74 0.28,-29.35 0.15,-31.10 0.02,-32.86 0.02,-32.96 0.01,-33.07 0.03,-33.17 0.06,-33.27 0.12,-33.36 0.18,-33.45 0.26,-33.52 0.34,-33.58 0.44,-33.62 0.54,-33.66 0.65,-33.66 0.75,-33.66 0.86,-33.63 0.96,-33.60 1.04,-33.54 1.13,-33.47 1.19,-33.39 1.25,-33.30 1.28,-33.20 1.31,-33.10 1.31,-32.99 1.31,-32.88 1.27,-32.78 1.23,-32.68 1.17,-32.60 1.10,-32.52 1.01,-32.46 0.92,-32.41 0.82,-32.38 0.71,-32.36 0.61,-32.37 0.50,-32.37 0.40,-32.42 0.31,-32.46 0.23,-32.53 0.15,-32.60 0.10,-32.70 0.05,-32.79 0.03,-32.89 0.01,-33.00 0.02,-33.10 0.04,-33.21 0.08,-33.30 0.13,-33.40 0.21,-33.47 0.28,-33.55 0.38,-33.59 0.47,-33.64 0.58,-33.65 0.68,-33.67 0.79,-33.65 0.89,-33.63 0.98,-33.57 1.08,-33.52 1.15,-33.44 1.22,-33.36 1.26,-33.26 1.30,-33.17 1.30,-33.17 1.30,-33.17 1.79,-31.29 2.29,-29.42 2.41,-27.79 2.54,-26.16 2.62,-24.04 2.70,-21.91 2.72,-19.23 2.74,-16.54 2.66,-14.37 2.59,-12.20 2.51,-10.50 2.42,-8.79 2.28,-7.35 2.15,-5.91 1.97,-4.83 1.79,-3.74 1.57,-2.80 1.35,-1.85 1.00,-0.86 0.64,0.12 0.61,0.20 0.59,0.27 0.55,0.34 0.51,0.41 0.45,0.46 0.39,0.52 0.32,0.56 0.26,0.60 0.18,0.62 0.10,0.64 0.02,0.65 -0.04,0.65 -0.12,0.63 -0.20,0.62 -0.27,0.59 -0.34,0.55 -0.40,0.50 -0.47,0.45 -0.51,0.39 -0.56,0.33 -0.59,0.25 -0.62,0.18 -0.64,0.10 -0.65,0.02 -0.64,-0.04 -0.64,-0.12 -0.64,-0.12 L -0.64,-0.12 Z"/></g><g transform="translate(675.8583374023438 201.8568115234375) rotate(0 10.06298828125 -0.7039947509765625)" stroke="none"><path fill="#1e1e1e" d="M -0.07,-0.65 Q -0.07,-0.65 0.82,-0.86 1.73,-1.08 2.75,-1.35 3.77,-1.62 4.81,-1.75 5.86,-1.88 6.86,-1.99 7.85,-2.11 8.78,-2.25 9.70,-2.39 10.62,-2.49 11.54,-2.58 12.72,-2.58 13.90,-2.58 14.85,-2.54 15.81,-2.50 17.64,-2.09 19.48,-1.68 19.58,-1.65 19.68,-1.63 19.77,-1.57 19.86,-1.51 19.92,-1.43 19.99,-1.34 20.02,-1.24 20.06,-1.14 20.06,-1.03 20.06,-0.93 20.03,-0.83 20.00,-0.73 19.93,-0.64 19.87,-0.56 19.78,-0.50 19.70,-0.43 19.59,-0.41 19.49,-0.38 19.38,-0.38 19.28,-0.38 19.18,-0.42 19.08,-0.46 19.00,-0.53 18.92,-0.60 18.86,-0.69 18.81,-0.78 18.78,-0.88 18.76,-0.98 18.77,-1.09 18.78,-1.20 18.82,-1.29 18.87,-1.39 18.94,-1.47 19.01,-1.55 19.10,-1.60 19.20,-1.65 19.30,-1.67 19.41,-1.68 19.51,-1.67 19.62,-1.65 19.71,-1.60 19.80,-1.55 19.88,-1.48 19.95,-1.40 20.00,-1.31 20.04,-1.21 20.06,-1.10 20.07,-1.00 20.05,-0.90 20.03,-0.79 19.97,-0.70 19.92,-0.61 19.84,-0.54 19.76,-0.47 19.66,-0.43 19.56,-0.39 19.45,-0.38 19.35,-0.37 19.35,-0.37 19.35,-0.37 17.58,-0.26 15.82,-0.15 14.87,-0.10 13.92,-0.05 12.83,-0.03 11.74,-0.01 10.88,0.03 10.01,0.08 9.02,0.17 8.04,0.26 7.04,0.30 6.05,0.34 5.09,0.38 4.14,0.41 3.03,0.53 1.93,0.65 1.00,0.65 0.07,0.65 -0.00,0.65 -0.08,0.65 -0.15,0.63 -0.23,0.61 -0.30,0.57 -0.37,0.53 -0.43,0.48 -0.49,0.43 -0.53,0.36 -0.58,0.30 -0.61,0.22 -0.63,0.15 -0.64,0.07 -0.65,-0.00 -0.64,-0.08 -0.63,-0.16 -0.60,-0.23 -0.57,-0.30 -0.53,-0.37 -0.48,-0.43 -0.42,-0.49 -0.37,-0.54 -0.29,-0.57 -0.22,-0.61 -0.15,-0.63 -0.07,-0.65 -0.07,-0.65 L -0.07,-0.65 Z"/></g><g transform="translate(200.4173583984375 141.68386840820312) rotate(0 5.208648681640625 5.5948944091796875)" stroke="none"><path fill="#1e1e1e" d="M -0.51,0.40 Q -0.51,0.40 -0.93,0.11 -1.35,-0.17 -1.41,-0.27 -1.47,-0.37 -1.50,-0.47 -1.54,-0.58 -1.54,-0.70 -1.55,-0.81 -1.53,-0.92 -1.51,-1.04 -1.47,-1.14 -1.42,-1.25 -1.35,-1.34 -1.28,-1.43 -1.19,-1.50 -1.10,-1.57 -1.00,-1.62 -0.90,-1.66 -0.78,-1.69 -0.67,-1.71 -0.56,-1.70 -0.44,-1.70 -0.33,-1.66 -0.22,-1.63 -0.13,-1.57 -0.03,-1.51 0.04,-1.43 0.12,-1.35 0.58,-0.73 1.03,-0.11 1.51,0.49 1.99,1.09 2.59,1.79 3.18,2.49 3.84,3.20 4.49,3.90 5.19,4.53 5.90,5.16 6.62,5.86 7.34,6.55 7.95,7.17 8.56,7.78 9.07,8.30 9.58,8.81 10.33,10.37 11.07,11.93 11.12,11.99 11.17,12.06 11.20,12.13 11.23,12.20 11.25,12.28 11.26,12.36 11.25,12.44 11.25,12.51 11.22,12.59 11.20,12.66 11.16,12.73 11.11,12.80 11.06,12.85 11.00,12.91 10.93,12.95 10.86,12.99 10.79,13.01 10.71,13.03 10.63,13.04 10.55,13.04 10.48,13.03 10.40,13.01 10.33,12.98 10.25,12.94 10.19,12.89 10.13,12.84 10.35,12.94 10.57,13.04 10.47,13.02 10.36,13.00 10.27,12.94 10.18,12.89 10.11,12.81 10.04,12.73 10.00,12.63 9.96,12.53 9.96,12.42 9.95,12.32 9.98,12.21 10.01,12.11 10.07,12.02 10.13,11.94 10.21,11.87 10.29,11.81 10.40,11.77 10.50,11.74 10.60,11.74 10.71,11.74 10.81,11.77 10.91,11.81 10.99,11.87 11.08,11.93 11.14,12.02 11.20,12.11 11.23,12.21 11.26,12.31 11.25,12.42 11.24,12.53 11.21,12.62 11.17,12.72 11.10,12.80 11.03,12.89 10.94,12.94 10.85,13.00 10.74,13.02 10.64,13.04 10.53,13.03 10.43,13.02 10.33,12.97 10.24,12.93 10.16,12.86 10.08,12.78 10.03,12.69 9.98,12.60 9.96,12.49 9.95,12.39 9.96,12.28 9.98,12.18 10.03,12.08 10.08,11.99 10.16,11.92 10.23,11.84 10.33,11.80 10.43,11.75 10.75,11.84 11.07,11.93 11.12,11.99 11.17,12.06 11.20,12.13 11.23,12.20 11.25,12.28 11.26,12.36 11.25,12.44 11.25,12.51 11.22,12.59 11.20,12.66 11.16,12.73 11.11,12.80 11.06,12.85 11.00,12.91 10.93,12.95 10.86,12.99 10.79,13.01 10.71,13.03 10.63,13.04 10.55,13.04 10.48,13.03 10.40,13.01 10.33,12.98 10.25,12.94 10.19,12.89 10.13,12.84 8.96,11.70 7.78,10.55 7.29,10.03 6.80,9.51 6.21,8.90 5.61,8.29 4.94,7.60 4.27,6.92 3.51,6.19 2.75,5.47 2.08,4.71 1.41,3.94 0.81,3.19 0.21,2.43 -0.30,1.71 -0.81,0.99 -1.08,0.40 -1.35,-0.17 -1.41,-0.27 -1.47,-0.37 -1.50,-0.47 -1.54,-0.58 -1.54,-0.70 -1.55,-0.81 -1.53,-0.92 -1.51,-1.04 -1.47,-1.14 -1.42,-1.25 -1.35,-1.34 -1.28,-1.43 -1.19,-1.50 -1.10,-1.57 -1.00,-1.62 -0.90,-1.66 -0.78,-1.69 -0.67,-1.71 -0.56,-1.70 -0.44,-1.70 -0.33,-1.66 -0.22,-1.63 -0.13,-1.57 -0.03,-1.51 0.04,-1.43 0.12,-1.35 0.32,-0.88 0.51,-0.40 0.55,-0.34 0.59,-0.27 0.62,-0.19 0.64,-0.12 0.65,-0.04 0.65,0.03 0.64,0.11 0.62,0.19 0.59,0.26 0.56,0.33 0.51,0.39 0.46,0.46 0.40,0.50 0.34,0.55 0.27,0.59 0.20,0.62 0.12,0.64 0.04,0.65 -0.03,0.65 -0.11,0.64 -0.18,0.62 -0.26,0.60 -0.33,0.56 -0.40,0.52 -0.45,0.46 -0.51,0.40 -0.51,0.40 L -0.51,0.40 Z"/></g><g transform="translate(198.5748291015625 153.39239501953125) rotate(0 10.417327880859375 -9.337173461914062)" stroke="none"><path fill="#1e1e1e" d="M -0.52,-0.39 Q -0.52,-0.39 -0.17,-1.14 0.17,-1.89 0.82,-2.67 1.48,-3.45 2.33,-4.40 3.18,-5.36 4.52,-6.71 5.85,-8.07 7.09,-9.27 8.33,-10.48 9.72,-11.59 11.11,-12.71 12.52,-13.72 13.93,-14.73 15.27,-15.59 16.61,-16.46 18.08,-17.47 19.54,-18.48 19.64,-18.53 19.73,-18.59 19.83,-18.61 19.94,-18.62 20.04,-18.61 20.15,-18.60 20.24,-18.55 20.34,-18.50 20.41,-18.43 20.49,-18.35 20.54,-18.26 20.58,-18.16 20.60,-18.05 20.61,-17.95 20.59,-17.85 20.57,-17.74 20.52,-17.65 20.47,-17.56 20.39,-17.49 20.31,-17.41 20.21,-17.37 20.11,-17.33 20.01,-17.32 19.90,-17.31 19.80,-17.34 19.69,-17.37 19.60,-17.42 19.52,-17.48 19.45,-17.56 19.38,-17.65 19.35,-17.75 19.31,-17.85 19.31,-17.95 19.30,-18.06 19.34,-18.16 19.37,-18.26 19.43,-18.35 19.49,-18.43 19.58,-18.50 19.66,-18.56 19.77,-18.59 19.87,-18.62 19.97,-18.62 20.08,-18.61 20.18,-18.58 20.28,-18.54 20.36,-18.47 20.44,-18.41 20.50,-18.32 20.56,-18.23 20.58,-18.12 20.61,-18.02 20.60,-17.91 20.59,-17.81 20.55,-17.71 20.51,-17.61 20.44,-17.53 20.36,-17.46 20.36,-17.46 20.36,-17.46 19.01,-16.29 17.66,-15.13 16.50,-14.00 15.33,-12.88 14.01,-11.82 12.68,-10.76 11.38,-9.71 10.09,-8.65 8.84,-7.47 7.59,-6.28 6.23,-5.02 4.87,-3.76 3.98,-2.87 3.09,-1.98 2.44,-1.32 1.78,-0.66 1.15,-0.13 0.52,0.39 0.46,0.45 0.41,0.51 0.34,0.55 0.27,0.59 0.20,0.62 0.12,0.64 0.04,0.65 -0.03,0.65 -0.11,0.64 -0.18,0.62 -0.26,0.59 -0.33,0.56 -0.39,0.51 -0.45,0.46 -0.50,0.40 -0.55,0.34 -0.59,0.27 -0.62,0.20 -0.63,0.12 -0.65,0.04 -0.65,-0.03 -0.64,-0.11 -0.62,-0.18 -0.60,-0.26 -0.56,-0.33 -0.52,-0.39 -0.52,-0.39 L -0.52,-0.39 Z"/></g><g transform="translate(563.9606323242188 139.0902099609375) rotate(0 7.86614990234375 7.8550872802734375)" stroke="none"><path fill="#1e1e1e" d="M 0.63,-0.15 Q 0.63,-0.15 1.04,0.65 1.44,1.45 1.64,2.19 1.84,2.92 2.03,3.62 2.23,4.31 2.42,4.93 2.61,5.56 2.78,6.13 2.95,6.69 3.30,7.58 3.64,8.47 4.32,8.21 5.01,7.96 5.57,7.30 6.14,6.64 6.82,5.73 7.51,4.81 8.38,3.52 9.26,2.23 9.98,1.17 10.71,0.11 11.27,-0.74 11.83,-1.60 12.28,-2.27 12.73,-2.95 13.05,-3.41 13.37,-3.87 13.74,-4.39 14.10,-4.91 14.25,-5.09 14.40,-5.28 14.51,-5.40 14.62,-5.52 14.76,-5.61 14.90,-5.70 15.06,-5.75 15.21,-5.81 15.38,-5.82 15.54,-5.84 15.70,-5.81 15.86,-5.79 16.02,-5.73 16.17,-5.66 16.30,-5.57 16.44,-5.47 16.54,-5.34 16.65,-5.22 16.72,-5.07 16.79,-4.92 16.83,-4.76 16.86,-4.60 16.86,-4.44 16.86,-4.27 16.81,-4.11 16.77,-3.95 16.69,-3.81 16.61,-3.67 15.68,-2.02 14.75,-0.38 14.23,0.48 13.72,1.35 13.01,2.53 12.30,3.71 11.23,5.51 10.16,7.31 9.32,8.77 8.48,10.23 7.71,11.60 6.94,12.98 6.29,14.16 5.65,15.35 5.12,16.28 4.59,17.22 3.64,18.70 2.70,20.17 2.64,20.26 2.58,20.35 2.49,20.41 2.41,20.47 2.31,20.50 2.20,20.54 2.10,20.53 1.99,20.53 1.89,20.50 1.79,20.46 1.71,20.39 1.62,20.33 1.57,20.24 1.51,20.15 1.48,20.05 1.46,19.95 1.46,19.84 1.47,19.73 1.51,19.64 1.55,19.54 1.62,19.46 1.69,19.38 1.79,19.32 1.88,19.27 1.98,19.25 2.09,19.23 2.19,19.24 2.30,19.26 2.39,19.30 2.49,19.35 2.56,19.42 2.64,19.50 2.69,19.59 2.74,19.69 2.75,19.79 2.77,19.90 2.75,20.00 2.73,20.11 2.68,20.20 2.63,20.29 2.55,20.36 2.47,20.44 2.37,20.48 2.27,20.52 2.17,20.53 2.06,20.54 1.96,20.52 1.86,20.49 1.77,20.44 1.68,20.38 1.61,20.30 1.54,20.21 1.50,20.12 1.47,20.02 1.46,19.91 1.46,19.80 1.49,19.70 1.52,19.60 1.52,19.60 1.52,19.60 1.95,17.85 2.39,16.09 2.84,15.11 3.30,14.12 3.91,12.88 4.53,11.65 5.29,10.24 6.06,8.84 6.90,7.36 7.75,5.88 8.83,4.08 9.91,2.27 10.62,1.10 11.33,-0.07 11.85,-0.94 12.37,-1.81 13.04,-2.92 13.71,-4.03 14.06,-4.65 14.40,-5.28 14.51,-5.40 14.62,-5.52 14.76,-5.61 14.90,-5.70 15.06,-5.75 15.21,-5.81 15.37,-5.82 15.54,-5.84 15.70,-5.81 15.86,-5.79 16.02,-5.73 16.17,-5.66 16.30,-5.57 16.44,-5.47 16.54,-5.34 16.65,-5.22 16.72,-5.07 16.79,-4.92 16.83,-4.76 16.86,-4.60 16.86,-4.44 16.86,-4.27 16.81,-4.11 16.77,-3.95 16.69,-3.81 16.61,-3.67 16.45,-3.49 16.30,-3.31 15.95,-2.82 15.60,-2.33 15.29,-1.89 14.99,-1.44 14.54,-0.77 14.10,-0.11 13.51,0.76 12.93,1.65 12.20,2.69 11.47,3.73 10.55,5.08 9.63,6.42 8.87,7.41 8.12,8.39 7.40,9.18 6.68,9.97 6.04,10.49 5.40,11.00 4.75,11.29 4.11,11.58 3.50,11.51 2.90,11.45 2.44,11.10 1.99,10.75 1.66,10.04 1.33,9.34 1.00,8.33 0.68,7.32 0.54,6.75 0.39,6.18 0.23,5.53 0.06,4.87 -0.10,4.17 -0.27,3.46 -0.45,2.70 -0.62,1.95 -0.63,1.05 -0.63,0.15 -0.64,0.07 -0.65,-0.00 -0.64,-0.08 -0.63,-0.16 -0.60,-0.23 -0.57,-0.30 -0.53,-0.37 -0.48,-0.43 -0.42,-0.49 -0.36,-0.54 -0.29,-0.57 -0.22,-0.61 -0.15,-0.63 -0.07,-0.65 0.00,-0.65 0.08,-0.65 0.16,-0.63 0.23,-0.61 0.30,-0.57 0.37,-0.53 0.43,-0.48 0.49,-0.43 0.53,-0.36 0.58,-0.30 0.61,-0.22 0.63,-0.15 0.63,-0.15 L 0.63,-0.15 Z"/></g><g transform="translate(10.141754150390625 359.2549743652344) rotate(0 7.5472412109375 -19.1190185546875)" stroke="none"><path fill="#1e1e1e" d="M -0.60,-0.24 Q -0.60,-0.24 -0.32,-1.47 -0.03,-2.69 0.42,-4.06 0.88,-5.42 1.42,-7.03 1.96,-8.64 2.55,-10.51 3.13,-12.39 3.89,-14.72 4.65,-17.06 5.46,-19.45 6.26,-21.83 6.99,-23.97 7.72,-26.11 8.40,-28.05 9.07,-29.99 9.67,-31.59 10.26,-33.19 10.73,-34.54 11.19,-35.89 11.53,-36.74 11.86,-37.59 12.17,-38.35 12.49,-39.11 12.56,-39.24 12.63,-39.37 12.73,-39.48 12.83,-39.58 12.95,-39.66 13.07,-39.74 13.21,-39.79 13.35,-39.84 13.50,-39.85 13.64,-39.87 13.79,-39.85 13.93,-39.83 14.06,-39.77 14.20,-39.72 14.32,-39.63 14.44,-39.54 14.53,-39.43 14.62,-39.32 14.69,-39.19 14.75,-39.06 14.78,-38.92 14.82,-38.77 14.81,-38.63 14.81,-38.48 14.77,-38.34 14.73,-38.20 15.08,-37.78 15.42,-37.35 15.54,-36.06 15.66,-34.77 15.75,-32.63 15.85,-30.50 15.89,-28.55 15.93,-26.60 16.01,-24.81 16.08,-23.02 16.16,-21.21 16.24,-19.40 16.27,-17.67 16.30,-15.95 16.33,-14.49 16.37,-13.02 16.40,-11.80 16.43,-10.58 16.41,-9.25 16.39,-7.93 16.32,-6.98 16.25,-6.04 15.47,-4.24 14.69,-2.43 14.67,-2.33 14.65,-2.22 14.60,-2.13 14.55,-2.04 14.47,-1.97 14.39,-1.90 14.29,-1.85 14.19,-1.81 14.09,-1.80 13.98,-1.79 13.88,-1.82 13.78,-1.84 13.69,-1.90 13.60,-1.96 13.53,-2.04 13.46,-2.12 13.43,-2.22 13.39,-2.32 13.39,-2.43 13.38,-2.54 13.41,-2.64 13.45,-2.74 13.51,-2.83 13.57,-2.91 13.66,-2.97 13.74,-3.04 13.84,-3.07 13.95,-3.10 14.05,-3.10 14.16,-3.09 14.26,-3.06 14.36,-3.02 14.44,-2.95 14.52,-2.89 14.58,-2.80 14.64,-2.71 14.66,-2.61 14.69,-2.50 14.68,-2.40 14.67,-2.29 14.63,-2.19 14.59,-2.10 14.52,-2.02 14.45,-1.94 14.35,-1.88 14.26,-1.83 14.16,-1.81 14.05,-1.79 13.95,-1.81 13.84,-1.82 13.75,-1.87 13.65,-1.91 13.58,-1.99 13.50,-2.06 13.45,-2.16 13.41,-2.26 13.39,-2.36 13.38,-2.47 13.38,-2.47 13.38,-2.47 13.65,-4.31 13.91,-6.15 13.93,-7.04 13.95,-7.94 13.94,-9.22 13.93,-10.51 13.89,-11.74 13.86,-12.96 13.82,-14.43 13.79,-15.91 13.76,-17.60 13.73,-19.29 13.66,-21.10 13.59,-22.91 13.51,-24.73 13.43,-26.55 13.40,-28.47 13.36,-30.40 13.28,-32.47 13.20,-34.55 13.17,-36.12 13.15,-37.70 12.82,-38.41 12.49,-39.11 12.56,-39.24 12.63,-39.37 12.73,-39.48 12.83,-39.58 12.95,-39.66 13.07,-39.74 13.21,-39.79 13.35,-39.84 13.50,-39.85 13.64,-39.87 13.78,-39.85 13.93,-39.83 14.06,-39.77 14.20,-39.72 14.32,-39.63 14.44,-39.54 14.53,-39.43 14.62,-39.32 14.69,-39.19 14.75,-39.06 14.78,-38.92 14.82,-38.77 14.81,-38.63 14.81,-38.48 14.77,-38.34 14.73,-38.20 14.42,-37.46 14.10,-36.71 13.78,-35.90 13.47,-35.09 12.98,-33.72 12.49,-32.36 11.90,-30.78 11.31,-29.20 10.62,-27.28 9.94,-25.35 9.20,-23.22 8.47,-21.08 7.65,-18.71 6.83,-16.35 6.06,-14.02 5.29,-11.69 4.67,-9.81 4.05,-7.93 3.48,-6.32 2.92,-4.71 2.41,-3.30 1.91,-1.90 1.25,-0.82 0.60,0.24 0.56,0.31 0.53,0.38 0.47,0.44 0.42,0.50 0.35,0.54 0.29,0.58 0.21,0.61 0.14,0.64 0.06,0.64 -0.01,0.65 -0.09,0.64 -0.17,0.63 -0.24,0.60 -0.31,0.57 -0.38,0.52 -0.44,0.48 -0.49,0.42 -0.54,0.35 -0.58,0.28 -0.61,0.21 -0.63,0.14 -0.65,0.06 -0.65,-0.01 -0.64,-0.09 -0.62,-0.17 -0.60,-0.24 -0.60,-0.24 L -0.60,-0.24 Z"/></g><g transform="translate(15.1732177734375 348.5838928222656) rotate(0 5.917327880859375 -2.005859375)" stroke="none"><path fill="#1e1e1e" d="M -0.34,-0.55 Q -0.34,-0.55 0.13,-1.13 0.62,-1.71 1.23,-2.06 1.84,-2.41 2.49,-2.69 3.14,-2.96 3.75,-3.22 4.37,-3.48 5.79,-3.82 7.22,-4.16 9.49,-4.22 11.77,-4.28 11.86,-4.23 11.95,-4.17 12.02,-4.09 12.09,-4.01 12.13,-3.91 12.17,-3.82 12.17,-3.71 12.18,-3.60 12.15,-3.50 12.12,-3.40 12.06,-3.31 12.00,-3.22 11.92,-3.16 11.83,-3.09 11.73,-3.06 11.63,-3.03 11.52,-3.03 11.42,-3.03 11.32,-3.06 11.22,-3.09 11.13,-3.16 11.05,-3.22 10.99,-3.31 10.93,-3.40 10.90,-3.50 10.87,-3.60 10.88,-3.71 10.88,-3.81 10.92,-3.91 10.96,-4.01 11.03,-4.09 11.10,-4.17 11.19,-4.23 11.28,-4.28 11.38,-4.31 11.49,-4.33 11.59,-4.32 11.70,-4.31 11.80,-4.26 11.89,-4.22 11.97,-4.14 12.05,-4.07 12.10,-3.98 12.15,-3.88 12.16,-3.78 12.18,-3.67 12.16,-3.57 12.15,-3.46 12.10,-3.37 12.05,-3.28 11.97,-3.20 11.89,-3.13 11.80,-3.09 11.70,-3.04 11.59,-3.03 11.49,-3.02 11.39,-3.04 11.28,-3.06 11.28,-3.06 11.28,-3.06 9.54,-2.54 7.79,-2.02 6.53,-1.64 5.27,-1.25 4.65,-1.01 4.02,-0.77 3.48,-0.56 2.93,-0.36 2.37,-0.09 1.81,0.18 1.08,0.36 0.34,0.55 0.27,0.58 0.20,0.62 0.12,0.63 0.05,0.65 -0.02,0.65 -0.10,0.64 -0.18,0.62 -0.25,0.60 -0.32,0.56 -0.39,0.52 -0.45,0.46 -0.51,0.41 -0.55,0.34 -0.59,0.27 -0.61,0.20 -0.64,0.12 -0.64,0.05 -0.65,-0.02 -0.64,-0.10 -0.63,-0.18 -0.59,-0.25 -0.56,-0.33 -0.51,-0.39 -0.47,-0.45 -0.41,-0.50 -0.34,-0.55 -0.34,-0.55 L -0.34,-0.55 Z"/></g><g transform="translate(25.094482421875 357.2541198730469) rotate(0 11.870086669921875 -23.676422119140625)" stroke="none"><path fill="#1e1e1e" d="M -0.43,-0.49 Q -0.43,-0.49 0.11,-1.22 0.66,-1.95 1.21,-2.63 1.75,-3.30 2.44,-4.23 3.13,-5.15 3.91,-6.34 4.69,-7.53 5.56,-8.97 6.43,-10.42 7.37,-12.01 8.30,-13.60 9.21,-15.31 10.12,-17.02 11.03,-18.85 11.94,-20.67 12.98,-23.15 14.02,-25.62 14.67,-27.22 15.32,-28.81 16.00,-31.05 16.69,-33.29 17.18,-35.22 17.67,-37.15 17.98,-38.75 18.29,-40.35 18.49,-41.64 18.68,-42.93 18.70,-43.96 18.72,-44.99 18.41,-44.52 18.09,-44.05 17.56,-43.25 17.04,-42.45 16.31,-40.78 15.58,-39.10 15.07,-37.86 14.56,-36.61 13.86,-34.49 13.16,-32.38 12.67,-30.36 12.17,-28.33 11.74,-26.36 11.30,-24.39 10.89,-22.48 10.48,-20.58 10.16,-18.66 9.85,-16.75 9.53,-14.41 9.22,-12.07 9.04,-10.42 8.87,-8.78 8.82,-7.51 8.76,-6.24 8.80,-5.31 8.84,-4.38 8.95,-3.70 9.06,-3.01 9.45,-2.38 9.84,-1.74 10.47,-1.85 11.10,-1.96 11.65,-2.29 12.20,-2.61 12.82,-3.12 13.44,-3.63 14.11,-4.29 14.77,-4.94 15.43,-5.69 16.09,-6.44 16.68,-7.31 17.28,-8.19 17.89,-9.11 18.50,-10.03 19.09,-11.03 19.68,-12.04 20.11,-12.73 20.54,-13.42 20.81,-13.88 21.08,-14.35 21.45,-14.96 21.83,-15.57 21.92,-15.68 22.01,-15.80 22.13,-15.89 22.25,-15.98 22.39,-16.04 22.52,-16.09 22.67,-16.12 22.81,-16.14 22.96,-16.13 23.11,-16.12 23.25,-16.07 23.39,-16.03 23.52,-15.95 23.64,-15.87 23.75,-15.76 23.85,-15.65 23.92,-15.53 24.00,-15.40 24.04,-15.26 24.08,-15.11 24.09,-14.97 24.09,-14.82 24.06,-14.67 24.04,-14.53 23.97,-14.39 23.91,-14.26 23.79,-13.41 23.67,-12.57 23.55,-11.74 23.43,-10.91 23.43,-10.13 23.43,-9.34 23.82,-9.40 24.21,-9.46 24.21,-9.38 24.20,-9.30 24.17,-9.22 24.15,-9.15 24.11,-9.08 24.06,-9.02 24.01,-8.96 23.95,-8.91 23.88,-8.87 23.81,-8.83 23.73,-8.81 23.66,-8.79 23.58,-8.78 23.50,-8.78 23.42,-8.80 23.35,-8.81 23.27,-8.85 23.20,-8.88 23.14,-8.93 23.08,-8.98 23.03,-9.05 22.99,-9.11 22.96,-9.18 22.92,-9.26 22.91,-9.33 22.90,-9.41 22.98,-9.64 23.07,-9.87 23.15,-9.94 23.23,-10.01 23.33,-10.04 23.43,-10.08 23.54,-10.08 23.64,-10.09 23.75,-10.05 23.85,-10.02 23.93,-9.96 24.02,-9.90 24.08,-9.81 24.14,-9.73 24.18,-9.63 24.21,-9.52 24.20,-9.42 24.20,-9.31 24.17,-9.21 24.13,-9.11 24.06,-9.03 24.00,-8.95 23.91,-8.89 23.82,-8.83 23.71,-8.81 23.61,-8.78 23.50,-8.79 23.40,-8.80 23.30,-8.84 23.20,-8.88 23.12,-8.95 23.05,-9.02 22.99,-9.12 22.94,-9.21 22.92,-9.31 22.90,-9.42 22.91,-9.52 22.93,-9.63 22.98,-9.72 23.02,-9.82 23.10,-9.89 23.17,-9.97 23.27,-10.02 23.36,-10.06 23.47,-10.08 23.57,-10.09 23.68,-10.07 23.78,-10.05 23.88,-10.00 23.97,-9.95 24.04,-9.87 24.11,-9.79 24.15,-9.69 24.19,-9.59 24.20,-9.49 24.21,-9.38 24.19,-9.28 24.16,-9.18 24.19,-9.32 24.21,-9.46 24.21,-9.38 24.20,-9.30 24.17,-9.22 24.15,-9.15 24.11,-9.08 24.06,-9.02 24.01,-8.96 23.95,-8.91 23.88,-8.87 23.81,-8.83 23.73,-8.81 23.66,-8.79 23.58,-8.78 23.50,-8.78 23.42,-8.80 23.35,-8.81 23.27,-8.85 23.20,-8.88 23.14,-8.93 23.08,-8.98 23.03,-9.05 22.99,-9.11 22.96,-9.18 22.92,-9.26 22.91,-9.33 22.90,-9.41 21.89,-9.33 20.87,-9.25 20.86,-10.25 20.85,-11.25 21.00,-12.18 21.15,-13.11 21.27,-13.64 21.38,-14.16 21.61,-14.86 21.83,-15.57 21.92,-15.68 22.01,-15.80 22.13,-15.89 22.25,-15.98 22.39,-16.04 22.52,-16.09 22.67,-16.12 22.81,-16.14 22.96,-16.13 23.11,-16.12 23.25,-16.07 23.39,-16.03 23.52,-15.95 23.64,-15.87 23.75,-15.76 23.85,-15.65 23.92,-15.53 24.00,-15.40 24.04,-15.26 24.08,-15.11 24.09,-14.97 24.09,-14.82 24.06,-14.67 24.04,-14.53 23.97,-14.39 23.91,-14.26 23.53,-13.70 23.15,-13.13 22.85,-12.64 22.56,-12.15 22.15,-11.49 21.74,-10.83 21.11,-9.77 20.48,-8.71 19.86,-7.78 19.23,-6.84 18.55,-5.86 17.87,-4.87 17.15,-4.06 16.42,-3.24 15.67,-2.52 14.91,-1.79 14.11,-1.17 13.31,-0.54 12.42,-0.10 11.54,0.33 10.71,0.42 9.88,0.51 9.05,0.19 8.22,-0.13 7.78,-0.67 7.35,-1.21 7.04,-1.92 6.74,-2.63 6.61,-3.46 6.49,-4.29 6.45,-5.31 6.41,-6.34 6.47,-7.68 6.52,-9.02 6.70,-10.70 6.88,-12.38 7.20,-14.76 7.51,-17.13 7.84,-19.10 8.16,-21.07 8.57,-22.99 8.98,-24.90 9.42,-26.90 9.86,-28.90 10.37,-31.01 10.89,-33.12 11.60,-35.32 12.31,-37.52 12.83,-38.80 13.34,-40.08 14.16,-41.95 14.97,-43.81 15.59,-44.73 16.20,-45.65 17.31,-46.77 18.43,-47.90 19.23,-47.86 20.02,-47.83 20.63,-47.02 21.23,-46.22 21.27,-45.58 21.31,-44.94 21.29,-43.74 21.27,-42.54 21.07,-41.20 20.87,-39.86 20.55,-38.18 20.23,-36.49 19.71,-34.51 19.20,-32.52 18.47,-30.17 17.74,-27.82 17.07,-26.21 16.41,-24.61 15.31,-22.07 14.22,-19.53 13.28,-17.67 12.33,-15.82 11.37,-14.08 10.42,-12.34 9.45,-10.75 8.48,-9.15 7.55,-7.69 6.62,-6.23 5.77,-5.00 4.91,-3.77 4.14,-2.83 3.38,-1.88 2.70,-1.15 2.02,-0.42 1.23,0.03 0.43,0.49 0.37,0.53 0.30,0.58 0.23,0.60 0.15,0.63 0.07,0.64 0.00,0.65 -0.07,0.64 -0.15,0.63 -0.23,0.60 -0.30,0.58 -0.36,0.53 -0.43,0.49 -0.48,0.43 -0.54,0.37 -0.57,0.30 -0.61,0.23 -0.63,0.15 -0.65,0.07 -0.65,0.00 -0.65,-0.07 -0.63,-0.15 -0.61,-0.23 -0.57,-0.30 -0.54,-0.37 -0.48,-0.43 -0.43,-0.49 -0.43,-0.49 L -0.43,-0.49 Z"/></g><g transform="translate(49.401611328125 335.4673767089844) rotate(0 0.318878173828125 0.51873779296875)" stroke="none"><path fill="#1e1e1e" d="M 0.92,0.25 Q 0.92,0.25 0.96,0.35 1.00,0.44 1.01,0.55 1.02,0.66 0.99,0.76 0.96,0.86 0.90,0.95 0.84,1.04 0.76,1.10 0.67,1.17 0.57,1.20 0.47,1.24 0.37,1.24 0.26,1.24 0.16,1.21 0.06,1.17 -0.02,1.11 -0.10,1.05 -0.16,0.96 -0.22,0.87 -0.25,0.77 -0.28,0.67 -0.28,0.56 -0.27,0.46 -0.23,0.36 -0.19,0.26 -0.13,0.18 -0.06,0.10 0.02,0.04 0.11,-0.01 0.22,-0.03 0.32,-0.05 0.43,-0.04 0.53,-0.03 0.63,0.00 0.73,0.04 0.80,0.12 0.88,0.19 0.93,0.28 0.98,0.38 1.00,0.48 1.02,0.59 1.00,0.69 0.99,0.80 0.94,0.89 0.89,0.98 0.81,1.06 0.74,1.13 0.64,1.18 0.54,1.22 0.44,1.24 0.33,1.25 0.23,1.23 0.12,1.20 0.03,1.15 -0.05,1.10 -0.12,1.02 -0.19,0.94 -0.19,0.94 -0.19,0.94 -0.30,0.90 -0.41,0.86 -0.50,0.80 -0.60,0.74 -0.68,0.65 -0.76,0.57 -0.82,0.47 -0.88,0.37 -0.91,0.26 -0.94,0.15 -0.95,0.03 -0.95,-0.07 -0.93,-0.19 -0.91,-0.30 -0.86,-0.40 -0.81,-0.51 -0.73,-0.60 -0.66,-0.69 -0.57,-0.76 -0.47,-0.83 -0.37,-0.87 -0.26,-0.92 -0.15,-0.94 -0.03,-0.95 0.07,-0.94 0.19,-0.94 0.55,-0.34 L 0.92,0.25 Z"/></g><g transform="translate(67.11810302734375 342.7296447753906) rotate(0 9.9212646484375 7.743927001953125)" stroke="none"><path fill="#1e1e1e" d="M -0.32,0.57 Q -0.32,0.57 -0.96,0.39 -1.60,0.22 -2.21,0.26 -2.83,0.30 -3.72,0.72 -4.61,1.13 -5.15,1.48 -5.69,1.82 -6.18,2.23 -6.68,2.65 -7.09,3.12 -7.51,3.60 -8.05,4.30 -8.59,4.99 -8.93,5.58 -9.27,6.16 -9.49,6.71 -9.72,7.26 -9.81,8.19 -9.90,9.13 -9.57,10.06 -9.24,10.98 -8.64,11.64 -8.05,12.30 -7.13,12.64 -6.22,12.99 -5.65,12.97 -5.09,12.96 -4.35,12.84 -3.61,12.72 -2.48,12.44 -1.34,12.17 -0.32,11.82 0.70,11.48 1.77,11.04 2.84,10.61 3.90,10.13 4.96,9.65 5.95,9.01 6.95,8.37 8.13,7.54 9.31,6.71 10.20,6.07 11.09,5.42 11.70,4.89 12.31,4.37 12.75,3.92 13.18,3.46 13.56,2.92 13.93,2.37 13.00,2.54 12.07,2.71 11.57,3.00 11.07,3.29 10.50,3.73 9.92,4.18 9.41,4.82 8.90,5.45 8.29,6.50 7.69,7.55 7.32,8.40 6.95,9.25 6.78,10.01 6.61,10.78 6.65,11.41 6.68,12.04 6.90,12.58 7.11,13.12 7.54,13.60 7.96,14.08 8.55,14.41 9.13,14.74 9.97,14.85 10.81,14.97 12.49,14.59 14.17,14.20 16.12,13.38 18.07,12.56 20.36,11.45 22.65,10.33 24.42,9.41 26.20,8.48 27.51,7.67 28.81,6.85 28.91,6.81 29.01,6.77 29.11,6.76 29.22,6.75 29.32,6.77 29.43,6.80 29.52,6.85 29.61,6.91 29.67,6.99 29.74,7.08 29.78,7.17 29.82,7.27 29.82,7.38 29.82,7.49 29.79,7.59 29.76,7.69 29.70,7.78 29.64,7.86 29.55,7.93 29.47,7.99 29.37,8.02 29.27,8.05 29.16,8.05 29.05,8.05 28.95,8.01 28.85,7.98 28.77,7.91 28.69,7.85 28.63,7.76 28.57,7.67 28.54,7.56 28.52,7.46 28.53,7.36 28.53,7.25 28.57,7.15 28.62,7.05 28.69,6.97 28.76,6.89 28.85,6.84 28.94,6.79 29.04,6.77 29.15,6.75 29.25,6.76 29.36,6.77 29.46,6.82 29.55,6.87 29.63,6.94 29.70,7.02 29.75,7.11 29.80,7.21 29.81,7.31 29.83,7.42 29.81,7.52 29.79,7.62 29.74,7.72 29.69,7.81 29.61,7.88 29.53,7.95 29.53,7.95 29.53,7.95 28.22,8.84 26.91,9.72 25.22,10.80 23.53,11.87 21.29,13.35 19.06,14.83 16.89,15.80 14.72,16.77 12.55,17.19 10.38,17.62 9.07,17.32 7.76,17.03 6.83,16.40 5.90,15.77 5.26,14.89 4.61,14.01 4.33,13.06 4.05,12.12 4.06,11.15 4.07,10.18 4.33,9.19 4.59,8.20 5.03,7.23 5.47,6.26 6.20,5.03 6.93,3.80 7.65,2.98 8.36,2.15 9.13,1.58 9.89,1.01 10.73,0.61 11.58,0.20 12.35,0.07 13.12,-0.04 14.00,0.07 14.88,0.19 15.35,0.55 15.82,0.91 16.12,1.62 16.41,2.32 16.08,3.34 15.75,4.36 15.38,4.80 15.01,5.24 14.49,5.77 13.97,6.30 13.28,6.89 12.59,7.48 11.68,8.14 10.77,8.81 9.54,9.66 8.30,10.52 7.15,11.23 6.00,11.95 4.90,12.45 3.79,12.94 2.64,13.41 1.49,13.87 0.36,14.24 -0.76,14.61 -2.00,14.90 -3.25,15.19 -4.19,15.32 -5.13,15.44 -6.02,15.40 -6.91,15.36 -7.64,15.12 -8.37,14.88 -9.01,14.52 -9.64,14.15 -10.18,13.65 -10.72,13.15 -11.10,12.52 -11.48,11.89 -11.76,11.16 -12.04,10.43 -12.17,9.76 -12.29,9.08 -12.26,8.41 -12.22,7.75 -12.05,7.04 -11.88,6.33 -11.57,5.65 -11.27,4.97 -10.84,4.26 -10.40,3.55 -9.80,2.81 -9.20,2.07 -8.65,1.49 -8.10,0.90 -7.47,0.41 -6.84,-0.07 -6.18,-0.46 -5.53,-0.84 -4.93,-1.10 -4.34,-1.36 -3.70,-1.56 -3.05,-1.77 -2.44,-1.79 -1.83,-1.82 -1.25,-1.66 -0.67,-1.50 -0.17,-1.03 0.32,-0.57 0.38,-0.52 0.44,-0.47 0.49,-0.41 0.55,-0.35 0.58,-0.28 0.62,-0.21 0.63,-0.13 0.65,-0.06 0.65,0.01 0.64,0.09 0.62,0.17 0.60,0.24 0.56,0.31 0.53,0.38 0.47,0.44 0.42,0.50 0.35,0.54 0.28,0.58 0.21,0.61 0.13,0.64 0.06,0.64 -0.01,0.65 -0.09,0.64 -0.17,0.63 -0.24,0.60 -0.32,0.57 -0.32,0.57 L -0.32,0.57 Z"/></g><g transform="translate(707.1102905273438 324.3517150878906) rotate(0 -3.93310546875 12.820098876953125)" stroke="none"><path fill="#1e1e1e" d="M -0.59,0.27 Q -0.59,0.27 -0.86,-0.19 -1.13,-0.66 -1.33,-1.40 -1.54,-2.13 -1.67,-2.80 -1.80,-3.46 -1.87,-3.72 -1.94,-3.97 -1.94,-4.09 -1.95,-4.20 -1.92,-4.32 -1.90,-4.43 -1.85,-4.53 -1.80,-4.64 -1.73,-4.73 -1.66,-4.82 -1.57,-4.88 -1.47,-4.95 -1.37,-5.00 -1.26,-5.04 -1.15,-5.06 -1.04,-5.08 -0.92,-5.07 -0.81,-5.06 -0.70,-5.03 -0.59,-4.99 -0.49,-4.93 -0.39,-4.87 -0.31,-4.79 -0.23,-4.70 -0.18,-4.60 -0.12,-4.50 -0.09,-4.39 -0.05,-4.28 -0.07,-3.68 -0.08,-3.07 -0.13,-2.24 -0.18,-1.40 -0.32,-0.10 -0.47,1.19 -0.58,2.70 -0.70,4.20 -0.85,5.90 -1.00,7.60 -1.26,9.46 -1.53,11.32 -1.91,13.21 -2.29,15.10 -2.88,17.42 -3.47,19.73 -3.97,21.38 -4.47,23.04 -4.85,24.36 -5.22,25.68 -6.19,27.90 -7.16,30.12 -7.21,30.21 -7.26,30.31 -7.33,30.38 -7.41,30.45 -7.50,30.50 -7.60,30.54 -7.71,30.56 -7.81,30.57 -7.92,30.55 -8.02,30.52 -8.11,30.47 -8.20,30.42 -8.27,30.34 -8.34,30.26 -8.38,30.16 -8.42,30.06 -8.43,29.95 -8.43,29.85 -8.41,29.74 -8.38,29.64 -8.32,29.55 -8.26,29.47 -8.18,29.40 -8.09,29.34 -7.99,29.30 -7.89,29.27 -7.79,29.27 -7.68,29.26 -7.58,29.30 -7.48,29.33 -7.39,29.39 -7.31,29.46 -7.25,29.55 -7.19,29.63 -7.16,29.74 -7.13,29.84 -7.13,29.94 -7.14,30.05 -7.18,30.15 -7.22,30.25 -7.28,30.33 -7.35,30.41 -7.44,30.47 -7.53,30.52 -7.64,30.54 -7.74,30.57 -7.85,30.56 -7.95,30.55 -8.05,30.50 -8.15,30.46 -8.22,30.39 -8.30,30.31 -8.35,30.22 -8.40,30.13 -8.42,30.02 -8.44,29.92 -8.42,29.81 -8.41,29.71 -8.41,29.71 -8.41,29.71 -7.91,27.39 -7.41,25.06 -7.04,23.72 -6.67,22.37 -6.18,20.77 -5.69,19.16 -5.10,16.90 -4.51,14.65 -4.13,12.82 -3.76,10.99 -3.48,9.19 -3.21,7.40 -3.05,5.71 -2.89,4.02 -2.76,2.48 -2.62,0.94 -2.46,-0.31 -2.31,-1.57 -2.12,-2.77 -1.94,-3.97 -1.94,-4.09 -1.95,-4.20 -1.92,-4.32 -1.90,-4.43 -1.85,-4.53 -1.80,-4.64 -1.73,-4.73 -1.66,-4.82 -1.57,-4.88 -1.47,-4.95 -1.37,-5.00 -1.26,-5.04 -1.15,-5.06 -1.04,-5.08 -0.92,-5.07 -0.81,-5.06 -0.70,-5.03 -0.59,-4.99 -0.49,-4.93 -0.39,-4.87 -0.31,-4.79 -0.23,-4.70 -0.18,-4.60 -0.12,-4.50 -0.09,-4.39 -0.05,-4.28 -0.04,-4.02 -0.02,-3.75 -0.00,-3.10 0.02,-2.45 0.12,-1.87 0.23,-1.29 0.41,-0.78 0.59,-0.27 0.62,-0.19 0.64,-0.12 0.65,-0.04 0.65,0.03 0.64,0.11 0.62,0.19 0.59,0.26 0.56,0.33 0.51,0.39 0.46,0.46 0.40,0.51 0.34,0.55 0.27,0.59 0.19,0.62 0.12,0.64 0.04,0.65 -0.03,0.65 -0.11,0.64 -0.19,0.62 -0.26,0.60 -0.33,0.55 -0.40,0.51 -0.45,0.46 -0.51,0.40 -0.55,0.34 -0.59,0.27 -0.59,0.27 L -0.59,0.27 Z"/></g><g transform="translate(693.2205200195312 327.7605285644531) rotate(0 14.06689453125 9.967071533203125)" stroke="none"><path fill="#1e1e1e" d="M -0.53,0.37 Q -0.53,0.37 -0.89,0.00 -1.24,-0.37 -1.40,-0.97 -1.56,-1.57 -1.27,-2.67 -0.97,-3.76 -0.59,-4.35 -0.20,-4.94 0.39,-5.57 1.00,-6.20 1.91,-6.89 2.83,-7.59 3.87,-8.12 4.92,-8.66 6.06,-9.03 7.20,-9.39 8.60,-9.62 10.00,-9.85 11.63,-9.88 13.26,-9.92 14.84,-9.64 16.42,-9.37 18.30,-8.47 20.17,-7.57 21.43,-6.75 22.68,-5.93 23.55,-5.12 24.43,-4.30 25.09,-3.53 25.74,-2.76 26.19,-1.98 26.63,-1.21 26.83,-0.37 27.02,0.45 26.82,1.55 26.61,2.65 26.04,3.63 25.46,4.60 24.69,5.43 23.92,6.25 23.01,6.95 22.10,7.66 21.02,8.26 19.94,8.87 19.00,9.29 18.07,9.72 17.00,10.06 15.92,10.41 15.11,10.58 14.30,10.75 13.46,10.89 12.61,11.02 12.27,11.06 11.94,11.10 11.81,11.10 11.68,11.09 11.55,11.06 11.43,11.03 11.31,10.96 11.20,10.90 11.10,10.81 11.00,10.73 10.93,10.62 10.86,10.51 10.81,10.39 10.77,10.26 10.75,10.13 10.74,10.00 10.76,9.87 10.78,9.74 10.82,9.62 10.87,9.50 10.95,9.39 11.02,9.29 11.12,9.20 11.22,9.12 11.34,9.06 11.46,9.00 11.58,8.97 11.71,8.94 12.56,8.62 13.41,8.30 14.32,8.21 15.23,8.12 16.24,8.07 17.25,8.01 18.40,8.08 19.56,8.14 20.81,8.34 22.06,8.55 23.18,8.83 24.31,9.12 25.42,9.50 26.53,9.88 27.35,10.33 28.17,10.78 28.76,11.41 29.35,12.05 29.58,13.00 29.81,13.95 29.60,15.04 29.39,16.12 28.73,17.39 28.06,18.66 27.06,19.93 26.06,21.21 24.81,22.41 23.56,23.61 21.73,24.90 19.89,26.20 18.32,27.10 16.75,28.01 15.43,28.60 14.11,29.19 12.86,29.56 11.60,29.93 10.53,30.06 9.46,30.19 8.55,30.15 7.63,30.11 5.92,29.02 4.21,27.92 4.16,27.83 4.10,27.74 4.08,27.64 4.05,27.53 4.06,27.43 4.07,27.32 4.11,27.23 4.15,27.13 4.22,27.05 4.30,26.97 4.39,26.92 4.48,26.87 4.59,26.85 4.69,26.83 4.80,26.84 4.90,26.86 5.00,26.90 5.09,26.95 5.17,27.03 5.24,27.10 5.29,27.20 5.33,27.29 5.35,27.40 5.36,27.50 5.34,27.61 5.32,27.71 5.27,27.80 5.22,27.90 5.14,27.97 5.06,28.04 4.96,28.08 4.86,28.12 4.76,28.13 4.65,28.14 4.55,28.11 4.44,28.09 4.35,28.03 4.26,27.97 4.20,27.89 4.13,27.80 4.10,27.70 4.06,27.61 4.06,27.50 4.06,27.39 4.09,27.29 4.12,27.19 4.18,27.10 4.24,27.02 4.33,26.96 4.42,26.89 4.52,26.86 4.62,26.83 4.73,26.84 4.83,26.84 4.93,26.88 5.03,26.91 5.11,26.98 5.20,27.05 5.20,27.05 5.20,27.05 6.43,27.31 7.67,27.56 8.39,27.55 9.12,27.53 9.97,27.41 10.83,27.29 11.91,26.98 12.99,26.66 14.20,26.14 15.40,25.61 16.88,24.80 18.36,23.98 20.08,22.84 21.79,21.69 22.94,20.65 24.10,19.61 25.01,18.53 25.93,17.46 26.52,16.49 27.10,15.52 27.34,14.86 27.57,14.20 27.33,13.40 27.09,12.59 26.47,12.21 25.85,11.83 24.82,11.47 23.80,11.10 22.76,10.84 21.73,10.57 20.58,10.38 19.44,10.20 18.40,10.13 17.37,10.07 16.40,10.13 15.42,10.19 14.22,10.32 13.02,10.44 12.48,10.77 11.94,11.10 11.81,11.10 11.68,11.09 11.55,11.06 11.43,11.03 11.31,10.96 11.20,10.90 11.10,10.81 11.00,10.73 10.93,10.62 10.86,10.51 10.81,10.39 10.77,10.26 10.75,10.13 10.74,10.00 10.76,9.87 10.78,9.74 10.82,9.62 10.87,9.50 10.95,9.39 11.02,9.29 11.12,9.20 11.22,9.12 11.34,9.06 11.46,9.00 11.58,8.97 11.71,8.94 12.04,8.90 12.38,8.86 13.12,8.75 13.86,8.63 14.56,8.49 15.27,8.34 16.22,8.04 17.18,7.75 18.04,7.36 18.91,6.97 19.85,6.47 20.80,5.96 21.59,5.36 22.39,4.77 23.03,4.12 23.67,3.47 24.13,2.81 24.58,2.14 24.70,0.94 24.81,-0.24 24.50,-0.85 24.18,-1.46 23.61,-2.15 23.05,-2.83 22.30,-3.54 21.55,-4.25 20.42,-5.01 19.29,-5.77 17.67,-6.60 16.05,-7.42 14.67,-7.68 13.29,-7.94 11.79,-7.92 10.30,-7.91 9.03,-7.73 7.77,-7.54 6.77,-7.24 5.77,-6.94 4.86,-6.50 3.95,-6.06 3.13,-5.47 2.30,-4.89 1.79,-4.40 1.28,-3.91 0.76,-3.11 0.25,-2.31 0.18,-1.78 0.10,-1.24 0.32,-0.81 0.53,-0.37 0.57,-0.30 0.61,-0.23 0.63,-0.16 0.65,-0.08 0.65,-0.00 0.65,0.07 0.63,0.14 0.61,0.22 0.58,0.29 0.54,0.36 0.49,0.42 0.44,0.48 0.37,0.53 0.31,0.57 0.23,0.60 0.16,0.63 0.08,0.64 0.00,0.65 -0.07,0.64 -0.15,0.63 -0.22,0.61 -0.29,0.58 -0.36,0.54 -0.43,0.49 -0.48,0.43 -0.53,0.37 -0.53,0.37 L -0.53,0.37 Z"/></g><g transform="translate(736.0236206054688 342.5073547363281) rotate(0 0.1063232421875 4.3350830078125)" stroke="none"><path fill="#1e1e1e" d="M -0.25,0.60 Q -0.25,0.60 -0.83,0.46 -1.41,0.32 -2.11,0.50 -2.82,0.68 -3.54,1.15 -4.26,1.62 -4.68,2.03 -5.10,2.43 -5.55,2.93 -5.99,3.43 -6.56,4.22 -7.13,5.00 -7.54,5.68 -7.96,6.35 -8.21,6.93 -8.45,7.51 -8.61,8.30 -8.77,9.09 -8.11,9.05 -7.44,9.01 -6.90,8.78 -6.36,8.55 -5.79,8.19 -5.21,7.83 -4.53,7.30 -3.85,6.77 -3.42,6.41 -2.99,6.04 -2.34,5.27 -1.68,4.50 -1.42,3.90 -1.16,3.30 -1.61,2.94 -2.06,2.58 -2.90,2.56 -3.74,2.54 -4.28,2.52 -4.81,2.50 -5.15,2.51 -5.50,2.52 -5.64,2.49 -5.78,2.47 -5.92,2.41 -6.05,2.35 -6.17,2.26 -6.28,2.17 -6.37,2.06 -6.46,1.95 -6.52,1.82 -6.58,1.68 -6.61,1.54 -6.64,1.40 -6.63,1.26 -6.63,1.11 -6.58,0.97 -6.54,0.83 -6.47,0.71 -6.40,0.58 -6.29,0.48 -6.19,0.37 -6.07,0.30 -5.95,0.22 -5.81,0.18 -5.67,0.13 -5.53,0.12 -5.38,0.11 -4.85,0.22 -4.31,0.34 -3.16,0.22 -2.02,0.10 -1.25,-0.06 -0.48,-0.22 0.42,-0.42 1.33,-0.63 2.20,-0.89 3.07,-1.15 4.19,-1.41 5.32,-1.66 7.43,-1.99 9.54,-2.32 9.64,-2.35 9.75,-2.37 9.85,-2.36 9.96,-2.36 10.05,-2.31 10.15,-2.27 10.23,-2.20 10.31,-2.13 10.36,-2.04 10.42,-1.95 10.44,-1.84 10.46,-1.74 10.44,-1.63 10.43,-1.53 10.38,-1.43 10.33,-1.34 10.26,-1.26 10.18,-1.19 10.09,-1.14 9.99,-1.09 9.89,-1.08 9.78,-1.06 9.68,-1.08 9.58,-1.10 9.48,-1.15 9.39,-1.21 9.32,-1.28 9.25,-1.36 9.21,-1.46 9.16,-1.56 9.15,-1.66 9.15,-1.77 9.17,-1.87 9.20,-1.98 9.25,-2.07 9.31,-2.16 9.39,-2.22 9.48,-2.29 9.58,-2.33 9.68,-2.36 9.78,-2.37 9.89,-2.37 9.99,-2.34 10.09,-2.31 10.18,-2.25 10.26,-2.18 10.33,-2.10 10.39,-2.01 10.42,-1.91 10.45,-1.81 10.45,-1.70 10.45,-1.60 10.41,-1.50 10.37,-1.40 10.31,-1.31 10.24,-1.23 10.15,-1.17 10.06,-1.12 10.06,-1.12 10.06,-1.12 7.99,-0.14 5.93,0.82 4.88,1.10 3.83,1.37 2.86,1.66 1.89,1.95 0.95,2.14 0.02,2.33 -0.86,2.49 -1.75,2.66 -2.61,2.74 -3.48,2.81 -4.49,2.66 -5.50,2.52 -5.64,2.49 -5.78,2.47 -5.92,2.41 -6.05,2.35 -6.17,2.26 -6.28,2.17 -6.37,2.06 -6.46,1.95 -6.52,1.82 -6.58,1.69 -6.61,1.54 -6.64,1.40 -6.63,1.26 -6.63,1.11 -6.58,0.97 -6.54,0.83 -6.47,0.71 -6.40,0.58 -6.29,0.48 -6.19,0.37 -6.07,0.30 -5.95,0.22 -5.81,0.18 -5.67,0.13 -5.53,0.12 -5.38,0.11 -4.53,0.13 -3.68,0.15 -2.92,0.19 -2.16,0.23 -1.59,0.34 -1.02,0.45 -0.17,1.09 0.67,1.73 0.91,2.35 1.15,2.97 0.94,3.98 0.74,4.99 0.44,5.50 0.14,6.01 -0.20,6.43 -0.56,6.84 -1.01,7.34 -1.46,7.83 -1.94,8.24 -2.42,8.65 -3.20,9.24 -3.99,9.82 -4.74,10.28 -5.50,10.73 -6.29,11.02 -7.07,11.31 -8.02,11.39 -8.97,11.48 -9.61,11.17 -10.24,10.87 -10.65,9.86 -11.06,8.84 -10.98,8.28 -10.90,7.72 -10.71,7.15 -10.52,6.58 -10.19,5.88 -9.85,5.17 -9.38,4.42 -8.90,3.68 -8.24,2.82 -7.58,1.97 -7.05,1.42 -6.52,0.87 -5.98,0.40 -5.45,-0.05 -4.91,-0.40 -4.37,-0.76 -3.84,-0.97 -3.31,-1.18 -2.71,-1.30 -2.12,-1.42 -1.45,-1.34 -0.78,-1.26 -0.26,-0.93 0.25,-0.60 0.32,-0.56 0.39,-0.52 0.45,-0.47 0.50,-0.41 0.55,-0.34 0.59,-0.28 0.61,-0.20 0.64,-0.13 0.64,-0.05 0.65,0.02 0.64,0.10 0.63,0.18 0.59,0.25 0.56,0.32 0.52,0.39 0.47,0.45 0.41,0.50 0.35,0.55 0.27,0.58 0.20,0.62 0.13,0.63 0.05,0.65 -0.02,0.65 -0.10,0.64 -0.18,0.62 -0.25,0.60 -0.25,0.60 L -0.25,0.60 Z"/></g><g transform="translate(752.0393676757812 318.5715637207031) rotate(0 -1.38189697265625 18.044464111328125)" stroke="none"><path fill="#1e1e1e" d="M 0.65,0.05 Q 0.65,0.05 0.83,0.60 1.02,1.15 0.83,2.27 0.64,3.39 0.30,4.91 -0.03,6.43 -0.45,8.22 -0.88,10.02 -1.35,12.15 -1.83,14.29 -2.27,16.39 -2.71,18.49 -3.08,20.48 -3.44,22.46 -3.80,24.34 -4.16,26.22 -4.51,28.04 -4.86,29.86 -5.02,31.09 -5.18,32.32 -5.32,33.21 -5.46,34.09 -5.58,34.95 -5.71,35.81 -5.24,35.26 -4.77,34.71 -3.93,34.24 -3.09,33.78 -2.24,33.31 -1.39,32.83 -0.69,32.36 0.01,31.89 0.69,31.39 1.38,30.89 1.90,30.45 2.43,30.00 2.89,29.54 3.36,29.08 3.61,28.61 3.87,28.15 3.75,27.54 3.64,26.93 2.84,26.55 2.04,26.18 1.29,25.99 0.54,25.80 -0.23,25.71 -1.02,25.63 -1.94,25.68 -2.87,25.73 -3.62,25.84 -4.37,25.94 -5.89,26.52 -7.41,27.10 -7.51,27.15 -7.60,27.20 -7.71,27.21 -7.82,27.22 -7.92,27.20 -8.02,27.18 -8.12,27.13 -8.21,27.08 -8.28,27.00 -8.35,26.92 -8.39,26.82 -8.43,26.72 -8.44,26.62 -8.45,26.51 -8.42,26.41 -8.40,26.31 -8.34,26.22 -8.28,26.13 -8.20,26.06 -8.12,26.00 -8.02,25.96 -7.92,25.92 -7.81,25.92 -7.70,25.92 -7.60,25.95 -7.50,25.98 -7.42,26.04 -7.33,26.10 -7.27,26.19 -7.21,26.28 -7.18,26.38 -7.14,26.48 -7.15,26.59 -7.15,26.69 -7.19,26.79 -7.22,26.89 -7.29,26.98 -7.36,27.06 -7.45,27.11 -7.54,27.17 -7.64,27.20 -7.74,27.22 -7.85,27.21 -7.96,27.20 -8.05,27.16 -8.15,27.12 -8.23,27.05 -8.31,26.98 -8.36,26.89 -8.41,26.79 -8.43,26.69 -8.45,26.58 -8.44,26.48 -8.42,26.37 -8.38,26.28 -8.33,26.18 -8.25,26.11 -8.18,26.03 -8.18,26.03 -8.18,26.03 -6.51,24.84 -4.84,23.65 -3.96,23.43 -3.09,23.20 -1.91,23.08 -0.74,22.96 0.24,23.06 1.23,23.16 2.16,23.42 3.10,23.67 3.87,24.02 4.65,24.38 5.23,24.86 5.81,25.34 6.20,26.03 6.58,26.73 6.59,27.43 6.60,28.13 6.36,28.80 6.12,29.48 5.66,30.20 5.20,30.92 4.66,31.46 4.11,32.00 3.51,32.50 2.91,33.01 2.18,33.53 1.46,34.06 0.66,34.58 -0.12,35.11 -0.97,35.59 -1.83,36.07 -2.69,36.54 -3.55,37.01 -4.16,37.33 -4.77,37.66 -5.36,37.90 -5.95,38.14 -6.61,38.12 -7.26,38.10 -7.85,37.44 -8.43,36.79 -8.36,36.11 -8.29,35.43 -8.16,34.57 -8.03,33.70 -7.89,32.83 -7.76,31.97 -7.57,30.67 -7.39,29.37 -7.03,27.55 -6.66,25.74 -6.29,23.87 -5.92,22.00 -5.54,19.98 -5.15,17.96 -4.69,15.85 -4.23,13.74 -3.72,11.60 -3.22,9.45 -2.77,7.67 -2.33,5.89 -1.96,4.43 -1.60,2.96 -1.39,1.97 -1.18,0.98 -0.91,0.46 -0.65,-0.05 -0.63,-0.12 -0.62,-0.20 -0.59,-0.27 -0.55,-0.34 -0.50,-0.41 -0.45,-0.47 -0.39,-0.51 -0.33,-0.56 -0.25,-0.59 -0.18,-0.62 -0.10,-0.64 -0.02,-0.65 0.04,-0.64 0.12,-0.64 0.20,-0.61 0.27,-0.59 0.34,-0.55 0.41,-0.51 0.46,-0.45 0.52,-0.39 0.56,-0.32 0.60,-0.25 0.62,-0.18 0.64,-0.10 0.65,-0.02 0.65,0.05 0.65,0.05 L 0.65,0.05 Z"/></g><g transform="translate(188.72442626953125 553.1125793457031) rotate(0 2.16143798828125 7.26226806640625)" stroke="none"><path fill="#1e1e1e" d="M -0.57,-0.32 Q -0.57,-0.32 -0.43,-1.11 -0.30,-1.91 0.52,-2.45 1.35,-2.99 2.15,-3.17 2.95,-3.35 3.75,-3.35 4.55,-3.35 5.26,-3.25 5.97,-3.15 6.67,-2.94 7.36,-2.73 7.93,-2.46 8.49,-2.18 9.14,-1.49 9.78,-0.80 10.07,-0.31 10.36,0.17 10.50,0.83 10.64,1.50 10.62,2.15 10.59,2.80 10.38,3.59 10.16,4.38 9.77,5.32 9.39,6.25 8.79,7.21 8.20,8.17 7.82,8.80 7.43,9.42 7.54,10.03 7.65,10.65 8.16,11.08 8.66,11.51 9.19,12.00 9.71,12.50 9.99,13.19 10.26,13.88 10.15,14.46 10.04,15.03 9.68,15.53 9.32,16.03 8.65,16.48 7.99,16.93 7.30,17.23 6.62,17.53 5.87,17.73 5.12,17.94 4.19,18.03 3.25,18.13 2.23,18.10 1.20,18.07 0.29,17.99 -0.60,17.92 -1.44,17.77 -2.28,17.63 -2.90,17.48 -3.52,17.32 -4.46,16.94 -5.41,16.55 -5.82,15.89 -6.23,15.24 -6.14,14.36 -6.05,13.49 -5.75,12.90 -5.44,12.32 -4.96,11.77 -4.47,11.23 -3.86,10.77 -3.25,10.32 -2.65,9.92 -2.04,9.52 -1.07,8.99 -0.10,8.45 0.82,8.02 1.75,7.59 2.68,7.32 3.62,7.05 5.53,7.19 7.45,7.33 7.55,7.36 7.65,7.40 7.74,7.46 7.82,7.52 7.88,7.61 7.95,7.69 7.98,7.79 8.01,7.90 8.01,8.00 8.00,8.11 7.97,8.21 7.93,8.31 7.86,8.39 7.80,8.47 7.71,8.53 7.62,8.59 7.51,8.61 7.41,8.64 7.30,8.63 7.20,8.62 7.10,8.58 7.00,8.54 6.92,8.47 6.85,8.40 6.79,8.30 6.74,8.21 6.72,8.11 6.70,8.00 6.72,7.90 6.73,7.79 6.78,7.70 6.82,7.60 6.90,7.53 6.97,7.45 7.07,7.40 7.16,7.36 7.27,7.34 7.38,7.33 7.48,7.35 7.58,7.37 7.68,7.42 7.77,7.47 7.84,7.55 7.91,7.63 7.95,7.73 7.99,7.83 8.00,7.93 8.01,8.04 7.99,8.14 7.96,8.24 7.90,8.33 7.85,8.42 7.76,8.49 7.68,8.56 7.58,8.59 7.48,8.63 7.37,8.63 7.27,8.63 7.27,8.63 7.27,8.63 5.82,8.93 4.37,9.22 3.62,9.54 2.87,9.85 2.04,10.29 1.20,10.74 0.33,11.26 -0.53,11.78 -1.09,12.16 -1.65,12.55 -2.35,13.11 -3.06,13.68 -3.50,13.98 -3.95,14.29 -3.40,14.47 -2.85,14.66 -2.32,14.80 -1.79,14.94 -1.08,15.07 -0.36,15.21 0.46,15.29 1.30,15.36 2.16,15.40 3.02,15.44 3.74,15.39 4.47,15.35 5.04,15.21 5.61,15.08 6.11,14.89 6.61,14.70 7.22,14.49 7.82,14.29 7.43,13.89 7.04,13.49 6.53,13.07 6.03,12.66 5.54,11.97 5.05,11.29 4.88,10.77 4.71,10.24 4.73,9.66 4.75,9.08 5.16,8.34 5.57,7.60 6.11,6.74 6.65,5.87 7.04,5.16 7.43,4.44 7.74,3.53 8.05,2.63 8.09,2.00 8.13,1.36 7.71,0.69 7.30,0.02 6.45,-0.32 5.61,-0.67 5.05,-0.75 4.50,-0.84 3.95,-0.86 3.40,-0.89 2.54,-0.72 1.68,-0.55 1.12,-0.11 0.57,0.32 0.52,0.38 0.47,0.44 0.41,0.49 0.35,0.55 0.28,0.58 0.21,0.62 0.13,0.63 0.06,0.65 -0.01,0.65 -0.09,0.64 -0.17,0.62 -0.24,0.60 -0.31,0.56 -0.38,0.52 -0.44,0.47 -0.50,0.42 -0.54,0.35 -0.58,0.28 -0.61,0.21 -0.64,0.13 -0.64,0.06 -0.65,-0.01 -0.64,-0.09 -0.63,-0.17 -0.60,-0.24 -0.57,-0.32 -0.57,-0.32 L -0.57,-0.32 Z"/></g><g transform="translate(563.3937377929688 545.0351867675781) rotate(0 6.69683837890625 15.117340087890625)" stroke="none"><path fill="#1e1e1e" d="M 0.65,-0.08 Q 0.65,-0.08 1.03,0.84 1.41,1.76 1.46,2.89 1.51,4.01 1.58,5.42 1.65,6.83 1.75,8.92 1.85,11.01 1.93,12.87 2.02,14.74 2.08,16.33 2.14,17.92 2.19,19.38 2.23,20.84 2.32,22.04 2.40,23.23 2.42,24.29 2.44,25.36 2.47,26.17 2.50,26.97 2.55,27.59 2.60,28.20 2.67,29.04 2.73,29.87 2.76,30.12 2.79,30.38 2.78,30.54 2.77,30.70 2.72,30.86 2.67,31.01 2.59,31.15 2.50,31.29 2.38,31.41 2.27,31.52 2.13,31.60 1.99,31.69 1.83,31.73 1.67,31.78 1.51,31.79 1.35,31.80 1.19,31.77 1.03,31.74 0.88,31.67 0.73,31.60 0.60,31.50 0.48,31.40 0.38,31.27 0.28,31.14 0.21,30.99 0.15,30.84 0.12,30.68 0.09,30.52 0.56,29.78 1.03,29.05 1.20,28.50 1.38,27.96 1.80,26.93 2.21,25.90 2.55,25.36 2.89,24.82 3.63,24.18 4.37,23.54 5.33,23.01 6.29,22.48 7.19,21.91 8.10,21.34 8.78,20.76 9.46,20.19 10.17,19.38 10.87,18.57 11.32,17.90 11.76,17.24 11.27,16.85 10.78,16.46 10.29,16.22 9.80,15.99 8.80,15.66 7.81,15.34 6.94,15.17 6.08,15.00 4.43,15.42 2.79,15.84 2.69,15.89 2.60,15.94 2.49,15.95 2.39,15.97 2.28,15.95 2.18,15.93 2.08,15.88 1.99,15.83 1.92,15.75 1.85,15.68 1.80,15.58 1.76,15.48 1.75,15.38 1.74,15.27 1.76,15.17 1.79,15.06 1.84,14.97 1.90,14.88 1.98,14.81 2.06,14.75 2.16,14.71 2.26,14.67 2.37,14.67 2.47,14.66 2.57,14.69 2.68,14.72 2.76,14.78 2.85,14.84 2.91,14.93 2.98,15.01 3.01,15.11 3.04,15.21 3.04,15.32 3.04,15.43 3.01,15.53 2.97,15.63 2.91,15.71 2.84,15.79 2.75,15.85 2.66,15.91 2.56,15.94 2.46,15.97 2.35,15.96 2.25,15.95 2.15,15.91 2.05,15.87 1.97,15.80 1.89,15.73 1.83,15.64 1.78,15.55 1.76,15.45 1.74,15.34 1.75,15.24 1.76,15.13 1.81,15.03 1.85,14.94 1.93,14.86 2.00,14.79 2.00,14.79 2.00,14.79 3.64,13.55 5.27,12.32 6.32,12.33 7.36,12.35 8.02,12.46 8.67,12.57 9.24,12.75 9.81,12.93 10.44,13.16 11.07,13.39 11.66,13.69 12.26,13.99 13.20,14.82 14.14,15.65 14.34,16.16 14.53,16.67 14.34,17.63 14.15,18.60 13.58,19.44 13.00,20.27 12.55,20.83 12.10,21.39 11.28,22.17 10.46,22.95 9.56,23.58 8.65,24.21 8.12,24.55 7.58,24.89 7.07,25.16 6.55,25.44 5.89,25.82 5.23,26.20 4.91,26.71 4.60,27.21 4.36,27.74 4.12,28.27 3.92,28.92 3.72,29.57 3.26,29.97 2.79,30.38 2.78,30.54 2.77,30.70 2.72,30.86 2.67,31.01 2.59,31.15 2.50,31.29 2.38,31.41 2.27,31.52 2.13,31.60 1.99,31.69 1.83,31.73 1.67,31.78 1.51,31.79 1.35,31.80 1.19,31.77 1.03,31.74 0.88,31.67 0.73,31.60 0.60,31.50 0.48,31.40 0.38,31.27 0.28,31.14 0.21,30.99 0.15,30.84 0.12,30.68 0.09,30.52 0.06,30.26 0.04,30.01 -0.01,29.21 -0.06,28.42 -0.11,27.74 -0.16,27.06 -0.19,26.22 -0.21,25.39 -0.22,24.40 -0.22,23.40 -0.30,22.16 -0.38,20.92 -0.41,19.46 -0.45,18.00 -0.50,16.43 -0.54,14.85 -0.61,12.98 -0.68,11.11 -0.75,9.01 -0.81,6.92 -0.86,5.50 -0.90,4.08 -0.91,3.07 -0.92,2.06 -0.78,1.07 -0.65,0.08 -0.65,0.00 -0.65,-0.07 -0.63,-0.15 -0.61,-0.22 -0.57,-0.29 -0.54,-0.36 -0.49,-0.42 -0.43,-0.48 -0.37,-0.53 -0.30,-0.57 -0.23,-0.60 -0.16,-0.63 -0.08,-0.64 -0.00,-0.65 0.07,-0.64 0.15,-0.63 0.22,-0.61 0.30,-0.58 0.36,-0.53 0.43,-0.49 0.48,-0.43 0.53,-0.37 0.57,-0.30 0.61,-0.23 0.63,-0.15 0.65,-0.08 0.65,-0.08 L 0.65,-0.08 Z"/></g></svg>