<svg version="1.1" xmlns="http://www.w3.org/2000/svg" viewBox="0 0 689.7048187255859 268.611083984375" width="689.7048187255859" height="268.611083984375" filter="invert(93%) hue-rotate(180deg)" class="excalidraw-svg">
  <!-- svg-source:excalidraw -->
  
  <defs>
    <style class="style-fonts">
      @font-face {
        font-family: "Virgil";
        src: url("https://excalidraw.com/Virgil.woff2");
      }
      @font-face {
        font-family: "Cascadia";
        src: url("https://excalidraw.com/Cascadia.woff2");
      }
      @font-face {
        font-family: "Assistant";
        src: url("https://excalidraw.com/Assistant-Regular.woff2");
      }
    </style>
    
  </defs>
  <rect x="0" y="0" width="689.7048187255859" height="268.611083984375" fill="#ffffff"/><g stroke-linecap="round"><g transform="translate(93.1942367553711 63.993045806884766) rotate(0 236.89241790771484 -1.0850715637207031)"><path d="M0 0 C78.96 -0.36, 394.82 -1.81, 473.78 -2.17 M0 0 C78.96 -0.36, 394.82 -1.81, 473.78 -2.17" stroke="#1e1e1e" stroke-width="2" fill="none"/></g></g><mask/><g stroke-linecap="round"><g transform="translate(100.21170806884766 212.41665649414062) rotate(0 232.94275665283203 -0.8680534362792969)"><path d="M0 0 C77.65 -0.29, 388.24 -1.45, 465.89 -1.74 M0 0 C77.65 -0.29, 388.24 -1.45, 465.89 -1.74" stroke="#1e1e1e" stroke-width="2" fill="none"/></g></g><mask/><g stroke-linecap="round" transform="translate(285.0345230102539 10) rotate(0 80.20834350585938 124.3055419921875)"><path d="M32 0 C58.35 0, 84.71 0, 128.42 0 C149.75 0, 160.42 10.67, 160.42 32 C160.42 81.01, 160.42 130.02, 160.42 216.61 C160.42 237.94, 149.75 248.61, 128.42 248.61 C105.03 248.61, 81.64 248.61, 32 248.61 C10.67 248.61, 0 237.94, 0 216.61 C0 156.58, 0 96.55, 0 32 C0 10.67, 10.67 0, 32 0" stroke="none" stroke-width="0" fill="#ffffff"/><path d="M32 0 C65.62 0, 99.23 0, 128.42 0 M32 0 C59.33 0, 86.65 0, 128.42 0 M128.42 0 C149.75 0, 160.42 10.67, 160.42 32 M128.42 0 C149.75 0, 160.42 10.67, 160.42 32 M160.42 32 C160.42 99.14, 160.42 166.28, 160.42 216.61 M160.42 32 C160.42 72.56, 160.42 113.12, 160.42 216.61 M160.42 216.61 C160.42 237.94, 149.75 248.61, 128.42 248.61 M160.42 216.61 C160.42 237.94, 149.75 248.61, 128.42 248.61 M128.42 248.61 C98.38 248.61, 68.35 248.61, 32 248.61 M128.42 248.61 C101.72 248.61, 75.02 248.61, 32 248.61 M32 248.61 C10.67 248.61, 0 237.94, 0 216.61 M32 248.61 C10.67 248.61, 0 237.94, 0 216.61 M0 216.61 C0 173.56, 0 130.51, 0 32 M0 216.61 C0 169.8, 0 122.99, 0 32 M0 32 C0 10.67, 10.67 0, 32 0 M0 32 C0 10.67, 10.67 0, 32 0" stroke="#1e1e1e" stroke-width="2" fill="none"/></g><g transform="translate(342.6734390258789 123.88888549804688) rotate(0 12.84722900390625 10.416671752929688)" stroke="none"><path fill="#1e1e1e" d="M 0.52,-0.39 Q 0.52,-0.39 1.36,0.22 2.20,0.84 3.33,3.07 4.46,5.29 5.94,8.83 7.42,12.37 9.04,16.03 10.65,19.70 11.76,22.27 12.86,24.83 13.09,25.84 13.33,26.84 13.99,24.85 14.65,22.86 15.61,18.83 16.58,14.80 18.36,9.07 20.14,3.33 21.61,-0.27 23.08,-3.89 23.67,-5.42 24.26,-6.95 24.31,-7.05 24.37,-7.14 24.44,-7.21 24.52,-7.28 24.62,-7.33 24.72,-7.37 24.82,-7.38 24.93,-7.39 25.03,-7.37 25.13,-7.34 25.22,-7.28 25.31,-7.23 25.38,-7.15 25.45,-7.07 25.49,-6.97 25.53,-6.87 25.53,-6.76 25.53,-6.65 25.50,-6.55 25.47,-6.45 25.41,-6.36 25.35,-6.28 25.27,-6.21 25.18,-6.15 25.08,-6.12 24.98,-6.09 24.87,-6.09 24.77,-6.09 24.67,-6.12 24.57,-6.16 24.48,-6.22 24.40,-6.29 24.34,-6.38 24.28,-6.47 24.26,-6.57 24.23,-6.67 24.24,-6.78 24.24,-6.88 24.28,-6.98 24.32,-7.08 24.39,-7.16 24.46,-7.24 24.56,-7.29 24.65,-7.35 24.75,-7.37 24.86,-7.39 24.96,-7.38 25.07,-7.36 25.16,-7.32 25.26,-7.27 25.33,-7.20 25.41,-7.12 25.46,-7.03 25.51,-6.94 25.52,-6.83 25.54,-6.73 25.52,-6.62 25.50,-6.52 25.50,-6.52 25.50,-6.52 25.00,-4.95 24.50,-3.39 23.40,0.27 22.31,3.94 20.86,9.71 19.41,15.47 18.43,19.72 17.44,23.97 16.26,26.38 15.08,28.80 13.78,28.93 12.48,29.06 11.40,27.48 10.31,25.91 9.25,23.35 8.18,20.78 6.57,17.08 4.96,13.38 3.55,9.91 2.13,6.44 1.16,4.39 0.19,2.34 -0.16,1.37 -0.52,0.39 -0.56,0.32 -0.60,0.25 -0.62,0.18 -0.64,0.10 -0.65,0.02 -0.65,-0.05 -0.63,-0.13 -0.62,-0.20 -0.58,-0.28 -0.55,-0.35 -0.50,-0.41 -0.45,-0.47 -0.39,-0.52 -0.32,-0.56 -0.25,-0.59 -0.18,-0.63 -0.10,-0.64 -0.02,-0.65 0.05,-0.64 0.13,-0.64 0.20,-0.61 0.28,-0.59 0.34,-0.55 0.41,-0.50 0.47,-0.45 0.52,-0.39 0.52,-0.39 L 0.52,-0.39 Z"/></g><g transform="translate(569.4617462158203 52.955857276916504) rotate(0 0.4340362548828125 9.765615463256836)" stroke="none"><path fill="#1e1e1e" d="M 0.65,0 Q 0.65,0 1.03,1.12 1.40,2.24 1.41,3.59 1.41,4.94 1.53,6.59 1.66,8.23 1.71,9.98 1.76,11.73 1.79,12.97 1.81,14.21 1.82,15.24 1.83,16.27 1.52,17.61 1.20,18.96 1.27,19.04 1.34,19.12 1.38,19.21 1.42,19.31 1.43,19.42 1.44,19.52 1.41,19.63 1.38,19.73 1.33,19.82 1.27,19.91 1.18,19.97 1.10,20.04 1.00,20.07 0.90,20.11 0.79,20.11 0.69,20.11 0.59,20.08 0.48,20.05 0.40,19.98 0.31,19.92 0.25,19.83 0.19,19.74 0.16,19.64 0.13,19.54 0.14,19.43 0.14,19.33 0.18,19.23 0.22,19.13 0.29,19.05 0.35,18.97 0.44,18.91 0.53,18.85 0.64,18.83 0.74,18.81 0.85,18.82 0.95,18.83 1.05,18.87 1.15,18.91 1.22,18.99 1.30,19.06 1.35,19.15 1.40,19.24 1.42,19.35 1.44,19.45 1.43,19.56 1.41,19.66 1.36,19.76 1.31,19.85 1.24,19.93 1.16,20.00 1.06,20.05 0.97,20.09 0.86,20.10 0.76,20.12 0.65,20.10 0.55,20.07 0.46,20.02 0.37,19.97 0.37,19.97 0.37,19.97 -0.31,18.13 -0.99,16.29 -1.00,15.28 -1.01,14.26 -1.03,13.04 -1.05,11.82 -1.10,10.13 -1.16,8.44 -1.28,6.69 -1.41,4.94 -1.41,3.59 -1.40,2.24 -1.03,1.12 -0.65,0 -0.64,-0.07 -0.63,-0.15 -0.60,-0.23 -0.58,-0.30 -0.53,-0.37 -0.49,-0.43 -0.43,-0.48 -0.37,-0.54 -0.30,-0.57 -0.23,-0.61 -0.15,-0.63 -0.07,-0.65 0.00,-0.65 0.07,-0.65 0.15,-0.63 0.23,-0.61 0.30,-0.57 0.37,-0.54 0.43,-0.48 0.49,-0.43 0.53,-0.37 0.58,-0.30 0.60,-0.23 0.63,-0.15 0.64,-0.07 0.65,0.00 0.65,0.00 L 0.65,0 Z"/></g><g transform="translate(566.8576049804688 52.08778476715088) rotate(0 9.982643127441406 9.11458969116211)" stroke="none"><path fill="#1e1e1e" d="M -0.58,-0.29 Q -0.58,-0.29 -0.49,-0.88 -0.40,-1.47 0.03,-1.96 0.47,-2.45 1.03,-2.89 1.59,-3.34 2.21,-3.78 2.83,-4.22 3.61,-4.48 4.40,-4.74 5.40,-4.84 6.40,-4.94 7.50,-4.85 8.60,-4.76 9.69,-4.60 10.78,-4.43 11.72,-4.08 12.66,-3.73 13.70,-3.19 14.73,-2.66 15.60,-2.01 16.47,-1.37 17.28,-0.40 18.10,0.57 18.72,1.80 19.35,3.03 19.75,4.48 20.15,5.94 20.45,7.43 20.74,8.91 20.88,10.08 21.01,11.24 20.96,12.33 20.91,13.41 20.77,14.40 20.64,15.38 20.15,16.47 19.67,17.56 18.61,18.64 17.55,19.72 16.16,20.58 14.77,21.43 13.35,21.94 11.93,22.45 10.36,22.66 8.80,22.86 7.52,22.89 6.24,22.91 4.46,22.80 2.67,22.68 2.57,22.69 2.46,22.70 2.36,22.67 2.26,22.65 2.17,22.59 2.08,22.53 2.01,22.45 1.94,22.37 1.91,22.27 1.87,22.17 1.87,22.06 1.87,21.95 1.90,21.85 1.93,21.75 1.99,21.67 2.05,21.58 2.14,21.52 2.22,21.45 2.33,21.42 2.43,21.39 2.53,21.40 2.64,21.40 2.74,21.43 2.84,21.47 2.92,21.54 3.00,21.60 3.06,21.69 3.12,21.78 3.14,21.89 3.17,21.99 3.16,22.10 3.15,22.20 3.11,22.30 3.07,22.40 3.00,22.48 2.93,22.55 2.84,22.61 2.74,22.66 2.64,22.68 2.53,22.70 2.43,22.69 2.32,22.67 2.23,22.62 2.13,22.58 2.06,22.50 1.98,22.43 1.94,22.33 1.89,22.24 1.87,22.13 1.86,22.03 1.88,21.92 1.90,21.82 1.95,21.72 2.00,21.63 2.08,21.56 2.16,21.49 2.26,21.45 2.36,21.41 2.36,21.41 2.36,21.41 4.21,20.83 6.06,20.24 7.24,20.11 8.42,19.97 9.69,19.80 10.97,19.64 12.13,19.26 13.29,18.89 14.44,18.25 15.59,17.61 16.40,16.94 17.22,16.27 17.61,15.58 18.01,14.90 18.19,14.06 18.36,13.22 18.46,12.36 18.56,11.49 18.46,10.43 18.36,9.37 18.10,7.96 17.84,6.55 17.52,5.31 17.21,4.07 16.73,3.06 16.25,2.04 15.65,1.27 15.04,0.49 14.34,-0.04 13.63,-0.58 12.72,-1.06 11.81,-1.54 11.11,-1.83 10.41,-2.12 9.40,-2.28 8.39,-2.45 7.49,-2.54 6.58,-2.64 5.33,-2.50 4.08,-2.35 3.50,-1.96 2.92,-1.57 2.16,-1.04 1.40,-0.52 0.99,-0.11 0.58,0.29 0.54,0.35 0.49,0.42 0.44,0.47 0.38,0.53 0.31,0.57 0.24,0.60 0.16,0.62 0.09,0.65 0.01,0.65 -0.06,0.65 -0.14,0.63 -0.22,0.61 -0.29,0.58 -0.36,0.54 -0.42,0.49 -0.48,0.44 -0.52,0.38 -0.57,0.31 -0.60,0.24 -0.63,0.16 -0.64,0.09 -0.65,0.01 -0.64,-0.06 -0.64,-0.14 -0.61,-0.21 -0.58,-0.29 -0.58,-0.29 L -0.58,-0.29 Z"/></g><g transform="translate(32.5694465637207 234.3794641494751) rotate(0 -1.953125 -9.331626892089844)" stroke="none"><path fill="#1e1e1e" d="M 0.12,0.64 Q 0.12,0.64 -0.45,0.99 -1.04,1.35 -1.97,1.32 -2.90,1.29 -3.77,0.99 -4.64,0.68 -5.74,-0.14 -6.84,-0.97 -7.64,-2.34 -8.44,-3.71 -8.90,-5.63 -9.37,-7.54 -9.30,-9.46 -9.24,-11.37 -8.81,-13.01 -8.37,-14.64 -7.75,-15.80 -7.13,-16.95 -5.98,-17.93 -4.82,-18.91 -3.45,-19.35 -2.07,-19.79 -0.98,-19.95 0.11,-20.10 1.24,-19.90 2.37,-19.69 3.36,-19.12 4.34,-18.55 4.89,-17.57 5.44,-16.59 5.27,-15.09 5.10,-13.59 4.43,-12.37 3.77,-11.15 2.61,-10.16 1.46,-9.17 0.19,-8.73 -1.08,-8.30 -3.77,-8.78 -6.47,-9.25 -6.57,-9.28 -6.67,-9.31 -6.76,-9.38 -6.85,-9.44 -6.91,-9.52 -6.97,-9.61 -7.00,-9.71 -7.04,-9.81 -7.03,-9.92 -7.03,-10.03 -6.99,-10.13 -6.96,-10.23 -6.89,-10.31 -6.83,-10.39 -6.74,-10.45 -6.65,-10.51 -6.54,-10.53 -6.44,-10.56 -6.34,-10.55 -6.23,-10.54 -6.13,-10.50 -6.03,-10.46 -5.95,-10.39 -5.87,-10.32 -5.82,-10.23 -5.77,-10.13 -5.75,-10.03 -5.73,-9.92 -5.74,-9.82 -5.76,-9.71 -5.80,-9.62 -5.85,-9.52 -5.93,-9.45 -6.00,-9.37 -6.10,-9.32 -6.19,-9.28 -6.30,-9.26 -6.40,-9.25 -6.50,-9.27 -6.61,-9.29 -6.70,-9.34 -6.79,-9.39 -6.87,-9.47 -6.94,-9.55 -6.98,-9.65 -7.02,-9.74 -7.03,-9.85 -7.04,-9.96 -7.01,-10.06 -6.99,-10.16 -6.93,-10.25 -6.88,-10.34 -6.79,-10.41 -6.71,-10.47 -6.61,-10.51 -6.51,-10.55 -6.41,-10.55 -6.30,-10.56 -6.30,-10.56 -6.30,-10.56 -4.09,-10.74 -1.88,-10.92 -1.06,-11.16 -0.23,-11.41 0.61,-12.01 1.47,-12.61 2.00,-13.39 2.53,-14.16 2.73,-15.40 2.93,-16.63 2.38,-16.97 1.84,-17.31 1.13,-17.48 0.41,-17.66 -0.47,-17.52 -1.37,-17.38 -2.32,-17.14 -3.28,-16.90 -4.09,-16.28 -4.89,-15.65 -5.37,-14.79 -5.85,-13.93 -6.23,-12.59 -6.62,-11.24 -6.71,-9.67 -6.81,-8.10 -6.48,-6.51 -6.15,-4.92 -5.67,-3.91 -5.18,-2.90 -4.44,-2.25 -3.69,-1.59 -3.17,-1.33 -2.65,-1.08 -2.05,-0.96 -1.45,-0.85 -0.79,-0.74 -0.12,-0.64 -0.04,-0.64 0.02,-0.65 0.10,-0.64 0.18,-0.62 0.25,-0.59 0.33,-0.56 0.39,-0.51 0.45,-0.47 0.50,-0.41 0.55,-0.34 0.59,-0.27 0.62,-0.20 0.63,-0.12 0.65,-0.05 0.65,0.02 0.64,0.10 0.62,0.18 0.60,0.25 0.56,0.32 0.52,0.39 0.46,0.45 0.41,0.51 0.34,0.55 0.27,0.59 0.20,0.61 0.12,0.64 0.12,0.64 L 0.12,0.64 Z"/></g><g transform="translate(123.71528625488281 229.17110538482666) rotate(0 -5.859375 6.727447509765625)" stroke="none"><path fill="#1e1e1e" d="M -0.20,0.62 Q -0.20,0.62 -1.03,0.61 -1.85,0.59 -2.80,0.54 -3.74,0.49 -4.58,0.59 -5.42,0.69 -6.19,0.96 -6.95,1.24 -7.61,1.58 -8.27,1.92 -7.99,2.72 -7.70,3.51 -7.05,4.01 -6.39,4.50 -5.48,5.11 -4.56,5.73 -3.72,6.41 -2.88,7.09 -2.24,7.64 -1.59,8.18 -1.13,9.07 -0.67,9.95 -0.78,11.15 -0.89,12.34 -1.67,13.28 -2.45,14.22 -4.01,14.70 -5.57,15.18 -8.35,15.06 -11.13,14.93 -11.24,14.92 -11.34,14.91 -11.44,14.87 -11.54,14.83 -11.62,14.76 -11.70,14.69 -11.75,14.59 -11.80,14.50 -11.82,14.40 -11.84,14.29 -11.83,14.19 -11.81,14.08 -11.76,13.99 -11.72,13.89 -11.64,13.82 -11.56,13.74 -11.47,13.69 -11.37,13.65 -11.27,13.63 -11.16,13.62 -11.06,13.64 -10.96,13.66 -10.86,13.71 -10.77,13.77 -10.70,13.85 -10.63,13.92 -10.59,14.02 -10.55,14.12 -10.54,14.23 -10.53,14.33 -10.56,14.43 -10.58,14.54 -10.64,14.63 -10.70,14.72 -10.78,14.78 -10.86,14.85 -10.96,14.89 -11.06,14.92 -11.17,14.92 -11.27,14.93 -11.38,14.90 -11.48,14.86 -11.56,14.80 -11.65,14.74 -11.71,14.65 -11.77,14.57 -11.80,14.46 -11.83,14.36 -11.83,14.26 -11.83,14.15 -11.79,14.05 -11.75,13.95 -11.69,13.87 -11.62,13.79 -11.53,13.73 -11.44,13.67 -11.34,13.65 -11.23,13.62 -11.23,13.62 -11.23,13.62 -8.81,13.00 -6.39,12.37 -5.14,11.92 -3.88,11.46 -3.74,10.84 -3.59,10.21 -4.11,9.71 -4.64,9.20 -5.36,8.58 -6.08,7.96 -7.09,7.27 -8.10,6.57 -9.03,5.76 -9.96,4.94 -10.45,4.01 -10.94,3.08 -10.88,2.05 -10.81,1.02 -10.13,0.30 -9.45,-0.41 -8.59,-0.81 -7.73,-1.21 -6.68,-1.50 -5.64,-1.79 -4.58,-1.85 -3.51,-1.91 -2.32,-1.75 -1.13,-1.59 -0.46,-1.11 0.20,-0.62 0.27,-0.58 0.35,-0.55 0.41,-0.50 0.47,-0.45 0.52,-0.39 0.56,-0.32 0.59,-0.25 0.63,-0.18 0.64,-0.10 0.65,-0.02 0.64,0.05 0.64,0.13 0.61,0.20 0.59,0.28 0.55,0.34 0.50,0.41 0.45,0.46 0.39,0.52 0.32,0.56 0.25,0.60 0.18,0.62 0.10,0.64 0.02,0.65 -0.05,0.65 -0.13,0.63 -0.20,0.62 -0.20,0.62 L -0.20,0.62 Z"/></g><g transform="translate(118.50692749023438 77.2614107131958) rotate(0 -0.21699905395507812 6.076383590698242)" stroke="none"><path fill="#1e1e1e" d="M 0.65,0.04 Q 0.65,0.04 0.80,1.93 0.96,3.82 0.92,5.34 0.87,6.87 0.71,9.28 0.55,11.70 0.56,11.80 0.57,11.91 0.55,12.01 0.53,12.12 0.47,12.21 0.42,12.30 0.34,12.37 0.26,12.44 0.16,12.47 0.06,12.51 -0.04,12.52 -0.14,12.52 -0.25,12.50 -0.35,12.47 -0.44,12.41 -0.52,12.35 -0.59,12.26 -0.65,12.18 -0.69,12.08 -0.72,11.98 -0.72,11.87 -0.72,11.76 -0.68,11.66 -0.65,11.56 -0.59,11.48 -0.52,11.39 -0.43,11.33 -0.34,11.27 -0.24,11.25 -0.14,11.22 -0.03,11.22 0.06,11.23 0.16,11.27 0.26,11.31 0.34,11.38 0.42,11.45 0.48,11.54 0.53,11.63 0.55,11.73 0.57,11.84 0.56,11.94 0.55,12.05 0.51,12.15 0.46,12.24 0.39,12.32 0.31,12.40 0.22,12.45 0.13,12.49 0.02,12.51 -0.07,12.53 -0.18,12.51 -0.28,12.49 -0.38,12.44 -0.47,12.39 -0.54,12.32 -0.62,12.24 -0.66,12.14 -0.70,12.05 -0.70,12.05 -0.70,12.05 -1.14,9.41 -1.58,6.78 -1.52,5.22 -1.46,3.66 -1.05,1.80 -0.65,-0.04 -0.64,-0.12 -0.62,-0.19 -0.59,-0.27 -0.55,-0.34 -0.51,-0.40 -0.46,-0.46 -0.39,-0.51 -0.33,-0.56 -0.26,-0.59 -0.19,-0.62 -0.11,-0.64 -0.03,-0.65 0.04,-0.65 0.12,-0.64 0.19,-0.62 0.27,-0.59 0.34,-0.55 0.40,-0.51 0.46,-0.45 0.51,-0.40 0.55,-0.33 0.60,-0.26 0.62,-0.19 0.64,-0.11 0.65,-0.03 0.65,0.04 0.65,0.04 L 0.65,0.04 Z"/></g><g transform="translate(116.33678436279297 78.9975175857544) rotate(0 6.944465637207031 2.6041603088378906)" stroke="none"><path fill="#1e1e1e" d="M -0.64,0.10 Q -0.64,0.10 -0.92,-0.61 -1.20,-1.33 -1.17,-2.42 -1.14,-3.51 -0.78,-4.12 -0.43,-4.72 0.15,-5.26 0.74,-5.80 1.43,-6.18 2.12,-6.57 3.02,-6.75 3.92,-6.94 4.76,-6.88 5.60,-6.82 6.42,-6.51 7.24,-6.19 7.82,-5.93 8.40,-5.66 8.95,-5.03 9.50,-4.40 9.86,-3.56 10.22,-2.72 10.26,-1.72 10.29,-0.71 10.02,0.18 9.75,1.08 9.50,1.68 9.26,2.28 8.80,2.82 8.34,3.36 7.83,3.73 7.32,4.09 6.43,4.31 5.54,4.53 4.96,4.59 4.37,4.65 3.71,4.68 3.05,4.71 2.69,4.82 2.34,4.94 2.19,4.92 2.04,4.91 1.90,4.86 1.76,4.81 1.64,4.73 1.52,4.64 1.42,4.53 1.32,4.43 1.25,4.30 1.18,4.17 1.14,4.02 1.10,3.88 1.10,3.73 1.10,3.59 1.13,3.44 1.16,3.30 1.23,3.17 1.30,3.03 1.39,2.92 1.49,2.81 1.61,2.72 1.73,2.64 1.87,2.58 2.00,2.53 2.15,2.51 2.30,2.49 2.88,2.30 3.46,2.12 4.11,2.17 4.77,2.22 5.54,2.69 6.32,3.17 6.96,3.56 7.61,3.94 8.47,4.64 9.32,5.34 10.07,5.99 10.81,6.64 11.51,7.28 12.20,7.93 13.29,9.26 14.38,10.59 14.47,10.65 14.56,10.71 14.63,10.79 14.69,10.87 14.72,10.97 14.76,11.08 14.76,11.18 14.76,11.29 14.73,11.39 14.69,11.49 14.63,11.57 14.57,11.66 14.48,11.72 14.39,11.78 14.29,11.81 14.19,11.84 14.08,11.83 13.98,11.83 13.88,11.79 13.78,11.75 13.70,11.68 13.61,11.62 13.56,11.52 13.50,11.43 13.48,11.33 13.46,11.23 13.47,11.12 13.48,11.02 13.52,10.92 13.57,10.82 13.64,10.74 13.71,10.67 13.80,10.62 13.90,10.57 14.00,10.55 14.11,10.53 14.21,10.55 14.32,10.56 14.41,10.61 14.51,10.66 14.58,10.74 14.65,10.81 14.70,10.91 14.74,11.01 14.76,11.11 14.77,11.22 14.75,11.32 14.72,11.43 14.67,11.52 14.62,11.61 14.54,11.68 14.45,11.75 14.36,11.79 14.26,11.83 14.15,11.83 14.05,11.84 13.94,11.81 13.84,11.78 13.84,11.78 13.84,11.78 11.97,10.93 10.10,10.08 9.46,9.41 8.81,8.75 8.15,8.06 7.50,7.38 6.82,6.70 6.15,6.02 5.53,5.53 4.91,5.03 4.12,4.45 3.33,3.86 2.83,4.40 2.34,4.94 2.19,4.92 2.04,4.91 1.90,4.86 1.77,4.81 1.64,4.73 1.52,4.64 1.42,4.54 1.32,4.43 1.25,4.30 1.18,4.17 1.14,4.02 1.10,3.88 1.10,3.73 1.10,3.59 1.13,3.44 1.16,3.30 1.23,3.17 1.30,3.03 1.39,2.92 1.49,2.81 1.61,2.72 1.73,2.64 1.87,2.58 2.00,2.53 2.15,2.51 2.30,2.49 2.63,2.34 2.96,2.20 3.55,2.17 4.14,2.14 5.07,2.08 5.99,2.02 6.52,1.65 7.04,1.28 7.26,0.78 7.49,0.28 7.72,-0.24 7.95,-0.77 8.00,-1.36 8.06,-1.95 7.71,-2.84 7.37,-3.73 6.88,-3.95 6.40,-4.17 5.88,-4.41 5.36,-4.66 4.82,-4.74 4.27,-4.81 3.68,-4.74 3.09,-4.66 2.60,-4.43 2.12,-4.19 1.48,-3.59 0.84,-3.00 0.77,-2.32 0.70,-1.65 0.67,-0.88 0.64,-0.10 0.65,-0.02 0.65,0.05 0.63,0.12 0.62,0.20 0.59,0.27 0.55,0.34 0.50,0.41 0.45,0.47 0.39,0.51 0.33,0.56 0.25,0.59 0.18,0.63 0.10,0.64 0.02,0.65 -0.04,0.64 -0.12,0.64 -0.20,0.61 -0.27,0.59 -0.34,0.55 -0.41,0.51 -0.46,0.45 -0.52,0.39 -0.56,0.32 -0.60,0.25 -0.62,0.18 -0.64,0.10 -0.64,0.10 L -0.64,0.10 Z"/></g><g transform="translate(10.434017181396484 58.164177894592285) rotate(0 -0.2170085906982422 4.340276718139648)" stroke="none"><path fill="#1e1e1e" d="M -0.65,0 Q -0.65,0 -0.83,-0.49 -1.00,-0.99 -1.09,-1.35 -1.17,-1.70 -1.16,-1.84 -1.14,-1.99 -1.09,-2.12 -1.04,-2.25 -0.96,-2.37 -0.88,-2.49 -0.77,-2.58 -0.66,-2.67 -0.54,-2.74 -0.41,-2.81 -0.27,-2.84 -0.14,-2.87 0.00,-2.87 0.14,-2.87 0.27,-2.84 0.41,-2.81 0.54,-2.74 0.66,-2.67 0.77,-2.58 0.88,-2.49 0.96,-2.37 1.04,-2.25 1.09,-2.12 1.14,-1.99 1.16,-1.84 1.17,-1.70 1.19,-1.09 1.20,-0.47 1.08,0.84 0.96,2.16 0.91,3.41 0.86,4.66 0.81,5.94 0.76,7.22 0.66,8.78 0.56,10.34 0.57,10.45 0.57,10.56 0.54,10.66 0.51,10.76 0.45,10.85 0.39,10.93 0.30,11.00 0.22,11.06 0.12,11.09 0.02,11.12 -0.08,11.12 -0.19,11.12 -0.29,11.09 -0.39,11.05 -0.47,10.99 -0.55,10.92 -0.61,10.83 -0.67,10.74 -0.70,10.64 -0.72,10.54 -0.72,10.43 -0.71,10.32 -0.67,10.23 -0.63,10.13 -0.56,10.05 -0.49,9.97 -0.40,9.92 -0.30,9.86 -0.20,9.84 -0.10,9.82 0.00,9.83 0.10,9.85 0.20,9.89 0.30,9.94 0.37,10.01 0.45,10.09 0.50,10.18 0.54,10.27 0.56,10.38 0.58,10.49 0.56,10.59 0.54,10.69 0.49,10.79 0.44,10.88 0.36,10.95 0.28,11.02 0.18,11.07 0.09,11.11 -0.01,11.12 -0.12,11.13 -0.22,11.11 -0.32,11.08 -0.41,11.03 -0.50,10.97 -0.57,10.89 -0.64,10.81 -0.68,10.71 -0.71,10.61 -0.71,10.61 -0.71,10.61 -1.14,8.89 -1.56,7.18 -1.56,5.87 -1.57,4.56 -1.51,3.24 -1.45,1.92 -1.33,0.72 -1.20,-0.47 -1.19,-1.09 -1.17,-1.70 -1.16,-1.84 -1.14,-1.99 -1.09,-2.12 -1.04,-2.25 -0.96,-2.37 -0.88,-2.49 -0.77,-2.58 -0.66,-2.67 -0.54,-2.74 -0.41,-2.81 -0.27,-2.84 -0.14,-2.87 -0.00,-2.87 0.14,-2.87 0.27,-2.84 0.41,-2.81 0.54,-2.74 0.66,-2.67 0.77,-2.58 0.88,-2.49 0.96,-2.37 1.04,-2.25 1.09,-2.12 1.14,-1.99 1.16,-1.84 1.17,-1.70 1.09,-1.35 1.00,-0.99 0.83,-0.49 0.65,0 0.64,0.07 0.63,0.15 0.60,0.23 0.58,0.30 0.53,0.37 0.49,0.43 0.43,0.48 0.37,0.54 0.30,0.57 0.23,0.61 0.15,0.63 0.07,0.65 -0.00,0.65 -0.07,0.65 -0.15,0.63 -0.23,0.61 -0.30,0.57 -0.37,0.54 -0.43,0.48 -0.49,0.43 -0.53,0.37 -0.58,0.30 -0.60,0.23 -0.63,0.15 -0.64,0.07 -0.65,-0.00 -0.65,-0.00 L -0.65,0 Z"/></g><g transform="translate(17.8125 61.20237445831299) rotate(0 1.953125 2.821178436279297)" stroke="none"><path fill="#1e1e1e" d="M 0.29,0.58 Q 0.29,0.58 -0.04,1.03 -0.38,1.47 -0.57,2.45 -0.76,3.43 -0.41,4.34 -0.05,5.26 0.58,5.28 1.23,5.30 2.22,4.78 3.20,4.25 3.68,3.61 4.16,2.98 4.34,2.45 4.51,1.92 4.19,1.30 3.87,0.68 2.49,0.46 1.11,0.24 1.03,0.30 0.94,0.36 0.84,0.39 0.74,0.43 0.63,0.42 0.53,0.42 0.43,0.39 0.33,0.35 0.24,0.29 0.16,0.22 0.10,0.13 0.04,0.04 0.02,-0.05 -0.00,-0.15 0.00,-0.26 0.00,-0.36 0.04,-0.46 0.09,-0.56 0.16,-0.64 0.23,-0.72 0.32,-0.77 0.41,-0.83 0.51,-0.85 0.62,-0.87 0.72,-0.86 0.83,-0.84 0.92,-0.80 1.02,-0.75 1.10,-0.68 1.17,-0.60 1.22,-0.51 1.27,-0.41 1.28,-0.31 1.30,-0.20 1.28,-0.10 1.26,0.00 1.21,0.09 1.16,0.18 1.08,0.25 1.00,0.33 0.90,0.37 0.81,0.41 0.70,0.42 0.60,0.43 0.49,0.41 0.39,0.38 0.30,0.33 0.21,0.27 0.14,0.19 0.07,0.11 0.04,0.01 0.00,-0.08 -0.00,-0.19 -0.00,-0.29 0.02,-0.40 0.05,-0.50 0.11,-0.59 0.17,-0.67 0.17,-0.67 0.17,-0.67 2.34,-1.27 4.51,-1.86 5.21,-1.34 5.91,-0.83 6.39,0.01 6.87,0.85 6.84,1.80 6.82,2.75 6.44,3.63 6.06,4.51 5.25,5.43 4.43,6.34 3.71,6.74 2.98,7.14 2.15,7.43 1.31,7.72 0.43,7.66 -0.43,7.61 -1.21,7.12 -1.99,6.64 -2.51,5.70 -3.02,4.77 -3.08,3.89 -3.14,3.01 -2.93,2.07 -2.72,1.14 -2.17,0.33 -1.61,-0.47 -0.95,-0.53 -0.29,-0.58 -0.21,-0.61 -0.14,-0.64 -0.06,-0.64 0.01,-0.65 0.09,-0.64 0.16,-0.63 0.24,-0.60 0.31,-0.57 0.38,-0.52 0.44,-0.48 0.49,-0.42 0.54,-0.36 0.58,-0.29 0.61,-0.22 0.63,-0.14 0.65,-0.06 0.65,0.01 0.65,0.09 0.62,0.16 0.60,0.24 0.57,0.31 0.53,0.38 0.47,0.44 0.42,0.50 0.35,0.54 0.29,0.58 0.29,0.58 L 0.29,0.58 Z"/></g><g transform="translate(26.059017181396484 56.862107276916504) rotate(0 3.038196563720703 5.4253387451171875)" stroke="none"><path fill="#1e1e1e" d="M 0.33,-0.56 Q 0.33,-0.56 1.08,-0.39 1.83,-0.23 2.58,0.15 3.33,0.53 4.12,1.13 4.91,1.73 5.46,2.46 6.01,3.18 6.37,3.75 6.73,4.33 6.85,5.20 6.97,6.07 6.83,6.75 6.70,7.43 6.18,8.25 5.66,9.06 4.02,10.32 2.38,11.58 2.29,11.63 2.20,11.69 2.10,11.72 1.99,11.75 1.89,11.74 1.78,11.74 1.68,11.70 1.58,11.66 1.50,11.59 1.42,11.52 1.37,11.43 1.31,11.34 1.29,11.23 1.27,11.13 1.28,11.03 1.29,10.92 1.34,10.82 1.38,10.73 1.46,10.65 1.53,10.57 1.62,10.52 1.72,10.47 1.82,10.46 1.93,10.44 2.03,10.46 2.14,10.48 2.23,10.53 2.32,10.58 2.40,10.65 2.47,10.73 2.51,10.83 2.56,10.92 2.57,11.03 2.58,11.13 2.56,11.24 2.53,11.34 2.48,11.43 2.42,11.52 2.34,11.59 2.26,11.66 2.16,11.70 2.06,11.74 1.96,11.74 1.85,11.75 1.75,11.72 1.65,11.69 1.56,11.63 1.47,11.57 1.41,11.49 1.34,11.40 1.31,11.30 1.28,11.20 1.28,11.09 1.28,10.99 1.31,10.89 1.35,10.79 1.41,10.70 1.48,10.62 1.48,10.62 1.48,10.62 2.44,9.02 3.40,7.42 3.85,6.74 4.30,6.07 4.16,5.32 4.02,4.56 3.72,4.07 3.43,3.58 2.82,3.09 2.22,2.59 1.43,2.16 0.65,1.73 0.15,1.14 -0.33,0.56 -0.40,0.51 -0.46,0.46 -0.51,0.40 -0.56,0.34 -0.59,0.26 -0.62,0.19 -0.64,0.11 -0.65,0.04 -0.65,-0.03 -0.64,-0.11 -0.62,-0.19 -0.59,-0.26 -0.55,-0.33 -0.51,-0.40 -0.46,-0.45 -0.40,-0.51 -0.33,-0.55 -0.27,-0.59 -0.19,-0.62 -0.12,-0.64 -0.04,-0.65 0.03,-0.65 0.11,-0.64 0.19,-0.62 0.26,-0.59 0.33,-0.56 0.33,-0.56 L 0.33,-0.56 Z"/></g><g transform="translate(42.55208969116211 57.7301607131958) rotate(0 -1.953134536743164 5.4253387451171875)" stroke="none"><path fill="#1e1e1e" d="M 0.41,0.51 Q 0.41,0.51 -0.00,1.26 -0.42,2.02 -1.02,2.58 -1.62,3.15 -2.07,3.72 -2.53,4.29 -3.08,4.76 -3.62,5.24 -2.87,5.65 -2.11,6.06 -1.42,6.65 -0.73,7.24 0.55,8.86 1.84,10.48 1.91,10.57 1.97,10.65 2.00,10.75 2.04,10.85 2.04,10.96 2.04,11.06 2.00,11.16 1.97,11.26 1.91,11.35 1.84,11.43 1.75,11.49 1.67,11.55 1.56,11.58 1.46,11.61 1.36,11.60 1.25,11.60 1.15,11.56 1.05,11.52 0.97,11.45 0.89,11.38 0.84,11.29 0.78,11.20 0.76,11.10 0.73,10.99 0.75,10.89 0.76,10.78 0.80,10.69 0.85,10.59 0.92,10.51 0.99,10.43 1.09,10.38 1.18,10.33 1.29,10.32 1.39,10.30 1.50,10.32 1.60,10.33 1.69,10.38 1.79,10.43 1.86,10.51 1.93,10.59 1.98,10.69 2.02,10.78 2.03,10.89 2.05,10.99 2.02,11.10 2.00,11.20 1.95,11.29 1.89,11.38 1.81,11.45 1.73,11.52 1.63,11.56 1.53,11.60 1.43,11.60 1.32,11.61 1.22,11.58 1.11,11.55 1.03,11.49 0.94,11.43 0.94,11.43 0.94,11.43 -0.68,10.35 -2.31,9.27 -3.10,8.70 -3.88,8.13 -4.35,7.73 -4.81,7.33 -5.67,6.46 -6.52,5.59 -6.26,4.77 -6.00,3.96 -5.30,3.25 -4.60,2.54 -4.01,1.86 -3.43,1.18 -2.74,0.57 -2.06,-0.02 -1.23,-0.27 -0.41,-0.51 -0.34,-0.55 -0.27,-0.59 -0.20,-0.62 -0.12,-0.64 -0.04,-0.65 0.03,-0.65 0.11,-0.64 0.18,-0.62 0.26,-0.59 0.33,-0.56 0.39,-0.51 0.45,-0.46 0.50,-0.40 0.55,-0.34 0.59,-0.27 0.62,-0.20 0.63,-0.12 0.65,-0.04 0.65,0.03 0.64,0.11 0.62,0.18 0.60,0.26 0.56,0.33 0.52,0.39 0.46,0.45 0.41,0.51 0.41,0.51 L 0.41,0.51 Z"/></g><g transform="translate(51.66666030883789 60.768338203430176) rotate(0 0.43402671813964844 1.3020896911621094)" stroke="none"><path fill="#1e1e1e" d="M -0.33,0.56 Q -0.33,0.56 -1.06,0.36 -1.78,0.16 -2.37,0.17 -2.95,0.19 -3.10,0.85 -3.26,1.52 -3.32,2.07 -3.37,2.62 -3.17,3.30 -2.97,3.98 -2.59,4.55 -2.21,5.12 -1.40,5.35 -0.59,5.58 0.52,4.98 1.65,4.38 2.12,3.90 2.59,3.41 3.03,2.86 3.48,2.30 3.73,1.72 3.97,1.14 3.82,0.61 3.68,0.08 3.42,-0.63 3.16,-1.34 2.65,-1.88 2.13,-2.43 1.70,-2.79 1.27,-3.14 0.10,-2.93 -1.07,-2.73 -1.16,-2.68 -1.25,-2.62 -1.36,-2.60 -1.46,-2.58 -1.57,-2.59 -1.67,-2.61 -1.77,-2.65 -1.86,-2.70 -1.94,-2.77 -2.01,-2.85 -2.06,-2.94 -2.11,-3.04 -2.13,-3.14 -2.14,-3.25 -2.12,-3.35 -2.10,-3.45 -2.05,-3.55 -2.00,-3.64 -1.92,-3.71 -1.85,-3.78 -1.75,-3.83 -1.65,-3.87 -1.55,-3.88 -1.44,-3.89 -1.34,-3.87 -1.23,-3.84 -1.14,-3.79 -1.05,-3.73 -0.99,-3.65 -0.92,-3.57 -0.88,-3.47 -0.84,-3.37 -0.84,-3.26 -0.83,-3.15 -0.86,-3.05 -0.89,-2.95 -0.95,-2.86 -1.02,-2.78 -1.10,-2.71 -1.19,-2.65 -1.29,-2.62 -1.39,-2.59 -1.50,-2.59 -1.60,-2.59 -1.70,-2.62 -1.80,-2.66 -1.89,-2.73 -1.97,-2.79 -2.03,-2.88 -2.09,-2.97 -2.11,-3.07 -2.14,-3.17 -2.13,-3.28 -2.12,-3.39 -2.08,-3.48 -2.04,-3.58 -1.97,-3.66 -1.90,-3.74 -1.90,-3.74 -1.90,-3.74 0.46,-4.42 2.84,-5.11 3.44,-4.59 4.05,-4.07 4.78,-3.14 5.51,-2.22 5.84,-1.23 6.18,-0.25 6.24,0.86 6.31,1.97 5.88,2.91 5.45,3.86 4.90,4.54 4.35,5.22 3.65,5.88 2.95,6.54 2.03,7.07 1.11,7.61 0.18,7.86 -0.73,8.11 -1.78,7.94 -2.82,7.77 -3.59,7.14 -4.36,6.51 -4.92,5.57 -5.47,4.62 -5.70,3.49 -5.93,2.37 -5.82,1.60 -5.71,0.83 -5.35,-0.08 -5.00,-0.99 -4.23,-1.54 -3.47,-2.09 -2.72,-2.12 -1.98,-2.16 -1.34,-1.91 -0.70,-1.66 -0.18,-1.11 0.33,-0.56 0.40,-0.51 0.46,-0.46 0.51,-0.40 0.56,-0.34 0.59,-0.26 0.62,-0.19 0.64,-0.11 0.65,-0.04 0.65,0.03 0.64,0.11 0.62,0.19 0.59,0.26 0.55,0.33 0.51,0.40 0.46,0.45 0.40,0.51 0.33,0.55 0.27,0.59 0.19,0.62 0.12,0.64 0.04,0.65 -0.03,0.65 -0.11,0.64 -0.19,0.62 -0.26,0.59 -0.33,0.56 -0.33,0.56 L -0.33,0.56 Z"/></g><g transform="translate(63.38541030883789 54.6919641494751) rotate(0 0.43402671813964844 6.944437026977539)" stroke="none"><path fill="#1e1e1e" d="M 0.65,0 Q 0.65,0 0.93,1.49 1.22,2.99 1.25,4.87 1.28,6.76 1.40,8.26 1.52,9.75 1.46,11.41 1.40,13.06 1.40,13.16 1.40,13.27 1.36,13.37 1.33,13.47 1.26,13.55 1.20,13.64 1.11,13.70 1.02,13.76 0.92,13.78 0.82,13.81 0.71,13.80 0.60,13.80 0.51,13.76 0.41,13.72 0.33,13.65 0.25,13.58 0.19,13.48 0.14,13.39 0.12,13.29 0.10,13.19 0.11,13.08 0.12,12.97 0.17,12.88 0.21,12.78 0.29,12.71 0.36,12.63 0.45,12.58 0.55,12.53 0.65,12.52 0.76,12.50 0.86,12.52 0.97,12.54 1.06,12.59 1.15,12.64 1.23,12.72 1.30,12.79 1.34,12.89 1.39,12.99 1.40,13.09 1.41,13.20 1.38,13.30 1.36,13.41 1.30,13.50 1.25,13.59 1.17,13.65 1.08,13.72 0.98,13.76 0.89,13.80 0.78,13.80 0.67,13.81 0.57,13.78 0.47,13.75 0.38,13.69 0.29,13.63 0.23,13.54 0.17,13.46 0.14,13.36 0.10,13.26 0.10,13.26 0.10,13.26 -0.46,11.61 -1.02,9.96 -1.15,8.36 -1.28,6.76 -1.25,4.87 -1.22,2.99 -0.93,1.49 -0.65,0 -0.64,-0.07 -0.63,-0.15 -0.60,-0.23 -0.58,-0.30 -0.53,-0.37 -0.49,-0.43 -0.43,-0.48 -0.37,-0.54 -0.30,-0.57 -0.23,-0.61 -0.15,-0.63 -0.07,-0.65 0.00,-0.65 0.07,-0.65 0.15,-0.63 0.23,-0.61 0.30,-0.57 0.37,-0.54 0.43,-0.48 0.49,-0.43 0.53,-0.37 0.58,-0.30 0.60,-0.23 0.63,-0.15 0.64,-0.07 0.65,0.00 0.65,0.00 L 0.65,0 Z"/></g><g transform="translate(372.4131774902344 149.30999851226807) rotate(0 -2.3871612548828125 4.774322509765625)" stroke="none"><path fill="#1e1e1e" d="M -0.39,0.52 Q -0.39,0.52 -1.00,0.31 -1.61,0.10 -2.34,0.32 -3.07,0.55 -3.02,1.11 -2.96,1.68 -2.50,2.19 -2.04,2.70 -1.16,3.43 -0.27,4.16 0.16,4.85 0.60,5.54 0.81,6.32 1.03,7.09 0.97,7.97 0.91,8.84 0.40,9.65 -0.10,10.46 -2.31,10.97 -4.52,11.48 -4.63,11.48 -4.73,11.47 -4.83,11.43 -4.93,11.38 -5.01,11.31 -5.09,11.24 -5.14,11.15 -5.19,11.06 -5.21,10.95 -5.23,10.85 -5.22,10.74 -5.20,10.64 -5.16,10.54 -5.11,10.45 -5.04,10.37 -4.96,10.30 -4.87,10.25 -4.77,10.20 -4.67,10.19 -4.56,10.17 -4.46,10.19 -4.35,10.21 -4.26,10.26 -4.17,10.32 -4.10,10.39 -4.02,10.47 -3.98,10.57 -3.94,10.67 -3.93,10.77 -3.92,10.88 -3.95,10.98 -3.97,11.09 -4.03,11.18 -4.08,11.27 -4.17,11.33 -4.25,11.40 -4.35,11.44 -4.45,11.47 -4.56,11.48 -4.66,11.48 -4.76,11.45 -4.86,11.42 -4.95,11.36 -5.04,11.30 -5.10,11.21 -5.16,11.12 -5.19,11.02 -5.23,10.92 -5.22,10.81 -5.22,10.71 -5.18,10.61 -5.15,10.51 -5.08,10.43 -5.02,10.34 -4.93,10.28 -4.84,10.23 -4.73,10.20 -4.63,10.17 -4.63,10.17 -4.63,10.17 -3.40,9.50 -2.17,8.83 -1.80,8.21 -1.43,7.60 -1.67,6.75 -1.91,5.91 -2.31,5.53 -2.72,5.15 -3.26,4.71 -3.80,4.27 -4.35,3.63 -4.91,2.99 -5.28,2.20 -5.65,1.41 -5.44,0.51 -5.22,-0.37 -4.76,-0.87 -4.31,-1.36 -3.65,-1.71 -2.99,-2.05 -2.30,-2.08 -1.61,-2.11 -0.99,-1.85 -0.38,-1.59 0.00,-1.06 0.39,-0.52 0.45,-0.47 0.50,-0.41 0.55,-0.34 0.59,-0.28 0.61,-0.20 0.64,-0.13 0.64,-0.05 0.65,0.02 0.64,0.10 0.63,0.18 0.59,0.25 0.56,0.32 0.52,0.39 0.47,0.45 0.41,0.50 0.35,0.55 0.27,0.58 0.20,0.62 0.13,0.63 0.05,0.65 -0.02,0.65 -0.10,0.64 -0.18,0.62 -0.25,0.60 -0.32,0.56 -0.39,0.52 -0.39,0.52 L -0.39,0.52 Z"/></g><g transform="translate(378.05553436279297 149.30999851226807) rotate(0 -0.8680534362792969 4.123287200927734)" stroke="none"><path fill="#1e1e1e" d="M 0.64,0.12 Q 0.64,0.12 0.60,1.41 0.56,2.70 0.34,3.75 0.12,4.79 -0.51,6.91 -1.16,9.02 -1.24,9.09 -1.32,9.15 -1.42,9.19 -1.52,9.23 -1.63,9.23 -1.74,9.23 -1.84,9.20 -1.94,9.17 -2.03,9.11 -2.11,9.05 -2.17,8.96 -2.24,8.87 -2.27,8.77 -2.30,8.67 -2.30,8.57 -2.29,8.46 -2.26,8.36 -2.22,8.26 -2.15,8.18 -2.09,8.09 -2.00,8.04 -1.91,7.98 -1.80,7.95 -1.70,7.93 -1.60,7.94 -1.49,7.95 -1.39,7.99 -1.29,8.03 -1.22,8.10 -1.14,8.17 -1.08,8.26 -1.03,8.36 -1.01,8.46 -0.99,8.57 -1.01,8.67 -1.02,8.78 -1.07,8.87 -1.11,8.97 -1.19,9.04 -1.27,9.12 -1.36,9.16 -1.46,9.21 -1.56,9.23 -1.67,9.24 -1.77,9.22 -1.87,9.20 -1.97,9.15 -2.06,9.09 -2.13,9.02 -2.20,8.94 -2.24,8.84 -2.29,8.74 -2.29,8.64 -2.30,8.53 -2.28,8.43 -2.25,8.32 -2.19,8.23 -2.14,8.14 -2.14,8.14 -2.14,8.14 -2.09,6.23 -2.04,4.31 -1.80,3.29 -1.56,2.28 -1.10,1.07 -0.64,-0.12 -0.61,-0.20 -0.59,-0.27 -0.55,-0.34 -0.51,-0.41 -0.45,-0.46 -0.39,-0.52 -0.32,-0.56 -0.25,-0.60 -0.18,-0.62 -0.10,-0.64 -0.02,-0.65 0.05,-0.65 0.12,-0.63 0.20,-0.62 0.27,-0.59 0.34,-0.55 0.41,-0.50 0.47,-0.45 0.51,-0.39 0.56,-0.33 0.59,-0.25 0.63,-0.18 0.64,-0.10 0.65,-0.02 0.64,0.04 0.64,0.12 0.64,0.12 L 0.64,0.12 Z"/></g><g transform="translate(375.45135498046875 150.6121072769165) rotate(0 3.689250946044922 3.6892318725585938)" stroke="none"><path fill="#1e1e1e" d="M -0.60,-0.24 Q -0.60,-0.24 -0.46,-0.92 -0.32,-1.59 0.11,-2.13 0.55,-2.67 1.11,-2.95 1.66,-3.23 2.46,-3.34 3.26,-3.45 3.92,-3.35 4.59,-3.26 5.18,-3.05 5.77,-2.85 6.31,-2.26 6.86,-1.66 7.09,-0.92 7.32,-0.18 7.27,0.49 7.21,1.18 6.75,2.08 6.29,2.98 5.61,3.56 4.93,4.14 4.31,4.41 3.69,4.67 3.00,4.78 2.30,4.89 1.80,4.93 1.31,4.96 1.17,4.96 1.04,4.97 0.91,4.93 0.78,4.90 0.66,4.84 0.54,4.78 0.43,4.69 0.33,4.60 0.25,4.49 0.18,4.38 0.13,4.26 0.08,4.13 0.06,4.00 0.04,3.87 0.06,3.73 0.07,3.60 0.12,3.47 0.16,3.34 0.24,3.23 0.32,3.12 0.42,3.03 0.52,2.94 0.63,2.87 0.75,2.81 0.88,2.78 1.01,2.74 1.74,3.25 2.47,3.76 2.87,4.15 3.26,4.54 3.87,5.27 4.47,5.99 5.07,6.63 5.67,7.26 6.40,8.08 7.14,8.91 7.24,8.91 7.35,8.92 7.45,8.96 7.55,9.00 7.63,9.07 7.71,9.14 7.76,9.23 7.82,9.32 7.84,9.43 7.86,9.53 7.85,9.63 7.84,9.74 7.79,9.84 7.75,9.93 7.67,10.01 7.60,10.09 7.50,10.14 7.41,10.18 7.31,10.20 7.20,10.22 7.10,10.20 6.99,10.18 6.90,10.13 6.80,10.08 6.73,10.00 6.66,9.93 6.61,9.83 6.57,9.73 6.56,9.63 6.55,9.52 6.57,9.42 6.60,9.31 6.65,9.22 6.71,9.13 6.79,9.07 6.87,9.00 6.97,8.96 7.07,8.92 7.17,8.91 7.28,8.91 7.38,8.94 7.48,8.97 7.57,9.03 7.66,9.09 7.72,9.17 7.79,9.26 7.82,9.36 7.85,9.46 7.85,9.56 7.85,9.67 7.82,9.77 7.78,9.87 7.72,9.96 7.65,10.04 7.56,10.10 7.48,10.16 7.37,10.19 7.27,10.21 7.27,10.21 7.27,10.21 5.53,9.59 3.79,8.96 3.16,8.25 2.53,7.54 2.01,6.85 1.49,6.16 1.40,5.56 1.31,4.96 1.17,4.96 1.04,4.97 0.91,4.93 0.78,4.90 0.66,4.84 0.54,4.78 0.43,4.69 0.33,4.60 0.25,4.49 0.18,4.38 0.13,4.26 0.08,4.13 0.06,4.00 0.04,3.87 0.06,3.73 0.07,3.60 0.12,3.47 0.16,3.34 0.24,3.23 0.32,3.12 0.42,3.03 0.52,2.94 0.63,2.87 0.75,2.81 0.88,2.78 1.01,2.74 1.97,2.67 2.93,2.60 3.69,2.23 4.44,1.86 4.86,1.06 5.28,0.25 5.12,-0.42 4.96,-1.10 4.20,-1.32 3.44,-1.54 2.90,-1.51 2.36,-1.48 1.84,-1.19 1.32,-0.89 0.96,-0.32 0.60,0.24 0.57,0.31 0.53,0.38 0.48,0.44 0.42,0.49 0.36,0.54 0.29,0.58 0.22,0.61 0.14,0.64 0.06,0.64 -0.01,0.65 -0.09,0.64 -0.16,0.63 -0.24,0.60 -0.31,0.57 -0.37,0.52 -0.44,0.48 -0.49,0.42 -0.54,0.36 -0.58,0.29 -0.61,0.22 -0.63,0.14 -0.65,0.06 -0.65,-0.01 -0.65,-0.09 -0.63,-0.16 -0.60,-0.24 -0.60,-0.24 L -0.60,-0.24 Z"/></g><g transform="translate(577.7082824707031 204.43153476715088) rotate(0 8.680572509765625 6.727428436279297)" stroke="none"><path fill="#1e1e1e" d="M -0.54,-0.36 Q -0.54,-0.36 -0.30,-0.91 -0.06,-1.46 0.53,-1.66 1.12,-1.87 1.86,-1.75 2.61,-1.63 3.47,-0.84 4.34,-0.04 5.17,1.17 6.00,2.38 6.62,3.55 7.23,4.71 7.65,5.89 8.07,7.07 8.39,8.35 8.71,9.62 8.74,10.79 8.76,11.96 8.64,12.87 8.52,13.79 8.17,14.68 7.83,15.57 7.34,16.19 6.85,16.81 6.19,16.15 5.53,15.48 6.51,15.24 7.49,15.00 8.44,14.47 9.39,13.93 10.46,12.91 11.54,11.88 12.54,10.92 13.53,9.97 14.08,8.85 14.63,7.74 14.99,6.46 15.35,5.17 15.37,3.87 15.39,2.57 15.18,1.47 14.96,0.37 14.51,-0.98 14.05,-2.33 13.95,-2.37 13.85,-2.41 13.77,-2.47 13.69,-2.54 13.63,-2.63 13.57,-2.72 13.55,-2.82 13.52,-2.93 13.53,-3.03 13.54,-3.14 13.58,-3.23 13.63,-3.33 13.70,-3.41 13.77,-3.49 13.86,-3.54 13.95,-3.59 14.06,-3.61 14.16,-3.63 14.27,-3.62 14.37,-3.60 14.47,-3.55 14.56,-3.51 14.64,-3.43 14.71,-3.36 14.76,-3.26 14.81,-3.17 14.82,-3.06 14.83,-2.95 14.81,-2.85 14.79,-2.75 14.74,-2.65 14.69,-2.56 14.61,-2.49 14.53,-2.42 14.43,-2.38 14.33,-2.34 14.23,-2.33 14.12,-2.32 14.02,-2.35 13.92,-2.37 13.83,-2.43 13.74,-2.49 13.67,-2.57 13.60,-2.66 13.57,-2.75 13.53,-2.85 13.53,-2.96 13.53,-3.07 13.56,-3.17 13.59,-3.27 13.65,-3.36 13.72,-3.44 13.80,-3.50 13.89,-3.57 13.99,-3.60 14.09,-3.63 14.20,-3.62 14.30,-3.62 14.30,-3.62 14.30,-3.62 16.06,-1.88 17.82,-0.14 18.06,1.25 18.30,2.66 18.22,4.31 18.14,5.96 17.67,7.52 17.20,9.08 16.38,10.55 15.57,12.01 14.53,13.01 13.50,14.01 12.14,15.23 10.78,16.46 9.52,17.12 8.26,17.78 7.17,18.02 6.08,18.27 5.47,18.12 4.86,17.97 4.44,16.87 4.02,15.77 4.62,15.09 5.21,14.41 5.47,13.87 5.74,13.33 5.87,12.63 6.00,11.94 6.04,11.08 6.08,10.21 5.83,9.06 5.59,7.90 5.27,6.88 4.96,5.87 4.44,4.80 3.92,3.73 3.24,2.63 2.56,1.53 1.81,0.75 1.06,-0.03 0.80,0.16 0.54,0.36 0.49,0.42 0.44,0.48 0.37,0.53 0.31,0.57 0.24,0.60 0.16,0.63 0.08,0.64 0.01,0.65 -0.06,0.64 -0.14,0.64 -0.22,0.61 -0.29,0.58 -0.36,0.54 -0.42,0.49 -0.48,0.44 -0.53,0.38 -0.57,0.31 -0.61,0.24 -0.63,0.16 -0.65,0.08 -0.65,0.01 -0.65,-0.06 -0.63,-0.14 -0.61,-0.22 -0.58,-0.29 -0.54,-0.36 -0.54,-0.36 L -0.54,-0.36 Z"/></g><g transform="translate(609.8263549804688 199.2232141494751) rotate(0 -3.4722137451171875 11.067695617675781)" stroke="none"><path fill="#1e1e1e" d="M 0.49,0.43 Q 0.49,0.43 -0.31,1.72 -1.11,3.01 -2.07,4.99 -3.03,6.97 -3.82,8.94 -4.62,10.92 -4.93,12.77 -5.24,14.63 -5.18,16.20 -5.12,17.78 -4.59,19.62 -4.07,21.47 -4.04,21.57 -4.02,21.68 -4.03,21.78 -4.04,21.89 -4.09,21.99 -4.13,22.08 -4.20,22.16 -4.28,22.24 -4.37,22.29 -4.47,22.34 -4.57,22.35 -4.67,22.37 -4.78,22.35 -4.88,22.34 -4.98,22.29 -5.07,22.24 -5.15,22.16 -5.22,22.08 -5.26,21.99 -5.31,21.89 -5.32,21.79 -5.33,21.68 -5.31,21.58 -5.29,21.47 -5.23,21.38 -5.18,21.29 -5.10,21.22 -5.02,21.15 -4.92,21.11 -4.82,21.07 -4.71,21.07 -4.61,21.06 -4.50,21.09 -4.40,21.12 -4.31,21.18 -4.23,21.24 -4.16,21.32 -4.10,21.41 -4.06,21.51 -4.03,21.61 -4.03,21.71 -4.03,21.82 -4.06,21.92 -4.10,22.02 -4.16,22.11 -4.22,22.19 -4.31,22.25 -4.40,22.31 -4.50,22.34 -4.60,22.37 -4.71,22.36 -4.82,22.36 -4.91,22.32 -5.01,22.28 -5.09,22.21 -5.18,22.14 -5.23,22.05 -5.29,21.96 -5.29,21.96 -5.29,21.96 -6.30,19.95 -7.32,17.94 -7.46,16.09 -7.61,14.23 -7.22,12.13 -6.84,10.03 -5.99,7.97 -5.15,5.91 -4.01,3.69 -2.87,1.48 -1.68,0.52 -0.49,-0.43 -0.43,-0.48 -0.37,-0.54 -0.30,-0.57 -0.23,-0.61 -0.15,-0.63 -0.07,-0.65 0.00,-0.65 0.08,-0.65 0.15,-0.63 0.23,-0.61 0.30,-0.57 0.37,-0.53 0.43,-0.48 0.49,-0.43 0.53,-0.36 0.58,-0.30 0.60,-0.23 0.63,-0.15 0.64,-0.07 0.65,0.00 0.64,0.07 0.63,0.15 0.60,0.23 0.58,0.30 0.53,0.37 0.49,0.43 0.49,0.43 L 0.49,0.43 Z"/></g><g transform="translate(619.375 224.8308572769165) rotate(0 -1.0850906372070312 -8.463554382324219)" stroke="none"><path fill="#1e1e1e" d="M -0.20,0.62 Q -0.20,0.62 -1.01,0.50 -1.82,0.38 -2.82,-0.42 -3.83,-1.23 -4.57,-2.83 -5.30,-4.43 -5.48,-6.33 -5.65,-8.23 -5.07,-10.28 -4.49,-12.33 -3.70,-13.74 -2.91,-15.14 -2.04,-15.97 -1.17,-16.80 0.13,-16.91 1.44,-17.02 2.30,-16.29 3.16,-15.56 3.26,-14.43 3.36,-13.31 2.92,-12.12 2.48,-10.93 -0.20,-10.31 -2.88,-9.69 -2.98,-9.73 -3.07,-9.78 -3.15,-9.85 -3.23,-9.92 -3.28,-10.02 -3.33,-10.11 -3.34,-10.22 -3.36,-10.32 -3.34,-10.43 -3.32,-10.53 -3.27,-10.63 -3.22,-10.72 -3.14,-10.79 -3.06,-10.86 -2.97,-10.91 -2.87,-10.95 -2.77,-10.96 -2.66,-10.97 -2.56,-10.95 -2.45,-10.92 -2.36,-10.87 -2.27,-10.81 -2.20,-10.73 -2.14,-10.65 -2.10,-10.55 -2.06,-10.45 -2.05,-10.35 -2.05,-10.24 -2.08,-10.14 -2.11,-10.03 -2.17,-9.95 -2.23,-9.86 -2.31,-9.80 -2.40,-9.73 -2.50,-9.70 -2.60,-9.67 -2.71,-9.67 -2.81,-9.67 -2.91,-9.70 -3.01,-9.74 -3.10,-9.80 -3.18,-9.87 -3.24,-9.96 -3.30,-10.05 -3.33,-10.15 -3.35,-10.25 -3.35,-10.36 -3.34,-10.46 -3.30,-10.56 -3.26,-10.66 -3.19,-10.74 -3.12,-10.82 -3.03,-10.87 -2.94,-10.93 -2.83,-10.95 -2.73,-10.97 -2.62,-10.96 -2.52,-10.95 -2.52,-10.95 -2.52,-10.95 -1.06,-11.43 0.39,-11.91 0.73,-12.68 1.06,-13.44 1.22,-13.97 1.38,-14.51 0.69,-14.78 0.00,-15.05 -0.50,-14.54 -1.01,-14.02 -1.70,-12.85 -2.39,-11.68 -2.95,-10.01 -3.50,-8.34 -3.42,-6.77 -3.34,-5.21 -2.88,-3.94 -2.42,-2.68 -1.80,-2.03 -1.17,-1.38 -0.48,-1.00 0.20,-0.62 0.27,-0.58 0.35,-0.55 0.41,-0.50 0.47,-0.45 0.52,-0.39 0.56,-0.32 0.59,-0.25 0.63,-0.18 0.64,-0.10 0.65,-0.02 0.64,0.05 0.64,0.13 0.61,0.20 0.59,0.28 0.55,0.34 0.50,0.41 0.45,0.46 0.39,0.52 0.32,0.56 0.25,0.60 0.18,0.62 0.10,0.64 0.02,0.65 -0.05,0.65 -0.13,0.63 -0.20,0.62 -0.20,0.62 L -0.20,0.62 Z"/></g><g transform="translate(627.1875 198.35514163970947) rotate(0 1.302032470703125 12.36978530883789)" stroke="none"><path fill="#1e1e1e" d="M 0.51,-0.40 Q 0.51,-0.40 1.58,0.58 2.64,1.56 3.49,3.67 4.34,5.77 4.84,8.08 5.34,10.38 5.20,13.11 5.05,15.85 4.17,18.35 3.29,20.85 1.01,23.05 -1.27,25.25 -1.36,25.31 -1.45,25.36 -1.55,25.39 -1.65,25.41 -1.76,25.40 -1.86,25.39 -1.96,25.35 -2.06,25.31 -2.14,25.24 -2.22,25.17 -2.27,25.07 -2.32,24.98 -2.34,24.88 -2.36,24.77 -2.34,24.67 -2.33,24.56 -2.28,24.47 -2.23,24.37 -2.16,24.30 -2.08,24.22 -1.99,24.18 -1.89,24.13 -1.79,24.12 -1.68,24.10 -1.58,24.12 -1.47,24.14 -1.38,24.20 -1.29,24.25 -1.22,24.33 -1.15,24.41 -1.11,24.51 -1.06,24.60 -1.06,24.71 -1.05,24.82 -1.07,24.92 -1.10,25.02 -1.16,25.11 -1.22,25.20 -1.30,25.27 -1.38,25.33 -1.48,25.37 -1.58,25.40 -1.69,25.41 -1.80,25.41 -1.90,25.38 -2.00,25.34 -2.08,25.28 -2.17,25.22 -2.23,25.13 -2.29,25.05 -2.32,24.94 -2.35,24.84 -2.35,24.74 -2.35,24.63 -2.31,24.53 -2.27,24.43 -2.21,24.35 -2.14,24.27 -2.14,24.27 -2.14,24.27 -0.62,22.12 0.88,19.97 1.66,17.80 2.44,15.63 2.66,13.24 2.89,10.85 2.51,8.73 2.12,6.61 1.48,4.76 0.85,2.92 0.16,1.66 -0.51,0.40 -0.55,0.33 -0.59,0.26 -0.62,0.19 -0.64,0.11 -0.65,0.03 -0.65,-0.04 -0.64,-0.11 -0.62,-0.19 -0.59,-0.26 -0.56,-0.34 -0.51,-0.40 -0.46,-0.46 -0.40,-0.51 -0.33,-0.56 -0.26,-0.59 -0.19,-0.62 -0.11,-0.64 -0.03,-0.65 0.04,-0.65 0.12,-0.64 0.19,-0.62 0.27,-0.59 0.33,-0.55 0.40,-0.51 0.46,-0.45 0.51,-0.40 0.51,-0.40 L 0.51,-0.40 Z"/></g><g transform="translate(609.3923187255859 58.5982141494751) rotate(0 0.21701812744140625 3.2552051544189453)" stroke="none"><path fill="#1e1e1e" d="M 0.65,-0.07 Q 0.65,-0.07 1.05,1.01 1.46,2.11 1.52,2.99 1.58,3.87 1.33,5.46 1.08,7.05 1.06,7.16 1.05,7.26 1.00,7.36 0.95,7.45 0.88,7.53 0.80,7.60 0.71,7.65 0.61,7.69 0.51,7.71 0.40,7.72 0.30,7.70 0.19,7.68 0.10,7.63 0.01,7.57 -0.05,7.49 -0.12,7.41 -0.16,7.32 -0.21,7.22 -0.21,7.11 -0.22,7.01 -0.19,6.90 -0.17,6.80 -0.11,6.71 -0.05,6.62 0.02,6.56 0.10,6.49 0.20,6.46 0.30,6.42 0.41,6.42 0.52,6.42 0.62,6.45 0.72,6.48 0.81,6.54 0.89,6.60 0.95,6.69 1.01,6.78 1.04,6.88 1.07,6.98 1.07,7.09 1.07,7.19 1.03,7.29 0.99,7.39 0.92,7.48 0.86,7.56 0.77,7.61 0.68,7.67 0.57,7.70 0.47,7.72 0.37,7.71 0.26,7.70 0.16,7.66 0.07,7.62 -0.00,7.54 -0.08,7.47 -0.13,7.38 -0.19,7.29 -0.20,7.18 -0.22,7.08 -0.22,7.08 -0.22,7.08 -0.55,5.55 -0.87,4.02 -0.91,3.20 -0.96,2.38 -0.80,1.22 -0.65,0.07 -0.65,-0.00 -0.65,-0.08 -0.63,-0.16 -0.61,-0.23 -0.57,-0.30 -0.53,-0.37 -0.48,-0.43 -0.43,-0.49 -0.36,-0.54 -0.29,-0.58 -0.22,-0.61 -0.15,-0.63 -0.07,-0.64 0.00,-0.65 0.08,-0.64 0.16,-0.63 0.23,-0.60 0.31,-0.57 0.37,-0.53 0.44,-0.48 0.49,-0.42 0.54,-0.36 0.58,-0.29 0.61,-0.22 0.63,-0.14 0.65,-0.07 0.65,-0.07 L 0.65,-0.07 Z"/></g><g transform="translate(607.65625 57.29612445831299) rotate(0 5.859375 4.774303436279297)" stroke="none"><path fill="#1e1e1e" d="M 0.29,-0.58 Q 0.29,-0.58 0.88,-0.52 1.48,-0.46 2.04,-0.06 2.60,0.33 3.26,1.04 3.92,1.74 4.35,2.07 4.78,2.40 5.66,1.74 6.54,1.08 7.03,0.64 7.52,0.20 7.89,-0.37 8.26,-0.96 8.62,-1.48 8.97,-2.00 9.06,-2.13 9.14,-2.26 9.24,-2.36 9.35,-2.47 9.48,-2.54 9.61,-2.62 9.76,-2.66 9.90,-2.70 10.05,-2.71 10.20,-2.71 10.35,-2.68 10.50,-2.65 10.63,-2.59 10.77,-2.52 10.89,-2.42 11.00,-2.33 11.09,-2.21 11.18,-2.09 11.24,-1.95 11.30,-1.81 11.32,-1.66 11.35,-1.51 11.34,-1.36 11.32,-1.21 11.28,-1.07 11.23,-0.93 11.30,-0.25 11.38,0.42 11.35,1.17 11.32,1.92 11.30,3.11 11.29,4.30 11.40,5.36 11.52,6.42 11.85,8.57 12.17,10.72 12.20,10.82 12.23,10.93 12.23,11.03 12.23,11.14 12.19,11.24 12.15,11.34 12.08,11.42 12.01,11.50 11.92,11.56 11.83,11.61 11.73,11.64 11.63,11.66 11.52,11.65 11.41,11.64 11.32,11.60 11.22,11.55 11.14,11.48 11.06,11.41 11.01,11.31 10.96,11.22 10.94,11.12 10.93,11.01 10.94,10.91 10.96,10.80 11.01,10.71 11.05,10.61 11.13,10.54 11.21,10.46 11.30,10.42 11.40,10.37 11.50,10.36 11.61,10.35 11.71,10.37 11.82,10.39 11.91,10.44 12.00,10.50 12.07,10.58 12.14,10.66 12.18,10.76 12.22,10.86 12.23,10.96 12.24,11.07 12.21,11.17 12.18,11.27 12.12,11.36 12.06,11.45 11.98,11.52 11.90,11.58 11.80,11.62 11.70,11.65 11.59,11.65 11.48,11.65 11.38,11.62 11.28,11.59 11.20,11.52 11.11,11.46 11.05,11.37 10.99,11.29 10.99,11.29 10.99,11.29 9.97,8.99 8.96,6.69 8.83,5.48 8.71,4.26 8.73,3.03 8.75,1.80 8.93,0.56 9.12,-0.66 9.05,-1.33 8.97,-2.00 9.06,-2.13 9.14,-2.26 9.24,-2.36 9.35,-2.47 9.48,-2.54 9.61,-2.62 9.76,-2.66 9.90,-2.70 10.05,-2.71 10.20,-2.71 10.35,-2.68 10.50,-2.65 10.63,-2.59 10.77,-2.52 10.89,-2.42 11.00,-2.33 11.09,-2.21 11.18,-2.09 11.24,-1.95 11.30,-1.81 11.32,-1.66 11.35,-1.51 11.34,-1.36 11.32,-1.21 11.28,-1.07 11.23,-0.93 11.00,-0.73 10.77,-0.54 10.54,-0.06 10.30,0.41 9.73,1.22 9.15,2.03 8.59,2.51 8.03,3.00 7.27,3.57 6.51,4.14 5.55,4.43 4.58,4.71 3.94,4.47 3.31,4.22 2.75,3.74 2.19,3.27 1.35,2.36 0.51,1.46 0.10,1.02 -0.29,0.58 -0.35,0.54 -0.42,0.49 -0.47,0.44 -0.53,0.38 -0.57,0.31 -0.60,0.24 -0.62,0.16 -0.65,0.09 -0.65,0.01 -0.65,-0.06 -0.63,-0.14 -0.61,-0.22 -0.58,-0.29 -0.54,-0.36 -0.49,-0.42 -0.44,-0.48 -0.38,-0.52 -0.31,-0.57 -0.24,-0.60 -0.16,-0.63 -0.09,-0.64 -0.01,-0.65 0.06,-0.64 0.14,-0.64 0.21,-0.61 0.29,-0.58 0.29,-0.58 L 0.29,-0.58 Z"/></g><g transform="translate(623.7152862548828 57.29612445831299) rotate(0 1.9530868530273438 4.557294845581055)" stroke="none"><path fill="#1e1e1e" d="M 0.56,0.33 Q 0.56,0.33 0.34,1.05 0.12,1.77 -0.10,2.36 -0.34,2.95 -0.40,3.48 -0.47,4.02 -0.50,4.61 -0.53,5.20 -0.53,5.82 -0.54,6.44 -0.20,7.10 0.13,7.76 0.87,7.87 1.61,7.98 2.13,7.64 2.65,7.30 3.80,6.31 4.95,5.32 4.98,5.22 5.02,5.12 5.09,5.04 5.15,4.95 5.24,4.90 5.33,4.84 5.43,4.81 5.53,4.78 5.64,4.79 5.75,4.80 5.84,4.84 5.94,4.88 6.02,4.95 6.10,5.02 6.16,5.11 6.21,5.20 6.23,5.30 6.25,5.41 6.24,5.51 6.23,5.62 6.18,5.72 6.13,5.81 6.06,5.89 5.99,5.96 5.89,6.01 5.80,6.06 5.69,6.08 5.59,6.09 5.48,6.07 5.38,6.06 5.29,6.00 5.19,5.95 5.12,5.88 5.05,5.80 5.00,5.70 4.96,5.60 4.95,5.50 4.94,5.39 4.97,5.29 4.99,5.19 5.05,5.09 5.10,5.00 5.18,4.94 5.26,4.87 5.36,4.83 5.46,4.79 5.57,4.79 5.68,4.78 5.78,4.81 5.88,4.84 5.97,4.90 6.05,4.97 6.12,5.05 6.18,5.14 6.21,5.24 6.25,5.34 6.24,5.44 6.24,5.55 6.24,5.55 6.24,5.55 5.05,7.53 3.86,9.51 2.92,9.97 1.97,10.44 1.16,10.48 0.35,10.52 -0.26,10.26 -0.89,10.00 -1.38,9.53 -1.88,9.06 -2.24,8.40 -2.61,7.74 -2.73,7.06 -2.86,6.38 -2.82,5.70 -2.78,5.02 -2.71,4.32 -2.64,3.61 -2.46,2.85 -2.29,2.10 -1.95,1.41 -1.62,0.72 -1.09,0.19 -0.56,-0.33 -0.51,-0.40 -0.46,-0.46 -0.40,-0.51 -0.34,-0.56 -0.26,-0.59 -0.19,-0.62 -0.11,-0.64 -0.04,-0.65 0.03,-0.65 0.11,-0.64 0.19,-0.62 0.26,-0.59 0.33,-0.55 0.40,-0.51 0.45,-0.46 0.51,-0.40 0.55,-0.33 0.59,-0.27 0.62,-0.19 0.64,-0.12 0.65,-0.04 0.65,0.03 0.64,0.11 0.62,0.19 0.59,0.26 0.56,0.33 0.56,0.33 L 0.56,0.33 Z"/></g><g transform="translate(624.1492462158203 61.20237445831299) rotate(0 1.5191268920898438 -0.43402671813964844)" stroke="none"><path fill="#1e1e1e" d="M -0.20,-0.62 Q -0.20,-0.62 1.12,-1.18 2.45,-1.73 2.55,-1.77 2.65,-1.80 2.76,-1.80 2.87,-1.80 2.97,-1.76 3.07,-1.73 3.15,-1.67 3.23,-1.60 3.29,-1.51 3.35,-1.42 3.38,-1.32 3.41,-1.22 3.40,-1.11 3.40,-1.01 3.36,-0.91 3.32,-0.81 3.25,-0.73 3.18,-0.65 3.09,-0.59 2.99,-0.54 2.89,-0.52 2.79,-0.50 2.68,-0.51 2.57,-0.52 2.48,-0.57 2.38,-0.61 2.31,-0.68 2.23,-0.76 2.18,-0.85 2.13,-0.95 2.11,-1.05 2.10,-1.16 2.12,-1.26 2.13,-1.37 2.18,-1.46 2.24,-1.55 2.31,-1.63 2.39,-1.70 2.49,-1.74 2.58,-1.79 2.69,-1.80 2.80,-1.81 2.90,-1.78 3.00,-1.76 3.09,-1.70 3.18,-1.65 3.25,-1.57 3.32,-1.49 3.36,-1.39 3.40,-1.29 3.40,-1.18 3.41,-1.08 3.38,-0.97 3.35,-0.87 3.29,-0.78 3.23,-0.70 3.14,-0.63 3.06,-0.57 3.06,-0.57 3.06,-0.57 1.63,0.02 0.20,0.62 0.13,0.63 0.05,0.65 -0.02,0.65 -0.10,0.64 -0.18,0.62 -0.25,0.60 -0.32,0.56 -0.39,0.52 -0.45,0.46 -0.50,0.41 -0.55,0.34 -0.59,0.28 -0.61,0.20 -0.64,0.13 -0.64,0.05 -0.65,-0.02 -0.64,-0.10 -0.63,-0.18 -0.59,-0.25 -0.56,-0.32 -0.52,-0.39 -0.47,-0.45 -0.41,-0.50 -0.35,-0.55 -0.27,-0.58 -0.20,-0.62 -0.20,-0.62 L -0.20,-0.62 Z"/></g><g transform="translate(624.5832824707031 55.12598133087158) rotate(0 2.1701431274414062 -0.6510353088378906)" stroke="none"><path fill="#1e1e1e" d="M -0.33,-0.56 Q -0.33,-0.56 0.15,-1.17 0.64,-1.78 2.49,-1.85 4.33,-1.91 4.44,-1.90 4.54,-1.90 4.64,-1.86 4.74,-1.82 4.82,-1.75 4.91,-1.68 4.96,-1.59 5.02,-1.50 5.04,-1.40 5.06,-1.30 5.05,-1.19 5.04,-1.08 5.00,-0.99 4.96,-0.89 4.88,-0.81 4.81,-0.74 4.72,-0.68 4.62,-0.63 4.52,-0.62 4.41,-0.60 4.31,-0.61 4.20,-0.63 4.11,-0.68 4.02,-0.73 3.94,-0.80 3.87,-0.88 3.82,-0.98 3.78,-1.07 3.76,-1.18 3.75,-1.28 3.77,-1.39 3.80,-1.49 3.85,-1.58 3.90,-1.68 3.98,-1.74 4.07,-1.81 4.16,-1.85 4.26,-1.89 4.37,-1.90 4.47,-1.91 4.58,-1.88 4.68,-1.85 4.77,-1.79 4.86,-1.74 4.92,-1.65 4.99,-1.57 5.02,-1.47 5.06,-1.37 5.06,-1.26 5.06,-1.15 5.02,-1.05 4.99,-0.95 4.93,-0.87 4.86,-0.78 4.78,-0.72 4.69,-0.66 4.59,-0.63 4.49,-0.60 4.49,-0.60 4.49,-0.60 3.16,-0.15 1.84,0.29 1.09,0.42 0.33,0.56 0.26,0.59 0.19,0.62 0.11,0.64 0.03,0.65 -0.04,0.65 -0.12,0.64 -0.19,0.62 -0.27,0.59 -0.33,0.55 -0.40,0.51 -0.46,0.45 -0.51,0.40 -0.55,0.33 -0.59,0.26 -0.62,0.19 -0.64,0.11 -0.65,0.03 -0.65,-0.04 -0.64,-0.11 -0.62,-0.19 -0.59,-0.26 -0.56,-0.34 -0.51,-0.40 -0.46,-0.46 -0.40,-0.51 -0.33,-0.56 -0.33,-0.56 L -0.33,-0.56 Z"/></g><g transform="translate(591.5972137451172 61.20237445831299) rotate(0 0.8680343627929688 0)" stroke="none"><path fill="#1e1e1e" d="M 0.99,-0.65 Q 0.99,-0.65 1.10,-0.63 1.20,-0.62 1.30,-0.57 1.39,-0.52 1.46,-0.44 1.54,-0.36 1.58,-0.27 1.63,-0.17 1.64,-0.07 1.65,0.03 1.63,0.13 1.60,0.24 1.55,0.33 1.49,0.42 1.41,0.49 1.33,0.56 1.23,0.60 1.13,0.64 1.03,0.64 0.92,0.65 0.82,0.62 0.72,0.59 0.63,0.53 0.54,0.47 0.48,0.39 0.41,0.30 0.38,0.20 0.35,0.10 0.35,-0.00 0.35,-0.10 0.38,-0.20 0.41,-0.30 0.48,-0.39 0.54,-0.47 0.63,-0.53 0.72,-0.59 0.82,-0.62 0.92,-0.65 1.03,-0.64 1.13,-0.64 1.23,-0.60 1.33,-0.56 1.41,-0.49 1.49,-0.42 1.55,-0.33 1.60,-0.24 1.63,-0.13 1.65,-0.03 1.64,0.07 1.63,0.17 1.58,0.27 1.54,0.36 1.46,0.44 1.39,0.52 1.30,0.57 1.20,0.62 1.10,0.63 0.99,0.65 0.99,0.65 0.99,0.65 0.90,0.76 0.81,0.87 0.69,0.96 0.57,1.04 0.44,1.09 0.31,1.15 0.16,1.17 0.02,1.19 -0.11,1.18 -0.26,1.16 -0.39,1.11 -0.53,1.07 -0.65,0.99 -0.77,0.91 -0.87,0.80 -0.96,0.70 -1.03,0.57 -1.10,0.44 -1.14,0.30 -1.18,0.17 -1.18,0.02 -1.18,-0.11 -1.15,-0.25 -1.12,-0.39 -1.06,-0.52 -0.99,-0.65 0.00,-0.65 L 0.99,-0.65 Z"/></g><g transform="translate(598.5416412353516 62.5044641494751) rotate(0 0.6510543823242188 -0.43402671813964844)" stroke="none"><path fill="#1e1e1e" d="M 0.38,-1.04 Q 0.38,-1.04 0.48,-1.08 0.57,-1.13 0.68,-1.14 0.78,-1.15 0.89,-1.13 0.99,-1.10 1.08,-1.05 1.17,-0.99 1.24,-0.91 1.31,-0.83 1.35,-0.73 1.39,-0.63 1.39,-0.52 1.40,-0.42 1.37,-0.32 1.34,-0.21 1.28,-0.13 1.22,-0.04 1.13,0.01 1.05,0.08 0.95,0.11 0.84,0.14 0.74,0.14 0.63,0.14 0.53,0.11 0.43,0.07 0.35,0.01 0.26,-0.05 0.20,-0.13 0.15,-0.22 0.12,-0.33 0.09,-0.43 0.10,-0.53 0.10,-0.64 0.14,-0.74 0.18,-0.84 0.25,-0.92 0.32,-1.00 0.41,-1.05 0.51,-1.11 0.61,-1.13 0.71,-1.15 0.82,-1.14 0.92,-1.13 1.02,-1.08 1.12,-1.03 1.19,-0.96 1.27,-0.89 1.32,-0.79 1.37,-0.70 1.38,-0.59 1.40,-0.49 1.38,-0.38 1.36,-0.28 1.31,-0.19 1.26,-0.09 1.19,-0.02 1.11,0.04 1.11,0.04 1.11,0.04 1.09,0.17 1.06,0.31 1.01,0.43 0.96,0.55 0.88,0.66 0.80,0.77 0.69,0.85 0.59,0.94 0.47,1.00 0.35,1.05 0.21,1.08 0.08,1.11 -0.04,1.10 -0.18,1.09 -0.31,1.06 -0.43,1.02 -0.55,0.95 -0.67,0.88 -0.76,0.79 -0.86,0.70 -0.93,0.58 -1.00,0.47 -1.04,0.34 -1.09,0.22 -1.10,0.08 -1.11,-0.04 -0.36,-0.54 L 0.38,-1.04 Z"/></g><g transform="translate(631.5277862548828 66.4107141494751) rotate(0 3.2551956176757812 -6.510419845581055)" stroke="none"><path fill="#1e1e1e" d="M -0.64,-0.14 Q -0.64,-0.14 -0.63,-1.32 -0.63,-2.49 -0.17,-4.26 0.28,-6.02 0.73,-7.52 1.18,-9.02 1.48,-10.14 1.78,-11.26 2.07,-11.94 2.35,-12.62 2.46,-13.01 2.57,-13.39 2.64,-13.52 2.72,-13.65 2.83,-13.77 2.93,-13.88 3.06,-13.96 3.20,-14.04 3.34,-14.09 3.49,-14.14 3.64,-14.15 3.79,-14.16 3.94,-14.13 4.10,-14.11 4.24,-14.05 4.38,-13.99 4.50,-13.89 4.62,-13.80 4.72,-13.68 4.82,-13.56 4.88,-13.42 4.95,-13.29 4.98,-13.13 5.01,-12.98 5.00,-12.83 5.00,-12.68 4.95,-12.53 4.91,-12.38 5.48,-11.92 6.05,-11.46 6.30,-10.06 6.56,-8.66 6.79,-7.08 7.02,-5.51 6.89,-2.64 6.76,0.22 6.73,0.32 6.70,0.42 6.64,0.51 6.58,0.59 6.49,0.66 6.41,0.72 6.31,0.75 6.21,0.79 6.10,0.79 5.99,0.79 5.89,0.75 5.79,0.72 5.71,0.65 5.62,0.59 5.57,0.50 5.51,0.41 5.48,0.31 5.45,0.20 5.46,0.10 5.47,-0.00 5.51,-0.10 5.55,-0.20 5.62,-0.28 5.69,-0.36 5.78,-0.41 5.87,-0.46 5.97,-0.49 6.08,-0.51 6.18,-0.50 6.29,-0.48 6.38,-0.44 6.48,-0.39 6.56,-0.32 6.63,-0.24 6.68,-0.15 6.73,-0.06 6.75,0.04 6.76,0.14 6.74,0.25 6.73,0.35 6.68,0.45 6.62,0.54 6.55,0.61 6.47,0.69 6.37,0.73 6.28,0.77 6.17,0.78 6.06,0.79 5.96,0.77 5.86,0.75 5.77,0.69 5.68,0.63 5.61,0.55 5.54,0.47 5.50,0.37 5.46,0.27 5.46,0.17 5.45,0.06 5.45,0.06 5.45,0.06 4.96,-2.54 4.47,-5.14 4.25,-6.67 4.03,-8.20 3.76,-9.87 3.50,-11.53 3.03,-12.46 2.57,-13.39 2.64,-13.52 2.72,-13.65 2.83,-13.76 2.93,-13.88 3.06,-13.96 3.19,-14.04 3.34,-14.09 3.49,-14.14 3.64,-14.15 3.79,-14.16 3.94,-14.13 4.10,-14.11 4.24,-14.05 4.38,-13.99 4.50,-13.89 4.62,-13.80 4.72,-13.68 4.82,-13.56 4.88,-13.42 4.95,-13.29 4.98,-13.13 5.01,-12.98 5.00,-12.83 5.00,-12.68 4.95,-12.53 4.91,-12.38 4.80,-12.00 4.68,-11.62 4.45,-11.10 4.21,-10.57 3.88,-9.43 3.55,-8.29 3.09,-6.83 2.62,-5.37 2.13,-3.68 1.63,-1.99 1.13,-0.92 0.64,0.14 0.61,0.21 0.58,0.29 0.54,0.35 0.50,0.42 0.44,0.47 0.38,0.53 0.31,0.57 0.24,0.60 0.17,0.62 0.09,0.64 0.01,0.65 -0.06,0.65 -0.14,0.63 -0.21,0.61 -0.28,0.58 -0.36,0.54 -0.42,0.49 -0.48,0.44 -0.52,0.38 -0.57,0.31 -0.60,0.24 -0.63,0.17 -0.64,0.09 -0.65,0.01 -0.64,-0.06 -0.64,-0.14 -0.64,-0.14 L -0.64,-0.14 Z"/></g><g transform="translate(634.1319274902344 61.6364107131958) rotate(0 2.8211593627929688 -0.21701812744140625)" stroke="none"><path fill="#1e1e1e" d="M -0.08,-0.65 Q -0.08,-0.65 0.89,-0.93 1.87,-1.22 3.58,-1.15 5.28,-1.07 5.39,-1.06 5.49,-1.05 5.59,-1.00 5.69,-0.95 5.76,-0.88 5.84,-0.81 5.89,-0.71 5.94,-0.62 5.95,-0.51 5.97,-0.41 5.95,-0.30 5.93,-0.20 5.88,-0.11 5.83,-0.01 5.75,0.05 5.68,0.12 5.58,0.17 5.48,0.21 5.38,0.22 5.27,0.23 5.17,0.21 5.06,0.18 4.97,0.13 4.88,0.07 4.81,-0.00 4.75,-0.08 4.71,-0.18 4.67,-0.28 4.66,-0.39 4.66,-0.49 4.69,-0.59 4.72,-0.70 4.78,-0.78 4.84,-0.87 4.93,-0.93 5.01,-1.00 5.11,-1.03 5.21,-1.06 5.32,-1.06 5.43,-1.06 5.53,-1.03 5.63,-0.99 5.71,-0.93 5.79,-0.86 5.85,-0.77 5.91,-0.68 5.94,-0.58 5.97,-0.48 5.96,-0.37 5.95,-0.27 5.91,-0.17 5.87,-0.07 5.80,0.00 5.73,0.08 5.64,0.13 5.55,0.19 5.44,0.21 5.34,0.23 5.34,0.23 5.34,0.23 3.73,0.48 2.11,0.72 1.09,0.68 0.08,0.65 0.00,0.65 -0.07,0.65 -0.15,0.63 -0.23,0.61 -0.30,0.57 -0.37,0.54 -0.43,0.48 -0.48,0.43 -0.53,0.37 -0.58,0.30 -0.60,0.23 -0.63,0.15 -0.64,0.08 -0.65,0.00 -0.64,-0.07 -0.63,-0.15 -0.61,-0.22 -0.58,-0.30 -0.53,-0.36 -0.49,-0.43 -0.43,-0.48 -0.37,-0.53 -0.30,-0.57 -0.23,-0.61 -0.15,-0.63 -0.08,-0.65 -0.08,-0.65 L -0.08,-0.65 Z"/></g><g transform="translate(646.71875 55.99403476715088) rotate(0 -2.6041793823242188 4.3402862548828125)" stroke="none"><path fill="#1e1e1e" d="M -0.39,0.52 Q -0.39,0.52 -0.98,0.27 -1.56,0.01 -2.01,0.45 -2.47,0.89 -2.45,1.66 -2.43,2.43 -1.78,3.23 -1.12,4.02 -0.67,4.49 -0.22,4.96 0.14,5.38 0.52,5.80 0.68,6.78 0.84,7.76 0.51,8.61 0.17,9.45 -2.31,10.02 -4.80,10.59 -4.91,10.59 -5.01,10.58 -5.11,10.54 -5.21,10.51 -5.29,10.44 -5.37,10.37 -5.43,10.28 -5.49,10.19 -5.51,10.09 -5.53,9.98 -5.52,9.88 -5.51,9.77 -5.47,9.67 -5.43,9.58 -5.35,9.50 -5.28,9.42 -5.19,9.37 -5.10,9.32 -4.99,9.30 -4.89,9.28 -4.78,9.30 -4.68,9.31 -4.58,9.36 -4.49,9.41 -4.41,9.49 -4.34,9.56 -4.29,9.66 -4.25,9.76 -4.23,9.86 -4.22,9.97 -4.24,10.07 -4.27,10.17 -4.32,10.27 -4.37,10.36 -4.45,10.43 -4.53,10.50 -4.63,10.54 -4.73,10.58 -4.84,10.58 -4.94,10.59 -5.04,10.56 -5.15,10.54 -5.24,10.48 -5.32,10.42 -5.39,10.34 -5.45,10.25 -5.49,10.15 -5.52,10.05 -5.53,9.95 -5.53,9.84 -5.49,9.74 -5.46,9.64 -5.40,9.55 -5.34,9.47 -5.25,9.41 -5.16,9.35 -5.06,9.32 -4.96,9.29 -4.96,9.29 -4.96,9.29 -3.35,8.49 -1.74,7.69 -1.87,7.13 -1.99,6.57 -2.45,6.04 -2.92,5.51 -3.46,4.81 -4.01,4.12 -4.33,3.40 -4.65,2.68 -4.68,1.86 -4.70,1.03 -4.40,0.26 -4.11,-0.49 -3.51,-1.06 -2.92,-1.63 -2.23,-1.81 -1.54,-1.98 -0.98,-1.75 -0.42,-1.51 -0.01,-1.02 0.39,-0.52 0.45,-0.47 0.50,-0.41 0.55,-0.34 0.59,-0.28 0.61,-0.20 0.64,-0.13 0.64,-0.05 0.65,0.02 0.64,0.10 0.63,0.18 0.59,0.25 0.56,0.32 0.52,0.39 0.47,0.45 0.41,0.50 0.35,0.55 0.27,0.58 0.20,0.62 0.13,0.63 0.05,0.65 -0.02,0.65 -0.10,0.64 -0.18,0.62 -0.25,0.60 -0.32,0.56 -0.39,0.52 -0.39,0.52 L -0.39,0.52 Z"/></g><g transform="translate(651.0590362548828 55.12598133087158) rotate(0 2.6041412353515625 5.642366409301758)" stroke="none"><path fill="#1e1e1e" d="M 0.64,0.11 Q 0.64,0.11 0.56,1.52 0.49,2.92 0.41,4.32 0.34,5.73 0.43,6.90 0.52,8.06 0.79,8.83 1.05,9.60 1.84,9.43 2.63,9.26 3.04,8.68 3.45,8.10 3.85,7.17 4.25,6.24 4.41,5.31 4.56,4.38 4.82,2.19 5.07,-0.00 5.06,-0.10 5.05,-0.21 5.08,-0.31 5.10,-0.42 5.16,-0.51 5.21,-0.60 5.30,-0.66 5.38,-0.73 5.48,-0.77 5.58,-0.81 5.68,-0.81 5.79,-0.81 5.89,-0.78 5.99,-0.75 6.08,-0.69 6.17,-0.63 6.23,-0.54 6.29,-0.46 6.32,-0.36 6.36,-0.25 6.35,-0.15 6.35,-0.04 6.32,0.05 6.28,0.15 6.21,0.23 6.15,0.31 6.06,0.37 5.97,0.43 5.87,0.46 5.76,0.48 5.66,0.47 5.55,0.47 5.45,0.43 5.36,0.38 5.28,0.31 5.20,0.24 5.14,0.15 5.09,0.06 5.07,-0.04 5.05,-0.14 5.06,-0.24 5.08,-0.35 5.12,-0.45 5.17,-0.54 5.24,-0.62 5.32,-0.69 5.41,-0.74 5.51,-0.79 5.61,-0.80 5.72,-0.82 5.82,-0.80 5.93,-0.78 6.02,-0.73 6.11,-0.68 6.19,-0.60 6.26,-0.52 6.30,-0.42 6.34,-0.32 6.34,-0.32 6.34,-0.32 6.66,2.25 6.97,4.84 6.71,6.05 6.45,7.25 5.88,8.41 5.31,9.57 4.60,10.38 3.90,11.18 2.86,11.70 1.83,12.21 0.94,11.98 0.05,11.74 -0.48,11.02 -1.02,10.29 -1.32,9.25 -1.62,8.22 -1.69,6.90 -1.76,5.58 -1.62,4.07 -1.49,2.56 -1.06,1.22 -0.64,-0.11 -0.62,-0.19 -0.59,-0.26 -0.55,-0.33 -0.51,-0.40 -0.46,-0.46 -0.40,-0.51 -0.33,-0.55 -0.27,-0.59 -0.19,-0.62 -0.11,-0.64 -0.04,-0.65 0.03,-0.65 0.11,-0.64 0.19,-0.62 0.26,-0.59 0.33,-0.56 0.40,-0.51 0.46,-0.46 0.51,-0.40 0.56,-0.34 0.59,-0.26 0.62,-0.19 0.64,-0.11 0.65,-0.04 0.65,0.03 0.64,0.11 0.64,0.11 L 0.64,0.11 Z"/></g><g transform="translate(662.7777862548828 54.257927894592285) rotate(0 -0.21701812744140625 6.293401718139648)" stroke="none"><path fill="#1e1e1e" d="M 0.65,0 Q 0.65,0 0.84,0.99 1.04,1.99 1.07,3.29 1.09,4.59 0.99,6.18 0.89,7.78 0.56,9.96 0.23,12.14 0.21,12.24 0.19,12.34 0.14,12.44 0.09,12.53 0.01,12.60 -0.06,12.67 -0.16,12.71 -0.26,12.75 -0.36,12.76 -0.47,12.77 -0.57,12.74 -0.68,12.72 -0.77,12.66 -0.86,12.60 -0.92,12.52 -0.99,12.44 -1.02,12.34 -1.06,12.24 -1.06,12.13 -1.07,12.03 -1.03,11.92 -1.00,11.82 -0.94,11.74 -0.88,11.65 -0.79,11.59 -0.70,11.53 -0.60,11.50 -0.50,11.46 -0.40,11.47 -0.29,11.47 -0.19,11.51 -0.09,11.55 -0.01,11.61 0.07,11.68 0.12,11.77 0.18,11.86 0.20,11.96 0.23,12.06 0.22,12.17 0.21,12.28 0.17,12.37 0.13,12.47 0.06,12.55 -0.01,12.63 -0.10,12.68 -0.19,12.73 -0.30,12.75 -0.40,12.77 -0.50,12.76 -0.61,12.74 -0.70,12.70 -0.80,12.65 -0.87,12.57 -0.95,12.50 -1.00,12.40 -1.04,12.31 -1.06,12.20 -1.07,12.10 -1.07,12.10 -1.07,12.10 -1.23,9.85 -1.39,7.59 -1.24,6.09 -1.09,4.59 -1.07,3.29 -1.04,1.99 -0.84,0.99 -0.65,0 -0.64,-0.07 -0.63,-0.15 -0.60,-0.23 -0.58,-0.30 -0.53,-0.37 -0.49,-0.43 -0.43,-0.48 -0.37,-0.54 -0.30,-0.57 -0.23,-0.61 -0.15,-0.63 -0.07,-0.65 0.00,-0.65 0.07,-0.65 0.15,-0.63 0.23,-0.61 0.30,-0.57 0.37,-0.54 0.43,-0.48 0.49,-0.43 0.53,-0.37 0.58,-0.30 0.60,-0.23 0.63,-0.15 0.64,-0.07 0.65,0.00 0.65,0.00 L 0.65,0 Z"/></g><g transform="translate(661.4756774902344 54.257927894592285) rotate(0 4.557304382324219 4.991321563720703)" stroke="none"><path fill="#1e1e1e" d="M -0.52,-0.39 Q -0.52,-0.39 -0.22,-0.99 0.07,-1.58 0.76,-1.95 1.45,-2.32 2.10,-2.44 2.75,-2.56 3.60,-2.20 4.45,-1.83 5.04,-1.37 5.64,-0.90 6.02,-0.02 6.40,0.84 6.51,1.50 6.62,2.17 6.39,2.92 6.15,3.67 5.46,4.64 4.77,5.62 4.28,5.89 3.79,6.17 4.35,6.91 4.91,7.65 5.38,8.16 5.86,8.67 7.36,9.65 8.86,10.64 8.96,10.65 9.07,10.66 9.17,10.70 9.26,10.75 9.34,10.82 9.42,10.89 9.47,10.98 9.52,11.08 9.54,11.18 9.56,11.29 9.54,11.39 9.52,11.50 9.47,11.59 9.43,11.69 9.35,11.76 9.27,11.83 9.18,11.88 9.08,11.92 8.97,11.94 8.87,11.95 8.76,11.93 8.66,11.90 8.57,11.85 8.48,11.80 8.41,11.72 8.34,11.64 8.30,11.54 8.26,11.44 8.25,11.33 8.25,11.23 8.27,11.12 8.30,11.02 8.36,10.93 8.42,10.84 8.50,10.78 8.59,10.71 8.69,10.68 8.79,10.65 8.89,10.64 9.00,10.64 9.10,10.68 9.20,10.71 9.29,10.77 9.37,10.84 9.43,10.93 9.49,11.01 9.52,11.11 9.55,11.22 9.55,11.32 9.54,11.43 9.50,11.53 9.46,11.63 9.40,11.71 9.33,11.79 9.24,11.85 9.15,11.90 9.04,11.92 8.94,11.95 8.94,11.95 8.94,11.95 6.96,11.65 4.99,11.35 4.43,10.89 3.88,10.43 3.32,9.78 2.77,9.12 2.37,8.49 1.97,7.85 1.76,6.98 1.55,6.11 1.83,5.34 2.11,4.57 2.86,4.07 3.60,3.57 4.00,2.95 4.39,2.33 4.28,1.47 4.17,0.61 3.48,-0.01 2.78,-0.63 2.10,-0.52 1.41,-0.40 0.97,-0.00 0.52,0.39 0.47,0.45 0.41,0.50 0.34,0.55 0.28,0.59 0.20,0.61 0.13,0.64 0.05,0.64 -0.02,0.65 -0.10,0.64 -0.18,0.63 -0.25,0.59 -0.32,0.56 -0.39,0.52 -0.45,0.47 -0.50,0.41 -0.55,0.35 -0.58,0.27 -0.62,0.20 -0.63,0.13 -0.65,0.05 -0.65,-0.02 -0.64,-0.10 -0.62,-0.18 -0.60,-0.25 -0.56,-0.32 -0.52,-0.39 -0.52,-0.39 L -0.52,-0.39 Z"/></g><g transform="translate(674.0625 54.6919641494751) rotate(0 1.7360687255859375 6.293392181396484)" stroke="none"><path fill="#1e1e1e" d="M 0.60,0.26 Q 0.60,0.26 0.35,1.50 0.10,2.73 -0.16,3.87 -0.44,5.02 -0.40,6.50 -0.36,7.99 -0.13,9.03 0.10,10.08 0.43,10.56 0.76,11.05 2.88,10.57 4.99,10.09 5.08,10.04 5.17,9.98 5.28,9.97 5.38,9.95 5.49,9.96 5.59,9.98 5.69,10.02 5.78,10.07 5.86,10.15 5.93,10.22 5.98,10.32 6.02,10.41 6.04,10.52 6.05,10.63 6.03,10.73 6.01,10.83 5.96,10.93 5.90,11.02 5.82,11.09 5.75,11.16 5.65,11.20 5.55,11.24 5.44,11.25 5.34,11.26 5.23,11.23 5.13,11.20 5.04,11.15 4.95,11.09 4.89,11.00 4.82,10.92 4.79,10.82 4.75,10.72 4.75,10.62 4.75,10.51 4.78,10.41 4.81,10.31 4.87,10.22 4.94,10.13 5.02,10.07 5.11,10.01 5.21,9.98 5.31,9.95 5.42,9.96 5.52,9.96 5.62,10.00 5.72,10.03 5.81,10.10 5.89,10.17 5.94,10.26 6.00,10.35 6.03,10.45 6.05,10.55 6.04,10.66 6.03,10.77 5.99,10.86 5.95,10.96 5.87,11.04 5.80,11.12 5.80,11.12 5.80,11.12 3.38,12.47 0.96,13.83 -0.17,13.28 -1.31,12.74 -1.93,11.71 -2.55,10.68 -2.80,9.32 -3.04,7.97 -2.97,6.17 -2.89,4.37 -2.50,3.06 -2.10,1.75 -1.35,0.74 -0.60,-0.26 -0.55,-0.33 -0.51,-0.40 -0.46,-0.45 -0.40,-0.51 -0.33,-0.55 -0.27,-0.59 -0.19,-0.62 -0.12,-0.64 -0.04,-0.65 0.03,-0.65 0.11,-0.64 0.19,-0.62 0.26,-0.59 0.33,-0.56 0.39,-0.51 0.46,-0.46 0.51,-0.40 0.56,-0.34 0.59,-0.27 0.62,-0.19 0.64,-0.12 0.65,-0.04 0.65,0.03 0.64,0.11 0.62,0.19 0.60,0.26 0.60,0.26 L 0.60,0.26 Z"/></g><g transform="translate(674.4965362548828 62.070427894592285) rotate(0 1.7361068725585938 -0.6510448455810547)" stroke="none"><path fill="#1e1e1e" d="M -0.10,-0.64 Q -0.10,-0.64 1.39,-1.16 2.90,-1.68 2.99,-1.73 3.08,-1.78 3.18,-1.81 3.29,-1.83 3.39,-1.81 3.50,-1.80 3.59,-1.76 3.69,-1.71 3.77,-1.64 3.84,-1.56 3.89,-1.47 3.94,-1.37 3.96,-1.27 3.97,-1.16 3.95,-1.06 3.94,-0.95 3.88,-0.86 3.83,-0.77 3.76,-0.70 3.68,-0.62 3.58,-0.58 3.48,-0.54 3.38,-0.53 3.27,-0.52 3.17,-0.54 3.07,-0.56 2.98,-0.62 2.88,-0.68 2.82,-0.76 2.75,-0.84 2.71,-0.94 2.67,-1.04 2.67,-1.14 2.66,-1.25 2.69,-1.35 2.72,-1.45 2.78,-1.54 2.84,-1.63 2.93,-1.69 3.01,-1.75 3.12,-1.79 3.22,-1.82 3.32,-1.82 3.43,-1.82 3.53,-1.78 3.63,-1.75 3.71,-1.68 3.80,-1.62 3.86,-1.53 3.91,-1.44 3.94,-1.34 3.97,-1.23 3.96,-1.13 3.96,-1.02 3.91,-0.92 3.87,-0.83 3.80,-0.75 3.73,-0.67 3.74,-0.67 3.74,-0.67 1.92,-0.01 0.10,0.64 0.02,0.65 -0.05,0.65 -0.12,0.63 -0.20,0.62 -0.27,0.59 -0.34,0.55 -0.41,0.50 -0.47,0.45 -0.51,0.39 -0.56,0.33 -0.59,0.25 -0.63,0.18 -0.64,0.10 -0.65,0.02 -0.64,-0.04 -0.64,-0.12 -0.61,-0.20 -0.59,-0.27 -0.55,-0.34 -0.51,-0.41 -0.45,-0.46 -0.39,-0.52 -0.32,-0.56 -0.25,-0.60 -0.18,-0.62 -0.10,-0.64 -0.10,-0.64 L -0.10,-0.64 Z"/></g><g transform="translate(673.1944274902344 55.99403476715088) rotate(0 3.2551956176757812 -0.6510353088378906)" stroke="none"><path fill="#1e1e1e" d="M -0.29,-0.58 Q -0.29,-0.58 0.32,-1.23 0.94,-1.88 3.48,-1.53 6.02,-1.19 6.12,-1.15 6.22,-1.12 6.30,-1.05 6.38,-0.98 6.44,-0.89 6.50,-0.81 6.52,-0.70 6.55,-0.60 6.54,-0.49 6.53,-0.39 6.49,-0.29 6.45,-0.19 6.38,-0.11 6.31,-0.03 6.22,0.01 6.12,0.06 6.02,0.08 5.92,0.10 5.81,0.09 5.71,0.08 5.61,0.03 5.51,-0.01 5.44,-0.08 5.36,-0.16 5.32,-0.25 5.27,-0.35 5.25,-0.45 5.24,-0.56 5.26,-0.66 5.28,-0.77 5.33,-0.86 5.38,-0.95 5.46,-1.02 5.54,-1.10 5.64,-1.14 5.73,-1.18 5.84,-1.19 5.95,-1.20 6.05,-1.17 6.15,-1.15 6.24,-1.09 6.33,-1.03 6.40,-0.95 6.47,-0.87 6.50,-0.77 6.54,-0.67 6.54,-0.56 6.55,-0.46 6.52,-0.36 6.48,-0.25 6.42,-0.17 6.36,-0.08 6.28,-0.02 6.19,0.03 6.09,0.07 5.99,0.10 5.88,0.09 5.77,0.09 5.77,0.09 5.77,0.09 3.91,0.24 2.05,0.38 1.17,0.48 0.29,0.58 0.21,0.61 0.14,0.64 0.06,0.64 -0.01,0.65 -0.09,0.64 -0.16,0.63 -0.24,0.60 -0.31,0.57 -0.38,0.52 -0.44,0.48 -0.49,0.42 -0.54,0.36 -0.58,0.29 -0.61,0.22 -0.63,0.14 -0.65,0.06 -0.65,-0.01 -0.65,-0.09 -0.62,-0.16 -0.60,-0.24 -0.57,-0.31 -0.53,-0.38 -0.47,-0.44 -0.42,-0.50 -0.35,-0.54 -0.29,-0.58 -0.29,-0.58 L -0.29,-0.58 Z"/></g></svg>