<svg version="1.1" xmlns="http://www.w3.org/2000/svg" viewBox="0 0 438.0555419921875 454.72218322753906" width="438.0555419921875" height="454.72218322753906" filter="invert(93%) hue-rotate(180deg)" class="excalidraw-svg">
  <!-- svg-source:excalidraw -->
  
  <defs>
    <style class="style-fonts">
      @font-face {
        font-family: "Virgil";
        src: url("https://excalidraw.com/Virgil.woff2");
      }
      @font-face {
        font-family: "Cascadia";
        src: url("https://excalidraw.com/Cascadia.woff2");
      }
      @font-face {
        font-family: "Assistant";
        src: url("https://excalidraw.com/Assistant-Regular.woff2");
      }
    </style>
    
  </defs>
  <rect x="0" y="0" width="438.0555419921875" height="454.72218322753906" fill="#ffffff"/><g stroke-linecap="round" transform="translate(40.5555419921875 64.16665649414062) rotate(0 179.51388549804688 179.8611068725586)"><path d="M359.03 179.86 C359.03 184.14, 358.87 188.43, 358.57 192.69 C358.27 196.96, 357.81 201.22, 357.2 205.46 C356.59 209.69, 355.83 213.91, 354.93 218.09 C354.02 222.27, 352.96 226.43, 351.76 230.53 C350.55 234.64, 349.2 238.71, 347.71 242.72 C346.22 246.72, 344.58 250.69, 342.81 254.58 C341.03 258.47, 339.12 262.31, 337.07 266.06 C335.02 269.81, 332.84 273.5, 330.53 277.1 C328.22 280.7, 325.78 284.22, 323.22 287.65 C320.66 291.07, 317.98 294.41, 315.18 297.65 C312.39 300.88, 309.47 304.02, 306.45 307.04 C303.43 310.07, 300.3 312.99, 297.07 315.79 C293.84 318.59, 290.51 321.28, 287.09 323.85 C283.68 326.41, 280.16 328.86, 276.57 331.17 C272.98 333.48, 269.29 335.67, 265.55 337.72 C261.8 339.77, 257.97 341.69, 254.09 343.47 C250.2 345.25, 246.25 346.89, 242.25 348.38 C238.25 349.88, 234.18 351.23, 230.09 352.44 C225.99 353.64, 221.84 354.7, 217.67 355.61 C213.5 356.52, 209.29 357.28, 205.06 357.89 C200.84 358.5, 196.58 358.96, 192.32 359.26 C188.06 359.57, 183.78 359.72, 179.51 359.72 C175.25 359.72, 170.97 359.57, 166.71 359.26 C162.45 358.96, 158.19 358.5, 153.97 357.89 C149.74 357.28, 145.53 356.52, 141.36 355.61 C137.18 354.7, 133.03 353.64, 128.94 352.44 C124.84 351.23, 120.78 349.88, 116.78 348.38 C112.78 346.89, 108.82 345.25, 104.94 343.47 C101.06 341.69, 97.23 339.77, 93.48 337.72 C89.74 335.67, 86.05 333.48, 82.46 331.17 C78.87 328.86, 75.35 326.41, 71.94 323.85 C68.52 321.28, 65.18 318.59, 61.96 315.79 C58.73 312.99, 55.6 310.07, 52.58 307.04 C49.56 304.02, 46.64 300.88, 43.85 297.65 C41.05 294.41, 38.36 291.07, 35.81 287.65 C33.25 284.22, 30.81 280.7, 28.5 277.1 C26.19 273.5, 24 269.81, 21.96 266.06 C19.91 262.31, 18 258.47, 16.22 254.58 C14.45 250.69, 12.81 246.72, 11.32 242.72 C9.83 238.71, 8.47 234.64, 7.27 230.53 C6.07 226.43, 5.01 222.27, 4.1 218.09 C3.2 213.91, 2.43 209.69, 1.83 205.46 C1.22 201.22, 0.76 196.96, 0.46 192.69 C0.15 188.43, 0 184.14, 0 179.86 C0 175.58, 0.15 171.3, 0.46 167.03 C0.76 162.76, 1.22 158.5, 1.83 154.26 C2.43 150.03, 3.2 145.81, 4.1 141.63 C5.01 137.45, 6.07 133.29, 7.27 129.19 C8.47 125.08, 9.83 121.01, 11.32 117.01 C12.81 113, 14.45 109.03, 16.22 105.14 C18 101.25, 19.91 97.42, 21.96 93.66 C24 89.91, 26.19 86.22, 28.5 82.62 C30.81 79.02, 33.25 75.5, 35.81 72.07 C38.36 68.65, 41.05 65.31, 43.85 62.08 C46.64 58.84, 49.56 55.7, 52.58 52.68 C55.6 49.66, 58.73 46.73, 61.96 43.93 C65.18 41.13, 68.52 38.44, 71.94 35.87 C75.35 33.31, 78.87 30.86, 82.46 28.55 C86.05 26.24, 89.74 24.05, 93.48 22 C97.23 19.95, 101.06 18.03, 104.94 16.25 C108.82 14.48, 112.78 12.83, 116.78 11.34 C120.78 9.85, 124.84 8.49, 128.94 7.29 C133.03 6.08, 137.18 5.02, 141.36 4.11 C145.53 3.2, 149.74 2.44, 153.97 1.83 C158.19 1.22, 162.45 0.76, 166.71 0.46 C170.97 0.15, 175.25 0, 179.51 0 C183.78 0, 188.06 0.15, 192.32 0.46 C196.58 0.76, 200.84 1.22, 205.06 1.83 C209.29 2.44, 213.5 3.2, 217.67 4.11 C221.84 5.02, 225.99 6.08, 230.09 7.29 C234.18 8.49, 238.25 9.85, 242.25 11.34 C246.25 12.83, 250.2 14.48, 254.09 16.25 C257.97 18.03, 261.8 19.95, 265.55 22 C269.29 24.05, 272.98 26.24, 276.57 28.55 C280.16 30.86, 283.68 33.31, 287.09 35.87 C290.51 38.44, 293.84 41.13, 297.07 43.93 C300.3 46.73, 303.43 49.66, 306.45 52.68 C309.47 55.7, 312.39 58.84, 315.18 62.08 C317.98 65.31, 320.66 68.65, 323.22 72.07 C325.78 75.5, 328.22 79.02, 330.53 82.62 C332.84 86.22, 335.02 89.91, 337.07 93.66 C339.12 97.42, 341.03 101.25, 342.81 105.14 C344.58 109.03, 346.22 113, 347.71 117.01 C349.2 121.01, 350.55 125.08, 351.76 129.19 C352.96 133.29, 354.02 137.45, 354.93 141.63 C355.83 145.81, 356.59 150.03, 357.2 154.26 C357.81 158.5, 358.27 162.76, 358.57 167.03 C358.87 171.3, 359.03 175.58, 359.03 179.86" stroke="#1e1e1e" stroke-width="2" fill="none"/></g><g stroke-linecap="round"><g transform="translate(217.638916015625 48.19444274902344) rotate(0 2.08331298828125 198.2638702392578)"><path d="M0 0 C0.69 66.09, 3.47 330.44, 4.17 396.53 M0 0 C0.69 66.09, 3.47 330.44, 4.17 396.53" stroke="#1e1e1e" stroke-width="2" fill="none"/></g></g><mask/><g stroke-linecap="round"><g transform="translate(10 245.4166717529297) rotate(0 209.02777099609375 2.4305572509765625)"><path d="M0 0 C69.68 0.81, 348.38 4.05, 418.06 4.86 M0 0 C69.68 0.81, 348.38 4.05, 418.06 4.86" stroke="#1e1e1e" stroke-width="2" fill="none"/></g></g><mask/><g transform="translate(108.611083984375 134.30555725097656) rotate(0 0.34722900390625 9.722213745117188)" stroke="none"><path fill="#6741d9" d="M 0.65,0 Q 0.65,0 0.84,0.99 1.04,1.99 1.25,3.34 1.46,4.69 1.56,6.34 1.66,7.98 1.70,9.68 1.75,11.38 1.76,12.70 1.77,14.01 1.56,16.45 1.34,18.88 1.33,18.98 1.31,19.09 1.26,19.18 1.21,19.28 1.13,19.35 1.06,19.42 0.96,19.47 0.87,19.51 0.76,19.52 0.65,19.54 0.55,19.51 0.45,19.49 0.36,19.44 0.26,19.38 0.20,19.30 0.13,19.22 0.09,19.12 0.05,19.02 0.04,18.92 0.03,18.81 0.06,18.71 0.09,18.61 0.15,18.52 0.21,18.43 0.29,18.36 0.38,18.30 0.48,18.27 0.58,18.23 0.69,18.23 0.79,18.23 0.89,18.26 0.99,18.30 1.08,18.36 1.16,18.43 1.22,18.51 1.28,18.60 1.31,18.70 1.34,18.81 1.33,18.91 1.33,19.02 1.29,19.12 1.25,19.22 1.18,19.30 1.11,19.38 1.02,19.43 0.93,19.49 0.83,19.51 0.73,19.54 0.62,19.52 0.51,19.51 0.42,19.47 0.32,19.42 0.24,19.35 0.17,19.28 0.12,19.18 0.07,19.09 0.05,18.99 0.03,18.88 0.03,18.88 0.03,18.88 -0.19,16.46 -0.43,14.04 -0.44,12.73 -0.46,11.43 -0.49,9.76 -0.52,8.10 -0.59,6.54 -0.66,4.99 -0.85,3.49 -1.04,1.99 -0.84,0.99 -0.65,0 -0.64,-0.07 -0.63,-0.15 -0.60,-0.23 -0.58,-0.30 -0.53,-0.37 -0.49,-0.43 -0.43,-0.48 -0.37,-0.54 -0.30,-0.57 -0.23,-0.61 -0.15,-0.63 -0.07,-0.65 0.00,-0.65 0.07,-0.65 0.15,-0.63 0.23,-0.61 0.30,-0.57 0.37,-0.54 0.43,-0.48 0.49,-0.43 0.53,-0.37 0.58,-0.30 0.60,-0.23 0.63,-0.15 0.64,-0.07 0.65,0.00 0.65,0.00 L 0.65,0 Z"/></g><g transform="translate(120.41668701171875 141.24998474121094) rotate(0 1.041656494140625 5.208343505859375)" stroke="none"><path fill="#6741d9" d="M 0,0.65 Q 0,0.65 -0.51,0.83 -1.02,1.00 -1.49,1.78 -1.96,2.56 -2.25,3.46 -2.55,4.36 -2.47,5.20 -2.39,6.04 -2.19,6.98 -1.98,7.93 -1.58,8.58 -1.17,9.23 -0.23,9.29 0.70,9.35 1.24,8.99 1.78,8.64 2.61,7.93 3.43,7.22 3.91,6.42 4.39,5.62 4.58,5.02 4.77,4.42 4.48,3.77 4.19,3.11 3.91,2.40 3.63,1.68 3.06,1.36 2.49,1.03 0.66,0.50 -1.16,-0.02 -1.27,-0.04 -1.37,-0.07 -1.46,-0.12 -1.56,-0.17 -1.62,-0.25 -1.69,-0.33 -1.73,-0.43 -1.78,-0.53 -1.78,-0.64 -1.79,-0.74 -1.76,-0.85 -1.73,-0.95 -1.68,-1.04 -1.62,-1.13 -1.53,-1.19 -1.45,-1.26 -1.35,-1.29 -1.25,-1.33 -1.14,-1.33 -1.04,-1.33 -0.93,-1.29 -0.83,-1.26 -0.75,-1.20 -0.66,-1.13 -0.60,-1.05 -0.54,-0.96 -0.51,-0.86 -0.48,-0.76 -0.49,-0.65 -0.49,-0.54 -0.53,-0.44 -0.57,-0.35 -0.64,-0.26 -0.71,-0.18 -0.80,-0.13 -0.89,-0.07 -0.99,-0.05 -1.09,-0.02 -1.20,-0.03 -1.30,-0.04 -1.40,-0.09 -1.50,-0.13 -1.58,-0.20 -1.65,-0.28 -1.70,-0.37 -1.76,-0.46 -1.77,-0.57 -1.79,-0.67 -1.78,-0.78 -1.76,-0.88 -1.71,-0.98 -1.66,-1.07 -1.59,-1.14 -1.51,-1.22 -1.41,-1.26 -1.32,-1.31 -1.21,-1.32 -1.11,-1.33 -1.11,-1.33 -1.11,-1.33 0.74,-1.36 2.59,-1.39 3.22,-1.11 3.84,-0.83 4.75,-0.08 5.65,0.66 6.02,1.54 6.39,2.42 6.68,3.64 6.97,4.86 6.66,5.85 6.35,6.84 5.64,7.90 4.94,8.96 3.92,9.80 2.90,10.65 1.91,11.13 0.92,11.61 -0.22,11.60 -1.37,11.59 -2.21,11.04 -3.05,10.49 -3.63,9.46 -4.21,8.43 -4.44,7.29 -4.67,6.15 -4.68,4.91 -4.69,3.67 -4.25,2.49 -3.81,1.30 -3.33,0.64 -2.84,-0.02 -2.10,-0.51 -1.37,-1.00 -0.68,-0.83 0,-0.65 0.07,-0.64 0.15,-0.63 0.23,-0.60 0.30,-0.58 0.37,-0.53 0.43,-0.49 0.48,-0.43 0.54,-0.37 0.57,-0.30 0.61,-0.23 0.63,-0.15 0.65,-0.07 0.65,0.00 0.65,0.07 0.63,0.15 0.61,0.23 0.57,0.30 0.54,0.37 0.48,0.43 0.43,0.49 0.37,0.53 0.30,0.58 0.23,0.60 0.15,0.63 0.07,0.64 -0.00,0.65 -0.00,0.65 L 0,0.65 Z"/></g><g transform="translate(132.22222900390625 141.94444274902344) rotate(0 1.041656494140625 3.125)" stroke="none"><path fill="#6741d9" d="M 0.15,0.63 Q 0.15,0.63 -0.51,0.99 -1.17,1.35 -1.57,2.23 -1.97,3.11 -2.05,3.78 -2.14,4.45 -2.00,5.03 -1.86,5.60 -1.38,6.18 -0.91,6.76 0.04,6.28 1.00,5.81 1.66,5.30 2.32,4.80 2.71,4.10 3.09,3.40 3.49,2.71 3.88,2.01 3.78,1.36 3.69,0.71 3.33,0.03 2.97,-0.64 2.41,-0.48 1.85,-0.33 1.28,-0.11 0.72,0.10 -0.34,0.46 -1.41,0.83 -1.48,0.92 -1.54,1.00 -1.63,1.06 -1.71,1.13 -1.81,1.16 -1.92,1.19 -2.02,1.18 -2.13,1.18 -2.23,1.14 -2.33,1.11 -2.41,1.04 -2.49,0.97 -2.55,0.88 -2.61,0.79 -2.63,0.69 -2.66,0.59 -2.65,0.48 -2.64,0.38 -2.60,0.28 -2.55,0.18 -2.48,0.10 -2.41,0.02 -2.32,-0.02 -2.23,-0.07 -2.12,-0.09 -2.02,-0.11 -1.91,-0.10 -1.81,-0.08 -1.71,-0.03 -1.62,0.00 -1.54,0.08 -1.47,0.15 -1.42,0.25 -1.37,0.35 -1.36,0.45 -1.35,0.56 -1.37,0.66 -1.39,0.76 -1.44,0.86 -1.49,0.95 -1.57,1.02 -1.65,1.09 -1.75,1.13 -1.85,1.17 -1.95,1.18 -2.06,1.19 -2.16,1.16 -2.26,1.14 -2.35,1.08 -2.44,1.02 -2.51,0.94 -2.57,0.86 -2.61,0.76 -2.65,0.66 -2.65,0.55 -2.65,0.45 -2.62,0.34 -2.59,0.24 -2.59,0.24 -2.59,0.24 -1.37,-0.99 -0.15,-2.23 0.61,-2.51 1.37,-2.79 2.28,-2.88 3.19,-2.98 4.00,-2.58 4.81,-2.18 5.21,-1.55 5.62,-0.92 5.85,-0.15 6.08,0.62 6.03,1.81 5.97,2.99 5.52,3.81 5.07,4.63 4.41,5.62 3.74,6.61 2.87,7.25 2.00,7.89 0.93,8.34 -0.14,8.80 -1.06,8.72 -1.98,8.65 -2.72,8.02 -3.46,7.39 -3.77,6.71 -4.09,6.02 -4.23,5.07 -4.37,4.12 -4.16,3.08 -3.94,2.04 -3.56,1.38 -3.18,0.72 -2.60,0.08 -2.01,-0.55 -1.08,-0.59 -0.15,-0.63 -0.08,-0.64 -0.00,-0.65 0.07,-0.64 0.15,-0.63 0.22,-0.61 0.30,-0.58 0.36,-0.53 0.43,-0.49 0.48,-0.43 0.53,-0.37 0.57,-0.30 0.61,-0.23 0.63,-0.15 0.65,-0.08 0.65,-0.00 0.65,0.07 0.63,0.15 0.61,0.23 0.57,0.30 0.54,0.37 0.48,0.43 0.43,0.49 0.37,0.53 0.30,0.58 0.23,0.60 0.15,0.63 0.15,0.63 L 0.15,0.63 Z"/></g><g transform="translate(144.72222900390625 141.24998474121094) rotate(0 0.694427490234375 3.4722442626953125)" stroke="none"><path fill="#6741d9" d="M 0.15,0.63 Q 0.15,0.63 -0.51,1.03 -1.18,1.44 -1.45,1.97 -1.73,2.50 -2.08,3.28 -2.43,4.07 -2.56,4.70 -2.69,5.34 -2.38,6.16 -2.06,6.99 -1.33,7.27 -0.60,7.56 -0.03,7.44 0.53,7.31 1.02,6.78 1.52,6.25 2.16,5.45 2.80,4.65 3.22,3.81 3.64,2.97 3.57,2.43 3.51,1.88 3.33,1.31 3.15,0.75 2.46,0.23 1.77,-0.27 0.82,-0.29 -0.11,-0.32 -1.10,0.23 -2.08,0.79 -2.15,0.87 -2.21,0.96 -2.30,1.02 -2.39,1.08 -2.49,1.11 -2.59,1.13 -2.70,1.13 -2.80,1.12 -2.90,1.08 -3.00,1.05 -3.08,0.98 -3.16,0.91 -3.22,0.82 -3.27,0.73 -3.30,0.62 -3.32,0.52 -3.31,0.41 -3.30,0.31 -3.25,0.21 -3.21,0.11 -3.13,0.04 -3.06,-0.03 -2.97,-0.08 -2.87,-0.13 -2.77,-0.15 -2.66,-0.16 -2.56,-0.15 -2.45,-0.13 -2.36,-0.08 -2.27,-0.03 -2.19,0.04 -2.12,0.11 -2.08,0.21 -2.03,0.31 -2.02,0.41 -2.01,0.52 -2.03,0.62 -2.05,0.72 -2.11,0.82 -2.16,0.91 -2.24,0.98 -2.32,1.04 -2.42,1.08 -2.52,1.12 -2.63,1.13 -2.73,1.13 -2.84,1.11 -2.94,1.08 -3.03,1.02 -3.11,0.96 -3.18,0.87 -3.24,0.79 -3.28,0.69 -3.31,0.59 -3.31,0.48 -3.31,0.38 -3.28,0.28 -3.24,0.17 -3.24,0.18 -3.24,0.18 -1.92,-1.32 -0.59,-2.82 0.36,-2.97 1.32,-3.12 2.22,-2.88 3.12,-2.65 4.06,-2.00 5.01,-1.35 5.38,-0.64 5.75,0.05 5.95,0.98 6.16,1.90 6.06,2.98 5.96,4.05 5.37,5.16 4.77,6.26 3.96,7.21 3.16,8.17 2.12,8.94 1.08,9.71 -0.05,9.84 -1.20,9.97 -2.05,9.68 -2.89,9.39 -3.56,8.78 -4.23,8.16 -4.55,7.47 -4.86,6.77 -4.98,5.81 -5.09,4.85 -4.86,3.93 -4.63,3.02 -4.12,2.02 -3.61,1.03 -2.81,0.19 -2.01,-0.64 -1.08,-0.64 -0.15,-0.63 -0.08,-0.64 -0.00,-0.65 0.07,-0.64 0.15,-0.63 0.22,-0.61 0.30,-0.58 0.36,-0.53 0.43,-0.49 0.48,-0.43 0.53,-0.37 0.57,-0.30 0.61,-0.23 0.63,-0.15 0.65,-0.08 0.65,-0.00 0.65,0.07 0.63,0.15 0.61,0.23 0.57,0.30 0.54,0.37 0.48,0.43 0.43,0.49 0.37,0.53 0.30,0.58 0.23,0.60 0.15,0.63 0.15,0.63 L 0.15,0.63 Z"/></g><g transform="translate(155.138916015625 137.0833282470703) rotate(0 2.777740478515625 7.986114501953125)" stroke="none"><path fill="#6741d9" d="M 0.63,-0.15 Q 0.63,-0.15 1.06,0.54 1.48,1.25 2.05,1.76 2.62,2.27 3.51,3.17 4.39,4.07 5.11,4.59 5.83,5.11 6.49,5.85 7.15,6.59 7.51,7.48 7.86,8.37 7.79,9.34 7.71,10.31 7.19,11.39 6.67,12.48 4.81,14.19 2.94,15.90 2.87,15.97 2.79,16.05 2.70,16.09 2.60,16.14 2.50,16.15 2.39,16.16 2.29,16.14 2.18,16.12 2.09,16.07 2.00,16.02 1.93,15.94 1.86,15.86 1.82,15.76 1.78,15.66 1.77,15.56 1.76,15.45 1.79,15.35 1.81,15.24 1.87,15.15 1.93,15.07 2.01,15.00 2.10,14.93 2.20,14.90 2.30,14.86 2.40,14.86 2.51,14.86 2.61,14.89 2.71,14.92 2.80,14.99 2.88,15.05 2.94,15.14 3.00,15.22 3.04,15.32 3.07,15.43 3.06,15.53 3.06,15.64 3.02,15.74 2.98,15.84 2.92,15.92 2.85,16.00 2.76,16.06 2.67,16.11 2.56,16.14 2.46,16.16 2.36,16.15 2.25,16.14 2.15,16.10 2.06,16.06 1.98,15.99 1.90,15.92 1.85,15.82 1.80,15.73 1.78,15.62 1.76,15.52 1.77,15.42 1.79,15.31 1.84,15.22 1.88,15.12 1.88,15.12 1.88,15.12 3.12,13.19 4.35,11.27 4.72,10.57 5.08,9.87 5.12,9.01 5.16,8.14 4.76,7.59 4.36,7.03 3.53,6.38 2.69,5.72 1.80,4.80 0.90,3.87 0.10,2.90 -0.68,1.93 -0.66,1.04 -0.63,0.15 -0.64,0.08 -0.65,0.00 -0.64,-0.07 -0.63,-0.15 -0.61,-0.22 -0.58,-0.30 -0.53,-0.36 -0.49,-0.43 -0.43,-0.48 -0.37,-0.53 -0.30,-0.57 -0.23,-0.61 -0.15,-0.63 -0.08,-0.65 -0.00,-0.65 0.07,-0.65 0.15,-0.63 0.23,-0.61 0.30,-0.57 0.37,-0.54 0.43,-0.48 0.49,-0.43 0.53,-0.37 0.58,-0.30 0.60,-0.23 0.63,-0.15 0.63,-0.15 L 0.63,-0.15 Z"/></g><g transform="translate(361.38885498046875 30.138885498046875) rotate(0 3.125 17.013893127441406)" stroke="none"><path fill="#1e1e1e" d="M 0.57,-0.31 Q 0.57,-0.31 2.04,1.73 3.50,3.78 4.66,6.36 5.82,8.93 6.37,12.16 6.91,15.39 6.93,18.19 6.96,21.00 6.55,23.47 6.14,25.94 5.28,27.87 4.41,29.80 2.95,31.83 1.48,33.85 1.42,33.94 1.37,34.03 1.28,34.10 1.20,34.16 1.10,34.20 1.00,34.23 0.89,34.23 0.79,34.24 0.69,34.20 0.58,34.17 0.50,34.11 0.41,34.05 0.35,33.96 0.29,33.87 0.26,33.77 0.23,33.67 0.24,33.56 0.24,33.46 0.28,33.36 0.32,33.26 0.38,33.17 0.45,33.09 0.54,33.04 0.63,32.98 0.73,32.96 0.84,32.93 0.94,32.94 1.05,32.95 1.15,32.99 1.24,33.04 1.32,33.11 1.40,33.18 1.45,33.28 1.50,33.37 1.52,33.47 1.54,33.58 1.52,33.68 1.51,33.79 1.46,33.88 1.41,33.98 1.34,34.05 1.26,34.12 1.16,34.17 1.07,34.22 0.96,34.23 0.86,34.24 0.75,34.22 0.65,34.20 0.56,34.15 0.47,34.09 0.40,34.01 0.33,33.93 0.28,33.84 0.24,33.74 0.24,33.63 0.23,33.53 0.26,33.42 0.28,33.32 0.28,33.32 0.28,33.32 1.15,31.05 2.02,28.77 2.69,27.11 3.36,25.45 3.75,23.22 4.14,21.00 4.17,18.40 4.19,15.80 3.79,12.88 3.39,9.97 2.34,7.48 1.28,4.99 0.35,2.65 -0.57,0.31 -0.60,0.24 -0.63,0.16 -0.64,0.08 -0.65,0.01 -0.64,-0.06 -0.64,-0.14 -0.61,-0.22 -0.58,-0.29 -0.54,-0.36 -0.49,-0.42 -0.44,-0.48 -0.38,-0.53 -0.31,-0.57 -0.24,-0.61 -0.16,-0.63 -0.08,-0.65 -0.01,-0.65 0.06,-0.65 0.14,-0.63 0.22,-0.61 0.29,-0.58 0.36,-0.54 0.42,-0.49 0.48,-0.44 0.53,-0.37 0.57,-0.31 0.57,-0.31 L 0.57,-0.31 Z"/></g><g transform="translate(368.33331298828125 46.80555725097656) rotate(0 5.90277099609375 -0.34722137451171875)" stroke="none"><path fill="#1e1e1e" d="M 0,-0.65 Q 0,-0.65 1.19,-0.94 2.39,-1.22 3.50,-1.24 4.61,-1.26 5.88,-1.26 7.15,-1.26 9.17,-1.23 11.19,-1.19 11.29,-1.21 11.40,-1.22 11.50,-1.20 11.61,-1.18 11.70,-1.12 11.79,-1.07 11.86,-0.99 11.93,-0.91 11.97,-0.81 12.01,-0.71 12.02,-0.61 12.02,-0.50 12.00,-0.40 11.97,-0.30 11.91,-0.21 11.85,-0.12 11.77,-0.05 11.69,0.00 11.59,0.04 11.49,0.07 11.38,0.07 11.27,0.08 11.17,0.04 11.07,0.01 10.99,-0.04 10.90,-0.11 10.84,-0.19 10.78,-0.28 10.75,-0.38 10.72,-0.48 10.72,-0.59 10.73,-0.70 10.77,-0.80 10.80,-0.90 10.87,-0.98 10.94,-1.06 11.03,-1.11 11.12,-1.17 11.22,-1.19 11.33,-1.22 11.43,-1.21 11.54,-1.20 11.64,-1.16 11.73,-1.11 11.81,-1.04 11.89,-0.97 11.94,-0.88 11.99,-0.78 12.01,-0.68 12.03,-0.57 12.01,-0.47 12.00,-0.36 11.95,-0.27 11.90,-0.17 11.82,-0.10 11.75,-0.03 11.65,0.01 11.56,0.06 11.56,0.06 11.56,0.06 9.35,0.66 7.15,1.26 5.88,1.26 4.61,1.26 3.50,1.24 2.39,1.22 1.19,0.94 0,0.65 -0.07,0.64 -0.15,0.63 -0.23,0.60 -0.30,0.58 -0.37,0.53 -0.43,0.49 -0.48,0.43 -0.54,0.37 -0.57,0.30 -0.61,0.23 -0.63,0.15 -0.65,0.07 -0.65,-0.00 -0.65,-0.07 -0.63,-0.15 -0.61,-0.23 -0.57,-0.30 -0.54,-0.37 -0.48,-0.43 -0.43,-0.49 -0.37,-0.53 -0.30,-0.58 -0.23,-0.60 -0.15,-0.63 -0.07,-0.64 0.00,-0.65 0.00,-0.65 L 0,-0.65 Z"/></g><g transform="translate(382.22222900390625 25.97222900390625) rotate(0 0.694427490234375 15.27777099609375)" stroke="none"><path fill="#1e1e1e" d="M -0.62,0.20 Q -0.62,0.20 -1.03,-0.32 -1.44,-0.85 -1.46,-0.98 -1.49,-1.10 -1.49,-1.24 -1.48,-1.37 -1.44,-1.50 -1.41,-1.62 -1.34,-1.74 -1.27,-1.85 -1.18,-1.95 -1.09,-2.05 -0.98,-2.12 -0.87,-2.19 -0.74,-2.23 -0.61,-2.27 -0.48,-2.28 -0.35,-2.29 -0.22,-2.27 -0.09,-2.25 0.02,-2.20 0.15,-2.15 0.25,-2.07 0.36,-1.99 0.44,-1.88 0.53,-1.78 0.58,-1.66 0.64,-1.54 0.47,-0.38 0.29,0.76 0.03,2.74 -0.22,4.72 -0.53,7.98 -0.85,11.24 -0.58,15.12 -0.31,19.00 -0.00,21.86 0.29,24.73 0.58,26.71 0.86,28.70 1.24,29.55 1.62,30.39 2.71,30.84 3.81,31.29 3.91,31.30 4.02,31.32 4.11,31.37 4.20,31.42 4.28,31.49 4.35,31.57 4.40,31.66 4.45,31.76 4.46,31.87 4.47,31.97 4.45,32.07 4.43,32.18 4.37,32.27 4.32,32.36 4.24,32.43 4.16,32.50 4.06,32.54 3.97,32.58 3.86,32.59 3.75,32.60 3.65,32.57 3.55,32.54 3.46,32.49 3.37,32.43 3.30,32.34 3.24,32.26 3.20,32.16 3.17,32.06 3.17,31.95 3.17,31.85 3.20,31.75 3.23,31.64 3.29,31.56 3.36,31.47 3.44,31.41 3.53,31.35 3.63,31.32 3.73,31.29 3.84,31.30 3.95,31.30 4.05,31.34 4.15,31.38 4.23,31.44 4.31,31.51 4.37,31.60 4.42,31.69 4.45,31.80 4.47,31.90 4.46,32.01 4.45,32.11 4.41,32.21 4.36,32.31 4.29,32.38 4.22,32.46 4.13,32.51 4.03,32.56 3.93,32.58 3.82,32.60 3.82,32.60 3.82,32.60 1.69,32.17 -0.44,31.73 -1.14,30.46 -1.84,29.18 -2.22,27.11 -2.59,25.03 -2.90,22.11 -3.22,19.18 -3.46,15.07 -3.71,10.96 -3.35,7.63 -2.99,4.30 -2.21,1.72 -1.44,-0.85 -1.46,-0.97 -1.49,-1.10 -1.49,-1.24 -1.48,-1.37 -1.44,-1.50 -1.41,-1.62 -1.34,-1.74 -1.27,-1.85 -1.18,-1.95 -1.09,-2.05 -0.98,-2.12 -0.87,-2.19 -0.74,-2.23 -0.61,-2.27 -0.48,-2.28 -0.35,-2.29 -0.22,-2.27 -0.09,-2.25 0.02,-2.20 0.15,-2.15 0.25,-2.07 0.36,-1.99 0.44,-1.88 0.53,-1.78 0.58,-1.66 0.64,-1.54 0.63,-0.87 0.62,-0.20 0.63,-0.13 0.65,-0.05 0.65,0.02 0.64,0.10 0.62,0.18 0.60,0.25 0.56,0.32 0.52,0.39 0.46,0.45 0.41,0.50 0.34,0.55 0.28,0.59 0.20,0.61 0.13,0.64 0.05,0.64 -0.02,0.65 -0.10,0.64 -0.18,0.63 -0.25,0.59 -0.32,0.56 -0.39,0.52 -0.45,0.47 -0.50,0.41 -0.55,0.35 -0.58,0.27 -0.62,0.20 -0.62,0.20 L -0.62,0.20 Z"/></g><g transform="translate(393.33331298828125 56.52777099609375) rotate(0 2.4305419921875 3.8194503784179688)" stroke="none"><path fill="#1e1e1e" d="M -0.46,-0.46 Q -0.46,-0.46 -0.23,-1.05 -0.01,-1.64 0.51,-1.93 1.04,-2.23 1.78,-2.28 2.53,-2.32 3.24,-1.85 3.94,-1.38 4.25,-0.52 4.56,0.33 4.43,1.09 4.31,1.85 4.07,2.65 3.83,3.46 3.47,4.13 3.11,4.79 2.78,5.68 2.46,6.56 3.84,7.12 5.22,7.67 5.32,7.69 5.43,7.71 5.52,7.76 5.61,7.81 5.69,7.88 5.76,7.96 5.80,8.06 5.85,8.15 5.86,8.26 5.87,8.36 5.85,8.47 5.83,8.57 5.77,8.66 5.72,8.75 5.63,8.82 5.55,8.89 5.45,8.93 5.36,8.97 5.25,8.97 5.14,8.98 5.04,8.95 4.94,8.92 4.85,8.86 4.76,8.80 4.70,8.72 4.63,8.63 4.60,8.53 4.57,8.43 4.57,8.33 4.57,8.22 4.60,8.12 4.64,8.02 4.70,7.93 4.76,7.85 4.85,7.79 4.94,7.73 5.04,7.70 5.15,7.67 5.25,7.68 5.36,7.69 5.46,7.73 5.55,7.77 5.64,7.83 5.72,7.90 5.77,7.99 5.83,8.09 5.85,8.19 5.87,8.29 5.86,8.40 5.85,8.50 5.80,8.60 5.76,8.70 5.69,8.77 5.61,8.85 5.52,8.90 5.42,8.95 5.32,8.97 5.21,8.98 5.21,8.98 5.21,8.98 3.31,9.21 1.41,9.43 0.62,8.58 -0.16,7.73 -0.24,6.66 -0.31,5.60 -0.07,5.04 0.16,4.48 0.63,3.51 1.09,2.55 1.35,1.29 1.60,0.04 1.03,0.25 0.46,0.46 0.40,0.51 0.33,0.56 0.26,0.59 0.19,0.62 0.11,0.64 0.03,0.65 -0.03,0.65 -0.11,0.64 -0.19,0.62 -0.26,0.59 -0.33,0.55 -0.40,0.51 -0.46,0.46 -0.51,0.40 -0.55,0.33 -0.59,0.26 -0.62,0.19 -0.64,0.11 -0.65,0.03 -0.65,-0.03 -0.64,-0.11 -0.62,-0.19 -0.59,-0.26 -0.56,-0.33 -0.51,-0.40 -0.46,-0.46 -0.46,-0.46 L -0.46,-0.46 Z"/></g><g transform="translate(396.111083984375 14.861114501953125) rotate(0 1.73614501953125 4.166664123535156)" stroke="none"><path fill="#1e1e1e" d="M 0,0.65 Q 0,0.65 -0.76,0.88 -1.53,1.11 -1.97,1.44 -2.41,1.77 -2.70,2.53 -2.99,3.29 -3.13,4.51 -3.27,5.74 -3.16,6.97 -3.04,8.20 -2.50,9.12 -1.96,10.03 -0.97,10.50 0.02,10.97 1.03,10.81 2.04,10.64 2.94,10.08 3.85,9.52 4.56,8.61 5.27,7.69 5.74,6.24 6.20,4.79 6.21,3.29 6.22,1.78 6.05,0.36 5.87,-1.04 5.45,-1.89 5.03,-2.73 4.33,-3.00 3.63,-3.27 1.42,-2.82 -0.79,-2.36 -0.89,-2.32 -0.99,-2.28 -1.09,-2.28 -1.20,-2.27 -1.30,-2.30 -1.40,-2.33 -1.49,-2.39 -1.58,-2.45 -1.64,-2.54 -1.71,-2.62 -1.74,-2.72 -1.77,-2.82 -1.77,-2.93 -1.77,-3.04 -1.74,-3.14 -1.70,-3.24 -1.64,-3.32 -1.57,-3.41 -1.49,-3.47 -1.40,-3.52 -1.29,-3.55 -1.19,-3.58 -1.09,-3.57 -0.98,-3.57 -0.88,-3.53 -0.78,-3.49 -0.70,-3.42 -0.62,-3.35 -0.57,-3.26 -0.51,-3.17 -0.49,-3.06 -0.47,-2.96 -0.48,-2.85 -0.49,-2.75 -0.54,-2.65 -0.58,-2.55 -0.66,-2.48 -0.73,-2.40 -0.82,-2.35 -0.92,-2.30 -1.02,-2.29 -1.13,-2.27 -1.23,-2.29 -1.34,-2.31 -1.43,-2.36 -1.53,-2.41 -1.60,-2.48 -1.67,-2.56 -1.71,-2.66 -1.76,-2.75 -1.77,-2.86 -1.78,-2.97 -1.76,-3.07 -1.73,-3.17 -1.68,-3.26 -1.62,-3.35 -1.54,-3.42 -1.46,-3.49 -1.46,-3.49 -1.46,-3.49 0.39,-4.56 2.24,-5.62 3.22,-5.75 4.19,-5.88 5.26,-5.53 6.34,-5.18 6.91,-4.53 7.47,-3.89 8.01,-2.64 8.54,-1.39 8.72,0.22 8.91,1.85 8.82,3.75 8.74,5.64 8.04,7.50 7.35,9.35 6.27,10.58 5.18,11.81 3.76,12.53 2.33,13.25 0.66,13.29 -1.00,13.32 -2.55,12.38 -4.10,11.43 -4.85,9.96 -5.60,8.49 -5.69,6.93 -5.79,5.36 -5.50,3.77 -5.20,2.17 -4.46,0.99 -3.72,-0.17 -2.69,-0.64 -1.66,-1.11 -0.83,-0.88 0,-0.65 0.07,-0.64 0.15,-0.63 0.23,-0.60 0.30,-0.58 0.37,-0.53 0.43,-0.49 0.48,-0.43 0.54,-0.37 0.57,-0.30 0.61,-0.23 0.63,-0.15 0.65,-0.07 0.65,0.00 0.65,0.07 0.63,0.15 0.61,0.23 0.57,0.30 0.54,0.37 0.48,0.43 0.43,0.49 0.37,0.53 0.30,0.58 0.23,0.60 0.15,0.63 0.07,0.64 -0.00,0.65 -0.00,0.65 L 0,0.65 Z"/></g><g transform="translate(394.02777099609375 12.083328247070312) rotate(0 3.47222900390625 4.861114501953125)" stroke="none"><path fill="#1e1e1e" d="M 0.51,-0.41 Q 0.51,-0.41 1.55,0.39 2.60,1.19 3.23,2.30 3.86,3.41 4.26,3.97 4.67,4.53 6.02,6.84 7.38,9.14 7.41,9.24 7.45,9.34 7.45,9.45 7.44,9.56 7.41,9.66 7.37,9.76 7.31,9.84 7.24,9.92 7.15,9.98 7.06,10.04 6.96,10.07 6.86,10.09 6.75,10.09 6.65,10.08 6.55,10.04 6.45,10.00 6.37,9.93 6.29,9.86 6.24,9.77 6.18,9.67 6.16,9.57 6.14,9.47 6.15,9.36 6.17,9.26 6.21,9.16 6.26,9.06 6.33,8.99 6.41,8.91 6.50,8.86 6.60,8.81 6.70,8.80 6.81,8.78 6.91,8.80 7.02,8.82 7.11,8.87 7.20,8.92 7.27,9.00 7.35,9.08 7.39,9.18 7.43,9.27 7.44,9.38 7.45,9.49 7.43,9.59 7.40,9.69 7.35,9.78 7.29,9.87 7.21,9.94 7.13,10.01 7.03,10.05 6.93,10.08 6.82,10.09 6.72,10.09 6.62,10.06 6.51,10.03 6.43,9.97 6.34,9.91 6.28,9.82 6.21,9.74 6.21,9.74 6.21,9.74 4.30,7.91 2.39,6.08 1.93,5.37 1.48,4.67 1.03,3.73 0.58,2.79 0.03,1.60 -0.51,0.41 -0.55,0.34 -0.59,0.27 -0.62,0.20 -0.64,0.12 -0.65,0.04 -0.65,-0.03 -0.64,-0.11 -0.62,-0.18 -0.59,-0.26 -0.56,-0.33 -0.51,-0.39 -0.46,-0.45 -0.40,-0.50 -0.34,-0.55 -0.27,-0.59 -0.20,-0.62 -0.12,-0.63 -0.04,-0.65 0.03,-0.65 0.11,-0.64 0.18,-0.62 0.26,-0.60 0.33,-0.56 0.39,-0.52 0.45,-0.46 0.51,-0.41 0.51,-0.41 L 0.51,-0.41 Z"/></g><g transform="translate(393.33331298828125 23.194442749023438) rotate(0 4.861114501953125 -6.597221374511719)" stroke="none"><path fill="#1e1e1e" d="M -0.51,-0.41 Q -0.51,-0.41 0.08,-1.56 0.68,-2.72 1.58,-3.96 2.47,-5.21 3.44,-6.54 4.42,-7.86 5.48,-9.35 6.54,-10.83 7.66,-11.93 8.79,-13.04 8.87,-13.11 8.94,-13.19 9.04,-13.23 9.13,-13.28 9.24,-13.29 9.34,-13.30 9.45,-13.28 9.55,-13.26 9.64,-13.21 9.74,-13.15 9.81,-13.07 9.88,-13.00 9.92,-12.90 9.96,-12.80 9.97,-12.69 9.97,-12.59 9.95,-12.48 9.92,-12.38 9.86,-12.29 9.80,-12.20 9.72,-12.14 9.64,-12.07 9.53,-12.04 9.43,-12.00 9.33,-12.00 9.22,-12.00 9.12,-12.03 9.02,-12.06 8.93,-12.13 8.85,-12.19 8.79,-12.28 8.73,-12.36 8.70,-12.46 8.67,-12.57 8.67,-12.67 8.68,-12.78 8.71,-12.88 8.75,-12.98 8.82,-13.06 8.89,-13.14 8.98,-13.20 9.07,-13.25 9.17,-13.28 9.27,-13.30 9.38,-13.29 9.48,-13.28 9.58,-13.24 9.68,-13.20 9.76,-13.13 9.84,-13.05 9.89,-12.96 9.94,-12.87 9.96,-12.76 9.98,-12.66 9.96,-12.55 9.94,-12.45 9.90,-12.35 9.85,-12.26 9.85,-12.26 9.85,-12.26 9.17,-10.91 8.48,-9.55 7.50,-7.92 6.51,-6.28 5.49,-4.98 4.47,-3.67 3.49,-2.47 2.50,-1.27 1.50,-0.42 0.51,0.41 0.45,0.46 0.39,0.52 0.33,0.56 0.26,0.60 0.18,0.62 0.11,0.64 0.03,0.65 -0.04,0.65 -0.12,0.63 -0.20,0.62 -0.27,0.59 -0.34,0.55 -0.40,0.50 -0.46,0.45 -0.51,0.39 -0.56,0.33 -0.59,0.26 -0.62,0.18 -0.64,0.11 -0.65,0.03 -0.65,-0.04 -0.64,-0.12 -0.62,-0.20 -0.59,-0.27 -0.55,-0.34 -0.51,-0.41 -0.51,-0.41 L -0.51,-0.41 Z"/></g><g transform="translate(410 14.861114501953125) rotate(0 2.77777099609375 4.166664123535156)" stroke="none"><path fill="#1e1e1e" d="M -0.20,0.62 Q -0.20,0.62 -1.19,-0.01 -2.17,-0.65 -2.04,-1.20 -1.91,-1.75 -1.28,-2.41 -0.65,-3.06 0.57,-3.37 1.80,-3.67 2.88,-3.76 3.97,-3.84 4.99,-3.66 6.01,-3.47 6.83,-2.87 7.65,-2.26 8.05,-1.41 8.46,-0.56 8.39,0.39 8.33,1.35 7.81,2.26 7.29,3.18 6.87,3.71 6.45,4.25 7.05,4.86 7.65,5.46 8.09,6.24 8.54,7.03 8.64,7.74 8.74,8.46 8.02,9.63 7.30,10.80 4.96,11.23 2.62,11.66 2.52,11.66 2.41,11.67 2.31,11.64 2.20,11.61 2.12,11.55 2.03,11.49 1.96,11.41 1.90,11.33 1.87,11.22 1.83,11.12 1.83,11.02 1.83,10.91 1.87,10.81 1.90,10.71 1.96,10.63 2.03,10.54 2.12,10.48 2.20,10.42 2.31,10.39 2.41,10.36 2.52,10.37 2.62,10.38 2.72,10.42 2.82,10.45 2.90,10.52 2.98,10.59 3.04,10.68 3.09,10.77 3.11,10.88 3.14,10.98 3.12,11.09 3.11,11.19 3.07,11.29 3.02,11.39 2.95,11.46 2.88,11.54 2.78,11.59 2.69,11.64 2.59,11.66 2.48,11.67 2.38,11.66 2.27,11.64 2.18,11.59 2.08,11.54 2.01,11.46 1.94,11.39 1.89,11.29 1.85,11.19 1.84,11.09 1.82,10.98 1.85,10.88 1.87,10.77 1.93,10.68 1.98,10.59 2.06,10.52 2.14,10.45 2.24,10.42 2.34,10.38 2.34,10.38 2.34,10.38 3.90,9.74 5.45,9.10 5.76,8.30 6.07,7.49 5.26,6.94 4.46,6.38 4.06,5.91 3.66,5.45 3.63,4.59 3.61,3.73 4.01,3.18 4.41,2.63 4.76,2.19 5.12,1.76 5.62,0.96 6.11,0.17 5.76,-0.50 5.40,-1.19 4.76,-1.33 4.11,-1.48 3.15,-1.43 2.20,-1.37 1.44,-1.33 0.68,-1.28 0.23,-0.71 -0.21,-0.13 -0.00,-0.38 0.20,-0.62 0.27,-0.58 0.35,-0.55 0.41,-0.50 0.47,-0.45 0.52,-0.39 0.56,-0.32 0.59,-0.25 0.63,-0.18 0.64,-0.10 0.65,-0.02 0.64,0.05 0.64,0.13 0.61,0.20 0.59,0.28 0.55,0.34 0.50,0.41 0.45,0.46 0.39,0.52 0.32,0.56 0.25,0.60 0.18,0.62 0.10,0.64 0.02,0.65 -0.05,0.65 -0.13,0.63 -0.20,0.62 -0.20,0.62 L -0.20,0.62 Z"/></g><g transform="translate(107.91668701171875 175.2777862548828) rotate(0 0.347198486328125 6.9444427490234375)" stroke="none"><path fill="#6741d9" d="M 0.64,-0.12 Q 0.64,-0.12 1.09,0.81 1.55,1.76 1.66,3.06 1.77,4.35 1.82,5.49 1.87,6.63 1.87,8.12 1.86,9.61 1.28,11.59 0.70,13.57 0.67,13.67 0.64,13.77 0.58,13.86 0.51,13.95 0.43,14.01 0.34,14.07 0.24,14.10 0.14,14.13 0.03,14.13 -0.06,14.13 -0.16,14.09 -0.26,14.06 -0.35,13.99 -0.43,13.93 -0.49,13.84 -0.54,13.75 -0.57,13.65 -0.60,13.54 -0.59,13.44 -0.58,13.33 -0.54,13.23 -0.50,13.13 -0.43,13.06 -0.36,12.98 -0.27,12.92 -0.17,12.87 -0.07,12.85 0.02,12.83 0.13,12.84 0.24,12.86 0.33,12.90 0.43,12.95 0.50,13.02 0.58,13.10 0.63,13.19 0.67,13.29 0.69,13.39 0.70,13.50 0.68,13.60 0.66,13.71 0.61,13.80 0.56,13.89 0.48,13.96 0.40,14.04 0.31,14.08 0.21,14.12 0.10,14.13 0.00,14.14 -0.10,14.11 -0.20,14.09 -0.29,14.03 -0.38,13.98 -0.45,13.89 -0.51,13.81 -0.55,13.71 -0.59,13.61 -0.59,13.51 -0.59,13.40 -0.59,13.40 -0.59,13.40 -0.56,11.52 -0.52,9.63 -0.55,8.17 -0.59,6.71 -0.61,5.62 -0.63,4.52 -0.69,3.37 -0.75,2.22 -0.69,1.17 -0.64,0.12 -0.64,0.04 -0.65,-0.02 -0.64,-0.10 -0.62,-0.18 -0.59,-0.25 -0.56,-0.33 -0.51,-0.39 -0.47,-0.45 -0.41,-0.50 -0.34,-0.55 -0.27,-0.59 -0.20,-0.62 -0.12,-0.63 -0.05,-0.65 0.02,-0.65 0.10,-0.64 0.18,-0.62 0.25,-0.60 0.32,-0.56 0.39,-0.52 0.45,-0.46 0.51,-0.41 0.55,-0.34 0.59,-0.27 0.61,-0.20 0.64,-0.12 0.64,-0.12 L 0.64,-0.12 Z"/></g><g transform="translate(114.16668701171875 182.9166717529297) rotate(0 3.819427490234375 -4.16668701171875)" stroke="none"><path fill="#6741d9" d="M -0.41,-0.51 Q -0.41,-0.51 0.44,-1.49 1.29,-2.47 2.27,-3.40 3.26,-4.32 4.03,-5.27 4.80,-6.22 5.31,-7.00 5.81,-7.78 6.04,-8.34 6.26,-8.90 6.36,-9.01 6.46,-9.13 6.58,-9.21 6.70,-9.30 6.84,-9.35 6.98,-9.41 7.12,-9.43 7.27,-9.45 7.42,-9.43 7.57,-9.41 7.71,-9.36 7.85,-9.31 7.97,-9.23 8.09,-9.14 8.19,-9.03 8.29,-8.92 8.36,-8.79 8.44,-8.66 8.47,-8.52 8.51,-8.37 8.51,-8.22 8.51,-8.08 8.48,-7.93 8.45,-7.79 8.38,-7.65 8.31,-7.52 7.99,-6.91 7.67,-6.30 7.39,-5.20 7.12,-4.10 6.68,-1.95 6.24,0.19 6.21,0.29 6.19,0.40 6.13,0.49 6.08,0.58 6.00,0.65 5.92,0.72 5.82,0.76 5.72,0.80 5.61,0.80 5.51,0.81 5.41,0.78 5.30,0.75 5.22,0.69 5.13,0.63 5.06,0.55 5.00,0.46 4.97,0.36 4.93,0.26 4.93,0.16 4.93,0.05 4.97,-0.04 5.00,-0.14 5.06,-0.23 5.13,-0.31 5.22,-0.37 5.30,-0.43 5.41,-0.46 5.51,-0.49 5.61,-0.48 5.72,-0.48 5.82,-0.44 5.92,-0.40 6.00,-0.33 6.08,-0.26 6.13,-0.17 6.19,-0.08 6.21,0.02 6.24,0.12 6.22,0.23 6.21,0.33 6.17,0.43 6.12,0.52 6.05,0.60 5.98,0.68 5.88,0.73 5.79,0.78 5.68,0.80 5.58,0.81 5.47,0.80 5.37,0.78 5.28,0.73 5.18,0.68 5.11,0.60 5.04,0.52 4.99,0.43 4.95,0.33 4.94,0.23 4.92,0.12 4.92,0.12 4.92,0.12 4.83,-2.26 4.73,-4.65 4.96,-5.71 5.20,-6.78 5.73,-7.84 6.26,-8.90 6.36,-9.01 6.46,-9.13 6.58,-9.21 6.70,-9.30 6.84,-9.35 6.98,-9.41 7.12,-9.43 7.27,-9.45 7.42,-9.43 7.57,-9.41 7.71,-9.36 7.85,-9.31 7.97,-9.23 8.09,-9.14 8.19,-9.03 8.29,-8.92 8.36,-8.79 8.44,-8.66 8.47,-8.52 8.51,-8.37 8.51,-8.22 8.51,-8.08 8.48,-7.93 8.45,-7.79 8.38,-7.65 8.31,-7.52 8.06,-6.98 7.82,-6.44 7.21,-5.58 6.61,-4.71 5.71,-3.67 4.82,-2.62 3.76,-1.67 2.70,-0.71 1.55,-0.10 0.41,0.51 0.34,0.55 0.27,0.59 0.20,0.62 0.12,0.64 0.04,0.65 -0.03,0.65 -0.11,0.64 -0.18,0.62 -0.26,0.59 -0.33,0.56 -0.39,0.51 -0.45,0.46 -0.50,0.40 -0.55,0.34 -0.59,0.27 -0.62,0.20 -0.63,0.12 -0.65,0.04 -0.65,-0.03 -0.64,-0.11 -0.62,-0.18 -0.60,-0.26 -0.56,-0.33 -0.52,-0.39 -0.46,-0.45 -0.41,-0.51 -0.41,-0.51 L -0.41,-0.51 Z"/></g><g transform="translate(124.58331298828125 179.44444274902344) rotate(0 3.125 -2.77777099609375)" stroke="none"><path fill="#6741d9" d="M -0.39,-0.52 Q -0.39,-0.52 0.26,-1.30 0.92,-2.08 1.57,-2.86 2.21,-3.64 2.93,-4.43 3.66,-5.21 4.10,-5.87 4.54,-6.53 4.56,-7.16 4.58,-7.79 4.65,-7.92 4.73,-8.05 4.83,-8.16 4.93,-8.26 5.06,-8.34 5.18,-8.42 5.32,-8.47 5.46,-8.52 5.61,-8.53 5.76,-8.54 5.90,-8.52 6.05,-8.50 6.19,-8.44 6.32,-8.38 6.44,-8.29 6.56,-8.20 6.65,-8.09 6.75,-7.98 6.81,-7.84 6.87,-7.71 6.91,-7.56 6.94,-7.42 6.93,-7.27 6.92,-7.12 6.88,-6.98 6.84,-6.84 6.62,-6.17 6.39,-5.49 6.09,-4.44 5.80,-3.38 5.68,-2.58 5.55,-1.79 5.19,-0.03 4.83,1.72 4.81,1.82 4.79,1.93 4.74,2.02 4.68,2.11 4.60,2.18 4.52,2.25 4.43,2.29 4.33,2.33 4.22,2.34 4.12,2.35 4.01,2.32 3.91,2.29 3.82,2.24 3.73,2.18 3.67,2.09 3.60,2.01 3.57,1.91 3.53,1.81 3.53,1.70 3.53,1.60 3.56,1.50 3.59,1.40 3.65,1.31 3.72,1.23 3.80,1.16 3.89,1.10 3.99,1.07 4.10,1.04 4.20,1.05 4.31,1.05 4.41,1.09 4.51,1.13 4.59,1.19 4.67,1.26 4.73,1.35 4.78,1.44 4.81,1.55 4.83,1.65 4.82,1.75 4.81,1.86 4.77,1.96 4.73,2.05 4.65,2.13 4.58,2.21 4.49,2.26 4.40,2.31 4.29,2.33 4.19,2.35 4.08,2.34 3.98,2.32 3.88,2.27 3.79,2.22 3.71,2.15 3.64,2.07 3.59,1.98 3.55,1.88 3.53,1.77 3.52,1.67 3.52,1.67 3.52,1.67 3.34,-0.23 3.16,-2.15 3.29,-3.09 3.42,-4.03 3.74,-5.17 4.05,-6.31 4.32,-7.05 4.58,-7.79 4.65,-7.92 4.73,-8.05 4.83,-8.16 4.93,-8.26 5.06,-8.34 5.18,-8.42 5.32,-8.47 5.46,-8.52 5.61,-8.53 5.76,-8.54 5.90,-8.52 6.05,-8.50 6.18,-8.44 6.32,-8.38 6.44,-8.29 6.56,-8.20 6.65,-8.09 6.75,-7.98 6.81,-7.84 6.87,-7.71 6.91,-7.56 6.94,-7.42 6.93,-7.27 6.92,-7.12 6.88,-6.98 6.84,-6.84 6.93,-6.81 7.01,-6.77 6.74,-5.99 6.46,-5.21 5.90,-4.43 5.34,-3.64 4.63,-2.90 3.93,-2.16 3.09,-1.23 2.26,-0.31 1.33,0.10 0.39,0.52 0.32,0.56 0.25,0.60 0.18,0.62 0.10,0.64 0.02,0.65 -0.05,0.65 -0.13,0.63 -0.20,0.62 -0.28,0.58 -0.35,0.55 -0.41,0.50 -0.47,0.45 -0.52,0.39 -0.56,0.32 -0.59,0.25 -0.63,0.18 -0.64,0.10 -0.65,0.02 -0.64,-0.05 -0.64,-0.13 -0.61,-0.20 -0.59,-0.28 -0.55,-0.34 -0.50,-0.41 -0.45,-0.47 -0.39,-0.52 -0.39,-0.52 L -0.39,-0.52 Z"/></g><g transform="translate(134.3055419921875 178.05555725097656) rotate(0 3.47222900390625 -1.736114501953125)" stroke="none"><path fill="#6741d9" d="M -0.24,-0.60 Q -0.24,-0.60 0.67,-1.19 1.60,-1.77 2.31,-2.29 3.03,-2.82 3.53,-3.23 4.03,-3.64 4.33,-4.28 4.63,-4.93 5.04,-5.52 5.45,-6.11 5.60,-6.55 5.75,-6.99 5.84,-7.09 5.94,-7.20 6.06,-7.28 6.18,-7.35 6.31,-7.40 6.44,-7.45 6.58,-7.46 6.72,-7.48 6.86,-7.46 7.00,-7.44 7.13,-7.39 7.26,-7.33 7.38,-7.25 7.49,-7.17 7.58,-7.06 7.67,-6.95 7.74,-6.83 7.80,-6.70 7.83,-6.56 7.86,-6.43 7.86,-6.29 7.86,-6.15 7.82,-6.01 7.78,-5.87 7.72,-5.75 7.65,-5.63 7.66,-4.80 7.67,-3.97 7.40,-2.95 7.14,-1.92 7.04,-0.97 6.95,-0.01 6.58,1.60 6.21,3.23 6.19,3.33 6.17,3.44 6.12,3.53 6.07,3.62 5.99,3.70 5.91,3.77 5.82,3.81 5.72,3.85 5.61,3.86 5.51,3.87 5.40,3.85 5.30,3.82 5.21,3.76 5.12,3.71 5.05,3.62 4.99,3.54 4.95,3.44 4.91,3.34 4.91,3.24 4.91,3.13 4.94,3.03 4.97,2.93 5.03,2.84 5.09,2.75 5.18,2.69 5.26,2.63 5.36,2.60 5.46,2.57 5.57,2.57 5.68,2.57 5.78,2.61 5.88,2.64 5.96,2.71 6.04,2.77 6.10,2.86 6.16,2.95 6.18,3.06 6.21,3.16 6.20,3.27 6.19,3.37 6.15,3.47 6.11,3.57 6.04,3.65 5.97,3.73 5.88,3.78 5.79,3.83 5.68,3.85 5.58,3.87 5.47,3.86 5.37,3.84 5.27,3.80 5.18,3.75 5.10,3.68 5.02,3.60 4.98,3.51 4.93,3.41 4.91,3.31 4.90,3.20 4.90,3.20 4.90,3.20 4.70,1.45 4.50,-0.28 4.63,-1.41 4.76,-2.54 5.20,-3.93 5.64,-5.33 5.70,-6.16 5.75,-6.99 5.84,-7.09 5.94,-7.20 6.06,-7.28 6.17,-7.35 6.31,-7.40 6.44,-7.45 6.58,-7.46 6.72,-7.48 6.86,-7.46 7.00,-7.44 7.13,-7.39 7.26,-7.33 7.38,-7.25 7.49,-7.17 7.58,-7.06 7.67,-6.95 7.74,-6.83 7.80,-6.70 7.83,-6.57 7.86,-6.43 7.86,-6.29 7.86,-6.15 7.82,-6.01 7.78,-5.87 7.72,-5.75 7.65,-5.63 7.47,-5.22 7.29,-4.81 6.94,-4.33 6.58,-3.85 6.01,-2.92 5.44,-1.99 4.85,-1.52 4.25,-1.04 3.32,-0.43 2.39,0.17 1.31,0.39 0.24,0.60 0.16,0.63 0.09,0.65 0.01,0.65 -0.06,0.65 -0.14,0.63 -0.22,0.61 -0.29,0.58 -0.36,0.54 -0.42,0.49 -0.48,0.44 -0.52,0.37 -0.57,0.31 -0.60,0.24 -0.63,0.16 -0.64,0.09 -0.65,0.01 -0.64,-0.06 -0.64,-0.14 -0.61,-0.22 -0.58,-0.29 -0.54,-0.36 -0.49,-0.42 -0.44,-0.48 -0.38,-0.53 -0.31,-0.57 -0.24,-0.60 -0.24,-0.60 L -0.24,-0.60 Z"/></g><g transform="translate(151.66668701171875 170.4166717529297) rotate(0 3.472198486328125 6.5972137451171875)" stroke="none"><path fill="#6741d9" d="M 0.39,-0.52 Q 0.39,-0.52 1.37,-0.17 2.35,0.18 3.20,0.57 4.04,0.96 5.02,1.86 5.99,2.76 6.61,3.57 7.23,4.38 7.57,5.34 7.90,6.29 7.62,7.73 7.33,9.16 6.69,10.21 6.05,11.25 5.01,11.94 3.98,12.64 2.47,13.33 0.96,14.03 0.86,14.07 0.77,14.11 0.66,14.13 0.55,14.14 0.45,14.11 0.35,14.09 0.26,14.04 0.17,13.98 0.10,13.90 0.03,13.82 -0.00,13.72 -0.04,13.62 -0.05,13.52 -0.05,13.41 -0.02,13.31 0.00,13.20 0.06,13.12 0.12,13.03 0.20,12.96 0.28,12.90 0.39,12.87 0.49,12.83 0.59,12.83 0.70,12.83 0.80,12.87 0.90,12.90 0.98,12.97 1.07,13.03 1.13,13.12 1.19,13.21 1.22,13.31 1.24,13.41 1.24,13.52 1.23,13.62 1.19,13.72 1.15,13.82 1.08,13.90 1.02,13.98 0.92,14.04 0.83,14.09 0.73,14.11 0.63,14.14 0.52,14.13 0.41,14.11 0.32,14.07 0.22,14.02 0.14,13.95 0.07,13.88 0.02,13.78 -0.02,13.69 -0.04,13.58 -0.06,13.48 -0.04,13.38 -0.02,13.27 0.02,13.18 0.07,13.08 0.15,13.01 0.22,12.94 0.22,12.94 0.22,12.94 1.42,11.80 2.62,10.67 3.22,10.23 3.83,9.79 4.25,9.10 4.66,8.40 4.86,7.17 5.05,5.93 4.60,5.27 4.14,4.61 3.52,3.92 2.89,3.24 1.87,2.72 0.84,2.21 0.22,1.36 -0.39,0.52 -0.45,0.47 -0.50,0.41 -0.55,0.34 -0.59,0.28 -0.61,0.20 -0.64,0.13 -0.64,0.05 -0.65,-0.02 -0.64,-0.10 -0.63,-0.18 -0.59,-0.25 -0.56,-0.32 -0.52,-0.39 -0.47,-0.45 -0.41,-0.50 -0.35,-0.55 -0.27,-0.58 -0.20,-0.62 -0.13,-0.63 -0.05,-0.65 0.02,-0.65 0.10,-0.64 0.18,-0.62 0.25,-0.60 0.32,-0.56 0.39,-0.52 0.39,-0.52 L 0.39,-0.52 Z"/></g><g transform="translate(105.83331298828125 275.9722137451172) rotate(0 0.34722900390625 7.291656494140625)" stroke="none"><path fill="#6741d9" d="M 0.65,-0.07 Q 0.65,-0.07 1.15,1.69 1.65,3.45 1.75,5.25 1.85,7.05 1.88,8.82 1.91,10.58 1.62,12.71 1.34,14.84 1.33,14.94 1.31,15.05 1.26,15.14 1.21,15.23 1.14,15.31 1.06,15.38 0.96,15.43 0.87,15.47 0.76,15.49 0.66,15.50 0.55,15.48 0.45,15.45 0.36,15.40 0.26,15.35 0.20,15.27 0.13,15.19 0.09,15.09 0.05,14.99 0.04,14.88 0.03,14.78 0.06,14.67 0.09,14.57 0.15,14.48 0.20,14.40 0.29,14.33 0.37,14.27 0.47,14.23 0.57,14.20 0.68,14.19 0.79,14.19 0.89,14.23 0.99,14.26 1.07,14.32 1.16,14.39 1.22,14.47 1.28,14.56 1.31,14.66 1.34,14.77 1.33,14.87 1.33,14.98 1.29,15.08 1.25,15.18 1.18,15.26 1.12,15.34 1.02,15.39 0.93,15.45 0.83,15.47 0.73,15.50 0.62,15.49 0.52,15.48 0.42,15.43 0.32,15.39 0.24,15.32 0.17,15.24 0.12,15.15 0.07,15.06 0.05,14.95 0.03,14.85 0.03,14.85 0.03,14.85 -0.29,12.74 -0.63,10.63 -0.67,8.90 -0.71,7.17 -0.78,5.45 -0.85,3.73 -0.75,1.90 -0.65,0.07 -0.65,-0.00 -0.65,-0.08 -0.63,-0.16 -0.61,-0.23 -0.57,-0.30 -0.53,-0.37 -0.48,-0.43 -0.43,-0.49 -0.36,-0.54 -0.29,-0.58 -0.22,-0.61 -0.15,-0.63 -0.07,-0.64 0.00,-0.65 0.08,-0.64 0.16,-0.63 0.23,-0.60 0.31,-0.57 0.37,-0.53 0.44,-0.48 0.49,-0.42 0.54,-0.36 0.58,-0.29 0.61,-0.22 0.63,-0.14 0.65,-0.07 0.65,-0.07 L 0.65,-0.07 Z"/></g><g transform="translate(112.77777099609375 285.69444274902344) rotate(0 3.125 -4.8611297607421875)" stroke="none"><path fill="#6741d9" d="M -0.50,-0.42 Q -0.50,-0.42 0.28,-1.79 1.07,-3.15 1.84,-4.40 2.62,-5.65 3.36,-6.82 4.11,-7.98 4.37,-8.60 4.64,-9.22 5.01,-9.90 5.38,-10.57 5.11,-10.32 4.83,-10.07 4.89,-10.22 4.96,-10.37 5.06,-10.51 5.15,-10.64 5.28,-10.75 5.41,-10.86 5.56,-10.93 5.71,-11.00 5.87,-11.04 6.03,-11.07 6.20,-11.07 6.36,-11.07 6.52,-11.02 6.68,-10.98 6.83,-10.90 6.97,-10.82 7.09,-10.70 7.21,-10.59 7.31,-10.45 7.40,-10.31 7.45,-10.15 7.51,-10.00 7.52,-9.83 7.54,-9.67 7.51,-9.50 7.49,-9.34 7.32,-8.73 7.14,-8.12 6.87,-7.25 6.60,-6.39 6.48,-5.18 6.36,-3.97 6.22,-1.96 6.08,0.04 6.09,0.14 6.09,0.25 6.06,0.35 6.03,0.45 5.97,0.54 5.91,0.63 5.83,0.69 5.75,0.76 5.64,0.79 5.54,0.83 5.44,0.83 5.33,0.83 5.23,0.79 5.13,0.76 5.05,0.69 4.96,0.63 4.90,0.54 4.84,0.45 4.81,0.35 4.79,0.25 4.79,0.14 4.80,0.04 4.84,-0.05 4.88,-0.15 4.94,-0.23 5.01,-0.31 5.10,-0.37 5.20,-0.42 5.30,-0.45 5.40,-0.47 5.51,-0.46 5.61,-0.44 5.71,-0.40 5.81,-0.36 5.88,-0.28 5.96,-0.21 6.01,-0.12 6.06,-0.02 6.08,0.07 6.09,0.18 6.08,0.28 6.06,0.39 6.01,0.48 5.96,0.58 5.88,0.65 5.81,0.72 5.71,0.77 5.61,0.81 5.51,0.82 5.40,0.83 5.30,0.81 5.19,0.79 5.10,0.73 5.01,0.68 4.94,0.60 4.88,0.52 4.84,0.42 4.80,0.32 4.80,0.32 4.80,0.32 4.25,-1.94 3.69,-4.20 3.81,-5.72 3.93,-7.23 4.20,-8.07 4.48,-8.91 4.65,-9.49 4.83,-10.07 4.89,-10.22 4.96,-10.37 5.06,-10.51 5.15,-10.64 5.28,-10.75 5.41,-10.86 5.56,-10.93 5.71,-11.00 5.87,-11.04 6.03,-11.07 6.20,-11.07 6.36,-11.07 6.52,-11.02 6.68,-10.98 6.83,-10.90 6.97,-10.82 7.09,-10.70 7.21,-10.59 7.31,-10.45 7.40,-10.31 7.45,-10.15 7.51,-10.00 7.52,-9.83 7.54,-9.67 7.51,-9.50 7.49,-9.34 7.20,-8.76 6.91,-8.17 6.54,-7.41 6.17,-6.65 5.41,-5.51 4.66,-4.36 3.79,-2.99 2.91,-1.63 1.71,-0.60 0.50,0.42 0.44,0.47 0.38,0.52 0.32,0.56 0.25,0.60 0.17,0.62 0.09,0.64 0.01,0.65 -0.05,0.65 -0.13,0.63 -0.21,0.62 -0.28,0.58 -0.35,0.55 -0.41,0.50 -0.47,0.45 -0.52,0.38 -0.57,0.32 -0.60,0.24 -0.63,0.17 -0.64,0.09 -0.65,0.01 -0.64,-0.05 -0.64,-0.13 -0.61,-0.21 -0.59,-0.28 -0.54,-0.35 -0.50,-0.42 -0.50,-0.42 L -0.50,-0.42 Z"/></g><g transform="translate(129.4444580078125 280.1388702392578) rotate(0 1.041656494140625 2.4305572509765625)" stroke="none"><path fill="#6741d9" d="M -0.62,0.20 Q -0.62,0.20 -1.00,-0.29 -1.38,-0.79 -1.60,-0.06 -1.83,0.66 -1.89,1.23 -1.95,1.81 -1.82,2.55 -1.68,3.28 -1.46,3.95 -1.25,4.62 -0.54,5.25 0.16,5.87 0.64,5.61 1.12,5.34 1.63,4.79 2.15,4.23 2.55,3.49 2.96,2.74 3.34,1.86 3.72,0.98 3.67,0.03 3.63,-0.90 3.05,-1.06 2.48,-1.22 1.20,-1.17 -0.07,-1.11 -0.15,-1.04 -0.23,-0.97 -0.32,-0.93 -0.42,-0.89 -0.53,-0.88 -0.63,-0.87 -0.74,-0.90 -0.84,-0.93 -0.93,-0.99 -1.02,-1.05 -1.08,-1.13 -1.15,-1.21 -1.18,-1.32 -1.22,-1.42 -1.22,-1.52 -1.22,-1.63 -1.19,-1.73 -1.15,-1.83 -1.09,-1.92 -1.03,-2.00 -0.94,-2.06 -0.85,-2.12 -0.75,-2.15 -0.65,-2.18 -0.54,-2.18 -0.43,-2.17 -0.34,-2.13 -0.24,-2.09 -0.15,-2.03 -0.07,-1.96 -0.02,-1.87 0.03,-1.78 0.05,-1.67 0.08,-1.57 0.07,-1.46 0.05,-1.36 0.01,-1.26 -0.02,-1.16 -0.10,-1.09 -0.17,-1.01 -0.26,-0.96 -0.35,-0.91 -0.46,-0.89 -0.56,-0.87 -0.67,-0.89 -0.77,-0.90 -0.87,-0.95 -0.96,-1.00 -1.04,-1.08 -1.11,-1.15 -1.16,-1.25 -1.20,-1.35 -1.21,-1.45 -1.23,-1.56 -1.20,-1.66 -1.18,-1.77 -1.13,-1.86 -1.07,-1.95 -1.07,-1.95 -1.07,-1.95 1.14,-2.83 3.37,-3.72 4.18,-3.34 4.99,-2.96 5.55,-2.13 6.11,-1.30 6.15,-0.56 6.19,0.17 6.16,1.04 6.13,1.90 5.67,2.98 5.20,4.06 4.56,5.10 3.91,6.13 2.90,6.96 1.88,7.79 0.64,7.96 -0.59,8.13 -1.48,7.58 -2.38,7.03 -3.02,6.26 -3.65,5.50 -3.94,4.56 -4.23,3.62 -4.34,2.47 -4.45,1.31 -4.16,0.24 -3.86,-0.81 -3.25,-1.50 -2.64,-2.18 -1.87,-2.42 -1.09,-2.65 -0.25,-2.12 0.58,-1.59 0.60,-0.90 0.62,-0.20 0.63,-0.13 0.65,-0.05 0.65,0.02 0.64,0.10 0.62,0.18 0.60,0.25 0.56,0.32 0.52,0.39 0.46,0.45 0.41,0.50 0.34,0.55 0.28,0.59 0.20,0.61 0.13,0.64 0.05,0.64 -0.02,0.65 -0.10,0.64 -0.18,0.63 -0.25,0.59 -0.32,0.56 -0.39,0.52 -0.45,0.47 -0.50,0.41 -0.55,0.35 -0.58,0.27 -0.62,0.20 -0.62,0.20 L -0.62,0.20 Z"/></g><g transform="translate(146.111083984375 278.05555725097656) rotate(0 -0.694427490234375 3.8194427490234375)" stroke="none"><path fill="#6741d9" d="M 0,0.65 Q 0,0.65 -0.79,0.87 -1.58,1.08 -2.15,1.28 -2.71,1.48 -3.30,2.36 -3.89,3.24 -3.97,3.88 -4.04,4.51 -3.91,5.06 -3.77,5.60 -3.58,6.16 -3.39,6.72 -2.37,6.85 -1.34,6.99 -0.61,6.65 0.11,6.30 0.73,5.66 1.34,5.02 1.81,4.38 2.27,3.75 2.27,2.84 2.26,1.92 1.84,1.43 1.42,0.94 0.01,0.65 -1.38,0.35 -1.48,0.39 -1.58,0.43 -1.68,0.43 -1.79,0.43 -1.89,0.40 -1.99,0.37 -2.08,0.31 -2.17,0.25 -2.23,0.16 -2.29,0.08 -2.32,-0.02 -2.35,-0.12 -2.35,-0.22 -2.35,-0.33 -2.31,-0.43 -2.28,-0.53 -2.21,-0.61 -2.15,-0.70 -2.06,-0.75 -1.97,-0.81 -1.86,-0.84 -1.76,-0.86 -1.66,-0.86 -1.55,-0.85 -1.45,-0.81 -1.35,-0.76 -1.27,-0.69 -1.19,-0.62 -1.14,-0.53 -1.09,-0.44 -1.07,-0.33 -1.05,-0.23 -1.06,-0.12 -1.08,-0.02 -1.12,0.07 -1.17,0.16 -1.24,0.24 -1.32,0.31 -1.41,0.36 -1.51,0.41 -1.61,0.42 -1.72,0.44 -1.82,0.42 -1.93,0.40 -2.02,0.35 -2.11,0.29 -2.18,0.22 -2.26,0.14 -2.30,0.04 -2.34,-0.05 -2.35,-0.15 -2.36,-0.26 -2.33,-0.36 -2.31,-0.47 -2.25,-0.56 -2.20,-0.64 -2.11,-0.71 -2.03,-0.78 -2.03,-0.78 -2.03,-0.78 0.40,-1.12 2.84,-1.46 3.57,-0.87 4.30,-0.29 4.63,0.61 4.97,1.52 5.04,2.50 5.11,3.48 4.77,4.40 4.44,5.33 3.81,6.14 3.18,6.96 2.16,7.85 1.15,8.73 -0.07,9.18 -1.31,9.62 -2.53,9.50 -3.76,9.38 -4.72,8.59 -5.68,7.80 -6.00,6.91 -6.31,6.02 -6.42,5.04 -6.53,4.06 -6.25,2.98 -5.97,1.90 -5.45,1.20 -4.92,0.50 -4.18,-0.09 -3.43,-0.68 -2.52,-0.88 -1.60,-1.08 -0.80,-0.87 0,-0.65 0.07,-0.64 0.15,-0.63 0.23,-0.60 0.30,-0.58 0.37,-0.53 0.43,-0.49 0.48,-0.43 0.54,-0.37 0.57,-0.30 0.61,-0.23 0.63,-0.15 0.65,-0.07 0.65,0.00 0.65,0.07 0.63,0.15 0.61,0.23 0.57,0.30 0.54,0.37 0.48,0.43 0.43,0.49 0.37,0.53 0.30,0.58 0.23,0.60 0.15,0.63 0.07,0.64 -0.00,0.65 -0.00,0.65 L 0,0.65 Z"/></g><g transform="translate(158.611083984375 275.2777557373047) rotate(0 2.0833740234375 6.25)" stroke="none"><path fill="#6741d9" d="M 0.65,0 Q 0.65,0 0.88,0.39 1.11,0.78 2.27,1.52 3.43,2.26 4.05,2.63 4.67,3.00 5.36,3.71 6.05,4.42 6.43,5.34 6.82,6.26 6.75,7.31 6.67,8.35 6.10,9.33 5.52,10.31 3.51,11.51 1.49,12.71 1.40,12.76 1.31,12.81 1.20,12.82 1.10,12.84 0.99,12.82 0.89,12.81 0.79,12.76 0.70,12.71 0.63,12.63 0.55,12.55 0.51,12.46 0.46,12.36 0.45,12.25 0.44,12.15 0.46,12.05 0.49,11.94 0.54,11.85 0.60,11.76 0.68,11.69 0.76,11.62 0.86,11.58 0.96,11.54 1.06,11.54 1.17,11.53 1.27,11.56 1.37,11.59 1.46,11.65 1.55,11.71 1.61,11.79 1.68,11.88 1.71,11.98 1.75,12.08 1.75,12.19 1.75,12.29 1.71,12.39 1.68,12.49 1.61,12.58 1.55,12.66 1.46,12.72 1.37,12.78 1.27,12.81 1.17,12.84 1.06,12.83 0.96,12.83 0.86,12.79 0.76,12.75 0.68,12.68 0.60,12.61 0.54,12.52 0.49,12.43 0.46,12.32 0.44,12.22 0.45,12.11 0.47,12.01 0.51,11.91 0.55,11.82 0.63,11.74 0.70,11.66 0.70,11.66 0.70,11.66 2.04,9.68 3.37,7.69 3.49,7.01 3.61,6.32 3.33,5.85 3.04,5.38 2.30,4.85 1.57,4.32 0.97,3.75 0.37,3.19 -0.37,2.40 -1.11,1.61 -0.88,0.80 -0.65,0 -0.64,-0.07 -0.63,-0.15 -0.60,-0.23 -0.58,-0.30 -0.53,-0.37 -0.49,-0.43 -0.43,-0.48 -0.37,-0.54 -0.30,-0.57 -0.23,-0.61 -0.15,-0.63 -0.07,-0.65 0.00,-0.65 0.07,-0.65 0.15,-0.63 0.23,-0.61 0.30,-0.57 0.37,-0.54 0.43,-0.48 0.49,-0.43 0.53,-0.37 0.58,-0.30 0.60,-0.23 0.63,-0.15 0.64,-0.07 0.65,0.00 0.65,0.00 L 0.65,0 Z"/></g><g transform="translate(105.138916015625 312.7777557373047) rotate(0 1.388885498046875 8.680557250976562)" stroke="none"><path fill="#6741d9" d="M 0.58,-0.29 Q 0.58,-0.29 1.23,0.39 1.88,1.07 2.14,2.38 2.39,3.68 2.50,5.43 2.60,7.17 2.84,8.83 3.07,10.48 3.14,11.85 3.21,13.22 3.23,14.98 3.25,16.75 3.27,16.86 3.29,16.96 3.28,17.07 3.26,17.17 3.21,17.27 3.17,17.36 3.09,17.44 3.01,17.51 2.92,17.56 2.82,17.60 2.72,17.62 2.61,17.63 2.51,17.61 2.40,17.59 2.31,17.53 2.22,17.48 2.15,17.40 2.08,17.32 2.04,17.22 2.00,17.13 1.99,17.02 1.98,16.91 2.01,16.81 2.04,16.71 2.09,16.62 2.15,16.53 2.24,16.46 2.32,16.40 2.42,16.36 2.52,16.33 2.62,16.33 2.73,16.32 2.83,16.36 2.93,16.39 3.02,16.45 3.10,16.51 3.17,16.60 3.23,16.69 3.26,16.79 3.29,16.89 3.28,17.00 3.28,17.10 3.24,17.20 3.20,17.30 3.14,17.38 3.07,17.47 2.98,17.52 2.89,17.58 2.79,17.60 2.68,17.63 2.58,17.62 2.47,17.61 2.37,17.57 2.28,17.52 2.20,17.45 2.12,17.38 2.07,17.29 2.02,17.19 2.02,17.19 2.02,17.19 1.34,15.30 0.65,13.41 0.53,12.12 0.41,10.84 0.18,9.06 -0.04,7.29 -0.08,5.67 -0.12,4.06 -0.20,3.09 -0.28,2.11 -0.43,1.20 -0.58,0.29 -0.61,0.21 -0.64,0.14 -0.64,0.06 -0.65,-0.01 -0.64,-0.09 -0.63,-0.16 -0.60,-0.24 -0.57,-0.31 -0.52,-0.38 -0.48,-0.44 -0.42,-0.49 -0.36,-0.54 -0.29,-0.58 -0.22,-0.61 -0.14,-0.63 -0.06,-0.65 0.01,-0.65 0.09,-0.65 0.16,-0.62 0.24,-0.60 0.31,-0.57 0.38,-0.53 0.44,-0.47 0.50,-0.42 0.54,-0.35 0.58,-0.29 0.58,-0.29 L 0.58,-0.29 Z"/></g><g transform="translate(119.72222900390625 314.16664123535156) rotate(0 1.38885498046875 3.8194580078125)" stroke="none"><path fill="#6741d9" d="M 0.39,0.52 Q 0.39,0.52 -0.24,1.33 -0.88,2.13 -1.51,2.91 -2.14,3.68 -2.34,4.29 -2.55,4.90 -2.88,5.61 -3.21,6.32 -3.06,7.14 -2.92,7.96 -2.28,8.01 -1.64,8.06 -0.69,7.96 0.26,7.85 1.46,7.64 2.66,7.43 3.36,6.83 4.06,6.22 4.75,5.41 5.43,4.60 5.64,4.03 5.85,3.45 5.53,2.46 5.21,1.47 4.95,0.86 4.68,0.24 3.96,-0.07 3.23,-0.39 2.54,-0.37 1.84,-0.35 0.59,0.60 -0.66,1.55 -0.74,1.62 -0.82,1.69 -0.92,1.72 -1.02,1.76 -1.13,1.77 -1.23,1.77 -1.33,1.75 -1.44,1.72 -1.52,1.66 -1.61,1.60 -1.68,1.51 -1.74,1.43 -1.77,1.33 -1.81,1.23 -1.81,1.12 -1.81,1.01 -1.77,0.91 -1.74,0.81 -1.67,0.73 -1.61,0.64 -1.52,0.58 -1.43,0.52 -1.33,0.50 -1.23,0.47 -1.12,0.47 -1.02,0.48 -0.92,0.52 -0.82,0.56 -0.74,0.63 -0.66,0.70 -0.60,0.79 -0.55,0.88 -0.53,0.98 -0.50,1.09 -0.52,1.19 -0.53,1.30 -0.57,1.40 -0.62,1.49 -0.69,1.57 -0.76,1.65 -0.86,1.70 -0.95,1.74 -1.06,1.76 -1.16,1.78 -1.27,1.76 -1.37,1.74 -1.47,1.69 -1.56,1.64 -1.63,1.57 -1.70,1.49 -1.75,1.39 -1.79,1.29 -1.80,1.19 -1.81,1.08 -1.79,0.98 -1.77,0.88 -1.71,0.79 -1.66,0.69 -1.66,0.69 -1.66,0.69 -0.34,-1.10 0.96,-2.90 1.72,-3.12 2.49,-3.34 3.32,-3.24 4.15,-3.14 5.02,-2.78 5.89,-2.43 6.59,-1.69 7.29,-0.95 7.61,-0.16 7.94,0.62 8.18,1.48 8.42,2.35 8.41,3.38 8.40,4.40 7.93,5.38 7.46,6.37 6.54,7.35 5.62,8.33 4.41,9.12 3.21,9.91 1.82,10.16 0.42,10.41 -0.98,10.45 -2.38,10.49 -3.53,9.95 -4.68,9.41 -5.09,8.40 -5.51,7.39 -5.51,6.41 -5.52,5.43 -5.18,4.69 -4.85,3.95 -4.42,3.03 -4.00,2.12 -3.15,1.19 -2.31,0.25 -1.35,-0.13 -0.39,-0.52 -0.32,-0.56 -0.25,-0.60 -0.18,-0.62 -0.10,-0.64 -0.02,-0.65 0.05,-0.65 0.13,-0.63 0.20,-0.62 0.28,-0.58 0.35,-0.55 0.41,-0.50 0.47,-0.45 0.52,-0.39 0.56,-0.32 0.59,-0.25 0.63,-0.18 0.64,-0.10 0.65,-0.02 0.64,0.05 0.64,0.13 0.61,0.20 0.59,0.28 0.55,0.34 0.50,0.41 0.45,0.47 0.39,0.52 0.39,0.52 L 0.39,0.52 Z"/></g><g transform="translate(131.52777099609375 316.94444274902344) rotate(0 3.125 -3.8194580078125)" stroke="none"><path fill="#6741d9" d="M -0.46,-0.46 Q -0.46,-0.46 0.34,-1.65 1.14,-2.84 2.09,-4.20 3.04,-5.56 3.61,-6.70 4.18,-7.84 4.38,-8.49 4.58,-9.14 4.67,-9.66 4.76,-10.17 4.84,-10.32 4.92,-10.47 5.03,-10.59 5.14,-10.72 5.28,-10.82 5.42,-10.91 5.58,-10.97 5.74,-11.03 5.91,-11.05 6.08,-11.07 6.24,-11.05 6.41,-11.03 6.57,-10.97 6.73,-10.91 6.87,-10.82 7.01,-10.72 7.12,-10.59 7.23,-10.47 7.31,-10.32 7.39,-10.17 7.43,-10.00 7.47,-9.84 7.47,-9.67 7.47,-9.50 7.43,-9.34 7.39,-9.17 7.04,-7.44 6.70,-5.70 6.59,-4.65 6.48,-3.60 6.40,-2.37 6.31,-1.14 6.18,0.52 6.06,2.20 6.07,2.30 6.09,2.41 6.07,2.51 6.05,2.62 6.00,2.71 5.95,2.80 5.87,2.87 5.79,2.95 5.69,2.99 5.60,3.03 5.49,3.04 5.38,3.05 5.28,3.03 5.18,3.00 5.09,2.95 5.00,2.89 4.93,2.81 4.86,2.72 4.82,2.63 4.79,2.53 4.78,2.42 4.78,2.31 4.81,2.21 4.84,2.11 4.90,2.02 4.96,1.94 5.05,1.87 5.13,1.81 5.23,1.78 5.34,1.75 5.44,1.75 5.55,1.75 5.65,1.79 5.75,1.82 5.83,1.89 5.91,1.95 5.97,2.04 6.03,2.13 6.06,2.23 6.08,2.34 6.08,2.44 6.07,2.55 6.03,2.65 5.99,2.74 5.92,2.82 5.85,2.90 5.76,2.96 5.66,3.01 5.56,3.03 5.45,3.05 5.35,3.04 5.24,3.03 5.15,2.98 5.05,2.93 4.98,2.86 4.90,2.78 4.85,2.69 4.80,2.59 4.80,2.59 4.80,2.59 4.17,0.67 3.54,-1.24 3.55,-2.57 3.56,-3.89 3.68,-5.10 3.79,-6.31 4.07,-7.59 4.35,-8.87 4.55,-9.52 4.76,-10.17 4.84,-10.32 4.92,-10.47 5.03,-10.59 5.14,-10.72 5.28,-10.82 5.42,-10.91 5.58,-10.97 5.74,-11.03 5.91,-11.05 6.08,-11.07 6.24,-11.05 6.41,-11.03 6.57,-10.97 6.73,-10.91 6.87,-10.82 7.01,-10.72 7.12,-10.59 7.23,-10.47 7.31,-10.32 7.39,-10.17 7.43,-10.00 7.47,-9.84 7.47,-9.67 7.47,-9.50 7.43,-9.34 7.39,-9.17 7.25,-8.68 7.11,-8.19 6.77,-7.42 6.43,-6.65 5.74,-5.38 5.04,-4.12 3.94,-2.63 2.84,-1.15 1.65,-0.34 0.46,0.46 0.40,0.51 0.33,0.56 0.26,0.59 0.19,0.62 0.11,0.64 0.03,0.65 -0.03,0.65 -0.11,0.64 -0.19,0.62 -0.26,0.59 -0.33,0.55 -0.40,0.51 -0.46,0.46 -0.51,0.40 -0.55,0.33 -0.59,0.26 -0.62,0.19 -0.64,0.11 -0.65,0.03 -0.65,-0.03 -0.64,-0.11 -0.62,-0.19 -0.59,-0.26 -0.56,-0.33 -0.51,-0.40 -0.46,-0.46 -0.46,-0.46 L -0.46,-0.46 Z"/></g><g transform="translate(146.111083984375 315.55555725097656) rotate(0 3.47222900390625 -3.1250152587890625)" stroke="none"><path fill="#6741d9" d="M -0.39,-0.52 Q -0.39,-0.52 0.25,-1.31 0.90,-2.11 1.59,-2.75 2.28,-3.39 2.92,-4.20 3.55,-5.02 4.22,-5.97 4.89,-6.93 5.17,-7.53 5.45,-8.13 5.44,-8.16 5.42,-8.19 5.52,-8.34 5.62,-8.49 5.75,-8.61 5.88,-8.74 6.03,-8.82 6.19,-8.91 6.36,-8.96 6.53,-9.01 6.71,-9.01 6.89,-9.02 7.06,-8.98 7.24,-8.94 7.40,-8.86 7.56,-8.79 7.69,-8.67 7.83,-8.56 7.94,-8.41 8.04,-8.27 8.11,-8.11 8.18,-7.94 8.20,-7.76 8.23,-7.59 8.22,-7.41 8.20,-7.23 8.14,-7.06 8.08,-6.90 7.96,-5.37 7.84,-3.84 7.76,-2.74 7.69,-1.64 7.62,-0.00 7.54,1.63 7.54,1.73 7.53,1.84 7.50,1.94 7.46,2.04 7.40,2.12 7.33,2.21 7.24,2.26 7.15,2.32 7.05,2.35 6.94,2.37 6.84,2.36 6.73,2.36 6.64,2.31 6.54,2.27 6.46,2.20 6.38,2.13 6.33,2.04 6.27,1.95 6.25,1.84 6.23,1.74 6.25,1.63 6.26,1.53 6.31,1.43 6.35,1.34 6.43,1.26 6.50,1.19 6.60,1.14 6.69,1.09 6.80,1.08 6.90,1.06 7.01,1.08 7.11,1.10 7.21,1.15 7.30,1.21 7.37,1.28 7.44,1.36 7.48,1.46 7.53,1.56 7.53,1.66 7.54,1.77 7.52,1.87 7.49,1.98 7.44,2.07 7.38,2.16 7.30,2.22 7.21,2.29 7.11,2.33 7.01,2.36 6.91,2.37 6.80,2.37 6.70,2.34 6.60,2.31 6.51,2.25 6.43,2.18 6.36,2.10 6.30,2.01 6.27,1.91 6.24,1.81 6.24,1.81 6.24,1.81 5.56,0.06 4.88,-1.68 4.86,-2.84 4.84,-3.99 4.92,-5.38 5.00,-6.76 5.21,-7.48 5.42,-8.19 5.52,-8.34 5.62,-8.49 5.75,-8.61 5.88,-8.74 6.03,-8.82 6.19,-8.91 6.36,-8.96 6.53,-9.01 6.71,-9.01 6.89,-9.02 7.06,-8.98 7.24,-8.94 7.40,-8.86 7.56,-8.79 7.69,-8.67 7.83,-8.56 7.94,-8.41 8.04,-8.27 8.11,-8.11 8.18,-7.94 8.20,-7.76 8.23,-7.59 8.22,-7.41 8.20,-7.23 8.14,-7.06 8.08,-6.90 7.81,-6.81 7.54,-6.72 7.23,-6.09 6.91,-5.47 6.18,-4.48 5.44,-3.49 4.65,-2.55 3.86,-1.62 3.07,-0.95 2.28,-0.28 1.33,0.12 0.39,0.52 0.32,0.56 0.25,0.60 0.18,0.62 0.10,0.64 0.02,0.65 -0.05,0.65 -0.13,0.63 -0.20,0.62 -0.28,0.58 -0.35,0.55 -0.41,0.50 -0.47,0.45 -0.52,0.39 -0.56,0.32 -0.59,0.25 -0.63,0.18 -0.64,0.10 -0.65,0.02 -0.64,-0.05 -0.64,-0.13 -0.61,-0.20 -0.59,-0.28 -0.55,-0.34 -0.50,-0.41 -0.45,-0.47 -0.39,-0.52 -0.39,-0.52 L -0.39,-0.52 Z"/></g><g transform="translate(160 307.2222137451172) rotate(0 2.77777099609375 7.638885498046875)" stroke="none"><path fill="#6741d9" d="M 0.46,-0.46 Q 0.46,-0.46 1.48,0.11 2.50,0.68 3.41,1.35 4.33,2.02 5.10,3.07 5.88,4.13 6.26,5.32 6.64,6.52 6.58,8.18 6.53,9.84 5.98,11.07 5.43,12.30 3.80,14.08 2.17,15.87 2.11,15.96 2.05,16.04 1.96,16.10 1.87,16.16 1.77,16.19 1.67,16.22 1.56,16.22 1.45,16.21 1.36,16.17 1.26,16.13 1.18,16.06 1.09,16.00 1.04,15.90 0.98,15.81 0.96,15.71 0.94,15.61 0.95,15.50 0.96,15.39 1.00,15.30 1.05,15.20 1.12,15.12 1.19,15.05 1.29,15.00 1.38,14.95 1.49,14.93 1.59,14.91 1.70,14.93 1.80,14.95 1.90,14.99 1.99,15.04 2.06,15.12 2.14,15.20 2.18,15.29 2.23,15.39 2.24,15.50 2.25,15.60 2.23,15.71 2.20,15.81 2.15,15.90 2.10,15.99 2.01,16.06 1.93,16.13 1.84,16.17 1.74,16.21 1.63,16.22 1.52,16.22 1.42,16.19 1.32,16.17 1.23,16.11 1.14,16.05 1.08,15.96 1.01,15.88 0.98,15.78 0.95,15.68 0.95,15.57 0.95,15.46 0.98,15.36 1.01,15.26 1.01,15.26 1.01,15.26 1.91,13.19 2.80,11.12 3.13,10.35 3.46,9.57 3.59,8.40 3.71,7.22 3.58,6.44 3.45,5.66 3.03,4.89 2.61,4.12 1.65,3.31 0.69,2.50 0.11,1.48 -0.46,0.46 -0.51,0.40 -0.56,0.33 -0.59,0.26 -0.62,0.19 -0.64,0.11 -0.65,0.03 -0.65,-0.03 -0.64,-0.11 -0.62,-0.19 -0.59,-0.26 -0.55,-0.33 -0.51,-0.40 -0.46,-0.46 -0.40,-0.51 -0.33,-0.55 -0.26,-0.59 -0.19,-0.62 -0.11,-0.64 -0.03,-0.65 0.03,-0.65 0.11,-0.64 0.19,-0.62 0.26,-0.59 0.33,-0.56 0.40,-0.51 0.46,-0.46 0.46,-0.46 L 0.46,-0.46 Z"/></g><g transform="translate(253.0555419921875 133.61109924316406) rotate(0 1.041656494140625 6.2500152587890625)" stroke="none"><path fill="#6741d9" d="M 0.65,0 Q 0.65,0 0.95,0.99 1.24,1.99 1.26,3.21 1.27,4.44 1.29,5.96 1.30,7.47 1.27,8.91 1.24,10.35 1.70,11.40 2.16,12.44 2.23,12.51 2.31,12.59 2.35,12.68 2.40,12.78 2.42,12.88 2.43,12.99 2.41,13.09 2.39,13.20 2.34,13.29 2.29,13.38 2.21,13.45 2.13,13.52 2.03,13.57 1.93,13.61 1.83,13.62 1.72,13.63 1.62,13.60 1.52,13.58 1.43,13.52 1.34,13.46 1.27,13.38 1.20,13.30 1.17,13.20 1.13,13.10 1.13,12.99 1.12,12.89 1.15,12.78 1.19,12.68 1.25,12.60 1.31,12.51 1.39,12.45 1.48,12.38 1.58,12.35 1.68,12.32 1.79,12.32 1.90,12.33 2.00,12.36 2.10,12.40 2.18,12.47 2.26,12.53 2.32,12.62 2.38,12.71 2.40,12.81 2.43,12.92 2.42,13.02 2.41,13.13 2.37,13.23 2.33,13.32 2.26,13.40 2.19,13.48 2.09,13.54 2.00,13.59 1.90,13.61 1.79,13.63 1.69,13.61 1.58,13.60 1.49,13.55 1.39,13.51 1.39,13.51 1.39,13.51 0.07,11.94 -1.24,10.37 -1.27,8.92 -1.30,7.47 -1.29,5.96 -1.27,4.44 -1.26,3.21 -1.24,1.99 -0.95,0.99 -0.65,0 -0.64,-0.07 -0.63,-0.15 -0.60,-0.23 -0.58,-0.30 -0.53,-0.37 -0.49,-0.43 -0.43,-0.48 -0.37,-0.54 -0.30,-0.57 -0.23,-0.61 -0.15,-0.63 -0.07,-0.65 0.00,-0.65 0.07,-0.65 0.15,-0.63 0.23,-0.61 0.30,-0.57 0.37,-0.54 0.43,-0.48 0.49,-0.43 0.53,-0.37 0.58,-0.30 0.60,-0.23 0.63,-0.15 0.64,-0.07 0.65,0.00 0.65,0.00 L 0.65,0 Z"/></g><g transform="translate(252.361083984375 134.99998474121094) rotate(0 -0.347198486328125 4.8611297607421875)" stroke="none"><path fill="#6741d9" d="M -0.62,0.20 Q -0.62,0.20 -1.04,-0.31 -1.47,-0.84 -1.49,-0.97 -1.52,-1.10 -1.51,-1.24 -1.51,-1.37 -1.47,-1.51 -1.43,-1.64 -1.36,-1.75 -1.30,-1.87 -1.20,-1.97 -1.11,-2.07 -0.99,-2.14 -0.88,-2.21 -0.75,-2.26 -0.62,-2.30 -0.48,-2.31 -0.35,-2.32 -0.21,-2.30 -0.08,-2.28 0.04,-2.22 0.16,-2.17 0.27,-2.09 0.38,-2.01 0.46,-1.90 0.55,-1.80 0.61,-1.67 0.67,-1.55 0.69,-0.87 0.72,-0.19 0.72,1.03 0.71,2.26 0.71,3.41 0.71,4.55 0.72,5.64 0.72,6.72 0.72,7.58 0.71,8.45 0.60,9.84 0.48,11.24 0.50,11.34 0.53,11.45 0.51,11.55 0.50,11.66 0.45,11.75 0.41,11.85 0.33,11.92 0.26,12.00 0.16,12.05 0.07,12.10 -0.03,12.11 -0.13,12.13 -0.24,12.11 -0.34,12.09 -0.43,12.04 -0.53,11.99 -0.60,11.91 -0.67,11.83 -0.71,11.73 -0.76,11.64 -0.77,11.53 -0.78,11.42 -0.75,11.32 -0.73,11.22 -0.67,11.13 -0.61,11.04 -0.53,10.97 -0.45,10.90 -0.35,10.86 -0.25,10.83 -0.14,10.82 -0.04,10.82 0.05,10.85 0.16,10.88 0.24,10.94 0.33,11.00 0.39,11.09 0.45,11.17 0.49,11.27 0.52,11.38 0.52,11.48 0.52,11.59 0.48,11.69 0.44,11.79 0.38,11.87 0.31,11.95 0.22,12.01 0.14,12.07 0.03,12.10 -0.06,12.12 -0.17,12.12 -0.27,12.11 -0.37,12.07 -0.47,12.03 -0.55,11.96 -0.63,11.89 -0.68,11.80 -0.73,11.70 -0.73,11.70 -0.73,11.70 -1.42,10.07 -2.10,8.44 -2.10,7.58 -2.10,6.72 -2.09,5.63 -2.08,4.53 -2.07,3.37 -2.06,2.21 -2.03,1.35 -2.00,0.49 -1.73,-0.17 -1.46,-0.84 -1.49,-0.97 -1.52,-1.10 -1.51,-1.24 -1.51,-1.37 -1.47,-1.51 -1.43,-1.64 -1.36,-1.75 -1.30,-1.87 -1.20,-1.97 -1.11,-2.07 -0.99,-2.14 -0.88,-2.21 -0.75,-2.26 -0.62,-2.30 -0.48,-2.31 -0.35,-2.32 -0.21,-2.30 -0.08,-2.28 0.04,-2.22 0.16,-2.17 0.27,-2.09 0.38,-2.01 0.46,-1.90 0.55,-1.80 0.61,-1.67 0.67,-1.55 0.64,-0.88 0.62,-0.20 0.63,-0.13 0.65,-0.05 0.65,0.02 0.64,0.10 0.62,0.18 0.60,0.25 0.56,0.32 0.52,0.39 0.46,0.45 0.41,0.50 0.34,0.55 0.28,0.59 0.20,0.61 0.13,0.64 0.05,0.64 -0.02,0.65 -0.10,0.64 -0.18,0.63 -0.25,0.59 -0.32,0.56 -0.39,0.52 -0.45,0.47 -0.50,0.41 -0.55,0.35 -0.58,0.27 -0.62,0.20 -0.62,0.20 L -0.62,0.20 Z"/></g><g transform="translate(241.25 275.2777557373047) rotate(0 0 8.333343505859375)" stroke="none"><path fill="#6741d9" d="M 0.64,0.10 Q 0.64,0.10 0.71,1.35 0.78,2.59 0.72,4.03 0.66,5.47 0.84,7.22 1.01,8.97 1.04,10.58 1.07,12.19 1.17,14.17 1.28,16.15 1.28,16.26 1.27,16.37 1.24,16.47 1.20,16.57 1.14,16.65 1.07,16.73 0.98,16.79 0.90,16.85 0.79,16.88 0.69,16.90 0.58,16.90 0.48,16.89 0.38,16.85 0.28,16.81 0.20,16.74 0.12,16.67 0.07,16.58 0.01,16.48 -0.00,16.38 -0.02,16.28 -0.00,16.17 0.00,16.07 0.04,15.97 0.09,15.87 0.16,15.80 0.24,15.72 0.33,15.67 0.43,15.62 0.53,15.61 0.64,15.59 0.74,15.61 0.85,15.63 0.94,15.68 1.03,15.73 1.11,15.81 1.18,15.89 1.22,15.99 1.26,16.08 1.27,16.19 1.28,16.30 1.26,16.40 1.23,16.50 1.18,16.59 1.12,16.68 1.04,16.75 0.96,16.82 0.86,16.86 0.76,16.89 0.65,16.90 0.55,16.90 0.45,16.87 0.34,16.84 0.26,16.78 0.17,16.72 0.11,16.63 0.04,16.55 0.01,16.45 -0.01,16.35 -0.01,16.35 -0.01,16.35 -0.64,14.32 -1.27,12.30 -1.38,10.75 -1.49,9.19 -1.65,7.27 -1.80,5.34 -1.69,3.77 -1.58,2.19 -1.11,1.04 -0.64,-0.10 -0.62,-0.18 -0.60,-0.25 -0.56,-0.32 -0.52,-0.39 -0.46,-0.45 -0.41,-0.51 -0.34,-0.55 -0.27,-0.59 -0.20,-0.61 -0.12,-0.64 -0.04,-0.64 0.02,-0.65 0.10,-0.64 0.18,-0.62 0.25,-0.59 0.33,-0.56 0.39,-0.51 0.45,-0.47 0.50,-0.41 0.55,-0.34 0.59,-0.27 0.62,-0.20 0.63,-0.12 0.65,-0.05 0.65,0.02 0.64,0.10 0.64,0.10 L 0.64,0.10 Z"/></g><g transform="translate(256.52777099609375 278.05555725097656) rotate(0 2.4305419921875 3.819427490234375)" stroke="none"><path fill="#6741d9" d="M 0.20,0.62 Q 0.20,0.62 -0.31,1.02 -0.83,1.42 -1.31,1.84 -1.79,2.26 -2.11,2.91 -2.42,3.56 -2.55,4.33 -2.68,5.11 -2.74,6.02 -2.80,6.93 -2.25,7.46 -1.69,7.99 -1.01,8.09 -0.33,8.20 0.93,8.27 2.20,8.33 3.26,8.17 4.31,8.02 5.21,7.62 6.11,7.23 6.53,6.43 6.94,5.63 7.13,4.83 7.32,4.03 7.02,3.31 6.73,2.59 6.28,1.93 5.82,1.28 5.27,0.62 4.72,-0.03 3.03,0.15 1.33,0.34 1.24,0.39 1.14,0.44 1.04,0.45 0.93,0.47 0.83,0.45 0.72,0.43 0.63,0.37 0.54,0.32 0.47,0.24 0.39,0.17 0.35,0.07 0.31,-0.02 0.30,-0.13 0.29,-0.23 0.32,-0.33 0.34,-0.44 0.40,-0.53 0.45,-0.62 0.54,-0.68 0.62,-0.75 0.72,-0.79 0.82,-0.83 0.92,-0.83 1.03,-0.83 1.13,-0.80 1.23,-0.77 1.32,-0.71 1.41,-0.65 1.47,-0.56 1.53,-0.48 1.56,-0.37 1.60,-0.27 1.59,-0.17 1.59,-0.06 1.55,0.03 1.52,0.13 1.45,0.21 1.39,0.30 1.30,0.35 1.21,0.41 1.10,0.44 1.00,0.46 0.90,0.46 0.79,0.45 0.69,0.41 0.59,0.36 0.52,0.29 0.44,0.22 0.38,0.13 0.33,0.04 0.31,-0.06 0.29,-0.16 0.30,-0.27 0.32,-0.37 0.36,-0.47 0.41,-0.56 0.49,-0.64 0.56,-0.71 0.56,-0.71 0.56,-0.71 2.75,-1.80 4.95,-2.88 5.89,-2.39 6.82,-1.89 7.51,-1.04 8.20,-0.18 8.78,0.83 9.36,1.85 9.63,3.19 9.89,4.54 9.51,5.79 9.13,7.04 8.21,8.23 7.29,9.42 5.99,9.97 4.68,10.52 3.37,10.68 2.06,10.85 0.59,10.75 -0.88,10.65 -1.97,10.36 -3.06,10.07 -3.93,9.33 -4.79,8.58 -5.03,7.68 -5.26,6.77 -5.16,5.68 -5.05,4.60 -4.77,3.49 -4.49,2.38 -3.85,1.42 -3.21,0.46 -2.38,-0.07 -1.55,-0.62 -0.88,-0.62 -0.20,-0.62 -0.13,-0.63 -0.05,-0.65 0.02,-0.65 0.10,-0.64 0.18,-0.62 0.25,-0.60 0.32,-0.56 0.39,-0.52 0.45,-0.46 0.50,-0.41 0.55,-0.34 0.59,-0.28 0.61,-0.20 0.64,-0.13 0.64,-0.05 0.65,0.02 0.64,0.10 0.63,0.18 0.59,0.25 0.56,0.32 0.52,0.39 0.47,0.45 0.41,0.50 0.35,0.55 0.27,0.58 0.20,0.62 0.20,0.62 L 0.20,0.62 Z"/></g><g transform="translate(271.8055419921875 281.5277557373047) rotate(0 2.77777099609375 -1.7360992431640625)" stroke="none"><path fill="#6741d9" d="M 0,-0.65 Q 0,-0.65 0.42,-0.79 0.84,-0.93 1.34,-2.03 1.84,-3.13 2.40,-4.03 2.97,-4.93 3.36,-5.69 3.76,-6.44 4.03,-7.07 4.29,-7.69 4.16,-7.55 4.03,-7.40 4.11,-7.56 4.19,-7.72 4.31,-7.86 4.42,-7.99 4.57,-8.10 4.71,-8.20 4.88,-8.27 5.05,-8.34 5.22,-8.36 5.40,-8.39 5.58,-8.37 5.76,-8.35 5.93,-8.29 6.10,-8.23 6.24,-8.14 6.39,-8.04 6.52,-7.91 6.64,-7.77 6.72,-7.62 6.81,-7.46 6.86,-7.29 6.90,-7.11 6.91,-6.93 6.91,-6.76 6.87,-6.58 6.83,-6.41 6.42,-5.70 6.00,-4.99 5.95,-4.01 5.90,-3.04 5.59,-1.67 5.28,-0.30 5.04,1.69 4.79,3.69 4.78,3.80 4.77,3.90 4.73,4.00 4.68,4.09 4.61,4.17 4.54,4.25 4.44,4.30 4.35,4.35 4.24,4.37 4.14,4.38 4.03,4.36 3.93,4.35 3.83,4.30 3.74,4.25 3.67,4.17 3.59,4.09 3.55,4.00 3.51,3.90 3.49,3.79 3.48,3.69 3.51,3.59 3.53,3.48 3.58,3.39 3.64,3.30 3.72,3.23 3.80,3.16 3.90,3.12 4.00,3.08 4.10,3.08 4.21,3.07 4.31,3.10 4.42,3.13 4.50,3.19 4.59,3.25 4.65,3.33 4.72,3.42 4.75,3.52 4.79,3.62 4.79,3.73 4.79,3.83 4.75,3.93 4.72,4.03 4.65,4.12 4.59,4.20 4.50,4.26 4.41,4.32 4.31,4.35 4.21,4.38 4.10,4.37 4.00,4.37 3.90,4.33 3.80,4.29 3.72,4.22 3.64,4.15 3.58,4.06 3.53,3.97 3.51,3.86 3.48,3.76 3.48,3.76 3.48,3.76 2.96,1.45 2.44,-0.84 2.66,-2.13 2.88,-3.42 3.14,-4.94 3.40,-6.46 3.72,-6.93 4.03,-7.40 4.11,-7.56 4.19,-7.72 4.31,-7.86 4.42,-7.99 4.57,-8.10 4.71,-8.20 4.88,-8.27 5.05,-8.34 5.22,-8.36 5.40,-8.39 5.58,-8.37 5.76,-8.35 5.93,-8.29 6.10,-8.23 6.24,-8.14 6.39,-8.04 6.52,-7.91 6.64,-7.77 6.72,-7.62 6.81,-7.46 6.86,-7.29 6.90,-7.11 6.91,-6.94 6.91,-6.76 6.87,-6.58 6.83,-6.41 6.43,-5.78 6.04,-5.15 5.55,-4.36 5.07,-3.57 4.50,-2.72 3.93,-1.87 3.49,-1.18 3.04,-0.48 2.29,0.22 1.54,0.93 0.77,0.79 0,0.65 -0.07,0.64 -0.15,0.63 -0.23,0.60 -0.30,0.58 -0.37,0.53 -0.43,0.49 -0.48,0.43 -0.54,0.37 -0.57,0.30 -0.61,0.23 -0.63,0.15 -0.65,0.07 -0.65,-0.00 -0.65,-0.07 -0.63,-0.15 -0.61,-0.23 -0.57,-0.30 -0.54,-0.37 -0.48,-0.43 -0.43,-0.49 -0.37,-0.53 -0.30,-0.58 -0.23,-0.60 -0.15,-0.63 -0.07,-0.64 0.00,-0.65 0.00,-0.65 L 0,-0.65 Z"/></g><g transform="translate(287.77777099609375 275.9722137451172) rotate(0 0.694427490234375 3.4722137451171875)" stroke="none"><path fill="#6741d9" d="M 0.20,0.62 Q 0.20,0.62 -0.29,1.00 -0.80,1.38 -1.56,2.52 -2.32,3.66 -2.48,4.25 -2.64,4.84 -2.71,5.45 -2.78,6.07 -2.81,6.90 -2.84,7.74 -2.68,8.33 -2.52,8.91 -1.84,8.92 -1.15,8.93 -0.09,8.67 0.97,8.41 1.54,7.77 2.12,7.14 2.57,6.50 3.03,5.85 3.41,5.21 3.80,4.56 3.90,3.85 4.00,3.15 4.07,2.62 4.13,2.09 3.97,1.24 3.80,0.39 3.40,-0.23 3.01,-0.86 1.47,-0.94 -0.06,-1.02 -0.16,-0.97 -0.26,-0.93 -0.36,-0.91 -0.47,-0.90 -0.57,-0.92 -0.67,-0.95 -0.77,-1.00 -0.86,-1.05 -0.93,-1.13 -1.00,-1.22 -1.04,-1.31 -1.08,-1.41 -1.08,-1.52 -1.09,-1.62 -1.06,-1.73 -1.03,-1.83 -0.98,-1.92 -0.92,-2.01 -0.83,-2.07 -0.75,-2.14 -0.65,-2.17 -0.55,-2.21 -0.44,-2.21 -0.34,-2.21 -0.23,-2.17 -0.13,-2.14 -0.05,-2.08 0.03,-2.01 0.09,-1.93 0.15,-1.84 0.18,-1.74 0.21,-1.63 0.20,-1.53 0.20,-1.42 0.16,-1.32 0.12,-1.22 0.05,-1.14 -0.01,-1.06 -0.10,-1.01 -0.19,-0.95 -0.29,-0.93 -0.40,-0.90 -0.50,-0.91 -0.61,-0.92 -0.70,-0.97 -0.80,-1.01 -0.88,-1.08 -0.96,-1.16 -1.01,-1.25 -1.06,-1.34 -1.08,-1.45 -1.09,-1.55 -1.08,-1.66 -1.06,-1.76 -1.01,-1.86 -0.96,-1.95 -0.89,-2.03 -0.81,-2.10 -0.81,-2.10 -0.81,-2.10 1.43,-2.90 3.68,-3.69 4.50,-2.94 5.32,-2.19 5.86,-1.13 6.41,-0.07 6.57,1.16 6.74,2.40 6.66,3.03 6.57,3.66 6.32,4.76 6.06,5.85 5.60,6.62 5.14,7.38 4.55,8.18 3.96,8.98 3.01,9.86 2.07,10.75 0.92,11.17 -0.22,11.60 -0.88,11.54 -1.55,11.48 -2.76,11.16 -3.97,10.85 -4.46,10.22 -4.95,9.60 -5.15,8.62 -5.35,7.64 -5.29,6.67 -5.23,5.70 -5.08,4.88 -4.94,4.07 -4.59,3.18 -4.25,2.28 -3.59,1.44 -2.93,0.59 -2.26,0.00 -1.59,-0.58 -0.90,-0.60 -0.20,-0.62 -0.13,-0.63 -0.05,-0.65 0.02,-0.65 0.10,-0.64 0.18,-0.62 0.25,-0.60 0.32,-0.56 0.39,-0.52 0.45,-0.46 0.50,-0.41 0.55,-0.34 0.59,-0.28 0.61,-0.20 0.64,-0.13 0.64,-0.05 0.65,0.02 0.64,0.10 0.63,0.18 0.59,0.25 0.56,0.32 0.52,0.39 0.47,0.45 0.41,0.50 0.35,0.55 0.27,0.58 0.20,0.62 0.20,0.62 L 0.20,0.62 Z"/></g><g transform="translate(301.66668701171875 273.8888702392578) rotate(0 1.38885498046875 6.9444580078125)" stroke="none"><path fill="#6741d9" d="M 0,0.65 Q 0,0.65 -0.59,0.87 -1.19,1.08 -0.40,1.35 0.39,1.61 1.39,2.45 2.40,3.30 3.12,3.77 3.85,4.25 4.53,4.99 5.22,5.73 5.75,6.54 6.27,7.35 6.36,8.43 6.45,9.50 5.91,10.68 5.36,11.87 4.32,12.60 3.27,13.34 1.77,14.02 0.26,14.71 0.16,14.76 0.07,14.80 -0.03,14.82 -0.13,14.83 -0.24,14.81 -0.34,14.79 -0.43,14.73 -0.53,14.68 -0.60,14.60 -0.67,14.52 -0.71,14.42 -0.75,14.32 -0.75,14.22 -0.76,14.11 -0.73,14.01 -0.71,13.90 -0.65,13.82 -0.59,13.73 -0.51,13.66 -0.42,13.60 -0.32,13.56 -0.22,13.53 -0.11,13.53 -0.01,13.52 0.08,13.56 0.18,13.59 0.27,13.65 0.35,13.72 0.42,13.80 0.48,13.89 0.51,13.99 0.53,14.09 0.53,14.20 0.53,14.31 0.49,14.41 0.45,14.51 0.38,14.59 0.31,14.67 0.22,14.72 0.13,14.78 0.03,14.80 -0.06,14.83 -0.17,14.82 -0.28,14.81 -0.37,14.76 -0.47,14.72 -0.55,14.65 -0.63,14.58 -0.68,14.48 -0.73,14.39 -0.75,14.29 -0.76,14.18 -0.75,14.08 -0.73,13.97 -0.68,13.88 -0.63,13.78 -0.56,13.71 -0.48,13.63 -0.48,13.63 -0.48,13.63 0.64,12.48 1.78,11.34 2.28,10.91 2.77,10.49 3.17,9.61 3.57,8.73 3.24,8.21 2.92,7.69 2.54,7.18 2.17,6.67 1.33,6.09 0.49,5.50 -0.29,4.79 -1.08,4.08 -2.01,3.40 -2.94,2.72 -3.24,2.11 -3.54,1.49 -3.57,0.91 -3.60,0.33 -2.99,-0.40 -2.38,-1.14 -1.79,-1.11 -1.19,-1.08 -0.59,-0.87 0,-0.65 0.07,-0.64 0.15,-0.63 0.23,-0.60 0.30,-0.58 0.37,-0.53 0.43,-0.49 0.48,-0.43 0.54,-0.37 0.57,-0.30 0.61,-0.23 0.63,-0.15 0.65,-0.07 0.65,0.00 0.65,0.07 0.63,0.15 0.61,0.23 0.57,0.30 0.54,0.37 0.48,0.43 0.43,0.49 0.37,0.53 0.30,0.58 0.23,0.60 0.15,0.63 0.07,0.64 -0.00,0.65 -0.00,0.65 L 0,0.65 Z"/></g><g transform="translate(239.861083984375 311.3888702392578) rotate(0 0.34722900390625 9.027786254882812)" stroke="none"><path fill="#6741d9" d="M 0.65,0 Q 0.65,0 0.97,1.59 1.28,3.19 1.31,5.27 1.33,7.34 1.34,9.02 1.35,10.70 1.31,12.42 1.27,14.13 0.96,15.90 0.65,17.68 0.63,17.78 0.62,17.89 0.57,17.98 0.52,18.07 0.44,18.15 0.36,18.22 0.27,18.27 0.17,18.31 0.07,18.32 -0.03,18.33 -0.13,18.31 -0.24,18.29 -0.33,18.23 -0.42,18.18 -0.49,18.10 -0.56,18.02 -0.60,17.92 -0.64,17.82 -0.64,17.71 -0.65,17.61 -0.62,17.50 -0.59,17.40 -0.53,17.31 -0.47,17.23 -0.39,17.16 -0.30,17.10 -0.20,17.06 -0.10,17.03 0.00,17.03 0.10,17.03 0.20,17.06 0.30,17.10 0.39,17.16 0.47,17.23 0.53,17.31 0.59,17.40 0.62,17.50 0.65,17.61 0.64,17.71 0.64,17.82 0.60,17.92 0.56,18.02 0.49,18.10 0.42,18.18 0.33,18.23 0.24,18.29 0.13,18.31 0.03,18.33 -0.07,18.32 -0.17,18.31 -0.27,18.27 -0.36,18.22 -0.44,18.15 -0.52,18.07 -0.57,17.98 -0.62,17.89 -0.63,17.78 -0.65,17.68 -0.65,17.68 -0.65,17.68 -0.96,15.90 -1.27,14.13 -1.31,12.42 -1.35,10.70 -1.34,9.02 -1.33,7.34 -1.31,5.27 -1.28,3.19 -0.97,1.59 -0.65,0 -0.64,-0.07 -0.63,-0.15 -0.60,-0.23 -0.58,-0.30 -0.53,-0.37 -0.49,-0.43 -0.43,-0.48 -0.37,-0.54 -0.30,-0.57 -0.23,-0.61 -0.15,-0.63 -0.07,-0.65 0.00,-0.65 0.07,-0.65 0.15,-0.63 0.23,-0.61 0.30,-0.57 0.37,-0.54 0.43,-0.48 0.49,-0.43 0.53,-0.37 0.58,-0.30 0.60,-0.23 0.63,-0.15 0.64,-0.07 0.65,0.00 0.65,0.00 L 0.65,0 Z"/></g><g transform="translate(250.97222900390625 319.7222137451172) rotate(0 3.47222900390625 -0.6944580078125)" stroke="none"><path fill="#6741d9" d="M 0.20,-0.62 Q 0.20,-0.62 0.64,-0.60 1.08,-0.57 1.43,-1.06 1.78,-1.54 2.23,-1.94 2.68,-2.35 3.19,-3.05 3.70,-3.76 4.11,-4.44 4.53,-5.13 4.94,-5.68 5.36,-6.24 5.50,-6.69 5.64,-7.13 5.76,-7.25 5.87,-7.36 6.00,-7.44 6.14,-7.53 6.29,-7.58 6.44,-7.63 6.60,-7.64 6.76,-7.65 6.92,-7.62 7.08,-7.59 7.22,-7.53 7.37,-7.46 7.50,-7.37 7.62,-7.27 7.72,-7.14 7.82,-7.02 7.89,-6.87 7.95,-6.73 7.98,-6.57 8.01,-6.41 8.01,-6.25 8.00,-6.09 7.95,-5.94 7.90,-5.79 7.82,-5.65 7.74,-5.51 7.75,-4.39 7.76,-3.26 7.73,-2.33 7.71,-1.39 7.66,-0.39 7.60,0.60 7.53,2.74 7.45,4.87 7.46,4.98 7.47,5.09 7.44,5.19 7.42,5.29 7.36,5.38 7.30,5.47 7.22,5.53 7.13,5.60 7.03,5.64 6.93,5.67 6.83,5.67 6.72,5.67 6.62,5.64 6.52,5.61 6.43,5.55 6.35,5.48 6.28,5.40 6.22,5.31 6.19,5.21 6.16,5.11 6.17,5.00 6.17,4.89 6.21,4.79 6.25,4.70 6.31,4.61 6.38,4.53 6.47,4.48 6.56,4.42 6.67,4.39 6.77,4.37 6.88,4.38 6.98,4.39 7.08,4.43 7.18,4.48 7.25,4.55 7.33,4.62 7.38,4.71 7.43,4.81 7.45,4.91 7.47,5.02 7.46,5.12 7.44,5.23 7.39,5.32 7.34,5.41 7.27,5.49 7.19,5.56 7.10,5.61 7.00,5.66 6.90,5.67 6.79,5.68 6.69,5.66 6.58,5.64 6.49,5.59 6.40,5.53 6.33,5.45 6.26,5.37 6.22,5.27 6.18,5.18 6.18,5.18 6.18,5.18 5.55,2.87 4.92,0.57 4.88,-0.44 4.85,-1.46 4.87,-2.45 4.90,-3.44 4.97,-4.41 5.04,-5.37 5.34,-6.25 5.64,-7.13 5.76,-7.25 5.87,-7.36 6.00,-7.44 6.14,-7.53 6.29,-7.58 6.44,-7.63 6.60,-7.64 6.76,-7.65 6.92,-7.62 7.08,-7.59 7.22,-7.53 7.37,-7.46 7.50,-7.37 7.62,-7.27 7.72,-7.14 7.82,-7.02 7.89,-6.87 7.95,-6.73 7.98,-6.57 8.01,-6.41 8.01,-6.25 8.00,-6.09 7.95,-5.94 7.90,-5.79 7.82,-5.65 7.74,-5.51 7.55,-5.13 7.35,-4.74 6.98,-4.28 6.62,-3.82 6.12,-3.04 5.62,-2.27 4.93,-1.42 4.24,-0.57 3.73,-0.14 3.22,0.28 2.26,0.83 1.31,1.37 0.55,1.00 -0.20,0.62 -0.27,0.58 -0.35,0.55 -0.41,0.50 -0.47,0.45 -0.52,0.39 -0.56,0.32 -0.59,0.25 -0.63,0.18 -0.64,0.10 -0.65,0.02 -0.64,-0.05 -0.64,-0.13 -0.61,-0.20 -0.59,-0.28 -0.55,-0.34 -0.50,-0.41 -0.45,-0.46 -0.39,-0.52 -0.32,-0.56 -0.25,-0.60 -0.18,-0.62 -0.10,-0.64 -0.02,-0.65 0.05,-0.65 0.13,-0.63 0.20,-0.62 0.20,-0.62 L 0.20,-0.62 Z"/></g><g transform="translate(277.361083984375 314.86109924316406) rotate(0 -0.347198486328125 4.8610992431640625)" stroke="none"><path fill="#6741d9" d="M -0.20,0.62 Q -0.20,0.62 -0.88,0.66 -1.56,0.71 -2.10,0.68 -2.64,0.65 -3.25,0.79 -3.85,0.93 -4.12,1.44 -4.39,1.95 -4.76,2.55 -5.14,3.15 -5.23,4.00 -5.32,4.85 -5.19,5.71 -5.07,6.57 -4.71,7.17 -4.35,7.77 -3.81,8.09 -3.27,8.42 -2.45,8.35 -1.63,8.29 -0.70,8.12 0.23,7.95 1.28,7.36 2.32,6.77 2.87,6.04 3.42,5.31 3.85,4.48 4.28,3.65 4.23,2.92 4.18,2.18 3.87,1.49 3.57,0.80 2.09,0.93 0.61,1.06 0.52,1.11 0.42,1.15 0.31,1.16 0.21,1.18 0.11,1.15 0.00,1.13 -0.08,1.08 -0.17,1.02 -0.24,0.94 -0.31,0.86 -0.35,0.76 -0.39,0.66 -0.39,0.56 -0.40,0.45 -0.37,0.35 -0.34,0.24 -0.28,0.16 -0.22,0.07 -0.14,0.00 -0.05,-0.05 0.04,-0.08 0.14,-0.12 0.24,-0.12 0.35,-0.12 0.45,-0.08 0.55,-0.05 0.64,0.00 0.72,0.07 0.78,0.16 0.84,0.24 0.87,0.35 0.90,0.45 0.89,0.55 0.89,0.66 0.85,0.76 0.81,0.86 0.74,0.94 0.67,1.02 0.58,1.08 0.49,1.13 0.38,1.15 0.28,1.18 0.17,1.16 0.07,1.15 -0.02,1.11 -0.11,1.06 -0.19,0.99 -0.27,0.92 -0.32,0.82 -0.37,0.73 -0.39,0.63 -0.40,0.52 -0.39,0.42 -0.37,0.31 -0.32,0.22 -0.27,0.12 -0.19,0.05 -0.11,-0.01 -0.11,-0.01 -0.11,-0.01 1.94,-0.83 4.01,-1.65 4.80,-1.23 5.59,-0.81 6.01,-0.14 6.42,0.53 6.65,1.36 6.87,2.19 6.78,3.48 6.70,4.78 6.10,5.90 5.51,7.02 4.59,8.07 3.67,9.11 2.20,9.87 0.73,10.64 -0.49,10.83 -1.71,11.03 -3.16,10.89 -4.61,10.74 -5.65,9.95 -6.69,9.15 -7.23,8.05 -7.77,6.95 -7.89,5.68 -8.00,4.42 -7.72,3.09 -7.43,1.76 -6.92,1.00 -6.41,0.23 -5.53,-0.59 -4.66,-1.41 -3.51,-1.60 -2.36,-1.79 -1.59,-1.65 -0.83,-1.50 -0.31,-1.06 0.20,-0.62 0.27,-0.58 0.35,-0.55 0.41,-0.50 0.47,-0.45 0.52,-0.39 0.56,-0.32 0.59,-0.25 0.63,-0.18 0.64,-0.10 0.65,-0.02 0.64,0.05 0.64,0.13 0.61,0.20 0.59,0.28 0.55,0.34 0.50,0.41 0.45,0.46 0.39,0.52 0.32,0.56 0.25,0.60 0.18,0.62 0.10,0.64 0.02,0.65 -0.05,0.65 -0.13,0.63 -0.20,0.62 -0.20,0.62 L -0.20,0.62 Z"/></g><g transform="translate(296.8055419921875 316.24998474121094) rotate(0 1.73614501953125 -1.7360992431640625)" stroke="none"><path fill="#6741d9" d="M -0.46,-0.46 Q -0.46,-0.46 -0.09,-1.28 0.27,-2.10 0.83,-3.05 1.39,-3.99 1.85,-4.81 2.31,-5.63 2.45,-6.24 2.58,-6.86 2.92,-7.53 3.25,-8.20 3.35,-8.63 3.45,-9.07 3.55,-9.21 3.65,-9.34 3.77,-9.45 3.90,-9.56 4.05,-9.64 4.20,-9.72 4.37,-9.75 4.53,-9.79 4.70,-9.79 4.87,-9.78 5.03,-9.74 5.20,-9.70 5.34,-9.62 5.49,-9.54 5.62,-9.42 5.74,-9.31 5.83,-9.17 5.93,-9.03 5.98,-8.87 6.04,-8.71 6.06,-8.54 6.07,-8.37 6.05,-8.21 6.03,-8.04 5.97,-7.88 5.90,-7.73 5.60,-6.58 5.30,-5.43 5.21,-4.08 5.12,-2.74 5.04,-1.35 4.96,0.03 4.82,2.44 4.68,4.84 4.69,4.95 4.69,5.06 4.66,5.16 4.63,5.26 4.57,5.35 4.51,5.43 4.43,5.50 4.34,5.56 4.24,5.59 4.14,5.63 4.04,5.63 3.93,5.63 3.83,5.59 3.73,5.56 3.64,5.49 3.56,5.43 3.50,5.34 3.44,5.25 3.42,5.15 3.39,5.04 3.39,4.94 3.40,4.83 3.44,4.73 3.48,4.63 3.55,4.55 3.62,4.47 3.71,4.42 3.80,4.37 3.91,4.34 4.01,4.32 4.12,4.34 4.22,4.35 4.32,4.39 4.42,4.44 4.49,4.51 4.57,4.59 4.62,4.68 4.67,4.78 4.68,4.88 4.70,4.99 4.68,5.09 4.66,5.19 4.61,5.29 4.56,5.38 4.48,5.45 4.40,5.53 4.31,5.57 4.21,5.61 4.11,5.62 4.00,5.63 3.90,5.61 3.79,5.59 3.70,5.53 3.61,5.47 3.54,5.39 3.48,5.31 3.44,5.21 3.40,5.11 3.40,5.11 3.40,5.11 2.76,2.52 2.11,-0.06 2.13,-1.51 2.15,-2.96 2.28,-4.54 2.41,-6.12 2.93,-7.60 3.45,-9.07 3.55,-9.21 3.65,-9.34 3.77,-9.45 3.90,-9.56 4.05,-9.64 4.20,-9.72 4.37,-9.75 4.53,-9.79 4.70,-9.79 4.87,-9.78 5.03,-9.74 5.20,-9.70 5.34,-9.62 5.49,-9.54 5.61,-9.42 5.74,-9.31 5.83,-9.17 5.93,-9.03 5.98,-8.87 6.04,-8.71 6.06,-8.54 6.07,-8.38 6.05,-8.21 6.03,-8.04 5.97,-7.88 5.90,-7.73 5.52,-6.94 5.14,-6.16 4.87,-5.26 4.60,-4.36 4.11,-3.48 3.61,-2.61 2.86,-1.45 2.11,-0.28 1.29,0.08 0.46,0.46 0.40,0.51 0.33,0.56 0.26,0.59 0.19,0.62 0.11,0.64 0.03,0.65 -0.03,0.65 -0.11,0.64 -0.19,0.62 -0.26,0.59 -0.33,0.55 -0.40,0.51 -0.46,0.46 -0.51,0.40 -0.55,0.33 -0.59,0.26 -0.62,0.19 -0.64,0.11 -0.65,0.03 -0.65,-0.03 -0.64,-0.11 -0.62,-0.19 -0.59,-0.26 -0.56,-0.33 -0.51,-0.40 -0.46,-0.46 -0.46,-0.46 L -0.46,-0.46 Z"/></g><g transform="translate(310.6944580078125 307.9166717529297) rotate(0 3.472198486328125 7.6388702392578125)" stroke="none"><path fill="#6741d9" d="M 0.36,-0.54 Q 0.36,-0.54 1.14,-0.41 1.92,-0.28 2.64,0.32 3.37,0.94 4.07,1.59 4.77,2.25 5.54,3.18 6.31,4.11 6.86,4.93 7.42,5.76 7.75,6.91 8.07,8.06 7.97,9.12 7.87,10.19 7.31,11.18 6.75,12.17 4.52,14.02 2.29,15.88 2.21,15.95 2.13,16.02 2.04,16.07 1.94,16.11 1.83,16.12 1.73,16.13 1.62,16.10 1.52,16.08 1.43,16.02 1.34,15.97 1.27,15.88 1.20,15.80 1.17,15.70 1.13,15.60 1.13,15.50 1.12,15.39 1.15,15.29 1.18,15.19 1.24,15.10 1.30,15.01 1.39,14.95 1.48,14.89 1.58,14.86 1.68,14.82 1.78,14.82 1.89,14.83 1.99,14.86 2.09,14.90 2.17,14.96 2.26,15.03 2.32,15.12 2.37,15.21 2.40,15.31 2.43,15.41 2.42,15.52 2.41,15.63 2.37,15.72 2.33,15.82 2.26,15.90 2.19,15.98 2.10,16.03 2.01,16.09 1.90,16.11 1.80,16.13 1.69,16.12 1.59,16.10 1.49,16.06 1.40,16.01 1.32,15.94 1.24,15.86 1.20,15.77 1.15,15.67 1.13,15.57 1.12,15.46 1.14,15.36 1.15,15.25 1.21,15.16 1.26,15.07 1.26,15.07 1.26,15.07 2.77,12.85 4.29,10.64 4.62,10.16 4.95,9.68 5.07,9.16 5.19,8.64 5.10,7.94 5.01,7.23 4.58,6.52 4.15,5.80 3.55,4.99 2.94,4.18 2.29,3.55 1.63,2.93 1.05,2.40 0.47,1.88 0.05,1.21 -0.36,0.54 -0.42,0.49 -0.48,0.44 -0.53,0.37 -0.57,0.31 -0.60,0.24 -0.63,0.16 -0.64,0.08 -0.65,0.01 -0.64,-0.06 -0.64,-0.14 -0.61,-0.22 -0.58,-0.29 -0.54,-0.36 -0.49,-0.42 -0.44,-0.48 -0.38,-0.53 -0.31,-0.57 -0.24,-0.61 -0.16,-0.63 -0.08,-0.65 -0.01,-0.65 0.06,-0.65 0.14,-0.63 0.22,-0.61 0.29,-0.58 0.36,-0.54 0.36,-0.54 L 0.36,-0.54 Z"/></g><g transform="translate(265.5555419921875 134.99998474121094) rotate(0 2.083343505859375 2.7777862548828125)" stroke="none"><path fill="#6741d9" d="M 0.20,0.62 Q 0.20,0.62 -0.28,1.04 -0.77,1.45 -1.32,2.33 -1.87,3.21 -1.83,4.32 -1.78,5.43 -1.39,6.00 -1.01,6.57 -0.49,7.21 0.02,7.84 1.20,7.89 2.37,7.94 3.14,7.22 3.90,6.50 4.41,5.67 4.92,4.85 5.31,3.77 5.70,2.68 5.85,1.70 5.99,0.72 5.86,0.05 5.72,-0.61 5.50,-1.22 5.28,-1.84 4.79,-2.18 4.29,-2.53 2.84,-1.60 1.38,-0.68 1.33,-0.59 1.28,-0.49 1.20,-0.42 1.13,-0.35 1.03,-0.30 0.93,-0.26 0.83,-0.25 0.72,-0.23 0.62,-0.26 0.52,-0.28 0.42,-0.33 0.33,-0.39 0.26,-0.47 0.19,-0.55 0.15,-0.65 0.12,-0.75 0.11,-0.85 0.10,-0.96 0.13,-1.06 0.16,-1.16 0.22,-1.25 0.28,-1.34 0.36,-1.40 0.45,-1.47 0.55,-1.50 0.65,-1.54 0.75,-1.54 0.86,-1.54 0.96,-1.50 1.06,-1.47 1.15,-1.41 1.23,-1.34 1.29,-1.25 1.35,-1.17 1.38,-1.06 1.41,-0.96 1.40,-0.86 1.40,-0.75 1.36,-0.65 1.32,-0.55 1.25,-0.47 1.18,-0.39 1.09,-0.34 1.00,-0.28 0.90,-0.26 0.79,-0.23 0.69,-0.25 0.58,-0.26 0.49,-0.30 0.39,-0.34 0.31,-0.42 0.23,-0.49 0.18,-0.58 0.13,-0.68 0.12,-0.78 0.10,-0.89 0.12,-0.99 0.13,-1.10 0.13,-1.10 0.13,-1.10 1.68,-3.03 3.23,-4.96 4.24,-5.05 5.25,-5.13 5.94,-4.76 6.63,-4.39 7.28,-3.61 7.94,-2.82 8.22,-1.90 8.49,-0.98 8.58,0.09 8.68,1.17 8.42,2.40 8.16,3.64 7.60,4.96 7.04,6.28 6.25,7.36 5.47,8.44 4.12,9.37 2.77,10.31 1.37,10.34 -0.02,10.38 -0.89,9.91 -1.77,9.44 -2.44,8.62 -3.10,7.80 -3.62,6.83 -4.15,5.85 -4.27,4.74 -4.39,3.63 -4.14,2.78 -3.90,1.94 -3.43,1.25 -2.97,0.56 -2.29,-0.05 -1.62,-0.66 -0.91,-0.64 -0.20,-0.62 -0.13,-0.63 -0.05,-0.65 0.02,-0.65 0.10,-0.64 0.18,-0.62 0.25,-0.60 0.32,-0.56 0.39,-0.52 0.45,-0.46 0.50,-0.41 0.55,-0.34 0.59,-0.28 0.61,-0.20 0.64,-0.13 0.64,-0.05 0.65,0.02 0.64,0.10 0.63,0.18 0.59,0.25 0.56,0.32 0.52,0.39 0.47,0.45 0.41,0.50 0.35,0.55 0.27,0.58 0.20,0.62 0.20,0.62 L 0.20,0.62 Z"/></g><g transform="translate(283.611083984375 131.5277862548828) rotate(0 -2.430511474609375 3.1249847412109375)" stroke="none"><path fill="#6741d9" d="M 0,0.65 Q 0,0.65 -0.79,0.91 -1.59,1.16 -2.37,1.35 -3.15,1.54 -3.71,2.12 -4.26,2.69 -4.71,3.29 -5.15,3.89 -5.16,4.79 -5.17,5.69 -4.41,6.20 -3.65,6.71 -3.05,6.42 -2.44,6.14 -1.80,5.70 -1.16,5.25 -0.52,4.71 0.12,4.17 0.25,3.54 0.39,2.91 0.48,2.27 0.56,1.62 0.11,0.95 -0.33,0.28 -2.02,0.59 -3.70,0.91 -3.75,0.84 -3.79,0.78 -3.83,0.71 -3.86,0.63 -3.87,0.56 -3.88,0.48 -3.87,0.40 -3.87,0.32 -3.84,0.25 -3.82,0.17 -3.77,0.10 -3.73,0.04 -3.67,-0.01 -3.62,-0.06 -3.55,-0.10 -3.48,-0.14 -3.40,-0.16 -3.33,-0.18 -3.25,-0.19 -3.17,-0.19 -3.09,-0.17 -3.01,-0.16 -2.94,-0.12 -2.87,-0.09 -2.81,-0.04 -2.75,0.00 -2.85,0.53 -2.94,1.05 -3.04,1.08 -3.15,1.11 -3.25,1.10 -3.36,1.10 -3.46,1.06 -3.56,1.02 -3.64,0.95 -3.72,0.88 -3.78,0.79 -3.83,0.70 -3.86,0.60 -3.88,0.50 -3.87,0.39 -3.86,0.28 -3.81,0.19 -3.77,0.09 -3.70,0.01 -3.63,-0.05 -3.53,-0.10 -3.44,-0.16 -3.33,-0.17 -3.23,-0.19 -3.13,-0.18 -3.02,-0.16 -2.93,-0.11 -2.83,-0.06 -2.76,0.00 -2.68,0.08 -2.64,0.18 -2.59,0.27 -2.58,0.38 -2.57,0.48 -2.59,0.59 -2.61,0.69 -2.67,0.78 -2.72,0.88 -2.80,0.94 -2.88,1.01 -2.98,1.05 -3.08,1.09 -3.18,1.10 -3.29,1.11 -3.39,1.08 -3.49,1.05 -3.58,0.99 -3.67,0.94 -3.74,0.85 -3.80,0.77 -3.84,0.67 -3.87,0.57 -3.87,0.46 -3.87,0.35 -3.84,0.25 -3.81,0.15 -3.74,0.07 -3.68,-0.01 -3.69,0.44 -3.70,0.91 -3.75,0.84 -3.79,0.78 -3.83,0.71 -3.86,0.63 -3.87,0.56 -3.88,0.48 -3.87,0.40 -3.87,0.32 -3.84,0.25 -3.82,0.17 -3.77,0.10 -3.73,0.04 -3.67,-0.01 -3.62,-0.06 -3.55,-0.10 -3.48,-0.14 -3.40,-0.16 -3.33,-0.18 -3.25,-0.19 -3.17,-0.19 -3.09,-0.17 -3.01,-0.16 -2.94,-0.12 -2.87,-0.09 -2.81,-0.04 -2.75,0.00 -1.11,-1.26 0.51,-2.54 1.10,-2.05 1.69,-1.56 2.29,-0.77 2.88,0.02 3.04,1.02 3.20,2.02 3.02,2.91 2.84,3.79 2.35,4.89 1.86,5.98 1.03,6.68 0.20,7.37 -0.75,7.96 -1.70,8.55 -2.96,8.81 -4.22,9.08 -5.33,8.58 -6.45,8.08 -7.04,7.11 -7.62,6.14 -7.71,5.17 -7.79,4.20 -7.46,3.30 -7.13,2.40 -6.50,1.61 -5.87,0.83 -4.83,0.04 -3.78,-0.74 -2.69,-0.95 -1.60,-1.16 -0.80,-0.91 0,-0.65 0.07,-0.64 0.15,-0.63 0.23,-0.60 0.30,-0.58 0.37,-0.53 0.43,-0.49 0.48,-0.43 0.54,-0.37 0.57,-0.30 0.61,-0.23 0.63,-0.15 0.65,-0.07 0.65,0.00 0.65,0.07 0.63,0.15 0.61,0.23 0.57,0.30 0.54,0.37 0.48,0.43 0.43,0.49 0.37,0.53 0.30,0.58 0.23,0.60 0.15,0.63 0.07,0.64 -0.00,0.65 -0.00,0.65 L 0,0.65 Z"/></g><g transform="translate(291.25 135.69444274902344) rotate(0 2.4305419921875 -2.0833282470703125)" stroke="none"><path fill="#6741d9" d="M -0.29,-0.58 Q -0.29,-0.58 0.33,-1.24 0.96,-1.90 1.27,-2.49 1.58,-3.09 1.94,-3.92 2.29,-4.75 2.66,-5.56 3.04,-6.37 3.18,-6.91 3.33,-7.46 3.43,-7.60 3.52,-7.75 3.64,-7.87 3.77,-7.98 3.92,-8.07 4.07,-8.15 4.23,-8.20 4.40,-8.25 4.57,-8.25 4.74,-8.26 4.91,-8.22 5.07,-8.19 5.23,-8.11 5.38,-8.04 5.52,-7.93 5.65,-7.82 5.75,-7.68 5.85,-7.55 5.92,-7.39 5.99,-7.23 6.01,-7.06 6.04,-6.89 6.02,-6.72 6.01,-6.55 5.95,-6.39 5.90,-6.22 5.85,-5.64 5.80,-5.06 5.73,-4.02 5.67,-2.98 5.39,-1.81 5.11,-0.64 4.95,1.18 4.79,3.01 4.78,3.12 4.77,3.23 4.73,3.32 4.68,3.42 4.61,3.50 4.54,3.58 4.45,3.63 4.35,3.68 4.25,3.70 4.14,3.72 4.04,3.70 3.93,3.68 3.84,3.64 3.74,3.59 3.67,3.51 3.60,3.44 3.55,3.34 3.50,3.24 3.49,3.14 3.48,3.03 3.50,2.93 3.52,2.83 3.57,2.73 3.63,2.64 3.71,2.57 3.79,2.50 3.89,2.46 3.98,2.42 4.09,2.41 4.20,2.41 4.30,2.43 4.40,2.46 4.49,2.52 4.58,2.58 4.64,2.66 4.71,2.74 4.74,2.84 4.78,2.94 4.78,3.05 4.78,3.16 4.75,3.26 4.72,3.36 4.66,3.44 4.59,3.53 4.50,3.59 4.42,3.65 4.32,3.68 4.21,3.71 4.11,3.71 4.00,3.70 3.90,3.66 3.80,3.63 3.72,3.56 3.64,3.49 3.58,3.40 3.53,3.31 3.50,3.21 3.48,3.10 3.48,3.10 3.48,3.10 2.98,0.97 2.48,-1.15 2.65,-2.13 2.82,-3.12 2.86,-4.33 2.91,-5.54 3.12,-6.50 3.33,-7.46 3.43,-7.60 3.52,-7.75 3.64,-7.87 3.77,-7.98 3.92,-8.07 4.07,-8.15 4.23,-8.20 4.40,-8.25 4.57,-8.25 4.74,-8.26 4.91,-8.22 5.07,-8.19 5.23,-8.11 5.38,-8.04 5.52,-7.93 5.65,-7.82 5.75,-7.68 5.85,-7.55 5.92,-7.39 5.99,-7.23 6.01,-7.06 6.04,-6.89 6.02,-6.72 6.01,-6.55 5.95,-6.39 5.90,-6.22 5.72,-5.69 5.55,-5.17 5.15,-4.39 4.76,-3.61 4.26,-2.59 3.76,-1.57 2.99,-0.63 2.23,0.30 1.26,0.44 0.29,0.58 0.21,0.61 0.14,0.64 0.06,0.64 -0.01,0.65 -0.09,0.64 -0.16,0.63 -0.24,0.60 -0.31,0.57 -0.38,0.52 -0.44,0.48 -0.49,0.42 -0.54,0.36 -0.58,0.29 -0.61,0.22 -0.63,0.14 -0.65,0.06 -0.65,-0.01 -0.65,-0.09 -0.62,-0.16 -0.60,-0.24 -0.57,-0.31 -0.53,-0.38 -0.47,-0.44 -0.42,-0.50 -0.35,-0.54 -0.29,-0.58 -0.29,-0.58 L -0.29,-0.58 Z"/></g><g transform="translate(302.361083984375 130.8333282470703) rotate(0 2.0833740234375 5.208343505859375)" stroke="none"><path fill="#6741d9" d="M 0.15,-0.63 Q 0.15,-0.63 1.04,-0.74 1.93,-0.84 2.88,-0.29 3.82,0.24 4.51,0.96 5.21,1.68 5.58,2.58 5.95,3.48 5.89,4.68 5.82,5.87 5.28,6.91 4.74,7.95 4.01,8.71 3.28,9.48 1.77,10.32 0.25,11.17 0.16,11.22 0.07,11.27 -0.02,11.30 -0.13,11.32 -0.23,11.30 -0.34,11.29 -0.43,11.25 -0.53,11.20 -0.61,11.13 -0.68,11.05 -0.73,10.96 -0.78,10.87 -0.80,10.76 -0.81,10.66 -0.79,10.55 -0.78,10.45 -0.73,10.35 -0.68,10.26 -0.60,10.19 -0.52,10.11 -0.42,10.07 -0.33,10.03 -0.22,10.02 -0.11,10.01 -0.01,10.03 0.08,10.05 0.17,10.11 0.26,10.16 0.33,10.25 0.40,10.33 0.44,10.43 0.48,10.53 0.48,10.63 0.49,10.74 0.46,10.84 0.43,10.94 0.37,11.03 0.31,11.12 0.22,11.18 0.14,11.24 0.04,11.28 -0.06,11.31 -0.16,11.31 -0.27,11.31 -0.37,11.27 -0.47,11.24 -0.55,11.17 -0.64,11.11 -0.70,11.02 -0.75,10.93 -0.78,10.83 -0.81,10.73 -0.80,10.62 -0.80,10.51 -0.76,10.42 -0.72,10.32 -0.65,10.24 -0.58,10.16 -0.58,10.16 -0.58,10.16 0.32,8.98 1.23,7.81 1.67,7.12 2.12,6.43 2.47,5.92 2.82,5.41 2.90,4.44 2.99,3.47 2.65,2.97 2.32,2.48 1.79,2.06 1.26,1.64 0.55,1.14 -0.15,0.63 -0.23,0.60 -0.30,0.58 -0.37,0.53 -0.43,0.49 -0.48,0.43 -0.54,0.37 -0.57,0.30 -0.61,0.23 -0.63,0.15 -0.65,0.07 -0.65,-0.00 -0.65,-0.08 -0.63,-0.15 -0.61,-0.23 -0.57,-0.30 -0.53,-0.37 -0.48,-0.43 -0.43,-0.49 -0.36,-0.53 -0.30,-0.58 -0.22,-0.61 -0.15,-0.63 -0.07,-0.64 0.00,-0.65 0.08,-0.64 0.15,-0.63 0.15,-0.63 L 0.15,-0.63 Z"/></g><g transform="translate(255.13885498046875 168.3333282470703) rotate(0 0.34722900390625 5.90277099609375)" stroke="none"><path fill="#6741d9" d="M 0.64,-0.12 Q 0.64,-0.12 1.15,0.80 1.65,1.74 1.77,3.04 1.88,4.35 1.92,5.89 1.96,7.44 1.65,9.82 1.34,12.19 1.33,12.30 1.31,12.40 1.26,12.50 1.21,12.59 1.14,12.67 1.06,12.74 0.96,12.78 0.87,12.83 0.76,12.84 0.66,12.85 0.55,12.83 0.45,12.81 0.36,12.75 0.27,12.70 0.20,12.62 0.13,12.54 0.09,12.44 0.05,12.34 0.04,12.24 0.03,12.13 0.06,12.03 0.09,11.93 0.15,11.84 0.21,11.75 0.29,11.68 0.38,11.62 0.48,11.58 0.58,11.55 0.68,11.55 0.79,11.55 0.89,11.58 0.99,11.62 1.08,11.68 1.16,11.74 1.22,11.83 1.28,11.92 1.31,12.02 1.34,12.12 1.33,12.23 1.33,12.34 1.29,12.43 1.25,12.53 1.18,12.61 1.12,12.70 1.02,12.75 0.93,12.81 0.83,12.83 0.73,12.85 0.62,12.84 0.52,12.83 0.42,12.79 0.32,12.74 0.24,12.67 0.17,12.60 0.12,12.50 0.07,12.41 0.05,12.31 0.03,12.20 0.03,12.20 0.03,12.20 -0.32,9.85 -0.67,7.50 -0.71,6.02 -0.74,4.53 -0.80,3.39 -0.86,2.24 -0.75,1.18 -0.64,0.12 -0.64,0.04 -0.65,-0.02 -0.64,-0.10 -0.62,-0.18 -0.59,-0.25 -0.56,-0.33 -0.51,-0.39 -0.47,-0.45 -0.41,-0.50 -0.34,-0.55 -0.27,-0.59 -0.20,-0.62 -0.12,-0.63 -0.05,-0.65 0.02,-0.65 0.10,-0.64 0.18,-0.62 0.25,-0.60 0.32,-0.56 0.39,-0.52 0.45,-0.46 0.51,-0.41 0.55,-0.34 0.59,-0.27 0.61,-0.20 0.64,-0.12 0.64,-0.12 L 0.64,-0.12 Z"/></g><g transform="translate(263.47222900390625 175.9722137451172) rotate(0 2.77777099609375 -3.8194427490234375)" stroke="none"><path fill="#6741d9" d="M -0.41,-0.51 Q -0.41,-0.51 0.43,-1.49 1.28,-2.47 1.82,-3.14 2.36,-3.81 2.77,-4.48 3.18,-5.14 3.54,-5.82 3.89,-6.49 3.98,-7.04 4.06,-7.60 4.32,-8.31 4.58,-9.03 4.35,-8.77 4.13,-8.51 4.17,-8.67 4.21,-8.84 4.30,-8.98 4.38,-9.13 4.49,-9.25 4.61,-9.38 4.75,-9.47 4.89,-9.56 5.04,-9.62 5.20,-9.67 5.37,-9.69 5.54,-9.70 5.70,-9.68 5.87,-9.66 6.03,-9.59 6.18,-9.53 6.32,-9.43 6.45,-9.33 6.56,-9.20 6.67,-9.08 6.74,-8.93 6.82,-8.78 6.86,-8.61 6.89,-8.45 6.89,-8.28 6.88,-8.11 6.69,-7.26 6.49,-6.41 6.41,-5.57 6.33,-4.74 6.24,-3.58 6.16,-2.42 5.84,-0.70 5.52,1.02 5.50,1.13 5.48,1.23 5.43,1.33 5.38,1.42 5.30,1.49 5.22,1.56 5.13,1.61 5.03,1.65 4.92,1.66 4.82,1.67 4.71,1.65 4.61,1.62 4.52,1.57 4.43,1.51 4.36,1.43 4.29,1.35 4.26,1.25 4.22,1.15 4.21,1.04 4.21,0.94 4.24,0.84 4.27,0.73 4.33,0.65 4.39,0.56 4.47,0.50 4.56,0.43 4.66,0.40 4.76,0.37 4.87,0.37 4.97,0.37 5.07,0.40 5.17,0.44 5.26,0.50 5.34,0.57 5.40,0.66 5.46,0.75 5.49,0.85 5.51,0.95 5.51,1.06 5.50,1.16 5.46,1.26 5.42,1.36 5.35,1.44 5.28,1.52 5.19,1.57 5.10,1.63 4.99,1.65 4.89,1.67 4.78,1.66 4.68,1.65 4.58,1.60 4.49,1.56 4.41,1.48 4.33,1.41 4.28,1.31 4.24,1.22 4.22,1.11 4.20,1.01 4.20,1.01 4.20,1.01 3.93,-0.74 3.66,-2.49 3.64,-3.73 3.62,-4.97 3.70,-6.00 3.77,-7.04 3.95,-7.78 4.13,-8.51 4.17,-8.67 4.21,-8.84 4.30,-8.98 4.38,-9.13 4.49,-9.25 4.61,-9.38 4.75,-9.47 4.89,-9.56 5.04,-9.62 5.20,-9.67 5.37,-9.69 5.54,-9.70 5.70,-9.68 5.87,-9.66 6.03,-9.59 6.18,-9.53 6.32,-9.43 6.45,-9.33 6.56,-9.20 6.67,-9.08 6.74,-8.93 6.82,-8.78 6.86,-8.61 6.89,-8.45 6.89,-8.28 6.88,-8.11 6.71,-7.56 6.54,-7.00 6.29,-6.15 6.03,-5.31 5.60,-4.58 5.16,-3.85 4.64,-3.09 4.12,-2.33 3.41,-1.52 2.70,-0.72 1.55,-0.10 0.41,0.51 0.34,0.55 0.27,0.59 0.20,0.62 0.12,0.64 0.04,0.65 -0.03,0.65 -0.11,0.64 -0.18,0.62 -0.26,0.59 -0.33,0.56 -0.39,0.51 -0.45,0.46 -0.50,0.40 -0.55,0.34 -0.59,0.27 -0.62,0.20 -0.63,0.12 -0.65,0.04 -0.65,-0.03 -0.64,-0.11 -0.62,-0.18 -0.60,-0.26 -0.56,-0.33 -0.52,-0.39 -0.46,-0.45 -0.41,-0.51 -0.41,-0.51 L -0.41,-0.51 Z"/></g><g transform="translate(274.58331298828125 173.19444274902344) rotate(0 3.125 -1.0416717529296875)" stroke="none"><path fill="#6741d9" d="M -0.29,-0.58 Q -0.29,-0.58 0.39,-1.20 1.07,-1.83 1.53,-2.18 1.99,-2.53 2.73,-3.23 3.46,-3.94 3.68,-4.49 3.89,-5.04 4.28,-5.63 4.66,-6.22 4.79,-6.65 4.92,-7.09 5.03,-7.21 5.14,-7.33 5.27,-7.42 5.40,-7.51 5.55,-7.57 5.71,-7.63 5.87,-7.65 6.03,-7.67 6.19,-7.65 6.35,-7.63 6.50,-7.57 6.65,-7.51 6.78,-7.42 6.91,-7.33 7.02,-7.21 7.13,-7.09 7.20,-6.94 7.28,-6.80 7.32,-6.64 7.35,-6.49 7.35,-6.33 7.35,-6.16 7.32,-6.01 7.28,-5.85 7.20,-5.71 7.13,-5.57 6.85,-5.00 6.57,-4.43 6.28,-3.48 5.99,-2.53 5.87,-1.60 5.75,-0.66 5.66,0.31 5.57,1.29 5.51,2.86 5.46,4.42 5.46,4.53 5.45,4.63 5.42,4.73 5.38,4.83 5.31,4.91 5.25,5.00 5.16,5.05 5.07,5.11 4.96,5.13 4.86,5.16 4.75,5.15 4.65,5.14 4.55,5.10 4.45,5.06 4.38,4.99 4.30,4.91 4.24,4.82 4.19,4.73 4.17,4.62 4.15,4.52 4.17,4.42 4.18,4.31 4.23,4.21 4.28,4.12 4.35,4.05 4.43,3.97 4.52,3.92 4.62,3.88 4.73,3.86 4.83,3.85 4.93,3.87 5.04,3.89 5.13,3.94 5.22,4.00 5.29,4.07 5.36,4.15 5.41,4.25 5.45,4.35 5.46,4.46 5.46,4.56 5.44,4.66 5.41,4.77 5.35,4.86 5.30,4.95 5.21,5.01 5.13,5.08 5.03,5.11 4.93,5.15 4.82,5.15 4.72,5.16 4.62,5.12 4.52,5.09 4.43,5.03 4.34,4.97 4.28,4.88 4.22,4.79 4.19,4.69 4.16,4.59 4.16,4.59 4.16,4.59 3.55,2.88 2.94,1.16 2.97,0.05 3.01,-1.04 3.17,-2.21 3.34,-3.38 3.74,-4.56 4.14,-5.73 4.53,-6.41 4.92,-7.09 5.03,-7.21 5.14,-7.33 5.27,-7.42 5.40,-7.51 5.55,-7.57 5.71,-7.63 5.87,-7.65 6.03,-7.67 6.19,-7.65 6.35,-7.63 6.50,-7.57 6.65,-7.51 6.78,-7.42 6.91,-7.33 7.02,-7.21 7.13,-7.09 7.20,-6.94 7.28,-6.80 7.32,-6.64 7.35,-6.49 7.35,-6.33 7.35,-6.17 7.32,-6.01 7.28,-5.85 7.20,-5.71 7.13,-5.57 6.65,-4.75 6.17,-3.93 5.68,-3.04 5.19,-2.15 4.27,-1.34 3.35,-0.54 2.73,-0.15 2.11,0.23 1.20,0.41 0.29,0.58 0.21,0.61 0.14,0.64 0.06,0.64 -0.01,0.65 -0.09,0.64 -0.16,0.63 -0.24,0.60 -0.31,0.57 -0.38,0.52 -0.44,0.48 -0.49,0.42 -0.54,0.36 -0.58,0.29 -0.61,0.22 -0.63,0.14 -0.65,0.06 -0.65,-0.01 -0.65,-0.09 -0.62,-0.16 -0.60,-0.24 -0.57,-0.31 -0.53,-0.38 -0.47,-0.44 -0.42,-0.50 -0.35,-0.54 -0.29,-0.58 -0.29,-0.58 L -0.29,-0.58 Z"/></g><g transform="translate(295.41668701171875 167.6388702392578) rotate(0 -1.04168701171875 5.208343505859375)" stroke="none"><path fill="#6741d9" d="M 0,0.65 Q 0,0.65 -0.96,0.98 -1.93,1.30 -2.45,1.62 -2.96,1.95 -3.46,2.91 -3.95,3.88 -4.39,5.23 -4.83,6.58 -5.02,7.52 -5.22,8.46 -4.72,8.85 -4.22,9.24 -3.59,9.15 -2.96,9.07 -2.25,8.55 -1.55,8.02 -0.66,7.07 0.22,6.12 1.00,5.12 1.79,4.12 2.29,3.38 2.79,2.64 2.74,2.07 2.69,1.50 2.03,1.26 1.37,1.01 0.61,0.87 -0.15,0.73 -1.50,0.92 -2.84,1.11 -2.94,1.14 -3.04,1.17 -3.15,1.17 -3.26,1.17 -3.35,1.13 -3.45,1.09 -3.54,1.03 -3.62,0.96 -3.68,0.87 -3.73,0.78 -3.76,0.68 -3.79,0.58 -3.78,0.47 -3.77,0.36 -3.73,0.27 -3.68,0.17 -3.61,0.09 -3.54,0.01 -3.45,-0.03 -3.36,-0.08 -3.25,-0.10 -3.15,-0.12 -3.04,-0.11 -2.94,-0.09 -2.84,-0.05 -2.75,-0.00 -2.67,0.07 -2.60,0.14 -2.55,0.24 -2.50,0.33 -2.49,0.44 -2.47,0.54 -2.49,0.65 -2.51,0.75 -2.57,0.84 -2.62,0.94 -2.70,1.01 -2.78,1.08 -2.88,1.12 -2.97,1.16 -3.08,1.17 -3.19,1.18 -3.29,1.15 -3.39,1.13 -3.48,1.07 -3.57,1.01 -3.64,0.93 -3.70,0.85 -3.74,0.75 -3.78,0.65 -3.78,0.54 -3.78,0.43 -3.75,0.33 -3.72,0.23 -3.66,0.14 -3.59,0.06 -3.51,0.00 -3.42,-0.06 -3.42,-0.06 -3.42,-0.06 -1.65,-0.92 0.10,-1.79 1.18,-1.71 2.26,-1.64 3.33,-1.17 4.40,-0.70 4.96,0.30 5.52,1.32 5.40,2.67 5.28,4.02 4.67,4.97 4.06,5.92 3.18,7.02 2.30,8.13 1.13,9.30 -0.02,10.47 -1.33,11.18 -2.64,11.90 -3.93,11.91 -5.21,11.92 -6.30,11.27 -7.40,10.62 -7.70,9.27 -8.01,7.92 -7.76,6.79 -7.52,5.65 -6.92,4.02 -6.32,2.38 -5.32,1.01 -4.31,-0.35 -3.18,-0.83 -2.05,-1.30 -1.02,-0.98 0,-0.65 0.07,-0.64 0.15,-0.63 0.23,-0.60 0.30,-0.58 0.37,-0.53 0.43,-0.49 0.48,-0.43 0.54,-0.37 0.57,-0.30 0.61,-0.23 0.63,-0.15 0.65,-0.07 0.65,0.00 0.65,0.07 0.63,0.15 0.61,0.23 0.57,0.30 0.54,0.37 0.48,0.43 0.43,0.49 0.37,0.53 0.30,0.58 0.23,0.60 0.15,0.63 0.07,0.64 -0.00,0.65 -0.00,0.65 L 0,0.65 Z"/></g><g transform="translate(306.52777099609375 164.1666717529297) rotate(0 3.819427490234375 8.333328247070312)" stroke="none"><path fill="#6741d9" d="M 0.51,-0.41 Q 0.51,-0.41 1.58,0.36 2.66,1.13 3.53,1.86 4.39,2.58 5.36,3.29 6.32,4.00 6.99,4.55 7.65,5.09 8.30,6.25 8.96,7.41 8.81,8.56 8.67,9.71 7.90,11.02 7.13,12.32 5.88,13.49 4.64,14.65 2.58,15.92 0.51,17.20 0.42,17.25 0.33,17.31 0.23,17.33 0.12,17.35 0.02,17.34 -0.08,17.32 -0.17,17.28 -0.27,17.23 -0.35,17.16 -0.42,17.09 -0.47,16.99 -0.52,16.90 -0.54,16.79 -0.55,16.69 -0.54,16.58 -0.52,16.48 -0.47,16.39 -0.42,16.29 -0.34,16.22 -0.26,16.15 -0.16,16.10 -0.07,16.06 0.03,16.05 0.13,16.04 0.24,16.06 0.34,16.09 0.43,16.14 0.52,16.20 0.59,16.28 0.66,16.36 0.70,16.46 0.74,16.56 0.74,16.66 0.75,16.77 0.72,16.87 0.69,16.97 0.63,17.06 0.57,17.15 0.48,17.21 0.40,17.28 0.30,17.31 0.19,17.34 0.09,17.34 -0.01,17.34 -0.11,17.31 -0.21,17.27 -0.29,17.21 -0.38,17.14 -0.44,17.05 -0.49,16.96 -0.52,16.86 -0.55,16.76 -0.54,16.65 -0.54,16.55 -0.50,16.45 -0.46,16.35 -0.39,16.27 -0.32,16.19 -0.32,16.19 -0.32,16.19 1.21,14.46 2.74,12.72 3.67,11.74 4.61,10.76 5.47,9.49 6.33,8.22 6.05,7.73 5.77,7.25 5.19,6.76 4.61,6.28 3.58,5.48 2.54,4.69 1.53,3.77 0.52,2.85 0.00,1.63 -0.51,0.41 -0.55,0.34 -0.59,0.27 -0.62,0.20 -0.64,0.12 -0.65,0.04 -0.65,-0.03 -0.64,-0.11 -0.62,-0.18 -0.59,-0.26 -0.56,-0.33 -0.51,-0.39 -0.46,-0.45 -0.40,-0.50 -0.34,-0.55 -0.27,-0.59 -0.20,-0.62 -0.12,-0.63 -0.04,-0.65 0.03,-0.65 0.11,-0.64 0.18,-0.62 0.26,-0.60 0.33,-0.56 0.39,-0.52 0.45,-0.46 0.51,-0.41 0.51,-0.41 L 0.51,-0.41 Z"/></g></svg>