<svg version="1.1" xmlns="http://www.w3.org/2000/svg" viewBox="0 0 459.58331298828125 156.8055419921875" width="459.58331298828125" height="156.8055419921875" filter="invert(93%) hue-rotate(180deg)" class="excalidraw-svg">
  <!-- svg-source:excalidraw -->
  
  <defs>
    <style class="style-fonts">
      @font-face {
        font-family: "Virgil";
        src: url("https://excalidraw.com/Virgil.woff2");
      }
      @font-face {
        font-family: "Cascadia";
        src: url("https://excalidraw.com/Cascadia.woff2");
      }
      @font-face {
        font-family: "Assistant";
        src: url("https://excalidraw.com/Assistant-Regular.woff2");
      }
    </style>
    
  </defs>
  <rect x="0" y="0" width="459.58331298828125" height="156.8055419921875" fill="#ffffff"/><g stroke-linecap="round"><g transform="translate(97.5 25.27777099609375) rotate(0 105.90274047851562 0.34722900390625)"><path d="M0 0 C71.26 0.23, 142.51 0.47, 211.81 0.69 M0 0 C59.93 0.2, 119.86 0.39, 211.81 0.69" stroke="#1e1e1e" stroke-width="2" fill="none"/></g></g><mask/><g stroke-linecap="round"><g transform="translate(98.31954956054688 69.45834350585938) rotate(0 105.90274047851562 0.34722900390625)"><path d="M0 0 C64.45 0.21, 128.9 0.42, 211.81 0.69 M0 0 C67.59 0.22, 135.19 0.44, 211.81 0.69" stroke="#1e1e1e" stroke-width="2" fill="none"/></g></g><mask/><g stroke-linecap="round"><g transform="translate(97.81948852539062 118.09722900390625) rotate(0 105.90274047851562 0.34722900390625)"><path d="M0 0 C47.15 0.15, 94.31 0.31, 211.81 0.69 M0 0 C78.42 0.26, 156.84 0.51, 211.81 0.69" stroke="#1e1e1e" stroke-width="2" fill="none"/></g></g><mask/><g transform="translate(10.6944580078125 19.02777099609375) rotate(0 1.041656494140625 9.027786254882812)" stroke="none"><path fill="#1e1e1e" d="M 0.58,-0.29 Q 0.58,-0.29 1.01,0.00 1.43,0.29 1.79,2.22 2.14,4.14 2.28,6.55 2.42,8.96 2.48,10.97 2.53,12.98 2.60,15.86 2.67,18.74 2.67,18.85 2.66,18.95 2.62,19.05 2.58,19.15 2.51,19.23 2.44,19.31 2.34,19.36 2.25,19.42 2.15,19.44 2.04,19.46 1.94,19.45 1.83,19.43 1.74,19.39 1.64,19.34 1.57,19.27 1.49,19.19 1.44,19.10 1.39,19.00 1.38,18.90 1.36,18.79 1.38,18.69 1.40,18.58 1.45,18.49 1.50,18.40 1.58,18.32 1.66,18.25 1.76,18.21 1.85,18.17 1.96,18.16 2.07,18.15 2.17,18.17 2.27,18.20 2.36,18.25 2.45,18.31 2.52,18.39 2.59,18.47 2.62,18.57 2.66,18.67 2.67,18.78 2.67,18.88 2.64,18.99 2.61,19.09 2.55,19.17 2.49,19.26 2.40,19.32 2.32,19.39 2.22,19.42 2.11,19.45 2.01,19.45 1.90,19.45 1.80,19.41 1.70,19.38 1.62,19.31 1.54,19.25 1.48,19.16 1.42,19.07 1.39,18.97 1.37,18.86 1.37,18.86 1.37,18.86 0.73,15.96 0.09,13.05 0.04,11.07 -0.00,9.09 -0.11,6.80 -0.21,4.52 -0.42,2.91 -0.63,1.29 -0.61,0.79 -0.58,0.29 -0.61,0.21 -0.64,0.14 -0.64,0.06 -0.65,-0.01 -0.64,-0.09 -0.63,-0.16 -0.60,-0.24 -0.57,-0.31 -0.52,-0.38 -0.48,-0.44 -0.42,-0.49 -0.36,-0.54 -0.29,-0.58 -0.22,-0.61 -0.14,-0.63 -0.06,-0.65 0.01,-0.65 0.09,-0.65 0.16,-0.62 0.24,-0.60 0.31,-0.57 0.38,-0.53 0.44,-0.47 0.50,-0.42 0.54,-0.35 0.58,-0.29 0.58,-0.29 L 0.58,-0.29 Z"/></g><g transform="translate(20.41668701171875 23.1944580078125) rotate(0 8.6805419921875 3.4722137451171875)" stroke="none"><path fill="#1e1e1e" d="M 0.65,0 Q 0.65,0 0.82,1.19 0.98,2.39 1.19,3.41 1.40,4.43 1.68,5.43 1.96,6.44 2.59,7.08 3.21,7.73 4.14,8.15 5.08,8.57 6.31,8.53 7.55,8.50 8.96,7.94 10.37,7.38 11.48,6.42 12.60,5.46 13.45,4.33 14.30,3.19 14.87,2.18 15.43,1.16 15.43,-0.81 15.43,-2.80 15.43,-2.90 15.43,-3.01 15.46,-3.11 15.49,-3.21 15.55,-3.30 15.61,-3.39 15.69,-3.45 15.78,-3.51 15.88,-3.55 15.98,-3.58 16.09,-3.58 16.19,-3.57 16.29,-3.54 16.39,-3.50 16.48,-3.44 16.56,-3.37 16.62,-3.28 16.68,-3.20 16.70,-3.09 16.73,-2.99 16.72,-2.88 16.72,-2.78 16.68,-2.68 16.64,-2.58 16.57,-2.50 16.50,-2.42 16.40,-2.37 16.31,-2.31 16.21,-2.29 16.10,-2.27 16.00,-2.29 15.89,-2.30 15.80,-2.34 15.70,-2.39 15.63,-2.46 15.55,-2.54 15.50,-2.63 15.45,-2.73 15.44,-2.83 15.42,-2.94 15.44,-3.04 15.46,-3.15 15.51,-3.24 15.56,-3.33 15.64,-3.41 15.72,-3.48 15.81,-3.52 15.91,-3.56 16.02,-3.57 16.12,-3.58 16.23,-3.56 16.33,-3.53 16.42,-3.48 16.51,-3.42 16.58,-3.34 16.65,-3.26 16.68,-3.16 16.72,-3.06 16.72,-3.06 16.72,-3.06 17.11,-0.45 17.50,2.16 16.86,3.40 16.22,4.64 15.18,5.99 14.14,7.34 12.68,8.47 11.21,9.61 9.38,10.21 7.55,10.82 5.85,10.71 4.15,10.59 2.87,9.89 1.60,9.18 0.78,8.12 -0.03,7.06 -0.31,5.92 -0.60,4.79 -0.79,3.59 -0.98,2.39 -0.82,1.19 -0.65,0 -0.64,-0.07 -0.63,-0.15 -0.60,-0.23 -0.58,-0.30 -0.53,-0.37 -0.49,-0.43 -0.43,-0.48 -0.37,-0.54 -0.30,-0.57 -0.23,-0.61 -0.15,-0.63 -0.07,-0.65 0.00,-0.65 0.07,-0.65 0.15,-0.63 0.23,-0.61 0.30,-0.57 0.37,-0.54 0.43,-0.48 0.49,-0.43 0.53,-0.37 0.58,-0.30 0.60,-0.23 0.63,-0.15 0.64,-0.07 0.65,0.00 0.65,0.00 L 0.65,0 Z"/></g><g transform="translate(28.75 21.111114501953125) rotate(0 1.041656494140625 9.027786254882812)" stroke="none"><path fill="#1e1e1e" d="M 0.63,-0.18 Q 0.63,-0.18 1.22,1.16 1.81,2.50 2.21,4.11 2.62,5.72 2.81,7.26 3.00,8.80 3.07,10.47 3.14,12.13 2.93,14.82 2.73,17.52 2.71,17.62 2.70,17.73 2.65,17.82 2.60,17.92 2.52,17.99 2.45,18.07 2.35,18.11 2.26,18.16 2.15,18.17 2.04,18.18 1.94,18.16 1.84,18.14 1.74,18.09 1.65,18.03 1.58,17.95 1.51,17.87 1.47,17.78 1.43,17.68 1.42,17.57 1.42,17.47 1.44,17.36 1.47,17.26 1.53,17.17 1.59,17.08 1.67,17.02 1.75,16.95 1.86,16.92 1.96,16.88 2.06,16.88 2.17,16.88 2.27,16.91 2.37,16.94 2.46,17.01 2.54,17.07 2.60,17.16 2.66,17.24 2.69,17.35 2.72,17.45 2.72,17.55 2.71,17.66 2.68,17.76 2.64,17.86 2.57,17.94 2.50,18.02 2.41,18.08 2.32,18.13 2.22,18.16 2.12,18.18 2.01,18.17 1.90,18.16 1.81,18.12 1.71,18.08 1.63,18.00 1.55,17.93 1.50,17.84 1.45,17.75 1.43,17.64 1.41,17.54 1.41,17.54 1.41,17.54 1.12,14.88 0.82,12.22 0.76,10.64 0.69,9.05 0.57,7.64 0.44,6.23 0.11,4.65 -0.21,3.08 -0.42,1.63 -0.63,0.18 -0.64,0.10 -0.65,0.02 -0.64,-0.05 -0.64,-0.13 -0.61,-0.20 -0.59,-0.28 -0.54,-0.35 -0.50,-0.41 -0.44,-0.47 -0.39,-0.52 -0.32,-0.56 -0.25,-0.60 -0.17,-0.62 -0.10,-0.64 -0.02,-0.65 0.05,-0.65 0.13,-0.63 0.21,-0.62 0.28,-0.58 0.35,-0.55 0.41,-0.50 0.47,-0.45 0.52,-0.38 0.56,-0.32 0.60,-0.25 0.63,-0.18 0.63,-0.18 L 0.63,-0.18 Z"/></g><g transform="translate(41.9444580078125 15.555572509765625) rotate(0 5.90277099609375 8.333328247070312)" stroke="none"><path fill="#1e1e1e" d="M 0.36,-0.54 Q 0.36,-0.54 1.70,0.03 3.04,0.62 4.58,1.77 6.13,2.92 7.40,4.02 8.68,5.13 9.67,6.24 10.67,7.35 11.36,8.57 12.06,9.79 11.97,11.20 11.88,12.60 11.08,13.71 10.29,14.81 7.66,16.20 5.04,17.59 4.94,17.63 4.84,17.67 4.74,17.68 4.63,17.68 4.53,17.65 4.43,17.63 4.34,17.57 4.25,17.51 4.19,17.42 4.12,17.34 4.09,17.24 4.05,17.14 4.05,17.03 4.05,16.93 4.09,16.82 4.12,16.72 4.18,16.64 4.25,16.55 4.33,16.49 4.42,16.43 4.52,16.40 4.63,16.38 4.73,16.38 4.84,16.39 4.94,16.43 5.04,16.46 5.12,16.53 5.20,16.60 5.25,16.69 5.31,16.78 5.33,16.89 5.36,16.99 5.35,17.10 5.33,17.20 5.29,17.30 5.25,17.39 5.17,17.47 5.10,17.55 5.01,17.60 4.91,17.65 4.81,17.67 4.70,17.69 4.60,17.67 4.49,17.65 4.40,17.60 4.31,17.55 4.23,17.48 4.16,17.40 4.11,17.30 4.07,17.21 4.06,17.10 4.04,17.00 4.07,16.89 4.09,16.79 4.14,16.70 4.20,16.61 4.28,16.54 4.36,16.47 4.36,16.47 4.36,16.47 6.34,14.85 8.33,13.24 8.85,12.66 9.38,12.07 9.58,11.39 9.79,10.71 9.30,9.83 8.81,8.96 7.95,7.95 7.09,6.94 5.89,5.88 4.69,4.82 3.21,3.69 1.74,2.56 0.69,1.55 -0.36,0.54 -0.42,0.49 -0.48,0.44 -0.53,0.37 -0.57,0.31 -0.60,0.24 -0.63,0.16 -0.64,0.08 -0.65,0.01 -0.64,-0.06 -0.64,-0.14 -0.61,-0.22 -0.58,-0.29 -0.54,-0.36 -0.49,-0.42 -0.44,-0.48 -0.38,-0.53 -0.31,-0.57 -0.24,-0.61 -0.16,-0.63 -0.08,-0.65 -0.01,-0.65 0.06,-0.65 0.14,-0.63 0.22,-0.61 0.29,-0.58 0.36,-0.54 0.36,-0.54 L 0.36,-0.54 Z"/></g><g transform="translate(10.6944580078125 63.47222900390625) rotate(0 -0.000030517578125 5.90277099609375)" stroke="none"><path fill="#1e1e1e" d="M 0.64,0.10 Q 0.64,0.10 0.71,1.34 0.78,2.58 0.91,3.95 1.04,5.31 1.05,6.58 1.06,7.84 1.13,9.40 1.20,10.97 1.20,11.07 1.20,11.18 1.17,11.28 1.14,11.38 1.08,11.47 1.02,11.56 0.93,11.62 0.84,11.68 0.74,11.71 0.64,11.74 0.54,11.74 0.43,11.74 0.33,11.70 0.23,11.67 0.15,11.60 0.06,11.53 0.01,11.44 -0.04,11.35 -0.07,11.25 -0.09,11.15 -0.09,11.04 -0.08,10.94 -0.04,10.84 0.00,10.74 0.07,10.66 0.14,10.58 0.23,10.53 0.32,10.48 0.43,10.46 0.53,10.44 0.64,10.45 0.74,10.46 0.84,10.51 0.93,10.56 1.01,10.63 1.08,10.71 1.13,10.80 1.18,10.90 1.19,11.00 1.21,11.11 1.19,11.21 1.17,11.32 1.12,11.41 1.06,11.50 0.99,11.57 0.91,11.65 0.81,11.69 0.71,11.73 0.61,11.74 0.50,11.75 0.40,11.72 0.29,11.70 0.20,11.64 0.11,11.58 0.05,11.50 -0.01,11.42 -0.05,11.32 -0.08,11.22 -0.08,11.22 -0.08,11.22 -0.64,9.58 -1.20,7.93 -1.29,6.71 -1.38,5.50 -1.48,3.85 -1.58,2.20 -1.11,1.04 -0.64,-0.10 -0.62,-0.18 -0.60,-0.25 -0.56,-0.32 -0.52,-0.39 -0.46,-0.45 -0.41,-0.51 -0.34,-0.55 -0.27,-0.59 -0.20,-0.61 -0.12,-0.64 -0.04,-0.64 0.02,-0.65 0.10,-0.64 0.18,-0.62 0.25,-0.59 0.33,-0.56 0.39,-0.51 0.45,-0.47 0.50,-0.41 0.55,-0.34 0.59,-0.27 0.62,-0.20 0.63,-0.12 0.65,-0.05 0.65,0.02 0.64,0.10 0.64,0.10 L 0.64,0.10 Z"/></g><g transform="translate(21.8055419921875 67.63888549804688) rotate(0 4.861114501953125 3.125)" stroke="none"><path fill="#1e1e1e" d="M 0.65,0.09 Q 0.65,0.09 0.65,1.51 0.65,2.94 0.57,4.06 0.49,5.17 1.00,6.01 1.51,6.85 2.20,7.35 2.90,7.84 3.55,8.05 4.19,8.25 5.09,7.60 5.98,6.96 6.77,6.16 7.57,5.35 8.04,4.52 8.52,3.68 8.49,2.73 8.45,1.77 8.10,0.86 7.74,-0.03 7.28,-0.73 6.81,-1.43 4.73,-0.83 2.64,-0.24 2.54,-0.21 2.44,-0.17 2.33,-0.18 2.22,-0.18 2.12,-0.21 2.02,-0.25 1.94,-0.31 1.86,-0.38 1.80,-0.47 1.74,-0.56 1.72,-0.66 1.69,-0.76 1.70,-0.87 1.70,-0.98 1.75,-1.07 1.79,-1.17 1.86,-1.25 1.93,-1.33 2.02,-1.38 2.11,-1.44 2.22,-1.46 2.32,-1.48 2.42,-1.47 2.53,-1.45 2.63,-1.41 2.72,-1.36 2.80,-1.29 2.87,-1.21 2.92,-1.12 2.97,-1.02 2.98,-0.92 3.00,-0.81 2.98,-0.71 2.96,-0.60 2.91,-0.51 2.86,-0.42 2.78,-0.34 2.70,-0.27 2.60,-0.23 2.51,-0.19 2.40,-0.18 2.30,-0.17 2.19,-0.19 2.09,-0.22 2.00,-0.27 1.91,-0.33 1.84,-0.41 1.77,-0.50 1.74,-0.59 1.70,-0.69 1.70,-0.80 1.69,-0.91 1.72,-1.01 1.75,-1.11 1.81,-1.20 1.87,-1.28 1.96,-1.35 2.05,-1.41 2.05,-1.41 2.05,-1.41 4.21,-2.74 6.37,-4.06 7.55,-3.49 8.72,-2.92 9.38,-1.88 10.03,-0.83 10.43,0.48 10.83,1.81 10.70,3.28 10.56,4.75 9.87,5.86 9.18,6.98 8.14,7.95 7.11,8.92 5.60,9.63 4.08,10.34 2.82,9.98 1.56,9.61 0.58,8.77 -0.40,7.92 -1.01,6.55 -1.63,5.18 -1.54,3.91 -1.45,2.64 -1.05,1.27 -0.65,-0.09 -0.62,-0.16 -0.60,-0.24 -0.57,-0.31 -0.53,-0.38 -0.47,-0.44 -0.42,-0.50 -0.35,-0.54 -0.29,-0.58 -0.21,-0.61 -0.14,-0.64 -0.06,-0.64 0.01,-0.65 0.09,-0.64 0.17,-0.63 0.24,-0.60 0.31,-0.57 0.38,-0.52 0.44,-0.48 0.49,-0.42 0.54,-0.36 0.58,-0.29 0.61,-0.21 0.63,-0.14 0.65,-0.06 0.65,0.01 0.65,0.09 0.65,0.09 L 0.65,0.09 Z"/></g><g transform="translate(40.5555419921875 62.083343505859375) rotate(0 4.166656494140625 8.333328247070312)" stroke="none"><path fill="#1e1e1e" d="M 0.46,-0.46 Q 0.46,-0.46 1.47,0.12 2.47,0.71 3.36,1.39 4.25,2.07 5.29,3.01 6.33,3.95 7.32,4.69 8.32,5.44 8.90,6.17 9.49,6.89 9.60,8.28 9.72,9.67 9.04,11.17 8.36,12.66 7.37,13.84 6.37,15.03 5.06,16.13 3.75,17.24 3.67,17.30 3.58,17.37 3.48,17.41 3.39,17.45 3.28,17.45 3.17,17.46 3.07,17.43 2.97,17.40 2.88,17.34 2.79,17.28 2.73,17.19 2.67,17.11 2.64,17.00 2.60,16.90 2.60,16.80 2.61,16.69 2.64,16.59 2.68,16.49 2.74,16.41 2.81,16.32 2.90,16.26 2.98,16.21 3.09,16.18 3.19,16.15 3.30,16.16 3.40,16.17 3.50,16.21 3.60,16.25 3.68,16.32 3.76,16.39 3.81,16.48 3.87,16.57 3.89,16.67 3.91,16.78 3.90,16.88 3.88,16.99 3.84,17.08 3.79,17.18 3.72,17.26 3.64,17.33 3.55,17.38 3.45,17.43 3.35,17.45 3.24,17.46 3.14,17.44 3.03,17.42 2.94,17.37 2.85,17.32 2.78,17.25 2.70,17.17 2.66,17.07 2.62,16.97 2.61,16.87 2.60,16.76 2.62,16.66 2.65,16.55 2.70,16.46 2.76,16.37 2.76,16.37 2.76,16.37 3.62,14.98 4.48,13.59 5.20,12.52 5.92,11.45 6.45,10.48 6.98,9.51 6.84,8.51 6.71,7.50 5.65,6.67 4.60,5.84 3.64,4.95 2.69,4.06 1.70,3.27 0.71,2.47 0.12,1.47 -0.46,0.46 -0.51,0.40 -0.56,0.33 -0.59,0.26 -0.62,0.19 -0.64,0.11 -0.65,0.03 -0.65,-0.03 -0.64,-0.11 -0.62,-0.19 -0.59,-0.26 -0.55,-0.33 -0.51,-0.40 -0.46,-0.46 -0.40,-0.51 -0.33,-0.55 -0.26,-0.59 -0.19,-0.62 -0.11,-0.64 -0.03,-0.65 0.03,-0.65 0.11,-0.64 0.19,-0.62 0.26,-0.59 0.33,-0.56 0.40,-0.51 0.46,-0.46 0.46,-0.46 L 0.46,-0.46 Z"/></g><g transform="translate(14.16668701171875 103.75) rotate(0 0.694427490234375 10.763885498046875)" stroke="none"><path fill="#1e1e1e" d="M 0.65,0 Q 0.65,0 0.86,1.19 1.06,2.39 1.30,4.65 1.54,6.90 1.83,9.06 2.13,11.21 2.24,13.17 2.35,15.13 2.19,18.04 2.03,20.95 2.01,21.05 2.00,21.16 1.95,21.26 1.90,21.35 1.83,21.43 1.75,21.50 1.66,21.55 1.56,21.59 1.46,21.61 1.35,21.62 1.25,21.60 1.14,21.58 1.05,21.53 0.96,21.48 0.89,21.40 0.82,21.32 0.77,21.22 0.73,21.12 0.72,21.02 0.72,20.91 0.74,20.81 0.77,20.70 0.83,20.62 0.88,20.53 0.97,20.46 1.05,20.39 1.15,20.36 1.25,20.32 1.35,20.32 1.46,20.32 1.56,20.35 1.66,20.38 1.75,20.44 1.84,20.50 1.90,20.59 1.96,20.68 1.99,20.78 2.02,20.88 2.02,20.99 2.01,21.09 1.98,21.19 1.94,21.29 1.87,21.37 1.81,21.46 1.72,21.51 1.63,21.57 1.52,21.60 1.42,21.62 1.32,21.61 1.21,21.60 1.11,21.56 1.01,21.52 0.94,21.45 0.86,21.38 0.81,21.28 0.75,21.19 0.73,21.09 0.71,20.98 0.71,20.98 0.71,20.98 0.39,18.13 0.06,15.28 -0.06,13.39 -0.19,11.51 -0.47,9.31 -0.74,7.10 -0.90,4.75 -1.06,2.39 -0.86,1.19 -0.65,0 -0.64,-0.07 -0.63,-0.15 -0.60,-0.23 -0.58,-0.30 -0.53,-0.37 -0.49,-0.43 -0.43,-0.48 -0.37,-0.54 -0.30,-0.57 -0.23,-0.61 -0.15,-0.63 -0.07,-0.65 0.00,-0.65 0.07,-0.65 0.15,-0.63 0.23,-0.61 0.30,-0.57 0.37,-0.54 0.43,-0.48 0.49,-0.43 0.53,-0.37 0.58,-0.30 0.60,-0.23 0.63,-0.15 0.64,-0.07 0.65,0.00 0.65,0.00 L 0.65,0 Z"/></g><g transform="translate(25.97222900390625 108.61111450195312) rotate(0 2.77777099609375 4.861114501953125)" stroke="none"><path fill="#1e1e1e" d="M 0.29,0.58 Q 0.29,0.58 0.05,0.96 -0.19,1.34 -0.64,2.97 -1.10,4.61 -0.83,5.93 -0.56,7.24 -0.27,8.66 0.02,10.07 0.47,10.69 0.91,11.32 1.77,11.45 2.62,11.58 3.36,11.01 4.11,10.44 4.76,9.33 5.41,8.22 5.89,6.05 6.36,3.89 6.38,2.23 6.39,0.57 6.08,-0.34 5.77,-1.26 5.03,-1.72 4.30,-2.18 2.54,-1.94 0.78,-1.70 0.67,-1.68 0.57,-1.65 0.46,-1.66 0.36,-1.67 0.26,-1.71 0.16,-1.75 0.08,-1.82 0.00,-1.89 -0.04,-1.98 -0.09,-2.08 -0.11,-2.18 -0.13,-2.28 -0.12,-2.39 -0.10,-2.49 -0.06,-2.59 -0.01,-2.69 0.06,-2.76 0.13,-2.84 0.23,-2.88 0.32,-2.93 0.43,-2.95 0.53,-2.96 0.64,-2.94 0.74,-2.92 0.83,-2.87 0.93,-2.82 1.00,-2.74 1.07,-2.66 1.11,-2.56 1.15,-2.46 1.16,-2.36 1.17,-2.25 1.14,-2.15 1.12,-2.05 1.06,-1.96 1.01,-1.87 0.92,-1.80 0.84,-1.73 0.74,-1.70 0.64,-1.66 0.53,-1.66 0.43,-1.65 0.33,-1.68 0.22,-1.71 0.14,-1.78 0.05,-1.84 -0.00,-1.92 -0.06,-2.01 -0.09,-2.11 -0.13,-2.21 -0.12,-2.32 -0.12,-2.43 -0.08,-2.53 -0.05,-2.63 0.01,-2.71 0.08,-2.79 0.16,-2.85 0.25,-2.91 0.25,-2.91 0.25,-2.91 2.87,-3.50 5.48,-4.09 6.67,-3.16 7.87,-2.24 8.32,-0.83 8.78,0.56 8.74,2.49 8.69,4.42 8.08,6.94 7.46,9.46 6.49,10.91 5.53,12.36 4.34,13.13 3.15,13.91 1.95,14.00 0.76,14.09 -0.16,13.37 -1.09,12.64 -1.70,11.63 -2.31,10.62 -2.62,9.12 -2.94,7.62 -3.17,5.85 -3.39,4.07 -2.98,2.64 -2.57,1.21 -1.98,0.33 -1.40,-0.54 -0.84,-0.56 -0.29,-0.58 -0.21,-0.61 -0.14,-0.64 -0.06,-0.64 0.01,-0.65 0.09,-0.64 0.16,-0.63 0.24,-0.60 0.31,-0.57 0.38,-0.52 0.44,-0.48 0.49,-0.42 0.54,-0.36 0.58,-0.29 0.61,-0.22 0.63,-0.14 0.65,-0.06 0.65,0.01 0.65,0.09 0.62,0.16 0.60,0.24 0.57,0.31 0.53,0.38 0.47,0.44 0.42,0.50 0.35,0.54 0.29,0.58 0.29,0.58 L 0.29,0.58 Z"/></g><g transform="translate(40.5555419921875 105.13888549804688) rotate(0 5.208343505859375 10.069442749023438)" stroke="none"><path fill="#1e1e1e" d="M 0.51,-0.41 Q 0.51,-0.41 1.52,0.41 2.53,1.24 3.61,2.18 4.69,3.12 5.80,4.16 6.90,5.20 8.02,6.48 9.13,7.76 9.88,9.23 10.63,10.70 10.76,12.34 10.89,13.99 9.99,15.64 9.10,17.29 7.51,18.63 5.92,19.96 5.83,20.03 5.75,20.09 5.65,20.13 5.55,20.16 5.44,20.16 5.33,20.16 5.23,20.13 5.13,20.10 5.05,20.03 4.96,19.97 4.90,19.88 4.84,19.79 4.81,19.69 4.78,19.59 4.79,19.48 4.80,19.38 4.83,19.28 4.87,19.18 4.94,19.10 5.01,19.02 5.10,18.96 5.19,18.91 5.29,18.88 5.40,18.86 5.50,18.87 5.61,18.88 5.71,18.93 5.80,18.97 5.88,19.04 5.96,19.12 6.01,19.21 6.06,19.30 6.08,19.41 6.09,19.51 6.08,19.62 6.06,19.72 6.01,19.82 5.96,19.91 5.88,19.98 5.81,20.06 5.71,20.10 5.62,20.15 5.51,20.16 5.40,20.17 5.30,20.15 5.20,20.13 5.11,20.07 5.01,20.02 4.94,19.94 4.88,19.86 4.84,19.76 4.80,19.66 4.79,19.55 4.78,19.45 4.81,19.34 4.84,19.24 4.90,19.15 4.96,19.07 4.96,19.07 4.96,19.07 6.00,17.60 7.05,16.13 7.68,15.02 8.32,13.92 8.29,12.84 8.27,11.77 7.72,10.59 7.17,9.41 6.17,8.21 5.16,7.01 4.10,5.99 3.04,4.96 1.85,3.85 0.66,2.74 0.07,1.57 -0.51,0.41 -0.55,0.34 -0.59,0.27 -0.62,0.20 -0.64,0.12 -0.65,0.04 -0.65,-0.03 -0.64,-0.11 -0.62,-0.18 -0.59,-0.26 -0.56,-0.33 -0.51,-0.39 -0.46,-0.45 -0.40,-0.50 -0.34,-0.55 -0.27,-0.59 -0.20,-0.62 -0.12,-0.63 -0.04,-0.65 0.03,-0.65 0.11,-0.64 0.18,-0.62 0.26,-0.60 0.33,-0.56 0.39,-0.52 0.45,-0.46 0.51,-0.41 0.51,-0.41 L 0.51,-0.41 Z"/></g><g transform="translate(139.1666259765625 19.72222900390625) rotate(0 1.388916015625 3.8194427490234375)" stroke="none"><path fill="#1e1e1e" d="M -0.46,0.46 Q -0.46,0.46 -0.87,0.26 -1.29,0.07 -1.79,0.37 -2.28,0.67 -2.77,1.70 -3.26,2.74 -3.37,3.53 -3.49,4.33 -3.36,4.93 -3.23,5.54 -2.84,6.08 -2.46,6.62 -1.91,7.27 -1.37,7.91 -0.81,8.33 -0.25,8.74 0.51,9.09 1.28,9.44 1.91,9.57 2.55,9.70 3.47,9.06 4.38,8.41 5.01,7.61 5.63,6.81 5.82,6.02 6.01,5.24 6.11,4.33 6.20,3.42 6.24,2.63 6.28,1.85 6.12,1.29 5.95,0.73 5.56,0.22 5.17,-0.28 4.70,-0.64 4.24,-1.00 2.41,-1.32 0.58,-1.64 0.48,-1.61 0.38,-1.57 0.27,-1.58 0.16,-1.58 0.06,-1.61 -0.03,-1.65 -0.11,-1.71 -0.19,-1.78 -0.25,-1.87 -0.31,-1.96 -0.34,-2.06 -0.36,-2.16 -0.36,-2.27 -0.35,-2.38 -0.31,-2.47 -0.27,-2.57 -0.20,-2.65 -0.13,-2.73 -0.03,-2.78 0.05,-2.84 0.15,-2.86 0.26,-2.88 0.36,-2.87 0.47,-2.85 0.56,-2.81 0.66,-2.76 0.73,-2.69 0.81,-2.61 0.86,-2.52 0.91,-2.42 0.92,-2.32 0.94,-2.21 0.92,-2.11 0.90,-2.00 0.85,-1.91 0.80,-1.82 0.72,-1.75 0.64,-1.67 0.54,-1.63 0.45,-1.59 0.34,-1.58 0.23,-1.57 0.13,-1.59 0.03,-1.62 -0.05,-1.67 -0.14,-1.73 -0.21,-1.81 -0.28,-1.90 -0.31,-1.99 -0.35,-2.09 -0.36,-2.20 -0.36,-2.31 -0.33,-2.41 -0.30,-2.51 -0.24,-2.60 -0.18,-2.68 -0.09,-2.75 -0.01,-2.81 -0.01,-2.81 -0.01,-2.81 2.07,-3.25 4.15,-3.69 5.01,-3.37 5.86,-3.05 6.60,-2.40 7.33,-1.75 7.89,-0.82 8.45,0.09 8.64,1.04 8.83,1.98 8.76,2.86 8.69,3.73 8.54,4.84 8.38,5.96 7.97,7.12 7.57,8.27 6.79,9.22 6.01,10.17 5.05,10.94 4.08,11.71 3.09,11.85 2.10,11.99 1.20,11.77 0.29,11.55 -0.68,11.07 -1.67,10.59 -2.41,10.00 -3.15,9.41 -3.79,8.63 -4.43,7.85 -4.96,6.91 -5.49,5.98 -5.63,4.99 -5.77,3.99 -5.57,2.90 -5.37,1.81 -4.93,0.88 -4.49,-0.03 -3.92,-0.66 -3.35,-1.30 -2.68,-1.57 -2.02,-1.84 -1.16,-1.75 -0.30,-1.67 0.07,-1.06 0.46,-0.46 0.51,-0.40 0.56,-0.33 0.59,-0.26 0.62,-0.19 0.64,-0.11 0.65,-0.03 0.65,0.03 0.64,0.11 0.62,0.19 0.59,0.26 0.55,0.33 0.51,0.40 0.46,0.46 0.40,0.51 0.33,0.55 0.26,0.59 0.19,0.62 0.11,0.64 0.03,0.65 -0.03,0.65 -0.11,0.64 -0.19,0.62 -0.26,0.59 -0.33,0.56 -0.40,0.51 -0.46,0.46 -0.46,0.46 L -0.46,0.46 Z"/></g><g transform="translate(142.63885498046875 32.22222900390625) rotate(0 0.347259521484375 27.083328247070312)" stroke="none"><path fill="#1e1e1e" d="M -0.20,0.62 Q -0.20,0.62 -0.75,0.53 -1.30,0.44 -0.90,1.56 -0.50,2.67 -0.41,3.70 -0.33,4.73 -0.29,5.77 -0.25,6.80 -0.22,7.64 -0.20,8.47 -0.18,9.43 -0.16,10.38 0.02,11.04 0.21,11.70 0.32,12.52 0.43,13.34 0.47,14.09 0.51,14.85 0.54,15.99 0.57,17.13 0.58,17.99 0.59,18.85 0.58,19.53 0.57,20.22 0.64,21.16 0.70,22.10 0.66,22.64 0.62,23.17 0.61,23.83 0.60,24.50 0.60,25.04 0.60,25.58 0.60,26.59 0.60,27.61 0.60,28.05 0.61,28.50 0.59,28.66 0.57,28.81 0.51,28.96 0.46,29.11 0.37,29.24 0.28,29.37 0.16,29.47 0.04,29.58 -0.09,29.65 -0.23,29.72 -0.38,29.76 -0.53,29.80 -0.69,29.80 -0.85,29.80 -1.00,29.76 -1.15,29.72 -1.29,29.65 -1.43,29.58 -1.55,29.47 -1.67,29.37 -1.76,29.24 -1.85,29.11 -1.90,28.96 -1.96,28.81 -1.98,28.66 -2.00,28.50 -1.76,29.23 -1.53,29.97 -2.47,29.75 -3.41,29.54 -4.02,29.47 -4.64,29.41 -5.33,29.58 -6.02,29.74 -6.91,29.98 -7.80,30.22 -8.71,31.31 -9.61,32.39 -9.98,33.35 -10.35,34.32 -10.73,35.53 -11.11,36.75 -11.25,38.15 -11.40,39.54 -11.27,40.64 -11.15,41.73 -10.90,43.00 -10.66,44.26 -10.19,45.50 -9.72,46.75 -9.14,47.84 -8.57,48.93 -7.98,49.73 -7.38,50.53 -6.62,51.19 -5.85,51.85 -4.87,52.27 -3.89,52.68 -2.95,52.86 -2.02,53.04 -0.97,52.92 0.08,52.81 1.47,52.40 2.86,51.98 4.39,51.25 5.91,50.52 7.01,49.34 8.11,48.15 8.96,46.72 9.82,45.28 10.60,43.86 11.38,42.44 11.65,40.83 11.91,39.22 12.05,37.52 12.18,35.83 12.05,34.63 11.92,33.42 11.33,32.29 10.74,31.16 9.98,30.35 9.22,29.54 8.02,28.87 6.81,28.19 5.86,27.66 4.90,27.13 3.91,26.97 2.92,26.82 1.90,26.98 0.87,27.13 0.19,27.31 -0.49,27.50 -1.11,27.60 -1.72,27.69 -3.28,29.09 -4.84,30.49 -4.89,30.58 -4.94,30.68 -5.01,30.75 -5.09,30.82 -5.19,30.87 -5.28,30.91 -5.39,30.92 -5.50,30.93 -5.60,30.91 -5.70,30.88 -5.79,30.83 -5.88,30.77 -5.95,30.69 -6.02,30.61 -6.06,30.51 -6.10,30.41 -6.10,30.31 -6.11,30.20 -6.08,30.10 -6.05,30.00 -5.99,29.91 -5.93,29.82 -5.85,29.76 -5.76,29.69 -5.66,29.66 -5.56,29.63 -5.45,29.63 -5.35,29.63 -5.25,29.66 -5.14,29.70 -5.06,29.76 -4.98,29.83 -4.92,29.92 -4.86,30.00 -4.83,30.11 -4.80,30.21 -4.81,30.31 -4.82,30.42 -4.86,30.52 -4.90,30.62 -4.96,30.70 -5.03,30.78 -5.13,30.83 -5.22,30.89 -5.32,30.91 -5.42,30.93 -5.53,30.92 -5.64,30.91 -5.73,30.86 -5.83,30.82 -5.90,30.74 -5.98,30.67 -6.03,30.58 -6.08,30.48 -6.10,30.38 -6.11,30.27 -6.09,30.17 -6.08,30.06 -6.08,30.06 -6.08,30.06 -5.31,28.18 -4.54,26.29 -3.87,25.66 -3.20,25.02 -2.23,24.82 -1.26,24.62 0.13,24.33 1.54,24.04 2.49,23.95 3.44,23.85 4.88,24.17 6.32,24.48 7.34,25.04 8.35,25.61 9.88,26.56 11.42,27.52 12.42,28.68 13.42,29.84 14.14,31.45 14.87,33.06 15.01,34.56 15.15,36.06 15.00,37.91 14.84,39.76 14.43,41.80 14.01,43.83 13.18,45.33 12.36,46.83 11.31,48.53 10.26,50.22 8.75,51.70 7.25,53.18 5.48,54.03 3.70,54.87 2.02,55.35 0.34,55.82 -1.13,55.91 -2.60,56.01 -3.86,55.73 -5.13,55.46 -6.49,54.81 -7.85,54.16 -8.84,53.26 -9.84,52.35 -10.57,51.35 -11.29,50.35 -11.95,49.09 -12.60,47.82 -13.15,46.33 -13.69,44.85 -13.95,43.45 -14.22,42.04 -14.35,40.63 -14.47,39.21 -14.27,37.52 -14.07,35.83 -13.64,34.47 -13.21,33.12 -12.62,31.79 -12.04,30.46 -11.26,29.53 -10.49,28.60 -9.61,27.95 -8.72,27.30 -7.64,27.01 -6.56,26.71 -5.44,26.55 -4.32,26.39 -3.48,26.50 -2.64,26.61 -2.04,26.80 -1.44,26.99 -0.41,27.75 0.61,28.50 0.59,28.66 0.57,28.81 0.51,28.96 0.46,29.11 0.37,29.24 0.28,29.37 0.16,29.47 0.04,29.58 -0.09,29.65 -0.23,29.72 -0.38,29.76 -0.53,29.80 -0.69,29.80 -0.85,29.80 -1.00,29.76 -1.15,29.72 -1.29,29.65 -1.43,29.58 -1.55,29.47 -1.67,29.37 -1.76,29.24 -1.85,29.11 -1.90,28.96 -1.96,28.81 -1.98,28.66 -2.00,28.50 -1.99,28.05 -1.99,27.60 -1.99,26.59 -1.98,25.57 -1.98,24.66 -1.97,23.75 -1.94,22.99 -1.90,22.22 -1.93,21.30 -1.96,20.39 -1.97,19.62 -1.98,18.86 -1.98,18.01 -1.98,17.16 -1.99,16.07 -2.01,14.98 -2.04,14.30 -2.07,13.63 -2.13,12.97 -2.20,12.30 -2.41,11.36 -2.62,10.41 -2.61,9.46 -2.60,8.51 -2.60,7.69 -2.60,6.87 -2.62,5.88 -2.63,4.89 -2.68,3.98 -2.72,3.06 -2.86,2.01 -3.00,0.96 -2.69,0.10 -2.38,-0.75 -1.73,-0.99 -1.08,-1.24 -0.43,-0.93 0.20,-0.62 0.27,-0.58 0.35,-0.55 0.41,-0.50 0.47,-0.45 0.52,-0.39 0.56,-0.32 0.59,-0.25 0.63,-0.18 0.64,-0.10 0.65,-0.02 0.64,0.05 0.64,0.13 0.61,0.20 0.59,0.28 0.55,0.34 0.50,0.41 0.45,0.46 0.39,0.52 0.32,0.56 0.25,0.60 0.18,0.62 0.10,0.64 0.02,0.65 -0.05,0.65 -0.13,0.63 -0.20,0.62 -0.20,0.62 L -0.20,0.62 Z"/></g><g transform="translate(141.25 60.6944580078125) rotate(0 1.736114501953125 12.847213745117188)" stroke="none"><path fill="#1e1e1e" d="M 0.65,0 Q 0.65,0 0.91,0.99 1.17,1.99 1.40,4.36 1.62,6.73 1.92,9.34 2.22,11.95 2.55,14.65 2.89,17.36 3.21,19.07 3.53,20.78 3.72,22.90 3.92,25.03 3.94,25.13 3.96,25.23 3.95,25.34 3.93,25.44 3.89,25.54 3.84,25.64 3.77,25.71 3.69,25.79 3.60,25.84 3.50,25.88 3.40,25.90 3.29,25.92 3.19,25.90 3.08,25.88 2.99,25.83 2.90,25.77 2.83,25.70 2.75,25.62 2.71,25.52 2.67,25.42 2.66,25.32 2.65,25.21 2.67,25.11 2.70,25.01 2.75,24.92 2.81,24.83 2.89,24.76 2.97,24.69 3.07,24.65 3.17,24.61 3.28,24.61 3.39,24.61 3.49,24.64 3.59,24.67 3.68,24.73 3.76,24.79 3.83,24.87 3.89,24.96 3.92,25.06 3.95,25.16 3.95,25.27 3.95,25.38 3.91,25.48 3.88,25.58 3.81,25.66 3.75,25.74 3.66,25.80 3.57,25.86 3.47,25.89 3.36,25.91 3.26,25.90 3.15,25.90 3.05,25.86 2.96,25.82 2.88,25.75 2.80,25.68 2.74,25.58 2.69,25.49 2.69,25.49 2.69,25.49 1.86,23.37 1.03,21.26 0.67,19.46 0.32,17.66 0.01,14.94 -0.29,12.22 -0.56,9.58 -0.83,6.93 -1.00,4.46 -1.17,1.99 -0.91,0.99 -0.65,0 -0.64,-0.07 -0.63,-0.15 -0.60,-0.23 -0.58,-0.30 -0.53,-0.37 -0.49,-0.43 -0.43,-0.48 -0.37,-0.54 -0.30,-0.57 -0.23,-0.61 -0.15,-0.63 -0.07,-0.65 0.00,-0.65 0.07,-0.65 0.15,-0.63 0.23,-0.61 0.30,-0.57 0.37,-0.54 0.43,-0.48 0.49,-0.43 0.53,-0.37 0.58,-0.30 0.60,-0.23 0.63,-0.15 0.64,-0.07 0.65,0.00 0.65,0.00 L 0.65,0 Z"/></g><g transform="translate(237.08331298828125 20.41668701171875) rotate(0 1.04168701171875 5.9027557373046875)" stroke="none"><path fill="#1e1e1e" d="M 0,0.65 Q 0,0.65 -0.59,0.88 -1.18,1.11 -1.83,1.78 -2.47,2.44 -2.81,3.24 -3.15,4.03 -3.27,4.86 -3.39,5.69 -3.26,6.73 -3.12,7.77 -2.72,8.48 -2.33,9.20 -1.94,9.98 -1.56,10.75 -1.13,11.11 -0.70,11.47 0.30,11.43 1.32,11.39 2.07,11.01 2.83,10.63 3.22,10.00 3.60,9.38 4.20,8.32 4.80,7.26 5.00,6.34 5.20,5.42 5.30,4.83 5.41,4.24 5.03,3.22 4.66,2.21 4.27,1.66 3.87,1.12 1.75,0.21 -0.36,-0.69 -0.46,-0.72 -0.56,-0.75 -0.65,-0.81 -0.74,-0.86 -0.81,-0.95 -0.87,-1.03 -0.91,-1.13 -0.94,-1.23 -0.95,-1.34 -0.95,-1.44 -0.91,-1.54 -0.88,-1.65 -0.82,-1.73 -0.76,-1.82 -0.67,-1.88 -0.58,-1.94 -0.48,-1.97 -0.38,-2.00 -0.27,-1.99 -0.17,-1.99 -0.07,-1.95 0.02,-1.91 0.11,-1.85 0.19,-1.78 0.24,-1.69 0.30,-1.60 0.32,-1.50 0.35,-1.39 0.34,-1.29 0.33,-1.18 0.28,-1.08 0.24,-0.99 0.17,-0.91 0.10,-0.83 0.00,-0.78 -0.08,-0.73 -0.18,-0.71 -0.29,-0.69 -0.39,-0.71 -0.50,-0.72 -0.59,-0.77 -0.69,-0.82 -0.76,-0.89 -0.84,-0.97 -0.88,-1.07 -0.93,-1.16 -0.94,-1.27 -0.95,-1.37 -0.93,-1.48 -0.91,-1.58 -0.86,-1.67 -0.80,-1.76 -0.72,-1.83 -0.64,-1.90 -0.55,-1.95 -0.45,-1.99 -0.34,-1.99 -0.24,-2.00 -0.24,-2.00 -0.24,-2.00 2.28,-1.65 4.81,-1.30 5.39,-0.88 5.96,-0.46 6.59,0.36 7.22,1.20 7.52,1.99 7.82,2.78 7.97,3.71 8.12,4.65 7.99,5.37 7.85,6.10 7.49,7.34 7.13,8.58 6.41,9.79 5.69,10.99 4.85,11.94 4.02,12.90 2.84,13.40 1.65,13.91 0.52,13.98 -0.61,14.05 -1.48,13.69 -2.35,13.33 -3.05,12.62 -3.76,11.91 -4.16,11.11 -4.56,10.31 -5.07,9.19 -5.58,8.08 -5.70,6.69 -5.82,5.30 -5.60,4.17 -5.37,3.05 -4.91,2.06 -4.44,1.08 -3.70,0.23 -2.97,-0.61 -2.09,-0.86 -1.21,-1.11 -0.60,-0.88 0,-0.65 0.07,-0.64 0.15,-0.63 0.23,-0.60 0.30,-0.58 0.37,-0.53 0.43,-0.49 0.48,-0.43 0.54,-0.37 0.57,-0.30 0.61,-0.23 0.63,-0.15 0.65,-0.07 0.65,0.00 0.65,0.07 0.63,0.15 0.61,0.23 0.57,0.30 0.54,0.37 0.48,0.43 0.43,0.49 0.37,0.53 0.30,0.58 0.23,0.60 0.15,0.63 0.07,0.64 -0.00,0.65 -0.00,0.65 L 0,0.65 Z"/></g><g transform="translate(237.77777099609375 31.52777099609375) rotate(0 5.20831298828125 57.638885498046875)" stroke="none"><path fill="#1e1e1e" d="M 0.62,0.20 Q 0.62,0.20 0.65,0.88 0.69,1.55 0.65,2.28 0.60,3.02 0.58,3.74 0.56,4.47 0.74,5.25 0.92,6.03 1.02,7.30 1.11,8.57 1.34,9.59 1.57,10.60 1.69,11.74 1.80,12.88 2.05,14.07 2.29,15.26 2.41,16.45 2.54,17.65 2.60,18.96 2.66,20.28 2.88,21.75 3.11,23.22 3.21,24.72 3.32,26.23 3.36,27.47 3.41,28.71 3.43,30.04 3.45,31.37 3.46,32.33 3.47,33.29 3.47,34.50 3.47,35.72 3.26,36.77 3.05,37.83 2.98,38.73 2.91,39.63 2.87,40.41 2.84,41.20 3.01,41.99 3.19,42.77 3.28,43.85 3.37,44.93 3.40,45.99 3.44,47.04 3.64,47.96 3.83,48.88 3.94,50.00 4.04,51.11 4.08,51.98 4.13,52.85 4.14,53.83 4.16,54.80 4.34,55.45 4.53,56.09 4.64,57.14 4.75,58.19 4.79,59.23 4.83,60.27 4.85,61.31 4.86,62.35 4.87,63.39 4.88,64.43 4.88,65.07 4.88,65.71 5.01,66.27 5.14,66.83 5.28,67.36 5.42,67.88 5.49,68.72 5.56,69.55 5.57,70.27 5.58,70.98 5.56,71.15 5.54,71.32 5.49,71.48 5.43,71.65 5.33,71.79 5.24,71.93 5.11,72.05 4.99,72.16 4.84,72.25 4.69,72.33 4.52,72.37 4.36,72.42 4.18,72.42 4.01,72.42 3.85,72.38 3.68,72.35 3.53,72.27 3.37,72.19 3.24,72.08 3.11,71.97 3.01,71.83 2.91,71.69 2.85,71.53 2.78,71.37 2.76,71.20 2.74,71.03 1.96,71.03 1.18,71.03 0.33,71.44 -0.50,71.85 -1.01,72.27 -1.51,72.69 -2.28,73.61 -3.05,74.52 -3.95,76.04 -4.84,77.56 -5.60,79.36 -6.37,81.16 -7.08,83.48 -7.80,85.80 -8.30,87.97 -8.80,90.13 -9.01,92.36 -9.21,94.60 -9.10,97.29 -8.99,99.97 -8.56,102.24 -8.13,104.51 -7.40,106.14 -6.66,107.78 -5.66,108.95 -4.66,110.13 -3.00,110.92 -1.35,111.72 0.31,112.29 1.97,112.86 3.62,112.69 5.27,112.52 7.40,111.36 9.53,110.19 11.34,108.03 13.15,105.88 14.72,103.03 16.29,100.17 17.33,96.85 18.38,93.53 18.82,90.77 19.26,88.01 19.25,85.72 19.24,83.44 18.85,81.57 18.47,79.70 17.77,78.23 17.06,76.76 16.11,75.89 15.16,75.02 13.73,74.52 12.30,74.01 10.76,73.77 9.21,73.54 7.86,73.61 6.50,73.69 4.83,73.68 3.16,73.66 0.91,73.85 -1.33,74.05 -1.43,74.06 -1.53,74.08 -1.64,74.06 -1.74,74.05 -1.84,74.00 -1.93,73.95 -2.01,73.87 -2.08,73.79 -2.12,73.69 -2.17,73.60 -2.18,73.49 -2.19,73.39 -2.17,73.28 -2.14,73.18 -2.09,73.09 -2.03,73.00 -1.95,72.93 -1.87,72.86 -1.77,72.82 -1.67,72.78 -1.57,72.78 -1.46,72.77 -1.36,72.80 -1.26,72.83 -1.17,72.89 -1.08,72.95 -1.02,73.03 -0.95,73.12 -0.92,73.22 -0.89,73.32 -0.89,73.42 -0.89,73.53 -0.92,73.63 -0.95,73.73 -1.02,73.82 -1.08,73.90 -1.17,73.96 -1.26,74.02 -1.36,74.05 -1.46,74.08 -1.57,74.07 -1.68,74.06 -1.77,74.03 -1.87,73.99 -1.95,73.92 -2.04,73.85 -2.09,73.76 -2.14,73.67 -2.17,73.56 -2.19,73.46 -2.18,73.35 -2.17,73.25 -2.12,73.15 -2.08,73.05 -2.00,72.98 -1.93,72.90 -1.84,72.85 -1.74,72.80 -1.74,72.80 -1.74,72.80 0.67,71.74 3.09,70.67 4.71,70.59 6.33,70.51 8.03,70.43 9.72,70.35 11.60,70.68 13.48,71.01 15.40,71.84 17.33,72.68 18.62,74.02 19.92,75.36 20.76,77.21 21.59,79.06 22.00,81.24 22.42,83.42 22.41,85.97 22.40,88.52 21.90,91.50 21.40,94.49 20.23,98.10 19.06,101.70 17.31,104.83 15.55,107.95 13.30,110.45 11.05,112.96 8.32,114.30 5.59,115.65 3.32,115.76 1.04,115.87 -0.88,115.20 -2.81,114.53 -4.91,113.37 -7.02,112.21 -8.28,110.64 -9.55,109.07 -10.39,107.09 -11.23,105.10 -11.69,102.60 -12.15,100.10 -12.25,97.20 -12.36,94.31 -12.12,91.86 -11.88,89.41 -11.35,87.14 -10.82,84.87 -10.05,82.39 -9.27,79.91 -8.41,77.93 -7.55,75.94 -6.49,74.20 -5.43,72.46 -4.43,71.34 -3.43,70.22 -2.59,69.61 -1.75,69.00 -1.02,68.69 -0.29,68.39 0.57,68.20 1.45,68.01 1.97,68.09 2.50,68.17 3.67,68.83 4.84,69.49 5.21,70.24 5.58,70.98 5.56,71.15 5.54,71.32 5.49,71.48 5.43,71.65 5.33,71.79 5.24,71.93 5.11,72.05 4.99,72.16 4.84,72.25 4.69,72.33 4.52,72.37 4.36,72.42 4.18,72.42 4.01,72.42 3.85,72.38 3.68,72.35 3.53,72.27 3.37,72.19 3.24,72.08 3.11,71.97 3.01,71.83 2.91,71.69 2.85,71.53 2.78,71.37 2.76,71.20 2.74,71.04 2.73,70.36 2.72,69.68 2.66,68.88 2.59,68.09 2.32,66.90 2.05,65.72 2.04,65.09 2.04,64.45 2.03,63.42 2.02,62.39 2.01,61.38 2.00,60.38 1.96,59.42 1.93,58.46 1.86,57.62 1.79,56.79 1.57,55.83 1.34,54.86 1.32,53.92 1.30,52.98 1.27,52.17 1.24,51.36 1.16,50.40 1.08,49.44 0.85,48.29 0.62,47.14 0.59,46.15 0.56,45.15 0.49,44.23 0.43,43.31 0.23,42.20 0.03,41.09 0.07,40.24 0.11,39.39 0.21,38.31 0.31,37.24 0.49,36.47 0.67,35.71 0.67,34.51 0.67,33.31 0.66,32.36 0.66,31.40 0.65,30.10 0.63,28.80 0.60,27.60 0.57,26.41 0.48,25.00 0.40,23.60 0.19,21.99 -0.01,20.37 -0.04,19.13 -0.07,17.89 -0.15,16.82 -0.23,15.75 -0.47,14.43 -0.71,13.12 -0.79,12.12 -0.87,11.12 -1.11,9.93 -1.34,8.73 -1.40,7.62 -1.46,6.51 -1.65,5.44 -1.84,4.38 -1.79,3.58 -1.74,2.78 -1.61,1.81 -1.49,0.84 -1.05,0.31 -0.62,-0.20 -0.58,-0.27 -0.55,-0.35 -0.50,-0.41 -0.45,-0.47 -0.39,-0.52 -0.32,-0.56 -0.25,-0.59 -0.18,-0.63 -0.10,-0.64 -0.02,-0.65 0.05,-0.64 0.13,-0.64 0.20,-0.61 0.28,-0.59 0.34,-0.55 0.41,-0.50 0.46,-0.45 0.52,-0.39 0.56,-0.32 0.60,-0.25 0.62,-0.18 0.64,-0.10 0.65,-0.02 0.65,0.05 0.63,0.13 0.62,0.20 0.62,0.20 L 0.62,0.20 Z"/></g><g transform="translate(239.1666259765625 103.75) rotate(0 2.430572509765625 19.444442749023438)" stroke="none"><path fill="#1e1e1e" d="M 0.64,-0.12 Q 0.64,-0.12 1.11,0.81 1.57,1.76 1.89,3.60 2.20,5.44 2.74,9.42 3.29,13.40 3.72,17.50 4.14,21.60 4.49,25.34 4.83,29.08 5.06,33.06 5.28,37.05 5.28,37.16 5.27,37.26 5.24,37.36 5.20,37.46 5.13,37.54 5.06,37.63 4.98,37.68 4.89,37.74 4.78,37.76 4.68,37.79 4.57,37.78 4.47,37.77 4.37,37.73 4.27,37.69 4.19,37.61 4.12,37.54 4.06,37.45 4.01,37.36 3.99,37.25 3.97,37.15 3.99,37.04 4.00,36.94 4.05,36.84 4.10,36.75 4.17,36.67 4.25,36.60 4.35,36.55 4.44,36.51 4.55,36.49 4.65,36.48 4.76,36.50 4.86,36.52 4.95,36.57 5.04,36.63 5.11,36.71 5.19,36.79 5.23,36.88 5.27,36.98 5.28,37.09 5.28,37.19 5.26,37.30 5.23,37.40 5.17,37.49 5.12,37.58 5.03,37.64 4.95,37.71 4.85,37.74 4.75,37.78 4.64,37.78 4.54,37.78 4.44,37.75 4.33,37.72 4.25,37.66 4.16,37.60 4.10,37.51 4.04,37.42 4.01,37.32 3.98,37.22 3.98,37.22 3.98,37.22 3.17,33.27 2.37,29.33 1.96,25.60 1.55,21.87 1.13,17.81 0.72,13.74 0.22,9.78 -0.26,5.83 -0.52,4.03 -0.77,2.23 -0.71,1.18 -0.64,0.12 -0.64,0.04 -0.65,-0.02 -0.64,-0.10 -0.62,-0.18 -0.59,-0.25 -0.56,-0.33 -0.51,-0.39 -0.47,-0.45 -0.41,-0.50 -0.34,-0.55 -0.27,-0.59 -0.20,-0.62 -0.12,-0.63 -0.05,-0.65 0.02,-0.65 0.10,-0.64 0.18,-0.62 0.25,-0.60 0.32,-0.56 0.39,-0.52 0.45,-0.46 0.51,-0.41 0.55,-0.34 0.59,-0.27 0.61,-0.20 0.64,-0.12 0.64,-0.12 L 0.64,-0.12 Z"/></g><g transform="translate(334.30548095703125 10.6944580078125) rotate(0 12.5 63.88887023925781)" stroke="none"><path fill="#1e1e1e" d="M -0.20,-0.62 Q -0.20,-0.62 0.34,-0.96 0.90,-1.30 2.06,-1.45 3.22,-1.59 4.69,-1.67 6.17,-1.74 7.93,-1.37 9.69,-1.00 11.31,-0.21 12.93,0.58 14.20,1.31 15.47,2.04 16.67,2.99 17.88,3.95 18.69,5.09 19.51,6.24 19.70,7.52 19.89,8.80 19.73,10.36 19.57,11.92 19.08,13.63 18.59,15.34 18.20,16.81 17.80,18.28 17.65,20.19 17.50,22.11 17.44,24.13 17.37,26.16 17.34,28.22 17.31,30.28 17.29,32.56 17.28,34.83 17.47,36.73 17.66,38.63 17.75,40.50 17.83,42.36 18.06,43.88 18.29,45.39 18.39,46.70 18.50,48.02 18.54,48.97 18.59,49.93 18.78,50.59 18.98,51.25 19.09,52.08 19.21,52.91 19.25,53.65 19.30,54.40 19.61,55.22 19.91,56.04 20.22,56.23 20.53,56.42 20.65,56.53 20.77,56.65 20.86,56.79 20.95,56.93 21.00,57.09 21.06,57.24 21.07,57.41 21.09,57.58 21.06,57.74 21.04,57.91 20.97,58.06 20.91,58.22 20.81,58.35 20.71,58.49 20.58,58.59 20.45,58.70 20.30,58.77 20.15,58.84 19.99,58.88 19.83,58.91 19.66,58.91 19.49,58.90 19.33,58.86 19.17,58.81 19.03,58.73 18.88,58.65 19.88,58.53 20.88,58.42 20.60,59.44 20.32,60.45 20.08,61.30 19.84,62.16 19.50,63.02 19.16,63.89 19.06,64.68 18.96,65.47 18.91,66.60 18.86,67.73 19.03,68.91 19.20,70.09 19.47,71.83 19.75,73.57 20.23,75.00 20.72,76.43 21.16,78.35 21.60,80.27 21.98,82.07 22.36,83.87 22.72,85.41 23.07,86.95 23.43,88.63 23.79,90.30 23.95,92.09 24.11,93.88 24.37,95.77 24.63,97.65 24.95,100.07 25.26,102.49 25.40,104.56 25.53,106.63 25.79,109.06 26.04,111.49 25.96,113.64 25.88,115.79 25.65,117.72 25.41,119.65 24.90,121.55 24.39,123.46 23.51,125.01 22.62,126.56 21.49,127.54 20.37,128.52 18.88,128.91 17.39,129.30 15.62,128.88 13.85,128.47 13.75,128.44 13.64,128.42 13.55,128.37 13.46,128.31 13.39,128.23 13.32,128.15 13.28,128.05 13.24,127.95 13.24,127.85 13.23,127.74 13.26,127.64 13.29,127.53 13.35,127.45 13.41,127.36 13.49,127.29 13.58,127.23 13.68,127.20 13.78,127.16 13.89,127.16 13.99,127.16 14.09,127.20 14.19,127.23 14.28,127.29 14.36,127.36 14.42,127.45 14.48,127.53 14.51,127.64 14.54,127.74 14.53,127.84 14.53,127.95 14.49,128.05 14.45,128.15 14.38,128.23 14.31,128.31 14.22,128.36 14.13,128.42 14.03,128.44 13.92,128.47 13.82,128.45 13.71,128.44 13.61,128.40 13.52,128.35 13.44,128.28 13.36,128.21 13.31,128.11 13.26,128.02 13.25,127.92 13.23,127.81 13.25,127.71 13.26,127.60 13.31,127.51 13.36,127.41 13.44,127.34 13.52,127.27 13.61,127.22 13.71,127.18 13.82,127.17 13.92,127.15 13.92,127.15 13.92,127.15 15.31,126.90 16.71,126.66 17.62,126.39 18.53,126.12 19.29,125.54 20.05,124.96 20.79,123.79 21.53,122.63 22.02,120.95 22.51,119.27 22.75,117.47 22.99,115.66 23.09,113.72 23.19,111.79 22.93,109.30 22.68,106.82 22.55,104.84 22.42,102.86 22.11,100.45 21.80,98.04 21.54,96.09 21.27,94.13 21.13,92.51 21.00,90.89 20.65,89.24 20.30,87.60 19.93,86.03 19.57,84.45 19.20,82.68 18.82,80.90 18.42,79.12 18.02,77.33 17.48,75.67 16.93,74.01 16.66,72.24 16.38,70.47 16.20,69.04 16.02,67.60 16.09,66.33 16.16,65.06 16.33,63.96 16.51,62.86 16.82,62.10 17.12,61.34 17.61,60.10 18.10,58.85 18.16,58.20 18.22,57.56 19.37,56.99 20.53,56.42 20.65,56.53 20.77,56.65 20.86,56.79 20.95,56.93 21.00,57.09 21.06,57.24 21.07,57.41 21.09,57.58 21.06,57.74 21.04,57.91 20.97,58.06 20.91,58.22 20.81,58.35 20.71,58.49 20.58,58.59 20.45,58.70 20.30,58.77 20.15,58.84 19.99,58.88 19.83,58.91 19.66,58.91 19.49,58.90 19.33,58.86 19.17,58.81 19.03,58.73 18.88,58.65 18.62,58.57 18.36,58.49 17.95,58.01 17.53,57.52 17.37,56.77 17.20,56.02 16.94,55.31 16.68,54.60 16.65,53.91 16.62,53.23 16.55,52.58 16.48,51.93 16.24,51.00 16.00,50.06 15.96,49.14 15.92,48.22 15.82,46.99 15.73,45.77 15.49,44.13 15.25,42.48 15.17,40.68 15.09,38.88 14.89,36.85 14.69,34.81 14.71,32.53 14.72,30.24 14.75,28.16 14.78,26.07 14.86,23.98 14.93,21.89 15.12,19.75 15.31,17.61 15.71,16.12 16.12,14.62 16.56,13.12 17.01,11.62 17.18,10.32 17.35,9.01 17.36,8.26 17.37,7.51 16.83,6.69 16.29,5.86 15.26,5.01 14.22,4.15 13.03,3.43 11.84,2.72 10.49,1.98 9.14,1.25 7.67,0.86 6.21,0.46 4.80,0.46 3.38,0.45 2.44,0.48 1.49,0.50 0.85,0.56 0.20,0.62 0.13,0.63 0.05,0.65 -0.02,0.65 -0.10,0.64 -0.18,0.62 -0.25,0.60 -0.32,0.56 -0.39,0.52 -0.45,0.46 -0.50,0.41 -0.55,0.34 -0.59,0.28 -0.61,0.20 -0.64,0.13 -0.64,0.05 -0.65,-0.02 -0.64,-0.10 -0.63,-0.18 -0.59,-0.25 -0.56,-0.32 -0.52,-0.39 -0.47,-0.45 -0.41,-0.50 -0.35,-0.55 -0.27,-0.58 -0.20,-0.62 -0.20,-0.62 L -0.20,-0.62 Z"/></g><g transform="translate(390.55548095703125 57.916656494140625) rotate(0 0.6944580078125 6.9444580078125)" stroke="none"><path fill="#1e1e1e" d="M -0.65,0 Q -0.65,0 -0.81,-0.59 -0.97,-1.19 -0.95,-1.31 -0.94,-1.43 -0.90,-1.54 -0.86,-1.64 -0.79,-1.74 -0.72,-1.84 -0.63,-1.92 -0.55,-1.99 -0.44,-2.05 -0.34,-2.10 -0.23,-2.13 -0.11,-2.16 0.00,-2.16 0.11,-2.16 0.23,-2.13 0.34,-2.10 0.44,-2.05 0.55,-1.99 0.63,-1.91 0.72,-1.84 0.79,-1.74 0.86,-1.64 0.90,-1.53 0.94,-1.43 0.95,-1.31 0.97,-1.19 1.26,0.05 1.55,1.31 1.65,3.34 1.75,5.37 1.79,7.42 1.82,9.47 1.86,12.36 1.89,15.25 1.90,15.36 1.91,15.46 1.88,15.57 1.85,15.67 1.79,15.76 1.73,15.85 1.65,15.91 1.57,15.98 1.47,16.01 1.37,16.04 1.26,16.05 1.15,16.05 1.05,16.01 0.95,15.98 0.87,15.92 0.78,15.85 0.72,15.77 0.66,15.68 0.63,15.58 0.60,15.47 0.61,15.37 0.61,15.26 0.65,15.16 0.69,15.06 0.76,14.98 0.83,14.90 0.92,14.84 1.01,14.79 1.11,14.77 1.21,14.74 1.32,14.75 1.43,14.76 1.52,14.81 1.62,14.85 1.70,14.92 1.77,15.00 1.82,15.09 1.88,15.18 1.89,15.29 1.91,15.39 1.89,15.50 1.88,15.60 1.83,15.70 1.78,15.79 1.70,15.87 1.63,15.94 1.53,15.98 1.43,16.03 1.33,16.04 1.22,16.05 1.12,16.03 1.02,16.01 0.92,15.96 0.83,15.90 0.76,15.82 0.69,15.74 0.65,15.64 0.61,15.54 0.61,15.54 0.61,15.54 0.03,12.53 -0.54,9.51 -0.58,7.49 -0.62,5.47 -0.68,3.56 -0.75,1.65 -0.86,0.23 -0.97,-1.19 -0.95,-1.31 -0.94,-1.43 -0.90,-1.53 -0.86,-1.64 -0.79,-1.74 -0.72,-1.84 -0.63,-1.91 -0.55,-1.99 -0.44,-2.05 -0.34,-2.10 -0.23,-2.13 -0.11,-2.16 -0.00,-2.16 0.11,-2.16 0.23,-2.13 0.34,-2.10 0.44,-2.05 0.55,-1.99 0.63,-1.92 0.72,-1.84 0.79,-1.74 0.86,-1.64 0.90,-1.54 0.94,-1.43 0.95,-1.31 0.97,-1.19 0.81,-0.59 0.65,0 0.64,0.07 0.63,0.15 0.60,0.23 0.58,0.30 0.53,0.37 0.49,0.43 0.43,0.48 0.37,0.54 0.30,0.57 0.23,0.61 0.15,0.63 0.07,0.65 -0.00,0.65 -0.07,0.65 -0.15,0.63 -0.23,0.61 -0.30,0.57 -0.37,0.54 -0.43,0.48 -0.49,0.43 -0.53,0.37 -0.58,0.30 -0.60,0.23 -0.63,0.15 -0.64,0.07 -0.65,-0.00 -0.65,-0.00 L -0.65,0 Z"/></g><g transform="translate(401.66668701171875 61.388885498046875) rotate(0 6.94439697265625 2.430572509765625)" stroke="none"><path fill="#1e1e1e" d="M 0.52,0.39 Q 0.52,0.39 0.12,1.31 -0.26,2.24 -0.41,3.16 -0.55,4.08 -0.25,5.11 0.04,6.14 0.57,7.02 1.10,7.89 2.29,7.98 3.48,8.08 5.23,7.41 6.98,6.75 8.46,5.56 9.95,4.37 11.16,2.92 12.38,1.48 13.10,0.00 13.83,-1.47 14.18,-3.13 14.54,-4.79 14.57,-4.90 14.60,-5.00 14.65,-5.09 14.71,-5.18 14.80,-5.24 14.88,-5.31 14.98,-5.34 15.08,-5.38 15.19,-5.38 15.29,-5.38 15.39,-5.35 15.50,-5.32 15.58,-5.25 15.67,-5.19 15.73,-5.10 15.79,-5.02 15.82,-4.92 15.85,-4.81 15.84,-4.71 15.84,-4.60 15.80,-4.50 15.76,-4.40 15.70,-4.32 15.63,-4.24 15.54,-4.18 15.45,-4.13 15.35,-4.10 15.24,-4.08 15.14,-4.09 15.03,-4.10 14.93,-4.14 14.84,-4.18 14.76,-4.26 14.68,-4.33 14.63,-4.42 14.58,-4.51 14.56,-4.62 14.54,-4.72 14.56,-4.83 14.57,-4.93 14.62,-5.03 14.67,-5.12 14.74,-5.20 14.82,-5.27 14.92,-5.32 15.01,-5.36 15.12,-5.38 15.22,-5.39 15.33,-5.37 15.43,-5.35 15.52,-5.29 15.61,-5.24 15.68,-5.16 15.75,-5.08 15.79,-4.98 15.84,-4.88 15.84,-4.78 15.85,-4.67 15.85,-4.67 15.85,-4.67 15.86,-2.62 15.88,-0.58 15.09,1.25 14.31,3.08 12.91,4.72 11.51,6.37 9.67,7.75 7.82,9.13 5.50,9.82 3.17,10.51 1.35,10.03 -0.46,9.55 -1.37,8.14 -2.29,6.72 -2.57,5.19 -2.85,3.66 -2.49,2.30 -2.13,0.94 -1.32,0.27 -0.52,-0.39 -0.47,-0.45 -0.41,-0.50 -0.34,-0.55 -0.28,-0.59 -0.20,-0.61 -0.13,-0.64 -0.05,-0.64 0.02,-0.65 0.10,-0.64 0.18,-0.63 0.25,-0.59 0.32,-0.56 0.39,-0.52 0.45,-0.47 0.50,-0.41 0.55,-0.35 0.58,-0.27 0.62,-0.20 0.63,-0.13 0.65,-0.05 0.65,0.02 0.64,0.10 0.62,0.18 0.60,0.25 0.56,0.32 0.52,0.39 0.52,0.39 L 0.52,0.39 Z"/></g><g transform="translate(409.30548095703125 60.6944580078125) rotate(0 1.04168701171875 11.111099243164062)" stroke="none"><path fill="#1e1e1e" d="M 0.65,0 Q 0.65,0 0.89,0.99 1.13,1.99 1.18,3.41 1.23,4.84 1.28,7.04 1.32,9.24 1.53,11.52 1.74,13.79 1.95,15.75 2.17,17.71 2.34,19.49 2.51,21.27 2.52,21.38 2.53,21.48 2.51,21.59 2.48,21.69 2.43,21.78 2.37,21.87 2.29,21.94 2.20,22.00 2.11,22.04 2.01,22.08 1.90,22.08 1.79,22.09 1.69,22.06 1.59,22.03 1.50,21.96 1.42,21.90 1.35,21.82 1.29,21.73 1.26,21.63 1.23,21.53 1.23,21.42 1.23,21.32 1.27,21.22 1.30,21.12 1.37,21.03 1.43,20.95 1.52,20.89 1.61,20.83 1.72,20.81 1.82,20.78 1.92,20.79 2.03,20.80 2.13,20.84 2.23,20.88 2.31,20.95 2.39,21.02 2.44,21.11 2.49,21.20 2.51,21.31 2.53,21.41 2.52,21.52 2.51,21.62 2.46,21.72 2.41,21.81 2.34,21.89 2.26,21.97 2.17,22.01 2.07,22.06 1.97,22.08 1.86,22.09 1.76,22.07 1.66,22.05 1.56,22.00 1.47,21.95 1.40,21.87 1.33,21.79 1.28,21.70 1.24,21.60 1.24,21.60 1.24,21.60 0.50,19.83 -0.23,18.06 -0.59,16.04 -0.94,14.02 -1.13,11.63 -1.32,9.24 -1.28,7.04 -1.23,4.84 -1.18,3.41 -1.13,1.99 -0.89,0.99 -0.65,0 -0.64,-0.07 -0.63,-0.15 -0.60,-0.23 -0.58,-0.30 -0.53,-0.37 -0.49,-0.43 -0.43,-0.48 -0.37,-0.54 -0.30,-0.57 -0.23,-0.61 -0.15,-0.63 -0.07,-0.65 0.00,-0.65 0.07,-0.65 0.15,-0.63 0.23,-0.61 0.30,-0.57 0.37,-0.54 0.43,-0.48 0.49,-0.43 0.53,-0.37 0.58,-0.30 0.60,-0.23 0.63,-0.15 0.64,-0.07 0.65,0.00 0.65,0.00 L 0.65,0 Z"/></g><g transform="translate(424.58331298828125 56.52777099609375) rotate(0 4.51385498046875 7.986114501953125)" stroke="none"><path fill="#1e1e1e" d="M 0.46,-0.46 Q 0.46,-0.46 1.45,0.13 2.45,0.74 3.34,1.41 4.24,2.09 5.44,2.99 6.64,3.88 7.86,5.13 9.07,6.38 9.70,7.67 10.32,8.97 10.36,10.42 10.39,11.87 9.66,12.90 8.93,13.93 8.23,14.59 7.53,15.26 5.78,15.85 4.03,16.44 3.93,16.47 3.82,16.49 3.72,16.48 3.61,16.47 3.51,16.43 3.42,16.39 3.34,16.32 3.26,16.25 3.21,16.15 3.16,16.06 3.14,15.96 3.12,15.85 3.13,15.75 3.15,15.64 3.19,15.55 3.24,15.45 3.32,15.38 3.39,15.30 3.49,15.26 3.58,15.21 3.69,15.19 3.79,15.18 3.90,15.20 4.00,15.22 4.09,15.27 4.19,15.33 4.26,15.41 4.33,15.49 4.37,15.58 4.41,15.68 4.42,15.79 4.43,15.89 4.40,16.00 4.38,16.10 4.32,16.19 4.26,16.28 4.18,16.34 4.09,16.41 3.99,16.45 3.89,16.48 3.79,16.48 3.68,16.49 3.58,16.46 3.48,16.42 3.39,16.36 3.31,16.30 3.25,16.21 3.18,16.13 3.15,16.02 3.12,15.92 3.13,15.82 3.13,15.71 3.17,15.61 3.20,15.51 3.27,15.43 3.34,15.35 3.43,15.29 3.52,15.23 3.52,15.23 3.52,15.23 4.51,14.26 5.50,13.29 6.11,12.60 6.72,11.91 7.19,11.63 7.65,11.35 7.69,10.67 7.72,9.98 7.40,9.07 7.09,8.16 6.09,7.03 5.09,5.91 3.89,4.98 2.70,4.05 1.72,3.25 0.74,2.45 0.13,1.45 -0.46,0.46 -0.51,0.40 -0.56,0.33 -0.59,0.26 -0.62,0.19 -0.64,0.11 -0.65,0.03 -0.65,-0.03 -0.64,-0.11 -0.62,-0.19 -0.59,-0.26 -0.55,-0.33 -0.51,-0.40 -0.46,-0.46 -0.40,-0.51 -0.33,-0.55 -0.26,-0.59 -0.19,-0.62 -0.11,-0.64 -0.03,-0.65 0.03,-0.65 0.11,-0.64 0.19,-0.62 0.26,-0.59 0.33,-0.56 0.40,-0.51 0.46,-0.46 0.46,-0.46 L 0.46,-0.46 Z"/></g><g transform="translate(437.08331298828125 74.58334350585938) rotate(0 6.25 5.5555572509765625)" stroke="none"><path fill="#1e1e1e" d="M 0.64,-0.12 Q 0.64,-0.12 1.18,0.80 1.71,1.73 1.83,3.04 1.95,4.35 1.80,5.61 1.66,6.87 1.80,7.72 1.94,8.57 2.54,8.66 3.14,8.76 4.30,8.58 5.47,8.41 7.02,8.24 8.57,8.07 10.22,8.54 11.88,9.01 11.98,9.03 12.08,9.06 12.17,9.12 12.26,9.17 12.33,9.26 12.40,9.34 12.43,9.44 12.47,9.54 12.47,9.65 12.48,9.75 12.45,9.85 12.41,9.95 12.35,10.04 12.29,10.13 12.21,10.19 12.12,10.25 12.02,10.28 11.92,10.31 11.81,10.31 11.70,10.31 11.60,10.27 11.50,10.24 11.42,10.17 11.34,10.10 11.28,10.01 11.22,9.92 11.20,9.82 11.17,9.72 11.18,9.61 11.19,9.51 11.23,9.41 11.27,9.31 11.34,9.23 11.41,9.15 11.51,9.10 11.60,9.05 11.70,9.03 11.81,9.01 11.91,9.02 12.02,9.04 12.11,9.08 12.21,9.13 12.28,9.21 12.36,9.28 12.41,9.38 12.45,9.47 12.47,9.58 12.48,9.68 12.46,9.79 12.44,9.89 12.39,9.98 12.34,10.07 12.26,10.15 12.18,10.22 12.08,10.26 11.99,10.30 11.88,10.31 11.77,10.32 11.77,10.32 11.77,10.32 10.39,10.55 9.02,10.78 7.43,11.15 5.85,11.52 4.35,11.67 2.85,11.83 1.70,11.52 0.55,11.22 -0.19,10.15 -0.93,9.08 -1.05,7.78 -1.17,6.48 -0.99,5.50 -0.81,4.53 -0.86,3.39 -0.91,2.25 -0.78,1.19 -0.64,0.12 -0.64,0.04 -0.65,-0.02 -0.64,-0.10 -0.62,-0.18 -0.59,-0.25 -0.56,-0.33 -0.51,-0.39 -0.47,-0.45 -0.41,-0.50 -0.34,-0.55 -0.27,-0.59 -0.20,-0.62 -0.12,-0.63 -0.05,-0.65 0.02,-0.65 0.10,-0.64 0.18,-0.62 0.25,-0.60 0.32,-0.56 0.39,-0.52 0.45,-0.46 0.51,-0.41 0.55,-0.34 0.59,-0.27 0.61,-0.20 0.64,-0.12 0.64,-0.12 L 0.64,-0.12 Z"/></g></svg>