<svg version="1.1" xmlns="http://www.w3.org/2000/svg" viewBox="0 0 863.75 272.08331298828125" width="863.75" height="272.08331298828125" filter="invert(93%) hue-rotate(180deg)" class="excalidraw-svg">
  <!-- svg-source:excalidraw -->
  
  <defs>
    <style class="style-fonts">
      @font-face {
        font-family: "Virgil";
        src: url("https://excalidraw.com/Virgil.woff2");
      }
      @font-face {
        font-family: "Cascadia";
        src: url("https://excalidraw.com/Cascadia.woff2");
      }
      @font-face {
        font-family: "Assistant";
        src: url("https://excalidraw.com/Assistant-Regular.woff2");
      }
    </style>
    
  </defs>
  <rect x="0" y="0" width="863.75" height="272.08331298828125" fill="#ffffff"/><g stroke-linecap="round"><g transform="translate(117.63885498046875 64.86109924316406) rotate(0 213.888916015625 0)"><path d="M0 0 C71.3 0, 356.48 0, 427.78 0 M0 0 C71.3 0, 356.48 0, 427.78 0" stroke="#1e1e1e" stroke-width="2" fill="none"/></g></g><mask/><g stroke-linecap="round"><g transform="translate(120.75 212.41665649414062) rotate(0 345.138916015625 0)"><path d="M0 0 C115.05 0, 575.23 0, 690.28 0 M0 0 C115.05 0, 575.23 0, 690.28 0" stroke="#1e1e1e" stroke-width="2" fill="none"/></g></g><mask/><g stroke-linecap="round" transform="translate(305.13885498046875 10) rotate(0 80.20834350585938 124.3055419921875)"><path d="M32 0 C58.35 0, 84.71 0, 128.42 0 C149.75 0, 160.42 10.67, 160.42 32 C160.42 81.01, 160.42 130.02, 160.42 216.61 C160.42 237.94, 149.75 248.61, 128.42 248.61 C105.03 248.61, 81.64 248.61, 32 248.61 C10.67 248.61, 0 237.94, 0 216.61 C0 156.58, 0 96.55, 0 32 C0 10.67, 10.67 0, 32 0" stroke="none" stroke-width="0" fill="#ffffff"/><path d="M32 0 C65.62 0, 99.23 0, 128.42 0 M32 0 C59.33 0, 86.65 0, 128.42 0 M128.42 0 C149.75 0, 160.42 10.67, 160.42 32 M128.42 0 C149.75 0, 160.42 10.67, 160.42 32 M160.42 32 C160.42 99.14, 160.42 166.28, 160.42 216.61 M160.42 32 C160.42 72.56, 160.42 113.12, 160.42 216.61 M160.42 216.61 C160.42 237.94, 149.75 248.61, 128.42 248.61 M160.42 216.61 C160.42 237.94, 149.75 248.61, 128.42 248.61 M128.42 248.61 C98.38 248.61, 68.35 248.61, 32 248.61 M128.42 248.61 C101.72 248.61, 75.02 248.61, 32 248.61 M32 248.61 C10.67 248.61, 0 237.94, 0 216.61 M32 248.61 C10.67 248.61, 0 237.94, 0 216.61 M0 216.61 C0 173.56, 0 130.51, 0 32 M0 216.61 C0 169.8, 0 122.99, 0 32 M0 32 C0 10.67, 10.67 0, 32 0 M0 32 C0 10.67, 10.67 0, 32 0" stroke="#1e1e1e" stroke-width="2" fill="none"/></g><g transform="translate(546.111083984375 46.11109924316406) rotate(0 0.34722900390625 18.75)" stroke="none"><path fill="#1e1e1e" d="M 0.65,0 Q 0.65,0 0.88,0.79 1.10,1.59 1.12,3.33 1.14,5.07 1.16,7.40 1.17,9.74 1.18,12.53 1.19,15.32 1.20,18.10 1.20,20.88 1.40,23.21 1.60,25.54 1.69,27.37 1.77,29.21 1.79,30.99 1.82,32.77 1.58,35.33 1.34,37.88 1.33,37.98 1.31,38.09 1.26,38.18 1.21,38.27 1.14,38.35 1.06,38.42 0.96,38.47 0.87,38.51 0.76,38.52 0.66,38.54 0.55,38.51 0.45,38.49 0.36,38.44 0.27,38.38 0.20,38.30 0.13,38.22 0.09,38.12 0.05,38.02 0.04,37.92 0.03,37.81 0.06,37.71 0.09,37.61 0.15,37.52 0.21,37.43 0.29,37.37 0.38,37.30 0.48,37.27 0.58,37.23 0.68,37.23 0.79,37.23 0.89,37.26 0.99,37.30 1.08,37.36 1.16,37.43 1.22,37.51 1.28,37.60 1.31,37.70 1.34,37.81 1.33,37.91 1.33,38.02 1.29,38.12 1.25,38.22 1.18,38.30 1.12,38.38 1.02,38.43 0.93,38.49 0.83,38.51 0.73,38.54 0.62,38.52 0.52,38.51 0.42,38.47 0.32,38.43 0.24,38.35 0.17,38.28 0.12,38.19 0.07,38.09 0.05,37.99 0.03,37.88 0.03,37.88 0.03,37.88 -0.25,35.35 -0.53,32.82 -0.58,31.07 -0.63,29.32 -0.72,27.53 -0.81,25.74 -1.01,23.31 -1.20,20.88 -1.20,18.10 -1.19,15.32 -1.18,12.53 -1.17,9.74 -1.16,7.40 -1.14,5.07 -1.12,3.33 -1.10,1.59 -0.88,0.79 -0.65,0 -0.64,-0.07 -0.63,-0.15 -0.60,-0.23 -0.58,-0.30 -0.53,-0.37 -0.49,-0.43 -0.43,-0.48 -0.37,-0.54 -0.30,-0.57 -0.23,-0.61 -0.15,-0.63 -0.07,-0.65 0.00,-0.65 0.07,-0.65 0.15,-0.63 0.23,-0.61 0.30,-0.57 0.37,-0.54 0.43,-0.48 0.49,-0.43 0.53,-0.37 0.58,-0.30 0.60,-0.23 0.63,-0.15 0.64,-0.07 0.65,0.00 0.65,0.00 L 0.65,0 Z"/></g><g transform="translate(541.9444580078125 45.416656494140625) rotate(0 13.88885498046875 19.09722137451172)" stroke="none"><path fill="#1e1e1e" d="M 0,-0.65 Q 0,-0.65 0.99,-0.94 1.99,-1.22 3.69,-1.03 5.40,-0.84 7.42,-0.13 9.44,0.57 11.67,1.46 13.89,2.35 15.88,3.35 17.86,4.34 19.79,5.82 21.72,7.30 23.19,8.99 24.65,10.68 25.72,12.67 26.78,14.67 27.43,16.34 28.08,18.00 28.38,20.03 28.68,22.06 28.40,23.86 28.11,25.66 27.36,27.49 26.61,29.32 25.41,30.80 24.21,32.28 22.64,33.54 21.08,34.80 18.51,35.96 15.94,37.12 14.05,37.77 12.16,38.41 9.20,38.90 6.25,39.39 6.14,39.40 6.04,39.41 5.93,39.38 5.83,39.36 5.74,39.30 5.65,39.24 5.59,39.15 5.52,39.07 5.49,38.97 5.45,38.87 5.45,38.76 5.45,38.66 5.48,38.56 5.51,38.46 5.58,38.37 5.64,38.29 5.73,38.22 5.81,38.16 5.91,38.13 6.02,38.10 6.12,38.11 6.23,38.11 6.33,38.15 6.43,38.19 6.51,38.26 6.59,38.32 6.65,38.41 6.70,38.50 6.73,38.61 6.75,38.71 6.74,38.82 6.73,38.92 6.69,39.02 6.65,39.12 6.57,39.19 6.50,39.27 6.41,39.32 6.32,39.37 6.21,39.39 6.11,39.41 6.00,39.40 5.90,39.38 5.80,39.33 5.71,39.28 5.63,39.21 5.56,39.13 5.51,39.04 5.47,38.94 5.45,38.83 5.44,38.73 5.46,38.63 5.48,38.52 5.54,38.43 5.59,38.34 5.67,38.27 5.75,38.20 5.85,38.16 5.95,38.12 5.95,38.12 5.95,38.12 8.62,37.06 11.29,36.01 13.06,35.33 14.82,34.65 17.09,33.62 19.37,32.60 20.73,31.55 22.10,30.50 23.12,29.35 24.13,28.21 24.82,26.69 25.51,25.17 25.80,23.78 26.08,22.38 25.86,20.66 25.64,18.93 25.05,17.41 24.47,15.88 23.57,14.12 22.67,12.36 21.39,10.85 20.11,9.35 18.40,8.00 16.69,6.65 14.81,5.69 12.93,4.73 10.75,3.84 8.58,2.96 6.83,2.30 5.08,1.64 3.53,1.43 1.99,1.22 0.99,0.94 0,0.65 -0.07,0.64 -0.15,0.63 -0.23,0.60 -0.30,0.58 -0.37,0.53 -0.43,0.49 -0.48,0.43 -0.54,0.37 -0.57,0.30 -0.61,0.23 -0.63,0.15 -0.65,0.07 -0.65,-0.00 -0.65,-0.07 -0.63,-0.15 -0.61,-0.23 -0.57,-0.30 -0.54,-0.37 -0.48,-0.43 -0.43,-0.49 -0.37,-0.53 -0.30,-0.58 -0.23,-0.60 -0.15,-0.63 -0.07,-0.64 0.00,-0.65 0.00,-0.65 L 0,-0.65 Z"/></g><g stroke-linecap="round"><g transform="translate(571.8055419921875 62.08332824707031) rotate(0 40.27777099609375 54.513877868652344)"><path d="M0 0 C11 3.01, 52.55 -0.12, 65.97 18.06 C79.4 36.23, 78.12 93.87, 80.56 109.03" stroke="#1e1e1e" stroke-width="2.5" fill="none" stroke-dasharray="8 10"/></g></g><mask/><g stroke-linecap="round" transform="translate(606.5277099609375 171.111083984375) rotate(0 45.8333740234375 45.486114501953125)"><path d="M22.74 0 C38.71 0, 54.68 0, 68.92 0 C84.09 0, 91.67 7.58, 91.67 22.74 C91.67 37.11, 91.67 51.48, 91.67 68.23 C91.67 83.39, 84.09 90.97, 68.92 90.97 C53.57 90.97, 38.22 90.97, 22.74 90.97 C7.58 90.97, 0 83.39, 0 68.23 C0 50.34, 0 32.44, 0 22.74 C0 7.58, 7.58 0, 22.74 0" stroke="none" stroke-width="0" fill="#ffffff"/><path d="M22.74 0 C38.54 0, 54.34 0, 68.92 0 M22.74 0 C40.54 0, 58.34 0, 68.92 0 M68.92 0 C84.09 0, 91.67 7.58, 91.67 22.74 M68.92 0 C84.09 0, 91.67 7.58, 91.67 22.74 M91.67 22.74 C91.67 37.29, 91.67 51.84, 91.67 68.23 M91.67 22.74 C91.67 36.29, 91.67 49.83, 91.67 68.23 M91.67 68.23 C91.67 83.39, 84.09 90.97, 68.92 90.97 M91.67 68.23 C91.67 83.39, 84.09 90.97, 68.92 90.97 M68.92 90.97 C54.78 90.97, 40.64 90.97, 22.74 90.97 M68.92 90.97 C57.74 90.97, 46.55 90.97, 22.74 90.97 M22.74 90.97 C7.58 90.97, 0 83.39, 0 68.23 M22.74 90.97 C7.58 90.97, 0 83.39, 0 68.23 M0 68.23 C0 56.22, 0 44.22, 0 22.74 M0 68.23 C0 58.8, 0 49.36, 0 22.74 M0 22.74 C0 7.58, 7.58 0, 22.74 0 M0 22.74 C0 7.58, 7.58 0, 22.74 0" stroke="#1e1e1e" stroke-width="2" fill="none"/></g><g transform="translate(128.75 239.861083984375) rotate(0 5.5555419921875 7.2916717529296875)" stroke="none"><path fill="#1e1e1e" d="M 0.65,-0.09 Q 0.65,-0.09 1.15,1.26 1.65,2.61 1.77,4.05 1.89,5.49 1.96,6.91 2.03,8.32 2.06,9.31 2.09,10.31 2.29,10.97 2.48,11.62 2.59,12.22 2.69,12.81 3.42,12.88 4.15,12.94 4.75,12.95 5.35,12.97 6.01,12.98 6.66,12.98 8.75,13.45 10.83,13.92 10.93,13.94 11.04,13.96 11.13,14.01 11.23,14.06 11.30,14.13 11.37,14.21 11.42,14.31 11.46,14.40 11.47,14.51 11.48,14.61 11.46,14.72 11.44,14.82 11.38,14.91 11.33,15.00 11.24,15.07 11.16,15.14 11.06,15.18 10.97,15.22 10.86,15.22 10.75,15.23 10.65,15.20 10.55,15.17 10.46,15.11 10.37,15.05 10.31,14.97 10.25,14.88 10.21,14.78 10.18,14.68 10.18,14.58 10.18,14.47 10.21,14.37 10.25,14.27 10.31,14.18 10.38,14.10 10.46,14.04 10.55,13.98 10.65,13.95 10.76,13.92 10.86,13.93 10.97,13.94 11.07,13.98 11.17,14.02 11.25,14.08 11.33,14.15 11.38,14.25 11.44,14.34 11.46,14.44 11.48,14.54 11.47,14.65 11.46,14.76 11.41,14.85 11.37,14.95 11.30,15.02 11.22,15.10 11.13,15.15 11.03,15.20 10.93,15.22 10.82,15.23 10.82,15.23 10.82,15.23 8.71,15.68 6.60,16.13 5.89,16.11 5.19,16.09 4.47,16.04 3.76,15.99 2.99,15.86 2.22,15.72 1.42,15.27 0.62,14.82 0.15,13.57 -0.31,12.33 -0.53,11.35 -0.74,10.37 -0.74,9.38 -0.74,8.39 -0.75,7.02 -0.75,5.66 -0.80,4.31 -0.85,2.97 -0.75,1.53 -0.65,0.09 -0.65,0.01 -0.65,-0.06 -0.63,-0.14 -0.61,-0.21 -0.58,-0.29 -0.54,-0.36 -0.49,-0.42 -0.44,-0.48 -0.38,-0.52 -0.31,-0.57 -0.24,-0.60 -0.17,-0.63 -0.09,-0.64 -0.01,-0.65 0.06,-0.64 0.14,-0.64 0.21,-0.61 0.29,-0.58 0.35,-0.54 0.42,-0.50 0.47,-0.44 0.53,-0.38 0.57,-0.31 0.60,-0.24 0.62,-0.16 0.65,-0.09 0.65,-0.09 L 0.65,-0.09 Z"/></g><g transform="translate(129.4444580078125 79.44442749023438) rotate(0 -2.430572509765625 6.597221374511719)" stroke="none"><path fill="#1e1e1e" d="M 0.64,0.10 Q 0.64,0.10 0.76,1.36 0.87,2.61 0.16,4.45 -0.54,6.30 -1.03,7.60 -1.52,8.90 -1.97,10.04 -2.41,11.18 -3.27,12.48 -4.13,13.77 -4.18,13.87 -4.23,13.96 -4.30,14.04 -4.38,14.11 -4.48,14.16 -4.57,14.20 -4.68,14.22 -4.78,14.23 -4.89,14.21 -4.99,14.19 -5.08,14.13 -5.17,14.08 -5.24,14.00 -5.31,13.92 -5.35,13.82 -5.40,13.72 -5.40,13.62 -5.41,13.51 -5.38,13.41 -5.36,13.31 -5.30,13.22 -5.24,13.13 -5.16,13.06 -5.07,13.00 -4.97,12.96 -4.87,12.93 -4.77,12.93 -4.66,12.92 -4.56,12.96 -4.46,12.99 -4.37,13.05 -4.29,13.11 -4.23,13.20 -4.16,13.29 -4.13,13.39 -4.10,13.49 -4.11,13.60 -4.11,13.71 -4.15,13.80 -4.19,13.90 -4.26,13.99 -4.32,14.07 -4.41,14.12 -4.50,14.18 -4.61,14.20 -4.71,14.23 -4.82,14.22 -4.92,14.21 -5.02,14.17 -5.12,14.12 -5.20,14.05 -5.27,13.98 -5.32,13.89 -5.38,13.79 -5.39,13.69 -5.41,13.58 -5.40,13.48 -5.38,13.37 -5.38,13.37 -5.38,13.37 -5.05,11.87 -4.71,10.37 -4.34,9.19 -3.96,8.00 -3.48,6.66 -2.99,5.31 -2.33,3.74 -1.67,2.17 -1.16,1.03 -0.64,-0.10 -0.62,-0.18 -0.60,-0.25 -0.56,-0.32 -0.52,-0.39 -0.46,-0.45 -0.41,-0.51 -0.34,-0.55 -0.27,-0.59 -0.20,-0.61 -0.12,-0.64 -0.04,-0.64 0.02,-0.65 0.10,-0.64 0.18,-0.62 0.25,-0.59 0.33,-0.56 0.39,-0.51 0.45,-0.47 0.50,-0.41 0.55,-0.34 0.59,-0.27 0.62,-0.20 0.63,-0.12 0.65,-0.05 0.65,0.02 0.64,0.10 0.64,0.10 L 0.64,0.10 Z"/></g><g transform="translate(127.361083984375 77.36109924316406) rotate(0 2.77777099609375 9.027778625488281)" stroke="none"><path fill="#1e1e1e" d="M 0.63,-0.15 Q 0.63,-0.15 1.06,0.58 1.49,1.32 1.79,2.22 2.09,3.13 2.45,4.56 2.80,5.99 3.34,7.52 3.87,9.05 4.31,10.54 4.75,12.04 5.11,13.03 5.46,14.02 5.77,15.77 6.09,17.53 6.10,17.63 6.11,17.74 6.09,17.84 6.06,17.95 6.01,18.04 5.95,18.13 5.87,18.20 5.79,18.26 5.69,18.30 5.59,18.34 5.49,18.35 5.38,18.35 5.28,18.33 5.18,18.30 5.09,18.24 5.00,18.18 4.94,18.09 4.87,18.01 4.84,17.91 4.81,17.81 4.81,17.70 4.81,17.60 4.84,17.49 4.87,17.39 4.94,17.31 5.00,17.23 5.09,17.17 5.18,17.11 5.28,17.08 5.38,17.05 5.49,17.06 5.60,17.06 5.69,17.10 5.79,17.14 5.87,17.21 5.95,17.28 6.01,17.37 6.06,17.46 6.09,17.56 6.11,17.67 6.10,17.77 6.09,17.88 6.04,17.97 6.00,18.07 5.92,18.15 5.85,18.23 5.76,18.27 5.66,18.32 5.56,18.34 5.45,18.36 5.35,18.34 5.24,18.32 5.15,18.27 5.06,18.22 4.98,18.15 4.91,18.07 4.87,17.97 4.82,17.88 4.82,17.88 4.82,17.88 3.97,16.38 3.12,14.88 2.72,13.82 2.31,12.75 1.90,11.30 1.48,9.85 0.94,8.19 0.41,6.54 0.12,5.18 -0.16,3.81 -0.42,2.84 -0.69,1.87 -0.66,1.01 -0.63,0.15 -0.64,0.08 -0.65,0.00 -0.64,-0.07 -0.63,-0.15 -0.61,-0.22 -0.58,-0.30 -0.53,-0.36 -0.49,-0.43 -0.43,-0.48 -0.37,-0.53 -0.30,-0.57 -0.23,-0.61 -0.15,-0.63 -0.08,-0.65 -0.00,-0.65 0.07,-0.65 0.15,-0.63 0.23,-0.61 0.30,-0.57 0.37,-0.54 0.43,-0.48 0.49,-0.43 0.53,-0.37 0.58,-0.30 0.60,-0.23 0.63,-0.15 0.63,-0.15 L 0.63,-0.15 Z"/></g><g transform="translate(124.58331298828125 88.47221374511719) rotate(0 3.47222900390625 0)" stroke="none"><path fill="#1e1e1e" d="M 0,-0.65 Q 0,-0.65 1.19,-0.89 2.39,-1.13 4.42,-0.89 6.45,-0.65 6.55,-0.63 6.66,-0.62 6.75,-0.57 6.84,-0.52 6.92,-0.44 6.99,-0.36 7.03,-0.27 7.08,-0.17 7.09,-0.07 7.10,0.03 7.08,0.13 7.06,0.24 7.00,0.33 6.95,0.42 6.87,0.49 6.78,0.56 6.69,0.60 6.59,0.64 6.48,0.64 6.37,0.65 6.27,0.62 6.17,0.59 6.08,0.53 5.99,0.47 5.93,0.39 5.87,0.30 5.83,0.20 5.80,0.10 5.80,-0.00 5.80,-0.10 5.83,-0.20 5.87,-0.30 5.93,-0.39 5.99,-0.47 6.08,-0.53 6.17,-0.59 6.27,-0.62 6.38,-0.65 6.48,-0.64 6.59,-0.64 6.69,-0.60 6.78,-0.56 6.87,-0.49 6.95,-0.42 7.00,-0.33 7.06,-0.24 7.08,-0.13 7.10,-0.03 7.09,0.07 7.08,0.17 7.03,0.27 6.99,0.36 6.92,0.44 6.84,0.52 6.75,0.57 6.66,0.62 6.55,0.63 6.45,0.65 6.45,0.65 6.45,0.65 4.42,0.89 2.39,1.13 1.19,0.89 0,0.65 -0.07,0.64 -0.15,0.63 -0.23,0.60 -0.30,0.58 -0.37,0.53 -0.43,0.49 -0.48,0.43 -0.54,0.37 -0.57,0.30 -0.61,0.23 -0.63,0.15 -0.65,0.07 -0.65,-0.00 -0.65,-0.07 -0.63,-0.15 -0.61,-0.23 -0.57,-0.30 -0.54,-0.37 -0.48,-0.43 -0.43,-0.49 -0.37,-0.53 -0.30,-0.58 -0.23,-0.60 -0.15,-0.63 -0.07,-0.64 0.00,-0.65 0.00,-0.65 L 0,-0.65 Z"/></g><g transform="translate(37.08331298828125 55.83332824707031) rotate(0 0.6944580078125 5.90277099609375)" stroke="none"><path fill="#1e1e1e" d="M -0.65,0 Q -0.65,0 -0.78,-0.59 -0.92,-1.19 -1.00,-1.65 -1.07,-2.10 -1.06,-2.23 -1.04,-2.36 -1.00,-2.48 -0.95,-2.60 -0.88,-2.71 -0.80,-2.82 -0.71,-2.90 -0.61,-2.99 -0.49,-3.05 -0.38,-3.11 -0.25,-3.14 -0.13,-3.17 0.00,-3.17 0.13,-3.17 0.25,-3.14 0.38,-3.11 0.49,-3.05 0.61,-2.99 0.71,-2.90 0.80,-2.82 0.88,-2.71 0.95,-2.60 1.00,-2.48 1.04,-2.36 1.06,-2.23 1.07,-2.10 1.36,-1.22 1.65,-0.34 1.76,1.16 1.86,2.67 1.90,4.30 1.93,5.93 2.10,7.55 2.27,9.16 2.14,11.62 2.02,14.07 2.00,14.17 1.99,14.28 1.95,14.38 1.90,14.47 1.83,14.55 1.76,14.63 1.66,14.68 1.57,14.73 1.46,14.74 1.36,14.76 1.25,14.74 1.15,14.72 1.05,14.67 0.96,14.62 0.89,14.55 0.81,14.47 0.77,14.37 0.73,14.28 0.72,14.17 0.70,14.06 0.73,13.96 0.75,13.86 0.81,13.77 0.86,13.68 0.94,13.61 1.02,13.54 1.12,13.50 1.22,13.46 1.33,13.46 1.43,13.45 1.53,13.48 1.64,13.51 1.72,13.57 1.81,13.63 1.88,13.71 1.94,13.80 1.97,13.90 2.01,14.00 2.01,14.10 2.01,14.21 1.97,14.31 1.94,14.41 1.87,14.50 1.81,14.58 1.72,14.64 1.63,14.70 1.53,14.73 1.43,14.76 1.32,14.75 1.22,14.74 1.12,14.70 1.02,14.66 0.94,14.59 0.86,14.53 0.80,14.43 0.75,14.34 0.73,14.24 0.70,14.14 0.70,14.14 0.70,14.14 0.28,11.80 -0.13,9.47 -0.39,7.73 -0.65,5.99 -0.69,4.41 -0.73,2.83 -0.79,1.49 -0.86,0.15 -0.96,-0.97 -1.07,-2.10 -1.06,-2.23 -1.04,-2.36 -1.00,-2.48 -0.95,-2.60 -0.88,-2.71 -0.80,-2.82 -0.71,-2.90 -0.61,-2.99 -0.49,-3.05 -0.38,-3.11 -0.25,-3.14 -0.13,-3.17 -0.00,-3.17 0.13,-3.17 0.25,-3.14 0.38,-3.11 0.49,-3.05 0.61,-2.99 0.71,-2.90 0.80,-2.82 0.88,-2.71 0.95,-2.60 1.00,-2.48 1.04,-2.36 1.06,-2.23 1.07,-2.10 1.00,-1.65 0.92,-1.19 0.78,-0.59 0.65,0 0.64,0.07 0.63,0.15 0.60,0.23 0.58,0.30 0.53,0.37 0.49,0.43 0.43,0.48 0.37,0.54 0.30,0.57 0.23,0.61 0.15,0.63 0.07,0.65 -0.00,0.65 -0.07,0.65 -0.15,0.63 -0.23,0.61 -0.30,0.57 -0.37,0.54 -0.43,0.48 -0.49,0.43 -0.53,0.37 -0.58,0.30 -0.60,0.23 -0.63,0.15 -0.64,0.07 -0.65,-0.00 -0.65,-0.00 L -0.65,0 Z"/></g><g transform="translate(48.88885498046875 56.52777099609375) rotate(0 2.43060302734375 5.208335876464844)" stroke="none"><path fill="#1e1e1e" d="M 0.52,0.39 Q 0.52,0.39 0.06,1.29 -0.39,2.19 -0.79,3.05 -1.18,3.92 -1.54,4.87 -1.90,5.82 -1.82,6.63 -1.75,7.44 -1.38,8.05 -1.01,8.67 -0.40,9.23 0.20,9.80 1.04,9.78 1.88,9.75 2.73,9.42 3.57,9.08 4.45,8.41 5.34,7.74 5.82,6.97 6.31,6.20 6.48,5.25 6.65,4.30 6.36,3.48 6.07,2.66 5.61,1.74 5.16,0.83 4.28,0.70 3.40,0.57 2.65,0.88 1.91,1.19 0.25,2.16 -1.40,3.13 -1.50,3.17 -1.60,3.21 -1.70,3.21 -1.81,3.22 -1.91,3.19 -2.01,3.16 -2.10,3.10 -2.19,3.04 -2.25,2.96 -2.32,2.87 -2.35,2.77 -2.38,2.67 -2.38,2.57 -2.38,2.46 -2.35,2.36 -2.32,2.26 -2.25,2.18 -2.19,2.09 -2.10,2.03 -2.01,1.97 -1.91,1.94 -1.81,1.91 -1.70,1.92 -1.60,1.93 -1.50,1.97 -1.40,2.00 -1.32,2.07 -1.24,2.14 -1.18,2.23 -1.13,2.32 -1.10,2.43 -1.08,2.53 -1.09,2.64 -1.10,2.74 -1.15,2.84 -1.19,2.94 -1.27,3.01 -1.34,3.09 -1.43,3.14 -1.53,3.19 -1.63,3.21 -1.74,3.22 -1.84,3.21 -1.95,3.19 -2.04,3.14 -2.13,3.09 -2.21,3.01 -2.28,2.94 -2.32,2.84 -2.37,2.74 -2.38,2.64 -2.39,2.53 -2.37,2.43 -2.35,2.32 -2.29,2.23 -2.24,2.14 -2.16,2.07 -2.08,2.00 -2.08,2.00 -2.08,2.00 -0.57,0.50 0.93,-0.99 2.12,-1.49 3.31,-1.98 4.51,-1.91 5.71,-1.84 6.59,-1.14 7.48,-0.45 8.06,0.76 8.64,1.99 8.92,3.37 9.20,4.76 8.81,6.18 8.43,7.61 7.62,8.68 6.81,9.74 5.58,10.56 4.35,11.38 3.03,11.74 1.72,12.10 0.30,11.84 -1.10,11.58 -2.04,10.63 -2.98,9.69 -3.44,8.64 -3.90,7.59 -3.89,6.35 -3.88,5.11 -3.45,4.07 -3.03,3.02 -2.51,2.01 -1.99,1.00 -1.26,0.30 -0.52,-0.39 -0.47,-0.45 -0.41,-0.50 -0.34,-0.55 -0.28,-0.59 -0.20,-0.61 -0.13,-0.64 -0.05,-0.64 0.02,-0.65 0.10,-0.64 0.18,-0.63 0.25,-0.59 0.32,-0.56 0.39,-0.52 0.45,-0.47 0.50,-0.41 0.55,-0.35 0.58,-0.27 0.62,-0.20 0.63,-0.13 0.65,-0.05 0.65,0.02 0.64,0.10 0.62,0.18 0.60,0.25 0.56,0.32 0.52,0.39 0.52,0.39 L 0.52,0.39 Z"/></g><g transform="translate(62.08331298828125 50.97221374511719) rotate(0 5.208343505859375 11.111114501953125)" stroke="none"><path fill="#1e1e1e" d="M 0.36,-0.54 Q 0.36,-0.54 1.71,0.02 3.06,0.59 4.40,1.52 5.74,2.46 6.99,3.72 8.24,4.97 9.24,6.35 10.23,7.73 10.73,9.29 11.23,10.86 11.02,12.73 10.81,14.60 9.79,16.31 8.78,18.01 7.43,19.42 6.07,20.83 4.58,21.86 3.08,22.90 2.99,22.95 2.90,23.01 2.80,23.04 2.70,23.06 2.59,23.05 2.48,23.04 2.39,23.00 2.29,22.96 2.21,22.89 2.13,22.82 2.08,22.72 2.03,22.63 2.01,22.53 1.99,22.42 2.00,22.32 2.02,22.21 2.06,22.12 2.11,22.02 2.19,21.95 2.26,21.87 2.36,21.83 2.45,21.78 2.56,21.76 2.66,21.75 2.77,21.77 2.87,21.79 2.97,21.84 3.06,21.90 3.13,21.98 3.20,22.05 3.24,22.15 3.28,22.25 3.29,22.36 3.30,22.46 3.27,22.56 3.25,22.67 3.19,22.76 3.13,22.85 3.05,22.91 2.97,22.98 2.87,23.02 2.77,23.05 2.66,23.05 2.55,23.06 2.45,23.03 2.35,22.99 2.26,22.93 2.18,22.87 2.12,22.78 2.06,22.70 2.02,22.59 1.99,22.49 2.00,22.39 2.00,22.28 2.04,22.18 2.07,22.08 2.14,22.00 2.21,21.92 2.21,21.92 2.21,21.92 3.28,20.66 4.35,19.40 5.36,17.96 6.37,16.53 7.16,15.30 7.95,14.07 8.21,12.80 8.48,11.52 8.22,10.37 7.96,9.23 7.17,7.99 6.39,6.76 5.33,5.62 4.28,4.48 3.00,3.54 1.72,2.60 0.68,1.57 -0.36,0.54 -0.42,0.49 -0.48,0.44 -0.53,0.37 -0.57,0.31 -0.60,0.24 -0.63,0.16 -0.64,0.08 -0.65,0.01 -0.64,-0.06 -0.64,-0.14 -0.61,-0.22 -0.58,-0.29 -0.54,-0.36 -0.49,-0.42 -0.44,-0.48 -0.38,-0.53 -0.31,-0.57 -0.24,-0.61 -0.16,-0.63 -0.08,-0.65 -0.01,-0.65 0.06,-0.65 0.14,-0.63 0.22,-0.61 0.29,-0.58 0.36,-0.54 0.36,-0.54 L 0.36,-0.54 Z"/></g><g transform="translate(362.77777099609375 123.88888549804688) rotate(0 12.84722900390625 10.416671752929688)" stroke="none"><path fill="#1e1e1e" d="M 0.52,-0.39 Q 0.52,-0.39 1.36,0.22 2.20,0.84 3.33,3.07 4.46,5.29 5.94,8.83 7.42,12.37 9.04,16.03 10.65,19.70 11.76,22.27 12.86,24.83 13.09,25.84 13.33,26.84 13.99,24.85 14.65,22.86 15.61,18.83 16.58,14.80 18.36,9.07 20.14,3.33 21.61,-0.27 23.08,-3.89 23.67,-5.42 24.26,-6.95 24.31,-7.05 24.37,-7.14 24.44,-7.21 24.52,-7.28 24.62,-7.33 24.72,-7.37 24.82,-7.38 24.93,-7.39 25.03,-7.37 25.13,-7.34 25.22,-7.28 25.31,-7.23 25.38,-7.15 25.45,-7.07 25.49,-6.97 25.53,-6.87 25.53,-6.76 25.53,-6.65 25.50,-6.55 25.47,-6.45 25.41,-6.36 25.35,-6.28 25.27,-6.21 25.18,-6.15 25.08,-6.12 24.98,-6.09 24.87,-6.09 24.77,-6.09 24.67,-6.12 24.57,-6.16 24.48,-6.22 24.40,-6.29 24.34,-6.38 24.28,-6.47 24.26,-6.57 24.23,-6.67 24.24,-6.78 24.24,-6.88 24.28,-6.98 24.32,-7.08 24.39,-7.16 24.46,-7.24 24.56,-7.29 24.65,-7.35 24.75,-7.37 24.86,-7.39 24.96,-7.38 25.07,-7.36 25.16,-7.32 25.26,-7.27 25.33,-7.20 25.41,-7.12 25.46,-7.03 25.51,-6.94 25.52,-6.83 25.54,-6.73 25.52,-6.62 25.50,-6.52 25.50,-6.52 25.50,-6.52 25.00,-4.95 24.50,-3.39 23.40,0.27 22.31,3.94 20.86,9.71 19.41,15.47 18.43,19.72 17.44,23.97 16.26,26.38 15.08,28.80 13.78,28.93 12.48,29.06 11.40,27.48 10.31,25.91 9.25,23.35 8.18,20.78 6.57,17.08 4.96,13.38 3.55,9.91 2.13,6.44 1.16,4.39 0.19,2.34 -0.16,1.37 -0.52,0.39 -0.56,0.32 -0.60,0.25 -0.62,0.18 -0.64,0.10 -0.65,0.02 -0.65,-0.05 -0.63,-0.13 -0.62,-0.20 -0.58,-0.28 -0.55,-0.35 -0.50,-0.41 -0.45,-0.47 -0.39,-0.52 -0.32,-0.56 -0.25,-0.59 -0.18,-0.63 -0.10,-0.64 -0.02,-0.65 0.05,-0.64 0.13,-0.64 0.20,-0.61 0.28,-0.59 0.34,-0.55 0.41,-0.50 0.47,-0.45 0.52,-0.39 0.52,-0.39 L 0.52,-0.39 Z"/></g><g transform="translate(639.861083984375 228.0555419921875) rotate(0 5.20831298828125 -11.458328247070312)" stroke="none"><path fill="#1e1e1e" d="M -0.63,-0.18 Q -0.63,-0.18 -0.39,-1.61 -0.16,-3.05 -0.25,-4.50 -0.35,-5.95 -0.58,-7.57 -0.82,-9.18 -1.32,-10.80 -1.82,-12.41 -2.43,-13.87 -3.04,-15.33 -3.69,-16.51 -4.33,-17.69 -4.80,-18.35 -5.26,-19.02 -5.69,-19.74 -6.13,-20.46 -6.72,-20.89 -7.32,-21.31 -7.44,-21.44 -7.56,-21.56 -7.64,-21.71 -7.73,-21.86 -7.78,-22.03 -7.83,-22.19 -7.83,-22.37 -7.84,-22.54 -7.81,-22.71 -7.77,-22.88 -7.70,-23.03 -7.62,-23.19 -7.52,-23.32 -7.41,-23.46 -7.27,-23.56 -7.13,-23.67 -6.97,-23.74 -6.81,-23.80 -6.64,-23.83 -6.47,-23.86 -6.30,-23.85 -6.13,-23.83 -5.96,-23.78 -5.80,-23.72 -5.65,-23.63 -5.51,-23.54 -4.70,-23.62 -3.89,-23.70 -2.58,-23.69 -1.26,-23.67 0.96,-23.47 3.18,-23.26 5.58,-22.76 7.98,-22.27 9.92,-21.41 11.85,-20.56 13.56,-19.33 15.26,-18.11 16.33,-16.42 17.39,-14.73 17.86,-12.90 18.33,-11.06 18.34,-9.18 18.34,-7.30 17.89,-5.72 17.43,-4.14 16.22,-2.83 15.01,-1.52 12.84,-0.94 10.67,-0.36 8.31,-0.45 5.96,-0.54 2.33,-1.55 -1.30,-2.56 -1.40,-2.60 -1.50,-2.63 -1.58,-2.69 -1.67,-2.76 -1.73,-2.85 -1.79,-2.93 -1.81,-3.04 -1.84,-3.14 -1.84,-3.24 -1.83,-3.35 -1.79,-3.45 -1.75,-3.55 -1.68,-3.63 -1.62,-3.71 -1.53,-3.76 -1.43,-3.82 -1.33,-3.84 -1.23,-3.86 -1.12,-3.85 -1.02,-3.84 -0.92,-3.80 -0.82,-3.75 -0.75,-3.68 -0.67,-3.61 -0.62,-3.51 -0.57,-3.42 -0.55,-3.31 -0.53,-3.21 -0.55,-3.10 -0.57,-3.00 -0.62,-2.91 -0.67,-2.81 -0.74,-2.74 -0.82,-2.67 -0.92,-2.62 -1.01,-2.58 -1.12,-2.57 -1.23,-2.55 -1.33,-2.58 -1.43,-2.60 -1.52,-2.65 -1.62,-2.71 -1.68,-2.79 -1.75,-2.87 -1.79,-2.97 -1.83,-3.07 -1.84,-3.17 -1.84,-3.28 -1.82,-3.38 -1.79,-3.48 -1.73,-3.57 -1.67,-3.66 -1.58,-3.72 -1.50,-3.79 -1.40,-3.82 -1.30,-3.86 -1.19,-3.86 -1.08,-3.86 -1.08,-3.86 -1.08,-3.86 2.45,-3.70 6.00,-3.54 7.98,-3.58 9.96,-3.62 11.41,-3.85 12.87,-4.09 13.61,-4.70 14.35,-5.30 14.73,-6.36 15.11,-7.41 15.21,-8.91 15.30,-10.41 15.04,-11.83 14.77,-13.26 14.12,-14.53 13.46,-15.81 12.05,-16.87 10.65,-17.93 9.01,-18.68 7.38,-19.44 5.14,-19.91 2.91,-20.39 0.81,-20.59 -1.28,-20.79 -2.64,-20.80 -3.99,-20.81 -4.85,-20.84 -5.71,-20.88 -6.51,-21.09 -7.32,-21.31 -7.44,-21.44 -7.56,-21.56 -7.64,-21.71 -7.73,-21.86 -7.78,-22.03 -7.83,-22.19 -7.83,-22.37 -7.84,-22.54 -7.81,-22.71 -7.77,-22.88 -7.70,-23.03 -7.63,-23.19 -7.52,-23.32 -7.41,-23.46 -7.27,-23.56 -7.13,-23.67 -6.97,-23.74 -6.81,-23.80 -6.64,-23.83 -6.47,-23.86 -6.30,-23.85 -6.13,-23.83 -5.96,-23.78 -5.80,-23.72 -5.65,-23.63 -5.51,-23.54 -5.16,-23.20 -4.81,-22.86 -4.30,-22.37 -3.78,-21.87 -3.41,-21.18 -3.04,-20.48 -2.54,-19.69 -2.04,-18.89 -1.38,-17.58 -0.71,-16.26 -0.11,-14.67 0.49,-13.08 0.97,-11.27 1.45,-9.47 1.63,-7.73 1.82,-6.00 1.79,-4.26 1.76,-2.53 1.19,-1.17 0.63,0.18 0.60,0.25 0.56,0.32 0.52,0.38 0.47,0.45 0.41,0.50 0.35,0.55 0.28,0.58 0.21,0.62 0.13,0.63 0.05,0.65 -0.02,0.65 -0.10,0.64 -0.17,0.62 -0.25,0.60 -0.32,0.56 -0.39,0.52 -0.44,0.47 -0.50,0.41 -0.54,0.35 -0.59,0.28 -0.61,0.20 -0.64,0.13 -0.64,0.05 -0.65,-0.02 -0.64,-0.10 -0.63,-0.18 -0.63,-0.18 L -0.63,-0.18 Z"/></g><g transform="translate(850.2777099609375 234.3055419921875) rotate(0 -4.1666259765625 -14.236114501953125)" stroke="none"><path fill="#1e1e1e" d="M 0,0.65 Q 0,0.65 -0.79,0.89 -1.59,1.13 -2.13,1.20 -2.67,1.26 -3.32,1.33 -3.97,1.39 -4.72,1.17 -5.46,0.95 -6.47,0.19 -7.48,-0.57 -8.33,-1.55 -9.18,-2.52 -10.00,-4.03 -10.82,-5.53 -11.56,-7.18 -12.30,-8.82 -12.47,-10.97 -12.64,-13.12 -12.48,-15.03 -12.32,-16.95 -11.60,-19.10 -10.89,-21.25 -9.91,-22.85 -8.94,-24.44 -7.84,-25.57 -6.74,-26.69 -5.83,-27.38 -4.92,-28.07 -3.83,-28.61 -2.74,-29.14 -1.54,-29.38 -0.35,-29.63 0.75,-29.49 1.86,-29.35 2.74,-28.72 3.63,-28.10 4.05,-27.12 4.47,-26.15 4.18,-24.92 3.89,-23.68 3.30,-22.59 2.71,-21.50 1.69,-20.68 0.68,-19.86 -0.64,-19.36 -1.97,-18.87 -4.31,-19.14 -6.64,-19.41 -6.74,-19.45 -6.84,-19.48 -6.92,-19.55 -7.01,-19.61 -7.06,-19.70 -7.12,-19.79 -7.15,-19.89 -7.18,-20.00 -7.17,-20.10 -7.16,-20.21 -7.12,-20.31 -7.08,-20.41 -7.01,-20.49 -6.94,-20.57 -6.85,-20.62 -6.76,-20.67 -6.66,-20.69 -6.55,-20.72 -6.45,-20.70 -6.34,-20.69 -6.24,-20.65 -6.15,-20.60 -6.07,-20.53 -6.00,-20.45 -5.95,-20.36 -5.90,-20.26 -5.88,-20.16 -5.87,-20.05 -5.89,-19.95 -5.90,-19.84 -5.96,-19.75 -6.01,-19.66 -6.08,-19.58 -6.16,-19.51 -6.26,-19.47 -6.36,-19.43 -6.46,-19.42 -6.57,-19.41 -6.67,-19.43 -6.77,-19.45 -6.86,-19.51 -6.96,-19.57 -7.02,-19.65 -7.09,-19.73 -7.13,-19.83 -7.17,-19.93 -7.17,-20.03 -7.18,-20.14 -7.15,-20.24 -7.12,-20.34 -7.06,-20.43 -6.99,-20.52 -6.91,-20.58 -6.82,-20.64 -6.72,-20.68 -6.62,-20.71 -6.52,-20.71 -6.41,-20.71 -6.41,-20.71 -6.41,-20.71 -4.68,-21.03 -2.96,-21.36 -1.99,-21.79 -1.02,-22.21 -0.39,-22.60 0.23,-22.99 0.69,-23.82 1.16,-24.65 1.46,-25.12 1.77,-25.58 1.51,-26.06 1.25,-26.54 0.71,-26.63 0.17,-26.72 -0.63,-26.57 -1.43,-26.42 -2.23,-26.02 -3.03,-25.62 -3.75,-25.05 -4.46,-24.48 -5.31,-23.60 -6.16,-22.71 -6.95,-21.44 -7.74,-20.16 -8.36,-18.40 -8.97,-16.63 -9.13,-14.96 -9.28,-13.29 -9.26,-11.69 -9.23,-10.10 -8.56,-8.58 -7.89,-7.05 -7.29,-5.81 -6.68,-4.57 -6.06,-3.76 -5.43,-2.95 -4.66,-2.17 -3.88,-1.39 -3.28,-1.33 -2.67,-1.26 -2.13,-1.20 -1.59,-1.13 -0.79,-0.89 0,-0.65 0.07,-0.64 0.15,-0.63 0.23,-0.60 0.30,-0.58 0.37,-0.53 0.43,-0.49 0.48,-0.43 0.54,-0.37 0.57,-0.30 0.61,-0.23 0.63,-0.15 0.65,-0.07 0.65,0.00 0.65,0.07 0.63,0.15 0.61,0.23 0.57,0.30 0.54,0.37 0.48,0.43 0.43,0.49 0.37,0.53 0.30,0.58 0.23,0.60 0.15,0.63 0.07,0.64 -0.00,0.65 -0.00,0.65 L 0,0.65 Z"/></g><g transform="translate(12.08331298828125 225.97219848632812) rotate(0 8.333343505859375 -14.236099243164062)" stroke="none"><path fill="#1e1e1e" d="M -0.60,-0.24 Q -0.60,-0.24 -0.43,-1.33 -0.25,-2.41 0.07,-3.77 0.41,-5.13 0.54,-6.83 0.67,-8.54 0.53,-10.42 0.39,-12.29 0.14,-13.87 -0.10,-15.45 -0.41,-16.91 -0.72,-18.37 -1.02,-19.11 -1.32,-19.84 -1.62,-20.30 -1.91,-20.76 -1.51,-21.16 -1.10,-21.56 -0.55,-20.85 -0.00,-20.14 0.66,-19.17 1.32,-18.20 2.38,-17.02 3.43,-15.83 4.52,-14.48 5.60,-13.13 6.68,-11.52 7.77,-9.92 9.01,-8.05 10.26,-6.19 11.16,-5.03 12.06,-3.87 12.68,-2.93 13.30,-1.98 13.75,-1.35 14.20,-0.71 14.22,-0.59 14.24,-0.47 14.32,-0.34 14.40,-0.20 14.45,-0.05 14.50,0.09 14.51,0.25 14.51,0.41 14.48,0.57 14.46,0.72 14.39,0.87 14.32,1.01 14.22,1.13 14.13,1.26 14.00,1.36 13.87,1.45 13.73,1.52 13.58,1.58 13.43,1.61 13.27,1.64 13.11,1.63 12.96,1.62 12.80,1.57 12.65,1.52 12.52,1.44 12.38,1.35 12.27,1.24 12.16,1.13 11.24,0.39 10.33,-0.33 9.75,-1.32 9.18,-2.31 8.54,-4.17 7.91,-6.03 7.82,-8.76 7.74,-11.50 8.13,-14.09 8.52,-16.69 9.55,-18.91 10.58,-21.13 11.87,-23.05 13.17,-24.97 15.51,-27.07 17.85,-29.17 17.93,-29.23 18.02,-29.30 18.12,-29.33 18.22,-29.37 18.32,-29.37 18.43,-29.37 18.53,-29.33 18.63,-29.30 18.72,-29.23 18.80,-29.17 18.86,-29.08 18.92,-28.99 18.95,-28.89 18.98,-28.79 18.97,-28.68 18.96,-28.58 18.92,-28.48 18.88,-28.38 18.82,-28.30 18.75,-28.22 18.66,-28.16 18.56,-28.11 18.46,-28.08 18.36,-28.06 18.25,-28.07 18.15,-28.09 18.05,-28.13 17.95,-28.17 17.88,-28.25 17.80,-28.32 17.75,-28.41 17.70,-28.51 17.68,-28.61 17.67,-28.72 17.68,-28.82 17.70,-28.93 17.75,-29.02 17.80,-29.12 17.88,-29.19 17.96,-29.26 18.05,-29.31 18.15,-29.35 18.25,-29.36 18.36,-29.37 18.46,-29.35 18.57,-29.33 18.66,-29.27 18.75,-29.22 18.82,-29.14 18.89,-29.05 18.93,-28.96 18.96,-28.86 18.97,-28.75 18.98,-28.65 18.95,-28.54 18.92,-28.44 18.86,-28.35 18.80,-28.26 18.80,-28.26 18.80,-28.27 17.00,-25.96 15.20,-23.66 14.08,-21.84 12.96,-20.01 12.07,-18.13 11.18,-16.25 10.82,-13.90 10.45,-11.54 10.47,-9.20 10.49,-6.85 11.02,-5.22 11.56,-3.59 11.87,-2.93 12.18,-2.28 12.68,-1.81 13.19,-1.34 13.71,-0.91 14.24,-0.47 14.32,-0.34 14.40,-0.20 14.45,-0.05 14.50,0.09 14.51,0.25 14.51,0.41 14.48,0.57 14.46,0.72 14.39,0.87 14.32,1.01 14.22,1.13 14.13,1.26 14.00,1.36 13.88,1.45 13.73,1.52 13.58,1.58 13.43,1.61 13.27,1.64 13.11,1.63 12.96,1.62 12.80,1.57 12.65,1.52 12.52,1.44 12.38,1.35 12.27,1.24 12.16,1.13 12.19,0.75 12.23,0.37 11.78,-0.15 11.32,-0.69 10.76,-1.55 10.19,-2.41 9.23,-3.64 8.27,-4.86 7.02,-6.72 5.78,-8.58 4.75,-10.10 3.73,-11.62 2.68,-12.93 1.63,-14.24 0.48,-15.55 -0.66,-16.85 -1.42,-18.00 -2.19,-19.14 -2.48,-19.80 -2.77,-20.45 -2.70,-21.68 -2.62,-22.92 -1.87,-23.08 -1.11,-23.23 -0.48,-22.63 0.14,-22.03 0.53,-21.39 0.91,-20.74 1.27,-19.80 1.63,-18.87 1.94,-17.34 2.25,-15.82 2.51,-14.14 2.77,-12.45 2.89,-10.40 3.02,-8.34 2.84,-6.44 2.66,-4.55 2.25,-3.06 1.85,-1.57 1.23,-0.66 0.60,0.24 0.57,0.31 0.53,0.38 0.48,0.44 0.42,0.49 0.36,0.54 0.29,0.58 0.22,0.61 0.14,0.64 0.06,0.64 -0.01,0.65 -0.09,0.64 -0.16,0.63 -0.24,0.60 -0.31,0.57 -0.37,0.52 -0.44,0.48 -0.49,0.42 -0.54,0.36 -0.58,0.29 -0.61,0.22 -0.63,0.14 -0.65,0.06 -0.65,-0.01 -0.65,-0.09 -0.63,-0.16 -0.60,-0.24 -0.60,-0.24 L -0.60,-0.24 Z"/></g><g transform="translate(34.3055419921875 212.77777099609375) rotate(0 1.736114501953125 3.1249847412109375)" stroke="none"><path fill="#1e1e1e" d="M 0.20,0.62 Q 0.20,0.62 -0.32,1.01 -0.85,1.41 -1.41,2.03 -1.98,2.65 -1.92,3.49 -1.86,4.32 -0.82,4.87 0.21,5.41 1.04,5.31 1.87,5.22 2.58,5.01 3.29,4.80 4.07,4.18 4.84,3.57 5.04,2.88 5.24,2.19 3.89,1.61 2.54,1.03 1.51,1.05 0.49,1.06 -1.02,1.41 -2.54,1.75 -2.64,1.77 -2.74,1.79 -2.85,1.77 -2.95,1.76 -3.05,1.71 -3.14,1.66 -3.22,1.58 -3.29,1.51 -3.34,1.41 -3.39,1.32 -3.40,1.21 -3.41,1.11 -3.39,1.00 -3.37,0.90 -3.32,0.81 -3.27,0.71 -3.19,0.64 -3.11,0.57 -3.01,0.53 -2.91,0.49 -2.81,0.48 -2.70,0.47 -2.60,0.50 -2.49,0.53 -2.40,0.58 -2.32,0.64 -2.25,0.73 -2.18,0.81 -2.15,0.91 -2.11,1.01 -2.11,1.12 -2.11,1.22 -2.14,1.32 -2.17,1.42 -2.23,1.51 -2.30,1.60 -2.38,1.66 -2.47,1.72 -2.57,1.75 -2.67,1.78 -2.78,1.78 -2.89,1.77 -2.99,1.74 -3.08,1.70 -3.17,1.63 -3.25,1.56 -3.31,1.47 -3.36,1.38 -3.39,1.28 -3.41,1.18 -3.40,1.07 -3.39,0.97 -3.35,0.87 -3.31,0.77 -3.24,0.69 -3.17,0.61 -3.07,0.56 -2.98,0.51 -2.98,0.51 -2.98,0.51 -1.28,-0.30 0.42,-1.11 1.89,-1.13 3.35,-1.14 4.59,-0.61 5.83,-0.08 6.58,0.75 7.34,1.59 7.32,2.82 7.31,4.05 6.76,4.74 6.22,5.42 5.09,6.21 3.96,6.99 3.00,7.25 2.05,7.50 0.84,7.56 -0.37,7.61 -1.61,7.14 -2.86,6.68 -3.46,5.75 -4.07,4.82 -4.20,3.91 -4.32,3.00 -4.06,2.18 -3.80,1.35 -3.25,0.70 -2.71,0.05 -2.12,-0.28 -1.54,-0.61 -0.87,-0.61 -0.20,-0.62 -0.13,-0.63 -0.05,-0.65 0.02,-0.65 0.10,-0.64 0.18,-0.62 0.25,-0.60 0.32,-0.56 0.39,-0.52 0.45,-0.46 0.50,-0.41 0.55,-0.34 0.59,-0.28 0.61,-0.20 0.64,-0.13 0.64,-0.05 0.65,0.02 0.64,0.10 0.63,0.18 0.59,0.25 0.56,0.32 0.52,0.39 0.47,0.45 0.41,0.50 0.35,0.55 0.27,0.58 0.20,0.62 0.20,0.62 L 0.20,0.62 Z"/></g><g transform="translate(57.91668701171875 205.13888549804688) rotate(0 -2.0833740234375 7.6388702392578125)" stroke="none"><path fill="#1e1e1e" d="M -0.46,-0.46 Q -0.46,-0.46 -0.14,-0.95 0.16,-1.45 0.57,-1.80 0.98,-2.16 0.36,-2.49 -0.25,-2.81 -1.30,-2.87 -2.35,-2.92 -2.91,-2.74 -3.46,-2.57 -4.17,-2.08 -4.88,-1.59 -5.20,-0.76 -5.52,0.06 -5.58,0.78 -5.64,1.50 -5.33,1.99 -5.02,2.48 -4.59,2.84 -4.15,3.20 -3.60,3.56 -3.04,3.92 -2.53,4.33 -2.03,4.73 -1.36,5.27 -0.70,5.80 -0.37,5.95 -0.03,6.10 0.03,6.24 0.09,6.37 0.12,6.52 0.15,6.67 0.15,6.82 0.14,6.97 0.10,7.12 0.05,7.26 -0.01,7.39 -0.09,7.53 -0.19,7.63 -0.30,7.74 -0.42,7.82 -0.55,7.91 -0.70,7.95 -0.84,8.00 -0.99,8.01 -1.14,8.03 -1.29,8.00 -1.44,7.98 -1.58,7.92 -1.72,7.86 -1.84,7.77 -1.96,7.68 -2.06,7.56 -2.15,7.44 -2.48,7.99 -2.80,8.53 -3.30,8.94 -3.79,9.35 -4.61,10.11 -5.44,10.88 -5.93,11.52 -6.42,12.17 -6.56,12.87 -6.69,13.56 -6.79,14.23 -6.88,14.90 -6.57,15.53 -6.26,16.17 -5.84,16.56 -5.43,16.95 -4.61,17.25 -3.78,17.56 -2.93,17.72 -2.08,17.87 -0.92,17.41 0.22,16.95 1.82,16.03 3.41,15.12 3.49,15.05 3.58,14.99 3.68,14.95 3.78,14.92 3.89,14.92 3.99,14.91 4.09,14.95 4.19,14.98 4.28,15.04 4.36,15.11 4.42,15.19 4.48,15.28 4.51,15.38 4.54,15.49 4.54,15.59 4.53,15.70 4.50,15.80 4.46,15.90 4.39,15.98 4.32,16.06 4.23,16.12 4.14,16.17 4.04,16.19 3.93,16.22 3.83,16.21 3.72,16.20 3.63,16.15 3.53,16.11 3.45,16.04 3.37,15.97 3.32,15.87 3.27,15.78 3.25,15.67 3.24,15.57 3.25,15.46 3.27,15.36 3.32,15.27 3.37,15.17 3.44,15.10 3.52,15.02 3.61,14.98 3.71,14.93 3.82,14.92 3.92,14.91 4.02,14.93 4.13,14.95 4.22,15.01 4.31,15.06 4.38,15.14 4.45,15.22 4.49,15.32 4.53,15.42 4.54,15.52 4.55,15.63 4.52,15.73 4.49,15.83 4.43,15.92 4.37,16.01 4.37,16.01 4.37,16.01 2.72,17.65 1.07,19.29 -0.65,19.86 -2.37,20.44 -3.60,20.21 -4.82,19.98 -6.06,19.38 -7.29,18.78 -7.98,17.97 -8.67,17.17 -9.07,15.94 -9.47,14.71 -9.36,13.80 -9.24,12.89 -8.89,11.76 -8.55,10.63 -7.89,9.78 -7.23,8.94 -6.30,8.09 -5.37,7.24 -4.55,6.66 -3.73,6.08 -2.96,5.83 -2.20,5.57 -1.11,5.83 -0.03,6.10 0.03,6.24 0.09,6.37 0.12,6.52 0.15,6.67 0.15,6.82 0.14,6.97 0.10,7.12 0.05,7.26 -0.01,7.39 -0.09,7.53 -0.19,7.63 -0.30,7.74 -0.42,7.82 -0.55,7.91 -0.70,7.95 -0.84,8.00 -0.99,8.01 -1.14,8.03 -1.29,8.00 -1.44,7.98 -1.58,7.92 -1.72,7.86 -1.84,7.77 -1.96,7.68 -2.06,7.56 -2.15,7.44 -2.34,7.24 -2.53,7.04 -3.03,6.84 -3.52,6.63 -3.95,6.28 -4.38,5.93 -5.10,5.45 -5.81,4.96 -6.49,4.27 -7.17,3.58 -7.61,2.53 -8.04,1.48 -7.96,0.47 -7.88,-0.53 -7.64,-1.34 -7.39,-2.16 -6.89,-2.83 -6.38,-3.50 -5.88,-3.88 -5.39,-4.25 -4.74,-4.59 -4.09,-4.92 -3.19,-5.12 -2.29,-5.33 -0.95,-5.20 0.38,-5.08 1.13,-4.76 1.88,-4.45 2.25,-3.97 2.62,-3.48 2.80,-2.87 2.97,-2.25 2.84,-1.72 2.71,-1.20 2.07,-0.67 1.42,-0.14 0.94,0.16 0.46,0.46 0.40,0.51 0.33,0.56 0.26,0.59 0.19,0.62 0.11,0.64 0.03,0.65 -0.03,0.65 -0.11,0.64 -0.19,0.62 -0.26,0.59 -0.33,0.55 -0.40,0.51 -0.46,0.46 -0.51,0.40 -0.55,0.33 -0.59,0.26 -0.62,0.19 -0.64,0.11 -0.65,0.03 -0.65,-0.03 -0.64,-0.11 -0.62,-0.19 -0.59,-0.26 -0.56,-0.33 -0.51,-0.40 -0.46,-0.46 -0.46,-0.46 L -0.46,-0.46 Z"/></g><g transform="translate(70.4166259765625 197.5) rotate(0 -1.736083984375 15.972213745117188)" stroke="none"><path fill="#1e1e1e" d="M 0.20,0.62 Q 0.20,0.62 -0.25,1.10 -0.72,1.59 -1.11,2.11 -1.49,2.63 -1.81,4.07 -2.12,5.51 -2.50,7.76 -2.88,10.00 -2.66,13.22 -2.44,16.43 -1.98,19.41 -1.53,22.38 -0.84,24.80 -0.15,27.23 0.67,29.32 1.50,31.42 1.53,31.52 1.57,31.62 1.56,31.73 1.56,31.84 1.53,31.94 1.49,32.04 1.43,32.12 1.36,32.20 1.27,32.26 1.18,32.32 1.08,32.35 0.98,32.37 0.87,32.37 0.77,32.36 0.67,32.32 0.57,32.28 0.49,32.21 0.41,32.14 0.36,32.04 0.30,31.95 0.28,31.85 0.26,31.74 0.27,31.64 0.29,31.53 0.33,31.44 0.38,31.34 0.45,31.27 0.53,31.19 0.62,31.14 0.72,31.09 0.82,31.08 0.93,31.06 1.03,31.08 1.14,31.10 1.23,31.15 1.32,31.20 1.39,31.28 1.47,31.36 1.51,31.46 1.55,31.55 1.56,31.66 1.57,31.76 1.55,31.87 1.52,31.97 1.47,32.06 1.41,32.15 1.33,32.22 1.25,32.29 1.15,32.32 1.05,32.36 0.94,32.37 0.84,32.37 0.73,32.34 0.63,32.31 0.54,32.25 0.46,32.19 0.39,32.10 0.33,32.02 0.33,32.02 0.33,32.02 -0.95,29.96 -2.23,27.91 -3.16,25.36 -4.10,22.81 -4.63,19.71 -5.17,16.62 -5.41,13.08 -5.64,9.54 -5.21,7.15 -4.79,4.76 -4.15,2.83 -3.51,0.90 -2.59,0.05 -1.67,-0.79 -0.93,-0.70 -0.20,-0.62 -0.13,-0.63 -0.05,-0.65 0.02,-0.65 0.10,-0.64 0.18,-0.62 0.25,-0.60 0.32,-0.56 0.39,-0.52 0.45,-0.46 0.50,-0.41 0.55,-0.34 0.59,-0.28 0.61,-0.20 0.64,-0.13 0.64,-0.05 0.65,0.02 0.64,0.10 0.63,0.18 0.59,0.25 0.56,0.32 0.52,0.39 0.47,0.45 0.41,0.50 0.35,0.55 0.27,0.58 0.20,0.62 0.20,0.62 L 0.20,0.62 Z"/></g><g transform="translate(80.13885498046875 230.83331298828125) rotate(0 1.04168701171875 -10.416656494140625)" stroke="none"><path fill="#1e1e1e" d="M -0.60,0.25 Q -0.60,0.25 -1.74,-2.08 -2.87,-4.42 -3.54,-6.48 -4.20,-8.54 -4.11,-10.97 -4.02,-13.40 -3.55,-15.28 -3.07,-17.16 -1.88,-18.56 -0.68,-19.96 0.82,-20.18 2.33,-20.40 3.52,-19.97 4.72,-19.55 5.56,-18.38 6.39,-17.22 6.54,-15.56 6.69,-13.90 6.26,-12.44 5.82,-10.99 4.63,-10.02 3.44,-9.06 0.60,-9.36 -2.23,-9.66 -2.33,-9.70 -2.43,-9.73 -2.51,-9.79 -2.60,-9.86 -2.66,-9.94 -2.72,-10.03 -2.75,-10.13 -2.78,-10.24 -2.78,-10.34 -2.77,-10.45 -2.73,-10.55 -2.69,-10.65 -2.63,-10.73 -2.56,-10.81 -2.47,-10.86 -2.38,-10.92 -2.27,-10.94 -2.17,-10.97 -2.06,-10.96 -1.96,-10.95 -1.86,-10.90 -1.77,-10.86 -1.69,-10.79 -1.61,-10.72 -1.56,-10.62 -1.51,-10.53 -1.49,-10.43 -1.47,-10.32 -1.49,-10.22 -1.50,-10.11 -1.55,-10.02 -1.60,-9.92 -1.68,-9.85 -1.75,-9.77 -1.85,-9.73 -1.95,-9.68 -2.05,-9.67 -2.16,-9.66 -2.26,-9.68 -2.36,-9.70 -2.46,-9.75 -2.55,-9.81 -2.62,-9.89 -2.69,-9.97 -2.73,-10.07 -2.77,-10.17 -2.77,-10.27 -2.78,-10.38 -2.75,-10.48 -2.73,-10.58 -2.67,-10.67 -2.61,-10.76 -2.53,-10.82 -2.44,-10.89 -2.34,-10.93 -2.24,-10.96 -2.13,-10.96 -2.03,-10.96 -2.03,-10.96 -2.03,-10.96 0.06,-11.02 2.16,-11.08 2.89,-11.53 3.62,-11.98 3.94,-12.92 4.26,-13.85 4.30,-15.00 4.35,-16.14 4.01,-16.88 3.67,-17.63 3.03,-17.92 2.39,-18.22 1.46,-18.26 0.52,-18.31 -0.26,-17.42 -1.04,-16.53 -1.48,-14.89 -1.92,-13.26 -2.10,-11.18 -2.27,-9.09 -1.69,-7.12 -1.11,-5.15 -0.25,-2.70 0.60,-0.25 0.62,-0.17 0.64,-0.10 0.65,-0.02 0.65,0.05 0.63,0.13 0.62,0.21 0.58,0.28 0.55,0.35 0.50,0.41 0.45,0.47 0.38,0.52 0.32,0.57 0.25,0.60 0.17,0.63 0.09,0.64 0.02,0.65 -0.05,0.64 -0.13,0.64 -0.21,0.61 -0.28,0.59 -0.35,0.54 -0.41,0.50 -0.47,0.44 -0.52,0.39 -0.56,0.32 -0.60,0.25 -0.60,0.25 L -0.60,0.25 Z"/></g><g transform="translate(87.77777099609375 194.02777099609375) rotate(0 4.861114501953125 18.055557250976562)" stroke="none"><path fill="#1e1e1e" d="M 0.43,-0.49 Q 0.43,-0.49 2.38,0.95 4.32,2.40 5.84,4.98 7.37,7.57 8.46,11.54 9.55,15.51 9.81,19.27 10.06,23.03 9.48,26.30 8.89,29.58 7.43,32.36 5.97,35.15 5.92,35.24 5.86,35.33 5.78,35.39 5.70,35.46 5.60,35.50 5.50,35.54 5.39,35.54 5.28,35.54 5.18,35.51 5.08,35.48 4.99,35.42 4.91,35.36 4.84,35.27 4.78,35.19 4.75,35.09 4.72,34.98 4.72,34.88 4.72,34.77 4.76,34.67 4.79,34.57 4.86,34.49 4.93,34.41 5.01,34.35 5.10,34.29 5.21,34.26 5.31,34.24 5.42,34.24 5.52,34.25 5.62,34.29 5.72,34.34 5.80,34.41 5.88,34.48 5.93,34.57 5.98,34.66 6.00,34.76 6.02,34.87 6.01,34.97 6.00,35.08 5.95,35.17 5.90,35.27 5.83,35.35 5.75,35.42 5.66,35.47 5.57,35.52 5.46,35.53 5.35,35.55 5.25,35.53 5.15,35.51 5.05,35.46 4.96,35.41 4.89,35.33 4.82,35.25 4.77,35.15 4.73,35.05 4.72,34.95 4.71,34.84 4.74,34.74 4.76,34.64 4.76,34.64 4.76,34.64 5.62,31.91 6.48,29.18 6.92,26.17 7.35,23.17 7.17,19.66 6.99,16.16 6.12,12.43 5.26,8.71 4.06,6.35 2.86,3.98 1.21,2.23 -0.43,0.49 -0.48,0.43 -0.54,0.37 -0.57,0.30 -0.61,0.23 -0.63,0.15 -0.65,0.07 -0.65,-0.00 -0.65,-0.08 -0.63,-0.15 -0.61,-0.23 -0.57,-0.30 -0.53,-0.37 -0.48,-0.43 -0.43,-0.49 -0.36,-0.53 -0.30,-0.58 -0.23,-0.60 -0.15,-0.63 -0.07,-0.64 0.00,-0.65 0.07,-0.64 0.15,-0.63 0.23,-0.60 0.30,-0.58 0.37,-0.53 0.43,-0.49 0.43,-0.49 L 0.43,-0.49 Z"/></g></svg>